g beachbrick bricktower
v -0.8200002 3.984679 0.9999996
v -1 3.984679 0.8199996
v -1 4.164679 0.9999996
v -1 1.006635 0.8836827
v -0.8800001 0.9999999 0.9999998
v -1 0.8843645 0.9999998
v -0.8200002 3.984679 0.9999996
v -1 3.804679 0.9999996
v -1 3.984679 0.8199996
v 0.9999996 5.998926 0.8199996
v 0.9999996 5.818926 0.9999996
v 0.8199996 5.998926 0.9999996
v 0.9999996 5.998926 0.1799998
v 0.9999996 6.178926 -1.543441E-07
v 0.8199996 5.998926 -1.597085E-07
v 0.9999996 5.998926 0.8199996
v 0.8199996 5.998926 0.9999996
v 0.9999996 6.178926 0.9999996
v 0.9999996 5.998926 0.1799998
v 0.8199996 5.998926 -1.597085E-07
v 0.9999996 5.818926 -1.436152E-07
v -1 1.006635 0.8836827
v -1 1.009081 0.9999998
v -0.8800001 0.9999999 0.9999998
v 0.9999999 1 0.12
v 0.9999999 1.12 -3.576279E-09
v 0.8799999 1 -7.152558E-09
v 0.9999996 7.88 0.9999996
v 0.8799996 8 0.9999996
v 0.9999996 8 0.8799996
v -1 7.88 0.9999995
v -1 8 0.8799995
v -0.8800005 8 0.9999995
v 0.9999999 1 0.12
v 0.8799999 1 -7.152558E-09
v 0.9999999 0.9942797 -4.995324E-09
v 0.9999996 7.88 0.9999996
v 0.9999996 7.454731 0.9999996
v 0.9999996 7.029463 0.9999996
v 0.9999996 7.010462 0.9999996
v 0.9999996 7.88 0.9999996
v -0.5800004 8 -3.027916E-07
v -1 8 0.4199996
v -1 7.58 -3.153086E-07
v 0.9999999 8.742278E-08 1
v 1 4.371139E-08 0
v -1.001998 0.004389115 0.004540429
v -1.001998 0.008929878 1.00454
v 0.8799999 1 -7.152558E-09
v 0.9999999 1.12 -3.576279E-09
v 0.9999999 1.97987 -2.920239E-08
v -1 1.97987 -1.484117E-07
v -1 1.004364 -1.194001E-07
v 0.9999999 1 0.9999998
v 0.9999999 8.742278E-08 1
v -1.001998 0.008929878 1.00454
v -0.8800001 0.9999999 0.9999998
v -1 0.8843645 0.9999998
v -1.001998 0.004389115 0.004540429
v 1 4.371139E-08 0
v 0.9999999 0.9942797 -4.995324E-09
v 0.8799999 1 -7.152558E-09
v -1 1.004364 -1.194001E-07
v -1 1.97987 0.9999998
v 0.9999999 1.97987 0.9999998
v 0.9999999 1 0.9999998
v -0.8800001 0.9999999 0.9999998
v -1 1.009081 0.9999998
v 0.9999997 5.007516 0.9999996
v 0.9999998 3.984678 0.9999997
v -0.8200002 3.984679 0.9999996
v -1 5.007516 0.9999996
v -1 4.164679 0.9999996
v 0.9999996 5.818926 0.9999996
v 0.8199996 5.998926 0.9999996
v -1 5.998927 0.9999996
v -1 7.010462 0.9999995
v 0.9999996 6.178926 0.9999996
v 0.9999996 6.604195 0.9999996
v 0.9999996 6.816829 0.9999996
v 0.9999996 7.010462 0.9999996
v 0.9999998 3.984679 -8.895038E-08
v 0.9999997 5.007516 -1.194333E-07
v -1 5.007516 -2.386426E-07
v -1 3.984679 -2.081597E-07
v 0.8199996 5.998926 -1.597085E-07
v 0.9999996 6.178926 -1.543441E-07
v 0.9999996 7.010462 -1.791257E-07
v -1 7.010462 -2.983351E-07
v -1 5.998926 -2.68189E-07
v -1.001998 0.008929878 1.00454
v -1.001998 0.004389115 0.004540429
v -1 1.004364 -1.194001E-07
v -1 0.8843645 0.9999998
v -1 1.006635 0.8836827
v -1 1.97987 -1.484117E-07
v -1 1.009081 0.9999998
v -1 1.97987 0.9999998
v -1 5.007516 -2.386426E-07
v 0.9999997 5.007516 -1.194333E-07
v 0.9999996 5.818926 -1.436152E-07
v 0.8199996 5.998926 -1.597085E-07
v -1 5.998926 -2.68189E-07
v 0.9999998 2.991873 -5.936245E-08
v 0.9999998 3.984679 -8.895038E-08
v -1 3.984679 -2.081597E-07
v -1 2.991873 -1.785718E-07
v 0.9999998 3.984678 0.9999997
v 0.9999998 2.991873 0.9999998
v -1 2.991873 0.9999997
v -0.8200002 3.984679 0.9999996
v -1 3.804679 0.9999996
v -1 1.97987 -1.484117E-07
v -1 2.991873 0.9999997
v -1 1.97987 0.9999998
v -1 2.991873 -1.785718E-07
v -1 3.804679 0.9999996
v -1 3.984679 -2.081597E-07
v -1 3.984679 0.8199996
v -1 4.164679 0.9999996
v -1 5.007516 -2.386426E-07
v -1 5.007516 0.9999996
v -1 5.998927 0.9999996
v -1 5.998926 -2.68189E-07
v -1 7.010462 0.9999995
v -1 7.010462 -2.983351E-07
v -1 7.88 0.9999995
v -1 7.58 -3.153086E-07
v -1 8 0.4199996
v -1 8 0.8799995
v 0.9999999 1.97987 -2.920239E-08
v 0.9999998 2.991873 -5.936245E-08
v -1 2.991873 -1.785718E-07
v -1 1.97987 -1.484117E-07
v -1 1.97987 0.9999998
v -1 2.991873 0.9999997
v 0.9999998 2.991873 0.9999998
v 0.9999999 1.97987 0.9999998
v 0.9999999 1.97987 0.9999998
v 0.9999998 2.991873 -5.936245E-08
v 0.9999999 1.97987 -2.920239E-08
v 0.9999998 2.991873 0.9999998
v 0.9999998 3.984679 -8.895038E-08
v 0.9999998 3.984678 0.9999997
v 0.9999997 5.007516 -1.194333E-07
v 0.9999997 5.007516 0.9999996
v 0.9999996 5.818926 -1.436152E-07
v 0.9999996 5.818926 0.9999996
v 0.9999996 5.998926 0.1799998
v 0.9999996 5.998926 0.8199996
v 0.9999996 6.178926 -1.543441E-07
v 0.9999996 6.178926 0.9999996
v 0.9999996 7.010462 -1.791257E-07
v 0.9999996 6.604195 0.9999996
v 0.9999996 6.816829 0.9999996
v 0.9999996 7.010462 0.9999996
v 0.9999996 8 -2.086163E-07
v 0.9999996 7.029463 0.9999996
v 0.9999996 7.454731 0.9999996
v 0.9999996 7.88 0.9999996
v 0.9999996 8 0.8799996
v -1 8 0.4199996
v -0.5800004 8 -3.027916E-07
v 0.9999996 8 -2.086163E-07
v 0.9999996 8 0.8799996
v -1 8 0.8799995
v -0.8800005 8 0.9999995
v 0.8799996 8 0.9999996
v 0.9999996 7.010462 0.9999996
v -1 7.010462 0.9999995
v 0.9999996 7.88 0.9999996
v 0.8799996 8 0.9999996
v -0.8800005 8 0.9999995
v -1 7.88 0.9999995
v 0.9999999 1.97987 0.9999998
v 0.9999999 1.97987 -2.920239E-08
v 0.9999999 1.12 -3.576279E-09
v 0.9999999 1 0.9999998
v 0.9999999 1 0.12
v 0.9999999 0.9942797 -4.995324E-09
v 0.9999999 8.742278E-08 1
v 1 4.371139E-08 0
v -1 7.010462 -2.983351E-07
v 0.9999996 7.010462 -1.791257E-07
v 0.9999996 8 -2.086163E-07
v -0.5800004 8 -3.027916E-07
v -1 7.58 -3.153086E-07
vt 0.7344202 0.6240695
vt 0.6970601 0.6241485
vt 0.7187775 0.6484745
vt 0.7244397 0.6221123
vt 0.7348125 0.6212144
vt 0.727168 0.6131268
vt 0.7344202 0.6240695
vt 0.7178391 0.5954768
vt 0.6970601 0.6241485
vt 0.5940336 0.749653
vt 0.5848287 0.7321245
vt 0.5725368 0.7497523
vt 0.4368989 0.7498184
vt 0.443533 0.7593924
vt 0.4532709 0.7503068
vt 0.5940336 0.749653
vt 0.5725368 0.7497523
vt 0.5864242 0.762553
vt 0.4368989 0.7498184
vt 0.4532709 0.7503068
vt 0.4448623 0.7367619
vt 0.7932163 0.2568125
vt 0.7737334 0.2605969
vt 0.7829295 0.2487962
vt 0.2526997 0.3752631
vt 0.2636058 0.3862002
vt 0.2715058 0.3750162
vt 0.2497771 0.9851636
vt 0.2347971 1.000165
vt 0.2497771 1.000165
vt 0.5103204 0.8594826
vt 0.5233618 0.8744435
vt 0.5103204 0.8744435
vt 0.2526997 0.3752631
vt 0.2715058 0.3750162
vt 0.2628081 0.3657578
vt 0.3784434 0.9851636
vt 0.3784434 0.932001
vt 0.3784434 0.8788383
vt 0.3784434 0.8764629
vt 0.3784434 0.9851636
vt 0.4362069 0.3649506
vt 0.4882781 0.3128794
vt 0.4882781 0.3649506
vt 0.2519944 0.2479868
vt 0.2519944 0.3729868
vt 0.5019944 0.3729868
vt 0.5019944 0.2479868
vt 0.6040555 0.1265213
vt 0.6184256 0.1414852
vt 0.6184256 0.2487108
vt 0.3789236 0.2487108
vt 0.3789236 0.1265212
vt 0.2519944 0.2479868
vt 0.2519944 0.3729868
vt 0.5019944 0.3729868
vt 0.4869944 0.2479868
vt 0.5019944 0.2629868
vt 0.5023791 0.3742172
vt 0.252379 0.3742171
vt 0.252379 0.2642171
vt 0.267379 0.2492171
vt 0.5023791 0.2492172
vt 0.1251096 0.2504405
vt 0.3747772 0.2491406
vt 0.3747772 0.1250972
vt 0.1400896 0.1250972
vt 0.1251096 0.1400984
vt 0.2497772 0.6260754
vt 0.2497772 0.4982108
vt 0.02257964 0.4982108
vt 0.000109543 0.6260754
vt 0.0001095493 0.5207126
vt 0.2497772 0.7275095
vt 0.2273071 0.7500113
vt 0.0001095357 0.7500113
vt 0.0001095281 0.8764629
vt 0.2497771 0.7725129
vt 0.2497771 0.8256756
vt 0.2497771 0.852257
vt 0.2497771 0.8764629
vt 0.4993586 0.49871
vt 0.4993586 0.6262576
vt 0.2499591 0.6262575
vt 0.2499591 0.49871
vt 0.4769126 0.7498862
vt 0.4993586 0.7723322
vt 0.4993586 0.8760245
vt 0.2499591 0.8760245
vt 0.2499591 0.7498862
vt 0.4985422 0.5109086
vt 0.3830983 0.5103844
vt 0.3825741 0.6258256
vt 0.4980181 0.6119723
vt 0.48459 0.6260877
vt 0.3825741 0.7500682
vt 0.4980181 0.6263701
vt 0.4980181 0.7500682
vt 0.2549002 0.6262575
vt 0.4944021 0.6262576
vt 0.4944021 0.7274404
vt 0.4728469 0.7498863
vt 0.2549002 0.7498862
vt 0.6184255 0.3749074
vt 0.6184255 0.49871
vt 0.3789236 0.49871
vt 0.3789236 0.3749074
vt 0.3747772 0.4982108
vt 0.3747772 0.3741006
vt 0.1251096 0.378132
vt 0.1475796 0.4982109
vt 0.1251096 0.4757091
vt 0.6189989 0.123892
vt 0.5103204 0.2540827
vt 0.5103204 0.1329185
vt 0.6189989 0.2500621
vt 0.5103204 0.3513975
vt 0.6189989 0.3738388
vt 0.5298825 0.3738388
vt 0.5103204 0.39628
vt 0.6189989 0.5013596
vt 0.5103204 0.5013596
vt 0.5103204 0.6249624
vt 0.6189989 0.6249623
vt 0.5103204 0.7510742
vt 0.6189989 0.7510742
vt 0.5103204 0.8594826
vt 0.6189989 0.8220806
vt 0.5733539 0.8744435
vt 0.5233618 0.8744435
vt 0.4993586 0.2487108
vt 0.4993586 0.3749074
vt 0.2499591 0.3749074
vt 0.2499591 0.2487108
vt 0.0001095651 0.249259
vt 0.0001095578 0.378132
vt 0.2497772 0.3741006
vt 0.2497772 0.2491406
vt 0.5103204 0.1238919
vt 0.6189989 0.250062
vt 0.6189989 0.1238919
vt 0.5103204 0.250062
vt 0.6189989 0.3738388
vt 0.5103204 0.3738387
vt 0.6189989 0.5013596
vt 0.5103203 0.5013596
vt 0.6189989 0.6025211
vt 0.5103203 0.6025211
vt 0.5994368 0.6249623
vt 0.5298824 0.6249623
vt 0.6189989 0.6474036
vt 0.5103203 0.6474035
vt 0.6189989 0.7510742
vt 0.5103203 0.7004232
vt 0.5103203 0.7269331
vt 0.5103203 0.7510741
vt 0.6189989 0.8744435
vt 0.5103203 0.753443
vt 0.5103203 0.8064628
vt 0.5103204 0.8594826
vt 0.5233618 0.8744435
vt 0.5009734 0.3211802
vt 0.4489022 0.3732514
vt 0.2530153 0.3732514
vt 0.2530153 0.2641498
vt 0.5009734 0.2641499
vt 0.4860959 0.2492724
vt 0.2678928 0.2492723
vt 0.3784434 0.8764629
vt 0.1287758 0.8764629
vt 0.3784434 0.9851636
vt 0.3634633 1.000165
vt 0.1437558 1.000165
vt 0.1287758 0.9851636
vt 0.3786161 0.6188154
vt 0.4970464 0.6188154
vt 0.4970464 0.5142102
vt 0.3786161 0.4996119
vt 0.4828347 0.4996119
vt 0.4970464 0.498916
vt 0.378616 0.3779596
vt 0.4970464 0.3779596
vt 0.3786254 0.8760245
vt 0.6280249 0.8760245
vt 0.6280248 0.9994196
vt 0.4309993 0.9994196
vt 0.3786254 0.9470457
vn -0.5773506 -0.5773512 0.577349
vn -0.5773506 -0.5773512 0.577349
vn -0.5773506 -0.5773512 0.577349
vn -0.5532648 0.5741471 0.603534
vn -0.5532648 0.5741471 0.603534
vn -0.5532648 0.5741471 0.603534
vn -0.5773506 0.5773501 0.5773501
vn -0.5773506 0.5773501 0.5773501
vn -0.5773506 0.5773501 0.5773501
vn 0.5773492 0.5773497 0.5773519
vn 0.5773492 0.5773497 0.5773519
vn 0.5773492 0.5773497 0.5773519
vn 0.5773506 -0.577351 -0.5773492
vn 0.5773506 -0.577351 -0.5773492
vn 0.5773506 -0.577351 -0.5773492
vn 0.5773506 -0.5773512 0.577349
vn 0.5773506 -0.5773512 0.577349
vn 0.5773506 -0.5773512 0.577349
vn 0.5773491 0.5773498 -0.5773519
vn 0.5773491 0.5773498 -0.5773519
vn 0.5773491 0.5773498 -0.5773519
vn -0.07544622 -0.9969295 0.02096759
vn -0.07544622 -0.9969295 0.02096759
vn -0.07544622 -0.9969295 0.02096759
vn 0.5773507 -0.5773505 -0.5773496
vn 0.5773507 -0.5773505 -0.5773496
vn 0.5773507 -0.5773505 -0.5773496
vn 0.5773497 0.5773503 0.5773509
vn 0.5773497 0.5773503 0.5773509
vn 0.5773497 0.5773503 0.5773509
vn -0.5773494 0.5773507 0.5773507
vn -0.5773494 0.5773507 0.5773507
vn -0.5773494 0.5773507 0.5773507
vn 0.04756132 0.9977353 -0.04756228
vn 0.04756132 0.9977353 -0.04756228
vn 0.04756132 0.9977353 -0.04756228
vn 0 0 1
vn 0 0 1
vn 0 0 1
vn 0 0 1
vn 0 0 1
vn -0.57735 0.5773501 -0.5773507
vn -0.57735 0.5773501 -0.5773507
vn -0.57735 0.5773501 -0.5773507
vn -0.003321217 -0.9999919 0.002270385
vn -0.003321217 -0.9999919 0.002270385
vn -0.003321217 -0.9999919 0.002270385
vn -0.003321217 -0.9999919 0.002270385
vn 0 0 -1
vn 0 0 -1
vn 0 0 -1
vn 0 0 -1
vn 0 0 -1
vn 0.001011406 0.002287504 0.9999969
vn 0.001011406 0.002287504 0.9999969
vn 0.001011406 0.002287504 0.9999969
vn 0.001011406 0.002287504 0.9999969
vn 0.001011406 0.002287504 0.9999969
vn -0.001139817 -0.002269844 -0.9999968
vn -0.001139817 -0.002269844 -0.9999968
vn -0.001139817 -0.002269844 -0.9999968
vn -0.001139817 -0.002269844 -0.9999968
vn -0.001139817 -0.002269844 -0.9999968
vn 0 0 1
vn 0 0 1
vn 0 0 1
vn 0 0 1
vn 0 0 1
vn 0 0 1
vn 0 0 1
vn 0 0 1
vn 0 0 1
vn 0 0 1
vn 0 0 1
vn 0 0 1
vn 0 0 1
vn 0 0 1
vn 0 0 1
vn 0 0 1
vn 0 0 1
vn 0 0 1
vn 0 0 -1
vn 0 0 -1
vn 0 0 -1
vn 0 0 -1
vn 0 0 -1
vn 0 0 -1
vn 0 0 -1
vn 0 0 -1
vn 0 0 -1
vn -0.999998 0.002014863 0.0001161981
vn -0.999998 0.002014863 0.0001161981
vn -0.999998 0.002014863 0.0001161981
vn -0.999998 0.002014863 0.0001161981
vn -0.999998 0.002014863 0.0001161981
vn -1 0 0
vn -1 0 0
vn -1 0 0
vn 0 0 -1
vn 0 0 -1
vn 0 0 -1
vn 0 0 -1
vn 0 0 -1
vn 0 0 -1
vn 0 0 -1
vn 0 0 -1
vn 0 0 -1
vn 0 0 1
vn 0 0 1
vn 0 0 1
vn 0 0 1
vn 0 0 1
vn -1 0 0
vn -1 0 0
vn -1 0 0
vn -1 0 0
vn -1 0 0
vn -1 0 0
vn -1 0 0
vn -1 0 0
vn -1 0 0
vn -1 0 0
vn -1 0 0
vn -1 0 0
vn -1 0 0
vn -1 0 0
vn -1 0 0
vn -1 0 0
vn -1 0 0
vn -1 0 0
vn 0 0 -1
vn 0 0 -1
vn 0 0 -1
vn 0 0 -1
vn 0 0 1
vn 0 0 1
vn 0 0 1
vn 0 0 1
vn 1 0 0
vn 1 0 0
vn 1 0 0
vn 1 0 0
vn 1 0 0
vn 1 0 0
vn 1 0 0
vn 1 0 0
vn 1 0 0
vn 1 0 0
vn 1 0 0
vn 1 0 0
vn 1 0 0
vn 1 0 0
vn 1 0 0
vn 1 0 0
vn 1 0 0
vn 1 0 0
vn 1 0 0
vn 1 0 0
vn 1 0 0
vn 1 0 0
vn 1 0 0
vn 0 1 0
vn 0 1 0
vn 0 1 0
vn 0 1 0
vn 0 1 0
vn 0 1 0
vn 0 1 0
vn 0 0 1
vn 0 0 1
vn 0 0 1
vn 0 0 1
vn 0 0 1
vn 0 0 1
vn 1 0 0
vn 1 0 0
vn 1 0 0
vn 1 0 0
vn 1 0 0
vn 1 0 0
vn 1 0 0
vn 1 0 0
vn 0 0 -1
vn 0 0 -1
vn 0 0 -1
vn 0 0 -1
vn 0 0 -1
g beachbrick bricktower_0
f 3/3/3 2/2/2 1/1/1
f 6/6/6 5/5/5 4/4/4
f 9/9/9 8/8/8 7/7/7
f 12/12/12 11/11/11 10/10/10
f 15/15/15 14/14/14 13/13/13
f 18/18/18 17/17/17 16/16/16
f 21/21/21 20/20/20 19/19/19
f 24/24/24 23/23/23 22/22/22
f 27/27/27 26/26/26 25/25/25
f 30/30/30 29/29/29 28/28/28
f 33/33/33 32/32/32 31/31/31
f 36/36/36 35/35/35 34/34/34
f 39/39/39 38/38/38 37/37/37
f 41/41/41 40/40/40 39/39/39
f 44/44/44 43/43/43 42/42/42
f 47/47/47 46/46/46 45/45/45
f 48/48/48 47/47/47 45/45/45
f 51/51/51 50/50/50 49/49/49
f 49/49/49 52/52/52 51/51/51
f 49/49/49 53/53/53 52/52/52
f 56/56/56 55/55/55 54/54/54
f 54/54/54 57/57/57 56/56/56
f 57/57/57 58/58/58 56/56/56
f 61/61/61 60/60/60 59/59/59
f 59/59/59 62/62/62 61/61/61
f 59/59/59 63/63/63 62/62/62
f 66/66/66 65/65/65 64/64/64
f 64/64/64 67/67/67 66/66/66
f 64/64/64 68/68/68 67/67/67
f 71/71/71 70/70/70 69/69/69
f 69/69/69 72/72/72 71/71/71
f 72/72/72 73/73/73 71/71/71
f 72/72/72 69/69/69 74/74/74
f 74/74/74 75/75/75 72/72/72
f 75/75/75 76/76/76 72/72/72
f 77/77/77 76/76/76 75/75/75
f 77/77/77 75/75/75 78/78/78
f 77/77/77 78/78/78 79/79/79
f 77/77/77 79/79/79 80/80/80
f 80/80/80 81/81/81 77/77/77
f 84/84/84 83/83/83 82/82/82
f 85/85/85 84/84/84 82/82/82
f 88/88/88 87/87/87 86/86/86
f 86/86/86 89/89/89 88/88/88
f 86/86/86 90/90/90 89/89/89
f 93/93/93 92/92/92 91/91/91
f 91/91/91 94/94/94 93/93/93
f 94/94/94 95/95/95 93/93/93
f 96/96/96 93/93/93 95/95/95
f 95/95/95 97/97/97 96/96/96
f 97/97/97 98/98/98 96/96/96
f 101/101/101 100/100/100 99/99/99
f 99/99/99 102/102/102 101/101/101
f 99/99/99 103/103/103 102/102/102
f 106/106/106 105/105/105 104/104/104
f 107/107/107 106/106/106 104/104/104
f 110/110/110 109/109/109 108/108/108
f 108/108/108 111/111/111 110/110/110
f 111/111/111 112/112/112 110/110/110
f 115/115/115 114/114/114 113/113/113
f 114/114/114 116/116/116 113/113/113
f 116/116/116 114/114/114 117/117/117
f 117/117/117 118/118/118 116/116/116
f 117/117/117 119/119/119 118/118/118
f 118/118/118 119/119/119 120/120/120
f 120/120/120 121/121/121 118/118/118
f 120/120/120 122/122/122 121/121/121
f 122/122/122 123/123/123 121/121/121
f 123/123/123 124/124/124 121/121/121
f 123/123/123 125/125/125 124/124/124
f 125/125/125 126/126/126 124/124/124
f 126/126/126 125/125/125 127/127/127
f 127/127/127 128/128/128 126/126/126
f 127/127/127 129/129/129 128/128/128
f 127/127/127 130/130/130 129/129/129
f 133/133/133 132/132/132 131/131/131
f 134/134/134 133/133/133 131/131/131
f 137/137/137 136/136/136 135/135/135
f 138/138/138 137/137/137 135/135/135
f 141/141/141 140/140/140 139/139/139
f 140/140/140 142/142/142 139/139/139
f 140/140/140 143/143/143 142/142/142
f 143/143/143 144/144/144 142/142/142
f 143/143/143 145/145/145 144/144/144
f 145/145/145 146/146/146 144/144/144
f 146/146/146 145/145/145 147/147/147
f 147/147/147 148/148/148 146/146/146
f 147/147/147 149/149/149 148/148/148
f 149/149/149 150/150/150 148/148/148
f 150/150/150 149/149/149 151/151/151
f 151/151/151 152/152/152 150/150/150
f 151/151/151 153/153/153 152/152/152
f 153/153/153 154/154/154 152/152/152
f 153/153/153 155/155/155 154/154/154
f 153/153/153 156/156/156 155/155/155
f 156/156/156 153/153/153 157/157/157
f 157/157/157 158/158/158 156/156/156
f 157/157/157 159/159/159 158/158/158
f 157/157/157 160/160/160 159/159/159
f 157/157/157 161/161/161 160/160/160
f 164/164/164 163/163/163 162/162/162
f 162/162/162 165/165/165 164/164/164
f 162/162/162 166/166/166 165/165/165
f 166/166/166 167/167/167 165/165/165
f 167/167/167 168/168/168 165/165/165
f 171/171/171 170/170/170 169/169/169
f 171/171/171 172/172/172 170/170/170
f 172/172/172 173/173/173 170/170/170
f 173/173/173 174/174/174 170/170/170
f 177/177/177 176/176/176 175/175/175
f 177/177/177 175/175/175 178/178/178
f 178/178/178 179/179/179 177/177/177
f 180/180/180 179/179/179 178/178/178
f 180/180/180 178/178/178 181/181/181
f 181/181/181 182/182/182 180/180/180
f 185/185/185 184/184/184 183/183/183
f 183/183/183 186/186/186 185/185/185
f 183/183/183 187/187/187 186/186/186
