g beefboy_debris.004
v 2.905514 3.299435 -0.222277
v 2.886415 3.191675 -0.001522668
v 2.778295 2.991002 -0.403672
v 2.991069 3.450702 -0.003616021
v 2.886415 3.191675 -0.001522668
v 2.905514 3.299435 -0.222277
v 3.54847 2.556084 -0.284154
v 3.760806 2.515425 -0.01901281
v 3.755871 2.508263 -0.2621808
v 3.527511 2.566291 -0.0143463
v 3.18789 2.723782 -0.3058814
v 3.141139 2.670262 -0.00661783
v 2.891426 2.755164 -0.4530385
v 2.84447 2.672967 -0.0006836585
v 2.750841 2.8947 -0.3886286
v 2.717525 2.820637 0.001855582
v 3.765599 2.508262 0.2241577
v 3.527511 2.566291 -0.0143463
v 3.559244 2.556084 0.2544071
v 3.19982 2.723782 0.2905366
v 3.141139 2.670262 -0.00661783
v 2.84447 2.672967 -0.0006836585
v 2.909478 2.755164 0.4494312
v 2.717525 2.820637 0.001855582
v 2.76643 2.894699 0.3906948
v 2.919292 3.312213 0.2105717
v 2.991069 3.450702 -0.003616021
v 3.32806 3.670846 -0.007933854
v 3.121133 3.293382 0.2467118
v 3.371466 3.238151 -0.01122499
v 2.794463 2.991002 0.4046285
v 3.333431 3.107876 0.1569117
v 2.950341 2.886885 0.4772608
v 2.76643 2.894699 0.3906948
v 3.235308 2.814361 0.3086604
v 2.909478 2.755164 0.4494312
v 3.19982 2.723782 0.2905366
v 3.760677 2.9705 -0.01901035
v 3.856982 2.769706 -0.154881
v 3.89492 2.862802 -0.02169557
v 3.706608 2.863711 -0.1686247
v 3.371466 3.238151 -0.01122499
v 3.78257 2.579004 -0.2642376
v 3.322595 3.096199 -0.183582
v 3.598007 2.645468 -0.291958
v 3.755871 2.508263 -0.2621808
v 3.222625 2.814361 -0.3254097
v 3.54847 2.556084 -0.284154
v 3.18789 2.723782 -0.3058814
v 3.32806 3.670846 -0.007933854
v 3.322595 3.096199 -0.183582
v 3.371466 3.238151 -0.01122499
v 3.103862 3.277212 -0.2678373
v 2.991069 3.450702 -0.003616021
v 3.222625 2.814361 -0.3254097
v 2.905514 3.299435 -0.222277
v 2.931144 2.886885 -0.4824798
v 3.18789 2.723782 -0.3058814
v 2.778295 2.991002 -0.403672
v 2.891426 2.755164 -0.4530385
v 2.750841 2.8947 -0.3886286
v 3.559244 2.556084 0.2544071
v 3.79236 2.579005 0.2251452
v 3.765599 2.508262 0.2241577
v 3.609052 2.645468 0.2602238
v 3.716924 2.872737 0.1273699
v 3.19982 2.723782 0.2905366
v 3.235308 2.814361 0.3086604
v 3.86524 2.777607 0.1082502
v 3.333431 3.107876 0.1569117
v 3.89492 2.862802 -0.02169557
v 3.371466 3.238151 -0.01122499
v 3.760677 2.9705 -0.01901035
v 3.79236 2.579005 0.2251452
v 3.760806 2.515425 -0.01901281
v 3.765599 2.508262 0.2241577
v 3.791242 2.670573 -0.01962161
v 3.78257 2.579004 -0.2642376
v 3.755871 2.508263 -0.2621808
v 2.919292 3.312213 0.2105717
v 2.886415 3.191675 -0.001522668
v 2.991069 3.450702 -0.003616021
v 2.794463 2.991002 0.4046285
v 3.89492 2.862802 -0.02169557
v 3.791242 2.670573 -0.01962161
v 3.86524 2.777607 0.1082502
v 3.79236 2.579005 0.2251452
v 3.856982 2.769706 -0.154881
v 3.89492 2.862802 -0.02169557
v 3.78257 2.579004 -0.2642376
v 2.76643 2.894699 0.3906948
v 2.886415 3.191675 -0.001522668
v 2.794463 2.991002 0.4046285
v 2.717525 2.820637 0.001855582
v 2.778295 2.991002 -0.403672
v 2.886415 3.191675 -0.001522668
v 2.750841 2.8947 -0.3886286
vt 0.1032739 0.9084011
vt 0.09630364 0.8904166
vt 0.09394276 0.8833964
vt 0.1073777 0.9163637
vt 0.09630364 0.8904166
vt 0.1032739 0.9084011
vt 0.9023716 0.1023093
vt 0.9126474 0.1155696
vt 0.9127647 0.1036463
vt 0.9008773 0.1155696
vt 0.8829091 0.1006439
vt 0.8812183 0.1155696
vt 0.8674759 0.09447321
vt 0.8679856 0.1155696
vt 0.8575804 0.09752354
vt 0.8596063 0.1155696
vt 0.9127647 0.1274928
vt 0.9008773 0.1155696
vt 0.9023716 0.1288298
vt 0.8829091 0.1304951
vt 0.8812183 0.1155696
vt 0.8679856 0.1155696
vt 0.8674759 0.1366657
vt 0.8596063 0.1155696
vt 0.8575805 0.1336154
vt 0.09500462 0.8957929
vt 0.1073777 0.9163637
vt 0.1429825 0.9368082
vt 0.1154603 0.8913311
vt 0.1476301 0.8921955
vt 0.07749355 0.8574672
vt 0.1398463 0.8737092
vt 0.09228677 0.8433968
vt 0.07485271 0.8482163
vt 0.1260993 0.8393966
vt 0.08860618 0.8310409
vt 0.1227671 0.8309179
vt 0.09464946 0.1123635
vt 0.09464946 0.1123635
vt 0.09464946 0.1123635
vt 0.09464946 0.1123635
vt 0.09464946 0.1123635
vt 0.09464946 0.1123635
vt 0.09464946 0.1123635
vt 0.09464946 0.1123635
vt 0.09464946 0.1123635
vt 0.09464946 0.1123635
vt 0.09464946 0.1123635
vt 0.09464946 0.1123635
vt 0.1429825 0.9368082
vt 0.1463514 0.8834604
vt 0.1476301 0.8921955
vt 0.1251963 0.9062245
vt 0.1073777 0.9163637
vt 0.1390029 0.8597367
vt 0.1032739 0.9084011
vt 0.1118179 0.874184
vt 0.1349044 0.8500502
vt 0.09394276 0.8833964
vt 0.1069718 0.859991
vt 0.09071219 0.873216
vt 0.09464946 0.1123635
vt 0.09464946 0.1123635
vt 0.09464946 0.1123635
vt 0.09464946 0.1123635
vt 0.09464946 0.1123635
vt 0.09464946 0.1123635
vt 0.09464946 0.1123635
vt 0.09464946 0.1123635
vt 0.09464946 0.1123635
vt 0.09464946 0.1123635
vt 0.09464946 0.1123635
vt 0.09464946 0.1123635
vt 0.9668472 0.118284
vt 0.9615297 0.09897891
vt 0.9608923 0.1181307
vt 0.9739809 0.09897897
vt 0.9668474 0.07967386
vt 0.9608925 0.07982719
vt 0.09500462 0.8957929
vt 0.09630364 0.8904166
vt 0.1073777 0.9163637
vt 0.07749355 0.8574672
vt 0.09464946 0.1123635
vt 0.09464946 0.1123635
vt 0.09464946 0.1123635
vt 0.09464946 0.1123635
vt 0.09464946 0.1123635
vt 0.09464946 0.1123635
vt 0.09464946 0.1123635
vt 0.9587107 0.1404932
vt 0.9290934 0.1136837
vt 0.9510528 0.1427188
vt 0.9608788 0.1091585
vt 0.9420775 0.07967386
vt 0.9290934 0.1136837
vt 0.9500522 0.07967386
vn -0.9314479 0.3522228 0.09134415
vn -0.9272965 0.3676347 0.07046892
vn -0.9254867 0.3768478 0.03820971
vn -0.9220188 0.3733427 0.1024533
vn -0.9272965 0.3676347 0.07046892
vn -0.9314479 0.3522228 0.09134415
vn -0.2795843 -0.9591808 -0.04248241
vn -0.2194051 -0.9752831 0.02615526
vn -0.2194051 -0.9752831 0.02615526
vn -0.2837402 -0.9577336 -0.04730529
vn -0.1638545 -0.974948 -0.1504263
vn -0.1633079 -0.9750252 -0.1505204
vn -0.429101 -0.8804201 -0.201824
vn -0.4199476 -0.8848503 -0.201703
vn -0.7400922 -0.6450856 -0.190074
vn -0.7400922 -0.6450856 -0.190074
vn -0.2202895 -0.9752799 -0.01736557
vn -0.281633 -0.9577294 0.05862777
vn -0.2776617 -0.9591812 0.05362186
vn -0.15769 -0.9749497 0.156866
vn -0.1571724 -0.9750183 0.1569588
vn -0.4115531 -0.8848468 0.2183352
vn -0.4206792 -0.8804232 0.218824
vn -0.7319044 -0.6450781 0.2195225
vn -0.7319044 -0.6450781 0.2195225
vn -0.1875725 0.6301655 0.753464
vn -0.3074223 0.7255385 0.6156991
vn 0.292287 0.5485302 0.7833791
vn 0.2341738 0.499813 0.8338762
vn 0.6429086 0.3917696 0.658168
vn -0.2331036 0.3124834 0.9208783
vn 0.5270417 0.3803649 0.7599668
vn 0.09216664 0.07800594 0.9926835
vn -0.4268444 -0.03650121 0.9035882
vn 0.3574402 0.04870855 0.932665
vn 0.05334695 -0.2179656 0.9744974
vn 0.2434794 -0.2439371 0.9387292
vn 0.4479391 0.6426554 -0.6215662
vn 0.3857304 0.5102787 -0.7686531
vn 0.4756128 0.637945 -0.6056556
vn 0.3675459 0.5176406 -0.7726308
vn 0.6094103 0.3867716 -0.6921177
vn 0.2013936 0.1461546 -0.968545
vn 0.4914544 0.3774949 -0.7848377
vn 0.1642829 0.1198475 -0.9791055
vn 0.0945789 -0.1059931 -0.9898587
vn 0.3197491 0.0487696 -0.9462462
vn 0.04443503 -0.1319012 -0.9902664
vn 0.2057309 -0.2439411 -0.947717
vn 0.2591701 0.5465094 -0.7963406
vn 0.4914544 0.3774949 -0.7848377
vn 0.6094103 0.3867716 -0.6921177
vn 0.2020092 0.4965539 -0.8441721
vn -0.3237797 0.7215382 -0.6120043
vn 0.3197491 0.0487696 -0.9462462
vn -0.2140314 0.628391 -0.7478738
vn 0.05261505 0.07797647 -0.9955658
vn 0.2057309 -0.2439411 -0.947717
vn -0.2691458 0.31233 -0.9110491
vn 0.01431359 -0.2179389 -0.9758574
vn -0.4626426 -0.03650112 -0.8857931
vn 0.08401955 -0.1319043 0.9876952
vn 0.2403696 0.1459431 0.9596474
vn 0.1341019 -0.1059631 0.9852861
vn 0.2035596 0.1197248 0.9717147
vn 0.4044356 0.5252597 0.7486881
vn 0.2434794 -0.2439371 0.9387292
vn 0.3574402 0.04870855 0.932665
vn 0.4222625 0.516353 0.7450328
vn 0.5270417 0.3803649 0.7599668
vn 0.509459 0.6489628 0.5650651
vn 0.6429086 0.3917696 0.658168
vn 0.481841 0.6547032 0.5824026
vn 0.9508576 -0.2962503 -0.09003177
vn 0.9693052 -0.2450959 -0.01937939
vn 0.9676148 -0.244887 -0.06125227
vn 0.9287351 -0.3702916 -0.01831162
vn 0.9536967 -0.2962506 0.0519438
vn 0.9692903 -0.2448862 0.02252318
vn -0.9340274 0.3528276 -0.0557273
vn -0.9296392 0.3668994 -0.03399816
vn -0.9251846 0.3732478 -0.06869835
vn -0.9262753 0.3768458 -0.001190232
vn 0.8742796 -0.4727403 -0.1102349
vn 0.9287351 -0.3702916 -0.01831162
vn 0.8833125 -0.4487825 -0.135474
vn 0.9508576 -0.2962503 -0.09003177
vn 0.8880768 -0.4479296 0.1033378
vn 0.8776695 -0.4724974 0.08026535
vn 0.9536967 -0.2962506 0.0519438
vn -0.9215606 0.3880529 0.01187201
vn -0.9296392 0.3668994 -0.03399816
vn -0.9262753 0.3768458 -0.001190232
vn -0.9215606 0.3880529 0.01187201
vn -0.9254867 0.3768478 0.03820971
vn -0.9272965 0.3676347 0.07046892
vn -0.9213023 0.3880469 0.02493388
g beefboy_debris.004_0
f 3/3/3 2/2/2 1/1/1
f 6/6/6 5/5/5 4/4/4
f 9/9/9 8/8/8 7/7/7
f 8/8/8 10/10/10 7/7/7
f 7/7/7 10/10/10 11/11/11
f 10/10/10 12/12/12 11/11/11
f 11/11/11 12/12/12 13/13/13
f 12/12/12 14/14/14 13/13/13
f 13/13/13 14/14/14 15/15/15
f 14/14/14 16/16/16 15/15/15
f 18/18/18 8/8/8 17/17/17
f 19/19/19 18/18/18 17/17/17
f 18/18/18 19/19/19 20/20/20
f 21/21/21 18/18/18 20/20/20
f 22/22/22 21/21/21 20/20/20
f 23/23/23 22/22/22 20/20/20
f 24/24/24 22/22/22 23/23/23
f 25/25/25 24/24/24 23/23/23
f 28/28/28 27/27/27 26/26/26
f 29/29/29 28/28/28 26/26/26
f 30/30/30 28/28/28 29/29/29
f 26/26/26 31/31/31 29/29/29
f 32/32/32 30/30/30 29/29/29
f 31/31/31 33/33/33 29/29/29
f 29/29/29 33/33/33 32/32/32
f 33/33/33 31/31/31 34/34/34
f 33/33/33 35/35/35 32/32/32
f 36/36/36 33/33/33 34/34/34
f 35/35/35 33/33/33 36/36/36
f 37/37/37 35/35/35 36/36/36
f 40/40/40 39/39/39 38/38/38
f 39/39/39 41/41/41 38/38/38
f 38/38/38 41/41/41 42/42/42
f 41/41/41 39/39/39 43/43/43
f 41/41/41 44/44/44 42/42/42
f 45/45/45 41/41/41 43/43/43
f 41/41/41 45/45/45 44/44/44
f 43/43/43 46/46/46 45/45/45
f 45/45/45 47/47/47 44/44/44
f 46/46/46 48/48/48 45/45/45
f 49/49/49 47/47/47 45/45/45
f 48/48/48 49/49/49 45/45/45
f 52/52/52 51/51/51 50/50/50
f 51/51/51 53/53/53 50/50/50
f 50/50/50 53/53/53 54/54/54
f 51/51/51 55/55/55 53/53/53
f 53/53/53 56/56/56 54/54/54
f 55/55/55 57/57/57 53/53/53
f 53/53/53 57/57/57 56/56/56
f 55/55/55 58/58/58 57/57/57
f 57/57/57 59/59/59 56/56/56
f 58/58/58 60/60/60 57/57/57
f 57/57/57 60/60/60 59/59/59
f 60/60/60 61/61/61 59/59/59
f 64/64/64 63/63/63 62/62/62
f 63/63/63 65/65/65 62/62/62
f 66/66/66 65/65/65 63/63/63
f 62/62/62 65/65/65 67/67/67
f 65/65/65 68/68/68 67/67/67
f 68/68/68 65/65/65 66/66/66
f 69/69/69 66/66/66 63/63/63
f 70/70/70 68/68/68 66/66/66
f 69/69/69 71/71/71 66/66/66
f 72/72/72 70/70/70 66/66/66
f 71/71/71 73/73/73 66/66/66
f 73/73/73 72/72/72 66/66/66
f 76/76/76 75/75/75 74/74/74
f 75/75/75 77/77/77 74/74/74
f 77/77/77 75/75/75 78/78/78
f 75/75/75 79/79/79 78/78/78
f 82/82/82 81/81/81 80/80/80
f 80/80/80 81/81/81 83/83/83
f 86/86/86 85/85/85 84/84/84
f 85/85/85 86/86/86 87/87/87
f 89/89/89 85/85/85 88/88/88
f 85/85/85 90/90/90 88/88/88
f 93/93/93 92/92/92 91/91/91
f 92/92/92 94/94/94 91/91/91
f 94/94/94 96/96/96 95/95/95
f 97/97/97 94/94/94 95/95/95
