g beefboy_debris.000
v 1.536162 0.483886 -0.1381324
v 1.41252 0.3445747 -0.5523307
v 1.681435 0.001906635 -0.9490354
v 1.814573 -0.0002825249 -0.5101043
v 1.8488 0.2197709 0.4754712
v 2.078555 -0.0002825249 0.3601943
v 1.159518 0.2197709 0.6845466
v 1.078597 0.483886 0.0006576125
v 0.9624425 -0.0002825249 0.698737
v 0.6984608 -0.0002825249 -0.1715616
v 0.9513025 0.3445747 -0.4124326
v 0.7691098 -0.01102355 -0.6367813
v 2.078555 -0.0002825249 0.3601943
v 0.9624425 -0.0002825249 0.698737
v 1.159518 0.2197709 0.6845466
v 1.8488 0.2197709 0.4754712
v 0.6984608 -0.0002825249 -0.1715616
v 0.9624425 -0.0002825249 0.698737
v 2.078555 -0.0002825249 0.3601943
v 1.814573 -0.0002825249 -0.5101043
v 0.7691098 -0.01102355 -0.6367813
v 1.681435 0.001906635 -0.9490354
v 0.7691098 -0.01102355 -0.6367813
v 1.681435 0.001906635 -0.9490354
v 1.41252 0.3445747 -0.5523307
v 0.9513025 0.3445747 -0.4124326
v 1.078597 0.483886 0.0006576125
v 0.9578318 0.760139 0.02278541
v 1.64887 0.760139 -0.1868224
v 1.536162 0.483886 -0.1381324
v 1.47237 0.4752417 -0.7786396
v 1.41252 0.3445747 -0.5523307
v 1.080478 -0.008857249 -1.301837
v 1.406209 -0.008857249 -1.044193
v 1.342335 0.2797078 -0.9399063
v 1.074608 0.2224092 -1.205069
v 0.6917116 -0.01379895 -1.419516
v 0.7508524 0.2797078 -0.6785507
v 0.6637778 0.2224092 -1.023538
v 0.5707719 -0.008857249 -1.076616
v 0.6166012 -0.008857249 -0.6952933
v 1.406209 -0.008857249 -1.044193
v 0.6166012 -0.008857249 -0.6952933
v 0.7508524 0.2797078 -0.6785507
v 1.342335 0.2797078 -0.9399063
v 0.5707719 -0.008857249 -1.076616
v 0.6166012 -0.008857249 -0.6952933
v 1.406209 -0.008857249 -1.044193
v 1.080478 -0.008857249 -1.301837
v 0.6917116 -0.01379895 -1.419516
v 1.967675 0.001246692 0.8862294
v 1.739083 0.001687528 0.6561106
v 1.708982 0.3019229 0.60672
v 1.952867 0.241865 0.8141875
v 2.203655 -0.004306554 1.018222
v 2.074223 0.3014348 0.4329729
v 2.142901 0.241611 0.7237874
v 2.203445 0.0009315025 0.7740722
v 2.104324 0.001199485 0.4823634
v 1.739083 0.001687528 0.6561106
v 2.104324 0.001199485 0.4823634
v 2.074223 0.3014348 0.4329729
v 1.708982 0.3019229 0.60672
v 2.203445 0.0009315025 0.7740722
v 2.104324 0.001199485 0.4823634
v 1.739083 0.001687528 0.6561106
v 1.967675 0.001246692 0.8862294
v 2.203655 -0.004306554 1.018222
v 1.261167 -0.00300908 1.136963
v 1.100322 0.003416778 0.8034167
v 1.086363 0.3635961 0.74414
v 1.27319 0.2862341 1.052551
v 1.469242 -0.01365948 1.353737
v 1.558903 0.3642526 0.6235426
v 1.519051 0.2865758 0.9898043
v 1.566201 -0.002585171 1.059115
v 1.572862 0.004072906 0.6828193
v 1.100322 0.003416778 0.8034167
v 1.572862 0.004072906 0.6828193
v 1.558903 0.3642526 0.6235426
v 1.086363 0.3635961 0.74414
v 1.566201 -0.002585171 1.059115
v 1.572862 0.004072906 0.6828193
v 1.100322 0.003416778 0.8034167
v 1.261167 -0.00300908 1.136963
v 1.469242 -0.01365948 1.353737
v 0.9578318 0.760139 0.02278541
v 0.7758153 0.4752417 -0.5673583
v 1.47237 0.4752417 -0.7786396
v 1.64887 0.760139 -0.1868224
v 1.41252 0.3445747 -0.5523307
v 1.47237 0.4752417 -0.7786396
v 0.7758153 0.4752417 -0.5673583
v 0.9513025 0.3445747 -0.4124326
v 0.9578318 0.760139 0.02278541
v 1.078597 0.483886 0.0006576125
vt 0.09464946 0.1123635
vt 0.09464946 0.1123635
vt 0.09464946 0.1123635
vt 0.09464946 0.1123635
vt 0.09464946 0.1123635
vt 0.09464946 0.1123635
vt 0.09464946 0.1123635
vt 0.09464946 0.1123635
vt 0.09464946 0.1123635
vt 0.09464946 0.1123635
vt 0.09464946 0.1123635
vt 0.09464946 0.1123635
vt 0.8946639 0.09767497
vt 0.8989297 0.09576079
vt 0.8988655 0.09278578
vt 0.896231 0.09396788
vt 0.09464946 0.1123635
vt 0.09464946 0.1123635
vt 0.09464946 0.1123635
vt 0.09464946 0.1123635
vt 0.09464946 0.1123635
vt 0.09464946 0.1123635
vt 0.878598 0.09570953
vt 0.8745741 0.09708276
vt 0.8803648 0.09144172
vt 0.8821276 0.09065071
vt 0.1191872 0.8700138
vt 0.118512 0.8949871
vt 0.1291996 0.8742802
vt 0.1262639 0.8563029
vt 0.1795387 0.8553429
vt 0.161496 0.8477073
vt 0.09464946 0.1123635
vt 0.09464946 0.1123635
vt 0.09464946 0.1123635
vt 0.09464946 0.1123635
vt 0.09464946 0.1123635
vt 0.09464946 0.1123635
vt 0.09464946 0.1123635
vt 0.09464946 0.1123635
vt 0.09464946 0.1123635
vt 0.8729262 0.09678784
vt 0.8775975 0.09542432
vt 0.8779528 0.09131026
vt 0.8744537 0.09233165
vt 0.09464946 0.1123635
vt 0.09464946 0.1123635
vt 0.09464946 0.1123635
vt 0.09464946 0.1123635
vt 0.09464946 0.1123635
vt 0.09464946 0.1123635
vt 0.09464946 0.1123635
vt 0.09464946 0.1123635
vt 0.09464946 0.1123635
vt 0.09464946 0.1123635
vt 0.09464946 0.1123635
vt 0.09464946 0.1123635
vt 0.09464946 0.1123635
vt 0.09464946 0.1123635
vt 0.8988774 0.0970467
vt 0.8965299 0.09768578
vt 0.8957605 0.09312424
vt 0.8981081 0.09248516
vt 0.09464946 0.1123635
vt 0.09464946 0.1123635
vt 0.09464946 0.1123635
vt 0.09464946 0.1123635
vt 0.09464946 0.1123635
vt 0.09464946 0.1123635
vt 0.09464946 0.1123635
vt 0.09464946 0.1123635
vt 0.09464946 0.1123635
vt 0.09464946 0.1123635
vt 0.09464946 0.1123635
vt 0.09464946 0.1123635
vt 0.09464946 0.1123635
vt 0.09464946 0.1123635
vt 0.9006169 0.09592915
vt 0.8991544 0.09672776
vt 0.8982479 0.09129289
vt 0.8997104 0.09049428
vt 0.09464946 0.1123635
vt 0.09464946 0.1123635
vt 0.09464946 0.1123635
vt 0.09464946 0.1123635
vt 0.09464946 0.1123635
vt 0.8887103 0.08437547
vt 0.8796524 0.08840254
vt 0.8769901 0.08959714
vt 0.8860691 0.08556059
vt 0.161496 0.8477073
vt 0.1795387 0.8553429
vt 0.1687658 0.8762151
vt 0.1543629 0.8615276
vt 0.118512 0.8949871
vt 0.1191872 0.8700138
vn 0.793803 0.5008802 0.3449579
vn 0.5688511 0.08640043 -0.8178895
vn 0.2671966 0.7701548 -0.5791955
vn 0.677525 0.6890002 -0.257368
vn 0.5652139 0.5251118 0.6362318
vn 0.8143628 0.5383511 0.2167748
vn -0.1629714 0.5146416 0.8417746
vn -0.5172961 0.4615075 0.7207049
vn -0.5829083 0.439989 0.6831014
vn -0.8118511 0.5785595 0.07852686
vn -0.9429898 -0.02124153 -0.3321431
vn -0.5685376 0.6722105 -0.4742341
vn 0.8143628 0.5383511 0.2167748
vn -0.5829083 0.439989 0.6831014
vn -0.1629714 0.5146416 0.8417746
vn 0.5652139 0.5251118 0.6362318
vn 0.003814877 -0.9999861 0.003662282
vn 0 -1 0
vn 0 -1 0
vn 0.004577824 -0.9999799 0.004394711
vn 0.009186167 -0.9999189 0.008819941
vn 0.009186167 -0.9999189 0.008819941
vn -0.5685376 0.6722105 -0.4742341
vn 0.2671966 0.7701548 -0.5791955
vn 0.5688511 0.08640043 -0.8178895
vn -0.9429898 -0.02124153 -0.3321431
vn -0.5172961 0.4615075 0.7207049
vn -0.3499371 -0.2628649 0.8991363
vn 0.7904756 -0.2628611 0.55322
vn 0.793803 0.5008802 0.3449579
vn 0.458252 -0.8014756 -0.384242
vn 0.5688511 0.08640043 -0.8178895
vn 0.4201845 0.3755353 -0.8260861
vn 0.9804555 0.1933078 -0.03659236
vn 0.7394455 0.6143481 0.2753121
vn 0.2141872 0.7624431 -0.6105771
vn -0.3243921 0.6975543 -0.6388958
vn -0.2163203 0.6254916 0.7496438
vn -0.6073974 0.7754984 -0.1722516
vn -0.9047798 0.4104256 -0.113685
vn -0.6191179 0.2087837 0.7570354
vn 0.9804555 0.1933078 -0.03659236
vn -0.6191179 0.2087837 0.7570354
vn -0.2163203 0.6254916 0.7496438
vn 0.7394455 0.6143481 0.2753121
vn 0.002288921 -0.9999839 0.005188222
vn 0 -1 0
vn 0 -1 0
vn 0.001922703 -0.9999887 0.004364231
vn 0.007538142 -0.9998261 0.01706
vn -0.5595464 0.1780819 0.8094409
vn -0.9963235 -0.05749781 -0.06351005
vn -0.8017319 0.5746711 -0.1642528
vn -0.2459531 0.6983982 0.6721213
vn 0.4114328 0.5840509 0.6997197
vn 0.2984539 0.5915974 -0.7489579
vn 0.6920599 0.7094865 0.1329734
vn 0.9754264 0.1909591 -0.1098999
vn 0.487781 -0.04513722 -0.8717983
vn -0.9963235 -0.05749781 -0.06351005
vn 0.487781 -0.04513722 -0.8717983
vn 0.2984539 0.5915974 -0.7489579
vn -0.8017319 0.5746711 -0.1642528
vn -0.005523888 -0.9999459 -0.00881991
vn -0.00152597 -0.9999988 -0.0003967523
vn -0.00152597 -0.9999988 -0.0003967523
vn -0.00485255 -0.999961 -0.007385642
vn -0.01150559 -0.9997042 -0.02142419
vn -0.7778934 0.1769785 0.6029598
vn -0.9458405 -0.03875895 -0.3223097
vn -0.7249699 0.5948025 -0.3473165
vn -0.4160353 0.6951013 0.586301
vn 0.1829602 0.5634076 0.8056659
vn 0.4900492 0.5914345 -0.640357
vn 0.632791 0.6934943 0.344443
vn 0.961009 0.1768569 0.212564
vn 0.7006335 -0.03805767 -0.7125056
vn -0.9458405 -0.03875895 -0.3223097
vn 0.7006335 -0.03805767 -0.7125056
vn 0.4900492 0.5914345 -0.640357
vn -0.7249699 0.5948025 -0.3473165
vn -0.005188256 -0.9996548 -0.02575816
vn -0.003112953 -0.9998379 -0.01773162
vn -0.003112953 -0.9998379 -0.01773162
vn -0.005310261 -0.9996414 -0.02624612
vn -0.008942143 -0.9991395 -0.04049906
vn -0.1215892 0.9080431 -0.4008415
vn -0.1215892 0.9080431 -0.4008415
vn -0.1215892 0.9080431 -0.4008415
vn -0.1215892 0.9080431 -0.4008415
vn 0.5688511 0.08640043 -0.8178895
vn 0.458252 -0.8014756 -0.384242
vn -0.5945133 -0.8014637 -0.06488375
vn -0.9429898 -0.02124153 -0.3321431
vn -0.3499371 -0.2628649 0.8991363
vn -0.5172961 0.4615075 0.7207049
g beefboy_debris.000_0
f 3/3/3 2/2/2 1/1/1
f 4/4/4 3/3/3 1/1/1
f 1/1/1 5/5/5 4/4/4
f 5/5/5 6/6/6 4/4/4
f 7/7/7 5/5/5 1/1/1
f 8/8/8 7/7/7 1/1/1
f 7/7/7 8/8/8 9/9/9
f 8/8/8 10/10/10 9/9/9
f 8/8/8 11/11/11 10/10/10
f 11/11/11 12/12/12 10/10/10
f 15/15/15 14/14/14 13/13/13
f 16/16/16 15/15/15 13/13/13
f 19/19/19 18/18/18 17/17/17
f 20/20/20 19/19/19 17/17/17
f 17/17/17 21/21/21 20/20/20
f 21/21/21 22/22/22 20/20/20
f 25/25/25 24/24/24 23/23/23
f 26/26/26 25/25/25 23/23/23
f 29/29/29 28/28/28 27/27/27
f 30/30/30 29/29/29 27/27/27
f 31/31/31 29/29/29 30/30/30
f 32/32/32 31/31/31 30/30/30
f 35/35/35 34/34/34 33/33/33
f 36/36/36 35/35/35 33/33/33
f 33/33/33 37/37/37 36/36/36
f 38/38/38 35/35/35 36/36/36
f 36/36/36 37/37/37 39/39/39
f 39/39/39 38/38/38 36/36/36
f 39/39/39 37/37/37 40/40/40
f 38/38/38 39/39/39 41/41/41
f 39/39/39 40/40/40 41/41/41
f 44/44/44 43/43/43 42/42/42
f 45/45/45 44/44/44 42/42/42
f 48/48/48 47/47/47 46/46/46
f 49/49/49 48/48/48 46/46/46
f 46/46/46 50/50/50 49/49/49
f 53/53/53 52/52/52 51/51/51
f 54/54/54 53/53/53 51/51/51
f 51/51/51 55/55/55 54/54/54
f 56/56/56 53/53/53 54/54/54
f 54/54/54 55/55/55 57/57/57
f 57/57/57 56/56/56 54/54/54
f 57/57/57 55/55/55 58/58/58
f 56/56/56 57/57/57 59/59/59
f 57/57/57 58/58/58 59/59/59
f 62/62/62 61/61/61 60/60/60
f 63/63/63 62/62/62 60/60/60
f 66/66/66 65/65/65 64/64/64
f 67/67/67 66/66/66 64/64/64
f 64/64/64 68/68/68 67/67/67
f 71/71/71 70/70/70 69/69/69
f 72/72/72 71/71/71 69/69/69
f 69/69/69 73/73/73 72/72/72
f 74/74/74 71/71/71 72/72/72
f 72/72/72 73/73/73 75/75/75
f 75/75/75 74/74/74 72/72/72
f 75/75/75 73/73/73 76/76/76
f 74/74/74 75/75/75 77/77/77
f 75/75/75 76/76/76 77/77/77
f 80/80/80 79/79/79 78/78/78
f 81/81/81 80/80/80 78/78/78
f 84/84/84 83/83/83 82/82/82
f 85/85/85 84/84/84 82/82/82
f 82/82/82 86/86/86 85/85/85
f 89/89/89 88/88/88 87/87/87
f 90/90/90 89/89/89 87/87/87
f 93/93/93 92/92/92 91/91/91
f 94/94/94 93/93/93 91/91/91
f 95/95/95 93/93/93 94/94/94
f 96/96/96 95/95/95 94/94/94
