g block particle mesh
v -7.69444E-08 2.079275 -1.143148
v 0.795704 1.921 -1.143148
v 0.3061469 0.7391044 0.5000001
v 4.30271E-08 0.8000008 0.5000001
v 0.795704 1.921 -1.143148
v 1.470269 1.47027 -1.143148
v 0.5656855 0.5656863 0.5000002
v 0.3061469 0.7391044 0.5000001
v 1.470269 1.47027 -1.143148
v 1.920999 0.7957045 -1.143148
v 0.7391036 0.3061476 0.5000001
v 0.5656855 0.5656863 0.5000002
v 1.920999 0.7957045 -1.143148
v 2.079274 5.33121E-07 -1.143148
v 0.8 8.046627E-07 0.5000002
v 0.7391036 0.3061476 0.5000001
v 2.079274 5.33121E-07 -1.143148
v 1.920999 -0.7957034 -1.143147
v 0.7391036 -0.306146 0.5000002
v 0.8 8.046627E-07 0.5000002
v 1.920999 -0.7957034 -1.143147
v 1.470269 -1.470268 -1.143147
v 0.5656855 -0.5656846 0.5000002
v 0.7391036 -0.306146 0.5000002
v 1.470269 -1.470268 -1.143147
v 0.795704 -1.920998 -1.143147
v 0.3061469 -0.7391027 0.5000002
v 0.5656855 -0.5656846 0.5000002
v 0.795704 -1.920998 -1.143147
v 4.187933E-07 -2.079274 -1.143147
v 2.33762E-07 -0.7999994 0.5000002
v 0.3061469 -0.7391027 0.5000002
v 4.187933E-07 -2.079274 -1.143147
v -0.7957036 -1.920999 -1.143147
v -0.3061466 -0.739103 0.5000002
v 2.33762E-07 -0.7999994 0.5000002
v -0.7957036 -1.920999 -1.143147
v -1.470269 -1.470269 -1.143147
v -0.5656853 -0.5656848 0.5000002
v -0.3061466 -0.739103 0.5000002
v -1.470269 -1.470269 -1.143147
v -1.920999 -0.7957036 -1.143147
v -0.7391036 -0.306146 0.5000002
v -0.5656853 -0.5656848 0.5000002
v -1.920999 -0.7957036 -1.143147
v -2.079275 8.119735E-07 -1.143148
v -0.8 8.046627E-07 0.5000002
v -0.7391036 -0.306146 0.5000002
v -2.079275 8.119735E-07 -1.143148
v -1.920999 0.7957049 -1.143148
v -0.7391035 0.3061477 0.5000001
v -0.8 8.046627E-07 0.5000002
v -1.920999 0.7957049 -1.143148
v -1.470269 1.47027 -1.143148
v -0.5656853 0.5656865 0.5000001
v -0.7391035 0.3061477 0.5000001
v -1.470269 1.47027 -1.143148
v -0.7957032 1.921 -1.143148
v -0.3061464 0.7391046 0.5000001
v -0.5656853 0.5656865 0.5000001
v -0.7957032 1.921 -1.143148
v -7.69444E-08 2.079275 -1.143148
v 4.30271E-08 0.8000008 0.5000001
v -0.3061464 0.7391046 0.5000001
v 2.465437 1.205302 0.2062882
v 2.739016 0.1700722 0.2062881
v 1.095606 0.06802934 0.4216042
v 0.9861748 0.4821214 0.4216043
v 2.739016 0.1700722 0.2062881
v 2.595604 -0.8910494 0.2062881
v 1.038242 -0.3564192 0.4216042
v 1.095606 0.06802934 0.4216042
v 2.595604 -0.8910494 0.2062881
v 2.057035 -1.816517 0.2062882
v 0.8228144 -0.7266062 0.4216042
v 1.038242 -0.3564192 0.4216042
v 2.057035 -1.816517 0.2062882
v 1.205302 -2.465436 0.2062883
v 0.482121 -0.986174 0.4216043
v 0.8228144 -0.7266062 0.4216042
v 1.205302 -2.465436 0.2062883
v 0.1700716 -2.739014 0.2062884
v 0.06802887 -1.095605 0.4216044
v 0.482121 -0.986174 0.4216043
v 0.1700716 -2.739014 0.2062884
v -0.8910497 -2.595603 0.2062885
v -0.3564197 -1.038241 0.4216044
v 0.06802887 -1.095605 0.4216044
v -0.8910497 -2.595603 0.2062885
v -1.816517 -2.057035 0.2062887
v -0.7266067 -0.8228134 0.4216045
v -0.3564197 -1.038241 0.4216044
v -1.816517 -2.057035 0.2062887
v -2.465436 -1.205302 0.2062888
v -0.9861746 -0.4821202 0.4216045
v -0.7266067 -0.8228134 0.4216045
v -2.465436 -1.205302 0.2062888
v -2.739016 -0.1700714 0.2062888
v -1.095606 -0.06802803 0.4216045
v -0.9861746 -0.4821202 0.4216045
v -2.739016 -0.1700714 0.2062888
v -2.595604 0.8910503 0.2062888
v -1.038241 0.3564206 0.4216045
v -1.095606 -0.06802803 0.4216045
v -2.595604 0.8910503 0.2062888
v -2.057036 1.816519 0.2062888
v -0.822814 0.7266077 0.4216045
v -1.038241 0.3564206 0.4216045
v -2.057036 1.816519 0.2062888
v -1.205301 2.465438 0.2062887
v -0.4821204 0.9861754 0.4216045
v -0.822814 0.7266077 0.4216045
v -1.205301 2.465438 0.2062887
v -0.1700714 2.739016 0.2062886
v -0.06802806 1.095607 0.4216044
v -0.4821204 0.9861754 0.4216045
v -0.1700714 2.739016 0.2062886
v 0.8910513 2.595605 0.2062884
v 0.3564207 1.038242 0.4216043
v -0.06802806 1.095607 0.4216044
v 0.8910513 2.595605 0.2062884
v 1.816519 2.057035 0.2062883
v 0.7266077 0.8228147 0.4216043
v 0.3564207 1.038242 0.4216043
v 1.816519 2.057035 0.2062883
v 2.465437 1.205302 0.2062882
v 0.9861748 0.4821214 0.4216043
v 0.7266077 0.8228147 0.4216043
vt 0.5000001 0.003504436
vt 0.4375001 0.003504675
vt 0.4375 0.9999999
vt 0.4999999 0.9999999
vt 0.4375001 0.003504675
vt 0.3750001 0.003504675
vt 0.3750001 1
vt 0.4375 0.9999999
vt 0.3750001 0.003504675
vt 0.3125001 0.003504854
vt 0.3125001 0.9999999
vt 0.3750001 1
vt 0.3125001 0.003504854
vt 0.2500001 0.003504734
vt 0.2500001 0.9999999
vt 0.3125001 0.9999999
vt 0.2500001 0.003504734
vt 0.1875002 0.003504794
vt 0.1875 0.9999999
vt 0.2500001 0.9999999
vt 0.1875002 0.003504794
vt 0.1250002 0.003504675
vt 0.125 0.9999999
vt 0.1875 0.9999999
vt 0.1250002 0.003504675
vt 0.06250018 0.003504615
vt 0.0625 0.9999998
vt 0.125 0.9999999
vt 0.06250018 0.003504615
vt 1.192093E-07 0.003504556
vt 0 0.9999998
vt 0.0625 0.9999998
vt 1 0.003504794
vt 0.9375001 0.003504496
vt 0.9374999 0.9999999
vt 0.9999999 1
vt 0.9375001 0.003504496
vt 0.8750001 0.003504496
vt 0.8749999 0.9999999
vt 0.9374999 0.9999999
vt 0.8750001 0.003504496
vt 0.8125 0.003504496
vt 0.8124998 0.9999998
vt 0.8749999 0.9999999
vt 0.8125 0.003504496
vt 0.75 0.003504436
vt 0.7499998 0.9999999
vt 0.8124998 0.9999998
vt 0.75 0.003504436
vt 0.6874999 0.003504436
vt 0.6874998 0.9999998
vt 0.7499998 0.9999999
vt 0.6874999 0.003504436
vt 0.625 0.003504436
vt 0.6249998 0.9999999
vt 0.6874998 0.9999998
vt 0.625 0.003504436
vt 0.5625 0.003504436
vt 0.5624998 0.9999999
vt 0.6249998 0.9999999
vt 0.5625 0.003504436
vt 0.5000001 0.003504436
vt 0.4999999 0.9999999
vt 0.5624998 0.9999999
vt 0.5000001 0.003504436
vt 0.4375001 0.003504675
vt 0.4375 0.9999999
vt 0.4999999 0.9999999
vt 0.4375001 0.003504675
vt 0.3750001 0.003504675
vt 0.3750001 1
vt 0.4375 0.9999999
vt 0.3750001 0.003504675
vt 0.3125001 0.003504854
vt 0.3125001 0.9999999
vt 0.3750001 1
vt 0.3125001 0.003504854
vt 0.2500001 0.003504734
vt 0.2500001 0.9999999
vt 0.3125001 0.9999999
vt 0.2500001 0.003504734
vt 0.1875002 0.003504794
vt 0.1875 0.9999999
vt 0.2500001 0.9999999
vt 0.1875002 0.003504794
vt 0.1250002 0.003504675
vt 0.125 0.9999999
vt 0.1875 0.9999999
vt 0.1250002 0.003504675
vt 0.06250018 0.003504615
vt 0.0625 0.9999998
vt 0.125 0.9999999
vt 0.06250018 0.003504615
vt 1.192093E-07 0.003504556
vt 0 0.9999998
vt 0.0625 0.9999998
vt 1 0.003504794
vt 0.9375001 0.003504496
vt 0.9374999 0.9999999
vt 0.9999999 1
vt 0.9375001 0.003504496
vt 0.8750001 0.003504496
vt 0.8749999 0.9999999
vt 0.9374999 0.9999999
vt 0.8750001 0.003504496
vt 0.8125 0.003504496
vt 0.8124998 0.9999998
vt 0.8749999 0.9999999
vt 0.8125 0.003504496
vt 0.75 0.003504436
vt 0.7499998 0.9999999
vt 0.8124998 0.9999998
vt 0.75 0.003504436
vt 0.6874999 0.003504436
vt 0.6874998 0.9999998
vt 0.7499998 0.9999999
vt 0.6874999 0.003504436
vt 0.625 0.003504436
vt 0.6249998 0.9999999
vt 0.6874998 0.9999998
vt 0.625 0.003504436
vt 0.5625 0.003504436
vt 0.5624998 0.9999999
vt 0.6249998 0.9999999
vt 0.5625 0.003504436
vt 0.5000001 0.003504436
vt 0.4999999 0.9999999
vt 0.5624998 0.9999999
vn 0.1550549 0.7795135 0.6068909
vn 0.1550549 0.7795135 0.6068909
vn 0.1550549 0.7795135 0.6068909
vn 0.1550549 0.7795135 0.6068909
vn 0.4415588 0.6608397 0.6068909
vn 0.4415588 0.6608397 0.6068909
vn 0.4415588 0.6608397 0.6068909
vn 0.4415588 0.6608397 0.6068909
vn 0.6608398 0.4415586 0.6068911
vn 0.6608398 0.4415586 0.6068911
vn 0.6608398 0.4415586 0.6068911
vn 0.6608398 0.4415586 0.6068911
vn 0.7795134 0.1550551 0.606891
vn 0.7795134 0.1550551 0.606891
vn 0.7795134 0.1550551 0.606891
vn 0.7795134 0.1550551 0.606891
vn 0.7795135 -0.1550547 0.606891
vn 0.7795135 -0.1550547 0.606891
vn 0.7795135 -0.1550547 0.606891
vn 0.7795135 -0.1550547 0.606891
vn 0.6608396 -0.4415589 0.6068911
vn 0.6608396 -0.4415589 0.6068911
vn 0.6608396 -0.4415589 0.6068911
vn 0.6608396 -0.4415589 0.6068911
vn 0.441559 -0.6608396 0.6068911
vn 0.441559 -0.6608396 0.6068911
vn 0.441559 -0.6608396 0.6068911
vn 0.441559 -0.6608396 0.6068911
vn 0.1550552 -0.7795134 0.6068911
vn 0.1550552 -0.7795134 0.6068911
vn 0.1550552 -0.7795134 0.6068911
vn 0.1550552 -0.7795134 0.6068911
vn -0.1550546 -0.7795135 0.6068912
vn -0.1550546 -0.7795135 0.6068912
vn -0.1550546 -0.7795135 0.6068912
vn -0.1550546 -0.7795135 0.6068912
vn -0.441559 -0.6608394 0.6068912
vn -0.441559 -0.6608394 0.6068912
vn -0.441559 -0.6608394 0.6068912
vn -0.441559 -0.6608394 0.6068912
vn -0.6608393 -0.4415592 0.6068912
vn -0.6608393 -0.4415592 0.6068912
vn -0.6608393 -0.4415592 0.6068912
vn -0.6608393 -0.4415592 0.6068912
vn -0.7795135 -0.1550547 0.606891
vn -0.7795135 -0.1550547 0.606891
vn -0.7795135 -0.1550547 0.606891
vn -0.7795135 -0.1550547 0.606891
vn -0.7795134 0.1550553 0.606891
vn -0.7795134 0.1550553 0.606891
vn -0.7795134 0.1550553 0.606891
vn -0.7795134 0.1550553 0.606891
vn -0.6608396 0.4415591 0.6068909
vn -0.6608396 0.4415591 0.6068909
vn -0.6608396 0.4415591 0.6068909
vn -0.6608396 0.4415591 0.6068909
vn -0.4415587 0.6608398 0.6068909
vn -0.4415587 0.6608398 0.6068909
vn -0.4415587 0.6608398 0.6068909
vn -0.4415587 0.6608398 0.6068909
vn -0.1550545 0.7795135 0.606891
vn -0.1550545 0.7795135 0.606891
vn -0.1550545 0.7795135 0.606891
vn -0.1550545 0.7795135 0.606891
vn 0.1277721 0.03376602 0.9912286
vn 0.1277721 0.03376602 0.9912286
vn 0.1277721 0.03376602 0.9912286
vn 0.1277721 0.03376602 0.9912286
vn 0.1309678 -0.01770038 0.9912286
vn 0.1309678 -0.01770038 0.9912286
vn 0.1309678 -0.01770038 0.9912286
vn 0.1309678 -0.01770038 0.9912286
vn 0.1142248 -0.06647222 0.9912286
vn 0.1142248 -0.06647222 0.9912286
vn 0.1142248 -0.06647222 0.9912286
vn 0.1142248 -0.06647222 0.9912286
vn 0.08009224 -0.1051242 0.9912286
vn 0.08009224 -0.1051242 0.9912286
vn 0.08009224 -0.1051242 0.9912286
vn 0.08009224 -0.1051242 0.9912286
vn 0.03376624 -0.1277721 0.9912286
vn 0.03376624 -0.1277721 0.9912286
vn 0.03376624 -0.1277721 0.9912286
vn 0.03376624 -0.1277721 0.9912286
vn -0.01770028 -0.1309677 0.9912286
vn -0.01770028 -0.1309677 0.9912286
vn -0.01770028 -0.1309677 0.9912286
vn -0.01770028 -0.1309677 0.9912286
vn -0.06647205 -0.1142247 0.9912286
vn -0.06647205 -0.1142247 0.9912286
vn -0.06647205 -0.1142247 0.9912286
vn -0.06647205 -0.1142247 0.9912286
vn -0.105124 -0.08009215 0.9912286
vn -0.105124 -0.08009215 0.9912286
vn -0.105124 -0.08009215 0.9912286
vn -0.105124 -0.08009215 0.9912286
vn -0.1277718 -0.03376616 0.9912286
vn -0.1277718 -0.03376616 0.9912286
vn -0.1277718 -0.03376616 0.9912286
vn -0.1277718 -0.03376616 0.9912286
vn -0.1309675 0.01770032 0.9912286
vn -0.1309675 0.01770032 0.9912286
vn -0.1309675 0.01770032 0.9912286
vn -0.1309675 0.01770032 0.9912286
vn -0.1142246 0.06647202 0.9912286
vn -0.1142246 0.06647202 0.9912286
vn -0.1142246 0.06647202 0.9912286
vn -0.1142246 0.06647202 0.9912286
vn -0.08009188 0.1051242 0.9912286
vn -0.08009188 0.1051242 0.9912286
vn -0.08009188 0.1051242 0.9912286
vn -0.08009188 0.1051242 0.9912286
vn -0.03376592 0.1277719 0.9912286
vn -0.03376592 0.1277719 0.9912286
vn -0.03376592 0.1277719 0.9912286
vn -0.03376592 0.1277719 0.9912286
vn 0.01770053 0.1309676 0.9912286
vn 0.01770053 0.1309676 0.9912286
vn 0.01770053 0.1309676 0.9912286
vn 0.01770053 0.1309676 0.9912286
vn 0.06647234 0.1142246 0.9912286
vn 0.06647234 0.1142246 0.9912286
vn 0.06647234 0.1142246 0.9912286
vn 0.06647234 0.1142246 0.9912286
vn 0.1051243 0.08009202 0.9912286
vn 0.1051243 0.08009202 0.9912286
vn 0.1051243 0.08009202 0.9912286
vn 0.1051243 0.08009202 0.9912286
g block particle mesh_0
f 3/3/3 2/2/2 1/1/1
f 4/4/4 3/3/3 1/1/1
f 7/7/7 6/6/6 5/5/5
f 8/8/8 7/7/7 5/5/5
f 11/11/11 10/10/10 9/9/9
f 12/12/12 11/11/11 9/9/9
f 15/15/15 14/14/14 13/13/13
f 16/16/16 15/15/15 13/13/13
f 19/19/19 18/18/18 17/17/17
f 20/20/20 19/19/19 17/17/17
f 23/23/23 22/22/22 21/21/21
f 24/24/24 23/23/23 21/21/21
f 27/27/27 26/26/26 25/25/25
f 28/28/28 27/27/27 25/25/25
f 31/31/31 30/30/30 29/29/29
f 32/32/32 31/31/31 29/29/29
f 35/35/35 34/34/34 33/33/33
f 36/36/36 35/35/35 33/33/33
f 39/39/39 38/38/38 37/37/37
f 40/40/40 39/39/39 37/37/37
f 43/43/43 42/42/42 41/41/41
f 44/44/44 43/43/43 41/41/41
f 47/47/47 46/46/46 45/45/45
f 48/48/48 47/47/47 45/45/45
f 51/51/51 50/50/50 49/49/49
f 52/52/52 51/51/51 49/49/49
f 55/55/55 54/54/54 53/53/53
f 56/56/56 55/55/55 53/53/53
f 59/59/59 58/58/58 57/57/57
f 60/60/60 59/59/59 57/57/57
f 63/63/63 62/62/62 61/61/61
f 64/64/64 63/63/63 61/61/61
f 67/67/67 66/66/66 65/65/65
f 68/68/68 67/67/67 65/65/65
f 71/71/71 70/70/70 69/69/69
f 72/72/72 71/71/71 69/69/69
f 75/75/75 74/74/74 73/73/73
f 76/76/76 75/75/75 73/73/73
f 79/79/79 78/78/78 77/77/77
f 80/80/80 79/79/79 77/77/77
f 83/83/83 82/82/82 81/81/81
f 84/84/84 83/83/83 81/81/81
f 87/87/87 86/86/86 85/85/85
f 88/88/88 87/87/87 85/85/85
f 91/91/91 90/90/90 89/89/89
f 92/92/92 91/91/91 89/89/89
f 95/95/95 94/94/94 93/93/93
f 96/96/96 95/95/95 93/93/93
f 99/99/99 98/98/98 97/97/97
f 100/100/100 99/99/99 97/97/97
f 103/103/103 102/102/102 101/101/101
f 104/104/104 103/103/103 101/101/101
f 107/107/107 106/106/106 105/105/105
f 108/108/108 107/107/107 105/105/105
f 111/111/111 110/110/110 109/109/109
f 112/112/112 111/111/111 109/109/109
f 115/115/115 114/114/114 113/113/113
f 116/116/116 115/115/115 113/113/113
f 119/119/119 118/118/118 117/117/117
f 120/120/120 119/119/119 117/117/117
f 123/123/123 122/122/122 121/121/121
f 124/124/124 123/123/123 121/121/121
f 127/127/127 126/126/126 125/125/125
f 128/128/128 127/127/127 125/125/125
