g block_eroded_edge
v 2 2 1.42
v 2 1.42 2
v 1.42 2 2
v 2 2 1.42
v 2.34539 2 2
v 2 1.42 2
v -2 1.76 2
v -2.24 2 2
v -2 2 1.76
v 0.6 2 2
v 0 1.4 2
v 0 2 1.4
v 0 1.4 2
v 0 1 2
v 0 1 1.002999
v 0 2 1.002999
v 0 2 1.4
v -2 2 1.002999
v -2 1 1.002999
v -2 1 2
v -2 1.76 2
v -2 2 1.76
v 0 0 2
v 0 1 2
v 0 1.4 2
v 0.6 2 2
v 1.42 2 2
v 2 0 2
v 2 1.42 2
v 2.34539 2 2
v 4 0 2
v 4 2 2
v 0 1 2
v -2 0 2
v -2 1 2
v -4 0 2
v -4 1 2
v -2.24 2 2
v -2 1.76 2
v -4 2 2
v 4 2 2
v 2.34539 2 2
v 2 2 1.42
v 4 2 0
v 2 2 0
v 0 2 1.002999
v 0 2 0
v -2 2 0
v 0 2 1.4
v 0.6 2 2
v 1.42 2 2
v -2 2 1.002999
v -4 2 0
v -4 2 1.002999
v -4 2 2
v -2 2 1.76
v -2.24 2 2
v -2 1 1.002999
v 0 1 1.002999
v 0 1 2
v -2 1 2
v 0 2 1.002999
v 0 1 1.002999
v -2 1 1.002999
v -2 2 1.002999
v -0.4244073 0.9593945 1.857171
v 0.04042537 1.26317 1.870399
v 0.03685178 0.9773884 1.987573
v -0.4198856 1.225881 1.639744
v -0.9269763 0.9591801 1.778488
v 0.04678449 1.648577 1.561842
v -0.9494439 1.185891 1.604537
v -1.479683 0.9776487 1.81209
v -0.4332616 1.558252 1.36022
v 0.05249723 1.921645 0.9801476
v -0.4365022 1.709443 0.9790516
v -0.9849906 1.497789 1.358897
v -0.9842354 1.636806 0.9738961
v -1.49397 1.193544 1.606722
v -2.006767 0.9832219 1.973362
v -2.033907 1.237129 1.699226
v -1.51148 1.471699 1.35055
v -1.528615 1.710141 0.967997
v -2.03344 1.515288 1.417652
v -2.019641 1.977125 0.9804722
vt 0.7387399 0.2507755
vt 0.6408179 0.2507755
vt 0.702898 0.3224593
vt 0.7387399 0.2507755
vt 0.702898 0.2080877
vt 0.6408179 0.2507755
vt 0.3093258 0.31406
vt 0.2943259 0.32906
vt 0.3093258 0.32906
vt 0.4718259 0.32906
vt 0.4343258 0.29156
vt 0.4343258 0.32906
vt 0.6250937 0.2125937
vt 0.6250937 0.1875937
vt 0.6874062 0.1875937
vt 0.6874063 0.2500937
vt 0.6625937 0.2500937
vt 0.8125936 0.1241172
vt 0.8125937 0.1866172
vt 0.8749062 0.1866172
vt 0.8749062 0.1391172
vt 0.8599062 0.1241172
vt 0.625 0.125
vt 0.625 0.1875
vt 0.625 0.2125
vt 0.6625 0.25
vt 0.71375 0.25
vt 0.75 0.125
vt 0.75 0.21375
vt 0.78625 0.25
vt 0.875 0.125
vt 0.875 0.25
vt 0.625 0.1875
vt 0.5 0.125
vt 0.5 0.1875
vt 0.375 0.125
vt 0.375 0.1875
vt 0.485 0.25
vt 0.5 0.235
vt 0.375 0.25
vt 0.875 0.375
vt 0.78625 0.375
vt 0.75 0.33875
vt 0.875 0.25
vt 0.75 0.25
vt 0.625 0.3125
vt 0.625 0.25
vt 0.5 0.25
vt 0.625 0.3373872
vt 0.6625 0.375
vt 0.71375 0.375
vt 0.5 0.3125
vt 0.375 0.25
vt 0.375 0.3125
vt 0.375 0.375
vt 0.5 0.3599549
vt 0.485 0.375
vt 0.625 0.1876875
vt 0.75 0.1876875
vt 0.75 0.25
vt 0.625 0.25
vt 0.7490234 0.25
vt 0.7490234 0.1875
vt 0.6240234 0.1875
vt 0.6240234 0.25
vt 0.2419166 0.4244316
vt 0.2302195 0.435978
vt 0.2409087 0.4375441
vt 0.2329649 0.422513
vt 0.2429281 0.4112577
vt 0.2177794 0.4338285
vt 0.2356308 0.4089592
vt 0.246204 0.3972297
vt 0.2223345 0.4202093
vt 0.2047299 0.4310347
vt 0.2108148 0.4176794
vt 0.2262985 0.4063298
vt 0.2150514 0.4036502
vt 0.238083 0.3951209
vt 0.25111 0.3837065
vt 0.2411248 0.3806895
vt 0.2280921 0.3919307
vt 0.2165759 0.3893878
vt 0.229015 0.3777472
vt 0.2154602 0.3756326
vn 0.5773503 0.5773503 0.5773503
vn 0.5773503 0.5773503 0.5773503
vn 0.5773503 0.5773503 0.5773503
vn -0.7648886 0.4554918 0.4554915
vn -0.7648886 0.4554918 0.4554915
vn -0.7648886 0.4554918 0.4554915
vn 0.5773507 0.5773494 0.5773507
vn 0.5773507 0.5773494 0.5773507
vn 0.5773507 0.5773494 0.5773507
vn -0.5773503 0.5773503 0.5773503
vn -0.5773503 0.5773503 0.5773503
vn -0.5773503 0.5773503 0.5773503
vn -1 0 0
vn -1 0 0
vn -1 0 0
vn -1 0 0
vn -1 0 0
vn 1 0 0
vn 1 0 0
vn 1 0 0
vn 1 0 0
vn 1 0 0
vn 0 0 1
vn 0 0 1
vn 0 0 1
vn 0 0 1
vn 0 0 1
vn 0 0 1
vn 0 0 1
vn 0 0 1
vn 0 0 1
vn 0 0 1
vn 0 0 1
vn 0 0 1
vn 0 0 1
vn 0 0 1
vn 0 0 1
vn 0 0 1
vn 0 0 1
vn 0 0 1
vn 0 1 0
vn 0 1 0
vn 0 1 0
vn 0 1 0
vn 0 1 0
vn 0 1 0
vn 0 1 0
vn 0 1 0
vn 0 1 0
vn 0 1 0
vn 0 1 0
vn 0 1 0
vn 0 1 0
vn 0 1 0
vn 0 1 0
vn 0 1 0
vn 0 1 0
vn 0 1 0
vn 0 1 0
vn 0 1 0
vn 0 1 0
vn 0 0 1
vn 0 0 1
vn 0 0 1
vn 0 0 1
vn -0.2366168 0.55353 0.7985092
vn -0.371662 0.5306972 0.761727
vn -0.3432485 0.4903812 0.8010659
vn -0.2427808 0.5870078 0.7723207
vn -0.04058968 0.6343282 0.7719975
vn -0.3885377 0.718021 0.577481
vn -0.04159781 0.6363886 0.7702462
vn 0.1203065 0.6844532 0.719062
vn -0.2494048 0.7893242 0.5610388
vn -0.3469802 0.8585846 0.3774085
vn -0.2385984 0.8986045 0.368213
vn -0.04574823 0.7962451 0.6032419
vn -0.04016344 0.9164649 0.3980941
vn 0.09525016 0.6772192 0.72959
vn 0.1938915 0.7090635 0.6779639
vn 0.1786905 0.6991056 0.6923302
vn 0.1166752 0.7557487 0.6443839
vn 0.170177 0.8168252 0.5512135
vn 0.2172062 0.7114058 0.6683735
vn 0.2734195 0.7319061 0.6241437
g block_eroded_edge_0
f 3/3/3 2/2/2 1/1/1
f 6/6/6 5/5/5 4/4/4
f 9/9/9 8/8/8 7/7/7
f 12/12/12 11/11/11 10/10/10
f 15/15/15 14/14/14 13/13/13
f 13/13/13 16/16/16 15/15/15
f 13/13/13 17/17/17 16/16/16
f 20/20/20 19/19/19 18/18/18
f 18/18/18 21/21/21 20/20/20
f 18/18/18 22/22/22 21/21/21
f 25/25/25 24/24/24 23/23/23
f 26/26/26 25/25/25 23/23/23
f 27/27/27 26/26/26 23/23/23
f 27/27/27 23/23/23 28/28/28
f 28/28/28 29/29/29 27/27/27
f 30/30/30 29/29/29 28/28/28
f 30/30/30 28/28/28 31/31/31
f 31/31/31 32/32/32 30/30/30
f 34/34/34 23/23/23 33/33/33
f 35/35/35 34/34/34 33/33/33
f 36/36/36 34/34/34 35/35/35
f 37/37/37 36/36/36 35/35/35
f 38/38/38 37/37/37 35/35/35
f 35/35/35 39/39/39 38/38/38
f 38/38/38 40/40/40 37/37/37
f 43/43/43 42/42/42 41/41/41
f 43/43/43 41/41/41 44/44/44
f 44/44/44 45/45/45 43/43/43
f 46/46/46 43/43/43 45/45/45
f 45/45/45 47/47/47 46/46/46
f 46/46/46 47/47/47 48/48/48
f 46/46/46 49/49/49 43/43/43
f 49/49/49 50/50/50 43/43/43
f 50/50/50 51/51/51 43/43/43
f 52/52/52 46/46/46 48/48/48
f 52/52/52 48/48/48 53/53/53
f 54/54/54 52/52/52 53/53/53
f 52/52/52 54/54/54 55/55/55
f 55/55/55 56/56/56 52/52/52
f 55/55/55 57/57/57 56/56/56
f 60/60/60 59/59/59 58/58/58
f 61/61/61 60/60/60 58/58/58
f 64/64/64 63/63/63 62/62/62
f 65/65/65 64/64/64 62/62/62
f 68/68/68 67/67/67 66/66/66
f 67/67/67 69/69/69 66/66/66
f 66/66/66 69/69/69 70/70/70
f 67/67/67 71/71/71 69/69/69
f 69/69/69 72/72/72 70/70/70
f 70/70/70 72/72/72 73/73/73
f 71/71/71 74/74/74 69/69/69
f 69/69/69 74/74/74 72/72/72
f 71/71/71 75/75/75 74/74/74
f 75/75/75 76/76/76 74/74/74
f 74/74/74 76/76/76 77/77/77
f 74/74/74 77/77/77 72/72/72
f 76/76/76 78/78/78 77/77/77
f 72/72/72 79/79/79 73/73/73
f 72/72/72 77/77/77 79/79/79
f 73/73/73 79/79/79 80/80/80
f 79/79/79 81/81/81 80/80/80
f 77/77/77 78/78/78 82/82/82
f 77/77/77 82/82/82 79/79/79
f 79/79/79 82/82/82 81/81/81
f 78/78/78 83/83/83 82/82/82
f 82/82/82 84/84/84 81/81/81
f 82/82/82 83/83/83 84/84/84
f 83/83/83 85/85/85 84/84/84
