g block_dune
v 1.48012 0.03624939 -2.755961
v 2.382789 -0.05660424 -2.586327
v 2.5591 0.03157891 -1.647227
v 1.556605 0.417857 -1.707944
v 2.557296 0.06919435 0.102241
v -0.1476212 0.06743541 -2.744323
v 1.594145 0.7563675 0.1285792
v 2.563607 0.0506891 2.230723
v -0.1493222 0.735201 -1.726494
v 1.598662 0.5910683 2.302724
v 2.55769 -0.02764413 4.372796
v -2.295422 0.4978641 -1.723383
v -2.231394 0.03142747 -2.746277
v 0.004996751 1.797997 -0.002048836
v 1.608749 0.3198098 4.477444
v 2.554145 -0.07818687 6.429245
v -4.449414 0.1731977 -1.732411
v -4.361022 -0.05799279 -2.738352
v -2.223203 0.9494107 0.008044829
v -0.01487194 1.079633 2.244983
v 1.613481 0.1041303 6.573237
v 2.389562 -0.1135236 7.887867
v 1.549759 -0.06864041 8.126036
v 0.1182251 0.5881592 4.401415
v 0.2010105 0.2275335 6.691057
v 0.1695442 -0.05471379 8.086304
v -1.467651 -0.06326628 7.738853
v -1.457871 0.2016812 6.09737
v -3.09841 -0.2281309 7.208883
v -1.971308 0.7873511 2.002655
v -1.655989 0.5048063 4.016766
v -3.030509 -0.01695552 5.424873
v -4.869929 -0.543291 6.801319
v -3.402928 0.2506917 3.507565
v -4.462719 -0.3397313 4.678658
v -6.521924 -0.8893349 6.64856
v -6.650463 -0.5383528 5.010855
v -5.273476 -0.03782582 3.150291
v -7.077391 -0.2300525 3.201506
v -3.937304 0.3798103 1.696027
v -5.987909 0.1088487 1.508051
v -7.64554 -0.08288789 1.522886
v -4.349495 0.360807 -0.1296292
v -6.613078 0.08019608 -0.2089127
v -8.031909 -0.08545882 -0.1792019
v -6.529253 0.002346735 -1.737318
v -8.094501 -0.09390138 -1.685739
v -6.408987 -0.1036246 -2.734491
v -7.870283 -0.1194971 -2.57097
vt 7.980258 9.363453
vt 9.214062 9.215835
vt 9.360513 7.981798
vt 7.999553 8.001793
vt 9.360816 6.330441
vt 6.328767 9.360176
vt 8.007974 6.336141
vt 9.36278 4.679532
vt 6.332482 8.003875
vt 8.006077 4.672216
vt 9.351994 3.033106
vt 4.668589 7.999179
vt 4.677875 9.359597
vt 6.331633 6.333233
vt 7.988364 3.027196
vt 9.345325 1.386504
vt 3.027938 7.982862
vt 3.03257 9.350546
vt 4.662503 6.334782
vt 6.332433 4.668266
vt 7.978022 1.382415
vt 9.208852 0.1515615
vt 7.975491 0.0123122
vt 6.329584 3.029719
vt 6.328109 1.385471
vt 6.327943 0.01370743
vt 4.680108 0.01154712
vt 4.677912 1.381851
vt 3.033456 0.01432899
vt 4.66581 4.673573
vt 4.674489 3.02809
vt 3.032478 1.386024
vt 1.386563 0.01562026
vt 3.03184 3.033442
vt 1.386383 1.387543
vt 0.1512292 0.1526451
vt 0.01385215 1.387646
vt 1.38665 3.034676
vt 0.0137234 3.034756
vt 3.026758 4.680183
vt 1.384146 4.681471
vt 0.01221994 4.681765
vt 3.028803 6.330438
vt 1.387276 6.328288
vt 0.01395252 6.328783
vt 1.385075 7.9751
vt 0.01343897 7.975721
vt 1.386292 9.344945
vt 0.1511584 9.209619
vn 0.173164 0.914528 -0.3655854
vn 0.2646307 0.9304037 -0.2536133
vn 0.3836897 0.9076465 -0.1701761
vn 0.3078152 0.9042795 -0.2958517
vn 0.5090895 0.8601203 -0.03195352
vn 0.01883019 0.8817534 -0.4713346
vn 0.4591301 0.8865202 -0.05728444
vn 0.4846104 0.8731167 0.05310298
vn 0.04199407 0.9026589 -0.4283029
vn 0.4023612 0.9084257 0.1134388
vn 0.3566776 0.9317809 0.06756946
vn -0.1442633 0.9282353 -0.3428809
vn -0.07336816 0.908221 -0.4120093
vn 0.07925912 0.992677 -0.09116172
vn 0.2654524 0.9583206 0.1056255
vn 0.2192469 0.9732133 0.06918606
vn -0.1097483 0.9759238 -0.1884888
vn -0.07242244 0.9641066 -0.2554471
vn -0.2409761 0.9679023 -0.07138336
vn 0.06467015 0.9787807 0.1944377
vn 0.1511319 0.9829064 0.1051392
vn 0.1428294 0.9865909 0.07898343
vn 0.09293095 0.9883031 0.1209171
vn 0.04471024 0.9860973 0.1600413
vn 0.01437454 0.9878757 0.1545797
vn -0.000244154 0.9863518 0.1646514
vn -0.1052607 0.9818327 0.1578757
vn -0.1220457 0.9804853 0.1541212
vn -0.1903791 0.9757613 0.107916
vn -0.2161953 0.9628381 0.1618718
vn -0.1536022 0.9734648 0.1696247
vn -0.2076204 0.9676945 0.1430423
vn -0.1760045 0.9786 0.1066038
vn -0.2107017 0.9610974 0.1785959
vn -0.1882726 0.9655034 0.1798798
vn -0.132972 0.9818928 0.1349252
vn -0.1046487 0.9797729 0.1705691
vn -0.1370926 0.9753045 0.1731664
vn -0.09363173 0.9823397 0.1619939
vn -0.1877222 0.9772784 0.09842367
vn -0.1243955 0.9893043 0.07617546
vn -0.1117599 0.9914041 0.06802646
vn -0.1662966 0.9850836 -0.04422164
vn -0.1072444 0.9941016 -0.01614465
vn -0.1006209 0.9949168 -0.003997979
vn -0.07065147 0.9934849 -0.08942065
vn -0.06747805 0.9964228 -0.05087558
vn -0.04754923 0.9904156 -0.1296769
vn -0.04239053 0.9961013 -0.07736502
g block_dune_0
f 3/3/3 2/2/2 1/1/1
f 4/4/4 3/3/3 1/1/1
f 5/5/5 3/3/3 4/4/4
f 4/4/4 1/1/1 6/6/6
f 7/7/7 5/5/5 4/4/4
f 8/8/8 5/5/5 7/7/7
f 9/9/9 4/4/4 6/6/6
f 7/7/7 4/4/4 9/9/9
f 10/10/10 8/8/8 7/7/7
f 11/11/11 8/8/8 10/10/10
f 9/9/9 6/6/6 12/12/12
f 6/6/6 13/13/13 12/12/12
f 14/14/14 7/7/7 9/9/9
f 10/10/10 7/7/7 14/14/14
f 15/15/15 11/11/11 10/10/10
f 16/16/16 11/11/11 15/15/15
f 12/12/12 13/13/13 17/17/17
f 13/13/13 18/18/18 17/17/17
f 9/9/9 12/12/12 19/19/19
f 14/14/14 9/9/9 19/19/19
f 20/20/20 10/10/10 14/14/14
f 15/15/15 10/10/10 20/20/20
f 21/21/21 16/16/16 15/15/15
f 22/22/22 16/16/16 21/21/21
f 23/23/23 22/22/22 21/21/21
f 21/21/21 15/15/15 24/24/24
f 24/24/24 15/15/15 20/20/20
f 23/23/23 21/21/21 25/25/25
f 25/25/25 21/21/21 24/24/24
f 26/26/26 23/23/23 25/25/25
f 26/26/26 25/25/25 27/27/27
f 25/25/25 28/28/28 27/27/27
f 25/25/25 24/24/24 28/28/28
f 27/27/27 28/28/28 29/29/29
f 20/20/20 14/14/14 30/30/30
f 14/14/14 19/19/19 30/30/30
f 24/24/24 20/20/20 31/31/31
f 24/24/24 31/31/31 28/28/28
f 20/20/20 30/30/30 31/31/31
f 28/28/28 32/32/32 29/29/29
f 28/28/28 31/31/31 32/32/32
f 29/29/29 32/32/32 33/33/33
f 31/31/31 30/30/30 34/34/34
f 31/31/31 34/34/34 32/32/32
f 32/32/32 35/35/35 33/33/33
f 32/32/32 34/34/34 35/35/35
f 33/33/33 35/35/35 36/36/36
f 35/35/35 37/37/37 36/36/36
f 35/35/35 38/38/38 37/37/37
f 34/34/34 38/38/38 35/35/35
f 38/38/38 39/39/39 37/37/37
f 30/30/30 40/40/40 34/34/34
f 34/34/34 40/40/40 38/38/38
f 30/30/30 19/19/19 40/40/40
f 38/38/38 41/41/41 39/39/39
f 40/40/40 41/41/41 38/38/38
f 41/41/41 42/42/42 39/39/39
f 19/19/19 43/43/43 40/40/40
f 40/40/40 43/43/43 41/41/41
f 19/19/19 12/12/12 43/43/43
f 12/12/12 17/17/17 43/43/43
f 41/41/41 44/44/44 42/42/42
f 43/43/43 44/44/44 41/41/41
f 43/43/43 17/17/17 44/44/44
f 44/44/44 45/45/45 42/42/42
f 17/17/17 46/46/46 44/44/44
f 44/44/44 46/46/46 45/45/45
f 17/17/17 18/18/18 46/46/46
f 46/46/46 47/47/47 45/45/45
f 18/18/18 48/48/48 46/46/46
f 46/46/46 48/48/48 47/47/47
f 48/48/48 49/49/49 47/47/47
