g book
v -0.9282871 0.9282871 5.960464E-08
v -0.7736075 0.7736075 0.5000001
v -0.9282871 0.9282871 0.5000001
v -0.7736075 0.7736076 5.960464E-08
v -0.9282872 0.9282872 -0.4999999
v -0.6189278 0.6189279 0.5000001
v -0.7736076 0.7736076 -0.5
v -0.6189279 0.618928 5.960464E-08
v -0.4642482 0.4642483 0.5000001
v -0.618928 0.618928 -0.5
v -0.4642483 0.4642484 5.960464E-08
v -0.3095687 0.3095688 0.5000001
v -0.4642484 0.4642484 -0.5
v -0.3095687 0.3095688 5.960464E-08
v -0.1548891 0.1548892 0.5
v -0.3095688 0.3095688 -0.5
v -0.1548891 0.1548892 2.980232E-08
v -0.0002095066 0.0002095699 0.5
v -0.1548892 0.1548892 -0.5
v -0.0002095541 0.000209555 0
v -0.0002096016 0.0002095401 -0.5
v 0.9282871 0.9282871 5.960464E-08
v 0.9282871 0.9282871 0.5000001
v 0.7736075 0.7736075 0.5000001
v 0.7736076 0.7736076 2.980232E-08
v 0.9282872 0.9282872 -0.4999999
v 0.6189278 0.6189279 0.5000001
v 0.7736076 0.7736076 -0.5
v 0.6189279 0.618928 5.960464E-08
v 0.4642482 0.4642483 0.5000001
v 0.618928 0.618928 -0.5
v 0.4642483 0.4642484 0
v 0.3095687 0.3095688 0.5000001
v 0.4642484 0.4642484 -0.5
v 0.3095687 0.3095688 5.960464E-08
v 0.1548891 0.1548892 0.5
v 0.3095688 0.3095688 -0.5
v 0.1548891 0.1548892 0
v 0.0002095066 0.0002095699 0.5
v 0.1548892 0.1548892 -0.5
v 0.0002095541 0.000209555 0
v 0.0002096016 0.0002095401 -0.5
v 1.312796 0 0
v 1.312796 0 0.5
v 1.094046 0 0.5
v 1.094046 0 0
v 1.312796 0 -0.5
v 0.8752963 0 0.5
v 1.094046 0 -0.5
v 0.8752963 0 0
v 0.6565463 0 0.5
v 0.8752963 0 -0.5
v 0.6565463 0 0
v 0.4377963 0 0.5
v 0.6565463 0 -0.5
v 0.4377963 0 0
v 0.2190463 0 0.5
v 0.4377963 0 -0.5
v 0.2190463 0 0
v 0.0002963543 0 0.5
v 0.2190463 0 -0.5
v 0.0002963543 0 0
v 0.0002963543 0 -0.5
v -1.312796 0 0
v -1.094046 0 0.5
v -1.312796 0 0.5
v -1.094046 0 0
v -1.312796 0 -0.5
v -0.8752963 0 0.5
v -1.094046 0 -0.5
v -0.8752963 0 0
v -0.6565463 0 0.5
v -0.8752963 0 -0.5
v -0.6565463 0 0
v -0.4377963 0 0.5
v -0.6565463 0 -0.5
v -0.4377963 0 0
v -0.2190463 0 0.5
v -0.4377963 0 -0.5
v -0.2190463 0 0
v -0.0002963543 0 0.5
v -0.2190463 0 -0.5
v -0.0002963543 0 0
v -0.0002963543 0 -0.5
v 1.312249 -0.03789351 -3.434951E-09
v 1.312249 -0.03789351 0.5
v 1.09359 -0.03157935 0.5
v 1.09359 -0.03157935 -2.862588E-09
v 1.312249 -0.03789351 -0.5
v 0.8749316 -0.02526519 0.5
v 1.09359 -0.03157935 -0.5
v 0.8749316 -0.02526519 -2.290226E-09
v 0.6562727 -0.01895103 0.5
v 0.8749316 -0.02526519 -0.5
v 0.6562727 -0.01895103 -1.717863E-09
v 0.4376139 -0.01263687 0.5
v 0.6562727 -0.01895103 -0.5
v 0.4376139 -0.01263687 -1.1455E-09
v 0.2189551 -0.006322714 0.5
v 0.4376139 -0.01263687 -0.5
v 0.2189551 -0.006322714 -5.731379E-10
v 0.0002962321 -8.554205E-06 0.5
v 0.2189551 -0.006322714 -0.5
v 0.0002962308 -8.554186E-06 -7.754153E-13
v 0.0002962295 -8.554167E-06 -0.5
v 1.09338 0.03816127 3.459222E-09
v 1.09338 0.03816127 0.5
v 0.8747637 0.03053109 0.5
v 0.8747637 0.03053109 2.767565E-09
v 1.09338 0.03816127 -0.5
v 0.6561468 0.0229009 0.5
v 0.8747637 0.03053109 -0.5
v 0.6561468 0.0229009 2.075908E-09
v 0.4375299 0.01527071 0.5
v 0.6561468 0.0229009 -0.5
v 0.4375299 0.01527071 1.384251E-09
v 0.218913 0.007640525 0.5
v 0.4375299 0.01527071 -0.5
v 0.218913 0.007640525 6.925941E-10
v 0.0002961724 1.033707E-05 0.5
v 0.218913 0.007640525 -0.5
v 0.0002961739 1.033709E-05 9.370308E-13
v 0.0002961755 1.033712E-05 -0.5
v 1.303426 0.08865009 8.035903E-09
v 1.303426 0.08865009 0.5
v 1.09338 0.03816127 0.5
v 1.09338 0.03816127 3.459222E-09
v 1.303426 0.08865009 -0.5
v 1.09338 0.03816127 -0.5
v 1.310125 -0.08370606 -7.587742E-09
v 1.310125 -0.08370606 0.5
v 1.09182 -0.06975821 0.5
v 1.09182 -0.06975821 -6.323403E-09
v 1.310125 -0.08370606 -0.5
v 0.8735152 -0.05581035 0.5
v 1.09182 -0.06975821 -0.5
v 0.8735152 -0.05581035 -5.059066E-09
v 0.6552104 -0.04186248 0.5
v 0.8735152 -0.05581035 -0.5
v 0.6552104 -0.04186248 -3.794728E-09
v 0.4369055 -0.02791462 0.5
v 0.6552104 -0.04186248 -0.5
v 0.4369055 -0.02791462 -2.530389E-09
v 0.2186006 -0.01396676 0.5
v 0.4369055 -0.02791462 -0.5
v 0.2186006 -0.01396676 -1.266051E-09
v 0.0002957541 -1.889613E-05 0.5
v 0.2186006 -0.01396676 -0.5
v 0.0002957512 -1.889604E-05 -1.712878E-12
v 0.0002957484 -1.889595E-05 -0.5
vn 0.7071066 0.7071069 0
vn 0.7071066 0.7071069 0
vn 0.7071067 0.7071068 0
vn 0.7071066 0.7071069 0
vn 0.7071066 0.7071069 0
vn 0.7071066 0.7071069 0
vn 0.7071068 0.7071066 0
vn 0.7071066 0.7071069 0
vn 0.7071068 0.7071067 0
vn 0.7071067 0.7071068 0
vn 0.7071068 0.7071067 0
vn 0.7071068 0.7071067 0
vn 0.7071068 0.7071067 0
vn 0.7071068 0.7071067 0
vn 0.7071068 0.7071067 0
vn 0.7071068 0.7071067 0
vn 0.7071068 0.7071067 0
vn 0.7071068 0.7071067 0
vn 0.7071068 0.7071067 0
vn 0.7071068 0.7071067 0
vn 0.7071068 0.7071067 0
vn -0.7071065 0.7071069 0
vn -0.7071065 0.7071069 0
vn -0.7071068 0.7071068 0
vn -0.7071068 0.7071068 0
vn -0.7071068 0.7071066 0
vn -0.7071068 0.7071068 0
vn -0.7071068 0.7071066 0
vn -0.7071068 0.7071068 0
vn -0.7071068 0.7071067 0
vn -0.7071067 0.7071068 0
vn -0.7071068 0.7071067 0
vn -0.7071068 0.7071067 0
vn -0.7071067 0.7071068 0
vn -0.7071068 0.7071067 0
vn -0.7071068 0.7071067 0
vn -0.7071068 0.7071067 0
vn -0.7071068 0.7071067 0
vn -0.7071068 0.7071067 0
vn -0.7071068 0.7071066 0
vn -0.7071068 0.7071067 0
vn -0.7071068 0.7071066 0
vn 0 1 0
vn 0 1 0
vn 0 1 0
vn 0 1 0
vn 0 1 0
vn 0 1 0
vn 0 1 0
vn 0 1 0
vn 0 1 0
vn 0 1 0
vn 0 1 0
vn 0 1 0
vn 0 1 0
vn 0 1 0
vn 0 1 0
vn 0 1 0
vn 0 1 0
vn 0 1 0
vn 0 1 0
vn 0 1 0
vn 0 1 0
vn 0 1 0
vn 0 1 0
vn 0 1 0
vn 0 1 0
vn 0 1 0
vn 0 1 0
vn 0 1 0
vn 0 1 0
vn 0 1 0
vn 0 1 0
vn 0 1 0
vn 0 1 0
vn 0 1 0
vn 0 1 0
vn 0 1 0
vn 0 1 0
vn 0 1 0
vn 0 1 0
vn 0 1 0
vn 0 1 0
vn 0 1 0
vn 0.02886473 0.9995833 0
vn 0.02886473 0.9995833 0
vn 0.02886474 0.9995833 0
vn 0.02886474 0.9995833 0
vn 0.02886473 0.9995833 0
vn 0.02886474 0.9995833 0
vn 0.02886473 0.9995833 0
vn 0.02886474 0.9995833 0
vn 0.02886473 0.9995833 0
vn 0.02886473 0.9995833 0
vn 0.02886473 0.9995833 0
vn 0.02886473 0.9995833 0
vn 0.02886473 0.9995833 0
vn 0.02886473 0.9995833 0
vn 0.02886473 0.9995833 0
vn 0.02886473 0.9995833 0
vn 0.02886473 0.9995833 0
vn 0.02886473 0.9995833 0
vn 0.02886473 0.9995833 0
vn 0.02886473 0.9995833 0
vn 0.02886473 0.9995833 0
vn -0.03488085 0.9993914 0
vn -0.03488085 0.9993914 0
vn -0.03488085 0.9993914 0
vn -0.03488085 0.9993914 0
vn -0.03488085 0.9993914 0
vn -0.03488084 0.9993914 0
vn -0.03488086 0.9993914 0
vn -0.03488084 0.9993914 0
vn -0.03488084 0.9993914 0
vn -0.03488086 0.9993914 0
vn -0.03488084 0.9993914 0
vn -0.03488086 0.9993914 0
vn -0.03488084 0.9993914 0
vn -0.03488086 0.9993914 0
vn -0.03488086 0.9993914 0
vn -0.03488086 0.9993914 0
vn -0.03488086 0.9993914 0
vn -0.03488086 0.9993914 0
vn -0.2337142 0.9723054 0
vn -0.2337142 0.9723054 0
vn -0.2337142 0.9723054 0
vn -0.2337142 0.9723054 0
vn -0.2337142 0.9723054 0
vn -0.2337142 0.9723054 0
vn 0.06376158 0.9979652 0
vn 0.06376158 0.9979652 0
vn 0.06376166 0.9979651 0
vn 0.06376166 0.9979651 0
vn 0.06376158 0.9979652 0
vn 0.06376166 0.9979651 0
vn 0.06376158 0.9979652 0
vn 0.06376166 0.9979651 0
vn 0.06376167 0.9979651 0
vn 0.06376167 0.9979651 0
vn 0.06376167 0.9979651 0
vn 0.06376167 0.9979651 0
vn 0.06376167 0.9979651 0
vn 0.06376167 0.9979651 0
vn 0.06376165 0.9979651 0
vn 0.06376167 0.9979651 0
vn 0.06376165 0.9979651 0
vn 0.06376165 0.9979651 0
vn 0.06376164 0.9979651 0
vn 0.06376165 0.9979651 0
vn 0.06376166 0.9979651 0
g book_0
f 3/3/3 2/2/2 1/1/1
f 2/2/2 4/4/4 1/1/1
f 1/1/1 4/4/4 5/5/5
f 2/2/2 6/6/6 4/4/4
f 4/4/4 7/7/7 5/5/5
f 6/6/6 8/8/8 4/4/4
f 4/4/4 8/8/8 7/7/7
f 6/6/6 9/9/9 8/8/8
f 8/8/8 10/10/10 7/7/7
f 9/9/9 11/11/11 8/8/8
f 8/8/8 11/11/11 10/10/10
f 9/9/9 12/12/12 11/11/11
f 11/11/11 13/13/13 10/10/10
f 12/12/12 14/14/14 11/11/11
f 11/11/11 14/14/14 13/13/13
f 12/12/12 15/15/15 14/14/14
f 14/14/14 16/16/16 13/13/13
f 15/15/15 17/17/17 14/14/14
f 14/14/14 17/17/17 16/16/16
f 15/15/15 18/18/18 17/17/17
f 17/17/17 19/19/19 16/16/16
f 18/18/18 20/20/20 17/17/17
f 17/17/17 20/20/20 19/19/19
f 20/20/20 21/21/21 19/19/19
f 24/24/24 23/23/23 22/22/22
f 25/25/25 24/24/24 22/22/22
f 25/25/25 22/22/22 26/26/26
f 27/27/27 24/24/24 25/25/25
f 28/28/28 25/25/25 26/26/26
f 29/29/29 27/27/27 25/25/25
f 29/29/29 25/25/25 28/28/28
f 30/30/30 27/27/27 29/29/29
f 31/31/31 29/29/29 28/28/28
f 32/32/32 30/30/30 29/29/29
f 32/32/32 29/29/29 31/31/31
f 33/33/33 30/30/30 32/32/32
f 34/34/34 32/32/32 31/31/31
f 35/35/35 33/33/33 32/32/32
f 35/35/35 32/32/32 34/34/34
f 36/36/36 33/33/33 35/35/35
f 37/37/37 35/35/35 34/34/34
f 38/38/38 36/36/36 35/35/35
f 38/38/38 35/35/35 37/37/37
f 39/39/39 36/36/36 38/38/38
f 40/40/40 38/38/38 37/37/37
f 41/41/41 39/39/39 38/38/38
f 41/41/41 38/38/38 40/40/40
f 42/42/42 41/41/41 40/40/40
f 45/45/45 44/44/44 43/43/43
f 46/46/46 45/45/45 43/43/43
f 46/46/46 43/43/43 47/47/47
f 48/48/48 45/45/45 46/46/46
f 49/49/49 46/46/46 47/47/47
f 50/50/50 48/48/48 46/46/46
f 50/50/50 46/46/46 49/49/49
f 51/51/51 48/48/48 50/50/50
f 52/52/52 50/50/50 49/49/49
f 53/53/53 51/51/51 50/50/50
f 53/53/53 50/50/50 52/52/52
f 54/54/54 51/51/51 53/53/53
f 55/55/55 53/53/53 52/52/52
f 56/56/56 54/54/54 53/53/53
f 56/56/56 53/53/53 55/55/55
f 57/57/57 54/54/54 56/56/56
f 58/58/58 56/56/56 55/55/55
f 59/59/59 57/57/57 56/56/56
f 59/59/59 56/56/56 58/58/58
f 60/60/60 57/57/57 59/59/59
f 61/61/61 59/59/59 58/58/58
f 62/62/62 60/60/60 59/59/59
f 62/62/62 59/59/59 61/61/61
f 63/63/63 62/62/62 61/61/61
f 66/66/66 65/65/65 64/64/64
f 65/65/65 67/67/67 64/64/64
f 64/64/64 67/67/67 68/68/68
f 65/65/65 69/69/69 67/67/67
f 67/67/67 70/70/70 68/68/68
f 69/69/69 71/71/71 67/67/67
f 67/67/67 71/71/71 70/70/70
f 69/69/69 72/72/72 71/71/71
f 71/71/71 73/73/73 70/70/70
f 72/72/72 74/74/74 71/71/71
f 71/71/71 74/74/74 73/73/73
f 72/72/72 75/75/75 74/74/74
f 74/74/74 76/76/76 73/73/73
f 75/75/75 77/77/77 74/74/74
f 74/74/74 77/77/77 76/76/76
f 75/75/75 78/78/78 77/77/77
f 77/77/77 79/79/79 76/76/76
f 78/78/78 80/80/80 77/77/77
f 77/77/77 80/80/80 79/79/79
f 78/78/78 81/81/81 80/80/80
f 80/80/80 82/82/82 79/79/79
f 81/81/81 83/83/83 80/80/80
f 80/80/80 83/83/83 82/82/82
f 83/83/83 84/84/84 82/82/82
f 87/87/87 86/86/86 85/85/85
f 88/88/88 87/87/87 85/85/85
f 88/88/88 85/85/85 89/89/89
f 90/90/90 87/87/87 88/88/88
f 91/91/91 88/88/88 89/89/89
f 92/92/92 90/90/90 88/88/88
f 92/92/92 88/88/88 91/91/91
f 93/93/93 90/90/90 92/92/92
f 94/94/94 92/92/92 91/91/91
f 95/95/95 93/93/93 92/92/92
f 95/95/95 92/92/92 94/94/94
f 96/96/96 93/93/93 95/95/95
f 97/97/97 95/95/95 94/94/94
f 98/98/98 96/96/96 95/95/95
f 98/98/98 95/95/95 97/97/97
f 99/99/99 96/96/96 98/98/98
f 100/100/100 98/98/98 97/97/97
f 101/101/101 99/99/99 98/98/98
f 101/101/101 98/98/98 100/100/100
f 102/102/102 99/99/99 101/101/101
f 103/103/103 101/101/101 100/100/100
f 104/104/104 102/102/102 101/101/101
f 104/104/104 101/101/101 103/103/103
f 105/105/105 104/104/104 103/103/103
f 108/108/108 107/107/107 106/106/106
f 109/109/109 108/108/108 106/106/106
f 109/109/109 106/106/106 110/110/110
f 111/111/111 108/108/108 109/109/109
f 112/112/112 109/109/109 110/110/110
f 113/113/113 111/111/111 109/109/109
f 113/113/113 109/109/109 112/112/112
f 114/114/114 111/111/111 113/113/113
f 115/115/115 113/113/113 112/112/112
f 116/116/116 114/114/114 113/113/113
f 116/116/116 113/113/113 115/115/115
f 117/117/117 114/114/114 116/116/116
f 118/118/118 116/116/116 115/115/115
f 119/119/119 117/117/117 116/116/116
f 119/119/119 116/116/116 118/118/118
f 120/120/120 117/117/117 119/119/119
f 121/121/121 119/119/119 118/118/118
f 122/122/122 120/120/120 119/119/119
f 122/122/122 119/119/119 121/121/121
f 123/123/123 122/122/122 121/121/121
f 126/126/126 125/125/125 124/124/124
f 127/127/127 126/126/126 124/124/124
f 127/127/127 124/124/124 128/128/128
f 129/129/129 127/127/127 128/128/128
f 132/132/132 131/131/131 130/130/130
f 133/133/133 132/132/132 130/130/130
f 133/133/133 130/130/130 134/134/134
f 135/135/135 132/132/132 133/133/133
f 136/136/136 133/133/133 134/134/134
f 137/137/137 135/135/135 133/133/133
f 137/137/137 133/133/133 136/136/136
f 138/138/138 135/135/135 137/137/137
f 139/139/139 137/137/137 136/136/136
f 140/140/140 138/138/138 137/137/137
f 140/140/140 137/137/137 139/139/139
f 141/141/141 138/138/138 140/140/140
f 142/142/142 140/140/140 139/139/139
f 143/143/143 141/141/141 140/140/140
f 143/143/143 140/140/140 142/142/142
f 144/144/144 141/141/141 143/143/143
f 145/145/145 143/143/143 142/142/142
f 146/146/146 144/144/144 143/143/143
f 146/146/146 143/143/143 145/145/145
f 147/147/147 144/144/144 146/146/146
f 148/148/148 146/146/146 145/145/145
f 149/149/149 147/147/147 146/146/146
f 149/149/149 146/146/146 148/148/148
f 150/150/150 149/149/149 148/148/148
