g cathedral_nd_wall_inset
v 1.50387 2.831462 0.2576143
v 0 3.503534 -8.502697E-08
v 0 3.715227 0.2576143
v 1.318263 2.728843 -5.116417E-08
v 1.50387 1.168538 0.2576142
v 1.318263 1.271157 -1.236814E-07
v 1.687072 2.932751 -4.102012E-08
v 1.50387 2.831462 0.2576143
v 0 3.715227 0.2576143
v 0 3.924177 -8.43567E-08
v -1.50387 2.831462 0.2576143
v -1.687072 2.932751 -4.102012E-08
v -1.687072 2.932751 -4.102012E-08
v -1.50387 2.831462 0.2576143
v -1.50387 1.168538 0.2576142
v -1.687072 1.067248 -1.338254E-07
v 0 0.4964662 -0.1450036
v 1.318263 2.728843 -0.1450036
v 1.318263 1.271157 -0.1450036
v 0 3.503534 -0.1450037
v -1.318263 1.271157 -0.1450036
v -1.318263 2.728843 -0.1450036
v 0.5163118 1.266131 -0.1763149
v 0.1465672 1.479603 -0.1763149
v 0.1465672 1.479604 0.03367256
v 0.5163118 1.266131 0.03367268
v 0 3.503534 -8.502697E-08
v 0 3.503534 -0.1450037
v -1.318263 2.728843 -0.1450036
v -1.318263 2.728843 -5.116417E-08
v -1.318263 1.271157 -0.1450036
v -1.318263 1.271157 -1.236814E-07
v -1.687072 1.067248 -1.338254E-07
v -1.50387 1.168538 0.2576142
v 0 0.2847732 0.2576142
v 0 0.07582319 -9.048885E-08
v 1.50387 1.168538 0.2576142
v 1.687072 1.067248 -1.338254E-07
v 1.50387 2.831462 0.2576143
v 1.687072 2.932751 -4.102012E-08
v 0 0.4964662 -8.981858E-08
v 1.318263 1.271157 -0.1450036
v 1.318263 1.271157 -1.236814E-07
v 0 0.4964662 -0.1450036
v -1.318263 1.271157 -1.236814E-07
v -1.318263 1.271157 -0.1450036
v -1.50387 1.168538 0.2576142
v -1.318263 1.271157 -1.236814E-07
v 0 0.4964662 -8.981858E-08
v 0 0.2847732 0.2576142
v 1.318263 1.271157 -1.236814E-07
v 1.50387 1.168538 0.2576142
v 1.318263 1.271157 -1.236814E-07
v 1.318263 1.271157 -0.1450036
v 1.318263 2.728843 -0.1450036
v 1.318263 2.728843 -5.116417E-08
v 0 3.503534 -0.1450037
v 0 3.503534 -8.502697E-08
v 0 3.715227 0.2576143
v 0 3.503534 -8.502697E-08
v -1.318263 2.728843 -5.116417E-08
v -1.50387 2.831462 0.2576143
v -1.318263 1.271157 -1.236814E-07
v -1.50387 1.168538 0.2576142
v -0.5163117 2.12002 0.03367256
v -0.1465671 1.906548 0.03367256
v -0.1465671 1.479603 0.03367256
v -0.5163118 1.266131 0.03367268
v -0.8860564 1.906548 0.03367256
v -0.8860563 1.479604 0.03367256
v 2.772178E-08 2.944792 -0.176315
v 0.3697446 2.73132 -0.176315
v 0.3697446 2.73132 0.0336725
v 2.49659E-08 2.944792 0.0336725
v -0.5163118 1.266131 -0.1763149
v -0.8860564 1.479603 -0.1763149
v -0.8860563 1.479604 0.03367256
v -0.5163118 1.266131 0.03367268
v 0.3697446 2.73132 -0.176315
v 0.3697446 2.304376 -0.176315
v 0.3697446 2.304376 0.03367256
v 0.3697446 2.73132 0.0336725
v -0.1465671 1.479603 -0.1763149
v -0.5163118 1.266131 -0.1763149
v -0.5163118 1.266131 0.03367268
v -0.1465671 1.479603 0.03367256
v 0.3697446 2.304376 -0.176315
v -1.325326E-08 2.090904 -0.176315
v -1.573464E-08 2.090904 0.03367253
v 0.3697446 2.304376 0.03367256
v -0.8860564 1.906548 -0.1763149
v -0.5163117 2.12002 -0.176315
v -0.5163117 2.12002 0.03367256
v -0.8860564 1.906548 0.03367256
v -0.1465671 1.906548 -0.1763149
v -0.1465671 1.479603 -0.1763149
v -0.1465671 1.479603 0.03367256
v -0.1465671 1.906548 0.03367256
v -1.325326E-08 2.090904 -0.176315
v -0.3697446 2.304376 -0.176315
v -0.3697446 2.304376 0.03367256
v -1.573464E-08 2.090904 0.03367253
v 2.49659E-08 2.944792 0.0336725
v 0.3697446 2.73132 0.0336725
v 0.3697446 2.304376 0.03367256
v -1.573464E-08 2.090904 0.03367253
v -0.3697446 2.73132 0.0336725
v -0.3697446 2.304376 0.03367256
v -0.5163117 2.12002 -0.176315
v -0.1465671 1.906548 -0.1763149
v -0.1465671 1.906548 0.03367256
v -0.5163117 2.12002 0.03367256
v -0.3697446 2.304376 -0.176315
v -0.3697446 2.73132 -0.176315
v -0.3697446 2.73132 0.0336725
v -0.3697446 2.304376 0.03367256
v 0.5163118 2.12002 0.03367256
v 0.8860564 1.906548 0.03367256
v 0.8860563 1.479603 0.03367256
v 0.5163118 1.266131 0.03367268
v 0.1465672 1.906548 0.03367256
v 0.1465672 1.479604 0.03367256
v -0.8860564 1.479603 -0.1763149
v -0.8860564 1.906548 -0.1763149
v -0.8860564 1.906548 0.03367256
v -0.8860563 1.479604 0.03367256
v -0.3697446 2.73132 -0.176315
v 2.772178E-08 2.944792 -0.176315
v 2.49659E-08 2.944792 0.0336725
v -0.3697446 2.73132 0.0336725
v 0.8860563 1.479603 -0.1763149
v 0.5163118 1.266131 -0.1763149
v 0.5163118 1.266131 0.03367268
v 0.8860563 1.479603 0.03367256
v 0.1465672 1.906548 -0.1763149
v 0.5163118 2.12002 -0.176315
v 0.5163118 2.12002 0.03367256
v 0.1465672 1.906548 0.03367256
v 0.8860564 1.906548 -0.1763149
v 0.8860563 1.479603 -0.1763149
v 0.8860563 1.479603 0.03367256
v 0.8860564 1.906548 0.03367256
v 0.5163118 2.12002 -0.176315
v 0.8860564 1.906548 -0.1763149
v 0.8860564 1.906548 0.03367256
v 0.5163118 2.12002 0.03367256
v 0.1465672 1.479603 -0.1763149
v 0.1465672 1.906548 -0.1763149
v 0.1465672 1.906548 0.03367256
v 0.1465672 1.479604 0.03367256
v -2 4 -8.742278E-08
v -1.687072 1.067248 -1.338254E-07
v -2 0 -8.742278E-08
v -1.687072 2.932751 -4.102012E-08
v 0 0.07582319 -9.048885E-08
v 0 4 -8.742278E-08
v 0 0 -8.742278E-08
v 0 3.924177 -8.43567E-08
v 1.687072 1.067248 -1.338254E-07
v 2 4 -8.742278E-08
v 2 0 -8.742278E-08
v 1.687072 2.932751 -4.102012E-08
vt 0.4558738 0.5579488
vt 0.6254922 0.5405183
vt 0.6254922 0.5579488
vt 0.4558738 0.5405183
vt 0.2951105 0.5579488
vt 0.2951105 0.5405183
vt 0.4558738 0.5405183
vt 0.4558738 0.5579488
vt 0.6254922 0.5579488
vt 0.6254922 0.5405183
vt 0.7951105 0.5579488
vt 0.7951105 0.5405183
vt 0.7951105 0.5405183
vt 0.7951105 0.5579488
vt 0.9558739 0.5579488
vt 0.9558739 0.5405183
vt 0.3125 0.5564841
vt 0.4918762 0.860244
vt 0.4918762 0.6618963
vt 0.3125 0.9656562
vt 0.1331238 0.6618963
vt 0.1331238 0.860244
vt 0.2794923 0.1501044
vt 0.2601819 0.1501044
vt 0.2601819 0.2360179
vt 0.2794923 0.2360179
vt 0.6254922 0.5405183
vt 0.6254922 0.4420512
vt 0.7951105 0.4420512
vt 0.7951105 0.5405183
vt 0.9558739 0.4420512
vt 0.9558739 0.5405183
vt -0.04412609 0.5405183
vt -0.04412609 0.5579488
vt 0.1254922 0.5579488
vt 0.1254922 0.5405184
vt 0.2951105 0.5579488
vt 0.2951105 0.5405183
vt 0.4558738 0.5579488
vt 0.4558738 0.5405183
vt 0.1254922 0.5405184
vt 0.2951105 0.4420512
vt 0.2951105 0.5405183
vt 0.1254922 0.4420512
vt -0.04412609 0.5405183
vt -0.04412609 0.4420512
vt -0.04412609 0.5579488
vt -0.04412609 0.5405183
vt 0.1254922 0.5405184
vt 0.1254922 0.5579488
vt 0.2951105 0.5405183
vt 0.2951105 0.5579488
vt 0.2951105 0.5405183
vt 0.2951105 0.4420512
vt 0.4558738 0.4420512
vt 0.4558738 0.5405183
vt 0.6254922 0.4420512
vt 0.6254922 0.5405183
vt 0.6254922 0.5579488
vt 0.6254922 0.5405183
vt 0.7951105 0.5405183
vt 0.7951105 0.5579488
vt 0.9558739 0.5405183
vt 0.9558739 0.5579488
vt 0.4326157 0.5155578
vt 0.4782446 0.489214
vt 0.4782446 0.4365263
vt 0.4326157 0.4101824
vt 0.3869867 0.489214
vt 0.3869867 0.4365263
vt 0.4350908 0.1501044
vt 0.4030345 0.1501044
vt 0.4030345 0.2360179
vt 0.4350908 0.2360179
vt 0.2132327 0.1501044
vt 0.188942 0.1501044
vt 0.188942 0.2360179
vt 0.2132327 0.2360179
vt 0.4030345 0.1501044
vt 0.3703772 0.1501044
vt 0.3703772 0.2360179
vt 0.4030345 0.2360179
vt 0.232543 0.1501044
vt 0.2132327 0.1501044
vt 0.2132327 0.2360179
vt 0.232543 0.2360179
vt 0.3703772 0.1501044
vt 0.2463624 0.1501044
vt 0.2463624 0.2360179
vt 0.3703772 0.2360179
vt 0.5427213 0.1501044
vt 0.5277615 0.1501044
vt 0.5277615 0.2360179
vt 0.5427213 0.2360179
vt 0.208214 0.1501044
vt 0.232543 0.1501044
vt 0.232543 0.2360179
vt 0.208214 0.2360179
vt 0.623819 0.1501044
vt 0.4998043 0.1501044
vt 0.4998043 0.2360179
vt 0.623819 0.2360179
vt 0.4963319 0.6173401
vt 0.5419608 0.5909964
vt 0.5419608 0.5383086
vt 0.4963319 0.5119647
vt 0.450703 0.5909964
vt 0.450703 0.5383086
vt 0.5277615 0.1501044
vt 0.5856707 0.1501044
vt 0.5856707 0.2360179
vt 0.5277615 0.2360179
vt 0.4998043 0.1501044
vt 0.467147 0.1501044
vt 0.467147 0.2360179
vt 0.4998043 0.2360179
vt 0.5600482 0.5155578
vt 0.6056771 0.489214
vt 0.6056771 0.4365263
vt 0.5600482 0.4101824
vt 0.5144192 0.489214
vt 0.5144192 0.4365263
vt 0.188942 0.1501044
vt 0.1652646 0.1501044
vt 0.1652646 0.2360179
vt 0.188942 0.2360179
vt 0.467147 0.1501044
vt 0.4350908 0.1501044
vt 0.4350908 0.2360179
vt 0.467147 0.2360179
vt 0.3037829 0.1501044
vt 0.2794923 0.1501044
vt 0.2794923 0.2360179
vt 0.3037829 0.2360179
vt 0.2845109 0.1501044
vt 0.34242 0.1501044
vt 0.34242 0.2360179
vt 0.284511 0.2360179
vt 0.3274603 0.1501044
vt 0.3037829 0.1501044
vt 0.3037829 0.2360179
vt 0.3274603 0.2360179
vt 0.34242 0.1501044
vt 0.3274603 0.1501044
vt 0.3274603 0.2360179
vt 0.34242 0.2360179
vt 0.2601819 0.1501044
vt 0.2845109 0.1501044
vt 0.284511 0.2360179
vt 0.2601819 0.2360179
vt 0.5 1
vt 0.539116 0.633406
vt 0.5 0.5
vt 0.539116 0.866594
vt 0.75 0.5094779
vt 0.75 1
vt 0.75 0.5
vt 0.75 0.9905221
vt 0.960884 0.633406
vt 1 1
vt 1 0.5
vt 0.960884 0.866594
vn 0.210155 0.124915 0.9696552
vn 0 -0.7726108 0.63488
vn 0 0.2492799 0.9684315
vn -0.6684937 -0.3862822 0.6355329
vn 0.210155 -0.124915 0.9696552
vn -0.6684937 0.3862822 0.6355329
vn 0.6744749 0.3839319 0.6306188
vn 0.210155 0.124915 0.9696552
vn 0 0.2492799 0.9684315
vn 0 0.776644 0.6299399
vn -0.210155 0.124915 0.9696552
vn -0.6744749 0.3839319 0.6306188
vn -0.6744749 0.3839319 0.6306188
vn -0.210155 0.124915 0.9696552
vn -0.210155 -0.124915 0.9696552
vn -0.6744749 -0.3839319 0.6306188
vn 0 0 1
vn 0 0 1
vn 0 0 1
vn 0 0 1
vn 0 0 1
vn 0 0 1
vn -0.5 -0.8660254 0
vn -0.5 -0.8660254 0
vn -0.5 -0.8660254 0
vn -0.5 -0.8660254 0
vn 0 -1 0
vn 0 -1 0
vn 0.8679388 -0.4966713 0
vn 0.8679388 -0.4966713 0
vn 0.8679388 0.4966713 0
vn 0.8679388 0.4966713 0
vn -0.6744749 -0.3839319 0.6306188
vn -0.210155 -0.124915 0.9696552
vn 0 -0.2492799 0.9684315
vn 0 -0.776644 0.6299399
vn 0.210155 -0.124915 0.9696552
vn 0.6744749 -0.3839319 0.6306188
vn 0.210155 0.124915 0.9696552
vn 0.6744749 0.3839319 0.6306188
vn 0 1 0
vn -0.8679388 0.4966713 0
vn -0.8679388 0.4966713 0
vn 0 1 0
vn 0.8679388 0.4966713 0
vn 0.8679388 0.4966713 0
vn -0.210155 -0.124915 0.9696552
vn 0.6684937 0.3862822 0.6355329
vn 0 0.7726108 0.63488
vn 0 -0.2492799 0.9684315
vn -0.6684937 0.3862822 0.6355329
vn 0.210155 -0.124915 0.9696552
vn -0.8679388 0.4966713 0
vn -0.8679388 0.4966713 0
vn -0.8679388 -0.4966713 0
vn -0.8679388 -0.4966713 0
vn 0 -1 0
vn 0 -1 0
vn 0 0.2492799 0.9684315
vn 0 -0.7726108 0.63488
vn 0.6684937 -0.3862822 0.6355329
vn -0.210155 0.124915 0.9696552
vn 0.6684937 0.3862822 0.6355329
vn -0.210155 -0.124915 0.9696552
vn 0 0 1
vn 0 0 1
vn 0 0 1
vn 0 0 1
vn 0 0 1
vn 0 0 1
vn 0.5 0.8660254 0
vn 0.5 0.8660254 0
vn 0.5 0.8660254 0
vn 0.5 0.8660254 0
vn -0.5000002 -0.8660253 0
vn -0.5000002 -0.8660253 0
vn -0.5000002 -0.8660253 0
vn -0.5000002 -0.8660253 0
vn 1 0 0
vn 1 0 0
vn 1 0 0
vn 1 0 0
vn 0.4999999 -0.8660254 0
vn 0.4999999 -0.8660254 0
vn 0.4999999 -0.8660254 0
vn 0.4999999 -0.8660254 0
vn 0.4999997 -0.8660255 0
vn 0.4999997 -0.8660255 0
vn 0.4999997 -0.8660255 0
vn 0.4999997 -0.8660255 0
vn -0.4999998 0.8660256 0
vn -0.4999998 0.8660256 0
vn -0.4999998 0.8660256 0
vn -0.4999998 0.8660256 0
vn 1 0 0
vn 1 0 0
vn 1 0 0
vn 1 0 0
vn -0.5 -0.8660254 0
vn -0.5 -0.8660254 0
vn -0.5 -0.8660254 0
vn -0.5 -0.8660254 0
vn 0 0 1
vn 0 0 1
vn 0 0 1
vn 0 0 1
vn 0 0 1
vn 0 0 1
vn 0.4999996 0.8660256 0
vn 0.4999996 0.8660256 0
vn 0.4999996 0.8660256 0
vn 0.4999996 0.8660256 0
vn -1 0 0
vn -1 0 0
vn -1 0 0
vn -1 0 0
vn 0 0 1
vn 0 0 1
vn 0 0 1
vn 0 0 1
vn 0 0 1
vn 0 0 1
vn -1 0 0
vn -1 0 0
vn -1 0 0
vn -1 0 0
vn -0.5 0.8660254 0
vn -0.5 0.8660254 0
vn -0.5 0.8660254 0
vn -0.5 0.8660254 0
vn 0.4999999 -0.8660255 0
vn 0.4999999 -0.8660255 0
vn 0.4999999 -0.8660255 0
vn 0.4999999 -0.8660255 0
vn -0.4999997 0.8660255 0
vn -0.4999997 0.8660255 0
vn -0.4999997 0.8660255 0
vn -0.4999997 0.8660255 0
vn 1 0 0
vn 1 0 0
vn 1 0 0
vn 1 0 0
vn 0.4999995 0.8660257 0
vn 0.4999995 0.8660257 0
vn 0.4999995 0.8660257 0
vn 0.4999995 0.8660257 0
vn -1 0 0
vn -1 0 0
vn -1 0 0
vn -1 0 0
vn 0 0 1
vn 0 0 1
vn 0 0 1
vn 0 0 1
vn 0 0 1
vn 0 0 1
vn 0 0 1
vn 0 0 1
vn 0 0 1
vn 0 0 1
vn 0 0 1
vn 0 0 1
g cathedral_nd_wall_inset_0
f 3/3/3 2/2/2 1/1/1
f 2/2/2 4/4/4 1/1/1
f 1/1/1 4/4/4 5/5/5
f 4/4/4 6/6/6 5/5/5
f 9/9/9 8/8/8 7/7/7
f 10/10/10 9/9/9 7/7/7
f 11/11/11 9/9/9 10/10/10
f 12/12/12 11/11/11 10/10/10
f 15/15/15 14/14/14 13/13/13
f 16/16/16 15/15/15 13/13/13
f 19/19/19 18/18/18 17/17/17
f 18/18/18 20/20/20 17/17/17
f 17/17/17 20/20/20 21/21/21
f 20/20/20 22/22/22 21/21/21
f 25/25/25 24/24/24 23/23/23
f 26/26/26 25/25/25 23/23/23
f 29/29/29 28/28/28 27/27/27
f 30/30/30 29/29/29 27/27/27
f 31/31/31 29/29/29 30/30/30
f 32/32/32 31/31/31 30/30/30
f 35/35/35 34/34/34 33/33/33
f 36/36/36 35/35/35 33/33/33
f 37/37/37 35/35/35 36/36/36
f 38/38/38 37/37/37 36/36/36
f 39/39/39 37/37/37 38/38/38
f 40/40/40 39/39/39 38/38/38
f 43/43/43 42/42/42 41/41/41
f 42/42/42 44/44/44 41/41/41
f 41/41/41 44/44/44 45/45/45
f 44/44/44 46/46/46 45/45/45
f 49/49/49 48/48/48 47/47/47
f 50/50/50 49/49/49 47/47/47
f 51/51/51 49/49/49 50/50/50
f 52/52/52 51/51/51 50/50/50
f 55/55/55 54/54/54 53/53/53
f 56/56/56 55/55/55 53/53/53
f 57/57/57 55/55/55 56/56/56
f 58/58/58 57/57/57 56/56/56
f 61/61/61 60/60/60 59/59/59
f 62/62/62 61/61/61 59/59/59
f 63/63/63 61/61/61 62/62/62
f 64/64/64 63/63/63 62/62/62
f 67/67/67 66/66/66 65/65/65
f 65/65/65 68/68/68 67/67/67
f 65/65/65 69/69/69 68/68/68
f 69/69/69 70/70/70 68/68/68
f 73/73/73 72/72/72 71/71/71
f 74/74/74 73/73/73 71/71/71
f 77/77/77 76/76/76 75/75/75
f 78/78/78 77/77/77 75/75/75
f 81/81/81 80/80/80 79/79/79
f 82/82/82 81/81/81 79/79/79
f 85/85/85 84/84/84 83/83/83
f 86/86/86 85/85/85 83/83/83
f 89/89/89 88/88/88 87/87/87
f 90/90/90 89/89/89 87/87/87
f 93/93/93 92/92/92 91/91/91
f 94/94/94 93/93/93 91/91/91
f 97/97/97 96/96/96 95/95/95
f 98/98/98 97/97/97 95/95/95
f 101/101/101 100/100/100 99/99/99
f 102/102/102 101/101/101 99/99/99
f 105/105/105 104/104/104 103/103/103
f 103/103/103 106/106/106 105/105/105
f 103/103/103 107/107/107 106/106/106
f 107/107/107 108/108/108 106/106/106
f 111/111/111 110/110/110 109/109/109
f 112/112/112 111/111/111 109/109/109
f 115/115/115 114/114/114 113/113/113
f 116/116/116 115/115/115 113/113/113
f 119/119/119 118/118/118 117/117/117
f 117/117/117 120/120/120 119/119/119
f 117/117/117 121/121/121 120/120/120
f 121/121/121 122/122/122 120/120/120
f 125/125/125 124/124/124 123/123/123
f 126/126/126 125/125/125 123/123/123
f 129/129/129 128/128/128 127/127/127
f 130/130/130 129/129/129 127/127/127
f 133/133/133 132/132/132 131/131/131
f 134/134/134 133/133/133 131/131/131
f 137/137/137 136/136/136 135/135/135
f 138/138/138 137/137/137 135/135/135
f 141/141/141 140/140/140 139/139/139
f 142/142/142 141/141/141 139/139/139
f 145/145/145 144/144/144 143/143/143
f 146/146/146 145/145/145 143/143/143
f 149/149/149 148/148/148 147/147/147
f 150/150/150 149/149/149 147/147/147
f 153/153/153 152/152/152 151/151/151
f 152/152/152 154/154/154 151/151/151
f 155/155/155 152/152/152 153/153/153
f 151/151/151 154/154/154 156/156/156
f 157/157/157 155/155/155 153/153/153
f 154/154/154 158/158/158 156/156/156
f 159/159/159 155/155/155 157/157/157
f 156/156/156 158/158/158 160/160/160
f 161/161/161 159/159/159 157/157/157
f 158/158/158 162/162/162 160/160/160
f 162/162/162 159/159/159 161/161/161
f 160/160/160 162/162/162 161/161/161
