g Combined Mesh (root: scene) 3
v 118 44 -54
v 146 44 -54
v 146 27 -54
v 118 27 -54
v 146 44 -54
v 146 44 -26
v 146 27 -26
v 146 27 -54
v 146 44 -26
v 146 44 -54
v 130.0008 44 -26
v 118 44 -54
v 118 44 -26
v 150 23 -58
v 114 23 -58
v 118 27 -54
v 146 27 -54
v 114 23 -58
v 114 23 -22
v 118 27 -26
v 118 27 -54
v 105 12 -44.375
v 105 12 -36.125
v 105 20 -36.125
v 105 20 -44.375
v 118 44 -26
v 118 44 -54
v 118 37 -36.25
v 118 37 -44.25
v 118 27 -54
v 118 29 -44.25
v 118 27 -26
v 118 29 -36.25
v 114 12 -58
v 114 23 -58
v 128.75 12 -58
v 128.75 17 -58
v 150 23 -58
v 134.25 17 -58
v 150 12 -58
v 134.25 12 -58
v 104.5 37 -36.25
v 118 29 -36.25
v 118 37 -36.25
v 104.5 29 -36.25
v 104.5 29 -44.25
v 118 37 -44.25
v 118 29 -44.25
v 104.5 37 -44.25
v 104.5 29 -36.25
v 118 29 -44.25
v 118 29 -36.25
v 104.5 29 -44.25
v 104.5 37 -44.25
v 118 37 -36.25
v 118 37 -44.25
v 104.5 37 -36.25
v 114 12 -22
v 114 12 -58
v 114 -36 -22
v 114 -36 -58
v 114 12 -58
v 150 12 -58
v 114 -36 -58
v 150 -36 -58
v 150 12 -58
v 150 12 -22
v 150 -36 -58
v 150 -36 -22
v 118 44 -26
v 118 27 -26
v 128 37 -26
v 128 29 -26
v 146 27 -26
v 136 29 -26
v 146 44 -26
v 136 37 -26
v 136 37 -26
v 128 37 -26
v 136 37 -19
v 128 37 -19
v 128 37 -26
v 128 29 -26
v 128 37 -19
v 128 29 -19
v 128 29 -26
v 136 29 -26
v 128 29 -19
v 136 29 -19
v 136 29 -26
v 136 37 -26
v 136 29 -19
v 136 37 -19
v 114 12 -22
v 114 23 -22
v 114 12 -36.125
v 114 20 -36.125
v 114 23 -58
v 114 20 -44.375
v 114 12 -58
v 114 12 -44.375
v 114 12 -44.375
v 114 12 -36.125
v 105 12 -44.375
v 105 12 -36.125
v 114 12 -36.125
v 114 20 -36.125
v 105 12 -36.125
v 105 20 -36.125
v 114 20 -36.125
v 114 20 -44.375
v 105 20 -36.125
v 105 20 -44.375
v 114 20 -44.375
v 114 12 -44.375
v 105 20 -44.375
v 105 12 -44.375
v 114 23 -22
v 127.75 21.5 -22
v 127.75 23 -22
v 114 12 -22
v 114 -36 -22
v 127.75 -36 -22
v 127.75 0.0625 -22
v 114 12 -22
v 127.75 21.5 -22
v 130.0008 44 -26
v 118 27 -26
v 114 23 -22
v 127.75 23 -22
v 146 27 -26
v 138.875 23 -22
v 150 23 -22
v 138.875 23 -22
v 150 17.49837 -22.00003
v 150 23 -22
v 134 21.25 -22
v 127.75 23 -22
v 150 11.99674 -22.00007
v 134 12 -22
v 127.75 11.99674 -22.00007
v 127.75 -36 -22.00017
v 150 -36 -22.00017
v 134 12 -22
v 134 21.25 -22
v 134 12 -19
v 134 21.25 -19
v 134 21.25 -22
v 127.75 21.5 -22
v 134 21.25 -19
v 128 21.5 -19
v 127.75 21.5 -22
v 127.75 11.99674 -22.00007
v 128 21.5 -19
v 128 12 -19
v 127.75 11.99674 -22.00007
v 134 12 -22
v 128 12 -19
v 134 12 -19
v 128.75 12 -58
v 128.75 12 -63
v 128.75 17 -63
v 128.75 17 -58
v 134.25 17 -63
v 128.75 17 -58
v 134.25 17 -58
v 128.75 17 -63
v 134.25 12 -63
v 134.25 17 -58
v 134.25 12 -58
v 134.25 17 -63
v 134.25 12 -63
v 128.75 17 -63
v 134.25 17 -63
v 128.75 12 -63
v 128 21.5 -19
v 134 12 -19
v 134 21.25 -19
v 128 12 -19
v 150 -36 -22
v 114 -36 -58
v 150 -36 -58
v 114 -36 -22
v 136.5 33 -35.50001
v 127.5 33 -35.49999
v 136.5 33.25 -35.50001
v 127.5 33.25 -35.49999
v 136.5 33.25 -35.50001
v 127.5 33.25 -35.49999
v 136 33.25 -36.00001
v 128 33.25 -35.99999
v 136 33.25 -36.00001
v 128 33.25 -35.99999
v 136 33.5 -36.00001
v 128 33.5 -35.99999
v 136 33.5 -36.00001
v 128 33.5 -35.99999
v 135.5 33.5 -36.5
v 128.5 33.5 -36.49999
v 135.5 33.5 -36.5
v 128.5 33.5 -36.49999
v 135.5 33.75 -36.5
v 128.5 33.75 -36.49999
v 135.5 33.75 -36.5
v 128.5 33.75 -36.49999
v 135 33.75 -37
v 129 33.75 -37
v 135 33.75 -37
v 129 33.75 -37
v 135 34 -37
v 129 34 -37
v 135 34 -37
v 129 34 -37
v 134.0147 34 -37.98534
v 129.9902 34 -37.99022
v 136.5 33 -44.50001
v 136.5 33 -35.50001
v 136.5 33.25 -44.50001
v 136.5 33.25 -35.50001
v 136.5 33.25 -44.50001
v 136 33.25 -44.00001
v 136 33.25 -44.00001
v 136 33.25 -36.00001
v 136 33.5 -44.00001
v 136 33.5 -36.00001
v 136 33.5 -44.00001
v 135.5 33.5 -43.50001
v 135.5 33.5 -43.50001
v 135.5 33.5 -36.5
v 135.5 33.75 -43.50001
v 135.5 33.75 -36.5
v 135.5 33.75 -43.50001
v 135 33.75 -43.00001
v 135 33.75 -43.00001
v 135 33.75 -37
v 135 34 -43.00001
v 135 34 -37
v 135 34 -43.00001
v 134.0147 34 -42.01467
v 127.5 33 -44.49999
v 136.5 33 -44.50001
v 127.5 33.25 -44.49999
v 136.5 33.25 -44.50001
v 127.5 33.25 -44.49999
v 128 33.25 -43.99999
v 128 33.25 -43.99999
v 136 33.25 -44.00001
v 128 33.5 -43.99999
v 136 33.5 -44.00001
v 128 33.5 -43.99999
v 128.5 33.5 -43.49999
v 128.5 33.5 -43.49999
v 135.5 33.5 -43.50001
v 128.5 33.75 -43.49999
v 135.5 33.75 -43.50001
v 128.5 33.75 -43.49999
v 129 33.75 -42.99999
v 129 33.75 -42.99999
v 135 33.75 -43.00001
v 129 34 -42.99999
v 135 34 -43.00001
v 129 34 -42.99999
v 129.9902 34 -42.00978
v 127.5 33 -35.49999
v 127.5 33 -44.49999
v 127.5 33.25 -35.49999
v 127.5 33.25 -44.49999
v 128 33.25 -35.99999
v 128 33.25 -43.99999
v 128 33.5 -35.99999
v 128 33.5 -43.99999
v 128.5 33.5 -36.49999
v 128.5 33.5 -43.49999
v 128.5 33.75 -36.49999
v 128.5 33.75 -43.49999
v 129 33.75 -37
v 129 33.75 -42.99999
v 129 34 -37
v 129 34 -42.99999
v 134.0147 34 -42.01467
v 134.0147 34 -37.98534
v 134.0147 32.99736 -42.01467
v 134.0147 32.99736 -37.98534
v 134.0147 34 -37.98534
v 129.9902 34 -37.99022
v 134.0147 32.99736 -37.98534
v 129.9902 32.99736 -37.99022
v 129.9902 34 -37.99022
v 129.9902 34 -42.00978
v 129.9902 32.99736 -37.99022
v 129.9902 32.99736 -42.00978
v 129.9902 34 -42.00978
v 134.0147 34 -42.01467
v 129.9902 32.99736 -42.00978
v 134.0147 32.99736 -42.01467
vt -4.000122 4.57143
vt -28.00012 4.57143
vt -28.00012 -7.42857
vt -4.000122 -7.42857
vt 12 4.57143
vt -12 4.57143
vt -12 -7.42857
vt 12 -7.42857
vt -28.00012 12
vt -28.00012 -12
vt -8.000061 8.285715
vt -4.000122 -12
vt -4.000122 12
vt -32.00012 -16
vt -0.0001220703 -16
vt -4.000122 -12
vt -28.00012 -12
vt -0.0001220703 -16
vt -0.0001220703 16
vt -4.000122 12
vt -4.000122 -12
vt -16 -35.42857
vt 16 -35.42857
vt 16 -7.42857
vt -16 -7.42857
vt 2 44
vt 30 44
vt 12.25 37
vt 20.25 37
vt 30 27
vt 20.25 29
vt 2 27
vt 12.25 29
vt -34 12
vt -34 23
vt -19.25 12
vt -19.25 17
vt 2 23
vt -13.75 17
vt 2 12
vt -13.75 12
vt 43.5 37
vt 30 29
vt 30 37
vt 43.5 29
vt -43.5 29
vt -30 37
vt -30 29
vt -43.5 37
vt 43.5 -12.25
vt 30 -20.25
vt 30 -12.25
vt 43.5 -20.25
vt -43.5 -20.25
vt -30 -12.25
vt -30 -20.25
vt -43.5 -12.25
vt -2 12
vt 34 12
vt -2 -36
vt 34 -36
vt -34 12
vt 2 12
vt -34 -36
vt 2 -36
vt -34 12
vt 2 12
vt -34 -36
vt 2 -36
vt 30 44
vt 30 27
vt 20 37
vt 20 29
vt 2 27
vt 12 29
vt 2 44
vt 12 37
vt -12 -2
vt -20 -2
vt -12 5
vt -20 5
vt 2 37
vt 2 29
vt -5 37
vt -5 29
vt 20 -2
vt 12 -2
vt 20 5
vt 12 5
vt -2 29
vt -2 37
vt 5 29
vt 5 37
vt -2 12
vt -2 23
vt 12.125 12
vt 12.125 20
vt 34 23
vt 20.375 20
vt 34 12
vt 20.375 12
vt 34 -20.375
vt 34 -12.125
vt 43 -20.375
vt 43 -12.125
vt 34 12
vt 34 20
vt 43 12
vt 43 20
vt -34 -12.125
vt -34 -20.375
vt -43 -12.125
vt -43 -20.375
vt -34 20
vt -34 12
vt -43 20
vt -43 12
vt 4.829617 -14.39485
vt 5.924732 -28.183
vt 4.425381 -28.1389
vt 15.82486 -14.71824
vt 34 -36
vt 20.25 -36
vt 20.25 0.0625
vt 34 12
vt 20.25 21.5
vt 17.99916 44
vt -21.15524 27.32009
vt -16.25626 32.21907
vt -13.93111 18.66708
vt -16.42039 -0.2766743
vt -12.04985 7.702299
vt -10.1686 -3.262486
vt 9.125 23.00001
vt -2 17.49838
vt -2 23.00001
vt 14 21.25001
vt 20.25 23.00001
vt -2 11.99675
vt 14 12.00001
vt 20.25 11.99674
vt 20.25 -36
vt -1.999999 -36
vt 2 12
vt 2 21.25
vt 5 12
vt 5 21.25
vt -14.83813 2
vt -21.09313 2
vt -14.83813 5
vt -20.84333 5
vt -0.3114204 21.50001
vt -0.3113501 11.99675
vt -3.321819 21.50001
vt -3.321819 12.00001
vt 20.24374 2.012456
vt 13.99374 2.012527
vt 19.99374 5.012529
vt 13.99374 5.012526
vt -34 12
vt -39 12
vt -39 17
vt -34 17
vt -13.75 -39
vt -19.25 -34
vt -13.75 -34
vt -19.25 -39
vt -39 12
vt -34 17
vt -34 12
vt -39 17
vt -13.75 12
vt -19.25 17
vt -13.75 17
vt -19.25 12
vt 20 21.5
vt 14 12
vt 14 21.25
vt 20 12
vt -2 2
vt 34 -34
vt -2 -34
vt 34 2
vt 4.500003 0
vt -4.5 0
vt 4.500003 0.25
vt -4.5 0.25
vt -4.50001 4.499992
vt 4.499992 4.500007
vt -4.00001 3.999993
vt 3.999993 4.000007
vt 4.000003 0.25
vt -4 0.25
vt 4.000003 0.5
vt -4 0.5
vt -4.00001 3.999993
vt 3.999993 4.000007
vt -3.500009 3.499995
vt 3.499994 3.500006
vt 3.500003 0.5
vt -3.5 0.5
vt 3.500003 0.75
vt -3.5 0.75
vt -3.500009 3.499995
vt 3.499994 3.500006
vt -3.000008 2.999996
vt 2.999995 3.000005
vt 3.000004 0.75
vt -3 0.75
vt 3.000004 1
vt -3 1
vt -3.000008 2.999996
vt 2.999995 3.000005
vt -2.014669 2.014665
vt 2.009776 2.009779
vt 4.499999 0
vt -4.500002 0
vt 4.499999 0.25
vt -4.500002 0.25
vt -4.49999 -4.500009
vt -3.999992 -4.000008
vt 4 0.25
vt -4.000002 0.25
vt 4 0.5
vt -4.000002 0.5
vt -3.999992 -4.000008
vt -3.499993 -3.500007
vt 3.499999 0.5
vt -3.500003 0.5
vt 3.499999 0.75
vt -3.500003 0.75
vt -3.499993 -3.500007
vt -2.999994 -3.000006
vt 2.999999 0.75
vt -3.000003 0.75
vt 2.999999 1
vt -3.000003 1
vt -2.999994 -3.000006
vt -2.014664 -2.014667
vt 4.5 0
vt -4.5 0
vt 4.5 0.25
vt -4.5 0.25
vt 4.500009 -4.49999
vt 4.000009 -3.999991
vt 4 0.25
vt -4 0.25
vt 4 0.5
vt -4 0.5
vt 4.000009 -3.999991
vt 3.500007 -3.499992
vt 3.5 0.5
vt -3.5 0.5
vt 3.5 0.75
vt -3.5 0.75
vt 3.500007 -3.499992
vt 3.000006 -2.999993
vt 3 0.75
vt -3 0.75
vt 3 1
vt -3 1
vt 3.000006 -2.999993
vt 2.009778 -2.009775
vt 4.499999 0
vt -4.499999 0
vt 4.499999 0.25
vt -4.499999 0.25
vt 3.999999 0.25
vt -3.999999 0.25
vt 3.999999 0.5
vt -3.999999 0.5
vt 3.5 0.5
vt -3.499999 0.5
vt 3.5 0.75
vt -3.499999 0.75
vt 3 0.75
vt -2.999999 0.75
vt 3 1
vt -2.999999 1
vt -2.014665 1
vt 2.014668 1
vt -2.014665 -0.002637029
vt 2.014668 -0.002637029
vt -2.017114 1
vt 2.007334 1
vt -2.017114 -0.002637029
vt 2.007334 -0.002637029
vt -2.009778 1
vt 2.009777 1
vt -2.009778 -0.002636551
vt 2.009777 -0.002636551
vt -2.007334 1
vt 2.017112 1
vt -2.007334 -0.002637028
vt 2.017112 -0.002637028
vn 0 0 1
vn 0 0 1
vn 0 0 1
vn 0 0 1
vn -1 0 0
vn -1 0 0
vn -1 0 0
vn -1 0 0
vn 0 -1 0
vn 0 -1 0
vn 0 -1 0
vn 0 -1 0
vn 0 -1 0
vn 0 -0.7071068 0.7071068
vn 0 -0.7071068 0.7071068
vn 0 -0.7071068 0.7071068
vn 0 -0.7071068 0.7071068
vn 0.7071068 -0.7071068 0
vn 0.7071068 -0.7071068 0
vn 0.7071068 -0.7071068 0
vn 0.7071068 -0.7071068 0
vn 1 0 0
vn 1 0 0
vn 1 0 0
vn 1 0 0
vn 1 0 0
vn 1 0 0
vn 1 0 0
vn 1 0 0
vn 1 0 0
vn 1 0 0
vn 1 0 0
vn 1 0 0
vn 0 0 1
vn 0 0 1
vn 0 0 1
vn 0 0 1
vn 0 0 1
vn 0 0 1
vn 0 0 1
vn 0 0 1
vn 0 0 -1
vn 0 0 -1
vn 0 0 -1
vn 0 0 -1
vn 0 0 1
vn 0 0 1
vn 0 0 1
vn 0 0 1
vn 0 1 0
vn 0 1 0
vn 0 1 0
vn 0 1 0
vn 0 -1 0
vn 0 -1 0
vn 0 -1 0
vn 0 -1 0
vn 1 0 0
vn 1 0 0
vn 1 0 0
vn 1 0 0
vn 0 0 1
vn 0 0 1
vn 0 0 1
vn 0 0 1
vn -1 0 0
vn -1 0 0
vn -1 0 0
vn -1 0 0
vn 0 0 -1
vn 0 0 -1
vn 0 0 -1
vn 0 0 -1
vn 0 0 -1
vn 0 0 -1
vn 0 0 -1
vn 0 0 -1
vn 0 -1 0
vn 0 -1 0
vn 0 -1 0
vn 0 -1 0
vn 1 0 0
vn 1 0 0
vn 1 0 0
vn 1 0 0
vn 0 1 0
vn 0 1 0
vn 0 1 0
vn 0 1 0
vn -1 0 0
vn -1 0 0
vn -1 0 0
vn -1 0 0
vn 1 0 0
vn 1 0 0
vn 1 0 0
vn 1 0 0
vn 1 0 0
vn 1 0 0
vn 1 0 0
vn 1 0 0
vn 0 1 0
vn 0 1 0
vn 0 1 0
vn 0 1 0
vn 0 0 -1
vn 0 0 -1
vn 0 0 -1
vn 0 0 -1
vn 0 -1 0
vn 0 -1 0
vn 0 -1 0
vn 0 -1 0
vn 0 0 1
vn 0 0 1
vn 0 0 1
vn 0 0 1
vn 0 0 -1
vn 0 0 -1
vn 0 0 -1
vn 0 0 -1
vn 0 0 -1
vn 0 0 -1
vn 0 0 -1
vn 0 0 -1
vn 0 0 -1
vn 0 0 -1
vn 0 -0.7071068 -0.7071068
vn 0 -0.7071068 -0.7071068
vn 0 -0.7071068 -0.7071068
vn 0 -0.7071068 -0.7071068
vn 0 -0.7071068 -0.7071068
vn 0 -0.7071068 -0.7071068
vn -6.670067E-07 5.064953E-06 -1
vn -6.670067E-07 5.064953E-06 -1
vn 0 6.413725E-06 -1
vn -1.334013E-06 3.71618E-06 -1
vn 0 0 -1
vn -2.556122E-06 3.206863E-06 -1
vn -4.410744E-06 0 -1
vn 1.129043E-05 2.066435E-06 -1
vn 5.645213E-06 2.801488E-06 -1
vn -2.205161E-06 2.801488E-06 -1
vn -1 0 0
vn -1 0 0
vn -1 0 0
vn -1 0 0
vn -0.03996804 -0.999201 0
vn -0.04079917 -0.999164 0.001734596
vn -0.04079917 -0.999164 0.001734596
vn -0.04163029 -0.9991271 0.003469191
vn 0.9965457 6.167018E-07 -0.08304548
vn 0.9965458 3.083509E-07 -0.08304451
vn 0.9965458 3.083509E-07 -0.08304451
vn 0.9965459 0 -0.08304354
vn -0.0005216859 0.9999993 -0.001043372
vn -0.000260843 0.9999996 -0.0005216859
vn -0.000260843 0.9999996 -0.0005216859
vn 0 1 0
vn -1 0 0
vn -1 0 0
vn -1 0 0
vn -1 0 0
vn 0 -1 0
vn 0 -1 0
vn 0 -1 0
vn 0 -1 0
vn -1 0 0
vn -1 0 0
vn -1 0 0
vn -1 0 0
vn 0 0 1
vn 0 0 1
vn 0 0 1
vn 0 0 1
vn 0 0 -1
vn 0 0 -1
vn 0 0 -1
vn 0 0 -1
vn 0 1 0
vn 0 1 0
vn 0 1 0
vn 0 1 0
vn 1.589457E-06 0 1
vn 1.589457E-06 0 1
vn 1.589457E-06 0 1
vn 1.589457E-06 0 1
vn 0 1 0
vn 0 1 0
vn 0 1 0
vn 0 1 0
vn 1.668929E-06 0 1
vn 1.668929E-06 0 1
vn 1.668929E-06 0 1
vn 1.668929E-06 0 1
vn 0 1 0
vn 0 1 0
vn 0 1 0
vn 0 1 0
vn 1.60081E-06 0 1
vn 1.60081E-06 0 1
vn 1.60081E-06 0 1
vn 1.60081E-06 0 1
vn 0 1 0
vn 0 1 0
vn 0 1 0
vn 0 1 0
vn 1.589456E-06 0 1
vn 1.589456E-06 0 1
vn 1.589456E-06 0 1
vn 1.589456E-06 0 1
vn 0 1 0
vn 0 1 0
vn 0 1 0
vn 0 1 0
vn 1 0 -2.22524E-06
vn 1 0 -2.22524E-06
vn 1 0 -2.22524E-06
vn 1 0 -2.22524E-06
vn 0 1 0
vn 0 1 0
vn 1 0 -2.175569E-06
vn 1 0 -2.175569E-06
vn 1 0 -2.175569E-06
vn 1 0 -2.175569E-06
vn 0 1 0
vn 0 1 0
vn 1 0 -2.282006E-06
vn 1 0 -2.282006E-06
vn 1 0 -2.282006E-06
vn 1 0 -2.282006E-06
vn 0 1 0
vn 0 1 0
vn 1 0 -2.344449E-06
vn 1 0 -2.344449E-06
vn 1 0 -2.344449E-06
vn 1 0 -2.344449E-06
vn 0 1 0
vn 0 1 0
vn -2.066294E-06 0 -1
vn -2.066294E-06 0 -1
vn -2.066294E-06 0 -1
vn -2.066294E-06 0 -1
vn 0 1 0
vn 0 1 0
vn -2.086162E-06 0 -1
vn -2.086162E-06 0 -1
vn -2.086162E-06 0 -1
vn -2.086162E-06 0 -1
vn 0 1 0
vn 0 1 0
vn -2.111707E-06 0 -1
vn -2.111707E-06 0 -1
vn -2.111707E-06 0 -1
vn -2.111707E-06 0 -1
vn 0 1 0
vn 0 1 0
vn -2.066294E-06 0 -1
vn -2.066294E-06 0 -1
vn -2.066294E-06 0 -1
vn -2.066294E-06 0 -1
vn 0 1 0
vn 0 1 0
vn -1 0 1.854367E-06
vn -1 0 1.854367E-06
vn -1 0 1.854367E-06
vn -1 0 1.854367E-06
vn -1 0 1.907349E-06
vn -1 0 1.907349E-06
vn -1 0 1.907349E-06
vn -1 0 1.907349E-06
vn -1 0 1.873289E-06
vn -1 0 1.873289E-06
vn -1 0 1.873289E-06
vn -1 0 1.873289E-06
vn -1 0 1.867612E-06
vn -1 0 1.867612E-06
vn -1 0 1.867612E-06
vn -1 0 1.867612E-06
vn -1 0 1.301756E-06
vn -1 0 1.301756E-06
vn -1 0 1.301756E-06
vn -1 0 1.301756E-06
vn 0.001214117 0 -0.9999993
vn 0.001214117 1.443533E-10 -0.9999993
vn 0.001214117 1.443533E-10 -0.9999993
vn 0.001214117 2.887067E-10 -0.9999993
vn 1 2.377915E-07 -5.931468E-07
vn 1 2.377915E-07 -5.931468E-07
vn 1 2.377915E-07 -5.931468E-07
vn 1 2.377915E-07 -5.931468E-07
vn 0.00121554 2.89045E-10 0.9999993
vn 0.00121554 1.445225E-10 0.9999993
vn 0.00121554 1.445225E-10 0.9999993
vn 0.00121554 0 0.9999993
g Combined Mesh (root: scene) 3_0
f 3/3/3 2/2/2 1/1/1
f 4/4/4 3/3/3 1/1/1
f 7/7/7 6/6/6 5/5/5
f 8/8/8 7/7/7 5/5/5
f 11/11/11 10/10/10 9/9/9
f 10/10/10 11/11/11 12/12/12
f 11/11/11 13/13/13 12/12/12
f 16/16/16 15/15/15 14/14/14
f 17/17/17 16/16/16 14/14/14
f 20/20/20 19/19/19 18/18/18
f 21/21/21 20/20/20 18/18/18
f 24/24/24 23/23/23 22/22/22
f 25/25/25 24/24/24 22/22/22
f 28/28/28 27/27/27 26/26/26
f 28/28/28 29/29/29 27/27/27
f 29/29/29 30/30/30 27/27/27
f 29/29/29 31/31/31 30/30/30
f 31/31/31 32/32/32 30/30/30
f 31/31/31 33/33/33 32/32/32
f 33/33/33 26/26/26 32/32/32
f 33/33/33 28/28/28 26/26/26
f 36/36/36 35/35/35 34/34/34
f 36/36/36 37/37/37 35/35/35
f 37/37/37 38/38/38 35/35/35
f 37/37/37 39/39/39 38/38/38
f 39/39/39 40/40/40 38/38/38
f 39/39/39 41/41/41 40/40/40
f 44/44/44 43/43/43 42/42/42
f 43/43/43 45/45/45 42/42/42
f 48/48/48 47/47/47 46/46/46
f 47/47/47 49/49/49 46/46/46
f 52/52/52 51/51/51 50/50/50
f 51/51/51 53/53/53 50/50/50
f 56/56/56 55/55/55 54/54/54
f 55/55/55 57/57/57 54/54/54
f 60/60/60 59/59/59 58/58/58
f 60/60/60 61/61/61 59/59/59
f 64/64/64 63/63/63 62/62/62
f 64/64/64 65/65/65 63/63/63
f 68/68/68 67/67/67 66/66/66
f 68/68/68 69/69/69 67/67/67
f 72/72/72 71/71/71 70/70/70
f 72/72/72 73/73/73 71/71/71
f 73/73/73 74/74/74 71/71/71
f 73/73/73 75/75/75 74/74/74
f 75/75/75 76/76/76 74/74/74
f 75/75/75 77/77/77 76/76/76
f 80/80/80 79/79/79 78/78/78
f 80/80/80 81/81/81 79/79/79
f 84/84/84 83/83/83 82/82/82
f 84/84/84 85/85/85 83/83/83
f 88/88/88 87/87/87 86/86/86
f 88/88/88 89/89/89 87/87/87
f 92/92/92 91/91/91 90/90/90
f 92/92/92 93/93/93 91/91/91
f 96/96/96 95/95/95 94/94/94
f 96/96/96 97/97/97 95/95/95
f 97/97/97 98/98/98 95/95/95
f 97/97/97 99/99/99 98/98/98
f 99/99/99 100/100/100 98/98/98
f 99/99/99 101/101/101 100/100/100
f 104/104/104 103/103/103 102/102/102
f 104/104/104 105/105/105 103/103/103
f 108/108/108 107/107/107 106/106/106
f 108/108/108 109/109/109 107/107/107
f 112/112/112 111/111/111 110/110/110
f 112/112/112 113/113/113 111/111/111
f 116/116/116 115/115/115 114/114/114
f 116/116/116 117/117/117 115/115/115
f 120/120/120 119/119/119 118/118/118
f 119/119/119 121/121/121 118/118/118
f 124/124/124 123/123/123 122/122/122
f 124/124/124 122/122/122 125/125/125
f 126/126/126 124/124/124 125/125/125
f 127/127/127 72/72/72 70/70/70
f 77/77/77 72/72/72 127/127/127
f 76/76/76 77/77/77 127/127/127
f 130/130/130 129/129/129 128/128/128
f 131/131/131 130/130/130 128/128/128
f 131/131/131 132/132/132 130/130/130
f 133/133/133 132/132/132 131/131/131
f 136/136/136 135/135/135 134/134/134
f 135/135/135 137/137/137 134/134/134
f 134/134/134 137/137/137 138/138/138
f 137/137/137 126/126/126 138/138/138
f 135/135/135 139/139/139 137/137/137
f 139/139/139 140/140/140 137/137/137
f 142/142/142 141/141/141 140/140/140
f 142/142/142 140/140/140 143/143/143
f 139/139/139 143/143/143 140/140/140
f 146/146/146 145/145/145 144/144/144
f 146/146/146 147/147/147 145/145/145
f 150/150/150 149/149/149 148/148/148
f 150/150/150 151/151/151 149/149/149
f 154/154/154 153/153/153 152/152/152
f 154/154/154 155/155/155 153/153/153
f 158/158/158 157/157/157 156/156/156
f 158/158/158 159/159/159 157/157/157
f 162/162/162 161/161/161 160/160/160
f 162/162/162 160/160/160 163/163/163
f 166/166/166 165/165/165 164/164/164
f 165/165/165 167/167/167 164/164/164
f 170/170/170 169/169/169 168/168/168
f 169/169/169 171/171/171 168/168/168
f 174/174/174 173/173/173 172/172/172
f 173/173/173 175/175/175 172/172/172
g Combined Mesh (root: scene) 3_1
f 178/178/178 177/177/177 176/176/176
f 177/177/177 179/179/179 176/176/176
f 182/182/182 181/181/181 180/180/180
f 181/181/181 183/183/183 180/180/180
g Combined Mesh (root: scene) 3_2
f 186/186/186 185/185/185 184/184/184
f 186/186/186 187/187/187 185/185/185
f 190/190/190 189/189/189 188/188/188
f 190/190/190 191/191/191 189/189/189
f 194/194/194 193/193/193 192/192/192
f 194/194/194 195/195/195 193/193/193
f 198/198/198 197/197/197 196/196/196
f 198/198/198 199/199/199 197/197/197
f 202/202/202 201/201/201 200/200/200
f 202/202/202 203/203/203 201/201/201
f 206/206/206 205/205/205 204/204/204
f 206/206/206 207/207/207 205/205/205
f 210/210/210 209/209/209 208/208/208
f 210/210/210 211/211/211 209/209/209
f 214/214/214 213/213/213 212/212/212
f 214/214/214 215/215/215 213/213/213
f 218/218/218 217/217/217 216/216/216
f 218/218/218 219/219/219 217/217/217
f 221/221/221 188/188/188 220/220/220
f 221/221/221 190/190/190 188/188/188
f 224/224/224 223/223/223 222/222/222
f 224/224/224 225/225/225 223/223/223
f 227/227/227 196/196/196 226/226/226
f 227/227/227 198/198/198 196/196/196
f 230/230/230 229/229/229 228/228/228
f 230/230/230 231/231/231 229/229/229
f 233/233/233 204/204/204 232/232/232
f 233/233/233 206/206/206 204/204/204
f 236/236/236 235/235/235 234/234/234
f 236/236/236 237/237/237 235/235/235
f 239/239/239 212/212/212 238/238/238
f 239/239/239 214/214/214 212/212/212
f 242/242/242 241/241/241 240/240/240
f 242/242/242 243/243/243 241/241/241
f 245/245/245 220/220/220 244/244/244
f 245/245/245 221/221/221 220/220/220
f 248/248/248 247/247/247 246/246/246
f 248/248/248 249/249/249 247/247/247
f 251/251/251 226/226/226 250/250/250
f 251/251/251 227/227/227 226/226/226
f 254/254/254 253/253/253 252/252/252
f 254/254/254 255/255/255 253/253/253
f 257/257/257 232/232/232 256/256/256
f 257/257/257 233/233/233 232/232/232
f 260/260/260 259/259/259 258/258/258
f 260/260/260 261/261/261 259/259/259
f 263/263/263 238/238/238 262/262/262
f 263/263/263 239/239/239 238/238/238
f 266/266/266 265/265/265 264/264/264
f 266/266/266 267/267/267 265/265/265
f 191/191/191 244/244/244 189/189/189
f 191/191/191 245/245/245 244/244/244
f 270/270/270 269/269/269 268/268/268
f 270/270/270 271/271/271 269/269/269
f 199/199/199 250/250/250 197/197/197
f 199/199/199 251/251/251 250/250/250
f 274/274/274 273/273/273 272/272/272
f 274/274/274 275/275/275 273/273/273
f 207/207/207 256/256/256 205/205/205
f 207/207/207 257/257/257 256/256/256
f 278/278/278 277/277/277 276/276/276
f 278/278/278 279/279/279 277/277/277
f 215/215/215 262/262/262 213/213/213
f 215/215/215 263/263/263 262/262/262
f 282/282/282 281/281/281 280/280/280
f 282/282/282 283/283/283 281/281/281
f 286/286/286 285/285/285 284/284/284
f 286/286/286 287/287/287 285/285/285
f 290/290/290 289/289/289 288/288/288
f 290/290/290 291/291/291 289/289/289
f 294/294/294 293/293/293 292/292/292
f 294/294/294 295/295/295 293/293/293
