g Combined Mesh (root: scene) 48
v 20.30707 -15.78112 97.39877
v 24.19128 -15.78112 97.71568
v 21 -11.57314 99.89227
v 23 -11.4113 97.25
v 21 -11.70401 117.75
v 20 -16 118.75
v 23 -11.70401 119.25
v 23 -16 120.75
v 23.32581 -11.70401 115.75
v 21 -11.70401 117.75
v 23.82581 -11.70401 116.25
v 23 -11.70401 119.25
v 23 -11.70401 119.25
v 23 -16 120.75
v 27 -11.70401 119.25
v 27 -16 120.75
v 23.82581 -11.70401 116.25
v 23 -11.70401 119.25
v 27 -11.70401 116.25
v 27 -11.70401 119.25
v 27 -11.70401 119.25
v 27 -16 120.75
v 27 -11.70401 116.25
v 27 -16 117.75
v 20 -16 118.75
v 19.90436 -15.89056 101.263
v 21 -11.55102 101.2829
v 21 -11.70401 117.75
v 19.90436 -15.89056 101.263
v 20.30707 -15.78112 97.39877
v 21 -11.57314 99.89227
v 21 -11.55102 101.2829
v 23.32581 -11.70401 115.75
v 21 -11.70401 117.75
v 21 -11.55102 101.2829
v 23.1629 -11.38562 100.9547
v 21 -11.55102 101.2829
v 21 -11.57314 99.89227
v 23 -11.4113 97.25
v 23.1629 -11.38562 100.9547
v 23 -11.4113 97.25
v 23.1629 -11.38562 100.9547
v 23.45752 -11.54698 97.25
v 23.62042 -11.52131 100.9547
v -34.5 -12.25 83.25
v -37.5 -12.25 83.25
v -34.5 -9.25 83.25
v -37.5 -9.25 83.25
v -37.5 -12.25 83.25
v -37.5 -12.25 80.25
v -37.5 -9.25 83.25
v -37.5 -9.25 80.25
v -37.5 -12.25 80.25
v -34.5 -12.25 80.25
v -37.5 -9.25 80.25
v -34.5 -9.25 80.25
v -34.5 -12.25 80.25
v -34.5 -12.25 83.25
v -34.5 -9.25 80.25
v -34.5 -9.25 83.25
v -34.5 -9.25 83.25
v -37.5 -9.25 83.25
v -34.5 -9.25 80.25
v -37.5 -9.25 80.25
v -34.5 -12.25 80.25
v -37.5 -12.25 80.25
v -34.5 -12.25 83.25
v -37.5 -12.25 83.25
v 112.46 -6.94 67.37
v 109.46 -6.94 67.37
v 112.46 -3.94 67.37
v 109.46 -3.94 67.37
v 109.46 -6.94 67.37
v 109.46 -6.94 64.37
v 109.46 -3.94 67.37
v 109.46 -3.94 64.37
v 109.46 -6.94 64.37
v 112.46 -6.94 64.37
v 109.46 -3.94 64.37
v 112.46 -3.94 64.37
v 112.46 -6.94 64.37
v 112.46 -6.94 67.37
v 112.46 -3.94 64.37
v 112.46 -3.94 67.37
v 112.46 -3.94 67.37
v 109.46 -3.94 67.37
v 112.46 -3.94 64.37
v 109.46 -3.94 64.37
v 112.46 -6.94 64.37
v 109.46 -6.94 64.37
v 112.46 -6.94 67.37
v 109.46 -6.94 67.37
v -22.5 -14 63.75
v -25.5 -14 63.75
v -22.5 -11 63.75
v -25.5 -11 63.75
v -25.5 -14 63.75
v -25.5 -14 60.75
v -25.5 -11 63.75
v -25.5 -11 60.75
v -25.5 -14 60.75
v -22.5 -14 60.75
v -25.5 -11 60.75
v -22.5 -11 60.75
v -22.5 -14 60.75
v -22.5 -14 63.75
v -22.5 -11 60.75
v -22.5 -11 63.75
v -22.5 -11 63.75
v -25.5 -11 63.75
v -22.5 -11 60.75
v -25.5 -11 60.75
v -22.5 -14 60.75
v -25.5 -14 60.75
v -22.5 -14 63.75
v -25.5 -14 63.75
v -34.5 -14 72.25
v -37.5 -14 72.25
v -34.5 -11 72.25
v -37.5 -11 72.25
v -37.5 -14 72.25
v -37.5 -14 69.25
v -37.5 -11 72.25
v -37.5 -11 69.25
v -37.5 -14 69.25
v -34.5 -14 69.25
v -37.5 -11 69.25
v -34.5 -11 69.25
v -34.5 -14 69.25
v -34.5 -14 72.25
v -34.5 -11 69.25
v -34.5 -11 72.25
v -34.5 -11 72.25
v -37.5 -11 72.25
v -34.5 -11 69.25
v -37.5 -11 69.25
v -34.5 -14 69.25
v -37.5 -14 69.25
v -34.5 -14 72.25
v -37.5 -14 72.25
v -25.75 -12.75 72.25
v -22.75 -12.75 72.25
v -25.75 -9.75 72.25
v -22.75 -9.75 72.25
v -22.75 -12.75 72.25
v -22.75 -12.75 69.25
v -22.75 -9.75 72.25
v -22.75 -9.75 69.25
v -22.75 -12.75 69.25
v -25.75 -12.75 69.25
v -22.75 -9.75 69.25
v -25.75 -9.75 69.25
v -25.75 -12.75 69.25
v -25.75 -12.75 72.25
v -25.75 -9.75 69.25
v -25.75 -9.75 72.25
v -25.75 -9.75 72.25
v -22.75 -9.75 72.25
v -25.75 -9.75 69.25
v -22.75 -9.75 69.25
v -25.75 -12.75 69.25
v -22.75 -12.75 69.25
v -25.75 -12.75 72.25
v -22.75 -12.75 72.25
v -81.23491 -18.63 146.0821
v -81.23491 -18.63 152.0322
v -87.185 -18.63 146.0821
v -89.67999 -13.02842 153.56
v -81.23491 -18.63 152.0322
v -81.23491 -18.63 157.9823
v -89.67999 -13.02842 153.56
v -89.67999 -13.02842 157.56
v -81.23491 -18.63 157.9823
v -81.23491 -18.63 163.9323
v -89.67999 -13.02842 157.56
v -89.67999 -13.02842 161.56
v -81.23491 -18.63 163.9323
v -81.23491 -18.63 169.8824
v -89.67999 -13.02842 161.56
v -87.185 -18.63 169.8824
v -87.185 -18.63 146.0821
v -89.67999 -13.02842 153.56
v -93.13507 -18.63 143.5053
v -93.67999 -13.02842 151.8277
v -89.67999 -13.02842 153.56
v -89.67999 -13.02842 157.56
v -93.67999 -13.02842 151.8277
v -93.67999 -11.56024 157.56
v -89.67999 -13.02842 157.56
v -89.67999 -13.02842 161.56
v -93.67999 -11.56024 157.56
v -93.67999 -13.02842 161.56
v -89.67999 -13.02842 161.56
v -87.185 -18.63 169.8824
v -93.67999 -13.02842 161.56
v -93.13507 -18.63 169.8824
v -93.13507 -18.63 143.5053
v -93.67999 -13.02842 151.8277
v -99.08516 -18.63 146.0821
v -97.67999 -13.02842 153.56
v -93.67999 -13.02842 151.8277
v -93.67999 -11.56024 157.56
v -97.67999 -13.02842 153.56
v -99.91547 -13.02842 157.56
v -93.67999 -11.56024 157.56
v -93.67999 -13.02842 161.56
v -99.91547 -13.02842 157.56
v -97.67999 -13.02842 161.56
v -93.67999 -13.02842 161.56
v -93.13507 -18.63 169.8824
v -97.67999 -13.02842 161.56
v -99.08516 -18.63 169.8824
v -99.08516 -18.63 146.0821
v -97.67999 -13.02842 153.56
v -105.0352 -18.63 146.0821
v -105.0352 -18.63 152.0322
v -97.67999 -13.02842 153.56
v -99.91547 -13.02842 157.56
v -105.0352 -18.63 152.0322
v -108.3605 -18.63 157.9823
v -99.91547 -13.02842 157.56
v -97.67999 -13.02842 161.56
v -108.3605 -18.63 157.9823
v -105.0352 -18.63 163.9323
v -97.67999 -13.02842 161.56
v -99.08516 -18.63 169.8824
v -105.0352 -18.63 163.9323
v -105.0352 -18.63 169.8824
vt -21.37854 -10.89674
vt -23.39241 -9.452845
vt -19.76077 -6.229026
vt -23.0737 -6.049496
vt -3.9 1.417235
vt -4.1 -3.101118
vt -1.4 1.417235
vt -0.4999999 -3.039149
vt -2.325806 -8.5
vt 0 -6.5
vt -2.825806 -8
vt -2 -5
vt 2 1.455623
vt 2 -3.094708
vt 6 1.455623
vt 6 -3.094708
vt -2.825806 -8
vt -2 -5
vt -6 -8
vt -6 -5
vt 5 -0.2040119
vt 3.5 -4.5
vt 8 -0.2040119
vt 6.5 -4.5
vt -5.506804 -4.600753
vt -22.99405 -4.488348
vt -22.96656 -0.01331874
vt -6.499844 -0.1883407
vt -22.98242 -4.547792
vt -26.84823 -4.346897
vt -24.35753 -0.0948761
vt -22.96692 -0.0720545
vt -2.30475 -8.489592
vt 0.01486985 -6.49386
vt 0.003718505 -22.96029
vt -2.165487 -23.28855
vt 0.004327644 -22.96716
vt 0.006204624 -24.35784
vt -2.000316 -27.00012
vt -2.164809 -23.2954
vt -1.892234 -26.98254
vt -2.041113 -23.27715
vt -2.369449 -26.98254
vt -2.518329 -23.27714
vt 1.5 -3
vt -1.5 -3
vt 1.5 0
vt -1.5 0
vt 1.5 -3
vt -1.5 -3
vt 1.5 0
vt -1.5 0
vt 1.5 -3
vt -1.5 -3
vt 1.5 0
vt -1.5 0
vt 1.5 -3
vt -1.5 -3
vt 1.5 0
vt -1.5 0
vt -1.5 1.5
vt 1.5 1.5
vt -1.5 -1.5
vt 1.5 -1.5
vt 1.5 -1.5
vt -1.5 -1.5
vt 1.5 1.5
vt -1.5 1.5
vt 1.5 -3
vt -1.5 -3
vt 1.5 0
vt -1.5 0
vt 1.5 -3
vt -1.5 -3
vt 1.5 0
vt -1.5 0
vt 1.5 -3
vt -1.5 -3
vt 1.5 0
vt -1.5 0
vt 1.5 -3
vt -1.5 -3
vt 1.5 0
vt -1.5 0
vt -1.5 1.5
vt 1.5 1.5
vt -1.5 -1.5
vt 1.5 -1.5
vt 1.5 -1.5
vt -1.5 -1.5
vt 1.5 1.5
vt -1.5 1.5
vt 1.5 -3
vt -1.5 -3
vt 1.5 0
vt -1.5 0
vt 1.5 -3
vt -1.5 -3
vt 1.5 0
vt -1.5 0
vt 1.5 -3
vt -1.5 -3
vt 1.5 0
vt -1.5 0
vt 1.5 -3
vt -1.5 -3
vt 1.5 0
vt -1.5 0
vt -1.5 1.5
vt 1.5 1.5
vt -1.5 -1.5
vt 1.5 -1.5
vt 1.5 -1.5
vt -1.5 -1.5
vt 1.5 1.5
vt -1.5 1.5
vt 1.5 -3
vt -1.5 -3
vt 1.5 0
vt -1.5 0
vt 1.5 -3
vt -1.5 -3
vt 1.5 0
vt -1.5 0
vt 1.5 -3
vt -1.5 -3
vt 1.5 0
vt -1.5 0
vt 1.5 -3
vt -1.5 -3
vt 1.5 0
vt -1.5 0
vt -1.5 1.5
vt 1.5 1.5
vt -1.5 -1.5
vt 1.5 -1.5
vt 1.5 -1.5
vt -1.5 -1.5
vt 1.5 1.5
vt -1.5 1.5
vt 1.5 -3
vt -1.5 -3
vt 1.5 0
vt -1.5 0
vt 1.5 -3
vt -1.5 -3
vt 1.5 0
vt -1.5 0
vt 1.5 -3
vt -1.5 -3
vt 1.5 0
vt -1.5 0
vt 1.5 -3
vt -1.5 -3
vt 1.5 0
vt -1.5 0
vt -1.5 1.5
vt 1.5 1.5
vt -1.5 -1.5
vt 1.5 -1.5
vt 1.5 -1.5
vt -1.5 -1.5
vt 1.5 1.5
vt -1.5 1.5
vt -4.445084 -3.477898
vt -4.445084 2.472176
vt 1.505005 -3.477898
vt 4 4
vt -3.704288 2.472176
vt -3.704288 8.422256
vt 6.42967 4
vt 6.42967 8
vt -3.704288 8.422256
vt -3.704288 14.37234
vt 6.42967 8
vt 6.42967 12
vt -3.704288 14.37234
vt -3.704288 20.32242
vt 6.42967 12
vt 1.254188 20.32242
vt 1.447962 -3.161709
vt 5.37597 5.67528
vt 7.172513 -6.206825
vt 9.22436 3.628173
vt 4 4
vt 4 8
vt 8 2.267731
vt 8 8
vt 5.68517 8
vt 5.68517 12
vt 9.946104 8
vt 9.440215 12
vt 4 6.827312
vt 1.505005 16.85928
vt 8 6.827312
vt 7.455078 16.85928
vt 7.140686 -3.860831
vt 6.053067 6.126878
vt 12.83985 -0.7684332
vt 9.884381 8.20577
vt 7.333699 3.788682
vt 7.171841 9.703771
vt 11.30932 5.576199
vt 13.53116 9.513368
vt 6.166746 4.601453
vt 6.503236 8.84908
vt 12.57273 4.601453
vt 10.39676 8.54064
vt 8 6.827312
vt 7.455078 16.85928
vt 12 6.827312
vt 13.40517 16.85928
vt 13.40517 -2.78354
vt 12 6.559725
vt 19.35524 -2.78354
vt 19.35524 1.978609
vt 6.754921 7.237524
vt 8.601462 11.43128
vt 15.98778 5.635692
vt 18.73455 11.874
vt 8.924357 4.053079
vt 7.045984 8.232679
vt 19.05751 4.494295
vt 16.26338 10.71154
vt 7.603767 5.896003
vt 11.61678 15.19711
vt 16.77305 8.547318
vt 16.77305 13.87132
vn -0.3251674 0.1745072 -0.7601341
vn 0.08103321 -0.08375082 -0.9931865
vn -0.7313679 0.4327652 -0.5270818
vn -0.3251674 0.1745072 -0.7601341
vn -0.5704718 0.3098474 0.7606291
vn -0.5515739 0.2944167 0.7798215
vn -0.5515739 0.2944167 0.7798215
vn -0.5326759 0.2789861 0.7990139
vn 0 1 0
vn 0 1 0
vn 0 1 0
vn 0 1 0
vn 0 0.3296463 0.9441045
vn 0 0.3296463 0.9441045
vn 0 0.3296463 0.9441045
vn 0 0.3296463 0.9441045
vn 0 1 0
vn 0 1 0
vn 0 1 0
vn 0 1 0
vn 1 0 0
vn 1 0 0
vn 1 0 0
vn 1 0 0
vn -0.9735909 0.2281999 0.006753027
vn -0.9715827 0.2364931 0.004513659
vn -0.9695744 0.2447864 0.002274291
vn -0.9715827 0.2364931 0.004513659
vn -0.9706132 0.2305948 -0.04951466
vn -0.9716636 0.2163779 -0.09513395
vn -0.9706132 0.2305948 -0.04951466
vn -0.9695628 0.2448118 -0.003895383
vn -0.03244014 0.998509 0.01577482
vn 0.007988824 0.999925 0.009290226
vn -0.03244014 0.998509 0.01577482
vn -0.0728691 0.9970931 0.0222594
vn -0.07862907 0.9967778 -0.01586048
vn -0.08172783 0.9965842 -0.009517839
vn -0.08482659 0.9963907 -0.003175202
vn -0.08172783 0.9965842 -0.009517839
vn 0.2842755 0.9585515 -0.01914309
vn 0.2842767 0.9585512 -0.01914297
vn 0.2842767 0.9585512 -0.01914297
vn 0.2842779 0.9585508 -0.01914286
vn 0 0 1
vn 0 0 1
vn 0 0 1
vn 0 0 1
vn -1 0 0
vn -1 0 0
vn -1 0 0
vn -1 0 0
vn 0 0 -1
vn 0 0 -1
vn 0 0 -1
vn 0 0 -1
vn 1 0 0
vn 1 0 0
vn 1 0 0
vn 1 0 0
vn 0 1 0
vn 0 1 0
vn 0 1 0
vn 0 1 0
vn 0 -1 0
vn 0 -1 0
vn 0 -1 0
vn 0 -1 0
vn 0 0 1
vn 0 0 1
vn 0 0 1
vn 0 0 1
vn -1 0 0
vn -1 0 0
vn -1 0 0
vn -1 0 0
vn 0 0 -1
vn 0 0 -1
vn 0 0 -1
vn 0 0 -1
vn 1 0 0
vn 1 0 0
vn 1 0 0
vn 1 0 0
vn 0 1 0
vn 0 1 0
vn 0 1 0
vn 0 1 0
vn 0 -1 0
vn 0 -1 0
vn 0 -1 0
vn 0 -1 0
vn 0 0 1
vn 0 0 1
vn 0 0 1
vn 0 0 1
vn -1 0 0
vn -1 0 0
vn -1 0 0
vn -1 0 0
vn 0 0 -1
vn 0 0 -1
vn 0 0 -1
vn 0 0 -1
vn 1 0 0
vn 1 0 0
vn 1 0 0
vn 1 0 0
vn 0 1 0
vn 0 1 0
vn 0 1 0
vn 0 1 0
vn 0 -1 0
vn 0 -1 0
vn 0 -1 0
vn 0 -1 0
vn 0 0 1
vn 0 0 1
vn 0 0 1
vn 0 0 1
vn -1 0 0
vn -1 0 0
vn -1 0 0
vn -1 0 0
vn 0 0 -1
vn 0 0 -1
vn 0 0 -1
vn 0 0 -1
vn 1 0 0
vn 1 0 0
vn 1 0 0
vn 1 0 0
vn 0 1 0
vn 0 1 0
vn 0 1 0
vn 0 1 0
vn 0 -1 0
vn 0 -1 0
vn 0 -1 0
vn 0 -1 0
vn 0 0 1
vn 0 0 1
vn 0 0 1
vn 0 0 1
vn 1 0 0
vn 1 0 0
vn 1 0 0
vn 1 0 0
vn 0 0 -1
vn 0 0 -1
vn 0 0 -1
vn 0 0 -1
vn -1 0 0
vn -1 0 0
vn -1 0 0
vn -1 0 0
vn 0 1 0
vn 0 1 0
vn 0 1 0
vn 0 1 0
vn 0 -1 0
vn 0 -1 0
vn 0 -1 0
vn 0 -1 0
vn 0 1 0
vn 0.2199052 0.8915139 -0.2199058
vn 0.2199052 0.8915139 -0.2199058
vn 0.4398105 0.7830278 -0.4398116
vn 0.5527532 0.8333451 0
vn 0.5527532 0.8333451 0
vn 0.5527532 0.8333451 0
vn 0.5527532 0.8333451 0
vn 0.5527532 0.8333451 0
vn 0.5527532 0.8333451 0
vn 0.5527532 0.8333451 0
vn 0.5527532 0.8333451 0
vn 0.5527532 0.8333451 0
vn 0.2763766 0.8314675 0.2791865
vn 0.2763766 0.8314675 0.2791865
vn 0 0.82959 0.558373
vn 0.2307643 0.8141311 -0.5328587
vn 0.230764 0.8141313 -0.5328586
vn 0.230764 0.8141313 -0.5328586
vn 0.2307636 0.8141314 -0.5328586
vn 0 1 0
vn 0.16751 0.9563741 -0.1168891
vn 0.16751 0.9563741 -0.1168891
vn 0.3350201 0.9127482 -0.2337783
vn 0.344568 0.9387614 0
vn 0.172284 0.9387614 0.172284
vn 0.172284 0.9387614 0.172284
vn 0 0.9387614 0.344568
vn 0 0.8295901 0.558373
vn 0 0.8295901 0.558373
vn 0 0.8295901 0.558373
vn 0 0.82959 0.558373
vn -0.2394311 0.7981259 -0.5528724
vn -0.239431 0.7981259 -0.5528724
vn -0.239431 0.7981259 -0.5528724
vn -0.239431 0.7981259 -0.5528725
vn -0.1068363 0.9631857 -0.2466966
vn -0.167084 0.96434 -0.1868726
vn -0.167084 0.96434 -0.1868726
vn -0.2273317 0.9654942 -0.1270485
vn -0.2158277 0.9166361 0.3364471
vn -0.1079139 0.9583181 0.1682235
vn -0.1079139 0.9583181 0.1682235
vn 0 1 0
vn 0 0.8295901 0.558373
vn 0 0.8295901 0.558373
vn 0 0.8295901 0.558373
vn 0 0.82959 0.558373
vn 0 0.8003516 -0.5995311
vn -0.302939 0.7979546 -0.2997655
vn -0.302939 0.7979546 -0.2997655
vn -0.605878 0.7955576 0
vn -0.5376022 0.7878542 -0.3004489
vn -0.5376021 0.7878543 -0.3004491
vn -0.5376021 0.7878543 -0.3004491
vn -0.537602 0.7878543 -0.3004493
vn -0.5188894 0.8041511 0.2899909
vn -0.5188894 0.8041511 0.2899911
vn -0.5188894 0.8041511 0.2899911
vn -0.5188895 0.8041509 0.2899914
vn -0.4465132 0.7754048 0.4465126
vn -0.2232566 0.8877023 0.2232563
vn -0.2232566 0.8877023 0.2232563
vn 0 1 0
g Combined Mesh (root: scene) 48_0
f 3/3/3 4/4/4 1/1/1
f 1/1/1 4/4/4 2/2/2
f 5/5/5 6/6/6 7/7/7
f 6/6/6 8/8/8 7/7/7
f 9/9/9 10/10/10 11/11/11
f 10/10/10 12/12/12 11/11/11
f 13/13/13 14/14/14 15/15/15
f 14/14/14 16/16/16 15/15/15
f 17/17/17 18/18/18 19/19/19
f 18/18/18 20/20/20 19/19/19
f 21/21/21 22/22/22 23/23/23
f 22/22/22 24/24/24 23/23/23
f 28/28/28 26/26/26 25/25/25
f 27/27/27 26/26/26 28/28/28
f 31/31/31 29/29/29 32/32/32
f 31/31/31 30/30/30 29/29/29
f 33/33/33 36/36/36 35/35/35
f 34/34/34 33/33/33 35/35/35
f 40/40/40 39/39/39 38/38/38
f 37/37/37 40/40/40 38/38/38
f 41/41/41 42/42/42 43/43/43
f 42/42/42 44/44/44 43/43/43
g Combined Mesh (root: scene) 48_1
f 47/47/47 46/46/46 45/45/45
f 47/47/47 48/48/48 46/46/46
f 51/51/51 50/50/50 49/49/49
f 51/51/51 52/52/52 50/50/50
f 55/55/55 54/54/54 53/53/53
f 55/55/55 56/56/56 54/54/54
f 59/59/59 58/58/58 57/57/57
f 59/59/59 60/60/60 58/58/58
f 63/63/63 62/62/62 61/61/61
f 63/63/63 64/64/64 62/62/62
f 67/67/67 66/66/66 65/65/65
f 67/67/67 68/68/68 66/66/66
g Combined Mesh (root: scene) 48_2
f 71/71/71 70/70/70 69/69/69
f 71/71/71 72/72/72 70/70/70
f 75/75/75 74/74/74 73/73/73
f 75/75/75 76/76/76 74/74/74
f 79/79/79 78/78/78 77/77/77
f 79/79/79 80/80/80 78/78/78
f 83/83/83 82/82/82 81/81/81
f 83/83/83 84/84/84 82/82/82
f 87/87/87 86/86/86 85/85/85
f 87/87/87 88/88/88 86/86/86
f 91/91/91 90/90/90 89/89/89
f 91/91/91 92/92/92 90/90/90
g Combined Mesh (root: scene) 48_3
f 95/95/95 94/94/94 93/93/93
f 95/95/95 96/96/96 94/94/94
f 99/99/99 98/98/98 97/97/97
f 99/99/99 100/100/100 98/98/98
f 103/103/103 102/102/102 101/101/101
f 103/103/103 104/104/104 102/102/102
f 107/107/107 106/106/106 105/105/105
f 107/107/107 108/108/108 106/106/106
f 111/111/111 110/110/110 109/109/109
f 111/111/111 112/112/112 110/110/110
f 115/115/115 114/114/114 113/113/113
f 115/115/115 116/116/116 114/114/114
g Combined Mesh (root: scene) 48_4
f 119/119/119 118/118/118 117/117/117
f 119/119/119 120/120/120 118/118/118
f 123/123/123 122/122/122 121/121/121
f 123/123/123 124/124/124 122/122/122
f 127/127/127 126/126/126 125/125/125
f 127/127/127 128/128/128 126/126/126
f 131/131/131 130/130/130 129/129/129
f 131/131/131 132/132/132 130/130/130
f 135/135/135 134/134/134 133/133/133
f 135/135/135 136/136/136 134/134/134
f 139/139/139 138/138/138 137/137/137
f 139/139/139 140/140/140 138/138/138
g Combined Mesh (root: scene) 48_5
f 162/162/162 164/164/164 163/163/163
f 161/161/161 162/162/162 163/163/163
f 158/158/158 160/160/160 159/159/159
f 157/157/157 158/158/158 159/159/159
f 154/154/154 156/156/156 155/155/155
f 153/153/153 154/154/154 155/155/155
f 150/150/150 152/152/152 151/151/151
f 149/149/149 150/150/150 151/151/151
f 146/146/146 148/148/148 147/147/147
f 145/145/145 146/146/146 147/147/147
f 142/142/142 144/144/144 143/143/143
f 141/141/141 142/142/142 143/143/143
g Combined Mesh (root: scene) 48_6
f 167/167/167 166/166/166 165/165/165
f 167/167/167 168/168/168 166/166/166
f 171/171/171 170/170/170 169/169/169
f 171/171/171 172/172/172 170/170/170
f 175/175/175 174/174/174 173/173/173
f 175/175/175 176/176/176 174/174/174
f 179/179/179 178/178/178 177/177/177
f 179/179/179 180/180/180 178/178/178
f 183/183/183 182/182/182 181/181/181
f 183/183/183 184/184/184 182/182/182
f 187/187/187 186/186/186 185/185/185
f 187/187/187 188/188/188 186/186/186
f 191/191/191 190/190/190 189/189/189
f 191/191/191 192/192/192 190/190/190
f 195/195/195 194/194/194 193/193/193
f 195/195/195 196/196/196 194/194/194
f 199/199/199 198/198/198 197/197/197
f 199/199/199 200/200/200 198/198/198
f 203/203/203 202/202/202 201/201/201
f 203/203/203 204/204/204 202/202/202
f 207/207/207 206/206/206 205/205/205
f 207/207/207 208/208/208 206/206/206
f 211/211/211 210/210/210 209/209/209
f 211/211/211 212/212/212 210/210/210
f 215/215/215 214/214/214 213/213/213
f 215/215/215 216/216/216 214/214/214
f 219/219/219 218/218/218 217/217/217
f 219/219/219 220/220/220 218/218/218
f 223/223/223 222/222/222 221/221/221
f 223/223/223 224/224/224 222/222/222
f 227/227/227 226/226/226 225/225/225
f 227/227/227 228/228/228 226/226/226
