g Combined Mesh (root: scene) 16
v -11.74999 0.5000017 21
v -11.75 0.5000011 20.25
v -11.74999 1.250002 21
v -11.75 0.7500011 20.25
v -11.75 0.5000011 20.25
v -11.25 0.5000011 20.25
v -11.75 0.7500011 20.25
v -11.25 0.7500011 20.25
v -11.25 0.5000011 20.25
v -11.24999 0.5000017 21
v -11.25 0.7500011 20.25
v -11.24999 1.000002 21
v -11.24999 0.5000017 21
v -11.74999 0.5000017 21
v -11.24999 1.000002 21
v -11.74999 1.250002 21
v -11.74999 1.250002 21
v -11.75 0.7500011 20.25
v -11.24999 1.000002 21
v -11.25 0.7500011 20.25
v -11.24999 0.250002 21.25
v -11.25 8.642673E-07 20
v -11.74999 0.250002 21.25
v -11.75 8.642673E-07 20
v -11.24999 0.250002 21.25
v -11.25 8.642673E-07 20
v -11.74999 0.5000017 21
v -11.24999 0.5000017 21
v -11.74999 0.250002 21.25
v -11.24999 0.250002 21.25
v -11.25 0.5000011 20.25
v -11.75 0.5000011 20.25
v -11.25 8.642673E-07 20
v -11.75 8.642673E-07 20
v -11.75 8.642673E-07 20
v -11.74999 0.250002 21.25
v -11.74998 0.5000048 24.5
v -11.74999 0.5000042 23.75
v -11.74998 1.250005 24.5
v -11.74999 1.250004 23.75
v -11.74999 0.5000042 23.75
v -11.24999 0.5000042 23.75
v -11.74999 1.250004 23.75
v -11.24999 1.250004 23.75
v -11.24999 0.5000042 23.75
v -11.24998 0.5000048 24.5
v -11.24999 1.250004 23.75
v -11.24998 1.250005 24.5
v -11.24998 0.5000048 24.5
v -11.74998 0.5000048 24.5
v -11.24998 1.250005 24.5
v -11.74998 1.250005 24.5
v -11.74998 1.250005 24.5
v -11.74999 1.250004 23.75
v -11.24998 1.250005 24.5
v -11.24999 1.250004 23.75
v -11.24998 0.2500051 24.75
v -11.24999 0.250004 23.5
v -11.74998 0.2500051 24.75
v -11.74999 0.250004 23.5
v -11.24998 0.2500051 24.75
v -11.24999 0.250004 23.5
v -11.74998 0.5000048 24.5
v -11.24998 0.5000048 24.5
v -11.74998 0.2500051 24.75
v -11.24998 0.2500051 24.75
v -11.24999 0.5000042 23.75
v -11.74999 0.5000042 23.75
v -11.24999 0.250004 23.5
v -11.74999 0.250004 23.5
v -11.74999 0.250004 23.5
v -11.74998 0.2500051 24.75
v -11.74999 0.5000033 22.75
v -11.74999 0.5000026 22
v -11.74999 1.250003 22.75
v -11.74999 1.250003 22
v -11.74999 0.5000026 22
v -11.24999 0.5000026 22
v -11.74999 1.250003 22
v -11.24999 1.125003 22
v -11.24999 0.5000026 22
v -11.24999 0.5000033 22.75
v -11.24999 1.125003 22
v -11.24999 1.250003 22.75
v -11.24999 0.5000033 22.75
v -11.74999 0.5000033 22.75
v -11.24999 1.250003 22.75
v -11.74999 1.250003 22.75
v -11.74999 1.250003 22.75
v -11.74999 1.250003 22
v -11.24999 1.250003 22.75
v -11.24999 1.125003 22
v -11.24999 0.2500035 23
v -11.24999 0.2500024 21.75
v -11.74999 0.2500035 23
v -11.74999 0.2500024 21.75
v -11.24999 0.2500035 23
v -11.24999 0.2500024 21.75
v -11.74999 0.5000033 22.75
v -11.24999 0.5000033 22.75
v -11.74999 0.2500035 23
v -11.24999 0.2500035 23
v -11.24999 0.5000026 22
v -11.74999 0.5000026 22
v -11.24999 0.2500024 21.75
v -11.74999 0.2500024 21.75
v -11.74999 0.2500024 21.75
v -11.74999 0.2500035 23
vt 6.25 0
vt 5.5 0
vt 6.25 0.75
vt 5.5 0.25
vt -0.25 0
vt -0.75 0
vt -0.25 0.25
vt -0.75 0.25
vt -5.5 0
vt -6.25 0
vt -5.5 0.25
vt -6.25 0.5
vt 0.75 0
vt 0.25 0
vt 0.75 0.5
vt 0.25 0.75
vt -5.61634 -1.322786
vt -4.714952 -1.322786
vt -5.477664 -1.86433
vt -4.714952 -1.78443
vt 6.324746 -0.75
vt 5.049991 -0.75
vt 6.324746 -0.25
vt 5.049991 -0.25
vt -6.5 -0.25
vt -5.25 -0.5
vt -4.419417 -0.25
vt -4.419417 -0.75
vt -4.772971 -0.25
vt -4.772971 -0.75
vt -0.75 2.459675
vt -0.25 2.459675
vt -0.75 1.900658
vt -0.25 1.900658
vt 5.25 -0.5
vt 6.5 -0.25
vt 6.25 0
vt 5.5 0
vt 6.25 0.75
vt 5.5 0.75
vt -0.25 0
vt -0.75 0
vt -0.25 0.75
vt -0.75 0.75
vt -5.5 0
vt -6.25 0
vt -5.5 0.75
vt -6.25 0.75
vt 0.75 0
vt 0.25 0
vt 0.75 0.75
vt 0.25 0.75
vt -6.25 -0.25
vt -5.5 -0.25
vt -6.25 -0.75
vt -5.5 -0.75
vt 6.5 -0.75
vt 5.25 -0.75
vt 6.5 -0.25
vt 5.25 -0.25
vt -6.5 -0.25
vt -5.25 -0.25
vt -4.419417 -0.25
vt -4.419417 -0.75
vt -4.772971 -0.25
vt -4.772971 -0.75
vt -3.889087 -0.75
vt -3.889087 -0.25
vt -3.535534 -0.75
vt -3.535534 -0.25
vt 5.25 -0.25
vt 6.5 -0.25
vt 6.25 0
vt 5.5 0
vt 6.25 0.75
vt 5.5 0.75
vt -0.25 0
vt -0.75 0
vt -0.25 0.75
vt -0.75 0.625
vt -5.5 0
vt -6.25 0
vt -5.5 0.625
vt -6.25 0.75
vt 0.75 0
vt 0.25 0
vt 0.75 0.75
vt 0.25 0.75
vt -6.25 -0.25
vt -5.5 -0.25
vt -6.25 -0.75
vt -5.5 -0.75
vt 6.5 -0.75
vt 5.25 -0.75
vt 6.5 -0.25
vt 5.25 -0.25
vt -6.5 -0.25
vt -5.25 -0.25
vt -4.419417 -0.25
vt -4.419417 -0.75
vt -4.772971 -0.25
vt -4.772971 -0.75
vt -3.889087 -0.75
vt -3.889087 -0.25
vt -3.535534 -0.75
vt -3.535534 -0.25
vt 5.25 -0.25
vt 6.5 -0.25
vn -1 2.842171E-14 2.920628E-06
vn -1 2.842171E-14 2.920628E-06
vn -1 2.842171E-14 2.920628E-06
vn -1 2.842171E-14 2.920628E-06
vn -2.980232E-06 -8.811464E-07 -1
vn -2.980232E-06 -8.811464E-07 -1
vn -2.980232E-06 -8.811464E-07 -1
vn -2.980232E-06 -8.811464E-07 -1
vn 1 -2.842171E-14 -2.920628E-06
vn 1 -2.842171E-14 -2.920628E-06
vn 1 -2.842171E-14 -2.920628E-06
vn 1 -2.842171E-14 -2.920628E-06
vn 2.980232E-06 8.811464E-07 1
vn 2.980232E-06 8.811464E-07 1
vn 2.980232E-06 8.811464E-07 1
vn 2.980232E-06 8.811464E-07 1
vn 0.3841091 0.7682208 -0.5121493
vn 0.1920541 0.858452 -0.414189
vn 0.1920541 0.858452 -0.414189
vn -9.424347E-07 0.948683 -0.3162286
vn 5.844742E-07 -0.9805805 0.196117
vn 5.844742E-07 -0.9805805 0.196117
vn 5.844742E-07 -0.9805805 0.196117
vn 5.844742E-07 -0.9805805 0.196117
vn 1 -2.842171E-14 -2.920628E-06
vn 1 -2.842171E-14 -2.920628E-06
vn 2.107341E-06 0.7071074 0.7071062
vn 2.107341E-06 0.7071074 0.7071062
vn 2.107341E-06 0.7071074 0.7071062
vn 2.107341E-06 0.7071074 0.7071062
vn -2.665602E-06 0.4472128 -0.8944276
vn -2.665602E-06 0.4472128 -0.8944276
vn -2.665602E-06 0.4472128 -0.8944276
vn -2.665602E-06 0.4472128 -0.8944276
vn -1 2.842171E-14 2.920628E-06
vn -1 2.842171E-14 2.920628E-06
vn -1 2.842171E-14 2.920628E-06
vn -1 2.842171E-14 2.920628E-06
vn -1 2.842171E-14 2.920628E-06
vn -1 2.842171E-14 2.920628E-06
vn -2.980232E-06 -8.811464E-07 -1
vn -2.980232E-06 -8.811464E-07 -1
vn -2.980232E-06 -8.811464E-07 -1
vn -2.980232E-06 -8.811464E-07 -1
vn 1 -2.842171E-14 -2.920628E-06
vn 1 -2.842171E-14 -2.920628E-06
vn 1 -2.842171E-14 -2.920628E-06
vn 1 -2.842171E-14 -2.920628E-06
vn 2.980232E-06 8.811464E-07 1
vn 2.980232E-06 8.811464E-07 1
vn 2.980232E-06 8.811464E-07 1
vn 2.980232E-06 8.811464E-07 1
vn -2.589928E-12 1 -8.811464E-07
vn -2.589928E-12 1 -8.811464E-07
vn -2.589928E-12 1 -8.811464E-07
vn -2.589928E-12 1 -8.811464E-07
vn 2.589928E-12 -1 8.811464E-07
vn 2.589928E-12 -1 8.811464E-07
vn 2.589928E-12 -1 8.811464E-07
vn 2.589928E-12 -1 8.811464E-07
vn 1 -2.842171E-14 -2.920628E-06
vn 1 -2.842171E-14 -2.920628E-06
vn 2.107341E-06 0.7071074 0.7071062
vn 2.107341E-06 0.7071074 0.7071062
vn 2.107341E-06 0.7071074 0.7071062
vn 2.107341E-06 0.7071074 0.7071062
vn -2.107344E-06 0.7071062 -0.7071074
vn -2.107344E-06 0.7071062 -0.7071074
vn -2.107344E-06 0.7071062 -0.7071074
vn -2.107344E-06 0.7071062 -0.7071074
vn -1 2.842171E-14 2.920628E-06
vn -1 2.842171E-14 2.920628E-06
vn -1 2.842171E-14 2.920628E-06
vn -1 2.842171E-14 2.920628E-06
vn -1 2.842171E-14 2.920628E-06
vn -1 2.842171E-14 2.920628E-06
vn -2.980232E-06 -8.811464E-07 -1
vn -2.980232E-06 -8.811464E-07 -1
vn -2.980232E-06 -8.811464E-07 -1
vn -2.980232E-06 -8.811464E-07 -1
vn 1 -2.842171E-14 -2.920628E-06
vn 1 -2.842171E-14 -2.920628E-06
vn 1 -2.842171E-14 -2.920628E-06
vn 1 -2.842171E-14 -2.920628E-06
vn 2.980232E-06 8.811464E-07 1
vn 2.980232E-06 8.811464E-07 1
vn 2.980232E-06 8.811464E-07 1
vn 2.980232E-06 8.811464E-07 1
vn -2.589928E-12 1 -8.811464E-07
vn 0.1197128 0.9788521 -0.0798099
vn 0.1197128 0.9788521 -0.0798099
vn 0.2394256 0.9577041 -0.1596189
vn 2.589928E-12 -1 8.811464E-07
vn 2.589928E-12 -1 8.811464E-07
vn 2.589928E-12 -1 8.811464E-07
vn 2.589928E-12 -1 8.811464E-07
vn 1 -2.842171E-14 -2.920628E-06
vn 1 -2.842171E-14 -2.920628E-06
vn 2.107341E-06 0.7071074 0.7071062
vn 2.107341E-06 0.7071074 0.7071062
vn 2.107341E-06 0.7071074 0.7071062
vn 2.107341E-06 0.7071074 0.7071062
vn -2.107344E-06 0.7071062 -0.7071074
vn -2.107344E-06 0.7071062 -0.7071074
vn -2.107344E-06 0.7071062 -0.7071074
vn -2.107344E-06 0.7071062 -0.7071074
vn -1 2.842171E-14 2.920628E-06
vn -1 2.842171E-14 2.920628E-06
g Combined Mesh (root: scene) 16_0
g Combined Mesh (root: scene) 16_1
f 3/3/3 2/2/2 1/1/1
f 3/3/3 4/4/4 2/2/2
f 7/7/7 6/6/6 5/5/5
f 7/7/7 8/8/8 6/6/6
f 11/11/11 10/10/10 9/9/9
f 11/11/11 12/12/12 10/10/10
f 15/15/15 14/14/14 13/13/13
f 15/15/15 16/16/16 14/14/14
f 19/19/19 18/18/18 17/17/17
f 19/19/19 20/20/20 18/18/18
f 23/23/23 22/22/22 21/21/21
f 23/23/23 24/24/24 22/22/22
f 25/25/25 9/9/9 10/10/10
f 25/25/25 26/26/26 9/9/9
f 29/29/29 28/28/28 27/27/27
f 29/29/29 30/30/30 28/28/28
f 33/33/33 32/32/32 31/31/31
f 33/33/33 34/34/34 32/32/32
f 35/35/35 1/1/1 2/2/2
f 35/35/35 36/36/36 1/1/1
g Combined Mesh (root: scene) 16_2
g Combined Mesh (root: scene) 16_3
f 39/39/39 38/38/38 37/37/37
f 39/39/39 40/40/40 38/38/38
f 43/43/43 42/42/42 41/41/41
f 43/43/43 44/44/44 42/42/42
f 47/47/47 46/46/46 45/45/45
f 47/47/47 48/48/48 46/46/46
f 51/51/51 50/50/50 49/49/49
f 51/51/51 52/52/52 50/50/50
f 55/55/55 54/54/54 53/53/53
f 55/55/55 56/56/56 54/54/54
f 59/59/59 58/58/58 57/57/57
f 59/59/59 60/60/60 58/58/58
f 61/61/61 45/45/45 46/46/46
f 61/61/61 62/62/62 45/45/45
f 65/65/65 64/64/64 63/63/63
f 65/65/65 66/66/66 64/64/64
f 69/69/69 68/68/68 67/67/67
f 69/69/69 70/70/70 68/68/68
f 71/71/71 37/37/37 38/38/38
f 71/71/71 72/72/72 37/37/37
g Combined Mesh (root: scene) 16_4
g Combined Mesh (root: scene) 16_5
f 75/75/75 74/74/74 73/73/73
f 75/75/75 76/76/76 74/74/74
f 79/79/79 78/78/78 77/77/77
f 79/79/79 80/80/80 78/78/78
f 83/83/83 82/82/82 81/81/81
f 83/83/83 84/84/84 82/82/82
f 87/87/87 86/86/86 85/85/85
f 87/87/87 88/88/88 86/86/86
f 91/91/91 90/90/90 89/89/89
f 91/91/91 92/92/92 90/90/90
f 95/95/95 94/94/94 93/93/93
f 95/95/95 96/96/96 94/94/94
f 97/97/97 81/81/81 82/82/82
f 97/97/97 98/98/98 81/81/81
f 101/101/101 100/100/100 99/99/99
f 101/101/101 102/102/102 100/100/100
f 105/105/105 104/104/104 103/103/103
f 105/105/105 106/106/106 104/104/104
f 107/107/107 73/73/73 74/74/74
f 107/107/107 108/108/108 73/73/73
