g Combined Mesh (root: scene) 3
v -1 -8 -56
v -1 -8 -66
v 4 -8 -56
v 9 -8 -66
v 5 -8 -56
v 9 -8 -56
v -1 17 -56
v 9 0 -56
v 9 17 -56
v -1 0 -56
v -1 17 -66
v -1 0 -56
v -1 17 -56
v -1 0 -66
v -1 0 -66
v -1 17 -66
v 9 0 -66
v 9 17 -66
v 9 0 -66
v 9 17 -66
v 9 0 -56
v 9 17 -56
v -1 -4 -66
v -1 -8 -56
v -1 -4 -56
v -1 -8 -66
v -1 -8 -66
v -1 -4 -66
v 9 -8 -66
v 9 -4 -66
v 9 -8 -66
v 9 -4 -66
v 9 -8 -56
v -1 -4 -56
v 3 -6 -56
v 3 0 -56
v -1 0 -56
v -1 -8 -56
v 3 -8 -56
v 9 -8 -55
v 9 0 -55
v 5 -8 -55
v 4 -8 -55
v 25.75 -7.5 3.25
v 24.75 -7.5 3.25
v 25.75 -3.5 3.25
v 24.75 -3.5 3.25
v 24.75 -7.5 3.25
v 24.75 -7.5 2.25
v 24.75 -3.5 3.25
v 24.75 -3.5 2.25
v 24.75 -7.5 2.25
v 25.75 -7.5 2.25
v 24.75 -3.5 2.25
v 25.75 -3.5 2.25
v 25.75 -7.5 2.25
v 25.75 -7.5 3.25
v 25.75 -3.5 2.25
v 25.75 -3.5 3.25
v 25.75 -3.5 3.25
v 24.75 -3.5 3.25
v 25.75 -3.5 2.25
v 24.75 -3.5 2.25
v 25.75 -7.5 2.25
v 24.75 -7.5 2.25
v 25.75 -7.5 3.25
v 24.75 -7.5 3.25
v 24.5 -6.75 -0.750003
v 24.5 -6.75 -1.750004
v 24.5 -5.75 -0.750003
v 24.5 -5.75 -1.750004
v 24.5 -6.75 -1.750004
v 22.99999 -6.75 -1.749995
v 24.5 -5.75 -1.750004
v 22.99999 -5.75 -1.749995
v 22.99999 -6.75 -1.749995
v 23 -6.75 -0.7499939
v 22.99999 -5.75 -1.749995
v 23 -5.75 -0.7499939
v 23.00001 -6.75 0.2500095
v 24.50001 -6.75 0.2499978
v 23.00001 -5.75 0.2500095
v 24.50001 -5.75 0.2499978
v 24.5 -1.75 -0.750003
v 24.5 -1.75 -1.750004
v 23 -1.75 -0.7499911
v 22.99999 -1.75 -1.749995
v 23 -6.75 -0.7499911
v 22.99999 -6.75 -1.749995
v 24.5 -6.75 -0.750003
v 24.5 -6.75 -1.750004
v 23 -6.75 -0.7499911
v 23 -6.75 -0.7499939
v 22.99999 -6.75 -1.749995
v 23 -6.75 -0.7499911
v 23 -5.75 -0.7499911
v 23 -6.75 -0.7499939
v 23 -5.75 -0.7499911
v 23 -5.75 -0.7499939
v 23 -6.75 -0.7499939
v 23 -3.75 -0.7499911
v 23 -3.75 -1.749998
v 23 -3.75 -0.7499939
v 23.00001 -6.75 0.2500095
v 24.50001 -6.75 0.2499978
v 23 -5.75 -0.7499911
v 23 -6.75 -0.7499911
v 23.00001 -5.75 0.2500095
v 23.00001 -6.75 0.2500095
v 24.50001 -6.75 0.2499978
v 24.50001 -5.75 0.2499978
v 24.5 -4.75 -0.750003
v 23 -4.75 -0.7499911
v 24.50001 -4.75 0.2499978
v 23.00001 -4.75 0.2500095
v 24.49999 -5.75 -2.750004
v 22.99999 -6.75 -2.749995
v 24.5 -3.75 -2.750001
v 23 -3.75 -2.750001
v 24.50001 -4.75 0.2499978
v 24.5 -4.75 -0.750003
v 23 -4.75 -0.7499911
v 23.00001 -4.75 0.2500095
v 23.00001 -4.75 0.2500095
v 24.50001 -4.75 0.2499978
v 24.5 -3.75 -1.750002
v 23 -5.75 -0.7499939
v 23 -5.75 -0.7499911
v 23 -4.75 -0.7499939
v 23 -5.75 -0.7499911
v 23 -4.75 -0.7499911
v 23 -4.75 -0.7499939
v 22.99999 -5.75 -1.749995
v 23 -5.75 -0.7499939
v 23 -3.75 -1.749998
v 23 -4.75 -0.7499939
v 23 -4.75 -0.7499939
v 23 -4.75 -0.7499911
v 23 -3.75 -0.7499939
v 23 -4.75 -0.7499911
v 23 -3.75 -0.7499911
v 23 -3.75 -0.7499939
v 23 -4.75 -0.7499939
v 23 -3.75 -0.7499939
v 23 -3.75 -1.749998
v 24.5 -3.75 -0.750003
v 23 -4.75 -0.7499911
v 24.5 -4.75 -0.750003
v 23 -3.75 -0.7499911
v 24.5 -3.75 -0.750003
v 24.5 -1.75 -0.750003
v 24.5 -1.75 -1.750004
v 23 -1.75 -0.7499911
v 24.5 -1.75 -0.750003
v 24.5 -3.75 -1.750002
v 23 -3.75 -1.749998
v 24.5 -1.75 -1.750004
v 22.99999 -1.75 -1.749995
v 23 -3.75 -0.7499911
v 22.99999 -1.75 -1.749995
v 23 -1.75 -0.7499911
v 22.99999 -5.75 -1.749995
v 22.99999 -6.75 -1.749995
v 24.5 -5.75 -1.750004
v 23 -3.75 -1.749998
v 24.5 -3.75 -1.750002
v 23 -3.75 -2.750001
v 24.5 -3.75 -2.750001
v 22.99999 -6.75 -1.749995
v 23 -3.75 -1.749998
v 22.99999 -6.75 -2.749995
v 23 -3.75 -2.750001
v 24.5 -5.75 -1.750004
v 22.99999 -6.75 -1.749995
v 24.49999 -5.75 -2.750004
v 22.99999 -6.75 -2.749995
v 24.5 -3.75 -1.750002
v 24.5 -3.75 -2.750001
v 24.49999 -5.75 -2.750004
v 28.75 -6 2.5
v 27.75 -6 2.5
v 28.75 -5 2.5
v 27.75 -5 2.5
v 27.75 -6 2.5
v 27.75 -6 1.5
v 27.75 -5 2.5
v 27.75 -5 1.5
v 27.75 -6 1.5
v 28.75 -6 1.5
v 27.75 -5 1.5
v 28.75 -5.25 1.5
v 31.75 -6 1.5
v 31.75 -6 2.5
v 31.75 -5 1.5
v 31.75 -5 2.5
v 28.75 -4 2.5
v 27.75 -4 2.5
v 28.75 -4 1.5
v 27.75 -4 1.5
v 28.75 -6 1.5
v 27.75 -6 1.5
v 28.75 -6 2.5
v 27.75 -6 2.5
v 29.75 -6 1.5
v 29.75 -6 2.5
v 28.75 -5.25 0.5
v 28.75 -6 0.5
v 29.75 -5.25 0.5
v 29.75 -6 0.5
v 29.75 -6 2.5
v 29.75 -5 2.5
v 30.75 -6 1.5
v 30.75 -6 2.5
v 30.75 -5 0.5
v 30.75 -6 0.5
v 30.75 -6 2.5
v 30.75 -5 2.5
v 31.75 -6 1.5
v 31.75 -6 2.5
v 30.75 -5 1.5
v 30.75 -6 1.5
v 31.75 -5 1.5
v 31.75 -6 1.5
v 31.75 -6 2.5
v 31.75 -5 2.5
v 30.75 -4 2.5
v 30.75 -4 1.5
v 31.75 -4 2.5
v 31.75 -4 1.5
v 30.75 -1.75 1.5
v 29.75 -1.75 1.5
v 30.75 -1.75 0.5
v 29.75 -1.75 0.5
v 29.75 -6 0.5
v 30.75 -6 0.5
v 30.75 -6 1.5
v 30.75 -5 1.5
v 30.75 -6 0.5
v 30.75 -5 0.5
v 28.75 -5.25 1.5
v 28.75 -6 1.5
v 28.75 -5.25 0.5
v 28.75 -6 0.5
v 29.75 -5.25 1.5
v 28.75 -5.25 1.5
v 29.75 -5.25 0.5
v 28.75 -5.25 0.5
v 28.75 -6 0.5
v 27.75 -4 2.5
v 27.75 -4 1.5
v 31.75 -4 2.5
v 30.75 -4 2.5
v 30.75 -4 1.5
v 31.75 -4 1.5
v 31.75 -4 1.5
v 31.75 -4 2.5
v 28.75 -4 2.5
v 27.75 -4 2.5
v 29.75 -4 2.5
v 30.75 -4 0.5
v 30.75 -4 1.5
v 29.75 -5.25 1.5
v 28.75 -4 1.5
v 29.75 -4 1.5
v 27.75 -4 1.5
v 29.75 -5.25 1.5
v 29.75 -5.25 0.5
v 29.75 -4 1.5
v 29.75 -4 0.5
v 29.75 -4 0.5
v 30.75 -4 0.5
v 30.75 -4 2.5
v 30.75 -1.75 1.5
v 30.75 -1.75 2.5
v 30.75 -1.75 0.5
v 29.75 -1.75 1.5
v 29.75 -1.75 0.5
v 29.75 -1.75 0.5
v 30.75 -1.75 0.5
v 30.75 -1.75 2.5
v 29.75 -1.75 2.5
v 28.75 -4 2.5
v 28.75 -4 1.5
v 28.75 -1.75 2.5
v 28.75 -1.75 1.5
v 28.75 -1.75 2.5
v 28.75 -1.75 1.5
v 29.75 -1.75 1.5
v 30.75 -0.5 2.5
v 29.75 -0.5 2.5
v 30.75 -1.75 1.5
v 29.75 -0.5 1.5
v 30.75 -0.5 1.5
v 30.75 -0.5 1.5
v 30.75 -0.5 2.5
v 28.75 -0.5 2.5
v 28.75 -0.5 1.5
v 28.75 -0.5 2.5
v 28.75 -0.5 1.5
v 28.75 -0.5 2.5
v 28.75 -0.5 1.5
v 29.75 -0.5 2.5
v 29.75 -0.5 1.5
v 30.75 -0.5 2.5
v 30.75 -0.5 1.5
v 71 -8.5 -19.25
v 70 -8.5 -17
v 69.5 -8.5 -20.5
v 67 -8.5 -17
v 72 -8.5 -17.5
v 72 -8.5 -15
v 70 -8.5 -16
v 71.5 -8.5 -14.5
v 69.5 -8.5 -15.5
v 66 -8.5 -19
v 67.75 -8.5 -20.5
vt 6 6
vt 6 -4
vt 1 6
vt -4 -4
vt 0 6
vt -4 6
vt 6 25
vt -4 8
vt -4 25
vt 6 8
vt 4 25
vt -6 8
vt -6 25
vt 4 8
vt -6 8
vt -6 25
vt 4 8
vt 4 25
vt -4 8
vt -4 25
vt 6 8
vt 6 25
vt 4 4
vt -6 0
vt -6 4
vt 4 0
vt -6 0
vt -6 4
vt 4 0
vt 4 4
vt -4 0
vt -4 4
vt 6 0
vt 6 4
vt 2 2
vt 2 8
vt 6 8
vt 6 0
vt 2 0
vt 7 0
vt 7 8
vt 0 7
vt 1 7
vt 0.25 0
vt -0.75 0
vt 0.25 4
vt -0.75 4
vt 0 0
vt -1 0
vt 0 4
vt -1 4
vt 0.75 0
vt -0.25 0
vt 0.75 4
vt -0.25 4
vt 1 0
vt 0 0
vt 1 4
vt 0 4
vt -0.25 0
vt 0.75 0
vt -0.25 -1
vt 0.75 -1
vt 0.25 -1
vt -0.75 -1
vt 0.25 0
vt -0.75 0
vt 4.469918E-08 0
vt -1 0
vt 4.469918E-08 1
vt -1 1
vt 0.5000015 0
vt -0.999999 0
vt 0.5000015 1
vt -0.999999 1
vt 0.9999998 0
vt -3.576251E-07 0
vt 0.9999998 1
vt -3.576251E-07 1
vt 0.9999989 0
vt -0.4999997 0
vt 0.9999989 1
vt -0.4999997 1
vt -1.505017E-06 0.5000015
vt 0.9999986 0.5000045
vt 0 -1
vt 1.000003 -0.9999957
vt 0 -1
vt -1.000003 -0.9999961
vt 1.505017E-06 0.5000015
vt -0.9999986 0.5000045
vt 0 0
vt 0 0
vt 0 0
vt 0 0
vt 0 0
vt 0 0
vt 0 0
vt 0 0
vt 0 0
vt 0 0
vt 0 0
vt 0 0
vt 1 -1
vt 1.000002 0.4999986
vt 0 1
vt 0 0
vt -1 1
vt -1 0
vt 1 0
vt 1 1
vt -1.505017E-06 0.5000015
vt 0 -1
vt -1.000002 0.4999986
vt -1 -1
vt 0.5000035 0.999997
vt -0.999997 -2.980217E-06
vt 0.5000122 2.999997
vt -0.9999879 2.999997
vt 1 2
vt 4.469918E-08 2
vt 0 2
vt -1 2
vt 0.9999989 2
vt -0.4999997 2
vt -0.9999986 3
vt 0 0
vt 0 0
vt 0 0
vt 0 0
vt 0 0
vt 0 0
vt 0.9999998 0.9999992
vt -3.576251E-07 0.9999992
vt 1.000003 2.999999
vt -3.576251E-07 1.999999
vt 0 0
vt 0 0
vt 0 0
vt 0 0
vt 0 0
vt 0 0
vt -1.907331E-06 2
vt -1.907331E-06 3
vt 1.000001 3
vt -6.407595E-07 3
vt 1 2
vt -0.5000015 2
vt 1 3
vt -0.5000015 3
vt -6.407595E-07 5
vt -1.000001 5
vt 1 5
vt -0.5000015 5
vt 0.5 3.000001
vt -1 3.000001
vt 0.4999986 5.000001
vt -1.000002 5.000001
vt -5.483595E-06 3
vt 0.9999975 5
vt -5.483595E-06 5
vt 0.999999 1
vt 0.999999 0
vt -0.5000015 1
vt 1.000006 -0.9999945
vt 0.9999971 0.5000058
vt 2.000009 -0.999984
vt 1.999996 0.5000161
vt 1 -5.165701E-07
vt 1.000003 3
vt 2 -5.165701E-07
vt 2.000006 3
vt -0.9999967 0.9707301
vt -1.000003 -0.832046
vt -1.999997 0.9707336
vt -2.000003 -0.8320425
vt -1.000002 3
vt -2.000001 3
vt -2.000004 1
vt 0 0
vt -1 0
vt 0 1
vt -1 1
vt 0 0
vt -1 0
vt 0 1
vt -1 1
vt 1 0
vt 0 0
vt 1 1
vt 0 0.75
vt 1 0
vt 0 0
vt 1 1
vt 0 1
vt 0 0
vt 1 0
vt 0 -1
vt 1 -1
vt 0 -1
vt -1 -1
vt 0 0
vt -1 0
vt 1 -1
vt 1 0
vt 0 0.75
vt 0 0
vt -1 0.75
vt -1 0
vt 1 0
vt 1 1
vt 2 -1
vt 2 0
vt -2 1
vt -2 0
vt 2 0
vt 2 1
vt 3 -1
vt 3 0
vt -2 1
vt -2 0
vt -3 1
vt -3 0
vt 3 0
vt 3 1
vt -2 0
vt -2 -1
vt -3 0
vt -3 -1
vt -2 -1
vt -1 -1
vt -2 -2
vt -1 -2
vt 1 -2
vt 2 -2
vt 1 0
vt 1 1
vt 2 0
vt 2 1
vt -1 0.75
vt -1 0
vt -2 0.75
vt -2 0
vt -1 -1
vt 0 -1
vt -1 -2
vt 0 -2
vt 0 -2
vt 0 2
vt -1 2
vt 3 2
vt 2 2
vt -2 2
vt -3 2
vt 1 2
vt 0 2
vt 0 2
vt -1 2
vt 1 2
vt 2 2
vt 1 2
vt -1 0.75
vt 0 2
vt -1 2
vt 1 2
vt -1 0.75
vt -2 0.75
vt -1 2
vt -2 2
vt -1 2
vt -2 2
vt 0 2
vt 1 4.25
vt 0 4.25
vt 2 4.25
vt -1 4.25
vt -2 4.25
vt -1 4.25
vt -2 4.25
vt 2 4.25
vt 1 4.25
vt 0 2
vt -1 2
vt 0 4.25
vt -1 4.25
vt 0 4.25
vt 0 4.25
vt -1 4.25
vt 2 5.5
vt 1 5.5
vt -2 4.25
vt -1 5.5
vt -2 5.5
vt 1 5.5
vt 0 5.5
vt 0 5.5
vt -1 5.5
vt 0 5.5
vt 0 5.5
vt 0 0
vt 0 -1
vt -1 0
vt -1 -1
vt -2 0
vt -2 -1
vt -3 0
vt -2 2.25
vt -1.5 -1.25
vt 1 2.25
vt -4 1.75
vt -4 4.25
vt -2 3.25
vt -3.5 4.75
vt -1.5 3.75
vt 2 0.25
vt 0.25 -1.25
vn 0 1 0
vn 0 1 0
vn 0 1 0
vn 0 1 0
vn 0 1 0
vn 0 1 0
vn 0 0 -1
vn 0 0 -1
vn 0 0 -1
vn 0 0 -1
vn 1 0 0
vn 1 0 0
vn 1 0 0
vn 1 0 0
vn 0 0 1
vn 0 0 1
vn 0 0 1
vn 0 0 1
vn -1 0 0
vn -1 0 0
vn -1 0 0
vn -1 0 0
vn 1 0 0
vn 1 0 0
vn 1 0 0
vn 1 0 0
vn 0 0 1
vn 0 0 1
vn 0 0 1
vn 0 0 1
vn -1 0 0
vn -1 0 0
vn -1 0 0
vn 0 0 -1
vn 0 0 -1
vn 0 0 -1
vn 0 0 -1
vn 0 0 -1
vn 0 0 -1
vn -1 0 0
vn -1 0 0
vn 0 1 0
vn 0 1 0
vn 0 0 1
vn 0 0 1
vn 0 0 1
vn 0 0 1
vn -1 0 0
vn -1 0 0
vn -1 0 0
vn -1 0 0
vn 0 0 -1
vn 0 0 -1
vn 0 0 -1
vn 0 0 -1
vn 1 0 0
vn 1 0 0
vn 1 0 0
vn 1 0 0
vn 0 1 0
vn 0 1 0
vn 0 1 0
vn 0 1 0
vn 0 -1 0
vn 0 -1 0
vn 0 -1 0
vn 0 -1 0
vn 1.000001 0 -6.020072E-06
vn 1.000001 0 -6.020072E-06
vn 1.000001 0 -6.020072E-06
vn 1.000001 0 -6.020072E-06
vn -6.039941E-06 0 -1.000001
vn -6.039941E-06 0 -1.000001
vn -6.039941E-06 0 -1.000001
vn -6.039941E-06 0 -1.000001
vn -1.000001 0 5.722049E-06
vn -1.000001 0 5.722049E-06
vn -1.000001 0 5.722049E-06
vn -1.000001 0 5.722049E-06
vn 7.828079E-06 0 1.000001
vn 7.828079E-06 0 1.000001
vn 7.828079E-06 0 1.000001
vn 7.828079E-06 0 1.000001
vn 0 1 0
vn 0 1 0
vn 0 1 0
vn 0 1 0
vn 0 -1 0
vn 0 -1 0
vn 0 -1 0
vn 0 -1 0
vn 0 0 0
vn 0 0 0
vn 0 0 0
vn 0 0 0
vn 0 0 0
vn 0 0 0
vn 0 0 0
vn 0 0 0
vn 0 0 0
vn 0 0 0
vn 0 0 0
vn 0 0 0
vn 0 -1 0
vn 0 -1 0
vn -1.000001 0 8.940701E-06
vn -1.000001 0 8.940701E-06
vn -1.000001 0 8.940701E-06
vn -1.000001 0 8.940701E-06
vn 1.000001 0 -6.020072E-06
vn 1.000001 0 -6.020072E-06
vn 0 1 0
vn 0 1 0
vn 0 1 0
vn 0 1 0
vn -6.99361E-06 1.490108E-06 -1.000001
vn -3.516674E-06 -2.483704E-07 -1.000001
vn -3.516674E-06 -2.483704E-07 -1.000001
vn -3.973673E-08 -1.986848E-06 -1.000001
vn 1.000001 0 -6.020072E-06
vn 1.000001 0 -6.020072E-06
vn -1.000001 0 8.940701E-06
vn -1.000001 0 8.940701E-06
vn 7.828079E-06 0 1.000001
vn 7.828079E-06 0 1.000001
vn 1.000001 -6.854561E-07 -5.334616E-06
vn 0 0 0
vn 0 0 0
vn 0 0 0
vn 0 0 0
vn 0 0 0
vn 0 0 0
vn -1.000001 7.748556E-07 5.722049E-06
vn -1.000001 3.874278E-07 4.947195E-06
vn -1.000001 3.874278E-07 4.947195E-06
vn -1.000001 0 4.172342E-06
vn 0 0 0
vn 0 0 0
vn 0 0 0
vn 0 0 0
vn 0 0 0
vn 0 0 0
vn -1.000001 0 4.172342E-06
vn -1.000001 0 4.172342E-06
vn -1.000001 0 4.172342E-06
vn 1.000001 0 -4.649158E-06
vn 7.937357E-06 0 1.000001
vn 7.937357E-06 0 1.000001
vn 7.937357E-06 0 1.000001
vn 7.937357E-06 0 1.000001
vn 1.000001 3.427278E-07 -5.334616E-06
vn 1.000001 6.854556E-07 -6.020072E-06
vn 7.937357E-06 0 1.000001
vn 7.937357E-06 0 1.000001
vn -3.059708E-06 -7.45054E-07 -1.000001
vn -4.549824E-06 3.725319E-07 -1.000001
vn -4.549824E-06 3.725319E-07 -1.000001
vn -6.039941E-06 1.490118E-06 -1.000001
vn -1.000001 -2.980192E-07 4.05314E-06
vn -1.000001 -2.980192E-07 4.05314E-06
vn -1.000001 0 4.649177E-06
vn 6.039941E-06 0 1.000001
vn 6.039941E-06 0 1.000001
vn 6.039941E-06 0 1.000001
vn 0 1 0
vn 0 1 0
vn 0 1 0
vn 0 1 0
vn -1.000001 5.165707E-07 5.960468E-06
vn -1.000001 1.768259E-06 2.205389E-06
vn -1.000001 1.768259E-06 2.205389E-06
vn -1.000001 3.019948E-06 -1.54969E-06
vn 0.5547004 -0.8320504 -3.339334E-06
vn 0.5547004 -0.8320504 -3.322803E-06
vn 0.5547004 -0.8320504 -3.322803E-06
vn 0.5547004 -0.8320504 -3.306272E-06
vn 1.000001 -6.85461E-07 1.311319E-06
vn 1.000001 -2.518302E-06 -2.354377E-06
vn 1.000001 -4.351143E-06 -6.020072E-06
vn 0 0 1
vn 0 0 1
vn 0 0 1
vn 0 0 1
vn -1 0 0
vn -1 0 0
vn -1 0 0
vn -1 0 0
vn 0 0 -1
vn 0 0 -1
vn 0 0 -1
vn 0 0 -1
vn 1 0 0
vn 1 0 0
vn 1 0 0
vn 1 0 0
vn 0 1 0
vn 0 1 0
vn 0 1 0
vn 0 1 0
vn 0 -1 0
vn 0 -1 0
vn 0 -1 0
vn 0 -1 0
vn 0 -1 0
vn 0 -1 0
vn 0 0 -1
vn 0 0 -1
vn 0 0 -1
vn 0 0 -1
vn 0 0 1
vn 0 0 1
vn 0 -1 0
vn 0 -1 0
vn 0 0 -1
vn 0 0 -1
vn 0 0 1
vn 0 0 1
vn 0 -1 0
vn 0 -1 0
vn 0 0 -1
vn 0 0 -1
vn 0 0 -1
vn 0 0 -1
vn 0 0 1
vn 0 0 1
vn 0 1 0
vn 0 1 0
vn 0 1 0
vn 0 1 0
vn 0 1 0
vn 0 1 0
vn 0 1 0
vn 0 1 0
vn 0 -1 0
vn 0 -1 0
vn 1 0 0
vn 1 0 0
vn 1 0 0
vn 1 0 0
vn -1 0 0
vn -1 0 0
vn -1 0 0
vn -1 0 0
vn 0 1 0
vn 0 1 0
vn 0 1 0
vn 0 1 0
vn 0 -1 0
vn -1 0 0
vn -1 0 0
vn 0 0 1
vn 0 0 1
vn 0 0 -1
vn 0 0 -1
vn 1 0 0
vn 1 0 0
vn 0 0 1
vn 0 0 1
vn 0 0 1
vn 1 0 0
vn 1 0 0
vn 0 0 -1
vn 0 0 -1
vn 0 0 -1
vn 0 0 -1
vn -1 0 0
vn -1 0 0
vn -1 0 0
vn -1 0 0
vn 0 0 -1
vn 0 0 -1
vn 1 0 0
vn 1 0 0
vn 1 0 0
vn 1 0 0
vn -1 0 0
vn -1 0 0
vn 0 0 -1
vn 0 0 -1
vn 0 0 1
vn 0 0 1
vn -1 0 0
vn -1 0 0
vn -1 0 0
vn -1 0 0
vn 0 0 1
vn 0 0 -1
vn 0 0 -1
vn 0 0 1
vn 0 0 1
vn 0 0 -1
vn 0 0 -1
vn 0 0 -1
vn 1 0 0
vn 1 0 0
vn -1 0 0
vn -1 0 0
vn 0 0 1
vn 0 0 -1
vn 0 1 0
vn 0 1 0
vn 0 1 0
vn 0 1 0
vn 0 1 0
vn 0 1 0
vn 0 1 0
vn 0 1 0
vn 0 1 0
vn 0 1 0
vn 0 1 0
vn 0 1 0
vn 0 1 0
vn 0 1 0
vn 0 1 0
vn 0 1 0
vn 0 1 0
g Combined Mesh (root: scene) 3_0
f 3/3/3 2/2/2 1/1/1
f 2/2/2 3/3/3 4/4/4
f 4/4/4 3/3/3 5/5/5
f 5/5/5 6/6/6 4/4/4
f 9/9/9 8/8/8 7/7/7
f 10/10/10 7/7/7 8/8/8
f 13/13/13 12/12/12 11/11/11
f 14/14/14 11/11/11 12/12/12
f 17/17/17 16/16/16 15/15/15
f 16/16/16 17/17/17 18/18/18
f 21/21/21 20/20/20 19/19/19
f 20/20/20 21/21/21 22/22/22
f 25/25/25 24/24/24 23/23/23
f 26/26/26 23/23/23 24/24/24
f 12/12/12 25/25/25 14/14/14
f 23/23/23 14/14/14 25/25/25
f 29/29/29 28/28/28 27/27/27
f 28/28/28 29/29/29 30/30/30
f 30/30/30 15/15/15 28/28/28
f 15/15/15 30/30/30 17/17/17
f 33/33/33 32/32/32 31/31/31
f 32/32/32 33/33/33 21/21/21
f 21/21/21 19/19/19 32/32/32
f 36/36/36 35/35/35 34/34/34
f 34/34/34 37/37/37 36/36/36
f 35/35/35 39/39/39 38/38/38
f 38/38/38 34/34/34 35/35/35
f 40/40/40 21/21/21 33/33/33
f 40/40/40 41/41/41 21/21/21
f 5/5/5 3/3/3 42/42/42
f 3/3/3 43/43/43 42/42/42
g Combined Mesh (root: scene) 3_1
f 46/46/46 45/45/45 44/44/44
f 46/46/46 47/47/47 45/45/45
f 50/50/50 49/49/49 48/48/48
f 50/50/50 51/51/51 49/49/49
f 54/54/54 53/53/53 52/52/52
f 54/54/54 55/55/55 53/53/53
f 58/58/58 57/57/57 56/56/56
f 58/58/58 59/59/59 57/57/57
f 62/62/62 61/61/61 60/60/60
f 62/62/62 63/63/63 61/61/61
f 66/66/66 65/65/65 64/64/64
f 66/66/66 67/67/67 65/65/65
g Combined Mesh (root: scene) 3_2
f 71/71/71 179/179/179 178/178/178
f 177/177/177 71/71/71 178/178/178
f 174/174/174 176/176/176 175/175/175
f 173/173/173 174/174/174 175/175/175
f 170/170/170 172/172/172 171/171/171
f 169/169/169 170/170/170 171/171/171
f 166/166/166 168/168/168 167/167/167
f 165/165/165 166/166/166 167/167/167
f 162/162/162 163/163/163 164/164/164
f 159/159/159 161/161/161 160/160/160
f 145/145/145 159/159/159 160/160/160
f 156/156/156 158/158/158 157/157/157
f 155/155/155 156/156/156 157/157/157
f 150/150/150 154/154/154 153/153/153
f 149/149/149 150/150/150 153/153/153
f 126/126/126 152/152/152 151/151/151
f 146/146/146 126/126/126 151/151/151
f 148/148/148 150/150/150 149/149/149
f 147/147/147 148/148/148 149/149/149
f 121/121/121 126/126/126 146/146/146
f 143/143/143 144/144/144 145/145/145
f 140/140/140 141/141/141 142/142/142
f 137/137/137 138/138/138 139/139/139
f 134/134/134 136/136/136 135/135/135
f 133/133/133 134/134/134 135/135/135
f 130/130/130 131/131/131 132/132/132
f 127/127/127 128/128/128 129/129/129
f 71/71/71 126/126/126 121/121/121
f 70/70/70 71/71/71 121/121/121
f 83/83/83 125/125/125 124/124/124
f 82/82/82 83/83/83 124/124/124
f 108/108/108 123/123/123 122/122/122
f 106/106/106 108/108/108 122/122/122
f 70/70/70 121/121/121 120/120/120
f 111/111/111 70/70/70 120/120/120
f 117/117/117 119/119/119 118/118/118
f 116/116/116 117/117/117 118/118/118
f 113/113/113 115/115/115 114/114/114
f 112/112/112 113/113/113 114/114/114
f 70/70/70 111/111/111 110/110/110
f 68/68/68 70/70/70 110/110/110
f 107/107/107 109/109/109 108/108/108
f 106/106/106 107/107/107 108/108/108
f 90/90/90 105/105/105 104/104/104
f 88/88/88 90/90/90 104/104/104
f 101/101/101 102/102/102 103/103/103
f 98/98/98 99/99/99 100/100/100
f 95/95/95 96/96/96 97/97/97
f 92/92/92 93/93/93 94/94/94
f 89/89/89 91/91/91 90/90/90
f 88/88/88 89/89/89 90/90/90
f 85/85/85 87/87/87 86/86/86
f 84/84/84 85/85/85 86/86/86
f 81/81/81 83/83/83 82/82/82
f 80/80/80 81/81/81 82/82/82
f 77/77/77 79/79/79 78/78/78
f 76/76/76 77/77/77 78/78/78
f 73/73/73 75/75/75 74/74/74
f 72/72/72 73/73/73 74/74/74
f 69/69/69 71/71/71 70/70/70
f 68/68/68 69/69/69 70/70/70
g Combined Mesh (root: scene) 3_3
f 182/182/182 181/181/181 180/180/180
f 182/182/182 183/183/183 181/181/181
f 186/186/186 185/185/185 184/184/184
f 186/186/186 187/187/187 185/185/185
f 190/190/190 189/189/189 188/188/188
f 190/190/190 191/191/191 189/189/189
f 194/194/194 193/193/193 192/192/192
f 194/194/194 195/195/195 193/193/193
f 198/198/198 197/197/197 196/196/196
f 198/198/198 199/199/199 197/197/197
f 202/202/202 201/201/201 200/200/200
f 202/202/202 203/203/203 201/201/201
f 204/204/204 202/202/202 200/200/200
f 204/204/204 205/205/205 202/202/202
f 208/208/208 207/207/207 206/206/206
f 208/208/208 209/209/209 207/207/207
f 210/210/210 182/182/182 180/180/180
f 210/210/210 211/211/211 182/182/182
f 212/212/212 205/205/205 204/204/204
f 212/212/212 213/213/213 205/205/205
f 214/214/214 209/209/209 208/208/208
f 214/214/214 215/215/215 209/209/209
f 216/216/216 211/211/211 210/210/210
f 216/216/216 217/217/217 211/211/211
f 218/218/218 213/213/213 212/212/212
f 218/218/218 219/219/219 213/213/213
f 222/222/222 221/221/221 220/220/220
f 222/222/222 223/223/223 221/221/221
f 224/224/224 217/217/217 216/216/216
f 224/224/224 225/225/225 217/217/217
f 228/228/228 227/227/227 226/226/226
f 228/228/228 229/229/229 227/227/227
f 232/232/232 231/231/231 230/230/230
f 232/232/232 233/233/233 231/231/231
f 234/234/234 212/212/212 204/204/204
f 234/234/234 235/235/235 212/212/212
f 238/238/238 237/237/237 236/236/236
f 238/238/238 239/239/239 237/237/237
f 242/242/242 241/241/241 240/240/240
f 242/242/242 243/243/243 241/241/241
f 246/246/246 245/245/245 244/244/244
f 246/246/246 247/247/247 245/245/245
f 248/248/248 204/204/204 200/200/200
f 248/248/248 234/234/234 204/204/204
f 249/249/249 187/187/187 186/186/186
f 249/249/249 250/250/250 187/187/187
f 251/251/251 217/217/217 225/225/225
f 251/251/251 252/252/252 217/217/217
f 253/253/253 222/222/222 220/220/220
f 253/253/253 254/254/254 222/222/222
f 255/255/255 195/195/195 194/194/194
f 255/255/255 256/256/256 195/195/195
f 257/257/257 183/183/183 182/182/182
f 257/257/257 258/258/258 183/183/183
f 252/252/252 211/211/211 217/217/217
f 252/252/252 259/259/259 211/211/211
f 260/260/260 237/237/237 239/239/239
f 260/260/260 261/261/261 237/237/237
f 259/259/259 182/182/182 211/211/211
f 259/259/259 257/257/257 182/182/182
f 263/263/263 262/262/262 191/191/191
f 263/263/263 264/264/264 262/262/262
f 265/265/265 191/191/191 190/190/190
f 265/265/265 263/263/263 191/191/191
f 268/268/268 267/267/267 266/266/266
f 268/268/268 269/269/269 267/267/267
f 270/270/270 214/214/214 208/208/208
f 270/270/270 271/271/271 214/214/214
f 273/273/273 272/272/272 261/261/261
f 273/273/273 274/274/274 272/272/272
f 275/275/275 261/261/261 260/260/260
f 275/275/275 273/273/273 261/261/261
f 276/276/276 269/269/269 268/268/268
f 276/276/276 277/277/277 269/269/269
f 278/278/278 271/271/271 270/270/270
f 278/278/278 279/279/279 271/271/271
f 280/280/280 259/259/259 252/252/252
f 280/280/280 281/281/281 259/259/259
f 284/284/284 283/283/283 282/282/282
f 284/284/284 285/285/285 283/283/283
f 281/281/281 257/257/257 259/259/259
f 281/281/281 286/286/286 257/257/257
f 287/287/287 264/264/264 263/263/263
f 287/287/287 288/288/288 264/264/264
f 289/289/289 281/281/281 280/280/280
f 289/289/289 290/290/290 281/281/281
f 292/292/292 291/291/291 288/288/288
f 292/292/292 293/293/293 291/291/291
f 294/294/294 274/274/274 273/273/273
f 294/294/294 295/295/295 274/274/274
f 296/296/296 285/285/285 284/284/284
f 296/296/296 297/297/297 285/285/285
f 290/290/290 286/286/286 281/281/281
f 290/290/290 298/298/298 286/286/286
f 299/299/299 288/288/288 287/287/287
f 299/299/299 292/292/292 288/288/288
g Combined Mesh (root: scene) 3_4
f 302/302/302 301/301/301 300/300/300
f 302/302/302 303/303/303 301/301/301
f 304/304/304 303/303/303 302/302/302
f 304/304/304 305/305/305 303/303/303
g Combined Mesh (root: scene) 3_5
f 308/308/308 307/307/307 306/306/306
f 308/308/308 309/309/309 307/307/307
f 306/306/306 307/307/307 310/310/310
f 310/310/310 307/307/307 311/311/311
f 307/307/307 312/312/312 311/311/311
f 311/311/311 312/312/312 313/313/313
f 312/312/312 314/314/314 313/313/313
f 309/309/309 308/308/308 315/315/315
f 308/308/308 316/316/316 315/315/315
