g Combined Mesh (root: scene) 2
v -6 0 -29
v 0 0 -29
v -6 2 -29
v 0 2 -29
v 0 2 -16
v -6 2 -16
v 0 2 -29
v -6 2 -29
v 2 0 -29
v 2 2 -16
v 2 2 -29
v 2 0 -16
v 2 2 -16
v 2 2 -29
v 2 2 -29
v 2 0 -29
v 0 0 -29
v 0 0 -16
v 2 0 -29
v 2 0 -16
v 0 0 0
v 0 2 0
v 2 0 0
v 2 2 0
v 0 0 -16
v 0 2 -16
v 0 0 -2
v 0 2 -2
v 2 0 -2
v 0 0 -2
v 0 2 -2
v 2 2 -2
v 2 2 -2
v 2 0 -2
v 0 0 0
v 0 2 0
v 2 0 0
v 0 0 0
v 0 10 -2
v 2 10 -2
v 0 10 0
v 2 10 0
v 2 2 0
v 2 0 0
v 0 2 -2
v 2 2 -2
v 0 8 -2
v 2 8 -2
v 0 8 0
v 0 8 -2
v 2 8 -2
v 2 8 0
v 2 8 0
v 0 8 0
v 0 10 -2
v 2 10 -2
v -18 8 0
v -18 8 -2
v -18 10 0
v -18 10 -2
v 2 10 -2
v 2 10 0
v 2 10 0
v 0 10 0
v 0 8 0
v 0 8 -2
v -16 8 0
v -16 8 -2
v -16 10 0
v -16 8 0
v -16 8 -2
v -16 10 -2
v -16 10 -2
v -16 10 0
v -16 -1 0
v -16 -1 -2
v -18 -1 0
v -18 -1 -2
v -18 10 0
v -18 8 0
v -18 8 -2
v -18 10 -2
v -18 10 -2
v -18 10 0
v -16 8 0
v -16 8 -2
v -16 -1 0
v -16 -1 -2
v -18 -1 0
v -16 -1 0
v -16 -1 -2
v -18 -1 -2
v -18 -1 -2
v -18 -1 0
v -14 0 -20
v -10 0 -20
v -14 4 -20
v -10 4 -20
v -10 4 -16
v -14 4 -16
v -10 4 -20
v -14 4 -20
v -14 8 -16
v -14 4 -20
v -14 4 -16
v -14 8 -20
v -14 8 -16
v -14 8 -20
v -14 8 -16
v -14 8 -16
v -14 8 -20
v -14 8 -20
v -14 10 -16
v -14 10 -20
v -13.9999 8 -2
v -13.9999 10 -2
v -18 10 -2
v -14 10 -16
v -13.9999 10 -2
v -18 10 -16
v -14 10 -20
v -18 10 -20
v -18 10 -20
v -14 8 -20
v -14 10 -20
v -18 8 -20
v -18 4 -20.00007
v -18 0 -20.0001
v 0 8 0
v -6 8 -16
v -6 8 0
v 0 8 -16
v -6 0 -16
v 0 0 -16
v 0 0 0
v -6 0 0
v -10 8 0
v -16 8 -16
v -16 8 0
v -10 8 -16
v -16 0 -16
v -10 0 -16
v -10 0 0
v -16 0 0
v -16 4 -16
v -16 0 0
v -16 4 0
v -16 0 -16
v -16 8 -16
v -16 8 0
v 0 0 0
v 0 0 -16
v 0 4 -16
v 0 4 0
v 0 8 -16
v 0 8 0
v -6 4 0
v 0 0 0
v 0 4 0
v -6 0 0
v -6 8 0
v 0 8 0
v 0 0 -16
v -6 0 -16
v -6 4 -16
v 0 4 -16
v -6 8 -16
v 0 8 -16
v -10 4 0
v -10 0 0
v -10 8 0
v -16 4 0
v -16 0 0
v -16 8 0
v -10 4 -16
v -10 8 -16
v -10 0 -16
v -16 0 -16
v -16 4 -16
v -16 8 -16
v -6 0 -22.25
v -6 4 -22.25
v -6 4 -16
v -6 0 -16
v -6 4 -22.25
v -10 4 -22.25
v -10 4 -16
v -6 4 -16
v -10 4 -22.25
v -10 0 -22.25
v -10 0 -16
v -10 4 -16
v -10 0 -22.25
v -6 0 -22.25
vt 6 0
vt 0 0
vt 6 2
vt 0 2
vt 0 0
vt 6 0
vt 0 -13
vt 6 -13
vt 13 0
vt 0 2
vt 13 2
vt 0 0
vt -2 0
vt -2 -13
vt -2 2
vt -2 0
vt 0 -13
vt 0 0
vt 2 -13
vt 2 0
vt 0 0
vt 0 2
vt 2 0
vt 2 2
vt 0 0
vt 0 2
vt 14 0
vt 14 2
vt 2 14
vt 0 14
vt 0 14
vt -2 14
vt -14 2
vt -14 0
vt 16 0
vt 16 2
vt 2 16
vt 0 16
vt 0 14
vt -2 14
vt 0 16
vt -2 16
vt -16 2
vt -16 0
vt 0 2
vt -2 2
vt 0 8
vt -2 8
vt 16 8
vt 14 8
vt -14 8
vt -16 8
vt 2 8
vt 0 8
vt 0 10
vt -2 10
vt 16 8
vt 14 8
vt 16 10
vt 14 10
vt -14 10
vt -16 10
vt 2 10
vt 0 10
vt 0 16
vt 0 14
vt -16 16
vt -16 14
vt -16 10
vt -16 8
vt 16 8
vt 16 10
vt 16 14
vt 16 16
vt -16 16
vt -16 14
vt -18 16
vt -18 14
vt -18 10
vt -18 8
vt 18 8
vt 18 10
vt 18 14
vt 18 16
vt -16 8
vt -14 8
vt -16 -1
vt -14 -1
vt -18 -1
vt -16 -1
vt 16 -1
vt 18 -1
vt 14 -1
vt 16 -1
vt 4 0
vt 0 0
vt 4 4
vt 0 4
vt 0 0
vt 4 0
vt 0 -4
vt 4 -4
vt 0 8
vt 4 4
vt 0 4
vt 4 8
vt 0 0
vt 0 0
vt 0 0
vt 0 0
vt 0 0
vt 0 0
vt 0 10
vt 4 10
vt -13.99997 8
vt -13.99997 10
vt 8 14
vt 4 0
vt 3.9999 14
vt 8 0
vt 4 -4
vt 8 -4
vt 8 10
vt 4 8
vt 4 10
vt 8 8
vt 8 4
vt 8.000071 0
vt 0 0
vt -6 -16
vt -6 0
vt 0 -16
vt 6 -16
vt 0 -16
vt 0 0
vt 6 0
vt -10 0
vt -16 -16
vt -16 0
vt -10 -16
vt 16 -16
vt 10 -16
vt 10 0
vt 16 0
vt 16 4
vt 0 0
vt 0 4
vt 16 0
vt 16 8
vt 0 8
vt 0 0
vt -16 0
vt -16 4
vt 0 4
vt -16 8
vt 0 8
vt 6 4
vt 0 0
vt 0 4
vt 6 0
vt 6 8
vt 0 8
vt 0 0
vt -6 0
vt -6 4
vt 0 4
vt -6 8
vt 0 8
vt 10 4
vt 10 0
vt 10 8
vt 16 4
vt 16 0
vt 16 8
vt -10 4
vt -10 8
vt -10 0
vt -16 0
vt -16 4
vt -16 8
vt -22.25 0
vt -22.25 4
vt -16 4
vt -16 0
vt -6 -22.25
vt -10 -22.25
vt -10 -16
vt -6 -16
vt 22.25 4
vt 22.25 0
vt 16 0
vt 16 4
vt 10 -22.25
vt 6 -22.25
vn 0 0 -1
vn 0 0 -1
vn 0 0 -1
vn 0 0 -1
vn 0 1 0
vn 0 1 0
vn 0 1 0
vn 0 1 0
vn 1 0 0
vn 1 0 0
vn 1 0 0
vn 1 0 0
vn 0 1 0
vn 0 1 0
vn 0 0 -1
vn 0 0 -1
vn 0 -1 0
vn 0 -1 0
vn 0 -1 0
vn 0 -1 0
vn 0 0 1
vn 0 0 1
vn 0 0 1
vn 0 0 1
vn -1 0 0
vn -1 0 0
vn -1 0 0
vn -1 0 0
vn 0 -1 0
vn 0 -1 0
vn 0 1 0
vn 0 1 0
vn 1 0 0
vn 1 0 0
vn -1 0 0
vn -1 0 0
vn 0 -1 0
vn 0 -1 0
vn 0 1 0
vn 0 1 0
vn 0 1 0
vn 0 1 0
vn 1 0 0
vn 1 0 0
vn 0 0 -1
vn 0 0 -1
vn 0 0 -1
vn 0 0 -1
vn -1 0 0
vn -1 0 0
vn 1 0 0
vn 1 0 0
vn 0 0 1
vn 0 0 1
vn 0 0 -1
vn 0 0 -1
vn -1 0 0
vn -1 0 0
vn -1 0 0
vn -1 0 0
vn 1 0 0
vn 1 0 0
vn 0 0 1
vn 0 0 1
vn 0 -1 0
vn 0 -1 0
vn 0 -1 0
vn 0 -1 0
vn 0 0 1
vn 0 0 1
vn 0 0 -1
vn 0 0 -1
vn 0 1 0
vn 0 1 0
vn 0 -1 0
vn 0 -1 0
vn 0 -1 0
vn 0 -1 0
vn 0 0 1
vn 0 0 1
vn 0 0 -1
vn 0 0 -1
vn 0 1 0
vn 0 1 0
vn 1 0 0
vn 1 0 0
vn 1 0 0
vn 1 0 0
vn 0 0 1
vn 0 0 1
vn 0 0 -1
vn 0 0 -1
vn -1 0 0
vn -1 0 0
vn 0 0 -1
vn 0 0 -1
vn 0 0 -1
vn 0 0 -1
vn 0 1 0
vn 0 1 0
vn 0 1 0
vn 0 1 0
vn 1 0 0
vn 1 0 0
vn 1 0 0
vn 1 0 0
vn 0 0 0
vn 0 0 0
vn 0 0 0
vn 0 0 0
vn 0 0 0
vn 0 0 0
vn 1 0 0
vn 1 0 0
vn 1 0 -7.152557E-06
vn 1 0 -7.152557E-06
vn 0 1 0
vn 0 1 0
vn 0 1 0
vn 0 1 0
vn 0 1 0
vn 0 1 0
vn 0 0 -1
vn 0 0 -1
vn 0 0 -1
vn 0 0 -1
vn 1.764297E-05 1.764297E-05 -1
vn 2.479553E-05 7.152557E-06 -1
vn 0 -1 0
vn 0 -1 0
vn 0 -1 0
vn 0 -1 0
vn 0 1 0
vn 0 1 0
vn 0 1 0
vn 0 1 0
vn 0 -1 0
vn 0 -1 0
vn 0 -1 0
vn 0 -1 0
vn 0 1 0
vn 0 1 0
vn 0 1 0
vn 0 1 0
vn 1 0 0
vn 1 0 0
vn 1 0 0
vn 1 0 0
vn 1 0 0
vn 1 0 0
vn -1 0 0
vn -1 0 0
vn -1 0 0
vn -1 0 0
vn -1 0 0
vn -1 0 0
vn 0 0 -1
vn 0 0 -1
vn 0 0 -1
vn 0 0 -1
vn 0 0 -1
vn 0 0 -1
vn 0 0 1
vn 0 0 1
vn 0 0 1
vn 0 0 1
vn 0 0 1
vn 0 0 1
vn 0 0 -1
vn 0 0 -1
vn 0 0 -1
vn 0 0 -1
vn 0 0 -1
vn 0 0 -1
vn 0 0 1
vn 0 0 1
vn 0 0 1
vn 0 0 1
vn 0 0 1
vn 0 0 1
vn -1 0 0
vn -1 0 0
vn -1 0 0
vn -1 0 0
vn 0 -1 0
vn 0 -1 0
vn 0 -1 0
vn 0 -1 0
vn 1 0 0
vn 1 0 0
vn 1 0 0
vn 1 0 0
vn 0 1 0
vn 0 1 0
g Combined Mesh (root: scene) 2_0
f 3/3/3 2/2/2 1/1/1
f 3/3/3 4/4/4 2/2/2
f 7/7/7 6/6/6 5/5/5
f 7/7/7 8/8/8 6/6/6
f 11/11/11 10/10/10 9/9/9
f 10/10/10 12/12/12 9/9/9
f 13/13/13 7/7/7 5/5/5
f 13/13/13 14/14/14 7/7/7
f 15/15/15 2/2/2 4/4/4
f 15/15/15 16/16/16 2/2/2
f 19/19/19 18/18/18 17/17/17
f 19/19/19 20/20/20 18/18/18
f 23/23/23 22/22/22 21/21/21
f 23/23/23 24/24/24 22/22/22
f 27/27/27 26/26/26 25/25/25
f 27/27/27 28/28/28 26/26/26
f 29/29/29 18/18/18 20/20/20
f 29/29/29 30/30/30 18/18/18
f 31/31/31 13/13/13 5/5/5
f 31/31/31 32/32/32 13/13/13
f 33/33/33 12/12/12 10/10/10
f 33/33/33 34/34/34 12/12/12
f 35/35/35 28/28/28 27/27/27
f 35/35/35 36/36/36 28/28/28
f 37/37/37 30/30/30 29/29/29
f 37/37/37 38/38/38 30/30/30
f 41/41/41 40/40/40 39/39/39
f 41/41/41 42/42/42 40/40/40
f 43/43/43 34/34/34 33/33/33
f 43/43/43 44/44/44 34/34/34
f 47/47/47 46/46/46 45/45/45
f 47/47/47 48/48/48 46/46/46
f 49/49/49 28/28/28 36/36/36
f 49/49/49 50/50/50 28/28/28
f 51/51/51 43/43/43 33/33/33
f 51/51/51 52/52/52 43/43/43
f 53/53/53 22/22/22 24/24/24
f 53/53/53 54/54/54 22/22/22
f 55/55/55 48/48/48 47/47/47
f 55/55/55 56/56/56 48/48/48
f 59/59/59 58/58/58 57/57/57
f 59/59/59 60/60/60 58/58/58
f 61/61/61 52/52/52 51/51/51
f 61/61/61 62/62/62 52/52/52
f 63/63/63 54/54/54 53/53/53
f 63/63/63 64/64/64 54/54/54
f 67/67/67 66/66/66 65/65/65
f 67/67/67 68/68/68 66/66/66
f 69/69/69 54/54/54 64/64/64
f 69/69/69 70/70/70 54/54/54
f 71/71/71 55/55/55 47/47/47
f 71/71/71 72/72/72 55/55/55
f 73/73/73 41/41/41 39/39/39
f 73/73/73 74/74/74 41/41/41
f 77/77/77 76/76/76 75/75/75
f 77/77/77 78/78/78 76/76/76
f 79/79/79 70/70/70 69/69/69
f 79/79/79 80/80/80 70/70/70
f 81/81/81 72/72/72 71/71/71
f 81/81/81 82/82/82 72/72/72
f 83/83/83 74/74/74 73/73/73
f 83/83/83 84/84/84 74/74/74
f 87/87/87 86/86/86 85/85/85
f 87/87/87 88/88/88 86/86/86
f 89/89/89 70/70/70 80/80/80
f 89/89/89 90/90/90 70/70/70
f 91/91/91 81/81/81 71/71/71
f 91/91/91 92/92/92 81/81/81
f 93/93/93 57/57/57 58/58/58
f 93/93/93 94/94/94 57/57/57
g Combined Mesh (root: scene) 2_1
f 97/97/97 96/96/96 95/95/95
f 97/97/97 98/98/98 96/96/96
f 101/101/101 100/100/100 99/99/99
f 101/101/101 102/102/102 100/100/100
f 105/105/105 104/104/104 103/103/103
f 104/104/104 106/106/106 103/103/103
f 109/109/109 108/108/108 107/107/107
f 112/112/112 111/111/111 110/110/110
f 103/103/103 106/106/106 113/113/113
f 106/106/106 114/114/114 113/113/113
f 103/103/103 113/113/113 115/115/115
f 113/113/113 116/116/116 115/115/115
f 119/119/119 118/118/118 117/117/117
f 118/118/118 120/120/120 117/117/117
f 118/118/118 121/121/121 120/120/120
f 121/121/121 122/122/122 120/120/120
f 125/125/125 124/124/124 123/123/123
f 124/124/124 126/126/126 123/123/123
f 124/124/124 97/97/97 126/126/126
f 97/97/97 127/127/127 126/126/126
f 97/97/97 95/95/95 127/127/127
f 95/95/95 128/128/128 127/127/127
g Combined Mesh (root: scene) 2_2
g Combined Mesh (root: scene) 2_3
f 131/131/131 130/130/130 129/129/129
f 130/130/130 132/132/132 129/129/129
f 135/135/135 134/134/134 133/133/133
f 135/135/135 133/133/133 136/136/136
f 139/139/139 138/138/138 137/137/137
f 138/138/138 140/140/140 137/137/137
f 137/137/137 140/140/140 131/131/131
f 140/140/140 130/130/130 131/131/131
f 143/143/143 142/142/142 141/141/141
f 143/143/143 141/141/141 144/144/144
f 136/136/136 133/133/133 142/142/142
f 136/136/136 142/142/142 143/143/143
f 147/147/147 146/146/146 145/145/145
f 146/146/146 148/148/148 145/145/145
f 150/150/150 147/147/147 149/149/149
f 147/147/147 145/145/145 149/149/149
f 153/153/153 152/152/152 151/151/151
f 153/153/153 151/151/151 154/154/154
f 155/155/155 153/153/153 154/154/154
f 155/155/155 154/154/154 156/156/156
f 159/159/159 158/158/158 157/157/157
f 158/158/158 160/160/160 157/157/157
f 162/162/162 159/159/159 161/161/161
f 159/159/159 157/157/157 161/161/161
f 165/165/165 164/164/164 163/163/163
f 165/165/165 163/163/163 166/166/166
f 167/167/167 165/165/165 166/166/166
f 167/167/167 166/166/166 168/168/168
f 157/157/157 160/160/160 169/169/169
f 160/160/160 170/170/170 169/169/169
f 161/161/161 157/157/157 171/171/171
f 157/157/157 169/169/169 171/171/171
f 169/169/169 170/170/170 172/172/172
f 170/170/170 173/173/173 172/172/172
f 171/171/171 169/169/169 174/174/174
f 169/169/169 172/172/172 174/174/174
f 176/176/176 175/175/175 165/165/165
f 176/176/176 165/165/165 167/167/167
f 179/179/179 178/178/178 177/177/177
f 179/179/179 177/177/177 175/175/175
f 180/180/180 179/179/179 175/175/175
f 180/180/180 175/175/175 176/176/176
f 183/183/183 182/182/182 181/181/181
f 184/184/184 183/183/183 181/181/181
f 187/187/187 186/186/186 185/185/185
f 188/188/188 187/187/187 185/185/185
f 191/191/191 190/190/190 189/189/189
f 192/192/192 191/191/191 189/189/189
f 133/133/133 194/194/194 193/193/193
f 142/142/142 133/133/133 193/193/193
