g Combined Mesh (root: scene) 44
v 236 16 150.0167
v 236 16 150.55
v 250.25 16.00001 150.525
v 250.75 16 150.0083
v 236 16 149.4833
v 236 16 150.0167
v 250.75 16 150.0083
v 251.2604 16 149.4916
v 236 16 148.95
v 236 16 149.4833
v 251.2604 16 149.4916
v 251.7758 16 148.975
v 250.75 14 150.0083
v 250.25 14 150.525
v 236 14 150.55
v 236 14 150.0167
v 251.25 14 149.4916
v 250.75 14 150.0083
v 236 14 150.0167
v 236 14 149.4833
v 251.75 14 148.975
v 251.25 14 149.4916
v 236 14 149.4833
v 236 14 148.95
v 236 15.26667 148.75
v 236 15.8 148.75
v 252 15.8 148.75
v 252 15.26667 148.75
v 236 14.73333 148.75
v 252 14.73333 148.75
v 236 14.2 148.75
v 252 14.2 148.75
v 236 14.73333 150.75
v 236 14.2 150.75
v 250 14.2 150.75
v 250 14.73334 150.75
v 236 15.26667 150.75
v 250 15.26667 150.75
v 236 15.8 150.75
v 250 15.8 150.75
v 252 14.2 148.75
v 251.75 14 148.975
v 236 14 148.95
v 236 14.2 148.75
v 236 15.8 148.75
v 236 16 148.95
v 251.7758 16 148.975
v 252 15.8 148.75
v 250 15.8 150.75
v 250.25 16.00001 150.525
v 236 16 150.55
v 236 15.8 150.75
v 236 14.2 150.75
v 236 14 150.55
v 250.25 14 150.525
v 250 14.2 150.75
v 250.7334 16 164.75
v 250.2 16 164.75
v 250.225 16.00001 150.5
v 250.7417 16 150
v 251.2667 16 164.75
v 250.7334 16 164.75
v 250.7417 16 150
v 251.2584 16 149.4748
v 251.8 16 164.75
v 251.2667 16 164.75
v 251.2584 16 149.4748
v 251.775 16 148.9742
v 250.7417 14 150
v 250.225 14 150.5
v 250.2 14 164.75
v 250.7334 14 164.75
v 251.2583 14 149.5
v 250.7417 14 150
v 250.7334 14 164.75
v 251.2667 14 164.75
v 251.775 14 149
v 251.2583 14 149.5
v 251.2667 14 164.75
v 251.8 14 164.75
v 252 15.26667 164.75
v 252 15.8 164.75
v 252 15.8 148.75
v 252 15.26667 148.75
v 252 14.73333 164.75
v 252 14.73333 148.75
v 252 14.2 164.75
v 252 14.2 148.75
v 250 14.73333 164.75
v 250 14.2 164.75
v 250 14.2 150.75
v 250 14.73334 150.75
v 250 15.26667 164.75
v 250 15.26667 150.75
v 250 15.8 164.75
v 250 15.8 150.75
v 252 14.2 148.75
v 251.775 14 149
v 251.8 14 164.75
v 252 14.2 164.75
v 252 15.8 164.75
v 251.8 16 164.75
v 251.775 16 148.9742
v 252 15.8 148.75
v 250 15.8 150.75
v 250.225 16.00001 150.5
v 250.2 16 164.75
v 250 15.8 164.75
v 250 14.2 164.75
v 250.2 14 164.75
v 250.225 14 150.5
v 250 14.2 150.75
vt 0.3695784 -2.999483
vt 0.102911 -2.999483
vt 0.1029111 0.6874415
vt 0.3695787 0.7936634
vt 0.6362448 -2.999483
vt 0.3695784 -2.999483
vt 0.3695787 0.7936634
vt 0.636245 0.8942948
vt 0.9029112 -2.999483
vt 0.6362448 -2.999483
vt 0.636245 0.8942948
vt 0.9029112 1.000517
vt 0.3695774 -2.999483
vt 0.10291 -2.999483
vt 0.1029111 0.6874415
vt 0.3695787 0.7936634
vt 0.6362448 -2.999483
vt 0.3695774 -2.999483
vt 0.3695787 0.7936634
vt 0.636245 0.8942948
vt 0.9029112 -2.999483
vt 0.6362448 -2.999483
vt 0.636245 0.8942948
vt 0.9029112 1.000517
vt 0.6362448 0.5005169
vt 0.9029112 0.5005169
vt 0.9029112 -3.499484
vt 0.6362448 -3.499484
vt 0.3695784 0.5005169
vt 0.3695774 -3.499484
vt 0.102911 0.5005169
vt 0.10291 -3.499484
vt 0.3695784 -3.499484
vt 0.102911 -3.499484
vt 0.102911 0.5005169
vt 0.3695784 0.5005169
vt 0.6362448 -3.499484
vt 0.6362448 0.5005169
vt 0.9029112 -3.499484
vt 0.9029112 0.5005169
vt 0.7885981 4.500517
vt 0.9300203 4.500517
vt 0.9300194 0.5005169
vt 0.7885981 0.5005169
vt 0.08149052 0.5005169
vt 0.2229128 0.5005169
vt 0.2229128 -3.499484
vt 0.08149052 -3.499484
vt 0.9300184 -3.499484
vt 0.7885981 -3.499484
vt 0.7885981 0.5005169
vt 0.9300194 0.5005169
vt 0.8707047 0.438017
vt 1.012126 0.438017
vt 1.012125 -3.561984
vt 0.8707042 -3.561984
vt 0.3695784 -2.999483
vt 0.102911 -2.999483
vt 0.1029111 0.6874415
vt 0.3695787 0.7936634
vt 0.6362448 -2.999483
vt 0.3695784 -2.999483
vt 0.3695787 0.7936634
vt 0.636245 0.8942948
vt 0.9029112 -2.999483
vt 0.6362448 -2.999483
vt 0.636245 0.8942948
vt 0.9029112 1.000517
vt 0.3695774 -2.999483
vt 0.10291 -2.999483
vt 0.1029111 0.6874415
vt 0.3695787 0.7936634
vt 0.6362448 -2.999483
vt 0.3695774 -2.999483
vt 0.3695787 0.7936634
vt 0.636245 0.8942948
vt 0.9029112 -2.999483
vt 0.6362448 -2.999483
vt 0.636245 0.8942948
vt 0.9029112 1.000517
vt 0.6362448 0.5005169
vt 0.9029112 0.5005169
vt 0.9029112 -3.499484
vt 0.6362448 -3.499484
vt 0.3695784 0.5005169
vt 0.3695774 -3.499484
vt 0.102911 0.5005169
vt 0.10291 -3.499484
vt 0.3695784 -3.499484
vt 0.102911 -3.499484
vt 0.102911 0.5005169
vt 0.3695784 0.5005169
vt 0.6362448 -3.499484
vt 0.6362448 0.5005169
vt 0.9029112 -3.499484
vt 0.9029112 0.5005169
vt 0.7885981 4.500517
vt 0.9300203 4.500517
vt 0.9300194 0.5005169
vt 0.7885981 0.5005169
vt 0.08149052 0.5005169
vt 0.2229128 0.5005169
vt 0.2229128 -3.499484
vt 0.08149052 -3.499484
vt 0.9300184 -3.499484
vt 0.7885981 -3.499484
vt 0.7885981 0.5005169
vt 0.9300194 0.5005169
vt 0.8707047 0.438017
vt 1.012126 0.438017
vt 1.012125 -3.561984
vt 0.8707042 -3.561984
vn -3.112221E-07 1 -1.10915E-06
vn -4.182784E-07 1 -1.192089E-07
vn -3.476565E-07 1 -2.09909E-06
vn -2.438292E-07 1 -3.000501E-06
vn -1.79523E-07 1 -1.020619E-06
vn -3.112221E-07 1 -1.10915E-06
vn -2.438292E-07 1 -3.000501E-06
vn -1.461721E-07 1 -1.957782E-06
vn -1.45884E-07 1 -1.90715E-07
vn -1.79523E-07 1 -1.020619E-06
vn -1.461721E-07 1 -1.957782E-06
vn -1.433461E-07 1 -2.622209E-07
vn 3.950607E-08 -1 -3.753736E-07
vn -1.162858E-08 -1 -1.737821E-06
vn 2.247267E-08 -1 -8.09306E-07
vn 5.707872E-08 -1 1.040466E-07
vn 5.812147E-08 -1 7.474895E-08
vn 3.950607E-08 -1 -3.753736E-07
vn 5.707872E-08 -1 1.040466E-07
vn 5.911633E-08 -1 1.045604E-07
vn 5.960511E-08 -1 8.991157E-08
vn 5.812147E-08 -1 7.474895E-08
vn 5.911633E-08 -1 1.045604E-07
vn 6.055078E-08 -1 1.192092E-07
vn -8.850838E-07 -1.192093E-07 -1
vn -8.850838E-07 -1.192093E-07 -1
vn -8.850838E-07 -1.192093E-07 -1
vn -8.850838E-07 -1.192093E-07 -1
vn -8.850838E-07 -1.192093E-07 -1
vn -8.850838E-07 -1.192093E-07 -1
vn -8.850838E-07 -1.192093E-07 -1
vn -8.850838E-07 -1.192093E-07 -1
vn 2.342205E-06 9.126973E-08 1
vn 2.345398E-06 1.192093E-07 1
vn 2.343269E-06 6.333016E-08 1
vn 2.340076E-06 3.539044E-08 1
vn 2.337948E-06 9.126957E-08 1
vn 2.335819E-06 3.539019E-08 1
vn 2.334755E-06 6.332996E-08 1
vn 2.332626E-06 7.450637E-09 1
vn 0.0005255172 -0.7275246 -0.6854348
vn 0.00105166 -0.7479424 -0.6637629
vn 0.0005255172 -0.7275246 -0.6854348
vn -6.258488E-07 -0.7071069 -0.7071068
vn 0.0005589924 0.7272354 -0.6857604
vn 0.001118573 0.7071064 -0.7071065
vn 0.0005589924 0.7272354 -0.6857604
vn -5.880623E-07 0.7473645 -0.6644144
vn 0.000584872 0.7269381 0.6860945
vn 0.001168299 0.7467694 0.6650822
vn 0.000584872 0.7269381 0.6860945
vn 1.444702E-06 0.7071069 0.7071068
vn 0.0006220272 -0.7272609 0.6857315
vn 0.001242458 -0.7071062 0.7071064
vn 0.0006220272 -0.7272609 0.6857315
vn 1.596366E-06 -0.7474157 0.6643568
vn 9.899412E-07 1 1.920102E-07
vn 6.980774E-13 1 2.990692E-07
vn 1.979882E-06 1 2.284419E-07
vn 1.991611E-06 1 1.56279E-07
vn 1.173031E-08 1 1.543387E-07
vn 9.899412E-07 1 1.920102E-07
vn 1.991611E-06 1 1.56279E-07
vn 8.742281E-08 1 1.51653E-07
vn 1.279257E-07 1 1.493977E-07
vn 1.173031E-08 1 1.543387E-07
vn 8.742281E-08 1 1.51653E-07
vn 2.55851E-07 1 1.448615E-07
vn 4.945828E-07 -1 7.97019E-08
vn 1.857031E-06 -1 1.308329E-07
vn 9.285152E-07 -1 9.673413E-08
vn 1.516252E-08 -1 6.213052E-08
vn 4.446019E-08 -1 6.108769E-08
vn 4.945828E-07 -1 7.97019E-08
vn 1.516252E-08 -1 6.213052E-08
vn 1.464874E-08 -1 6.009292E-08
vn 2.929757E-08 -1 5.960409E-08
vn 4.446019E-08 -1 6.108769E-08
vn 1.464874E-08 -1 6.009292E-08
vn -1.01055E-13 -1 5.86585E-08
vn 1 -1.192093E-07 -1.788139E-06
vn 1 -1.192093E-07 -1.788139E-06
vn 1 -1.192093E-07 -1.788139E-06
vn 1 -1.192093E-07 -1.788139E-06
vn 1 -1.192093E-07 -1.788139E-06
vn 1 -1.192093E-07 -1.788139E-06
vn 1 -1.192093E-07 -1.788139E-06
vn 1 -1.192093E-07 -1.788139E-06
vn -1 9.126973E-08 3.310179E-07
vn -1 1.192093E-07 3.278248E-07
vn -1 6.333016E-08 3.299535E-07
vn -1 3.539044E-08 3.331465E-07
vn -1 9.126957E-08 3.352753E-07
vn -1 3.539019E-08 3.37404E-07
vn -1 6.332996E-08 3.384685E-07
vn -1 7.450637E-09 3.405971E-07
vn 0.6854349 -0.7275246 -0.0005272628
vn 0.6637629 -0.7479424 -0.001053345
vn 0.6854349 -0.7275246 -0.0005272628
vn 0.7071068 -0.7071069 -1.180112E-06
vn 0.6857787 0.7272191 -0.0005604192
vn 0.7071064 0.7071064 -0.001119561
vn 0.6857787 0.7272191 -0.0005604192
vn 0.6644511 0.7473318 -1.27722E-06
vn -0.6860945 0.7269381 -0.0005831246
vn -0.6650822 0.7467694 -0.001166611
vn -0.6860945 0.7269381 -0.0005831246
vn -0.7071068 0.7071069 3.612583E-07
vn -0.6857315 -0.7272609 -0.0006201075
vn -0.7071063 -0.7071062 -0.001240484
vn -0.6857315 -0.7272609 -0.0006201075
vn -0.6643567 -0.7474157 2.687063E-07
g Combined Mesh (root: scene) 44_0
f 53/53/53 55/55/55 56/56/56
f 53/53/53 54/54/54 55/55/55
f 49/49/49 51/51/51 52/52/52
f 49/49/49 50/50/50 51/51/51
f 45/45/45 47/47/47 48/48/48
f 45/45/45 46/46/46 47/47/47
f 41/41/41 43/43/43 44/44/44
f 41/41/41 42/42/42 43/43/43
f 39/39/39 38/38/38 40/40/40
f 39/39/39 37/37/37 38/38/38
f 37/37/37 36/36/36 38/38/38
f 37/37/37 33/33/33 36/36/36
f 33/33/33 35/35/35 36/36/36
f 33/33/33 34/34/34 35/35/35
f 31/31/31 30/30/30 32/32/32
f 31/31/31 29/29/29 30/30/30
f 29/29/29 28/28/28 30/30/30
f 29/29/29 25/25/25 28/28/28
f 25/25/25 27/27/27 28/28/28
f 25/25/25 26/26/26 27/27/27
f 21/21/21 23/23/23 24/24/24
f 21/21/21 22/22/22 23/23/23
f 17/17/17 19/19/19 20/20/20
f 17/17/17 18/18/18 19/19/19
f 13/13/13 15/15/15 16/16/16
f 13/13/13 14/14/14 15/15/15
f 9/9/9 11/11/11 12/12/12
f 9/9/9 10/10/10 11/11/11
f 5/5/5 7/7/7 8/8/8
f 5/5/5 6/6/6 7/7/7
f 1/1/1 3/3/3 4/4/4
f 1/1/1 2/2/2 3/3/3
g Combined Mesh (root: scene) 44_1
f 59/59/59 58/58/58 57/57/57
f 60/60/60 59/59/59 57/57/57
f 63/63/63 62/62/62 61/61/61
f 64/64/64 63/63/63 61/61/61
f 67/67/67 66/66/66 65/65/65
f 68/68/68 67/67/67 65/65/65
f 71/71/71 70/70/70 69/69/69
f 72/72/72 71/71/71 69/69/69
f 75/75/75 74/74/74 73/73/73
f 76/76/76 75/75/75 73/73/73
f 79/79/79 78/78/78 77/77/77
f 80/80/80 79/79/79 77/77/77
f 83/83/83 82/82/82 81/81/81
f 84/84/84 83/83/83 81/81/81
f 84/84/84 81/81/81 85/85/85
f 86/86/86 84/84/84 85/85/85
f 86/86/86 85/85/85 87/87/87
f 88/88/88 86/86/86 87/87/87
f 91/91/91 90/90/90 89/89/89
f 92/92/92 91/91/91 89/89/89
f 92/92/92 89/89/89 93/93/93
f 94/94/94 92/92/92 93/93/93
f 94/94/94 93/93/93 95/95/95
f 96/96/96 94/94/94 95/95/95
f 99/99/99 98/98/98 97/97/97
f 100/100/100 99/99/99 97/97/97
f 103/103/103 102/102/102 101/101/101
f 104/104/104 103/103/103 101/101/101
f 107/107/107 106/106/106 105/105/105
f 108/108/108 107/107/107 105/105/105
f 111/111/111 110/110/110 109/109/109
f 112/112/112 111/111/111 109/109/109
