g Combined Mesh (root: scene) 23
v -64 4 72
v -64 8 80
v -68 4 72
v -68 8 80
v -72 4 72
v -80 8 72
v -72 4 68
v -80 8 68
vt 0 0
vt 0 8.944271
vt 4 0
vt 4 8.944271
vt 6.198883E-06 0
vt 0 8.944273
vt 4.000007 2.861023E-06
vt 4 8.944277
vn 0 0.8944272 -0.4472136
vn 0 0.8944272 -0.4472136
vn 0 0.8944272 -0.4472136
vn 0 0.8944272 -0.4472136
vn 0.4472136 0.8944272 -2.665601E-08
vn 0.4472136 0.8944272 -2.665601E-08
vn 0.4472136 0.8944272 -2.665601E-08
vn 0.4472136 0.8944272 -2.665601E-08
g Combined Mesh (root: scene) 23_0
f 3/3/3 2/2/2 1/1/1
f 3/3/3 4/4/4 2/2/2
g Combined Mesh (root: scene) 23_1
f 7/7/7 6/6/6 5/5/5
f 7/7/7 8/8/8 6/6/6
