g Combined Mesh (root: scene) 10
v 15.981 41 -2.996279
v 15.94645 40.97028 -3.235646
v 15.9543 39.03438 -2.99628
v 13.99928 40.98209 -3.281828
v 14.03797 41 -2.99629
v 13.9949 39.02941 -2.996292
v 13.99928 40.98209 -3.281828
v 13.9949 39.02941 -2.996292
v 15.9543 39.03438 -2.99628
v 15.94645 40.97028 -3.235646
v 14.03797 41 -2.99629
v 13.99928 40.98209 -3.281828
v 15.94645 40.97028 -3.235646
v 15.981 41 -2.996279
v 22.24629 43.01898 42.5
v 22.48565 43.05354 42.47028
v 22.24628 43.0457 40.53438
v 22.53183 45.00071 42.48211
v 22.24629 44.96201 42.50001
v 22.24629 45.0051 40.52942
v 22.53183 45.00071 42.48211
v 22.24629 45.0051 40.52942
v 22.24628 43.0457 40.53438
v 22.48565 43.05354 42.47028
v 22.24629 44.96201 42.50001
v 22.53183 45.00071 42.48211
v 22.48565 43.05354 42.47028
v 22.24629 43.01898 42.5
v -17.49628 59.9949 6.029402
v -17.73565 60.02946 6.059125
v -17.49628 60.02159 7.995023
v -17.78181 61.97662 6.047326
v -17.49627 61.93793 6.029425
v -17.49627 61.98099 8.000008
v -17.78181 61.97662 6.047326
v -17.49627 61.98099 8.000008
v -17.49628 60.02159 7.995023
v -17.73565 60.02946 6.059125
v -17.49627 61.93793 6.029425
v -17.78181 61.97662 6.047326
v -17.73565 60.02946 6.059125
v -17.49628 59.9949 6.029402
v 9.99628 42 -6.018996
v 10.23565 41.97028 -6.053553
v 9.99628 40.03438 -6.045705
v 10.28182 41.98209 -8.000719
v 9.996284 42 -7.962025
v 9.996285 40.02941 -8.005104
v 10.28182 41.98209 -8.000719
v 9.996285 40.02941 -8.005104
v 9.99628 40.03438 -6.045705
v 10.23565 41.97028 -6.053553
v 9.996284 42 -7.962025
v 10.28182 41.98209 -8.000719
v 10.23565 41.97028 -6.053553
v 9.99628 42 -6.018996
v -17.49628 59.981 5.999999
v -17.73565 59.94644 5.970276
v -17.49628 59.9543 4.034378
v -17.78181 57.99928 5.982086
v -17.49627 58.03797 5.999988
v -17.49627 57.9949 4.029404
v -17.78181 57.99928 5.982086
v -17.49627 57.9949 4.029404
v -17.49628 59.9543 4.034378
v -17.73565 59.94644 5.970276
v -17.49627 58.03797 5.999988
v -17.78181 57.99928 5.982086
v -17.73565 59.94644 5.970276
v -17.49628 59.981 5.999999
v 22.24629 41 9.51899
v 22.48565 41.02972 9.553547
v 22.24628 42.96562 9.545705
v 22.53183 41.0179 11.50071
v 22.24629 41 11.46202
v 22.24629 42.97058 11.5051
v 22.53183 41.0179 11.50071
v 22.24629 42.97058 11.5051
v 22.24628 42.96562 9.545705
v 22.48565 41.02972 9.553547
v 22.24629 41 11.46202
v 22.53183 41.0179 11.50071
v 22.48565 41.02972 9.553547
v 22.24629 41 9.51899
vt 0.2496056 0.3774312
vt 0.2498585 0.3930692
vt 0.1576187 0.3745933
vt 0.1224304 0.3749167
vt 0.1244101 0.395875
vt 0.2663178 0.3730981
vt 0.6241635 0.2491841
vt 0.6241635 0.3758158
vt 0.7507892 0.3755404
vt 0.7499806 0.2499261
vt 0.6270406 0.3676023
vt 0.6268987 0.3753147
vt 0.3784377 0.3755203
vt 0.3770648 0.3630038
vt 0.2496056 0.3774312
vt 0.2498585 0.3930692
vt 0.1576187 0.3745933
vt 0.1224304 0.3749167
vt 0.1244101 0.395875
vt 0.2663178 0.3730981
vt 0.6241635 0.2491841
vt 0.6241635 0.3758158
vt 0.7507892 0.3755404
vt 0.7499806 0.2499261
vt 0.6270406 0.3676023
vt 0.6268987 0.3753147
vt 0.3784377 0.3755203
vt 0.3770648 0.3630038
vt 0.2496056 0.3774312
vt 0.2498585 0.3930692
vt 0.1576187 0.3745933
vt 0.1224304 0.3749167
vt 0.1244101 0.395875
vt 0.2663178 0.3730981
vt 0.6241635 0.2491841
vt 0.6241635 0.3758158
vt 0.7507892 0.3755404
vt 0.7499806 0.2499261
vt 0.6270406 0.3676023
vt 0.6268987 0.3753147
vt 0.3784377 0.3755203
vt 0.3770648 0.3630038
vt 0.2496056 0.3774312
vt 0.2498585 0.3930692
vt 0.1576187 0.3745933
vt 0.1224304 0.3749167
vt 0.1244101 0.395875
vt 0.2663178 0.3730981
vt 0.6241635 0.2491841
vt 0.6241635 0.3758158
vt 0.7507892 0.3755404
vt 0.7499806 0.2499261
vt 0.6270406 0.3676023
vt 0.6268987 0.3753147
vt 0.3784377 0.3755203
vt 0.3770648 0.3630038
vt 0.2496056 0.3774312
vt 0.2498585 0.3930692
vt 0.1576187 0.3745933
vt 0.1224304 0.3749167
vt 0.1244101 0.395875
vt 0.2663178 0.3730981
vt 0.6241635 0.2491841
vt 0.6241635 0.3758158
vt 0.7507892 0.3755404
vt 0.7499806 0.2499261
vt 0.6270406 0.3676023
vt 0.6268987 0.3753147
vt 0.3784377 0.3755203
vt 0.3770648 0.3630038
vt 0.2496056 0.3774312
vt 0.2498585 0.3930692
vt 0.1576187 0.3745933
vt 0.1224304 0.3749167
vt 0.1244101 0.395875
vt 0.2663178 0.3730981
vt 0.6241635 0.2491841
vt 0.6241635 0.3758158
vt 0.7507892 0.3755404
vt 0.7499806 0.2499261
vt 0.6270406 0.3676023
vt 0.6268987 0.3753147
vt 0.3784377 0.3755203
vt 0.3770648 0.3630038
vn 0.989885 -0.01345058 -0.1412351
vn 0.989885 -0.01345058 -0.1412351
vn 0.989885 -0.01345058 -0.1412351
vn -0.9908908 0.02166178 0.1329162
vn -0.9908908 0.02166178 0.1329162
vn -0.9908908 0.02166178 0.1329162
vn 0.01148318 -0.1337538 -0.9909483
vn 0.01148318 -0.1337538 -0.9909483
vn 0.01148318 -0.1337538 -0.9909483
vn 0.01148318 -0.1337538 -0.9909483
vn 0.00410301 0.9958494 -0.09092455
vn 0.00410301 0.9958494 -0.09092455
vn 0.00410301 0.9958494 -0.09092455
vn 0.00410301 0.9958494 -0.09092455
vn 0.1412381 -0.9898844 -0.01345712
vn 0.1412381 -0.9898844 -0.01345712
vn 0.1412381 -0.9898844 -0.01345712
vn -0.1329192 0.9908902 0.0216683
vn -0.1329192 0.9908902 0.0216683
vn -0.1329192 0.9908902 0.0216683
vn 0.9909478 -0.01147952 -0.133757
vn 0.9909478 -0.01147952 -0.133757
vn 0.9909478 -0.01147952 -0.133757
vn 0.9909478 -0.01147952 -0.133757
vn 0.09092805 -0.004108877 0.9958492
vn 0.09092805 -0.004108877 0.9958492
vn 0.09092805 -0.004108877 0.9958492
vn 0.09092805 -0.004108877 0.9958492
vn -0.1412436 -0.9898838 0.01344203
vn -0.1412436 -0.9898838 0.01344203
vn -0.1412436 -0.9898838 0.01344203
vn 0.1329247 0.9908897 -0.02165322
vn 0.1329247 0.9908897 -0.02165322
vn 0.1329247 0.9908897 -0.02165322
vn -0.9909483 -0.01147584 0.1337541
vn -0.9909483 -0.01147584 0.1337541
vn -0.9909483 -0.01147584 0.1337541
vn -0.9909483 -0.01147584 0.1337541
vn -0.09092537 -0.004093562 -0.9958493
vn -0.09092537 -0.004093562 -0.9958493
vn -0.09092537 -0.004093562 -0.9958493
vn -0.09092537 -0.004093562 -0.9958493
vn 0.141238 -0.01345066 0.9898845
vn 0.141238 -0.01345066 0.9898845
vn 0.141238 -0.01345066 0.9898845
vn -0.1329192 0.02166186 -0.9908903
vn -0.1329192 0.02166186 -0.9908903
vn -0.1329192 0.02166186 -0.9908903
vn 0.9909483 -0.1337537 0.01148032
vn 0.9909483 -0.1337537 0.01148032
vn 0.9909483 -0.1337537 0.01148032
vn 0.9909483 -0.1337537 0.01148032
vn 0.09092468 0.9958494 0.004102957
vn 0.09092468 0.9958494 0.004102957
vn 0.09092468 0.9958494 0.004102957
vn 0.09092468 0.9958494 0.004102957
vn -0.1412437 0.9898836 -0.01344767
vn -0.1412437 0.9898836 -0.01344767
vn -0.1412437 0.9898836 -0.01344767
vn 0.1329249 -0.9908895 0.02165887
vn 0.1329249 -0.9908895 0.02165887
vn 0.1329249 -0.9908895 0.02165887
vn -0.9909483 0.01147461 -0.1337541
vn -0.9909483 0.01147461 -0.1337541
vn -0.9909483 0.01147461 -0.1337541
vn -0.9909483 0.01147461 -0.1337541
vn -0.09092528 0.004099203 0.9958495
vn -0.09092528 0.004099203 0.9958495
vn -0.09092528 0.004099203 0.9958495
vn -0.09092528 0.004099203 0.9958495
vn 0.1412378 0.01345418 -0.9898843
vn 0.1412378 0.01345418 -0.9898843
vn 0.1412378 0.01345418 -0.9898843
vn -0.132919 -0.02166536 0.9908901
vn -0.132919 -0.02166536 0.9908901
vn -0.132919 -0.02166536 0.9908901
vn 0.9909477 0.1337567 -0.01147991
vn 0.9909477 0.1337567 -0.01147991
vn 0.9909477 0.1337567 -0.01147991
vn 0.9909477 0.1337567 -0.01147991
vn 0.09092779 -0.995849 -0.004105984
vn 0.09092779 -0.995849 -0.004105984
vn 0.09092779 -0.995849 -0.004105984
vn 0.09092779 -0.995849 -0.004105984
g Combined Mesh (root: scene) 10_0
f 3/3/3 2/2/2 1/1/1
f 6/6/6 5/5/5 4/4/4
f 9/9/9 8/8/8 7/7/7
f 10/10/10 9/9/9 7/7/7
f 13/13/13 12/12/12 11/11/11
f 14/14/14 13/13/13 11/11/11
g Combined Mesh (root: scene) 10_1
f 17/17/17 16/16/16 15/15/15
f 20/20/20 19/19/19 18/18/18
f 23/23/23 22/22/22 21/21/21
f 24/24/24 23/23/23 21/21/21
f 27/27/27 26/26/26 25/25/25
f 28/28/28 27/27/27 25/25/25
g Combined Mesh (root: scene) 10_2
f 31/31/31 30/30/30 29/29/29
f 34/34/34 33/33/33 32/32/32
f 37/37/37 36/36/36 35/35/35
f 38/38/38 37/37/37 35/35/35
f 41/41/41 40/40/40 39/39/39
f 42/42/42 41/41/41 39/39/39
g Combined Mesh (root: scene) 10_3
f 45/45/45 44/44/44 43/43/43
f 48/48/48 47/47/47 46/46/46
f 51/51/51 50/50/50 49/49/49
f 52/52/52 51/51/51 49/49/49
f 55/55/55 54/54/54 53/53/53
f 56/56/56 55/55/55 53/53/53
g Combined Mesh (root: scene) 10_4
f 59/59/59 58/58/58 57/57/57
f 62/62/62 61/61/61 60/60/60
f 65/65/65 64/64/64 63/63/63
f 66/66/66 65/65/65 63/63/63
f 69/69/69 68/68/68 67/67/67
f 70/70/70 69/69/69 67/67/67
g Combined Mesh (root: scene) 10_5
f 73/73/73 72/72/72 71/71/71
f 76/76/76 75/75/75 74/74/74
f 79/79/79 78/78/78 77/77/77
f 80/80/80 79/79/79 77/77/77
f 83/83/83 82/82/82 81/81/81
f 84/84/84 83/83/83 81/81/81
