g Combined Mesh (root: scene) 3
v 215 2.05 76.08503
v 215 2.05 78.08503
v 207 2.05 76.08503
v 205 2.05 78.08503
v 200 2.0502 70
v 206 2.0501 68
v 204 2.0501 70
v 198 2.0502 68
v 188 2.0504 78
v 197 2.0503 76
v 199 2.0503 78
v 190.25 2.0504 76
v 188 2.050499 64
v 190.25 2.050499 66
v 194 2.050599 64
v 196 2.050599 66
v 194 2.050699 58
v 196 2.050699 56
v 188 2.050799 58
v 190 2.050799 56
v 188 2.050899 54
v 194 2.050999 54
v 196 2.050699 56
v 194 2.051099 50
v 196 2.050699 56
v 194 2.050999 54
v 196 2.050799 52
v 196 2.051199 50
v 196 2.050799 52
v 194 2.051099 50
v 198 2.050899 52
v 196 2.051299 48
v 198 2.050899 52
v 196 2.051199 50
v 198 2.050999 46
v 192.75 2.051399 48
v 193.75 2.051249 47
v 196 2.051299 48
v 194.75 2.051099 46
v 198 2.050999 46
v 192.25 2.051349 47
v 191.25 2.051498 48
v 188.75 2.051598 48
v 189.75 2.051449 47
v 190.75 2.051299 46
v 188 2.051698 48
v 188 2.051548 47
v 188.25 2.051399 44.25
v 188 2.051548 47
v 190.75 2.051299 46
v 194.25 2.051399 43.75
v 194.75 2.051099 46
v 195.125 2.051299 43.75
v 196 2.051199 43.75
v 194.25 2.051399 42.75
v 196 2.051299 42
v 193.25 2.051498 42.75
v 194.25 2.051399 43.75
v 195.125 2.051299 43.75
v 192 2.051598 41.25
v 194.25 2.051498 42
v 194.25 2.051498 42
v 195.25 2.051399 40
v 199 2.051498 40
v 196 2.051299 42
v 195.25 2.051399 40
v 201 2.051399 42
v 199 2.051598 37
v 200 2.051548 38
v 201 2.051498 39
v 199.5 2.051648 36.5
v 200 2.051598 37
v 199 2.051698 36
v 199 2.051798 35
v 199.5 2.051748 35
v 200 2.051698 35.5
v 195.25 2.051798 36
v 195.25 2.051898 35
v 193.75 2.051998 35
v 195.25 2.051798 36
v 195 2.051898 37
v 193.75 2.051998 35
v 191.75 2.051998 35.25
v 195 2.051898 37
v 190.75 2.052098 33.25
v 190.5 2.052098 37.5
v 189.5 2.052198 35
v 189.5 2.052198 37.5
v 188 2.052597 38.25
v 189.5 2.052198 35
v 189.5 2.052198 37.5
v 187.75 2.052397 35
v 189.5 2.052198 39
v 188.75 2.052298 39
v 190.75 2.052298 40.5
v 188.75 2.052298 39
v 189.5 2.052198 39
v 189.5 2.052397 40.25
v 188 2.052397 43.5
v 189.5 2.052397 40.25
v 190.75 2.052298 40.5
v 188 2.052497 39.5
v 188 2.052597 38.25
v 188.75 2.052298 39
v 188 2.052497 39.5
v 204 2.051698 37
v 206 2.051598 39
v 204 2.051798 35
v 206 2.051698 35
v 205 2.05005 72
v 207 2.05005 70
v 206 2.050075 70
v 204 2.050075 72
v 197 2.05025 70
v 199 2.05025 72
v 198 2.050225 70
v 200 2.050225 72
v 215 1.99 56
v 213 1.99 58
v 207 1.99 56
v 209 1.99 58
v 207 1.9902 66
v 215 1.9901 64
v 215 1.9901 66
v 209 1.9902 64
v 215 1.9901 58
v 213 1.9901 60
v 215 1.9902 60
v 215.25 2.05 34.75
v 213.25 2.05 36.75
v 208.75 2.05 34.75
v 210.75 2.05 36.75
v 215.25 2.0501 44.25
v 213.25 2.0501 42.25
v 208.75 2.0502 44.25
v 210.75 2.0502 42.25
vt 0 0
vt 0 2
vt 8 0
vt 10 2
vt 15 -6.08503
vt 9 -8.08503
vt 11 -6.08503
vt 17 -8.08503
vt 27 1.91497
vt 18 -0.0850296
vt 16 1.91497
vt 24.75 -0.0850296
vt 27 -12.08503
vt 24.75 -10.08503
vt 21 -12.08503
vt 19 -10.08503
vt 21 -18.08503
vt 19 -20.08503
vt 27 -18.08503
vt 25 -20.08503
vt 27 -22.08503
vt 21 -22.08503
vt 19 -20.08503
vt 21 -26.08503
vt 19 -20.08503
vt 21 -22.08503
vt 19 -24.08503
vt 19 -26.08503
vt 19 -24.08503
vt 21 -26.08503
vt 17 -24.08503
vt 19 -28.08503
vt 17 -24.08503
vt 19 -26.08503
vt 17 -30.08503
vt 22.25 -28.08503
vt 21.25 -29.08503
vt 19 -28.08503
vt 20.25 -30.08503
vt 17 -30.08503
vt 22.75 -29.08503
vt 23.75 -28.08503
vt 26.25 -28.08503
vt 25.25 -29.08503
vt 24.25 -30.08503
vt 27 -28.08503
vt 27 -29.08503
vt 26.75 -31.83503
vt 27 -29.08503
vt 24.25 -30.08503
vt 20.75 -32.33503
vt 20.25 -30.08503
vt 19.875 -32.33503
vt 19 -32.33503
vt 20.75 -33.33503
vt 19 -34.08503
vt 21.75 -33.33503
vt 20.75 -32.33503
vt 19.875 -32.33503
vt 23 -34.83503
vt 20.75 -34.08503
vt 20.75 -34.08503
vt 19.75 -36.08503
vt 16 -36.08503
vt 19 -34.08503
vt 19.75 -36.08503
vt 14 -34.08503
vt 16 -39.08503
vt 15 -38.08503
vt 14 -37.08503
vt 15.5 -39.58503
vt 15 -39.08503
vt 16 -40.08503
vt 16 -41.08503
vt 15.5 -41.08503
vt 15 -40.58503
vt 19.75 -40.08503
vt 19.75 -41.08503
vt 21.25 -41.08503
vt 19.75 -40.08503
vt 20 -39.08503
vt 21.25 -41.08503
vt 23.25 -40.83503
vt 20 -39.08503
vt 24.25 -42.83503
vt 24.5 -38.58503
vt 25.5 -41.08503
vt 25.5 -38.58503
vt 27 -37.83503
vt 25.5 -41.08503
vt 25.5 -38.58503
vt 27.25 -41.08503
vt 25.5 -37.08503
vt 26.25 -37.08503
vt 24.25 -35.58503
vt 26.25 -37.08503
vt 25.5 -37.08503
vt 25.5 -35.83503
vt 27 -32.58503
vt 25.5 -35.83503
vt 24.25 -35.58503
vt 27 -36.58503
vt 27 -37.83503
vt 26.25 -37.08503
vt 27 -36.58503
vt 11 -39.08503
vt 9 -37.08503
vt 11 -41.08503
vt 9 -41.08503
vt 10 -4.08503
vt 8 -6.08503
vt 9 -6.08503
vt 11 -4.08503
vt 18 -6.08503
vt 16 -4.08503
vt 17 -6.08503
vt 15 -4.08503
vt -3.5 0
vt -1.5 2
vt 4.5 0
vt 2.5 2
vt 4.5 10
vt -3.5 8
vt -3.5 10
vt 2.5 8
vt -3.5 2
vt -1.5 4
vt -3.5 4
vt -2 0
vt 0 2
vt 4.5 0
vt 2.5 2
vt -2 9.5
vt -1.050472E-09 7.5
vt 4.5 9.5
vt 2.5 7.5
vn 0 1 0
vn 0 1 0
vn 0 1 0
vn 0 1 0
vn 1.873076E-05 1 6.243587E-06
vn 1.873076E-05 1 6.243587E-06
vn 2.497435E-05 1 2.497435E-05
vn 1.248717E-05 1 -1.248717E-05
vn 1.19406E-05 1 3.783992E-06
vn 1.19406E-05 1 3.783992E-06
vn 9.08158E-06 1 -9.08158E-06
vn 1.479961E-05 1 1.664956E-05
vn -1.268538E-06 1 8.562633E-06
vn -8.879768E-06 1 9.989739E-06
vn -1.701151E-05 1 1.805211E-05
vn -1.737346E-05 1 1.737346E-05
vn -3.329913E-06 1 1.331965E-05
vn 9.989739E-06 1 9.989739E-06
vn 1.664956E-05 1 1.664956E-05
vn 1.664956E-05 1 1.664956E-05
vn 2.497435E-05 1 2.497435E-05
vn 0 1 9.989738E-05
vn 1.664956E-05 1 0.0001331965
vn 0.0001248717 1 2.497435E-05
vn 0.0001248717 1 2.497435E-05
vn 0.0001248717 1 2.497435E-05
vn 0.0001248717 1 2.497435E-05
vn -4.994869E-05 1 0.0001997948
vn -4.994869E-05 1 0.0001997948
vn -4.994869E-05 1 0.0001997948
vn -4.994869E-05 1 0.0001997948
vn 0.0001331965 1 3.329913E-05
vn 0.0001331965 1 3.329913E-05
vn 9.989738E-05 1 4.994869E-05
vn 0.0001664956 1 1.664956E-05
vn 3.073766E-05 1 -0.0001191084
vn 3.073766E-05 1 -0.0001191084
vn 3.073766E-05 1 -0.0001191084
vn 3.073766E-05 1 -0.0001191084
vn 3.073766E-05 1 -0.0001191084
vn 6.659826E-05 1 -8.324782E-05
vn 6.659826E-05 1 -8.324782E-05
vn 3.99828E-05 1 -0.0001098037
vn 4.000664E-05 1 -0.0001097202
vn 4.994869E-05 1 -0.0001000166
vn 9.514037E-05 1 -8.312861E-05
vn 5.708422E-05 1 -0.0001497269
vn 8.525568E-05 1 -6.470961E-05
vn 5.708422E-05 1 -4.934336E-05
vn 4.994869E-05 1 0.0001220968
vn 8.205857E-05 1 0.0001149613
vn 9.276186E-05 1 0.0001125828
vn 0.0001141684 1 0.0001078257
vn 0.0001141684 1 0.0001078257
vn 7.265264E-05 1 3.632632E-05
vn 9.341054E-05 1 4.670527E-05
vn 9.989738E-05 1 0
vn 0.0001070329 1 0
vn 0.0001141684 1 0
vn 4.994869E-05 1 5.827348E-05
vn 0 1 0.0001331965
vn 0.0001141684 1 7.016602E-05
vn 0.0001141684 1 7.135528E-06
vn -2.330939E-05 1 6.493329E-05
vn -2.330939E-05 1 6.493329E-05
vn -2.66393E-05 1 5.993843E-05
vn -1.997948E-05 1 6.992817E-05
vn 1.676877E-05 1 3.329913E-05
vn 1.66893E-05 1 3.325939E-05
vn 1.66297E-05 1 3.325939E-05
vn 5.00679E-05 1 5.00679E-05
vn 2.491474E-05 1 5.00679E-05
vn -2.384186E-07 1 9.989738E-05
vn 4.971027E-05 1 8.324783E-05
vn 9.965897E-05 1 6.659826E-05
vn 3.353755E-05 1 6.659826E-05
vn 2.66393E-05 1 9.989738E-05
vn 2.66393E-05 1 9.989738E-05
vn 6.659826E-05 1 9.989738E-05
vn 0.0001712527 1 -5.708422E-05
vn 0.0001712527 1 -5.708422E-05
vn 0.0001712527 1 -5.708422E-05
vn 5.833735E-06 1 4.666988E-05
vn 5.791153E-06 1 4.632922E-05
vn 5.876317E-06 1 4.701053E-05
vn 8.823595E-05 1 5.19035E-06
vn 8.709003E-05 1 5.122943E-06
vn 9.989738E-05 1 0
vn 0.0001902807 1 -3.512875E-05
vn 0.0001902807 1 -3.512875E-05
vn 0.000266393 0.9999999 0
vn 0.0001141684 1 -7.02575E-05
vn 0.000116547 1 0
vn 0.0001331965 1 0
vn 0.0001210877 1 -0.0001614503
vn 0.0001210877 1 -0.0001614503
vn 0.0001331965 1 -0.0001775954
vn 0.000108979 1 -0.0001453053
vn 7.316428E-05 1 3.376813E-05
vn 7.316428E-05 1 3.376813E-05
vn 7.316428E-05 1 3.376813E-05
vn 0.0001031678 1 -7.313916E-05
vn 0.0003152317 0.9999999 8.435779E-05
vn 0.0003152317 0.9999999 8.435779E-05
vn 0.0003196716 0.9999999 7.99179E-05
vn -2.247691E-05 1 6.618202E-05
vn -1.997948E-05 1 6.992817E-05
vn 2.497435E-05 1 3.746152E-05
vn 4.994869E-05 1 2.497435E-05
vn 8.188865E-06 1 8.188865E-06
vn 8.188865E-06 1 8.188865E-06
vn 1.251698E-05 1 1.251698E-05
vn 1.251698E-05 1 1.251698E-05
vn 8.34465E-06 1 -8.34465E-06
vn 8.34465E-06 1 -8.34465E-06
vn 2.479553E-05 1 -2.479553E-05
vn 2.479553E-05 1 -2.479553E-05
vn 0 1 0
vn 0 1 0
vn 0 1 0
vn 0 1 0
vn 1.456837E-05 1 8.324782E-06
vn 1.456837E-05 1 8.324782E-06
vn 1.248717E-05 1 0
vn 1.664956E-05 1 1.664956E-05
vn -4.994869E-05 1 -4.994869E-05
vn -4.994869E-05 1 -4.994869E-05
vn -4.994869E-05 1 -4.994869E-05
vn 0 1 0
vn 0 1 0
vn 0 1 0
vn 0 1 0
vn 3.823823E-06 1 -1.433934E-05
vn 1.816316E-05 1 -1.816316E-05
vn 2.766389E-05 1 1.229506E-05
vn 3.995896E-05 1 3.995896E-05
g Combined Mesh (root: scene) 3_0
f 3/3/3 2/2/2 1/1/1
f 3/3/3 4/4/4 2/2/2
f 7/7/7 6/6/6 5/5/5
f 6/6/6 8/8/8 5/5/5
f 11/11/11 10/10/10 9/9/9
f 10/10/10 12/12/12 9/9/9
f 9/9/9 12/12/12 13/13/13
f 12/12/12 14/14/14 13/13/13
f 13/13/13 14/14/14 15/15/15
f 14/14/14 16/16/16 15/15/15
f 15/15/15 16/16/16 17/17/17
f 16/16/16 18/18/18 17/17/17
f 17/17/17 18/18/18 19/19/19
f 18/18/18 20/20/20 19/19/19
f 19/19/19 20/20/20 21/21/21
f 21/21/21 20/20/20 22/22/22
f 20/20/20 23/23/23 22/22/22
f 26/26/26 25/25/25 24/24/24
f 25/25/25 27/27/27 24/24/24
f 30/30/30 29/29/29 28/28/28
f 29/29/29 31/31/31 28/28/28
f 34/34/34 33/33/33 32/32/32
f 33/33/33 35/35/35 32/32/32
f 38/38/38 37/37/37 36/36/36
f 38/38/38 39/39/39 37/37/37
f 38/38/38 40/40/40 39/39/39
f 37/37/37 39/39/39 41/41/41
f 36/36/36 41/41/41 42/42/42
f 36/36/36 37/37/37 41/41/41
f 42/42/42 41/41/41 43/43/43
f 41/41/41 44/44/44 43/43/43
f 41/41/41 39/39/39 44/44/44
f 39/39/39 45/45/45 44/44/44
f 43/43/43 44/44/44 46/46/46
f 44/44/44 47/47/47 46/46/46
f 48/48/48 44/44/44 45/45/45
f 48/48/48 49/49/49 44/44/44
f 52/52/52 51/51/51 50/50/50
f 52/52/52 53/53/53 51/51/51
f 54/54/54 53/53/53 52/52/52
f 53/53/53 56/56/56 55/55/55
f 53/53/53 54/54/54 56/56/56
f 58/58/58 55/55/55 57/57/57
f 59/59/59 55/55/55 58/58/58
f 57/57/57 55/55/55 60/60/60
f 55/55/55 61/61/61 60/60/60
f 55/55/55 56/56/56 62/62/62
f 56/56/56 63/63/63 62/62/62
f 66/66/66 65/65/65 64/64/64
f 65/65/65 67/67/67 64/64/64
f 69/69/69 68/68/68 64/64/64
f 70/70/70 69/69/69 64/64/64
f 67/67/67 70/70/70 64/64/64
f 72/72/72 71/71/71 69/69/69
f 70/70/70 72/72/72 69/69/69
f 71/71/71 73/73/73 68/68/68
f 69/69/69 71/71/71 68/68/68
f 73/73/73 71/71/71 74/74/74
f 71/71/71 75/75/75 74/74/74
f 71/71/71 72/72/72 75/75/75
f 72/72/72 76/76/76 75/75/75
f 73/73/73 74/74/74 77/77/77
f 74/74/74 78/78/78 77/77/77
f 79/79/79 77/77/77 78/78/78
f 82/82/82 81/81/81 80/80/80
f 84/84/84 79/79/79 83/83/83
f 79/79/79 85/85/85 83/83/83
f 83/83/83 85/85/85 86/86/86
f 85/85/85 87/87/87 86/86/86
f 86/86/86 87/87/87 88/88/88
f 91/91/91 90/90/90 89/89/89
f 90/90/90 92/92/92 89/89/89
f 86/86/86 88/88/88 93/93/93
f 88/88/88 94/94/94 93/93/93
f 97/97/97 96/96/96 95/95/95
f 96/96/96 98/98/98 95/95/95
f 101/101/101 100/100/100 99/99/99
f 99/99/99 98/98/98 102/102/102
f 98/98/98 96/96/96 102/102/102
f 105/105/105 104/104/104 103/103/103
f 104/104/104 91/91/91 103/103/103
f 72/72/72 70/70/70 106/106/106
f 70/70/70 107/107/107 106/106/106
f 106/106/106 107/107/107 108/108/108
f 107/107/107 109/109/109 108/108/108
f 3/3/3 111/111/111 110/110/110
f 3/3/3 110/110/110 4/4/4
f 7/7/7 112/112/112 6/6/6
f 112/112/112 7/7/7 113/113/113
f 113/113/113 111/111/111 112/112/112
f 111/111/111 113/113/113 110/110/110
f 115/115/115 114/114/114 10/10/10
f 11/11/11 115/115/115 10/10/10
f 117/117/117 116/116/116 114/114/114
f 115/115/115 117/117/117 114/114/114
f 5/5/5 8/8/8 116/116/116
f 117/117/117 5/5/5 116/116/116
g Combined Mesh (root: scene) 3_1
f 120/120/120 119/119/119 118/118/118
f 120/120/120 121/121/121 119/119/119
f 124/124/124 123/123/123 122/122/122
f 123/123/123 125/125/125 122/122/122
f 122/122/122 125/125/125 120/120/120
f 125/125/125 121/121/121 120/120/120
f 118/118/118 119/119/119 126/126/126
f 119/119/119 127/127/127 126/126/126
f 127/127/127 128/128/128 126/126/126
g Combined Mesh (root: scene) 3_2
f 131/131/131 130/130/130 129/129/129
f 131/131/131 132/132/132 130/130/130
f 129/129/129 130/130/130 133/133/133
f 130/130/130 134/134/134 133/133/133
f 133/133/133 134/134/134 135/135/135
f 134/134/134 136/136/136 135/135/135
f 135/135/135 136/136/136 131/131/131
f 136/136/136 132/132/132 131/131/131
