g Combined Mesh (root: scene) 11
v -4 6 0
v -12 6 0
v -4 8 0
v -12 8 0
v -4 6 -8
v -4 6 0
v -4 8 -8
v -4 8 0
v -5 6 -7
v -11 6 -7
v -5 0 -7
v -11 0 -7
v -5 6 -1
v -5 6 -7
v -5 0 -1
v -5 0 -7
v -11 6 -7
v -11 6 -1
v -11 0 -7
v -11 0 -1
v -11 6 -1
v -5 6 -1
v -11 0 -1
v -5 0 -1
v -4 6 0
v -4 6 -8
v -5 6 -1
v -5 6 -7
v -12 6 -8
v -11 6 -7
v -12 6 0
v -11 6 -1
v -12 6 0
v -12 6 -8
v -12 7.5 -8
v -12 8 0
v -12 8 -7.5
v -11.5 8 -8
v -12 7.5 -8
v -12 6 -8
v -4 6 -8
v -4 8 -8
v -11.5 8 -8
v -12 8 -7.5
v -12 7.5 -8
v -11.5 8 -8
v -4 8 -8
v -4 8 0
v -12 8 0
v -12 8 -7.5
v 21 46 48
v 20.99999 46 50
v 21 47 48
v 20.99999 47 50
v 21 47 48
v 20.99999 47 50
v 19 47 48
v 18.99999 47 50
v 19 47 48
v 18.99999 47 50
v 19 48 48
v 18.99999 48 50
v 19 48 48
v 18.99999 48 50
v 17 48 48
v 16.99999 48 50
v 17 48 48
v 16.99999 48 50
v 17 49 48
v 16.99999 49 50
v 17 49 48
v 16.99999 49 50
v 15 49 48
v 14.99999 49 50
v 15 49 48
v 14.99999 49 50
v 15 50 48
v 14.99999 50 50
v 15 50 48
v 14.99999 50 50
v 13 50 47.99999
v 12.99999 50 50
v 20.99999 46 50
v 18.99999 46 50
v 20.99999 47 50
v 18.99999 47 50
v 16.99999 46 50
v 16.99999 48 50
v 18.99999 48 50
v 14.99999 46 50
v 14.99999 49 50
v 16.99999 49 50
v 12.99999 46 50
v 12.99999 50 50
v 14.99999 50 50
v 21 47 48
v 19 46 48
v 21 46 48
v 19 47 48
v 17 46 48
v 17 48 48
v 19 48 48
v 15 46 48
v 15 49 48
v 17 49 48
v 13 46 47.99999
v 13 50 47.99999
v 15 50 48
v 12.99999 46 50
v 13 46 47.99999
v 12.99999 50 50
v 13 50 47.99999
v 32 32 54
v 30 32 54
v 32 34 54
v 30 34 54
v 30 32 54
v 30 32 54
v 30 34 54
v 30 32 54
v 30 34 54
v 30 34 54
v 32 32 54
v 32 32 54
v 32 34 54
v 32 32 54
v 32 34 54
v 32 34 54
v 32 34 54
v 30 34 54
v 32 34 54
v 30 34 54
v 30 34 54
v 32 34 54
v 32 32 54
v 30 32 54
v 32 32 54
v 30 32 54
v 30 32 54
v 32 32 54
v 30 32 54
v 32 32 54
v 30 32.00005 47.9999
v 32 32.00005 47.9999
v 30 34 54
v 30 32 54
v 30 34 47.9999
v 30 32.00005 47.9999
v 32 32 54
v 32 34 54
v 32 32.00005 47.9999
v 32 34 47.9999
v 32 34 54
v 30 34 54
v 32 34 47.9999
v 30 34 47.9999
v 23 34 47.9999
v 23 32 47.9999
v 23 34 45.9999
v 23 32 45.9999
v 30 34 47.9999
v 30 32.00005 47.9999
v 23 34 47.9999
v 23 32 47.9999
v 30 34 45.9999
v 30 34 47.9999
v 23 34 45.9999
v 23 34 47.9999
v 30 32.00005 47.9999
v 30 32.00005 45.9999
v 23 32 47.9999
v 23 32 45.9999
v 30 32.00005 45.9999
v 30 34 45.9999
v 23 32 45.9999
v 23 34 45.9999
v 30 32.00005 47.9999
v 32 34 47.9999
v 30 34 47.9999
v 32 32.00005 47.9999
v 30 32.00005 45.9999
v 30 34 47.9999
v 30 34 45.9999
v 30 32.00005 47.9999
v 1 32 48
v -6 32.00008 48
v 1 34 48
v -6 34.00005 48
v -6 32.00005 46
v 1 32 46
v -6 34.00005 46
v 1 34 46
v 1 32 46
v 1 32 48
v 1 34 46
v 1 34 48
v 1 34 48
v -6 34.00005 48
v 1 34 46
v -6 34.00005 46
v 1 32 46
v -6 32.00005 46
v 1 32 48
v -6 32.00008 48
v -8.000099 32.00005 48
v -8.000099 32 46
v -6 34 58.2
v -6 32 58.2
v -8 34 58.2
v -8 32 58.2
v -6 34.00005 48
v -6 32.00008 48
v -6 34 54.2
v -6 32 54.2
v -8.000099 34 48
v -6 34.00005 48
v -8 34 54.2
v -6 34 54.2
v -6 32 54.2
v -8 32 54.2
v -8.000099 32.00005 48
v -8.000099 34 48
v -8 32 54.2
v -8 34 54.2
v -8.000099 32.00005 48
v -6 34.00005 48
v -8.000099 34 48
v -6 32.00008 48
v -6 32.00008 48
v -6 34.00005 46
v -6 34.00005 48
v -6 32.00005 46
v -6 34 58.2
v -6 32 58.2
v -8 34 54.2
v -6 34 54.2
v -8 34 58.2
v -6 34 58.2
v -6 32 58.2
v -8 32 58.2
v -8 32 58.2
v -8 34 58.2
v 20 6 4
v 4 6 4
v 20 8 4
v 4 8 4
v 4 6 4
v 4 6 -12
v 4 8 4
v 4 8 -12
v 4 6 -12
v 20 6 -12
v 4 8 -12
v 20 8 -12
v 20 6 -12
v 20 6 4
v 20 8 -12
v 20 8 4
v 15.2549 8.000041 -0.7450967
v 8.745096 8.000041 -0.7450967
v 15.2549 8.000041 -7.254903
v 8.745096 8.000041 -7.254903
v 20 6 -12
v 4 6 -12
v 20 6 4
v 4 6 4
v 20 8 4
v 4 8 4
v 20 8 -12
v 20 8 4
v 4 8 4
v 4 8 -12
v 4 8 -12
v 20 8 -12
v 3 46 50
v 2.999994 46 47.99999
v 3 47 50
v 2.999994 47 47.99999
v 3 47 50
v 2.999994 47 47.99999
v 5.000001 47 50
v 4.999994 47 47.99999
v 5.000001 47 50
v 4.999994 47 47.99999
v 5.000001 48 50
v 4.999994 48 47.99999
v 5.000001 48 50
v 4.999994 48 47.99999
v 7.000002 48 50
v 6.999995 48 47.99999
v 7.000002 48 50
v 6.999995 48 47.99999
v 7.000002 49 50
v 6.999995 49 47.99999
v 7.000002 49 50
v 6.999995 49 47.99999
v 9.000004 49 50
v 8.999995 49 47.99999
v 9.000004 49 50
v 8.999995 49 47.99999
v 9.000004 50 50
v 8.999995 50 47.99999
v 9.000004 50 50
v 8.999995 50 47.99999
v 11 50 50
v 11 50 47.99999
v 2.999994 46 47.99999
v 4.999994 46 47.99999
v 2.999994 47 47.99999
v 4.999994 47 47.99999
v 6.999995 46 47.99999
v 6.999995 48 47.99999
v 4.999994 48 47.99999
v 6.999995 46 47.99999
v 8.999995 46 47.99999
v 6.999995 48 47.99999
v 8.999995 49 47.99999
v 6.999995 49 47.99999
v 8.999995 46 47.99999
v 11 46 47.99999
v 8.999995 49 47.99999
v 11 50 47.99999
v 8.999995 50 47.99999
v 3 47 50
v 5.000001 46 50
v 3 46 50
v 5.000001 47 50
v 7.000002 46 50
v 7.000002 48 50
v 5.000001 48 50
v 9.000004 46 50
v 9.000004 49 50
v 7.000002 49 50
v 11 46 50
v 11 50 50
v 9.000004 50 50
v 11 46 47.99999
v 11 46 50
v 11 50 47.99999
v 11 50 50
v -5 -5 -5
v -11 -5 -5
v -5 0 -5
v -11 0 -5
v -11 -5 -5
v -11 -5 -7
v -11 0 -5
v -11 0 -7
v -11 -5 -7
v -5 -5 -7
v -11 0 -7
v -5 0 -7
v -5 -5 -7
v -5 -5 -5
v -5 0 -7
v -5 0 -5
v -5 0 -5
v -11 0 -5
v -5 0 -7
v -11 0 -7
v -5 -5 -7
v -11 -5 -7
v -5 -5 -5
v -11 -5 -5
v 4 6 -3
v -4 6 -3
v 4 8 -3
v -4 8 -3
v -4 6 -3
v -4 6 -5
v -4 8 -3
v -4 8 -5
v -4 6 -5
v 4 6 -5
v -4 8 -5
v 4 8 -5
v 4 6 -5
v 4 6 -3
v 4 8 -5
v 4 8 -3
v 4 8 -3
v -4 8 -3
v 4 8 -5
v -4 8 -5
v 4 6 -5
v -4 6 -5
v 4 6 -3
v -4 6 -3
vt 0 6
vt -8 6
vt 0 8
vt -8 8
vt 8 6
vt 0 6
vt 8 8
vt 0 8
vt 1 6
vt 7 6
vt 1 0
vt 7 0
vt 1 6
vt 7 6
vt 1 0
vt 7 0
vt -7 6
vt -1 6
vt -7 0
vt -1 0
vt -7 6
vt -1 6
vt -7 0
vt -1 0
vt 0 0
vt 0 -8
vt -1 -1
vt -1 -7
vt -8 -8
vt -7 -7
vt -8 0
vt -7 -1
vt 0 6
vt -8 6
vt -8 7.5
vt 0 8
vt -7.5 8
vt 7.5 8
vt 8 7.5
vt 8 6
vt 0 6
vt 0 8
vt -0.3535534 0.2041241
vt 0.3535534 0.2041241
vt 0 -0.4082483
vt 7.5 -8
vt 0 -8
vt 0 0
vt 8 0
vt 8 -7.5
vt 0 0
vt -2 0
vt 0 1
vt -2 1
vt 0 0
vt -2 8.34465E-06
vt 0 2
vt -2.000002 2.000008
vt -8.344643E-06 1
vt -2.00001 1
vt -8.344643E-06 2
vt -2.00001 2
vt 0 2
vt -2.000002 2.000008
vt 0 4
vt -2.000003 4.000009
vt -1.716611E-05 2
vt -2.000021 2
vt -1.716611E-05 3
vt -2.000021 3
vt 0 4
vt -2.000003 4.000009
vt 0 6
vt -2.000005 6.000009
vt -2.574914E-05 3
vt -2.000031 3
vt -2.574914E-05 4
vt -2.000031 4
vt 0 6
vt -2.000005 6.000009
vt 0 8
vt -2.000007 8.000009
vt -1.001358E-05 0
vt -2.00001 0
vt -1.001358E-05 1
vt -2.00001 1
vt -4.00001 0
vt -4.00001 2
vt -2.00001 2
vt -6.00001 0
vt -6.00001 3
vt -4.00001 3
vt -8.00001 0
vt -8.00001 4
vt -6.00001 4
vt 0 1
vt 2 0
vt 0 0
vt 2 1
vt 4 0
vt 4 2
vt 2 2
vt 6 0
vt 6 3
vt 4 3
vt 8 0
vt 8 4
vt 6 4
vt 2.000041 0
vt 3.433216E-05 0
vt 2.000041 4
vt 3.433216E-05 4
vt 0 0
vt -2 0
vt 0 2
vt -2 2
vt 0 0
vt 0 0
vt 0 0
vt 0 0
vt 0 0
vt 0 0
vt 0 0
vt 0 0
vt 0 0
vt 0 0
vt 0 0
vt 0 0
vt 0 0
vt 0 0
vt 0 0
vt 0 0
vt 0 0
vt 0 0
vt 0 0
vt 0 0
vt 0 0
vt 0 0
vt 0 0
vt 0 0
vt -2 -6
vt 0 -6
vt -2 -12.0001
vt 0 -12.0001
vt -6 2
vt -6 0
vt -12.0001 2
vt -12.0001 4.959106E-05
vt 6 0
vt 6 2
vt 12.0001 4.959106E-05
vt 12.0001 2
vt 0 -6
vt 2 -6
vt 0 -12.0001
vt 2 -12.0001
vt -12.0001 2
vt -12.0001 0
vt -14.0001 2
vt -14.0001 0
vt -2 2
vt -2 4.959106E-05
vt -9 2
vt -9 0
vt 2 -14.0001
vt 2 -12.0001
vt 9 -14.0001
vt 9 -12.0001
vt -2 -12.0001
vt -2 -14.0001
vt -9 -12.0001
vt -9 -14.0001
vt 2 4.959106E-05
vt 2 2
vt 9 0
vt 9 2
vt 2 4.959106E-05
vt 0 2
vt 2 2
vt 0 4.959106E-05
vt 14.0001 4.959106E-05
vt 12.0001 2
vt 14.0001 2
vt 12.0001 4.959106E-05
vt 5 0
vt -2 7.43866E-05
vt 5 2
vt -2 2.00005
vt 2 4.959106E-05
vt -5 0
vt 2 2.00005
vt -5 2
vt 2 0
vt 0 0
vt 2 2
vt 0 2
vt -4.999986 0
vt 2.000014 0
vt -4.999986 -2
vt 2.000014 -2
vt 5 -2
vt -2 -2
vt 5 0
vt -2 0
vt -4.000099 1.229622E-09
vt -4.000099 -2
vt -2 2
vt -2 0
vt -4 2
vt -4 0
vt 0 2.00005
vt 0 7.43866E-05
vt -6.2 2
vt -6.2 0
vt 4.00005 -7.933141E-10
vt 1.99995 -7.933141E-10
vt 3.99995 6.2
vt 1.99995 6.2
vt -2 6.2
vt -4 6.2
vt -6.399005E-05 4.959106E-05
vt -6.399005E-05 2
vt 6.199936 0
vt 6.199936 2
vt 4.000099 4.959106E-05
vt 2 2.00005
vt 4.000099 2
vt 2 7.43866E-05
vt 0 7.43866E-05
vt -2 2.00005
vt 0 2.00005
vt -2 4.959106E-05
vt -10.2 2
vt -10.2 0
vt 4 6.2
vt 2 6.2
vt 4 10.2
vt 2 10.2
vt -2 10.2
vt -4 10.2
vt 10.2 0
vt 10.2 2
vt 4 6
vt -12 6
vt 4 8
vt -12 8
vt 4 6
vt -12 6
vt 4 8
vt -12 8
vt 12 6
vt -4 6
vt 12 8
vt -4 8
vt 12 6
vt -4 6
vt 12 8
vt -4 8
vt 0.7450962 -0.7450967
vt 7.254904 -0.7450967
vt 0.7450962 -7.254903
vt 7.254904 -7.254903
vt 4 -12
vt -12 -12
vt 4 4
vt -12 4
vt -4 3.999931
vt 12 3.999931
vt -3.999931 -12
vt -3.999931 4
vt 11.99993 4
vt 11.99993 -12
vt 12 -11.99993
vt -4 -11.99993
vt -10 0
vt -12.00001 0
vt -10 1
vt -12.00001 1
vt -10 5.364418E-06
vt -12.00001 -5.570655E-12
vt -10 2.000006
vt -12.00001 2
vt -9.999995 1
vt -12 1
vt -9.999995 2
vt -12 2
vt -10 2.000006
vt -12.00001 2
vt -10 4.000006
vt -12.00001 4
vt -9.999988 2
vt -12 2
vt -9.999988 3
vt -12 3
vt -10 4.000006
vt -12.00001 4
vt -9.999999 6.000007
vt -12.00001 6
vt -9.999978 3
vt -11.99999 3
vt -9.999978 4
vt -11.99999 4
vt -9.999999 6.000007
vt -12.00001 6
vt -9.999998 8.000008
vt -12.00001 8
vt 5.570655E-12 0
vt -2 0
vt 5.570655E-12 1
vt -2 1
vt -4.000006 0
vt -4.000006 2
vt -2.000006 2
vt -3.999994 0
vt -5.999994 0
vt -3.999994 2
vt -5.999994 3
vt -3.999994 3
vt -6 0
vt -8 0
vt -6 3
vt -8 4
vt -6 4
vt 5.960467E-07 1
vt 2.000001 0
vt 5.960467E-07 0
vt 2.000001 1
vt 4.000001 0
vt 4.000001 2
vt 2.000001 2
vt 6.000002 0
vt 6.000002 3
vt 4.000001 3
vt 8.000003 0
vt 8.000003 4
vt 6.000002 4
vt 11.99998 0
vt 9.999968 0
vt 11.99998 4
vt 9.999968 4
vt 4 -3
vt -2 -3
vt 4 2
vt -2 2
vt -2 -3
vt -4 -3
vt -2 2
vt -4 2
vt 2 -3
vt -4 -3
vt 2 2
vt -4 2
vt 4 -3
vt 2 -3
vt 4 2
vt 2 2
vt -4 -2
vt 2 -2
vt -4 -4
vt 2 -4
vt 4 -4
vt -2 -4
vt 4 -2
vt -2 -2
vt 0 -2
vt -8 -2
vt 0 0
vt -8 0
vt 0 -2
vt -2 -2
vt 0 0
vt -2 0
vt 8 -2
vt 0 -2
vt 8 0
vt 0 0
vt 2 -2
vt 0 -2
vt 2 0
vt 0 0
vt 0 0
vt 8 0
vt 0 -2
vt 8 -2
vt 0 -2
vt -8 -2
vt 0 0
vt -8 0
vn 0 0 1
vn 0 0 1
vn 0 0 1
vn 0 0 1
vn 1 0 0
vn 1 0 0
vn 1 0 0
vn 1 0 0
vn 0 0 -1
vn 0 0 -1
vn 0 0 -1
vn 0 0 -1
vn 1 0 0
vn 1 0 0
vn 1 0 0
vn 1 0 0
vn -1 0 0
vn -1 0 0
vn -1 0 0
vn -1 0 0
vn 0 0 1
vn 0 0 1
vn 0 0 1
vn 0 0 1
vn 0 -1 0
vn 0 -1 0
vn 0 -1 0
vn 0 -1 0
vn 0 -1 0
vn 0 -1 0
vn 0 -1 0
vn 0 -1 0
vn -1 0 0
vn -1 0 0
vn -1 0 0
vn -1 0 0
vn -1 0 0
vn 0 0 -1
vn 0 0 -1
vn 0 0 -1
vn 0 0 -1
vn 0 0 -1
vn -0.5773503 0.5773503 -0.5773503
vn -0.5773503 0.5773503 -0.5773503
vn -0.5773503 0.5773503 -0.5773503
vn 0 1 0
vn 0 1 0
vn 0 1 0
vn 0 1 0
vn 0 1 0
vn 1 0 5.00679E-06
vn 1 0 5.00679E-06
vn 1 0 5.00679E-06
vn 1 0 5.00679E-06
vn 0 1 0
vn 0 1 0
vn 0 1 0
vn 0 1 0
vn 1 0 5.006787E-06
vn 1 0 5.006787E-06
vn 1 0 5.006787E-06
vn 1 0 5.006787E-06
vn 0 1 0
vn 0 1 0
vn 0 1 0
vn 0 1 0
vn 1 0 5.125992E-06
vn 1 0 5.125992E-06
vn 1 0 5.125992E-06
vn 1 0 5.125992E-06
vn 0 1 0
vn 0 1 0
vn 0 1 0
vn 0 1 0
vn 1 0 5.125989E-06
vn 1 0 5.125989E-06
vn 1 0 5.125989E-06
vn 1 0 5.125989E-06
vn 0 1 0
vn 0 1 0
vn 0 1 0
vn 0 1 0
vn 0 0 1
vn 0 0 1
vn 0 0 1
vn 0 0 1
vn -1.136868E-13 0 1
vn -1.136868E-13 0 1
vn -1.136868E-13 0 1
vn 0 0 1
vn 0 0 1
vn 0 0 1
vn 0 0 1
vn 0 0 1
vn 0 0 1
vn 8.34465E-07 0 -1
vn 8.34465E-07 0 -1
vn 8.34465E-07 0 -1
vn 8.34465E-07 0 -1
vn 8.34465E-07 0 -1
vn 8.34465E-07 0 -1
vn 8.34465E-07 0 -1
vn 8.34465E-07 0 -1
vn 8.34465E-07 0 -1
vn 8.34465E-07 0 -1
vn 8.34465E-07 0 -1
vn 8.34465E-07 0 -1
vn 8.34465E-07 0 -1
vn -1 0 -5.125985E-06
vn -1 0 -5.125985E-06
vn -1 0 -5.125985E-06
vn -1 0 -5.125985E-06
vn 0 0 1
vn 0 0 1
vn 0 0 1
vn 0 0 1
vn 0 0 0
vn 0 0 0
vn 0 0 0
vn 0 0 0
vn 0 0 0
vn 0 0 0
vn 0 0 0
vn 0 0 0
vn 0 0 0
vn 0 0 0
vn 0 0 0
vn 0 0 0
vn 0 0 0
vn 0 0 0
vn 0 0 0
vn 0 0 0
vn 0 0 0
vn 0 0 0
vn 0 0 0
vn 0 0 0
vn 0 0 0
vn 0 0 0
vn 0 0 0
vn 0 0 0
vn 0 -1 -8.265039E-06
vn 0 -1 -8.265039E-06
vn 0 -1 -8.265039E-06
vn 0 -1 -8.265039E-06
vn -1 0 0
vn -1 0 0
vn -1 0 0
vn -1 0 0
vn 1 0 0
vn 1 0 0
vn 1 0 0
vn 1 0 0
vn 0 1 0
vn 0 1 0
vn 0 1 0
vn 0 1 0
vn -1 0 0
vn -1 0 0
vn -1 0 0
vn -1 0 0
vn 0 0 1
vn 0 0 1
vn 0 0 1
vn 0 0 1
vn 0 1 0
vn 0 1 0
vn 0 1 0
vn 0 1 0
vn 7.084438E-06 -1 0
vn 7.084438E-06 -1 0
vn 7.084438E-06 -1 0
vn 7.084438E-06 -1 0
vn 0 0 -1
vn 0 0 -1
vn 0 0 -1
vn 0 0 -1
vn 0 0 -1
vn 0 0 -1
vn 0 0 -1
vn 0 0 -1
vn 1 0 0
vn 1 0 0
vn 1 0 0
vn 1 0 0
vn 0 0 1
vn 0 0 1
vn 0 0 1
vn 0 0 1
vn 0 0 -1
vn 0 0 -1
vn 0 0 -1
vn 0 0 -1
vn 1 0 0
vn 1 0 0
vn 1 0 0
vn 1 0 0
vn 7.084438E-06 1 0
vn 7.084438E-06 1 0
vn 7.084438E-06 1 0
vn 7.084438E-06 1 0
vn -7.084438E-06 -1 0
vn -8.855547E-06 -1 6.198883E-06
vn -8.855547E-06 -1 6.198883E-06
vn -1.062666E-05 -1 1.239777E-05
vn 1.859573E-05 -1 1.859665E-05
vn 2.47943E-05 -1 2.479553E-05
vn 0 0 1
vn 0 0 1
vn 0 0 1
vn 0 0 1
vn 1 0 0
vn 1 0 0
vn 1 0 0
vn 1 0 0
vn -2.47943E-05 1 3.966374E-10
vn -1.239715E-05 1 3.999478E-06
vn -1.239715E-05 1 3.999478E-06
vn 0 1 7.998559E-06
vn 6.198576E-06 -1 -9.998199E-06
vn 0 -1 -7.998559E-06
vn -1 0 1.599712E-05
vn -1 0 1.599712E-05
vn -1 0 1.599712E-05
vn -1 0 1.599712E-05
vn 0 0 -1
vn 0 0 -1
vn 0 0 -1
vn 0 0 -1
vn -1 0 0
vn -1 0 0
vn -1 0 0
vn -1 0 0
vn 1 0 0
vn 1 0 0
vn 0 1 0
vn 0 1 0
vn 0 1 0
vn 0 1 0
vn 0 -1 0
vn 0 -1 0
vn -1 0 0
vn -1 0 0
vn 0 0 1
vn 0 0 1
vn 0 0 1
vn 0 0 1
vn -1 0 0
vn -1 0 0
vn -1 0 0
vn -1 0 0
vn 0 0 -1
vn 0 0 -1
vn 0 0 -1
vn 0 0 -1
vn 1 0 0
vn 1 0 0
vn 1 0 0
vn 1 0 0
vn 0 1 0
vn 0 1 0
vn 0 1 0
vn 0 1 0
vn 0 -1 0
vn 0 -1 0
vn 0 -1 0
vn 0 -1 0
vn 0 1 8.642183E-06
vn 0 1 8.642183E-06
vn 8.642184E-06 1 0
vn 8.642184E-06 1 0
vn -8.642184E-06 1 0
vn -8.642184E-06 1 0
vn 0 1 -8.642183E-06
vn 0 1 -8.642183E-06
vn -1 0 3.159043E-06
vn -1 0 3.159043E-06
vn -1 0 3.159043E-06
vn -1 0 3.159043E-06
vn 0 1 0
vn 0 1 0
vn 0 1 0
vn 0 1 0
vn -1 0 3.337852E-06
vn -1 0 3.337852E-06
vn -1 0 3.337852E-06
vn -1 0 3.337852E-06
vn 0 1 0
vn 0 1 0
vn 0 1 0
vn 0 1 0
vn -1 0 3.576267E-06
vn -1 0 3.576267E-06
vn -1 0 3.576267E-06
vn -1 0 3.576267E-06
vn 0 1 0
vn 0 1 0
vn 0 1 0
vn 0 1 0
vn -1 0 4.053103E-06
vn -1 0 4.053103E-06
vn -1 0 4.053103E-06
vn -1 0 4.053103E-06
vn 0 1 0
vn 0 1 0
vn 0 1 0
vn 0 1 0
vn -4.768372E-07 0 -1
vn -4.768372E-07 0 -1
vn -4.768372E-07 0 -1
vn -4.768372E-07 0 -1
vn -9.536743E-07 0 -1
vn -9.536743E-07 0 -1
vn -9.536743E-07 0 -1
vn 5.684342E-14 0 -1
vn 5.684342E-14 0 -1
vn 5.684342E-14 0 -1
vn 5.684342E-14 0 -1
vn 5.684342E-14 0 -1
vn -4.768372E-07 0 -1
vn -4.768372E-07 0 -1
vn -4.768372E-07 0 -1
vn -4.768372E-07 0 -1
vn -4.768372E-07 0 -1
vn 5.684342E-14 0 1
vn 5.684342E-14 0 1
vn 5.684342E-14 0 1
vn 5.684342E-14 0 1
vn 5.684342E-14 0 1
vn 5.684342E-14 0 1
vn 5.684342E-14 0 1
vn 1.705303E-13 0 1
vn 1.705303E-13 0 1
vn 1.705303E-13 0 1
vn 5.684342E-14 0 1
vn 5.684342E-14 0 1
vn 5.684342E-14 0 1
vn 1 0 -4.291519E-06
vn 1 0 -4.291519E-06
vn 1 0 -4.291519E-06
vn 1 0 -4.291519E-06
vn 0 0 1
vn 0 0 1
vn 0 0 1
vn 0 0 1
vn -1 0 0
vn -1 0 0
vn -1 0 0
vn -1 0 0
vn 0 0 -1
vn 0 0 -1
vn 0 0 -1
vn 0 0 -1
vn 1 0 0
vn 1 0 0
vn 1 0 0
vn 1 0 0
vn 0 1 0
vn 0 1 0
vn 0 1 0
vn 0 1 0
vn 0 -1 0
vn 0 -1 0
vn 0 -1 0
vn 0 -1 0
vn 0 0 1
vn 0 0 1
vn 0 0 1
vn 0 0 1
vn -1 0 0
vn -1 0 0
vn -1 0 0
vn -1 0 0
vn 0 0 -1
vn 0 0 -1
vn 0 0 -1
vn 0 0 -1
vn 1 0 0
vn 1 0 0
vn 1 0 0
vn 1 0 0
vn 0 1 0
vn 0 1 0
vn 0 1 0
vn 0 1 0
vn 0 -1 0
vn 0 -1 0
vn 0 -1 0
vn 0 -1 0
g Combined Mesh (root: scene) 11_0
g Combined Mesh (root: scene) 11_1
f 3/3/3 2/2/2 1/1/1
f 3/3/3 4/4/4 2/2/2
f 7/7/7 6/6/6 5/5/5
f 7/7/7 8/8/8 6/6/6
f 11/11/11 10/10/10 9/9/9
f 11/11/11 12/12/12 10/10/10
f 15/15/15 14/14/14 13/13/13
f 15/15/15 16/16/16 14/14/14
f 19/19/19 18/18/18 17/17/17
f 19/19/19 20/20/20 18/18/18
f 23/23/23 22/22/22 21/21/21
f 23/23/23 24/24/24 22/22/22
f 27/27/27 26/26/26 25/25/25
f 27/27/27 28/28/28 26/26/26
f 28/28/28 29/29/29 26/26/26
f 28/28/28 30/30/30 29/29/29
f 30/30/30 31/31/31 29/29/29
f 30/30/30 32/32/32 31/31/31
f 32/32/32 25/25/25 31/31/31
f 32/32/32 27/27/27 25/25/25
f 35/35/35 34/34/34 33/33/33
f 36/36/36 35/35/35 33/33/33
f 36/36/36 37/37/37 35/35/35
f 40/40/40 39/39/39 38/38/38
f 40/40/40 38/38/38 41/41/41
f 42/42/42 41/41/41 38/38/38
f 45/45/45 44/44/44 43/43/43
f 48/48/48 47/47/47 46/46/46
f 46/46/46 50/50/50 49/49/49
f 48/48/48 46/46/46 49/49/49
g Combined Mesh (root: scene) 11_2
g Combined Mesh (root: scene) 11_3
f 53/53/53 52/52/52 51/51/51
f 53/53/53 54/54/54 52/52/52
f 57/57/57 56/56/56 55/55/55
f 57/57/57 58/58/58 56/56/56
f 61/61/61 60/60/60 59/59/59
f 61/61/61 62/62/62 60/60/60
f 65/65/65 64/64/64 63/63/63
f 65/65/65 66/66/66 64/64/64
f 69/69/69 68/68/68 67/67/67
f 69/69/69 70/70/70 68/68/68
f 73/73/73 72/72/72 71/71/71
f 73/73/73 74/74/74 72/72/72
f 77/77/77 76/76/76 75/75/75
f 77/77/77 78/78/78 76/76/76
f 81/81/81 80/80/80 79/79/79
f 81/81/81 82/82/82 80/80/80
f 85/85/85 84/84/84 83/83/83
f 85/85/85 86/86/86 84/84/84
f 86/86/86 87/87/87 84/84/84
f 86/86/86 88/88/88 87/87/87
f 86/86/86 89/89/89 88/88/88
f 88/88/88 90/90/90 87/87/87
f 88/88/88 91/91/91 90/90/90
f 88/88/88 92/92/92 91/91/91
f 91/91/91 93/93/93 90/90/90
f 91/91/91 94/94/94 93/93/93
f 91/91/91 95/95/95 94/94/94
f 98/98/98 97/97/97 96/96/96
f 97/97/97 99/99/99 96/96/96
f 97/97/97 100/100/100 99/99/99
f 100/100/100 101/101/101 99/99/99
f 101/101/101 102/102/102 99/99/99
f 100/100/100 103/103/103 101/101/101
f 103/103/103 104/104/104 101/101/101
f 104/104/104 105/105/105 101/101/101
f 103/103/103 106/106/106 104/104/104
f 106/106/106 107/107/107 104/104/104
f 107/107/107 108/108/108 104/104/104
f 111/111/111 110/110/110 109/109/109
f 111/111/111 112/112/112 110/110/110
g Combined Mesh (root: scene) 11_4
g Combined Mesh (root: scene) 11_5
f 115/115/115 114/114/114 113/113/113
f 115/115/115 116/116/116 114/114/114
f 119/119/119 118/118/118 117/117/117
f 122/122/122 121/121/121 120/120/120
f 125/125/125 124/124/124 123/123/123
f 128/128/128 127/127/127 126/126/126
f 131/131/131 130/130/130 129/129/129
f 134/134/134 133/133/133 132/132/132
f 137/137/137 136/136/136 135/135/135
f 140/140/140 139/139/139 138/138/138
f 143/143/143 142/142/142 141/141/141
f 143/143/143 144/144/144 142/142/142
f 147/147/147 146/146/146 145/145/145
f 147/147/147 148/148/148 146/146/146
f 151/151/151 150/150/150 149/149/149
f 151/151/151 152/152/152 150/150/150
f 155/155/155 154/154/154 153/153/153
f 155/155/155 156/156/156 154/154/154
f 159/159/159 158/158/158 157/157/157
f 159/159/159 160/160/160 158/158/158
f 163/163/163 162/162/162 161/161/161
f 163/163/163 164/164/164 162/162/162
f 167/167/167 166/166/166 165/165/165
f 167/167/167 168/168/168 166/166/166
f 171/171/171 170/170/170 169/169/169
f 171/171/171 172/172/172 170/170/170
f 175/175/175 174/174/174 173/173/173
f 175/175/175 176/176/176 174/174/174
f 179/179/179 178/178/178 177/177/177
f 178/178/178 180/180/180 177/177/177
f 183/183/183 182/182/182 181/181/181
f 182/182/182 184/184/184 181/181/181
g Combined Mesh (root: scene) 11_6
g Combined Mesh (root: scene) 11_7
f 187/187/187 186/186/186 185/185/185
f 187/187/187 188/188/188 186/186/186
f 191/191/191 190/190/190 189/189/189
f 191/191/191 192/192/192 190/190/190
f 195/195/195 194/194/194 193/193/193
f 195/195/195 196/196/196 194/194/194
f 199/199/199 198/198/198 197/197/197
f 199/199/199 200/200/200 198/198/198
f 203/203/203 202/202/202 201/201/201
f 203/203/203 204/204/204 202/202/202
f 205/205/205 202/202/202 204/204/204
f 205/205/205 206/206/206 202/202/202
f 209/209/209 208/208/208 207/207/207
f 209/209/209 210/210/210 208/208/208
f 213/213/213 212/212/212 211/211/211
f 213/213/213 214/214/214 212/212/212
f 217/217/217 216/216/216 215/215/215
f 217/217/217 218/218/218 216/216/216
f 219/219/219 205/205/205 204/204/204
f 219/219/219 220/220/220 205/205/205
f 223/223/223 222/222/222 221/221/221
f 223/223/223 224/224/224 222/222/222
f 227/227/227 226/226/226 225/225/225
f 226/226/226 228/228/228 225/225/225
f 231/231/231 230/230/230 229/229/229
f 230/230/230 232/232/232 229/229/229
f 233/233/233 214/214/214 213/213/213
f 233/233/233 234/234/234 214/214/214
f 237/237/237 236/236/236 235/235/235
f 237/237/237 238/238/238 236/236/236
f 239/239/239 220/220/220 219/219/219
f 239/239/239 240/240/240 220/220/220
f 241/241/241 224/224/224 223/223/223
f 241/241/241 242/242/242 224/224/224
g Combined Mesh (root: scene) 11_8
g Combined Mesh (root: scene) 11_9
f 245/245/245 244/244/244 243/243/243
f 245/245/245 246/246/246 244/244/244
f 249/249/249 248/248/248 247/247/247
f 249/249/249 250/250/250 248/248/248
f 253/253/253 252/252/252 251/251/251
f 253/253/253 254/254/254 252/252/252
f 257/257/257 256/256/256 255/255/255
f 257/257/257 258/258/258 256/256/256
f 261/261/261 260/260/260 259/259/259
f 261/261/261 262/262/262 260/260/260
f 265/265/265 264/264/264 263/263/263
f 265/265/265 266/266/266 264/264/264
f 259/259/259 268/268/268 267/267/267
f 259/259/259 260/260/260 268/268/268
f 261/261/261 270/270/270 269/269/269
f 261/261/261 259/259/259 270/270/270
f 260/260/260 272/272/272 271/271/271
f 260/260/260 262/262/262 272/272/272
f 262/262/262 274/274/274 273/273/273
f 262/262/262 261/261/261 274/274/274
g Combined Mesh (root: scene) 11_10
g Combined Mesh (root: scene) 11_11
f 277/277/277 276/276/276 275/275/275
f 277/277/277 278/278/278 276/276/276
f 281/281/281 280/280/280 279/279/279
f 281/281/281 282/282/282 280/280/280
f 285/285/285 284/284/284 283/283/283
f 285/285/285 286/286/286 284/284/284
f 289/289/289 288/288/288 287/287/287
f 289/289/289 290/290/290 288/288/288
f 293/293/293 292/292/292 291/291/291
f 293/293/293 294/294/294 292/292/292
f 297/297/297 296/296/296 295/295/295
f 297/297/297 298/298/298 296/296/296
f 301/301/301 300/300/300 299/299/299
f 301/301/301 302/302/302 300/300/300
f 305/305/305 304/304/304 303/303/303
f 305/305/305 306/306/306 304/304/304
f 309/309/309 308/308/308 307/307/307
f 309/309/309 310/310/310 308/308/308
f 310/310/310 311/311/311 308/308/308
f 310/310/310 312/312/312 311/311/311
f 310/310/310 313/313/313 312/312/312
f 316/316/316 315/315/315 314/314/314
f 316/316/316 317/317/317 315/315/315
f 316/316/316 318/318/318 317/317/317
f 321/321/321 320/320/320 319/319/319
f 321/321/321 322/322/322 320/320/320
f 321/321/321 323/323/323 322/322/322
f 326/326/326 325/325/325 324/324/324
f 325/325/325 327/327/327 324/324/324
f 325/325/325 328/328/328 327/327/327
f 328/328/328 329/329/329 327/327/327
f 329/329/329 330/330/330 327/327/327
f 328/328/328 331/331/331 329/329/329
f 331/331/331 332/332/332 329/329/329
f 332/332/332 333/333/333 329/329/329
f 331/331/331 334/334/334 332/332/332
f 334/334/334 335/335/335 332/332/332
f 335/335/335 336/336/336 332/332/332
f 339/339/339 338/338/338 337/337/337
f 339/339/339 340/340/340 338/338/338
g Combined Mesh (root: scene) 11_12
g Combined Mesh (root: scene) 11_13
f 343/343/343 342/342/342 341/341/341
f 343/343/343 344/344/344 342/342/342
f 347/347/347 346/346/346 345/345/345
f 347/347/347 348/348/348 346/346/346
f 351/351/351 350/350/350 349/349/349
f 351/351/351 352/352/352 350/350/350
f 355/355/355 354/354/354 353/353/353
f 355/355/355 356/356/356 354/354/354
f 359/359/359 358/358/358 357/357/357
f 359/359/359 360/360/360 358/358/358
f 363/363/363 362/362/362 361/361/361
f 363/363/363 364/364/364 362/362/362
g Combined Mesh (root: scene) 11_14
g Combined Mesh (root: scene) 11_15
f 367/367/367 366/366/366 365/365/365
f 367/367/367 368/368/368 366/366/366
f 371/371/371 370/370/370 369/369/369
f 371/371/371 372/372/372 370/370/370
f 375/375/375 374/374/374 373/373/373
f 375/375/375 376/376/376 374/374/374
f 379/379/379 378/378/378 377/377/377
f 379/379/379 380/380/380 378/378/378
f 383/383/383 382/382/382 381/381/381
f 383/383/383 384/384/384 382/382/382
f 387/387/387 386/386/386 385/385/385
f 387/387/387 388/388/388 386/386/386
