g Combined Mesh (root: scene) 9
v 271 8.5 33.75
v 271 8.5 33.5
v 271 8.25 33.25
v 273 8.5 34
v 273 8.5 33.75
v 271 8.5 33.75
v 273 8.5 33.75
v 273 8.5 34
v 273 8.25 34.25
v 273 8.25 33.25
v 273 8.5 33.5
v 273 7.75 33.25
v 273 8 33.25
v 273 8 34.25
v 272.75 8.5 33.25
v 273 8.25 33.25
v 273 8 33.25
v 271 8 33.25
v 271 8.25 33.25
v 271.25 8.5 33.25
v 273 7.75 33.25
v 271 7.5 33.25
v 272.75 7.5 33.25
v 273 7.5 33.5
v 271 8 34.25
v 273 8 34.25
v 273 8.25 34.25
v 271 8.25 33.25
v 271 8.5 33.5
v 271.25 8.5 33.25
v 273 8.25 33.25
v 272.75 8.5 33.25
v 273 8.5 33.5
v 273 7.75 33.25
v 273 7.5 33.5
v 272.75 7.5 33.25
v 273 8.25 34.25
v 273 8.5 34
v 272.75 8.5 34.25
v 271 8 33.75
v 271 8 34.25
v 271 8.5 34.25
v 271 8 33.25
v 271 7.5 33.25
v 271 8 33.75
v 271 7.5 34.25
v 271 8.5 33.5
v 273 8.5 33.5
v 271.25 8.5 33.25
v 272.75 8.5 33.25
v 272.75 8.5 34.25
v 271 8.5 34.25
v 273 8 34.25
v 273 8.5 33.75
v 273 8.25 34.25
v 273 8.5 33.75
v 273 8 33.25
v 273 7.5 33.5
v 273 7.75 33.25
v 273 8 34.25
v 273 7.5 34.25
v 272.75 7.5 33.25
v 271 7.5 33.25
v 273 7.5 34.25
v 271 7.5 34.25
v 271 7.5 33.25
v 273 7.5 33.5
v 272.75 8.5 34.25
v 271 8.5 34.25
v 219.7 20.5 95.375
v 219.5 20.5 95.175
v 219.5 20.5 93.375
v 219.5 20.5 99.375
v 219.5 20.5 97.555
v 219.68 20.5 97.375
v 219.5 20 97.375
v 219.5 20 99.375
v 219.5 19.83 99.375
v 219.5 20 95.375
v 219.5 20.3 95.375
v 219.5 20.5 95.575
v 219.5 20.5 95.175
v 219.5 19.83 99.375
v 219.5 20 99.375
v 220 20 99.375
v 219.7 20.5 95.375
v 219.5 20.3 95.375
v 219.5 20.5 95.175
v 219.5 19.5 97.375
v 219.5 19.5 99.045
v 219.83 19.5 99.375
v 219.68 20.5 97.375
v 219.5 20.32 97.375
v 219.5 20.5 97.36635
v 219.7 20.5 95.375
v 219.5 20.5 95.575
v 219.5 20.3 95.375
v 219.68 20.5 97.375
v 219.5 20.5 97.555
v 219.5 20.32 97.375
v 219.5 19.83 99.375
v 219.83 19.5 99.375
v 219.5 19.5 99.045
v 220 20.5 97.375
v 220.5 20.5 97.375
v 220.5 20.5 99.375
v 220 20.5 99.375
v 220 20.5 95.375
v 220.5 20.5 95.375
v 219.5 20.5 95.575
v 219.5 20.5 97.36635
v 220 20.5 93.375
v 220.5 20.5 93.375
v 220 20.5 91.375
v 220.5 20.5 91.375
v 219.5 20.5 91.87499
v 219.5 19.5 99.045
v 219.5 19.5 97.375
v 219.5 20.5 97.555
v 219.5 20.5 99.375
v 219.5 20.32 97.375
v 219.5 20.5 97.36635
v 219.5 19.5 95.375
v 219.5 20 93.375
v 219.5 20.5 93.375
v 219.5 20 91.375
v 219.5 20.5 91.87499
v 219.5 19.5 91.375
v 219.5 19.5 93.375
v 219.5 20.5 99.375
v 220 20.5 99.375
v 220.5 20 99.375
v 220.5 20.5 99.375
v 219.83 19.5 99.375
v 220 19.5 99.375
v 220 19.5 95.375
v 219.5 19.5 95.375
v 220 19.5 97.375
v 220 19.5 99.375
v 220 19.5 93.375
v 219.5 19.5 93.375
v 220 19.5 91.375
v 219.5 19.5 91.375
v 220.5 20.5 95.375
v 220.5 20 95.375
v 220.5 20 97.375
v 220.5 20.5 97.375
v 220.5 20 99.375
v 220.5 20.5 99.375
v 220.5 20.5 93.375
v 220.5 20 93.375
v 220.5 20.5 91.375
v 220.5 20 91.375
v 220 20 91.375
v 220.5 20 91.375
v 220.5 20.5 91.375
v 220 20.5 91.375
v 219.5 19.5 91.375
v 219.5 20 91.375
v 220 19.5 91.375
v 219.5 20 91.375
v 220 20.5 91.375
v 219.5 20.5 91.87499
vt 0.687623 0.3124999
vt 0.687623 0.3437499
vt 0.656373 0.3749999
vt 0.8751231 0.15625
vt 0.875123 0.1875
vt 0.6251231 0.1874999
vt 0.6876231 0.3125
vt 0.6876231 0.28125
vt 0.656373 0.25
vt 0.6563731 0.375
vt 0.6876231 0.34375
vt 0.5938731 0.375
vt 0.6251231 0.375
vt 0.6251231 0.3125
vt 0.718873 0.3749999
vt 0.750123 0.3437499
vt 0.750123 0.3124999
vt 0.5001231 0.3124999
vt 0.500123 0.3437499
vt 0.531373 0.3749999
vt 0.750123 0.2812499
vt 0.5001231 0.3749999
vt 0.718873 0.375
vt 0.750123 0.34375
vt 0.5001231 0.3124999
vt 0.7501231 0.3124999
vt 0.7501231 0.3437499
vt 0.656373 0.3749999
vt 0.687623 0.3437499
vt 0.687623 0.3749999
vt 0.750123 0.3437499
vt 0.718873 0.3749999
vt 0.750123 0.3749999
vt 0.750123 0.2812499
vt 0.750123 0.2499999
vt 0.718873 0.2499999
vt 0.5001231 0.25
vt 0.5001231 0.28125
vt 0.4688731 0.25
vt 0.625123 0.3124999
vt 0.625123 0.2499999
vt 0.687623 0.2499999
vt 0.625123 0.3749999
vt 0.562623 0.3749999
vt 0.625123 0.3124999
vt 0.562623 0.3124999
vt 0.625123 0.2187499
vt 0.875123 0.21875
vt 0.656373 0.2499999
vt 0.843873 0.2499999
vt 0.8438731 0.125
vt 0.6251231 0.1249999
vt 0.6251231 0.3125
vt 0.6876231 0.3125
vt 0.656373 0.25
vt 0.6876231 0.3125
vt 0.6251231 0.375
vt 0.5626231 0.34375
vt 0.5938731 0.375
vt 0.6251231 0.3125
vt 0.5626231 0.3124999
vt 0.718873 0.2499999
vt 0.5001231 0.2499999
vt 0.7501231 0.3124999
vt 0.5001231 0.3124999
vt 0.5001231 0.3749999
vt 0.750123 0.34375
vt 0.7188731 0.3749999
vt 0.5001231 0.3749999
vt 0.5 0.02500015
vt 0.475 1.490116E-07
vt 0.25 1.788139E-07
vt 1 1.043081E-07
vt 0.7725 1.341105E-07
vt 0.75 0.02250013
vt 0.75 0.6881121
vt 1 0.6881121
vt 1 0.6668621
vt 0.5 0.6881122
vt 0.5 0.7256122
vt 0.525 0.7506121
vt 0.475 0.7506121
vt 0.250196 0.5806814
vt 0.250196 0.6231814
vt 0.375196 0.6231814
vt 0.3752503 0.4874995
vt 0.375083 0.4564
vt 0.3505781 0.4805231
vt 0.75 1.341105E-07
vt 0.9587499 1.192093E-07
vt 1 0.04125012
vt 0.295196 0.7481814
vt 0.250196 0.7031814
vt 0.250196 0.7481814
vt 0.3752503 0.4874995
vt 0.400378 0.4799009
vt 0.375083 0.4564
vt 0.295196 0.7481814
vt 0.250196 0.7481814
vt 0.250196 0.7031814
vt 0.250196 0.5806814
vt 0.3326961 0.4981814
vt 0.250196 0.4981814
vt 0.75 0.06250012
vt 0.75 0.1250001
vt 1 0.1250001
vt 1 0.0625001
vt 0.5 0.06250015
vt 0.5 0.1250001
vt 0.525 1.490116E-07
vt 0.7489185 1.341105E-07
vt 0.25 0.06250018
vt 0.25 0.1250002
vt 0 0.06250019
vt 0 0.1250002
vt 0 1.937151E-07
vt 0.95875 0.6256121
vt 0.75 0.6256121
vt 0.7725 0.7506121
vt 1 0.7506121
vt 0.75 0.7281122
vt 0.7489185 0.7506121
vt 0.5 0.6256122
vt 0.25 0.6881123
vt 0.25 0.7506121
vt 0 0.6881123
vt 0 0.7506123
vt 0 0.6256123
vt 0.25 0.6256122
vt 0.250196 0.7481814
vt 0.375196 0.7481813
vt 0.500196 0.6231813
vt 0.500196 0.7481813
vt 0.3326961 0.4981814
vt 0.375196 0.4981814
vt 0.5 0.06250015
vt 0.5 1.490116E-07
vt 0.75 0.06250013
vt 1 0.06250012
vt 0.25 0.06250018
vt 0.25 1.788139E-07
vt 0 0.06250021
vt 0 2.086163E-07
vt 0.5 0.7506121
vt 0.5 0.6881121
vt 0.75 0.6881121
vt 0.75 0.7506121
vt 1 0.6881121
vt 1 0.7506121
vt 0.25 0.7506121
vt 0.25 0.6881122
vt 0 0.7506123
vt 0 0.6881123
vt 0.375196 0.6231815
vt 0.500196 0.6231815
vt 0.500196 0.7481815
vt 0.375196 0.7481815
vt 0.250196 0.4981815
vt 0.250196 0.6231815
vt 0.375196 0.4981815
vt 0.250196 0.6231815
vt 0.375196 0.7481815
vt 0.250196 0.7481815
vn -1 -3.576281E-07 -1.549721E-06
vn -1 -4.768378E-07 -1.430511E-06
vn -1 -4.768376E-07 -1.430511E-06
vn -3.476944E-08 1 3.973639E-08
vn -3.352766E-08 1 2.980229E-08
vn -3.216762E-08 1 2.317955E-08
vn 1 2.399085E-06 2.011655E-06
vn 1 4.768368E-07 1.430511E-06
vn 1 4.291529E-06 3.337858E-06
vn 1 1.278977E-13 1.192093E-06
vn 1 2.557955E-13 1.192093E-06
vn 1 -7.152564E-07 -6.556531E-07
vn 1 5.0664E-07 -3.278274E-07
vn 1 2.861016E-06 3.178909E-07
vn 1.505017E-06 9.685751E-08 -1
vn 1.430511E-06 0 -1
vn 1.549721E-06 2.980231E-08 -1
vn 1.624108E-06 1.709494E-07 -1
vn 1.66893E-06 2.384185E-07 -1
vn 1.609325E-06 2.682208E-07 -1
vn 1.625882E-06 1.324548E-07 -1
vn 2.448049E-08 -1 -2.12878E-09
vn 3.405986E-08 -1 -3.405977E-08
vn 3.19311E-08 -1 -1.702995E-08
vn -1.446477E-06 -1.341102E-06 1
vn -1.206995E-06 -3.218646E-06 1
vn -1.437962E-06 -1.370904E-06 1
vn -0.5773495 0.5773502 -0.5773511
vn -0.5773495 0.5773502 -0.5773511
vn -0.5773495 0.5773502 -0.5773511
vn 0.577351 0.5773503 -0.5773495
vn 0.577351 0.5773503 -0.5773495
vn 0.577351 0.5773503 -0.5773495
vn 0.5773511 -0.57735 -0.5773497
vn 0.5773511 -0.57735 -0.5773497
vn 0.5773511 -0.57735 -0.5773497
vn 0.5773494 0.5773506 0.5773509
vn 0.5773494 0.5773506 0.5773509
vn 0.5773494 0.5773506 0.5773509
vn -1 -8.940689E-07 -1.01328E-06
vn -1 -2.384184E-07 -1.66893E-06
vn -1 -2.384185E-07 -1.66893E-06
vn -1 -2.980233E-07 -1.609325E-06
vn -1 -2.20537E-06 2.980203E-07
vn -1 -8.940689E-07 -1.01328E-06
vn -1 -4.172321E-06 2.264971E-06
vn -4.09783E-08 1 6.705519E-08
vn -4.346186E-08 1 8.816518E-08
vn -4.222005E-08 1 5.712107E-08
vn -3.973649E-08 1 3.973639E-08
vn -3.689822E-08 1 6.953873E-08
vn -3.40599E-08 1 5.960462E-08
vn 1 2.861016E-06 3.178909E-07
vn 1 2.399085E-06 2.011655E-06
vn 1 4.291529E-06 3.337858E-06
vn 1 2.399085E-06 2.011655E-06
vn 1 5.0664E-07 -3.278274E-07
vn 1 1.311284E-06 -2.304706E-06
vn 1 -7.152564E-07 -6.556531E-07
vn 1 2.861016E-06 3.178909E-07
vn 1 4.053081E-06 -4.132572E-06
vn 1.638655E-06 2.516641E-07 -1
vn 1.63487E-06 2.384185E-07 -1
vn 1.490112E-08 -1 2.980221E-08
vn -1.136867E-13 -1 5.960455E-08
vn 2.448049E-08 -1 -2.12878E-09
vn 3.19311E-08 -1 -1.702995E-08
vn -1.68596E-06 5.364418E-07 1
vn -1.70299E-06 5.960464E-07 1
vn 0 1 0
vn 0 1 0
vn 0 1 0
vn 0 1 0
vn 0 1 0
vn 0 1 0
vn -1 3.539026E-08 -4.423428E-07
vn -1 2.980233E-08 -5.960464E-07
vn -1 0 -5.960464E-07
vn -1 5.298191E-08 -5.960464E-07
vn -1 9.934108E-08 -5.960464E-07
vn -1 7.947287E-08 -6.45717E-07
vn -1 7.947287E-08 -5.463759E-07
vn -5.960464E-07 0 1
vn -5.960464E-07 0 1
vn -5.960464E-07 0 1
vn -0.5773507 0.5773503 0.5773498
vn -0.5773507 0.5773503 0.5773498
vn -0.5773507 0.5773503 0.5773498
vn -6.983979E-08 -1 -1.68884E-09
vn -9.031007E-08 -1 -5.382899E-14
vn -6.00562E-08 -1 -1.266634E-09
vn -0.04795633 0.04795572 0.9976977
vn -0.04795633 0.04795572 0.9976977
vn -0.04795633 0.04795572 0.9976977
vn -0.57735 0.5773503 -0.5773506
vn -0.57735 0.5773503 -0.5773506
vn -0.57735 0.5773503 -0.5773506
vn -0.5773501 0.5773502 -0.5773507
vn -0.5773501 0.5773502 -0.5773507
vn -0.5773501 0.5773502 -0.5773507
vn -0.5773507 -0.5773503 0.57735
vn -0.5773507 -0.5773503 0.57735
vn -0.5773507 -0.5773503 0.57735
vn 2.980233E-08 1 1.776357E-14
vn 5.960466E-08 1 3.552714E-14
vn 5.960466E-08 1 3.552714E-14
vn 2.980233E-08 1 1.776357E-14
vn 2.980233E-08 1 1.776357E-14
vn 5.960466E-08 1 3.552714E-14
vn 0 1 0
vn 0 1 0
vn 2.980233E-08 1 1.776357E-14
vn 5.960466E-08 1 3.552714E-14
vn 2.980233E-08 1 1.776357E-14
vn 5.960466E-08 1 3.552714E-14
vn 0 1 0
vn -1 0 -5.960464E-07
vn -1 0 -5.960464E-07
vn -1 7.636846E-08 -6.426126E-07
vn -1 5.960465E-08 -5.960464E-07
vn -1 9.313227E-08 3.261755E-07
vn -1 7.636847E-08 3.727416E-07
vn -1 0 -5.960464E-07
vn -1 2.980233E-08 -5.960464E-07
vn -1 -7.033324E-06 1.177186E-06
vn -1 -7.063126E-06 1.177186E-06
vn -1 -2.831211E-05 6.496882E-06
vn -1 0 -5.960464E-07
vn -1 0 -5.960464E-07
vn -5.960464E-07 0 1
vn -5.960464E-07 0 1
vn -5.960464E-07 0 1
vn -5.960464E-07 0 1
vn -5.960464E-07 0 1
vn -5.960464E-07 0 1
vn -5.960466E-08 -1 -3.552714E-14
vn -5.960466E-08 -1 -3.552714E-14
vn -4.47035E-08 -1 -1.266625E-09
vn 0 -1 0
vn -5.960466E-08 -1 -3.552714E-14
vn -5.960466E-08 -1 -3.552714E-14
vn -5.960466E-08 -1 -3.552714E-14
vn -5.960466E-08 -1 -3.552714E-14
vn 1 0 5.960464E-07
vn 1 0 5.960464E-07
vn 1 0 5.960464E-07
vn 1 0 5.960464E-07
vn 1 0 5.960464E-07
vn 1 0 5.960464E-07
vn 1 0 5.960464E-07
vn 1 0 5.960464E-07
vn 1 0 5.960464E-07
vn 1 0 5.960464E-07
vn 5.960464E-07 0 -1
vn 5.960464E-07 0 -1
vn 5.960464E-07 0 -1
vn 5.960464E-07 0 -1
vn 5.960464E-07 0 -1
vn 5.960464E-07 0 -1
vn 5.960464E-07 0 -1
vn -0.5773439 0.5773442 -0.5773629
vn -0.5773439 0.5773442 -0.5773629
vn -0.5773439 0.5773442 -0.5773629
g Combined Mesh (root: scene) 9_0
f 68/68/68 69/69/69 25/25/25
f 27/27/27 68/68/68 25/25/25
f 66/66/66 67/67/67 64/64/64
f 64/64/64 65/65/65 66/66/66
f 62/62/62 63/63/63 18/18/18
f 21/21/21 62/62/62 18/18/18
f 18/18/18 20/20/20 15/15/15
f 17/17/17 18/18/18 15/15/15
f 60/60/60 61/61/61 58/58/58
f 58/58/58 59/59/59 60/60/60
f 57/57/57 10/10/10 56/56/56
f 56/56/56 53/53/53 57/57/57
f 53/53/53 54/54/54 55/55/55
f 6/6/6 52/52/52 51/51/51
f 51/51/51 4/4/4 6/6/6
f 48/48/48 50/50/50 49/49/49
f 48/48/48 49/49/49 47/47/47
f 5/5/5 48/48/48 47/47/47
f 47/47/47 6/6/6 5/5/5
f 44/44/44 46/46/46 45/45/45
f 44/44/44 45/45/45 43/43/43
f 1/1/1 3/3/3 43/43/43
f 43/43/43 40/40/40 1/1/1
f 40/40/40 42/42/42 1/1/1
f 40/40/40 41/41/41 42/42/42
f 37/37/37 38/38/38 39/39/39
f 34/34/34 35/35/35 36/36/36
f 31/31/31 32/32/32 33/33/33
f 28/28/28 29/29/29 30/30/30
f 25/25/25 26/26/26 27/27/27
f 22/22/22 23/23/23 24/24/24
f 18/18/18 17/17/17 21/21/21
f 18/18/18 19/19/19 20/20/20
f 15/15/15 16/16/16 17/17/17
f 12/12/12 13/13/13 14/14/14
f 10/10/10 11/11/11 7/7/7
f 7/7/7 8/8/8 9/9/9
f 4/4/4 5/5/5 6/6/6
f 1/1/1 2/2/2 3/3/3
g Combined Mesh (root: scene) 9_1
f 72/72/72 71/71/71 70/70/70
f 75/75/75 74/74/74 73/73/73
f 78/78/78 77/77/77 76/76/76
f 81/81/81 80/80/80 79/79/79
f 79/79/79 80/80/80 82/82/82
f 85/85/85 84/84/84 83/83/83
f 88/88/88 87/87/87 86/86/86
f 91/91/91 90/90/90 89/89/89
f 94/94/94 93/93/93 92/92/92
f 97/97/97 96/96/96 95/95/95
f 100/100/100 99/99/99 98/98/98
f 103/103/103 102/102/102 101/101/101
f 106/106/106 105/105/105 104/104/104
f 107/107/107 106/106/106 104/104/104
f 104/104/104 105/105/105 108/108/108
f 105/105/105 109/109/109 108/108/108
f 104/104/104 108/108/108 70/70/70
f 70/70/70 75/75/75 104/104/104
f 107/107/107 104/104/104 75/75/75
f 75/75/75 73/73/73 107/107/107
f 70/70/70 110/110/110 75/75/75
f 110/110/110 111/111/111 75/75/75
f 108/108/108 109/109/109 112/112/112
f 109/109/109 113/113/113 112/112/112
f 112/112/112 113/113/113 114/114/114
f 113/113/113 115/115/115 114/114/114
f 112/112/112 114/114/114 116/116/116
f 72/72/72 112/112/112 116/116/116
f 108/108/108 112/112/112 72/72/72
f 72/72/72 70/70/70 108/108/108
f 76/76/76 117/117/117 78/78/78
f 76/76/76 118/118/118 117/117/117
f 119/119/119 76/76/76 77/77/77
f 77/77/77 120/120/120 119/119/119
f 119/119/119 121/121/121 76/76/76
f 76/76/76 121/121/121 122/122/122
f 118/118/118 76/76/76 123/123/123
f 76/76/76 79/79/79 123/123/123
f 122/122/122 79/79/79 76/76/76
f 122/122/122 81/81/81 79/79/79
f 82/82/82 124/124/124 79/79/79
f 82/82/82 125/125/125 124/124/124
f 124/124/124 125/125/125 126/126/126
f 125/125/125 127/127/127 126/126/126
f 124/124/124 126/126/126 128/128/128
f 129/129/129 124/124/124 128/128/128
f 79/79/79 124/124/124 129/129/129
f 123/123/123 79/79/79 129/129/129
f 130/130/130 84/84/84 85/85/85
f 131/131/131 130/130/130 85/85/85
f 131/131/131 85/85/85 132/132/132
f 133/133/133 131/131/131 132/132/132
f 85/85/85 83/83/83 134/134/134
f 134/134/134 135/135/135 85/85/85
f 89/89/89 137/137/137 136/136/136
f 138/138/138 89/89/89 136/136/136
f 91/91/91 89/89/89 138/138/138
f 138/138/138 139/139/139 91/91/91
f 136/136/136 137/137/137 140/140/140
f 137/137/137 141/141/141 140/140/140
f 140/140/140 141/141/141 142/142/142
f 141/141/141 143/143/143 142/142/142
f 146/146/146 145/145/145 144/144/144
f 147/147/147 146/146/146 144/144/144
f 148/148/148 146/146/146 147/147/147
f 149/149/149 148/148/148 147/147/147
f 144/144/144 145/145/145 150/150/150
f 145/145/145 151/151/151 150/150/150
f 150/150/150 151/151/151 152/152/152
f 151/151/151 153/153/153 152/152/152
f 156/156/156 155/155/155 154/154/154
f 157/157/157 156/156/156 154/154/154
f 159/159/159 154/154/154 158/158/158
f 154/154/154 160/160/160 158/158/158
f 163/163/163 162/162/162 161/161/161
f 157/157/157 154/154/154 159/159/159
