g Combined Mesh (root: scene) 10
v -46 3 30.72797
v -46.22797 3 30.5
v -46 2.908815 30.5
v -48 1 31.32
v -47.82 1 31.5
v -48 0.8200001 31.5
v -48 1 31.32
v -48 1.18 31.5
v -47.82 1 31.5
v -47.82 5 30.5
v -48 5.18 30.5
v -48 5 30.68
v -48 7 31.32
v -47.87272 7.127279 31.5
v -48 6.82 31.5
v -47.82 5 30.5
v -48 5 30.68
v -48 4.90326 30.5
v -46.36717 5 31.5
v -46 5.367167 31.5
v -46 5 31.13283
v -46.25963 7.259626 31.5
v -46 7 31.13283
v -46 6.829088 31.5
v -46.36717 5 31.5
v -46 5 31.13283
v -46 4.823141 31.5
v -46 3 30.72797
v -46 3.227969 30.5
v -46.22797 3 30.5
v -47 -0.9999999 31.5
v -46 0.9999999 31.5
v -46 -1 31.5
v -47 1 31.5
v -48 -0.9999999 31.5
v -48 0.8200001 31.5
v -46 3 31.5
v -47 3 31.5
v -47.82 1 31.5
v -48 1.18 31.5
v -48 3 31.5
v -46 4.823141 31.5
v -48 5 31.5
v -47 5 31.5
v -46.36717 5 31.5
v -46 5.367167 31.5
v -47 8 31.5
v -46 6.829088 31.5
v -46.25963 7.259626 31.5
v -47 8 31.5
v -47 5 31.5
v -48 6.82 31.5
v -47.87272 7.127279 31.5
v -47 -0.9999999 30.5
v -46 -1 31.5
v -46 -1 30.5
v -47 -0.9999999 31.5
v -48 -0.9999999 31.5
v -48 -0.9999999 30.5
v -48 7 31.32
v -48 7 30.5
v -47 8 30.5
v -47 8 31.5
v -47.87272 7.127279 31.5
v -46 0.9999999 30.5
v -46 -1 30.5
v -46 -1 31.5
v -46 0.9999999 31.5
v -46 3 30.72797
v -46 2.908815 30.5
v -46 3 31.5
v -48 -0.9999999 31.5
v -48 -0.9999999 30.5
v -48 1 30.5
v -48 1 31.32
v -48 0.8200001 31.5
v -48 3 30.5
v -48 3 31.5
v -48 1.18 31.5
v -48 4.90326 30.5
v -48 5 30.68
v -48 5 31.5
v -48 7 31.32
v -48 6.82 31.5
v -48 5 30.68
v -48 7 30.5
v -48 5.18 30.5
v -46.25963 7.259626 31.5
v -47 8 31.5
v -47 8 30.5
v -46 7 30.5
v -46 7 31.13283
v -46 7 31.13283
v -46 7 30.5
v -46 5 30.5
v -46 5 31.13283
v -46 6.829088 31.5
v -46 5.367167 31.5
v -46 5 31.13283
v -46 3.227969 30.5
v -46 3 30.72797
v -46 3 31.5
v -46 4.823141 31.5
v -46 5 30.5
v -46 7 30.5
v -47 8 30.5
v -47 5 30.5
v -46 3.227969 30.5
v -46.22797 3 30.5
v -48 5.18 30.5
v -48 7 30.5
v -47.82 5 30.5
v -48 4.90326 30.5
v -47 3 30.5
v -48 3 30.5
v -46 2.908815 30.5
v -48 1 30.5
v -47 1 30.5
v -46 0.9999999 30.5
v -48 -0.9999999 30.5
v -46 -1 30.5
v -47 -0.9999999 30.5
v -42 3 30.72797
v -42.22797 3 30.5
v -42 2.908815 30.5
v -44 1 31.32
v -43.82 1 31.5
v -44 0.8200001 31.5
v -44 1 31.32
v -44 1.18 31.5
v -43.82 1 31.5
v -43.82 5 30.5
v -44 5.18 30.5
v -44 5 30.68
v -44 7 31.32
v -43.87272 7.127279 31.5
v -44 6.82 31.5
v -43.82 5 30.5
v -44 5 30.68
v -44 4.90326 30.5
v -42.36717 5 31.5
v -42 5.367167 31.5
v -42 5 31.13283
v -42.25963 7.259626 31.5
v -42 7 31.13283
v -42 6.829088 31.5
v -42.36717 5 31.5
v -42 5 31.13283
v -42 4.823141 31.5
v -42 3 30.72797
v -42 3.227969 30.5
v -42.22797 3 30.5
v -43 -0.9999999 31.5
v -42 0.9999999 31.5
v -42 -1 31.5
v -43 1 31.5
v -44 -0.9999999 31.5
v -44 0.8200001 31.5
v -42 3 31.5
v -43 3 31.5
v -43.82 1 31.5
v -44 1.18 31.5
v -44 3 31.5
v -42 4.823141 31.5
v -44 5 31.5
v -43 5 31.5
v -42.36717 5 31.5
v -42 5.367167 31.5
v -43 8 31.5
v -42 6.829088 31.5
v -42.25963 7.259626 31.5
v -43 8 31.5
v -43 5 31.5
v -44 6.82 31.5
v -43.87272 7.127279 31.5
v -43 -0.9999999 30.5
v -42 -1 31.5
v -42 -1 30.5
v -43 -0.9999999 31.5
v -44 -0.9999999 31.5
v -44 -0.9999999 30.5
v -44 7 31.32
v -44 7 30.5
v -43 8 30.5
v -43 8 31.5
v -43.87272 7.127279 31.5
v -42 0.9999999 30.5
v -42 -1 30.5
v -42 -1 31.5
v -42 0.9999999 31.5
v -42 3 30.72797
v -42 2.908815 30.5
v -42 3 31.5
v -44 -0.9999999 31.5
v -44 -0.9999999 30.5
v -44 1 30.5
v -44 1 31.32
v -44 0.8200001 31.5
v -44 3 30.5
v -44 3 31.5
v -44 1.18 31.5
v -44 4.90326 30.5
v -44 5 30.68
v -44 5 31.5
v -44 7 31.32
v -44 6.82 31.5
v -44 5 30.68
v -44 7 30.5
v -44 5.18 30.5
v -42.25963 7.259626 31.5
v -43 8 31.5
v -43 8 30.5
v -42 7 30.5
v -42 7 31.13283
v -42 7 31.13283
v -42 7 30.5
v -42 5 30.5
v -42 5 31.13283
v -42 6.829088 31.5
v -42 5.367167 31.5
v -42 5 31.13283
v -42 3.227969 30.5
v -42 3 30.72797
v -42 3 31.5
v -42 4.823141 31.5
v -42 5 30.5
v -42 7 30.5
v -43 8 30.5
v -43 5 30.5
v -42 3.227969 30.5
v -42.22797 3 30.5
v -44 5.18 30.5
v -44 7 30.5
v -43.82 5 30.5
v -44 4.90326 30.5
v -43 3 30.5
v -44 3 30.5
v -42 2.908815 30.5
v -44 1 30.5
v -43 1 30.5
v -42 0.9999999 30.5
v -44 -0.9999999 30.5
v -42 -1 30.5
v -43 -0.9999999 30.5
vt 0.8230356 0.9277534
vt 0.8372245 0.9277534
vt 0.8372245 0.9277534
vt 0.8015734 0.926051
vt 0.8187301 0.9283459
vt 0.8264795 0.9104824
vt 0.2267982 0.3765136
vt 0.238626 0.3891293
vt 0.2516142 0.3798329
vt 0.1243339 0.3744999
vt 0.1243339 0.3857031
vt 0.1131306 0.3744999
vt 0.07329681 0.4989805
vt 0.06209354 0.5069024
vt 0.06209354 0.4989805
vt 0.1243339 0.3744999
vt 0.1131306 0.3744999
vt 0.1243339 0.3744999
vt 0.2206735 0.3774597
vt 0.2309401 0.3892539
vt 0.2470142 0.3753164
vt 0.8089056 0.9836203
vt 0.8672912 0.951241
vt 0.8270705 0.8974044
vt 0.7948006 0.958797
vt 0.8503719 0.9542752
vt 0.81646 0.9088837
vt 0.2312388 0.3750191
vt 0.2454276 0.389208
vt 0.2454276 0.3750191
vt 0.6876019 0.005507529
vt 0.6263934 0.1279244
vt 0.6263934 0.005507529
vt 0.6876019 0.1279244
vt 0.7488103 0.005507529
vt 0.7488103 0.1169068
vt 0.6263934 0.2503411
vt 0.6876018 0.2503411
vt 0.7377927 0.1279244
vt 0.7488103 0.1389419
vt 0.7488102 0.2503411
vt 0.6263934 0.3502842
vt 0.7488102 0.3727579
vt 0.6876018 0.3727579
vt 0.6488671 0.3727579
vt 0.6263933 0.3952316
vt 0.6876018 0.5563831
vt 0.6263933 0.472701
vt 0.6422847 0.5110661
vt 0.6876018 0.5563831
vt 0.6876018 0.3727579
vt 0.7488102 0.4841572
vt 0.7410197 0.5029653
vt 0.1243339 0.001057595
vt 0.06209354 0.001057595
vt 0.1243339 0.001057595
vt 0.06209354 0.001057595
vt 0.06209354 0.001057595
vt 0.1243339 0.001057595
vt 0.07329681 0.4989805
vt 0.1243339 0.4989805
vt 0.1243339 0.561221
vt 0.06209354 0.561221
vt 0.06209354 0.5069024
vt 0.1243339 0.1255383
vt 0.1243339 0.001057595
vt 0.06209354 0.001057595
vt 0.06209354 0.1255383
vt 0.110145 0.2500191
vt 0.1243339 0.2358302
vt 0.06209354 0.2500191
vt 0.06209354 0.001057595
vt 0.1243339 0.001057595
vt 0.1243339 0.1255383
vt 0.07329681 0.1255383
vt 0.06209354 0.1143351
vt 0.1243339 0.2500191
vt 0.06209354 0.2500191
vt 0.06209354 0.1367416
vt 0.1243339 0.3632966
vt 0.1131306 0.3744999
vt 0.06209354 0.3744999
vt 0.07329681 0.4989805
vt 0.06209354 0.4877772
vt 0.1131306 0.3744999
vt 0.1243339 0.4989805
vt 0.1243339 0.3857031
vt 0.06209354 0.5151398
vt 0.06209354 0.561221
vt 0.1243339 0.561221
vt 0.1243339 0.4989805
vt 0.08494619 0.4989805
vt 0.08494619 0.4989805
vt 0.1243339 0.4989805
vt 0.1243339 0.3744999
vt 0.08494619 0.3744999
vt 0.06209354 0.4761278
vt 0.06209354 0.3973525
vt 0.08494619 0.3744999
vt 0.1243339 0.264208
vt 0.110145 0.2500191
vt 0.06209354 0.2500191
vt 0.06209354 0.3516473
vt 0.6263933 0.3727579
vt 0.6263933 0.4951747
vt 0.6876018 0.5563831
vt 0.6876018 0.3727579
vt 0.6263933 0.2642948
vt 0.640347 0.2503411
vt 0.7488102 0.3837754
vt 0.7488102 0.4951747
vt 0.7377927 0.3727579
vt 0.7488102 0.3617404
vt 0.6876018 0.2503411
vt 0.7488102 0.2503411
vt 0.6263934 0.2363875
vt 0.7488103 0.1279244
vt 0.6876019 0.1279244
vt 0.6263934 0.1279244
vt 0.7488103 0.005507529
vt 0.6263934 0.005507529
vt 0.6876019 0.005507529
vt 0.8230356 0.9277534
vt 0.8372245 0.9277534
vt 0.8372245 0.9277534
vt 0.8015734 0.926051
vt 0.8187301 0.9283459
vt 0.8264795 0.9104824
vt 0.2267982 0.3765136
vt 0.238626 0.3891293
vt 0.2516142 0.3798329
vt 0.1243339 0.3744999
vt 0.1243339 0.3857031
vt 0.1131306 0.3744999
vt 0.07329681 0.4989805
vt 0.06209354 0.5069024
vt 0.06209354 0.4989805
vt 0.1243339 0.3744999
vt 0.1131306 0.3744999
vt 0.1243339 0.3744999
vt 0.2206735 0.3774597
vt 0.2309401 0.3892539
vt 0.2470142 0.3753164
vt 0.8089056 0.9836203
vt 0.8672912 0.951241
vt 0.8270705 0.8974044
vt 0.7948006 0.958797
vt 0.8503719 0.9542752
vt 0.81646 0.9088837
vt 0.2312388 0.3750191
vt 0.2454276 0.389208
vt 0.2454276 0.3750191
vt 0.6876019 0.005507529
vt 0.6263934 0.1279244
vt 0.6263934 0.005507529
vt 0.6876019 0.1279244
vt 0.7488103 0.005507529
vt 0.7488103 0.1169068
vt 0.6263934 0.2503411
vt 0.6876018 0.2503411
vt 0.7377927 0.1279244
vt 0.7488103 0.1389419
vt 0.7488102 0.2503411
vt 0.6263934 0.3502842
vt 0.7488102 0.3727579
vt 0.6876018 0.3727579
vt 0.6488671 0.3727579
vt 0.6263933 0.3952316
vt 0.6876018 0.5563831
vt 0.6263933 0.472701
vt 0.6422847 0.5110661
vt 0.6876018 0.5563831
vt 0.6876018 0.3727579
vt 0.7488102 0.4841572
vt 0.7410197 0.5029653
vt 0.1243339 0.001057595
vt 0.06209354 0.001057595
vt 0.1243339 0.001057595
vt 0.06209354 0.001057595
vt 0.06209354 0.001057595
vt 0.1243339 0.001057595
vt 0.07329681 0.4989805
vt 0.1243339 0.4989805
vt 0.1243339 0.561221
vt 0.06209354 0.561221
vt 0.06209354 0.5069024
vt 0.1243339 0.1255383
vt 0.1243339 0.001057595
vt 0.06209354 0.001057595
vt 0.06209354 0.1255383
vt 0.110145 0.2500191
vt 0.1243339 0.2358302
vt 0.06209354 0.2500191
vt 0.06209354 0.001057595
vt 0.1243339 0.001057595
vt 0.1243339 0.1255383
vt 0.07329681 0.1255383
vt 0.06209354 0.1143351
vt 0.1243339 0.2500191
vt 0.06209354 0.2500191
vt 0.06209354 0.1367416
vt 0.1243339 0.3632966
vt 0.1131306 0.3744999
vt 0.06209354 0.3744999
vt 0.07329681 0.4989805
vt 0.06209354 0.4877772
vt 0.1131306 0.3744999
vt 0.1243339 0.4989805
vt 0.1243339 0.3857031
vt 0.06209354 0.5151398
vt 0.06209354 0.561221
vt 0.1243339 0.561221
vt 0.1243339 0.4989805
vt 0.08494619 0.4989805
vt 0.08494619 0.4989805
vt 0.1243339 0.4989805
vt 0.1243339 0.3744999
vt 0.08494619 0.3744999
vt 0.06209354 0.4761278
vt 0.06209354 0.3973525
vt 0.08494619 0.3744999
vt 0.1243339 0.264208
vt 0.110145 0.2500191
vt 0.06209354 0.2500191
vt 0.06209354 0.3516473
vt 0.6263933 0.3727579
vt 0.6263933 0.4951747
vt 0.6876018 0.5563831
vt 0.6876018 0.3727579
vt 0.6263933 0.2642948
vt 0.640347 0.2503411
vt 0.7488102 0.3837754
vt 0.7488102 0.4951747
vt 0.7377927 0.3727579
vt 0.7488102 0.3617404
vt 0.6876018 0.2503411
vt 0.7488102 0.2503411
vt 0.6263934 0.2363875
vt 0.7488103 0.1279244
vt 0.6876019 0.1279244
vt 0.6263934 0.1279244
vt 0.7488103 0.005507529
vt 0.6263934 0.005507529
vt 0.6876019 0.005507529
vn 0.3481464 0.8703949 -0.3481476
vn 0.3481464 0.8703949 -0.3481476
vn 0.3481464 0.8703949 -0.3481476
vn -0.57735 0.5773504 0.5773504
vn -0.57735 0.5773504 0.5773504
vn -0.57735 0.5773504 0.5773504
vn -0.5773512 -0.5773495 0.57735
vn -0.5773512 -0.5773495 0.57735
vn -0.5773512 -0.5773495 0.57735
vn -0.5773493 -0.577351 -0.5773505
vn -0.5773493 -0.577351 -0.5773505
vn -0.5773493 -0.577351 -0.5773505
vn -0.8628573 0.3574056 0.3574053
vn -0.8628573 0.3574056 0.3574053
vn -0.8628573 0.3574056 0.3574053
vn -0.4278842 0.7961375 -0.4278788
vn -0.4278842 0.7961375 -0.4278788
vn -0.4278842 0.7961375 -0.4278788
vn 0.5773498 -0.5773506 0.5773504
vn 0.5773498 -0.5773506 0.5773504
vn 0.5773498 -0.5773506 0.5773504
vn 0.832629 0.5020989 0.2337213
vn 0.832629 0.5020989 0.2337213
vn 0.832629 0.5020989 0.2337213
vn 0.3980932 0.8264635 0.3980956
vn 0.3980932 0.8264635 0.3980956
vn 0.3980932 0.8264635 0.3980956
vn 0.5773506 -0.5773498 -0.5773504
vn 0.5773506 -0.5773498 -0.5773504
vn 0.5773506 -0.5773498 -0.5773504
vn -5.960464E-08 0 1
vn -5.960464E-08 0 1
vn -5.960464E-08 0 1
vn -5.960464E-08 0 1
vn -5.960464E-08 0 1
vn -5.960464E-08 0 1
vn -5.960464E-08 0 1
vn -5.960464E-08 0 1
vn -5.960464E-08 0 1
vn -5.960464E-08 0 1
vn -5.960464E-08 0 1
vn -5.960464E-08 0 1
vn -5.960464E-08 0 1
vn -5.960464E-08 0 1
vn -5.960464E-08 0 1
vn -5.960464E-08 0 1
vn -5.960464E-08 0 1
vn -5.960464E-08 0 1
vn -5.960464E-08 0 1
vn -5.960464E-08 0 1
vn -5.960464E-08 0 1
vn -5.960464E-08 0 1
vn -5.960464E-08 0 1
vn 0 -1 0
vn 0 -1 0
vn 0 -1 0
vn 0 -1 0
vn 0 -1 0
vn 0 -1 0
vn -0.7071066 0.7071068 -4.214684E-08
vn -0.7071066 0.7071068 -4.214684E-08
vn -0.7071066 0.7071068 -4.214684E-08
vn -0.7071066 0.7071068 -4.214684E-08
vn -0.7071066 0.7071068 -4.214684E-08
vn 1 0 5.960464E-08
vn 1 0 5.960464E-08
vn 1 0 5.960464E-08
vn 1 0 5.960464E-08
vn 1 0 5.960464E-08
vn 1 0 5.960464E-08
vn 1 0 5.960464E-08
vn -1 0 -5.960464E-08
vn -1 0 -5.960464E-08
vn -1 0 -5.960464E-08
vn -1 0 -5.960464E-08
vn -1 0 -5.960464E-08
vn -1 0 -5.960464E-08
vn -1 0 -5.960464E-08
vn -1 0 -5.960464E-08
vn -1 0 -5.960464E-08
vn -1 0 -5.960464E-08
vn -1 0 -5.960464E-08
vn -1 0 -5.960464E-08
vn -1 0 -5.960464E-08
vn -1 0 -5.960464E-08
vn -1 0 -5.960464E-08
vn -1 0 -5.960464E-08
vn 0.7071068 0.7071068 4.214685E-08
vn 0.7071068 0.7071068 4.214685E-08
vn 0.7071068 0.7071068 4.214685E-08
vn 0.7071068 0.7071068 4.214685E-08
vn 0.7071068 0.7071068 4.214685E-08
vn 1 0 5.960464E-08
vn 1 0 5.960464E-08
vn 1 0 5.960464E-08
vn 1 0 5.960464E-08
vn 1 0 5.960464E-08
vn 1 0 5.960464E-08
vn 1 0 5.960464E-08
vn 1 0 5.960464E-08
vn 1 0 5.960464E-08
vn 1 0 5.960464E-08
vn 1 0 5.960464E-08
vn 5.960464E-08 0 -1
vn 5.960464E-08 0 -1
vn 5.960464E-08 0 -1
vn 5.960464E-08 0 -1
vn 5.960464E-08 0 -1
vn 5.960464E-08 0 -1
vn 5.960464E-08 0 -1
vn 5.960464E-08 0 -1
vn 5.960464E-08 0 -1
vn 5.960464E-08 0 -1
vn 5.960464E-08 0 -1
vn 5.960464E-08 0 -1
vn 5.960464E-08 0 -1
vn 5.960464E-08 0 -1
vn 5.960464E-08 0 -1
vn 5.960464E-08 0 -1
vn 5.960464E-08 0 -1
vn 5.960464E-08 0 -1
vn 5.960464E-08 0 -1
vn 0.3481464 0.8703949 -0.3481476
vn 0.3481464 0.8703949 -0.3481476
vn 0.3481464 0.8703949 -0.3481476
vn -0.57735 0.5773504 0.5773504
vn -0.57735 0.5773504 0.5773504
vn -0.57735 0.5773504 0.5773504
vn -0.5773512 -0.5773495 0.57735
vn -0.5773512 -0.5773495 0.57735
vn -0.5773512 -0.5773495 0.57735
vn -0.5773493 -0.577351 -0.5773505
vn -0.5773493 -0.577351 -0.5773505
vn -0.5773493 -0.577351 -0.5773505
vn -0.8628573 0.3574056 0.3574053
vn -0.8628573 0.3574056 0.3574053
vn -0.8628573 0.3574056 0.3574053
vn -0.4278842 0.7961375 -0.4278788
vn -0.4278842 0.7961375 -0.4278788
vn -0.4278842 0.7961375 -0.4278788
vn 0.5773498 -0.5773506 0.5773504
vn 0.5773498 -0.5773506 0.5773504
vn 0.5773498 -0.5773506 0.5773504
vn 0.832629 0.5020989 0.2337213
vn 0.832629 0.5020989 0.2337213
vn 0.832629 0.5020989 0.2337213
vn 0.3980932 0.8264635 0.3980956
vn 0.3980932 0.8264635 0.3980956
vn 0.3980932 0.8264635 0.3980956
vn 0.5773506 -0.5773498 -0.5773504
vn 0.5773506 -0.5773498 -0.5773504
vn 0.5773506 -0.5773498 -0.5773504
vn -5.960464E-08 0 1
vn -5.960464E-08 0 1
vn -5.960464E-08 0 1
vn -5.960464E-08 0 1
vn -5.960464E-08 0 1
vn -5.960464E-08 0 1
vn -5.960464E-08 0 1
vn -5.960464E-08 0 1
vn -5.960464E-08 0 1
vn -5.960464E-08 0 1
vn -5.960464E-08 0 1
vn -5.960464E-08 0 1
vn -5.960464E-08 0 1
vn -5.960464E-08 0 1
vn -5.960464E-08 0 1
vn -5.960464E-08 0 1
vn -5.960464E-08 0 1
vn -5.960464E-08 0 1
vn -5.960464E-08 0 1
vn -5.960464E-08 0 1
vn -5.960464E-08 0 1
vn -5.960464E-08 0 1
vn -5.960464E-08 0 1
vn 0 -1 0
vn 0 -1 0
vn 0 -1 0
vn 0 -1 0
vn 0 -1 0
vn 0 -1 0
vn -0.7071066 0.7071068 -4.214684E-08
vn -0.7071066 0.7071068 -4.214684E-08
vn -0.7071066 0.7071068 -4.214684E-08
vn -0.7071066 0.7071068 -4.214684E-08
vn -0.7071066 0.7071068 -4.214684E-08
vn 1 0 5.960464E-08
vn 1 0 5.960464E-08
vn 1 0 5.960464E-08
vn 1 0 5.960464E-08
vn 1 0 5.960464E-08
vn 1 0 5.960464E-08
vn 1 0 5.960464E-08
vn -1 0 -5.960464E-08
vn -1 0 -5.960464E-08
vn -1 0 -5.960464E-08
vn -1 0 -5.960464E-08
vn -1 0 -5.960464E-08
vn -1 0 -5.960464E-08
vn -1 0 -5.960464E-08
vn -1 0 -5.960464E-08
vn -1 0 -5.960464E-08
vn -1 0 -5.960464E-08
vn -1 0 -5.960464E-08
vn -1 0 -5.960464E-08
vn -1 0 -5.960464E-08
vn -1 0 -5.960464E-08
vn -1 0 -5.960464E-08
vn -1 0 -5.960464E-08
vn 0.7071068 0.7071068 4.214685E-08
vn 0.7071068 0.7071068 4.214685E-08
vn 0.7071068 0.7071068 4.214685E-08
vn 0.7071068 0.7071068 4.214685E-08
vn 0.7071068 0.7071068 4.214685E-08
vn 1 0 5.960464E-08
vn 1 0 5.960464E-08
vn 1 0 5.960464E-08
vn 1 0 5.960464E-08
vn 1 0 5.960464E-08
vn 1 0 5.960464E-08
vn 1 0 5.960464E-08
vn 1 0 5.960464E-08
vn 1 0 5.960464E-08
vn 1 0 5.960464E-08
vn 1 0 5.960464E-08
vn 5.960464E-08 0 -1
vn 5.960464E-08 0 -1
vn 5.960464E-08 0 -1
vn 5.960464E-08 0 -1
vn 5.960464E-08 0 -1
vn 5.960464E-08 0 -1
vn 5.960464E-08 0 -1
vn 5.960464E-08 0 -1
vn 5.960464E-08 0 -1
vn 5.960464E-08 0 -1
vn 5.960464E-08 0 -1
vn 5.960464E-08 0 -1
vn 5.960464E-08 0 -1
vn 5.960464E-08 0 -1
vn 5.960464E-08 0 -1
vn 5.960464E-08 0 -1
vn 5.960464E-08 0 -1
vn 5.960464E-08 0 -1
vn 5.960464E-08 0 -1
g Combined Mesh (root: scene) 10_0
f 3/3/3 2/2/2 1/1/1
f 6/6/6 5/5/5 4/4/4
f 9/9/9 8/8/8 7/7/7
f 12/12/12 11/11/11 10/10/10
f 15/15/15 14/14/14 13/13/13
f 18/18/18 17/17/17 16/16/16
f 21/21/21 20/20/20 19/19/19
f 24/24/24 23/23/23 22/22/22
f 27/27/27 26/26/26 25/25/25
f 30/30/30 29/29/29 28/28/28
f 33/33/33 32/32/32 31/31/31
f 32/32/32 34/34/34 31/31/31
f 35/35/35 31/31/31 34/34/34
f 34/34/34 36/36/36 35/35/35
f 32/32/32 37/37/37 34/34/34
f 37/37/37 38/38/38 34/34/34
f 34/34/34 39/39/39 36/36/36
f 39/39/39 34/34/34 38/38/38
f 38/38/38 40/40/40 39/39/39
f 38/38/38 41/41/41 40/40/40
f 38/38/38 37/37/37 42/42/42
f 43/43/43 41/41/41 38/38/38
f 42/42/42 44/44/44 38/38/38
f 44/44/44 43/43/43 38/38/38
f 42/42/42 45/45/45 44/44/44
f 44/44/44 45/45/45 46/46/46
f 46/46/46 47/47/47 44/44/44
f 46/46/46 48/48/48 47/47/47
f 48/48/48 49/49/49 47/47/47
f 43/43/43 51/51/51 50/50/50
f 50/50/50 52/52/52 43/43/43
f 50/50/50 53/53/53 52/52/52
f 56/56/56 55/55/55 54/54/54
f 55/55/55 57/57/57 54/54/54
f 57/57/57 58/58/58 54/54/54
f 58/58/58 59/59/59 54/54/54
f 62/62/62 61/61/61 60/60/60
f 60/60/60 63/63/63 62/62/62
f 60/60/60 64/64/64 63/63/63
f 67/67/67 66/66/66 65/65/65
f 68/68/68 67/67/67 65/65/65
f 69/69/69 68/68/68 65/65/65
f 65/65/65 70/70/70 69/69/69
f 69/69/69 71/71/71 68/68/68
f 74/74/74 73/73/73 72/72/72
f 72/72/72 75/75/75 74/74/74
f 72/72/72 76/76/76 75/75/75
f 77/77/77 74/74/74 75/75/75
f 75/75/75 78/78/78 77/77/77
f 75/75/75 79/79/79 78/78/78
f 80/80/80 77/77/77 78/78/78
f 78/78/78 81/81/81 80/80/80
f 78/78/78 82/82/82 81/81/81
f 82/82/82 84/84/84 83/83/83
f 85/85/85 82/82/82 83/83/83
f 85/85/85 83/83/83 86/86/86
f 86/86/86 87/87/87 85/85/85
f 90/90/90 89/89/89 88/88/88
f 88/88/88 91/91/91 90/90/90
f 88/88/88 92/92/92 91/91/91
f 95/95/95 94/94/94 93/93/93
f 93/93/93 96/96/96 95/95/95
f 93/93/93 97/97/97 96/96/96
f 97/97/97 98/98/98 96/96/96
f 100/100/100 95/95/95 99/99/99
f 99/99/99 101/101/101 100/100/100
f 99/99/99 102/102/102 101/101/101
f 99/99/99 103/103/103 102/102/102
f 106/106/106 105/105/105 104/104/104
f 107/107/107 106/106/106 104/104/104
f 107/107/107 104/104/104 108/108/108
f 107/107/107 108/108/108 109/109/109
f 110/110/110 106/106/106 107/107/107
f 110/110/110 111/111/111 106/106/106
f 107/107/107 112/112/112 110/110/110
f 113/113/113 112/112/112 107/107/107
f 109/109/109 114/114/114 107/107/107
f 113/113/113 107/107/107 114/114/114
f 114/114/114 115/115/115 113/113/113
f 114/114/114 109/109/109 116/116/116
f 117/117/117 115/115/115 114/114/114
f 118/118/118 114/114/114 116/116/116
f 118/118/118 117/117/117 114/114/114
f 116/116/116 119/119/119 118/118/118
f 120/120/120 117/117/117 118/118/118
f 119/119/119 121/121/121 118/118/118
f 122/122/122 120/120/120 118/118/118
f 121/121/121 122/122/122 118/118/118
g Combined Mesh (root: scene) 10_1
f 125/125/125 124/124/124 123/123/123
f 128/128/128 127/127/127 126/126/126
f 131/131/131 130/130/130 129/129/129
f 134/134/134 133/133/133 132/132/132
f 137/137/137 136/136/136 135/135/135
f 140/140/140 139/139/139 138/138/138
f 143/143/143 142/142/142 141/141/141
f 146/146/146 145/145/145 144/144/144
f 149/149/149 148/148/148 147/147/147
f 152/152/152 151/151/151 150/150/150
f 155/155/155 154/154/154 153/153/153
f 154/154/154 156/156/156 153/153/153
f 157/157/157 153/153/153 156/156/156
f 156/156/156 158/158/158 157/157/157
f 154/154/154 159/159/159 156/156/156
f 159/159/159 160/160/160 156/156/156
f 156/156/156 161/161/161 158/158/158
f 161/161/161 156/156/156 160/160/160
f 160/160/160 162/162/162 161/161/161
f 160/160/160 163/163/163 162/162/162
f 160/160/160 159/159/159 164/164/164
f 165/165/165 163/163/163 160/160/160
f 164/164/164 166/166/166 160/160/160
f 166/166/166 165/165/165 160/160/160
f 164/164/164 167/167/167 166/166/166
f 166/166/166 167/167/167 168/168/168
f 168/168/168 169/169/169 166/166/166
f 168/168/168 170/170/170 169/169/169
f 170/170/170 171/171/171 169/169/169
f 165/165/165 173/173/173 172/172/172
f 172/172/172 174/174/174 165/165/165
f 172/172/172 175/175/175 174/174/174
f 178/178/178 177/177/177 176/176/176
f 177/177/177 179/179/179 176/176/176
f 179/179/179 180/180/180 176/176/176
f 180/180/180 181/181/181 176/176/176
f 184/184/184 183/183/183 182/182/182
f 182/182/182 185/185/185 184/184/184
f 182/182/182 186/186/186 185/185/185
f 189/189/189 188/188/188 187/187/187
f 190/190/190 189/189/189 187/187/187
f 191/191/191 190/190/190 187/187/187
f 187/187/187 192/192/192 191/191/191
f 191/191/191 193/193/193 190/190/190
f 196/196/196 195/195/195 194/194/194
f 194/194/194 197/197/197 196/196/196
f 194/194/194 198/198/198 197/197/197
f 199/199/199 196/196/196 197/197/197
f 197/197/197 200/200/200 199/199/199
f 197/197/197 201/201/201 200/200/200
f 202/202/202 199/199/199 200/200/200
f 200/200/200 203/203/203 202/202/202
f 200/200/200 204/204/204 203/203/203
f 204/204/204 206/206/206 205/205/205
f 207/207/207 204/204/204 205/205/205
f 207/207/207 205/205/205 208/208/208
f 208/208/208 209/209/209 207/207/207
f 212/212/212 211/211/211 210/210/210
f 210/210/210 213/213/213 212/212/212
f 210/210/210 214/214/214 213/213/213
f 217/217/217 216/216/216 215/215/215
f 215/215/215 218/218/218 217/217/217
f 215/215/215 219/219/219 218/218/218
f 219/219/219 220/220/220 218/218/218
f 222/222/222 217/217/217 221/221/221
f 221/221/221 223/223/223 222/222/222
f 221/221/221 224/224/224 223/223/223
f 221/221/221 225/225/225 224/224/224
f 228/228/228 227/227/227 226/226/226
f 229/229/229 228/228/228 226/226/226
f 229/229/229 226/226/226 230/230/230
f 229/229/229 230/230/230 231/231/231
f 232/232/232 228/228/228 229/229/229
f 232/232/232 233/233/233 228/228/228
f 229/229/229 234/234/234 232/232/232
f 235/235/235 234/234/234 229/229/229
f 231/231/231 236/236/236 229/229/229
f 235/235/235 229/229/229 236/236/236
f 236/236/236 237/237/237 235/235/235
f 236/236/236 231/231/231 238/238/238
f 239/239/239 237/237/237 236/236/236
f 240/240/240 236/236/236 238/238/238
f 240/240/240 239/239/239 236/236/236
f 238/238/238 241/241/241 240/240/240
f 242/242/242 239/239/239 240/240/240
f 241/241/241 243/243/243 240/240/240
f 244/244/244 242/242/242 240/240/240
f 243/243/243 244/244/244 240/240/240
