g Combined Mesh (root: scene) 29
v -274 -7 26
v -278 -7 26
v -274 -4 26
v -278 -4 26
v -278 -7 26
v -278 -7 21
v -278 -4 26
v -274 -7 26
v -274 -7 21
v -274 -4 26
v -274 -4 26
v -278 -4 26
v -274 -7 21
v -278 -7 21
v -274 -7 21
v -278 -7 21
v -274 -7 26
v -278 -7 26
v -249 -7 20
v -258 -7 20
v -249 -4 20
v -258 -4 20
v -258 -7 20
v -258 -7 15
v -258 -4 20
v -249 -7 20
v -249 -7 15
v -249 -4 20
v -249 -4 20
v -258 -4 20
v -249 -7 15
v -258 -7 15
v -249 -7 15
v -258 -7 15
v -249 -7 20
v -258 -7 20
v -228 -6.5 20
v -231 -7 20
v -228 -4 20
v -231 -4 20
v -231 -7 20
v -231 -7 15
v -231 -4 20
v -228 -6.5 20
v -228 -7 15
v -228 -4 20
v -228 -4 20
v -231 -4 20
v -228 -7 15
v -231 -7 15
v -228 -7 15
v -231 -7 15
v -228 -6.5 20
v -231 -7 20
v -192 25 96
v -200 25 96
v -192 25 96
v -200 29 96
v -200 25 96
v -200 25 80
v -200 29 96
v -200 29 80
v -200 25 80
v -192 25 80
v -200 29 80
v -192 25 80
v -192 25 80
v -192 25 96
v -192 25 80
v -192 25 96
v -192 25 96
v -200 29 96
v -192 25 80
v -200 29 80
v -192 25 80
v -200 25 80
v -192 25 96
v -200 25 96
vt 4 0
vt 0 0
vt 4 3
vt 0 3
vt 5 0
vt 0 0
vt 5 3
vt 0 0
vt 5 0
vt 0 3
vt 0 5.830953
vt 4 5.830953
vt 0 0
vt 4 0
vt 4 0
vt 0 0
vt 4 5
vt 0 5
vt 9 0
vt 0 0
vt 9 3
vt 0 3
vt 5 0
vt 0 0
vt 5 3
vt 0 0
vt 5 0
vt 0 3
vt 0 5.830953
vt 9 5.830953
vt 0 0
vt 9 0
vt 9 0
vt 0 0
vt 9 5
vt 0 5
vt 3 0.5
vt 0 0
vt 3 3
vt 0 3
vt 5 0
vt 0 0
vt 5 3
vt 0 0.5
vt 5 0
vt 0 3
vt 0 5.830953
vt 3 5.830953
vt 0 0
vt 3 0
vt 3 0
vt 0 0
vt 3 5.024938
vt 0 4.975186
vt 0 0
vt 0 0
vt 0 0
vt 0 0
vt 96 25
vt 80 25
vt 96 29
vt 80 29
vt 200 25
vt 192 25
vt 200 29
vt 192 25
vt 0 0
vt 0 0
vt 0 0
vt 0 0
vt 182.9104 96
vt 191.8546 96
vt 182.9104 80
vt 191.8546 80
vt -192 80
vt -200 80
vt -192 96
vt -200 96
vn 0 0 1
vn 0 0 1
vn 0 0 1
vn 0 0 1
vn -1 0 0
vn -1 0 0
vn -1 0 0
vn 1 0 0
vn 1 0 0
vn 1 0 0
vn 0 0.857493 -0.5144958
vn 0 0.857493 -0.5144958
vn 0 0.857493 -0.5144958
vn 0 0.857493 -0.5144958
vn 0 -1 0
vn 0 -1 0
vn 0 -1 0
vn 0 -1 0
vn 0 0 1
vn 0 0 1
vn 0 0 1
vn 0 0 1
vn -1 0 0
vn -1 0 0
vn -1 0 0
vn 1 0 0
vn 1 0 0
vn 1 0 0
vn 0 0.8574929 -0.5144957
vn 0 0.8574929 -0.5144957
vn 0 0.8574929 -0.5144957
vn 0 0.8574929 -0.5144957
vn 0 -1 0
vn 0 -1 0
vn 0 -1 0
vn 0 -1 0
vn 0 0 1
vn 0 0 1
vn 0 0 1
vn 0 0 1
vn -1 0 0
vn -1 0 0
vn -1 0 0
vn 1 0 0
vn 1 0 0
vn 1 0 0
vn 0 0.8574929 -0.5144958
vn 0 0.8574929 -0.5144958
vn 0 0.8574929 -0.5144958
vn 0 0.8574929 -0.5144958
vn 0 -0.9950372 0.09950372
vn 0.08294258 -0.995311 0.04976555
vn 0.08294258 -0.995311 0.04976555
vn 0.164399 -0.9863939 0
vn 0 0 0
vn 0 0 1
vn 0 0 1
vn 0 0 1
vn -1 0 0
vn -1 0 0
vn -1 0 0
vn -1 0 0
vn 0 0 -1
vn 0 0 -1
vn 0 0 -1
vn 0 0 0
vn 0 0 0
vn 0 0 0
vn 0 0 0
vn 0 0 0
vn 0.4472136 0.8944272 0
vn 0.4472136 0.8944272 0
vn 0.4472136 0.8944272 0
vn 0.4472136 0.8944272 0
vn 0 -1 0
vn 0 -1 0
vn 0 -1 0
vn 0 -1 0
g Combined Mesh (root: scene) 29_0
f 3/3/3 2/2/2 1/1/1
f 3/3/3 4/4/4 2/2/2
f 17/17/17 16/16/16 15/15/15
f 17/17/17 18/18/18 16/16/16
g Combined Mesh (root: scene) 29_1
f 7/7/7 6/6/6 5/5/5
f 9/9/9 10/10/10 8/8/8
g Combined Mesh (root: scene) 29_2
f 13/13/13 12/12/12 11/11/11
f 13/13/13 14/14/14 12/12/12
g Combined Mesh (root: scene) 29_3
f 21/21/21 20/20/20 19/19/19
f 21/21/21 22/22/22 20/20/20
f 35/35/35 34/34/34 33/33/33
f 35/35/35 36/36/36 34/34/34
g Combined Mesh (root: scene) 29_4
f 25/25/25 24/24/24 23/23/23
f 27/27/27 28/28/28 26/26/26
g Combined Mesh (root: scene) 29_5
f 31/31/31 30/30/30 29/29/29
f 31/31/31 32/32/32 30/30/30
g Combined Mesh (root: scene) 29_6
f 39/39/39 38/38/38 37/37/37
f 39/39/39 40/40/40 38/38/38
f 53/53/53 52/52/52 51/51/51
f 53/53/53 54/54/54 52/52/52
g Combined Mesh (root: scene) 29_7
f 43/43/43 42/42/42 41/41/41
f 45/45/45 46/46/46 44/44/44
g Combined Mesh (root: scene) 29_8
f 49/49/49 48/48/48 47/47/47
f 49/49/49 50/50/50 48/48/48
g Combined Mesh (root: scene) 29_9
f 57/57/57 56/56/56 55/55/55
f 57/57/57 58/58/58 56/56/56
f 61/61/61 60/60/60 59/59/59
f 61/61/61 62/62/62 60/60/60
f 69/69/69 68/68/68 67/67/67
f 69/69/69 70/70/70 68/68/68
f 77/77/77 76/76/76 75/75/75
f 77/77/77 78/78/78 76/76/76
g Combined Mesh (root: scene) 29_10
f 65/65/65 64/64/64 63/63/63
f 65/65/65 66/66/66 64/64/64
g Combined Mesh (root: scene) 29_11
f 73/73/73 72/72/72 71/71/71
f 73/73/73 74/74/74 72/72/72
