g Combined Mesh (root: scene) 27
v 20.0153 0.9914999 11.976
v 22.99701 0.9914999 11.976
v 20.0153 0.9914999 12.28329
v 22.99701 0.9914999 12.28328
v 37.976 2.959 24.97961
v 37.976 2.959 21.00399
v 38.28329 2.959 24.97961
v 38.28328 2.959 21.00399
v 107.476 4.929 7.354574
v 107.476 4.929 3.378962
v 107.7833 4.929 7.354573
v 107.7833 4.929 3.37896
vt 0 -2.975613
vt 0 1
vt 0.3072853 -2.975613
vt 0.3072853 1
vt 0 -2.975613
vt 0 1
vt 0.3072853 -2.975613
vt 0.3072853 1
vt 0 -2.975613
vt 0 1
vt 0.3072853 -2.975613
vt 0.3072853 1
vn 0 1 0
vn 0 1 0
vn 0 1 0
vn 0 1 0
vn 0 1 0
vn 0 1 0
vn 0 1 0
vn 0 1 0
vn 0 1 0
vn 0 1 0
vn 0 1 0
vn 0 1 0
g Combined Mesh (root: scene) 27_0
f 3/3/3 2/2/2 1/1/1
f 3/3/3 4/4/4 2/2/2
g Combined Mesh (root: scene) 27_1
f 7/7/7 6/6/6 5/5/5
f 7/7/7 8/8/8 6/6/6
g Combined Mesh (root: scene) 27_2
f 11/11/11 10/10/10 9/9/9
f 11/11/11 12/12/12 10/10/10
