g Combined Mesh (root: scene) 8
v -23.74927 -0.8545238 -21.89776
v -26.38054 -0.8447404 -23.52997
v -23.74948 -0.8803661 -23.52993
v -33.65078 0.8305635 -19.32226
v -31.75243 2.765302 -18.93715
v -31.78923 2.482078 -18.45573
v -33.42489 0.884802 -20.35794
v -33.78836 0.04285288 -21.05357
v -33.08247 0.3513838 -21.2217
v -34.76625 -0.6865942 -20.03563
v -34.75823 -0.7574714 -21.02685
v -33.63908 -0.4160193 -22.25893
v -34.74822 -0.8372115 -22.55193
v -34.7413 -0.922267 -23.5224
v -33.65078 0.8305635 -19.32226
v -31.86307 2.623619 -19.62226
v -34.77251 -0.5063719 -18.22867
v -33.73558 0.6888988 -18.00283
v -33.71566 0.243398 -16.77101
v -33.63908 -0.4160193 -22.25893
v -34.7413 -0.922267 -23.5224
v -32.31589 -0.7831786 -23.53457
v -32.41134 -0.1710544 -22.172
v -33.78836 0.04285288 -21.05357
v -33.08247 0.3513838 -21.2217
v -29.97351 -0.2050617 -22.0455
v -27.01669 -0.7062455 -22.80236
v -29.58902 -0.9005038 -23.53115
v -26.38054 -0.8447404 -23.52997
v -31.81608 0.333913 -21.56996
v -31.87581 2.131413 -20.38437
v -33.42489 0.884802 -20.35794
v -30.57138 0.2517854 -21.53129
v -30.81715 2.881405 -19.68539
v -28.89315 1.067915 -19.91117
v -29.80045 2.196285 -19.58469
v -29.19809 0.577105 -20.67813
v -28.78123 1.478192 -18.91909
v -30.16489 2.8161 -18.90046
v -28.25087 1.047242 -18.20407
v -27.79175 0.1754308 -20.5904
v -26.86919 -0.401934 -21.5814
v -25.34478 -0.4233866 -19.83727
v -27.66223 0.667174 -19.16316
v -28.78123 1.478192 -18.91909
v -28.89315 1.067915 -19.91117
v -28.25087 1.047242 -18.20407
v -25.01111 -0.4230131 -18.24857
v -28.42743 0.9993082 -17.52665
v -29.7744 1.804742 -17.5971
v -30.16489 2.8161 -18.90046
v -25.86475 -0.2147979 -17.26021
v -29.31784 0.8086197 -16.35641
v -28.03357 0.3542068 -16.26007
v -24.9301 -0.5895283 -16.80621
v -23.74823 -0.7373729 -18.1203
v -23.74996 -0.7775268 -19.19829
v -23.75064 -0.8358156 -15.88289
v -25.83347 -0.4216571 -16.24893
v -24.8039 -0.7175528 -15.68618
v -26.75018 0.1766567 -15.61005
v -27.4414 0.1277102 -14.9033
v -24.989 -0.8610882 -13.87299
v -23.74949 -0.9323988 -12.97161
v -26.74105 0.1054434 -15.07841
v -26.75 -0.8002806 -13.63
v -28.27173 -0.7301966 -13.86003
v -29.53256 -0.9481523 -12.96865
v -28.35027 0.2925735 -15.79615
v -31.63127 -0.4444996 -14.14786
v -31.89907 -0.8274474 -12.96864
v -28.75037 -0.2100304 -14.95011
v -30.74586 -0.04040959 -15.03253
v -33.17985 -0.4326173 -14.70337
v -34.74449 -0.938135 -12.97333
v -34.76151 -0.7657385 -15.50626
v -30.74146 1.363881 -16.79589
v -31.87008 0.1798796 -15.51431
v -33.75317 -0.2874682 -15.53424
v -34.74503 -0.7154924 -16.56085
v -30.85307 2.793514 -18.32457
v -32.80848 0.313116 -16.09693
v -33.71566 0.243398 -16.77101
v -34.77251 -0.5063719 -18.22867
v -32.43357 1.464012 -17.65078
v -33.73558 0.6888988 -18.00283
v -31.88945 1.580889 -17.37547
v -31.78923 2.482078 -18.45573
v -33.65078 0.8305635 -19.32226
v -31.75243 2.765302 -18.93715
v -31.86307 2.623619 -19.62226
v -30.8047 3.230661 -18.92592
v -30.81715 2.881405 -19.68539
v -29.80045 2.196285 -19.58469
v -31.87581 2.131413 -20.38437
v -33.42489 0.884802 -20.35794
v -23.74927 -0.8545238 -21.89776
v -23.74977 -0.743467 -20.50793
v -26.38054 -0.8447404 -23.52997
v -27.01669 -0.7062455 -22.80236
v -26.86919 -0.401934 -21.5814
v -29.97351 -0.2050617 -22.0455
v -25.34478 -0.4233866 -19.83727
v -23.74996 -0.7775268 -19.19829
v -25.01111 -0.4230131 -18.24857
v -27.66223 0.667174 -19.16316
v -27.79175 0.1754308 -20.5904
v -29.19809 0.577105 -20.67813
v -28.89315 1.067915 -19.91117
v 4 -4 4
v 0 -4 4
v 4 0 4
v 0 0 4
v 0 -4 4
v 0 -4 -22.5
v 0 0 4
v 0 0 -22.5
v 0 -4 -22.5
v 4 -4 -22.5
v 0 0 -22.5
v 4 0 -22.5
v 4 -4 -22.5
v 4 -4 4
v 4 0 -22.5
v 4 0 4
v 4 0 4
v 0 0 4
v 4 0 -22.5
v 0 0 -22.5
v 4 -4 -22.5
v 0 -4 -22.5
v 4 -4 4
v 0 -4 4
vt 0.2703913 0.5174314
vt 0.2299939 0.5522845
vt 0.2716387 0.5550172
vt 0.1227687 0.4605989
vt 0.1530832 0.4519008
vt 0.1536851 0.4370091
vt 0.1285433 0.4816026
vt 0.123017 0.4995626
vt 0.1374723 0.504518
vt 0.1089315 0.476693
vt 0.1089315 0.4989132
vt 0.1238305 0.5264411
vt 0.1089315 0.5330991
vt 0.1090539 0.5550172
vt 0.1227687 0.4605989
vt 0.1516576 0.4667888
vt 0.1089315 0.4362291
vt 0.1231671 0.4313174
vt 0.1234681 0.403695
vt 0.1238305 0.5264411
vt 0.1090539 0.5550172
vt 0.1471726 0.5549851
vt 0.1436009 0.5257365
vt 0.123017 0.4995626
vt 0.1374723 0.504518
vt 0.1814917 0.5211464
vt 0.2222084 0.5387086
vt 0.1852732 0.5550172
vt 0.2299939 0.5522845
vt 0.1523287 0.5110899
vt 0.1520262 0.4843526
vt 0.1285433 0.4816026
vt 0.1672431 0.5106434
vt 0.1671153 0.4685049
vt 0.1928449 0.470759
vt 0.1821429 0.4665971
vt 0.1891362 0.4892255
vt 0.1972187 0.4516802
vt 0.1822516 0.4523337
vt 0.2053401 0.4368141
vt 0.2123165 0.4880004
vt 0.2243239 0.5091241
vt 0.2481616 0.4700099
vt 0.2121532 0.457213
vt 0.1972187 0.4516802
vt 0.1928449 0.470759
vt 0.2053401 0.4368141
vt 0.2525153 0.4364523
vt 0.2026334 0.4219915
vt 0.1825282 0.4220526
vt 0.1822516 0.4523337
vt 0.2404476 0.4211253
vt 0.1827539 0.3937661
vt 0.2095821 0.3949975
vt 0.254453 0.4064572
vt 0.2716371 0.4337676
vt 0.2716348 0.4579384
vt 0.2716383 0.3836144
vt 0.240831 0.3923119
vt 0.2560565 0.3775188
vt 0.2272611 0.3775199
vt 0.2147929 0.3606345
vt 0.2508144 0.3416019
vt 0.2716403 0.3183527
vt 0.2273269 0.3627273
vt 0.2272637 0.3331442
vt 0.2056777 0.3383345
vt 0.185685 0.3183506
vt 0.1976385 0.3815557
vt 0.1544561 0.3464947
vt 0.1511039 0.3183527
vt 0.1976753 0.3627296
vt 0.1677699 0.3668967
vt 0.1342636 0.3537516
vt 0.1089795 0.3183551
vt 0.1089315 0.3752002
vt 0.1678271 0.404081
vt 0.1532117 0.3750791
vt 0.1236543 0.3758019
vt 0.1089315 0.3988207
vt 0.1674542 0.4381887
vt 0.1383382 0.3883044
vt 0.1234681 0.403695
vt 0.1089315 0.4362291
vt 0.137925 0.4243271
vt 0.1231671 0.4313174
vt 0.1528395 0.4167288
vt 0.1536851 0.4370091
vt 0.1227687 0.4605989
vt 0.1530832 0.4519008
vt 0.1516576 0.4667888
vt 0.1672886 0.4518333
vt 0.1671153 0.4685049
vt 0.1821429 0.4665971
vt 0.1520262 0.4843526
vt 0.1285433 0.4816026
vt 0.2703913 0.5174314
vt 0.2685231 0.4851211
vt 0.2299939 0.5522845
vt 0.2222084 0.5387086
vt 0.2243239 0.5091241
vt 0.1814917 0.5211464
vt 0.2481616 0.4700099
vt 0.2716348 0.4579384
vt 0.2525153 0.4364523
vt 0.2121532 0.457213
vt 0.2123165 0.4880004
vt 0.1891362 0.4892255
vt 0.1928449 0.470759
vt 0 0
vt -4 0
vt 0 4
vt -4 4
vt 12.5 0
vt -14 0
vt 12.5 4
vt -14 4
vt 4 0
vt 0 0
vt 4 4
vt 0 4
vt 14 0
vt -12.5 0
vt 14 4
vt -12.5 4
vt 0 12.5
vt 4 12.5
vt 0 -14
vt 4 -14
vt 0 -14
vt -4 -14
vt 0 12.5
vt -4 12.5
vn 0.04277016 0.9970966 -0.06300191
vn 0.03207542 0.9927266 -0.116039
vn 0.01351884 0.9997836 -0.01581313
vn -0.7427025 0.6688076 -0.03300617
vn -0.5310346 0.841487 0.09950842
vn -0.4943601 0.7637817 0.4150247
vn -0.6498746 0.6759472 -0.3475029
vn -0.5190142 0.7741165 -0.3624473
vn -0.3125651 0.720421 -0.6191095
vn -0.7504418 0.6469703 -0.1351541
vn -0.604551 0.7695436 -0.20572
vn -0.2830531 0.9023723 -0.3249696
vn -0.3912578 0.9112844 -0.1283665
vn -0.1512017 0.9560624 -0.2511628
vn -0.7427025 0.6688076 -0.03300617
vn -0.4904848 0.816415 -0.3047806
vn -0.7534103 0.6551937 0.05562582
vn -0.680001 0.7123474 0.1736659
vn -0.545235 0.782781 0.2999544
vn -0.2830531 0.9023723 -0.3249696
vn -0.1512017 0.9560624 -0.2511628
vn -0.02235662 0.9209408 -0.3890607
vn -0.09151978 0.8637586 -0.4955251
vn -0.5190142 0.7741165 -0.3624473
vn -0.3125651 0.720421 -0.6191095
vn 0.08945321 0.8712942 -0.4825396
vn 0.06838276 0.9730096 -0.2203998
vn 0.03296383 0.9306486 -0.3644265
vn 0.03207542 0.9927266 -0.116039
vn -0.04158475 0.6816072 -0.7305356
vn -0.2146209 0.6763058 -0.7046618
vn -0.6498746 0.6759472 -0.3475029
vn 0.1405522 0.7078178 -0.6922709
vn 0.1426063 0.8146123 -0.5622013
vn 0.4635711 0.7216925 -0.5140639
vn 0.5617387 0.6530252 -0.5079446
vn 0.3403102 0.7124415 -0.6136905
vn 0.6381879 0.7481807 -0.1814981
vn 0.5774097 0.8151325 0.04644432
vn 0.5115053 0.8481379 0.1379295
vn 0.2867854 0.8707202 -0.3995004
vn 0.1750439 0.9447713 -0.2770678
vn 0.2662046 0.9560272 -0.1230741
vn 0.4339097 0.8731453 -0.222125
vn 0.6381879 0.7481807 -0.1814981
vn 0.4635711 0.7216925 -0.5140639
vn 0.5115053 0.8481379 0.1379295
vn 0.3159171 0.9485141 0.02274721
vn 0.4246874 0.8445517 0.3261487
vn 0.3393024 0.7917244 0.5079825
vn 0.5774097 0.8151325 0.04644432
vn 0.355438 0.9188908 0.1711835
vn 0.2120204 0.8175414 0.535419
vn 0.2705228 0.9310209 0.2449845
vn 0.2310487 0.9680547 0.097399
vn 0.2274993 0.9733711 0.02815448
vn 0.2284082 0.9733209 -0.02182317
vn 0.1266606 0.9890313 0.07598842
vn 0.3256377 0.9449688 -0.03152743
vn 0.2452104 0.967822 0.05650116
vn 0.2707951 0.9607708 -0.05991369
vn -0.02961357 0.9131675 0.4065074
vn 0.1088317 0.984616 0.1367009
vn 0.0281301 0.9971402 0.07014284
vn 0.2300262 0.941398 0.2466936
vn 0.02348913 0.9270591 0.3741788
vn -0.02380167 0.9155496 0.4015
vn 0.03891236 0.9567794 0.2881996
vn 0.0172936 0.9078127 0.4190193
vn -0.03120276 0.9324101 0.3600524
vn -0.009534062 0.9574583 0.2884144
vn -0.05049516 0.8876488 0.4577442
vn 0.01873322 0.8640168 0.5031144
vn -0.1909158 0.9362462 0.2949479
vn -0.1078345 0.9762815 0.1877401
vn -0.4284545 0.8785442 0.211156
vn -0.002067462 0.7743049 0.6328094
vn -0.1412259 0.8448796 0.5159783
vn -0.4084803 0.8480166 0.3376562
vn -0.6210005 0.7622387 0.1826213
vn 0.005618989 0.8107516 0.5853633
vn -0.310314 0.8309294 0.4618023
vn -0.545235 0.782781 0.2999544
vn -0.7534103 0.6551937 0.05562582
vn -0.4615549 0.7455798 0.4807055
vn -0.680001 0.7123474 0.1736659
vn -0.283698 0.7494033 0.5982559
vn -0.4943601 0.7637817 0.4150247
vn -0.7427025 0.6688076 -0.03300617
vn -0.5310346 0.841487 0.09950842
vn -0.4904848 0.816415 -0.3047806
vn 0.09413115 0.9888331 0.1155357
vn 0.1426063 0.8146123 -0.5622013
vn 0.5617387 0.6530252 -0.5079446
vn -0.2146209 0.6763058 -0.7046618
vn -0.6498746 0.6759472 -0.3475029
vn 0.04277016 0.9970966 -0.06300191
vn 0.1526144 0.9849569 -0.08104727
vn 0.03207542 0.9927266 -0.116039
vn 0.06838276 0.9730096 -0.2203998
vn 0.1750439 0.9447713 -0.2770678
vn 0.08945321 0.8712942 -0.4825396
vn 0.2662046 0.9560272 -0.1230741
vn 0.2284082 0.9733209 -0.02182317
vn 0.3159171 0.9485141 0.02274721
vn 0.4339097 0.8731453 -0.222125
vn 0.2867854 0.8707202 -0.3995004
vn 0.3403102 0.7124415 -0.6136905
vn 0.4635711 0.7216925 -0.5140639
vn 0 0 1
vn 0 0 1
vn 0 0 1
vn 0 0 1
vn -1 0 0
vn -1 0 0
vn -1 0 0
vn -1 0 0
vn 0 0 -1
vn 0 0 -1
vn 0 0 -1
vn 0 0 -1
vn 1 0 0
vn 1 0 0
vn 1 0 0
vn 1 0 0
vn 0 1 0
vn 0 1 0
vn 0 1 0
vn 0 1 0
vn 0 -1 0
vn 0 -1 0
vn 0 -1 0
vn 0 -1 0
g Combined Mesh (root: scene) 8_0
f 3/3/3 2/2/2 1/1/1
f 6/6/6 5/5/5 4/4/4
f 9/9/9 8/8/8 7/7/7
f 10/10/10 7/7/7 8/8/8
f 11/11/11 10/10/10 8/8/8
f 11/11/11 8/8/8 12/12/12
f 13/13/13 11/11/11 12/12/12
f 12/12/12 14/14/14 13/13/13
f 15/15/15 7/7/7 10/10/10
f 16/16/16 7/7/7 15/15/15
f 10/10/10 17/17/17 15/15/15
f 17/17/17 18/18/18 15/15/15
f 19/19/19 18/18/18 17/17/17
f 22/22/22 21/21/21 20/20/20
f 23/23/23 22/22/22 20/20/20
f 20/20/20 24/24/24 23/23/23
f 24/24/24 25/25/25 23/23/23
f 23/23/23 26/26/26 22/22/22
f 26/26/26 27/27/27 22/22/22
f 28/28/28 22/22/22 27/27/27
f 29/29/29 28/28/28 27/27/27
f 30/30/30 23/23/23 25/25/25
f 31/31/31 30/30/30 25/25/25
f 31/31/31 25/25/25 32/32/32
f 30/30/30 33/33/33 23/23/23
f 30/30/30 31/31/31 33/33/33
f 33/33/33 26/26/26 23/23/23
f 33/33/33 31/31/31 34/34/34
f 34/34/34 35/35/35 33/33/33
f 35/35/35 34/34/34 36/36/36
f 35/35/35 37/37/37 33/33/33
f 26/26/26 33/33/33 37/37/37
f 38/38/38 35/35/35 36/36/36
f 39/39/39 38/38/38 36/36/36
f 40/40/40 38/38/38 39/39/39
f 26/26/26 37/37/37 41/41/41
f 42/42/42 26/26/26 41/41/41
f 42/42/42 41/41/41 43/43/43
f 46/46/46 45/45/45 44/44/44
f 44/44/44 45/45/45 47/47/47
f 47/47/47 48/48/48 44/44/44
f 47/47/47 49/49/49 48/48/48
f 50/50/50 49/49/49 47/47/47
f 51/51/51 50/50/50 47/47/47
f 49/49/49 52/52/52 48/48/48
f 50/50/50 53/53/53 49/49/49
f 52/52/52 49/49/49 54/54/54
f 53/53/53 54/54/54 49/49/49
f 55/55/55 48/48/48 52/52/52
f 56/56/56 48/48/48 55/55/55
f 57/57/57 48/48/48 56/56/56
f 58/58/58 56/56/56 55/55/55
f 55/55/55 52/52/52 59/59/59
f 59/59/59 52/52/52 54/54/54
f 58/58/58 55/55/55 60/60/60
f 55/55/55 59/59/59 60/60/60
f 59/59/59 54/54/54 61/61/61
f 59/59/59 61/61/61 60/60/60
f 54/54/54 62/62/62 61/61/61
f 58/58/58 60/60/60 63/63/63
f 58/58/58 63/63/63 64/64/64
f 60/60/60 61/61/61 65/65/65
f 62/62/62 65/65/65 61/61/61
f 63/63/63 60/60/60 65/65/65
f 63/63/63 65/65/65 62/62/62
f 63/63/63 66/66/66 64/64/64
f 63/63/63 62/62/62 66/66/66
f 64/64/64 66/66/66 67/67/67
f 62/62/62 67/67/67 66/66/66
f 68/68/68 64/64/64 67/67/67
f 62/62/62 54/54/54 69/69/69
f 69/69/69 54/54/54 53/53/53
f 67/67/67 70/70/70 68/68/68
f 68/68/68 70/70/70 71/71/71
f 72/72/72 67/67/67 62/62/62
f 72/72/72 62/62/62 69/69/69
f 70/70/70 67/67/67 72/72/72
f 72/72/72 69/69/69 73/73/73
f 69/69/69 53/53/53 73/73/73
f 73/73/73 70/70/70 72/72/72
f 70/70/70 74/74/74 71/71/71
f 74/74/74 75/75/75 71/71/71
f 76/76/76 75/75/75 74/74/74
f 53/53/53 77/77/77 73/73/73
f 77/77/77 53/53/53 50/50/50
f 73/73/73 78/78/78 70/70/70
f 78/78/78 74/74/74 70/70/70
f 77/77/77 78/78/78 73/73/73
f 79/79/79 76/76/76 74/74/74
f 76/76/76 79/79/79 80/80/80
f 81/81/81 77/77/77 50/50/50
f 50/50/50 51/51/51 81/81/81
f 82/82/82 79/79/79 74/74/74
f 82/82/82 74/74/74 78/78/78
f 79/79/79 83/83/83 80/80/80
f 83/83/83 79/79/79 82/82/82
f 80/80/80 83/83/83 84/84/84
f 85/85/85 83/83/83 82/82/82
f 82/82/82 78/78/78 85/85/85
f 86/86/86 83/83/83 85/85/85
f 87/87/87 78/78/78 77/77/77
f 78/78/78 87/87/87 85/85/85
f 81/81/81 87/87/87 77/77/77
f 88/88/88 86/86/86 85/85/85
f 88/88/88 85/85/85 87/87/87
f 88/88/88 87/87/87 81/81/81
f 86/86/86 88/88/88 89/89/89
f 88/88/88 81/81/81 90/90/90
f 90/90/90 91/91/91 89/89/89
f 81/81/81 92/92/92 90/90/90
f 51/51/51 92/92/92 81/81/81
f 90/90/90 92/92/92 93/93/93
f 92/92/92 51/51/51 93/93/93
f 91/91/91 90/90/90 93/93/93
f 51/51/51 94/94/94 93/93/93
f 93/93/93 95/95/95 91/91/91
f 95/95/95 96/96/96 91/91/91
f 99/99/99 98/98/98 97/97/97
f 99/99/99 100/100/100 98/98/98
f 100/100/100 101/101/101 98/98/98
f 100/100/100 102/102/102 101/101/101
f 98/98/98 101/101/101 103/103/103
f 104/104/104 98/98/98 103/103/103
f 103/103/103 105/105/105 104/104/104
f 105/105/105 103/103/103 106/106/106
f 107/107/107 106/106/106 103/103/103
f 106/106/106 107/107/107 108/108/108
f 109/109/109 106/106/106 108/108/108
g Combined Mesh (root: scene) 8_1
f 112/112/112 111/111/111 110/110/110
f 112/112/112 113/113/113 111/111/111
f 116/116/116 115/115/115 114/114/114
f 116/116/116 117/117/117 115/115/115
f 120/120/120 119/119/119 118/118/118
f 120/120/120 121/121/121 119/119/119
f 124/124/124 123/123/123 122/122/122
f 124/124/124 125/125/125 123/123/123
f 128/128/128 127/127/127 126/126/126
f 128/128/128 129/129/129 127/127/127
f 132/132/132 131/131/131 130/130/130
f 132/132/132 133/133/133 131/131/131
