g Combined Mesh (root: scene) 13
v -113 0 64
v -117 0 64
v -113 2 64
v -117 2 64
v -117 0 64
v -117 0 60
v -117 2 64
v -117 2 60
v -117 0 60
v -113 0 60
v -117 2 60
v -113 2 60
v -113 0 60
v -113 0 64
v -113 2 60
v -113 2 64
v -113 2 64
v -117 2 64
v -113 2 60
v -117 2 60
v -113 0 60
v -117 0 60
v -113 0 64
v -117 0 64
v -148 24 51
v -148 24 53
v -150 24 51
v -150 24 53
v -148 28 78
v -148 28 80
v -152 28 78
v -152 28 80
v -113 24 83
v -127 24 83
v -113 27 83
v -127 27 83
v -127 24 83
v -127 24 80
v -127 27 83
v -127 27 80
v -127 24 80
v -113 24 80
v -127 27 80
v -113 27 80
v -113 24 80
v -113 24 83
v -113 27 80
v -113 27 83
v -113 27 83
v -127 27 83
v -113 27 80
v -127 27 80
v -113 24 80
v -127 24 80
v -113 24 83
v -127 24 83
v -168 16 80
v -169 16 80
v -168 18 80
v -169 18 80
v -169 16 80
v -169 16 56
v -169 18 80
v -169 18 56
v -169 16 56
v -168 16 56
v -169 18 56
v -168 18 56
v -168 16 56
v -168 16 80
v -168 18 56
v -168 18 80
v -168 18 80
v -169 18 80
v -168 18 56
v -169 18 56
v -168 16 56
v -169 16 56
v -168 16 80
v -169 16 80
v -113 16 79
v -113 16 80
v -113 18 79
v -113 18 80
v -113 16 80
v -124 16 80.00002
v -113 18 80
v -124 18 80.00002
v -124 16 80.00002
v -124 16 79.00002
v -124 18 80.00002
v -124 18 79.00002
v -124 16 79.00002
v -113 16 79
v -124 18 79.00002
v -113 18 79
v -113 18 79
v -113 18 80
v -124 18 79.00002
v -124 18 80.00002
v -124 16 79.00002
v -124 16 80.00002
v -113 16 79
v -113 16 80
v -148 24 47
v -148 24 49
v -150 24 47
v -150 24 49
v -162 28 78
v -162 28 80
v -166 28 78
v -166 28 80
v -143 0 80
v -145 0 80
v -143 2 80
v -145 2 80
v -145 0 80
v -145 0 66
v -145 2 80
v -145 2 66
v -145 0 66
v -143 0 66
v -145 2 66
v -143 2 66
v -143 0 66
v -143 0 80
v -143 2 66
v -143 2 80
v -143 2 80
v -145 2 80
v -143 2 66
v -145 2 66
v -143 0 66
v -145 0 66
v -143 0 80
v -145 0 80
v -110 1 65
v -113 1 65
v -110 4 65
v -113 4 65
v -113 1 65
v -113 1 60
v -113 4 65
v -113 4 60
v -113 1 60
v -110 1 60
v -113 4 60
v -110 4 60
v -110 1 60
v -110 1 65
v -110 4 60
v -110 4 65
v -110 4 65
v -113 4 65
v -110 4 60
v -113 4 60
v -110 1 60
v -113 1 60
v -110 1 65
v -113 1 65
v -148 24 55
v -148 24 57
v -150 24 55
v -150 24 57
v -143 0 62
v -145 0 62
v -143 2 62
v -145 2 62
v -145 0 62
v -145 0 48
v -145 2 62
v -145 2 48
v -145 0 48
v -143 0 48
v -145 2 48
v -143 2 48
v -143 0 48
v -143 0 62
v -143 2 48
v -143 2 62
v -143 2 62
v -145 2 62
v -143 2 48
v -145 2 48
v -143 0 48
v -145 0 48
v -143 0 62
v -145 0 62
v -145 16 44
v -145 16 48
v -145 24 44
v -145 24 48
v -152.5 16 48
v -152.5 16 44
v -152.5 24 48
v -152.5 24 44
v -152.5 24 44
v -148 16 44
v -148 24 44
v -152.5 16 44
v -145 16 44
v -145 24 44
v -148 24 44
v -145 24 44
v -145 24 48
v -148 24 48
v -152.5 24 44
v -152.5 24 48
v -145 16 48
v -148 16 44
v -148 16 48
v -145 16 44
v -152.5 16 44
v -152.5 16 48
vt 0 0
vt -4 0
vt 0 2
vt -4 2
vt 0 0
vt -4 0
vt 0 2
vt -4 2
vt 4 0
vt 0 0
vt 4 2
vt 0 2
vt 4 0
vt 0 0
vt 4 2
vt 0 2
vt 0 0
vt 4 0
vt 0 -4
vt 4 -4
vt 0 -4
vt -4 -4
vt 0 0
vt -4 0
vt 0 0
vt 0 2
vt 2 0
vt 2 2
vt 0 0
vt 0 2
vt 4 0
vt 4 2
vt 0 0
vt -14 0
vt 0 3
vt -14 3
vt 0 0
vt -3 0
vt 0 3
vt -3 3
vt 14 0
vt 0 0
vt 14 3
vt 0 3
vt 3 0
vt 0 0
vt 3 3
vt 0 3
vt 0 0
vt 14 0
vt 0 -3
vt 14 -3
vt 0 -3
vt -14 -3
vt 0 0
vt -14 0
vt 0 0
vt -1 0
vt 0 2
vt -1 2
vt 0 0
vt -24 0
vt 0 2
vt -24 2
vt 1 0
vt 0 0
vt 1 2
vt 0 2
vt 24 0
vt 0 0
vt 24 2
vt 0 2
vt 0 0
vt 1 0
vt 0 -24
vt 1 -24
vt 0 -24
vt -1 -24
vt 0 0
vt -1 0
vt 0 0
vt -1 0
vt 0 2
vt -1 2
vt -3.034419E-07 0
vt -11 0
vt -3.034419E-07 2
vt -11 2
vt 1.000014 0
vt 1.382827E-05 0
vt 1.000014 2
vt 1.382827E-05 2
vt 11 0
vt 0 0
vt 11 2
vt 0 2
vt 0 0
vt 1 0
vt 3.33786E-06 -11
vt 1.000003 -11
vt -3.33786E-06 -11
vt -1.000003 -11
vt 0 0
vt -1 0
vt 0 0
vt 0 2
vt 2 0
vt 2 2
vt 0 0
vt 0 2
vt 4 0
vt 4 2
vt 0 0
vt -2 0
vt 0 2
vt -2 2
vt 0 0
vt -14 0
vt 0 2
vt -14 2
vt 2 0
vt 0 0
vt 2 2
vt 0 2
vt 14 0
vt 0 0
vt 14 2
vt 0 2
vt 0 0
vt 2 0
vt 0 -14
vt 2 -14
vt 0 -14
vt -2 -14
vt 0 0
vt -2 0
vt 0 0
vt -3 0
vt 0 3
vt -3 3
vt 2 0
vt -3 0
vt 2 3
vt -3 3
vt 3 0
vt 0 0
vt 3 3
vt 0 3
vt 3 0
vt -2 0
vt 3 3
vt -2 3
vt 0 2
vt 3 2
vt 0 -3
vt 3 -3
vt 0 -3
vt -3 -3
vt 0 2
vt -3 2
vt 0 0
vt 0 2
vt 2 0
vt 2 2
vt 0 0
vt -2 0
vt 0 2
vt -2 2
vt 0 0
vt -14 0
vt 0 2
vt -14 2
vt 2 0
vt 0 0
vt 2 2
vt 0 2
vt 14 0
vt 0 0
vt 14 2
vt 0 2
vt 0 0
vt 2 0
vt 0 -14
vt 2 -14
vt 0 -14
vt -2 -14
vt 0 0
vt -2 0
vt 4 0
vt 0 0
vt 4 8
vt 0 8
vt 0 0
vt -4 0
vt 0 8
vt -4 8
vt 7.5 8
vt 3 0
vt 3 8
vt 7.5 0
vt 0 0
vt 0 8
vt 3 -4
vt 0 -4
vt 0 0
vt 3 0
vt 7.5 -4
vt 7.5 0
vt 0 0
vt -3 -4
vt -3 0
vt 0 -4
vt -7.5 -4
vt -7.5 0
vn 0 0 1
vn 0 0 1
vn 0 0 1
vn 0 0 1
vn -1 0 0
vn -1 0 0
vn -1 0 0
vn -1 0 0
vn 0 0 -1
vn 0 0 -1
vn 0 0 -1
vn 0 0 -1
vn 1 0 0
vn 1 0 0
vn 1 0 0
vn 1 0 0
vn 0 1 0
vn 0 1 0
vn 0 1 0
vn 0 1 0
vn 0 -1 0
vn 0 -1 0
vn 0 -1 0
vn 0 -1 0
vn 0 1 0
vn 0 1 0
vn 0 1 0
vn 0 1 0
vn 0 1 0
vn 0 1 0
vn 0 1 0
vn 0 1 0
vn 0 0 1
vn 0 0 1
vn 0 0 1
vn 0 0 1
vn -1 0 0
vn -1 0 0
vn -1 0 0
vn -1 0 0
vn 0 0 -1
vn 0 0 -1
vn 0 0 -1
vn 0 0 -1
vn 1 0 0
vn 1 0 0
vn 1 0 0
vn 1 0 0
vn 0 1 0
vn 0 1 0
vn 0 1 0
vn 0 1 0
vn 0 -1 0
vn 0 -1 0
vn 0 -1 0
vn 0 -1 0
vn 0 0 1
vn 0 0 1
vn 0 0 1
vn 0 0 1
vn -1 0 0
vn -1 0 0
vn -1 0 0
vn -1 0 0
vn 0 0 -1
vn 0 0 -1
vn 0 0 -1
vn 0 0 -1
vn 1 0 0
vn 1 0 0
vn 1 0 0
vn 1 0 0
vn 0 1 0
vn 0 1 0
vn 0 1 0
vn 0 1 0
vn 0 -1 0
vn 0 -1 0
vn 0 -1 0
vn 0 -1 0
vn 1 0 -8.34465E-07
vn 1 0 -8.34465E-07
vn 1 0 -8.34465E-07
vn 1 0 -8.34465E-07
vn 1.137907E-06 0 1
vn 1.137907E-06 0 1
vn 1.137907E-06 0 1
vn 1.137907E-06 0 1
vn -1 0 -1.192093E-07
vn -1 0 -1.192093E-07
vn -1 0 -1.192093E-07
vn -1 0 -1.192093E-07
vn -1.137907E-06 0 -1
vn -1.137907E-06 0 -1
vn -1.137907E-06 0 -1
vn -1.137907E-06 0 -1
vn 0 1 0
vn 0 1 0
vn 0 1 0
vn 0 1 0
vn 0 -1 0
vn 0 -1 0
vn 0 -1 0
vn 0 -1 0
vn 0 1 0
vn 0 1 0
vn 0 1 0
vn 0 1 0
vn 0 1 0
vn 0 1 0
vn 0 1 0
vn 0 1 0
vn 0 0 1
vn 0 0 1
vn 0 0 1
vn 0 0 1
vn -1 0 0
vn -1 0 0
vn -1 0 0
vn -1 0 0
vn 0 0 -1
vn 0 0 -1
vn 0 0 -1
vn 0 0 -1
vn 1 0 0
vn 1 0 0
vn 1 0 0
vn 1 0 0
vn 0 1 0
vn 0 1 0
vn 0 1 0
vn 0 1 0
vn 0 -1 0
vn 0 -1 0
vn 0 -1 0
vn 0 -1 0
vn 0 0 1
vn 0 0 1
vn 0 0 1
vn 0 0 1
vn -1 0 0
vn -1 0 0
vn -1 0 0
vn -1 0 0
vn 0 0 -1
vn 0 0 -1
vn 0 0 -1
vn 0 0 -1
vn 1 0 0
vn 1 0 0
vn 1 0 0
vn 1 0 0
vn 0 1 0
vn 0 1 0
vn 0 1 0
vn 0 1 0
vn 0 -1 0
vn 0 -1 0
vn 0 -1 0
vn 0 -1 0
vn 0 1 0
vn 0 1 0
vn 0 1 0
vn 0 1 0
vn 0 0 1
vn 0 0 1
vn 0 0 1
vn 0 0 1
vn -1 0 0
vn -1 0 0
vn -1 0 0
vn -1 0 0
vn 0 0 -1
vn 0 0 -1
vn 0 0 -1
vn 0 0 -1
vn 1 0 0
vn 1 0 0
vn 1 0 0
vn 1 0 0
vn 0 1 0
vn 0 1 0
vn 0 1 0
vn 0 1 0
vn 0 -1 0
vn 0 -1 0
vn 0 -1 0
vn 0 -1 0
vn 1 0 0
vn 1 0 0
vn 1 0 0
vn 1 0 0
vn -1 0 0
vn -1 0 0
vn -1 0 0
vn -1 0 0
vn 0 0 -1
vn 0 0 -1
vn 0 0 -1
vn 0 0 -1
vn 0 0 -1
vn 0 0 -1
vn 0 1 0
vn 0 1 0
vn 0 1 0
vn 0 1 0
vn 0 1 0
vn 0 1 0
vn 0 -1 0
vn 0 -1 0
vn 0 -1 0
vn 0 -1 0
vn 0 -1 0
vn 0 -1 0
g Combined Mesh (root: scene) 13_0
g Combined Mesh (root: scene) 13_1
f 3/3/3 2/2/2 1/1/1
f 3/3/3 4/4/4 2/2/2
f 7/7/7 6/6/6 5/5/5
f 7/7/7 8/8/8 6/6/6
f 11/11/11 10/10/10 9/9/9
f 11/11/11 12/12/12 10/10/10
f 15/15/15 14/14/14 13/13/13
f 15/15/15 16/16/16 14/14/14
f 19/19/19 18/18/18 17/17/17
f 19/19/19 20/20/20 18/18/18
f 23/23/23 22/22/22 21/21/21
f 23/23/23 24/24/24 22/22/22
g Combined Mesh (root: scene) 13_2
g Combined Mesh (root: scene) 13_3
f 27/27/27 26/26/26 25/25/25
f 27/27/27 28/28/28 26/26/26
g Combined Mesh (root: scene) 13_4
g Combined Mesh (root: scene) 13_5
f 31/31/31 30/30/30 29/29/29
f 31/31/31 32/32/32 30/30/30
g Combined Mesh (root: scene) 13_6
g Combined Mesh (root: scene) 13_7
f 35/35/35 34/34/34 33/33/33
f 35/35/35 36/36/36 34/34/34
f 39/39/39 38/38/38 37/37/37
f 39/39/39 40/40/40 38/38/38
f 43/43/43 42/42/42 41/41/41
f 43/43/43 44/44/44 42/42/42
f 47/47/47 46/46/46 45/45/45
f 47/47/47 48/48/48 46/46/46
f 51/51/51 50/50/50 49/49/49
f 51/51/51 52/52/52 50/50/50
f 55/55/55 54/54/54 53/53/53
f 55/55/55 56/56/56 54/54/54
g Combined Mesh (root: scene) 13_8
g Combined Mesh (root: scene) 13_9
f 59/59/59 58/58/58 57/57/57
f 59/59/59 60/60/60 58/58/58
f 63/63/63 62/62/62 61/61/61
f 63/63/63 64/64/64 62/62/62
f 67/67/67 66/66/66 65/65/65
f 67/67/67 68/68/68 66/66/66
f 71/71/71 70/70/70 69/69/69
f 71/71/71 72/72/72 70/70/70
f 75/75/75 74/74/74 73/73/73
f 75/75/75 76/76/76 74/74/74
f 79/79/79 78/78/78 77/77/77
f 79/79/79 80/80/80 78/78/78
g Combined Mesh (root: scene) 13_10
g Combined Mesh (root: scene) 13_11
f 83/83/83 82/82/82 81/81/81
f 83/83/83 84/84/84 82/82/82
f 87/87/87 86/86/86 85/85/85
f 87/87/87 88/88/88 86/86/86
f 91/91/91 90/90/90 89/89/89
f 91/91/91 92/92/92 90/90/90
f 95/95/95 94/94/94 93/93/93
f 95/95/95 96/96/96 94/94/94
f 99/99/99 98/98/98 97/97/97
f 99/99/99 100/100/100 98/98/98
f 103/103/103 102/102/102 101/101/101
f 103/103/103 104/104/104 102/102/102
g Combined Mesh (root: scene) 13_12
g Combined Mesh (root: scene) 13_13
f 107/107/107 106/106/106 105/105/105
f 107/107/107 108/108/108 106/106/106
g Combined Mesh (root: scene) 13_14
g Combined Mesh (root: scene) 13_15
f 111/111/111 110/110/110 109/109/109
f 111/111/111 112/112/112 110/110/110
g Combined Mesh (root: scene) 13_16
g Combined Mesh (root: scene) 13_17
f 115/115/115 114/114/114 113/113/113
f 115/115/115 116/116/116 114/114/114
f 119/119/119 118/118/118 117/117/117
f 119/119/119 120/120/120 118/118/118
f 123/123/123 122/122/122 121/121/121
f 123/123/123 124/124/124 122/122/122
f 127/127/127 126/126/126 125/125/125
f 127/127/127 128/128/128 126/126/126
f 131/131/131 130/130/130 129/129/129
f 131/131/131 132/132/132 130/130/130
f 135/135/135 134/134/134 133/133/133
f 135/135/135 136/136/136 134/134/134
g Combined Mesh (root: scene) 13_18
g Combined Mesh (root: scene) 13_19
f 139/139/139 138/138/138 137/137/137
f 139/139/139 140/140/140 138/138/138
f 143/143/143 142/142/142 141/141/141
f 143/143/143 144/144/144 142/142/142
f 147/147/147 146/146/146 145/145/145
f 147/147/147 148/148/148 146/146/146
f 151/151/151 150/150/150 149/149/149
f 151/151/151 152/152/152 150/150/150
f 155/155/155 154/154/154 153/153/153
f 155/155/155 156/156/156 154/154/154
f 159/159/159 158/158/158 157/157/157
f 159/159/159 160/160/160 158/158/158
g Combined Mesh (root: scene) 13_20
g Combined Mesh (root: scene) 13_21
f 163/163/163 162/162/162 161/161/161
f 163/163/163 164/164/164 162/162/162
g Combined Mesh (root: scene) 13_22
g Combined Mesh (root: scene) 13_23
f 167/167/167 166/166/166 165/165/165
f 167/167/167 168/168/168 166/166/166
f 171/171/171 170/170/170 169/169/169
f 171/171/171 172/172/172 170/170/170
f 175/175/175 174/174/174 173/173/173
f 175/175/175 176/176/176 174/174/174
f 179/179/179 178/178/178 177/177/177
f 179/179/179 180/180/180 178/178/178
f 183/183/183 182/182/182 181/181/181
f 183/183/183 184/184/184 182/182/182
f 187/187/187 186/186/186 185/185/185
f 187/187/187 188/188/188 186/186/186
g Combined Mesh (root: scene) 13_24
g Combined Mesh (root: scene) 13_25
f 191/191/191 190/190/190 189/189/189
f 191/191/191 192/192/192 190/190/190
g Combined Mesh (root: scene) 13_26
f 195/195/195 194/194/194 193/193/193
f 195/195/195 196/196/196 194/194/194
f 199/199/199 198/198/198 197/197/197
f 198/198/198 200/200/200 197/197/197
f 202/202/202 201/201/201 199/199/199
f 201/201/201 198/198/198 199/199/199
f 205/205/205 204/204/204 203/203/203
f 205/205/205 203/203/203 206/206/206
f 206/206/206 203/203/203 207/207/207
f 206/206/206 207/207/207 208/208/208
f 211/211/211 210/210/210 209/209/209
f 210/210/210 212/212/212 209/209/209
f 214/214/214 213/213/213 211/211/211
f 213/213/213 210/210/210 211/211/211
