g Combined Mesh (root: scene) 2
v 45.875 1 27
v 45.875 1 25
v 45.875 5 27
v 45.875 5 25
v 45.875 1 25
v 47.875 1 25
v 45.875 5 25
v 47.875 5 25
v 47.875 1 25
v 47.875 1 27
v 47.875 5 25
v 47.875 5 27
v 47.875 1 27
v 45.875 1 27
v 47.875 5 27
v 45.875 5 27
v 45.875 5 27
v 45.875 5 25
v 47.875 5 27
v 47.875 5 25
v 47.875 -1 27.25
v 47.875 -1 24.75
v 45.875 -1 27.25
v 45.875 -1 24.75
v 47.875 0.75 27.25
v 47.875 0.75 24.75
v 45.875 1 27
v 47.875 1 27
v 45.875 0.75 27.25
v 47.875 0.75 27.25
v 47.875 1 25
v 45.875 1 25
v 47.875 0.75 24.75
v 45.875 0.75 24.75
v 45.875 0.75 24.75
v 45.875 0.75 27.25
v 47.875 -1 27.25
v 47.875 -1 24.75
v 45.875 0.75 27.25
v 47.875 0.75 27.25
v 45.875 -1 27.25
v 47.875 -1 27.25
v 47.875 0.75 24.75
v 45.875 0.75 24.75
v 47.875 -1 24.75
v 45.875 -1 24.75
v 45.875 -1 24.75
v 45.875 -1 27.25
v 60 1 38
v 58 1 38
v 60 5 38
v 58 5 38
v 58 1 38
v 58 1 36
v 58 5 38
v 58 5 36
v 58 1 36
v 60 1 36
v 58 5 36
v 60 5 36
v 60 1 36
v 60 1 38
v 60 5 36
v 60 5 38
v 60 5 38
v 58 5 38
v 60 5 36
v 58 5 36
v 60.25 -1 36
v 57.75 -1 36
v 60.25 -1 38
v 57.75 -1 38
v 60.25 0.75 36
v 57.75 0.75 36
v 60 1 38
v 60 1 36
v 60.25 0.75 38
v 60.25 0.75 36
v 58 1 36
v 58 1 38
v 57.75 0.75 36
v 57.75 0.75 38
v 57.75 0.75 38
v 60.25 0.75 38
v 60.25 -1 36
v 57.75 -1 36
v 60.25 0.75 38
v 60.25 0.75 36
v 60.25 -1 38
v 60.25 -1 36
v 57.75 0.75 36
v 57.75 0.75 38
v 57.75 -1 36
v 57.75 -1 38
v 57.75 -1 38
v 60.25 -1 38
v 76 1.25 38
v 74 1.25 38
v 76 5 38.125
v 74 5 38.125
v 74 1.25 38
v 74 1.25 36
v 74 5 38.125
v 74 5 36
v 74 1.25 36
v 76 1.25 36
v 74 5 36
v 76 5 36
v 76 1.25 36
v 76 1.25 38
v 76 5 36
v 76 5 38.125
v 76 5 38.125
v 74 5 38.125
v 76 5 36
v 74 5 36
v 75.75 0.875 36
v 74.25 0.875 36
v 75.75 1 37.125
v 74.25 1 37.125
v 75.75 0.875 36
v 74.25 0.875 36
v 76 -1 38
v 76 -1 36
v 75.75 -1 37.125
v 75.75 -1 36
v 74 -1 36
v 74 -1 38
v 74.25 -1 36
v 74.25 -1 37.125
v 74 1.25 38
v 76 1.25 38
v 74 -1 38
v 76 -1 38
v 74.25 1 37.125
v 74.25 0.875 36
v 74.25 -1 37.125
v 74.25 -1 36
v 76 -1 36
v 75.75 -1 36
v 75.75 1 37.125
v 74.25 1 37.125
v 75.75 -1 37.125
v 74.25 -1 37.125
v 76.25 1 38
v 76.25 1 36
v 76.25 -1 38
v 76.25 -1 36
v 75.75 0.875 36
v 75.75 1 37.125
v 75.75 -1 36
v 75.75 -1 37.125
v 73.75 1 36
v 73.75 1 38
v 73.75 -1 36
v 73.75 -1 38
v 74.25 -1 36
v 74 -1 36
v 76 1.25 38
v 76 1.25 36
v 76.25 1 38
v 76.25 1 36
v 76.25 -1 38
v 76.25 1 38
v 76.25 1 36
v 76.25 -1 36
v 76.25 -1 36
v 76.25 -1 38
v 74 1.25 36
v 74 1.25 38
v 73.75 1 36
v 73.75 1 38
v 73.75 -1 36
v 73.75 1 36
v 73.75 1 38
v 73.75 -1 38
v 73.75 -1 38
v 73.75 -1 36
vt 0 2
vt -2 2
vt 0 6
vt -2 6
vt 0 2
vt -2 2
vt 0 6
vt -2 6
vt 2 2
vt 0 2
vt 2 6
vt 0 6
vt 2 2
vt 0 2
vt 2 6
vt 0 6
vt 0 0
vt 2 0
vt 0 -2
vt 2 -2
vt 0.25 -2
vt -2.25 -2
vt 0.25 0
vt -2.25 0
vt -0.25 1.75
vt 2.25 1.75
vt 1.414214 0
vt 1.414214 -2
vt 1.06066 0
vt 1.06066 -2
vt 0 -2
vt 0 0
vt 0.3535534 -2
vt 0.3535534 0
vt -2.25 1.75
vt 0.25 1.75
vt -0.25 0
vt 2.25 0
vt 0 1.75
vt 2 1.75
vt 0 0
vt 2 0
vt -2 1.75
vt 0 1.75
vt -2 0
vt 0 0
vt -2.25 0
vt 0.25 0
vt 0 2
vt -2 2
vt 0 6
vt -2 6
vt 0 2
vt -2 2
vt 0 6
vt -2 6
vt 2 2
vt 0 2
vt 2 6
vt 0 6
vt 2 2
vt 0 2
vt 2 6
vt 0 6
vt 0 0
vt 2 0
vt 0 -2
vt 2 -2
vt 0.25 -2
vt -2.25 -2
vt 0.25 0
vt -2.25 0
vt -0.25 1.75
vt 2.25 1.75
vt 1.414214 0
vt 1.414214 -2
vt 1.06066 0
vt 1.06066 -2
vt 0 -2
vt 0 0
vt 0.3535534 -2
vt 0.3535534 0
vt -2.25 1.75
vt 0.25 1.75
vt -0.25 0
vt 2.25 0
vt 0 1.75
vt 2 1.75
vt 0 0
vt 2 0
vt -2 1.75
vt 0 1.75
vt -2 0
vt 0 0
vt -2.25 0
vt 0.25 0
vt 0 2.248751
vt -2 2.248751
vt 0 6.000834
vt -2 6.000834
vt 0 2.25
vt -2 2.25
vt 0.125 6
vt -2 6
vt 2 2.25
vt 0 2.25
vt 2 6
vt 0 6
vt 2 2.25
vt 0 2.25
vt 2 6
vt -0.125 6
vt 0 0.125
vt 2 0.125
vt 0 -2
vt 2 -2
vt -0.25 -1.780708
vt -1.75 -1.780708
vt -0.25 -0.6487852
vt -1.75 -0.6487852
vt 0.25 1.875
vt 1.75 1.875
vt 0 0
vt 0 -2
vt -0.25 -0.875
vt -0.25 -2
vt -2 -2
vt -2 0
vt -1.75 -2
vt -1.75 -0.875
vt -2 2.25
vt 0 2.25
vt -2 0
vt 0 0
vt 0.875 2
vt 2 1.875
vt 0.875 0
vt 2 0
vt 0 0
vt 0.25 0
vt 0.25 2
vt 1.75 2
vt 0.25 0
vt 1.75 0
vt 0 2
vt 2 2
vt 0 0
vt 2 0
vt -2 1.875
vt -0.875 2
vt -2 0
vt -0.875 0
vt -2 2
vt 0 2
vt -2 0
vt 0 0
vt 1.75 0
vt 2 0
vt 1.59099 0
vt 1.59099 -2
vt 1.237437 0
vt 1.237437 -2
vt 0.25 0
vt 0.25 2
vt -0.25 2
vt -0.25 0
vt 0.25 -2
vt 0.25 0
vt -0.1767767 -2
vt -0.1767767 0
vt 0.1767767 -2
vt 0.1767767 0
vt 2.25 0
vt 2.25 2
vt -2.25 2
vt -2.25 0
vt -2.25 0
vt -2.25 -2
vn -1 0 5.960464E-08
vn -1 0 5.960464E-08
vn -1 0 5.960464E-08
vn -1 0 5.960464E-08
vn -5.960464E-08 0 -1
vn -5.960464E-08 0 -1
vn -5.960464E-08 0 -1
vn -5.960464E-08 0 -1
vn 1 0 -5.960464E-08
vn 1 0 -5.960464E-08
vn 1 0 -5.960464E-08
vn 1 0 -5.960464E-08
vn 5.960464E-08 0 1
vn 5.960464E-08 0 1
vn 5.960464E-08 0 1
vn 5.960464E-08 0 1
vn 0 1 0
vn 0 1 0
vn 0 1 0
vn 0 1 0
vn 0 -1 0
vn 0 -1 0
vn 0 -1 0
vn 0 -1 0
vn 1 0 -5.960464E-08
vn 1 0 -5.960464E-08
vn 4.214685E-08 0.7071068 0.7071068
vn 4.214685E-08 0.7071068 0.7071068
vn 4.214685E-08 0.7071068 0.7071068
vn 4.214685E-08 0.7071068 0.7071068
vn -4.214685E-08 0.7071068 -0.7071068
vn -4.214685E-08 0.7071068 -0.7071068
vn -4.214685E-08 0.7071068 -0.7071068
vn -4.214685E-08 0.7071068 -0.7071068
vn -1 0 5.960464E-08
vn -1 0 5.960464E-08
vn 1 0 -5.960464E-08
vn 1 0 -5.960464E-08
vn 5.960464E-08 0 1
vn 5.960464E-08 0 1
vn 5.960464E-08 0 1
vn 5.960464E-08 0 1
vn -5.960464E-08 0 -1
vn -5.960464E-08 0 -1
vn -5.960464E-08 0 -1
vn -5.960464E-08 0 -1
vn -1 0 5.960464E-08
vn -1 0 5.960464E-08
vn 0 0 1
vn 0 0 1
vn 0 0 1
vn 0 0 1
vn -1 0 0
vn -1 0 0
vn -1 0 0
vn -1 0 0
vn 0 0 -1
vn 0 0 -1
vn 0 0 -1
vn 0 0 -1
vn 1 0 0
vn 1 0 0
vn 1 0 0
vn 1 0 0
vn 0 1 0
vn 0 1 0
vn 0 1 0
vn 0 1 0
vn 0 -1 0
vn 0 -1 0
vn 0 -1 0
vn 0 -1 0
vn 0 0 -1
vn 0 0 -1
vn 0.7071068 0.7071068 0
vn 0.7071068 0.7071068 0
vn 0.7071068 0.7071068 0
vn 0.7071068 0.7071068 0
vn -0.7071068 0.7071068 0
vn -0.7071068 0.7071068 0
vn -0.7071068 0.7071068 0
vn -0.7071068 0.7071068 0
vn 0 0 1
vn 0 0 1
vn 0 0 -1
vn 0 0 -1
vn 1 0 0
vn 1 0 0
vn 1 0 0
vn 1 0 0
vn -1 0 0
vn -1 0 0
vn -1 0 0
vn -1 0 0
vn 0 0 1
vn 0 0 1
vn 0 -0.03331483 0.9994449
vn 0 -0.03331483 0.9994449
vn 0 -0.03331483 0.9994449
vn 0 -0.03331483 0.9994449
vn -1 0 0
vn -1 0 0
vn -1 0 0
vn -1 0 0
vn 0 0 -1
vn 0 0 -1
vn 0 0 -1
vn 0 0 -1
vn 1 0 0
vn 1 0 0
vn 1 0 0
vn 1 0 0
vn 0 1 0
vn 0 1 0
vn 0 1 0
vn 0 1 0
vn 0 -0.9938837 0.1104315
vn 0 -0.9938837 0.1104315
vn 0 -0.9938837 0.1104315
vn 0 -0.9938837 0.1104315
vn 0 0 -1
vn 0 0 -1
vn 0 -1 0
vn 0 -1 0
vn 0 -1 0
vn 0 -1 0
vn 0 -1 0
vn 0 -1 0
vn 0 -1 0
vn 0 -1 0
vn 0 0 1
vn 0 0 1
vn 0 0 1
vn 0 0 1
vn 1 0 0
vn 1 0 0
vn 1 0 0
vn 1 0 0
vn 0 0 -1
vn 0 0 -1
vn 0 0 -1
vn 0 0 -1
vn 0 0 -1
vn 0 0 -1
vn 1 0 0
vn 1 0 0
vn 1 0 0
vn 1 0 0
vn -1 0 0
vn -1 0 0
vn -1 0 0
vn -1 0 0
vn -1 0 0
vn -1 0 0
vn -1 0 0
vn -1 0 0
vn 0 0 -1
vn 0 0 -1
vn 0.7071068 0.7071068 0
vn 0.7071068 0.7071068 0
vn 0.7071068 0.7071068 0
vn 0.7071068 0.7071068 0
vn 0 0 1
vn 0 0 1
vn 0 0 -1
vn 0 0 -1
vn 0 -1 0
vn 0 -1 0
vn -0.7071068 0.7071068 0
vn -0.7071068 0.7071068 0
vn -0.7071068 0.7071068 0
vn -0.7071068 0.7071068 0
vn 0 0 -1
vn 0 0 -1
vn 0 0 1
vn 0 0 1
vn 0 -1 0
vn 0 -1 0
g Combined Mesh (root: scene) 2_0
g Combined Mesh (root: scene) 2_1
f 3/3/3 2/2/2 1/1/1
f 3/3/3 4/4/4 2/2/2
f 7/7/7 6/6/6 5/5/5
f 7/7/7 8/8/8 6/6/6
f 11/11/11 10/10/10 9/9/9
f 11/11/11 12/12/12 10/10/10
f 15/15/15 14/14/14 13/13/13
f 15/15/15 16/16/16 14/14/14
f 19/19/19 18/18/18 17/17/17
f 19/19/19 20/20/20 18/18/18
f 23/23/23 22/22/22 21/21/21
f 23/23/23 24/24/24 22/22/22
f 25/25/25 9/9/9 10/10/10
f 25/25/25 26/26/26 9/9/9
f 29/29/29 28/28/28 27/27/27
f 29/29/29 30/30/30 28/28/28
f 33/33/33 32/32/32 31/31/31
f 33/33/33 34/34/34 32/32/32
f 35/35/35 1/1/1 2/2/2
f 35/35/35 36/36/36 1/1/1
f 37/37/37 26/26/26 25/25/25
f 37/37/37 38/38/38 26/26/26
f 41/41/41 40/40/40 39/39/39
f 41/41/41 42/42/42 40/40/40
f 45/45/45 44/44/44 43/43/43
f 45/45/45 46/46/46 44/44/44
f 47/47/47 36/36/36 35/35/35
f 47/47/47 48/48/48 36/36/36
g Combined Mesh (root: scene) 2_2
g Combined Mesh (root: scene) 2_3
f 51/51/51 50/50/50 49/49/49
f 51/51/51 52/52/52 50/50/50
f 55/55/55 54/54/54 53/53/53
f 55/55/55 56/56/56 54/54/54
f 59/59/59 58/58/58 57/57/57
f 59/59/59 60/60/60 58/58/58
f 63/63/63 62/62/62 61/61/61
f 63/63/63 64/64/64 62/62/62
f 67/67/67 66/66/66 65/65/65
f 67/67/67 68/68/68 66/66/66
f 71/71/71 70/70/70 69/69/69
f 71/71/71 72/72/72 70/70/70
f 73/73/73 57/57/57 58/58/58
f 73/73/73 74/74/74 57/57/57
f 77/77/77 76/76/76 75/75/75
f 77/77/77 78/78/78 76/76/76
f 81/81/81 80/80/80 79/79/79
f 81/81/81 82/82/82 80/80/80
f 83/83/83 49/49/49 50/50/50
f 83/83/83 84/84/84 49/49/49
f 85/85/85 74/74/74 73/73/73
f 85/85/85 86/86/86 74/74/74
f 89/89/89 88/88/88 87/87/87
f 89/89/89 90/90/90 88/88/88
f 93/93/93 92/92/92 91/91/91
f 93/93/93 94/94/94 92/92/92
f 95/95/95 84/84/84 83/83/83
f 95/95/95 96/96/96 84/84/84
g Combined Mesh (root: scene) 2_4
g Combined Mesh (root: scene) 2_5
f 99/99/99 98/98/98 97/97/97
f 99/99/99 100/100/100 98/98/98
f 103/103/103 102/102/102 101/101/101
f 103/103/103 104/104/104 102/102/102
f 107/107/107 106/106/106 105/105/105
f 107/107/107 108/108/108 106/106/106
f 111/111/111 110/110/110 109/109/109
f 111/111/111 112/112/112 110/110/110
f 115/115/115 114/114/114 113/113/113
f 115/115/115 116/116/116 114/114/114
f 119/119/119 118/118/118 117/117/117
f 119/119/119 120/120/120 118/118/118
f 121/121/121 105/105/105 106/106/106
f 121/121/121 122/122/122 105/105/105
f 125/125/125 124/124/124 123/123/123
f 125/125/125 126/126/126 124/124/124
f 129/129/129 128/128/128 127/127/127
f 129/129/129 130/130/130 128/128/128
f 130/130/130 123/123/123 128/128/128
f 130/130/130 125/125/125 123/123/123
f 133/133/133 132/132/132 131/131/131
f 133/133/133 134/134/134 132/132/132
f 137/137/137 136/136/136 135/135/135
f 137/137/137 138/138/138 136/136/136
f 139/139/139 121/121/121 106/106/106
f 139/139/139 140/140/140 121/121/121
f 143/143/143 142/142/142 141/141/141
f 143/143/143 144/144/144 142/142/142
f 147/147/147 146/146/146 145/145/145
f 147/147/147 148/148/148 146/146/146
f 151/151/151 150/150/150 149/149/149
f 151/151/151 152/152/152 150/150/150
f 155/155/155 154/154/154 153/153/153
f 155/155/155 156/156/156 154/154/154
f 157/157/157 105/105/105 122/122/122
f 157/157/157 158/158/158 105/105/105
f 161/161/161 160/160/160 159/159/159
f 161/161/161 162/162/162 160/160/160
f 163/163/163 132/132/132 134/134/134
f 163/163/163 164/164/164 132/132/132
f 165/165/165 139/139/139 106/106/106
f 165/165/165 166/166/166 139/139/139
f 167/167/167 123/123/123 124/124/124
f 167/167/167 168/168/168 123/123/123
f 171/171/171 170/170/170 169/169/169
f 171/171/171 172/172/172 170/170/170
f 173/173/173 105/105/105 158/158/158
f 173/173/173 174/174/174 105/105/105
f 175/175/175 133/133/133 131/131/131
f 175/175/175 176/176/176 133/133/133
f 177/177/177 127/127/127 128/128/128
f 177/177/177 178/178/178 127/127/127
