g Combined Mesh (root: scene) 22
v -1.25 -4 89
v -1.25 -4 91
v -2.25 -4 91
v -2.25 -4 89
v -1.25 -4 92
v -2.25 -4 92
v -3.25 -4 92
v -3.25 -4 91
v -4.25 -4 92
v -4.25 -4 91
v -3.25 -4 93
v -4.25 -4 93
v -3.25 -4 94
v -4.25 -4 94
v -2.25 -4 93
v -2.25 -4 94
v -1.25 -4 93
v -1.25 -4 94
v -1.25 -4 94
v -1.25 -3.9999 95
v -2.25 -3.9999 95
v -2.25 -4 94
v -1.25 -3.9998 96
v -2.25 -3.9998 96
v -5.25 -3.9997 96
v -5.25 -3.9998 95
v -6.25 -3.999599 96
v -6.25 -3.9997 95
v -5.25 -3.999599 97
v -6.25 -3.999499 97
v -5.25 -3.999499 98
v -6.25 -3.999399 98
v -5.25 -3.999599 97
v -2.25 -3.999499 97
v -2.25 -3.999399 98
v -5.25 -3.999499 98
v -2.25 -3.999499 97
v -1.25 -3.999399 97
v -1.25 -3.999299 98
v -2.25 -3.999399 98
v -1.25 -3.999199 101
v -2.25 -3.999299 101
v -1.25 -3.999099 102
v -2.25 -3.999199 102
v -2.25 -3.999199 102
v -3.25 -3.999099 102
v -3.25 -3.999199 101
v -2.25 -3.999299 101
v -4.25 -3.998999 102
v -4.25 -3.999099 101
v -4.25 -3.999099 101
v -4.25 -3.998999 100
v -3.25 -3.999099 100
v -3.25 -3.999199 101
v -4.25 -3.998899 99
v -3.25 -3.998999 99
v -5.25 -3.998899 100
v -5.25 -3.998798 99
v -6.25 -3.998798 100
v -6.25 -3.998698 99
v -5.25 -3.998899 100
v -5.25 -3.998798 100
v -6.25 -3.998698 100
v -6.25 -3.998798 100
v -5.25 -3.998798 100
v -5.25 -3.998698 105
v -6.25 -3.998598 105
v -6.25 -3.998698 100
v -5.25 -3.998598 106
v -6.25 -3.998498 106
v -5.25 -3.998698 105
v -4.25 -3.998598 105
v -4.25 -3.998498 106
v -5.25 -3.998598 106
v -3.25 -3.998498 105
v -3.25 -3.998398 106
v -4.25 -3.998598 105
v -4.25 -3.998498 104
v -3.25 -3.998398 104
v -3.25 -3.998498 105
v -4.25 -3.998398 103
v -3.25 -3.998298 103
v -2.25 -3.998198 103
v -2.25 -3.998298 104
v -1.25 -3.998097 103
v -1.25 -3.998198 104
v -1.25 -3.998198 104
v -1.25 -3.998097 106
v -2.25 -3.998198 106
v -2.25 -3.998298 104
v -2.249985 -4 116
v -2.25 -4 114
v -1.249985 -4 116
v -1.25 -4 114
v -2.25 -4 113
v -1.25 -4 113
v -3.25 -4 114
v -2.25 -4 113
v -2.25 -4 114
v -3.25 -4 113
v -4.25 -4 114
v -3.25 -4 113
v -3.25 -4 114
v -4.25 -4 113
v -4.25 -4 112
v -3.25 -4 112
v -4.25 -4 111
v -3.25 -4 111
v -2.25 -4 111
v -3.25 -4 112
v -3.25 -4 111
v -2.25 -4 112
v -1.25 -4 111
v -2.25 -4 112
v -2.25 -4 111
v -1.25 -4 112
v -2.250015 -3.9999 110
v -1.25 -4 111
v -2.25 -4 111
v -1.250015 -3.9999 110
v -2.250015 -3.9998 109
v -1.250015 -3.9999 110
v -1.250015 -3.9998 109
v -5.250015 -3.9998 110
v -2.250015 -3.9998 109
v -2.250015 -3.9999 110
v -5.250015 -3.9997 109
v -6.250015 -3.9997 110
v -5.250015 -3.9997 109
v -5.250015 -3.9998 110
v -6.250015 -3.999599 109
v -6.250015 -3.999499 108
v -6.250015 -3.999599 109
v -5.250015 -3.999599 108
v -6.250015 -3.999399 107
v -6.250015 -3.999499 108
v -5.250015 -3.999499 107
v -2.250015 -3.999399 107
v -5.250015 -3.999599 108
v -5.250015 -3.999499 107
v -2.250015 -3.999499 108
v -1.250015 -3.999299 107
v -2.250015 -3.999499 108
v -2.250015 -3.999399 107
v -1.250015 -3.999399 108
v -2.250031 -3.999299 106
v -1.250015 -3.999299 107
v -2.250015 -3.999399 107
v -1.250031 -3.999199 106
v 2.25 -4 89
v 2.25 -4 91
v 1.25 -4 89
v 1.25 -4 91
v 2.25 -4 92
v 1.25 -4 92
v 3.25 -4 91
v 3.25 -4 92
v 4.25 -4 91
v 4.25 -4 92
v 4.25 -4 93
v 3.25 -4 93
v 4.25 -4 94
v 3.25 -4 94
v 2.25 -4 94
v 2.25 -4 93
v 1.25 -4 94
v 1.25 -4 93
v 2.25 -3.9999 95
v 1.25 -4 94
v 2.25 -4 94
v 1.25 -3.9999 95
v 2.25 -3.9998 96
v 1.25 -3.9998 96
v 5.25 -3.9998 95
v 5.25 -3.9997 96
v 6.25 -3.9997 95
v 6.25 -3.999599 96
v 6.25 -3.999499 97
v 5.25 -3.999599 97
v 6.25 -3.999399 98
v 5.25 -3.999499 98
v 2.25 -3.999399 98
v 5.25 -3.999599 97
v 5.25 -3.999499 98
v 2.25 -3.999499 97
v 1.25 -3.999299 98
v 2.25 -3.999499 97
v 2.25 -3.999399 98
v 1.25 -3.999399 97
v 2.25 -3.999299 101
v 1.25 -3.999199 101
v 2.25 -3.999199 102
v 1.25 -3.999099 102
v 3.25 -3.999199 101
v 2.25 -3.999199 102
v 2.25 -3.999299 101
v 3.25 -3.999099 102
v 4.25 -3.999099 101
v 4.25 -3.998999 102
v 3.25 -3.999099 100
v 4.25 -3.999099 101
v 3.25 -3.999199 101
v 4.25 -3.998999 100
v 3.25 -3.998999 99
v 4.25 -3.998899 99
v 5.25 -3.998798 99
v 5.25 -3.998899 100
v 6.25 -3.998698 99
v 6.25 -3.998798 100
v 6.25 -3.998698 100
v 5.25 -3.998899 100
v 6.25 -3.998798 100
v 5.25 -3.998798 100
v 6.25 -3.998598 105
v 5.25 -3.998798 100
v 6.25 -3.998698 100
v 5.25 -3.998698 105
v 6.25 -3.998498 106
v 5.25 -3.998598 106
v 4.25 -3.998498 106
v 5.25 -3.998698 105
v 5.25 -3.998598 106
v 4.25 -3.998598 105
v 3.25 -3.998398 106
v 3.25 -3.998498 105
v 3.25 -3.998398 104
v 4.25 -3.998598 105
v 3.25 -3.998498 105
v 4.25 -3.998498 104
v 3.25 -3.998298 103
v 4.25 -3.998398 103
v 2.25 -3.998298 104
v 2.25 -3.998198 103
v 1.25 -3.998198 104
v 1.25 -3.998097 103
v 2.25 -3.998198 106
v 1.25 -3.998198 104
v 2.25 -3.998298 104
v 1.25 -3.998097 106
v 1.249985 -4 116
v 1.25 -4 114
v 2.25 -4 114
v 2.249985 -4 116
v 1.25 -4 114
v 1.25 -4 113
v 2.25 -4 113
v 3.25 -4 113
v 3.25 -4 114
v 3.25 -4 113
v 4.25 -4 113
v 4.25 -4 114
v 3.25 -4 112
v 4.25 -4 112
v 3.25 -4 111
v 4.25 -4 111
v 2.25 -4 112
v 2.25 -4 111
v 3.25 -4 111
v 1.25 -4 112
v 1.25 -4 111
v 1.25 -4 111
v 1.250015 -3.9999 110
v 2.250015 -3.9999 110
v 2.25 -4 111
v 1.250015 -3.9999 110
v 1.250015 -3.9998 109
v 2.250015 -3.9998 109
v 5.250015 -3.9997 109
v 5.250015 -3.9998 110
v 5.250015 -3.9997 109
v 6.250015 -3.999599 109
v 6.250015 -3.9997 110
v 5.250015 -3.999599 108
v 6.250015 -3.999499 108
v 6.250015 -3.999599 109
v 5.250015 -3.999499 107
v 6.250015 -3.999399 107
v 6.250015 -3.999499 108
v 5.250015 -3.999599 108
v 2.250015 -3.999499 108
v 2.250015 -3.999399 107
v 5.250015 -3.999499 107
v 1.250015 -3.999399 108
v 1.250015 -3.999299 107
v 1.250015 -3.999299 107
v 1.250031 -3.999199 106
v 2.250031 -3.999299 106
v 2.250015 -3.999399 107
vt 0 0
vt 0 2
vt 1 2
vt 1 0
vt 0 3
vt 1 3
vt 2 3
vt 2 2
vt 3 3
vt 3 2
vt 2 4
vt 3 4
vt 2 5
vt 3 5
vt 1 4
vt 1 5
vt 0 4
vt 0 5
vt 0 5
vt 0 6
vt 1 6
vt 1 5
vt 0 7
vt 1 7
vt 4 7
vt 4 6
vt 5 7
vt 5 6
vt 4 8
vt 5 8
vt 4 9
vt 5 9
vt 4 8
vt 1 8
vt 1 9
vt 4 9
vt 0.9999999 8
vt -6.016307E-08 8
vt -7.019025E-08 9
vt 0.9999999 9
vt -8.021743E-08 12
vt 0.9999999 12
vt -9.024461E-08 13
vt 0.9999999 13
vt 1 13
vt 2 13
vt 2 12
vt 1 12
vt 3 13
vt 3 12
vt 3 12
vt 3 11
vt 2 11
vt 2 12
vt 3 10
vt 2 10
vt 4 11
vt 4 10
vt 5 11
vt 5 10
vt 4 0.001101494
vt 4 0.00120163
vt 5 0.001301765
vt 5 0.00120163
vt 4 11
vt 4 16
vt 5 16
vt 5 11
vt 4 17
vt 5 17
vt 4 16
vt 3 16
vt 3 17
vt 4 17
vt 2 16
vt 2 17
vt 3 16
vt 3 15
vt 2 15
vt 2 16
vt 3 14
vt 2 14
vt 0.9999998 14
vt 0.9999998 15
vt -1.905164E-07 14
vt -1.804892E-07 15
vt -1.804892E-07 15
vt -1.905164E-07 17
vt 0.9999998 17
vt 0.9999998 15
vt -5 0
vt -5.000015 2
vt -4.000015 0
vt -4.000031 2
vt -5 3
vt -4 3
vt -2 2
vt -1 3
vt -1 2.000008
vt -2 2.999992
vt 1 2
vt 2 3
vt 2 2
vt 1 3
vt 1 4
vt 2 4
vt 1 5
vt 2 5
vt -1 5
vt -2 4
vt -2 4.999992
vt -1 4.000008
vt -4 5
vt -5 4
vt -5 5
vt -4 4
vt -4.999985 6
vt -3.999985 5
vt -4.999969 5
vt -4 6
vt -4.999969 7
vt -3.999969 6
vt -3.999969 7
vt 3.051758E-05 6
vt 3.000031 7
vt 3.000031 6.000008
vt 3.051758E-05 6.999992
vt 7.000031 6
vt 8.000031 7
vt 8.000031 6.000008
vt 7.000031 6.999992
vt 7.000031 7.999992
vt 7.000031 7
vt 8.000031 8
vt 7.000031 8.999992
vt 7.000031 8
vt 8.000031 9
vt 3.000031 9
vt 3.051758E-05 8
vt 3.051758E-05 8.999992
vt 3.000031 8.000008
vt -3.999969 9
vt -4.999969 8
vt -4.999969 9
vt -3.999969 8
vt -4.999954 9.999991
vt -3.99995 8.999999
vt -4.999939 8.999999
vt -3.999965 9.999991
vt -1 0
vt -1 2
vt 0 0
vt 0 2
vt -1 3
vt 0 3
vt -2 2
vt -2 3
vt -3 2
vt -3 3
vt -3 4
vt -2 4
vt -3 5
vt -2 5
vt -1 5
vt -1 4
vt 0 5
vt 0 4
vt -1 6
vt 0 5
vt -1 5
vt 0 6
vt -1 7
vt 0 7
vt -4 6
vt -4 7
vt -5 6
vt -5 7
vt -5 8
vt -4 8
vt -5 9
vt -4 9
vt -1 9
vt -4 8
vt -4 9
vt -1 8
vt 7.019025E-08 9
vt -0.9999999 8
vt -0.9999999 9
vt 6.016307E-08 8
vt -0.9999999 12
vt 8.021743E-08 12
vt -0.9999999 13
vt 9.024461E-08 13
vt -2 12
vt -1 13
vt -1 12
vt -2 13
vt -3 12
vt -3 13
vt -2 11
vt -3 12
vt -2 12
vt -3 11
vt -2 10
vt -3 10
vt -4 10
vt -4 11
vt -5 10
vt -5 11
vt -5 0.001301765
vt -4 0.001101494
vt -5 0.00120163
vt -4 0.00120163
vt -5 16
vt -4 11
vt -5 11
vt -4 16
vt -5 17
vt -4 17
vt -3 17
vt -4 16
vt -4 17
vt -3 16
vt -2 17
vt -2 16
vt -2 15
vt -3 16
vt -2 16
vt -3 15
vt -2 14
vt -3 14
vt -0.9999998 15
vt -0.9999998 14
vt 1.804892E-07 15
vt 1.905164E-07 14
vt -0.9999998 17
vt 1.804892E-07 15
vt -0.9999998 15
vt 1.905164E-07 17
vt -6 0
vt -5.999985 2
vt -5 2
vt -5.000015 0
vt -6 2
vt -6 3
vt -5 3
vt -4 2.999992
vt -4 2
vt -4 3
vt -3 3
vt -3 2
vt -4 4
vt -3 4
vt -4 5
vt -3 5
vt -5 4.000008
vt -5 5
vt -4 4.999992
vt -6 4
vt -6 5
vt -6 5
vt -5.999985 6
vt -5 6
vt -5.000015 5
vt -6 6
vt -6 7
vt -5 7
vt -2 6.999992
vt -2 6
vt -2 7
vt -1 6.999992
vt -1 6
vt -2 8
vt -1 7.999992
vt -1 7
vt -2 9
vt -1 8.999992
vt -1 8
vt -2 8
vt -5 8.000008
vt -5 9
vt -2 8.999992
vt -6 8
vt -6 9
vt -6 8.999999
vt -5.999985 9.999991
vt -4.999995 9.999991
vt -5.00001 8.999999
vn 0 1 0
vn 0 1 0
vn 0 1 0
vn 0 1 0
vn 0 1 0
vn 0 1 0
vn 0 1 0
vn 0 1 0
vn 0 1 0
vn 0 1 0
vn 0 1 0
vn 0 1 0
vn 0 1 0
vn 0 1 0
vn 0 1 0
vn 0 1 0
vn 0 1 0
vn 0 1 0
vn 0 1 -0.0001001358
vn 0 1 -0.0001001358
vn 0 1 -0.0001001358
vn 0 1 -0.0001001358
vn 0 1 -0.0001001358
vn 0 1 -0.0001001358
vn 3.33786E-05 1 -0.0001001358
vn 3.33786E-05 1 -0.0001001358
vn 0.0001001358 1 -0.0001001358
vn 0.0001001358 1 -0.0001001358
vn 0.0001001358 1 -0.0001001358
vn 0.0001001358 1 -0.0001001358
vn 0.0001001358 1 -0.0001001358
vn 0.0001001358 1 -0.0001001358
vn -3.33786E-05 1 -0.0001001358
vn -3.33786E-05 1 -0.0001001358
vn -3.33786E-05 1 -0.0001001358
vn -3.33786E-05 1 -0.0001001358
vn -0.0001001358 1 -0.0001001358
vn -0.0001001358 1 -0.0001001358
vn -0.0001001358 1 -0.0001001358
vn -0.0001001358 1 -0.0001001358
vn -0.0001001358 1 -3.33786E-05
vn -0.0001001358 1 -3.33786E-05
vn -0.0001001358 1 -0.0001001358
vn -0.0001001358 1 -0.0001001358
vn 0.0001001358 1 -0.0001001358
vn 0.0001001358 1 -0.0001001358
vn 0.0001001358 1 -0.0001001358
vn 0.0001001358 1 -0.0001001358
vn 0.0001001358 1 -0.0001001358
vn 0.0001001358 1 -0.0001001358
vn 0.0001001358 1 0.0001001358
vn 0.0001001358 1 0.0001001358
vn 0.0001001358 1 0.0001001358
vn 0.0001001358 1 0.0001001358
vn 0.0001001358 1 0.0001001358
vn 0.0001001358 1 0.0001001358
vn 0.0001001358 1 0.0001001358
vn 0.0001001358 1 0.0001001358
vn 0.0001001358 1 0.0001001358
vn 0.0001001358 1 0.0001001358
vn 0 0 -1
vn 0 0 -1
vn 0 0 -1
vn 0 0 -1
vn 0.0001001358 1 -2.002716E-05
vn 0.0001001358 1 -2.002716E-05
vn 0.0001001358 1 -2.002716E-05
vn 0.0001001358 1 -2.002716E-05
vn 0.0001001358 1 -0.0001001358
vn 0.0001001358 1 -0.0001001358
vn -0.0001001358 1 -0.0001001358
vn -0.0001001358 1 -0.0001001358
vn -0.0001001358 1 -0.0001001358
vn -0.0001001358 1 -0.0001001358
vn -0.0001001358 1 -0.0001001358
vn -0.0001001358 1 -0.0001001358
vn -0.0001001358 1 0.0001001358
vn -0.0001001358 1 0.0001001358
vn -0.0001001358 1 0.0001001358
vn -0.0001001358 1 0.0001001358
vn -0.0001001358 1 0.0001001358
vn -0.0001001358 1 0.0001001358
vn -0.0001001358 1 0.0001001358
vn -0.0001001358 1 0.0001001358
vn -0.0001001358 1 0.0001001358
vn -0.0001001358 1 0.0001001358
vn -0.0001001358 1 -5.00679E-05
vn -0.0001001358 1 -5.00679E-05
vn -0.0001001358 1 -5.00679E-05
vn -0.0001001358 1 -5.00679E-05
vn 0 1 0
vn 0 1 0
vn 0 1 0
vn 0 1 0
vn 0 1 0
vn 0 1 0
vn 0 1 0
vn 0 1 0
vn 0 1 0
vn 0 1 0
vn 0 1 0
vn 0 1 0
vn 0 1 0
vn 0 1 0
vn 0 1 0
vn 0 1 0
vn 0 1 0
vn 0 1 0
vn 0 1 0
vn 0 1 0
vn 0 1 0
vn 0 1 0
vn 0 1 0
vn 0 1 0
vn 0 1 0
vn 0 1 0
vn 0 1 0.0001001358
vn 0 1 0.0001001358
vn 0 1 0.0001001358
vn 0 1 0.0001001358
vn 0 1 0.0001001358
vn 0 1 0.0001001358
vn 0 1 0.0001001358
vn 3.337886E-05 1 0.0001001358
vn 3.337886E-05 1 0.0001001358
vn 3.337886E-05 1 0.0001001358
vn 3.337886E-05 1 0.0001001358
vn 0.0001001366 1 0.0001001358
vn 0.0001001366 1 0.0001001358
vn 0.0001001366 1 0.0001001358
vn 0.0001001366 1 0.0001001358
vn 0.0001001366 1 0.0001001358
vn 0.0001001366 1 0.0001001358
vn 0.0001001366 1 0.0001001358
vn 0.0001001366 1 0.0001001358
vn 0.0001001366 1 0.0001001358
vn 0.0001001366 1 0.0001001358
vn -3.337835E-05 1 0.0001001358
vn -3.337835E-05 1 0.0001001358
vn -3.337835E-05 1 0.0001001358
vn -3.337835E-05 1 0.0001001358
vn -0.0001001358 1 0.0001001358
vn -0.0001001358 1 0.0001001358
vn -0.0001001358 1 0.0001001358
vn -0.0001001358 1 0.0001001358
vn -0.0001001358 1 0.0001001381
vn -0.0001001358 1 0.0001001381
vn -0.0001001358 1 0.0001001381
vn -0.0001001358 1 0.0001001381
vn 0 1 0
vn 0 1 0
vn 0 1 0
vn 0 1 0
vn 0 1 0
vn 0 1 0
vn 0 1 0
vn 0 1 0
vn 0 1 0
vn 0 1 0
vn 0 1 0
vn 0 1 0
vn 0 1 0
vn 0 1 0
vn 0 1 0
vn 0 1 0
vn 0 1 0
vn 0 1 0
vn 0 1 -0.0001001358
vn 0 1 -0.0001001358
vn 0 1 -0.0001001358
vn 0 1 -0.0001001358
vn 0 1 -0.0001001358
vn 0 1 -0.0001001358
vn -3.33786E-05 1 -0.0001001358
vn -3.33786E-05 1 -0.0001001358
vn -0.0001001358 1 -0.0001001358
vn -0.0001001358 1 -0.0001001358
vn -0.0001001358 1 -0.0001001358
vn -0.0001001358 1 -0.0001001358
vn -0.0001001358 1 -0.0001001358
vn -0.0001001358 1 -0.0001001358
vn 3.33786E-05 1 -0.0001001358
vn 3.33786E-05 1 -0.0001001358
vn 3.33786E-05 1 -0.0001001358
vn 3.33786E-05 1 -0.0001001358
vn 0.0001001358 1 -0.0001001358
vn 0.0001001358 1 -0.0001001358
vn 0.0001001358 1 -0.0001001358
vn 0.0001001358 1 -0.0001001358
vn 0.0001001358 1 -3.33786E-05
vn 0.0001001358 1 -3.33786E-05
vn 0.0001001358 1 -0.0001001358
vn 0.0001001358 1 -0.0001001358
vn -0.0001001358 1 -0.0001001358
vn -0.0001001358 1 -0.0001001358
vn -0.0001001358 1 -0.0001001358
vn -0.0001001358 1 -0.0001001358
vn -0.0001001358 1 -0.0001001358
vn -0.0001001358 1 -0.0001001358
vn -0.0001001358 1 0.0001001358
vn -0.0001001358 1 0.0001001358
vn -0.0001001358 1 0.0001001358
vn -0.0001001358 1 0.0001001358
vn -0.0001001358 1 0.0001001358
vn -0.0001001358 1 0.0001001358
vn -0.0001001358 1 0.0001001358
vn -0.0001001358 1 0.0001001358
vn -0.0001001358 1 0.0001001358
vn -0.0001001358 1 0.0001001358
vn 0 0 -1
vn 0 0 -1
vn 0 0 -1
vn 0 0 -1
vn -0.0001001358 1 -2.002716E-05
vn -0.0001001358 1 -2.002716E-05
vn -0.0001001358 1 -2.002716E-05
vn -0.0001001358 1 -2.002716E-05
vn -0.0001001358 1 -0.0001001358
vn -0.0001001358 1 -0.0001001358
vn 0.0001001358 1 -0.0001001358
vn 0.0001001358 1 -0.0001001358
vn 0.0001001358 1 -0.0001001358
vn 0.0001001358 1 -0.0001001358
vn 0.0001001358 1 -0.0001001358
vn 0.0001001358 1 -0.0001001358
vn 0.0001001358 1 0.0001001358
vn 0.0001001358 1 0.0001001358
vn 0.0001001358 1 0.0001001358
vn 0.0001001358 1 0.0001001358
vn 0.0001001358 1 0.0001001358
vn 0.0001001358 1 0.0001001358
vn 0.0001001358 1 0.0001001358
vn 0.0001001358 1 0.0001001358
vn 0.0001001358 1 0.0001001358
vn 0.0001001358 1 0.0001001358
vn 0.0001001358 1 -5.00679E-05
vn 0.0001001358 1 -5.00679E-05
vn 0.0001001358 1 -5.00679E-05
vn 0.0001001358 1 -5.00679E-05
vn 0 1 0
vn 0 1 0
vn 0 1 0
vn 0 1 0
vn 0 1 0
vn 0 1 0
vn 0 1 0
vn 0 1 0
vn 0 1 0
vn 0 1 0
vn 0 1 0
vn 0 1 0
vn 0 1 0
vn 0 1 0
vn 0 1 0
vn 0 1 0
vn 0 1 0
vn 0 1 0
vn 0 1 0
vn 0 1 0
vn 0 1 0
vn 0 1 0.0001001358
vn 0 1 0.0001001358
vn 0 1 0.0001001358
vn 0 1 0.0001001358
vn 0 1 0.0001001358
vn 0 1 0.0001001358
vn 0 1 0.0001001358
vn -3.337886E-05 1 0.0001001358
vn -3.337886E-05 1 0.0001001358
vn -0.0001001366 1 0.0001001358
vn -0.0001001366 1 0.0001001358
vn -0.0001001366 1 0.0001001358
vn -0.0001001366 1 0.0001001358
vn -0.0001001366 1 0.0001001358
vn -0.0001001366 1 0.0001001358
vn -0.0001001366 1 0.0001001358
vn -0.0001001366 1 0.0001001358
vn -0.0001001366 1 0.0001001358
vn 3.337835E-05 1 0.0001001358
vn 3.337835E-05 1 0.0001001358
vn 3.337835E-05 1 0.0001001358
vn 3.337835E-05 1 0.0001001358
vn 0.0001001358 1 0.0001001358
vn 0.0001001358 1 0.0001001358
vn 0.0001001358 1 0.0001001381
vn 0.0001001358 1 0.0001001381
vn 0.0001001358 1 0.0001001381
vn 0.0001001358 1 0.0001001381
g Combined Mesh (root: scene) 22_0
f 3/3/3 2/2/2 1/1/1
f 4/4/4 3/3/3 1/1/1
f 6/6/6 5/5/5 2/2/2
f 6/6/6 2/2/2 3/3/3
f 8/8/8 7/7/7 6/6/6
f 8/8/8 6/6/6 3/3/3
f 10/10/10 9/9/9 7/7/7
f 10/10/10 7/7/7 8/8/8
f 12/12/12 11/11/11 7/7/7
f 12/12/12 7/7/7 9/9/9
f 14/14/14 13/13/13 11/11/11
f 14/14/14 11/11/11 12/12/12
f 16/16/16 15/15/15 11/11/11
f 16/16/16 11/11/11 13/13/13
f 18/18/18 17/17/17 15/15/15
f 18/18/18 15/15/15 16/16/16
f 21/21/21 20/20/20 19/19/19
f 21/21/21 19/19/19 22/22/22
f 24/24/24 23/23/23 20/20/20
f 24/24/24 20/20/20 21/21/21
f 26/26/26 25/25/25 24/24/24
f 26/26/26 24/24/24 21/21/21
f 28/28/28 27/27/27 25/25/25
f 28/28/28 25/25/25 26/26/26
f 30/30/30 29/29/29 25/25/25
f 30/30/30 25/25/25 27/27/27
f 32/32/32 31/31/31 29/29/29
f 32/32/32 29/29/29 30/30/30
f 35/35/35 34/34/34 33/33/33
f 35/35/35 33/33/33 36/36/36
f 39/39/39 38/38/38 37/37/37
f 39/39/39 37/37/37 40/40/40
f 42/42/42 41/41/41 39/39/39
f 42/42/42 39/39/39 40/40/40
f 44/44/44 43/43/43 41/41/41
f 44/44/44 41/41/41 42/42/42
f 47/47/47 46/46/46 45/45/45
f 47/47/47 45/45/45 48/48/48
f 50/50/50 49/49/49 46/46/46
f 50/50/50 46/46/46 47/47/47
f 53/53/53 52/52/52 51/51/51
f 53/53/53 51/51/51 54/54/54
f 56/56/56 55/55/55 52/52/52
f 56/56/56 52/52/52 53/53/53
f 58/58/58 57/57/57 52/52/52
f 58/58/58 52/52/52 55/55/55
f 60/60/60 59/59/59 57/57/57
f 60/60/60 57/57/57 58/58/58
f 63/63/63 62/62/62 61/61/61
f 63/63/63 61/61/61 64/64/64
f 67/67/67 66/66/66 65/65/65
f 67/67/67 65/65/65 68/68/68
f 70/70/70 69/69/69 66/66/66
f 70/70/70 66/66/66 67/67/67
f 73/73/73 72/72/72 71/71/71
f 73/73/73 71/71/71 74/74/74
f 76/76/76 75/75/75 72/72/72
f 76/76/76 72/72/72 73/73/73
f 79/79/79 78/78/78 77/77/77
f 79/79/79 77/77/77 80/80/80
f 82/82/82 81/81/81 78/78/78
f 82/82/82 78/78/78 79/79/79
f 84/84/84 83/83/83 82/82/82
f 84/84/84 82/82/82 79/79/79
f 86/86/86 85/85/85 83/83/83
f 86/86/86 83/83/83 84/84/84
f 89/89/89 88/88/88 87/87/87
f 89/89/89 87/87/87 90/90/90
f 93/93/93 92/92/92 91/91/91
f 93/93/93 94/94/94 92/92/92
f 92/92/92 94/94/94 95/95/95
f 94/94/94 96/96/96 95/95/95
f 99/99/99 98/98/98 97/97/97
f 98/98/98 100/100/100 97/97/97
f 103/103/103 102/102/102 101/101/101
f 102/102/102 104/104/104 101/101/101
f 104/104/104 102/102/102 105/105/105
f 102/102/102 106/106/106 105/105/105
f 105/105/105 106/106/106 107/107/107
f 106/106/106 108/108/108 107/107/107
f 111/111/111 110/110/110 109/109/109
f 110/110/110 112/112/112 109/109/109
f 115/115/115 114/114/114 113/113/113
f 114/114/114 116/116/116 113/113/113
f 119/119/119 118/118/118 117/117/117
f 118/118/118 120/120/120 117/117/117
f 117/117/117 122/122/122 121/121/121
f 122/122/122 123/123/123 121/121/121
f 126/126/126 125/125/125 124/124/124
f 125/125/125 127/127/127 124/124/124
f 130/130/130 129/129/129 128/128/128
f 129/129/129 131/131/131 128/128/128
f 133/133/133 129/129/129 132/132/132
f 129/129/129 134/134/134 132/132/132
f 136/136/136 134/134/134 135/135/135
f 134/134/134 137/137/137 135/135/135
f 140/140/140 139/139/139 138/138/138
f 139/139/139 141/141/141 138/138/138
f 144/144/144 143/143/143 142/142/142
f 143/143/143 145/145/145 142/142/142
f 148/148/148 147/147/147 146/146/146
f 147/147/147 149/149/149 146/146/146
g Combined Mesh (root: scene) 22_1
f 152/152/152 151/151/151 150/150/150
f 152/152/152 153/153/153 151/151/151
f 151/151/151 153/153/153 154/154/154
f 153/153/153 155/155/155 154/154/154
f 151/151/151 154/154/154 156/156/156
f 154/154/154 157/157/157 156/156/156
f 156/156/156 157/157/157 158/158/158
f 157/157/157 159/159/159 158/158/158
f 159/159/159 157/157/157 160/160/160
f 157/157/157 161/161/161 160/160/160
f 160/160/160 161/161/161 162/162/162
f 161/161/161 163/163/163 162/162/162
f 163/163/163 161/161/161 164/164/164
f 161/161/161 165/165/165 164/164/164
f 164/164/164 165/165/165 166/166/166
f 165/165/165 167/167/167 166/166/166
f 170/170/170 169/169/169 168/168/168
f 169/169/169 171/171/171 168/168/168
f 168/168/168 171/171/171 172/172/172
f 171/171/171 173/173/173 172/172/172
f 168/168/168 172/172/172 174/174/174
f 172/172/172 175/175/175 174/174/174
f 174/174/174 175/175/175 176/176/176
f 175/175/175 177/177/177 176/176/176
f 177/177/177 175/175/175 178/178/178
f 175/175/175 179/179/179 178/178/178
f 178/178/178 179/179/179 180/180/180
f 179/179/179 181/181/181 180/180/180
f 184/184/184 183/183/183 182/182/182
f 183/183/183 185/185/185 182/182/182
f 188/188/188 187/187/187 186/186/186
f 187/187/187 189/189/189 186/186/186
f 188/188/188 186/186/186 190/190/190
f 186/186/186 191/191/191 190/190/190
f 190/190/190 191/191/191 192/192/192
f 191/191/191 193/193/193 192/192/192
f 196/196/196 195/195/195 194/194/194
f 195/195/195 197/197/197 194/194/194
f 194/194/194 197/197/197 198/198/198
f 197/197/197 199/199/199 198/198/198
f 202/202/202 201/201/201 200/200/200
f 201/201/201 203/203/203 200/200/200
f 200/200/200 203/203/203 204/204/204
f 203/203/203 205/205/205 204/204/204
f 205/205/205 203/203/203 206/206/206
f 203/203/203 207/207/207 206/206/206
f 206/206/206 207/207/207 208/208/208
f 207/207/207 209/209/209 208/208/208
f 212/212/212 211/211/211 210/210/210
f 211/211/211 213/213/213 210/210/210
f 216/216/216 215/215/215 214/214/214
f 215/215/215 217/217/217 214/214/214
f 214/214/214 217/217/217 218/218/218
f 217/217/217 219/219/219 218/218/218
f 222/222/222 221/221/221 220/220/220
f 221/221/221 223/223/223 220/220/220
f 220/220/220 223/223/223 224/224/224
f 223/223/223 225/225/225 224/224/224
f 228/228/228 227/227/227 226/226/226
f 227/227/227 229/229/229 226/226/226
f 226/226/226 229/229/229 230/230/230
f 229/229/229 231/231/231 230/230/230
f 226/226/226 230/230/230 232/232/232
f 230/230/230 233/233/233 232/232/232
f 232/232/232 233/233/233 234/234/234
f 233/233/233 235/235/235 234/234/234
f 238/238/238 237/237/237 236/236/236
f 237/237/237 239/239/239 236/236/236
f 242/242/242 241/241/241 240/240/240
f 243/243/243 242/242/242 240/240/240
f 246/246/246 245/245/245 244/244/244
f 246/246/246 244/244/244 242/242/242
f 248/248/248 247/247/247 246/246/246
f 248/248/248 246/246/246 242/242/242
f 251/251/251 250/250/250 249/249/249
f 251/251/251 249/249/249 248/248/248
f 253/253/253 252/252/252 249/249/249
f 253/253/253 249/249/249 250/250/250
f 255/255/255 254/254/254 252/252/252
f 255/255/255 252/252/252 253/253/253
f 257/257/257 256/256/256 252/252/252
f 257/257/257 252/252/252 258/258/258
f 260/260/260 259/259/259 256/256/256
f 260/260/260 256/256/256 257/257/257
f 263/263/263 262/262/262 261/261/261
f 263/263/263 261/261/261 264/264/264
f 267/267/267 266/266/266 265/265/265
f 267/267/267 265/265/265 263/263/263
f 269/269/269 268/268/268 267/267/267
f 269/269/269 267/267/267 263/263/263
f 272/272/272 271/271/271 270/270/270
f 272/272/272 270/270/270 269/269/269
f 274/274/274 273/273/273 270/270/270
f 274/274/274 270/270/270 275/275/275
f 277/277/277 276/276/276 273/273/273
f 277/277/277 273/273/273 278/278/278
f 281/281/281 280/280/280 279/279/279
f 281/281/281 279/279/279 282/282/282
f 284/284/284 283/283/283 280/280/280
f 284/284/284 280/280/280 281/281/281
f 287/287/287 286/286/286 285/285/285
f 287/287/287 285/285/285 288/288/288
