g Combined Mesh (root: scene) 16
v -32 38 66.0001
v -34 38 66.0001
v -32 40.5 66.0001
v -34 40.5 66.0001
v -34 38 10
v -32 38 10
v -34 40.5 10
v -32 40.5 10
v -32 38 13.0001
v -34 38 13.0001
v -32 38 66.0001
v -34 38 66.0001
v -29.5 40.5 13.0001
v -29.5 38 13.0001
v -29.5 40.5 66.0001
v -29.5 38 66.0001
v -72 38 13.0001
v -72 40.5 13.0001
v -72 38 66.0001
v -72 40.5 66.0001
v -34 40.5 13.0001
v -32 40.5 13.0001
v -34 40.5 66.0001
v -32 40.5 66.0001
v -34 8.999901 13.0001
v -32 8.999901 13.0001
v -34 8.999901 10
v -32 8.999901 10
v -34 40.5 13.0001
v -34 38 13.0001
v -34 40.5 10
v -34 38 10
v -32 38 13.0001
v -32 40.5 13.0001
v -32 38 10
v -32 40.5 10
v -32 40.5 10
v -34 40.5 10
v -34 38 13.0001
v -32 38 13.0001
v -34 8.999901 13.0001
v -32 8.999901 13.0001
v -34 8.999901 10
v -34 8.999901 13.0001
v -32 8.999901 13.0001
v -32 8.999901 10
v -32 8.999901 10
v -34 8.999901 10
v -34 38 13.0001
v -34 40.5 13.0001
v -72 38 13.0001
v -72 40.5 13.0001
v -72 38 66.0001
v -72 38 13.0001
v -72 40.5 13.0001
v -72 40.5 66.0001
v -72 40.5 66.0001
v -72 38 66.0001
v -32 40.5 13.0001
v -32 38 13.0001
v -29.5 40.5 13.0001
v -29.5 38 13.0001
v -29.5 40.5 66.0001
v -29.5 40.5 13.0001
v -29.5 38 13.0001
v -29.5 38 66.0001
v -29.5 38 66.0001
v -29.5 40.5 66.0001
v 3.99995 -8 57
v 3.99995 -8 62
v 3.99995 9.99995 57
v 3.99995 9.99995 62
v 3.99995 9.99995 62
v -5.00679E-05 9.99995 62
v 3.99995 9.99995 57
v -5.00679E-05 9.99995 57
v 3.99995 -8 62
v -5.00679E-05 -8 62
v 3.99995 9.99995 62
v -5.00679E-05 9.99995 62
v -5.00679E-05 -8 62
v -5.00679E-05 -8 57
v -5.00679E-05 9.99995 62
v -5.00679E-05 9.99995 57
v -5.00679E-05 -8 57
v 3.99995 -8 57
v -5.00679E-05 9.99995 57
v 3.99995 9.99995 57
v 3.99995 -8 57
v -5.00679E-05 -8 57
v 3.99995 -8 62
v -5.00679E-05 -8 62
v 3.99995 10.00005 57
v 3.99995 9.99995 62
v 3.99995 9.99995 57
v 3.99995 10.00005 62
v -57 38 66
v -57 -8 165
v -57 38 165
v -57 -8 66
v 22 38 165
v 22 38 66
v 22 65 66
v 22 65 165
v 22 -8 165
v 22 -8 66
v 22 -55.18883 165
v 22 -55.18883 66
v 22 -36.81116 66
v 22 -36.81116 165
v -57 -36.81116 66
v -57 -55.18883 165
v -57 -36.81116 165
v -57 -55.18883 66
v -32 65 165
v -57 65 66
v -57 65 165
v -32 65 66
v -57 -55.18883 66
v -32 -55.18883 66
v -32 -55.18883 165
v -57 -55.18883 165
v -57 65 165
v -32 38 165
v -32 65 165
v -57 38 165
v -32 -8 165
v -57 -8 165
v -32 -8 66
v -57 -8 66
v -57 38 66
v -32 38 66
v -32 -55.18883 66
v -57 -55.18883 66
v -32 -36.81116 66
v -57 -36.81116 66
v -32 -36.81116 165
v -57 -36.81116 165
v -57 -55.18883 165
v -32 -55.18883 165
v 2 65 165
v 3.99995 65 66
v 22 65 165
v 22 65 66
v 3.99995 -55.18883 66
v 2 -55.18883 165
v 22 -55.18883 66
v 22 -55.18883 165
v 2 65 165
v 22 38 165
v 22 65 165
v 2 38 165
v 22 -8 165
v 2 -8 165
v 22 38 66
v 3.99995 38 66
v 3.99995 65 66
v 22 65 66
v -32 65 66
v 22 -8 66
v 3.99995 -8 66
v 22 -55.18883 66
v 3.99995 -55.18883 66
v 22 -36.81116 66
v 3.99995 -36.81116 66
v 22 -36.81116 165
v 2 -36.81116 165
v 2 -55.18883 165
v 22 -55.18883 165
v -48 65 66
v -57 38 66
v -57 65 66
v -48 38 66
v -44 38 66.0001
v -32 65 66
v -32 38 66
v -44 65 66.0001
v -57 65 100
v -57 38 165
v -57 65 165
v -57 38 100
v -57 65 66
v -57 38 78
v -57 65 78
v -57 38 66
v -57 38 81.5
v -57 65 81.5
v 4.000051 14 27
v 4.000051 14 31
v 4.000051 16 27
v 4.000051 16 31
v 1 16 13
v 1 14 13
v 4.000051 16 13
v 4.000051 14 13
v 4.000051 16 48
v 4.000051 14 48
v 4.000051 0 48
v 4.000051 0 31
v 4.000051 14 7
v 1 14 7
v 4.000051 0 7
v 1 0 7
v 4.000051 0 27
v 4.000051 16 15
v 4.000051 14 15
v 4.000051 16 13
v 4.000051 14 13
v 4.000051 0 15
v 4.000051 0 13
v 4.000051 14 13
v 1 14 13
v 4.000051 14 7
v 1 14 7
v 4.000051 0 7
v 4.000051 14 7
v 1 14 13
v 1 0 13
v 1 14 7
v 1 0 7
v 1 0 13
v 4.000051 0 13
v 1 0 7
v 4.000051 0 7
v -6 14 31
v -6 14 27
v -6 16 31
v -6 16 27
v -6 14 27
v -6 14 31
v 1 14 27
v 1 14 31
v -6 16 27
v -6 14 27
v 1 16 27
v 1 14 27
v -6 14 31
v -6 16 31
v 1 14 31
v 1 16 31
v -6 16 31
v -6 16 27
v 1 16 31
v 1 16 27
v 1 0 27
v 1 0 31
v 4.000051 0 27
v 4.000051 0 31
v 1 14 48
v 1 16 48
v 4.000051 14 48
v 4.000051 16 48
v 4.000051 16 31
v 4.000051 16 27
v 1 14 31
v 1 16 31
v 1 14 48
v 1 16 48
v 4.000051 0 48
v 1 0 48
v 1 16 48
v 4.000051 16 48
v 1 14 27
v 1 0 27
v 1 0 31
v 1 0 48
v 1 0 48
v 4.000051 0 48
v 1 14 15
v 1 16 15
v 1 16 27
v 1 16 15
v 4.000051 16 15
v 1 16 13
v 4.000051 16 13
v 1 0 15
v 4.000051 0 15
v 1 0 13
v 4.000051 0 13
v 1 0 15
v 1 0 13
v 1 14 13
v 3.99995 10 57
v 3.99995 10 62
v 3.99995 16 57
v 3.99995 16 62
v 3.99995 10 62
v -5.00679E-05 10 62
v 3.99995 16 62
v -5.00679E-05 16 62
v -5.00679E-05 10 62
v -5.00679E-05 10 57
v -5.00679E-05 16 62
v -5.00679E-05 16 57
v -5.00679E-05 10 57
v 3.99995 10 57
v -5.00679E-05 16 57
v 3.99995 16 57
v 3.99995 16 62
v -5.00679E-05 16 62
v 3.99995 16 57
v -5.00679E-05 16 57
v 3.99995 10 57
v -5.00679E-05 10 57
v 3.99995 10 62
v -5.00679E-05 10 62
v 3.99995 16.0001 57
v 3.99995 16 62
v -18 41 9.000099
v -10 41 13
v -18 41 13
v -10 41 9.000099
v -30 41 9.000099
v -30 41 13
v 3.99995 41 13
v 3.99995 41 9.000099
vt 0 0
vt -2 0
vt 0 2.5
vt -2 2.5
vt 2 0
vt -1.907349E-06 0
vt 2 2.5
vt -1.907349E-06 2.5
vt 1.907349E-06 -52.9999
vt -2 -52.9999
vt 0 9.918213E-05
vt -2 9.918213E-05
vt 52.9999 2.5
vt 52.9999 0
vt -9.918213E-05 2.5
vt -9.918213E-05 0
vt -52.9999 0
vt -52.9999 2.5
vt 9.918213E-05 0
vt 9.918213E-05 2.5
vt 2 -52.9999
vt -1.907349E-06 -52.9999
vt 2 9.918213E-05
vt 0 9.918213E-05
vt -2 -52.9999
vt 1.907349E-06 -52.9999
vt -2 -56
vt 1.907349E-06 -56
vt -52.9999 2.5
vt -52.9999 0
vt -56 2.5
vt -56 0
vt 52.9999 0
vt 52.9999 2.5
vt 56 0
vt 56 2.5
vt -1.907349E-06 -56
vt 2 -56
vt -2 0
vt 1.907349E-06 0
vt -2 -29.0001
vt 1.907349E-06 -29.0001
vt -56 -29.0001
vt -52.9999 -29.0001
vt 52.9999 -29.0001
vt 56 -29.0001
vt -1.907349E-06 -29.0001
vt 2 -29.0001
vt 2 0
vt 2 2.5
vt 40 0
vt 40 2.5
vt -40 9.918213E-05
vt -40 -52.9999
vt 40 -52.9999
vt 40 9.918213E-05
vt -40 2.5
vt -40 0
vt -1.907349E-06 2.5
vt -1.907349E-06 0
vt -2.5 2.5
vt -2.5 0
vt -2.5 9.918213E-05
vt -2.5 -52.9999
vt 2.5 -52.9999
vt 2.5 9.918213E-05
vt 2.5 0
vt 2.5 2.5
vt 5 0
vt 0 0
vt 5 17.99995
vt 0 17.99995
vt -1.99995 0
vt 2.00005 0
vt -1.99995 -5
vt 2.00005 -5
vt 1.99995 0
vt -2.00005 0
vt 1.99995 17.99995
vt -2.00005 17.99995
vt 0 0
vt -5 0
vt 0 17.99995
vt -5 17.99995
vt 2.00005 0
vt -1.99995 0
vt 2.00005 17.99995
vt -1.99995 17.99995
vt 1.99995 -5
vt -2.00005 -5
vt 1.99995 0
vt -2.00005 0
vt -5 18.00005
vt 0 17.99995
vt -5 17.99995
vt 0 18.00005
vt 128 46
vt 29 0
vt 29 46
vt 128 0
vt -29 46
vt -128 46
vt -128 73
vt -29 73
vt -29 0
vt -128 0
vt -29 -47.18883
vt -128 -47.18883
vt -128 -28.81116
vt -29 -28.81116
vt 128 -28.81116
vt 29 -47.18883
vt 29 -28.81116
vt 128 -47.18883
vt -82 -29
vt -107 -128
vt -107 -29
vt -82 -128
vt 107 -128
vt 82 -128
vt 82 -29
vt 107 -29
vt 107 73
vt 82 46
vt 82 73
vt 107 46
vt 82 0
vt 107 0
vt -82 0
vt -107 0
vt -107 46
vt -82 46
vt -82 -47.18883
vt -107 -47.18883
vt -82 -28.81116
vt -107 -28.81116
vt 82 -28.81116
vt 107 -28.81116
vt 107 -47.18883
vt 82 -47.18883
vt -48 -29
vt -46.00005 -128
vt -28 -29
vt -28 -128
vt 46.00005 -128
vt 48 -29
vt 28 -128
vt 28 -29
vt 48 73
vt 28 46
vt 28 73
vt 48 46
vt 28 0
vt 48 0
vt -28 46
vt -46.00005 46
vt -46.00005 73
vt -28 73
vt -82 73
vt -28 0
vt -46.00005 0
vt -28 -47.18883
vt -46.00005 -47.18883
vt -28 -28.81116
vt -46.00005 -28.81116
vt 28 -28.81116
vt 48 -28.81116
vt 48 -47.18883
vt 28 -47.18883
vt -98 73
vt -107 46
vt -107 73
vt -98 46
vt -93.99894 46
vt -81.99894 73
vt -81.99894 46
vt -93.99894 73
vt 94 73
vt 29 46
vt 29 73
vt 94 46
vt 128 73
vt 116 46
vt 116 73
vt 128 46
vt 112.5 46
vt 112.5 73
vt 30 -2
vt 26 -2
vt 30 0
vt 26 0
vt 1.000059 0
vt 1.000059 -2
vt -1.999992 0
vt -1.999992 -2
vt 9 0
vt 9 -2
vt 9 -16
vt 26 -16
vt -1.999992 -2
vt 1.000059 -2
vt -1.999992 -16
vt 1.000059 -16
vt 30 -16
vt 42 0
vt 42 -2
vt 44 0
vt 44 -2
vt 42 -16
vt 44 -16
vt -1.999992 -44
vt 1.000059 -44
vt -1.999992 -50
vt 1.000059 -50
vt 50 -16
vt 50 -2
vt -44 -2
vt -44 -16
vt -50 -2
vt -50 -16
vt -1.000059 -44
vt 1.999992 -44
vt -1.000059 -50
vt 1.999992 -50
vt -26 -2
vt -30 -2
vt -26 0
vt -30 0
vt -8.000059 -30
vt -8.000059 -26
vt -1.000059 -30
vt -1.000059 -26
vt 8.000059 0
vt 8.000059 -2
vt 1.000059 0
vt 1.000059 -2
vt -8.000059 -2
vt -8.000059 0
vt -1.000059 -2
vt -1.000059 0
vt 8.000059 -26
vt 8.000059 -30
vt 1.000059 -26
vt 1.000059 -30
vt -1.000059 -30
vt -1.000059 -26
vt 1.999992 -30
vt 1.999992 -26
vt -1.000059 -2
vt -1.000059 0
vt 1.999992 -2
vt 1.999992 0
vt -1.999992 -26
vt -1.999992 -30
vt -26 -2
vt -26 0
vt -9 -2
vt -9 0
vt 1.999992 -9
vt -1.000059 -9
vt 1.000059 -9
vt -1.999992 -9
vt -30 -2
vt -30 -16
vt -26 -16
vt -9 -16
vt -1.000059 -16
vt 1.999992 -16
vt -42 -2
vt -42 0
vt -30 0
vt 1.000059 -42
vt -1.999992 -42
vt 1.000059 -44
vt -1.999992 -44
vt -1.000059 -42
vt 1.999992 -42
vt -1.000059 -44
vt 1.999992 -44
vt -42 -16
vt -44 -16
vt -44 -2
vt 5 18
vt 0 18
vt 5 24
vt 0 24
vt 1.99995 18
vt -2.00005 18
vt 1.99995 24
vt -2.00005 24
vt 0 18
vt -5 18
vt 0 24
vt -5 24
vt 2.00005 18
vt -1.99995 18
vt 2.00005 24
vt -1.99995 24
vt -1.99995 0
vt 2.00005 0
vt -1.99995 -5
vt 2.00005 -5
vt 1.99995 -5
vt -2.00005 -5
vt 1.99995 0
vt -2.00005 0
vt -5 24.0001
vt 0 24
vt 20 -3.999901
vt 12 0
vt 20 0
vt 12 -3.999901
vt 32 -3.999901
vt 32 0
vt -1.99995 0
vt -1.99995 -3.999901
vn 0 0 1
vn 0 0 1
vn 0 0 1
vn 0 0 1
vn 0 0 -1
vn 0 0 -1
vn 0 0 -1
vn 0 0 -1
vn 0 -1 0
vn 0 -1 0
vn 0 -1 0
vn 0 -1 0
vn 1 0 0
vn 1 0 0
vn 1 0 0
vn 1 0 0
vn -1 0 0
vn -1 0 0
vn -1 0 0
vn -1 0 0
vn 0 1 0
vn 0 1 0
vn 0 1 0
vn 0 1 0
vn 0 -1 0
vn 0 -1 0
vn 0 -1 0
vn 0 -1 0
vn -1 0 0
vn -1 0 0
vn -1 0 0
vn -1 0 0
vn 1 0 0
vn 1 0 0
vn 1 0 0
vn 1 0 0
vn 0 1 0
vn 0 1 0
vn 0 0 1
vn 0 0 1
vn 0 0 1
vn 0 0 1
vn -1 0 0
vn -1 0 0
vn 1 0 0
vn 1 0 0
vn 0 0 -1
vn 0 0 -1
vn 0 0 -1
vn 0 0 -1
vn 0 0 -1
vn 0 0 -1
vn 0 -1 0
vn 0 -1 0
vn 0 1 0
vn 0 1 0
vn 0 0 1
vn 0 0 1
vn 0 0 -1
vn 0 0 -1
vn 0 0 -1
vn 0 0 -1
vn 0 1 0
vn 0 1 0
vn 0 -1 0
vn 0 -1 0
vn 0 0 1
vn 0 0 1
vn 1 0 0
vn 1 0 0
vn 1 0 0
vn 1 0 0
vn 0 1 0
vn 0 1 0
vn 0 1 0
vn 0 1 0
vn 0 0 1
vn 0 0 1
vn 0 0 1
vn 0 0 1
vn -1 0 0
vn -1 0 0
vn -1 0 0
vn -1 0 0
vn 0 0 -1
vn 0 0 -1
vn 0 0 -1
vn 0 0 -1
vn 0 -1 0
vn 0 -1 0
vn 0 -1 0
vn 0 -1 0
vn -1 0 0
vn -1 0 0
vn -1 0 0
vn -1 0 0
vn 1 0 0
vn 1 0 0
vn 1 0 0
vn 1 0 0
vn -1 0 0
vn -1 0 0
vn -1 0 0
vn -1 0 0
vn -1 0 0
vn -1 0 0
vn -1 0 0
vn -1 0 0
vn -1 0 0
vn -1 0 0
vn 1 0 0
vn 1 0 0
vn 1 0 0
vn 1 0 0
vn 0 -1 0
vn 0 -1 0
vn 0 -1 0
vn 0 -1 0
vn 0 1 0
vn 0 1 0
vn 0 1 0
vn 0 1 0
vn 0 0 -1
vn 0 0 -1
vn 0 0 -1
vn 0 0 -1
vn 0 0 -1
vn 0 0 -1
vn 0 0 1
vn 0 0 1
vn 0 0 1
vn 0 0 1
vn 0 0 1
vn 0 0 1
vn 0 0 1
vn 0 0 1
vn 0 0 -1
vn 0 0 -1
vn 0 0 -1
vn 0 0 -1
vn 0 -1 0
vn 0 -1 0
vn 0 -1 0
vn 0 -1 0
vn 0 1 0
vn 0 1 0
vn 0 1 0
vn 0 1 0
vn 0 0 -1
vn 0 0 -1
vn 0 0 -1
vn 0 0 -1
vn 0 0 -1
vn 0 0 -1
vn 0 0 1
vn 0 0 1
vn 0 0 1
vn 0 0 1
vn 0 0 1
vn 0 0 1
vn 0 0 1
vn 0 0 1
vn 0 0 1
vn 0 0 1
vn 0 0 1
vn 0 0 -1
vn 0 0 -1
vn 0 0 -1
vn 0 0 -1
vn 0 0 1
vn 0 0 1
vn 0 0 1
vn 0 0 1
vn 8.265178E-06 0 1
vn 8.265178E-06 0 1
vn 8.265178E-06 0 1
vn 8.265178E-06 0 1
vn 1 0 0
vn 1 0 0
vn 1 0 0
vn 1 0 0
vn 1 0 0
vn 1 0 0
vn 1 0 0
vn 1 0 0
vn 1 0 0
vn 1 0 0
vn 1 0 0
vn 1 0 0
vn 1 0 0
vn 1 0 0
vn 0 0 -1
vn 0 0 -1
vn 0 0 -1
vn 0 0 -1
vn 1 0 0
vn 1 0 0
vn 1 0 0
vn 1 0 0
vn 0 0 -1
vn 0 0 -1
vn 0 0 -1
vn 0 0 -1
vn 1 0 0
vn 1 0 0
vn 1 0 0
vn 1 0 0
vn 1 0 0
vn 1 0 0
vn 1 0 0
vn 0 1 0
vn 0 1 0
vn 0 1 0
vn 0 1 0
vn 1 0 0
vn 1 0 0
vn -1 0 0
vn -1 0 0
vn -1 0 0
vn -1 0 0
vn 0 -1 0
vn 0 -1 0
vn 0 -1 0
vn 0 -1 0
vn -1 0 0
vn -1 0 0
vn -1 0 0
vn -1 0 0
vn 0 -1 0
vn 0 -1 0
vn 0 -1 0
vn 0 -1 0
vn 0 0 -1
vn 0 0 -1
vn 0 0 -1
vn 0 0 -1
vn 0 0 1
vn 0 0 1
vn 0 0 1
vn 0 0 1
vn 0 1 0
vn 0 1 0
vn 0 1 0
vn 0 1 0
vn 0 -1 0
vn 0 -1 0
vn 0 -1 0
vn 0 -1 0
vn 0 0 1
vn 0 0 1
vn 0 0 1
vn 0 0 1
vn 0 1 0
vn 0 1 0
vn -1 0 0
vn -1 0 0
vn -1 0 0
vn -1 0 0
vn 0 -1 0
vn 0 -1 0
vn 0 1 0
vn 0 1 0
vn -1 0 0
vn -1 0 0
vn -1 0 0
vn -1 0 0
vn 0 0 1
vn 0 0 1
vn -1 0 0
vn -1 0 0
vn -1 0 0
vn 0 1 0
vn 0 1 0
vn 0 1 0
vn 0 1 0
vn 0 -1 0
vn 0 -1 0
vn 0 -1 0
vn 0 -1 0
vn -1 0 0
vn -1 0 0
vn -1 0 0
vn 1 0 0
vn 1 0 0
vn 1 0 0
vn 1 0 0
vn 0 0 1
vn 0 0 1
vn 0 0 1
vn 0 0 1
vn -1 0 0
vn -1 0 0
vn -1 0 0
vn -1 0 0
vn 0 0 -1
vn 0 0 -1
vn 0 0 -1
vn 0 0 -1
vn 0 1 0
vn 0 1 0
vn 0 1 0
vn 0 1 0
vn 0 -1 0
vn 0 -1 0
vn 0 -1 0
vn 0 -1 0
vn -1 0 0
vn -1 0 0
vn 0 1 0
vn 0 1 0
vn 0 1 0
vn 0 1 0
vn 0 1 0
vn 0 1 0
vn 0 1 0
vn 0 1 0
g Combined Mesh (root: scene) 16_0
f 3/3/3 2/2/2 1/1/1
f 3/3/3 4/4/4 2/2/2
f 7/7/7 6/6/6 5/5/5
f 7/7/7 8/8/8 6/6/6
f 11/11/11 10/10/10 9/9/9
f 11/11/11 12/12/12 10/10/10
f 15/15/15 14/14/14 13/13/13
f 15/15/15 16/16/16 14/14/14
f 19/19/19 18/18/18 17/17/17
f 19/19/19 20/20/20 18/18/18
f 23/23/23 22/22/22 21/21/21
f 23/23/23 24/24/24 22/22/22
f 27/27/27 26/26/26 25/25/25
f 27/27/27 28/28/28 26/26/26
f 31/31/31 30/30/30 29/29/29
f 31/31/31 32/32/32 30/30/30
f 35/35/35 34/34/34 33/33/33
f 35/35/35 36/36/36 34/34/34
f 37/37/37 21/21/21 22/22/22
f 37/37/37 38/38/38 21/21/21
f 41/41/41 40/40/40 39/39/39
f 41/41/41 42/42/42 40/40/40
f 43/43/43 30/30/30 32/32/32
f 43/43/43 44/44/44 30/30/30
f 45/45/45 35/35/35 33/33/33
f 45/45/45 46/46/46 35/35/35
f 47/47/47 5/5/5 6/6/6
f 47/47/47 48/48/48 5/5/5
f 51/51/51 50/50/50 49/49/49
f 51/51/51 52/52/52 50/50/50
f 53/53/53 10/10/10 12/12/12
f 53/53/53 54/54/54 10/10/10
f 55/55/55 23/23/23 21/21/21
f 55/55/55 56/56/56 23/23/23
f 57/57/57 2/2/2 4/4/4
f 57/57/57 58/58/58 2/2/2
f 61/61/61 60/60/60 59/59/59
f 61/61/61 62/62/62 60/60/60
f 63/63/63 22/22/22 24/24/24
f 63/63/63 64/64/64 22/22/22
f 65/65/65 11/11/11 9/9/9
f 65/65/65 66/66/66 11/11/11
f 67/67/67 3/3/3 1/1/1
f 67/67/67 68/68/68 3/3/3
g Combined Mesh (root: scene) 16_1
g Combined Mesh (root: scene) 16_2
f 71/71/71 70/70/70 69/69/69
f 71/71/71 72/72/72 70/70/70
f 75/75/75 74/74/74 73/73/73
f 75/75/75 76/76/76 74/74/74
g Combined Mesh (root: scene) 16_3
f 79/79/79 78/78/78 77/77/77
f 79/79/79 80/80/80 78/78/78
f 83/83/83 82/82/82 81/81/81
f 83/83/83 84/84/84 82/82/82
f 87/87/87 86/86/86 85/85/85
f 87/87/87 88/88/88 86/86/86
f 91/91/91 90/90/90 89/89/89
f 91/91/91 92/92/92 90/90/90
f 95/95/95 94/94/94 93/93/93
f 94/94/94 96/96/96 93/93/93
g Combined Mesh (root: scene) 16_4
g Combined Mesh (root: scene) 16_5
f 99/99/99 98/98/98 97/97/97
f 98/98/98 100/100/100 97/97/97
f 103/103/103 102/102/102 101/101/101
f 103/103/103 101/101/101 104/104/104
f 102/102/102 106/106/106 105/105/105
f 102/102/102 105/105/105 101/101/101
f 109/109/109 108/108/108 107/107/107
f 109/109/109 107/107/107 110/110/110
f 106/106/106 109/109/109 110/110/110
f 106/106/106 110/110/110 105/105/105
f 113/113/113 112/112/112 111/111/111
f 112/112/112 114/114/114 111/111/111
f 98/98/98 113/113/113 100/100/100
f 113/113/113 111/111/111 100/100/100
f 117/117/117 116/116/116 115/115/115
f 116/116/116 118/118/118 115/115/115
f 121/121/121 120/120/120 119/119/119
f 121/121/121 119/119/119 122/122/122
f 125/125/125 124/124/124 123/123/123
f 124/124/124 126/126/126 123/123/123
f 124/124/124 127/127/127 126/126/126
f 127/127/127 128/128/128 126/126/126
f 131/131/131 130/130/130 129/129/129
f 131/131/131 129/129/129 132/132/132
f 135/135/135 134/134/134 133/133/133
f 135/135/135 136/136/136 134/134/134
f 129/129/129 136/136/136 135/135/135
f 129/129/129 130/130/130 136/136/136
f 139/139/139 138/138/138 137/137/137
f 140/140/140 139/139/139 137/137/137
f 138/138/138 128/128/128 127/127/127
f 137/137/137 138/138/138 127/127/127
f 115/115/115 118/118/118 141/141/141
f 118/118/118 142/142/142 141/141/141
f 141/141/141 142/142/142 143/143/143
f 142/142/142 144/144/144 143/143/143
f 146/146/146 145/145/145 120/120/120
f 146/146/146 120/120/120 121/121/121
f 148/148/148 147/147/147 145/145/145
f 148/148/148 145/145/145 146/146/146
f 151/151/151 150/150/150 149/149/149
f 150/150/150 152/152/152 149/149/149
f 149/149/149 152/152/152 125/125/125
f 152/152/152 124/124/124 125/125/125
f 150/150/150 153/153/153 152/152/152
f 153/153/153 154/154/154 152/152/152
f 152/152/152 154/154/154 124/124/124
f 154/154/154 127/127/127 124/124/124
f 157/157/157 156/156/156 155/155/155
f 157/157/157 155/155/155 158/158/158
f 159/159/159 132/132/132 156/156/156
f 159/159/159 156/156/156 157/157/157
f 156/156/156 161/161/161 160/160/160
f 156/156/156 160/160/160 155/155/155
f 164/164/164 163/163/163 162/162/162
f 164/164/164 165/165/165 163/163/163
f 165/165/165 133/133/133 163/163/163
f 165/165/165 135/135/135 133/133/133
f 161/161/161 165/165/165 164/164/164
f 161/161/161 164/164/164 160/160/160
f 129/129/129 135/135/135 165/165/165
f 129/129/129 165/165/165 161/161/161
f 168/168/168 167/167/167 166/166/166
f 169/169/169 168/168/168 166/166/166
f 140/140/140 137/137/137 167/167/167
f 168/168/168 140/140/140 167/167/167
f 153/153/153 166/166/166 154/154/154
f 166/166/166 167/167/167 154/154/154
f 154/154/154 167/167/167 127/127/127
f 167/167/167 137/137/137 127/127/127
f 172/172/172 171/171/171 170/170/170
f 171/171/171 173/173/173 170/170/170
f 176/176/176 175/175/175 174/174/174
f 175/175/175 177/177/177 174/174/174
f 180/180/180 179/179/179 178/178/178
f 179/179/179 181/181/181 178/178/178
f 184/184/184 183/183/183 182/182/182
f 183/183/183 185/185/185 182/182/182
f 187/187/187 186/186/186 184/184/184
f 186/186/186 183/183/183 184/184/184
g Combined Mesh (root: scene) 16_6
f 190/190/190 189/189/189 188/188/188
f 190/190/190 191/191/191 189/189/189
f 194/194/194 193/193/193 192/192/192
f 194/194/194 195/195/195 193/193/193
f 196/196/196 189/189/189 191/191/191
f 196/196/196 197/197/197 189/189/189
f 198/198/198 189/189/189 197/197/197
f 198/198/198 199/199/199 189/189/189
f 202/202/202 201/201/201 200/200/200
f 202/202/202 203/203/203 201/201/201
f 199/199/199 188/188/188 189/189/189
f 199/199/199 204/204/204 188/188/188
f 190/190/190 188/188/188 205/205/205
f 188/188/188 206/206/206 205/205/205
f 205/205/205 206/206/206 207/207/207
f 206/206/206 208/208/208 207/207/207
f 188/188/188 204/204/204 206/206/206
f 204/204/204 209/209/209 206/206/206
f 206/206/206 209/209/209 208/208/208
f 209/209/209 210/210/210 208/208/208
f 213/213/213 212/212/212 211/211/211
f 213/213/213 214/214/214 212/212/212
f 215/215/215 208/208/208 210/210/210
f 215/215/215 216/216/216 208/208/208
f 219/219/219 218/218/218 217/217/217
f 219/219/219 220/220/220 218/218/218
f 223/223/223 222/222/222 221/221/221
f 223/223/223 224/224/224 222/222/222
g Combined Mesh (root: scene) 16_7
f 227/227/227 226/226/226 225/225/225
f 227/227/227 228/228/228 226/226/226
f 231/231/231 230/230/230 229/229/229
f 231/231/231 232/232/232 230/230/230
f 235/235/235 234/234/234 233/233/233
f 235/235/235 236/236/236 234/234/234
f 239/239/239 238/238/238 237/237/237
f 239/239/239 240/240/240 238/238/238
f 243/243/243 242/242/242 241/241/241
f 243/243/243 244/244/244 242/242/242
f 247/247/247 246/246/246 245/245/245
f 247/247/247 248/248/248 246/246/246
f 251/251/251 250/250/250 249/249/249
f 251/251/251 252/252/252 250/250/250
f 253/253/253 244/244/244 243/243/243
f 253/253/253 254/254/254 244/244/244
f 257/257/257 256/256/256 255/255/255
f 257/257/257 258/258/258 256/256/256
f 259/259/259 246/246/246 248/248/248
f 259/259/259 260/260/260 246/246/246
f 261/261/261 253/253/253 243/243/243
f 261/261/261 262/262/262 253/253/253
f 264/264/264 255/255/255 263/263/263
f 264/264/264 265/265/265 255/255/255
f 265/265/265 257/257/257 255/255/255
f 265/265/265 266/266/266 257/257/257
f 267/267/267 251/251/251 249/249/249
f 267/267/267 268/268/268 251/251/251
f 270/270/270 269/269/269 263/263/263
f 270/270/270 263/263/263 271/271/271
f 254/254/254 273/273/273 272/272/272
f 254/254/254 272/272/272 244/244/244
f 273/273/273 275/275/275 274/274/274
f 273/273/273 274/274/274 272/272/272
f 245/245/245 276/276/276 247/247/247
f 276/276/276 277/277/277 247/247/247
f 276/276/276 278/278/278 277/277/277
f 278/278/278 279/279/279 277/277/277
f 282/282/282 281/281/281 280/280/280
f 282/282/282 280/280/280 269/269/269
f 269/269/269 280/280/280 264/264/264
f 269/269/269 264/264/264 263/263/263
g Combined Mesh (root: scene) 16_8
f 285/285/285 284/284/284 283/283/283
f 285/285/285 286/286/286 284/284/284
g Combined Mesh (root: scene) 16_9
f 289/289/289 288/288/288 287/287/287
f 289/289/289 290/290/290 288/288/288
f 293/293/293 292/292/292 291/291/291
f 293/293/293 294/294/294 292/292/292
f 297/297/297 296/296/296 295/295/295
f 297/297/297 298/298/298 296/296/296
f 301/301/301 300/300/300 299/299/299
f 301/301/301 302/302/302 300/300/300
f 305/305/305 304/304/304 303/303/303
f 305/305/305 306/306/306 304/304/304
f 307/307/307 308/308/308 307/307/307
f 308/308/308 308/308/308 307/307/307
g Combined Mesh (root: scene) 16_10
f 311/311/311 310/310/310 309/309/309
f 310/310/310 312/312/312 309/309/309
f 314/314/314 311/311/311 313/313/313
f 311/311/311 309/309/309 313/313/313
f 310/310/310 315/315/315 312/312/312
f 315/315/315 316/316/316 312/312/312
g Combined Mesh (root: scene) 16_11
