g Combined Mesh (root: scene) 33
v -4.205815 0.03659951 10.49918
v -3.917632 0.03659946 10.97635
v -4.63659 0.03659946 11.06377
v -4.696938 0.03659951 10.56742
v -4.441041 0.03659957 10.03689
v -5.629279 0.03659946 11.18446
v -4.757287 0.03659956 10.07108
v -5.654796 0.03659948 10.97459
v -5.680314 0.0365995 10.76472
v 0.2505403 -0.03984354 8.75983
v 0.2296281 0.2317761 8.727983
v 0.2393126 0.1914013 6.745214
v 0.2442825 -0.03984353 6.762383
v -1.03494 0.1024563 6.745801
v 0.2393126 0.1914013 6.745214
v 0.2296281 0.2317761 8.727983
v -1.119942 0.1084486 7.111812
v -1.398237 0.09486652 7.29126
v -1.370594 0.1170809 7.913743
v -1.754266 0.0940642 8.029436
v -1.753405 0.1174449 8.745091
v -1.750162 -0.03984352 8.745214
v -1.753405 0.1174449 8.745091
v 0.2296281 0.2317761 8.727983
v 0.2505403 -0.03984354 8.75983
v -1.119942 0.1084486 7.111812
v -1.117834 -0.03984353 7.111891
v -1.033154 -0.03984352 6.745868
v -1.03494 0.1024563 6.745801
v -1.03494 0.1024563 6.745801
v -1.033154 -0.03984352 6.745868
v 0.2442825 -0.03984353 6.762383
v 0.2393126 0.1914013 6.745214
v -4.305368 0.03659962 9.039812
v -4.693696 0.03659957 9.462051
v -4.992903 0.03659957 9.382402
v -4.709611 0.03659961 8.938099
v -6.10351 0.03659951 9.698113
v -5.911088 0.03659959 8.933367
v -4.42632 0.03659967 8.493794
v -5.718665 0.03659967 8.16862
v -4.10272 0.03659967 8.575217
v -3.77912 0.03659967 8.65664
v -3.901125 0.03659961 9.141526
v -3.186409 0.03659962 9.321083
v -3.868349 0.03659957 9.825315
v -3.603252 0.03659962 9.321083
v -3.186409 0.03659957 9.821083
v -3.69064 0.03659952 10.31262
v -3.186409 0.03659952 10.32108
v -3.462157 0.03659946 10.82108
v -3.186409 0.03659946 10.82108
v -1.398237 0.09486652 7.29126
v -1.396256 -0.03984353 7.291334
v -1.117834 -0.03984353 7.111891
v -1.119942 0.1084486 7.111812
v -1.754266 0.0940642 8.029436
v -1.751857 -0.03984354 8.029526
v -1.367855 -0.03984353 7.913846
v -1.370594 0.1170809 7.913743
v -1.753405 0.1174449 8.745091
v -1.750162 -0.03984352 8.745214
v -1.751857 -0.03984354 8.029526
v -1.754266 0.0940642 8.029436
v -1.370594 0.1170809 7.913743
v -1.367855 -0.03984353 7.913846
v -1.396256 -0.03984353 7.291334
v -1.398237 0.09486652 7.29126
v -10.67515 0 -6.629292
v -10.64059 0.2393663 -6.599568
v -10.64843 3.49246E-09 -4.663671
v -8.693424 0.2855373 -6.611391
v -8.732119 0 -6.629292
v -8.689034 3.49246E-09 -4.658709
v -8.693424 0.2855373 -6.611391
v -8.689034 3.49246E-09 -4.658709
v -10.64843 3.49246E-09 -4.663671
v -10.64059 0.2393663 -6.599568
v -8.732119 0 -6.629292
v -8.693424 0.2855373 -6.611391
v -10.64059 0.2393663 -6.599568
v -10.67515 0 -6.629292
v 96 11.006 67.99471
v 96.02972 10.97145 67.75535
v 97.96562 10.97929 67.99472
v 96.01791 9.024279 67.70918
v 96.00001 9.062973 67.99472
v 97.97059 9.019896 67.99472
v 96.01791 9.024279 67.70918
v 97.97059 9.019896 67.99472
v 97.96562 10.97929 67.99472
v 96.02972 10.97145 67.75535
v 96.00001 9.062973 67.99472
v 96.01791 9.024279 67.70918
v 96.02972 10.97145 67.75535
v 96 11.006 67.99471
vt 0.7187063 0.2813593
vt 0.7329826 0.2495888
vt 0.6877291 0.2495888
vt 0.6877291 0.2808305
vt 0.7076025 0.3118078
vt 0.6252458 0.2495888
vt 0.6877291 0.3120721
vt 0.6252458 0.2627988
vt 0.6252458 0.2760088
vt 0.6590704 0.2107783
vt 0.6723716 0.2092582
vt 0.6703945 0.1122126
vt 0.6590704 0.1130436
vt 0.4998046 0.7046764
vt 0.4996215 0.6259331
vt 0.3773266 0.6267722
vt 0.4772409 0.7099609
vt 0.4662206 0.7271755
vt 0.4278189 0.7255239
vt 0.4207528 0.7492481
vt 0.3766105 0.7492621
vt 0.7428881 0.253587
vt 0.7505808 0.2540035
vt 0.7489213 0.3511603
vt 0.7355765 0.3512459
vt 0.6663324 0.2324713
vt 0.6590704 0.2324713
vt 0.6590704 0.2144044
vt 0.6660389 0.2144044
vt 0.6881477 0.205198
vt 0.6882352 0.1982296
vt 0.7507776 0.1982296
vt 0.7505029 0.2095536
vt 0.7241666 0.3433138
vt 0.7070738 0.3118078
vt 0.6877291 0.3120721
vt 0.698121 0.3433138
vt 0.6252458 0.2760088
vt 0.6252458 0.3252821
vt 0.7085128 0.3745554
vt 0.6252458 0.3745554
vt 0.7293625 0.3745554
vt 0.7502124 0.3745554
vt 0.7502124 0.3433138
vt 0.7502124 0.3433138
vt 0.7076025 0.3118078
vt 0.7241666 0.3433138
vt 0.7502124 0.3120721
vt 0.7187063 0.2813593
vt 0.7502124 0.2808305
vt 0.7329826 0.2495888
vt 0.7502124 0.2495888
vt 0.6713707 0.2048263
vt 0.6714678 0.1982296
vt 0.6847633 0.1982296
vt 0.6846599 0.2054915
vt 0.6553032 0.2047871
vt 0.6554213 0.1982296
vt 0.6740003 0.1982296
vt 0.673866 0.2059142
vt 0.6667728 0.2137353
vt 0.6590704 0.2137353
vt 0.6590704 0.1787159
vt 0.665628 0.1787159
vt 0.6667551 0.1723502
vt 0.6590704 0.1723502
vt 0.6590704 0.1419394
vt 0.6656672 0.1419393
vt 0.2496056 0.3774312
vt 0.2498585 0.3930692
vt 0.1576187 0.3745933
vt 0.1224304 0.3749167
vt 0.1244101 0.395875
vt 0.2663178 0.3730981
vt 0.6241635 0.2491841
vt 0.6241635 0.3758158
vt 0.7507892 0.3755404
vt 0.7499806 0.2499261
vt 0.6270406 0.3676023
vt 0.6268987 0.3753147
vt 0.3784377 0.3755203
vt 0.3770648 0.3630038
vt 0.2496056 0.3774312
vt 0.2498585 0.3930692
vt 0.1576187 0.3745933
vt 0.1224304 0.3749167
vt 0.1244101 0.395875
vt 0.2663178 0.3730981
vt 0.6241635 0.2491841
vt 0.6241635 0.3758158
vt 0.7507892 0.3755404
vt 0.7499806 0.2499261
vt 0.6270406 0.3676023
vt 0.6268987 0.3753147
vt 0.3784377 0.3755203
vt 0.3770648 0.3630038
vn 0 1 4.371139E-08
vn 0 1 4.371139E-08
vn 0 1 4.371139E-08
vn 0 1 4.371139E-08
vn 0 1 4.371139E-08
vn 0 1 4.371139E-08
vn 0 1 4.371139E-08
vn 0 1 4.371139E-08
vn 0 1 4.371139E-08
vn 0.9986764 0.05143388 0.0003380767
vn 0.9986764 0.05143388 0.0003380767
vn 0.9986764 0.05143388 0.0003380767
vn 0.9986764 0.05143388 0.0003380767
vn -0.06268203 0.9977062 -0.02556199
vn -0.06268203 0.9977062 -0.02556199
vn -0.06268203 0.9977062 -0.02556199
vn -0.06268203 0.9977062 -0.02556199
vn -0.06268203 0.9977062 -0.02556199
vn -0.06268203 0.9977062 -0.02556199
vn -0.06268203 0.9977062 -0.02556199
vn -0.06268203 0.9977062 -0.02556199
vn -0.001507014 0.07424577 0.9972389
vn -0.001507014 0.07424577 0.9972389
vn -0.001507014 0.07424577 0.9972389
vn -0.001507014 0.07424577 0.9972389
vn -0.9741108 -0.01316895 -0.2256873
vn -0.9741108 -0.01316895 -0.2256873
vn -0.9741108 -0.01316895 -0.2256873
vn -0.9741108 -0.01316895 -0.2256873
vn 0.007836807 -0.04594852 -0.998913
vn 0.007836807 -0.04594852 -0.998913
vn 0.007836807 -0.04594852 -0.998913
vn 0.007836807 -0.04594852 -0.998913
vn 0 1 4.371139E-08
vn 0 1 4.371139E-08
vn 0 1 4.371139E-08
vn 0 1 4.371139E-08
vn 0 1 4.371139E-08
vn 0 1 4.371139E-08
vn 0 1 4.371139E-08
vn 0 1 4.371139E-08
vn 0 1 4.371139E-08
vn 0 1 4.371139E-08
vn 0 1 4.371139E-08
vn 0 1 4.371139E-08
vn 0 1 4.371139E-08
vn 0 1 4.371139E-08
vn 0 1 4.371139E-08
vn 0 1 4.371139E-08
vn 0 1 4.371139E-08
vn 0 1 4.371139E-08
vn 0 1 4.371139E-08
vn -0.5416656 -0.008285265 -0.8405533
vn -0.5416656 -0.008285265 -0.8405533
vn -0.5416656 -0.008285265 -0.8405533
vn -0.5416656 -0.008285265 -0.8405533
vn -0.288411 -0.005742232 -0.9574894
vn -0.288411 -0.005742232 -0.9574894
vn -0.288411 -0.005742232 -0.9574894
vn -0.288411 -0.005742232 -0.9574894
vn -0.9998094 -0.01940812 0.002102228
vn -0.9998094 -0.01940812 0.002102228
vn -0.9998094 -0.01940812 0.002102228
vn -0.9998094 -0.01940812 0.002102228
vn -0.9988452 -0.0161387 0.04525191
vn -0.9988452 -0.0161387 0.04525191
vn -0.9988452 -0.0161387 0.04525191
vn -0.9988452 -0.0161387 0.04525191
vn -0.9898839 0.1412408 0.01345351
vn -0.9898839 0.1412408 0.01345351
vn -0.9898839 0.1412408 0.01345351
vn 0.9908897 -0.132922 -0.02166471
vn 0.9908897 -0.132922 -0.02166471
vn 0.9908897 -0.132922 -0.02166471
vn -0.011477 0.9909481 0.1337539
vn -0.011477 0.9909481 0.1337539
vn -0.011477 0.9909481 0.1337539
vn -0.011477 0.9909481 0.1337539
vn -0.004105416 0.09092497 -0.9958493
vn -0.004105416 0.09092497 -0.9958493
vn -0.004105416 0.09092497 -0.9958493
vn -0.004105416 0.09092497 -0.9958493
vn 0.01345074 0.9898837 -0.141243
vn 0.01345074 0.9898837 -0.141243
vn 0.01345074 0.9898837 -0.141243
vn -0.02166192 -0.9908896 0.1329242
vn -0.02166192 -0.9908896 0.1329242
vn -0.02166192 -0.9908896 0.1329242
vn 0.1337564 0.01147508 -0.990948
vn 0.1337564 0.01147508 -0.990948
vn 0.1337564 0.01147508 -0.990948
vn 0.1337564 0.01147508 -0.990948
vn -0.9958491 0.004101905 -0.09092738
vn -0.9958491 0.004101905 -0.09092738
vn -0.9958491 0.004101905 -0.09092738
vn -0.9958491 0.004101905 -0.09092738
g Combined Mesh (root: scene) 33_0
f 3/3/3 2/2/2 1/1/1
f 4/4/4 3/3/3 1/1/1
f 4/4/4 1/1/1 5/5/5
f 6/6/6 3/3/3 4/4/4
f 7/7/7 4/4/4 5/5/5
f 8/8/8 6/6/6 4/4/4
f 8/8/8 4/4/4 7/7/7
f 9/9/9 8/8/8 7/7/7
f 12/12/12 11/11/11 10/10/10
f 13/13/13 12/12/12 10/10/10
f 16/16/16 15/15/15 14/14/14
f 14/14/14 17/17/17 16/16/16
f 17/17/17 18/18/18 16/16/16
f 18/18/18 19/19/19 16/16/16
f 19/19/19 20/20/20 16/16/16
f 20/20/20 21/21/21 16/16/16
f 24/24/24 23/23/23 22/22/22
f 25/25/25 24/24/24 22/22/22
f 28/28/28 27/27/27 26/26/26
f 29/29/29 28/28/28 26/26/26
f 32/32/32 31/31/31 30/30/30
f 33/33/33 32/32/32 30/30/30
f 36/36/36 35/35/35 34/34/34
f 37/37/37 36/36/36 34/34/34
f 38/38/38 36/36/36 37/37/37
f 39/39/39 38/38/38 37/37/37
f 39/39/39 37/37/37 40/40/40
f 41/41/41 39/39/39 40/40/40
f 40/40/40 37/37/37 42/42/42
f 37/37/37 34/34/34 42/42/42
f 42/42/42 34/34/34 43/43/43
f 34/34/34 44/44/44 43/43/43
f 47/47/47 46/46/46 45/45/45
f 46/46/46 48/48/48 45/45/45
f 46/46/46 49/49/49 48/48/48
f 49/49/49 50/50/50 48/48/48
f 49/49/49 51/51/51 50/50/50
f 51/51/51 52/52/52 50/50/50
f 55/55/55 54/54/54 53/53/53
f 56/56/56 55/55/55 53/53/53
f 59/59/59 58/58/58 57/57/57
f 60/60/60 59/59/59 57/57/57
f 63/63/63 62/62/62 61/61/61
f 64/64/64 63/63/63 61/61/61
f 67/67/67 66/66/66 65/65/65
f 68/68/68 67/67/67 65/65/65
g Combined Mesh (root: scene) 33_1
f 71/71/71 70/70/70 69/69/69
f 74/74/74 73/73/73 72/72/72
f 77/77/77 76/76/76 75/75/75
f 78/78/78 77/77/77 75/75/75
f 81/81/81 80/80/80 79/79/79
f 82/82/82 81/81/81 79/79/79
g Combined Mesh (root: scene) 33_2
f 85/85/85 84/84/84 83/83/83
f 88/88/88 87/87/87 86/86/86
f 91/91/91 90/90/90 89/89/89
f 92/92/92 91/91/91 89/89/89
f 95/95/95 94/94/94 93/93/93
f 96/96/96 95/95/95 93/93/93
