g Combined Mesh (root: scene) 13
v 113 17 -26
v 105 17 -26
v 113 18 -26
v 105 18 -26
v 105 17 -26
v 105 17 -54
v 105 18 -26
v 105 18 -54
v 105 17 -54
v 113 17 -54
v 105 18 -54
v 113 18 -54
v 113 17 -54
v 113 17 -26
v 113 18 -54
v 113 18 -26
v 113 18 -26
v 105 18 -26
v 113 18 -54
v 105 18 -54
v 113 17 -54
v 105 17 -54
v 113 17 -26
v 105 17 -26
v 118 44 -14.89618
v 98.5 44 -14.89618
v 118 45 -14.89618
v 98.5 45 -14.89618
v 98.5 44 -26
v 98.5 44 -54
v 98.5 45 -26
v 98.5 45 -54
v 98.5 44 -64.25
v 118 44 -64.25
v 98.5 45 -64.25
v 118 45 -64.25
v 118 44 -54
v 118 44 -26
v 118 45 -54
v 118 45 -26
v 118 45 -26
v 98.5 45 -26
v 118 45 -54
v 98.5 45 -54
v 118 44 -54
v 98.5 44 -54
v 118 44 -26
v 98.5 44 -26
v 118 44 -14.89618
v 98.5 44 -14.89618
v 155.5 45 -26
v 155.5 44 -26
v 155.5 45 -14.89618
v 155.5 44 -14.89618
v 98.5 44 -14.89618
v 98.5 45 -14.89618
v 98.5 45 -14.89618
v 118 45 -14.89618
v 118 45 -26
v 118 44 -26
v 146 45 -26
v 146 44 -26
v 146 45 -14.89618
v 146 45 -26
v 146 44 -26
v 146 44 -14.89618
v 146 44 -14.89618
v 146 45 -14.89618
v 110 29 -54
v 118 29 -54
v 110 29 -64.25
v 118 29 -64.25
v 98.5 45 -64.25
v 98.5 44 -64.25
v 118 44 -64.25
v 118 45 -64.25
v 118 45 -64.25
v 98.5 45 -64.25
v 98.5 44 -54
v 118 44 -54
v 110 29 -54
v 118 29 -54
v 98.5 44 -64.25
v 98.5 44 -54
v 110 29 -64.25
v 110 29 -54
v 118 29 -54
v 118 29 -64.25
v 118 29 -64.25
v 110 29 -64.25
v 155.5 45 -26
v 155.5 44 -26
v 155.5 45 -14.89618
v 155.5 45 -26
v 150 4.5 -26
v 150 4.5 -10.5
v 155.5 4.5 -26
v 155.5 4.5 -10.5
v 155.5 44 -14.89618
v 155.5 45 -14.89618
v 146 44 -26
v 146 44 -14.89618
v 146 27 -26
v 146 27 -14.89618
v 155.5 27.5 -26
v 146 27 -26
v 146 27 -14.89618
v 155.5 27 -14.89618
v 155.5 27 -14.89618
v 155.5 27.5 -26
v 146 27 -26
v 146 27 -14.89618
v 150 23 -26
v 150 23 -10.5
v 155.5 23 -26
v 150 23 -26
v 146 27 -14.89618
v 155.5 27 -14.89618
v 150 23 -10.5
v 155.5 23 -10.5
v 155.5 23 -10.5
v 155.5 23 -26
v 150 23 -26
v 150 23 -10.5
v 150 4.5 -26
v 150 4.5 -10.5
v 155.5 4.5 -26
v 150 4.5 -26
v 150 23 -10.5
v 155.5 23 -10.5
v 150 4.5 -10.5
v 155.5 4.5 -10.5
v 155.5 4.5 -10.5
v 155.5 4.5 -26
v 146 27.5 -26.49998
v 146 27.75 -26
v 146 26.75 -25.75
v 146 27.75 -26
v 146 27.5 -26.49998
v 146 28.75 -26
v 146 28.75 -26.49998
v 115.5 26.75 -25.75
v 115.5 27.75 -26
v 115.5 27.5 -26.50005
v 115.5 27.5 -26.50005
v 115.5 27.75 -26
v 115.5 28.75 -26.50005
v 115.5 28.75 -26
v 146 28.75 -26
v 146 28.75 -26.49998
v 138.5 28.75 -26.5
v 138 28.75 -26
v 138 28.75 -26.25001
v 138.5 28.75 -26.5
v 146 28.75 -26.49998
v 146 27.5 -26.49998
v 138 27.5 -26.50002
v 138 28.125 -26.50002
v 138 28.75 -26.25001
v 138 28.125 -26.50002
v 138 28.75 -26.50002
v 138.5 28.75 -26.5
v 138 28.125 -26.50002
v 138 28.75 -26.25001
v 126 27.5 -26.50004
v 138 27.5 -26.50002
v 146 26.75 -25.75
v 146 27.5 -26.49998
v 115.5 26.75 -25.75
v 115.5 27.5 -26.50005
v 126 28.75 -26
v 126 28.75 -26.25002
v 125.5 28.75 -26.50005
v 115.5 28.75 -26
v 115.5 28.75 -26.50005
v 138 28.75 -26.50002
v 126 28.75 -26.50004
v 125.5 28.75 -26.50005
v 126 28.125 -26.50004
v 126 27.5 -26.50004
v 115.5 27.5 -26.50005
v 115.5 28.75 -26.50005
v 138 28.75 -26.50002
v 126 28.75 -26.50004
v 126 28.125 -26.50004
v 126 28.75 -26.25002
v 126 28.75 -26.50004
v 125.5 28.75 -26.50005
v 126 28.75 -26.25002
v 126 28.125 -26.50004
v 118 27 -64.375
v 120 27 -64.375
v 118 29 -64.375
v 120 29 -64.375
v 120 27 -54
v 120 29 -54
v 120 27 -64.375
v 120 29 -64.375
v 120 29 -54
v 118 29 -54
v 120 29 -64.375
v 118 29 -64.375
v 120 27 -26
v 118 27 -26
v 122 29 -26
v 118 29 -26
v 118 27 -54
v 120 27 -54
v 118 27 -64.375
v 120 27 -64.375
v 118 29 -54
v 118 27 -54
v 118 29 -64.375
v 118 27 -64.375
v 120 27 -26
v 122 29 -26
v 122 29 -50
v 120 27 -50
v 118 29 -50
v 122 29 -50
v 122 29 -26
v 118 29 -26
v 120 27 -50
v 118 27 -50
v 120 27 -26
v 118 27 -26
v 120 29 -50
v 120 27 -54
v 120 27 -50
v 120 29 -54
v 118 29 -50
v 120 29 -54
v 120 29 -50
v 118 29 -54
v 122 29 -50
v 120 29 -50
v 120 27 -50
vt 0 0
vt -8 0
vt 0 1
vt -8 1
vt 0 0
vt -28 0
vt 0 1
vt -28 1
vt 8 0
vt 0 0
vt 8 1
vt 0 1
vt 28 0
vt 0 0
vt 28 1
vt 0 1
vt 0 0
vt 8 0
vt 0 -28
vt 8 -28
vt 0 -28
vt -8 -28
vt 0 0
vt -8 0
vt -5.430476E-07 0
vt -19.5 0
vt -5.430476E-07 1
vt -19.5 1
vt 0 0
vt -28 0
vt 0 1
vt -28 1
vt 19.5 0
vt 0 0
vt 19.5 1
vt 0 1
vt 28 0
vt 0 0
vt 28 1
vt 0 1
vt 0 0
vt 19.5 0
vt 0 -28
vt 19.5 -28
vt 0 -28
vt -19.5 -28
vt 0 0
vt -19.5 0
vt 0 11.10382
vt -19.5 11.10382
vt 0 1
vt 0 0
vt -11.10382 1
vt -11.10382 0
vt 11.10382 0
vt 11.10382 1
vt 19.5 11.10382
vt 0 11.10382
vt 0 1
vt 0 0
vt -28 1
vt -28 0
vt -28 11.10382
vt -28 0
vt 28 0
vt 28 11.10382
vt 28 0
vt 28 1
vt -8 -28
vt 0 -28
vt -8 -38.25
vt 0 -38.25
vt -38.25 1
vt -38.25 0
vt 38.25 0
vt 38.25 1
vt 0 -38.25
vt 19.5 -38.25
vt -19.5 0
vt 0 0
vt -8 -15
vt 0 -15
vt -38.25 11.86441
vt -28 11.86441
vt -38.25 -7.036643
vt -28 -7.036643
vt 28 -15
vt 38.25 -15
vt 0 -15
vt 8 -15
vt -37.5 1
vt -37.5 0
vt -37.5 11.10382
vt -37.5 0
vt 32 0
vt 32 15.5
vt 37.5 0
vt 37.5 15.5
vt 37.5 0
vt 37.5 1
vt 0 0
vt 11.10382 0
vt 0 -17
vt 11.10382 -17
vt -37.5 -16.5
vt -28 -17
vt 28 -17
vt 37.5 -17
vt -11.10382 -17
vt 0 -16.5
vt 31.81981 0
vt 31.81981 11.10382
vt 37.47666 0
vt 37.47666 15.5
vt -37.5 -21
vt -32 -21
vt -28 19.65381
vt -37.5 19.65381
vt -32 25.59741
vt -37.5 25.59741
vt -15.5 -21
vt 0 -21
vt 0 -21
vt 15.5 -21
vt 0 -39.5
vt 15.5 -39.5
vt -37.5 -39.5
vt -32 -39.5
vt 32 -21
vt 37.5 -21
vt 32 -39.5
vt 37.5 -39.5
vt -15.5 -39.5
vt 0 -39.5
vt 3.000017 1.749999
vt 3.5 1.999999
vt 3.75 0.9999987
vt 3.499999 2
vt 3.000016 1.75
vt 3.499999 3
vt 3.000016 3
vt -3.749988 0.9999793
vt -3.499988 1.999979
vt -2.999934 1.749979
vt -2.999924 1.75
vt -3.499977 2
vt -2.999924 3
vt -3.499977 3
vt 3.499982 -6
vt 2.999999 -5.999998
vt 3.000002 1.499986
vt 3.500005 1.999984
vt 3.249996 1.999985
vt -1.499988 3.243716
vt 5.999996 3.243716
vt 5.999996 1.993716
vt -1.999988 1.993716
vt -1.999988 2.618716
vt 3.24999 3
vt 2.99998 2.375
vt 2.99998 3
vt -2.683252 3.502606
vt -3.13046 2.838806
vt -3.242265 3.502606
vt -0.8839391 13.99999
vt -0.8839266 1.99999
vt -1.944584 -5.999996
vt -0.8839357 -5.999994
vt -1.944647 24.49999
vt -0.8839487 24.49999
vt 3.50004 13.99998
vt 3.250022 13.99998
vt 2.999996 14.49999
vt 3.500071 24.49998
vt 3.000017 24.49999
vt 2.999986 1.999986
vt 3.000004 13.99999
vt -14.49999 3.243716
vt -13.99999 2.618716
vt -13.99999 1.993716
vt -24.49999 1.993716
vt -24.49999 3.243716
vt -1.999988 3.243716
vt -13.99999 3.243716
vt -2.99995 2.375
vt -3.249969 3
vt -2.99995 3
vt -11.62717 5.913239
vt -11.06814 5.913239
vt -11.17996 5.24944
vt 7 0
vt 5 0
vt 7 2
vt 5 2
vt 10 0
vt 10 2
vt 20.375 0
vt 20.375 2
vt 5 -10
vt 7 -10
vt 5 -20.375
vt 7 -20.375
vt -5 0
vt -7 0
vt -3 2
vt -7 2
vt -7 -10
vt -5 -10
vt -7 -20.375
vt -5 -20.375
vt -10 2
vt -10 0
vt -20.375 2
vt -20.375 0
vt -3.535534 18
vt -0.7071068 18
vt -0.7071068 -6
vt -3.535534 -6
vt 7 -6
vt 3 -6
vt 3 18
vt 7 18
vt -5 -6
vt -7 -6
vt -5 18
vt -7 18
vt 6 2
vt 10 0
vt 6 0
vt 10 2
vt 7 -6
vt 5 -10
vt 5 -6
vt 7 -10
vt 3 2
vt 5 2
vt 5 0
vn 0 0 1
vn 0 0 1
vn 0 0 1
vn 0 0 1
vn -1 0 0
vn -1 0 0
vn -1 0 0
vn -1 0 0
vn 0 0 -1
vn 0 0 -1
vn 0 0 -1
vn 0 0 -1
vn 1 0 0
vn 1 0 0
vn 1 0 0
vn 1 0 0
vn 0 1 0
vn 0 1 0
vn 0 1 0
vn 0 1 0
vn 0 -1 0
vn 0 -1 0
vn 0 -1 0
vn 0 -1 0
vn 4.890638E-08 0 1
vn 4.890638E-08 0 1
vn 4.890638E-08 0 1
vn 4.890638E-08 0 1
vn -1 0 0
vn -1 0 0
vn -1 0 0
vn -1 0 0
vn 0 0 -1
vn 0 0 -1
vn 0 0 -1
vn 0 0 -1
vn 1 0 0
vn 1 0 0
vn 1 0 0
vn 1 0 0
vn 0 1 0
vn 0 1 0
vn 0 1 0
vn 0 1 0
vn 0 -1 0
vn 0 -1 0
vn 0 -1 0
vn 0 -1 0
vn 0 -1 0
vn 0 -1 0
vn 1 0 0
vn 1 0 0
vn 1 0 0
vn 1 0 0
vn -1 0 0
vn -1 0 0
vn 0 1 0
vn 0 1 0
vn 0 0 -1
vn 0 0 -1
vn 0 0 -1
vn 0 0 -1
vn 0 1 0
vn 0 1 0
vn 0 -1 0
vn 0 -1 0
vn 0 0 1
vn 0 0 1
vn 0 -1 0
vn 0 -1 0
vn 0 -1 0
vn 0 -1 0
vn -1 0 0
vn -1 0 0
vn 1 0 0
vn 1 0 0
vn 0 1 0
vn 0 1 0
vn 0 0 1
vn 0 0 1
vn 0 0 1
vn 0 0 1
vn -0.7936064 -0.6084316 0
vn -0.7936064 -0.6084316 0
vn -0.7936064 -0.6084316 0
vn -0.7936064 -0.6084316 0
vn 1 0 0
vn 1 0 0
vn 0 0 -1
vn 0 0 -1
vn 0 0 -1
vn 0 0 -1
vn 0 1 0
vn 0 1 0
vn 0 -1 0
vn 0 -1 0
vn 0 -1 0
vn 0 -1 0
vn 0 0 1
vn 0 0 1
vn -1 0 0
vn -1 0 0
vn -1 0 0
vn -1 0 0
vn 0 0 -1
vn 0 0 -1
vn 0 0 1
vn 0 0 1
vn 1 0 0
vn 1 0 0
vn -0.7071068 -0.7071068 0
vn -0.7071068 -0.7071068 0
vn -0.7071068 -0.7071068 0
vn -0.7071068 -0.7071068 0
vn 0 0 -1
vn 0 0 -1
vn 0 0.7396492 0.6729926
vn 0 0.7396492 0.6729926
vn 0 0.7396492 0.6729926
vn 0 0.7396492 0.6729926
vn 1 0 0
vn 1 0 0
vn -1 0 0
vn -1 0 0
vn -1 0 0
vn -1 0 0
vn 0 0 -1
vn 0 0 -1
vn 0 0 1
vn 0 0 1
vn 0 0 1
vn 0 0 1
vn 1 0 0
vn 1 0 0
vn 1 2.11905E-07 -4.644971E-08
vn 1 2.11905E-07 -4.644971E-08
vn 1 2.11905E-07 -4.644971E-08
vn 1 0 5.950642E-08
vn 1 1.907349E-07 -4.173471E-07
vn 1 1.907349E-07 -4.173471E-07
vn 1 3.814697E-07 -8.942006E-07
vn -1 8.4763E-07 4.698925E-07
vn -1 8.4763E-07 4.698925E-07
vn -1 8.4763E-07 4.698925E-07
vn -1 0 8.936622E-07
vn -1 0 8.936622E-07
vn -1 0 8.936622E-07
vn -1 0 8.936622E-07
vn 0 1 0
vn 0 1 0
vn 0 1 0
vn 0 1 0
vn 0 1 0
vn 1.367198E-05 3.918011E-06 -1
vn 2.570946E-06 -1.333928E-13 -1
vn 3.550451E-06 5.877017E-06 -1
vn 1.92225E-05 5.877017E-06 -1
vn 3.391504E-05 0 -1
vn 1 0 5.971378E-08
vn 1 0 5.971378E-08
vn 1 0 5.971378E-08
vn -0.4210638 0.3368739 -0.8421528
vn -0.4210638 0.3368739 -0.8421528
vn -0.4210638 0.3368739 -0.8421528
vn 7.263294E-07 -0.707122 -0.7070915
vn 2.114384E-06 -0.7071045 -0.7071091
vn 1.41074E-06 -0.7071109 -0.7071026
vn 3.203199E-06 -0.7070987 -0.7071149
vn 5.767098E-07 -0.7071279 -0.7070856
vn 1.149966E-06 -0.707132 -0.7070816
vn 0 1 0
vn 0 1 0
vn 0 1 0
vn 0 1 0
vn 0 1 0
vn 0 1 0
vn 0 1 0
vn 7.019157E-06 -2.270653E-06 -1
vn 1.865625E-05 0 -1
vn 1.01413E-05 -3.40598E-06 -1
vn 1.200608E-06 -3.40598E-06 -1
vn 7.748606E-07 0 -1
vn 1.45038E-06 0 -1
vn 1.45038E-06 0 -1
vn -1 0 8.937932E-07
vn -1 0 8.937932E-07
vn -1 0 8.937932E-07
vn 0.4211104 0.3368757 -0.8421287
vn 0.4211104 0.3368757 -0.8421287
vn 0.4211104 0.3368757 -0.8421287
vn 0 0 -1
vn 0 0 -1
vn 0 0 -1
vn 0 0 -1
vn 1 0 0
vn 1 0 0
vn 1 0 0
vn 1 0 0
vn 0 1 0
vn 0 1 0
vn 0 1 0
vn 0 1 0
vn 0 0 1
vn 0 0 1
vn 0 0 1
vn 0 0 1
vn 0 -1 0
vn 0 -1 0
vn 0 -1 0
vn 0 -1 0
vn -1 0 0
vn -1 0 0
vn -1 0 0
vn -1 0 0
vn 0.7071068 -0.7071068 0
vn 0.7071068 -0.7071068 0
vn 0.7071068 -0.7071068 0
vn 0.7071068 -0.7071068 0
vn 0 1 0
vn 0 1 0
vn 0 1 0
vn 0 1 0
vn 0 -1 0
vn 0 -1 0
vn 0 -1 0
vn 0 -1 0
vn 1 0 0
vn 1 0 0
vn 1 0 0
vn 1 0 0
vn 0 1 0
vn 0 1 0
vn 0 1 0
vn 0 1 0
vn 0 0 -1
vn 0 0 -1
vn 0 0 -1
g Combined Mesh (root: scene) 13_0
f 3/3/3 2/2/2 1/1/1
f 3/3/3 4/4/4 2/2/2
f 7/7/7 6/6/6 5/5/5
f 7/7/7 8/8/8 6/6/6
f 11/11/11 10/10/10 9/9/9
f 11/11/11 12/12/12 10/10/10
f 15/15/15 14/14/14 13/13/13
f 15/15/15 16/16/16 14/14/14
f 19/19/19 18/18/18 17/17/17
f 19/19/19 20/20/20 18/18/18
f 23/23/23 22/22/22 21/21/21
f 23/23/23 24/24/24 22/22/22
g Combined Mesh (root: scene) 13_1
f 27/27/27 26/26/26 25/25/25
f 27/27/27 28/28/28 26/26/26
f 31/31/31 30/30/30 29/29/29
f 31/31/31 32/32/32 30/30/30
f 35/35/35 34/34/34 33/33/33
f 35/35/35 36/36/36 34/34/34
f 39/39/39 38/38/38 37/37/37
f 39/39/39 40/40/40 38/38/38
f 43/43/43 42/42/42 41/41/41
f 43/43/43 44/44/44 42/42/42
f 47/47/47 46/46/46 45/45/45
f 47/47/47 48/48/48 46/46/46
f 49/49/49 48/48/48 47/47/47
f 49/49/49 50/50/50 48/48/48
f 53/53/53 52/52/52 51/51/51
f 53/53/53 54/54/54 52/52/52
f 55/55/55 31/31/31 29/29/29
f 55/55/55 56/56/56 31/31/31
f 57/57/57 41/41/41 42/42/42
f 57/57/57 58/58/58 41/41/41
f 61/61/61 60/60/60 59/59/59
f 61/61/61 62/62/62 60/60/60
f 63/63/63 41/41/41 58/58/58
f 63/63/63 64/64/64 41/41/41
f 65/65/65 49/49/49 47/47/47
f 65/65/65 66/66/66 49/49/49
f 67/67/67 27/27/27 25/25/25
f 67/67/67 68/68/68 27/27/27
f 71/71/71 70/70/70 69/69/69
f 71/71/71 72/72/72 70/70/70
f 73/73/73 30/30/30 32/32/32
f 73/73/73 74/74/74 30/30/30
f 75/75/75 39/39/39 37/37/37
f 75/75/75 76/76/76 39/39/39
f 77/77/77 44/44/44 43/43/43
f 77/77/77 78/78/78 44/44/44
f 81/81/81 80/80/80 79/79/79
f 81/81/81 82/82/82 80/80/80
f 85/85/85 84/84/84 83/83/83
f 85/85/85 86/86/86 84/84/84
f 87/87/87 75/75/75 37/37/37
f 87/87/87 88/88/88 75/75/75
f 89/89/89 33/33/33 34/34/34
f 89/89/89 90/90/90 33/33/33
f 91/91/91 62/62/62 61/61/61
f 91/91/91 92/92/92 62/62/62
f 93/93/93 64/64/64 63/63/63
f 93/93/93 94/94/94 64/64/64
f 97/97/97 96/96/96 95/95/95
f 97/97/97 98/98/98 96/96/96
f 99/99/99 68/68/68 67/67/67
f 99/99/99 100/100/100 68/68/68
f 103/103/103 102/102/102 101/101/101
f 103/103/103 104/104/104 102/102/102
f 105/105/105 62/62/62 92/92/92
f 105/105/105 106/106/106 62/62/62
f 107/107/107 99/99/99 67/67/67
f 107/107/107 108/108/108 99/99/99
f 109/109/109 52/52/52 54/54/54
f 109/109/109 110/110/110 52/52/52
f 113/113/113 112/112/112 111/111/111
f 113/113/113 114/114/114 112/112/112
f 115/115/115 106/106/106 105/105/105
f 115/115/115 116/116/116 106/106/106
f 119/119/119 118/118/118 117/117/117
f 119/119/119 120/120/120 118/118/118
f 121/121/121 110/110/110 109/109/109
f 121/121/121 122/122/122 110/110/110
f 125/125/125 124/124/124 123/123/123
f 125/125/125 126/126/126 124/124/124
f 127/127/127 116/116/116 115/115/115
f 127/127/127 128/128/128 116/116/116
f 131/131/131 130/130/130 129/129/129
f 131/131/131 132/132/132 130/130/130
f 133/133/133 122/122/122 121/121/121
f 133/133/133 134/134/134 122/122/122
g Combined Mesh (root: scene) 13_2
f 139/139/139 141/141/141 140/140/140
f 138/138/138 139/139/139 140/140/140
f 135/135/135 136/136/136 137/137/137
g Combined Mesh (root: scene) 13_3
f 188/188/188 189/189/189 190/190/190
f 185/185/185 186/186/186 187/187/187
f 158/158/158 157/157/157 180/180/180
f 158/158/158 180/180/180 179/179/179
f 183/183/183 158/158/158 179/179/179
f 183/183/183 179/179/179 184/184/184
f 178/178/178 181/181/181 182/182/182
f 181/181/181 178/178/178 180/180/180
f 178/178/178 179/179/179 180/180/180
f 172/172/172 176/176/176 177/177/177
f 172/172/172 153/153/153 176/176/176
f 152/152/152 153/153/153 172/172/172
f 171/171/171 152/152/152 172/172/172
f 173/173/173 175/175/175 174/174/174
f 173/173/173 174/174/174 171/171/171
f 171/171/171 172/172/172 173/173/173
f 170/170/170 165/165/165 169/169/169
f 165/165/165 167/167/167 169/169/169
f 167/167/167 166/166/166 168/168/168
f 165/165/165 166/166/166 167/167/167
f 162/162/162 163/163/163 164/164/164
f 159/159/159 160/160/160 161/161/161
f 157/157/157 158/158/158 154/154/154
f 154/154/154 156/156/156 157/157/157
f 154/154/154 155/155/155 156/156/156
f 152/152/152 151/151/151 153/153/153
f 149/149/149 151/151/151 152/152/152
f 149/149/149 150/150/150 151/151/151
f 146/146/146 148/148/148 147/147/147
f 145/145/145 146/146/146 147/147/147
f 142/142/142 143/143/143 144/144/144
g Combined Mesh (root: scene) 13_4
f 193/193/193 192/192/192 191/191/191
f 193/193/193 194/194/194 192/192/192
f 197/197/197 196/196/196 195/195/195
f 197/197/197 198/198/198 196/196/196
f 201/201/201 200/200/200 199/199/199
f 201/201/201 202/202/202 200/200/200
g Combined Mesh (root: scene) 13_5
f 205/205/205 204/204/204 203/203/203
f 205/205/205 206/206/206 204/204/204
f 209/209/209 208/208/208 207/207/207
f 209/209/209 210/210/210 208/208/208
f 213/213/213 212/212/212 211/211/211
f 213/213/213 214/214/214 212/212/212
f 217/217/217 216/216/216 215/215/215
f 218/218/218 217/217/217 215/215/215
f 221/221/221 220/220/220 219/219/219
f 221/221/221 219/219/219 222/222/222
f 224/224/224 207/207/207 223/223/223
f 207/207/207 208/208/208 223/223/223
f 226/226/226 224/224/224 225/225/225
f 224/224/224 223/223/223 225/225/225
f 229/229/229 228/228/228 227/227/227
f 228/228/228 230/230/230 227/227/227
f 233/233/233 232/232/232 231/231/231
f 232/232/232 234/234/234 231/231/231
f 237/237/237 236/236/236 235/235/235
