g Combined Mesh (root: scene) 13
v -165 -25.75 -62.5
v -165 -25.5 -62.25
v -165.125 -25.5 -62.5
v -166 -25.75 -62.5
v -165.875 -25.5 -62.5
v -166 -25.5 -62.25
v -166 -26.25 -62.5
v -166 -26.5 -62.25
v -165.875 -26.5 -62.5
v -166 -25.75 -61.5
v -166 -25.5 -61.75
v -165.875 -25.5 -61.5
v -165 -26 -62
v -165 -26 -61.5
v -165 -25.5 -61.5
v -165 -25.5 -62
v -165 -26 -62.5
v -165 -26.5 -62.5
v -165 -26.5 -62
v -165 -25.75 -62.5
v -165 -25.5 -62.25
v -166 -25.5 -62.25
v -165.875 -25.5 -62.5
v -165.125 -25.5 -62.5
v -165 -25.5 -62.25
v -166 -25.5 -62
v -165 -25.5 -62
v -166 -25.5 -61.75
v -165.875 -25.5 -61.5
v -165 -25.5 -61.5
v -166 -25.75 -61.5
v -166 -26 -61.5
v -166 -26 -62
v -166 -25.5 -62
v -166 -25.5 -61.75
v -166 -26 -62.5
v -166 -25.75 -62.5
v -166 -25.5 -62.25
v -166 -26.25 -62.5
v -166 -26.5 -62.25
v -166 -26.5 -62
v -165.875 -25.5 -62.5
v -166 -25.75 -62.5
v -166 -26 -62.5
v -165 -26 -62.5
v -166 -26.25 -62.5
v -165.125 -25.5 -62.5
v -165 -25.75 -62.5
v -165.875 -26.5 -62.5
v -165 -26.5 -62.5
v -166 -26.5 -62
v -165 -26.5 -62
v -165 -26.5 -62.5
v -166 -26.5 -62.25
v -165.875 -26.5 -62.5
v -165 -26 -61.5
v -166 -26 -61.5
v -166 -25.75 -61.5
v -165.875 -25.5 -61.5
v -165 -25.5 -61.5
v -166 -25.75 -49.5
v -166 -25.5 -49.75
v -165.875 -25.5 -49.5
v -165 -25.75 -49.5
v -165.125 -25.5 -49.5
v -165 -25.5 -49.75
v -165 -26.25 -49.5
v -165 -26.5 -49.75
v -165.125 -26.5 -49.5
v -165 -25.75 -50.5
v -165 -25.5 -50.25
v -165.125 -25.5 -50.5
v -166 -26 -50
v -166 -26 -50.5
v -166 -25.5 -50.5
v -166 -25.5 -50
v -166 -26 -49.5
v -166 -26.5 -49.5
v -166 -26.5 -50
v -166 -25.75 -49.5
v -166 -25.5 -49.75
v -165 -25.5 -49.75
v -165.125 -25.5 -49.5
v -165.875 -25.5 -49.5
v -166 -25.5 -49.75
v -165 -25.5 -50
v -166 -25.5 -50
v -165 -25.5 -50.25
v -165.125 -25.5 -50.5
v -166 -25.5 -50.5
v -165 -25.75 -50.5
v -165 -26 -50.5
v -165 -26 -50
v -165 -25.5 -50
v -165 -25.5 -50.25
v -165 -26 -49.5
v -165 -25.75 -49.5
v -165 -25.5 -49.75
v -165 -26.25 -49.5
v -165 -26.5 -49.75
v -165 -26.5 -50
v -165.125 -25.5 -49.5
v -165 -25.75 -49.5
v -165 -26 -49.5
v -166 -26 -49.5
v -165 -26.25 -49.5
v -165.875 -25.5 -49.5
v -166 -25.75 -49.5
v -165.125 -26.5 -49.5
v -166 -26.5 -49.5
v -165 -26.5 -50
v -166 -26.5 -50
v -166 -26.5 -49.5
v -165 -26.5 -49.75
v -165.125 -26.5 -49.5
v -166 -26 -50.5
v -165 -26 -50.5
v -165 -25.75 -50.5
v -165.125 -25.5 -50.5
v -166 -25.5 -50.5
vt 0.656373 0.3749999
vt 0.687623 0.3437499
vt 0.687623 0.3749999
vt 0.750123 0.3437499
vt 0.718873 0.3749999
vt 0.750123 0.3749999
vt 0.750123 0.2812499
vt 0.750123 0.2499999
vt 0.718873 0.2499999
vt 0.5001231 0.25
vt 0.5001231 0.28125
vt 0.4688731 0.25
vt 0.625123 0.3124999
vt 0.625123 0.2499999
vt 0.687623 0.2499999
vt 0.687623 0.3124999
vt 0.625123 0.3749999
vt 0.562623 0.3749999
vt 0.562623 0.3124999
vt 0.656373 0.3749999
vt 0.687623 0.3437499
vt 0.875123 0.21875
vt 0.843873 0.2499999
vt 0.656373 0.2499999
vt 0.625123 0.2187499
vt 0.875123 0.1875
vt 0.6251231 0.1874999
vt 0.8751231 0.15625
vt 0.8438731 0.125
vt 0.6251231 0.1249999
vt 0.656373 0.25
vt 0.625123 0.25
vt 0.6251231 0.3125
vt 0.6876231 0.3125
vt 0.6876231 0.28125
vt 0.6251231 0.375
vt 0.6563731 0.375
vt 0.6876231 0.34375
vt 0.5938731 0.375
vt 0.5626231 0.34375
vt 0.5626231 0.3124999
vt 0.718873 0.3749999
vt 0.750123 0.3437499
vt 0.750123 0.3124999
vt 0.5001231 0.3124999
vt 0.750123 0.2812499
vt 0.531373 0.3749999
vt 0.500123 0.3437499
vt 0.718873 0.2499999
vt 0.5001231 0.2499999
vt 0.7501231 0.3124999
vt 0.5001231 0.3124999
vt 0.5001231 0.3749999
vt 0.750123 0.34375
vt 0.718873 0.375
vt 0.5001231 0.3124999
vt 0.7501231 0.3124999
vt 0.7501231 0.3437499
vt 0.7188731 0.3749999
vt 0.5001231 0.3749999
vt 0.656373 0.3749999
vt 0.687623 0.3437499
vt 0.687623 0.3749999
vt 0.750123 0.3437499
vt 0.718873 0.3749999
vt 0.750123 0.3749999
vt 0.750123 0.2812499
vt 0.750123 0.2499999
vt 0.718873 0.2499999
vt 0.5001231 0.25
vt 0.5001231 0.28125
vt 0.4688731 0.25
vt 0.625123 0.3124999
vt 0.625123 0.2499999
vt 0.687623 0.2499999
vt 0.687623 0.3124999
vt 0.625123 0.3749999
vt 0.562623 0.3749999
vt 0.562623 0.3124999
vt 0.656373 0.3749999
vt 0.687623 0.3437499
vt 0.875123 0.21875
vt 0.843873 0.2499999
vt 0.656373 0.2499999
vt 0.625123 0.2187499
vt 0.875123 0.1875
vt 0.6251231 0.1874999
vt 0.8751231 0.15625
vt 0.8438731 0.125
vt 0.6251231 0.1249999
vt 0.656373 0.25
vt 0.625123 0.25
vt 0.6251231 0.3125
vt 0.6876231 0.3125
vt 0.6876231 0.28125
vt 0.6251231 0.375
vt 0.6563731 0.375
vt 0.6876231 0.34375
vt 0.5938731 0.375
vt 0.5626231 0.34375
vt 0.5626231 0.3124999
vt 0.718873 0.3749999
vt 0.750123 0.3437499
vt 0.750123 0.3124999
vt 0.5001231 0.3124999
vt 0.750123 0.2812499
vt 0.531373 0.3749999
vt 0.500123 0.3437499
vt 0.718873 0.2499999
vt 0.5001231 0.2499999
vt 0.7501231 0.3124999
vt 0.5001231 0.3124999
vt 0.5001231 0.3749999
vt 0.750123 0.34375
vt 0.718873 0.375
vt 0.5001231 0.3124999
vt 0.7501231 0.3124999
vt 0.7501231 0.3437499
vt 0.7188731 0.3749999
vt 0.5001231 0.3749999
vn 0.8164976 0.4082482 -0.4082462
vn 0.8164976 0.4082482 -0.4082462
vn 0.8164976 0.4082482 -0.4082462
vn -0.8164956 0.4082484 -0.4082502
vn -0.8164956 0.4082484 -0.4082502
vn -0.8164956 0.4082484 -0.4082502
vn -0.8164956 -0.4082481 -0.4082504
vn -0.8164956 -0.4082481 -0.4082504
vn -0.8164956 -0.4082481 -0.4082504
vn -0.8164976 0.4082483 0.4082463
vn -0.8164976 0.4082483 0.4082463
vn -0.8164976 0.4082483 0.4082463
vn 1 0 2.086162E-06
vn 1 0 2.086162E-06
vn 1 0 2.086162E-06
vn 1 0 2.086162E-06
vn 1 0 2.086162E-06
vn 1 0 2.086162E-06
vn 1 0 2.086162E-06
vn 1 0 2.086162E-06
vn 1 0 2.086162E-06
vn 0 1 0
vn 0 1 0
vn 0 1 0
vn 0 1 0
vn 0 1 0
vn 0 1 0
vn 0 1 0
vn 0 1 0
vn 0 1 0
vn -1 0 -2.086162E-06
vn -1 0 -2.086162E-06
vn -1 0 -2.086162E-06
vn -1 0 -2.086162E-06
vn -1 0 -2.086162E-06
vn -1 0 -2.086162E-06
vn -1 0 -2.086162E-06
vn -1 0 -2.086162E-06
vn -1 0 -2.086162E-06
vn -1 0 -2.086162E-06
vn -1 0 -2.086162E-06
vn 2.086162E-06 0 -1
vn 2.086162E-06 0 -1
vn 2.086162E-06 0 -1
vn 2.086162E-06 0 -1
vn 2.086162E-06 0 -1
vn 2.086162E-06 0 -1
vn 2.086162E-06 0 -1
vn 2.086162E-06 0 -1
vn 2.086162E-06 0 -1
vn 0 -1 0
vn 0 -1 0
vn 0 -1 0
vn 0 -1 0
vn 0 -1 0
vn -2.086162E-06 0 1
vn -2.086162E-06 0 1
vn -2.086162E-06 0 1
vn -2.086162E-06 0 1
vn -2.086162E-06 0 1
vn -0.8164994 0.4082482 0.408243
vn -0.8164994 0.4082482 0.408243
vn -0.8164994 0.4082482 0.408243
vn 0.8164939 0.4082484 0.4082535
vn 0.8164939 0.4082484 0.4082535
vn 0.8164939 0.4082484 0.4082535
vn 0.816494 -0.4082481 0.4082537
vn 0.816494 -0.4082481 0.4082537
vn 0.816494 -0.4082481 0.4082537
vn 0.8164992 0.4082482 -0.408243
vn 0.8164992 0.4082482 -0.408243
vn 0.8164992 0.4082482 -0.408243
vn -1 0 -6.109475E-06
vn -1 0 -6.109475E-06
vn -1 0 -6.109475E-06
vn -1 0 -6.109475E-06
vn -1 0 -6.109475E-06
vn -1 0 -6.109475E-06
vn -1 0 -6.109475E-06
vn -1 0 -6.109475E-06
vn -1 0 -6.109475E-06
vn 0 1 0
vn 0 1 0
vn 0 1 0
vn 0 1 0
vn 0 1 0
vn 0 1 0
vn 0 1 0
vn 0 1 0
vn 0 1 0
vn 1 0 6.109475E-06
vn 1 0 6.109475E-06
vn 1 0 6.109475E-06
vn 1 0 6.109475E-06
vn 1 0 6.109475E-06
vn 1 0 6.109475E-06
vn 1 0 6.109475E-06
vn 1 0 6.109475E-06
vn 1 0 6.109475E-06
vn 1 0 6.109475E-06
vn 1 0 6.109475E-06
vn -6.109475E-06 0 1
vn -6.109475E-06 0 1
vn -6.109475E-06 0 1
vn -6.109475E-06 0 1
vn -6.109475E-06 0 1
vn -6.109475E-06 0 1
vn -6.109475E-06 0 1
vn -6.109475E-06 0 1
vn -6.109475E-06 0 1
vn 0 -1 0
vn 0 -1 0
vn 0 -1 0
vn 0 -1 0
vn 0 -1 0
vn 6.109475E-06 0 -1
vn 6.109475E-06 0 -1
vn 6.109475E-06 0 -1
vn 6.109475E-06 0 -1
vn 6.109475E-06 0 -1
g Combined Mesh (root: scene) 13_0
f 3/3/3 2/2/2 1/1/1
f 6/6/6 5/5/5 4/4/4
f 9/9/9 8/8/8 7/7/7
f 12/12/12 11/11/11 10/10/10
f 15/15/15 14/14/14 13/13/13
f 16/16/16 15/15/15 13/13/13
f 16/16/16 13/13/13 17/17/17
f 17/17/17 13/13/13 18/18/18
f 13/13/13 19/19/19 18/18/18
f 17/17/17 20/20/20 16/16/16
f 20/20/20 21/21/21 16/16/16
f 24/24/24 23/23/23 22/22/22
f 25/25/25 24/24/24 22/22/22
f 25/25/25 22/22/22 26/26/26
f 26/26/26 27/27/27 25/25/25
f 27/27/27 26/26/26 28/28/28
f 27/27/27 28/28/28 29/29/29
f 29/29/29 30/30/30 27/27/27
f 33/33/33 32/32/32 31/31/31
f 31/31/31 34/34/34 33/33/33
f 31/31/31 35/35/35 34/34/34
f 36/36/36 33/33/33 34/34/34
f 34/34/34 37/37/37 36/36/36
f 34/34/34 38/38/38 37/37/37
f 33/33/33 36/36/36 39/39/39
f 33/33/33 39/39/39 40/40/40
f 40/40/40 41/41/41 33/33/33
f 44/44/44 43/43/43 42/42/42
f 42/42/42 45/45/45 44/44/44
f 46/46/46 44/44/44 45/45/45
f 42/42/42 47/47/47 45/45/45
f 47/47/47 48/48/48 45/45/45
f 45/45/45 49/49/49 46/46/46
f 45/45/45 50/50/50 49/49/49
f 53/53/53 52/52/52 51/51/51
f 51/51/51 54/54/54 53/53/53
f 54/54/54 55/55/55 53/53/53
f 58/58/58 57/57/57 56/56/56
f 56/56/56 59/59/59 58/58/58
f 56/56/56 60/60/60 59/59/59
g Combined Mesh (root: scene) 13_1
f 63/63/63 62/62/62 61/61/61
f 66/66/66 65/65/65 64/64/64
f 69/69/69 68/68/68 67/67/67
f 72/72/72 71/71/71 70/70/70
f 75/75/75 74/74/74 73/73/73
f 76/76/76 75/75/75 73/73/73
f 76/76/76 73/73/73 77/77/77
f 77/77/77 73/73/73 78/78/78
f 73/73/73 79/79/79 78/78/78
f 77/77/77 80/80/80 76/76/76
f 80/80/80 81/81/81 76/76/76
f 84/84/84 83/83/83 82/82/82
f 85/85/85 84/84/84 82/82/82
f 85/85/85 82/82/82 86/86/86
f 86/86/86 87/87/87 85/85/85
f 87/87/87 86/86/86 88/88/88
f 87/87/87 88/88/88 89/89/89
f 89/89/89 90/90/90 87/87/87
f 93/93/93 92/92/92 91/91/91
f 91/91/91 94/94/94 93/93/93
f 91/91/91 95/95/95 94/94/94
f 96/96/96 93/93/93 94/94/94
f 94/94/94 97/97/97 96/96/96
f 94/94/94 98/98/98 97/97/97
f 93/93/93 96/96/96 99/99/99
f 93/93/93 99/99/99 100/100/100
f 100/100/100 101/101/101 93/93/93
f 104/104/104 103/103/103 102/102/102
f 102/102/102 105/105/105 104/104/104
f 106/106/106 104/104/104 105/105/105
f 102/102/102 107/107/107 105/105/105
f 107/107/107 108/108/108 105/105/105
f 105/105/105 109/109/109 106/106/106
f 105/105/105 110/110/110 109/109/109
f 113/113/113 112/112/112 111/111/111
f 111/111/111 114/114/114 113/113/113
f 114/114/114 115/115/115 113/113/113
f 118/118/118 117/117/117 116/116/116
f 116/116/116 119/119/119 118/118/118
f 116/116/116 120/120/120 119/119/119
