g Combined Mesh (root: scene) 25
v -14 -6 80
v -12 -6 80
v -14 -2 80
v -12 -2 80
v -82 -7 216
v -82 -7 204
v -82 16 216
v -82 16 204
v -82 -7 204
v 35.99997 -7.4 204
v -82 16 204
v 36 16 204
v 35.99997 -7.4 204
v 36 -7.4 216
v 36 16 204
v 36 16 216
v 36 -7.4 216
v -82 -7 216
v 36 16 216
v -82 16 216
v -82 16 216
v -82 16 204
v 36 16 216
v 36 16 204
v 60 -8 120
v 40 -8 120
v 60 0 120
v 40 0 120
v 40 -8 120
v 40 -8 100
v 40 0 120
v 40 0 100
v 40 -8 100
v 60 -8 100
v 40 0 100
v 60 0 100
v 60 -8 100
v 60 -8 120
v 60 0 100
v 60 0 120
v 60 0 120
v 40 0 120
v 60 0 100
v 40 0 100
v 12 -8 80
v 0 -8 80
v 12 -6 80
v 0 -6 80
v 0 -8 80
v 0 -8 63
v 0 -6 80
v 0 -6 63
v 0 -8 63
v 12 -8 63
v 0 -6 63
v 12 -6 63
v 12 -8 63
v 12 -8 80
v 12 -6 63
v 12 -6 80
v 12 -6 80
v 0 -6 80
v 12 -6 63
v 0 -6 63
v 36 12 209
v 35.99999 11.5 204
v 36 16 209
v 35.99999 16 204
v 35.99999 11.5 204
v 40.99999 15 204
v 35.99999 16 204
v 40.99999 16 204
v 40.99999 15 204
v 40 15 208
v 40.99999 16 204
v 40 16 208
v 40 15 208
v 36 12 209
v 40 16 208
v 36 16 209
v 36 16 209
v 35.99999 16 204
v 40 16 208
v 40.99999 16 204
v 40 15 208
v 40.99999 15 204
v 36 12 209
v 35.99999 11.5 204
v 0 -8 80
v -18 -8 80
v 0 -6 80
v -18 -6 80
v -18 -8 80
v -18 -8 66
v -18 -6 80
v -18 -6 66
v -18 -8 66
v 0 -8 66
v -18 -6 66
v 0 -6 66
v 0 -8 66
v 0 -8 80
v 0 -6 66
v 0 -6 80
v 0 -6 80
v -18 -6 80
v 0 -6 66
v -18 -6 66
v 26 0 116
v 20 0 116
v 26 8 116
v 20 8 116
v 20 0 116
v 20 0 109
v 20 8 116
v 20 8 109
v 20 0 109
v 26 0 109
v 20 8 109
v 26 8 109
v 26 0 109
v 26 0 116
v 26 8 109
v 26 8 116
v 26 8 116
v 20 8 116
v 26 8 109
v 20 8 109
v 26 0 109
v 20 0 109
v 26 0 116
v 20 0 116
v -16 -8 140
v -27.5 -8 140
v -16 24 140
v -27.5 24 140
v -18 18 122
v -14 18 122
v -18 23 122
v -14 23 122
v 0 -8 140
v 0 24 140
v 0 24 136
v 0 -8 136
v -16 24 140
v -27.5 24 140
v -16 24 136
v -27.5 24 136
v -16 -8 140
v -27.5 -8 140
v -16 -8 136
v -27.5 -8 136
v -27.5 -8 140
v -27.5 24 140
v -27.5 -8 136
v -27.5 24 136
v -16 -8 136
v -16 24 136
v -16 24 132
v -16 -8 132
v 0 24 120
v 0 -8 120
v 0 24 132
v 0 -8 132
v -27.5 24 120
v -5 24 120
v -16 24 132
v -27.5 24 132
v -27.5 24 136
v -16 24 136
v -16 24 132
v -27.5 24 132
v -27.5 -8 136
v -16 -8 136
v -16 -8 132
v -27.5 -8 132
v -27.5 24 136
v -27.5 -8 136
v -27.5 -8 132
v -27.5 24 132
v -27.5 -8 120
v -27.5 24 120
v -27.5 -8 132
v -27.5 24 132
v -5 24 120
v -5 -8 120
v 0 24 120
v 0 -8 120
v -16 24 132
v -5 24 120
v 0 24 132
v 0 24 120
v -16 -8 132
v -16 24 132
v 0 -8 132
v 0 24 132
v -16 -8 140
v -16 24 140
v 0 -8 140
v 0 24 140
v -16 -8 136
v -16 -8 140
v 0 -8 136
v 0 -8 140
v -16 24 140
v -16 24 136
v 0 24 140
v 0 24 136
v -16 24 136
v -16 -8 136
v 0 24 136
v 0 -8 136
v -27.5 -8 120
v -5 -8 120
v -18 18 120
v -14 18 120
v -27.5 24 120
v -27.5 -8 120
v -18 23 120
v -18 18 120
v -5 -8 120
v -5 24 120
v -14 18 120
v -14 23 120
v -5 24 120
v -27.5 24 120
v -14 23 120
v -18 23 120
v -18 23 120
v -18 18 120
v -18 23 122
v -18 18 122
v -14 18 120
v -14 23 120
v -14 18 122
v -14 23 122
v -14 23 120
v -18 23 120
v -14 23 122
v -18 23 122
v 40 -8 140
v 0 -8 140
v 40 16 140
v 0 16 140
v 0 -8 140
v 0 -8 120
v 0 16 140
v 0 16 120
v 0 -8 120
v 40 -8 120
v 0 16 120
v 40 16 120
v 40 -8 120
v 40 -8 140
v 40 16 120
v 40 16 140
v 40 16 140
v 0 16 140
v 40 16 120
v 0 16 120
v 20 -8 120
v 0 -8 120
v 20 8 120
v 0 8 120
v 0 -8 120
v 0 -8 100
v 0 8 120
v 0 8 100
v 0 -8 100
v 20 -8 100
v 0 8 100
v 20 8 100
v 20 -8 100
v 20 -8 120
v 20 8 100
v 20 8 120
v 20 8 120
v 0 8 120
v 20 8 100
v 0 8 100
v 44 11.5 120
v 32 11.5 120
v 44 16 120
v 32 16 120
v 32 11.5 120
v 35 15 117
v 32 16 120
v 35 16 117
v 35 15 117
v 44 15 117
v 35 16 117
v 44 16 117
v 44 15 117
v 44 11.5 120
v 44 16 117
v 44 16 120
v 44 16 120
v 32 16 120
v 44 16 117
v 35 16 117
v 44 15 117
v 35 15 117
v 44 11.5 120
v 32 11.5 120
v -18 8 187
v -58 8 187
v -18 16 187
v -58 16 187
v -58 8 187
v -58 8 167
v -58 16 187
v -58 16 167
v -58 8 167
v -18 8 167
v -58 16 167
v -18 16 167
v -18 8 167
v -18 8 187
v -18 16 167
v -18 16 187
v -18 16 187
v -58 16 187
v -18 16 167
v -58 16 167
v 45 12 140
v 40 11.5 140
v 45 16 140
v 40 16 140
v 40 11.5 140
v 40 15 135
v 40 16 140
v 40 16 135
v 40 15 135
v 44 15 136
v 40 16 135
v 44 16 136
v 44 15 136
v 45 12 140
v 44 16 136
v 45 16 140
v 45 16 140
v 40 16 140
v 44 16 136
v 40 16 135
v 44 15 136
v 40 15 135
v 45 12 140
v 40 11.5 140
v 52 -7.4 204
v 34 -7 204
v 52 16 204
v 34 16 204
v 34 -7 204
v 34 -7 140
v 34 16 204
v 34 16 140
v 34 -7 140
v 52 -7.4 140
v 34 16 140
v 52 16 140
v 52 -7.4 140
v 52 -7.4 204
v 52 16 140
v 52 16 204
v 52 16 204
v 34 16 204
v 52 16 140
v 34 16 140
v 0 -8 120
v -28 -8 120
v 0 16 120
v -28 16 120
v -28 -8 120
v -28 -8 100
v -28 16 120
v -28 16 100
v -28 -8 100
v 0 -8 100
v -28 16 100
v 0 16 100
v 0 -8 100
v 0 -8 120
v 0 16 100
v 0 16 120
v 0 16 120
v -28 16 120
v 0 16 100
v -28 16 100
v 40 -8 100
v 20 -8 100
v 40 0 100
v 20 0 100
v 20 -8 100
v 20 -8 80
v 20 0 100
v 20 0 80
v 20 -8 80
v 40 -8 80
v 20 0 80
v 40 0 80
v 40 -8 80
v 40 -8 100
v 40 0 80
v 40 0 100
v 40 0 100
v 20 0 100
v 40 0 80
v 20 0 80
v 0 -8 100
v -20 -8 100
v 0 0 100
v -20 0 100
v -20 -8 100
v -20 -8 80
v -20 0 100
v -20 0 80
v 0 -8 80
v 0 -8 100
v 0 0 80
v 0 0 100
v 0 0 100
v -20 0 100
v 0 0 80
v -20 0 80
v -20 -8 80
v 0 -8 80
v -14 -6 80
v -12 -6 80
v -20 0 80
v -20 -8 80
v -14 -2 80
v -14 -6 80
v 0 -8 80
v 0 0 80
v -12 -6 80
v -12 -2 80
v 0 0 80
v -20 0 80
v -12 -2 80
v -14 -2 80
v -14 -6 80
v -12 -6 80
v -14 -6 84
v -12 -6 84
v -14 -2 80
v -14 -6 80
v -14 -2 84
v -14 -6 84
v -12 -6 80
v -12 -2 80
v -12 -6 84
v -12 -2 84
v -12 -2 80
v -14 -2 80
v -12 -2 84
v -14 -2 84
vt 2 0
vt 0 0
vt 2 4
vt 0 4
vt 12 0
vt 0 0
vt 12 23
vt 0 23
vt 118 0.3999996
vt 2.670288E-05 0
vt 118 23.4
vt 0 23.4
vt 12 0
vt 0 0
vt 12 23.4
vt 0 23.4
vt 118 0
vt 0 0.3999996
vt 118 23.4
vt 0 23.4
vt 0.0002603531 118
vt 12.00026 118
vt 0 2.288818E-05
vt 12 -3.814697E-06
vt 20 0
vt 0 0
vt 20 8
vt 0 8
vt 20 0
vt 0 0
vt 20 8
vt 0 8
vt 20 0
vt 0 0
vt 20 8
vt 0 8
vt 20 0
vt 0 0
vt 20 8
vt 0 8
vt 0 20
vt 20 20
vt 0 0
vt 20 0
vt 12 0
vt 0 0
vt 12 2
vt 0 2
vt 17 0
vt 0 0
vt 17 2
vt 0 2
vt 12 0
vt 0 0
vt 12 2
vt 0 2
vt 17 0
vt 0 0
vt 17 2
vt 0 2
vt 0 17
vt 12 17
vt 0 0
vt 12 0
vt 5 0.5
vt 0 0
vt 5 4.5
vt 0 4.5
vt 5 0
vt 0 3.5
vt 5 4.5
vt 0 4.5
vt 4.123106 0
vt 0 0
vt 4.123106 1
vt 0 1
vt 4.123106 3
vt 0 0
vt 4.123106 4
vt 0 4
vt 0 5
vt 5 5
vt 1 1
vt 5 0
vt 4.608729 1.270978
vt 0.6864061 0
vt 5.000961 6.354889
vt 0 6.052275
vt 18 0
vt 0 0
vt 18 2
vt 0 2
vt 14 0
vt 0 0
vt 14 2
vt 0 2
vt 18 0
vt 0 0
vt 18 2
vt 0 2
vt 14 0
vt 0 0
vt 14 2
vt 0 2
vt 0 14
vt 18 14
vt 0 0
vt 18 0
vt 6 0
vt 0 0
vt 6 8
vt 0 8
vt 7 0
vt 0 0
vt 7 8
vt 0 8
vt 6 0
vt 0 0
vt 6 8
vt 0 8
vt 7 0
vt 0 0
vt 7 8
vt 0 8
vt 0 7
vt 6 7
vt 0 0
vt 6 0
vt 6 0
vt 0 0
vt 6 7
vt 0 7
vt 11.5 0
vt 0 0
vt 11.5 32
vt 0 32
vt 4 0
vt 0 0
vt 4 5
vt 0 5
vt 0 0
vt 0 32
vt 4 32
vt 4 0
vt 11 20
vt 22.5 20
vt 11 16
vt 22.5 16
vt 11.5 8
vt 0 8
vt 11.5 4
vt 0 4
vt 20 0
vt 20 32
vt 16 0
vt 16 32
vt 0 0
vt 0 32
vt 4 32
vt 4 0
vt 20 32
vt 20 0
vt 8 32
vt 8 0
vt 22.5 0
vt 0 0
vt 11 12
vt 22.5 12
vt 22.5 16
vt 11 16
vt 11 12
vt 22.5 12
vt 0 4
vt 11.5 4
vt 11.5 0
vt 0 0
vt 16 32
vt 16 0
vt 12 0
vt 12 32
vt 0 0
vt 0 32
vt 12 0
vt 12 32
vt 5 32
vt 5 0
vt 0 32
vt 0 0
vt 16 12
vt 5 0
vt 0 12
vt 0 0
vt 0 0
vt 0 32
vt 16 0
vt 16 32
vt 0 0
vt 0 32
vt 16 0
vt 16 32
vt 0 0
vt 0 4
vt 16 0
vt 16 4
vt 16 4
vt 16 0
vt 0 4
vt 0 0
vt 16 32
vt 16 0
vt 0 32
vt 0 0
vt 22.5 0
vt 0 0
vt 13 26
vt 9 26
vt 9.5 32
vt 9.5 0
vt 0 31
vt 0 26
vt 0 0
vt 0 32
vt 9 26
vt 9 31
vt 0 1
vt 22.5 1
vt 9 0
vt 13 0
vt 2 5
vt 2 0
vt 0 5
vt 0 0
vt 0 0
vt 0 5
vt 2 0
vt 2 5
vt 4 0
vt 0 0
vt 4 2
vt 0 2
vt 40 0
vt 0 0
vt 40 24
vt 0 24
vt 20 0
vt 0 0
vt 20 24
vt 0 24
vt 40 0
vt 0 0
vt 40 24
vt 0 24
vt 20 0
vt 0 0
vt 20 24
vt 0 24
vt 0 20
vt 40 20
vt 0 0
vt 40 0
vt 20 0
vt 0 0
vt 20 16
vt 0 16
vt 20 0
vt 0 0
vt 20 16
vt 0 16
vt 20 0
vt 0 0
vt 20 16
vt 0 16
vt 20 0
vt 0 0
vt 20 16
vt 0 16
vt 0 20
vt 20 20
vt 0 0
vt 20 0
vt 12 0
vt 0 0
vt 12 4.5
vt 0 4.5
vt 4.242641 0
vt 0 3.5
vt 4.242641 4.5
vt 0 4.5
vt 9 0
vt 0 0
vt 9 1
vt 0 1
vt 3 3.5
vt 0 0
vt 3 4.5
vt 0 4.5
vt 0 3
vt 12 3
vt 0 0
vt 9 0
vt 0 4.609773
vt 9 4.609773
vt 0 0
vt 12 0
vt 40 0
vt 0 0
vt 40 8
vt 0 8
vt 20 0
vt 0 0
vt 20 8
vt 0 8
vt 40 0
vt 0 0
vt 40 8
vt 0 8
vt 20 0
vt 0 0
vt 20 8
vt 0 8
vt 0 20
vt 40 20
vt 0 0
vt 40 0
vt 5 0.5
vt 0 0
vt 5 4.5
vt 0 4.5
vt 5 0
vt 0 3.5
vt 5 4.5
vt 0 4.5
vt 4.123106 0
vt 0 0
vt 4.123106 1
vt 0 1
vt 4.123106 3
vt 0 0
vt 4.123106 4
vt 0 4
vt 0 5
vt 5 5
vt 1 1
vt 5 0
vt 4.608729 1.270978
vt 0.6864061 0
vt 5.000961 6.354889
vt 0 6.052275
vt 18 0
vt 0 0.3999996
vt 18 23.4
vt 0 23.4
vt 64 0
vt 0 0
vt 64 23
vt 0 23
vt 18 0.3999996
vt 0 0
vt 18 23.4
vt 0 23.4
vt 64 0
vt 0 0
vt 64 23.4
vt 0 23.4
vt 0 64
vt 18 64
vt 0 0
vt 18 0
vt 28 0
vt 0 0
vt 28 24
vt 0 24
vt 20 0
vt 0 0
vt 20 24
vt 0 24
vt 28 0
vt 0 0
vt 28 24
vt 0 24
vt 20 0
vt 0 0
vt 20 24
vt 0 24
vt 0 20
vt 28 20
vt 0 0
vt 28 0
vt 20 0
vt 0 0
vt 20 8
vt 0 8
vt 20 0
vt 0 0
vt 20 8
vt 0 8
vt 20 0
vt 0 0
vt 20 8
vt 0 8
vt 20 0
vt 0 0
vt 20 8
vt 0 8
vt 0 20
vt 20 20
vt 0 0
vt 20 0
vt 20 0
vt 0 0
vt 20 8
vt 0 8
vt 20 0
vt 0 0
vt 20 8
vt 0 8
vt 20 0
vt 0 0
vt 20 8
vt 0 8
vt 0 20
vt 20 20
vt 0 0
vt 20 0
vt 20 0
vt 0 0
vt 14 2
vt 12 2
vt 6 8
vt 6 0
vt 0 6
vt 0 2
vt 0 0
vt 0 8
vt 12 2
vt 12 6
vt 0 2
vt 20 2
vt 12 0
vt 14 0
vt 2 0
vt 0 0
vt 2 4
vt 0 4
vt 4 4
vt 4 0
vt 0 4
vt 0 0
vt 0 0
vt 0 4
vt 4 0
vt 4 4
vt 2 0
vt 0 0
vt 2 4
vt 0 4
vn 0 0 -1
vn 0 0 -1
vn 0 0 -1
vn 0 0 -1
vn -1 0 2.980232E-07
vn -1 0 2.980232E-07
vn -1 0 2.980232E-07
vn -1 0 2.980232E-07
vn 1.010676E-09 0 -1
vn 1.010221E-09 -1.258421E-12 -1
vn 1.010221E-09 -1.258421E-12 -1
vn 1.009994E-09 -2.495329E-12 -1
vn 1 -1.13096E-06 -2.205372E-06
vn 1 -5.6548E-07 -1.102686E-06
vn 1 -5.6548E-07 -1.102686E-06
vn 1 0 0
vn -2.273737E-13 0 0.9999999
vn 0 0 1
vn 0 0 1
vn 0 0 1
vn 0 1 0
vn 0 1 0
vn 0 1 0
vn 0 1 0
vn 0 0 1
vn 0 0 1
vn 0 0 1
vn 0 0 1
vn -1 0 0
vn -1 0 0
vn -1 0 0
vn -1 0 0
vn 0 0 -1
vn 0 0 -1
vn 0 0 -1
vn 0 0 -1
vn 1 0 0
vn 1 0 0
vn 1 0 0
vn 1 0 0
vn 0 1 0
vn 0 1 0
vn 0 1 0
vn 0 1 0
vn 0 0 1
vn 0 0 1
vn 0 0 1
vn 0 0 1
vn -1 0 0
vn -1 0 0
vn -1 0 0
vn -1 0 0
vn 0 0 -1
vn 0 0 -1
vn 0 0 -1
vn 0 0 -1
vn 1 0 0
vn 1 0 0
vn 1 0 0
vn 1 0 0
vn 0 1 0
vn 0 1 0
vn 0 1 0
vn 0 1 0
vn -1 0 1.370907E-06
vn -1 0 1.370907E-06
vn -1 0 1.370907E-06
vn -1 0 1.370907E-06
vn -1.370907E-06 0 -1
vn -1.370907E-06 0 -0.9999999
vn -1.370907E-06 0 -0.9999999
vn -1.370907E-06 0 -1
vn 0.9701429 0 0.2425343
vn 0.9701429 0 0.2425343
vn 0.9701429 0 0.2425343
vn 0.9701429 0 0.2425343
vn 0.242537 0 0.9701422
vn 0.2425369 0 0.9701421
vn 0.2425369 0 0.9701421
vn 0.242537 0 0.9701422
vn 0 1 0
vn 0 1 0
vn 0 1 0
vn 0 1 0
vn 0.6172136 -0.7715167 0.1543025
vn 0.5899411 -0.79992 0.1099882
vn 0.5899411 -0.79992 0.1099882
vn 0.5715477 -0.8164966 0.08164887
vn 0 0 1
vn 0 0 1
vn 0 0 1
vn 0 0 1
vn -1 0 0
vn -1 0 0
vn -1 0 0
vn -1 0 0
vn 0 0 -1
vn 0 0 -1
vn 0 0 -1
vn 0 0 -1
vn 1 0 0
vn 1 0 0
vn 1 0 0
vn 1 0 0
vn 0 1 0
vn 0 1 0
vn 0 1 0
vn 0 1 0
vn 0 0 1
vn 0 0 1
vn 0 0 1
vn 0 0 1
vn -1 0 0
vn -1 0 0
vn -1 0 0
vn -1 0 0
vn 0 0 -1
vn 0 0 -1
vn 0 0 -1
vn 0 0 -1
vn 1 0 0
vn 1 0 0
vn 1 0 0
vn 1 0 0
vn 0 1 0
vn 0 1 0
vn 0 1 0
vn 0 1 0
vn 0 -1 0
vn 0 -1 0
vn 0 -1 0
vn 0 -1 0
vn 0 0 1
vn 0 0 1
vn 0 0 1
vn 0 0 1
vn 0 0 -1
vn 0 0 -1
vn 0 0 -1
vn 0 0 -1
vn 1 0 0
vn 1 0 0
vn 1 0 0
vn 1 0 0
vn 0 1 0
vn 0 1 0
vn 0 1 0
vn 0 1 0
vn 0 -1 0
vn 0 -1 0
vn 0 -1 0
vn 0 -1 0
vn -1 0 0
vn -1 0 0
vn -1 0 0
vn -1 0 0
vn 1 0 0
vn 1 0 0
vn 1 0 0
vn 1 0 0
vn 1 0 0
vn 1 0 0
vn 1 0 0
vn 1 0 0
vn 0 1 0
vn 0 1 0
vn 0 1 0
vn 0 1 0
vn 0 1 0
vn 0 1 0
vn 0 1 0
vn 0 1 0
vn 0 -1 0
vn 0 -1 0
vn 0 -1 0
vn 0 -1 0
vn -1 0 0
vn -1 0 0
vn -1 0 0
vn -1 0 0
vn -1 0 0
vn -1 0 0
vn -1 0 0
vn -1 0 0
vn 0 0 -1
vn 0 0 -1
vn 0 0 -1
vn 0 0 -1
vn 0 1 0
vn 0 1 0
vn 0 1 0
vn 0 1 0
vn 0 0 1
vn 0 0 1
vn 0 0 1
vn 0 0 1
vn 0 0 1
vn 0 0 1
vn 0 0 1
vn 0 0 1
vn 0 -1 0
vn 0 -1 0
vn 0 -1 0
vn 0 -1 0
vn 0 1 0
vn 0 1 0
vn 0 1 0
vn 0 1 0
vn 0 0 -1
vn 0 0 -1
vn 0 0 -1
vn 0 0 -1
vn 0 0 -1
vn 0 0 -1
vn 0 0 -1
vn 0 0 -1
vn 0 0 -1
vn 0 0 -1
vn 0 0 -1
vn 0 0 -1
vn 0 0 -1
vn 0 0 -1
vn 0 0 -1
vn 0 0 -1
vn 0 0 -1
vn 0 0 -1
vn 0 0 -1
vn 0 0 -1
vn 1 0 0
vn 1 0 0
vn 1 0 0
vn 1 0 0
vn -1 0 0
vn -1 0 0
vn -1 0 0
vn -1 0 0
vn 0 -1 0
vn 0 -1 0
vn 0 -1 0
vn 0 -1 0
vn 0 0 1
vn 0 0 1
vn 0 0 1
vn 0 0 1
vn -1 0 0
vn -1 0 0
vn -1 0 0
vn -1 0 0
vn 0 0 -1
vn 0 0 -1
vn 0 0 -1
vn 0 0 -1
vn 1 0 0
vn 1 0 0
vn 1 0 0
vn 1 0 0
vn 0 1 0
vn 0 1 0
vn 0 1 0
vn 0 1 0
vn 0 0 1
vn 0 0 1
vn 0 0 1
vn 0 0 1
vn -1 0 0
vn -1 0 0
vn -1 0 0
vn -1 0 0
vn 0 0 -1
vn 0 0 -1
vn 0 0 -1
vn 0 0 -1
vn 1 0 0
vn 1 0 0
vn 1 0 0
vn 1 0 0
vn 0 1 0
vn 0 1 0
vn 0 1 0
vn 0 1 0
vn 0 0 1
vn 0 0 1
vn 0 0 1
vn 0 0 1
vn -0.7071068 0 -0.7071068
vn -0.7071068 0 -0.7071068
vn -0.7071068 0 -0.7071068
vn -0.7071068 0 -0.7071068
vn 0 0 -1
vn 0 0 -1
vn 0 0 -1
vn 0 0 -1
vn 1 0 0
vn 1 0 0
vn 1 0 0
vn 1 0 0
vn 0 1 0
vn 0 1 0
vn 0 1 0
vn 0 1 0
vn 0 -0.6507914 -0.7592566
vn 0 -0.6507914 -0.7592567
vn 0 -0.6507914 -0.7592567
vn 0 -0.6507913 -0.7592566
vn 0 0 1
vn 0 0 1
vn 0 0 1
vn 0 0 1
vn -1 0 0
vn -1 0 0
vn -1 0 0
vn -1 0 0
vn 0 0 -1
vn 0 0 -1
vn 0 0 -1
vn 0 0 -1
vn 1 0 0
vn 1 0 0
vn 1 0 0
vn 1 0 0
vn 0 1 0
vn 0 1 0
vn 0 1 0
vn 0 1 0
vn 0 0 1
vn 0 0 1
vn 0 0 1
vn 0 0 1
vn -1 0 0
vn -0.9999999 0 0
vn -0.9999999 0 0
vn -1 0 0
vn 0.2425356 0 -0.9701425
vn 0.2425356 0 -0.9701425
vn 0.2425356 0 -0.9701425
vn 0.2425356 0 -0.9701425
vn 0.9701425 0 -0.2425356
vn 0.9701425 0 -0.2425356
vn 0.9701425 0 -0.2425356
vn 0.9701425 0 -0.2425356
vn 0 1 0
vn 0 1 0
vn 0 1 0
vn 0 1 0
vn 0.1543033 -0.7715167 -0.6172134
vn 0.109989 -0.79992 -0.589941
vn 0.109989 -0.79992 -0.589941
vn 0.08164965 -0.8164966 -0.5715476
vn 0 0 1
vn 0 0 1
vn 0 0 1
vn 0 0 1
vn -1 0 0
vn -1 0 0
vn -1 0 0
vn -1 0 0
vn 0 0 -1
vn 0 0 -1
vn 0 0 -1
vn 0 0 -1
vn 1 0 0
vn 1 0 0
vn 1 0 0
vn 1 0 0
vn 0 1 0
vn 0 1 0
vn 0 1 0
vn 0 1 0
vn 0 0 1
vn 0 0 1
vn 0 0 1
vn 0 0 1
vn -1 0 0
vn -1 0 0
vn -1 0 0
vn -1 0 0
vn 0 0 -1
vn 0 0 -1
vn 0 0 -1
vn 0 0 -1
vn 1 0 0
vn 1 0 0
vn 1 0 0
vn 1 0 0
vn 0 1 0
vn 0 1 0
vn 0 1 0
vn 0 1 0
vn 0 0 1
vn 0 0 1
vn 0 0 1
vn 0 0 1
vn -1 0 0
vn -1 0 0
vn -1 0 0
vn -1 0 0
vn 0 0 -1
vn 0 0 -1
vn 0 0 -1
vn 0 0 -1
vn 1 0 0
vn 1 0 0
vn 1 0 0
vn 1 0 0
vn 0 1 0
vn 0 1 0
vn 0 1 0
vn 0 1 0
vn 0 0 1
vn 0 0 1
vn 0 0 1
vn 0 0 1
vn -1 0 0
vn -1 0 0
vn -1 0 0
vn -1 0 0
vn 1 0 0
vn 1 0 0
vn 1 0 0
vn 1 0 0
vn 0 1 0
vn 0 1 0
vn 0 1 0
vn 0 1 0
vn 0 0 -1
vn 0 0 -1
vn 0 0 -1
vn 0 0 -1
vn 0 0 -1
vn 0 0 -1
vn 0 0 -1
vn 0 0 -1
vn 0 0 -1
vn 0 0 -1
vn 0 0 -1
vn 0 0 -1
vn 0 0 -1
vn 0 0 -1
vn 0 0 -1
vn 0 0 -1
vn 0 1 0
vn 0 1 0
vn 0 1 0
vn 0 1 0
vn 1 0 0
vn 1 0 0
vn 1 0 0
vn 1 0 0
vn -1 0 0
vn -1 0 0
vn -1 0 0
vn -1 0 0
vn 0 -1 0
vn 0 -1 0
vn 0 -1 0
vn 0 -1 0
g Combined Mesh (root: scene) 25_0
f 3/3/3 2/2/2 1/1/1
f 3/3/3 4/4/4 2/2/2
g Combined Mesh (root: scene) 25_1
f 7/7/7 6/6/6 5/5/5
f 7/7/7 8/8/8 6/6/6
f 11/11/11 10/10/10 9/9/9
f 11/11/11 12/12/12 10/10/10
f 15/15/15 14/14/14 13/13/13
f 15/15/15 16/16/16 14/14/14
f 19/19/19 18/18/18 17/17/17
f 19/19/19 20/20/20 18/18/18
g Combined Mesh (root: scene) 25_2
f 23/23/23 22/22/22 21/21/21
f 23/23/23 24/24/24 22/22/22
g Combined Mesh (root: scene) 25_3
f 27/27/27 26/26/26 25/25/25
f 27/27/27 28/28/28 26/26/26
f 31/31/31 30/30/30 29/29/29
f 31/31/31 32/32/32 30/30/30
f 35/35/35 34/34/34 33/33/33
f 35/35/35 36/36/36 34/34/34
f 39/39/39 38/38/38 37/37/37
f 39/39/39 40/40/40 38/38/38
g Combined Mesh (root: scene) 25_4
f 43/43/43 42/42/42 41/41/41
f 43/43/43 44/44/44 42/42/42
g Combined Mesh (root: scene) 25_5
f 47/47/47 46/46/46 45/45/45
f 47/47/47 48/48/48 46/46/46
f 51/51/51 50/50/50 49/49/49
f 51/51/51 52/52/52 50/50/50
f 55/55/55 54/54/54 53/53/53
f 55/55/55 56/56/56 54/54/54
f 59/59/59 58/58/58 57/57/57
f 59/59/59 60/60/60 58/58/58
g Combined Mesh (root: scene) 25_6
f 63/63/63 62/62/62 61/61/61
f 63/63/63 64/64/64 62/62/62
g Combined Mesh (root: scene) 25_7
f 67/67/67 66/66/66 65/65/65
f 67/67/67 68/68/68 66/66/66
f 71/71/71 70/70/70 69/69/69
f 71/71/71 72/72/72 70/70/70
f 75/75/75 74/74/74 73/73/73
f 75/75/75 76/76/76 74/74/74
f 79/79/79 78/78/78 77/77/77
f 79/79/79 80/80/80 78/78/78
f 87/87/87 86/86/86 85/85/85
f 87/87/87 88/88/88 86/86/86
g Combined Mesh (root: scene) 25_8
f 83/83/83 82/82/82 81/81/81
f 83/83/83 84/84/84 82/82/82
g Combined Mesh (root: scene) 25_9
f 91/91/91 90/90/90 89/89/89
f 91/91/91 92/92/92 90/90/90
f 95/95/95 94/94/94 93/93/93
f 95/95/95 96/96/96 94/94/94
f 99/99/99 98/98/98 97/97/97
f 99/99/99 100/100/100 98/98/98
f 103/103/103 102/102/102 101/101/101
f 103/103/103 104/104/104 102/102/102
g Combined Mesh (root: scene) 25_10
f 107/107/107 106/106/106 105/105/105
f 107/107/107 108/108/108 106/106/106
g Combined Mesh (root: scene) 25_11
f 111/111/111 110/110/110 109/109/109
f 111/111/111 112/112/112 110/110/110
f 115/115/115 114/114/114 113/113/113
f 115/115/115 116/116/116 114/114/114
f 119/119/119 118/118/118 117/117/117
f 119/119/119 120/120/120 118/118/118
f 123/123/123 122/122/122 121/121/121
f 123/123/123 124/124/124 122/122/122
f 131/131/131 130/130/130 129/129/129
f 131/131/131 132/132/132 130/130/130
g Combined Mesh (root: scene) 25_12
f 127/127/127 126/126/126 125/125/125
f 127/127/127 128/128/128 126/126/126
g Combined Mesh (root: scene) 25_13
f 135/135/135 134/134/134 133/133/133
f 135/135/135 136/136/136 134/134/134
f 139/139/139 138/138/138 137/137/137
f 139/139/139 140/140/140 138/138/138
f 144/144/144 142/142/142 141/141/141
f 144/144/144 143/143/143 142/142/142
f 152/152/152 149/149/149 150/150/150
f 152/152/152 151/151/151 149/149/149
f 156/156/156 153/153/153 154/154/154
f 156/156/156 155/155/155 153/153/153
f 160/160/160 158/158/158 157/157/157
f 160/160/160 159/159/159 158/158/158
f 164/164/164 162/162/162 161/161/161
f 164/164/164 161/161/161 163/163/163
f 176/176/176 174/174/174 173/173/173
f 176/176/176 175/175/175 174/174/174
f 180/180/180 178/178/178 177/177/177
f 180/180/180 179/179/179 178/178/178
f 184/184/184 182/182/182 181/181/181
f 184/184/184 181/181/181 183/183/183
f 187/187/187 186/186/186 185/185/185
f 187/187/187 188/188/188 186/186/186
f 195/195/195 194/194/194 193/193/193
f 195/195/195 196/196/196 194/194/194
f 199/199/199 198/198/198 197/197/197
f 199/199/199 200/200/200 198/198/198
f 203/203/203 202/202/202 201/201/201
f 203/203/203 204/204/204 202/202/202
f 211/211/211 210/210/210 209/209/209
f 211/211/211 212/212/212 210/210/210
f 215/215/215 214/214/214 213/213/213
f 215/215/215 216/216/216 214/214/214
f 219/219/219 218/218/218 217/217/217
f 219/219/219 220/220/220 218/218/218
f 223/223/223 222/222/222 221/221/221
f 223/223/223 224/224/224 222/222/222
f 227/227/227 226/226/226 225/225/225
f 227/227/227 228/228/228 226/226/226
f 231/231/231 230/230/230 229/229/229
f 231/231/231 232/232/232 230/230/230
f 235/235/235 234/234/234 233/233/233
f 235/235/235 236/236/236 234/234/234
f 239/239/239 238/238/238 237/237/237
f 239/239/239 240/240/240 238/238/238
g Combined Mesh (root: scene) 25_14
f 148/148/148 146/146/146 145/145/145
f 148/148/148 145/145/145 147/147/147
f 168/168/168 166/166/166 165/165/165
f 168/168/168 167/167/167 166/166/166
f 172/172/172 169/169/169 170/170/170
f 172/172/172 170/170/170 171/171/171
f 191/191/191 190/190/190 189/189/189
f 191/191/191 192/192/192 190/190/190
f 207/207/207 206/206/206 205/205/205
f 207/207/207 208/208/208 206/206/206
g Combined Mesh (root: scene) 25_15
f 243/243/243 242/242/242 241/241/241
f 243/243/243 244/244/244 242/242/242
f 247/247/247 246/246/246 245/245/245
f 247/247/247 248/248/248 246/246/246
f 251/251/251 250/250/250 249/249/249
f 251/251/251 252/252/252 250/250/250
f 255/255/255 254/254/254 253/253/253
f 255/255/255 256/256/256 254/254/254
g Combined Mesh (root: scene) 25_16
f 259/259/259 258/258/258 257/257/257
f 259/259/259 260/260/260 258/258/258
g Combined Mesh (root: scene) 25_17
f 263/263/263 262/262/262 261/261/261
f 263/263/263 264/264/264 262/262/262
f 267/267/267 266/266/266 265/265/265
f 267/267/267 268/268/268 266/266/266
f 271/271/271 270/270/270 269/269/269
f 271/271/271 272/272/272 270/270/270
f 275/275/275 274/274/274 273/273/273
f 275/275/275 276/276/276 274/274/274
g Combined Mesh (root: scene) 25_18
f 279/279/279 278/278/278 277/277/277
f 279/279/279 280/280/280 278/278/278
g Combined Mesh (root: scene) 25_19
f 283/283/283 282/282/282 281/281/281
f 283/283/283 284/284/284 282/282/282
f 287/287/287 286/286/286 285/285/285
f 287/287/287 288/288/288 286/286/286
f 291/291/291 290/290/290 289/289/289
f 291/291/291 292/292/292 290/290/290
f 295/295/295 294/294/294 293/293/293
f 295/295/295 296/296/296 294/294/294
f 303/303/303 302/302/302 301/301/301
f 303/303/303 304/304/304 302/302/302
g Combined Mesh (root: scene) 25_20
f 299/299/299 298/298/298 297/297/297
f 299/299/299 300/300/300 298/298/298
g Combined Mesh (root: scene) 25_21
f 307/307/307 306/306/306 305/305/305
f 307/307/307 308/308/308 306/306/306
f 311/311/311 310/310/310 309/309/309
f 311/311/311 312/312/312 310/310/310
f 315/315/315 314/314/314 313/313/313
f 315/315/315 316/316/316 314/314/314
f 319/319/319 318/318/318 317/317/317
f 319/319/319 320/320/320 318/318/318
g Combined Mesh (root: scene) 25_22
f 323/323/323 322/322/322 321/321/321
f 323/323/323 324/324/324 322/322/322
g Combined Mesh (root: scene) 25_23
f 327/327/327 326/326/326 325/325/325
f 327/327/327 328/328/328 326/326/326
f 331/331/331 330/330/330 329/329/329
f 331/331/331 332/332/332 330/330/330
f 335/335/335 334/334/334 333/333/333
f 335/335/335 336/336/336 334/334/334
f 339/339/339 338/338/338 337/337/337
f 339/339/339 340/340/340 338/338/338
f 347/347/347 346/346/346 345/345/345
f 347/347/347 348/348/348 346/346/346
g Combined Mesh (root: scene) 25_24
f 343/343/343 342/342/342 341/341/341
f 343/343/343 344/344/344 342/342/342
g Combined Mesh (root: scene) 25_25
f 351/351/351 350/350/350 349/349/349
f 351/351/351 352/352/352 350/350/350
f 355/355/355 354/354/354 353/353/353
f 355/355/355 356/356/356 354/354/354
f 359/359/359 358/358/358 357/357/357
f 359/359/359 360/360/360 358/358/358
f 363/363/363 362/362/362 361/361/361
f 363/363/363 364/364/364 362/362/362
g Combined Mesh (root: scene) 25_26
f 367/367/367 366/366/366 365/365/365
f 367/367/367 368/368/368 366/366/366
g Combined Mesh (root: scene) 25_27
f 371/371/371 370/370/370 369/369/369
f 371/371/371 372/372/372 370/370/370
f 375/375/375 374/374/374 373/373/373
f 375/375/375 376/376/376 374/374/374
f 379/379/379 378/378/378 377/377/377
f 379/379/379 380/380/380 378/378/378
f 383/383/383 382/382/382 381/381/381
f 383/383/383 384/384/384 382/382/382
g Combined Mesh (root: scene) 25_28
f 387/387/387 386/386/386 385/385/385
f 387/387/387 388/388/388 386/386/386
g Combined Mesh (root: scene) 25_29
f 391/391/391 390/390/390 389/389/389
f 391/391/391 392/392/392 390/390/390
f 395/395/395 394/394/394 393/393/393
f 395/395/395 396/396/396 394/394/394
f 399/399/399 398/398/398 397/397/397
f 399/399/399 400/400/400 398/398/398
f 403/403/403 402/402/402 401/401/401
f 403/403/403 404/404/404 402/402/402
g Combined Mesh (root: scene) 25_30
f 407/407/407 406/406/406 405/405/405
f 407/407/407 408/408/408 406/406/406
g Combined Mesh (root: scene) 25_31
f 411/411/411 410/410/410 409/409/409
f 411/411/411 412/412/412 410/410/410
f 415/415/415 414/414/414 413/413/413
f 415/415/415 416/416/416 414/414/414
f 419/419/419 418/418/418 417/417/417
f 419/419/419 420/420/420 418/418/418
f 427/427/427 426/426/426 425/425/425
f 427/427/427 428/428/428 426/426/426
f 431/431/431 430/430/430 429/429/429
f 431/431/431 432/432/432 430/430/430
f 435/435/435 434/434/434 433/433/433
f 435/435/435 436/436/436 434/434/434
f 439/439/439 438/438/438 437/437/437
f 439/439/439 440/440/440 438/438/438
f 443/443/443 442/442/442 441/441/441
f 443/443/443 444/444/444 442/442/442
f 447/447/447 446/446/446 445/445/445
f 447/447/447 448/448/448 446/446/446
f 451/451/451 450/450/450 449/449/449
f 451/451/451 452/452/452 450/450/450
f 455/455/455 454/454/454 453/453/453
f 455/455/455 456/456/456 454/454/454
g Combined Mesh (root: scene) 25_32
f 423/423/423 422/422/422 421/421/421
f 423/423/423 424/424/424 422/422/422
