g Combined Mesh (root: scene) 81
v -73.99467 0.1426134 -211.9319
v -74.58939 0.1506125 -212.1218
v -73.29504 5.056226 -214.8631
v -74.58939 0.1506125 -212.1218
v -74.42533 -0.1426144 -212.648
v -73.29504 5.056226 -214.8631
v -74.42533 -0.1426144 -212.648
v -73.8306 -0.1506135 -212.4582
v -73.29504 5.056226 -214.8631
v -73.8306 -0.1506135 -212.4582
v -73.99467 0.1426134 -211.9319
v -73.29504 5.056226 -214.8631
v -73.8306 -0.1506135 -212.4582
v -74.42533 -0.1426144 -212.648
v -73.99467 0.1426134 -211.9319
v -74.58939 0.1506125 -212.1218
v -97.88914 0.1426134 -196.4972
v -98.41068 0.1506125 -196.8403
v -96.42543 5.056226 -199.1312
v -98.41068 0.1506125 -196.8403
v -98.11086 -0.1426144 -197.3028
v -96.42543 5.056226 -199.1312
v -98.11086 -0.1426144 -197.3028
v -97.58932 -0.1506135 -196.9597
v -96.42543 5.056226 -199.1312
v -97.58932 -0.1506135 -196.9597
v -97.88914 0.1426134 -196.4972
v -96.42543 5.056226 -199.1312
v -97.58932 -0.1506135 -196.9597
v -98.11086 -0.1426144 -197.3028
v -97.88914 0.1426134 -196.4972
v -98.41068 0.1506125 -196.8403
v -75.41026 0.05398015 -205.1966
v -76.00378 -0.04154751 -205.6057
v -76.11236 6.636995 -206.3111
v -76.00378 -0.04154751 -205.6057
v -75.58974 -0.05398019 -206.2034
v -76.11236 6.636995 -206.3111
v -75.58974 -0.05398019 -206.2034
v -74.99622 0.04154747 -205.7943
v -76.11236 6.636995 -206.3111
v -74.99622 0.04154747 -205.7943
v -75.41026 0.05398015 -205.1966
v -76.11236 6.636995 -206.3111
v -74.99622 0.04154747 -205.7943
v -75.58974 -0.05398019 -206.2034
v -75.41026 0.05398015 -205.1966
v -76.00378 -0.04154751 -205.6057
v -77.38914 0.1426134 -205.2972
v -77.91068 0.1506125 -205.6403
v -75.92543 5.056226 -207.9312
v -77.91068 0.1506125 -205.6403
v -77.61086 -0.1426144 -206.1028
v -75.92543 5.056226 -207.9312
v -77.61086 -0.1426144 -206.1028
v -77.08932 -0.1506135 -205.7597
v -75.92543 5.056226 -207.9312
v -77.08932 -0.1506135 -205.7597
v -77.38914 0.1426134 -205.2972
v -75.92543 5.056226 -207.9312
v -77.08932 -0.1506135 -205.7597
v -77.61086 -0.1426144 -206.1028
v -77.38914 0.1426134 -205.2972
v -77.91068 0.1506125 -205.6403
v -96.55108 0.05398015 -197.4441
v -95.83871 -0.04154752 -197.5546
v -95.27523 6.636995 -197.1167
v -95.83871 -0.04154752 -197.5546
v -95.72892 -0.05398019 -196.8359
v -95.27523 6.636995 -197.1167
v -95.72892 -0.05398019 -196.8359
v -96.44129 0.04154748 -196.7254
v -95.27523 6.636995 -197.1167
v -96.44129 0.04154748 -196.7254
v -96.55108 0.05398015 -197.4441
v -95.27523 6.636995 -197.1167
v -96.44129 0.04154748 -196.7254
v -95.72892 -0.05398019 -196.8359
v -96.55108 0.05398015 -197.4441
v -95.83871 -0.04154752 -197.5546
v -73.35697 0.05398014 -211.0705
v -73.13392 -0.04154752 -211.756
v -72.4888 6.636995 -212.0611
v -73.13392 -0.04154752 -211.756
v -72.44303 -0.05398018 -211.5295
v -72.4888 6.636995 -212.0611
v -72.44303 -0.05398018 -211.5295
v -72.66608 0.04154748 -210.844
v -72.4888 6.636995 -212.0611
v -72.66608 0.04154748 -210.844
v -73.35697 0.05398014 -211.0705
v -72.4888 6.636995 -212.0611
v -72.66608 0.04154748 -210.844
v -72.44303 -0.05398018 -211.5295
v -73.35697 0.05398014 -211.0705
v -73.13392 -0.04154752 -211.756
vt 0.2795272 -0.01682942
vt -0.2795272 -0.01682942
vt 0.02172852 5.137985
vt 0.2795262 -0.01633773
vt -0.2795281 -0.01633773
vt -0.03082943 5.137937
vt 0.2795272 -0.01349485
vt -0.2795272 -0.01349485
vt -0.02172852 5.137975
vt 0.2795281 -0.01398736
vt -0.2795262 -0.01398736
vt 0.03082943 5.13793
vt 0.2795272 -0.2795281
vt -0.2795272 -0.2795281
vt 0.2795272 0.2795262
vt -0.2795272 0.2795262
vt 0.2795272 -0.01682942
vt -0.2795272 -0.01682942
vt 0.02172852 5.137985
vt 0.2795262 -0.01633773
vt -0.2795281 -0.01633773
vt -0.03082943 5.137937
vt 0.2795272 -0.01349485
vt -0.2795272 -0.01349485
vt -0.02172852 5.137975
vt 0.2795281 -0.01398736
vt -0.2795262 -0.01398736
vt 0.03082943 5.13793
vt 0.2795272 -0.2795281
vt -0.2795272 -0.2795281
vt 0.2795272 0.2795262
vt -0.2795272 0.2795262
vt 0.2795272 -0.01682942
vt -0.2795272 -0.01682942
vt 0.02172852 5.137985
vt 0.2795262 -0.01633773
vt -0.2795281 -0.01633773
vt -0.03082943 5.137937
vt 0.2795272 -0.01349485
vt -0.2795272 -0.01349485
vt -0.02172852 5.137975
vt 0.2795281 -0.01398736
vt -0.2795262 -0.01398736
vt 0.03082943 5.13793
vt 0.2795272 -0.2795281
vt -0.2795272 -0.2795281
vt 0.2795272 0.2795262
vt -0.2795272 0.2795262
vt 0.2795272 -0.01682942
vt -0.2795272 -0.01682942
vt 0.02172852 5.137985
vt 0.2795262 -0.01633773
vt -0.2795281 -0.01633773
vt -0.03082943 5.137937
vt 0.2795272 -0.01349485
vt -0.2795272 -0.01349485
vt -0.02172852 5.137975
vt 0.2795281 -0.01398736
vt -0.2795262 -0.01398736
vt 0.03082943 5.13793
vt 0.2795272 -0.2795281
vt -0.2795272 -0.2795281
vt 0.2795272 0.2795262
vt -0.2795272 0.2795262
vt 0.2795272 -0.01682942
vt -0.2795272 -0.01682942
vt 0.02172852 5.137985
vt 0.2795262 -0.01633773
vt -0.2795281 -0.01633773
vt -0.03082943 5.137937
vt 0.2795272 -0.01349485
vt -0.2795272 -0.01349485
vt -0.02172852 5.137975
vt 0.2795281 -0.01398736
vt -0.2795262 -0.01398736
vt 0.03082943 5.13793
vt 0.2795272 -0.2795281
vt -0.2795272 -0.2795281
vt 0.2795272 0.2795262
vt -0.2795272 0.2795262
vt 0.2795272 -0.01682942
vt -0.2795272 -0.01682942
vt 0.02172852 5.137985
vt 0.2795262 -0.01633773
vt -0.2795281 -0.01633773
vt -0.03082943 5.137937
vt 0.2795272 -0.01349485
vt -0.2795272 -0.01349485
vt -0.02172852 5.137975
vt 0.2795281 -0.01398736
vt -0.2795262 -0.01398736
vt 0.03082943 5.13793
vt 0.2795272 -0.2795281
vt -0.2795272 -0.2795281
vt 0.2795272 0.2795262
vt -0.2795272 0.2795262
vn -0.2530431 0.5219484 0.814579
vn -0.2530431 0.5219484 0.814579
vn -0.2530431 0.5219484 0.814579
vn -0.9419427 0.06438518 -0.329543
vn -0.9419427 0.06438518 -0.329543
vn -0.9419427 0.06438518 -0.329543
vn 0.2698793 -0.4264874 -0.8632923
vn 0.2698793 -0.4264874 -0.8632923
vn 0.2698793 -0.4264874 -0.8632923
vn 0.9590441 0.0313769 0.2815135
vn 0.9590441 0.0313769 0.2815135
vn 0.9590441 0.0313769 0.2815135
vn -0.1536252 -0.8827585 0.4440006
vn -0.1536252 -0.8827585 0.4440006
vn -0.1536252 -0.8827585 0.4440006
vn -0.1536252 -0.8827585 0.4440006
vn -0.4632183 0.5219484 0.7162393
vn -0.4632183 0.5219484 0.7162393
vn -0.4632183 0.5219484 0.7162393
vn -0.8182724 0.06438518 -0.5712134
vn -0.8182724 0.06438518 -0.5712134
vn -0.8182724 0.06438518 -0.5712134
vn 0.4925603 -0.4264874 -0.7586124
vn 0.4925603 -0.4264874 -0.7586124
vn 0.4925603 -0.4264874 -0.7586124
vn 0.8476855 0.03137689 0.5295703
vn 0.8476855 0.03137689 0.5295703
vn 0.8476855 0.03137689 0.5295703
vn -0.267604 -0.8827585 0.3861676
vn -0.267604 -0.8827585 0.3861676
vn -0.267604 -0.8827585 0.3861676
vn -0.267604 -0.8827585 0.3861676
vn -0.5742522 0.0767422 0.8150735
vn -0.5742522 0.0767422 0.8150735
vn -0.5742522 0.0767422 0.8150735
vn -0.8205345 -0.07320839 -0.5668895
vn -0.8205345 -0.07320839 -0.5668895
vn -0.8205345 -0.07320839 -0.5668895
vn 0.5639517 0.03077479 -0.825234
vn 0.5639517 0.03077479 -0.825234
vn 0.5639517 0.03077479 -0.825234
vn 0.8102375 0.1807994 0.5575184
vn 0.8102375 0.1807994 0.5575184
vn 0.8102375 0.1807994 0.5575184
vn 0.0983506 -0.9911866 0.08874896
vn 0.0983506 -0.9911866 0.08874896
vn 0.0983506 -0.9911866 0.08874896
vn 0.0983506 -0.9911866 0.08874896
vn -0.4632183 0.5219484 0.7162393
vn -0.4632183 0.5219484 0.7162393
vn -0.4632183 0.5219484 0.7162393
vn -0.8182724 0.06438518 -0.5712134
vn -0.8182724 0.06438518 -0.5712134
vn -0.8182724 0.06438518 -0.5712134
vn 0.4925603 -0.4264874 -0.7586124
vn 0.4925603 -0.4264874 -0.7586124
vn 0.4925603 -0.4264874 -0.7586124
vn 0.8476855 0.03137689 0.5295703
vn 0.8476855 0.03137689 0.5295703
vn 0.8476855 0.03137689 0.5295703
vn -0.267604 -0.8827585 0.3861676
vn -0.267604 -0.8827585 0.3861676
vn -0.267604 -0.8827585 0.3861676
vn -0.267604 -0.8827585 0.3861676
vn -0.1427283 0.07674218 -0.9867823
vn -0.1427283 0.07674218 -0.9867823
vn -0.1427283 0.07674218 -0.9867823
vn 0.9856917 -0.07320839 -0.15183
vn 0.9856917 -0.07320839 -0.15183
vn 0.9856917 -0.07320839 -0.15183
vn 0.1571935 0.0307748 0.9870882
vn 0.1571935 0.0307748 0.9870882
vn 0.1571935 0.0307748 0.9870882
vn -0.9717714 0.1807994 0.1515648
vn -0.9717714 0.1807994 0.1515648
vn -0.9717714 0.1807994 0.1515648
vn -0.1324376 -0.9911864 0.003084485
vn -0.1324376 -0.9911864 0.003084485
vn -0.1324376 -0.9911864 0.003084485
vn -0.1324376 -0.9911864 0.003084485
vn -0.9449266 0.07674217 -0.3181573
vn -0.9449266 0.07674217 -0.3181573
vn -0.9449266 0.07674217 -0.3181573
vn 0.3095437 -0.07320838 -0.948063
vn 0.3095437 -0.07320838 -0.948063
vn 0.3095437 -0.07320838 -0.948063
vn 0.9517303 0.03077481 0.3053884
vn 0.9517303 0.03077481 0.3053884
vn 0.9517303 0.03077481 0.3053884
vn -0.3034956 0.1807993 0.9355224
vn -0.3034956 0.1807993 0.9355224
vn -0.3034956 0.1807993 0.9355224
vn -0.05704049 -0.9911864 0.1195642
vn -0.05704049 -0.9911864 0.1195642
vn -0.05704049 -0.9911864 0.1195642
vn -0.05704049 -0.9911864 0.1195642
g Combined Mesh (root: scene) 81_0
f 3/3/3 2/2/2 1/1/1
f 6/6/6 5/5/5 4/4/4
f 9/9/9 8/8/8 7/7/7
f 12/12/12 11/11/11 10/10/10
f 15/15/15 14/14/14 13/13/13
f 15/15/15 16/16/16 14/14/14
g Combined Mesh (root: scene) 81_1
f 19/19/19 18/18/18 17/17/17
f 22/22/22 21/21/21 20/20/20
f 25/25/25 24/24/24 23/23/23
f 28/28/28 27/27/27 26/26/26
f 31/31/31 30/30/30 29/29/29
f 31/31/31 32/32/32 30/30/30
g Combined Mesh (root: scene) 81_2
f 35/35/35 34/34/34 33/33/33
f 38/38/38 37/37/37 36/36/36
f 41/41/41 40/40/40 39/39/39
f 44/44/44 43/43/43 42/42/42
f 47/47/47 46/46/46 45/45/45
f 47/47/47 48/48/48 46/46/46
g Combined Mesh (root: scene) 81_3
f 51/51/51 50/50/50 49/49/49
f 54/54/54 53/53/53 52/52/52
f 57/57/57 56/56/56 55/55/55
f 60/60/60 59/59/59 58/58/58
f 63/63/63 62/62/62 61/61/61
f 63/63/63 64/64/64 62/62/62
g Combined Mesh (root: scene) 81_4
f 67/67/67 66/66/66 65/65/65
f 70/70/70 69/69/69 68/68/68
f 73/73/73 72/72/72 71/71/71
f 76/76/76 75/75/75 74/74/74
f 79/79/79 78/78/78 77/77/77
f 79/79/79 80/80/80 78/78/78
g Combined Mesh (root: scene) 81_5
f 83/83/83 82/82/82 81/81/81
f 86/86/86 85/85/85 84/84/84
f 89/89/89 88/88/88 87/87/87
f 92/92/92 91/91/91 90/90/90
f 95/95/95 94/94/94 93/93/93
f 95/95/95 96/96/96 94/94/94
