g Combined Mesh (root: scene) 2
v 111 8.5 8.5
v 111 5 8.5
v 113 5 8.5
v 113 8.5 8.5
v 110 8.5 8.5
v 110 5 8.5
v 109 5 15
v 109 3 15
v 111 3 15
v 111 5 15
v 109 7 15
v 111 7 15
v 111 10 15
v 109 10 15
v 109 8.5 8.5
v 109 5 8.5
v 83 2.5 15
v 82 2.5 15
v 83 6.5 15
v 82 6.5 15
v 82 2.5 15
v 82 2.5 14
v 82 6.5 15
v 82 6.5 14
v 82 2.5 14
v 83 2.5 14
v 82 6.5 14
v 83 6.5 14
v 83 2.5 14
v 83 2.5 15
v 83 6.5 14
v 83 6.5 15
v 83 6.5 15
v 82 6.5 15
v 83 6.5 14
v 82 6.5 14
v 83 2.5 14
v 82 2.5 14
v 83 2.5 15
v 82 2.5 15
vt -10 12.5
vt -10 9
vt -12 9
vt -12 12.5
vt -9 12.5
vt -9 9
vt -8 9
vt -8 7
vt -10 7
vt -10 9
vt -8 11
vt -10 11
vt -10 14
vt -8 14
vt -8 12.5
vt -8 9
vt 0 0
vt -1 0
vt 0 4
vt -1 4
vt 0 0
vt -1 0
vt 0 4
vt -1 4
vt 1 0
vt 0 0
vt 1 4
vt 0 4
vt 1 0
vt 0 0
vt 1 4
vt 0 4
vt 0 0
vt 1 0
vt 0 -1
vt 1 -1
vt 0 -1
vt -1 -1
vt 0 0
vt -1 0
vn 0 0 -1
vn 0 0 -1
vn 0 0 -1
vn 0 0 -1
vn 0 0 -1
vn 0 0 -1
vn 0 0 -1
vn 0 0 -1
vn 0 0 -1
vn 0 0 -1
vn 0 0 -1
vn 0 0 -1
vn 0 0 -1
vn 0 0 -1
vn 0 0 -1
vn 0 0 -1
vn 0 0 1
vn 0 0 1
vn 0 0 1
vn 0 0 1
vn -1 0 0
vn -1 0 0
vn -1 0 0
vn -1 0 0
vn 0 0 -1
vn 0 0 -1
vn 0 0 -1
vn 0 0 -1
vn 1 0 0
vn 1 0 0
vn 1 0 0
vn 1 0 0
vn 0 1 0
vn 0 1 0
vn 0 1 0
vn 0 1 0
vn 0 -1 0
vn 0 -1 0
vn 0 -1 0
vn 0 -1 0
g Combined Mesh (root: scene) 2_0
f 3/3/3 2/2/2 1/1/1
f 4/4/4 3/3/3 1/1/1
f 2/2/2 6/6/6 5/5/5
f 1/1/1 2/2/2 5/5/5
f 9/9/9 8/8/8 7/7/7
f 10/10/10 9/9/9 7/7/7
f 10/10/10 7/7/7 11/11/11
f 12/12/12 10/10/10 11/11/11
f 11/11/11 14/14/14 13/13/13
f 12/12/12 11/11/11 13/13/13
f 16/16/16 15/15/15 5/5/5
f 16/16/16 5/5/5 6/6/6
g Combined Mesh (root: scene) 2_1
f 19/19/19 18/18/18 17/17/17
f 19/19/19 20/20/20 18/18/18
f 23/23/23 22/22/22 21/21/21
f 23/23/23 24/24/24 22/22/22
f 27/27/27 26/26/26 25/25/25
f 27/27/27 28/28/28 26/26/26
f 31/31/31 30/30/30 29/29/29
f 31/31/31 32/32/32 30/30/30
f 35/35/35 34/34/34 33/33/33
f 35/35/35 36/36/36 34/34/34
f 39/39/39 38/38/38 37/37/37
f 39/39/39 40/40/40 38/38/38
