g Combined Mesh (root: scene) 2
v -103 6.125 24
v -103 6.875 24
v -103 6.125001 24.5
v -103 6.875001 24.5
v -103 6.875 24
v -102.125 6.875 24
v -103 6.875001 24.5
v -102.5 6.875001 24.5
v -102.125 6.875 24
v -102.125 6.125 24
v -102.5 6.875001 24.5
v -102.5 6.125001 24.5
v -102.125 6.125 24
v -103 6.125 24
v -102.5 6.125001 24.5
v -103 6.125001 24.5
v -103 6.125001 24.5
v -103 6.875001 24.5
v -102.5 6.125001 24.5
v -102.5 6.875001 24.5
v -102.125 6.125 24
v -102.125 6.875 24
v -103 6.125 24
v -103 6.875 24
v -109 -5 29
v -107 -5 29
v -109 14 29
v -107 16 29
v -105.9999 -5 29
v -105.9999 -5 31
v -105.9999 16 29
v -105.9999 16 31
v -107 -5 31
v -109 -5 31
v -107 16 31
v -109 14 31
v -109 -5 31
v -109 -5 29
v -109 14 31
v -109 14 29
v -109 14 29
v -107 16 29
v -109 14 31
v -107 16 31
v -109 -5 31
v -107 -5 31
v -109 -5 29
v -107 -5 29
v -105.9999 -5 29
v -105.9999 -5 31
v -105.9999 16 29
v -105.9999 -5 29
v -105.9999 -5 31
v -105.9999 16 31
v -103 6.875 22
v -103 6.125 22
v -103 6.875002 21.5
v -103 6.125002 21.5
v -103 6.125 22
v -102.125 6.125 21.99999
v -103 6.125002 21.5
v -102.5 6.125002 21.5
v -102.125 6.125 21.99999
v -102.125 6.875 22
v -102.5 6.125002 21.5
v -102.5 6.875002 21.5
v -102.125 6.875 22
v -103 6.875 22
v -102.5 6.875002 21.5
v -103 6.875002 21.5
v -103 6.875002 21.5
v -103 6.125002 21.5
v -102.5 6.875002 21.5
v -102.5 6.125002 21.5
v -102.125 6.875 22
v -102.125 6.125 21.99999
v -103 6.875 22
v -103 6.125 22
v -109 -5 25
v -107 -5 25
v -109 14 25
v -107 16 25
v -105.9999 -5 25
v -105.9999 -5 27
v -105.9999 16 25
v -105.9999 16 27
v -107 -5 27
v -109 -5 27
v -107 16 27
v -109 14 27
v -109 -5 27
v -109 -5 25
v -109 14 27
v -109 14 25
v -109 14 25
v -107 16 25
v -109 14 27
v -107 16 27
v -109 -5 27
v -107 -5 27
v -109 -5 25
v -107 -5 25
v -105.9999 -5 25
v -105.9999 -5 27
v -105.9999 16 25
v -105.9999 -5 25
v -105.9999 -5 27
v -105.9999 16 27
vt -0.125 0
vt -0.875 0
vt -0.125 0.5
vt -0.875 0.5
vt 0 0
vt -0.875 0
vt 0 0.5
vt -0.5 0.5
vt 0.875 -0.525
vt 0.125 -0.525
vt 0.875 0.1
vt 0.125 0.1
vt 0.875 0
vt 0 0
vt 0.5 0.5
vt 0 0.5
vt 0.125 0
vt 0.875 0
vt 0.125 -0.5
vt 0.875 -0.5
vt -0.125 -0.875
vt -0.875 -0.875
vt -0.125 0
vt -0.875 0
vt 0 -19
vt -2 -19
vt 0 0
vt -2 2
vt 0 -19
vt -2 -19
vt 0 2
vt -2 2
vt 2 -19
vt 0 -19
vt 2 2
vt 0 0
vt 2 -19
vt 0 -19
vt 2 0
vt 0 0
vt 0 0
vt 2.828427 0
vt 0 -2
vt 2.828427 -2
vt 0 -2
vt -2 -2
vt 0 0
vt -2 0
vt -3.000107 0
vt -3.000107 -2
vt -3.000107 2
vt -3.000107 -19
vt 3.000107 -19
vt 3.000107 2
vt -0.125 0
vt -0.875 0
vt -0.125 0.5
vt -0.875 0.5
vt 0 0
vt -0.875 0
vt 0 0.5
vt -0.5 0.5
vt 0.875 -0.525
vt 0.125 -0.525
vt 0.875 0.1
vt 0.125 0.1
vt 0.875 0
vt 0 0
vt 0.5 0.5
vt 0 0.5
vt 0.125 0
vt 0.875 0
vt 0.125 -0.5
vt 0.875 -0.5
vt -0.125 -0.875
vt -0.875 -0.875
vt -0.125 0
vt -0.875 0
vt 0 -19
vt -2 -19
vt 0 0
vt -2 2
vt 0 -19
vt -2 -19
vt 0 2
vt -2 2
vt 2 -19
vt 0 -19
vt 2 2
vt 0 0
vt 2 -19
vt 0 -19
vt 2 0
vt 0 0
vt 0 0
vt 2.828427 0
vt 0 -2
vt 2.828427 -2
vt 0 -2
vt -2 -2
vt 0 0
vt -2 0
vt -3.000107 0
vt -3.000107 -2
vt -3.000107 2
vt -3.000107 -19
vt 3.000107 -19
vt 3.000107 2
vn -1.000001 5.960467E-08 2.145768E-06
vn -1.000001 5.960467E-08 2.145768E-06
vn -1.000001 5.960467E-08 2.145768E-06
vn -1.000001 5.960467E-08 2.145768E-06
vn 2.384187E-07 1.000001 -1.698733E-06
vn 2.384187E-07 1.000001 -1.698733E-06
vn 2.384187E-07 1.000001 -1.698733E-06
vn 2.384187E-07 1.000001 -1.698733E-06
vn 0.8000019 9.179116E-07 0.5999983
vn 0.8000019 9.179116E-07 0.5999983
vn 0.8000019 9.179116E-07 0.5999983
vn 0.8000019 9.179116E-07 0.5999983
vn -2.384187E-07 -1.000001 1.698733E-06
vn -2.384187E-07 -1.000001 1.698733E-06
vn -2.384187E-07 -1.000001 1.698733E-06
vn -2.384187E-07 -1.000001 1.698733E-06
vn 2.264977E-06 1.609325E-06 1
vn 2.264977E-06 1.609325E-06 1
vn 2.264977E-06 1.609325E-06 1
vn 2.264977E-06 1.609325E-06 1
vn -2.264977E-06 -1.609325E-06 -1
vn -2.264977E-06 -1.609325E-06 -1
vn -2.264977E-06 -1.609325E-06 -1
vn -2.264977E-06 -1.609325E-06 -1
vn 2.086162E-07 0 -1
vn 2.086162E-07 0 -1
vn 2.086162E-07 0 -1
vn 2.086162E-07 0 -1
vn 1 0 2.086162E-07
vn 1 0 2.086162E-07
vn 1 0 2.086162E-07
vn 1 0 2.086162E-07
vn -2.086162E-07 0 1
vn -2.086162E-07 0 1
vn -2.086162E-07 0 1
vn -2.086162E-07 0 1
vn -1 0 -2.086162E-07
vn -1 0 -2.086162E-07
vn -1 0 -2.086162E-07
vn -1 0 -2.086162E-07
vn -0.7071068 0.7071068 -1.475139E-07
vn -0.7071068 0.7071068 -1.475139E-07
vn -0.7071068 0.7071068 -1.475139E-07
vn -0.7071068 0.7071068 -1.475139E-07
vn 0 -1 0
vn 0 -1 0
vn 0 -1 0
vn 0 -1 0
vn 0 -1 0
vn 0 -1 0
vn 2.086162E-07 0 -1
vn 2.086162E-07 0 -1
vn -2.086162E-07 0 1
vn -2.086162E-07 0 1
vn -1 0 2.205372E-06
vn -1 0 2.205372E-06
vn -1 0 2.205372E-06
vn -1 0 2.205372E-06
vn 0 -1 -3.397465E-06
vn 0 -1 -3.397465E-06
vn 0 -1 -3.397465E-06
vn 0 -1 -3.397465E-06
vn 0.7999986 2.002716E-06 -0.6000018
vn 0.7999986 2.002716E-06 -0.6000018
vn 0.7999986 2.002716E-06 -0.6000018
vn 0.7999986 2.002716E-06 -0.6000018
vn 0 1 3.397465E-06
vn 0 1 3.397465E-06
vn 0 1 3.397465E-06
vn 0 1 3.397465E-06
vn -2.235174E-06 3.33786E-06 -1
vn -2.235174E-06 3.33786E-06 -1
vn -2.235174E-06 3.33786E-06 -1
vn -2.235174E-06 3.33786E-06 -1
vn 2.235174E-06 -3.33786E-06 1
vn 2.235174E-06 -3.33786E-06 1
vn 2.235174E-06 -3.33786E-06 1
vn 2.235174E-06 -3.33786E-06 1
vn 2.086162E-07 0 -1
vn 2.086162E-07 0 -1
vn 2.086162E-07 0 -1
vn 2.086162E-07 0 -1
vn 1 0 2.086162E-07
vn 1 0 2.086162E-07
vn 1 0 2.086162E-07
vn 1 0 2.086162E-07
vn -2.086162E-07 0 1
vn -2.086162E-07 0 1
vn -2.086162E-07 0 1
vn -2.086162E-07 0 1
vn -1 0 -2.086162E-07
vn -1 0 -2.086162E-07
vn -1 0 -2.086162E-07
vn -1 0 -2.086162E-07
vn -0.7071068 0.7071068 -1.475139E-07
vn -0.7071068 0.7071068 -1.475139E-07
vn -0.7071068 0.7071068 -1.475139E-07
vn -0.7071068 0.7071068 -1.475139E-07
vn 0 -1 0
vn 0 -1 0
vn 0 -1 0
vn 0 -1 0
vn 0 -1 0
vn 0 -1 0
vn 2.086162E-07 0 -1
vn 2.086162E-07 0 -1
vn -2.086162E-07 0 1
vn -2.086162E-07 0 1
g Combined Mesh (root: scene) 2_0
f 3/3/3 2/2/2 1/1/1
f 3/3/3 4/4/4 2/2/2
f 7/7/7 6/6/6 5/5/5
f 7/7/7 8/8/8 6/6/6
f 11/11/11 10/10/10 9/9/9
f 11/11/11 12/12/12 10/10/10
f 15/15/15 14/14/14 13/13/13
f 15/15/15 16/16/16 14/14/14
f 19/19/19 18/18/18 17/17/17
f 19/19/19 20/20/20 18/18/18
f 23/23/23 22/22/22 21/21/21
f 23/23/23 24/24/24 22/22/22
g Combined Mesh (root: scene) 2_1
f 27/27/27 26/26/26 25/25/25
f 27/27/27 28/28/28 26/26/26
f 31/31/31 30/30/30 29/29/29
f 31/31/31 32/32/32 30/30/30
f 35/35/35 34/34/34 33/33/33
f 35/35/35 36/36/36 34/34/34
f 39/39/39 38/38/38 37/37/37
f 39/39/39 40/40/40 38/38/38
f 43/43/43 42/42/42 41/41/41
f 43/43/43 44/44/44 42/42/42
f 47/47/47 46/46/46 45/45/45
f 47/47/47 48/48/48 46/46/46
f 49/49/49 46/46/46 48/48/48
f 49/49/49 50/50/50 46/46/46
f 51/51/51 26/26/26 28/28/28
f 51/51/51 52/52/52 26/26/26
f 53/53/53 35/35/35 33/33/33
f 53/53/53 54/54/54 35/35/35
g Combined Mesh (root: scene) 2_2
f 57/57/57 56/56/56 55/55/55
f 57/57/57 58/58/58 56/56/56
f 61/61/61 60/60/60 59/59/59
f 61/61/61 62/62/62 60/60/60
f 65/65/65 64/64/64 63/63/63
f 65/65/65 66/66/66 64/64/64
f 69/69/69 68/68/68 67/67/67
f 69/69/69 70/70/70 68/68/68
f 73/73/73 72/72/72 71/71/71
f 73/73/73 74/74/74 72/72/72
f 77/77/77 76/76/76 75/75/75
f 77/77/77 78/78/78 76/76/76
g Combined Mesh (root: scene) 2_3
f 81/81/81 80/80/80 79/79/79
f 81/81/81 82/82/82 80/80/80
f 85/85/85 84/84/84 83/83/83
f 85/85/85 86/86/86 84/84/84
f 89/89/89 88/88/88 87/87/87
f 89/89/89 90/90/90 88/88/88
f 93/93/93 92/92/92 91/91/91
f 93/93/93 94/94/94 92/92/92
f 97/97/97 96/96/96 95/95/95
f 97/97/97 98/98/98 96/96/96
f 101/101/101 100/100/100 99/99/99
f 101/101/101 102/102/102 100/100/100
f 103/103/103 100/100/100 102/102/102
f 103/103/103 104/104/104 100/100/100
f 105/105/105 80/80/80 82/82/82
f 105/105/105 106/106/106 80/80/80
f 107/107/107 89/89/89 87/87/87
f 107/107/107 108/108/108 89/89/89
