g crate_fragment_1
v 0.7467825 2 0.7467824
v -0.7467825 0 0.7467824
v 0.7467825 0 0.7467824
v 0.7467825 2 0.7467824
v -0.7467825 2 0.7467824
v -0.7467825 0 0.7467824
v 1 0.2532175 0.7467824
v 0.7467825 0 0.7467824
v 1 0 0.9999999
v -1 0.2532175 0.7467824
v -1 0 0.9999999
v -0.7467825 0 0.7467824
v -1 1.746783 0.7467824
v -0.7467825 2 0.7467824
v -1 2 0.9999999
v 0.7467825 2 0.7467824
v 1 1.746783 0.7467824
v 1 2 0.9999999
v 0.7467825 0.2532175 0.9999999
v 0.7467825 0.2532175 0.9175848
v 0.7467825 1.746783 0.9175848
v 0.7467825 1.746783 0.9999999
v -1 0 0.9999999
v -1 0.2532175 0.7467824
v -1 1.746783 0.7467824
v -1 2 0.9999999
v -1 2 0.9999999
v -0.7467825 2 0.7467824
v 0.7467825 2 0.7467824
v 1 2 0.9999999
v 1 2 0.9999999
v 1 1.746783 0.7467824
v 1 0.2532175 0.7467824
v 1 0 0.9999999
v 1 0 0.9999999
v 0.7467825 0 0.7467824
v -0.7467825 0 0.7467824
v -1 0 0.9999999
v 0.7467825 1.746783 0.9175848
v 0.7467825 0.2532175 0.9175848
v -0.7467825 0.2532175 0.9175848
v -0.7467825 1.746783 0.9175848
v -0.7467825 1.746783 0.9999999
v -0.7467825 1.746783 0.9175848
v -0.7467825 0.2532175 0.9175848
v -0.7467825 0.2532175 0.9999999
v -0.7467825 0.2532175 0.9999999
v -0.7467825 0.2532175 0.9175848
v 0.7467825 0.2532175 0.9175848
v 0.7467825 0.2532175 0.9999999
v 0.7467825 1.746783 0.9999999
v 0.7467825 1.746783 0.9175848
v -0.7467825 1.746783 0.9175848
v -0.7467825 1.746783 0.9999999
v -0.9732103 0.2580792 0.9736749
v -0.9732103 0.2580792 0.9059958
v 0.7419207 1.973211 0.9059957
v 0.7419207 1.973211 0.9736748
v -0.7419207 0.02678961 0.9059958
v -0.7419207 0.02678961 0.9736749
v 0.9732103 1.741921 0.9736748
v 0.9732103 1.741921 0.9059957
v -0.7419207 0.02678961 0.9736749
v -0.9732103 0.2580792 0.9736749
v 0.7419207 1.973211 0.9736748
v 0.9732103 1.741921 0.9736748
v 0.7467825 0 0.7467824
v 1 0.2532175 0.7467824
v 1 1.746783 0.7467824
v 0.7467825 2 0.7467824
v -0.7467825 2 0.7467824
v -1 0.2532175 0.7467824
v -0.7467825 0 0.7467824
v -1 1.746783 0.7467824
v 1 2 0.9999999
v 0.7467825 1.746783 0.9999999
v -0.7467825 1.746783 0.9999999
v -1 2 0.9999999
v 1 0 0.9999999
v -0.7467825 0.2532175 0.9999999
v 0.7467825 0.2532175 0.9999999
v -1 0 0.9999999
vt 0.0800264 0.7955902
vt 0.0800264 0.7887434
vt 0.07508691 0.7887434
vt 0.0800264 0.7955902
vt 0.07508691 0.7955902
vt 0.0800264 0.7887434
vt 0.08170123 0.7887434
vt 0.07508691 0.7887434
vt 0.07424949 0.7878766
vt 0.08664067 0.8007032
vt 0.08086379 0.7878766
vt 0.0800264 0.7887434
vt 0.08170123 0.8007032
vt 0.07508691 0.7955902
vt 0.07424949 0.7947233
vt 0.0800264 0.7955902
vt 0.08170123 0.7938565
vt 0.08086382 0.7947233
vt 0.09518267 0.7929896
vt 0.09545524 0.7929896
vt 0.09545524 0.7878766
vt 0.09518267 0.7878766
vt 0.08747812 0.8015701
vt 0.08664067 0.8007032
vt 0.08170123 0.8007032
vt 0.08086379 0.8015701
vt 0.07424949 0.7947233
vt 0.07508691 0.7955902
vt 0.0800264 0.7955902
vt 0.08086379 0.7947233
vt 0.08086382 0.7947233
vt 0.08170123 0.7938565
vt 0.08170123 0.7887434
vt 0.08086379 0.7878766
vt 0.07424949 0.7878766
vt 0.07508691 0.7887434
vt 0.0800264 0.7887434
vt 0.08086379 0.7878766
vt 0.04891376 0.8206647
vt 0.04891376 0.8320337
vt 0.06028278 0.8320337
vt 0.06028278 0.8206647
vt 0.0863484 0.8117961
vt 0.08662094 0.8117961
vt 0.08662094 0.8066831
vt 0.0863484 0.8066831
vt 0.08880146 0.8117961
vt 0.08907397 0.8117961
vt 0.08907397 0.8066831
vt 0.08880146 0.8066831
vt 0.09654553 0.7878766
vt 0.09627296 0.7878766
vt 0.09627296 0.7929896
vt 0.09654553 0.7929896
vt 0.08934654 0.8125546
vt 0.08957036 0.8125546
vt 0.08957036 0.8066831
vt 0.08934654 0.8066831
vt 0.09001805 0.8066831
vt 0.08979423 0.8066831
vt 0.08979423 0.8125546
vt 0.09001805 0.8125546
vt 0.09735705 0.7998363
vt 0.09843881 0.7998363
vt 0.09843881 0.7915328
vt 0.09735705 0.7915328
vt 0.07508691 0.7887434
vt 0.08170123 0.7887434
vt 0.08170123 0.7938565
vt 0.0800264 0.7955902
vt 0.07508691 0.7955902
vt 0.08664067 0.8007032
vt 0.0800264 0.7887434
vt 0.08170123 0.8007032
vt 0.08086379 0.8015701
vt 0.08002637 0.8024368
vt 0.08002637 0.80755
vt 0.08086379 0.8084167
vt 0.07424949 0.8015701
vt 0.07508691 0.8075498
vt 0.07508691 0.8024368
vt 0.07424949 0.8084167
vn 0 0 -1
vn 0 0 -1
vn 0 0 -1
vn 0 0 -1
vn 0 0 -1
vn 0 0 -1
vn 0.5773503 -0.5773503 -0.5773503
vn 0.5773503 -0.5773503 -0.5773503
vn 0.5773503 -0.5773503 -0.5773503
vn -0.5773503 -0.5773503 -0.5773503
vn -0.5773503 -0.5773503 -0.5773503
vn -0.5773503 -0.5773503 -0.5773503
vn -0.5773503 0.5773503 -0.5773503
vn -0.5773503 0.5773503 -0.5773503
vn -0.5773503 0.5773503 -0.5773503
vn 0.5773503 0.5773503 -0.5773503
vn 0.5773503 0.5773503 -0.5773503
vn 0.5773503 0.5773503 -0.5773503
vn -1 0 0
vn -1 0 0
vn -1 0 0
vn -1 0 0
vn -1 0 0
vn -1 0 0
vn -1 0 0
vn -1 0 0
vn 0 1 0
vn 0 1 0
vn 0 1 0
vn 0 1 0
vn 1 0 0
vn 1 0 0
vn 1 0 0
vn 1 0 0
vn 0 -1 0
vn 0 -1 0
vn 0 -1 0
vn 0 -1 0
vn 0 0 1
vn 0 0 1
vn 0 0 1
vn 0 0 1
vn 1 0 0
vn 1 0 0
vn 1 0 0
vn 1 0 0
vn 0 1 0
vn 0 1 0
vn 0 1 0
vn 0 1 0
vn 0 -1 0
vn 0 -1 0
vn 0 -1 0
vn 0 -1 0
vn -0.7071071 0.7071064 0
vn -0.7071071 0.7071064 0
vn -0.7071071 0.7071064 0
vn -0.7071071 0.7071064 0
vn 0.7071071 -0.7071064 0
vn 0.7071071 -0.7071064 0
vn 0.7071071 -0.7071064 0
vn 0.7071071 -0.7071064 0
vn 0 0 1
vn 0 0 1
vn 0 0 1
vn 0 0 1
vn 0 0 -1
vn 0 0 -1
vn 0 0 -1
vn 0 0 -1
vn 0 0 -1
vn 0 0 -1
vn 0 0 -1
vn 0 0 -1
vn 0 0 1
vn 0 0 1
vn 0 0 1
vn 0 0 1
vn 0 0 1
vn 0 0 1
vn 0 0 1
vn 0 0 1
g crate_fragment_1_0
f 3/3/3 2/2/2 1/1/1
f 6/6/6 5/5/5 4/4/4
f 9/9/9 8/8/8 7/7/7
f 12/12/12 11/11/11 10/10/10
f 15/15/15 14/14/14 13/13/13
f 18/18/18 17/17/17 16/16/16
f 21/21/21 20/20/20 19/19/19
f 22/22/22 21/21/21 19/19/19
f 25/25/25 24/24/24 23/23/23
f 26/26/26 25/25/25 23/23/23
f 29/29/29 28/28/28 27/27/27
f 30/30/30 29/29/29 27/27/27
f 33/33/33 32/32/32 31/31/31
f 34/34/34 33/33/33 31/31/31
f 37/37/37 36/36/36 35/35/35
f 38/38/38 37/37/37 35/35/35
f 41/41/41 40/40/40 39/39/39
f 42/42/42 41/41/41 39/39/39
f 45/45/45 44/44/44 43/43/43
f 46/46/46 45/45/45 43/43/43
f 49/49/49 48/48/48 47/47/47
f 50/50/50 49/49/49 47/47/47
f 53/53/53 52/52/52 51/51/51
f 54/54/54 53/53/53 51/51/51
f 57/57/57 56/56/56 55/55/55
f 58/58/58 57/57/57 55/55/55
f 61/61/61 60/60/60 59/59/59
f 62/62/62 61/61/61 59/59/59
f 65/65/65 64/64/64 63/63/63
f 66/66/66 65/65/65 63/63/63
f 69/69/69 68/68/68 67/67/67
f 67/67/67 70/70/70 69/69/69
f 73/73/73 72/72/72 71/71/71
f 72/72/72 74/74/74 71/71/71
f 77/77/77 76/76/76 75/75/75
f 78/78/78 77/77/77 75/75/75
f 75/75/75 76/76/76 79/79/79
f 80/80/80 77/77/77 78/78/78
f 76/76/76 81/81/81 79/79/79
f 82/82/82 80/80/80 78/78/78
f 79/79/79 81/81/81 82/82/82
f 81/81/81 80/80/80 82/82/82
