g Cube
v -0.2837842 -0.873209 0
v -0.4064189 -0.5394435 0
v -0.1530747 -0.4463578 0
v -0.03044 -0.7801232 0
v -0.2242728 -0.7482396 0.02458317
v -0.2431951 -0.3931636 0.02582429
v 0.02574703 -0.3787697 0.00818419
v 0.04300341 -0.7384098 -0.003855122
v -0.103999 -0.6746087 0.03256623
v 0.03955866 -0.3493424 0.03819332
v 0.285293 -0.4573069 0.009793027
v 0.1417354 -0.7825732 0.004165935
v 0.02797741 -0.6725288 0.04009048
v 0.2851951 -0.4270157 0.03908657
v 0.4700644 -0.6208344 0.005831491
v 0.2128467 -0.8663476 0.006835394
v 0.8017384 -0.2430794 1.862645E-09
v 0.4926922 -0.4189463 1.862645E-09
v 0.3592007 -0.1843652 1.862645E-09
v 0.6682468 -0.008498386 1.862645E-09
v 0.668682 -0.2049355 0.02458317
v 0.3215554 -0.2820082 0.02582429
v 0.2631181 -0.0190973 0.008184191
v 0.6150205 0.05708292 -0.00385512
v 0.4760928 -0.1043047 0.03256623
v 0.1316428 -0.01620722 0.03819332
v 0.1977146 0.2439393 0.009793028
v 0.5421647 0.1558418 0.004165936
v 0.5525087 0.03142454 0.04009048
v 0.268029 0.2447527 0.03908657
v 0.4287975 0.4589859 0.005831492
v 0.7132772 0.2456577 0.006835395
v -0.7159824 0.2333049 0.03256623
v -0.3695269 0.3131522 0.03819332
v -0.3088099 0.05170405 0.009793028
v -0.6552655 -0.02814329 0.004165936
v -0.7215672 0.07764304 0.04009048
v -0.370905 0.01870459 0.03908657
v -0.4153941 -0.2454225 0.005831493
v -0.7660562 -0.186484 0.006835395
v 0.1340002 0.7121409 0.03256623
v 0.1578863 0.3574066 0.03819332
v -0.1098826 0.338926 0.009793028
v -0.1337686 0.6936603 0.004165936
v -0.328658 0.3926956 0.06741163
v -0.6731288 0.4808238 0.07087348
v -0.6062337 0.7423066 0.07069296
v -0.261763 0.6541784 0.06723113
v -0.3292735 0.3928089 0.003296396
v -0.2623783 0.6542917 0.003115876
v -0.6068491 0.7424199 0.006577721
v -0.6737442 0.4809371 0.006758232
v -0.328658 0.3926956 0.06741163
v -0.261763 0.6541784 0.06723113
v -0.2623783 0.6542917 0.003115876
v -0.3292735 0.3928089 0.003296396
v -0.6731288 0.4808238 0.07087348
v -0.328658 0.3926956 0.06741163
v -0.3292735 0.3928089 0.003296396
v -0.6737442 0.4809371 0.006758232
v -0.261763 0.6541784 0.06723113
v -0.6062337 0.7423066 0.07069296
v -0.6068491 0.7424199 0.006577721
v -0.2623783 0.6542917 0.003115876
v -0.6062337 0.7423066 0.07069296
v -0.6731288 0.4808238 0.07087348
v -0.6737442 0.4809371 0.006758232
v -0.6068491 0.7424199 0.006577721
vt 0.5098696 0.01879364
vt 0.5098696 0.4843592
vt 0.9754351 0.4843592
vt 0.9754351 0.01879364
vt 0.5190545 0.05265707
vt 0.5190545 0.4936832
vt 0.9600806 0.4936832
vt 0.9600806 0.05265707
vt 0.05034503 0.03433073
vt 0.05034503 0.468822
vt 0.4848363 0.468822
vt 0.4848363 0.03433073
vt 0.05034503 0.03433073
vt 0.05034503 0.468822
vt 0.4848363 0.468822
vt 0.4848363 0.03433073
vt 0.05034503 0.03433073
vt 0.05034503 0.468822
vt 0.4848363 0.468822
vt 0.4938188 0.0326159
vt 0.03676987 0.5081566
vt 0.03676987 0.9697982
vt 0.4984115 0.9697982
vt 0.4984115 0.5081566
vt 0.05034503 0.03433073
vt 0.05034503 0.468822
vt 0.4848363 0.468822
vt 0.4848363 0.03433073
vt 0.5098696 0.01879364
vt 0.5098696 0.4843592
vt 0.9754351 0.4843592
vt 0.9754351 0.01879364
vt 0.05034503 0.03433073
vt 0.05034503 0.468822
vt 0.4848363 0.468822
vt 0.4848363 0.03433073
vt 0.03283152 0.5042182
vt 0.03283152 0.9613974
vt 0.4900106 0.9613974
vt 0.4900106 0.5042182
vt 0.5098696 0.01879364
vt 0.5098696 0.4843592
vt 0.9754351 0.4843592
vt 0.9754351 0.01879364
vt 0.5167303 0.519225
vt 0.5167303 0.9587297
vt 0.9562352 0.9587297
vt 0.9562352 0.519225
vt 0.5167303 0.519225
vt 0.9562352 0.519225
vt 0.9562352 0.9587297
vt 0.5167303 0.9587297
vt 0.5167303 0.519225
vt 0.9562352 0.519225
vt 0.9562352 0.519225
vt 0.5167303 0.519225
vt 0.5167303 0.9587297
vt 0.5167303 0.519225
vt 0.5167303 0.519225
vt 0.5167303 0.9587297
vt 0.9562352 0.519225
vt 0.9562352 0.9587297
vt 0.9562352 0.9587297
vt 0.9562352 0.519225
vt 0.9562352 0.9587297
vt 0.5167303 0.9587297
vt 0.5167303 0.9587297
vt 0.9562352 0.9587297
vn 0 0 1
vn 0 0 1
vn 0 0 1
vn 0 0 1
vn 0.08624233 -0.01414476 0.9961738
vn 0.08624233 -0.01414476 0.9961738
vn 0.08624233 -0.01414476 0.9961738
vn 0.08624233 -0.01414476 0.9961738
vn 0.08992243 -0.05688936 0.9943227
vn 0.08992243 -0.05688936 0.9943227
vn 0.08992243 -0.05688936 0.9943227
vn 0.08992243 -0.05688936 0.9943227
vn 0.08709873 -0.08719324 0.9923766
vn 0.08709873 -0.08719324 0.9923766
vn 0.08709873 -0.08719324 0.9923766
vn 0.08709873 -0.08719324 0.9923766
vn 0 0 1
vn 0 0 1
vn 0 0 1
vn 0 0 1
vn -0.0002343307 0.08739424 0.9961738
vn -0.0002343307 0.08739424 0.9961738
vn -0.0002343307 0.08739424 0.9961738
vn -0.0002343307 0.08739424 0.9961738
vn 0.04132264 0.09805548 0.9943227
vn 0.04132264 0.09805548 0.9943227
vn 0.04132264 0.09805548 0.9943227
vn 0.04132264 0.09805548 0.9943227
vn 0.0716782 0.1002551 0.9923766
vn 0.0716782 0.1002551 0.9923766
vn 0.0716782 0.1002551 0.9923766
vn 0.0716782 0.1002551 0.9923766
vn 0.008299152 -0.1060828 0.9943227
vn 0.008299152 -0.1060828 0.9943227
vn 0.008299152 -0.1060828 0.9943227
vn 0.008299152 -0.1060828 0.9943227
vn -0.01765958 -0.1219713 0.9923766
vn -0.01765958 -0.1219713 0.9923766
vn -0.01765958 -0.1219713 0.9923766
vn -0.01765958 -0.1219713 0.9923766
vn -0.1060563 0.008631472 0.9943227
vn -0.1060563 0.008631472 0.9943227
vn -0.1060563 0.008631472 0.9943227
vn -0.1060563 0.008631472 0.9943227
vn 0.009597681 -0.001765079 0.9999524
vn 0.009597681 -0.001765079 0.9999524
vn 0.009597681 -0.001765079 0.9999524
vn 0.009597681 -0.001765079 0.9999524
vn -0.009597693 0.001765055 -0.9999524
vn -0.009597693 0.001765055 -0.9999524
vn -0.009597693 0.001765055 -0.9999524
vn -0.009597693 0.001765055 -0.9999524
vn 0.9687515 -0.2478423 -0.009735932
vn 0.9687515 -0.2478423 -0.009735932
vn 0.9687515 -0.2478423 -0.009735932
vn 0.9687515 -0.2478423 -0.009735932
vn -0.2478474 -0.9687988 0.000667522
vn -0.2478474 -0.9687988 0.000667522
vn -0.2478474 -0.9687988 0.000667522
vn -0.2478474 -0.9687988 0.000667522
vn 0.2478474 0.9687988 -0.0006676987
vn 0.2478474 0.9687988 -0.0006676987
vn 0.2478474 0.9687988 -0.0006676987
vn 0.2478474 0.9687988 -0.0006676987
vn -0.9687515 0.2478424 0.009736231
vn -0.9687515 0.2478424 0.009736231
vn -0.9687515 0.2478424 0.009736231
vn -0.9687515 0.2478424 0.009736231
g Cube_0
f 3/3/3 2/2/2 1/1/1
f 4/4/4 3/3/3 1/1/1
f 7/7/7 6/6/6 5/5/5
f 8/8/8 7/7/7 5/5/5
f 11/11/11 10/10/10 9/9/9
f 12/12/12 11/11/11 9/9/9
f 15/15/15 14/14/14 13/13/13
f 16/16/16 15/15/15 13/13/13
f 19/19/19 18/18/18 17/17/17
f 20/20/20 19/19/19 17/17/17
f 23/23/23 22/22/22 21/21/21
f 24/24/24 23/23/23 21/21/21
f 27/27/27 26/26/26 25/25/25
f 28/28/28 27/27/27 25/25/25
f 31/31/31 30/30/30 29/29/29
f 32/32/32 31/31/31 29/29/29
f 35/35/35 34/34/34 33/33/33
f 36/36/36 35/35/35 33/33/33
f 39/39/39 38/38/38 37/37/37
f 40/40/40 39/39/39 37/37/37
f 43/43/43 42/42/42 41/41/41
f 44/44/44 43/43/43 41/41/41
f 47/47/47 46/46/46 45/45/45
f 48/48/48 47/47/47 45/45/45
f 51/51/51 50/50/50 49/49/49
f 52/52/52 51/51/51 49/49/49
f 55/55/55 54/54/54 53/53/53
f 56/56/56 55/55/55 53/53/53
f 59/59/59 58/58/58 57/57/57
f 60/60/60 59/59/59 57/57/57
f 63/63/63 62/62/62 61/61/61
f 64/64/64 63/63/63 61/61/61
f 67/67/67 66/66/66 65/65/65
f 68/68/68 67/67/67 65/65/65
