g explosionfx_spikes
v 0.07566282 -0.0484927 0.05189735
v 0.003417644 -0.1037463 0.002647993
v 0.629516 -2.666686 1.937425
v -0.02800692 -0.04661937 0.08827822
v 0.07566282 -0.0484927 0.05189735
v 0.629516 -2.666686 1.937425
v 0.003417644 -0.1037463 0.002647993
v -0.02800692 -0.04661937 0.08827822
v 0.629516 -2.666686 1.937425
v 0.003417644 -0.1037463 0.002647993
v 0.07566282 -0.0484927 0.05189735
v 2.037144 -2.666684 2.072413E-08
v 0.07549504 -0.04666037 -0.05362044
v 0.003417644 -0.1037463 0.002647993
v 2.037144 -2.666684 2.072413E-08
v 0.07566282 -0.0484927 0.05189735
v 0.07549504 -0.04666037 -0.05362044
v 2.037144 -2.666684 2.072413E-08
v -0.02800692 -0.04661937 0.08827822
v 0.003417644 -0.1037463 0.002647993
v -1.298751 -2.101448 0.943596
v -0.09225161 -0.04738025 0.001976069
v -0.02800692 -0.04661937 0.08827822
v -1.298751 -2.101448 0.943596
v 0.003417644 -0.1037463 0.002647993
v -0.09225161 -0.04738025 0.001976069
v -1.298751 -2.101448 0.943596
v -0.09225161 -0.04738025 0.001976069
v 0.003417644 -0.1037463 0.002647993
v -1.040942 -1.684295 -0.7562848
v -0.02483245 -0.04602175 -0.08968747
v -0.09225161 -0.04738025 0.001976069
v -1.040942 -1.684295 -0.7562848
v 0.003417644 -0.1037463 0.002647993
v -0.02483245 -0.04602175 -0.08968747
v -1.040942 -1.684295 -0.7562848
v -0.02483245 -0.04602175 -0.08968747
v 0.003417644 -0.1037463 0.002647993
v 0.4866696 -2.061573 -1.497794
v 0.07549504 -0.04666037 -0.05362044
v -0.02483245 -0.04602175 -0.08968747
v 0.4866696 -2.061573 -1.497794
v 0.003417644 -0.1037463 0.002647993
v 0.07549504 -0.04666037 -0.05362044
v 0.4866696 -2.061573 -1.497794
v 0.07549504 -0.04666037 -0.05362044
v 0.07566282 -0.0484927 0.05189735
v 3.296174 -0.6295242 -2.739988E-08
v 0.09370425 0.04447295 0.0005950328
v 0.07549504 -0.04666037 -0.05362044
v 3.296174 -0.6295242 -2.739988E-08
v 0.07566282 -0.0484927 0.05189735
v 0.09370425 0.04447295 0.0005950328
v 3.296174 -0.6295242 -2.739988E-08
v 0.07566282 -0.0484927 0.05189735
v -0.02800692 -0.04661937 0.08827822
v 0.6999158 -0.4325768 2.154107
v 0.02615504 0.04802447 0.08817407
v 0.07566282 -0.0484927 0.05189735
v 0.6999158 -0.4325768 2.154107
v -0.02800692 -0.04661937 0.08827822
v 0.02615504 0.04802447 0.08817407
v 0.6999158 -0.4325768 2.154107
v -0.02800692 -0.04661937 0.08827822
v -0.09225161 -0.04738025 0.001976069
v -1.8954 -0.4474476 1.377077
v -0.07191893 0.0481829 0.05737276
v -0.02800692 -0.04661937 0.08827822
v -1.8954 -0.4474476 1.377077
v -0.09225161 -0.04738025 0.001976069
v -0.07191893 0.0481829 0.05737276
v -1.8954 -0.4474476 1.377077
v -0.09225161 -0.04738025 0.001976069
v -0.02483245 -0.04602175 -0.08968747
v -1.684274 -0.3976091 -1.22369
v -0.07479376 0.04734905 -0.05400096
v -0.09225161 -0.04738025 0.001976069
v -1.684274 -0.3976091 -1.22369
v -0.02483245 -0.04602175 -0.08968747
v -0.07479376 0.04734905 -0.05400096
v -1.684274 -0.3976091 -1.22369
v -0.02483245 -0.04602175 -0.08968747
v 0.07549504 -0.04666037 -0.05362044
v 1.018573 -0.6295246 -3.134818
v 0.03049815 0.04350141 -0.0891545
v -0.02483245 -0.04602175 -0.08968747
v 1.018573 -0.6295246 -3.134818
v 0.07549504 -0.04666037 -0.05362044
v 0.03049815 0.04350141 -0.0891545
v 1.018573 -0.6295246 -3.134818
v 0.09370425 0.04447295 0.0005950328
v 0.07566282 -0.0484927 0.05189735
v 2.101422 0.4960865 1.526764
v 0.02615504 0.04802447 0.08817407
v 0.09370425 0.04447295 0.0005950328
v 2.101422 0.4960865 1.526764
v 0.07566282 -0.0484927 0.05189735
v 0.02615504 0.04802447 0.08817407
v 2.101422 0.4960865 1.526764
v 0.02615504 0.04802447 0.08817407
v -0.02800692 -0.04661937 0.08827822
v -1.018567 0.6295201 3.134821
v -0.07191893 0.0481829 0.05737276
v 0.02615504 0.04802447 0.08817407
v -1.018567 0.6295201 3.134821
v -0.02800692 -0.04661937 0.08827822
v -0.07191893 0.0481829 0.05737276
v -1.018567 0.6295201 3.134821
v -0.07191893 0.0481829 0.05737276
v -0.09225161 -0.04738025 0.001976069
v -2.081885 0.3976082 -1.039844E-07
v -0.07479376 0.04734905 -0.05400096
v -0.07191893 0.0481829 0.05737276
v -2.081885 0.3976082 -1.039844E-07
v -0.09225161 -0.04738025 0.001976069
v -0.07479376 0.04734905 -0.05400096
v -2.081885 0.3976082 -1.039844E-07
v -0.07479376 0.04734905 -0.05400096
v -0.02483245 -0.04602175 -0.08968747
v -0.6999151 0.4325772 -2.154108
v 0.03049815 0.04350141 -0.0891545
v -0.07479376 0.04734905 -0.05400096
v -0.6999151 0.4325772 -2.154108
v -0.02483245 -0.04602175 -0.08968747
v 0.03049815 0.04350141 -0.0891545
v -0.6999151 0.4325772 -2.154108
v 0.03049815 0.04350141 -0.0891545
v 0.07549504 -0.04666037 -0.05362044
v 2.061548 0.4866719 -1.497793
v 0.09370425 0.04447295 0.0005950328
v 0.03049815 0.04350141 -0.0891545
v 2.061548 0.4866719 -1.497793
v 0.07549504 -0.04666037 -0.05362044
v 0.09370425 0.04447295 0.0005950328
v 2.061548 0.4866719 -1.497793
v 0.09370425 0.04447295 0.0005950328
v 0.02615504 0.04802447 0.08817407
v 1.298752 2.101449 0.9435933
v -0.000416306 0.1037282 0.003609626
v 0.09370425 0.04447295 0.0005950328
v 1.298752 2.101449 0.9435933
v 0.02615504 0.04802447 0.08817407
v -0.000416306 0.1037282 0.003609626
v 1.298752 2.101449 0.9435933
v 0.02615504 0.04802447 0.08817407
v -0.07191893 0.0481829 0.05737276
v -0.6295174 2.666686 1.937423
v -0.000416306 0.1037282 0.003609626
v 0.02615504 0.04802447 0.08817407
v -0.6295174 2.666686 1.937423
v -0.07191893 0.0481829 0.05737276
v -0.000416306 0.1037282 0.003609626
v -0.6295174 2.666686 1.937423
v -0.07191893 0.0481829 0.05737276
v -0.07479376 0.04734905 -0.05400096
v -1.574884 2.061573 -1.206639E-06
v -0.000416306 0.1037282 0.003609626
v -0.07191893 0.0481829 0.05737276
v -1.574884 2.061573 -1.206639E-06
v -0.07479376 0.04734905 -0.05400096
v -0.000416306 0.1037282 0.003609626
v -1.574884 2.061573 -1.206639E-06
v -0.07479376 0.04734905 -0.05400096
v 0.03049815 0.04350141 -0.0891545
v -0.3976097 1.684295 -1.22369
v -0.000416306 0.1037282 0.003609626
v -0.07479376 0.04734905 -0.05400096
v -0.3976097 1.684295 -1.22369
v 0.03049815 0.04350141 -0.0891545
v -0.000416306 0.1037282 0.003609626
v -0.3976097 1.684295 -1.22369
v 0.03049815 0.04350141 -0.0891545
v 0.09370425 0.04447295 0.0005950328
v 1.171423 1.895421 -0.8510849
v -0.000416306 0.1037282 0.003609626
v 0.03049815 0.04350141 -0.0891545
v 1.171423 1.895421 -0.8510849
v 0.09370425 0.04447295 0.0005950328
v -0.000416306 0.1037282 0.003609626
v 1.171423 1.895421 -0.8510849
vn 0.6889265 -0.321945 -0.6494088
vn 0.6889265 -0.321945 -0.6494088
vn 0.6889265 -0.321945 -0.6494088
vn 0.2746525 0.5995006 0.7517745
vn 0.2746525 0.5995006 0.7517745
vn 0.2746525 0.5995006 0.7517745
vn -0.9371544 -0.3249226 -0.1271498
vn -0.9371544 -0.3249226 -0.1271498
vn -0.9371544 -0.3249226 -0.1271498
vn -0.3726073 -0.2965776 0.8793211
vn -0.3726073 -0.2965776 0.8793211
vn -0.3726073 -0.2965776 0.8793211
vn -0.4093235 -0.3239227 -0.8529528
vn -0.4093235 -0.3239227 -0.8529528
vn -0.4093235 -0.3239227 -0.8529528
vn 0.8003706 0.5994359 0.009135126
vn 0.8003706 0.5994359 0.009135126
vn 0.8003706 0.5994359 0.009135126
vn 0.8151184 -0.2970757 0.497321
vn 0.8151184 -0.2970757 0.497321
vn 0.8151184 -0.2970757 0.497321
vn -0.6458337 0.5973233 0.4755036
vn -0.6458337 0.5973233 0.4755036
vn -0.6458337 0.5973233 0.4755036
vn -0.1817474 -0.3195626 -0.9299718
vn -0.1817474 -0.3195626 -0.9299718
vn -0.1817474 -0.3195626 -0.9299718
vn -0.1937016 -0.317702 0.9281945
vn -0.1937016 -0.317702 0.9281945
vn -0.1937016 -0.317702 0.9281945
vn -0.651413 0.595386 -0.4702943
vn -0.651413 0.595386 -0.4702943
vn -0.651413 0.595386 -0.4702943
vn 0.8270319 -0.3268536 -0.4573674
vn 0.8270319 -0.3268536 -0.4573674
vn 0.8270319 -0.3268536 -0.4573674
vn -0.9464347 -0.3079714 0.09703025
vn -0.9464347 -0.3079714 0.09703025
vn -0.9464347 -0.3079714 0.09703025
vn 0.2748707 0.5965456 -0.7540421
vn 0.2748707 0.5965456 -0.7540421
vn 0.2748707 0.5965456 -0.7540421
vn 0.7229794 -0.2988981 0.6228649
vn 0.7229794 -0.2988981 0.6228649
vn 0.7229794 -0.2988981 0.6228649
vn -0.1777866 -0.9839256 -0.01680339
vn -0.1777866 -0.9839256 -0.01680339
vn -0.1777866 -0.9839256 -0.01680339
vn 0.1036275 0.4931442 -0.8637536
vn 0.1036275 0.4931442 -0.8637536
vn 0.1036275 0.4931442 -0.8637536
vn 0.09826628 0.4661319 0.879241
vn 0.09826628 0.4661319 0.879241
vn 0.09826628 0.4661319 0.879241
vn -0.07329132 -0.9846922 -0.1581441
vn -0.07329132 -0.9846922 -0.1581441
vn -0.07329132 -0.9846922 -0.1581441
vn 0.8519623 0.4979051 -0.1620212
vn 0.8519623 0.4979051 -0.1620212
vn 0.8519623 0.4979051 -0.1620212
vn -0.8060586 0.4616924 0.3702832
vn -0.8060586 0.4616924 0.3702832
vn -0.8060586 0.4616924 0.3702832
vn 0.1435924 -0.9847518 -0.09821042
vn 0.1435924 -0.9847518 -0.09821042
vn 0.1435924 -0.9847518 -0.09821042
vn 0.4374162 0.4553961 0.7754234
vn 0.4374162 0.4553961 0.7754234
vn 0.4374162 0.4553961 0.7754234
vn -0.5938103 0.494347 -0.6348308
vn -0.5938103 0.494347 -0.6348308
vn -0.5938103 0.494347 -0.6348308
vn 0.1455288 -0.9850261 0.09243903
vn 0.1455288 -0.9850261 0.09243903
vn 0.1455288 -0.9850261 0.09243903
vn -0.5976202 0.486661 0.63719
vn -0.5976202 0.486661 0.63719
vn -0.5976202 0.486661 0.63719
vn 0.4097055 0.508648 -0.7572441
vn 0.4097055 0.508648 -0.7572441
vn 0.4097055 0.508648 -0.7572441
vn -0.06592149 -0.9839282 0.165951
vn -0.06592149 -0.9839282 0.165951
vn -0.06592149 -0.9839282 0.165951
vn -0.7909449 0.4910244 -0.3651045
vn -0.7909449 0.4910244 -0.3651045
vn -0.7909449 0.4910244 -0.3651045
vn 0.8539255 0.4924606 0.1682075
vn 0.8539255 0.4924606 0.1682075
vn 0.8539255 0.4924606 0.1682075
vn 0.5981353 -0.4730533 -0.6468809
vn 0.5981353 -0.4730533 -0.6468809
vn 0.5981353 -0.4730533 -0.6468809
vn -0.1203872 0.9838111 -0.1327499
vn -0.1203872 0.9838111 -0.1327499
vn -0.1203872 0.9838111 -0.1327499
vn -0.418065 -0.4996046 0.7586942
vn -0.418065 -0.4996046 0.7586942
vn -0.418065 -0.4996046 0.7586942
vn 0.808118 -0.462061 0.3653012
vn 0.808118 -0.462061 0.3653012
vn 0.808118 -0.462061 0.3653012
vn 0.05468915 0.984085 -0.1690731
vn 0.05468915 0.984085 -0.1690731
vn 0.05468915 0.984085 -0.1690731
vn -0.868834 -0.4611675 -0.1801445
vn -0.868834 -0.4611675 -0.1801445
vn -0.868834 -0.4611675 -0.1801445
vn -0.1084814 -0.4811791 0.8698842
vn -0.1084814 -0.4811791 0.8698842
vn -0.1084814 -0.4811791 0.8698842
vn 0.1715925 0.9850973 -0.01180483
vn 0.1715925 0.9850973 -0.01180483
vn 0.1715925 0.9850973 -0.01180483
vn -0.1089007 -0.4907563 -0.8644645
vn -0.1089007 -0.4907563 -0.8644645
vn -0.1089007 -0.4907563 -0.8644645
vn -0.8444278 -0.5120119 0.157434
vn -0.8444278 -0.5120119 0.157434
vn -0.8444278 -0.5120119 0.157434
vn 0.08753292 0.9841134 0.1544634
vn 0.08753292 0.9841134 0.1544634
vn 0.08753292 0.9841134 0.1544634
vn 0.7907876 -0.4865429 -0.3713906
vn 0.7907876 -0.4865429 -0.3713906
vn 0.7907876 -0.4865429 -0.3713906
vn -0.4146658 -0.5052254 -0.7568353
vn -0.4146658 -0.5052254 -0.7568353
vn -0.4146658 -0.5052254 -0.7568353
vn -0.1492557 0.9842767 0.09445786
vn -0.1492557 0.9842767 0.09445786
vn -0.1492557 0.9842767 0.09445786
vn 0.5939111 -0.4956634 0.6337093
vn 0.5939111 -0.4956634 0.6337093
vn 0.5939111 -0.4956634 0.6337093
vn 0.6234734 -0.596802 0.5050825
vn 0.6234734 -0.596802 0.5050825
vn 0.6234734 -0.596802 0.5050825
vn 0.1742961 0.3241526 -0.9298097
vn 0.1742961 0.3241526 -0.9298097
vn 0.1742961 0.3241526 -0.9298097
vn -0.8252066 0.3165396 0.4677999
vn -0.8252066 0.3165396 0.4677999
vn -0.8252066 0.3165396 0.4677999
vn -0.2407276 -0.5993798 0.7634096
vn -0.2407276 -0.5993798 0.7634096
vn -0.2407276 -0.5993798 0.7634096
vn 0.947333 0.3053586 -0.09652074
vn 0.947333 0.3053586 -0.09652074
vn 0.947333 0.3053586 -0.09652074
vn -0.7118714 0.3032347 -0.6334727
vn -0.7118714 0.3032347 -0.6334727
vn -0.7118714 0.3032347 -0.6334727
vn -0.8014399 -0.5975456 0.02516198
vn -0.8014399 -0.5975456 0.02516198
vn -0.8014399 -0.5975456 0.02516198
vn 0.3971494 0.3209669 0.859798
vn 0.3971494 0.3209669 0.859798
vn 0.3971494 0.3209669 0.859798
vn 0.4101923 0.3283008 -0.8508589
vn 0.4101923 0.3283008 -0.8508589
vn 0.4101923 0.3283008 -0.8508589
vn -0.2741442 -0.594314 -0.756066
vn -0.2741442 -0.594314 -0.756066
vn -0.2741442 -0.594314 -0.756066
vn -0.7170552 0.3060641 0.6262241
vn -0.7170552 0.3060641 0.6262241
vn -0.7170552 0.3060641 0.6262241
vn 0.9416434 0.319323 0.1064914
vn 0.9416434 0.319323 0.1064914
vn 0.9416434 0.319323 0.1064914
vn 0.6600162 -0.5952081 -0.4583732
vn 0.6600162 -0.5952081 -0.4583732
vn 0.6600162 -0.5952081 -0.4583732
vn -0.8226225 0.3109478 -0.476029
vn -0.8226225 0.3109478 -0.476029
vn -0.8226225 0.3109478 -0.476029
vn 0.218599 0.2999805 0.9285613
vn 0.218599 0.2999805 0.9285613
vn 0.218599 0.2999805 0.9285613
g explosionfx_spikes_0
f 3/3/3 2/2/2 1/1/1
f 6/6/6 5/5/5 4/4/4
f 9/9/9 8/8/8 7/7/7
f 12/12/12 11/11/11 10/10/10
f 15/15/15 14/14/14 13/13/13
f 18/18/18 17/17/17 16/16/16
f 21/21/21 20/20/20 19/19/19
f 24/24/24 23/23/23 22/22/22
f 27/27/27 26/26/26 25/25/25
f 30/30/30 29/29/29 28/28/28
f 33/33/33 32/32/32 31/31/31
f 36/36/36 35/35/35 34/34/34
f 39/39/39 38/38/38 37/37/37
f 42/42/42 41/41/41 40/40/40
f 45/45/45 44/44/44 43/43/43
f 48/48/48 47/47/47 46/46/46
f 51/51/51 50/50/50 49/49/49
f 54/54/54 53/53/53 52/52/52
f 57/57/57 56/56/56 55/55/55
f 60/60/60 59/59/59 58/58/58
f 63/63/63 62/62/62 61/61/61
f 66/66/66 65/65/65 64/64/64
f 69/69/69 68/68/68 67/67/67
f 72/72/72 71/71/71 70/70/70
f 75/75/75 74/74/74 73/73/73
f 78/78/78 77/77/77 76/76/76
f 81/81/81 80/80/80 79/79/79
f 84/84/84 83/83/83 82/82/82
f 87/87/87 86/86/86 85/85/85
f 90/90/90 89/89/89 88/88/88
f 93/93/93 92/92/92 91/91/91
f 96/96/96 95/95/95 94/94/94
f 99/99/99 98/98/98 97/97/97
f 102/102/102 101/101/101 100/100/100
f 105/105/105 104/104/104 103/103/103
f 108/108/108 107/107/107 106/106/106
f 111/111/111 110/110/110 109/109/109
f 114/114/114 113/113/113 112/112/112
f 117/117/117 116/116/116 115/115/115
f 120/120/120 119/119/119 118/118/118
f 123/123/123 122/122/122 121/121/121
f 126/126/126 125/125/125 124/124/124
f 129/129/129 128/128/128 127/127/127
f 132/132/132 131/131/131 130/130/130
f 135/135/135 134/134/134 133/133/133
f 138/138/138 137/137/137 136/136/136
f 141/141/141 140/140/140 139/139/139
f 144/144/144 143/143/143 142/142/142
f 147/147/147 146/146/146 145/145/145
f 150/150/150 149/149/149 148/148/148
f 153/153/153 152/152/152 151/151/151
f 156/156/156 155/155/155 154/154/154
f 159/159/159 158/158/158 157/157/157
f 162/162/162 161/161/161 160/160/160
f 165/165/165 164/164/164 163/163/163
f 168/168/168 167/167/167 166/166/166
f 171/171/171 170/170/170 169/169/169
f 174/174/174 173/173/173 172/172/172
f 177/177/177 176/176/176 175/175/175
f 180/180/180 179/179/179 178/178/178
