g fork gyro inner
v 8.252827E-09 0.2815652 -0.1190721
v 0.2438427 0.1407827 -0.119072
v 0.2438427 0.1407827 0.119072
v 8.252827E-09 0.2815652 0.119072
v 0.2438427 0.1407827 -0.119072
v 0.2438426 -0.1407827 -0.119072
v 0.2438426 -0.1407827 0.119072
v 0.2438427 0.1407827 0.119072
v 0.2438426 -0.1407827 -0.119072
v -1.636239E-08 -0.2815652 -0.119072
v -1.636239E-08 -0.2815652 0.1190721
v 0.2438426 -0.1407827 0.119072
v -1.636239E-08 -0.2815652 -0.119072
v -0.2438427 -0.1407827 -0.119072
v -0.2438427 -0.1407825 0.119072
v -1.636239E-08 -0.2815652 0.1190721
v 8.252827E-09 0.2815652 0.119072
v 0.2438427 0.1407827 0.119072
v 0.2438426 -0.1407827 0.119072
v -1.636239E-08 -0.2815652 0.1190721
v -0.2438427 0.1407827 0.119072
v -0.2438427 -0.1407825 0.119072
v -0.2438427 -0.1407827 -0.119072
v -0.2438427 0.1407825 -0.119072
v -0.2438427 0.1407827 0.119072
v -0.2438427 -0.1407825 0.119072
v -0.2438427 0.1407825 -0.119072
v 8.252827E-09 0.2815652 -0.1190721
v 8.252827E-09 0.2815652 0.119072
v -0.2438427 0.1407827 0.119072
v 0.2438426 -0.1407827 -0.119072
v 0.2438427 0.1407827 -0.119072
v 8.252827E-09 0.2815652 -0.1190721
v -1.636239E-08 -0.2815652 -0.119072
v -0.2438427 0.1407825 -0.119072
v -0.2438427 -0.1407827 -0.119072
vt 0 0
vt 0 1
vt 1 1
vt 1 0
vt 0 0
vt 0 1
vt 1 1
vt 1 0
vt 0 0
vt 0 1
vt 1 1
vt 1 0
vt 0 0
vt 0 1
vt 1 1
vt 1 0
vt 0.9330127 0.75
vt 0.5 1
vt 0.06698728 0.7499999
vt 0.06698728 0.2500001
vt 0.9330127 0.25
vt 0.5 0
vt 0 0
vt 0 1
vt 1 1
vt 1 0
vt 0 0
vt 0 1
vt 1 1
vt 1 0
vt 0.9330127 0.25
vt 0.9330127 0.75
vt 0.5 1
vt 0.5 0
vt 0.06698728 0.7499999
vt 0.06698728 0.2500001
vn 0.4999997 0.8660256 0
vn 0.4999997 0.8660256 0
vn 0.4999997 0.8660256 0
vn 0.4999997 0.8660256 0
vn 1 0 0
vn 1 0 0
vn 1 0 0
vn 1 0 0
vn 0.4999996 -0.8660256 0
vn 0.4999996 -0.8660256 0
vn 0.4999996 -0.8660256 0
vn 0.4999996 -0.8660256 0
vn -0.4999999 -0.8660255 0
vn -0.4999999 -0.8660255 0
vn -0.4999999 -0.8660255 0
vn -0.4999999 -0.8660255 0
vn 0 0 1
vn 0 0 1
vn 0 0 1
vn 0 0 1
vn 0 0 1
vn 0 0 1
vn -1 0 0
vn -1 0 0
vn -1 0 0
vn -1 0 0
vn -0.4999999 0.8660255 0
vn -0.4999999 0.8660255 0
vn -0.4999999 0.8660255 0
vn -0.4999999 0.8660255 0
vn 0 0 -1
vn 0 0 -1
vn 0 0 -1
vn 0 0 -1
vn 0 0 -1
vn 0 0 -1
g fork gyro inner_0
f 3/3/3 2/2/2 1/1/1
f 4/4/4 3/3/3 1/1/1
f 7/7/7 6/6/6 5/5/5
f 8/8/8 7/7/7 5/5/5
f 11/11/11 10/10/10 9/9/9
f 12/12/12 11/11/11 9/9/9
f 15/15/15 14/14/14 13/13/13
f 16/16/16 15/15/15 13/13/13
f 19/19/19 18/18/18 17/17/17
f 17/17/17 20/20/20 19/19/19
f 17/17/17 21/21/21 20/20/20
f 21/21/21 22/22/22 20/20/20
f 25/25/25 24/24/24 23/23/23
f 26/26/26 25/25/25 23/23/23
f 29/29/29 28/28/28 27/27/27
f 30/30/30 29/29/29 27/27/27
f 33/33/33 32/32/32 31/31/31
f 31/31/31 34/34/34 33/33/33
f 34/34/34 35/35/35 33/33/33
f 34/34/34 36/36/36 35/35/35
