g fork base
v 0 0.5447209 0.3725435
v 1.135211 0.5447209 0.3725435
v 1.135211 0.5447209 1.266209
v 0 0.5447209 1.266209
v 1.135211 0.5447209 0.3725435
v 1.135211 -0.5447217 0.3725435
v 1.135211 -0.5447217 1.266209
v 1.135211 0.5447209 1.266209
v 1.507571 0.9170815 0.0001830152
v 1.507571 -0.9170823 0.0001830152
v 1.507571 -0.9170823 0.3725435
v 1.507571 0.9170815 0.3725435
v 0 0.9170815 0.0001830152
v 1.507571 0.9170815 0.0001830152
v 1.507571 0.9170815 0.3725435
v 0 0.9170815 0.3725435
v 0 0.5447209 0.3725435
v 0 0.9170815 0.3725435
v 1.507571 0.9170815 0.3725435
v 1.135211 0.5447209 0.3725435
v 1.507571 -0.9170823 0.3725435
v 1.135211 -0.5447217 0.3725435
v 0 -0.9170823 0.3725435
v 0 -0.5447217 0.3725435
v 1.135211 0.1723599 0.0001830596
v 1.879932 0.1723599 0.0001830596
v 1.879932 0.17236 0.3725435
v 1.135211 0.1723598 1.117265
v 1.879932 0.1723599 0.0001830596
v 1.879932 -0.1723614 0.0001830596
v 1.879932 -0.1723613 0.3725435
v 1.879932 0.17236 0.3725435
v 1.879932 -0.1723614 0.0001830596
v 1.135211 -0.1723614 0.0001830596
v 1.135211 -0.1723614 1.117265
v 1.879932 -0.1723613 0.3725435
v 1.879932 0.17236 0.3725435
v 1.879932 -0.1723613 0.3725435
v 1.135211 -0.1723614 1.117265
v 1.135211 0.1723598 1.117265
v 0.3723607 -0.5447219 0.0001830152
v 0.3723608 -1.289443 0.0001830152
v 0.3723608 -1.289443 0.3725435
v 0.3723606 -0.5447219 1.117265
v 0 1.289442 0.000183104
v 0.3723606 1.289442 0.000183104
v 0.3723605 1.289442 0.3725435
v 0 1.289442 0.3725435
v 0.3723606 1.289442 0.000183104
v 0.3723606 0.5447206 0.000183104
v 0.3723606 0.5447206 1.117265
v 0.3723605 1.289442 0.3725435
v 0 1.289442 0.3725435
v 0.3723605 1.289442 0.3725435
v 0.3723606 0.5447206 1.117265
v 0 0.5447206 1.117265
v 1.507571 -0.9170823 0.0001830152
v 0 -0.9170823 0.0001830152
v 0 -0.9170823 0.3725435
v 1.507571 -0.9170823 0.3725435
v 1.135211 0.5447209 1.266209
v 1.135211 -0.5447217 1.266209
v 0 -0.5447217 1.266209
v 0 0.5447209 1.266209
v 1.135211 -0.5447217 0.3725435
v 0 -0.5447217 0.3725435
v 0 -0.5447217 1.266209
v 1.135211 -0.5447217 1.266209
v 0.3723608 -1.289443 0.3725435
v 0 -1.289443 0.3725435
v 0 -0.544722 1.117265
v 0.3723606 -0.5447219 1.117265
v 0.3723608 -1.289443 0.0001830152
v 0 -1.289443 0.0001830152
v 0 -1.289443 0.3725435
v 0.3723608 -1.289443 0.3725435
v 0 0.5447209 0.3725435
v 0 0.5447209 1.266209
v -1.135211 0.5447209 1.266209
v -1.135211 0.5447209 0.3725435
v -1.135211 0.5447209 0.3725435
v -1.135211 0.5447209 1.266209
v -1.135211 -0.5447217 1.266209
v -1.135211 -0.5447217 0.3725435
v -1.135211 0.5447209 0.3725435
v -1.135211 -0.5447217 0.3725435
v -1.507571 -0.9170823 0.3725435
v -1.507571 0.9170815 0.3725435
v -1.507571 0.9170815 0.0001830152
v -1.507571 0.9170815 0.3725435
v -1.507571 -0.9170823 0.3725435
v -1.507571 -0.9170823 0.0001830152
v 0 0.9170815 0.0001830152
v 0 0.9170815 0.3725435
v -1.507571 0.9170815 0.3725435
v -1.507571 0.9170815 0.0001830152
v 0 0.5447209 0.3725435
v -1.135211 0.5447209 0.3725435
v -1.507571 0.9170815 0.3725435
v 0 0.9170815 0.3725435
v -1.135211 0.1723599 0.0001830596
v -1.135211 0.1723598 1.117265
v -1.879932 0.17236 0.3725435
v -1.879932 0.1723599 0.0001830596
v -1.879932 0.1723599 0.0001830596
v -1.879932 0.17236 0.3725435
v -1.879932 -0.1723613 0.3725435
v -1.879932 -0.1723614 0.0001830596
v -1.879932 -0.1723614 0.0001830596
v -1.879932 -0.1723613 0.3725435
v -1.135211 -0.1723614 1.117265
v -1.135211 -0.1723614 0.0001830596
v -1.879932 0.17236 0.3725435
v -1.135211 0.1723598 1.117265
v -1.135211 -0.1723614 1.117265
v -1.879932 -0.1723613 0.3725435
v -0.3723607 -0.5447219 0.0001830152
v -0.3723606 -0.5447219 1.117265
v -0.3723608 -1.289443 0.3725435
v -0.3723608 -1.289443 0.0001830152
v 0 1.289442 0.000183104
v 0 1.289442 0.3725435
v -0.3723605 1.289442 0.3725435
v -0.3723606 1.289442 0.000183104
v -0.3723606 1.289442 0.000183104
v -0.3723605 1.289442 0.3725435
v -0.3723606 0.5447206 1.117265
v -0.3723606 0.5447206 0.000183104
v 0 1.289442 0.3725435
v 0 0.5447206 1.117265
v -0.3723606 0.5447206 1.117265
v -0.3723605 1.289442 0.3725435
v -1.507571 -0.9170823 0.0001830152
v -1.507571 -0.9170823 0.3725435
v 0 -0.9170823 0.3725435
v 0 -0.9170823 0.0001830152
v -1.135211 -0.5447217 0.3725435
v 0 -0.5447217 0.3725435
v 0 -0.9170823 0.3725435
v -1.507571 -0.9170823 0.3725435
v -1.135211 0.5447209 1.266209
v 0 0.5447209 1.266209
v 0 -0.5447217 1.266209
v -1.135211 -0.5447217 1.266209
v -1.135211 -0.5447217 0.3725435
v -1.135211 -0.5447217 1.266209
v 0 -0.5447217 1.266209
v 0 -0.5447217 0.3725435
v -0.3723608 -1.289443 0.3725435
v -0.3723606 -0.5447219 1.117265
v 0 -0.544722 1.117265
v 0 -1.289443 0.3725435
v -0.3723608 -1.289443 0.0001830152
v -0.3723608 -1.289443 0.3725435
v 0 -1.289443 0.3725435
v 0 -1.289443 0.0001830152
vt 0.4999999 0.5945022
vt 0.6861802 0.5945022
vt 0.6861802 0.8179186
vt 0.4999999 0.8179186
vt 0.6861802 0.5945022
vt 0.3138195 0.5945022
vt 0.3138195 0.8179186
vt 0.6861802 0.8179186
vt 0.2792704 0.501412
vt -0.2792706 0.501412
vt -0.2792706 0.5945022
vt 0.2792704 0.5945022
vt 0.9999999 0.501412
vt 1.27927 0.501412
vt 1.27927 0.5945022
vt 0.9999999 0.5945022
vt 0.4999999 0.6875465
vt 0.4999999 0.7806367
vt 0.7792704 0.7806367
vt 0.6861802 0.6875465
vt 0.7792704 0.2220957
vt 0.6861802 0.3151858
vt 0.4999999 0.2220957
vt 0.4999999 0.3151858
vt 0.6861802 0.501412
vt 0.8723606 0.501412
vt 0.8723606 0.5945022
vt 0.6861802 0.7806824
vt 0.5930899 0.501412
vt 0.4069096 0.501412
vt 0.4069096 0.5945022
vt 0.5930899 0.5945022
vt 0.3723606 0.501412
vt 0.1861803 0.501412
vt 0.1861803 0.7806824
vt 0.3723606 0.5945022
vt 0.3723606 0.5944563
vt 0.3723606 0.4082759
vt 0.1861803 0.4082759
vt 0.1861803 0.5944562
vt 0.3138195 0.501412
vt 0.1276391 0.501412
vt 0.1276391 0.5945022
vt 0.3138195 0.7806824
vt 0.4999999 0.501412
vt 0.5930901 0.501412
vt 0.5930901 0.5945022
vt 0.4999999 0.5945022
vt 0.3723604 0.501412
vt 0.1861801 0.501412
vt 0.1861801 0.7806824
vt 0.3723604 0.5945022
vt 0.4999999 0.3737267
vt 0.5930901 0.3737267
vt 0.5930901 0.1875464
vt 0.4999999 0.1875464
vt 0.2792704 0.501412
vt -5.960464E-08 0.501412
vt -5.960464E-08 0.5945022
vt 0.2792704 0.5945022
vt 0.6861802 0.6875465
vt 0.6861802 0.3151858
vt 0.4999999 0.3151858
vt 0.4999999 0.6875465
vt 0.6861802 0.5945022
vt 0.4999999 0.5945022
vt 0.4999999 0.8179186
vt 0.6861802 0.8179186
vt 0.5930902 0.6290054
vt 0.5 0.6290054
vt 0.4999999 0.8151858
vt 0.5930901 0.8151858
vt 0.5930902 0.501412
vt 0.5 0.501412
vt 0.5 0.5945022
vt 0.5930902 0.5945022
vt 0.4999999 0.5945022
vt 0.4999999 0.8179186
vt 0.6861802 0.8179186
vt 0.6861802 0.5945022
vt 0.6861802 0.5945022
vt 0.6861802 0.8179186
vt 0.3138195 0.8179186
vt 0.3138195 0.5945022
vt 0.6861802 0.6875465
vt 0.6861802 0.3151858
vt 0.7792704 0.2220957
vt 0.7792704 0.7806367
vt 0.2792704 0.501412
vt 0.2792704 0.5945022
vt -0.2792706 0.5945022
vt -0.2792706 0.501412
vt 0.9999999 0.501412
vt 0.9999999 0.5945022
vt 1.27927 0.5945022
vt 1.27927 0.501412
vt 0.4999999 0.6875465
vt 0.6861802 0.6875465
vt 0.7792704 0.7806367
vt 0.4999999 0.7806367
vt 0.6861802 0.501412
vt 0.6861802 0.7806824
vt 0.8723606 0.5945022
vt 0.8723606 0.501412
vt 0.5930899 0.501412
vt 0.5930899 0.5945022
vt 0.4069096 0.5945022
vt 0.4069096 0.501412
vt 0.3723606 0.501412
vt 0.3723606 0.5945022
vt 0.1861803 0.7806824
vt 0.1861803 0.501412
vt 0.3723606 0.5944563
vt 0.1861803 0.5944562
vt 0.1861803 0.4082759
vt 0.3723606 0.4082759
vt 0.3138195 0.501412
vt 0.3138195 0.7806824
vt 0.1276391 0.5945022
vt 0.1276391 0.501412
vt 0.4999999 0.501412
vt 0.4999999 0.5945022
vt 0.5930901 0.5945022
vt 0.5930901 0.501412
vt 0.3723604 0.501412
vt 0.3723604 0.5945022
vt 0.1861801 0.7806824
vt 0.1861801 0.501412
vt 0.4999999 0.3737267
vt 0.4999999 0.1875464
vt 0.5930901 0.1875464
vt 0.5930901 0.3737267
vt 0.2792704 0.501412
vt 0.2792704 0.5945022
vt -5.960464E-08 0.5945022
vt -5.960464E-08 0.501412
vt 0.6861802 0.3151858
vt 0.4999999 0.3151858
vt 0.4999999 0.2220957
vt 0.7792704 0.2220957
vt 0.6861802 0.6875465
vt 0.4999999 0.6875465
vt 0.4999999 0.3151858
vt 0.6861802 0.3151858
vt 0.6861802 0.5945022
vt 0.6861802 0.8179186
vt 0.4999999 0.8179186
vt 0.4999999 0.5945022
vt 0.5930902 0.6290054
vt 0.5930901 0.8151858
vt 0.4999999 0.8151858
vt 0.5 0.6290054
vt 0.5930902 0.501412
vt 0.5930902 0.5945022
vt 0.5 0.5945022
vt 0.5 0.501412
vn 0 1 0
vn 0 1 0
vn 0 1 0
vn 0 1 0
vn 1 0 0
vn 1 0 0
vn 1 0 0
vn 1 0 0
vn 1 0 0
vn 1 0 0
vn 1 0 0
vn 1 0 0
vn 0 1 0
vn 0 1 0
vn 0 1 0
vn 0 1 0
vn 0 0 1
vn 0 0 1
vn 0 0 1
vn 0 0 1
vn 0 0 1
vn 0 0 1
vn 0 0 1
vn 0 0 1
vn 0 1 0
vn 0 1 0
vn 0 1 0
vn 0 1 0
vn 1 0 0
vn 1 0 0
vn 1 0 0
vn 1 0 0
vn 0 -1 0
vn 0 -1 0
vn 0 -1 0
vn 0 -1 0
vn 0.7071068 0 0.7071068
vn 0.7071068 0 0.7071068
vn 0.7071068 0 0.7071068
vn 0.7071068 0 0.7071068
vn 1 0 0
vn 1 0 0
vn 1 0 0
vn 1 0 0
vn 0 1 0
vn 0 1 0
vn 0 1 0
vn 0 1 0
vn 1 0 0
vn 1 0 0
vn 1 0 0
vn 1 0 0
vn 0 0.7071068 0.7071067
vn 0 0.7071068 0.7071067
vn 0 0.7071068 0.7071067
vn 0 0.7071068 0.7071067
vn 0 -1 0
vn 0 -1 0
vn 0 -1 0
vn 0 -1 0
vn 0 0 1
vn 0 0 1
vn 0 0 1
vn 0 0 1
vn 0 -1 0
vn 0 -1 0
vn 0 -1 0
vn 0 -1 0
vn 0 -0.7071068 0.7071067
vn 0 -0.7071068 0.7071067
vn 0 -0.7071068 0.7071067
vn 0 -0.7071068 0.7071067
vn 0 -1 0
vn 0 -1 0
vn 0 -1 0
vn 0 -1 0
vn 0 1 0
vn 0 1 0
vn 0 1 0
vn 0 1 0
vn -1 0 0
vn -1 0 0
vn -1 0 0
vn -1 0 0
vn 0 0 1
vn 0 0 1
vn 0 0 1
vn 0 0 1
vn -1 0 0
vn -1 0 0
vn -1 0 0
vn -1 0 0
vn 0 1 0
vn 0 1 0
vn 0 1 0
vn 0 1 0
vn 0 0 1
vn 0 0 1
vn 0 0 1
vn 0 0 1
vn 0 1 0
vn 0 1 0
vn 0 1 0
vn 0 1 0
vn -1 0 0
vn -1 0 0
vn -1 0 0
vn -1 0 0
vn 0 -1 0
vn 0 -1 0
vn 0 -1 0
vn 0 -1 0
vn -0.7071068 0 0.7071068
vn -0.7071068 0 0.7071068
vn -0.7071068 0 0.7071068
vn -0.7071068 0 0.7071068
vn -1 0 0
vn -1 0 0
vn -1 0 0
vn -1 0 0
vn 0 1 0
vn 0 1 0
vn 0 1 0
vn 0 1 0
vn -1 0 0
vn -1 0 0
vn -1 0 0
vn -1 0 0
vn 0 0.7071068 0.7071067
vn 0 0.7071068 0.7071067
vn 0 0.7071068 0.7071067
vn 0 0.7071068 0.7071067
vn 0 -1 0
vn 0 -1 0
vn 0 -1 0
vn 0 -1 0
vn 0 0 1
vn 0 0 1
vn 0 0 1
vn 0 0 1
vn 0 0 1
vn 0 0 1
vn 0 0 1
vn 0 0 1
vn 0 -1 0
vn 0 -1 0
vn 0 -1 0
vn 0 -1 0
vn 0 -0.7071068 0.7071067
vn 0 -0.7071068 0.7071067
vn 0 -0.7071068 0.7071067
vn 0 -0.7071068 0.7071067
vn 0 -1 0
vn 0 -1 0
vn 0 -1 0
vn 0 -1 0
g fork base_0
f 3/3/3 2/2/2 1/1/1
f 4/4/4 3/3/3 1/1/1
f 7/7/7 6/6/6 5/5/5
f 8/8/8 7/7/7 5/5/5
f 11/11/11 10/10/10 9/9/9
f 12/12/12 11/11/11 9/9/9
f 15/15/15 14/14/14 13/13/13
f 16/16/16 15/15/15 13/13/13
f 19/19/19 18/18/18 17/17/17
f 20/20/20 19/19/19 17/17/17
f 21/21/21 19/19/19 20/20/20
f 22/22/22 21/21/21 20/20/20
f 23/23/23 21/21/21 22/22/22
f 24/24/24 23/23/23 22/22/22
f 27/27/27 26/26/26 25/25/25
f 28/28/28 27/27/27 25/25/25
f 31/31/31 30/30/30 29/29/29
f 32/32/32 31/31/31 29/29/29
f 35/35/35 34/34/34 33/33/33
f 36/36/36 35/35/35 33/33/33
f 39/39/39 38/38/38 37/37/37
f 40/40/40 39/39/39 37/37/37
f 43/43/43 42/42/42 41/41/41
f 44/44/44 43/43/43 41/41/41
f 47/47/47 46/46/46 45/45/45
f 48/48/48 47/47/47 45/45/45
f 51/51/51 50/50/50 49/49/49
f 52/52/52 51/51/51 49/49/49
f 55/55/55 54/54/54 53/53/53
f 56/56/56 55/55/55 53/53/53
f 59/59/59 58/58/58 57/57/57
f 60/60/60 59/59/59 57/57/57
f 63/63/63 62/62/62 61/61/61
f 64/64/64 63/63/63 61/61/61
f 67/67/67 66/66/66 65/65/65
f 68/68/68 67/67/67 65/65/65
f 71/71/71 70/70/70 69/69/69
f 72/72/72 71/71/71 69/69/69
f 75/75/75 74/74/74 73/73/73
f 76/76/76 75/75/75 73/73/73
f 79/79/79 78/78/78 77/77/77
f 80/80/80 79/79/79 77/77/77
f 83/83/83 82/82/82 81/81/81
f 84/84/84 83/83/83 81/81/81
f 87/87/87 86/86/86 85/85/85
f 88/88/88 87/87/87 85/85/85
f 91/91/91 90/90/90 89/89/89
f 92/92/92 91/91/91 89/89/89
f 95/95/95 94/94/94 93/93/93
f 96/96/96 95/95/95 93/93/93
f 99/99/99 98/98/98 97/97/97
f 100/100/100 99/99/99 97/97/97
f 103/103/103 102/102/102 101/101/101
f 104/104/104 103/103/103 101/101/101
f 107/107/107 106/106/106 105/105/105
f 108/108/108 107/107/107 105/105/105
f 111/111/111 110/110/110 109/109/109
f 112/112/112 111/111/111 109/109/109
f 115/115/115 114/114/114 113/113/113
f 116/116/116 115/115/115 113/113/113
f 119/119/119 118/118/118 117/117/117
f 120/120/120 119/119/119 117/117/117
f 123/123/123 122/122/122 121/121/121
f 124/124/124 123/123/123 121/121/121
f 127/127/127 126/126/126 125/125/125
f 128/128/128 127/127/127 125/125/125
f 131/131/131 130/130/130 129/129/129
f 132/132/132 131/131/131 129/129/129
f 135/135/135 134/134/134 133/133/133
f 136/136/136 135/135/135 133/133/133
f 139/139/139 138/138/138 137/137/137
f 140/140/140 139/139/139 137/137/137
f 143/143/143 142/142/142 141/141/141
f 144/144/144 143/143/143 141/141/141
f 147/147/147 146/146/146 145/145/145
f 148/148/148 147/147/147 145/145/145
f 151/151/151 150/150/150 149/149/149
f 152/152/152 151/151/151 149/149/149
f 155/155/155 154/154/154 153/153/153
f 156/156/156 155/155/155 153/153/153
