g fork glow aura ring
v 2.249872E-06 -4.291534E-06 -7.592095
v 1.176399 -4.291534E-06 -5.914155
v 1.645976E-06 -4.291534E-06 -6.030022
v 1.481145 -4.291534E-06 -7.446214
v 3.145687E-06 -4.768372E-06 -9.48059
v 2.30759 -4.291534E-06 -5.571012
v 1.849572 -4.529953E-06 -9.298421
v 4.176434E-06 -4.768372E-06 -11.50776
v 2.905369 -4.291534E-06 -7.01418
v 3.350101 -4.291534E-06 -5.013778
v 2.245053 -4.768372E-06 -11.28664
v 5.340094E-06 -4.768372E-06 -13.81573
v 4.217943 -4.291534E-06 -6.312595
v 4.26387 -4.291534E-06 -4.263868
v 3.628065 -4.529953E-06 -8.758922
v 2.695316 -4.768372E-06 -13.55026
v 7.091812E-06 -4.768372E-06 -16.94386
v 3.305585 -4.768372E-06 -16.61829
v 5.368423 -4.291534E-06 -5.368421
v 5.013781 -4.291534E-06 -3.350099
v 4.403829 -4.768372E-06 -10.63178
v 5.287051 -4.768372E-06 -12.76407
v 6.484135 -4.768372E-06 -15.65409
v 5.267134 -4.291534E-06 -7.882821
v 6.312598 -4.291534E-06 -4.21794
v 5.571015 -4.291534E-06 -2.307587
v 7.675608 -4.529953E-06 -11.48736
v 9.413505 -4.768372E-06 -14.0883
v 6.393369 -4.291534E-06 -9.56835
v 6.70379 -4.291534E-06 -6.703787
v 7.014183 -4.291534E-06 -2.905367
v 5.914158 -4.053116E-06 -1.176396
v 9.769197 -4.291534E-06 -9.769195
v 11.98112 -4.291534E-06 -11.98112
v 8.137215 -4.291534E-06 -8.137213
v 7.882823 -4.291534E-06 -5.267131
v 7.446218 -4.291534E-06 -1.481142
v 6.030024 -4.053116E-06 2.841552E-06
v 11.48736 -4.291534E-06 -7.675605
v 14.08831 -4.291534E-06 -9.413503
v 9.568353 -4.291534E-06 -6.393365
v 8.758924 -4.291534E-06 -3.628062
v 7.592098 -4.053116E-06 2.714952E-06
v 5.914158 -4.053116E-06 1.176402
v 12.76407 -4.291534E-06 -5.287048
v 15.65409 -4.291534E-06 -6.484132
v 10.63178 -4.291534E-06 -4.403826
v 9.298425 -4.291534E-06 -1.849569
v 7.446218 -3.814697E-06 1.481148
v 5.571015 -3.814697E-06 2.307593
v 13.55027 -4.291534E-06 -2.695313
v 16.61829 -4.291534E-06 -3.305581
v 11.28664 -4.291534E-06 -2.24505
v 9.480592 -4.053116E-06 2.583326E-06
v 7.014184 -3.814697E-06 2.905373
v 5.013781 -3.814697E-06 3.350105
v 13.81573 -3.814697E-06 2.322212E-06
v 16.94386 -4.053116E-06 2.125457E-06
v 11.50776 -3.814697E-06 2.47026E-06
v 9.298425 -3.814697E-06 1.849574
v 6.312598 -3.814697E-06 4.217947
v 4.26387 -3.814697E-06 4.263875
v 13.55027 -3.814697E-06 2.695318
v 16.61829 -3.814697E-06 3.305585
v 11.28664 -3.814697E-06 2.245055
v 8.758924 -3.814697E-06 3.628068
v 5.368423 -3.814697E-06 5.368427
v 3.350101 -3.814697E-06 5.013786
v 12.76407 -3.814697E-06 5.287054
v 15.65409 -3.814697E-06 6.484138
v 10.63178 -3.814697E-06 4.403832
v 7.882824 -3.814697E-06 5.267138
v 4.217942 -3.814697E-06 6.312603
v 2.307588 -3.814697E-06 5.57102
v 11.48736 -3.814697E-06 7.675612
v 14.08831 -3.814697E-06 9.413508
v 9.568353 -3.814697E-06 6.393372
v 6.70379 -3.814697E-06 6.703794
v 2.905368 -3.814697E-06 7.014188
v 1.176397 -3.814697E-06 5.914162
v 9.769197 -3.814697E-06 9.7692
v 11.98112 -3.576279E-06 11.98112
v 8.137215 -3.814697E-06 8.137218
v 5.267133 -3.814697E-06 7.882828
v 1.481142 -3.814697E-06 7.446221
v -3.02637E-06 -3.814697E-06 6.030027
v 7.675607 -3.576279E-06 11.48736
v 9.413503 -3.33786E-06 14.08831
v 6.393368 -3.814697E-06 9.568357
v 3.628063 -3.814697E-06 8.758927
v -3.520552E-06 -3.814697E-06 7.592101
v -1.176403 -3.814697E-06 5.914161
v 5.287048 -3.33786E-06 12.76408
v 6.484132 -3.33786E-06 15.65409
v 4.403827 -3.33786E-06 10.63179
v 1.849568 -3.814697E-06 9.298428
v -1.481149 -3.814697E-06 7.44622
v -2.307594 -3.814697E-06 5.571018
v 2.695311 -3.33786E-06 13.55027
v 3.305578 -3.33786E-06 16.61829
v 2.245049 -3.33786E-06 11.28664
v -4.136518E-06 -3.814697E-06 9.480594
v -2.905375 -3.814697E-06 7.014186
v -3.350106 -3.814697E-06 5.013783
v -5.583747E-06 -3.33786E-06 13.81573
v -6.668215E-06 -3.33786E-06 16.94387
v -4.832897E-06 -3.33786E-06 11.50776
v -1.849576 -3.814697E-06 9.298427
v -4.217948 -3.814697E-06 6.3126
v -4.263875 -3.814697E-06 4.263872
v -2.695322 -3.33786E-06 13.55027
v -3.305591 -3.33786E-06 16.61829
v -2.245058 -3.33786E-06 11.28664
v -3.628071 -3.814697E-06 8.758925
v -5.368429 -3.814697E-06 5.368425
v -5.013786 -3.814697E-06 3.350102
v -5.287058 -3.33786E-06 12.76407
v -6.484143 -3.33786E-06 15.65409
v -4.403835 -3.33786E-06 10.63178
v -5.26714 -3.814697E-06 7.882825
v -6.312604 -3.814697E-06 4.217943
v -5.571019 -3.814697E-06 2.30759
v -7.675616 -3.576279E-06 11.48736
v -9.413514 -3.33786E-06 14.08831
v -6.393375 -3.814697E-06 9.568353
v -6.703796 -3.814697E-06 6.703791
v -7.014188 -3.814697E-06 2.905368
v -5.914162 -4.053116E-06 1.176398
v -9.769206 -3.814697E-06 9.769195
v -11.98113 -3.33786E-06 11.98112
v -8.137222 -3.814697E-06 8.137214
v -7.88283 -3.814697E-06 5.267133
v -7.44622 -4.053116E-06 1.481142
v -6.030025 -4.053116E-06 -2.498102E-06
v -11.48737 -3.814697E-06 7.675605
v -14.08832 -3.814697E-06 9.413499
v -9.568359 -3.814697E-06 6.393366
v -8.758929 -3.814697E-06 3.628062
v -7.592099 -4.053116E-06 -4.040498E-06
v -5.914159 -4.053116E-06 -1.176402
v -12.76408 -3.814697E-06 5.287045
v -15.65409 -3.814697E-06 6.484127
v -10.63179 -3.814697E-06 4.403824
v -9.298429 -3.814697E-06 1.849567
v -7.446218 -4.053116E-06 -1.481149
v -5.571014 -4.291534E-06 -2.307593
v -13.55027 -3.814697E-06 2.695307
v -16.6183 -3.814697E-06 3.305572
v -11.28665 -3.814697E-06 2.245046
v -9.480594 -4.053116E-06 -5.920358E-06
v -7.014182 -4.291534E-06 -2.905375
v -5.013779 -4.291534E-06 -3.350105
v -13.81573 -4.053116E-06 -1.009135E-05
v -16.94386 -3.814697E-06 -1.311804E-05
v -11.50776 -4.053116E-06 -7.902491E-06
v -9.298425 -4.291534E-06 -1.849578
v -6.312595 -4.291534E-06 -4.217948
v -4.263866 -4.291534E-06 -4.263873
v -13.55026 -4.291534E-06 -2.695326
v -16.61829 -4.291534E-06 -3.305598
v -11.28664 -4.291534E-06 -2.245061
v -8.758922 -4.291534E-06 -3.628072
v -5.368418 -4.291534E-06 -5.368427
v -3.350096 -4.291534E-06 -5.013783
v -12.76407 -4.291534E-06 -5.287063
v -15.65408 -4.291534E-06 -6.484149
v -10.63178 -4.291534E-06 -4.403838
v -7.882819 -4.291534E-06 -5.26714
v -4.217936 -4.291534E-06 -6.312602
v -2.307584 -4.291534E-06 -5.571016
v -11.48735 -4.291534E-06 -7.675619
v -14.0883 -4.291534E-06 -9.413519
v -9.568347 -4.291534E-06 -6.393377
v -6.703783 -4.291534E-06 -6.703795
v -2.905362 -4.291534E-06 -7.014185
v -1.176394 -4.291534E-06 -5.914157
v -9.769185 -4.291534E-06 -9.769206
v -11.9811 -4.291534E-06 -11.98113
v -8.137206 -4.291534E-06 -8.137222
v -5.267125 -4.291534E-06 -7.882827
v -1.481138 -4.291534E-06 -7.446217
v 1.645976E-06 -4.291534E-06 -6.030022
v 2.249872E-06 -4.291534E-06 -7.592095
v -7.675594 -4.529953E-06 -11.48737
v -9.413487 -4.768372E-06 -14.08832
v -6.393357 -4.291534E-06 -9.568358
v -3.628054 -4.291534E-06 -8.758927
v -1.849563 -4.529953E-06 -9.298425
v 3.145687E-06 -4.768372E-06 -9.48059
v -4.403816 -4.768372E-06 -10.63179
v -5.287035 -4.768372E-06 -12.76408
v -6.484116 -4.768372E-06 -15.65409
v -2.245042 -4.768372E-06 -11.28664
v 4.176434E-06 -4.768372E-06 -11.50776
v -2.695303 -4.768372E-06 -13.55027
v -3.305568 -4.768372E-06 -16.61829
v 5.340094E-06 -4.768372E-06 -13.81573
v 7.091812E-06 -4.768372E-06 -16.94386
vt 0 0.4073043
vt 0.03125 0.3204141
vt 0 0.3204141
vt 0.03125 0.4073043
vt 0 0.4763901
vt 0.0625 0.3204141
vt 0.03125 0.47639
vt 0 0.5214729
vt 0.0625 0.4073043
vt 0.09375 0.3204141
vt 0.03125 0.5214729
vt 0 0.5547422
vt 0.09375 0.4073043
vt 0.125 0.3204141
vt 0.0625 0.47639
vt 0.03125 0.5547422
vt 0 0.5860341
vt 0.03125 0.586034
vt 0.125 0.4073043
vt 0.1562501 0.3204141
vt 0.0625 0.5214729
vt 0.0625 0.5547422
vt 0.0625 0.586034
vt 0.09375 0.47639
vt 0.15625 0.4073043
vt 0.1875 0.3204142
vt 0.09375 0.5547422
vt 0.09375 0.586034
vt 0.09375 0.5214729
vt 0.125 0.4763901
vt 0.1875 0.4073043
vt 0.21875 0.3204141
vt 0.125 0.5547422
vt 0.125 0.5860341
vt 0.125 0.5214729
vt 0.15625 0.4763901
vt 0.21875 0.4073043
vt 0.25 0.3204141
vt 0.15625 0.5547422
vt 0.15625 0.5860341
vt 0.15625 0.5214729
vt 0.1875 0.4763901
vt 0.25 0.4073043
vt 0.28125 0.3204141
vt 0.1875 0.5547422
vt 0.1875 0.5860341
vt 0.1875 0.5214729
vt 0.21875 0.4763901
vt 0.28125 0.4073043
vt 0.3125001 0.3204141
vt 0.21875 0.5547422
vt 0.21875 0.5860341
vt 0.21875 0.5214729
vt 0.25 0.4763901
vt 0.3125 0.4073043
vt 0.34375 0.3204141
vt 0.25 0.5547422
vt 0.25 0.586034
vt 0.25 0.5214729
vt 0.28125 0.4763901
vt 0.34375 0.4073043
vt 0.375 0.3204141
vt 0.28125 0.5547422
vt 0.28125 0.586034
vt 0.28125 0.5214729
vt 0.3125 0.4763901
vt 0.375 0.4073043
vt 0.40625 0.3204141
vt 0.3125 0.5547422
vt 0.3125 0.586034
vt 0.3125 0.5214729
vt 0.34375 0.4763901
vt 0.40625 0.4073043
vt 0.4375001 0.3204141
vt 0.34375 0.5547422
vt 0.34375 0.586034
vt 0.34375 0.5214729
vt 0.375 0.4763901
vt 0.4375001 0.4073043
vt 0.46875 0.3204141
vt 0.375 0.5547422
vt 0.375 0.586034
vt 0.375 0.5214729
vt 0.40625 0.4763901
vt 0.46875 0.4073043
vt 0.5000001 0.3204141
vt 0.40625 0.5547422
vt 0.40625 0.586034
vt 0.40625 0.5214729
vt 0.4375001 0.4763901
vt 0.5000001 0.4073043
vt 0.5312501 0.3204141
vt 0.4375001 0.5547422
vt 0.4375001 0.586034
vt 0.4375001 0.5214729
vt 0.46875 0.4763901
vt 0.5312501 0.4073043
vt 0.5625001 0.3204141
vt 0.46875 0.5547422
vt 0.4687501 0.586034
vt 0.46875 0.5214729
vt 0.5000001 0.4763901
vt 0.5625001 0.4073043
vt 0.5937501 0.3204141
vt 0.5000001 0.5547422
vt 0.5000001 0.586034
vt 0.5000001 0.5214729
vt 0.5312501 0.4763901
vt 0.5937501 0.4073043
vt 0.6250001 0.3204141
vt 0.5312501 0.5547422
vt 0.5312501 0.586034
vt 0.5312501 0.5214729
vt 0.5625001 0.4763901
vt 0.6250001 0.4073042
vt 0.6562501 0.3204141
vt 0.5625001 0.5547422
vt 0.5625001 0.586034
vt 0.5625001 0.5214729
vt 0.5937501 0.4763901
vt 0.6562501 0.4073042
vt 0.6875001 0.3204141
vt 0.5937501 0.5547422
vt 0.5937501 0.586034
vt 0.5937501 0.5214729
vt 0.6250001 0.47639
vt 0.6875001 0.4073042
vt 0.7187501 0.3204141
vt 0.6250001 0.5547421
vt 0.6250001 0.5860339
vt 0.6250001 0.5214728
vt 0.6562501 0.47639
vt 0.7187501 0.4073042
vt 0.7500002 0.3204141
vt 0.6562501 0.5547421
vt 0.6562501 0.5860339
vt 0.6562501 0.5214728
vt 0.6875001 0.47639
vt 0.7500001 0.4073042
vt 0.7812501 0.320414
vt 0.6875001 0.5547421
vt 0.6875001 0.5860339
vt 0.6875001 0.5214728
vt 0.7187501 0.47639
vt 0.7812501 0.4073042
vt 0.8125002 0.320414
vt 0.7187501 0.5547421
vt 0.7187501 0.5860339
vt 0.7187501 0.5214728
vt 0.7500001 0.47639
vt 0.8125002 0.4073042
vt 0.8437502 0.320414
vt 0.7500001 0.5547421
vt 0.7500001 0.5860339
vt 0.7500001 0.5214728
vt 0.7812501 0.47639
vt 0.8437502 0.4073042
vt 0.8750002 0.320414
vt 0.7812501 0.5547421
vt 0.7812501 0.5860339
vt 0.7812501 0.5214728
vt 0.8125002 0.47639
vt 0.8750002 0.4073042
vt 0.9062502 0.320414
vt 0.8125002 0.5547421
vt 0.8125002 0.5860339
vt 0.8125002 0.5214728
vt 0.8437502 0.47639
vt 0.9062502 0.4073042
vt 0.9375002 0.320414
vt 0.8437502 0.5547421
vt 0.8437502 0.5860339
vt 0.8437502 0.5214728
vt 0.8750002 0.47639
vt 0.9375002 0.4073043
vt 0.9687502 0.320414
vt 0.8750002 0.5547421
vt 0.8750002 0.5860339
vt 0.8750002 0.5214728
vt 0.9062502 0.47639
vt 0.9687502 0.4073042
vt 1 0.320414
vt 1 0.4073042
vt 0.9062502 0.5547421
vt 0.9062502 0.5860339
vt 0.9062502 0.5214728
vt 0.9375002 0.47639
vt 0.9687502 0.47639
vt 1 0.47639
vt 0.9375002 0.5214728
vt 0.9375002 0.5547421
vt 0.9375002 0.5860339
vt 0.9687502 0.5214728
vt 1 0.5214728
vt 0.9687502 0.5547421
vt 0.9687502 0.5860339
vt 1 0.5547421
vt 1 0.5860339
vn 0 1 0
vn 0 1 0
vn 0 1 0
vn 0 1 0
vn 0 1 0
vn 0 1 0
vn 0 1 0
vn 0 1 0
vn 0 1 0
vn 0 1 0
vn 0 1 0
vn 0 1 0
vn 0 1 0
vn 0 1 0
vn 0 1 0
vn 0 1 0
vn 0 1 0
vn 0 1 0
vn 0 1 0
vn 0 1 0
vn 0 1 0
vn 0 1 0
vn 0 1 0
vn 0 1 0
vn 0 1 0
vn 0 1 0
vn 0 1 0
vn 0 1 0
vn 0 1 0
vn 0 1 0
vn 0 1 0
vn 0 1 0
vn 0 1 0
vn 0 1 0
vn 0 1 0
vn 0 1 0
vn 0 1 0
vn 0 1 0
vn 0 1 0
vn 0 1 0
vn 0 1 0
vn 0 1 0
vn 0 1 0
vn 0 1 0
vn 0 1 0
vn 0 1 0
vn 0 1 0
vn 0 1 0
vn 0 1 0
vn 0 1 0
vn 0 1 0
vn 0 1 0
vn 0 1 0
vn 0 1 0
vn 0 1 0
vn 0 1 0
vn 0 1 0
vn 0 1 0
vn 0 1 0
vn 0 1 0
vn 0 1 0
vn 0 1 0
vn 0 1 0
vn 0 1 0
vn 0 1 0
vn 0 1 0
vn 0 1 0
vn 0 1 0
vn 0 1 0
vn 0 1 0
vn 0 1 0
vn 0 1 0
vn 0 1 0
vn 0 1 0
vn 0 1 0
vn 0 1 0
vn 0 1 0
vn 0 1 0
vn 0 1 0
vn 0 1 0
vn 0 1 0
vn 0 1 0
vn 0 1 0
vn 0 1 0
vn 0 1 0
vn 0 1 0
vn 0 1 0
vn 0 1 0
vn 0 1 0
vn 0 1 0
vn 0 1 0
vn 0 1 0
vn 0 1 0
vn 0 1 0
vn 0 1 0
vn 0 1 0
vn 0 1 0
vn 0 1 0
vn 0 1 0
vn 0 1 0
vn 0 1 0
vn 0 1 0
vn 0 1 0
vn 0 1 0
vn 0 1 0
vn 0 1 0
vn 0 1 0
vn 0 1 0
vn 0 1 0
vn 0 1 0
vn 0 1 0
vn 0 1 0
vn 0 1 0
vn 0 1 0
vn 0 1 0
vn 0 1 0
vn 0 1 0
vn 0 1 0
vn 0 1 0
vn 0 1 0
vn 0 1 0
vn 0 1 0
vn 0 1 0
vn 0 1 0
vn 0 1 0
vn 0 1 0
vn 0 1 0
vn 0 1 0
vn 0 1 0
vn 0 1 0
vn 0 1 0
vn 0 1 0
vn 0 1 0
vn 0 1 0
vn 0 1 0
vn 0 1 0
vn 0 1 0
vn 0 1 0
vn 0 1 0
vn 0 1 0
vn 0 1 0
vn 0 1 0
vn 0 1 0
vn 0 1 0
vn 0 1 0
vn 0 1 0
vn 0 1 0
vn 0 1 0
vn 0 1 0
vn 0 1 0
vn 0 1 0
vn 0 1 0
vn 0 1 0
vn 0 1 0
vn 0 1 0
vn 0 1 0
vn 0 1 0
vn 0 1 0
vn 0 1 0
vn 0 1 0
vn 0 1 0
vn 0 1 0
vn 0 1 0
vn 0 1 0
vn 0 1 0
vn 0 1 0
vn 0 1 0
vn 0 1 0
vn 0 1 0
vn 0 1 0
vn 0 1 0
vn 0 1 0
vn 0 1 0
vn 0 1 0
vn 0 1 0
vn 0 1 0
vn 0 1 0
vn 0 1 0
vn 0 1 0
vn 0 1 0
vn 0 1 0
vn 0 1 0
vn 0 1 0
vn 0 1 0
vn 0 1 0
vn 0 1 0
vn 0 1 0
vn 0 1 0
vn 0 1 0
vn 0 1 0
vn 0 1 0
vn 0 1 0
vn 0 1 0
vn 0 1 0
vn 0 1 0
vn 0 1 0
vn 0 1 0
vn 0 1 0
g fork glow aura ring_0
f 3/3/3 2/2/2 1/1/1
f 2/2/2 4/4/4 1/1/1
f 1/1/1 4/4/4 5/5/5
f 2/2/2 6/6/6 4/4/4
f 4/4/4 7/7/7 5/5/5
f 5/5/5 7/7/7 8/8/8
f 6/6/6 9/9/9 4/4/4
f 4/4/4 9/9/9 7/7/7
f 6/6/6 10/10/10 9/9/9
f 7/7/7 11/11/11 8/8/8
f 8/8/8 11/11/11 12/12/12
f 10/10/10 13/13/13 9/9/9
f 10/10/10 14/14/14 13/13/13
f 9/9/9 15/15/15 7/7/7
f 7/7/7 15/15/15 11/11/11
f 9/9/9 13/13/13 15/15/15
f 11/11/11 16/16/16 12/12/12
f 12/12/12 16/16/16 17/17/17
f 16/16/16 18/18/18 17/17/17
f 14/14/14 19/19/19 13/13/13
f 14/14/14 20/20/20 19/19/19
f 15/15/15 21/21/21 11/11/11
f 11/11/11 21/21/21 16/16/16
f 16/16/16 22/22/22 18/18/18
f 21/21/21 22/22/22 16/16/16
f 22/22/22 23/23/23 18/18/18
f 13/13/13 24/24/24 15/15/15
f 15/15/15 24/24/24 21/21/21
f 13/13/13 19/19/19 24/24/24
f 20/20/20 25/25/25 19/19/19
f 20/20/20 26/26/26 25/25/25
f 22/22/22 27/27/27 23/23/23
f 27/27/27 28/28/28 23/23/23
f 21/21/21 29/29/29 22/22/22
f 24/24/24 29/29/29 21/21/21
f 29/29/29 27/27/27 22/22/22
f 19/19/19 30/30/30 24/24/24
f 24/24/24 30/30/30 29/29/29
f 19/19/19 25/25/25 30/30/30
f 26/26/26 31/31/31 25/25/25
f 26/26/26 32/32/32 31/31/31
f 27/27/27 33/33/33 28/28/28
f 33/33/33 34/34/34 28/28/28
f 29/29/29 35/35/35 27/27/27
f 30/30/30 35/35/35 29/29/29
f 35/35/35 33/33/33 27/27/27
f 25/25/25 36/36/36 30/30/30
f 30/30/30 36/36/36 35/35/35
f 25/25/25 31/31/31 36/36/36
f 32/32/32 37/37/37 31/31/31
f 32/32/32 38/38/38 37/37/37
f 33/33/33 39/39/39 34/34/34
f 39/39/39 40/40/40 34/34/34
f 35/35/35 41/41/41 33/33/33
f 36/36/36 41/41/41 35/35/35
f 41/41/41 39/39/39 33/33/33
f 31/31/31 42/42/42 36/36/36
f 36/36/36 42/42/42 41/41/41
f 31/31/31 37/37/37 42/42/42
f 38/38/38 43/43/43 37/37/37
f 38/38/38 44/44/44 43/43/43
f 39/39/39 45/45/45 40/40/40
f 45/45/45 46/46/46 40/40/40
f 41/41/41 47/47/47 39/39/39
f 42/42/42 47/47/47 41/41/41
f 47/47/47 45/45/45 39/39/39
f 37/37/37 48/48/48 42/42/42
f 42/42/42 48/48/48 47/47/47
f 37/37/37 43/43/43 48/48/48
f 44/44/44 49/49/49 43/43/43
f 44/44/44 50/50/50 49/49/49
f 45/45/45 51/51/51 46/46/46
f 51/51/51 52/52/52 46/46/46
f 47/47/47 53/53/53 45/45/45
f 48/48/48 53/53/53 47/47/47
f 53/53/53 51/51/51 45/45/45
f 43/43/43 54/54/54 48/48/48
f 48/48/48 54/54/54 53/53/53
f 43/43/43 49/49/49 54/54/54
f 50/50/50 55/55/55 49/49/49
f 50/50/50 56/56/56 55/55/55
f 51/51/51 57/57/57 52/52/52
f 57/57/57 58/58/58 52/52/52
f 53/53/53 59/59/59 51/51/51
f 54/54/54 59/59/59 53/53/53
f 59/59/59 57/57/57 51/51/51
f 49/49/49 60/60/60 54/54/54
f 54/54/54 60/60/60 59/59/59
f 49/49/49 55/55/55 60/60/60
f 56/56/56 61/61/61 55/55/55
f 56/56/56 62/62/62 61/61/61
f 57/57/57 63/63/63 58/58/58
f 63/63/63 64/64/64 58/58/58
f 59/59/59 65/65/65 57/57/57
f 60/60/60 65/65/65 59/59/59
f 65/65/65 63/63/63 57/57/57
f 55/55/55 66/66/66 60/60/60
f 60/60/60 66/66/66 65/65/65
f 55/55/55 61/61/61 66/66/66
f 62/62/62 67/67/67 61/61/61
f 62/62/62 68/68/68 67/67/67
f 63/63/63 69/69/69 64/64/64
f 69/69/69 70/70/70 64/64/64
f 65/65/65 71/71/71 63/63/63
f 66/66/66 71/71/71 65/65/65
f 71/71/71 69/69/69 63/63/63
f 61/61/61 72/72/72 66/66/66
f 66/66/66 72/72/72 71/71/71
f 61/61/61 67/67/67 72/72/72
f 68/68/68 73/73/73 67/67/67
f 68/68/68 74/74/74 73/73/73
f 69/69/69 75/75/75 70/70/70
f 75/75/75 76/76/76 70/70/70
f 71/71/71 77/77/77 69/69/69
f 72/72/72 77/77/77 71/71/71
f 77/77/77 75/75/75 69/69/69
f 67/67/67 78/78/78 72/72/72
f 72/72/72 78/78/78 77/77/77
f 67/67/67 73/73/73 78/78/78
f 74/74/74 79/79/79 73/73/73
f 74/74/74 80/80/80 79/79/79
f 75/75/75 81/81/81 76/76/76
f 81/81/81 82/82/82 76/76/76
f 77/77/77 83/83/83 75/75/75
f 78/78/78 83/83/83 77/77/77
f 83/83/83 81/81/81 75/75/75
f 73/73/73 84/84/84 78/78/78
f 78/78/78 84/84/84 83/83/83
f 73/73/73 79/79/79 84/84/84
f 80/80/80 85/85/85 79/79/79
f 80/80/80 86/86/86 85/85/85
f 81/81/81 87/87/87 82/82/82
f 87/87/87 88/88/88 82/82/82
f 83/83/83 89/89/89 81/81/81
f 84/84/84 89/89/89 83/83/83
f 89/89/89 87/87/87 81/81/81
f 79/79/79 90/90/90 84/84/84
f 84/84/84 90/90/90 89/89/89
f 79/79/79 85/85/85 90/90/90
f 86/86/86 91/91/91 85/85/85
f 86/86/86 92/92/92 91/91/91
f 87/87/87 93/93/93 88/88/88
f 93/93/93 94/94/94 88/88/88
f 89/89/89 95/95/95 87/87/87
f 90/90/90 95/95/95 89/89/89
f 95/95/95 93/93/93 87/87/87
f 85/85/85 96/96/96 90/90/90
f 90/90/90 96/96/96 95/95/95
f 85/85/85 91/91/91 96/96/96
f 92/92/92 97/97/97 91/91/91
f 92/92/92 98/98/98 97/97/97
f 93/93/93 99/99/99 94/94/94
f 99/99/99 100/100/100 94/94/94
f 95/95/95 101/101/101 93/93/93
f 96/96/96 101/101/101 95/95/95
f 101/101/101 99/99/99 93/93/93
f 91/91/91 102/102/102 96/96/96
f 96/96/96 102/102/102 101/101/101
f 91/91/91 97/97/97 102/102/102
f 98/98/98 103/103/103 97/97/97
f 98/98/98 104/104/104 103/103/103
f 99/99/99 105/105/105 100/100/100
f 105/105/105 106/106/106 100/100/100
f 101/101/101 107/107/107 99/99/99
f 102/102/102 107/107/107 101/101/101
f 107/107/107 105/105/105 99/99/99
f 97/97/97 108/108/108 102/102/102
f 102/102/102 108/108/108 107/107/107
f 97/97/97 103/103/103 108/108/108
f 104/104/104 109/109/109 103/103/103
f 104/104/104 110/110/110 109/109/109
f 105/105/105 111/111/111 106/106/106
f 111/111/111 112/112/112 106/106/106
f 107/107/107 113/113/113 105/105/105
f 108/108/108 113/113/113 107/107/107
f 113/113/113 111/111/111 105/105/105
f 103/103/103 114/114/114 108/108/108
f 108/108/108 114/114/114 113/113/113
f 103/103/103 109/109/109 114/114/114
f 110/110/110 115/115/115 109/109/109
f 110/110/110 116/116/116 115/115/115
f 111/111/111 117/117/117 112/112/112
f 117/117/117 118/118/118 112/112/112
f 113/113/113 119/119/119 111/111/111
f 114/114/114 119/119/119 113/113/113
f 119/119/119 117/117/117 111/111/111
f 109/109/109 120/120/120 114/114/114
f 114/114/114 120/120/120 119/119/119
f 109/109/109 115/115/115 120/120/120
f 116/116/116 121/121/121 115/115/115
f 116/116/116 122/122/122 121/121/121
f 117/117/117 123/123/123 118/118/118
f 123/123/123 124/124/124 118/118/118
f 119/119/119 125/125/125 117/117/117
f 120/120/120 125/125/125 119/119/119
f 125/125/125 123/123/123 117/117/117
f 115/115/115 126/126/126 120/120/120
f 120/120/120 126/126/126 125/125/125
f 115/115/115 121/121/121 126/126/126
f 122/122/122 127/127/127 121/121/121
f 122/122/122 128/128/128 127/127/127
f 123/123/123 129/129/129 124/124/124
f 129/129/129 130/130/130 124/124/124
f 125/125/125 131/131/131 123/123/123
f 126/126/126 131/131/131 125/125/125
f 131/131/131 129/129/129 123/123/123
f 121/121/121 132/132/132 126/126/126
f 126/126/126 132/132/132 131/131/131
f 121/121/121 127/127/127 132/132/132
f 128/128/128 133/133/133 127/127/127
f 128/128/128 134/134/134 133/133/133
f 129/129/129 135/135/135 130/130/130
f 135/135/135 136/136/136 130/130/130
f 131/131/131 137/137/137 129/129/129
f 132/132/132 137/137/137 131/131/131
f 137/137/137 135/135/135 129/129/129
f 127/127/127 138/138/138 132/132/132
f 132/132/132 138/138/138 137/137/137
f 127/127/127 133/133/133 138/138/138
f 134/134/134 139/139/139 133/133/133
f 134/134/134 140/140/140 139/139/139
f 135/135/135 141/141/141 136/136/136
f 141/141/141 142/142/142 136/136/136
f 137/137/137 143/143/143 135/135/135
f 138/138/138 143/143/143 137/137/137
f 143/143/143 141/141/141 135/135/135
f 133/133/133 144/144/144 138/138/138
f 138/138/138 144/144/144 143/143/143
f 133/133/133 139/139/139 144/144/144
f 140/140/140 145/145/145 139/139/139
f 140/140/140 146/146/146 145/145/145
f 141/141/141 147/147/147 142/142/142
f 147/147/147 148/148/148 142/142/142
f 143/143/143 149/149/149 141/141/141
f 144/144/144 149/149/149 143/143/143
f 149/149/149 147/147/147 141/141/141
f 139/139/139 150/150/150 144/144/144
f 144/144/144 150/150/150 149/149/149
f 139/139/139 145/145/145 150/150/150
f 146/146/146 151/151/151 145/145/145
f 146/146/146 152/152/152 151/151/151
f 147/147/147 153/153/153 148/148/148
f 153/153/153 154/154/154 148/148/148
f 149/149/149 155/155/155 147/147/147
f 150/150/150 155/155/155 149/149/149
f 155/155/155 153/153/153 147/147/147
f 145/145/145 156/156/156 150/150/150
f 150/150/150 156/156/156 155/155/155
f 145/145/145 151/151/151 156/156/156
f 152/152/152 157/157/157 151/151/151
f 152/152/152 158/158/158 157/157/157
f 153/153/153 159/159/159 154/154/154
f 159/159/159 160/160/160 154/154/154
f 155/155/155 161/161/161 153/153/153
f 156/156/156 161/161/161 155/155/155
f 161/161/161 159/159/159 153/153/153
f 151/151/151 162/162/162 156/156/156
f 156/156/156 162/162/162 161/161/161
f 151/151/151 157/157/157 162/162/162
f 158/158/158 163/163/163 157/157/157
f 158/158/158 164/164/164 163/163/163
f 159/159/159 165/165/165 160/160/160
f 165/165/165 166/166/166 160/160/160
f 161/161/161 167/167/167 159/159/159
f 162/162/162 167/167/167 161/161/161
f 167/167/167 165/165/165 159/159/159
f 157/157/157 168/168/168 162/162/162
f 162/162/162 168/168/168 167/167/167
f 157/157/157 163/163/163 168/168/168
f 164/164/164 169/169/169 163/163/163
f 164/164/164 170/170/170 169/169/169
f 165/165/165 171/171/171 166/166/166
f 171/171/171 172/172/172 166/166/166
f 167/167/167 173/173/173 165/165/165
f 168/168/168 173/173/173 167/167/167
f 173/173/173 171/171/171 165/165/165
f 163/163/163 174/174/174 168/168/168
f 168/168/168 174/174/174 173/173/173
f 163/163/163 169/169/169 174/174/174
f 170/170/170 175/175/175 169/169/169
f 170/170/170 176/176/176 175/175/175
f 171/171/171 177/177/177 172/172/172
f 177/177/177 178/178/178 172/172/172
f 173/173/173 179/179/179 171/171/171
f 174/174/174 179/179/179 173/173/173
f 179/179/179 177/177/177 171/171/171
f 169/169/169 180/180/180 174/174/174
f 174/174/174 180/180/180 179/179/179
f 169/169/169 175/175/175 180/180/180
f 176/176/176 181/181/181 175/175/175
f 176/176/176 182/182/182 181/181/181
f 182/182/182 183/183/183 181/181/181
f 177/177/177 184/184/184 178/178/178
f 184/184/184 185/185/185 178/178/178
f 179/179/179 186/186/186 177/177/177
f 180/180/180 186/186/186 179/179/179
f 186/186/186 184/184/184 177/177/177
f 175/175/175 187/187/187 180/180/180
f 175/175/175 181/181/181 187/187/187
f 180/180/180 187/187/187 186/186/186
f 181/181/181 183/183/183 188/188/188
f 181/181/181 188/188/188 187/187/187
f 183/183/183 189/189/189 188/188/188
f 187/187/187 190/190/190 186/186/186
f 186/186/186 190/190/190 184/184/184
f 187/187/187 188/188/188 190/190/190
f 184/184/184 191/191/191 185/185/185
f 190/190/190 191/191/191 184/184/184
f 191/191/191 192/192/192 185/185/185
f 188/188/188 189/189/189 193/193/193
f 188/188/188 193/193/193 190/190/190
f 190/190/190 193/193/193 191/191/191
f 189/189/189 194/194/194 193/193/193
f 191/191/191 195/195/195 192/192/192
f 193/193/193 195/195/195 191/191/191
f 193/193/193 194/194/194 195/195/195
f 195/195/195 196/196/196 192/192/192
f 194/194/194 197/197/197 195/195/195
f 195/195/195 197/197/197 196/196/196
f 197/197/197 198/198/198 196/196/196
