g fox piggybank
v 0.0868017 0.0528478 -0.3657594
v -0.2826886 0.1384119 -0.496294
v 0.248668 0.03146011 -0.2507036
v -0.1323259 -0.009164631 -0.1678841
v -0.01468611 0.004734486 0.2065664
v -0.2784406 0.1529093 0.3040851
v 0.2015667 0.1431407 0.5037595
v 0.03284939 0.1769767 0.5671171
v 0.002912017 0.01444674 -0.2974095
v 0.3038605 -0.01313925 0.06391326
v -0.3419783 0.01517823 -0.1061293
v 0.04033491 0.1800485 -0.3106523
v -0.09490305 0.1564371 -0.1811268
v -0.2452657 0.3040136 -0.5095366
v 0.2842155 0.2075172 -0.2628628
v 0.1207834 0.2199472 -0.3894634
v 0.3412834 0.1524624 0.05067053
v 0.02390952 0.1700622 0.1928027
v -0.2410177 0.318511 0.2908424
v -0.3045555 0.1807799 -0.119372
v 0.2389896 0.3087423 0.4905169
v 0.07027236 0.3425784 0.5538747
v -0.0868017 0.0528478 -0.3657594
v 0.2826886 0.1384119 -0.496294
v -0.248668 0.03146011 -0.2507036
v 0.1323259 -0.009164631 -0.1678841
v 0.01468611 0.004734486 0.2065664
v 0.2784406 0.1529093 0.3040851
v -0.2015667 0.1431407 0.5037595
v -0.03284939 0.1769767 0.5671171
v -0.002912017 0.01444674 -0.2974095
v -0.3038605 -0.01313925 0.06391326
v 0.3419783 0.01517823 -0.1061293
v -0.04033491 0.1800485 -0.3106523
v 0.09490305 0.1564371 -0.1811268
v 0.2452657 0.3040136 -0.5095366
v -0.2842155 0.2075172 -0.2628628
v -0.1207834 0.2199472 -0.3894634
v -0.3412834 0.1524624 0.05067053
v -0.02390952 0.1700622 0.1928027
v 0.2410177 0.318511 0.2908424
v 0.3045555 0.1807799 -0.119372
v -0.2389896 0.3087423 0.4905169
v -0.07027236 0.3425784 0.5538747
v 0.03284939 0.1769767 0.5671171
v -0.01468611 0.004734486 0.2065664
v -0.01468611 0.004734486 0.2065664
v 0.2015667 0.1431407 0.5037595
v 0.3038605 -0.01313925 0.06391326
v -0.01468611 0.004734486 0.2065664
v 0.3038605 -0.01313925 0.06391326
v 0.002912017 0.01444674 -0.2974095
v -0.2784406 0.1529093 0.3040851
v -0.01468611 0.004734486 0.2065664
v -0.3419783 0.01517823 -0.1061293
v -0.01468611 0.004734486 0.2065664
v -0.1323259 -0.009164631 -0.1678841
v -0.3419783 0.01517823 -0.1061293
v -0.1323259 -0.009164631 -0.1678841
v 0.002912017 0.01444674 -0.2974095
v 0.002912017 0.01444674 -0.2974095
v 0.248668 0.03146011 -0.2507036
v 0.3412834 0.1524624 0.05067053
v 0.04033491 0.1800485 -0.3106523
v 0.3412834 0.1524624 0.05067053
v 0.02390952 0.1700622 0.1928027
v -0.2410177 0.318511 0.2908424
v 0.02390952 0.1700622 0.1928027
v -0.3045555 0.1807799 -0.119372
v -0.3045555 0.1807799 -0.119372
v -0.09490305 0.1564371 -0.1811268
v 0.04033491 0.1800485 -0.3106523
v 0.04033491 0.1800485 -0.3106523
v 0.2842155 0.2075172 -0.2628628
v 0.0868017 0.0528478 -0.3657594
v 0.248668 0.03146011 -0.2507036
v 0.2842155 0.2075172 -0.2628628
v 0.1207834 0.2199472 -0.3894634
v -0.3419783 0.01517823 -0.1061293
v -0.2826886 0.1384119 -0.496294
v -0.2452657 0.3040136 -0.5095366
v -0.3045555 0.1807799 -0.119372
v 0.3038605 -0.01313925 0.06391326
v 0.2015667 0.1431407 0.5037595
v 0.2389896 0.3087423 0.4905169
v 0.3412834 0.1524624 0.05067053
v -0.2826886 0.1384119 -0.496294
v 0.002912017 0.01444674 -0.2974095
v 0.04033491 0.1800485 -0.3106523
v -0.2452657 0.3040136 -0.5095366
v 0.248668 0.03146011 -0.2507036
v 0.3038605 -0.01313925 0.06391326
v 0.3412834 0.1524624 0.05067053
v 0.2842155 0.2075172 -0.2628628
v -0.2784406 0.1529093 0.3040851
v -0.3419783 0.01517823 -0.1061293
v -0.3045555 0.1807799 -0.119372
v -0.2410177 0.318511 0.2908424
v 0.002912017 0.01444674 -0.2974095
v 0.0868017 0.0528478 -0.3657594
v 0.1207834 0.2199472 -0.3894634
v 0.04033491 0.1800485 -0.3106523
v 0.2015667 0.1431407 0.5037595
v 0.03284939 0.1769767 0.5671171
v 0.07027236 0.3425784 0.5538747
v 0.2389896 0.3087423 0.4905169
v 0.03284939 0.1769767 0.5671171
v -0.2784406 0.1529093 0.3040851
v -0.2410177 0.318511 0.2908424
v 0.07027236 0.3425784 0.5538747
v 0.01468611 0.004734486 0.2065664
v -0.03284939 0.1769767 0.5671171
v 0.01468611 0.004734486 0.2065664
v -0.3038605 -0.01313925 0.06391326
v -0.2015667 0.1431407 0.5037595
v -0.002912017 0.01444674 -0.2974095
v -0.3038605 -0.01313925 0.06391326
v 0.01468611 0.004734486 0.2065664
v 0.2784406 0.1529093 0.3040851
v 0.01468611 0.004734486 0.2065664
v 0.3419783 0.01517823 -0.1061293
v 0.1323259 -0.009164631 -0.1678841
v 0.01468611 0.004734486 0.2065664
v 0.3419783 0.01517823 -0.1061293
v 0.1323259 -0.009164631 -0.1678841
v -0.002912017 0.01444674 -0.2974095
v -0.002912017 0.01444674 -0.2974095
v -0.248668 0.03146011 -0.2507036
v -0.3412834 0.1524624 0.05067053
v -0.02390952 0.1700622 0.1928027
v -0.3412834 0.1524624 0.05067053
v -0.04033491 0.1800485 -0.3106523
v 0.2410177 0.318511 0.2908424
v -0.02390952 0.1700622 0.1928027
v 0.3045555 0.1807799 -0.119372
v 0.3045555 0.1807799 -0.119372
v 0.09490305 0.1564371 -0.1811268
v -0.04033491 0.1800485 -0.3106523
v -0.04033491 0.1800485 -0.3106523
v -0.2842155 0.2075172 -0.2628628
v -0.0868017 0.0528478 -0.3657594
v -0.1207834 0.2199472 -0.3894634
v -0.2842155 0.2075172 -0.2628628
v -0.248668 0.03146011 -0.2507036
v 0.3419783 0.01517823 -0.1061293
v 0.3045555 0.1807799 -0.119372
v 0.2452657 0.3040136 -0.5095366
v 0.2826886 0.1384119 -0.496294
v -0.3038605 -0.01313925 0.06391326
v -0.3412834 0.1524624 0.05067053
v -0.2389896 0.3087423 0.4905169
v -0.2015667 0.1431407 0.5037595
v 0.2826886 0.1384119 -0.496294
v 0.2452657 0.3040136 -0.5095366
v -0.04033491 0.1800485 -0.3106523
v -0.002912017 0.01444674 -0.2974095
v -0.248668 0.03146011 -0.2507036
v -0.2842155 0.2075172 -0.2628628
v -0.3412834 0.1524624 0.05067053
v -0.3038605 -0.01313925 0.06391326
v 0.2784406 0.1529093 0.3040851
v 0.2410177 0.318511 0.2908424
v 0.3045555 0.1807799 -0.119372
v 0.3419783 0.01517823 -0.1061293
v -0.002912017 0.01444674 -0.2974095
v -0.04033491 0.1800485 -0.3106523
v -0.1207834 0.2199472 -0.3894634
v -0.0868017 0.0528478 -0.3657594
v -0.2015667 0.1431407 0.5037595
v -0.2389896 0.3087423 0.4905169
v -0.07027236 0.3425784 0.5538747
v -0.03284939 0.1769767 0.5671171
v -0.03284939 0.1769767 0.5671171
v -0.07027236 0.3425784 0.5538747
v 0.2410177 0.318511 0.2908424
v 0.2784406 0.1529093 0.3040851
vt 0.1250693 0.8831856
vt 0.125622 0.8829465
vt 0.1265679 0.8860853
vt 0.3671905 0.8826301
vt 0.3669359 0.8835558
vt 0.1500458 0.615641
vt 0.3664516 0.8843769
vt 0.3661073 0.8841074
vt 0.1266922 0.8860939
vt 0.1267082 0.8858429
vt 0.3667259 0.8826766
vt 0.1266922 0.8860939
vt 0.3671905 0.8826301
vt 0.125622 0.8829465
vt 0.1265679 0.8860853
vt 0.1250693 0.8831856
vt 0.1267082 0.8858429
vt 0.137538 0.3819791
vt 0.1319259 0.3814329
vt 0.3667259 0.8826766
vt 0.1387307 0.3751456
vt 0.1354907 0.3751618
vt 0.1250693 0.8831856
vt 0.125622 0.8829465
vt 0.1265679 0.8860853
vt 0.3671905 0.8826301
vt 0.3669359 0.8835558
vt 0.1500458 0.615641
vt 0.3664516 0.8843769
vt 0.3661073 0.8841074
vt 0.1266922 0.8860939
vt 0.1267082 0.8858429
vt 0.3667259 0.8826766
vt 0.1266922 0.8860939
vt 0.3671905 0.8826301
vt 0.125622 0.8829465
vt 0.1265679 0.8860853
vt 0.1250693 0.8831856
vt 0.1267082 0.8858429
vt 0.137538 0.3819791
vt 0.1319259 0.3814329
vt 0.3667259 0.8826766
vt 0.1387307 0.3751456
vt 0.1354907 0.3751618
vt 0.1426075 0.6263803
vt 0.1553209 0.6243374
vt 0.1251795 0.6368122
vt 0.1361636 0.6292854
vt 0.1202953 0.6260166
vt 0.3669359 0.8835558
vt 0.3674078 0.8837603
vt 0.3677098 0.8827025
vt 0.3661323 0.8832026
vt 0.3665373 0.8833808
vt 0.3668148 0.8825777
vt 0.3665373 0.8833808
vt 0.3671905 0.8826301
vt 0.1256714 0.8822228
vt 0.1253812 0.8823124
vt 0.1250618 0.8824676
vt 0.1250618 0.8824676
vt 0.1247522 0.8826485
vt 0.1436903 0.3819791
vt 0.3677098 0.8827025
vt 0.3674078 0.8837603
vt 0.3669359 0.8835558
vt 0.3661323 0.8832026
vt 0.3665373 0.8833808
vt 0.3667259 0.8826766
vt 0.1256714 0.8822228
vt 0.1253812 0.8823124
vt 0.1250618 0.8824676
vt 0.1250618 0.8824676
vt 0.1247522 0.8826485
vt 0.1250693 0.8831856
vt 0.1247522 0.8826485
vt 0.1247522 0.8826485
vt 0.1250693 0.8831856
vt 0.1256714 0.8822228
vt 0.125622 0.8829465
vt 0.125622 0.8829465
vt 0.1256714 0.8822228
vt 0.1202953 0.6260166
vt 0.1361636 0.6292854
vt 0.1355308 0.6237271
vt 0.1225644 0.6207076
vt 0.125622 0.8829465
vt 0.1250618 0.8824676
vt 0.1250618 0.8824676
vt 0.125622 0.8829465
vt 0.1265679 0.8860853
vt 0.1267082 0.8858429
vt 0.1267082 0.8858429
vt 0.1265679 0.8860853
vt 0.3661323 0.8832026
vt 0.3667259 0.8826766
vt 0.3667259 0.8826766
vt 0.3661323 0.8832026
vt 0.1250618 0.8824676
vt 0.1250693 0.8831856
vt 0.1250693 0.8831856
vt 0.1250618 0.8824676
vt 0.1361636 0.6292854
vt 0.1426075 0.6263803
vt 0.139235 0.6226951
vt 0.1355308 0.6237271
vt 0.1426075 0.6263803
vt 0.1500458 0.615641
vt 0.1450927 0.613369
vt 0.139235 0.6226951
vt 0.1553209 0.6243374
vt 0.1426075 0.6263803
vt 0.1251795 0.6368122
vt 0.1202953 0.6260166
vt 0.1361636 0.6292854
vt 0.3677098 0.8827025
vt 0.3674078 0.8837603
vt 0.3669359 0.8835558
vt 0.3661323 0.8832026
vt 0.3665373 0.8833808
vt 0.3668148 0.8825777
vt 0.3671905 0.8826301
vt 0.3665373 0.8833808
vt 0.1256714 0.8822228
vt 0.1253812 0.8823124
vt 0.1250618 0.8824676
vt 0.1250618 0.8824676
vt 0.1247522 0.8826485
vt 0.1436903 0.3819791
vt 0.3669359 0.8835558
vt 0.3674078 0.8837603
vt 0.3677098 0.8827025
vt 0.3661323 0.8832026
vt 0.3665373 0.8833808
vt 0.3667259 0.8826766
vt 0.1256714 0.8822228
vt 0.1253812 0.8823124
vt 0.1250618 0.8824676
vt 0.1250618 0.8824676
vt 0.1247522 0.8826485
vt 0.1250693 0.8831856
vt 0.1250693 0.8831856
vt 0.1247522 0.8826485
vt 0.1247522 0.8826485
vt 0.1256714 0.8822228
vt 0.1256714 0.8822228
vt 0.125622 0.8829465
vt 0.125622 0.8829465
vt 0.1202953 0.6260166
vt 0.1225644 0.6207076
vt 0.1355308 0.6237271
vt 0.1361636 0.6292854
vt 0.125622 0.8829465
vt 0.125622 0.8829465
vt 0.1250618 0.8824676
vt 0.1250618 0.8824676
vt 0.1265679 0.8860853
vt 0.1265679 0.8860853
vt 0.1267082 0.8858429
vt 0.1267082 0.8858429
vt 0.3661323 0.8832026
vt 0.3661323 0.8832026
vt 0.3667259 0.8826766
vt 0.3667259 0.8826766
vt 0.1250618 0.8824676
vt 0.1250618 0.8824676
vt 0.1250693 0.8831856
vt 0.1250693 0.8831856
vt 0.1361636 0.6292854
vt 0.1355308 0.6237271
vt 0.139235 0.6226951
vt 0.1426075 0.6263803
vt 0.1426075 0.6263803
vt 0.139235 0.6226951
vt 0.1450927 0.613369
vt 0.1500458 0.615641
vn 0.1319356 -0.9245567 -0.3574745
vn -0.1844878 -0.9253079 -0.3313151
vn 0.104802 -0.9749275 -0.1962978
vn -0.1036726 -0.9859728 -0.1308038
vn -0.1159133 -0.9546825 0.2741267
vn -0.3354955 -0.8560276 0.3932679
vn 0.02768078 -0.9137406 0.4053541
vn -0.1315392 -0.8876299 0.4413734
vn -0.01065118 -0.977009 -0.212932
vn 0.05679547 -0.9948211 0.0842929
vn -0.2122587 -0.9769698 -0.02182099
vn -0.006866775 0.977493 0.2108558
vn 0.1036426 0.9859475 0.1310182
vn 0.1844878 0.9253079 0.3313151
vn -0.1515593 0.9637415 0.2196176
vn -0.1655038 0.9376308 0.3057074
vn -0.06702066 0.9948113 -0.07654273
vn 0.1149659 0.9549467 -0.2736049
vn 0.3345549 0.8565607 -0.3929082
vn 0.2122594 0.9769732 0.02166847
vn -0.02774204 0.9136561 -0.4055403
vn 0.131689 0.887764 -0.441059
vn -0.1319356 -0.9245567 -0.3574745
vn 0.1844878 -0.9253079 -0.3313151
vn -0.104802 -0.9749275 -0.1962978
vn 0.1036726 -0.9859728 -0.1308038
vn 0.1159133 -0.9546825 0.2741267
vn 0.3354955 -0.8560276 0.3932679
vn -0.02768078 -0.9137406 0.4053541
vn 0.1315392 -0.8876299 0.4413734
vn 0.01065118 -0.977009 -0.212932
vn -0.05679547 -0.9948211 0.0842929
vn 0.2122587 -0.9769698 -0.02182099
vn 0.006866775 0.977493 0.2108558
vn -0.1036426 0.9859475 0.1310182
vn -0.1844878 0.9253079 0.3313151
vn 0.1515593 0.9637415 0.2196176
vn 0.1655038 0.9376308 0.3057074
vn 0.06702066 0.9948113 -0.07654273
vn -0.1149659 0.9549467 -0.2736049
vn -0.3345549 0.8565607 -0.3929082
vn -0.2122594 0.9769732 0.02166847
vn 0.02774204 0.9136561 -0.4055403
vn -0.131689 0.887764 -0.441059
vn -0.1315392 -0.8876299 0.4413734
vn -0.1159133 -0.9546825 0.2741267
vn -0.1159133 -0.9546825 0.2741267
vn 0.02768078 -0.9137406 0.4053541
vn 0.05679547 -0.9948211 0.0842929
vn -0.1159133 -0.9546825 0.2741267
vn 0.05679547 -0.9948211 0.0842929
vn -0.01065118 -0.977009 -0.212932
vn -0.3354955 -0.8560276 0.3932679
vn -0.1159133 -0.9546825 0.2741267
vn -0.2122587 -0.9769698 -0.02182099
vn -0.1159133 -0.9546825 0.2741267
vn -0.1036726 -0.9859728 -0.1308038
vn -0.2122587 -0.9769698 -0.02182099
vn -0.1036726 -0.9859728 -0.1308038
vn -0.01065118 -0.977009 -0.212932
vn -0.01065118 -0.977009 -0.212932
vn 0.104802 -0.9749275 -0.1962978
vn -0.06702066 0.9948113 -0.07654273
vn -0.006866775 0.977493 0.2108558
vn -0.06702066 0.9948113 -0.07654273
vn 0.1149659 0.9549467 -0.2736049
vn 0.3345549 0.8565607 -0.3929082
vn 0.1149659 0.9549467 -0.2736049
vn 0.2122594 0.9769732 0.02166847
vn 0.2122594 0.9769732 0.02166847
vn 0.1036426 0.9859475 0.1310182
vn -0.006866775 0.977493 0.2108558
vn -0.006866775 0.977493 0.2108558
vn -0.1515593 0.9637415 0.2196176
vn 0.5710072 -0.1989217 -0.7964803
vn 0.5710072 -0.1989217 -0.7964803
vn 0.5710072 -0.1989217 -0.7964803
vn 0.5710072 -0.1989217 -0.7964803
vn -0.9753795 0.2205286 0.001434382
vn -0.9736074 0.2135698 -0.0804778
vn -0.9736074 0.2135698 -0.0804778
vn -0.9754872 0.2199828 -0.005676583
vn 0.9767423 -0.2108279 0.03906481
vn 0.9393844 -0.1894334 0.2857828
vn 0.9393844 -0.1894334 0.2857828
vn 0.9766811 -0.2106752 0.04135375
vn 0.5074801 -0.182019 -0.8422192
vn 0.5074801 -0.182019 -0.8422192
vn 0.5074801 -0.182019 -0.8422192
vn 0.5074801 -0.182019 -0.8422192
vn 0.953907 -0.218975 -0.2052108
vn 0.9767423 -0.2108279 0.03906481
vn 0.9766811 -0.2106752 0.04135375
vn 0.953907 -0.218975 -0.2052108
vn -0.9713786 0.2254719 0.07474022
vn -0.9753795 0.2205286 0.001434382
vn -0.9754872 0.2199828 -0.005676583
vn -0.9713786 0.2254719 0.07474022
vn -0.6828677 0.06573841 -0.7275783
vn -0.6828677 0.06573841 -0.7275783
vn -0.6828677 0.06573841 -0.7275783
vn -0.6828677 0.06573841 -0.7275783
vn 0.3507856 -0.00436422 0.9364457
vn 0.3507856 -0.00436422 0.9364457
vn 0.3507856 -0.00436422 0.9364457
vn 0.3507856 -0.00436422 0.9364457
vn -0.6409925 0.2040201 0.7399355
vn -0.6409925 0.2040201 0.7399355
vn -0.6409925 0.2040201 0.7399355
vn -0.6409925 0.2040201 0.7399355
vn 0.1159133 -0.9546825 0.2741267
vn 0.1315392 -0.8876299 0.4413734
vn 0.1159133 -0.9546825 0.2741267
vn -0.05679547 -0.9948211 0.0842929
vn -0.02768078 -0.9137406 0.4053541
vn 0.01065118 -0.977009 -0.212932
vn -0.05679547 -0.9948211 0.0842929
vn 0.1159133 -0.9546825 0.2741267
vn 0.3354955 -0.8560276 0.3932679
vn 0.1159133 -0.9546825 0.2741267
vn 0.2122587 -0.9769698 -0.02182099
vn 0.1036726 -0.9859728 -0.1308038
vn 0.1159133 -0.9546825 0.2741267
vn 0.2122587 -0.9769698 -0.02182099
vn 0.1036726 -0.9859728 -0.1308038
vn 0.01065118 -0.977009 -0.212932
vn 0.01065118 -0.977009 -0.212932
vn -0.104802 -0.9749275 -0.1962978
vn 0.06702066 0.9948113 -0.07654273
vn -0.1149659 0.9549467 -0.2736049
vn 0.06702066 0.9948113 -0.07654273
vn 0.006866775 0.977493 0.2108558
vn -0.3345549 0.8565607 -0.3929082
vn -0.1149659 0.9549467 -0.2736049
vn -0.2122594 0.9769732 0.02166847
vn -0.2122594 0.9769732 0.02166847
vn -0.1036426 0.9859475 0.1310182
vn 0.006866775 0.977493 0.2108558
vn 0.006866775 0.977493 0.2108558
vn 0.1515593 0.9637415 0.2196176
vn -0.5710072 -0.1989217 -0.7964803
vn -0.5710072 -0.1989217 -0.7964803
vn -0.5710072 -0.1989217 -0.7964803
vn -0.5710072 -0.1989217 -0.7964803
vn 0.9753795 0.2205286 0.001434382
vn 0.9754872 0.2199828 -0.005676583
vn 0.9736074 0.2135698 -0.0804778
vn 0.9736074 0.2135698 -0.0804778
vn -0.9767423 -0.2108279 0.03906481
vn -0.9766811 -0.2106752 0.04135375
vn -0.9393844 -0.1894334 0.2857828
vn -0.9393844 -0.1894334 0.2857828
vn -0.5074801 -0.182019 -0.8422192
vn -0.5074801 -0.182019 -0.8422192
vn -0.5074801 -0.182019 -0.8422192
vn -0.5074801 -0.182019 -0.8422192
vn -0.953907 -0.218975 -0.2052108
vn -0.953907 -0.218975 -0.2052108
vn -0.9766811 -0.2106752 0.04135375
vn -0.9767423 -0.2108279 0.03906481
vn 0.9713786 0.2254719 0.07474022
vn 0.9713786 0.2254719 0.07474022
vn 0.9754872 0.2199828 -0.005676583
vn 0.9753795 0.2205286 0.001434382
vn 0.6828677 0.06573841 -0.7275783
vn 0.6828677 0.06573841 -0.7275783
vn 0.6828677 0.06573841 -0.7275783
vn 0.6828677 0.06573841 -0.7275783
vn -0.3507856 -0.00436422 0.9364457
vn -0.3507856 -0.00436422 0.9364457
vn -0.3507856 -0.00436422 0.9364457
vn -0.3507856 -0.00436422 0.9364457
vn 0.6409925 0.2040201 0.7399355
vn 0.6409925 0.2040201 0.7399355
vn 0.6409925 0.2040201 0.7399355
vn 0.6409925 0.2040201 0.7399355
g fox piggybank_0
f 3/3/3 10/10/10 9/9/9
f 7/7/7 8/8/8 5/5/5
f 46/46/46 45/45/45 6/6/6
f 49/49/49 48/48/48 47/47/47
f 11/11/11 54/54/54 53/53/53
f 57/57/57 56/56/56 55/55/55
f 1/1/1 62/62/62 61/61/61
f 17/17/17 15/15/15 12/12/12
f 68/68/68 20/20/20 67/67/67
f 74/74/74 16/16/16 73/73/73
f 32/32/32 25/25/25 31/31/31
f 30/30/30 29/29/29 27/27/27
f 112/112/112 111/111/111 28/28/28
f 115/115/115 114/114/114 113/113/113
f 120/120/120 33/33/33 119/119/119
f 123/123/123 122/122/122 121/121/121
f 128/128/128 23/23/23 127/127/127
f 37/37/37 39/39/39 34/34/34
f 42/42/42 134/134/134 133/133/133
f 38/38/38 140/140/140 139/139/139
f 51/51/51 50/50/50 4/4/4
f 52/52/52 51/51/51 4/4/4
f 2/2/2 59/59/59 58/58/58
f 59/59/59 2/2/2 60/60/60
f 22/22/22 18/18/18 19/19/19
f 22/22/22 21/21/21 18/18/18
f 21/21/21 63/63/63 18/18/18
f 65/65/65 64/64/64 13/13/13
f 66/66/66 65/65/65 13/13/13
f 66/66/66 13/13/13 69/69/69
f 71/71/71 14/14/14 70/70/70
f 14/14/14 71/71/71 72/72/72
f 77/77/77 76/76/76 75/75/75
f 78/78/78 77/77/77 75/75/75
f 81/81/81 80/80/80 79/79/79
f 82/82/82 81/81/81 79/79/79
f 85/85/85 84/84/84 83/83/83
f 86/86/86 85/85/85 83/83/83
f 89/89/89 88/88/88 87/87/87
f 90/90/90 89/89/89 87/87/87
f 93/93/93 92/92/92 91/91/91
f 94/94/94 93/93/93 91/91/91
f 97/97/97 96/96/96 95/95/95
f 98/98/98 97/97/97 95/95/95
f 101/101/101 100/100/100 99/99/99
f 102/102/102 101/101/101 99/99/99
f 105/105/105 104/104/104 103/103/103
f 106/106/106 105/105/105 103/103/103
f 109/109/109 108/108/108 107/107/107
f 110/110/110 109/109/109 107/107/107
f 117/117/117 116/116/116 26/26/26
f 118/118/118 117/117/117 26/26/26
f 125/125/125 24/24/24 124/124/124
f 24/24/24 125/125/125 126/126/126
f 40/40/40 44/44/44 41/41/41
f 43/43/43 44/44/44 40/40/40
f 129/129/129 43/43/43 40/40/40
f 132/132/132 131/131/131 35/35/35
f 131/131/131 130/130/130 35/35/35
f 35/35/35 130/130/130 135/135/135
f 36/36/36 137/137/137 136/136/136
f 137/137/137 36/36/36 138/138/138
f 143/143/143 142/142/142 141/141/141
f 144/144/144 143/143/143 141/141/141
f 147/147/147 146/146/146 145/145/145
f 148/148/148 147/147/147 145/145/145
f 151/151/151 150/150/150 149/149/149
f 152/152/152 151/151/151 149/149/149
f 155/155/155 154/154/154 153/153/153
f 156/156/156 155/155/155 153/153/153
f 159/159/159 158/158/158 157/157/157
f 160/160/160 159/159/159 157/157/157
f 163/163/163 162/162/162 161/161/161
f 164/164/164 163/163/163 161/161/161
f 167/167/167 166/166/166 165/165/165
f 168/168/168 167/167/167 165/165/165
f 171/171/171 170/170/170 169/169/169
f 172/172/172 171/171/171 169/169/169
f 175/175/175 174/174/174 173/173/173
f 176/176/176 175/175/175 173/173/173
