g foxgod_skyCylinder
v 7.919685E-07 -49.34439 -154.6127
v 7.919685E-07 49.34439 -154.6127
v 30.16343 49.34439 -151.6418
v 30.16343 -49.34441 -151.6418
v 30.16343 -49.34441 -151.6418
v 30.16343 49.34439 -151.6418
v 59.16771 49.34439 -142.8435
v 59.16771 -49.34441 -142.8435
v 59.16771 -49.34441 -142.8435
v 59.16771 49.34439 -142.8435
v 85.89819 49.34439 -128.5558
v 85.89819 -49.34441 -128.5557
v 85.89819 -49.34441 -128.5557
v 85.89819 49.34439 -128.5558
v 109.3277 49.34439 -109.3277
v 109.3277 -49.34441 -109.3277
v 109.3277 -49.34441 -109.3277
v 109.3277 49.34439 -109.3277
v 128.5557 49.3444 -85.89822
v 128.5557 -49.3444 -85.89819
v 128.5557 -49.3444 -85.89819
v 128.5557 49.3444 -85.89822
v 142.8435 49.3444 -59.16772
v 142.8435 -49.34441 -59.16771
v 142.8435 -49.34441 -59.16771
v 142.8435 49.3444 -59.16772
v 151.6418 49.3444 -30.16344
v 151.6418 -49.3444 -30.16344
v 151.6418 -49.3444 -30.16344
v 151.6418 49.3444 -30.16344
v 154.6127 49.3444 -1.382985E-05
v 154.6127 -49.3444 -1.381706E-05
v 154.6127 -49.3444 -1.381706E-05
v 154.6127 49.3444 -1.382985E-05
v 151.6418 49.3444 30.16342
v 151.6418 -49.3444 30.16343
v 151.6418 -49.3444 30.16343
v 151.6418 49.3444 30.16342
v 142.8435 49.3444 59.16769
v 142.8435 -49.3444 59.16768
v 142.8435 -49.3444 59.16768
v 142.8435 49.3444 59.16769
v 128.5557 49.3444 85.89817
v 128.5557 -49.3444 85.89819
v 128.5557 -49.3444 85.89819
v 128.5557 49.3444 85.89817
v 109.3277 49.34441 109.3277
v 109.3277 -49.34439 109.3277
v 109.3277 -49.34439 109.3277
v 109.3277 49.34441 109.3277
v 85.89817 49.34441 128.5557
v 85.89817 -49.34439 128.5558
v 85.89817 -49.34439 128.5558
v 85.89817 49.34441 128.5557
v 59.16768 49.34441 142.8435
v 59.16768 -49.34439 142.8435
v 59.16768 -49.34439 142.8435
v 59.16768 49.34441 142.8435
v 30.1634 49.34441 151.6418
v 30.1634 -49.34439 151.6418
v 30.1634 -49.34439 151.6418
v 30.1634 49.34441 151.6418
v -4.958723E-05 49.34441 154.6127
v -4.958723E-05 -49.34439 154.6127
v -4.958723E-05 -49.34439 154.6127
v -4.958723E-05 49.34441 154.6127
v -30.1635 49.34441 151.6418
v -30.1635 -49.34439 151.6418
v -30.1635 -49.34439 151.6418
v -30.1635 49.34441 151.6418
v -59.16777 49.34441 142.8434
v -59.16777 -49.34439 142.8435
v -59.16777 -49.34439 142.8435
v -59.16777 49.34441 142.8434
v -85.89827 49.34441 128.5557
v -85.89827 -49.34439 128.5557
v -85.89827 -49.34439 128.5557
v -85.89827 49.34441 128.5557
v -109.3277 49.34441 109.3276
v -109.3277 -49.34439 109.3276
v -109.3277 -49.34439 109.3276
v -109.3277 49.34441 109.3276
v -128.5558 49.34441 85.8981
v -128.5558 -49.3444 85.89811
v -128.5558 -49.3444 85.89811
v -128.5558 49.34441 85.8981
v -142.8435 49.3444 59.16759
v -142.8435 -49.3444 59.16759
v -142.8435 -49.3444 59.16759
v -142.8435 49.3444 59.16759
v -151.6419 49.34441 30.1633
v -151.6419 -49.3444 30.1633
v -151.6419 -49.3444 30.1633
v -151.6419 49.34441 30.1633
v -154.6127 49.3444 -0.00016128
v -154.6127 -49.3444 -0.0001520516
v -154.6127 -49.3444 -0.0001520516
v -154.6127 49.3444 -0.00016128
v -151.6418 49.3444 -30.16359
v -151.6418 -49.3444 -30.16359
v -151.6418 -49.3444 -30.16359
v -151.6418 49.3444 -30.16359
v -142.8434 49.3444 -59.16786
v -142.8434 -49.3444 -59.16787
v -142.8434 -49.3444 -59.16787
v -142.8434 49.3444 -59.16786
v -128.5556 49.3444 -85.89836
v -128.5556 -49.3444 -85.89835
v -128.5556 -49.3444 -85.89835
v -128.5556 49.3444 -85.89836
v -109.3275 49.34439 -109.3278
v -109.3275 -49.34441 -109.3278
v -109.3275 -49.34441 -109.3278
v -109.3275 49.34439 -109.3278
v -85.89803 49.34439 -128.5559
v -85.89803 -49.34441 -128.5558
v -85.89803 -49.34441 -128.5558
v -85.89803 49.34439 -128.5559
v -59.1675 49.34439 -142.8436
v -59.1675 -49.34439 -142.8436
v -59.1675 -49.34439 -142.8436
v -59.1675 49.34439 -142.8436
v -30.1632 49.34439 -151.6419
v -30.1632 -49.34441 -151.6419
v -30.1632 -49.34441 -151.6419
v -30.1632 49.34439 -151.6419
v 7.919685E-07 49.34439 -154.6127
v 7.919685E-07 -49.34439 -154.6127
vt 0.75 2.980232E-08
vt 0.75 1
vt 0.71875 1
vt 0.71875 -5.960464E-08
vt 0.71875 -5.960464E-08
vt 0.71875 1
vt 0.6875 1
vt 0.6875 -5.960464E-08
vt 0.6875 -5.960464E-08
vt 0.6875 1
vt 0.65625 1
vt 0.65625 0
vt 0.65625 0
vt 0.65625 1
vt 0.625 0.9999999
vt 0.625 0
vt 0.625 0
vt 0.625 0.9999999
vt 0.59375 1
vt 0.59375 0
vt 0.59375 0
vt 0.59375 1
vt 0.5625 1
vt 0.5625 -5.960464E-08
vt 0.5625 -5.960464E-08
vt 0.5625 1
vt 0.53125 1
vt 0.53125 0
vt 0.53125 0
vt 0.53125 1
vt 0.5 1
vt 0.5 0
vt 0.5 0
vt 0.5 1
vt 0.46875 1
vt 0.46875 0
vt 0.46875 0
vt 0.46875 1
vt 0.4375 1
vt 0.4375 0
vt 0.4375 0
vt 0.4375 1
vt 0.40625 1
vt 0.40625 0
vt 0.40625 0
vt 0.40625 1
vt 0.375 1
vt 0.375 5.960464E-08
vt 0.375 5.960464E-08
vt 0.375 1
vt 0.34375 1
vt 0.3437499 8.940697E-08
vt 0.3437499 8.940697E-08
vt 0.34375 1
vt 0.3125 1
vt 0.3125 8.940697E-08
vt 0.3125 8.940697E-08
vt 0.3125 1
vt 0.28125 1
vt 0.2812499 8.940697E-08
vt 0.2812499 8.940697E-08
vt 0.28125 1
vt 0.25 1
vt 0.2499999 8.940697E-08
vt 0.2499999 8.940697E-08
vt 0.25 1
vt 0.2187499 1
vt 0.2187499 8.940697E-08
vt 0.2187499 8.940697E-08
vt 0.2187499 1
vt 0.1874999 1
vt 0.1874999 8.940697E-08
vt 0.1874999 8.940697E-08
vt 0.1874999 1
vt 0.1562499 1
vt 0.1562499 8.940697E-08
vt 0.1562499 8.940697E-08
vt 0.1562499 1
vt 0.1249999 1
vt 0.1249999 1.192093E-07
vt 0.1249999 1.192093E-07
vt 0.1249999 1
vt 0.09374988 1
vt 0.09374991 2.980232E-08
vt 0.09374991 2.980232E-08
vt 0.09374988 1
vt 0.06249988 1
vt 0.06249988 2.980232E-08
vt 0.06249988 2.980232E-08
vt 0.06249988 1
vt 0.03124985 1
vt 0.03124991 2.980232E-08
vt 1.03125 2.980232E-08
vt 1.03125 1
vt 0.9999998 1
vt 0.9999999 2.980232E-08
vt 0.9999999 2.980232E-08
vt 0.9999998 1
vt 0.9687498 1
vt 0.9687499 2.980232E-08
vt 0.9687499 2.980232E-08
vt 0.9687498 1
vt 0.9374998 1
vt 0.9374998 2.980232E-08
vt 0.9374998 2.980232E-08
vt 0.9374998 1
vt 0.9062498 1
vt 0.9062498 2.980232E-08
vt 0.9062498 2.980232E-08
vt 0.9062498 1
vt 0.8749998 1
vt 0.8749998 -5.960464E-08
vt 0.8749998 -5.960464E-08
vt 0.8749998 1
vt 0.8437498 1
vt 0.8437498 -5.960464E-08
vt 0.8437498 -5.960464E-08
vt 0.8437498 1
vt 0.8124998 1
vt 0.8124998 2.980232E-08
vt 0.8124998 2.980232E-08
vt 0.8124998 1
vt 0.7812498 1
vt 0.7812498 0
vt 0.7812498 0
vt 0.7812498 1
vt 0.75 1
vt 0.75 2.980232E-08
vn -0.09801713 0 0.9951847
vn -0.09801713 0 0.9951847
vn -0.09801713 0 0.9951847
vn -0.09801713 0 0.9951847
vn -0.2902847 0 0.9569404
vn -0.2902847 0 0.9569404
vn -0.2902847 0 0.9569404
vn -0.2902847 0 0.9569404
vn -0.4713962 0 0.8819216
vn -0.4713962 0 0.8819216
vn -0.4713962 0 0.8819216
vn -0.4713962 0 0.8819216
vn -0.6343938 0 0.77301
vn -0.6343938 0 0.77301
vn -0.6343938 0 0.77301
vn -0.6343938 0 0.77301
vn -0.77301 0 0.6343938
vn -0.77301 0 0.6343938
vn -0.77301 0 0.6343938
vn -0.77301 0 0.6343938
vn -0.8819217 0 0.471396
vn -0.8819217 0 0.471396
vn -0.8819217 0 0.471396
vn -0.8819217 0 0.471396
vn -0.9569402 0 0.2902848
vn -0.9569402 0 0.2902848
vn -0.9569402 0 0.2902848
vn -0.9569402 0 0.2902848
vn -0.9951847 0 0.09801771
vn -0.9951847 0 0.09801771
vn -0.9951847 0 0.09801771
vn -0.9951847 0 0.09801771
vn -0.9951847 0 -0.09801768
vn -0.9951847 0 -0.09801768
vn -0.9951847 0 -0.09801768
vn -0.9951847 0 -0.09801768
vn -0.9569402 0 -0.2902849
vn -0.9569402 0 -0.2902849
vn -0.9569402 0 -0.2902849
vn -0.9569402 0 -0.2902849
vn -0.8819216 0 -0.4713961
vn -0.8819216 0 -0.4713961
vn -0.8819216 0 -0.4713961
vn -0.8819216 0 -0.4713961
vn -0.7730105 0 -0.6343933
vn -0.7730105 0 -0.6343933
vn -0.7730105 0 -0.6343933
vn -0.7730105 0 -0.6343933
vn -0.6343935 0 -0.7730104
vn -0.6343935 0 -0.7730104
vn -0.6343935 0 -0.7730104
vn -0.6343935 0 -0.7730104
vn -0.4713966 0 -0.8819213
vn -0.4713966 0 -0.8819213
vn -0.4713966 0 -0.8819213
vn -0.4713966 0 -0.8819213
vn -0.2902841 0 -0.9569405
vn -0.2902841 0 -0.9569405
vn -0.2902841 0 -0.9569405
vn -0.2902841 0 -0.9569405
vn -0.09801739 0 -0.9951847
vn -0.09801739 0 -0.9951847
vn -0.09801739 0 -0.9951847
vn -0.09801739 0 -0.9951847
vn 0.09801773 0 -0.9951847
vn 0.09801773 0 -0.9951847
vn 0.09801773 0 -0.9951847
vn 0.09801773 0 -0.9951847
vn 0.2902853 0 -0.9569401
vn 0.2902853 0 -0.9569401
vn 0.2902853 0 -0.9569401
vn 0.2902853 0 -0.9569401
vn 0.4713968 0 -0.8819212
vn 0.4713968 0 -0.8819212
vn 0.4713968 0 -0.8819212
vn 0.4713968 0 -0.8819212
vn 0.634394 0 -0.77301
vn 0.634394 0 -0.77301
vn 0.634394 0 -0.77301
vn 0.634394 0 -0.77301
vn 0.7730111 0 -0.6343924
vn 0.7730111 0 -0.6343924
vn 0.7730111 0 -0.6343924
vn 0.7730111 0 -0.6343924
vn 0.8819215 0 -0.4713962
vn 0.8819215 0 -0.4713962
vn 0.8819215 0 -0.4713962
vn 0.8819215 0 -0.4713962
vn 0.9569405 0 -0.2902842
vn 0.9569405 0 -0.2902842
vn 0.9569405 0 -0.2902842
vn 0.9569405 0 -0.2902842
vn 0.9951848 0 -0.09801611
vn 0.9951848 0 -0.09801611
vn 0.9951848 0 -0.09801611
vn 0.9951848 0 -0.09801611
vn 0.9951846 0 0.09801818
vn 0.9951846 0 0.09801818
vn 0.9951846 0 0.09801818
vn 0.9951846 0 0.09801818
vn 0.95694 0 0.2902857
vn 0.95694 0 0.2902857
vn 0.95694 0 0.2902857
vn 0.95694 0 0.2902857
vn 0.8819208 0 0.4713976
vn 0.8819208 0 0.4713976
vn 0.8819208 0 0.4713976
vn 0.8819208 0 0.4713976
vn 0.7730092 0 0.6343948
vn 0.7730092 0 0.6343948
vn 0.7730092 0 0.6343948
vn 0.7730092 0 0.6343948
vn 0.6343927 0 0.7730109
vn 0.6343927 0 0.7730109
vn 0.6343927 0 0.7730109
vn 0.6343927 0 0.7730109
vn 0.4713951 0 0.8819221
vn 0.4713951 0 0.8819221
vn 0.4713951 0 0.8819221
vn 0.4713951 0 0.8819221
vn 0.2902834 0 0.9569408
vn 0.2902834 0 0.9569408
vn 0.2902834 0 0.9569408
vn 0.2902834 0 0.9569408
vn 0.09801626 0 0.9951848
vn 0.09801626 0 0.9951848
vn 0.09801626 0 0.9951848
vn 0.09801626 0 0.9951848
g foxgod_skyCylinder_0
f 3/3/3 2/2/2 1/1/1
f 4/4/4 3/3/3 1/1/1
f 7/7/7 6/6/6 5/5/5
f 8/8/8 7/7/7 5/5/5
f 11/11/11 10/10/10 9/9/9
f 12/12/12 11/11/11 9/9/9
f 15/15/15 14/14/14 13/13/13
f 16/16/16 15/15/15 13/13/13
f 19/19/19 18/18/18 17/17/17
f 20/20/20 19/19/19 17/17/17
f 23/23/23 22/22/22 21/21/21
f 24/24/24 23/23/23 21/21/21
f 27/27/27 26/26/26 25/25/25
f 28/28/28 27/27/27 25/25/25
f 31/31/31 30/30/30 29/29/29
f 32/32/32 31/31/31 29/29/29
f 35/35/35 34/34/34 33/33/33
f 36/36/36 35/35/35 33/33/33
f 39/39/39 38/38/38 37/37/37
f 40/40/40 39/39/39 37/37/37
f 43/43/43 42/42/42 41/41/41
f 44/44/44 43/43/43 41/41/41
f 47/47/47 46/46/46 45/45/45
f 48/48/48 47/47/47 45/45/45
f 51/51/51 50/50/50 49/49/49
f 52/52/52 51/51/51 49/49/49
f 55/55/55 54/54/54 53/53/53
f 56/56/56 55/55/55 53/53/53
f 59/59/59 58/58/58 57/57/57
f 60/60/60 59/59/59 57/57/57
f 63/63/63 62/62/62 61/61/61
f 64/64/64 63/63/63 61/61/61
f 67/67/67 66/66/66 65/65/65
f 68/68/68 67/67/67 65/65/65
f 71/71/71 70/70/70 69/69/69
f 72/72/72 71/71/71 69/69/69
f 75/75/75 74/74/74 73/73/73
f 76/76/76 75/75/75 73/73/73
f 79/79/79 78/78/78 77/77/77
f 80/80/80 79/79/79 77/77/77
f 83/83/83 82/82/82 81/81/81
f 84/84/84 83/83/83 81/81/81
f 87/87/87 86/86/86 85/85/85
f 88/88/88 87/87/87 85/85/85
f 91/91/91 90/90/90 89/89/89
f 92/92/92 91/91/91 89/89/89
f 95/95/95 94/94/94 93/93/93
f 96/96/96 95/95/95 93/93/93
f 99/99/99 98/98/98 97/97/97
f 100/100/100 99/99/99 97/97/97
f 103/103/103 102/102/102 101/101/101
f 104/104/104 103/103/103 101/101/101
f 107/107/107 106/106/106 105/105/105
f 108/108/108 107/107/107 105/105/105
f 111/111/111 110/110/110 109/109/109
f 112/112/112 111/111/111 109/109/109
f 115/115/115 114/114/114 113/113/113
f 116/116/116 115/115/115 113/113/113
f 119/119/119 118/118/118 117/117/117
f 120/120/120 119/119/119 117/117/117
f 123/123/123 122/122/122 121/121/121
f 124/124/124 123/123/123 121/121/121
f 127/127/127 126/126/126 125/125/125
f 128/128/128 127/127/127 125/125/125
