g frogcave_cup
v 0.4542333 0.1321451 -0.02348608
v 0.6531395 0.1685747 0.07294005
v 0.6531395 0.1685747 -0.1263674
v -0.07114727 0.6542605 -0.3680072
v 0.3668061 0.6542557 -0.1940591
v 0.3800957 0.7388005 -0.1999314
v -0.07492486 0.7388024 -0.3763857
v 0.3668061 0.6542557 -0.1940591
v 0.3675986 0.6542869 0.1488737
v 0.3809219 0.7388005 0.1559562
v 0.3800957 0.7388005 -0.1999314
v 0.3675986 0.6542869 0.1488737
v -0.07748775 0.6543044 0.303063
v -0.08176602 0.7388041 0.3123023
v 0.3809219 0.7388005 0.1559562
v -0.399125 0.7388005 -0.02025556
v -0.3840511 0.6542869 -0.02092313
v -0.07114727 0.6542605 -0.3680072
v -0.07492486 0.7388024 -0.3763857
v -0.06776443 0.4506775 0.2820297
v -0.3498361 0.4506419 -0.02251243
v -0.3840511 0.6542869 -0.02092313
v -0.07748775 0.6543044 0.303063
v 0.2809169 0.01687002 -0.1567308
v -0.04654353 0.01687467 -0.3144435
v -0.2863212 0.0169147 -0.02593587
v 0.2815136 0.0169147 0.1023373
v -0.04963662 0.01693587 0.2425756
v 0.2541032 0.7295594 0.08828782
v 0.2221313 0.1458248 0.06734402
v 0.2216999 0.1458697 -0.1333219
v 0.2536382 0.7295281 -0.1459179
v -0.2591712 0.7295594 -0.02766026
v -0.04108349 0.7295303 -0.2988496
v -0.02881663 0.145865 -0.2797378
v -0.2176629 0.1458248 -0.03200494
v -0.2176629 0.1458248 -0.03200494
v -0.02881663 0.145865 -0.2797378
v 0.2216999 0.1458697 -0.1333219
v 0.2221313 0.1458248 0.06734402
v -0.0296581 0.1458035 0.1978481
v -0.04323617 0.7295721 0.2243461
v -0.2591712 0.7295594 -0.02766026
v -0.2176629 0.1458248 -0.03200494
v -0.0296581 0.1458035 0.1978481
v -0.08176602 0.7388041 0.3123023
v -0.07748775 0.6543044 0.303063
v -0.3840511 0.6542869 -0.02092313
v -0.399125 0.7388005 -0.02025556
v -0.04323617 0.7295721 0.2243461
v -0.0296581 0.1458035 0.1978481
v 0.2221313 0.1458248 0.06734402
v 0.2541032 0.7295594 0.08828782
v 0.2536382 0.7295281 -0.1459179
v 0.2216999 0.1458697 -0.1333219
v -0.02881663 0.145865 -0.2797378
v -0.04108349 0.7295303 -0.2988496
v -0.3498361 0.4506419 -0.02251243
v -0.06256131 0.4505782 -0.349069
v -0.07114727 0.6542605 -0.3680072
v -0.3840511 0.6542869 -0.02092313
v 0.3373894 0.4506419 0.132731
v -0.06776443 0.4506775 0.2820297
v -0.07748775 0.6543044 0.303063
v 0.3675986 0.6542869 0.1488737
v 0.3366681 0.4505697 -0.1808097
v 0.3373894 0.4506419 0.132731
v 0.3675986 0.6542869 0.1488737
v 0.3668061 0.6542557 -0.1940591
v -0.06256131 0.4505782 -0.349069
v 0.3366681 0.4505697 -0.1808097
v 0.3668061 0.6542557 -0.1940591
v -0.07114727 0.6542605 -0.3680072
v -0.04654353 0.01687467 -0.3144435
v 0.2809169 0.01687002 -0.1567308
v 0.3366681 0.4505697 -0.1808097
v -0.06256131 0.4505782 -0.349069
v 0.2809169 0.01687002 -0.1567308
v 0.2815136 0.0169147 0.1023373
v 0.3373894 0.4506419 0.132731
v 0.3366681 0.4505697 -0.1808097
v 0.2815136 0.0169147 0.1023373
v -0.04963662 0.01693587 0.2425756
v -0.06776443 0.4506775 0.2820297
v 0.3373894 0.4506419 0.132731
v -0.3498361 0.4506419 -0.02251243
v -0.2863212 0.0169147 -0.02593587
v -0.04654353 0.01687467 -0.3144435
v -0.06256131 0.4505782 -0.349069
v 0.3142657 0.4375335 -0.02348609
v 0.5073028 0.6085432 -0.103842
v 0.3616623 0.6637075 -0.1045348
v 0.4043949 0.420245 -0.02348609
v 0.6531395 0.1685747 -0.1263674
v 0.4542333 0.1321451 -0.02348608
v 0.5073028 0.6085432 -0.103842
v 0.6531395 0.1685747 -0.1263674
v 0.6531395 0.1685747 0.07294005
v 0.5073028 0.6085432 0.06499796
v 0.357468 0.6657987 0.06185798
v 0.3616623 0.6637075 -0.1045348
v 0.4043949 0.420245 -0.02348609
v 0.3142657 0.4375335 -0.02348609
v 0.357468 0.6657987 0.06185798
v 0.5073028 0.6085432 0.06499796
v 0.4542333 0.1321451 -0.02348608
v 0.6531395 0.1685747 0.07294005
v -0.06776443 0.4506775 0.2820297
v -0.04963662 0.01693587 0.2425756
v -0.2863212 0.0169147 -0.02593587
v -0.3498361 0.4506419 -0.02251243
v -0.399125 0.7388005 -0.02025556
v -0.04108349 0.7295303 -0.2988496
v -0.2591712 0.7295594 -0.02766026
v -0.04323617 0.7295721 0.2243461
v -0.07492486 0.7388024 -0.3763857
v -0.08176602 0.7388041 0.3123023
v 0.3800957 0.7388005 -0.1999314
v 0.2541032 0.7295594 0.08828782
v 0.2536382 0.7295281 -0.1459179
v 0.3809219 0.7388005 0.1559562
vt 0.08293846 0.7874792
vt 0.09645911 0.7848689
vt 0.100489 0.7887982
vt 0.1814747 0.920668
vt 0.1741398 0.9311175
vt 0.1708869 0.9483483
vt 0.1793223 0.936331
vt 0.1741398 0.9311175
vt 0.1836937 0.9409491
vt 0.1818742 0.959655
vt 0.1708869 0.9483483
vt 0.1836937 0.9409491
vt 0.2029421 0.9427593
vt 0.2040106 0.9617367
vt 0.1818742 0.959655
vt 0.2192107 0.9400823
vt 0.2161592 0.9239299
vt 0.1814747 0.920668
vt 0.1793223 0.936331
vt 0.09694901 0.8069388
vt 0.09694901 0.8069388
vt 0.09694901 0.8069388
vt 0.09694901 0.8069388
vt 0.1773926 0.9138867
vt 0.1836271 0.905005
vt 0.2131077 0.9077775
vt 0.1855132 0.9222432
vt 0.2018737 0.9237819
vt 0.1866026 0.9553156
vt 0.1893398 0.9263142
vt 0.1842341 0.9210601
vt 0.1793404 0.9478424
vt 0.2112805 0.9423789
vt 0.1849158 0.9398995
vt 0.188154 0.9154758
vt 0.2066897 0.917219
vt 0.2066897 0.917219
vt 0.188154 0.9154758
vt 0.1842341 0.9210601
vt 0.1893398 0.9263142
vt 0.1996264 0.9272816
vt 0.2012339 0.9566917
vt 0.2112805 0.9423789
vt 0.2066897 0.917219
vt 0.1996264 0.9272816
vt 0.2040106 0.9617367
vt 0.2029421 0.9427593
vt 0.2161592 0.9239299
vt 0.2192107 0.9400823
vt 0.2012339 0.9566917
vt 0.1996264 0.9272816
vt 0.1893398 0.9263142
vt 0.1866026 0.9553156
vt 0.1793404 0.9478424
vt 0.1842341 0.9210601
vt 0.188154 0.9154758
vt 0.1849158 0.9398995
vt 0.09694901 0.8069388
vt 0.09694901 0.8069388
vt 0.09694901 0.8069388
vt 0.09694901 0.8069388
vt 0.09694901 0.8069388
vt 0.09694901 0.8069388
vt 0.09694901 0.8069388
vt 0.09694901 0.8069388
vt 0.09694901 0.8069388
vt 0.09694901 0.8069388
vt 0.09694901 0.8069388
vt 0.09694901 0.8069388
vt 0.09694901 0.8069388
vt 0.09694901 0.8069388
vt 0.09694901 0.8069388
vt 0.09694901 0.8069388
vt 0.1836271 0.905005
vt 0.1773926 0.9138867
vt 0.1757662 0.9225022
vt 0.1825509 0.9128366
vt 0.1773926 0.9138867
vt 0.1855132 0.9222432
vt 0.1846034 0.9315962
vt 0.1757662 0.9225022
vt 0.1855132 0.9222432
vt 0.2018737 0.9237819
vt 0.2024079 0.9332706
vt 0.1846034 0.9315962
vt 0.2146334 0.9158537
vt 0.2131077 0.9077775
vt 0.1836271 0.905005
vt 0.1825509 0.9128366
vt 0.07095642 0.813637
vt 0.08836974 0.8225785
vt 0.07095642 0.8279431
vt 0.08023833 0.8112195
vt 0.100489 0.7887982
vt 0.08293846 0.7874792
vt 0.08836974 0.8225785
vt 0.100489 0.7887982
vt 0.09645911 0.7848689
vt 0.08511049 0.8194006
vt 0.06769717 0.8247653
vt 0.07095642 0.8279431
vt 0.07697906 0.8080416
vt 0.06769717 0.8104592
vt 0.06769717 0.8247653
vt 0.08511049 0.8194006
vt 0.07890851 0.7835498
vt 0.09645911 0.7848689
vt 0.2024079 0.9332706
vt 0.2018737 0.9237819
vt 0.2131077 0.9077775
vt 0.2146334 0.9158537
vt 0.1930612 0.9340549
vt 0.1930612 0.9340549
vt 0.1930612 0.9340549
vt 0.1930612 0.9340549
vt 0.1930612 0.9340549
vt 0.1930612 0.9340549
vt 0.1930612 0.9340549
vt 0.1930612 0.9340549
vt 0.1930612 0.9340549
vt 0.1930612 0.9340549
vn -0.7188787 -0.6951348 0.00109869
vn 0.5652444 -0.4323948 0.7025194
vn 0.5592658 -0.4215323 -0.7138154
vn -0.2245918 -0.1248241 -0.9664252
vn 0.8167811 -0.1485667 -0.5574913
vn 0.8209971 -0.1536642 -0.5498646
vn -0.2334751 -0.1279993 -0.9639012
vn 0.8167811 -0.1485667 -0.5574913
vn 0.8044853 -0.156899 0.5728753
vn 0.8074478 -0.1617825 0.5673223
vn 0.8209971 -0.1536642 -0.5498646
vn 0.8044853 -0.156899 0.5728753
vn -0.2341413 -0.1334898 0.9629945
vn -0.2434481 -0.1366324 0.9602419
vn 0.8074478 -0.1617825 0.5673223
vn -0.9871269 -0.1593381 0.01385548
vn -0.9878755 -0.1548238 0.01147521
vn -0.2245918 -0.1248241 -0.9664252
vn -0.2334751 -0.1279993 -0.9639012
vn -0.2293848 -0.1238483 0.9654244
vn -0.9900526 -0.1401456 0.01245196
vn -0.9878755 -0.1548238 0.01147521
vn -0.2341413 -0.1334898 0.9629945
vn -3.051851E-05 -1 0.000122074
vn -3.051851E-05 -1 0.000122074
vn -3.051944E-05 -1 0.0001220778
vn -3.051851E-05 -1 0.000122074
vn -3.051851E-05 -1 0.000122074
vn -0.8464469 0.05783368 -0.5293231
vn -0.6587012 0.6302876 -0.4109139
vn -0.6658674 0.6311976 0.3977564
vn -0.8605215 0.05029577 0.5069252
vn 0.9978733 0.06244147 -0.01870802
vn 0.2057871 0.0498064 0.9773285
vn 0.1559835 0.5982369 0.7859909
vn 0.7873374 0.6164293 -0.01071228
vn 0.7873374 0.6164293 -0.01071228
vn 0.1559835 0.5982369 0.7859909
vn -0.6658674 0.6311976 0.3977564
vn -0.6587012 0.6302876 -0.4109139
vn 0.1617813 0.6081828 -0.7771361
vn 0.2135699 0.06115948 -0.9750115
vn 0.9978733 0.06244147 -0.01870802
vn 0.7873374 0.6164293 -0.01071228
vn 0.1617813 0.6081828 -0.7771361
vn -0.2434481 -0.1366324 0.9602419
vn -0.2341413 -0.1334898 0.9629945
vn -0.9878755 -0.1548238 0.01147521
vn -0.9871269 -0.1593381 0.01385548
vn 0.2135699 0.06115948 -0.9750115
vn 0.1617813 0.6081828 -0.7771361
vn -0.6587012 0.6302876 -0.4109139
vn -0.8464469 0.05783368 -0.5293231
vn -0.8605215 0.05029577 0.5069252
vn -0.6658674 0.6311976 0.3977564
vn 0.1559835 0.5982369 0.7859909
vn 0.2057871 0.0498064 0.9773285
vn -0.9900526 -0.1401456 0.01245196
vn -0.2200411 -0.1149036 -0.9686997
vn -0.2245918 -0.1248241 -0.9664252
vn -0.9878755 -0.1548238 0.01147521
vn 0.8126307 -0.1422493 0.5651518
vn -0.2293848 -0.1238483 0.9654244
vn -0.2341413 -0.1334898 0.9629945
vn 0.8044853 -0.156899 0.5728753
vn 0.8251117 -0.1339784 -0.5488537
vn 0.8126307 -0.1422493 0.5651518
vn 0.8044853 -0.156899 0.5728753
vn 0.8167811 -0.1485667 -0.5574913
vn -0.2200411 -0.1149036 -0.9686997
vn 0.8251117 -0.1339784 -0.5488537
vn 0.8167811 -0.1485667 -0.5574913
vn -0.2245918 -0.1248241 -0.9664252
vn -0.2101253 -0.107611 -0.9717342
vn 0.8276606 -0.1231465 -0.5475518
vn 0.8251117 -0.1339784 -0.5488537
vn -0.2200411 -0.1149036 -0.9686997
vn 0.8276606 -0.1231465 -0.5475518
vn 0.8167105 -0.131566 0.561849
vn 0.8126307 -0.1422493 0.5651518
vn 0.8251117 -0.1339784 -0.5488537
vn 0.8167105 -0.131566 0.561849
vn -0.2194001 -0.1168873 0.9686077
vn -0.2293848 -0.1238483 0.9654244
vn 0.8126307 -0.1422493 0.5651518
vn -0.9900526 -0.1401456 0.01245196
vn -0.9915303 -0.1294309 0.01074267
vn -0.2101253 -0.107611 -0.9717342
vn -0.2200411 -0.1149036 -0.9686997
vn -0.3074225 -0.9515662 0.003631816
vn -0.2440632 -0.245986 -0.9380427
vn -0.09860814 -0.3298536 -0.938868
vn -0.8282987 -0.5602156 -0.008942208
vn 0.5592658 -0.4215323 -0.7138154
vn -0.7188787 -0.6951348 0.00109869
vn 0.7268437 0.6868026 -0.0007324592
vn 0.5592658 -0.4215323 -0.7138154
vn 0.5652444 -0.4323948 0.7025194
vn 0.7261465 0.6875395 -0.000732464
vn 0.3556041 0.9346356 -0.001373342
vn 0.3556041 0.9346356 -0.001373342
vn -0.8282987 -0.5602156 -0.008942208
vn -0.3074225 -0.9515662 0.003631816
vn -0.1197262 -0.3462689 0.9304641
vn -0.2542585 -0.2620105 0.9309689
vn -0.7188787 -0.6951348 0.00109869
vn 0.5652444 -0.4323948 0.7025194
vn -0.2293848 -0.1238483 0.9654244
vn -0.2194001 -0.1168873 0.9686077
vn -0.9915303 -0.1294309 0.01074267
vn -0.9900526 -0.1401456 0.01245196
vn 0.07382556 0.9972708 -0.0009155712
vn 0.01016276 0.9959503 0.08932851
vn 0.07413094 0.9972428 0.003387623
vn 0.01132252 0.9965952 -0.08166862
vn 0.02734536 0.9960914 0.08398932
vn 0.02502562 0.996691 -0.07733526
vn -0.06265572 0.9971201 0.04272674
vn -0.05447697 0.9972489 -0.0502653
vn -0.05914651 0.9966096 0.05719327
vn -0.05759019 0.9974669 -0.04175059
g frogcave_cup_0
f 3/3/3 2/2/2 1/1/1
f 6/6/6 5/5/5 4/4/4
f 7/7/7 6/6/6 4/4/4
f 10/10/10 9/9/9 8/8/8
f 11/11/11 10/10/10 8/8/8
f 14/14/14 13/13/13 12/12/12
f 15/15/15 14/14/14 12/12/12
f 18/18/18 17/17/17 16/16/16
f 19/19/19 18/18/18 16/16/16
f 22/22/22 21/21/21 20/20/20
f 23/23/23 22/22/22 20/20/20
f 26/26/26 25/25/25 24/24/24
f 24/24/24 27/27/27 26/26/26
f 27/27/27 28/28/28 26/26/26
f 31/31/31 30/30/30 29/29/29
f 32/32/32 31/31/31 29/29/29
f 35/35/35 34/34/34 33/33/33
f 36/36/36 35/35/35 33/33/33
f 39/39/39 38/38/38 37/37/37
f 37/37/37 40/40/40 39/39/39
f 37/37/37 41/41/41 40/40/40
f 44/44/44 43/43/43 42/42/42
f 45/45/45 44/44/44 42/42/42
f 48/48/48 47/47/47 46/46/46
f 49/49/49 48/48/48 46/46/46
f 52/52/52 51/51/51 50/50/50
f 53/53/53 52/52/52 50/50/50
f 56/56/56 55/55/55 54/54/54
f 57/57/57 56/56/56 54/54/54
f 60/60/60 59/59/59 58/58/58
f 61/61/61 60/60/60 58/58/58
f 64/64/64 63/63/63 62/62/62
f 65/65/65 64/64/64 62/62/62
f 68/68/68 67/67/67 66/66/66
f 69/69/69 68/68/68 66/66/66
f 72/72/72 71/71/71 70/70/70
f 73/73/73 72/72/72 70/70/70
f 76/76/76 75/75/75 74/74/74
f 77/77/77 76/76/76 74/74/74
f 80/80/80 79/79/79 78/78/78
f 81/81/81 80/80/80 78/78/78
f 84/84/84 83/83/83 82/82/82
f 85/85/85 84/84/84 82/82/82
f 88/88/88 87/87/87 86/86/86
f 89/89/89 88/88/88 86/86/86
f 92/92/92 91/91/91 90/90/90
f 91/91/91 93/93/93 90/90/90
f 91/91/91 94/94/94 93/93/93
f 94/94/94 95/95/95 93/93/93
f 98/98/98 97/97/97 96/96/96
f 99/99/99 98/98/98 96/96/96
f 100/100/100 99/99/99 96/96/96
f 101/101/101 100/100/100 96/96/96
f 104/104/104 103/103/103 102/102/102
f 105/105/105 104/104/104 102/102/102
f 102/102/102 106/106/106 105/105/105
f 106/106/106 107/107/107 105/105/105
f 110/110/110 109/109/109 108/108/108
f 111/111/111 110/110/110 108/108/108
f 114/114/114 113/113/113 112/112/112
f 115/115/115 114/114/114 112/112/112
f 113/113/113 116/116/116 112/112/112
f 117/117/117 115/115/115 112/112/112
f 116/116/116 113/113/113 118/118/118
f 119/119/119 115/115/115 117/117/117
f 113/113/113 120/120/120 118/118/118
f 121/121/121 119/119/119 117/117/117
f 118/118/118 120/120/120 121/121/121
f 120/120/120 119/119/119 121/121/121
