g frogcave_hanging_hook
v -0.2917486 -0.01607439 0.3989429
v -0.5681024 -0.01607445 -0.01365195
v -3.771237E-08 0.5520279 -0.01365195
v 6.204806E-09 0.2756743 0.3989429
v 2.031967E-08 -0.5841768 -0.01365195
v 0.2917486 -0.01607439 0.3989429
v 0.5681024 -0.01607439 -0.01365207
v 3.600713E-08 -0.307823 0.3989429
v 0.2917486 0.1812552 0.980812
v 3.600713E-08 -0.04548249 1.164408
v 0.1625033 0.8773797 1.284518
v -2.341405E-09 0.8192452 1.436266
v 0.2917486 -0.01607439 0.3989429
v 0.2917486 0.1812552 0.980812
v 6.204806E-09 0.4079928 0.7972165
v 6.204806E-09 0.2756743 0.3989429
v 0.5681024 -0.01607439 -0.01365207
v -3.771237E-08 0.5520279 -0.01365195
v -0.5681024 -0.01607445 -0.01365195
v 3.600713E-08 -0.307823 0.3989429
v 2.031967E-08 -0.5841768 -0.01365195
v -0.2917486 -0.01607439 0.3989429
v 3.600713E-08 -0.04548249 1.164408
v -0.2917486 0.1812552 0.9808123
v 0.2917486 0.1812552 0.980812
v 0.1625033 0.8773797 1.284518
v -1.894123E-08 0.9355144 1.132769
v 6.204806E-09 0.4079928 0.7972165
v 6.204806E-09 0.2756743 0.3989429
v -0.2917486 0.1812552 0.9808123
v -0.2917486 -0.01607439 0.3989429
v 6.204806E-09 0.4079928 0.7972165
v -0.1625033 0.8773798 1.284518
v -1.894123E-08 0.9355144 1.132769
v -2.341405E-09 0.8192452 1.436266
v -0.1625033 0.8773798 1.284518
v -1.894123E-08 0.9355144 1.132769
v 0.1625033 0.8773797 1.284518
v -0.2917486 0.1812552 0.9808123
v -0.1625033 0.8773798 1.284518
v -2.341405E-09 0.8192452 1.436266
v 3.600713E-08 -0.04548249 1.164408
vt 0.06514549 0.8188545
vt 0.06551707 0.8177951
vt 0.05674872 0.8088518
vt 0.06064254 0.8142617
vt 0.05674872 0.8280039
vt 0.05613959 0.8195044
vt 0.04798037 0.8190606
vt 0.06064254 0.8240972
vt 0.0616309 0.8172382
vt 0.0678665 0.8210695
vt 0.0664919 0.8059134
vt 0.07043213 0.8069888
vt 0.05613959 0.8195044
vt 0.0616309 0.8172382
vt 0.06440121 0.8127568
vt 0.06064254 0.8142617
vt 0.04798037 0.8190606
vt 0.05674872 0.8088518
vt 0.06551707 0.8177951
vt 0.06064254 0.8240972
vt 0.05674872 0.8280039
vt 0.06514549 0.8188545
vt 0.0678665 0.8210695
vt 0.07063681 0.8165882
vt 0.0616309 0.8172382
vt 0.0664919 0.8059134
vt 0.06756794 0.8044761
vt 0.06440121 0.8127568
vt 0.06064254 0.8142617
vt 0.07063681 0.8165882
vt 0.06514549 0.8188545
vt 0.06440121 0.8127568
vt 0.07150817 0.8055515
vt 0.06756794 0.8044761
vt 0.07043213 0.8069888
vt 0.07150817 0.8055515
vt 0.06756794 0.8044761
vt 0.0664919 0.8059134
vt 0.07063681 0.8165882
vt 0.07150817 0.8055515
vt 0.07043213 0.8069888
vt 0.0678665 0.8210695
vn -0.9313357 -0.06250411 0.3587577
vn -0.8308557 0 0.5564878
vn 0 0.8308557 0.5564878
vn 0 0.9856085 0.1690443
vn 0 -0.8308557 0.5564878
vn 0.9313357 -0.06250411 0.3587577
vn 0.8308557 0 0.5564878
vn 0 -0.8832023 0.4689923
vn 0.9828068 -0.06640957 0.1722804
vn 0 -0.7091486 0.7050591
vn 0.7656412 0.5859122 0.2655191
vn 0 0.2637191 0.9645995
vn 0.9313357 -0.06250411 0.3587577
vn 0.9828068 -0.06640957 0.1722804
vn 0 0.7912514 -0.6114909
vn 0 0.9856085 0.1690443
vn 0.8308557 0 0.5564878
vn 0 0.8308557 0.5564878
vn -0.8308557 0 0.5564878
vn 0 -0.8832023 0.4689923
vn 0 -0.8308557 0.5564878
vn -0.9313357 -0.06250411 0.3587577
vn 0 -0.7091486 0.7050591
vn -0.9828068 -0.06640957 0.1722804
vn 0.9828068 -0.06640957 0.1722804
vn 0.7656412 0.5859122 0.2655191
vn 0 0.8796033 -0.4757079
vn 0 0.7912514 -0.6114909
vn 0 0.9856085 0.1690443
vn -0.9828068 -0.06640957 0.1722804
vn -0.9313357 -0.06250411 0.3587577
vn 0 0.7912514 -0.6114909
vn -0.7656412 0.5859122 0.2655191
vn 0 0.8796033 -0.4757079
vn 0 0.2637191 0.9645995
vn -0.7656412 0.5859122 0.2655191
vn 0 0.8796033 -0.4757079
vn 0.7656412 0.5859122 0.2655191
vn -0.9828068 -0.06640957 0.1722804
vn -0.7656412 0.5859122 0.2655191
vn 0 0.2637191 0.9645995
vn 0 -0.7091486 0.7050591
g frogcave_hanging_hook_0
f 3/3/3 2/2/2 1/1/1
f 4/4/4 3/3/3 1/1/1
f 7/7/7 6/6/6 5/5/5
f 6/6/6 8/8/8 5/5/5
f 6/6/6 9/9/9 8/8/8
f 9/9/9 10/10/10 8/8/8
f 9/9/9 11/11/11 10/10/10
f 11/11/11 12/12/12 10/10/10
f 15/15/15 14/14/14 13/13/13
f 16/16/16 15/15/15 13/13/13
f 16/16/16 13/13/13 17/17/17
f 18/18/18 16/16/16 17/17/17
f 21/21/21 20/20/20 19/19/19
f 20/20/20 22/22/22 19/19/19
f 20/20/20 23/23/23 22/22/22
f 23/23/23 24/24/24 22/22/22
f 27/27/27 26/26/26 25/25/25
f 28/28/28 27/27/27 25/25/25
f 31/31/31 30/30/30 29/29/29
f 30/30/30 32/32/32 29/29/29
f 30/30/30 33/33/33 32/32/32
f 33/33/33 34/34/34 32/32/32
f 37/37/37 36/36/36 35/35/35
f 38/38/38 37/37/37 35/35/35
f 41/41/41 40/40/40 39/39/39
f 42/42/42 41/41/41 39/39/39
