g head
v 0 1.169348 0.6257079
v 0 1.009411 0.3659759
v 0.3421547 1.028054 0.5067718
v 0.2762816 1.125907 0.6482627
v 0 1.221811 1.031961
v 0.4795232 1.002649 0.7900481
v 0.4402438 1.079964 1.000214
v 0 1.094667 1.375289
v 0.6055208 0.6575866 0.9617548
v 0.3394239 1.007363 1.36385
v 0 0.9250772 1.505918
v 0.5468986 0.6610041 1.201956
v 0.4741361 0.2907361 0.8263454
v 0.4420755 0.2361736 1.002624
v 0.3732607 0.2917479 0.4635367
v 0.2028363 0.8532896 1.515641
v 0 0.6585829 1.579226
v 0.4277179 0.6717691 1.430476
v 0.288869 0.6585829 1.523268
v 0 0.3919188 1.508654
v 0.3268516 0.3179823 1.35929
v 0.1945131 0.4658457 1.47785
v 0 0.2191582 1.351439
v 0 0.09756398 1.037467
v 0 0.1359525 0.6303952
v 0.3359008 0.1821484 0.6481038
v 0 0.2728782 0.3673104
v 0.3732607 0.2917479 0.4635367
v 0 0.4296237 0.1404694
v 0 0.2728782 0.3673104
v 0.6231539 0.422509 0.2742407
v 0.4741361 0.2907361 0.8263454
v 0.6456653 0.6502471 0.1526735
v 0 0.6459078 0.04180136
v 0.6202552 0.8607366 0.2640218
v 0 0.8507249 0.1375282
v 0 1.009411 0.3659759
v 0.3421547 1.028054 0.5067718
v 0.7597351 0.4000242 0.573467
v 0.6055208 0.6575866 0.9617548
v 0.7797589 0.6547136 0.7423739
v 0.4795232 1.002649 0.7900481
v 0.7558241 0.8960681 0.57652
v 1.018764 0.8486836 0.7352877
v 1.103949 0.8219419 0.5658131
v 1.223105 0.8456683 1.150512
v 1.105788 0.4817843 0.566527
v 1.026273 0.4597181 0.7311785
v 1.15379 0.6589942 0.5142603
v 1.401675 0.8220489 1.118837
v 1.231285 0.8203788 1.604713
v 1.402706 0.501644 1.118736
v 1.232368 0.4777646 1.152268
v 1.469069 0.6679921 1.122724
v 1.397181 0.8035717 1.646867
v 1.111364 0.7648921 1.924405
v 1.209076 0.7594166 1.974782
v 1.454175 0.6706493 1.673098
v 1.397823 0.5275934 1.642615
v 1.239046 0.5107932 1.608047
v 1.238919 0.6721625 1.995992
v 1.10783 0.6704581 2.020689
v 1.208379 0.5801395 1.966309
v 1.115099 0.5722756 1.925332
v 0.7797589 0.6547136 0.7423739
v 1.026273 0.4597181 0.7311785
v 0.7597351 0.4000242 0.573467
v 0.9793344 0.6600869 0.8349097
v 0.7558241 0.8960681 0.57652
v 1.232368 0.4777646 1.152268
v 1.018764 0.8486836 0.7352877
v 1.148467 0.6661882 1.182065
v 1.239046 0.5107932 1.608047
v 1.223105 0.8456683 1.150512
v 1.16458 0.6693835 1.595007
v 1.231285 0.8203788 1.604713
v 1.115099 0.5722756 1.925332
v 1.072237 0.670258 1.90481
v 1.111364 0.7648921 1.924405
v 1.10783 0.6704581 2.020689
v 1.208379 0.5801395 1.966309
v 1.209076 0.7594166 1.974782
v 0 0.9250772 1.596323
v 0 0.9250772 1.472226
v 0.219214 0.8532896 1.472226
v 0.2028363 0.8532896 1.606046
v 0.3052468 0.6585829 1.472226
v 0 0.8820231 1.719685
v 0.288869 0.6585829 1.613673
v 0.2108908 0.4658457 1.472226
v 0.1602951 0.8256249 1.6912
v 0.1985785 0.6563752 1.740099
v 0 0.6538668 1.797239
v 0.1945131 0.4658457 1.568256
v 0 0.3919188 1.472226
v 0 0.3919188 1.599059
v 0.1361531 0.5025617 1.697089
v 0 0.4362102 1.721973
v 0 1.169348 0.6257079
v -0.3421547 1.028054 0.5067718
v 0 1.009411 0.3659759
v -0.2762816 1.125907 0.6482627
v 0 1.221811 1.031961
v -0.4795232 1.002649 0.7900481
v -0.4402438 1.079964 1.000214
v 0 1.094667 1.375289
v -0.6055208 0.6575866 0.9617548
v -0.3394239 1.007363 1.36385
v 0 0.9250772 1.505918
v -0.5468986 0.6610041 1.201956
v -0.4741361 0.2907361 0.8263454
v -0.4420755 0.2361736 1.002624
v -0.3732607 0.2917479 0.4635367
v -0.2028363 0.8532896 1.515641
v 0 0.6585829 1.579226
v -0.4277179 0.6717691 1.430476
v -0.288869 0.6585829 1.523268
v 0 0.3919188 1.508654
v -0.3268516 0.3179823 1.35929
v -0.1945131 0.4658457 1.47785
v 0 0.2191582 1.351439
v 0 0.09756398 1.037467
v 0 0.1359525 0.6303952
v -0.3359008 0.1821484 0.6481038
v 0 0.2728782 0.3673104
v -0.3732607 0.2917479 0.4635367
v 0 0.2728782 0.3673104
v 0 0.4296237 0.1404694
v -0.6231539 0.422509 0.2742407
v -0.4741361 0.2907361 0.8263454
v -0.6456653 0.6502471 0.1526735
v 0 0.6459078 0.04180136
v -0.6202552 0.8607366 0.2640218
v 0 0.8507249 0.1375282
v 0 1.009411 0.3659759
v -0.3421547 1.028054 0.5067718
v -0.7597351 0.4000242 0.573467
v -0.6055208 0.6575866 0.9617548
v -0.7797589 0.6547136 0.7423739
v -0.4795232 1.002649 0.7900481
v -0.7558241 0.8960681 0.57652
v -1.018764 0.8486836 0.7352877
v -1.103949 0.8219419 0.5658131
v -1.223105 0.8456683 1.150512
v -1.105788 0.4817843 0.566527
v -1.026273 0.4597181 0.7311785
v -1.15379 0.6589942 0.5142603
v -1.401675 0.8220489 1.118837
v -1.231285 0.8203788 1.604713
v -1.402706 0.501644 1.118736
v -1.232368 0.4777646 1.152268
v -1.469069 0.6679921 1.122724
v -1.397181 0.8035717 1.646867
v -1.111364 0.7648921 1.924405
v -1.209076 0.7594166 1.974782
v -1.454175 0.6706493 1.673098
v -1.397823 0.5275934 1.642615
v -1.239046 0.5107932 1.608047
v -1.238919 0.6721625 1.995992
v -1.10783 0.6704581 2.020689
v -1.208379 0.5801395 1.966309
v -1.115099 0.5722756 1.925332
v -0.7797589 0.6547136 0.7423739
v -0.7597351 0.4000242 0.573467
v -1.026273 0.4597181 0.7311785
v -0.9793344 0.6600869 0.8349097
v -0.7558241 0.8960681 0.57652
v -1.232368 0.4777646 1.152268
v -1.018764 0.8486836 0.7352877
v -1.148467 0.6661882 1.182065
v -1.239046 0.5107932 1.608047
v -1.223105 0.8456683 1.150512
v -1.16458 0.6693835 1.595007
v -1.231285 0.8203788 1.604713
v -1.115099 0.5722756 1.925332
v -1.072237 0.670258 1.90481
v -1.111364 0.7648921 1.924405
v -1.10783 0.6704581 2.020689
v -1.208379 0.5801395 1.966309
v -1.209076 0.7594166 1.974782
v 0 0.9250772 1.596323
v -0.219214 0.8532896 1.472226
v 0 0.9250772 1.472226
v -0.2028363 0.8532896 1.606046
v -0.3052468 0.6585829 1.472226
v 0 0.8820231 1.719685
v -0.288869 0.6585829 1.613673
v -0.2108908 0.4658457 1.472226
v -0.1602951 0.8256249 1.6912
v -0.1985785 0.6563752 1.740099
v 0 0.6538668 1.797239
v -0.1945131 0.4658457 1.568256
v 0 0.3919188 1.472226
v 0 0.3919188 1.599059
v -0.1361531 0.5025617 1.697089
v 0 0.4362102 1.721973
vt 0.6532463 0.6888824
vt 0.7685083 0.6179067
vt 0.7060268 0.6261801
vt 0.6432369 0.6696045
vt 0.4729619 0.7121641
vt 0.5803165 0.6149058
vt 0.4870506 0.649216
vt 0.3206024 0.655741
vt 0.5041177 0.4617765
vt 0.3256788 0.6169977
vt 0.2626328 0.5804816
vt 0.3975227 0.463293
vt 0.5642088 0.2989781
vt 0.4859812 0.2747647
vt 0.7252135 0.2994271
vt 0.258318 0.5486242
vt 0.2301008 0.4622186
vt 0.2961118 0.4680703
vt 0.2549331 0.4622186
vt 0.2614185 0.3438802
vt 0.3277024 0.3110693
vt 0.2750884 0.376687
vt 0.3311863 0.2672137
vt 0.4705186 0.2132535
vt 0.6511661 0.2302893
vt 0.6433074 0.2507898
vt 0.767916 0.2910533
vt 0.7252135 0.2994271
vt 0.868582 0.3606127
vt 0.767916 0.2910533
vt 0.8092178 0.3574553
vt 0.5642088 0.2989781
vt 0.8631662 0.4585195
vt 0.9123683 0.4565938
vt 0.8137529 0.5519291
vt 0.8698871 0.5474861
vt 0.7685083 0.6179067
vt 0.7060268 0.6261801
vt 0.6764293 0.3474772
vt 0.5041177 0.4617765
vt 0.6014732 0.4605015
vt 0.5803165 0.6149058
vt 0.6750745 0.5676081
vt 0.6046177 0.5465801
vt 0.6798258 0.5347129
vt 0.4203523 0.5452421
vt 0.6795091 0.3837602
vt 0.6064413 0.3739678
vt 0.7027037 0.4624012
vt 0.434409 0.5347605
vt 0.2187899 0.5340192
vt 0.4344536 0.3925734
vt 0.4195728 0.3819763
vt 0.4326841 0.4663942
vt 0.2000832 0.5265607
vt 0.07691941 0.5093957
vt 0.05456346 0.5069659
vt 0.1884427 0.4675733
vt 0.2019704 0.404089
vt 0.2173104 0.3966336
vt 0.045151 0.4682449
vt 0.0341911 0.4674885
vt 0.05832344 0.4274075
vt 0.07650807 0.4239178
vt 0.6014732 0.4605015
vt 0.6064413 0.3739678
vt 0.6764293 0.3474772
vt 0.5604081 0.462886
vt 0.6750745 0.5676081
vt 0.4195728 0.3819763
vt 0.6046177 0.5465801
vt 0.4063498 0.4655937
vt 0.2173104 0.3966336
vt 0.4203523 0.5452421
vt 0.2230972 0.4670116
vt 0.2187899 0.5340192
vt 0.07650807 0.4239178
vt 0.08561525 0.4673998
vt 0.07691941 0.5093957
vt 0.0341911 0.4674885
vt 0.05832344 0.4274075
vt 0.05456346 0.5069659
vt 0.2225136 0.5804816
vt 0.2775844 0.5804816
vt 0.2775844 0.5486242
vt 0.2181987 0.5486242
vt 0.2775844 0.4622186
vt 0.1677688 0.5613754
vt 0.2148137 0.4622186
vt 0.2775844 0.376687
vt 0.1804096 0.5363473
vt 0.1587097 0.4612389
vt 0.1333523 0.4601257
vt 0.234969 0.376687
vt 0.2775844 0.3438802
vt 0.2212991 0.3438802
vt 0.1777962 0.3929805
vt 0.1667532 0.3635356
vt 0.6532463 0.6888824
vt 0.7060268 0.6261801
vt 0.7685083 0.6179067
vt 0.6432369 0.6696045
vt 0.4729619 0.7121641
vt 0.5803165 0.6149058
vt 0.4870506 0.649216
vt 0.3206024 0.655741
vt 0.5041177 0.4617765
vt 0.3256788 0.6169977
vt 0.2626328 0.5804816
vt 0.3975227 0.463293
vt 0.5642088 0.2989781
vt 0.4859812 0.2747647
vt 0.7252135 0.2994271
vt 0.258318 0.5486242
vt 0.2301008 0.4622186
vt 0.2961118 0.4680703
vt 0.2549331 0.4622186
vt 0.2614185 0.3438802
vt 0.3277024 0.3110693
vt 0.2750884 0.376687
vt 0.3311863 0.2672137
vt 0.4705186 0.2132535
vt 0.6511661 0.2302893
vt 0.6433074 0.2507898
vt 0.767916 0.2910533
vt 0.7252135 0.2994271
vt 0.767916 0.2910533
vt 0.868582 0.3606127
vt 0.8092178 0.3574553
vt 0.5642088 0.2989781
vt 0.8631662 0.4585195
vt 0.9123683 0.4565938
vt 0.8137529 0.5519291
vt 0.8698871 0.5474861
vt 0.7685083 0.6179067
vt 0.7060268 0.6261801
vt 0.6764293 0.3474772
vt 0.5041177 0.4617765
vt 0.6014732 0.4605015
vt 0.5803165 0.6149058
vt 0.6750745 0.5676081
vt 0.6046177 0.5465801
vt 0.6798258 0.5347129
vt 0.4203523 0.5452421
vt 0.6795091 0.3837602
vt 0.6064413 0.3739678
vt 0.7027037 0.4624012
vt 0.434409 0.5347605
vt 0.2187899 0.5340192
vt 0.4344536 0.3925734
vt 0.4195728 0.3819763
vt 0.4326841 0.4663942
vt 0.2000832 0.5265607
vt 0.07691941 0.5093957
vt 0.05456346 0.5069659
vt 0.1884427 0.4675733
vt 0.2019704 0.404089
vt 0.2173104 0.3966336
vt 0.045151 0.4682449
vt 0.0341911 0.4674885
vt 0.05832344 0.4274075
vt 0.07650807 0.4239178
vt 0.6014732 0.4605015
vt 0.6764293 0.3474772
vt 0.6064413 0.3739678
vt 0.5604081 0.462886
vt 0.6750745 0.5676081
vt 0.4195728 0.3819763
vt 0.6046177 0.5465801
vt 0.4063498 0.4655937
vt 0.2173104 0.3966336
vt 0.4203523 0.5452421
vt 0.2230972 0.4670116
vt 0.2187899 0.5340192
vt 0.07650807 0.4239178
vt 0.08561525 0.4673998
vt 0.07691941 0.5093957
vt 0.0341911 0.4674885
vt 0.05832344 0.4274075
vt 0.05456346 0.5069659
vt 0.2225136 0.5804816
vt 0.2775844 0.5486242
vt 0.2775844 0.5804816
vt 0.2181987 0.5486242
vt 0.2775844 0.4622186
vt 0.1677688 0.5613754
vt 0.2148137 0.4622186
vt 0.2775844 0.376687
vt 0.1804096 0.5363473
vt 0.1587097 0.4612389
vt 0.1333523 0.4601257
vt 0.234969 0.376687
vt 0.2775844 0.3438802
vt 0.2212991 0.3438802
vt 0.1777962 0.3929805
vt 0.1667532 0.3635356
vn 0 0.9518006 -0.3067174
vn 0 0.8538961 -0.5204436
vn 0.359056 0.8425379 -0.4015079
vn 0.3589013 0.8953914 -0.2635605
vn 0 0.991676 0.1287586
vn 0.7682381 0.636058 -0.07239237
vn 0.6680736 0.7301504 0.143381
vn 0 0.8288059 0.5595363
vn 0.9872797 0.01065102 0.1586362
vn 0.5463868 0.6280869 0.5540472
vn 0 0.4573901 0.8892662
vn 0.9510961 -0.005096684 0.3088529
vn 0.8276775 -0.5596284 -0.04202478
vn 0.6713968 -0.7183052 0.1823841
vn 0.346178 -0.851269 -0.3943372
vn 0.2786675 0.3597866 0.8904482
vn 0 -0.04538136 0.9989697
vn 0.7583367 -0.003051902 0.6518559
vn 0.3930565 -0.03967494 0.9186579
vn 0 -0.4715226 0.881854
vn 0.5311 -0.6215903 0.5758111
vn 0.3027791 -0.3998601 0.8651224
vn 0 -0.8221263 0.5693052
vn 0 -0.9858794 0.1674567
vn 0 -0.9674423 -0.2530915
vn 0.427418 -0.8777251 -0.216593
vn 0 -0.8814287 -0.4723171
vn 0.2147643 -0.9129543 -0.3469739
vn 0 -0.6622452 -0.7492872
vn 0 -0.8572775 -0.5148548
vn 0.3238098 -0.7284347 -0.6037633
vn 0.579 -0.7691313 0.2705479
vn 0.3742272 0.004181138 -0.9273277
vn 0 -0.0003051851 -1
vn 0.3143773 0.7226619 -0.6155703
vn 0 0.6616469 -0.7498156
vn 0 0.8538826 -0.5204658
vn 0.221231 0.9074166 -0.357284
vn 0.3097996 -0.9304975 0.1954444
vn 0.7658828 0.01529019 0.6427983
vn 0.2403362 0.01376402 0.9705921
vn 0.5501122 0.8069941 0.2147956
vn 0.2972858 0.9375445 0.1806421
vn -0.2014547 0.9377517 0.2829095
vn 0.514705 0.7372198 -0.4377052
vn -0.4025185 0.9074597 0.1203985
vn 0.5357671 -0.7268792 -0.4296513
vn -0.1758831 -0.9359071 0.3051937
vn 0.747327 0.01217721 -0.6643448
vn 0.6267194 0.7644848 -0.1509498
vn -0.4516807 0.8920999 0.01193292
vn 0.6459635 -0.7504907 -0.1396241
vn -0.3873813 -0.9113364 0.13929
vn 0.9776508 0.01626671 -0.2096056
vn 0.5878227 0.7809457 0.2111596
vn -0.5992484 0.7733921 0.2067995
vn 0.2629247 0.7295361 0.6313856
vn 0.9502118 0.006409009 0.3115388
vn 0.5971937 -0.7706326 0.2224522
vn -0.4368852 -0.8989795 0.03109927
vn 0.5729729 -0.01251299 0.8194788
vn -0.513272 -0.009827185 0.8581696
vn 0.2783331 -0.7315094 0.6224346
vn -0.5804489 -0.7814193 0.2290483
vn 0.2403362 0.01376402 0.9705921
vn -0.1758831 -0.9359071 0.3051937
vn 0.3097996 -0.9304975 0.1954444
vn -0.7295312 -0.004089574 0.6839354
vn 0.2972858 0.9375445 0.1806421
vn -0.3873813 -0.9113364 0.13929
vn -0.2014547 0.9377517 0.2829095
vn -0.970145 -0.009918747 0.2423226
vn -0.4368852 -0.8989795 0.03109927
vn -0.4025185 0.9074597 0.1203985
vn -0.9926299 -0.01178033 -0.120611
vn -0.4516807 0.8920999 0.01193292
vn -0.5804489 -0.7814193 0.2290483
vn -0.9995806 -0.01037637 -0.02703961
vn -0.5992484 0.7733921 0.2067995
vn -0.513272 -0.009827185 0.8581696
vn 0.2783331 -0.7315094 0.6224346
vn 0.2629247 0.7295361 0.6313856
vn 0 0.9810055 0.1939793
vn 0 0.9997678 0.02154633
vn 0.6887953 0.7212986 0.07272805
vn 0.6498747 0.7105467 0.2697892
vn 0.991585 -0.02389619 0.1272327
vn 0 0.7061754 0.708037
vn 0.9363292 -0.03811849 0.3490481
vn 0.6834219 -0.725264 0.08322652
vn 0.4952416 0.5623237 0.6622143
vn 0.6036203 -0.03827181 0.7963527
vn 0 -0.01297046 0.999916
vn 0.6432801 -0.728062 0.2368887
vn 0 -0.9996377 0.02691743
vn 0 -0.9743047 0.225234
vn 0.5015557 -0.5725744 0.6485372
vn 0 -0.718459 0.6955693
vn 0 0.9518006 -0.3067174
vn -0.359056 0.8425379 -0.4015079
vn 0 0.8538961 -0.5204436
vn -0.3589013 0.8953914 -0.2635605
vn 0 0.991676 0.1287586
vn -0.7682381 0.636058 -0.07239237
vn -0.6680736 0.7301504 0.143381
vn 0 0.8288059 0.5595363
vn -0.9872797 0.01065102 0.1586362
vn -0.5463868 0.6280869 0.5540472
vn 0 0.4573901 0.8892662
vn -0.9510961 -0.005096684 0.3088529
vn -0.8276775 -0.5596284 -0.04202478
vn -0.6713968 -0.7183052 0.1823841
vn -0.346178 -0.851269 -0.3943372
vn -0.2786675 0.3597866 0.8904482
vn 0 -0.04538136 0.9989697
vn -0.7583367 -0.003051902 0.6518559
vn -0.3930565 -0.03967494 0.9186579
vn 0 -0.4715226 0.881854
vn -0.5311 -0.6215903 0.5758111
vn -0.3027791 -0.3998601 0.8651224
vn 0 -0.8221263 0.5693052
vn 0 -0.9858794 0.1674567
vn 0 -0.9674423 -0.2530915
vn -0.427418 -0.8777251 -0.216593
vn 0 -0.8814287 -0.4723171
vn -0.2147643 -0.9129543 -0.3469739
vn 0 -0.8572775 -0.5148548
vn 0 -0.6622452 -0.7492872
vn -0.3238098 -0.7284347 -0.6037633
vn -0.579 -0.7691313 0.2705479
vn -0.3742272 0.004181138 -0.9273277
vn 0 -0.0003051851 -1
vn -0.3143773 0.7226619 -0.6155703
vn 0 0.6616469 -0.7498156
vn 0 0.8538826 -0.5204658
vn -0.221231 0.9074166 -0.357284
vn -0.3097996 -0.9304975 0.1954444
vn -0.7658828 0.01529019 0.6427983
vn -0.2403362 0.01376402 0.9705921
vn -0.5501122 0.8069941 0.2147956
vn -0.2972858 0.9375445 0.1806421
vn 0.2014547 0.9377517 0.2829095
vn -0.514705 0.7372198 -0.4377052
vn 0.4025185 0.9074597 0.1203985
vn -0.5357671 -0.7268792 -0.4296513
vn 0.1758831 -0.9359071 0.3051937
vn -0.747327 0.01217721 -0.6643448
vn -0.6267194 0.7644848 -0.1509498
vn 0.4516807 0.8920999 0.01193292
vn -0.6459635 -0.7504907 -0.1396241
vn 0.3873813 -0.9113364 0.13929
vn -0.9776508 0.01626671 -0.2096056
vn -0.5878227 0.7809457 0.2111596
vn 0.5992484 0.7733921 0.2067995
vn -0.2629247 0.7295361 0.6313856
vn -0.9502118 0.006409009 0.3115388
vn -0.5971937 -0.7706326 0.2224522
vn 0.4368852 -0.8989795 0.03109927
vn -0.5729729 -0.01251299 0.8194788
vn 0.513272 -0.009827185 0.8581696
vn -0.2783331 -0.7315094 0.6224346
vn 0.5804489 -0.7814193 0.2290483
vn -0.2403362 0.01376402 0.9705921
vn -0.3097996 -0.9304975 0.1954444
vn 0.1758831 -0.9359071 0.3051937
vn 0.7295312 -0.004089574 0.6839354
vn -0.2972858 0.9375445 0.1806421
vn 0.3873813 -0.9113364 0.13929
vn 0.2014547 0.9377517 0.2829095
vn 0.970145 -0.009918747 0.2423226
vn 0.4368852 -0.8989795 0.03109927
vn 0.4025185 0.9074597 0.1203985
vn 0.9926299 -0.01178033 -0.120611
vn 0.4516807 0.8920999 0.01193292
vn 0.5804489 -0.7814193 0.2290483
vn 0.9995806 -0.01037637 -0.02703961
vn 0.5992484 0.7733921 0.2067995
vn 0.513272 -0.009827185 0.8581696
vn -0.2783331 -0.7315094 0.6224346
vn -0.2629247 0.7295361 0.6313856
vn 0 0.9810055 0.1939793
vn -0.6887953 0.7212986 0.07272805
vn 0 0.9997678 0.02154633
vn -0.6498747 0.7105467 0.2697892
vn -0.991585 -0.02389619 0.1272327
vn 0 0.7061754 0.708037
vn -0.9363292 -0.03811849 0.3490481
vn -0.6834219 -0.725264 0.08322652
vn -0.4952416 0.5623237 0.6622143
vn -0.6036203 -0.03827181 0.7963527
vn 0 -0.01297046 0.999916
vn -0.6432801 -0.728062 0.2368887
vn 0 -0.9996377 0.02691743
vn 0 -0.9743047 0.225234
vn -0.5015557 -0.5725744 0.6485372
vn 0 -0.718459 0.6955693
g head_0
f 3/3/3 2/2/2 1/1/1
f 4/4/4 3/3/3 1/1/1
f 1/1/1 5/5/5 4/4/4
f 6/6/6 3/3/3 4/4/4
f 5/5/5 7/7/7 4/4/4
f 7/7/7 6/6/6 4/4/4
f 5/5/5 8/8/8 7/7/7
f 9/9/9 6/6/6 7/7/7
f 8/8/8 10/10/10 7/7/7
f 8/8/8 11/11/11 10/10/10
f 12/12/12 9/9/9 7/7/7
f 7/7/7 10/10/10 12/12/12
f 13/13/13 9/9/9 12/12/12
f 14/14/14 13/13/13 12/12/12
f 15/15/15 13/13/13 14/14/14
f 11/11/11 16/16/16 10/10/10
f 16/16/16 11/11/11 17/17/17
f 10/10/10 18/18/18 12/12/12
f 10/10/10 16/16/16 18/18/18
f 12/12/12 18/18/18 14/14/14
f 19/19/19 16/16/16 17/17/17
f 16/16/16 19/19/19 18/18/18
f 19/19/19 17/17/17 20/20/20
f 18/18/18 19/19/19 21/21/21
f 18/18/18 21/21/21 14/14/14
f 22/22/22 19/19/19 20/20/20
f 19/19/19 22/22/22 21/21/21
f 22/22/22 20/20/20 23/23/23
f 21/21/21 22/22/22 23/23/23
f 21/21/21 23/23/23 24/24/24
f 14/14/14 21/21/21 24/24/24
f 14/14/14 24/24/24 25/25/25
f 26/26/26 15/15/15 14/14/14
f 26/26/26 14/14/14 25/25/25
f 27/27/27 15/15/15 26/26/26
f 25/25/25 27/27/27 26/26/26
f 30/30/30 29/29/29 28/28/28
f 29/29/29 31/31/31 28/28/28
f 28/28/28 31/31/31 32/32/32
f 33/33/33 31/31/31 29/29/29
f 34/34/34 33/33/33 29/29/29
f 35/35/35 33/33/33 34/34/34
f 36/36/36 35/35/35 34/34/34
f 35/35/35 36/36/36 37/37/37
f 38/38/38 35/35/35 37/37/37
f 31/31/31 39/39/39 32/32/32
f 32/32/32 39/39/39 40/40/40
f 39/39/39 41/41/41 40/40/40
f 40/40/40 41/41/41 42/42/42
f 41/41/41 43/43/43 42/42/42
f 42/42/42 43/43/43 38/38/38
f 43/43/43 35/35/35 38/38/38
f 43/43/43 44/44/44 35/35/35
f 44/44/44 45/45/45 35/35/35
f 35/35/35 45/45/45 33/33/33
f 44/44/44 46/46/46 45/45/45
f 31/31/31 47/47/47 39/39/39
f 47/47/47 48/48/48 39/39/39
f 33/33/33 49/49/49 31/31/31
f 45/45/45 49/49/49 33/33/33
f 49/49/49 47/47/47 31/31/31
f 46/46/46 50/50/50 45/45/45
f 45/45/45 50/50/50 49/49/49
f 46/46/46 51/51/51 50/50/50
f 47/47/47 52/52/52 48/48/48
f 52/52/52 53/53/53 48/48/48
f 49/49/49 54/54/54 47/47/47
f 50/50/50 54/54/54 49/49/49
f 54/54/54 52/52/52 47/47/47
f 51/51/51 55/55/55 50/50/50
f 50/50/50 55/55/55 54/54/54
f 51/51/51 56/56/56 55/55/55
f 56/56/56 57/57/57 55/55/55
f 55/55/55 58/58/58 54/54/54
f 54/54/54 58/58/58 52/52/52
f 55/55/55 57/57/57 58/58/58
f 52/52/52 59/59/59 53/53/53
f 58/58/58 59/59/59 52/52/52
f 59/59/59 60/60/60 53/53/53
f 57/57/57 61/61/61 58/58/58
f 58/58/58 61/61/61 59/59/59
f 57/57/57 62/62/62 61/61/61
f 61/61/61 62/62/62 63/63/63
f 61/61/61 63/63/63 59/59/59
f 59/59/59 63/63/63 60/60/60
f 63/63/63 64/64/64 60/60/60
f 67/67/67 66/66/66 65/65/65
f 66/66/66 68/68/68 65/65/65
f 65/65/65 68/68/68 69/69/69
f 66/66/66 70/70/70 68/68/68
f 68/68/68 71/71/71 69/69/69
f 70/70/70 72/72/72 68/68/68
f 68/68/68 72/72/72 71/71/71
f 70/70/70 73/73/73 72/72/72
f 72/72/72 74/74/74 71/71/71
f 73/73/73 75/75/75 72/72/72
f 72/72/72 75/75/75 74/74/74
f 75/75/75 76/76/76 74/74/74
f 73/73/73 77/77/77 75/75/75
f 75/75/75 78/78/78 76/76/76
f 77/77/77 78/78/78 75/75/75
f 78/78/78 79/79/79 76/76/76
f 77/77/77 80/80/80 78/78/78
f 78/78/78 80/80/80 79/79/79
f 81/81/81 80/80/80 77/77/77
f 79/79/79 80/80/80 82/82/82
f 85/85/85 84/84/84 83/83/83
f 86/86/86 85/85/85 83/83/83
f 87/87/87 85/85/85 86/86/86
f 83/83/83 88/88/88 86/86/86
f 89/89/89 87/87/87 86/86/86
f 90/90/90 87/87/87 89/89/89
f 88/88/88 91/91/91 86/86/86
f 86/86/86 91/91/91 89/89/89
f 91/91/91 88/88/88 92/92/92
f 91/91/91 92/92/92 89/89/89
f 88/88/88 93/93/93 92/92/92
f 94/94/94 90/90/90 89/89/89
f 89/89/89 92/92/92 94/94/94
f 95/95/95 90/90/90 94/94/94
f 96/96/96 95/95/95 94/94/94
f 92/92/92 93/93/93 97/97/97
f 92/92/92 97/97/97 94/94/94
f 94/94/94 97/97/97 96/96/96
f 93/93/93 98/98/98 97/97/97
f 97/97/97 98/98/98 96/96/96
f 101/101/101 100/100/100 99/99/99
f 100/100/100 102/102/102 99/99/99
f 103/103/103 99/99/99 102/102/102
f 100/100/100 104/104/104 102/102/102
f 105/105/105 103/103/103 102/102/102
f 104/104/104 105/105/105 102/102/102
f 106/106/106 103/103/103 105/105/105
f 104/104/104 107/107/107 105/105/105
f 108/108/108 106/106/106 105/105/105
f 109/109/109 106/106/106 108/108/108
f 107/107/107 110/110/110 105/105/105
f 108/108/108 105/105/105 110/110/110
f 107/107/107 111/111/111 110/110/110
f 111/111/111 112/112/112 110/110/110
f 111/111/111 113/113/113 112/112/112
f 114/114/114 109/109/109 108/108/108
f 109/109/109 114/114/114 115/115/115
f 116/116/116 108/108/108 110/110/110
f 114/114/114 108/108/108 116/116/116
f 116/116/116 110/110/110 112/112/112
f 114/114/114 117/117/117 115/115/115
f 117/117/117 114/114/114 116/116/116
f 115/115/115 117/117/117 118/118/118
f 117/117/117 116/116/116 119/119/119
f 119/119/119 116/116/116 112/112/112
f 117/117/117 120/120/120 118/118/118
f 120/120/120 117/117/117 119/119/119
f 118/118/118 120/120/120 121/121/121
f 120/120/120 119/119/119 121/121/121
f 121/121/121 119/119/119 122/122/122
f 119/119/119 112/112/112 122/122/122
f 122/122/122 112/112/112 123/123/123
f 113/113/113 124/124/124 112/112/112
f 112/112/112 124/124/124 123/123/123
f 113/113/113 125/125/125 124/124/124
f 125/125/125 123/123/123 124/124/124
f 128/128/128 127/127/127 126/126/126
f 129/129/129 128/128/128 126/126/126
f 129/129/129 126/126/126 130/130/130
f 129/129/129 131/131/131 128/128/128
f 131/131/131 132/132/132 128/128/128
f 131/131/131 133/133/133 132/132/132
f 133/133/133 134/134/134 132/132/132
f 134/134/134 133/133/133 135/135/135
f 133/133/133 136/136/136 135/135/135
f 137/137/137 129/129/129 130/130/130
f 137/137/137 130/130/130 138/138/138
f 139/139/139 137/137/137 138/138/138
f 139/139/139 138/138/138 140/140/140
f 141/141/141 139/139/139 140/140/140
f 141/141/141 140/140/140 136/136/136
f 133/133/133 141/141/141 136/136/136
f 142/142/142 141/141/141 133/133/133
f 143/143/143 142/142/142 133/133/133
f 143/143/143 133/133/133 131/131/131
f 144/144/144 142/142/142 143/143/143
f 145/145/145 129/129/129 137/137/137
f 146/146/146 145/145/145 137/137/137
f 147/147/147 131/131/131 129/129/129
f 147/147/147 143/143/143 131/131/131
f 145/145/145 147/147/147 129/129/129
f 148/148/148 144/144/144 143/143/143
f 148/148/148 143/143/143 147/147/147
f 149/149/149 144/144/144 148/148/148
f 150/150/150 145/145/145 146/146/146
f 151/151/151 150/150/150 146/146/146
f 152/152/152 147/147/147 145/145/145
f 152/152/152 148/148/148 147/147/147
f 150/150/150 152/152/152 145/145/145
f 153/153/153 149/149/149 148/148/148
f 153/153/153 148/148/148 152/152/152
f 154/154/154 149/149/149 153/153/153
f 155/155/155 154/154/154 153/153/153
f 156/156/156 153/153/153 152/152/152
f 156/156/156 152/152/152 150/150/150
f 155/155/155 153/153/153 156/156/156
f 157/157/157 150/150/150 151/151/151
f 157/157/157 156/156/156 150/150/150
f 158/158/158 157/157/157 151/151/151
f 159/159/159 155/155/155 156/156/156
f 159/159/159 156/156/156 157/157/157
f 160/160/160 155/155/155 159/159/159
f 160/160/160 159/159/159 161/161/161
f 161/161/161 159/159/159 157/157/157
f 161/161/161 157/157/157 158/158/158
f 162/162/162 161/161/161 158/158/158
f 165/165/165 164/164/164 163/163/163
f 166/166/166 165/165/165 163/163/163
f 166/166/166 163/163/163 167/167/167
f 168/168/168 165/165/165 166/166/166
f 169/169/169 166/166/166 167/167/167
f 170/170/170 168/168/168 166/166/166
f 170/170/170 166/166/166 169/169/169
f 171/171/171 168/168/168 170/170/170
f 172/172/172 170/170/170 169/169/169
f 173/173/173 171/171/171 170/170/170
f 173/173/173 170/170/170 172/172/172
f 174/174/174 173/173/173 172/172/172
f 175/175/175 171/171/171 173/173/173
f 176/176/176 173/173/173 174/174/174
f 176/176/176 175/175/175 173/173/173
f 177/177/177 176/176/176 174/174/174
f 178/178/178 175/175/175 176/176/176
f 178/178/178 176/176/176 177/177/177
f 178/178/178 179/179/179 175/175/175
f 178/178/178 177/177/177 180/180/180
f 183/183/183 182/182/182 181/181/181
f 182/182/182 184/184/184 181/181/181
f 182/182/182 185/185/185 184/184/184
f 186/186/186 181/181/181 184/184/184
f 185/185/185 187/187/187 184/184/184
f 185/185/185 188/188/188 187/187/187
f 189/189/189 186/186/186 184/184/184
f 189/189/189 184/184/184 187/187/187
f 186/186/186 189/189/189 190/190/190
f 190/190/190 189/189/189 187/187/187
f 191/191/191 186/186/186 190/190/190
f 188/188/188 192/192/192 187/187/187
f 190/190/190 187/187/187 192/192/192
f 188/188/188 193/193/193 192/192/192
f 193/193/193 194/194/194 192/192/192
f 191/191/191 190/190/190 195/195/195
f 195/195/195 190/190/190 192/192/192
f 195/195/195 192/192/192 194/194/194
f 196/196/196 191/191/191 195/195/195
f 196/196/196 195/195/195 194/194/194
