g hexPlinth_aura_column
v -1.371045 0.2080584 -0.7915732
v -1.371045 0.002199173 -0.7915732
v -0.6855222 0.002199173 -1.18736
v -0.6855223 0.2080584 -1.18736
v -1.371045 0.6612396 -0.7915732
v -0.6855223 0.6612396 -1.18736
v -1.371045 1.312969 -0.7915733
v -0.6855223 1.312969 -1.18736
v -1.371045 2.114471 -0.7915732
v -0.6855223 2.114472 -1.18736
v -1.371045 3.016974 -0.7915733
v -0.6855224 3.016975 -1.18736
v -1.371045 3.971702 -0.7915734
v -0.6855224 3.971702 -1.18736
v -1.371045 4.929882 -0.7915735
v -0.6855224 4.929882 -1.18736
v -1.371045 5.842739 -0.7915735
v -0.6855225 5.842739 -1.18736
v -1.371045 6.661498 -0.7915735
v -0.6855225 6.661498 -1.18736
v -1.371045 5.842738 0.791573
v -1.371045 6.661497 0.791573
v -0.6855226 6.661497 1.18736
v -0.6855226 5.842738 1.18736
v -2.359073E-08 6.661497 1.583146
v -1.371045 4.929882 0.791573
v -2.359073E-08 5.842737 1.583146
v -0.6855226 4.929882 1.18736
v -1.371045 3.971702 0.7915732
v -2.359073E-08 4.929882 1.583146
v -0.6855226 3.971702 1.18736
v -1.371045 3.016974 0.7915732
v -2.359073E-08 3.971702 1.583146
v -0.6855226 3.016974 1.18736
v -1.371045 2.114471 0.7915732
v -2.359073E-08 3.016974 1.583146
v -0.6855226 2.114471 1.18736
v -1.371045 1.312968 0.7915732
v -2.359073E-08 2.114471 1.583146
v -0.6855226 1.312968 1.18736
v -1.371045 0.6612396 0.7915732
v -2.359073E-08 1.312968 1.583146
v -0.6855226 0.6612396 1.18736
v -1.371045 0.2080584 0.7915732
v -2.359073E-08 0.6612394 1.583146
v -0.6855226 0.2080584 1.18736
v -1.371045 0.002199411 0.7915732
v -2.359073E-08 0.2080584 1.583146
v -0.6855226 0.002199411 1.18736
v -2.359073E-08 0.002199411 1.583146
v 1.371045 5.842738 0.791573
v 1.371045 6.661497 0.791573
v 1.371045 6.661498 -1.222197E-08
v 1.371045 5.842739 3.12084E-08
v 1.371045 6.661498 -0.7915732
v 1.371045 4.929882 0.791573
v 1.371045 5.842739 -0.7915733
v 1.371045 4.929882 7.875187E-08
v 1.371045 3.971702 0.7915732
v 1.371045 4.929882 -0.7915733
v 1.371045 3.971702 1.282765E-07
v 1.371045 3.016974 0.7915732
v 1.371045 3.971702 -0.7915732
v 1.371045 3.016974 1.776503E-07
v 1.371045 2.114471 0.7915733
v 1.371045 3.016974 -0.7915731
v 1.371045 2.114472 2.247411E-07
v 1.371045 1.312968 0.7915733
v 1.371045 2.114471 -0.791573
v 1.371045 1.312969 2.674172E-07
v 1.371045 0.6612396 0.7915734
v 1.371045 1.312969 -0.7915731
v 1.371045 0.6612396 3.035465E-07
v 1.371045 0.2080584 0.7915734
v 1.371045 0.6612396 -0.791573
v 1.371045 0.2080584 3.30997E-07
v 1.371045 0.002199411 0.7915734
v 1.371045 0.2080584 -0.791573
v 1.371045 0.002199173 3.476366E-07
v 1.371045 0.002199173 -0.791573
v -6.55298E-08 5.842739 -1.583147
v -4.718146E-08 6.661498 -1.583147
v -0.6855225 6.661498 -1.18736
v -0.6855225 5.842739 -1.18736
v -8.387813E-08 4.929882 -1.583147
v -0.6855224 4.929882 -1.18736
v -1.022265E-07 3.971702 -1.583147
v -0.6855224 3.971702 -1.18736
v -1.205748E-07 3.016974 -1.583147
v -0.6855224 3.016975 -1.18736
v -1.389232E-07 2.114472 -1.583147
v -0.6855223 2.114472 -1.18736
v -1.572715E-07 1.312969 -1.583147
v -0.6855223 1.312969 -1.18736
v -1.756199E-07 0.6612396 -1.583147
v -0.6855223 0.6612396 -1.18736
v -1.939682E-07 0.2080584 -1.583146
v -0.6855223 0.2080584 -1.18736
v -2.123165E-07 0.002199411 -1.583147
v -0.6855222 0.002199173 -1.18736
v 0.6855226 0.002199411 1.18736
v 1.371045 0.2080584 0.7915734
v 1.371045 0.002199411 0.7915734
v 0.6855226 0.2080584 1.18736
v -2.359073E-08 0.002199411 1.583146
v 1.371045 0.6612396 0.7915734
v -2.359073E-08 0.2080584 1.583146
v 0.6855226 0.6612394 1.18736
v 1.371045 1.312968 0.7915733
v -2.359073E-08 0.6612394 1.583146
v 0.6855226 1.312968 1.18736
v 1.371045 2.114471 0.7915733
v -2.359073E-08 1.312968 1.583146
v 0.6855226 2.114471 1.18736
v 1.371045 3.016974 0.7915732
v -2.359073E-08 2.114471 1.583146
v 0.6855227 3.016974 1.18736
v 1.371045 3.971702 0.7915732
v -2.359073E-08 3.016974 1.583146
v 0.6855227 3.971702 1.18736
v 1.371045 4.929882 0.791573
v -2.359073E-08 3.971702 1.583146
v 0.6855227 4.929882 1.18736
v 1.371045 5.842738 0.791573
v -2.359073E-08 4.929882 1.583146
v 0.6855227 5.842737 1.18736
v 1.371045 6.661497 0.791573
v -2.359073E-08 5.842737 1.583146
v 0.6855227 6.661497 1.18736
v -2.359073E-08 6.661497 1.583146
v 0.6855225 0.002199173 -1.18736
v -1.939682E-07 0.2080584 -1.583146
v -2.123165E-07 0.002199411 -1.583147
v 0.6855225 0.2080584 -1.18736
v 1.371045 0.002199173 -0.791573
v -1.756199E-07 0.6612396 -1.583147
v 1.371045 0.2080584 -0.791573
v 0.6855225 0.6612396 -1.18736
v -1.572715E-07 1.312969 -1.583147
v 1.371045 0.6612396 -0.791573
v 0.6855226 1.312969 -1.18736
v -1.389232E-07 2.114472 -1.583147
v 1.371045 1.312969 -0.7915731
v 0.6855226 2.114471 -1.18736
v -1.205748E-07 3.016974 -1.583147
v 1.371045 2.114471 -0.791573
v 0.6855227 3.016974 -1.18736
v -1.022265E-07 3.971702 -1.583147
v 1.371045 3.016974 -0.7915731
v 0.6855227 3.971702 -1.18736
v -8.387813E-08 4.929882 -1.583147
v 1.371045 3.971702 -0.7915732
v 0.6855227 4.929882 -1.18736
v -6.55298E-08 5.842739 -1.583147
v 1.371045 4.929882 -0.7915733
v 0.6855227 5.842739 -1.18736
v -4.718146E-08 6.661498 -1.583147
v 1.371045 5.842739 -0.7915733
v 0.6855227 6.661498 -1.18736
v 1.371045 6.661498 -0.7915732
v -1.371045 0.002199173 1.589108E-07
v -1.371045 0.2080584 0.7915732
v -1.371045 0.002199411 0.7915732
v -1.371045 0.2080584 1.422711E-07
v -1.371045 0.002199173 -0.7915732
v -1.371045 0.6612396 0.7915732
v -1.371045 0.2080584 -0.7915732
v -1.371045 0.6612394 1.148207E-07
v -1.371045 1.312968 0.7915732
v -1.371045 0.6612396 -0.7915732
v -1.371045 1.312968 7.869147E-08
v -1.371045 2.114471 0.7915732
v -1.371045 1.312969 -0.7915733
v -1.371045 2.114471 3.601534E-08
v -1.371045 3.016974 0.7915732
v -1.371045 2.114471 -0.7915732
v -1.371045 3.016974 -1.107556E-08
v -1.371045 3.971702 0.7915732
v -1.371045 3.016974 -0.7915733
v -1.371045 3.971702 -6.044931E-08
v -1.371045 4.929882 0.791573
v -1.371045 3.971702 -0.7915734
v -1.371045 4.929882 -1.099739E-07
v -1.371045 5.842738 0.791573
v -1.371045 4.929882 -0.7915735
v -1.371045 5.842738 -1.575174E-07
v -1.371045 6.661497 0.791573
v -1.371045 5.842739 -0.7915735
v -1.371045 6.661498 -2.009478E-07
v -1.371045 6.661498 -0.7915735
vt 0.08333349 0.8888888
vt 0.08333352 0.9999999
vt 1.788139E-07 0.9999999
vt 1.490116E-07 0.8888888
vt 0.08333349 0.7777778
vt 1.490116E-07 0.7777777
vt 0.08333346 0.6666667
vt 1.192093E-07 0.6666666
vt 0.08333343 0.5555556
vt 8.940697E-08 0.5555556
vt 0.08333343 0.4444446
vt 8.940697E-08 0.4444445
vt 0.08333343 0.3333335
vt 5.960464E-08 0.3333334
vt 0.0833334 0.2222224
vt 2.980232E-08 0.2222223
vt 0.08333337 0.1111113
vt 2.980232E-08 0.1111113
vt 0.08333337 1.788139E-07
vt 0 1.788139E-07
vt 0.2500001 0.1111113
vt 0.2500001 1.788139E-07
vt 0.3333334 1.788139E-07
vt 0.3333334 0.1111113
vt 0.4166668 1.788139E-07
vt 0.2500001 0.2222223
vt 0.4166667 0.1111113
vt 0.3333334 0.2222223
vt 0.2500001 0.3333334
vt 0.4166667 0.2222224
vt 0.3333334 0.3333334
vt 0.2500001 0.4444445
vt 0.4166667 0.3333335
vt 0.3333334 0.4444445
vt 0.2500001 0.5555556
vt 0.4166667 0.4444446
vt 0.3333334 0.5555556
vt 0.2500001 0.6666667
vt 0.4166667 0.5555557
vt 0.3333334 0.6666667
vt 0.2500001 0.7777778
vt 0.4166667 0.6666667
vt 0.3333334 0.7777778
vt 0.2500001 0.8888888
vt 0.4166667 0.7777779
vt 0.3333334 0.8888888
vt 0.2500001 1
vt 0.4166667 0.888889
vt 0.3333334 1
vt 0.4166667 1
vt 0.5833334 0.1111113
vt 0.5833334 1.788139E-07
vt 0.6666667 1.788139E-07
vt 0.6666666 0.1111113
vt 0.75 1.788139E-07
vt 0.5833334 0.2222223
vt 0.7499999 0.1111113
vt 0.6666666 0.2222223
vt 0.5833334 0.3333334
vt 0.7499999 0.2222224
vt 0.6666666 0.3333334
vt 0.5833334 0.4444445
vt 0.7499999 0.3333335
vt 0.6666666 0.4444445
vt 0.5833334 0.5555556
vt 0.7499999 0.4444446
vt 0.6666666 0.5555556
vt 0.5833334 0.6666667
vt 0.7499999 0.5555556
vt 0.6666666 0.6666667
vt 0.5833334 0.7777778
vt 0.7499999 0.6666667
vt 0.6666666 0.7777778
vt 0.5833333 0.8888888
vt 0.7499999 0.7777778
vt 0.6666666 0.8888888
vt 0.5833333 1
vt 0.7499999 0.8888888
vt 0.6666666 1
vt 0.7499999 0.9999999
vt 0.9166665 0.1111112
vt 0.9166665 0
vt 0.9999999 1.788139E-07
vt 0.9999999 0.1111113
vt 0.9166665 0.2222222
vt 0.9999999 0.2222223
vt 0.9166666 0.3333333
vt 0.9999999 0.3333334
vt 0.9166665 0.4444444
vt 0.9999999 0.4444445
vt 0.9166666 0.5555555
vt 0.9999999 0.5555556
vt 0.9166666 0.6666666
vt 0.9999999 0.6666666
vt 0.9166666 0.7777777
vt 0.9999999 0.7777777
vt 0.9166667 0.8888888
vt 0.9999999 0.8888888
vt 0.9166667 0.9999999
vt 1 0.9999999
vt 0.4999999 1
vt 0.5833333 0.8888888
vt 0.5833333 1
vt 0.4999999 0.8888889
vt 0.4166667 1
vt 0.5833334 0.7777778
vt 0.4166667 0.888889
vt 0.5 0.7777778
vt 0.5833334 0.6666667
vt 0.4166667 0.7777779
vt 0.5 0.6666667
vt 0.5833334 0.5555556
vt 0.4166667 0.6666667
vt 0.5 0.5555556
vt 0.5833334 0.4444445
vt 0.4166667 0.5555557
vt 0.5000001 0.4444446
vt 0.5833334 0.3333334
vt 0.4166667 0.4444446
vt 0.5000001 0.3333335
vt 0.5833334 0.2222223
vt 0.4166667 0.3333335
vt 0.5000001 0.2222224
vt 0.5833334 0.1111113
vt 0.4166667 0.2222224
vt 0.5000001 0.1111113
vt 0.5833334 1.788139E-07
vt 0.4166667 0.1111113
vt 0.5000002 1.788139E-07
vt 0.4166668 1.788139E-07
vt 0.8333334 0.9999999
vt 0.9166667 0.8888888
vt 0.9166667 0.9999999
vt 0.8333334 0.8888888
vt 0.7499999 0.9999999
vt 0.9166666 0.7777777
vt 0.7499999 0.8888888
vt 0.8333333 0.7777778
vt 0.9166666 0.6666666
vt 0.7499999 0.7777778
vt 0.8333333 0.6666667
vt 0.9166666 0.5555555
vt 0.7499999 0.6666667
vt 0.8333333 0.5555556
vt 0.9166665 0.4444444
vt 0.7499999 0.5555556
vt 0.8333333 0.4444446
vt 0.9166666 0.3333333
vt 0.7499999 0.4444446
vt 0.8333333 0.3333335
vt 0.9166665 0.2222222
vt 0.7499999 0.3333335
vt 0.8333333 0.2222224
vt 0.9166665 0.1111112
vt 0.7499999 0.2222224
vt 0.8333333 0.1111113
vt 0.9166665 0
vt 0.7499999 0.1111113
vt 0.8333333 1.788139E-07
vt 0.75 1.788139E-07
vt 0.1666668 1
vt 0.2500001 0.8888888
vt 0.2500001 1
vt 0.1666668 0.8888889
vt 0.08333352 0.9999999
vt 0.2500001 0.7777778
vt 0.08333349 0.8888888
vt 0.1666668 0.7777778
vt 0.2500001 0.6666667
vt 0.08333349 0.7777778
vt 0.1666668 0.6666667
vt 0.2500001 0.5555556
vt 0.08333346 0.6666667
vt 0.1666667 0.5555556
vt 0.2500001 0.4444445
vt 0.08333343 0.5555556
vt 0.1666667 0.4444446
vt 0.2500001 0.3333334
vt 0.08333343 0.4444446
vt 0.1666667 0.3333335
vt 0.2500001 0.2222223
vt 0.08333343 0.3333335
vt 0.1666667 0.2222224
vt 0.2500001 0.1111113
vt 0.0833334 0.2222224
vt 0.1666667 0.1111113
vt 0.2500001 1.788139E-07
vt 0.08333337 0.1111113
vt 0.1666667 1.788139E-07
vt 0.08333337 1.788139E-07
vn -0.5000001 0 -0.8660253
vn -0.5000001 0 -0.8660253
vn -0.5000001 0 -0.8660253
vn -0.5000001 0 -0.8660253
vn -0.5000001 0 -0.8660253
vn -0.5000001 0 -0.8660253
vn -0.5000001 0 -0.8660253
vn -0.5000001 0 -0.8660253
vn -0.5000001 0 -0.8660253
vn -0.5000001 0 -0.8660253
vn -0.5000002 0 -0.8660253
vn -0.5000002 0 -0.8660253
vn -0.5000001 0 -0.8660253
vn -0.5000001 0 -0.8660253
vn -0.5000001 0 -0.8660253
vn -0.5000001 0 -0.8660253
vn -0.5000002 0 -0.8660253
vn -0.5000002 0 -0.8660253
vn -0.5000002 0 -0.8660253
vn -0.5000002 0 -0.8660253
vn -0.5 0 0.8660254
vn -0.5 0 0.8660254
vn -0.5 0 0.8660254
vn -0.5 0 0.8660254
vn -0.5 0 0.8660254
vn -0.4999998 0 0.8660255
vn -0.5 0 0.8660254
vn -0.4999999 0 0.8660255
vn -0.4999997 0 0.8660256
vn -0.4999999 0 0.8660255
vn -0.4999999 0 0.8660255
vn -0.4999997 0 0.8660256
vn -0.4999999 0 0.8660255
vn -0.4999997 0 0.8660256
vn -0.4999997 0 0.8660256
vn -0.5 0 0.8660254
vn -0.5000003 0 0.8660253
vn -0.4999996 0 0.8660256
vn -0.5000003 0 0.8660253
vn -0.5000003 0 0.8660253
vn -0.4999996 0 0.8660256
vn -0.5000003 0 0.8660253
vn -0.4999996 0 0.8660256
vn -0.4999996 0 0.8660256
vn -0.5000004 0 0.8660253
vn -0.5000002 0 0.8660253
vn -0.4999996 0 0.8660256
vn -0.5000002 0 0.8660253
vn -0.5000002 0 0.8660253
vn -0.5000002 0 0.8660253
vn 1 0 0
vn 1 0 0
vn 1 0 0
vn 1 0 0
vn 1 0 0
vn 1 0 0
vn 1 0 0
vn 1 0 0
vn 1 0 0
vn 1 0 0
vn 1 0 0
vn 1 0 0
vn 1 0 0
vn 1 0 0
vn 1 0 0
vn 1 0 0
vn 1 0 0
vn 1 0 0
vn 1 0 0
vn 1 0 0
vn 1 0 0
vn 1 0 0
vn 1 0 0
vn 1 0 0
vn 1 0 0
vn 1 0 0
vn 1 0 0
vn 1 0 0
vn 1 0 0
vn 1 0 0
vn -0.5 0 -0.8660254
vn -0.5 0 -0.8660254
vn -0.5 0 -0.8660254
vn -0.5 0 -0.8660254
vn -0.4999997 0 -0.8660255
vn -0.4999997 0 -0.8660255
vn -0.5 0 -0.8660254
vn -0.5 0 -0.8660254
vn -0.5 0 -0.8660254
vn -0.5 0 -0.8660254
vn -0.5 0 -0.8660254
vn -0.5 0 -0.8660254
vn -0.5000002 0 -0.8660253
vn -0.5000002 0 -0.8660253
vn -0.5000002 0 -0.8660253
vn -0.5000002 0 -0.8660253
vn -0.5000001 0 -0.8660253
vn -0.5000001 0 -0.8660253
vn -0.5000001 0 -0.8660253
vn -0.5000001 0 -0.8660253
vn 0.5000002 0 0.8660253
vn 0.4999996 0 0.8660256
vn 0.4999996 0 0.8660256
vn 0.5000002 0 0.8660253
vn 0.5000002 0 0.8660253
vn 0.4999996 0 0.8660256
vn 0.5000002 0 0.8660253
vn 0.4999996 0 0.8660256
vn 0.4999996 0 0.8660256
vn 0.5000004 0 0.8660253
vn 0.5000003 0 0.8660253
vn 0.4999997 0 0.8660255
vn 0.5000003 0 0.8660253
vn 0.5000003 0 0.8660253
vn 0.4999997 0 0.8660256
vn 0.5000003 0 0.8660253
vn 0.4999997 0 0.8660256
vn 0.4999997 0 0.8660256
vn 0.5 0 0.8660254
vn 0.4999998 0 0.8660256
vn 0.4999998 0 0.8660255
vn 0.4999998 0 0.8660256
vn 0.4999998 0 0.8660256
vn 0.4999999 0 0.8660254
vn 0.4999998 0 0.8660256
vn 0.4999999 0 0.8660254
vn 0.4999999 0 0.8660254
vn 0.4999995 0 0.8660257
vn 0.4999999 0 0.8660254
vn 0.4999995 0 0.8660257
vn 0.5000001 0 -0.8660253
vn 0.5 0 -0.8660254
vn 0.5 0 -0.8660254
vn 0.5000001 0 -0.8660253
vn 0.5000001 0 -0.8660253
vn 0.4999999 0 -0.8660255
vn 0.5000001 0 -0.8660253
vn 0.4999999 0 -0.8660255
vn 0.4999999 0 -0.8660255
vn 0.5000004 0 -0.8660253
vn 0.4999999 0 -0.8660255
vn 0.4999999 0 -0.8660255
vn 0.5000004 0 -0.8660253
vn 0.5000004 0 -0.8660253
vn 0.4999998 0 -0.8660255
vn 0.5000004 0 -0.8660253
vn 0.4999998 0 -0.8660255
vn 0.4999998 0 -0.8660255
vn 0.5000004 0 -0.8660253
vn 0.4999998 0 -0.8660255
vn 0.5000001 0 -0.8660254
vn 0.5000002 0 -0.8660253
vn 0.5000002 0 -0.8660253
vn 0.4999999 0 -0.8660255
vn 0.5000002 0 -0.8660253
vn 0.4999999 0 -0.8660255
vn 0.4999999 0 -0.8660255
vn 0.5000001 0 -0.8660253
vn 0.4999999 0 -0.8660255
vn 0.5000001 0 -0.8660253
vn -1 0 0
vn -1 0 0
vn -1 0 0
vn -1 0 0
vn -1 0 0
vn -1 0 0
vn -1 0 0
vn -1 0 0
vn -1 0 0
vn -1 0 0
vn -1 0 0
vn -1 0 0
vn -1 0 0
vn -1 0 0
vn -1 0 0
vn -1 0 0
vn -1 0 0
vn -1 0 0
vn -1 0 0
vn -1 0 0
vn -1 0 0
vn -1 0 0
vn -1 0 0
vn -1 0 0
vn -1 0 0
vn -1 0 0
vn -1 0 0
vn -1 0 0
vn -1 0 0
vn -1 0 0
g hexPlinth_aura_column_0
f 3/3/3 2/2/2 1/1/1
f 4/4/4 3/3/3 1/1/1
f 4/4/4 1/1/1 5/5/5
f 6/6/6 4/4/4 5/5/5
f 6/6/6 5/5/5 7/7/7
f 8/8/8 6/6/6 7/7/7
f 8/8/8 7/7/7 9/9/9
f 10/10/10 8/8/8 9/9/9
f 10/10/10 9/9/9 11/11/11
f 12/12/12 10/10/10 11/11/11
f 12/12/12 11/11/11 13/13/13
f 14/14/14 12/12/12 13/13/13
f 14/14/14 13/13/13 15/15/15
f 16/16/16 14/14/14 15/15/15
f 16/16/16 15/15/15 17/17/17
f 18/18/18 16/16/16 17/17/17
f 18/18/18 17/17/17 19/19/19
f 20/20/20 18/18/18 19/19/19
f 23/23/23 22/22/22 21/21/21
f 24/24/24 23/23/23 21/21/21
f 23/23/23 24/24/24 25/25/25
f 24/24/24 21/21/21 26/26/26
f 24/24/24 27/27/27 25/25/25
f 28/28/28 24/24/24 26/26/26
f 24/24/24 28/28/28 27/27/27
f 28/28/28 26/26/26 29/29/29
f 28/28/28 30/30/30 27/27/27
f 31/31/31 28/28/28 29/29/29
f 28/28/28 31/31/31 30/30/30
f 31/31/31 29/29/29 32/32/32
f 31/31/31 33/33/33 30/30/30
f 34/34/34 31/31/31 32/32/32
f 31/31/31 34/34/34 33/33/33
f 34/34/34 32/32/32 35/35/35
f 34/34/34 36/36/36 33/33/33
f 37/37/37 34/34/34 35/35/35
f 34/34/34 37/37/37 36/36/36
f 37/37/37 35/35/35 38/38/38
f 37/37/37 39/39/39 36/36/36
f 40/40/40 37/37/37 38/38/38
f 37/37/37 40/40/40 39/39/39
f 40/40/40 38/38/38 41/41/41
f 40/40/40 42/42/42 39/39/39
f 43/43/43 40/40/40 41/41/41
f 40/40/40 43/43/43 42/42/42
f 43/43/43 41/41/41 44/44/44
f 43/43/43 45/45/45 42/42/42
f 46/46/46 43/43/43 44/44/44
f 43/43/43 46/46/46 45/45/45
f 46/46/46 44/44/44 47/47/47
f 46/46/46 48/48/48 45/45/45
f 49/49/49 46/46/46 47/47/47
f 46/46/46 49/49/49 48/48/48
f 49/49/49 50/50/50 48/48/48
f 53/53/53 52/52/52 51/51/51
f 54/54/54 53/53/53 51/51/51
f 53/53/53 54/54/54 55/55/55
f 54/54/54 51/51/51 56/56/56
f 54/54/54 57/57/57 55/55/55
f 58/58/58 54/54/54 56/56/56
f 54/54/54 58/58/58 57/57/57
f 58/58/58 56/56/56 59/59/59
f 58/58/58 60/60/60 57/57/57
f 61/61/61 58/58/58 59/59/59
f 58/58/58 61/61/61 60/60/60
f 61/61/61 59/59/59 62/62/62
f 61/61/61 63/63/63 60/60/60
f 64/64/64 61/61/61 62/62/62
f 61/61/61 64/64/64 63/63/63
f 64/64/64 62/62/62 65/65/65
f 64/64/64 66/66/66 63/63/63
f 67/67/67 64/64/64 65/65/65
f 64/64/64 67/67/67 66/66/66
f 67/67/67 65/65/65 68/68/68
f 67/67/67 69/69/69 66/66/66
f 70/70/70 67/67/67 68/68/68
f 67/67/67 70/70/70 69/69/69
f 70/70/70 68/68/68 71/71/71
f 70/70/70 72/72/72 69/69/69
f 73/73/73 70/70/70 71/71/71
f 70/70/70 73/73/73 72/72/72
f 73/73/73 71/71/71 74/74/74
f 73/73/73 75/75/75 72/72/72
f 76/76/76 73/73/73 74/74/74
f 73/73/73 76/76/76 75/75/75
f 76/76/76 74/74/74 77/77/77
f 76/76/76 78/78/78 75/75/75
f 79/79/79 76/76/76 77/77/77
f 76/76/76 79/79/79 78/78/78
f 79/79/79 80/80/80 78/78/78
f 83/83/83 82/82/82 81/81/81
f 84/84/84 83/83/83 81/81/81
f 84/84/84 81/81/81 85/85/85
f 86/86/86 84/84/84 85/85/85
f 86/86/86 85/85/85 87/87/87
f 88/88/88 86/86/86 87/87/87
f 88/88/88 87/87/87 89/89/89
f 90/90/90 88/88/88 89/89/89
f 90/90/90 89/89/89 91/91/91
f 92/92/92 90/90/90 91/91/91
f 92/92/92 91/91/91 93/93/93
f 94/94/94 92/92/92 93/93/93
f 94/94/94 93/93/93 95/95/95
f 96/96/96 94/94/94 95/95/95
f 96/96/96 95/95/95 97/97/97
f 98/98/98 96/96/96 97/97/97
f 98/98/98 97/97/97 99/99/99
f 100/100/100 98/98/98 99/99/99
f 103/103/103 102/102/102 101/101/101
f 102/102/102 104/104/104 101/101/101
f 105/105/105 101/101/101 104/104/104
f 102/102/102 106/106/106 104/104/104
f 107/107/107 105/105/105 104/104/104
f 106/106/106 108/108/108 104/104/104
f 107/107/107 104/104/104 108/108/108
f 106/106/106 109/109/109 108/108/108
f 110/110/110 107/107/107 108/108/108
f 109/109/109 111/111/111 108/108/108
f 110/110/110 108/108/108 111/111/111
f 109/109/109 112/112/112 111/111/111
f 113/113/113 110/110/110 111/111/111
f 112/112/112 114/114/114 111/111/111
f 113/113/113 111/111/111 114/114/114
f 112/112/112 115/115/115 114/114/114
f 116/116/116 113/113/113 114/114/114
f 115/115/115 117/117/117 114/114/114
f 116/116/116 114/114/114 117/117/117
f 115/115/115 118/118/118 117/117/117
f 119/119/119 116/116/116 117/117/117
f 118/118/118 120/120/120 117/117/117
f 119/119/119 117/117/117 120/120/120
f 118/118/118 121/121/121 120/120/120
f 122/122/122 119/119/119 120/120/120
f 121/121/121 123/123/123 120/120/120
f 122/122/122 120/120/120 123/123/123
f 121/121/121 124/124/124 123/123/123
f 125/125/125 122/122/122 123/123/123
f 124/124/124 126/126/126 123/123/123
f 125/125/125 123/123/123 126/126/126
f 124/124/124 127/127/127 126/126/126
f 128/128/128 125/125/125 126/126/126
f 127/127/127 129/129/129 126/126/126
f 128/128/128 126/126/126 129/129/129
f 130/130/130 128/128/128 129/129/129
f 133/133/133 132/132/132 131/131/131
f 132/132/132 134/134/134 131/131/131
f 135/135/135 131/131/131 134/134/134
f 132/132/132 136/136/136 134/134/134
f 137/137/137 135/135/135 134/134/134
f 136/136/136 138/138/138 134/134/134
f 137/137/137 134/134/134 138/138/138
f 136/136/136 139/139/139 138/138/138
f 140/140/140 137/137/137 138/138/138
f 139/139/139 141/141/141 138/138/138
f 140/140/140 138/138/138 141/141/141
f 139/139/139 142/142/142 141/141/141
f 143/143/143 140/140/140 141/141/141
f 142/142/142 144/144/144 141/141/141
f 143/143/143 141/141/141 144/144/144
f 142/142/142 145/145/145 144/144/144
f 146/146/146 143/143/143 144/144/144
f 145/145/145 147/147/147 144/144/144
f 146/146/146 144/144/144 147/147/147
f 145/145/145 148/148/148 147/147/147
f 149/149/149 146/146/146 147/147/147
f 148/148/148 150/150/150 147/147/147
f 149/149/149 147/147/147 150/150/150
f 148/148/148 151/151/151 150/150/150
f 152/152/152 149/149/149 150/150/150
f 151/151/151 153/153/153 150/150/150
f 152/152/152 150/150/150 153/153/153
f 151/151/151 154/154/154 153/153/153
f 155/155/155 152/152/152 153/153/153
f 154/154/154 156/156/156 153/153/153
f 155/155/155 153/153/153 156/156/156
f 154/154/154 157/157/157 156/156/156
f 158/158/158 155/155/155 156/156/156
f 157/157/157 159/159/159 156/156/156
f 158/158/158 156/156/156 159/159/159
f 160/160/160 158/158/158 159/159/159
f 163/163/163 162/162/162 161/161/161
f 162/162/162 164/164/164 161/161/161
f 165/165/165 161/161/161 164/164/164
f 162/162/162 166/166/166 164/164/164
f 167/167/167 165/165/165 164/164/164
f 166/166/166 168/168/168 164/164/164
f 167/167/167 164/164/164 168/168/168
f 166/166/166 169/169/169 168/168/168
f 170/170/170 167/167/167 168/168/168
f 169/169/169 171/171/171 168/168/168
f 170/170/170 168/168/168 171/171/171
f 169/169/169 172/172/172 171/171/171
f 173/173/173 170/170/170 171/171/171
f 172/172/172 174/174/174 171/171/171
f 173/173/173 171/171/171 174/174/174
f 172/172/172 175/175/175 174/174/174
f 176/176/176 173/173/173 174/174/174
f 175/175/175 177/177/177 174/174/174
f 176/176/176 174/174/174 177/177/177
f 175/175/175 178/178/178 177/177/177
f 179/179/179 176/176/176 177/177/177
f 178/178/178 180/180/180 177/177/177
f 179/179/179 177/177/177 180/180/180
f 178/178/178 181/181/181 180/180/180
f 182/182/182 179/179/179 180/180/180
f 181/181/181 183/183/183 180/180/180
f 182/182/182 180/180/180 183/183/183
f 181/181/181 184/184/184 183/183/183
f 185/185/185 182/182/182 183/183/183
f 184/184/184 186/186/186 183/183/183
f 185/185/185 183/183/183 186/186/186
f 184/184/184 187/187/187 186/186/186
f 188/188/188 185/185/185 186/186/186
f 187/187/187 189/189/189 186/186/186
f 188/188/188 186/186/186 189/189/189
f 190/190/190 188/188/188 189/189/189
