g hinge block
v 0.9461746 0 -0.5634918
v 0.7928932 -1 -0.7928939
v 0.9461746 -1 -0.5634919
v 0.7928932 0 -0.7928939
v 0.9461746 1 -0.5634918
v 0.7928932 1 -0.7928939
v 0.7928932 0 -0.7928939
v 0.5634912 -1 -0.9461752
v 0.7928932 -1 -0.7928939
v 0.5634912 0 -0.9461751
v 0.7928932 1 -0.7928939
v 0.5634912 1 -0.9461751
v 0.5634912 0 -0.9461751
v 0.2928932 -1 -1.000001
v 0.5634912 -1 -0.9461752
v 0.2928932 0 -1
v 0.5634912 1 -0.9461751
v -1 -1 -1.000001
v 0.2928932 1 -1
v -1 1.192093E-07 -1
v -1 1 -1
v -1 1 0.9999999
v -0.55 0.05000003 1
v -1 0.05000006 1
v -0.55 0.55 0.9999999
v 1 1 0.9999999
v 0.55 0.55 1
v 1 0 1
v 0.55 0 1
v 1 -0.9999999 1
v 0.55 -0.55 1
v -1 -0.9999999 1
v -0.55 -0.55 1
v -1 -0.04999994 1
v -0.55 -0.04999997 1
v -1 1 -1
v -1 1 0.9999999
v -1 0.05000006 1
v -1 1.192093E-07 -1
v -1 6.109476E-08 0.95
v -1 -0.04999994 1
v -1 -0.9999999 1
v -1 -1 -1.000001
v 1 1 -0.2928938
v 0.9461746 1 -0.5634918
v 0.9461746 0 -0.5634918
v 1 0 -0.2928939
v 1 1 0.9999999
v 0.9461746 -1 -0.5634919
v 1 0 1
v 1 -1 -0.2928939
v 1 -0.9999999 1
v -1 -0.04999994 1
v -1 6.109476E-08 0.95
v -1 5.552005E-08 0.9065554
v -1 0.05000006 1
v -0.55 0.05000003 1
v -0.4999268 0.01461537 0.9065554
v -0.4994459 2.640601E-08 0.9065554
v -0.55 2.944302E-08 0.9065554
v -1 5.552005E-08 0.9065554
v -1 0.05000006 1
v -0.55 -0.04999997 1
v -0.4994459 2.640601E-08 0.9065554
v -0.4999268 -0.01461532 0.9065554
v -0.55 2.944302E-08 0.9065554
v -1 -0.04999994 1
v -1 5.552005E-08 0.9065554
v 0.5 -4.084595E-09 0.9065554
v 0.55 -0.55 1
v 0.5 -0.4999999 0.9065554
v 0.55 0 1
v 0.5 0.5 0.9065554
v 0.55 0.55 1
v -0.55 -0.55 1
v -0.5 -0.4999999 0.9065554
v 0.5 -0.4999999 0.9065554
v 0.55 -0.55 1
v 0.55 0.55 1
v 0.5 0.5 0.9065554
v -0.5 0.5 0.9065553
v -0.55 0.55 0.9999999
v -0.4999268 0.01461537 0.9065554
v -0.55 0.05000003 1
v -0.55 0.55 0.9999999
v -0.5 0.5 0.9065553
v -0.5 -0.4999999 0.9065554
v -0.55 -0.55 1
v -0.55 -0.04999997 1
v -0.4999268 -0.01461532 0.9065554
v 0.5 -0.4999999 0.9065554
v 0.5 -0.5 -0.003444612
v 0.5 -4.386196E-08 -0.003444612
v 0.5 -4.084595E-09 0.9065554
v 0.5 0.5 -0.003444612
v 0.5 0.5 0.9065554
v -0.5 0.5 0.9065553
v -0.5 0.5 -0.003444672
v -0.4999268 0.01461533 -0.003444612
v -0.4999268 0.01461537 0.9065554
v -0.4994459 -1.337135E-08 -0.003444612
v -0.4994459 2.640601E-08 0.9065554
v -0.4999268 -0.01461536 -0.003444612
v -0.4999268 -0.01461532 0.9065554
v -0.5 -0.5 -0.003444612
v -0.5 -0.4999999 0.9065554
v -0.5 -0.4999999 0.9065554
v -0.5 -0.5 -0.003444612
v 0.5 -0.5 -0.003444612
v 0.5 -0.4999999 0.9065554
v 0.5 0.5 0.9065554
v 0.5 0.5 -0.003444612
v -0.5 0.5 -0.003444672
v -0.5 0.5 0.9065553
v -1 -1 -1.000001
v 0.5 -1 -0.5
v 0.2928932 -1 -1.000001
v 0.5634912 -1 -0.9461752
v 0.7928932 -1 -0.7928939
v 0.9461746 -1 -0.5634919
v 1 -1 -0.2928939
v 1 -0.9999999 1
v -0.5 -1 -0.5
v -1 -0.9999999 1
v 0.5 -1 0.5000001
v -0.5 -1 0.5000001
v 0.5 1 -0.5000001
v -1 1 -1
v 0.2928932 1 -1
v 0.5634912 1 -0.9461751
v 0.7928932 1 -0.7928939
v 0.9461746 1 -0.5634918
v 1 1 -0.2928938
v 1 1 0.9999999
v 0.5 1 0.5
v -1 1 0.9999999
v -0.5 1 0.5
v -0.5 1 -0.5000001
vt 0 0
vt 0 0
vt 0 0
vt 0 0
vt 0 0
vt 0 0
vt 0 0
vt 0 0
vt 0 0
vt 0 0
vt 0 0
vt 0 0
vt 0 0
vt 0 0
vt 0 0
vt 0 0
vt 0 0
vt 0 0
vt 0 0
vt 0 0
vt 0 0
vt 0 0
vt 0 0
vt 0 0
vt 0 0
vt 0 0
vt 0 0
vt 0 0
vt 0 0
vt 0 0
vt 0 0
vt 0 0
vt 0 0
vt 0 0
vt 0 0
vt 0 0
vt 0 0
vt 0 0
vt 0 0
vt 0 0
vt 0 0
vt 0 0
vt 0 0
vt 0 0
vt 0 0
vt 0 0
vt 0 0
vt 0 0
vt 0 0
vt 0 0
vt 0 0
vt 0 0
vt 0 0
vt 0 0
vt 0 0
vt 0 0
vt 0 0
vt 0 0
vt 0 0
vt 0 0
vt 0 0
vt 0 0
vt 0 0
vt 0 0
vt 0 0
vt 0 0
vt 0 0
vt 0 0
vt 0 0
vt 0 0
vt 0 0
vt 0 0
vt 0 0
vt 0 0
vt 0 0
vt 0 0
vt 0 0
vt 0 0
vt 0 0
vt 0 0
vt 0 0
vt 0 0
vt 0 0
vt 0 0
vt 0 0
vt 0 0
vt 0 0
vt 0 0
vt 0 0
vt 0 0
vt 0 0
vt 0 0
vt 0 0
vt 0 0
vt 0 0
vt 0 0
vt 0 0
vt 0 0
vt 0 0
vt 0 0
vt 0 0
vt 0 0
vt 0 0
vt 0 0
vt 0 0
vt 0 0
vt 0 0
vt 0 0
vt 0 0
vt 0 0
vt 0 0
vt 0 0
vt 0 0
vt 0 0
vt 0 0
vt 0 0
vt 0 0
vt 0 0
vt 0 0
vt 0 0
vt 0 0
vt 0 0
vt 0 0
vt 0 0
vt 0 0
vt 0 0
vt 0 0
vt 0 0
vt 0 0
vt 0 0
vt 0 0
vt 0 0
vt 0 0
vt 0 0
vt 0 0
vt 0 0
vt 0 0
vt 0 0
vn 0.8314698 0 -0.5555699
vn 0.8314698 0 -0.5555699
vn 0.8314698 0 -0.5555699
vn 0.8314698 0 -0.5555699
vn 0.8314698 0 -0.5555699
vn 0.8314698 0 -0.5555699
vn 0.5555696 0 -0.8314701
vn 0.5555695 0 -0.83147
vn 0.5555695 0 -0.83147
vn 0.5555696 0 -0.8314701
vn 0.5555696 0 -0.8314701
vn 0.5555696 0 -0.8314701
vn 0.1950907 0 -0.9807853
vn 0.09801734 0 -0.9951847
vn 0.1950907 0 -0.9807853
vn 0.09801731 0 -0.9951847
vn 0.1950906 0 -0.9807853
vn 0 0 -1
vn 0.09801729 0 -0.9951847
vn 0 0 -1
vn 0 0 -1
vn 0 0 1
vn 0 0 1
vn 0 0 1
vn 0 0 1
vn 0 0 1
vn 0 0 1
vn 0 0 1
vn 0 0 1
vn 0 0 1
vn 0 0 1
vn 0 0 1
vn 0 0 1
vn 0 0 1
vn 0 0 1
vn -1 0 0
vn -1 0 0
vn -1 0 0
vn -1 0 0
vn -1 0 0
vn -1 0 0
vn -1 0 0
vn -1 0 0
vn 0.9951847 0 -0.09801731
vn 0.9807853 0 -0.1950907
vn 0.9807853 0 -0.1950907
vn 0.9951847 0 -0.09801731
vn 1 0 0
vn 0.9807853 0 -0.1950907
vn 1 0 0
vn 0.9951847 0 -0.09801732
vn 1 0 0
vn 1 0 0
vn 1 0 0
vn 1 0 0
vn 1 0 0
vn 0.1176465 -0.8477158 0.5172399
vn 0.2332856 -0.7992532 0.5538702
vn 0.2332856 -0.7992532 0.5538702
vn 0.1176465 -0.8477158 0.5172399
vn 0 -0.881714 0.4717841
vn 0 -0.881714 0.4717841
vn 0.1176465 0.8477159 0.5172399
vn 0.2332857 0.7992532 0.5538701
vn 0.2332857 0.7992532 0.5538701
vn 0.1176465 0.8477159 0.5172399
vn 0 0.8817141 0.4717841
vn 0 0.8817141 0.4717841
vn -0.881714 0 0.4717843
vn -0.881714 0 0.4717842
vn -0.881714 0 0.4717842
vn -0.881714 0 0.4717843
vn -0.881714 0 0.4717843
vn -0.881714 0 0.4717843
vn 0 0.881714 0.4717843
vn 0 0.881714 0.4717843
vn 0 0.881714 0.4717843
vn 0 0.881714 0.4717843
vn 0 -0.8817139 0.4717844
vn 0 -0.8817139 0.4717844
vn 0 -0.8817139 0.4717844
vn 0 -0.8817139 0.4717844
vn 0.8815827 0 0.4720294
vn 0.8815827 0 0.4720294
vn 0.8815827 0 0.4720294
vn 0.8815827 0 0.4720294
vn 0.8815829 0 0.4720294
vn 0.8815829 0 0.4720294
vn 0.8815829 0 0.4720294
vn 0.8815829 0 0.4720294
vn -1 0 0
vn -1 0 0
vn -1 0 0
vn -1 0 0
vn -1 0 0
vn -1 0 0
vn 1 0.0001507969 0
vn 1 0.0001507969 0
vn 0.9998635 0.01652027 0
vn 0.9998635 0.01652027 0
vn 1 0 0
vn 1 0 0
vn 0.9998635 -0.01652027 0
vn 0.9998635 -0.01652027 0
vn 1 -0.0001507969 0
vn 1 -0.0001507969 0
vn 0 1 0
vn 0 1 0
vn 0 1 0
vn 0 1 0
vn 0 -1 0
vn 0 -1 0
vn 0 -1 0
vn 0 -1 0
vn 0 -1 0
vn 0 -1 0
vn 0 -1 0
vn 0 -1 0
vn 0 -1 0
vn 0 -1 0
vn 0 -1 0
vn 0 -1 0
vn 0 -1 0
vn 0 -1 0
vn 0 -1 0
vn 0 -1 0
vn 0 1 0
vn 0 1 0
vn 0 1 0
vn 0 1 0
vn 0 1 0
vn 0 1 0
vn 0 1 0
vn 0 1 0
vn 0 1 0
vn 0 1 0
vn 0 1 0
vn 0 1 0
g hinge block_0
f 3/3/3 2/2/2 1/1/1
f 2/2/2 4/4/4 1/1/1
f 1/1/1 4/4/4 5/5/5
f 4/4/4 6/6/6 5/5/5
f 9/9/9 8/8/8 7/7/7
f 8/8/8 10/10/10 7/7/7
f 7/7/7 10/10/10 11/11/11
f 10/10/10 12/12/12 11/11/11
f 15/15/15 14/14/14 13/13/13
f 14/14/14 16/16/16 13/13/13
f 13/13/13 16/16/16 17/17/17
f 16/16/16 14/14/14 18/18/18
f 16/16/16 19/19/19 17/17/17
f 20/20/20 16/16/16 18/18/18
f 19/19/19 16/16/16 20/20/20
f 21/21/21 19/19/19 20/20/20
f 24/24/24 23/23/23 22/22/22
f 23/23/23 25/25/25 22/22/22
f 22/22/22 25/25/25 26/26/26
f 25/25/25 27/27/27 26/26/26
f 26/26/26 27/27/27 28/28/28
f 27/27/27 29/29/29 28/28/28
f 28/28/28 29/29/29 30/30/30
f 29/29/29 31/31/31 30/30/30
f 30/30/30 31/31/31 32/32/32
f 31/31/31 33/33/33 32/32/32
f 32/32/32 33/33/33 34/34/34
f 33/33/33 35/35/35 34/34/34
f 38/38/38 37/37/37 36/36/36
f 38/38/38 36/36/36 39/39/39
f 39/39/39 40/40/40 38/38/38
f 41/41/41 40/40/40 39/39/39
f 42/42/42 41/41/41 39/39/39
f 39/39/39 43/43/43 42/42/42
f 46/46/46 45/45/45 44/44/44
f 47/47/47 46/46/46 44/44/44
f 44/44/44 48/48/48 47/47/47
f 49/49/49 46/46/46 47/47/47
f 48/48/48 50/50/50 47/47/47
f 51/51/51 49/49/49 47/47/47
f 47/47/47 50/50/50 51/51/51
f 50/50/50 52/52/52 51/51/51
f 55/55/55 54/54/54 53/53/53
f 56/56/56 54/54/54 55/55/55
f 59/59/59 58/58/58 57/57/57
f 60/60/60 59/59/59 57/57/57
f 60/60/60 57/57/57 61/61/61
f 57/57/57 62/62/62 61/61/61
f 65/65/65 64/64/64 63/63/63
f 64/64/64 66/66/66 63/63/63
f 63/63/63 66/66/66 67/67/67
f 66/66/66 68/68/68 67/67/67
f 71/71/71 70/70/70 69/69/69
f 70/70/70 72/72/72 69/69/69
f 69/69/69 72/72/72 73/73/73
f 72/72/72 74/74/74 73/73/73
f 77/77/77 76/76/76 75/75/75
f 78/78/78 77/77/77 75/75/75
f 81/81/81 80/80/80 79/79/79
f 82/82/82 81/81/81 79/79/79
f 85/85/85 84/84/84 83/83/83
f 86/86/86 85/85/85 83/83/83
f 89/89/89 88/88/88 87/87/87
f 90/90/90 89/89/89 87/87/87
f 93/93/93 92/92/92 91/91/91
f 94/94/94 93/93/93 91/91/91
f 95/95/95 93/93/93 94/94/94
f 96/96/96 95/95/95 94/94/94
f 99/99/99 98/98/98 97/97/97
f 100/100/100 99/99/99 97/97/97
f 101/101/101 99/99/99 100/100/100
f 102/102/102 101/101/101 100/100/100
f 103/103/103 101/101/101 102/102/102
f 104/104/104 103/103/103 102/102/102
f 105/105/105 103/103/103 104/104/104
f 106/106/106 105/105/105 104/104/104
f 109/109/109 108/108/108 107/107/107
f 110/110/110 109/109/109 107/107/107
f 113/113/113 112/112/112 111/111/111
f 114/114/114 113/113/113 111/111/111
f 117/117/117 116/116/116 115/115/115
f 118/118/118 116/116/116 117/117/117
f 119/119/119 116/116/116 118/118/118
f 120/120/120 116/116/116 119/119/119
f 121/121/121 116/116/116 120/120/120
f 121/121/121 122/122/122 116/116/116
f 116/116/116 123/123/123 115/115/115
f 115/115/115 123/123/123 124/124/124
f 122/122/122 125/125/125 116/116/116
f 116/116/116 125/125/125 123/123/123
f 124/124/124 126/126/126 122/122/122
f 123/123/123 126/126/126 124/124/124
f 126/126/126 125/125/125 122/122/122
f 125/125/125 126/126/126 123/123/123
f 129/129/129 128/128/128 127/127/127
f 129/129/129 127/127/127 130/130/130
f 130/130/130 127/127/127 131/131/131
f 131/131/131 127/127/127 132/132/132
f 132/132/132 127/127/127 133/133/133
f 133/133/133 127/127/127 134/134/134
f 127/127/127 135/135/135 134/134/134
f 134/134/134 135/135/135 136/136/136
f 135/135/135 137/137/137 136/136/136
f 136/136/136 137/137/137 128/128/128
f 137/137/137 135/135/135 127/127/127
f 128/128/128 138/138/138 127/127/127
f 137/137/137 138/138/138 128/128/128
f 138/138/138 137/137/137 127/127/127
