g Ico Sphere 2 subdivisions
v 0.3618037 -0.2236095 0.2628627
v 0.425324 -0.2628677 1.227572E-07
v 0.2126614 -0.4253269 0.1545058
v 0.475529 2.128737E-07 0.1545064
v 0.475529 2.128737E-07 -0.1545062
v 0.4472131 0.223608 1.227572E-07
v 0.3618037 -0.2236096 -0.2628625
v 0.2126614 -0.4253269 -0.1545056
v 0.1314344 -0.2628687 -0.4045057
v 0.2938929 2.128737E-07 -0.4045082
v 0.3440947 0.2628684 -0.2499984
v 0.138194 0.2236101 -0.4253245
v -0.138194 -0.2236097 0.4253247
v 0 2.128737E-07 0.5000001
v 0.1314344 -0.2628686 0.4045059
v 0.2938929 2.128737E-07 0.4045085
v 0.3618037 -0.2236095 0.2628627
v 0.475529 2.128737E-07 0.1545064
v 0.138194 0.2236101 0.4253247
v 0.3440947 0.2628684 0.2499986
v -0.1314344 0.2628691 0.4045059
v -0.2938929 2.128737E-07 0.4045085
v 0.08122777 0.4253275 0.2499977
v -0.2126614 0.4253273 0.1545058
v -0.4472132 -0.2236076 1.227572E-07
v -0.475529 2.128737E-07 0.1545064
v -0.3440948 -0.262868 0.2499986
v -0.2938929 2.128737E-07 0.4045085
v -0.138194 -0.2236097 0.4253247
v 0 2.128737E-07 0.5000001
v -0.3618037 0.22361 0.2628627
v -0.1314344 0.2628691 0.4045059
v -0.2126614 0.4253273 0.1545058
v -0.425324 0.2628681 1.227572E-07
v -0.475529 2.128737E-07 -0.1545062
v -0.3618037 0.2236099 -0.2628625
v -0.4472132 -0.2236076 1.227572E-07
v -0.475529 2.128737E-07 -0.1545062
v -0.475529 2.128737E-07 0.1545064
v -0.3440948 -0.262868 -0.2499983
v -0.2938929 2.128737E-07 -0.4045082
v -0.138194 -0.2236097 -0.4253245
v -0.08122779 -0.425327 -0.2499975
v -0.2628648 -0.4253257 1.227572E-07
v -0.3440948 -0.262868 0.2499986
v 0 -0.4999998 1.227572E-07
v -0.08122779 -0.425327 0.2499978
v 0.138194 0.2236101 0.4253247
v 0.08122777 0.4253275 0.2499977
v 0.3440947 0.2628684 0.2499986
v 0.2628648 0.4253261 1.227572E-07
v 0 0.5000002 1.227572E-07
v 0.4472131 0.223608 1.227572E-07
v 0.3440947 0.2628684 -0.2499984
v 0.475529 2.128737E-07 -0.1545062
v 0.475529 2.128737E-07 0.1545064
v 0.2938929 2.128737E-07 0.4045085
v -0.2126614 0.4253273 0.1545058
v 0 0.5000002 1.227572E-07
v 0.08122777 0.4253275 0.2499977
v -0.2126614 0.4253273 -0.1545056
v -0.425324 0.2628681 1.227572E-07
v -0.3618037 0.2236099 -0.2628625
v -0.1314344 0.262869 -0.4045057
v 0.08122777 0.4253275 -0.2499975
v 0.2628648 0.4253261 1.227572E-07
v 0.138194 0.2236101 -0.4253245
v 0.3440947 0.2628684 -0.2499984
v -0.2938929 2.128737E-07 -0.4045082
v -0.3618037 0.2236099 -0.2628625
v -0.475529 2.128737E-07 -0.1545062
v -0.1314344 0.262869 -0.4045057
v 0 2.128737E-07 -0.4999999
v 0.138194 0.2236101 -0.4253245
v 0.2938929 2.128737E-07 -0.4045082
v -0.138194 -0.2236097 -0.4253245
v 0.1314344 -0.2628687 -0.4045057
v -0.08122779 -0.425327 -0.2499975
v 0.2126614 -0.4253269 -0.1545056
v 0.1314344 -0.2628687 -0.4045057
v -0.08122779 -0.425327 -0.2499975
v 0 -0.4999998 1.227572E-07
v 0.2126614 -0.4253269 0.1545058
v 0.425324 -0.2628677 1.227572E-07
v -0.08122779 -0.425327 0.2499978
v 0.1314344 -0.2628686 0.4045059
v 0.3618037 -0.2236095 0.2628627
v -0.138194 -0.2236097 0.4253247
v -0.3440948 -0.262868 0.2499986
vt 0.8804223 0.2763903
vt 0.9472115 0.2371321
vt 0.7236051 0.07467294
vt 1 0.5
vt 1 0.5
vt 0.9702271 0.7236078
vt 0.8804223 0.2763901
vt 0.7236051 0.07467294
vt 0.6381981 0.237131
vt 0.8090168 0.5
vt 0.861802 0.7628682
vt 0.6453056 0.7236099
vt 0.3546945 0.2763901
vt 0.5000001 0.5000001
vt 0.6381981 0.2371312
vt 0.8090168 0.5000001
vt 0.8804223 0.2763903
vt 1 0.5
vt 0.6453056 0.72361
vt 0.861802 0.7628682
vt 0.3618019 0.762869
vt 0.1909833 0.5000001
vt 0.5854078 0.9253274
vt 0.2763948 0.9253271
vt 0.02977291 0.2763922
vt 0 0.5
vt 0.1381979 0.2371319
vt 0.1909833 0.5000001
vt 0.3546945 0.2763901
vt 0.5000001 0.5000001
vt 0.1195777 0.7236099
vt 0.3618019 0.762869
vt 0.2763948 0.9253271
vt 0.05278851 0.7628679
vt 0 0.5
vt 0.1195777 0.7236098
vt 0.02977291 0.2763922
vt 0 0.5
vt 0 0.5
vt 0.1381979 0.2371317
vt 0.1909833 0.5
vt 0.3546945 0.27639
vt 0.4145921 0.07467275
vt 0.223608 0.07467413
vt 0.1381979 0.2371319
vt 0.5000001 0
vt 0.4145921 0.07467285
vt 0.6453056 0.72361
vt 0.5854078 0.9253274
vt 0.861802 0.7628682
vt 0.776392 0.925326
vt 0.5000001 1
vt 0.9702271 0.7236078
vt 0.861802 0.7628682
vt 1 0.5
vt 1 0.5
vt 0.8090168 0.5000001
vt 0.2763948 0.9253271
vt 0.5000001 1
vt 0.5854078 0.9253274
vt 0.2763948 0.9253271
vt 0.05278851 0.7628679
vt 0.1195777 0.7236098
vt 0.3618019 0.7628687
vt 0.5854078 0.9253272
vt 0.776392 0.925326
vt 0.6453056 0.7236099
vt 0.861802 0.7628682
vt 0.1909833 0.5
vt 0.1195777 0.7236098
vt 0 0.5
vt 0.3618019 0.7628687
vt 0.5000001 0.5
vt 0.6453056 0.7236099
vt 0.8090168 0.5
vt 0.3546945 0.27639
vt 0.6381981 0.237131
vt 0.4145921 0.07467275
vt 0.7236051 0.07467294
vt 0.6381981 0.237131
vt 0.4145921 0.07467275
vt 0.5000001 0
vt 0.7236051 0.07467294
vt 0.9472115 0.2371321
vt 0.4145921 0.07467285
vt 0.6381981 0.2371312
vt 0.8804223 0.2763903
vt 0.3546945 0.2763901
vt 0.1381979 0.2371319
vn 0.7236074 -0.4472171 0.5257273
vn 0.850649 -0.5257341 0
vn 0.4253238 -0.8506529 0.3090135
vn 0.9510569 0 0.3090157
vn 0.9510569 0 -0.3090157
vn 0.8944262 0.4472154 0
vn 0.7236075 -0.4472171 -0.5257272
vn 0.4253238 -0.850653 -0.3090133
vn 0.2628683 -0.5257352 -0.8090134
vn 0.5877863 0 -0.8090162
vn 0.6881896 0.5257341 -0.4999987
vn 0.2763901 0.447218 -0.8506494
vn -0.2763899 -0.4472181 0.8506495
vn 0 0 1
vn 0.2628684 -0.5257351 0.8090134
vn 0.5877863 0 0.8090162
vn 0.7236074 -0.4472171 0.5257273
vn 0.9510569 0 0.3090157
vn 0.2763901 0.4472181 0.8506494
vn 0.6881896 0.5257342 0.4999986
vn -0.2628683 0.5257352 0.8090134
vn -0.5877863 0 0.8090162
vn 0.1624572 0.8506536 0.4999962
vn -0.4253239 0.850653 0.3090132
vn -0.8944263 -0.4472153 0
vn -0.951057 0 0.3090157
vn -0.6881896 -0.5257342 0.4999987
vn -0.5877863 0 0.8090162
vn -0.2763899 -0.4472181 0.8506495
vn 0 0 1
vn -0.7236074 0.4472173 0.5257272
vn -0.2628683 0.5257352 0.8090134
vn -0.4253239 0.850653 0.3090132
vn -0.8506489 0.5257342 0
vn -0.9510569 0 -0.3090158
vn -0.7236074 0.447217 -0.5257273
vn -0.8944263 -0.4472153 0
vn -0.9510569 0 -0.3090158
vn -0.951057 0 0.3090157
vn -0.6881895 -0.5257342 -0.4999987
vn -0.5877863 0 -0.8090162
vn -0.2763901 -0.4472181 -0.8506494
vn -0.1624572 -0.8506535 -0.4999962
vn -0.5257286 -0.8506523 0
vn -0.6881896 -0.5257342 0.4999987
vn 0 -1 0
vn -0.1624571 -0.8506535 0.4999963
vn 0.2763901 0.4472181 0.8506494
vn 0.1624572 0.8506536 0.4999962
vn 0.6881896 0.5257342 0.4999986
vn 0.5257288 0.8506523 0
vn 0 1 0
vn 0.8944262 0.4472154 0
vn 0.6881896 0.5257341 -0.4999987
vn 0.9510569 0 -0.3090157
vn 0.9510569 0 0.3090157
vn 0.5877863 0 0.8090162
vn -0.4253239 0.850653 0.3090132
vn 0 1 0
vn 0.1624572 0.8506536 0.4999962
vn -0.4253239 0.8506529 -0.3090133
vn -0.8506489 0.5257342 0
vn -0.7236074 0.447217 -0.5257273
vn -0.2628685 0.5257351 -0.8090135
vn 0.1624572 0.8506536 -0.4999962
vn 0.5257288 0.8506523 0
vn 0.2763901 0.447218 -0.8506494
vn 0.6881896 0.5257341 -0.4999987
vn -0.5877863 0 -0.8090162
vn -0.7236074 0.447217 -0.5257273
vn -0.9510569 0 -0.3090158
vn -0.2628685 0.5257351 -0.8090135
vn 0 0 -1
vn 0.2763901 0.447218 -0.8506494
vn 0.5877863 0 -0.8090162
vn -0.2763901 -0.4472181 -0.8506494
vn 0.2628683 -0.5257352 -0.8090134
vn -0.1624572 -0.8506535 -0.4999962
vn 0.4253238 -0.850653 -0.3090133
vn 0.2628683 -0.5257352 -0.8090134
vn -0.1624572 -0.8506535 -0.4999962
vn 0 -1 0
vn 0.4253238 -0.8506529 0.3090135
vn 0.850649 -0.5257341 0
vn -0.1624571 -0.8506535 0.4999963
vn 0.2628684 -0.5257351 0.8090134
vn 0.7236074 -0.4472171 0.5257273
vn -0.2763899 -0.4472181 0.8506495
vn -0.6881896 -0.5257342 0.4999987
g Ico Sphere 2 subdivisions_0
f 3/3/3 2/2/2 1/1/1
f 2/2/2 4/4/4 1/1/1
f 2/2/2 5/5/5 4/4/4
f 5/5/5 6/6/6 4/4/4
f 7/7/7 5/5/5 2/2/2
f 8/8/8 7/7/7 2/2/2
f 9/9/9 7/7/7 8/8/8
f 9/9/9 10/10/10 7/7/7
f 10/10/10 5/5/5 7/7/7
f 10/10/10 11/11/11 5/5/5
f 12/12/12 11/11/11 10/10/10
f 15/15/15 14/14/14 13/13/13
f 15/15/15 16/16/16 14/14/14
f 17/17/17 16/16/16 15/15/15
f 18/18/18 16/16/16 17/17/17
f 16/16/16 19/19/19 14/14/14
f 20/20/20 19/19/19 16/16/16
f 19/19/19 21/21/21 14/14/14
f 14/14/14 21/21/21 22/22/22
f 19/19/19 23/23/23 21/21/21
f 21/21/21 23/23/23 24/24/24
f 27/27/27 26/26/26 25/25/25
f 27/27/27 28/28/28 26/26/26
f 29/29/29 28/28/28 27/27/27
f 30/30/30 28/28/28 29/29/29
f 28/28/28 31/31/31 26/26/26
f 32/32/32 31/31/31 28/28/28
f 32/32/32 33/33/33 31/31/31
f 31/31/31 33/33/33 34/34/34
f 31/31/31 34/34/34 26/26/26
f 26/26/26 34/34/34 35/35/35
f 34/34/34 36/36/36 35/35/35
f 39/39/39 38/38/38 37/37/37
f 37/37/37 38/38/38 40/40/40
f 40/40/40 38/38/38 41/41/41
f 40/40/40 41/41/41 42/42/42
f 40/40/40 42/42/42 43/43/43
f 37/37/37 40/40/40 44/44/44
f 44/44/44 40/40/40 43/43/43
f 45/45/45 37/37/37 44/44/44
f 44/44/44 43/43/43 46/46/46
f 47/47/47 45/45/45 44/44/44
f 47/47/47 44/44/44 46/46/46
f 50/50/50 49/49/49 48/48/48
f 50/50/50 51/51/51 49/49/49
f 51/51/51 52/52/52 49/49/49
f 53/53/53 51/51/51 50/50/50
f 54/54/54 51/51/51 53/53/53
f 54/54/54 53/53/53 55/55/55
f 53/53/53 50/50/50 56/56/56
f 56/56/56 50/50/50 57/57/57
f 60/60/60 59/59/59 58/58/58
f 58/58/58 59/59/59 61/61/61
f 62/62/62 58/58/58 61/61/61
f 62/62/62 61/61/61 63/63/63
f 63/63/63 61/61/61 64/64/64
f 61/61/61 59/59/59 65/65/65
f 64/64/64 61/61/61 65/65/65
f 65/65/65 59/59/59 66/66/66
f 64/64/64 65/65/65 67/67/67
f 68/68/68 65/65/65 66/66/66
f 67/67/67 65/65/65 68/68/68
f 71/71/71 70/70/70 69/69/69
f 70/70/70 72/72/72 69/69/69
f 69/69/69 72/72/72 73/73/73
f 72/72/72 74/74/74 73/73/73
f 73/73/73 74/74/74 75/75/75
f 69/69/69 73/73/73 76/76/76
f 77/77/77 73/73/73 75/75/75
f 76/76/76 73/73/73 77/77/77
f 76/76/76 77/77/77 78/78/78
f 81/81/81 80/80/80 79/79/79
f 81/81/81 79/79/79 82/82/82
f 82/82/82 79/79/79 83/83/83
f 83/83/83 79/79/79 84/84/84
f 83/83/83 85/85/85 82/82/82
f 83/83/83 86/86/86 85/85/85
f 87/87/87 86/86/86 83/83/83
f 86/86/86 88/88/88 85/85/85
f 88/88/88 89/89/89 85/85/85
