g intro_bg_arch
v -0.7015691 -20.8531 -0.5000007
v 0.5304818 -20.8531 -0.5000005
v 0.5304832 6.894338 -0.5000001
v -0.7015672 7.605663 -0.4999999
v 7.275675 10.78867 -0.4999994
v 7.275675 12.21132 -0.4999991
v -0.9515662 7.75 -0.2499999
v 7.275675 12.5 -0.249999
v 7.275675 12.5 0.2500009
v -0.9515662 7.75 0.2500001
v 7.275675 10.78867 -0.4999994
v 7.275675 10.5 -0.2499994
v 7.275675 10.5 0.2500006
v 7.275675 10.78867 0.5000006
v 7.275675 12.21132 -0.4999991
v 7.275675 11.26906 0.5000007
v 7.275675 11.5 0.3388448
v 7.275675 11.73094 0.5000008
v 7.275675 12.21132 0.5000009
v 7.275675 12.5 -0.249999
v 7.275675 12.5 0.2500009
v 7.275675 12.21132 0.5000009
v 7.275675 11.73094 0.5000008
v -0.2855419 7.36547 0.5
v -0.7015672 7.605663 0.5000001
v -0.2855436 -20.8531 0.4999993
v -0.7015691 -20.8531 0.4999992
v 7.275675 10.5 0.2500006
v 7.275675 10.5 -0.2499994
v 0.7804832 6.75 -0.2500001
v 0.7804832 6.75 0.2499999
v -0.9515691 -20.8531 -0.2500008
v -0.9515662 7.75 -0.2499999
v -0.9515662 7.75 0.2500001
v -0.9515691 -20.8531 0.2499992
v 0.7804818 -20.8531 -0.2500006
v 0.7804818 -20.8531 0.2499994
v 0.7804832 6.75 0.2499999
v 0.7804832 6.75 -0.2500001
v 0.4024894 6.905996 0.3311982
v -0.3160227 6.50424 0.3311981
v -0.1178449 6.847494 0.7026088
v 0.210107 7.017068 0.7026088
v -0.3160227 6.50424 0.3311981
v -0.3074131 7.38308 0.3311983
v -0.1150308 7.272007 0.7026088
v -0.1178449 6.847494 0.7026088
v -0.3074131 7.38308 0.3311983
v 0.4021553 7.784836 0.3311984
v 0.203977 7.441581 0.7026089
v -0.1150308 7.272007 0.7026088
v 0.4021553 7.784836 0.3311984
v 0.4024894 6.905996 0.3311982
v 0.210107 7.017068 0.7026088
v 0.203977 7.441581 0.7026089
v -0.2221928 6.868364 -0.6726388
v 0.1683679 7.100546 -0.6726388
v 0.1741633 7.554873 -0.6726387
v -0.2163973 7.32269 -0.6726388
v -0.1150308 7.272007 0.7026088
v 0.203977 7.441581 0.7026089
v 0.210107 7.017068 0.7026088
v -0.1178449 6.847494 0.7026088
v 0.1741633 7.554873 -0.6726387
v 0.1683679 7.100546 -0.6726388
v 0.3607502 6.989474 -0.4742131
v 0.3723416 7.898128 -0.4742129
v -0.2163973 7.32269 -0.6726388
v 0.1741633 7.554873 -0.6726387
v 0.3723416 7.898128 -0.4742129
v -0.4087796 7.433763 -0.474213
v -0.2221928 6.868364 -0.6726388
v -0.2163973 7.32269 -0.6726388
v -0.4087796 7.433763 -0.474213
v -0.4203706 6.52511 -0.4742132
v 0.1683679 7.100546 -0.6726388
v -0.2221928 6.868364 -0.6726388
v -0.4203706 6.52511 -0.4742132
v 0.3607502 6.989474 -0.4742131
v -0.9515691 -20.8531 -0.2500008
v -0.7015691 -20.8531 -0.5000007
v -0.7015672 7.605663 -0.4999999
v -0.9515662 7.75 -0.2499999
v -0.9515662 7.75 0.2500001
v -0.7015672 7.605663 0.5000001
v -0.7015691 -20.8531 0.4999992
v -0.9515691 -20.8531 0.2499992
v -0.9515662 7.75 -0.2499999
v -0.7015672 7.605663 -0.4999999
v 7.275675 12.21132 -0.4999991
v 7.275675 12.5 -0.249999
v 7.275675 12.5 0.2500009
v 7.275675 12.21132 0.5000009
v -0.7015672 7.605663 0.5000001
v -0.9515662 7.75 0.2500001
v 0.5304818 -20.8531 -0.5000005
v 0.7804818 -20.8531 -0.2500006
v 0.7804832 6.75 -0.2500001
v 0.5304832 6.894338 -0.5000001
v 0.5304832 6.894338 0.4999999
v 0.7804832 6.75 0.2499999
v 0.7804818 -20.8531 0.2499994
v 0.5304818 -20.8531 0.4999994
v 0.5304832 6.894338 -0.5000001
v 0.7804832 6.75 -0.2500001
v 7.275675 10.5 -0.2499994
v 7.275675 10.78867 -0.4999994
v 7.275675 10.78867 0.5000006
v 7.275675 10.5 0.2500006
v 0.7804832 6.75 0.2499999
v 0.5304832 6.894338 0.4999999
v 0.114458 7.13453 0.5
v 0.5304818 -20.8531 0.4999994
v 0.1144563 -20.8531 0.4999993
v 0.5304832 6.894338 0.4999999
v 7.275675 11.26906 0.5000007
v 7.275675 10.78867 0.5000006
v -0.08554364 -20.8531 0.3388434
v 0.1144563 -20.8531 0.4999993
v 0.5304818 -20.8531 0.4999994
v 0.7804818 -20.8531 0.2499994
v -0.9515691 -20.8531 0.2499992
v 0.7804818 -20.8531 -0.2500006
v -0.7015691 -20.8531 0.4999992
v -0.2855436 -20.8531 0.4999993
v -0.9515691 -20.8531 -0.2500008
v 0.5304818 -20.8531 -0.5000005
v -0.7015691 -20.8531 -0.5000007
v 0.1144563 -20.8531 0.4999993
v -0.08554364 -20.8531 0.3388434
v -0.08554193 7.25 0.3388441
v 0.114458 7.13453 0.5
v -0.08554364 -20.8531 0.3388434
v -0.2855436 -20.8531 0.4999993
v -0.2855419 7.36547 0.5
v -0.08554193 7.25 0.3388441
v 0.114458 7.13453 0.5
v -0.08554193 7.25 0.3388441
v 7.275675 11.5 0.3388448
v 7.275675 11.26906 0.5000007
v -0.08554193 7.25 0.3388441
v -0.2855419 7.36547 0.5
v 7.275675 11.73094 0.5000008
v 7.275675 11.5 0.3388448
vt 0.2974303 0.9986073
vt 0.360392 0.9917434
vt 0.08425295 0.197945
vt 0.01421218 0.1844594
vt 0.3901981 0.04895756
vt 0.3760401 0.008258405
vt 0.7817138 0.8326126
vt 0.8714299 0.9746542
vt 0.8966795 0.9753434
vt 0.8069635 0.8333018
vt 0.9993324 0.219561
vt 0.9864835 0.2111457
vt 0.9607857 0.2111423
vt 0.9479368 0.219554
vt 0.9993324 0.2610247
vt 0.9479368 0.233555
vt 0.9562195 0.240287
vt 0.9479368 0.2470167
vt 0.9479368 0.2610177
vt 0.9864835 0.2694364
vt 0.9607857 0.269433
vt 0.7629744 0.9910206
vt 0.7682347 0.9773327
vt 0.4311814 0.8065951
vt 0.4073761 0.8108888
vt 0.7401792 0.002550212
vt 0.7190042 0
vt 0.9479368 0.2111422
vt 0.9739684 0.2111422
vt 0.9739684 6.948805E-09
vt 0.9479368 0
vt 0.8557056 0
vt 0.7817138 0.8326126
vt 0.8069635 0.8333018
vt 0.8809552 0.0006892103
vt 0.8966796 0.8087148
vt 0.9223774 0.8087183
vt 0.9223774 0.004215812
vt 0.8966796 0.004212324
vt 0.9672736 0.4451149
vt 0.9672736 0.4218565
vt 0.9479368 0.430025
vt 0.9479368 0.4405368
vt 0.9536846 0.3585063
vt 0.9479368 0.3839184
vt 0.9696683 0.3822351
vt 0.9724613 0.3699615
vt 0.9479368 0.3839184
vt 0.9539855 0.3962424
vt 0.9724613 0.3874564
vt 0.9696683 0.3822351
vt 0.9686738 0.4218565
vt 0.9686738 0.3962424
vt 0.9479864 0.3994861
vt 0.9479368 0.4118589
vt 0.9580258 0.3484291
vt 0.9782038 0.3415174
vt 0.9782038 0.3282748
vt 0.9580258 0.3351865
vt 0.9484024 0.457485
vt 0.9651367 0.4622926
vt 0.9651367 0.4499187
vt 0.9479368 0.4451149
vt 0.9782038 0.3282748
vt 0.9782038 0.3415174
vt 0.9882928 0.3446829
vt 0.9882928 0.3181977
vt 0.9580258 0.3351865
vt 0.9782038 0.3282748
vt 0.9882928 0.3181977
vt 0.9479368 0.3320211
vt 0.9580258 0.3484291
vt 0.9580258 0.3351865
vt 0.9479368 0.3320211
vt 0.9479368 0.3585063
vt 0.9782038 0.3415174
vt 0.9580258 0.3484291
vt 0.9479368 0.3585063
vt 0.9882928 0.3446829
vt 0.2846544 1
vt 0.2974303 0.9986073
vt 0.01421218 0.1844594
vt 0 0.181723
vt 0.8069635 0.8333018
vt 0.8230612 0.8295596
vt 0.8966796 0.001148499
vt 0.8809552 0.0006892103
vt 0 0.181723
vt 0.01421218 0.1844594
vt 0.3760401 0.008258405
vt 0.3731672 0
vt 0.7598134 0.9992459
vt 0.7629744 0.9910206
vt 0.4073761 0.8108888
vt 0.393071 0.8134691
vt 0.360392 0.9917434
vt 0.3731678 0.9903505
vt 0.0984652 0.2006815
vt 0.08425295 0.197945
vt 0.937304 0
vt 0.9223774 0.004215812
vt 0.9223774 0.8087183
vt 0.937304 0.8087093
vt 0.08425295 0.197945
vt 0.0984652 0.2006815
vt 0.393071 0.05721596
vt 0.3901981 0.04895756
vt 0.7785526 0.9504843
vt 0.7817137 0.942259
vt 0.4921801 0.795593
vt 0.477875 0.7981732
vt 0.4540697 0.8024669
vt 0.7817138 0.007552462
vt 0.7605387 0.005002195
vt 0.477875 0.7981732
vt 0.7732923 0.9641722
vt 0.7785526 0.9504843
vt 0.9563271 0.293817
vt 0.9479368 0.2994475
vt 0.9479368 0.3111596
vt 0.9609526 0.3181977
vt 0.9609526 0.2694364
vt 0.9869842 0.3181977
vt 0.9479368 0.2764745
vt 0.9479368 0.2881866
vt 0.9869843 0.2694364
vt 1 0.3111596
vt 1 0.2764745
vt 0.9479367 1.823366E-05
vt 0.9373041 0
vt 0.937304 0.8190698
vt 0.9479367 0.8157226
vt 0.750359 0.003776203
vt 0.7401792 0.002550212
vt 0.4311814 0.8065951
vt 0.4426256 0.804531
vt 0.4540697 0.8024669
vt 0.4426256 0.804531
vt 0.7707635 0.9707524
vt 0.7732923 0.9641722
vt 0.4426256 0.804531
vt 0.4311814 0.8065951
vt 0.7682347 0.9773327
vt 0.7707635 0.9707524
vn 0 0 -1
vn 0 0 -1
vn 0 0 -1
vn 0 0 -1
vn 0 0 -1
vn 0 0 -1
vn -0.4999999 0.8660255 0
vn -0.4999999 0.8660255 0
vn -0.4999999 0.8660255 0
vn -0.4999999 0.8660255 0
vn 1 0 0
vn 1 0 0
vn 1 0 0
vn 1 0 0
vn 1 0 0
vn 1 0 0
vn 1 0 0
vn 1 0 0
vn 1 0 0
vn 1 0 0
vn 1 0 0
vn 0 0 1
vn 0 0 1
vn 0 0 1
vn 0 0 1
vn 0 0 1
vn 0 0 1
vn 0.4999997 -0.8660255 0
vn 0.4999997 -0.8660255 0
vn 0.4999997 -0.8660255 0
vn 0.4999997 -0.8660255 0
vn -1 0 0
vn -1 0 0
vn -1 0 0
vn -1 0 0
vn 1 0 0
vn 1 0 0
vn 1 0 0
vn 1 0 0
vn 0.4228626 -0.774527 0.4704201
vn 0.4228626 -0.774527 0.4704201
vn 0.4228626 -0.774527 0.4704201
vn 0.4228626 -0.774527 0.4704201
vn -0.8860853 0.007766377 0.4634573
vn -0.8860853 0.007766377 0.4634573
vn -0.8860853 0.007766377 0.4634573
vn -0.8860853 0.007766377 0.4634573
vn -0.428885 0.7721301 0.468906
vn -0.428885 0.7721301 0.468906
vn -0.428885 0.7721301 0.468906
vn -0.428885 0.7721301 0.468906
vn 0.8845394 0.004386866 0.4664449
vn 0.8845394 0.004386866 0.4664449
vn 0.8845394 0.004386866 0.4664449
vn 0.8845394 0.004386866 0.4664449
vn 0 0 -1
vn 0 0 -1
vn 0 0 -1
vn 0 0 -1
vn 0 0 1
vn 0 0 1
vn 0 0 1
vn 0 0 1
vn 0.7153674 -0.009125466 -0.698689
vn 0.7153674 -0.009125466 -0.698689
vn 0.7153674 -0.009125466 -0.698689
vn 0.7153674 -0.009125466 -0.698689
vn -0.3655868 0.6149636 -0.6986888
vn -0.3655868 0.6149636 -0.6986888
vn -0.3655868 0.6149636 -0.6986888
vn -0.3655868 0.6149636 -0.6986888
vn -0.7153682 0.009125499 -0.6986882
vn -0.7153682 0.009125499 -0.6986882
vn -0.7153682 0.009125499 -0.6986882
vn -0.7153682 0.009125499 -0.6986882
vn 0.3655873 -0.6149645 -0.6986878
vn 0.3655873 -0.6149645 -0.6986878
vn 0.3655873 -0.6149645 -0.6986878
vn 0.3655873 -0.6149645 -0.6986878
vn -0.7071075 0 -0.7071061
vn -0.7071075 0 -0.7071061
vn -0.7071075 0 -0.7071061
vn -0.7071075 0 -0.7071061
vn -0.7071075 0 0.7071061
vn -0.7071075 0 0.7071061
vn -0.7071075 0 0.7071061
vn -0.7071075 0 0.7071061
vn -0.3535535 0.6123729 -0.7071062
vn -0.3535535 0.6123729 -0.7071062
vn -0.3535535 0.6123729 -0.7071062
vn -0.3535535 0.6123729 -0.7071062
vn -0.3535535 0.6123727 0.7071064
vn -0.3535535 0.6123727 0.7071064
vn -0.3535535 0.6123727 0.7071064
vn -0.3535535 0.6123727 0.7071064
vn 0.7071068 0 -0.7071068
vn 0.7071068 0 -0.7071068
vn 0.7071068 0 -0.7071068
vn 0.7071068 0 -0.7071068
vn 0.7071067 0 0.7071068
vn 0.7071067 0 0.7071068
vn 0.7071067 0 0.7071068
vn 0.7071067 0 0.7071068
vn 0.3535534 -0.6123726 -0.7071065
vn 0.3535534 -0.6123726 -0.7071065
vn 0.3535534 -0.6123726 -0.7071065
vn 0.3535534 -0.6123726 -0.7071065
vn 0.3535533 -0.6123728 0.7071064
vn 0.3535533 -0.6123728 0.7071064
vn 0.3535533 -0.6123728 0.7071064
vn 0.3535533 -0.6123728 0.7071064
vn 0 0 1
vn 0 0 1
vn 0 0 1
vn 0 0 1
vn 0 0 1
vn 0 0 1
vn 0 -1 0
vn 0 -1 0
vn 0 -1 0
vn 0 -1 0
vn 0 -1 0
vn 0 -1 0
vn 0 -1 0
vn 0 -1 0
vn 0 -1 0
vn 0 -1 0
vn 0 -1 0
vn -0.6274353 0 0.7786688
vn -0.6274353 0 0.7786688
vn -0.6274353 0 0.7786688
vn -0.6274353 0 0.7786688
vn 0.6274354 0 0.7786687
vn 0.6274354 0 0.7786687
vn 0.6274354 0 0.7786687
vn 0.6274354 0 0.7786687
vn -0.3137188 0.543377 0.7786667
vn -0.3137188 0.543377 0.7786667
vn -0.3137188 0.543377 0.7786667
vn -0.3137188 0.543377 0.7786667
vn 0.3137179 -0.5433756 0.7786682
vn 0.3137179 -0.5433756 0.7786682
vn 0.3137179 -0.5433756 0.7786682
vn 0.3137179 -0.5433756 0.7786682
g intro_bg_arch_0
f 3/3/3 2/2/2 1/1/1
f 4/4/4 3/3/3 1/1/1
f 5/5/5 3/3/3 4/4/4
f 6/6/6 5/5/5 4/4/4
f 9/9/9 8/8/8 7/7/7
f 10/10/10 9/9/9 7/7/7
f 13/13/13 12/12/12 11/11/11
f 11/11/11 14/14/14 13/13/13
f 11/11/11 15/15/15 14/14/14
f 15/15/15 16/16/16 14/14/14
f 15/15/15 17/17/17 16/16/16
f 15/15/15 18/18/18 17/17/17
f 15/15/15 19/19/19 18/18/18
f 15/15/15 20/20/20 19/19/19
f 20/20/20 21/21/21 19/19/19
f 24/24/24 23/23/23 22/22/22
f 25/25/25 24/24/24 22/22/22
f 26/26/26 24/24/24 25/25/25
f 27/27/27 26/26/26 25/25/25
f 30/30/30 29/29/29 28/28/28
f 31/31/31 30/30/30 28/28/28
f 34/34/34 33/33/33 32/32/32
f 35/35/35 34/34/34 32/32/32
f 38/38/38 37/37/37 36/36/36
f 39/39/39 38/38/38 36/36/36
f 42/42/42 41/41/41 40/40/40
f 43/43/43 42/42/42 40/40/40
f 46/46/46 45/45/45 44/44/44
f 47/47/47 46/46/46 44/44/44
f 50/50/50 49/49/49 48/48/48
f 51/51/51 50/50/50 48/48/48
f 54/54/54 53/53/53 52/52/52
f 55/55/55 54/54/54 52/52/52
f 58/58/58 57/57/57 56/56/56
f 59/59/59 58/58/58 56/56/56
f 62/62/62 61/61/61 60/60/60
f 63/63/63 62/62/62 60/60/60
f 66/66/66 65/65/65 64/64/64
f 67/67/67 66/66/66 64/64/64
f 70/70/70 69/69/69 68/68/68
f 71/71/71 70/70/70 68/68/68
f 74/74/74 73/73/73 72/72/72
f 75/75/75 74/74/74 72/72/72
f 78/78/78 77/77/77 76/76/76
f 79/79/79 78/78/78 76/76/76
f 82/82/82 81/81/81 80/80/80
f 83/83/83 82/82/82 80/80/80
f 86/86/86 85/85/85 84/84/84
f 87/87/87 86/86/86 84/84/84
f 90/90/90 89/89/89 88/88/88
f 91/91/91 90/90/90 88/88/88
f 94/94/94 93/93/93 92/92/92
f 95/95/95 94/94/94 92/92/92
f 98/98/98 97/97/97 96/96/96
f 99/99/99 98/98/98 96/96/96
f 102/102/102 101/101/101 100/100/100
f 103/103/103 102/102/102 100/100/100
f 106/106/106 105/105/105 104/104/104
f 107/107/107 106/106/106 104/104/104
f 110/110/110 109/109/109 108/108/108
f 111/111/111 110/110/110 108/108/108
f 114/114/114 113/113/113 112/112/112
f 113/113/113 115/115/115 112/112/112
f 112/112/112 115/115/115 116/116/116
f 115/115/115 117/117/117 116/116/116
f 120/120/120 119/119/119 118/118/118
f 118/118/118 121/121/121 120/120/120
f 121/121/121 118/118/118 122/122/122
f 123/123/123 121/121/121 122/122/122
f 118/118/118 124/124/124 122/122/122
f 118/118/118 125/125/125 124/124/124
f 123/123/123 122/122/122 126/126/126
f 127/127/127 123/123/123 126/126/126
f 126/126/126 128/128/128 127/127/127
f 131/131/131 130/130/130 129/129/129
f 132/132/132 131/131/131 129/129/129
f 135/135/135 134/134/134 133/133/133
f 136/136/136 135/135/135 133/133/133
f 139/139/139 138/138/138 137/137/137
f 140/140/140 139/139/139 137/137/137
f 143/143/143 142/142/142 141/141/141
f 144/144/144 143/143/143 141/141/141
