g junk candlestick
v -0.08315914 0.1261142 0.08038756
v -0.1441965 0.01157078 0.141425
v -0.1441965 0.01157078 -0.1469681
v -0.08315914 0.1261142 -0.08593073
v -0.08315914 0.1261142 -0.08593073
v -0.1441965 0.01157078 -0.1469681
v 0.1441965 0.01157078 -0.1469681
v 0.08315914 0.1261142 -0.08593073
v 0.08315914 0.1261142 -0.08593073
v 0.1441965 0.01157078 -0.1469681
v 0.1441965 0.01157078 0.141425
v 0.08315914 0.1261142 0.08038756
v 0.08315914 0.1261142 0.08038756
v 0.1441965 0.01157078 0.141425
v -0.1441965 0.01157078 0.141425
v -0.08315914 0.1261142 0.08038756
v -0.1441965 0.01157078 0.141425
v 0.1441965 0.01157078 0.141425
v 0.1441965 0.01157078 -0.1469681
v -0.1441965 0.01157078 -0.1469681
v -0.08315914 0.1261142 0.08038756
v -0.08315914 0.4559952 0.08038759
v 0.08315914 0.4559952 0.08038759
v 0.08315914 0.1261142 0.08038756
v 0.08315914 0.1261142 0.08038756
v 0.08315914 0.4559952 0.08038759
v 0.08315914 0.4559952 -0.08593071
v 0.08315914 0.1261142 -0.08593073
v 0.08315914 0.1261142 -0.08593073
v 0.08315914 0.4559952 -0.08593071
v -0.08315914 0.4559952 -0.08593071
v -0.08315914 0.1261142 -0.08593073
v -0.08315914 0.1261142 -0.08593073
v -0.08315914 0.4559952 -0.08593071
v -0.08315914 0.4559952 0.08038759
v -0.08315914 0.1261142 0.08038756
v -0.06601299 0.5606662 0.06324145
v -0.074021 0.7524773 0.06189731
v 0.074021 0.7524773 0.06189731
v 0.06601299 0.5606662 0.06324145
v -0.1162305 0.4559952 0.1134589
v -0.1162305 0.5606661 0.113459
v 0.1162305 0.5606661 0.113459
v 0.1162305 0.4559952 0.1134589
v 0.1162305 0.4559952 0.1134589
v 0.1162305 0.5606661 0.113459
v 0.1162305 0.5606662 -0.119002
v 0.1162305 0.4559952 -0.119002
v 0.1162305 0.4559952 -0.119002
v 0.1162305 0.5606662 -0.119002
v -0.1162305 0.5606662 -0.119002
v -0.1162305 0.4559952 -0.119002
v -0.1162305 0.4559952 -0.119002
v -0.1162305 0.5606662 -0.119002
v -0.1162305 0.5606661 0.113459
v -0.1162305 0.4559952 0.1134589
v 0.074021 0.7524773 0.06189731
v -0.074021 0.7524773 0.06189731
v -0.074021 0.6804482 -0.06744036
v 0.074021 0.6804482 -0.06744036
v 0.06601299 0.5606662 0.06324145
v 0.074021 0.7524773 0.06189731
v 0.074021 0.6804482 -0.06744036
v 0.06601299 0.5606662 -0.06878453
v 0.06601299 0.5606662 -0.06878453
v 0.074021 0.6804482 -0.06744036
v -0.074021 0.6804482 -0.06744036
v -0.06601299 0.5606662 -0.06878453
v -0.06601299 0.5606662 -0.06878453
v -0.074021 0.6804482 -0.06744036
v -0.074021 0.7524773 0.06189731
v -0.06601299 0.5606662 0.06324145
v -0.06601299 0.5606662 0.06324145
v -0.1162305 0.5606661 0.113459
v -0.1162305 0.5606662 -0.119002
v -0.06601299 0.5606662 -0.06878453
v 0.06601299 0.5606662 0.06324145
v 0.1162305 0.5606662 -0.119002
v 0.1162305 0.5606661 0.113459
v 0.06601299 0.5606662 -0.06878453
v -0.08315914 0.4559952 0.08038759
v -0.1162305 0.4559952 0.1134589
v 0.1162305 0.4559952 0.1134589
v 0.08315914 0.4559952 0.08038759
v -0.08315914 0.4559952 -0.08593071
v 0.1162305 0.4559952 -0.119002
v -0.1162305 0.4559952 -0.119002
v 0.08315914 0.4559952 -0.08593071
vt 0.8344203 0.2668037
vt 0.7733829 0.1522603
vt 1.061776 0.1522603
vt 1.000739 0.2668037
vt 0.3012014 0.2668037
vt 0.240164 0.1522603
vt 0.5285571 0.1522603
vt 0.4675196 0.2668037
vt 1.000739 0.2668037
vt 1.061776 0.1522603
vt 0.7733829 0.1522603
vt 0.8344203 0.2668037
vt 0.4675196 0.2668037
vt 0.5285571 0.1522603
vt 0.240164 0.1522603
vt 0.3012014 0.2668037
vt 0.240164 0.8026841
vt 0.5285571 0.8026841
vt 0.5285571 1.091077
vt 0.240164 1.091077
vt 0.3012014 0.2668037
vt 0.3012014 0.5966847
vt 0.4675196 0.5966847
vt 0.4675196 0.2668037
vt 0.8344203 0.2668037
vt 0.8344203 0.5966847
vt 1.000739 0.5966847
vt 1.000739 0.2668037
vt 0.4675196 0.2668037
vt 0.4675196 0.5966847
vt 0.3012014 0.5966847
vt 0.3012014 0.2668037
vt 1.000739 0.2668037
vt 1.000739 0.5966847
vt 0.8344203 0.5966847
vt 0.8344203 0.2668037
vt 0.3183476 0.7013555
vt 0.3103396 0.8931665
vt 0.4583815 0.8931665
vt 0.4503735 0.7013555
vt 0.2681301 0.5966847
vt 0.2681301 0.7013555
vt 0.500591 0.7013555
vt 0.500591 0.5966847
vt 0.8013489 0.5966847
vt 0.8013489 0.7013555
vt 1.03381 0.7013555
vt 1.03381 0.5966847
vt 0.500591 0.5966847
vt 0.500591 0.7013555
vt 0.2681301 0.7013555
vt 0.2681301 0.5966847
vt 1.03381 0.5966847
vt 1.03381 0.7013555
vt 0.8013489 0.7013555
vt 0.8013489 0.5966847
vt 0.4583815 0.8822118
vt 0.3103396 0.8822118
vt 0.3103396 1.011549
vt 0.4583815 1.011549
vt 0.8515666 0.7013555
vt 0.8529106 0.8931665
vt 0.9822483 0.8211374
vt 0.9835925 0.7013555
vt 0.4503735 0.7013555
vt 0.4583815 0.8211374
vt 0.3103396 0.8211374
vt 0.3183476 0.7013555
vt 0.9835925 0.7013555
vt 0.9822483 0.8211374
vt 0.8529106 0.8931665
vt 0.8515666 0.7013555
vt 0.3183476 0.8808677
vt 0.2681301 0.8306501
vt 0.2681301 1.063111
vt 0.3183476 1.012894
vt 0.4503735 0.8808677
vt 0.500591 1.063111
vt 0.500591 0.8306501
vt 0.4503735 1.012894
vt 0.3012014 0.8637215
vt 0.2681301 0.8306501
vt 0.500591 0.8306501
vt 0.4675196 0.8637215
vt 0.3012014 1.03004
vt 0.500591 1.063111
vt 0.2681301 1.063111
vt 0.4675196 1.03004
vn -0.8825207 0.4702736 0
vn -0.8825207 0.4702736 0
vn -0.8825207 0.4702736 0
vn -0.8825207 0.4702736 0
vn 0 0.4702735 -0.8825207
vn 0 0.4702735 -0.8825207
vn 0 0.4702735 -0.8825207
vn 0 0.4702735 -0.8825207
vn 0.8825207 0.4702736 0
vn 0.8825207 0.4702736 0
vn 0.8825207 0.4702736 0
vn 0.8825207 0.4702736 0
vn 0 0.4702738 0.8825206
vn 0 0.4702738 0.8825206
vn 0 0.4702738 0.8825206
vn 0 0.4702738 0.8825206
vn 0 -1 0
vn 0 -1 0
vn 0 -1 0
vn 0 -1 0
vn 0 0 1
vn 0 0 1
vn 0 0 1
vn 0 0 1
vn 1 0 0
vn 1 0 0
vn 1 0 0
vn 1 0 0
vn 0 0 -1
vn 0 0 -1
vn 0 0 -1
vn 0 0 -1
vn -1 0 0
vn -1 0 0
vn -1 0 0
vn -1 0 0
vn 0 0.007007474 0.9999754
vn 0 0.007007474 0.9999754
vn 0 0.007007474 0.9999754
vn 0 0.007007474 0.9999754
vn 0 0 1
vn 0 0 1
vn 0 0 1
vn 0 0 1
vn 1 0 0
vn 1 0 0
vn 1 0 0
vn 1 0 0
vn 0 0 -1
vn 0 0 -1
vn 0 0 -1
vn 0 0 -1
vn -1 0 0
vn -1 0 0
vn -1 0 0
vn -1 0 0
vn 0 0.8736553 -0.4865453
vn 0 0.8736553 -0.4865453
vn 0 0.8736553 -0.4865453
vn 0 0.8736553 -0.4865453
vn 0.9985816 -0.05132757 0.01414534
vn 0.9985816 -0.05132757 0.01414534
vn 0.9985816 -0.05132757 0.01414534
vn 0.9985816 -0.05132757 0.01414534
vn 0 0.01122114 -0.9999371
vn 0 0.01122114 -0.9999371
vn 0 0.01122114 -0.9999371
vn 0 0.01122114 -0.9999371
vn -0.9985816 -0.05132757 0.01414534
vn -0.9985816 -0.05132757 0.01414534
vn -0.9985816 -0.05132757 0.01414534
vn -0.9985816 -0.05132757 0.01414534
vn 0 1 0
vn 0 1 0
vn 0 1 0
vn 0 1 0
vn 0 1 0
vn 0 1 0
vn 0 1 0
vn 0 1 0
vn 0 -1 0
vn 0 -1 0
vn 0 -1 0
vn 0 -1 0
vn 0 -1 0
vn 0 -1 0
vn 0 -1 0
vn 0 -1 0
g junk candlestick_0
f 3/3/3 2/2/2 1/1/1
f 4/4/4 3/3/3 1/1/1
f 7/7/7 6/6/6 5/5/5
f 8/8/8 7/7/7 5/5/5
f 11/11/11 10/10/10 9/9/9
f 12/12/12 11/11/11 9/9/9
f 15/15/15 14/14/14 13/13/13
f 16/16/16 15/15/15 13/13/13
f 19/19/19 18/18/18 17/17/17
f 20/20/20 19/19/19 17/17/17
f 23/23/23 22/22/22 21/21/21
f 24/24/24 23/23/23 21/21/21
f 27/27/27 26/26/26 25/25/25
f 28/28/28 27/27/27 25/25/25
f 31/31/31 30/30/30 29/29/29
f 32/32/32 31/31/31 29/29/29
f 35/35/35 34/34/34 33/33/33
f 36/36/36 35/35/35 33/33/33
f 39/39/39 38/38/38 37/37/37
f 40/40/40 39/39/39 37/37/37
f 43/43/43 42/42/42 41/41/41
f 44/44/44 43/43/43 41/41/41
f 47/47/47 46/46/46 45/45/45
f 48/48/48 47/47/47 45/45/45
f 51/51/51 50/50/50 49/49/49
f 52/52/52 51/51/51 49/49/49
f 55/55/55 54/54/54 53/53/53
f 56/56/56 55/55/55 53/53/53
f 59/59/59 58/58/58 57/57/57
f 60/60/60 59/59/59 57/57/57
f 63/63/63 62/62/62 61/61/61
f 64/64/64 63/63/63 61/61/61
f 67/67/67 66/66/66 65/65/65
f 68/68/68 67/67/67 65/65/65
f 71/71/71 70/70/70 69/69/69
f 72/72/72 71/71/71 69/69/69
f 75/75/75 74/74/74 73/73/73
f 76/76/76 75/75/75 73/73/73
f 73/73/73 74/74/74 77/77/77
f 78/78/78 75/75/75 76/76/76
f 74/74/74 79/79/79 77/77/77
f 80/80/80 78/78/78 76/76/76
f 77/77/77 79/79/79 80/80/80
f 79/79/79 78/78/78 80/80/80
f 83/83/83 82/82/82 81/81/81
f 84/84/84 83/83/83 81/81/81
f 81/81/81 82/82/82 85/85/85
f 86/86/86 83/83/83 84/84/84
f 82/82/82 87/87/87 85/85/85
f 88/88/88 86/86/86 84/84/84
f 85/85/85 87/87/87 88/88/88
f 87/87/87 86/86/86 88/88/88
