g mockup_beefboy_sword
v 1.842317 1.394782 2.74542
v 1.842317 1.394782 -0.1082715
v 1.842317 1.992395 -0.1082709
v 1.842317 1.992395 2.745419
v 2.207571 1.992395 -0.1082709
v 2.207571 1.394782 2.74542
v 2.207571 1.394782 -0.1082715
v 2.207571 1.992395 2.745419
vn -0.5773503 -0.5773503 0.5773503
vn -0.5773503 -0.5773503 -0.5773503
vn -0.5773503 0.5773503 -0.5773503
vn -0.5773503 0.5773503 0.5773503
vn 0.5773503 0.5773503 -0.5773503
vn 0.5773503 -0.5773503 0.5773503
vn 0.5773503 -0.5773503 -0.5773503
vn 0.5773503 0.5773503 0.5773503
g mockup_beefboy_sword_0
f 3/3/3 2/2/2 1/1/1
f 4/4/4 3/3/3 1/1/1
f 3/3/3 5/5/5 2/2/2
f 3/3/3 4/4/4 5/5/5
f 4/4/4 1/1/1 6/6/6
f 6/6/6 1/1/1 2/2/2
f 5/5/5 7/7/7 2/2/2
f 7/7/7 6/6/6 2/2/2
f 8/8/8 4/4/4 6/6/6
f 4/4/4 8/8/8 5/5/5
f 8/8/8 6/6/6 7/7/7
f 5/5/5 8/8/8 7/7/7
