g monolith_fragment 2
v 0.0377687 7.5224 2
v 0.1167305 9.584167 2
v 0.1957621 7.646453 2
v -3.240284 9.994888 2
v -3.240284 11.3041 2
v -2.365672 11.53741 2
v -3.829426 9.407137 2
v -1.472856 9.407135 2
v -1.472856 8.819382 2
v -1.472856 8.819382 2
v -2.65157 8.820505 2
v -3.829426 9.407137 2
v -2.65157 8.820505 2
v -2.65157 7.643875 2
v -3.829426 9.407137 2
v -2.65157 7.643875 2
v -3.829426 7.643878 2
v -3.829426 9.407137 2
v -3.829426 7.643878 2
v -3.829618 11.24594 2
v -3.829426 9.407137 2
v -3.829426 5.880618 2
v -2.65157 5.880616 2
v -2.65157 5.587782 2
v 0.01944007 7.540728 1.687235
v 0.01944013 7.540729 2
v 0.0377687 7.5224 2
v 0.1111691 8.446931 -2
v 0.4800196 8.033927 -2
v 0.2898103 10.33153 -2
v -0.09285325 7.428435 2
v 0.01944013 7.540729 2
v 0.01944007 7.540728 1.687235
v -0.2051337 10.45128 -2
v 0.3699571 10.51621 -2
v 0.4107581 10.32481 1.275584
v 0.4800196 8.033927 -2
v 0.1111691 8.446931 -2
v 0.2433662 7.837524 1.290836
v -1.178285 8.525505 1.7
v -0.8837136 8.231628 2
v -2.061999 8.231628 2
v -2.35657 8.525505 1.7
v -3.534855 7.349999 1.7
v -2.35657 7.349998 1.7
v -2.061999 7.056122 2
v -3.240284 7.056122 2
v -3.534855 6.174494 1.7
v -3.534855 7.349999 1.7
v -3.240284 7.056122 2
v -3.239855 6.468369 2
v -1.472856 8.819382 2
v -1.178285 8.525505 1.7
v -2.35657 8.525505 1.7
v -2.65157 8.820505 2
v -3.829426 7.643878 2
v -3.534855 7.349999 1.7
v -3.534855 6.174494 1.7
v -3.829426 5.880618 2
v -1.178285 9.701012 1.7
v -0.8837135 9.994888 2
v -0.8837136 8.231628 2
v -1.178285 8.525505 1.7
v -0.8837135 9.994888 2
v -1.178285 9.701012 1.7
v -3.534855 9.701013 1.7
v -3.240284 9.994888 2
v -2.35657 6.174493 1.7
v -2.65157 5.880616 2
v -3.829426 5.880618 2
v -3.534855 6.174494 1.7
v -1.472856 9.407135 2
v -1.178285 9.701012 1.7
v -1.178285 8.525505 1.7
v -1.472856 8.819382 2
v -2.35657 8.525505 1.7
v -2.061999 8.231628 2
v -2.061999 7.056122 2
v -2.35657 7.349998 1.7
v -2.65157 7.643875 2
v -2.65157 8.820505 2
v -2.35657 8.525505 1.7
v -2.35657 7.349998 1.7
v -3.239855 6.468369 2
v -2.061999 6.468369 2
v -2.35657 6.174493 1.7
v -3.534855 6.174494 1.7
v -2.65157 5.880616 2
v -2.35657 6.174493 1.7
v -2.35657 5.821735 1.7
v -2.65157 5.587782 2
v -2.35657 6.174493 1.7
v -2.061999 6.468369 2
v -2.061999 6.0119 2
v -2.35657 5.821735 1.7
v -3.534855 9.701013 1.7
v -1.178285 9.701012 1.7
v -1.472856 9.407135 2
v -3.829426 9.407137 2
v -2.65157 7.643875 2
v -2.35657 7.349998 1.7
v -3.534855 7.349999 1.7
v -3.829426 7.643878 2
v -5 11.95099 1.75
v -5 5.82598 1.75
v -5 6.005386 -1.75
v -5 12.0148 -1.75
v -5 5.82598 1.75
v -5 11.95099 1.75
v -4.75 11.79381 2
v -4.75 5.69104 2
v -3.445492 5.016663 2
v -3.606177 5.190938 -2
v -4.75 5.85404 -2
v -5 6.005386 -1.75
v -5 5.82598 1.75
v -4.75 5.69104 2
v -2.365672 11.53741 2
v -2.184028 11.01923 -2
v -0.2051337 10.45128 -2
v 0.4107581 10.32481 1.275584
v 0.4448824 10.34032 2.000001
v 0.01944007 7.540728 1.687235
v 0.0377687 7.5224 2
v 0.1957621 7.646453 2
v 0.2433662 7.837524 1.290836
v -2.35657 5.821735 1.7
v -0.09285325 7.428435 2
v -2.061999 6.0119 2
v -3.606177 5.190938 -2
v 0.1111691 8.446931 -2
v -3.445492 5.016663 2
v -2.65157 5.587782 2
v -3.240284 11.3041 2
v -3.240284 9.994888 2
v -3.534855 9.701013 1.7
v -3.534855 11.18303 1.7
v -5 12.0148 -1.75
v -4.75 11.86673 -2
v -3.650439 11.19545 -2
v -3.867285 11.25492 2
v -5 11.95099 1.75
v -4.75 11.79381 2
v -5 12.0148 -1.75
v -5 6.005386 -1.75
v -4.75 5.85404 -2
v -4.75 11.86673 -2
v -2.365672 11.53741 2
v 0.4448824 10.34032 2.000001
v 0.1167305 9.584167 2
v -0.8837135 9.994888 2
v -3.240284 9.994888 2
v 0.1167305 9.584167 2
v 0.0377687 7.5224 2
v -0.8837135 9.994888 2
v 0.01944013 7.540729 2
v 0.01944013 7.540729 2
v -0.09285325 7.428435 2
v -0.8837135 9.994888 2
v -0.8837136 8.231628 2
v -2.061999 6.0119 2
v -2.061999 8.231628 2
v -2.061999 7.056122 2
v -2.061999 6.468369 2
v -3.240284 7.056122 2
v -3.239855 6.468369 2
v -3.829426 7.643878 2
v -3.829426 5.880618 2
v -3.829618 11.24594 2
v -4.75 5.69104 2
v -3.867285 11.25492 2
v -4.75 11.79381 2
v -3.445492 5.016663 2
v -2.65157 5.587782 2
v -3.534855 11.18303 1.7
v -3.534855 9.701013 1.7
v -3.829426 9.407137 2
v -3.829618 11.24594 2
v 0.2898103 10.33153 -2
v 0.3699571 10.51621 -2
v -0.2051337 10.45128 -2
v 0.1111691 8.446931 -2
v -0.2051337 10.45128 -2
v -3.606177 5.190938 -2
v 0.1111691 8.446931 -2
v -2.184028 11.01923 -2
v -3.650439 11.19545 -2
v -4.75 5.85404 -2
v -4.75 11.86673 -2
v -3.534855 11.18303 1.7
v -3.829618 11.24594 2
v -3.867285 11.25492 2
v -3.650439 11.19545 -2
v -2.365672 11.53741 2
v -2.184028 11.01923 -2
v -3.240284 11.3041 2
v 0.4107581 10.32481 1.275584
v 0.3699571 10.51621 -2
v 0.2898103 10.33153 -2
v 0.1167305 9.584167 2
v 0.4448824 10.34032 2.000001
v 0.2433662 7.837524 1.290836
v 0.1957621 7.646453 2
v 0.1167305 9.584167 2
v 0.4800196 8.033927 -2
v 0.2898103 10.33153 -2
vt 0.799738 0.374714
vt 0.7553664 0.4730333
vt 0.81173 0.3571178
vt 0.7142857 0.9230769
vt 0.8203567 0.9230769
vt 1.06281 0.9437289
vt 0.6666667 0
vt 0.6666667 0.6923077
vt 0.6190476 0.6923077
vt 0.6190476 0.6923077
vt 0.6190476 0.7692308
vt 0.6666667 0
vt 0.6190476 0.7692308
vt 0.5238096 0.8461539
vt 0.6666667 0
vt 0.5238096 0.8461539
vt 0.5238096 1
vt 0.6666667 0
vt 0.5238096 1
vt 0.3687923 0
vt 0.6666667 0
vt 0.3809524 0
vt 0.3809524 0.8461538
vt 0.3572122 0.8461538
vt 0 0
vt 0 0
vt 0 0
vt 0.7060635 1
vt 0.7037564 1
vt 0.6262318 0.9999998
vt 0 0
vt 0 0
vt 0 0
vt 0 0
vt 0 0
vt 0 0
vt 0 0
vt 0 0
vt 0 0
vt 0.5952381 0.6538461
vt 0.5713375 0.6153153
vt 0.5713376 0.7692307
vt 0.5952381 0.8076923
vt 0.5 0.9615384
vt 0.5 0.8076923
vt 0.4760994 0.769173
vt 0.4760994 0.9230769
vt 0.4047619 0.9615384
vt 0.5 0.9615384
vt 0.4760994 0.9230208
vt 0.4285714 0.9230209
vt 0.6191386 0.6923077
vt 0.5952381 0.6538461
vt 0.5952381 0.8076923
vt 0.6191387 0.8462113
vt 0.5238826 1.000056
vt 0.5 0.9615384
vt 0.4047619 0.9615384
vt 0.3808794 1.000056
vt 0.6904762 0.6538461
vt 0.7143397 0.6153288
vt 0.5713745 0.6153287
vt 0.5952381 0.6538461
vt 0.7143767 0.6153153
vt 0.6904762 0.6538461
vt 0.6904762 0.9615384
vt 0.7143767 0.9230208
vt 0.4047619 0.8076923
vt 0.3808614 0.8462098
vt 0.3808613 1.000046
vt 0.4047619 0.9615384
vt 0.6666667 0.6923637
vt 0.6904762 0.6538461
vt 0.5952381 0.6538461
vt 0.6191387 0.6923638
vt 0.5952381 0.8076923
vt 0.5713376 0.7691748
vt 0.4761363 0.7691748
vt 0.5 0.8076923
vt 0.5239006 0.8462099
vt 0.6191016 0.8462096
vt 0.5952381 0.8076923
vt 0.5 0.8076923
vt 0.4286624 0.9230208
vt 0.4286625 0.7691734
vt 0.4047619 0.8076923
vt 0.4047619 0.9615384
vt 0.3809524 0.8462098
vt 0.4047619 0.8076923
vt 0.3761819 0.8076923
vt 0.3572273 0.8462098
vt 0.4047619 0.8076923
vt 0.4286255 0.7691749
vt 0.3916261 0.7691749
vt 0.3761819 0.8076923
vt 0.6904762 0.9615384
vt 0.6904762 0.6538461
vt 0.6665757 0.6923637
vt 0.6665758 1.000046
vt 0.5239006 0.8461539
vt 0.5 0.8076923
vt 0.5 0.9615384
vt 0.5239006 1.000057
vt 0.8129923 0.125
vt 0.3963251 0.125
vt 0.4085296 0.8750001
vt 0.817333 0.875
vt 1 0
vt 1 0
vt 0.8833479 -0.01237592
vt 0.9437101 -0.005971938
vt 0 0
vt 0 0
vt 0 0
vt 0 0
vt 0 0
vt 0 0
vt 0 0
vt 0 0
vt 0 0
vt 0 0
vt 0 0
vt 0 0
vt 0 0
vt 0 0
vt 0 0
vt 0 0
vt 0 0
vt 0 0
vt 0 0
vt 0 0
vt 0 0
vt 0 0
vt 0.8203162 0.9230208
vt 0.7142857 0.923021
vt 0.6904762 0.9615384
vt 0.8105474 0.9615384
vt 0 0
vt 0 0
vt 0 0
vt 0 0
vt 0 0
vt 0 0
vt 1 1
vt 1 1
vt 0.9913279 1
vt 0.9824208 1
vt 1.06281 0.9437289
vt 0.8684883 0.407625
vt 0.7553664 0.4730333
vt 0.7142857 0.6153846
vt 0.7142857 0.9230769
vt 0.7553664 0.4730333
vt 0.799738 0.374714
vt 0.7142857 0.6153846
vt 0.8014629 0.376209
vt 0.8014629 0.376209
vt 0.7878631 0.389288
vt 0.7142857 0.6153846
vt 0.5714286 0.6153846
vt 0.3915888 0.7692308
vt 0.5714286 0.7692308
vt 0.4761905 0.7692308
vt 0.4285714 0.7692308
vt 0.4761905 0.9230769
vt 0.4285714 0.9230769
vt 0.5238096 1
vt 0.3809524 0
vt 0.3687923 0
vt 0.9437101 -0.005971938
vt 0.3716171 -0.04054579
vt 0.8833479 -0.01237592
vt 0.6023539 0.412805
vt 0.3572122 0.8461538
vt 0.8105474 0.9615384
vt 0.6904762 0.9615384
vt 0.6666126 1.000056
vt 0.8155981 1.000056
vt 0.6262318 0.9999998
vt 0.6137253 0.9999999
vt 0.6600802 0.9999999
vt 0.7060635 1
vt 0.6600802 0.9999999
vt 0.9472806 1
vt 0.7060635 1
vt 0.798678 0.9999999
vt 0.9073343 1
vt 0.9913279 1
vt 0.9824208 1
vt 0 0
vt 0 0
vt 0 0
vt 0 0
vt 0 0
vt 0 0
vt 0 0
vt 0 0
vt 0 0
vt 0 0
vt 0 0
vt 0 0
vt 0 0
vt 0 0
vt 0 0
vt 0 0
vt 0 0
vn 0 0 1
vn 0 0 1
vn 0 0 1
vn 0 0 1
vn 0 0 1
vn 0 0 1
vn 0 0 1
vn 0 0 1
vn 0 0 1
vn 0 0 1
vn 0 0 1
vn 0 0 1
vn 0 0 1
vn 0 0 1
vn 0 0 1
vn 0 0 1
vn 0 0 1
vn 0 0 1
vn 0 0 1
vn 0 0 1
vn 0 0 1
vn 0 0 1
vn 0 0 1
vn 0 0 1
vn -0.7071084 -0.7071052 0
vn -0.7071084 -0.7071052 0
vn -0.7071084 -0.7071052 0
vn 0 0 -1
vn 0 0 -1
vn 0 0 -1
vn 0.7071077 -0.7071058 0
vn 0.7071077 -0.7071058 0
vn 0.7071077 -0.7071058 0
vn -0.1119883 0.9919351 0.05935654
vn -0.1119883 0.9919351 0.05935654
vn -0.1119883 0.9919351 0.05935654
vn -0.7426192 -0.6632273 -0.0929865
vn -0.7426192 -0.6632273 -0.0929865
vn -0.7426192 -0.6632273 -0.0929865
vn 0 0.7143595 0.6997789
vn 0 0.7143595 0.6997789
vn 0 0.7143595 0.6997789
vn 0 0.7143595 0.6997789
vn 0 0.7143595 0.6997789
vn 0 0.7143595 0.6997789
vn 0 0.7143595 0.6997789
vn 0 0.7143595 0.6997789
vn -0.7132784 -0.0001736024 0.7008809
vn -0.7132784 -0.0001736024 0.7008809
vn -0.7132784 -0.0001736024 0.7008809
vn -0.7132784 -0.0001736024 0.7008809
vn -0.0003402266 -0.7138597 0.7002887
vn -0.0003402266 -0.7138597 0.7002887
vn -0.0003402266 -0.7138597 0.7002887
vn -0.0003402266 -0.7138597 0.7002887
vn 0.7135329 0 0.7006217
vn 0.7135329 0 0.7006217
vn 0.7135329 0 0.7006217
vn 0.7135329 0 0.7006217
vn -0.7135332 0 0.7006214
vn -0.7135332 0 0.7006214
vn -0.7135332 0 0.7006214
vn -0.7135332 0 0.7006214
vn 0 -0.7143595 0.6997789
vn 0 -0.7143595 0.6997789
vn 0 -0.7143595 0.6997789
vn 0 -0.7143595 0.6997789
vn 0 0.71436 0.6997784
vn 0 0.71436 0.6997784
vn 0 0.71436 0.6997784
vn 0 0.71436 0.6997784
vn 0.7135335 0 0.7006212
vn 0.7135335 0 0.7006212
vn 0.7135335 0 0.7006212
vn 0.7135335 0 0.7006212
vn -0.7135332 0 0.7006213
vn -0.7135332 0 0.7006213
vn -0.7135332 0 0.7006213
vn -0.7135332 0 0.7006213
vn 0.7130235 0 0.70114
vn 0.7130235 0 0.70114
vn 0.7130235 0 0.70114
vn 0.7130235 0 0.70114
vn 0 -0.7143596 0.6997788
vn 0 -0.7143596 0.6997788
vn 0 -0.7143596 0.6997788
vn 0 -0.7143596 0.6997788
vn 0.7130237 0 0.70114
vn 0.7130237 0 0.70114
vn 0.7130237 0 0.70114
vn 0.7130237 0 0.70114
vn -0.7135335 0 0.7006212
vn -0.7135335 0 0.7006212
vn -0.7135335 0 0.7006212
vn -0.7135335 0 0.7006212
vn 0 0.7143604 0.699778
vn 0 0.7143604 0.699778
vn 0 0.7143604 0.699778
vn 0 0.7143604 0.699778
vn 0 -0.7143605 0.6997779
vn 0 -0.7143605 0.6997779
vn 0 -0.7143605 0.6997779
vn 0 -0.7143605 0.6997779
vn -1 0 0
vn -1 0 0
vn -1 0 0
vn -1 0 0
vn -0.7071068 0 0.7071068
vn -0.7071068 0 0.7071068
vn -0.7071068 0 0.7071068
vn -0.7071068 0 0.7071068
vn -0.4820518 -0.8756512 -0.02934448
vn -0.4820518 -0.8756512 -0.02934448
vn -0.4820518 -0.8756512 -0.02934448
vn -0.4820518 -0.8756512 -0.02934448
vn -0.4820518 -0.8756512 -0.02934448
vn -0.4820518 -0.8756512 -0.02934448
vn 0.3458181 0.9358826 -0.06733205
vn 0.3458181 0.9358826 -0.06733205
vn 0.3458181 0.9358826 -0.06733205
vn 0.3458181 0.9358826 -0.06733205
vn 0.3458181 0.9358826 -0.06733205
vn 0.6206788 -0.7755374 -0.1153233
vn 0.6206788 -0.7755374 -0.1153233
vn 0.6206788 -0.7755374 -0.1153233
vn 0.6206788 -0.7755374 -0.1153233
vn 0.6206788 -0.7755374 -0.1153233
vn 0.6206788 -0.7755374 -0.1153233
vn 0.6206788 -0.7755374 -0.1153233
vn 0.6206788 -0.7755374 -0.1153233
vn 0.6206788 -0.7755374 -0.1153233
vn 0.6206788 -0.7755374 -0.1153233
vn 0.6206788 -0.7755374 -0.1153233
vn -0.7135332 0 0.7006214
vn -0.7135332 0 0.7006214
vn -0.7135332 0 0.7006214
vn -0.7135332 0 0.7006214
vn 0.5210034 0.8534129 0.01555845
vn 0.5210034 0.8534129 0.01555845
vn 0.5210034 0.8534129 0.01555845
vn 0.5210034 0.8534129 0.01555845
vn 0.5210034 0.8534129 0.01555845
vn 0.5210034 0.8534129 0.01555845
vn -0.7071068 0 -0.7071066
vn -0.7071068 0 -0.7071066
vn -0.7071068 0 -0.7071066
vn -0.7071068 0 -0.7071066
vn 0 0 1
vn 0 0 1
vn 0 0 1
vn 0 0 1
vn 0 0 1
vn 0 0 1
vn 0 0 1
vn 0 0 1
vn 0 0 1
vn 0 0 1
vn 0 0 1
vn 0 0 1
vn 0 0 1
vn 0 0 1
vn 0 0 1
vn 0 0 1
vn 0 0 1
vn 0 0 1
vn 0 0 1
vn 0 0 1
vn 0 0 1
vn 0 0 1
vn 0 0 1
vn 0 0 1
vn 0 0 1
vn 0 0 1
vn 0 0 1
vn 0.7134113 4.114625E-05 0.7007456
vn 0.7134113 4.114625E-05 0.7007456
vn 0.7134113 4.114625E-05 0.7007456
vn 0.7134113 4.114625E-05 0.7007456
vn 0 0 -1
vn 0 0 -1
vn 0 0 -1
vn 0 0 -1
vn 0 0 -1
vn 0 0 -1
vn 0 0 -1
vn 0 0 -1
vn 0 0 -1
vn 0 0 -1
vn 0 0 -1
vn -0.03476762 0.9975411 -0.06085203
vn -0.03476762 0.9975411 -0.06085203
vn -0.03476762 0.9975411 -0.06085203
vn -0.03476762 0.9975411 -0.06085203
vn -0.03476762 0.9975411 -0.06085203
vn -0.03476762 0.9975411 -0.06085203
vn -0.03476762 0.9975411 -0.06085203
vn 0.9167889 -0.3978647 -0.03466823
vn 0.9167889 -0.3978647 -0.03466823
vn 0.9167889 -0.3978647 -0.03466823
vn 0.9167889 -0.3978647 -0.03466823
vn 0.9167889 -0.3978647 -0.03466823
vn 0.9957525 0.06450783 0.06569377
vn 0.9957525 0.06450783 0.06569377
vn 0.9957525 0.06450783 0.06569377
vn 0.9957525 0.06450783 0.06569377
vn 0.9957525 0.06450783 0.06569377
g monolith_fragment 2_0
f 3/3/3 2/2/2 1/1/1
f 6/6/6 5/5/5 4/4/4
f 9/9/9 8/8/8 7/7/7
f 12/12/12 11/11/11 10/10/10
f 15/15/15 14/14/14 13/13/13
f 18/18/18 17/17/17 16/16/16
f 21/21/21 20/20/20 19/19/19
f 24/24/24 23/23/23 22/22/22
f 27/27/27 26/26/26 25/25/25
f 30/30/30 29/29/29 28/28/28
f 33/33/33 32/32/32 31/31/31
f 36/36/36 35/35/35 34/34/34
f 39/39/39 38/38/38 37/37/37
f 42/42/42 41/41/41 40/40/40
f 43/43/43 42/42/42 40/40/40
f 46/46/46 45/45/45 44/44/44
f 47/47/47 46/46/46 44/44/44
f 50/50/50 49/49/49 48/48/48
f 51/51/51 50/50/50 48/48/48
f 54/54/54 53/53/53 52/52/52
f 55/55/55 54/54/54 52/52/52
f 58/58/58 57/57/57 56/56/56
f 59/59/59 58/58/58 56/56/56
f 62/62/62 61/61/61 60/60/60
f 63/63/63 62/62/62 60/60/60
f 66/66/66 65/65/65 64/64/64
f 67/67/67 66/66/66 64/64/64
f 70/70/70 69/69/69 68/68/68
f 71/71/71 70/70/70 68/68/68
f 74/74/74 73/73/73 72/72/72
f 75/75/75 74/74/74 72/72/72
f 78/78/78 77/77/77 76/76/76
f 79/79/79 78/78/78 76/76/76
f 82/82/82 81/81/81 80/80/80
f 83/83/83 82/82/82 80/80/80
f 86/86/86 85/85/85 84/84/84
f 87/87/87 86/86/86 84/84/84
f 90/90/90 89/89/89 88/88/88
f 91/91/91 90/90/90 88/88/88
f 94/94/94 93/93/93 92/92/92
f 95/95/95 94/94/94 92/92/92
f 98/98/98 97/97/97 96/96/96
f 99/99/99 98/98/98 96/96/96
f 102/102/102 101/101/101 100/100/100
f 103/103/103 102/102/102 100/100/100
f 106/106/106 105/105/105 104/104/104
f 107/107/107 106/106/106 104/104/104
f 110/110/110 109/109/109 108/108/108
f 111/111/111 110/110/110 108/108/108
f 114/114/114 113/113/113 112/112/112
f 112/112/112 115/115/115 114/114/114
f 112/112/112 116/116/116 115/115/115
f 112/112/112 117/117/117 116/116/116
f 120/120/120 119/119/119 118/118/118
f 118/118/118 121/121/121 120/120/120
f 118/118/118 122/122/122 121/121/121
f 125/125/125 124/124/124 123/123/123
f 123/123/123 126/126/126 125/125/125
f 126/126/126 123/123/123 127/127/127
f 127/127/127 123/123/123 128/128/128
f 128/128/128 129/129/129 127/127/127
f 126/126/126 127/127/127 130/130/130
f 130/130/130 131/131/131 126/126/126
f 127/127/127 132/132/132 130/130/130
f 127/127/127 133/133/133 132/132/132
f 136/136/136 135/135/135 134/134/134
f 137/137/137 136/136/136 134/134/134
f 140/140/140 139/139/139 138/138/138
f 138/138/138 141/141/141 140/140/140
f 138/138/138 142/142/142 141/141/141
f 142/142/142 143/143/143 141/141/141
f 146/146/146 145/145/145 144/144/144
f 147/147/147 146/146/146 144/144/144
f 150/150/150 149/149/149 148/148/148
f 148/148/148 151/151/151 150/150/150
f 148/148/148 152/152/152 151/151/151
f 155/155/155 154/154/154 153/153/153
f 155/155/155 156/156/156 154/154/154
f 159/159/159 158/158/158 157/157/157
f 158/158/158 159/159/159 160/160/160
f 160/160/160 161/161/161 158/158/158
f 160/160/160 162/162/162 161/161/161
f 162/162/162 163/163/163 161/161/161
f 163/163/163 164/164/164 161/161/161
f 164/164/164 163/163/163 165/165/165
f 165/165/165 166/166/166 164/164/164
f 169/169/169 168/168/168 167/167/167
f 168/168/168 169/169/169 170/170/170
f 169/169/169 171/171/171 170/170/170
f 171/171/171 172/172/172 170/170/170
f 168/168/168 170/170/170 173/173/173
f 168/168/168 173/173/173 174/174/174
f 177/177/177 176/176/176 175/175/175
f 178/178/178 177/177/177 175/175/175
f 181/181/181 180/180/180 179/179/179
f 179/179/179 182/182/182 181/181/181
f 185/185/185 184/184/184 183/183/183
f 184/184/184 186/186/186 183/183/183
f 184/184/184 187/187/187 186/186/186
f 184/184/184 188/188/188 187/187/187
f 188/188/188 189/189/189 187/187/187
f 192/192/192 191/191/191 190/190/190
f 190/190/190 193/193/193 192/192/192
f 193/193/193 190/190/190 194/194/194
f 194/194/194 195/195/195 193/193/193
f 190/190/190 196/196/196 194/194/194
f 199/199/199 198/198/198 197/197/197
f 197/197/197 200/200/200 199/199/199
f 200/200/200 197/197/197 201/201/201
f 204/204/204 203/203/203 202/202/202
f 202/202/202 205/205/205 204/204/204
f 205/205/205 206/206/206 204/204/204
