g orb_base
v 0 5.193693 2.983759
v 0 2.975529 2.983759
v 1.387625 4.388361 2.983759
v 1.387625 4.388361 2.983759
v 0 2.975529 2.983759
v 1.387625 1.677699 2.983759
v 1.387625 1.677699 2.983759
v 0 2.975529 2.983759
v 0 0.872368 2.983759
v 0 5.193693 2.983759
v -1.387625 4.388361 2.983759
v 0 2.975529 2.983759
v -1.387625 4.388361 2.983759
v -1.387625 1.677699 2.983759
v 0 2.975529 2.983759
v -1.387625 1.677699 2.983759
v 0 0.872368 2.983759
v 0 2.975529 2.983759
v 1.387625 4.388361 2.983759
v 1.387625 1.677699 2.983759
v 1.387625 1.677699 3.702095
v 1.387625 4.388361 3.702095
v 1.23681 1.775318 3.935072
v 0.7370252 2.098816 3.935072
v 0.7370252 3.381279 3.935072
v 1.23681 4.154911 3.935072
v 0 1.057515 3.935072
v 0 1.725385 3.935072
v 0.7370252 2.098816 3.935072
v 1.23681 1.775318 3.935072
v 0 1.78554 3.854854
v 0 1.78554 3.685393
v 0.6848948 2.132558 3.685393
v 0.6848948 2.132558 3.854854
v 0.6848948 3.300585 3.854854
v 0.6848948 3.300585 3.685393
v 0 3.647603 3.685393
v 0 3.647603 3.854854
v 0.6848948 2.132558 3.854854
v 0.6848948 2.132558 3.685393
v 0.6848948 3.300585 3.685393
v 0.6848948 3.300585 3.854854
v 1.219258 -0.5346553 2.037982
v 0 -0.5346553 2.281116
v 0 -0.1347406 2.673074
v 1.235277 -0.1347406 2.377428
v 1.792639 -0.5346552 1.373728
v 0 1.036094 2.281116
v 1.932498 -0.1347406 1.569707
v 2.002512 -0.5346552 0.4663396
v 1.219258 1.036094 2.037982
v 2.187699 -0.1347405 0.4663396
v 1.792639 -0.5346552 -0.4410487
v 1.792639 1.036094 1.373728
v 1.932498 -0.1347405 -0.6370279
v 1.219258 -0.5346552 -1.105303
v 2.002512 1.036094 0.4663396
v 1.235277 -0.1347405 -1.444749
v 0 -0.5346552 -1.348437
v 0 -0.1347404 -1.740395
v 1.792639 1.036094 -0.4410487
v 1.219258 1.036094 -1.105303
v 0 1.036094 -1.348437
v 1.219258 -0.5346552 -1.105303
v 0 -0.5346552 -1.348437
v 0 -0.5346553 2.281116
v 1.792639 -0.5346552 -0.4410487
v 2.002512 -0.5346552 0.4663396
v 1.792639 -0.5346552 1.373728
v 1.219258 -0.5346553 2.037982
v 0 5.193693 2.983759
v 1.387625 4.388361 2.983759
v 1.387625 4.388361 3.702095
v 0 5.193693 3.702095
v 0.7370252 3.381279 3.935072
v 0.6848948 3.300585 3.854854
v 0 3.647603 3.854854
v 0 3.75471 3.935072
v 0.7370252 2.098816 3.935072
v 0.6848948 2.132558 3.854854
v 0.6848948 3.300585 3.854854
v 0.7370252 3.381279 3.935072
v 0 1.725385 3.935072
v 0 1.78554 3.854854
v 0.6848948 2.132558 3.854854
v 0.7370252 2.098816 3.935072
v 1.387625 1.677699 2.983759
v 0 0.872368 2.983759
v 0 0.872368 3.702095
v 1.387625 1.677699 3.702095
v 1.387625 4.388361 3.702095
v 1.23681 4.154911 3.935072
v 0 4.872714 3.935072
v 0 5.193693 3.702095
v 1.387625 1.677699 3.702095
v 1.23681 1.775318 3.935072
v 1.23681 4.154911 3.935072
v 1.387625 4.388361 3.702095
v 0 0.872368 3.702095
v 0 1.057515 3.935072
v 1.23681 1.775318 3.935072
v 1.387625 1.677699 3.702095
v 1.23681 4.154911 3.935072
v 0.7370252 3.381279 3.935072
v 0 3.75471 3.935072
v 0 4.872714 3.935072
v 0.2734224 2.476252 3.65331
v 0.2088759 2.476252 3.895937
v 0.2088759 2.956892 3.895937
v 0.2734224 2.956892 3.65331
v 0.2734224 2.956892 3.65331
v 0.2088759 2.956892 3.895937
v 0 3.099689 3.895937
v 0 3.099689 3.65331
v 0 2.333455 3.65331
v 0 2.333455 3.895937
v 0.2088759 2.476252 3.895937
v 0.2734224 2.476252 3.65331
v 0.2088759 2.956892 3.895937
v 0 2.706376 3.895937
v 0 3.099689 3.895937
v 0.2088759 2.476252 3.895937
v 0 2.333455 3.895937
v -1.387625 4.388361 2.983759
v -1.387625 4.388361 3.702095
v -1.387625 1.677699 3.702095
v -1.387625 1.677699 2.983759
v -1.23681 1.775318 3.935072
v -1.23681 4.154911 3.935072
v -0.7370252 3.381279 3.935072
v -0.7370252 2.098816 3.935072
v 0 1.057515 3.935072
v -1.23681 1.775318 3.935072
v -0.7370252 2.098816 3.935072
v 0 1.725385 3.935072
v 0 1.78554 3.854854
v -0.6848948 2.132558 3.854854
v -0.6848948 2.132558 3.685393
v 0 1.78554 3.685393
v -0.6848948 3.300585 3.854854
v 0 3.647603 3.854854
v 0 3.647603 3.685393
v -0.6848948 3.300585 3.685393
v -0.6848948 2.132558 3.854854
v -0.6848948 3.300585 3.854854
v -0.6848948 3.300585 3.685393
v -0.6848948 2.132558 3.685393
v -1.219258 -0.5346553 2.037982
v 0 -0.1347406 2.673074
v 0 -0.5346553 2.281116
v -1.235277 -0.1347406 2.377428
v -1.792639 -0.5346552 1.373728
v 0 1.036094 2.281116
v -1.932498 -0.1347406 1.569707
v -2.002512 -0.5346552 0.4663396
v -1.219258 1.036094 2.037982
v -2.187699 -0.1347405 0.4663396
v -1.792639 -0.5346552 -0.4410487
v -1.792639 1.036094 1.373728
v -1.932498 -0.1347405 -0.6370279
v -1.219258 -0.5346552 -1.105303
v -2.002512 1.036094 0.4663396
v -1.235277 -0.1347405 -1.444749
v 0 -0.5346552 -1.348437
v 0 -0.1347404 -1.740395
v -1.792639 1.036094 -0.4410487
v -1.219258 1.036094 -1.105303
v 0 1.036094 -1.348437
v 0 -0.5346553 2.281116
v 0 -0.5346552 -1.348437
v -1.219258 -0.5346552 -1.105303
v -1.792639 -0.5346552 -0.4410487
v -2.002512 -0.5346552 0.4663396
v -1.792639 -0.5346552 1.373728
v -1.219258 -0.5346553 2.037982
v 0 5.193693 2.983759
v 0 5.193693 3.702095
v -1.387625 4.388361 3.702095
v -1.387625 4.388361 2.983759
v -0.7370252 3.381279 3.935072
v 0 3.75471 3.935072
v 0 3.647603 3.854854
v -0.6848948 3.300585 3.854854
v -0.7370252 2.098816 3.935072
v -0.7370252 3.381279 3.935072
v -0.6848948 3.300585 3.854854
v -0.6848948 2.132558 3.854854
v 0 1.725385 3.935072
v -0.7370252 2.098816 3.935072
v -0.6848948 2.132558 3.854854
v 0 1.78554 3.854854
v -1.387625 1.677699 2.983759
v -1.387625 1.677699 3.702095
v 0 0.872368 3.702095
v 0 0.872368 2.983759
v -1.387625 4.388361 3.702095
v 0 5.193693 3.702095
v 0 4.872714 3.935072
v -1.23681 4.154911 3.935072
v -1.387625 1.677699 3.702095
v -1.387625 4.388361 3.702095
v -1.23681 4.154911 3.935072
v -1.23681 1.775318 3.935072
v 0 0.872368 3.702095
v -1.387625 1.677699 3.702095
v -1.23681 1.775318 3.935072
v 0 1.057515 3.935072
v -1.23681 4.154911 3.935072
v 0 4.872714 3.935072
v 0 3.75471 3.935072
v -0.7370252 3.381279 3.935072
v -0.2734224 2.476252 3.65331
v -0.2734224 2.956892 3.65331
v -0.2088759 2.956892 3.895937
v -0.2088759 2.476252 3.895937
v -0.2734224 2.956892 3.65331
v 0 3.099689 3.65331
v 0 3.099689 3.895937
v -0.2088759 2.956892 3.895937
v 0 2.333455 3.65331
v -0.2734224 2.476252 3.65331
v -0.2088759 2.476252 3.895937
v 0 2.333455 3.895937
v -0.2088759 2.956892 3.895937
v 0 3.099689 3.895937
v 0 2.706376 3.895937
v -0.2088759 2.476252 3.895937
v 0 2.333455 3.895937
v 0.6848948 3.300585 3.685393
v 0.2734224 2.956892 3.65331
v 0 3.099689 3.65331
v 0 3.647603 3.685393
v 0.6848948 2.132558 3.685393
v 0.2734224 2.476252 3.65331
v 0.2734224 2.956892 3.65331
v 0.6848948 3.300585 3.685393
v 0 1.78554 3.685393
v 0 2.333455 3.65331
v 0.2734224 2.476252 3.65331
v 0.6848948 2.132558 3.685393
v -0.6848948 3.300585 3.685393
v 0 3.647603 3.685393
v 0 3.099689 3.65331
v -0.2734224 2.956892 3.65331
v -0.6848948 2.132558 3.685393
v -0.6848948 3.300585 3.685393
v -0.2734224 2.956892 3.65331
v -0.2734224 2.476252 3.65331
v 0 1.78554 3.685393
v -0.6848948 2.132558 3.685393
v -0.2734224 2.476252 3.65331
v 0 2.333455 3.65331
vt 0.5770635 0.195306
vt 0.2745342 0.0001069646
vt 0.4027831 0.2180649
vt 0.4027831 0.2180649
vt 0.2745342 0.0001069646
vt 0.1792244 0.2254328
vt 0.1792244 0.2254328
vt 0.2745342 0.0001069646
vt 0.0001069646 0.2171758
vt 0.5770635 0.195306
vt 0.4027831 0.2180649
vt 0.2745342 0.0001069646
vt 0.4027831 0.2180649
vt 0.1792244 0.2254328
vt 0.2745342 0.0001069646
vt 0.1792244 0.2254328
vt 0.0001069646 0.2171758
vt 0.2745342 0.0001069646
vt 0.4027831 0.2180649
vt 0.1792244 0.2254328
vt 0.176048 0.2867469
vt 0.4016935 0.2815974
vt 0.1794376 0.311343
vt 0.1892395 0.3589151
vt 0.3303903 0.3681895
vt 0.3884419 0.3091165
vt 0.03889041 0.351332
vt 0.109613 0.4042671
vt 0.1892395 0.3589151
vt 0.1794376 0.311343
vt 0.116892 0.4113657
vt 0.1251604 0.426331
vt 0.196374 0.3865326
vt 0.191935 0.3691596
vt 0.3208838 0.3783298
vt 0.3127328 0.3983905
vt 0.3757358 0.4580875
vt 0.3915312 0.4409068
vt 0.191935 0.3691596
vt 0.196374 0.3865326
vt 0.3127328 0.3983905
vt 0.3208838 0.3783298
vt 0.7023656 0.4415717
vt 0.5772774 0.6047511
vt 0.6801127 0.6760522
vt 0.7423183 0.4792438
vt 0.7417274 0.3867144
vt 0.999893 0.6572481
vt 0.7641372 0.3999524
vt 0.749343 0.3411164
vt 0.8549352 0.4488478
vt 0.7702596 0.341425
vt 0.7418161 0.2937467
vt 0.827726 0.3882763
vt 0.7667025 0.2819738
vt 0.7149087 0.2324053
vt 0.8199552 0.3425349
vt 0.7559393 0.200597
vt 0.5868459 0.0682034
vt 0.6967866 0.0001069646
vt 0.8278144 0.297952
vt 0.8675995 0.2450424
vt 0.9998905 0.04401748
vt 0.7149087 0.2324053
vt 0.5868459 0.0682034
vt 0.5772774 0.6047511
vt 0.7418161 0.2937467
vt 0.749343 0.3411164
vt 0.7417274 0.3867144
vt 0.7023656 0.4415717
vt 0.5770635 0.195306
vt 0.4027831 0.2180649
vt 0.4016935 0.2815974
vt 0.57437 0.3061254
vt 0.3303903 0.3681895
vt 0.3208838 0.3783298
vt 0.3915312 0.4409068
vt 0.4053364 0.433841
vt 0.1892395 0.3589151
vt 0.191935 0.3691596
vt 0.3208838 0.3783298
vt 0.3303903 0.3681895
vt 0.109613 0.4042671
vt 0.116892 0.4113657
vt 0.191935 0.3691596
vt 0.1892395 0.3589151
vt 0.1792244 0.2254328
vt 0.0001069646 0.2171758
vt 0.01870333 0.320368
vt 0.176048 0.2867469
vt 0.4016935 0.2815974
vt 0.3884419 0.3091165
vt 0.5411238 0.3514418
vt 0.57437 0.3061254
vt 0.176048 0.2867469
vt 0.1794376 0.311343
vt 0.3884419 0.3091165
vt 0.4016935 0.2815974
vt 0.01870333 0.320368
vt 0.03889041 0.351332
vt 0.1794376 0.311343
vt 0.176048 0.2867469
vt 0.3884419 0.3091165
vt 0.3303903 0.3681895
vt 0.4053364 0.433841
vt 0.5411238 0.3514418
vt 0.2164034 0.4428502
vt 0.2208552 0.4700057
vt 0.2677854 0.4753686
vt 0.2791618 0.4447989
vt 0.2791618 0.4447989
vt 0.2677854 0.4753686
vt 0.2847509 0.496516
vt 0.3061221 0.4763137
vt 0.1843383 0.4634418
vt 0.2002325 0.4867157
vt 0.2208552 0.4700057
vt 0.2164034 0.4428502
vt 0.2677854 0.4753686
vt 0.2405476 0.496516
vt 0.2847509 0.496516
vt 0.2208552 0.4700057
vt 0.2002325 0.4867157
vt 0.4027831 0.2180649
vt 0.4016935 0.2815974
vt 0.176048 0.2867469
vt 0.1792244 0.2254328
vt 0.1794376 0.311343
vt 0.3884419 0.3091165
vt 0.3303903 0.3681895
vt 0.1892395 0.3589151
vt 0.03889041 0.351332
vt 0.1794376 0.311343
vt 0.1892395 0.3589151
vt 0.109613 0.4042671
vt 0.116892 0.4113657
vt 0.191935 0.3691596
vt 0.196374 0.3865326
vt 0.1251604 0.426331
vt 0.3208838 0.3783298
vt 0.3915312 0.4409068
vt 0.3757358 0.4580875
vt 0.3127328 0.3983905
vt 0.191935 0.3691596
vt 0.3208838 0.3783298
vt 0.3127328 0.3983905
vt 0.196374 0.3865326
vt 0.7023656 0.4415717
vt 0.6801127 0.6760522
vt 0.5772774 0.6047511
vt 0.7423183 0.4792438
vt 0.7417274 0.3867144
vt 0.999893 0.6572481
vt 0.7641372 0.3999524
vt 0.749343 0.3411164
vt 0.8549352 0.4488478
vt 0.7702596 0.341425
vt 0.7418161 0.2937467
vt 0.827726 0.3882763
vt 0.7667025 0.2819738
vt 0.7149087 0.2324053
vt 0.8199552 0.3425349
vt 0.7559393 0.200597
vt 0.5868459 0.0682034
vt 0.6967866 0.0001069646
vt 0.8278144 0.297952
vt 0.8675995 0.2450424
vt 0.9998905 0.04401748
vt 0.5772774 0.6047511
vt 0.5868459 0.0682034
vt 0.7149087 0.2324053
vt 0.7418161 0.2937467
vt 0.749343 0.3411164
vt 0.7417274 0.3867144
vt 0.7023656 0.4415717
vt 0.5770635 0.195306
vt 0.57437 0.3061254
vt 0.4016935 0.2815974
vt 0.4027831 0.2180649
vt 0.3303903 0.3681895
vt 0.4053364 0.433841
vt 0.3915312 0.4409068
vt 0.3208838 0.3783298
vt 0.1892395 0.3589151
vt 0.3303903 0.3681895
vt 0.3208838 0.3783298
vt 0.191935 0.3691596
vt 0.109613 0.4042671
vt 0.1892395 0.3589151
vt 0.191935 0.3691596
vt 0.116892 0.4113657
vt 0.1792244 0.2254328
vt 0.176048 0.2867469
vt 0.01870333 0.320368
vt 0.0001069646 0.2171758
vt 0.4016935 0.2815974
vt 0.57437 0.3061254
vt 0.5411238 0.3514418
vt 0.3884419 0.3091165
vt 0.176048 0.2867469
vt 0.4016935 0.2815974
vt 0.3884419 0.3091165
vt 0.1794376 0.311343
vt 0.01870333 0.320368
vt 0.176048 0.2867469
vt 0.1794376 0.311343
vt 0.03889041 0.351332
vt 0.3884419 0.3091165
vt 0.5411238 0.3514418
vt 0.4053364 0.433841
vt 0.3303903 0.3681895
vt 0.2164034 0.4428502
vt 0.2791618 0.4447989
vt 0.2677854 0.4753686
vt 0.2208552 0.4700057
vt 0.2791618 0.4447989
vt 0.3061221 0.4763137
vt 0.2847509 0.496516
vt 0.2677854 0.4753686
vt 0.1843383 0.4634418
vt 0.2164034 0.4428502
vt 0.2208552 0.4700057
vt 0.2002325 0.4867157
vt 0.2677854 0.4753686
vt 0.2847509 0.496516
vt 0.2405476 0.496516
vt 0.2208552 0.4700057
vt 0.2002325 0.4867157
vt 0.3127328 0.3983905
vt 0.2791618 0.4447989
vt 0.3061221 0.4763137
vt 0.3757358 0.4580875
vt 0.196374 0.3865326
vt 0.2164034 0.4428502
vt 0.2791618 0.4447989
vt 0.3127328 0.3983905
vt 0.1251604 0.426331
vt 0.1843383 0.4634418
vt 0.2164034 0.4428502
vt 0.196374 0.3865326
vt 0.3127328 0.3983905
vt 0.3757358 0.4580875
vt 0.3061221 0.4763137
vt 0.2791618 0.4447989
vt 0.196374 0.3865326
vt 0.3127328 0.3983905
vt 0.2791618 0.4447989
vt 0.2164034 0.4428502
vt 0.1251604 0.426331
vt 0.196374 0.3865326
vt 0.2164034 0.4428502
vt 0.1843383 0.4634418
vn 0 0 -1
vn 0 0 -1
vn 0 0 -1
vn 0 0 -1
vn 0 0 -1
vn 0 0 -1
vn 0 0 -1
vn 0 0 -1
vn 0 0 -1
vn 0 0 -1
vn 0 0 -1
vn 0 0 -1
vn 0 0 -1
vn 0 0 -1
vn 0 0 -1
vn 0 0 -1
vn 0 0 -1
vn 0 0 -1
vn 1 0 0
vn 1 0 0
vn 1 0 0
vn 1 0 0
vn 0 0 1
vn 0 0 1
vn 0 0 1
vn 0 0 1
vn 0 0 1
vn 0 0 1
vn 0 0 1
vn 0 0 1
vn -0.4519696 0.8920334 0
vn -0.4519696 0.8920334 0
vn -0.4519696 0.8920334 0
vn -0.4519696 0.8920334 0
vn -0.4519696 -0.8920334 0
vn -0.4519696 -0.8920334 0
vn -0.4519696 -0.8920334 0
vn -0.4519696 -0.8920334 0
vn -1 0 0
vn -1 0 0
vn -1 0 0
vn -1 0 0
vn 0.464501 -0.5947871 0.6561
vn 0 -0.6765975 0.736353
vn 0 -0.2027086 0.9792392
vn 0.4726778 -0.1897059 0.8605739
vn 0.8064032 -0.4625763 0.3684252
vn 0 0.7720747 0.6355318
vn 0.8712266 -0.1498179 0.4674599
vn 0.9074352 -0.420192 0
vn 0.3649189 0.7330422 0.5740063
vn 0.991173 -0.1325755 0
vn 0.8064032 -0.4625763 -0.3684252
vn 0.6220722 0.7214426 0.3042151
vn 0.8712266 -0.1498179 -0.4674599
vn 0.464501 -0.5947871 -0.6561
vn 0.6976443 0.7164443 0
vn 0.4726778 -0.1897059 -0.8605739
vn 0 -0.6765975 -0.736353
vn 0 -0.2027086 -0.9792392
vn 0.6220722 0.7214426 -0.3042151
vn 0.3649189 0.7330422 -0.5740063
vn 0 0.7720747 -0.6355318
vn 0 -1 0
vn 0 -1 0
vn 0 -1 0
vn 0 -1 0
vn 0 -1 0
vn 0 -1 0
vn 0 -1 0
vn 0.5019552 0.8648936 0
vn 0.5019552 0.8648936 0
vn 0.5019552 0.8648936 0
vn 0.5019552 0.8648936 0
vn -0.2906213 -0.5735885 0.765856
vn -0.2906213 -0.5735885 0.765856
vn -0.2906213 -0.5735885 0.765856
vn -0.2906213 -0.5735885 0.765856
vn -0.8384974 0 0.5449056
vn -0.8384974 0 0.5449056
vn -0.8384974 0 0.5449056
vn -0.8384974 0 0.5449056
vn -0.3756665 0.7414391 0.5560059
vn -0.3756665 0.7414391 0.5560059
vn -0.3756665 0.7414391 0.5560059
vn -0.3756665 0.7414391 0.5560059
vn 0.5019553 -0.8648936 0
vn 0.5019553 -0.8648936 0
vn 0.5019553 -0.8648936 0
vn 0.5019553 -0.8648936 0
vn 0.3226773 0.5559892 0.7659996
vn 0.3226773 0.5559892 0.7659996
vn 0.3226773 0.5559892 0.7659996
vn 0.3226773 0.5559892 0.7659996
vn 0.8394635 0 0.5434163
vn 0.8394635 0 0.5434163
vn 0.8394635 0 0.5434163
vn 0.8394635 0 0.5434163
vn 0.4136655 -0.7127653 0.5664331
vn 0.4136655 -0.7127653 0.5664331
vn 0.4136655 -0.7127653 0.5664331
vn 0.4136655 -0.7127653 0.5664331
vn 0 0 1
vn 0 0 1
vn 0 0 1
vn 0 0 1
vn 0.9663875 0 0.2570899
vn 0.9663875 0 0.2570899
vn 0.9663875 0 0.2570899
vn 0.9663875 0 0.2570899
vn 0.5083559 0.8584881 0.06762005
vn 0.5083559 0.8584881 0.06762005
vn 0.5083559 0.8584881 0.06762005
vn 0.5083559 0.8584881 0.06762005
vn 0.508356 -0.8584881 0.06761917
vn 0.508356 -0.8584881 0.06761917
vn 0.508356 -0.8584881 0.06761917
vn 0.508356 -0.8584881 0.06761917
vn 0 0 1
vn 0 0 1
vn 0 0 1
vn 0 0 1
vn 0 0 1
vn -1 0 0
vn -1 0 0
vn -1 0 0
vn -1 0 0
vn 0 0 1
vn 0 0 1
vn 0 0 1
vn 0 0 1
vn 0 0 1
vn 0 0 1
vn 0 0 1
vn 0 0 1
vn 0.4519696 0.8920334 0
vn 0.4519696 0.8920334 0
vn 0.4519696 0.8920334 0
vn 0.4519696 0.8920334 0
vn 0.4519696 -0.8920334 0
vn 0.4519696 -0.8920334 0
vn 0.4519696 -0.8920334 0
vn 0.4519696 -0.8920334 0
vn 1 0 0
vn 1 0 0
vn 1 0 0
vn 1 0 0
vn -0.464501 -0.5947871 0.6561
vn 0 -0.2027086 0.9792392
vn 0 -0.6765975 0.736353
vn -0.4726778 -0.1897059 0.8605739
vn -0.8064032 -0.4625763 0.3684252
vn 0 0.7720747 0.6355318
vn -0.8712266 -0.1498179 0.4674599
vn -0.9074352 -0.420192 0
vn -0.3649189 0.7330422 0.5740063
vn -0.991173 -0.1325755 0
vn -0.8064032 -0.4625763 -0.3684252
vn -0.6220722 0.7214426 0.3042151
vn -0.8712266 -0.1498179 -0.4674599
vn -0.464501 -0.5947871 -0.6561
vn -0.6976443 0.7164443 0
vn -0.4726778 -0.1897059 -0.8605739
vn 0 -0.6765975 -0.736353
vn 0 -0.2027086 -0.9792392
vn -0.6220722 0.7214426 -0.3042151
vn -0.3649189 0.7330422 -0.5740063
vn 0 0.7720747 -0.6355318
vn 0 -1 0
vn 0 -1 0
vn 0 -1 0
vn 0 -1 0
vn 0 -1 0
vn 0 -1 0
vn 0 -1 0
vn -0.5019552 0.8648936 0
vn -0.5019552 0.8648936 0
vn -0.5019552 0.8648936 0
vn -0.5019552 0.8648936 0
vn 0.2906208 -0.5735886 0.7658561
vn 0.2906208 -0.5735886 0.7658561
vn 0.2906208 -0.5735886 0.7658561
vn 0.2906208 -0.5735886 0.7658561
vn 0.8384976 0 0.5449052
vn 0.8384976 0 0.5449052
vn 0.8384976 0 0.5449052
vn 0.8384976 0 0.5449052
vn 0.3756664 0.7414392 0.556006
vn 0.3756664 0.7414392 0.556006
vn 0.3756664 0.7414392 0.556006
vn 0.3756664 0.7414392 0.556006
vn -0.5019553 -0.8648936 0
vn -0.5019553 -0.8648936 0
vn -0.5019553 -0.8648936 0
vn -0.5019553 -0.8648936 0
vn -0.3226773 0.5559892 0.7659996
vn -0.3226773 0.5559892 0.7659996
vn -0.3226773 0.5559892 0.7659996
vn -0.3226773 0.5559892 0.7659996
vn -0.8394634 0 0.5434164
vn -0.8394634 0 0.5434164
vn -0.8394634 0 0.5434164
vn -0.8394634 0 0.5434164
vn -0.4136653 -0.7127654 0.5664332
vn -0.4136653 -0.7127654 0.5664332
vn -0.4136653 -0.7127654 0.5664332
vn -0.4136653 -0.7127654 0.5664332
vn 0 0 1
vn 0 0 1
vn 0 0 1
vn 0 0 1
vn -0.9663875 0 0.2570899
vn -0.9663875 0 0.2570899
vn -0.9663875 0 0.2570899
vn -0.9663875 0 0.2570899
vn -0.5083559 0.8584881 0.06762005
vn -0.5083559 0.8584881 0.06762005
vn -0.5083559 0.8584881 0.06762005
vn -0.5083559 0.8584881 0.06762005
vn -0.508356 -0.8584881 0.06761917
vn -0.508356 -0.8584881 0.06761917
vn -0.508356 -0.8584881 0.06761917
vn -0.508356 -0.8584881 0.06761917
vn 0 0 1
vn 0 0 1
vn 0 0 1
vn 0 0 1
vn 0 0 1
vn -0.02970016 -0.05810707 0.9978684
vn -0.02970016 -0.05810707 0.9978684
vn -0.02970016 -0.05810707 0.9978684
vn -0.02970016 -0.05810707 0.9978684
vn -0.07773484 0 0.9969741
vn -0.07773484 0 0.9969741
vn -0.07773484 0 0.9969741
vn -0.07773484 0 0.9969741
vn -0.02969971 0.05810708 0.9978684
vn -0.02969971 0.05810708 0.9978684
vn -0.02969971 0.05810708 0.9978684
vn -0.02969971 0.05810708 0.9978684
vn 0.02970038 -0.05810707 0.9978684
vn 0.02970038 -0.05810707 0.9978684
vn 0.02970038 -0.05810707 0.9978684
vn 0.02970038 -0.05810707 0.9978684
vn 0.07773484 0 0.9969741
vn 0.07773484 0 0.9969741
vn 0.07773484 0 0.9969741
vn 0.07773484 0 0.9969741
vn 0.02969949 0.05810708 0.9978684
vn 0.02969949 0.05810708 0.9978684
vn 0.02969949 0.05810708 0.9978684
vn 0.02969949 0.05810708 0.9978684
g orb_base_0
f 3/3/3 2/2/2 1/1/1
f 6/6/6 5/5/5 4/4/4
f 9/9/9 8/8/8 7/7/7
f 12/12/12 11/11/11 10/10/10
f 15/15/15 14/14/14 13/13/13
f 18/18/18 17/17/17 16/16/16
f 21/21/21 20/20/20 19/19/19
f 22/22/22 21/21/21 19/19/19
f 25/25/25 24/24/24 23/23/23
f 26/26/26 25/25/25 23/23/23
f 29/29/29 28/28/28 27/27/27
f 30/30/30 29/29/29 27/27/27
f 33/33/33 32/32/32 31/31/31
f 34/34/34 33/33/33 31/31/31
f 37/37/37 36/36/36 35/35/35
f 38/38/38 37/37/37 35/35/35
f 41/41/41 40/40/40 39/39/39
f 42/42/42 41/41/41 39/39/39
f 45/45/45 44/44/44 43/43/43
f 46/46/46 45/45/45 43/43/43
f 46/46/46 43/43/43 47/47/47
f 48/48/48 45/45/45 46/46/46
f 49/49/49 46/46/46 47/47/47
f 49/49/49 47/47/47 50/50/50
f 51/51/51 48/48/48 46/46/46
f 51/51/51 46/46/46 49/49/49
f 52/52/52 49/49/49 50/50/50
f 52/52/52 50/50/50 53/53/53
f 54/54/54 51/51/51 49/49/49
f 48/48/48 51/51/51 54/54/54
f 54/54/54 49/49/49 52/52/52
f 55/55/55 52/52/52 53/53/53
f 55/55/55 53/53/53 56/56/56
f 57/57/57 54/54/54 52/52/52
f 48/48/48 54/54/54 57/57/57
f 57/57/57 52/52/52 55/55/55
f 58/58/58 55/55/55 56/56/56
f 58/58/58 56/56/56 59/59/59
f 60/60/60 58/58/58 59/59/59
f 61/61/61 57/57/57 55/55/55
f 48/48/48 57/57/57 61/61/61
f 61/61/61 55/55/55 58/58/58
f 62/62/62 58/58/58 60/60/60
f 62/62/62 61/61/61 58/58/58
f 48/48/48 61/61/61 62/62/62
f 63/63/63 62/62/62 60/60/60
f 62/62/62 63/63/63 48/48/48
f 66/66/66 65/65/65 64/64/64
f 64/64/64 67/67/67 66/66/66
f 67/67/67 68/68/68 66/66/66
f 68/68/68 69/69/69 66/66/66
f 69/69/69 70/70/70 66/66/66
f 73/73/73 72/72/72 71/71/71
f 74/74/74 73/73/73 71/71/71
f 77/77/77 76/76/76 75/75/75
f 78/78/78 77/77/77 75/75/75
f 81/81/81 80/80/80 79/79/79
f 82/82/82 81/81/81 79/79/79
f 85/85/85 84/84/84 83/83/83
f 86/86/86 85/85/85 83/83/83
f 89/89/89 88/88/88 87/87/87
f 90/90/90 89/89/89 87/87/87
f 93/93/93 92/92/92 91/91/91
f 94/94/94 93/93/93 91/91/91
f 97/97/97 96/96/96 95/95/95
f 98/98/98 97/97/97 95/95/95
f 101/101/101 100/100/100 99/99/99
f 102/102/102 101/101/101 99/99/99
f 105/105/105 104/104/104 103/103/103
f 106/106/106 105/105/105 103/103/103
f 109/109/109 108/108/108 107/107/107
f 110/110/110 109/109/109 107/107/107
f 113/113/113 112/112/112 111/111/111
f 114/114/114 113/113/113 111/111/111
f 117/117/117 116/116/116 115/115/115
f 118/118/118 117/117/117 115/115/115
f 121/121/121 120/120/120 119/119/119
f 119/119/119 120/120/120 122/122/122
f 122/122/122 120/120/120 123/123/123
f 126/126/126 125/125/125 124/124/124
f 127/127/127 126/126/126 124/124/124
f 130/130/130 129/129/129 128/128/128
f 131/131/131 130/130/130 128/128/128
f 134/134/134 133/133/133 132/132/132
f 135/135/135 134/134/134 132/132/132
f 138/138/138 137/137/137 136/136/136
f 139/139/139 138/138/138 136/136/136
f 142/142/142 141/141/141 140/140/140
f 143/143/143 142/142/142 140/140/140
f 146/146/146 145/145/145 144/144/144
f 147/147/147 146/146/146 144/144/144
f 150/150/150 149/149/149 148/148/148
f 149/149/149 151/151/151 148/148/148
f 148/148/148 151/151/151 152/152/152
f 149/149/149 153/153/153 151/151/151
f 151/151/151 154/154/154 152/152/152
f 152/152/152 154/154/154 155/155/155
f 153/153/153 156/156/156 151/151/151
f 151/151/151 156/156/156 154/154/154
f 154/154/154 157/157/157 155/155/155
f 155/155/155 157/157/157 158/158/158
f 156/156/156 159/159/159 154/154/154
f 159/159/159 156/156/156 153/153/153
f 154/154/154 159/159/159 157/157/157
f 157/157/157 160/160/160 158/158/158
f 158/158/158 160/160/160 161/161/161
f 159/159/159 162/162/162 157/157/157
f 162/162/162 159/159/159 153/153/153
f 157/157/157 162/162/162 160/160/160
f 160/160/160 163/163/163 161/161/161
f 161/161/161 163/163/163 164/164/164
f 163/163/163 165/165/165 164/164/164
f 162/162/162 166/166/166 160/160/160
f 166/166/166 162/162/162 153/153/153
f 160/160/160 166/166/166 163/163/163
f 163/163/163 167/167/167 165/165/165
f 166/166/166 167/167/167 163/163/163
f 167/167/167 166/166/166 153/153/153
f 167/167/167 168/168/168 165/165/165
f 153/153/153 168/168/168 167/167/167
f 171/171/171 170/170/170 169/169/169
f 169/169/169 172/172/172 171/171/171
f 169/169/169 173/173/173 172/172/172
f 169/169/169 174/174/174 173/173/173
f 169/169/169 175/175/175 174/174/174
f 178/178/178 177/177/177 176/176/176
f 179/179/179 178/178/178 176/176/176
f 182/182/182 181/181/181 180/180/180
f 183/183/183 182/182/182 180/180/180
f 186/186/186 185/185/185 184/184/184
f 187/187/187 186/186/186 184/184/184
f 190/190/190 189/189/189 188/188/188
f 191/191/191 190/190/190 188/188/188
f 194/194/194 193/193/193 192/192/192
f 195/195/195 194/194/194 192/192/192
f 198/198/198 197/197/197 196/196/196
f 199/199/199 198/198/198 196/196/196
f 202/202/202 201/201/201 200/200/200
f 203/203/203 202/202/202 200/200/200
f 206/206/206 205/205/205 204/204/204
f 207/207/207 206/206/206 204/204/204
f 210/210/210 209/209/209 208/208/208
f 211/211/211 210/210/210 208/208/208
f 214/214/214 213/213/213 212/212/212
f 215/215/215 214/214/214 212/212/212
f 218/218/218 217/217/217 216/216/216
f 219/219/219 218/218/218 216/216/216
f 222/222/222 221/221/221 220/220/220
f 223/223/223 222/222/222 220/220/220
f 226/226/226 225/225/225 224/224/224
f 226/226/226 224/224/224 227/227/227
f 226/226/226 227/227/227 228/228/228
g orb_base_1
f 231/231/231 230/230/230 229/229/229
f 232/232/232 231/231/231 229/229/229
f 235/235/235 234/234/234 233/233/233
f 236/236/236 235/235/235 233/233/233
f 239/239/239 238/238/238 237/237/237
f 240/240/240 239/239/239 237/237/237
f 243/243/243 242/242/242 241/241/241
f 244/244/244 243/243/243 241/241/241
f 247/247/247 246/246/246 245/245/245
f 248/248/248 247/247/247 245/245/245
f 251/251/251 250/250/250 249/249/249
f 252/252/252 251/251/251 249/249/249
