g orb_sphere
v -2.693797E-08 3.702649 -3.485205
v -0.2704751 2.870199 -3.373503
v 0.708127 3.188171 -3.373502
v -0.8752986 3.702649 -3.3735
v 0.708127 4.217127 -3.373502
v -0.2704751 4.5351 -3.373503
v -1.260952 2.786513 -3.117266
v 0.4816506 2.22032 -3.117269
v -0.5661908 1.960063 -2.964705
v 1.558622 3.702647 -3.117266
v 1.482336 2.625681 -2.964704
v 0.481644 5.184981 -3.117268
v 1.482336 4.779617 -2.964704
v -1.260951 4.618779 -3.117268
v -1.832276 3.702649 -2.964695
v -0.5661908 5.445235 -2.964705
v -1.55862 1.870378 -2.52193
v -2.224238 2.786515 -2.521926
v 0.1839851 1.304183 -2.521935
v -0.8114306 1.20528 -2.291589
v 1.260964 1.654119 -2.521932
v -2.224239 4.61878 -2.521927
v -1.55862 5.534915 -2.521934
v -2.625898 3.702649 -2.291574
v -2.398481 1.960058 -1.832298
v -1.686739 1.205276 -1.750624
v -2.896381 2.870196 -1.750614
v -0.103299 0.6907907 -1.750625
v 0.9161515 0.8830783 -1.832303
v -0.9632688 0.7379625 -1.558653
v -2.896381 4.535102 -1.750614
v -2.398481 5.44524 -1.832298
v -3.117259 3.702649 -1.558638
v -3.003561 2.220308 -0.9632979
v -2.337942 1.304164 -0.9633012
v -1.519573 0.6907778 -0.8753164
v -0.5409564 0.372808 -0.8753146
v -3.334036 3.188169 -0.8753073
v -3.334036 4.217129 -0.8753073
v -3.00356 5.18499 -0.9632979
v 0.4816521 0.3880284 -0.9633021
v -2.819594 1.654104 -1.502672E-07
v -2.048553 0.8830605 -8.921489E-08
v -3.314631 2.625677 -2.113195E-07
v -3.485204 3.702648 2.021585E-06
v -1.076988 0.3880231 -2.893663E-06
v -3.314631 4.779621 -8.92154E-08
v -2.693797E-08 0.2174451 -2.113198E-07
v 1.558638 0.7379661 -0.9633026
v 1.076988 0.3880231 -1.502673E-07
v 1.853923 1.326742 -1.750624
v 2.124394 2.159204 -2.291588
v 2.337936 3.136451 -2.521929
v 2.337934 4.268844 -2.521931
v -0.4816527 0.3880279 0.9632991
v 0.5409563 0.372808 0.8753143
v -1.558638 0.7379656 0.9632994
v -2.394888 1.326732 0.8753155
v -2.999707 2.1592 0.8753119
v -3.301231 3.13645 0.9632984
v -3.301231 4.268847 0.963296
v -0.9161516 0.8830781 1.832303
v -1.853923 1.326742 1.750624
v -2.521919 1.870389 1.558651
v -2.832527 2.673685 1.75062
v -2.124395 2.159204 2.291587
v -2.964682 3.702649 1.832297
v 0.1032989 0.6907907 1.750625
v -1.26096 1.654121 2.521936
v -2.337933 3.136453 2.521931
v -0.1839825 1.304184 2.521937
v -1.482336 2.625681 2.964703
v -0.4816459 2.220324 3.117271
v -2.832527 4.731613 1.75062
v -2.337933 4.268845 2.521931
v -1.558618 3.702649 3.117268
v -0.708127 3.188171 3.373502
v -2.999707 5.246098 0.8753119
v -2.819594 5.751194 -1.502677E-07
v -2.337941 6.101134 -0.9633012
v -1.686739 6.200023 -1.750624
v -0.8114306 6.200017 -2.291589
v 0.1839807 6.101119 -2.521932
v 1.260959 5.75118 -2.521935
v 2.124394 5.246094 -2.291588
v -2.394888 6.078566 0.8753156
v -2.048553 6.522238 -2.1132E-07
v -1.519573 6.71452 -0.8753164
v -0.9632688 6.667336 -1.558653
v -0.103299 6.714508 -1.750625
v 0.9161515 6.52222 -1.832303
v -0.5409564 7.03249 -0.8753146
v -1.076986 7.017276 -1.864892E-06
v 0.481652 7.01727 -0.9633021
v 1.853923 6.078557 -1.750624
v -1.558636 6.667334 0.9633007
v -2.693797E-08 7.187853 -8.921506E-08
v 1.558638 6.667333 -0.9633026
v -0.4816501 7.017271 0.9633001
v 1.076988 7.017275 -1.502675E-07
v 0.5409563 7.03249 0.8753143
v 2.52192 5.53491 -1.558652
v 2.394888 6.078566 -0.8753158
v 2.048553 6.522238 -2.1132E-07
v 2.832528 4.731613 -1.75062
v 2.999707 5.246098 -0.8753122
v 2.964682 3.702649 -1.832297
v 1.519573 6.71452 0.875316
v 2.819598 5.75119 -1.502674E-07
v 3.301232 4.268847 -0.9632968
v 2.832528 2.673685 -1.75062
v 2.337946 6.101129 0.9633013
v 3.314631 4.779621 -8.92154E-08
v 3.301232 3.136451 -0.9632968
v 2.52192 1.870389 -1.558652
v 2.999707 2.1592 -0.8753122
v 2.394888 1.326732 -0.8753159
v 3.485204 3.702649 -1.502674E-07
v 3.003563 5.184983 0.9632971
v 3.314631 2.625677 -2.113195E-07
v 2.048553 0.8830605 -8.921489E-08
v 2.819595 1.654105 -6.780138E-06
v 3.334036 4.217129 0.875307
v 1.519573 0.6907778 0.875316
v 3.334036 3.188169 0.875307
v 2.337946 1.304168 0.9632969
v 3.003563 2.220311 0.9632909
v 0.9632687 0.7379625 1.558652
v 1.686739 1.205276 1.750624
v 0.8114306 1.20528 2.291589
v 2.39848 1.960058 1.832298
v 2.896381 2.870196 1.750613
v 0.5661908 1.960063 2.964704
v 1.558615 1.870379 2.521934
v 0.270475 2.870198 3.373502
v 2.224235 2.786514 2.521929
v 1.260948 2.786518 3.117269
v 3.117258 3.702649 1.558638
v 2.625898 3.702649 2.291573
v 2.896381 4.535102 1.750613
v 1.832276 3.702649 2.964695
v 0.8752985 3.702649 3.373499
v 2.224235 4.618784 2.521929
v 2.39848 5.44524 1.832298
v 1.260948 4.61878 3.117269
v -2.693797E-08 3.702649 3.485204
v 1.558615 5.534919 2.521934
v 1.686739 6.200023 1.750624
v 0.270475 4.5351 3.373502
v -0.708127 4.217127 3.373502
v 0.5661908 5.445235 2.964704
v 0.8114306 6.200017 2.291589
v 0.9632687 6.667336 1.558652
v 0.1032989 6.714508 1.750625
v -0.4816457 5.184975 3.117271
v -1.482336 4.779617 2.964703
v -0.1839825 6.101115 2.521937
v -0.9161516 6.52222 1.832303
v -1.26096 5.751177 2.521936
v -2.124395 5.246094 2.291587
v -1.853923 6.078557 1.750624
v -2.521919 5.53491 1.558651
vn 0 0 -1
vn -0.08057053 -0.247968 -0.9654119
vn 0.2109472 -0.1532663 -0.965407
vn -0.2607538 0 -0.9654053
vn 0.2109472 0.1532663 -0.965407
vn -0.08057053 0.247968 -0.9654119
vn -0.368214 -0.2675007 -0.8904279
vn 0.1406323 -0.4328533 -0.8904272
vn -0.1624527 -0.4999929 -0.8506563
vn 0.4551309 0 -0.8904245
vn 0.4253148 -0.3090063 -0.85066
vn 0.1406323 0.4328533 -0.8904272
vn 0.4253148 0.3090063 -0.85066
vn -0.368214 0.2675007 -0.8904279
vn -0.5257209 0 -0.8506571
vn -0.1624527 0.4999929 -0.8506563
vn -0.4496427 -0.5181589 -0.7275527
vn -0.6317517 -0.2675026 -0.7275522
vn 0.05920685 -0.6835034 -0.7275423
vn -0.2307867 -0.7103053 -0.6649841
vn 0.3538396 -0.5877693 -0.7275472
vn -0.6317517 0.2675026 -0.7275522
vn -0.4496427 0.5181589 -0.7275527
vn -0.7468618 0 -0.6649792
vn -0.6881878 -0.5000036 -0.5257317
vn -0.4915493 -0.7103142 -0.5038183
vn -0.8274606 -0.2479666 -0.503807
vn -0.01983774 -0.8635824 -0.5038174
vn 0.2628661 -0.809016 -0.5257322
vn -0.2763784 -0.8506508 -0.4472227
vn -0.8274606 0.2479666 -0.503807
vn -0.6881878 0.5000036 -0.5257317
vn -0.8944333 0 -0.4472014
vn -0.8593212 -0.4328498 -0.2724119
vn -0.6772139 -0.6835008 -0.2724115
vn -0.4417319 -0.863596 -0.2430533
vn -0.1502166 -0.9583101 -0.2430568
vn -0.9578289 -0.1532648 -0.2430508
vn -0.9578289 0.1532648 -0.2430508
vn -0.8593212 0.4328498 -0.2724119
vn 0.1461274 -0.9510183 -0.2724171
vn -0.808988 -0.5877584 -0.008850405
vn -0.5877669 -0.8090302 0
vn -0.9510608 -0.3090039 0
vn -0.9999609 0 0.008850561
vn -0.3090008 -0.9510207 0.008850395
vn -0.9510608 0.3090039 0
vn 0 -1 0
vn 0.4407661 -0.8552853 -0.2724192
vn 0.3090008 -0.9510207 -0.008850395
vn 0.5236525 -0.6869925 -0.5038148
vn 0.6042211 -0.4389896 -0.664985
vn 0.6683425 -0.1548855 -0.7275499
vn 0.6683425 0.1548855 -0.7275499
vn -0.1461274 -0.9510183 0.2724171
vn 0.1502166 -0.9583101 0.2430568
vn -0.4407661 -0.8552853 0.2724192
vn -0.6848182 -0.6869851 0.2430542
vn -0.8649965 -0.4389835 0.2430523
vn -0.9496324 -0.1548844 0.2724135
vn -0.9496324 0.1548844 0.2724135
vn -0.2628661 -0.809016 0.5257322
vn -0.5236525 -0.6869925 0.5038148
vn -0.7236065 -0.525721 0.447226
vn -0.8151942 -0.2857193 0.5038084
vn -0.6042211 -0.4389896 0.664985
vn -0.8506571 0 0.5257209
vn 0.01983774 -0.8635824 0.5038174
vn -0.3538459 -0.5877492 0.7275602
vn -0.6683425 -0.1548855 0.7275499
vn -0.05920685 -0.6835034 0.7275423
vn -0.4253148 -0.3090063 0.85066
vn -0.1406323 -0.4328533 0.8904272
vn -0.8151942 0.2857193 0.5038084
vn -0.6683425 0.1548855 0.7275499
vn -0.4551309 0 0.8904245
vn -0.2109472 -0.1532663 0.965407
vn -0.8649965 0.4389835 0.2430523
vn -0.808988 0.5877584 -0.008850405
vn -0.6772139 0.6835008 -0.2724115
vn -0.4915493 0.7103142 -0.5038183
vn -0.2307867 0.7103053 -0.6649841
vn 0.05920685 0.6835034 -0.7275423
vn 0.3538396 0.5877693 -0.7275472
vn 0.6042211 0.4389896 -0.664985
vn -0.6848182 0.6869851 0.2430542
vn -0.5877669 0.8090302 0
vn -0.4417319 0.863596 -0.2430533
vn -0.2763784 0.8506508 -0.4472227
vn -0.01983774 0.8635824 -0.5038174
vn 0.2628661 0.809016 -0.5257322
vn -0.1502166 0.9583101 -0.2430568
vn -0.3090008 0.9510207 0.008850395
vn 0.1461274 0.9510183 -0.2724171
vn 0.5236525 0.6869925 -0.5038148
vn -0.4407661 0.8552853 0.2724192
vn 0 1 0
vn 0.4407661 0.8552853 -0.2724192
vn -0.1461274 0.9510183 0.2724171
vn 0.3090008 0.9510207 -0.008850395
vn 0.1502166 0.9583101 0.2430568
vn 0.7236065 0.525721 -0.447226
vn 0.6848182 0.6869851 -0.2430542
vn 0.5877669 0.8090302 0
vn 0.8151942 0.2857193 -0.5038084
vn 0.8649965 0.4389835 -0.2430523
vn 0.8506571 0 -0.5257209
vn 0.4417319 0.863596 0.2430533
vn 0.808988 0.5877584 0.008850405
vn 0.9496324 0.1548844 -0.2724135
vn 0.8151942 -0.2857193 -0.5038084
vn 0.6772139 0.6835008 0.2724115
vn 0.9510608 0.3090039 0
vn 0.9496324 -0.1548844 -0.2724135
vn 0.7236065 -0.525721 -0.447226
vn 0.8649965 -0.4389835 -0.2430523
vn 0.6848182 -0.6869851 -0.2430542
vn 0.9999609 0 -0.008850561
vn 0.8593212 0.4328498 0.2724119
vn 0.9510608 -0.3090039 0
vn 0.5877669 -0.8090302 0
vn 0.808988 -0.5877584 0.008850405
vn 0.9578289 0.1532648 0.2430508
vn 0.4417319 -0.863596 0.2430533
vn 0.9578289 -0.1532648 0.2430508
vn 0.6772139 -0.6835008 0.2724115
vn 0.8593212 -0.4328498 0.2724119
vn 0.2763784 -0.8506508 0.4472227
vn 0.4915493 -0.7103142 0.5038183
vn 0.2307867 -0.7103053 0.6649841
vn 0.6881878 -0.5000036 0.5257317
vn 0.8274606 -0.2479666 0.503807
vn 0.1624527 -0.4999929 0.8506563
vn 0.4496427 -0.5181589 0.7275527
vn 0.08057053 -0.247968 0.9654119
vn 0.6317517 -0.2675026 0.7275522
vn 0.368214 -0.2675007 0.8904279
vn 0.8944333 0 0.4472014
vn 0.7468618 0 0.6649792
vn 0.8274606 0.2479666 0.503807
vn 0.5257209 0 0.8506571
vn 0.2607538 0 0.9654053
vn 0.6317517 0.2675026 0.7275522
vn 0.6881878 0.5000036 0.5257317
vn 0.368214 0.2675007 0.8904279
vn 0 0 1
vn 0.4496427 0.5181589 0.7275527
vn 0.4915493 0.7103142 0.5038183
vn 0.08057053 0.247968 0.9654119
vn -0.2109482 0.1532365 0.9654115
vn 0.1624527 0.4999929 0.8506563
vn 0.2307867 0.7103053 0.6649841
vn 0.2763784 0.8506508 0.4472227
vn 0.01983774 0.8635824 0.5038174
vn -0.1406323 0.4328533 0.8904272
vn -0.4253148 0.3090063 0.85066
vn -0.05920685 0.6835034 0.7275423
vn -0.2628661 0.809016 0.5257322
vn -0.3538459 0.5877492 0.7275602
vn -0.6042211 0.4389896 0.664985
vn -0.5236525 0.6869925 0.5038148
vn -0.7236065 0.525721 0.447226
g orb_sphere_0
f 3/3/3 2/2/2 1/1/1
f 2/2/2 4/4/4 1/1/1
f 1/1/1 5/5/5 3/3/3
f 4/4/4 6/6/6 1/1/1
f 6/6/6 5/5/5 1/1/1
f 2/2/2 7/7/7 4/4/4
f 3/3/3 8/8/8 2/2/2
f 9/9/9 7/7/7 2/2/2
f 8/8/8 9/9/9 2/2/2
f 3/3/3 5/5/5 10/10/10
f 11/11/11 8/8/8 3/3/3
f 3/3/3 10/10/10 11/11/11
f 6/6/6 12/12/12 5/5/5
f 5/5/5 13/13/13 10/10/10
f 12/12/12 13/13/13 5/5/5
f 4/4/4 14/14/14 6/6/6
f 7/7/7 15/15/15 4/4/4
f 15/15/15 14/14/14 4/4/4
f 16/16/16 12/12/12 6/6/6
f 14/14/14 16/16/16 6/6/6
f 9/9/9 17/17/17 7/7/7
f 7/7/7 18/18/18 15/15/15
f 17/17/17 18/18/18 7/7/7
f 8/8/8 19/19/19 9/9/9
f 20/20/20 17/17/17 9/9/9
f 19/19/19 20/20/20 9/9/9
f 21/21/21 19/19/19 8/8/8
f 11/11/11 21/21/21 8/8/8
f 15/15/15 22/22/22 14/14/14
f 14/14/14 23/23/23 16/16/16
f 22/22/22 23/23/23 14/14/14
f 18/18/18 24/24/24 15/15/15
f 24/24/24 22/22/22 15/15/15
f 17/17/17 25/25/25 18/18/18
f 20/20/20 26/26/26 17/17/17
f 26/26/26 25/25/25 17/17/17
f 18/18/18 27/27/27 24/24/24
f 25/25/25 27/27/27 18/18/18
f 19/19/19 28/28/28 20/20/20
f 21/21/21 29/29/29 19/19/19
f 29/29/29 28/28/28 19/19/19
f 30/30/30 26/26/26 20/20/20
f 28/28/28 30/30/30 20/20/20
f 24/24/24 31/31/31 22/22/22
f 22/22/22 32/32/32 23/23/23
f 31/31/31 32/32/32 22/22/22
f 27/27/27 33/33/33 24/24/24
f 33/33/33 31/31/31 24/24/24
f 25/25/25 34/34/34 27/27/27
f 26/26/26 35/35/35 25/25/25
f 25/25/25 35/35/35 34/34/34
f 30/30/30 36/36/36 26/26/26
f 26/26/26 36/36/36 35/35/35
f 28/28/28 37/37/37 30/30/30
f 37/37/37 36/36/36 30/30/30
f 27/27/27 38/38/38 33/33/33
f 27/27/27 34/34/34 38/38/38
f 33/33/33 39/39/39 31/31/31
f 38/38/38 39/39/39 33/33/33
f 31/31/31 40/40/40 32/32/32
f 31/31/31 39/39/39 40/40/40
f 28/28/28 41/41/41 37/37/37
f 29/29/29 41/41/41 28/28/28
f 35/35/35 42/42/42 34/34/34
f 36/36/36 43/43/43 35/35/35
f 35/35/35 43/43/43 42/42/42
f 34/34/34 44/44/44 38/38/38
f 34/34/34 42/42/42 44/44/44
f 38/38/38 45/45/45 39/39/39
f 44/44/44 45/45/45 38/38/38
f 37/37/37 46/46/46 36/36/36
f 46/46/46 43/43/43 36/36/36
f 39/39/39 47/47/47 40/40/40
f 45/45/45 47/47/47 39/39/39
f 41/41/41 48/48/48 37/37/37
f 48/48/48 46/46/46 37/37/37
f 29/29/29 49/49/49 41/41/41
f 41/41/41 50/50/50 48/48/48
f 49/49/49 50/50/50 41/41/41
f 51/51/51 49/49/49 29/29/29
f 51/51/51 29/29/29 21/21/21
f 52/52/52 51/51/51 21/21/21
f 52/52/52 21/21/21 11/11/11
f 11/11/11 53/53/53 52/52/52
f 11/11/11 10/10/10 53/53/53
f 10/10/10 54/54/54 53/53/53
f 10/10/10 13/13/13 54/54/54
f 48/48/48 55/55/55 46/46/46
f 50/50/50 56/56/56 48/48/48
f 56/56/56 55/55/55 48/48/48
f 55/55/55 57/57/57 46/46/46
f 46/46/46 57/57/57 43/43/43
f 57/57/57 58/58/58 43/43/43
f 43/43/43 58/58/58 42/42/42
f 42/42/42 58/58/58 59/59/59
f 42/42/42 59/59/59 44/44/44
f 59/59/59 60/60/60 44/44/44
f 44/44/44 60/60/60 45/45/45
f 60/60/60 61/61/61 45/45/45
f 45/45/45 61/61/61 47/47/47
f 55/55/55 62/62/62 57/57/57
f 57/57/57 63/63/63 58/58/58
f 62/62/62 63/63/63 57/57/57
f 58/58/58 64/64/64 59/59/59
f 63/63/63 64/64/64 58/58/58
f 59/59/59 65/65/65 60/60/60
f 64/64/64 65/65/65 59/59/59
f 63/63/63 66/66/66 64/64/64
f 64/64/64 66/66/66 65/65/65
f 65/65/65 67/67/67 60/60/60
f 60/60/60 67/67/67 61/61/61
f 68/68/68 62/62/62 55/55/55
f 56/56/56 68/68/68 55/55/55
f 62/62/62 69/69/69 63/63/63
f 63/63/63 69/69/69 66/66/66
f 65/65/65 66/66/66 70/70/70
f 65/65/65 70/70/70 67/67/67
f 68/68/68 71/71/71 62/62/62
f 62/62/62 71/71/71 69/69/69
f 69/69/69 72/72/72 66/66/66
f 66/66/66 72/72/72 70/70/70
f 71/71/71 73/73/73 69/69/69
f 69/69/69 73/73/73 72/72/72
f 67/67/67 74/74/74 61/61/61
f 67/67/67 70/70/70 75/75/75
f 67/67/67 75/75/75 74/74/74
f 70/70/70 72/72/72 76/76/76
f 70/70/70 76/76/76 75/75/75
f 73/73/73 77/77/77 72/72/72
f 72/72/72 77/77/77 76/76/76
f 61/61/61 74/74/74 78/78/78
f 61/61/61 78/78/78 47/47/47
f 47/47/47 78/78/78 79/79/79
f 40/40/40 47/47/47 79/79/79
f 40/40/40 79/79/79 80/80/80
f 32/32/32 40/40/40 80/80/80
f 32/32/32 80/80/80 81/81/81
f 32/32/32 81/81/81 23/23/23
f 23/23/23 81/81/81 82/82/82
f 23/23/23 82/82/82 16/16/16
f 82/82/82 83/83/83 16/16/16
f 16/16/16 83/83/83 12/12/12
f 83/83/83 84/84/84 12/12/12
f 12/12/12 84/84/84 13/13/13
f 84/84/84 85/85/85 13/13/13
f 13/13/13 85/85/85 54/54/54
f 79/79/79 78/78/78 86/86/86
f 80/80/80 79/79/79 87/87/87
f 79/79/79 86/86/86 87/87/87
f 81/81/81 80/80/80 88/88/88
f 80/80/80 87/87/87 88/88/88
f 81/81/81 89/89/89 82/82/82
f 81/81/81 88/88/88 89/89/89
f 82/82/82 90/90/90 83/83/83
f 89/89/89 90/90/90 82/82/82
f 83/83/83 91/91/91 84/84/84
f 90/90/90 91/91/91 83/83/83
f 88/88/88 92/92/92 89/89/89
f 89/89/89 92/92/92 90/90/90
f 87/87/87 93/93/93 88/88/88
f 88/88/88 93/93/93 92/92/92
f 90/90/90 92/92/92 94/94/94
f 90/90/90 94/94/94 91/91/91
f 91/91/91 95/95/95 84/84/84
f 84/84/84 95/95/95 85/85/85
f 87/87/87 96/96/96 93/93/93
f 86/86/86 96/96/96 87/87/87
f 93/93/93 97/97/97 92/92/92
f 92/92/92 97/97/97 94/94/94
f 91/91/91 94/94/94 98/98/98
f 91/91/91 98/98/98 95/95/95
f 96/96/96 99/99/99 93/93/93
f 93/93/93 99/99/99 97/97/97
f 94/94/94 97/97/97 100/100/100
f 94/94/94 100/100/100 98/98/98
f 99/99/99 101/101/101 97/97/97
f 97/97/97 101/101/101 100/100/100
f 95/95/95 102/102/102 85/85/85
f 95/95/95 98/98/98 103/103/103
f 95/95/95 103/103/103 102/102/102
f 98/98/98 100/100/100 104/104/104
f 98/98/98 104/104/104 103/103/103
f 85/85/85 102/102/102 105/105/105
f 54/54/54 85/85/85 105/105/105
f 103/103/103 106/106/106 102/102/102
f 102/102/102 106/106/106 105/105/105
f 54/54/54 105/105/105 107/107/107
f 53/53/53 54/54/54 107/107/107
f 100/100/100 101/101/101 108/108/108
f 100/100/100 108/108/108 104/104/104
f 104/104/104 109/109/109 103/103/103
f 103/103/103 109/109/109 106/106/106
f 105/105/105 106/106/106 110/110/110
f 105/105/105 110/110/110 107/107/107
f 53/53/53 107/107/107 111/111/111
f 52/52/52 53/53/53 111/111/111
f 108/108/108 112/112/112 104/104/104
f 104/104/104 112/112/112 109/109/109
f 109/109/109 113/113/113 106/106/106
f 106/106/106 113/113/113 110/110/110
f 107/107/107 110/110/110 114/114/114
f 107/107/107 114/114/114 111/111/111
f 52/52/52 111/111/111 115/115/115
f 115/115/115 51/51/51 52/52/52
f 111/111/111 116/116/116 115/115/115
f 111/111/111 114/114/114 116/116/116
f 115/115/115 117/117/117 51/51/51
f 116/116/116 117/117/117 115/115/115
f 51/51/51 117/117/117 49/49/49
f 110/110/110 118/118/118 114/114/114
f 110/110/110 113/113/113 118/118/118
f 109/109/109 119/119/119 113/113/113
f 112/112/112 119/119/119 109/109/109
f 114/114/114 120/120/120 116/116/116
f 114/114/114 118/118/118 120/120/120
f 117/117/117 121/121/121 49/49/49
f 49/49/49 121/121/121 50/50/50
f 116/116/116 122/122/122 117/117/117
f 120/120/120 122/122/122 116/116/116
f 122/122/122 121/121/121 117/117/117
f 113/113/113 123/123/123 118/118/118
f 119/119/119 123/123/123 113/113/113
f 121/121/121 124/124/124 50/50/50
f 50/50/50 124/124/124 56/56/56
f 118/118/118 125/125/125 120/120/120
f 118/118/118 123/123/123 125/125/125
f 122/122/122 126/126/126 121/121/121
f 126/126/126 124/124/124 121/121/121
f 120/120/120 127/127/127 122/122/122
f 125/125/125 127/127/127 120/120/120
f 127/127/127 126/126/126 122/122/122
f 124/124/124 128/128/128 56/56/56
f 128/128/128 68/68/68 56/56/56
f 126/126/126 129/129/129 124/124/124
f 129/129/129 128/128/128 124/124/124
f 128/128/128 130/130/130 68/68/68
f 129/129/129 130/130/130 128/128/128
f 68/68/68 130/130/130 71/71/71
f 127/127/127 131/131/131 126/126/126
f 131/131/131 129/129/129 126/126/126
f 125/125/125 132/132/132 127/127/127
f 132/132/132 131/131/131 127/127/127
f 130/130/130 133/133/133 71/71/71
f 71/71/71 133/133/133 73/73/73
f 129/129/129 134/134/134 130/130/130
f 131/131/131 134/134/134 129/129/129
f 134/134/134 133/133/133 130/130/130
f 133/133/133 135/135/135 73/73/73
f 73/73/73 135/135/135 77/77/77
f 131/131/131 136/136/136 134/134/134
f 132/132/132 136/136/136 131/131/131
f 134/134/134 137/137/137 133/133/133
f 137/137/137 135/135/135 133/133/133
f 136/136/136 137/137/137 134/134/134
f 138/138/138 132/132/132 125/125/125
f 123/123/123 138/138/138 125/125/125
f 132/132/132 139/139/139 136/136/136
f 138/138/138 139/139/139 132/132/132
f 140/140/140 138/138/138 123/123/123
f 140/140/140 139/139/139 138/138/138
f 119/119/119 140/140/140 123/123/123
f 136/136/136 141/141/141 137/137/137
f 139/139/139 141/141/141 136/136/136
f 137/137/137 142/142/142 135/135/135
f 141/141/141 142/142/142 137/137/137
f 140/140/140 143/143/143 139/139/139
f 143/143/143 141/141/141 139/139/139
f 144/144/144 140/140/140 119/119/119
f 144/144/144 143/143/143 140/140/140
f 112/112/112 144/144/144 119/119/119
f 143/143/143 145/145/145 141/141/141
f 145/145/145 142/142/142 141/141/141
f 142/142/142 146/146/146 135/135/135
f 135/135/135 146/146/146 77/77/77
f 144/144/144 147/147/147 143/143/143
f 147/147/147 145/145/145 143/143/143
f 148/148/148 144/144/144 112/112/112
f 148/148/148 147/147/147 144/144/144
f 108/108/108 148/148/148 112/112/112
f 149/149/149 146/146/146 142/142/142
f 145/145/145 149/149/149 142/142/142
f 77/77/77 146/146/146 150/150/150
f 150/150/150 146/146/146 149/149/149
f 76/76/76 77/77/77 150/150/150
f 147/147/147 151/151/151 145/145/145
f 151/151/151 149/149/149 145/145/145
f 148/148/148 152/152/152 147/147/147
f 152/152/152 151/151/151 147/147/147
f 153/153/153 148/148/148 108/108/108
f 153/153/153 152/152/152 148/148/148
f 101/101/101 153/153/153 108/108/108
f 154/154/154 153/153/153 101/101/101
f 154/154/154 152/152/152 153/153/153
f 99/99/99 154/154/154 101/101/101
f 155/155/155 150/150/150 149/149/149
f 155/155/155 149/149/149 151/151/151
f 76/76/76 150/150/150 156/156/156
f 156/156/156 150/150/150 155/155/155
f 75/75/75 76/76/76 156/156/156
f 157/157/157 151/151/151 152/152/152
f 154/154/154 157/157/157 152/152/152
f 157/157/157 155/155/155 151/151/151
f 158/158/158 154/154/154 99/99/99
f 158/158/158 157/157/157 154/154/154
f 96/96/96 158/158/158 99/99/99
f 159/159/159 155/155/155 157/157/157
f 159/159/159 156/156/156 155/155/155
f 158/158/158 159/159/159 157/157/157
f 75/75/75 156/156/156 160/160/160
f 160/160/160 156/156/156 159/159/159
f 74/74/74 75/75/75 160/160/160
f 161/161/161 158/158/158 96/96/96
f 161/161/161 159/159/159 158/158/158
f 161/161/161 160/160/160 159/159/159
f 86/86/86 161/161/161 96/96/96
f 74/74/74 160/160/160 162/162/162
f 162/162/162 160/160/160 161/161/161
f 162/162/162 161/161/161 86/86/86
f 74/74/74 162/162/162 78/78/78
f 78/78/78 162/162/162 86/86/86
