g pb_Mesh264460
v -16 0 0
v -16 0 -2
v -16 4 -2.00005
v -16 4 0
v 0 4 -2
v 0 0 0
v 0 4 0
v 0 0 -2
v -14 0 0
v -16 0 0
v -16 4 0
v -14 4 0
v -16 14.99997 -2
v -14 14.99997 -1.999997
v -14 15.0001 3.814697E-06
v -16 15.0001 3.814697E-06
v -16 8 0
v -16 8 -2.00005
v -14 8 0
v -16 8 0
v -1.525879E-05 8.000107 -1.999982
v 0 8.000051 0
v 0 0 0
v -2 0 0
v -2 4 0
v 0 4 0
v -2 4 -16
v 0 0 -16
v 0 4 -16
v -2 0 -16
v -2.000015 8.000007 -1.999982
v -1.525879E-05 8.000107 -1.999982
v 0 8.000051 0
v -2 7.99995 0
v 0 8.000051 0
v -2 7.99995 0
v -16 0 -9
v -16 4 -9
v -16 0 -16
v -16 4 -16
v 5.594889E-05 4.00005 -9
v 0 0 -9
v 0 4 -16
v 0 0 -16
v -2 4 -16
v 0 4 -16
v 5.594889E-05 4.00005 -9
v -2 4.000017 -9.000057
v -2.000015 8.000007 -1.999982
v -2 4 -2
v -2.000031 5.999956 -3.749982
v -2.000015 5.99995 -5.000017
v -2 4.000017 -9.000057
v -2.000031 5.99995 -7.000027
v -2.000031 5.999937 -9.000035
v 2.288818E-05 6.00005 -6.999974
v 3.814697E-05 6.000037 -8.999965
v 1.525879E-05 6.00005 -4.999982
v -1.335144E-05 6.000056 -3.749965
v -2 4.000017 -9.000057
v 3.814697E-05 6.000037 -8.999965
v -2.000031 5.999937 -9.000035
v 5.594889E-05 4.00005 -9
v -16 4 -16
v -14 4 -8.999975
v -16 4 -9
v -12 4.00001 -15.99995
v -8 0 0
v -8 4 0
v -14 12.0001 -2.000005
v -9 12.0001 -2
v -9 12.0001 0
v -14 12.0001 0
v -9 8 0
v -14 8 -2
v -14 4 -2
v -9 8 -2
v -8 4 -2
v -8 4 -16
v -8 4.000009 -9.000029
v -14 4 -8.999975
v -8 4.000009 -9.000029
v -8 4 -2
v -14 4 -2
v -5 0 0
v -5 4 0
v -5 4 -16
v -5 -1 -16
v -8 4 -16
v -8 0 -16
v -4 12.0001 -2
v -4 12.0001 0
v -4 8 -2
v -2.000015 8.000007 -1.999982
v -2 7.99995 0
v -4 8 0
v -4 8 0
v -4 8 -2
v -5 4 -2
v -2.000015 8.000007 -1.999982
v -2 4 -2
v -5 4 -16
v -5 4.000012 -9.000043
v -5 4.000012 -9.000043
v -5 4 -2
v -2 4.000017 -9.000057
v -2 4 -2
v -2.999901 -0.1258919 -16
v -2.999901 0.1258919 -16
v -2.999901 -0.1258919 -18.0001
v -2.999901 0.1258919 -18.0001
v -8 0 -16
v -8 4 -16
v -2.999901 -0.1258919 -16
v -2.999901 0.1258919 -16
v -2.000031 8.00005 -7.000027
v -2.000031 8.000037 -9.000035
v 3.814697E-05 8.000137 -8.999965
v 2.288818E-05 8.000151 -6.999974
v -2.000015 5.99995 -5.000017
v -2.000031 5.99995 -7.000027
v 2.288818E-05 6.00005 -6.999974
v 1.525879E-05 6.00005 -4.999982
v -2.000015 8.000007 -1.999982
v -2.000031 8.000056 -3.749983
v -1.525879E-05 8.000107 -1.999982
v -1.525879E-05 8.000156 -3.749965
v -2.000015 8.00005 -5.000017
v 1.525879E-05 8.000151 -4.999982
v -2.000031 8.000056 -3.749983
v -1.525879E-05 8.000156 -3.749965
v -2.000015 5.99995 -5.000017
v -2.000031 8.000056 -3.749983
v -2.000015 8.00005 -5.000017
v -2.000015 5.99995 -5.000017
v 1.525879E-05 6.00005 -4.999982
v -2.000015 8.00005 -5.000017
v 1.525879E-05 8.000151 -4.999982
v 1.525879E-05 8.000151 -4.999982
v -2.000031 8.00005 -7.000027
v -2.000031 8.000037 -9.000035
v 3.814697E-05 6.000037 -8.999965
v -2.000031 8.000037 -9.000035
v 3.814697E-05 8.000137 -8.999965
v 3.814697E-05 8.000137 -8.999965
v 2.288818E-05 8.000151 -6.999974
v 2.288818E-05 6.00005 -6.999974
v -2.000031 5.99995 -7.000027
v 2.288818E-05 8.000151 -6.999974
v -2.000031 8.00005 -7.000027
v -14 12.0001 -2.000005
v -9 12.0001 -2
v -4 12.0001 0
v -9 12.0001 0
v -16 12.0001 0
v -16 12.00008 -2.000055
v -14 12.0001 0
v -4 12.0001 -2
v -4 8 -2
v -4 8 0
v -4 12.0001 -2
v -4 12.0001 0
v -16 12.0001 0
v -16 13.00015 0
v -16 13.00002 -2.000004
v -14 13.00015 0
v -16 13.00015 0
v -14 13.00002 -2.000001
v -14 13.00015 0
v -14 14.99997 -1.999997
v -14 15.0001 3.814697E-06
v -16 15.0001 3.814697E-06
v -16 14.99997 -2
v -14 15.0001 3.814697E-06
v -16 15.0001 3.814697E-06
v -13.9999 11.99994 -2.000001
v -14 13.00015 0
v -14 13.00002 -2.000001
v -13.9999 12.00006 0
v -15.9999 14.99997 -1.999998
v -14 13.00002 -2.000001
v -14 14.99997 -1.999997
v -15.99992 13.00003 -2.000001
v -13.9999 11.99994 -2.000001
v -15.99985 11.99996 -2
v -16 12.00008 -2.000055
v -16 7.99995 -2.000098
v -16 8 -2.00005
v -16 4 -2.00005
v -16 4.0001 -2
v -14 4 -8.999975
v -14 4 -2
v -16 4.0001 -9
v -16 4 -16
v -12 2 -15.99994
v -12 4.00001 -15.99995
v -16 0 -16
v -12 -9.536743E-06 -15.99993
v -8 4 -18.0001
v -12 3.99999 -18.00002
v -12 1.99999 -18.00002
v -8 0 -18.0001
v -12 -9.536743E-06 -18.00002
v -12 4 -16.99999
v -12 3.99999 -18.00002
v -8 4 -18.0001
v -8 4 -16
v -12 4.00001 -15.99995
v -12 2 -15.99994
v -12 1.999995 -16.99998
v -12 4 -16.99999
v -12 4.00001 -15.99995
v -14.0001 -4.768372E-06 -15.99995
v -14.0001 -4.768372E-06 -17
v -14.0001 2.000005 -15.99996
v -14.0001 2 -17.00001
v -14.0001 -4.768372E-06 -18.00005
v -14.0001 1.999995 -18.00005
v -12 1.99999 -18.00002
v -12 3.99999 -18.00002
v -12 -9.536743E-06 -18.00002
v -12 1.99999 -18.00002
v -14.0001 -4.768372E-06 -18.00005
v -14.0001 1.999995 -18.00005
v -12 1.99999 -18.00002
v -12 1.999995 -16.99998
v -14.0001 1.999995 -18.00005
v -14.0001 2 -17.00001
v -12 2 -15.99994
v -14.0001 2.000005 -15.99996
v -12 2 -15.99994
v -12 -9.536743E-06 -15.99993
v -14.0001 2.000005 -15.99996
v -14.0001 -4.768372E-06 -15.99995
vt 0 0
vt -2 0
vt -2.00005 4
vt 0 4
vt 2 4
vt 0 0
vt 0 4
vt 2 0
vt -14 0
vt -16 0
vt -16 4
vt -14 4
vt 16 -1.999056
vt 14 -1.999053
vt 14 0.0009479581
vt 16 0.0009479581
vt 0 8
vt -2.00005 8
vt -14 8
vt -16 8
vt 1.999982 8.000107
vt 0 8.000051
vt 0 0
vt -2 0
vt -2 4
vt 0 4
vt 2 4
vt 0 0
vt 0 4
vt 2 0
vt 1.999615 -2.000207
vt -0.0003852898 -2.000207
vt -0.0004005457 -0.0002250736
vt 1.999599 -0.0002250736
vt 0 8.000051
vt -2 7.99995
vt -9 0
vt -9 4
vt -16 0
vt -16 4
vt 9 4.00005
vt 9 0
vt 16 4
vt 16 1.788686E-09
vt 2 -15.99997
vt 0 -15.99997
vt -5.594889E-05 -8.999971
vt 2 -9.000029
vt -1.999986 8.00002
vt -2.000004 4.000014
vt -3.749986 5.99997
vt -5.000021 5.999964
vt -9.000061 4.000031
vt -7.000031 5.999964
vt -9.000039 5.999951
vt 6.999974 6.00005
vt 8.999965 6.000037
vt 4.999982 6.00005
vt 3.749965 6.000056
vt 2.000318 3.999918
vt 0.0002794095 5.999938
vt 2.000348 5.999838
vt 0.0002616088 3.999951
vt 16 -16
vt 14 -8.999975
vt 16 -9
vt 12 -15.99995
vt -8 0
vt -8 4
vt 14 -2.000005
vt 9 -2
vt 9 0
vt 14 0
vt -9 8
vt 14 8
vt 14 4
vt 9 8
vt 8 4
vt 8.00001 -16
vt 8.00001 -9.000024
vt 13.99999 -8.99998
vt 7.999994 -9.000033
vt 7.999994 -2.000005
vt 13.99999 -2.000005
vt -5 0
vt -5 4
vt 5 4
vt 5 -1
vt 8 4
vt 8 0
vt 4 -2
vt 4 0
vt 3.999973 -2.000225
vt 1.999989 -2.000207
vt 1.999973 -0.0002250681
vt 3.999973 -0.0002250697
vt -4 8
vt 4 8
vt 5 4
vt 2.000033 8.000011
vt 2.000018 4.000004
vt 5 -15.99999
vt 5 -9.000036
vt 4.999995 -9.00005
vt 4.999995 -2.000007
vt 1.999994 -9.000067
vt 1.999994 -2.00001
vt 16 -0.1258919
vt 16 0.1258919
vt 18.0001 -0.1258919
vt 18.0001 0.1258919
vt -8 0
vt -8 4
vt -2.999901 -0.1258919
vt -2.999901 0.1258919
vt 1.99963 -6.999977
vt 1.99963 -8.999986
vt -0.0004386815 -8.999915
vt -0.0004234234 -6.999925
vt 1.999715 -5.000017
vt 1.99973 -7.000027
vt -0.0003232901 -6.999974
vt -0.0003156607 -4.999982
vt 1.999613 -2.000105
vt 1.999629 -3.750106
vt -0.0003865586 -2.000105
vt -0.0003865612 -3.750087
vt 1.999613 -5.00014
vt -0.0004170784 -5.000105
vt -3.75 8.000056
vt 3.749965 8.000156
vt -4.999993 5.99995
vt -3.749959 8.000056
vt -4.999993 8.00005
vt 2.000103 5.99995
vt 7.295442E-05 6.00005
vt 2.000103 8.00005
vt 7.295442E-05 8.000151
vt 4.999982 8.000151
vt -7.000027 8.00005
vt -9.000035 8.000037
vt 0.0002794144 6.000037
vt 2.000348 8.000037
vt 0.0002794144 8.000137
vt 8.999965 8.000137
vt 6.999974 8.000151
vt -0.0001606885 6.00005
vt -2.000214 5.99995
vt -0.0001606885 8.000151
vt -2.000214 8.00005
vt 14 12.0001
vt 9 12.0001
vt -4 12.0001
vt -9 12.0001
vt 0 12.0001
vt -2.000055 12.00008
vt -14 12.0001
vt 4 12.0001
vt 2 8
vt 0 8
vt 2 12.0001
vt 0 12.0001
vt -16 12.0001
vt 0 13.00015
vt -2.000004 13.00002
vt -14 13.00015
vt -16 13.00015
vt 2.000001 13.00002
vt 0 13.00015
vt 1.999997 14.99997
vt -3.814697E-06 15.0001
vt 3.814697E-06 15.0001
vt -2 14.99997
vt -14 15.0001
vt -16 15.0001
vt 2.000001 12.00133
vt 8.739109E-08 13.00154
vt 2.000001 13.00141
vt 8.739048E-08 12.00145
vt 15.9999 14.99997
vt 14 13.00002
vt 14 14.99997
vt 15.99992 13.00003
vt 13.9999 11.99994
vt 15.99985 11.99996
vt 16.00005 12.00008
vt 16.00005 7.999953
vt 16.00005 8
vt 16.00005 4
vt 16.0002 -2
vt 14.0002 -8.999975
vt 14.0002 -2
vt 16.0002 -9
vt 16.00025 4.00005
vt 12.00025 2.00005
vt 12.00025 4.000059
vt 16.00025 4.95903E-05
vt 12.00025 4.005351E-05
vt 7.999665 4
vt 11.99967 3.99999
vt 11.99967 1.99999
vt 7.999665 -2.992824E-12
vt 11.99967 -9.536746E-06
vt 12 -16.99997
vt 12 -18.00001
vt 8 -18.00008
vt 8 -15.99998
vt 12 -15.99993
vt -15.99994 2
vt -16.99998 1.999995
vt -16.99999 4
vt -15.99995 4.00001
vt -15.99995 -4.768372E-06
vt -17 -4.768372E-06
vt -15.99996 2.000005
vt -17.00001 2
vt -18.00005 -4.768372E-06
vt -18.00005 1.999995
vt -18.00002 1.99999
vt -18.00002 3.99999
vt 12.00022 -9.536743E-06
vt 12.00022 1.99999
vt 14.00032 -4.768372E-06
vt 14.00032 1.999995
vt 12 -18.00002
vt 12 -16.99997
vt 14.0001 -18.00004
vt 14.0001 -17
vt 12 -15.99993
vt 14.0001 -15.99995
vt -12.0002 2.000099
vt -12.0002 8.964353E-05
vt -14.0003 2.000104
vt -14.0003 9.44119E-05
vn -1 0 0
vn -1 0 0
vn -1 0 0
vn -1 0 0
vn 1 0 0
vn 1 0 0
vn 1 0 0
vn 1 0 0
vn 0 0 1
vn 0 0 1
vn 0 0 1
vn 0 0 1
vn 4.501997E-11 1 -6.294243E-05
vn 9.003993E-11 1 -6.294248E-05
vn 4.501997E-11 1 -6.294243E-05
vn 0 1 -6.294239E-05
vn -1 0 0
vn -1 0 0
vn 0 0 1
vn 0 0 1
vn 1 1.907298E-06 -3.814731E-06
vn 1 0 -7.629462E-06
vn 0 0 1
vn 0 0 1
vn 0 0 1
vn 0 0 1
vn 0 0 -1
vn 0 0 -1
vn 0 0 -1
vn 0 0 -1
vn -5.00679E-05 1 2.813402E-05
vn -5.00679E-05 1 2.813402E-05
vn -5.00679E-05 1 2.813402E-05
vn -5.00679E-05 1 2.813402E-05
vn 0 0 1
vn 0 0 1
vn -1 0 0
vn -1 0 0
vn -1 0 0
vn -1 0 0
vn 1 -6.993524E-06 3.99635E-06
vn 1 -1.398705E-05 0
vn 1 -6.993524E-06 -3.9963E-06
vn 1 0 0
vn -8.344383E-06 1 -4.768382E-06
vn 0 1 -7.152557E-06
vn -8.344383E-06 1 -4.768382E-06
vn -1.668877E-05 1 -2.384205E-06
vn -1 -3.814749E-06 1.307913E-05
vn -1 -1.246145E-05 2.9085E-07
vn -1 -1.487737E-05 4.362842E-07
vn -1 -1.881954E-05 -1.525741E-06
vn -1 -1.525935E-05 2.543146E-06
vn -1 -1.907421E-05 3.814728E-06
vn -1 -1.52594E-05 9.822892E-11
vn 1 1.080824E-05 5.722043E-06
vn 1 8.900884E-06 7.629374E-06
vn 1 1.459215E-05 1.156506E-05
vn 1 1.525797E-05 9.808976E-06
vn 3.194666E-05 1.430579E-05 -1
vn 3.194666E-05 1.430579E-05 -1
vn 3.528419E-05 1.096823E-05 -1
vn 2.860913E-05 1.764334E-05 -1
vn -1.192097E-06 1 3.40598E-07
vn -1.192097E-06 1 3.40598E-07
vn 0 1 0
vn -2.384194E-06 1 6.81196E-07
vn 0 0 1
vn 0 0 1
vn 0 1 0
vn 0 1 0
vn 0 1 0
vn 0 1 0
vn 0 0 1
vn 0 0 -1
vn 0 0 -1
vn 0 0 -1
vn 0 0 -1
vn 2.384171E-06 1 -1.226158E-06
vn 4.768337E-07 1 -1.362388E-07
vn -7.152503E-07 1 6.130738E-07
vn -1.430501E-06 1 1.226148E-06
vn -7.152503E-07 1 6.130738E-07
vn 0 1 0
vn 0 0 1
vn 0 0 1
vn 0 0 -1
vn 0 0 -1
vn 0 0 -1
vn 0 0 -1
vn 0 1 0
vn 0 1 0
vn 1.07287E-05 1 1.406683E-05
vn -3.338134E-06 1 2.813367E-05
vn 1.07287E-05 1 1.406683E-05
vn 2.479553E-05 1 0
vn 0 0 1
vn 0 0 -1
vn 0 0 -1
vn 4.410781E-06 1.102673E-06 -1
vn 0 4.410736E-06 -1
vn 0 1 -1.77112E-06
vn -6.357858E-07 1 -1.498639E-06
vn -1.271557E-06 1 1.771098E-06
vn -6.357786E-07 1 1.498623E-06
vn -1.4305E-06 1 2.384166E-06
vn -7.152501E-07 1 2.077632E-06
vn 1 0 0
vn 1 0 0
vn 1 0 0
vn 1 0 0
vn 0 0 1
vn 0 0 1
vn 0 0 1
vn 0 0 1
vn -5.030459E-05 1 -6.437497E-06
vn -5.006596E-05 1 -6.198857E-06
vn -5.030459E-05 1 -6.437497E-06
vn -5.054321E-05 1 -6.676138E-06
vn -5.006685E-05 1 9.549202E-11
vn -5.006657E-05 1 3.819758E-10
vn -5.006685E-05 1 9.549202E-11
vn -5.006714E-05 1 -1.909917E-10
vn -5.00679E-05 1 2.833818E-05
vn -5.018676E-05 1 1.168909E-05
vn -5.006784E-05 1 2.833811E-05
vn -5.006763E-05 1 1.187962E-05
vn -5.054387E-05 1 -5.341046E-06
vn -5.030568E-05 1 -4.959921E-06
vn -1 2.07874E-12 8.719306E-06
vn 1 9.536266E-07 2.702391E-11
vn -1 -1.455078E-12 -1.220669E-05
vn -1 -1.455078E-12 -1.220669E-05
vn -1 0 -1.22067E-05
vn 1.764271E-05 0 -1
vn 1.764271E-05 0 -1
vn 1.764271E-05 0 -1
vn 1.764271E-05 0 -1
vn 1 4.768133E-07 2.365079E-05
vn -1 0 0
vn -1 0 0
vn 3.528474E-05 0 -1
vn 3.528474E-05 0 -1
vn 3.528474E-05 0 -1
vn 1 0 7.629431E-06
vn 1 0 7.629431E-06
vn -2.622534E-05 0 1
vn -2.622534E-05 0 1
vn -2.622534E-05 0 1
vn -2.622534E-05 0 1
vn 4.768372E-07 -5.960316E-07 -1
vn 9.536743E-07 0 -1
vn 0 0 1
vn 0 0 1
vn -1 0 0
vn -1 0 0
vn 0 0 1
vn 0 0 -1
vn 1 0 0
vn 1 0 0
vn 1 0 0
vn 1 0 0
vn 0 0 1
vn -1 0 0
vn -1 0 0
vn 0 0 1
vn 0 0 1
vn 1 0 0
vn 1 0 0
vn 1 0 0
vn 1 0 0
vn -1 0 0
vn -1 0 0
vn 0 -1.907397E-06 1
vn 0 -1.907397E-06 1
vn 1 9.917343E-05 -6.242221E-09
vn 1 9.917343E-05 -6.242221E-09
vn 1 9.917343E-05 -6.242221E-09
vn 1 9.917343E-05 -6.242221E-09
vn 2.384338E-07 1.668976E-06 -1
vn 2.384338E-07 1.668976E-06 -1
vn 4.768608E-07 1.907397E-06 -1
vn 6.821676E-12 1.430554E-06 -1
vn -2.384295E-07 -4.768181E-07 -1
vn -4.76859E-07 -9.536361E-07 -1
vn 3.719317E-05 4.768219E-06 -1
vn 4.911396E-05 1.07285E-05 -1
vn 2.503395E-05 0 -1
vn 2.503395E-05 0 -1
vn 5.00679E-05 1 0
vn 5.00679E-05 1 0
vn 5.00679E-05 1 0
vn 5.00679E-05 1 0
vn 1.394749E-05 -3.099427E-06 -1
vn 1.549721E-05 -4.132569E-06 -1
vn 1.239778E-05 -6.198853E-06 -1
vn 1.704692E-05 -3.099427E-06 -1
vn 1.859663E-05 -6.198853E-06 -1
vn -1.859665E-05 0 -1
vn -1.859665E-05 0 -1
vn -1.859665E-05 0 -1
vn -1.859665E-05 0 -1
vn -1.859665E-05 0 -1
vn -9.85286E-11 1 -6.357592E-06
vn -2.384363E-06 1 -9.536398E-06
vn -1.192182E-06 1 -4.768199E-06
vn 1.192034E-06 1 -4.76819E-06
vn 2.384068E-06 1 -9.536379E-06
vn -1 0 0
vn -1 0 0
vn -1 0 0
vn -1 0 0
vn -1 0 0
vn -1 0 0
vn -1 0 0
vn -1 0 0
vn -1 0 0
vn -1 0 0
vn -1 0 0
vn -1 0 0
vn 1.239715E-05 0 -1
vn 1.239715E-05 0 -1
vn 1.239715E-05 0 -1
vn 1.239715E-05 0 -1
vn 2.384127E-06 1 -4.768162E-06
vn 2.384127E-06 1 -4.768162E-06
vn 2.384127E-06 1 -4.768162E-06
vn 2.384127E-06 1 -4.768162E-06
vn 2.384127E-06 1 -4.768167E-06
vn 2.384127E-06 1 -4.768167E-06
vn -1.239714E-05 6.198853E-06 1
vn -1.239714E-05 6.198853E-06 1
vn -1.239714E-05 6.198853E-06 1
vn -1.239714E-05 6.198853E-06 1
g pb_Mesh264460_0
f 3/3/3 2/2/2 1/1/1
f 3/3/3 1/1/1 4/4/4
f 7/7/7 6/6/6 5/5/5
f 6/6/6 8/8/8 5/5/5
f 11/11/11 10/10/10 9/9/9
f 11/11/11 9/9/9 12/12/12
f 15/15/15 14/14/14 13/13/13
f 15/15/15 13/13/13 16/16/16
f 17/17/17 3/3/3 4/4/4
f 17/17/17 18/18/18 3/3/3
f 19/19/19 11/11/11 12/12/12
f 19/19/19 20/20/20 11/11/11
f 21/21/21 7/7/7 5/5/5
f 21/21/21 22/22/22 7/7/7
f 25/25/25 24/24/24 23/23/23
f 25/25/25 23/23/23 26/26/26
f 29/29/29 28/28/28 27/27/27
f 28/28/28 30/30/30 27/27/27
f 33/33/33 32/32/32 31/31/31
f 33/33/33 31/31/31 34/34/34
f 25/25/25 26/26/26 35/35/35
f 36/36/36 25/25/25 35/35/35
f 38/38/38 37/37/37 2/2/2
f 38/38/38 2/2/2 3/3/3
f 40/40/40 39/39/39 37/37/37
f 40/40/40 37/37/37 38/38/38
f 5/5/5 8/8/8 41/41/41
f 8/8/8 42/42/42 41/41/41
f 41/41/41 42/42/42 43/43/43
f 42/42/42 44/44/44 43/43/43
f 47/47/47 46/46/46 45/45/45
f 47/47/47 45/45/45 48/48/48
f 51/51/51 50/50/50 49/49/49
f 51/51/51 52/52/52 50/50/50
f 50/50/50 52/52/52 53/53/53
f 53/53/53 52/52/52 54/54/54
f 54/54/54 55/55/55 53/53/53
f 57/57/57 56/56/56 41/41/41
f 56/56/56 58/58/58 41/41/41
f 5/5/5 41/41/41 58/58/58
f 59/59/59 5/5/5 58/58/58
f 21/21/21 5/5/5 59/59/59
f 62/62/62 61/61/61 60/60/60
f 61/61/61 63/63/63 60/60/60
f 66/66/66 65/65/65 64/64/64
f 65/65/65 67/67/67 64/64/64
f 12/12/12 9/9/9 68/68/68
f 12/12/12 68/68/68 69/69/69
f 72/72/72 71/71/71 70/70/70
f 72/72/72 70/70/70 73/73/73
f 12/12/12 69/69/69 74/74/74
f 19/19/19 12/12/12 74/74/74
f 77/77/77 76/76/76 75/75/75
f 77/77/77 78/78/78 76/76/76
f 80/80/80 79/79/79 67/67/67
f 80/80/80 67/67/67 65/65/65
f 83/83/83 82/82/82 81/81/81
f 83/83/83 81/81/81 84/84/84
f 86/86/86 85/85/85 24/24/24
f 86/86/86 24/24/24 25/25/25
f 69/69/69 68/68/68 85/85/85
f 69/69/69 85/85/85 86/86/86
f 27/27/27 30/30/30 87/87/87
f 30/30/30 88/88/88 87/87/87
f 87/87/87 88/88/88 89/89/89
f 88/88/88 90/90/90 89/89/89
f 92/92/92 91/91/91 71/71/71
f 92/92/92 71/71/71 72/72/72
f 95/95/95 94/94/94 93/93/93
f 95/95/95 93/93/93 96/96/96
f 86/86/86 25/25/25 36/36/36
f 97/97/97 86/86/86 36/36/36
f 97/97/97 69/69/69 86/86/86
f 74/74/74 69/69/69 97/97/97
f 98/98/98 78/78/78 77/77/77
f 99/99/99 78/78/78 98/98/98
f 100/100/100 99/99/99 98/98/98
f 100/100/100 101/101/101 99/99/99
f 103/103/103 102/102/102 79/79/79
f 103/103/103 79/79/79 80/80/80
f 48/48/48 45/45/45 102/102/102
f 48/48/48 102/102/102 103/103/103
f 105/105/105 104/104/104 82/82/82
f 105/105/105 82/82/82 83/83/83
f 107/107/107 106/106/106 104/104/104
f 107/107/107 104/104/104 105/105/105
f 110/110/110 109/109/109 108/108/108
f 110/110/110 111/111/111 109/109/109
f 114/114/114 113/113/113 112/112/112
f 114/114/114 115/115/115 113/113/113
f 118/118/118 117/117/117 116/116/116
f 119/119/119 118/118/118 116/116/116
f 122/122/122 121/121/121 120/120/120
f 123/123/123 122/122/122 120/120/120
f 126/126/126 125/125/125 124/124/124
f 126/126/126 127/127/127 125/125/125
f 129/129/129 128/128/128 125/125/125
f 127/127/127 129/129/129 125/125/125
f 49/49/49 130/130/130 51/51/51
f 131/131/131 21/21/21 59/59/59
f 133/133/133 132/132/132 51/51/51
f 133/133/133 134/134/134 132/132/132
f 137/137/137 136/136/136 135/135/135
f 137/137/137 138/138/138 136/136/136
f 139/139/139 59/59/59 58/58/58
f 139/139/139 131/131/131 59/59/59
f 140/140/140 55/55/55 54/54/54
f 140/140/140 141/141/141 55/55/55
f 143/143/143 142/142/142 62/62/62
f 143/143/143 144/144/144 142/142/142
f 145/145/145 56/56/56 57/57/57
f 145/145/145 146/146/146 56/56/56
f 149/149/149 148/148/148 147/147/147
f 149/149/149 150/150/150 148/148/148
f 151/151/151 77/77/77 75/75/75
f 151/151/151 152/152/152 77/77/77
f 153/153/153 74/74/74 97/97/97
f 153/153/153 154/154/154 74/74/74
f 155/155/155 18/18/18 17/17/17
f 155/155/155 156/156/156 18/18/18
f 154/154/154 19/19/19 74/74/74
f 154/154/154 157/157/157 19/19/19
f 152/152/152 98/98/98 77/77/77
f 152/152/152 158/158/158 98/98/98
f 161/161/161 160/160/160 159/159/159
f 161/161/161 162/162/162 160/160/160
f 157/157/157 20/20/20 19/19/19
f 157/157/157 163/163/163 20/20/20
f 164/164/164 156/156/156 155/155/155
f 164/164/164 165/165/165 156/156/156
f 166/166/166 163/163/163 157/157/157
f 166/166/166 167/167/167 163/163/163
f 170/170/170 169/169/169 168/168/168
f 170/170/170 171/171/171 169/169/169
f 172/172/172 165/165/165 164/164/164
f 172/172/172 173/173/173 165/165/165
f 174/174/174 167/167/167 166/166/166
f 174/174/174 175/175/175 167/167/167
f 178/178/178 177/177/177 176/176/176
f 177/177/177 179/179/179 176/176/176
f 182/182/182 181/181/181 180/180/180
f 181/181/181 183/183/183 180/180/180
f 181/181/181 184/184/184 183/183/183
f 184/184/184 185/185/185 183/183/183
f 151/151/151 75/75/75 186/186/186
f 75/75/75 187/187/187 186/186/186
f 75/75/75 76/76/76 188/188/188
f 76/76/76 189/189/189 188/188/188
f 192/192/192 191/191/191 190/190/190
f 191/191/191 193/193/193 190/190/190
f 196/196/196 195/195/195 194/194/194
f 195/195/195 197/197/197 194/194/194
f 195/195/195 198/198/198 197/197/197
f 201/201/201 200/200/200 199/199/199
f 202/202/202 201/201/201 199/199/199
f 202/202/202 203/203/203 201/201/201
f 206/206/206 205/205/205 204/204/204
f 207/207/207 206/206/206 204/204/204
f 207/207/207 204/204/204 208/208/208
f 211/211/211 210/210/210 209/209/209
f 212/212/212 211/211/211 209/209/209
f 215/215/215 214/214/214 213/213/213
f 216/216/216 214/214/214 215/215/215
f 218/218/218 217/217/217 214/214/214
f 216/216/216 218/218/218 214/214/214
f 220/220/220 219/219/219 210/210/210
f 211/211/211 220/220/220 210/210/210
f 223/223/223 222/222/222 221/221/221
f 223/223/223 224/224/224 222/222/222
f 227/227/227 226/226/226 225/225/225
f 227/227/227 228/228/228 226/226/226
f 228/228/228 229/229/229 226/226/226
f 228/228/228 230/230/230 229/229/229
f 233/233/233 232/232/232 231/231/231
f 233/233/233 234/234/234 232/232/232
g pb_Mesh264460_1
