g pb_Mesh2883882
v 4.610752 0 -4.754853
v 4.300007 0 -3.324557
v 2.610752 0 -4.754853
v 2.651367 0.6809082 -2.803711
v 4 0 0
v 4.854553 0 2.064739
v 3.011841 0.4036741 0
v 3.04999 0.5552979 2.890238
v 4.854553 0 2.064739
v 2 0 4
v 3.04999 0.5552979 2.890238
v 4.521978 0 4.372644
v 2 0 4
v 4.854553 0 2.064739
v 2.610752 0 -4.754853
v 2.651367 0.6809082 -2.803711
v 0.5697021 0 -3.870522
v 0 0.4036741 -3.011839
v 1.351563 0.9032869 0.2984333
v 1.371445 0.7414198 1.371449
v 0.4675446 1.12478 0.4377022
v 0 0.9032869 1.371449
v 3.04999 0.5552979 2.890238
v 2 0 4
v 0 0.4036741 3.011839
v 0.2866125 0 4.089115
v -2.902915 0 -3.851131
v -4.875192 0 -2.193745
v -4.354805 0 -3.638172
v -2.164551 0.6540527 -2.080078
v -3.011841 0.4036741 0
v -1.920944 0.4036741 1.92094
v -4 0 0
v -4.789825 0 2.05179
v -1.920944 0.4036741 1.92094
v -2 0 4
v -4.789825 0 2.05179
v -3.391449 0 3.404402
v 3.011841 0.4036741 0
v 3.04999 0.5552979 2.890238
v 1.351563 0.9032869 0.2984333
v 1.371445 0.7414198 1.371449
v 3.04999 0.5552979 2.890238
v 0 0.4036741 3.011839
v 1.371445 0.7414198 1.371449
v 0 0.9032869 1.371449
v -1.920944 0.4036741 1.92094
v -3.011841 0.4036741 0
v -1.371445 0.7414198 1.371449
v -1.371445 0.9032869 0
v 0 0.4036741 -3.011839
v 2.651367 0.6809082 -2.803711
v 0 0.9032869 -1.371449
v 1.371445 0.7414198 -1.371449
v 4.300007 0 -3.324557
v 2.466393 0.4036741 -0.9604702
v 2.651367 0.6809082 -2.803711
v 15 0 -1.510062
v 15 0 -1.510062
v 3.011841 0.4036741 0
v 2.466393 0.4036741 -0.9604702
v 15 0 -1.510062
v 4 0 0
v 3.011841 0.4036741 0
v 0 0.9032869 -1.371449
v 1.371445 0.7414198 -1.371449
v 0.5172882 1.12478 -0.5663509
v 1.371445 0.9032869 -0.6857243
v 0.5172882 1.12478 -0.5663509
v 1.371445 0.9032869 -0.6857243
v 0.4675446 1.12478 0.4377022
v 1.351563 0.9032869 0.2984333
v -4.875192 0 -2.193745
v -2.466393 0.4036741 -0.9604702
v -7.236954 0 -1.064739
v -2.164551 0.6540527 -2.080078
v -7.236954 0 -1.064739
v -3.011841 0.4036741 0
v -4 0 0
v -2.466393 0.4036741 -0.9604702
v -2.466393 0.4036741 -0.9604702
v -1.371445 0.9032869 -0.6857243
v -1.371445 0.9032869 0
v -3.011841 0.4036741 0
v -2.466393 0.4036741 -0.9604702
v -2.164551 0.6540527 -2.080078
v -1.371445 0.7414198 -1.371449
v -1.371445 0.9032869 -0.6857243
v 1.371445 0.7414198 -1.371449
v 2.651367 0.6809082 -2.803711
v 2.466393 0.4036741 -0.9604702
v 1.371445 0.9032869 -0.6857243
v 1.351563 0.9032869 0.2984333
v 1.371445 0.9032869 -0.6857243
v 2.466393 0.4036741 -0.9604702
v 3.011841 0.4036741 0
v -1.025895 0 -9.500002
v 0.5697021 0 -3.870522
v 0 0.4036741 -3.011839
v -0.9604721 0.4036741 -2.46639
v -2.902915 0 -3.851131
v -1.025895 0 -9.500002
v -0.9604721 0.4036741 -2.46639
v -2.164551 0.6540527 -2.080078
v -0.68573 1.12478 0.5172844
v 0.4675446 1.12478 0.4377022
v 0 0.9032869 1.371449
v -0.6857224 0.9032869 1.371449
v -1.371445 0.9032869 0
v -0.68573 1.12478 0.5172844
v -0.6857224 0.9032869 1.371449
v -1.371445 0.7414198 1.371449
v -1.831584 0 6.542797
v -0.9604721 0.4036741 2.46639
v 0 0.4036741 3.011839
v 0.2866125 0 4.089115
v -2 0 4
v -1.920944 0.4036741 1.92094
v -0.9604721 0.4036741 2.46639
v -1.831584 0 6.542797
v -0.6857224 0.9032869 1.371449
v 0 0.9032869 1.371449
v -0.9604721 0.4036741 2.46639
v 0 0.4036741 3.011839
v -1.920944 0.4036741 1.92094
v -1.371445 0.7414198 1.371449
v -0.9604721 0.4036741 2.46639
v -0.6857224 0.9032869 1.371449
v -0.9604721 0.4036741 -2.46639
v -1.371445 0.7414198 -1.371449
v -2.164551 0.6540527 -2.080078
v -0.6857224 0.9032869 -1.371449
v -0.9604721 0.4036741 -2.46639
v 0 0.4036741 -3.011839
v 0 0.9032869 -1.371449
v -0.6857224 0.9032869 -1.371449
v -1.371445 0.7414198 -1.371449
v -0.6857224 0.9032869 -1.371449
v -0.4967194 1.12478 -0.4569263
v -1.371445 0.9032869 -0.6857243
v -0.6857224 0.9032869 -1.371449
v 0 0.9032869 -1.371449
v 0.5172882 1.12478 -0.5663509
v -0.4967194 1.12478 -0.4569263
v -1.371445 0.9032869 -0.6857243
v -0.4967194 1.12478 -0.4569263
v -0.68573 1.12478 0.5172844
v -1.371445 0.9032869 0
v -0.4967194 1.12478 -0.4569263
v 0.5172882 1.12478 -0.5663509
v 0.4675446 1.12478 0.4377022
v -0.68573 1.12478 0.5172844
vt -4.610752 -4.754853
vt -4.300007 -3.324557
vt -2.610752 -4.754853
vt -2.651367 -2.803711
vt -3.70294 0.2339158
vt -4.494029 2.323793
vt -2.635507 0.2339158
vt -2.613483 3.113325
vt 2.859541 -2.261527
vt -0.5891848 -2.261527
vt 0.9026504 -1.615901
vt 1.289178 -3.140832
vt -0.5891848 -2.261527
vt 2.859541 -2.261527
vt -2.581924 -4.624175
vt -2.722999 -2.562055
vt -0.5634114 -3.689544
vt -0.05982331 -2.72055
vt -1.065363 0.1245466
vt -1.127246 1.208119
vt -0.1542304 0.2651857
vt 0.2383128 1.236761
vt -3.065699 2.418557
vt -1.999044 3.6452
vt -0.01247968 2.552965
vt -0.2864755 3.703257
vt 2.902915 -3.851131
vt 4.875192 -2.193745
vt 4.354805 -3.638172
vt 2.164551 -2.080078
vt 2.635507 -0.3176285
vt 1.625626 1.647113
vt 3.70294 -0.3176285
vt 4.434108 1.625703
vt 1.851546 1.767921
vt 1.98278 3.883215
vt 4.748584 1.901052
vt 3.362248 3.26424
vt -2.779319 0.06632217
vt -2.773612 2.960781
vt -1.045573 0.3651912
vt -1.109863 1.428551
vt -3.071002 2.778445
vt -0.01731588 2.901787
vt -1.401986 1.237905
vt -0.03874711 1.200976
vt 1.6411 1.662394
vt 2.656743 -0.2993748
vt 1.006237 1.101223
vt 0.9471598 -0.2722686
vt -0.03245274 -2.765076
vt -2.697526 -2.547568
vt -0.07261833 -1.05076
vt -1.426611 -1.129657
vt -3.883184 -3.597875
vt -2.053932 -1.196243
vt -2.101903 -3.068757
vt -13.54597 -2.621191
vt -14.9926 -1.501419
vt -2.997676 0.008882868
vt -2.452497 -0.9517401
vt -14.9926 -1.501419
vt -3.998027 0.002240665
vt -2.997676 0.008882868
vt 0.1058771 -0.9998134
vt -1.275087 -0.9998134
vt -0.3818834 -0.1472186
vt -1.256114 -0.299385
vt -0.2163326 -0.5815633
vt -1.098738 -0.700946
vt -0.1682027 0.4225685
vt -1.079501 0.2831974
vt 4.859309 -2.097754
vt 2.425799 -0.8470494
vt 7.213377 -0.952792
vt 2.104747 -1.913584
vt -7.207291 -0.7593326
vt -2.861038 -0.2511128
vt -3.79972 -0.7593326
vt -2.643012 0.4067369
vt 2.076273 -0.9604702
vt 0.8727264 -0.6857243
vt 0.8727264 0
vt 2.572504 0
vt 2.295035 -1.097936
vt 1.941512 -2.230341
vt 1.150876 -1.513612
vt 1.111648 -0.8591799
vt -1.157733 -1.526919
vt -2.415783 -2.979692
vt -2.30146 -1.110055
vt -1.119533 -0.8772136
vt -0.8519782 0.2867636
vt -0.8700505 -0.6974289
vt -2.073595 -0.9721845
vt -2.56939 -0.01366326
vt 0.9188807 -9.482478
vt -0.5102749 -3.80846
vt 0.1795077 -2.942983
vt 1.03979 -2.455225
vt 2.862788 -3.818865
vt 1.011714 -9.476291
vt 0.8803086 -2.432026
vt 2.026257 -2.021757
vt 0.7046988 0.2368218
vt -0.44841 0.1548734
vt 0.01531259 1.116383
vt 0.7009364 1.119156
vt 0.8015825 -0.3215244
vt 0.0908896 0.2092886
vt 0.192857 1.085792
vt 0.8761053 1.047205
vt 1.829285 6.509436
vt 0.9390473 2.417204
vt -0.02021922 2.964771
vt -0.2862528 4.074564
vt 1.988451 3.890596
vt 1.866534 1.774744
vt 0.9116077 2.329846
vt 1.821008 6.392532
vt 0.6857224 0.8727267
vt 0 0.8727267
vt 0.9604721 2.076267
vt 0 2.572499
vt 1.787319 1.504077
vt 1.177556 0.9157295
vt 0.8497987 2.088095
vt 0.4730451 0.9125179
vt 1.002819 -2.315963
vt 1.452201 -1.184626
vt 2.228547 -1.916811
vt 0.7915844 -1.122995
vt 0.87762 -2.200907
vt -0.06879959 -2.770391
vt -0.1539503 -1.05772
vt 0.5217394 -1.024126
vt 1.164428 -1.156008
vt 0.45986 -1.156008
vt 0.2250268 -0.2254246
vt 1.127241 -0.4529762
vt 0.6857224 -1.082716
vt 0 -1.082716
vt -0.5172882 -0.2477064
vt 0.4967194 -0.1422016
vt 1.121657 -0.6305544
vt 0.2193843 -0.4015203
vt 0.4031346 0.5736963
vt 1.121657 0.05446255
vt 0.4967194 -0.4569263
vt -0.5172882 -0.5663509
vt -0.4675446 0.4377022
vt 0.68573 0.5172844
vn 0 1 0
vn 0.1363444 0.9532986 -0.1610299
vn 0.1363444 0.9532986 -0.1610299
vn 0.2726889 0.9065971 -0.3220599
vn 0.3736243 0.9145998 -0.1546354
vn 0.3223293 0.937827 -0.1043152
vn 0.3223293 0.937827 -0.1043152
vn 0.2710342 0.9610541 -0.05399495
vn 0.2413213 0.7550697 0.3559543
vn 0.2413213 0.7550697 0.3559543
vn 0.4826426 0.5101393 0.7119087
vn 0 1 0
vn 0.2413213 0.7550697 0.3559543
vn 0.2413213 0.7550697 0.3559543
vn -0.1402215 0.9357347 -0.3236331
vn -0.09867686 0.9120574 -0.3895866
vn -0.09867686 0.9120574 -0.3895866
vn -0.05713225 0.8883801 -0.4555402
vn 0.2612581 0.9551722 0.1392493
vn 0.1868519 0.9539434 0.2107726
vn 0.1868519 0.9539434 0.2107726
vn 0.1124458 0.9527146 0.2822959
vn -0.02796947 0.9042823 0.4260179
vn -0.004970567 0.9210564 0.3863214
vn -0.004970567 0.9210564 0.3863214
vn 0.01802834 0.9378306 0.3466249
vn -0.1082138 0.9708579 -0.1287735
vn -0.1082138 0.9708579 -0.1287735
vn 0 1 0
vn -0.2164275 0.9417158 -0.257547
vn -0.3697424 0.9050971 0.2099756
vn -0.2556537 0.9467625 0.07774046
vn -0.2556537 0.9467625 0.07774046
vn -0.1415651 0.9884279 -0.0544947
vn -0.1287009 0.9744075 0.184299
vn -0.06435045 0.9872037 0.09214948
vn -0.06435045 0.9872037 0.09214948
vn 0 1 0
vn 0.2788271 0.958823 -0.05398076
vn 0.1265399 0.9736185 0.04780058
vn 0.1265399 0.9736185 0.04780058
vn -0.02574726 0.988414 0.1495819
vn -0.04229007 0.9849743 0.1674432
vn 0.03495161 0.9677747 0.2284797
vn 0.03495161 0.9677747 0.2284797
vn 0.1121933 0.9505752 0.2895162
vn -0.3573804 0.9116405 0.2029553
vn -0.3234478 0.931108 0.1575741
vn -0.3234478 0.931108 0.1575741
vn -0.2895152 0.9505755 0.112193
vn -0.07692664 0.9537802 -0.2904923
vn 0.02002808 0.9724675 -0.1139137
vn 0.02002808 0.9724675 -0.1139137
vn 0.1169828 0.991155 0.06266487
vn 0.2240428 0.9387176 0.0134818
vn 0.2240428 0.9387176 0.0134818
vn 0.42279 0.8889469 0.176131
vn 0.02529567 0.9884884 -0.1491674
vn 0.08022189 0.6576126 0.4610749
vn 0.08022189 0.6576126 0.4610749
vn 0.03140429 0.9993477 -0.01783441
vn 0.08022189 0.6576126 0.4610749
vn 0.1290395 0.3158774 0.9399842
vn 0.08022189 0.6576126 0.4610749
vn 0.1106833 0.9377818 -0.3291117
vn 0.1628975 0.9441249 -0.2767362
vn 0.1628975 0.9441249 -0.2767362
vn 0.2151117 0.9504679 -0.2243606
vn 0.2526287 0.9674824 0.01251594
vn 0.2481978 0.9686519 0.008720292
vn 0.2481978 0.9686519 0.008720292
vn 0.2437669 0.9698214 0.00492464
vn -0.1586886 0.9712141 -0.00795047
vn -0.1586886 0.9712141 -0.00795047
vn -0.07953035 0.9828511 -0.1663692
vn -0.2378468 0.9595771 0.1504683
vn -0.1656916 0.8014754 0.3536365
vn -0.1656916 0.8014754 0.3536365
vn -0.2481862 0.6075383 0.7545202
vn -0.08319689 0.9954125 -0.04724727
vn -0.3512819 0.9267757 -0.08162005
vn -0.4151172 0.9097679 0
vn -0.3512819 0.9267757 -0.08162005
vn -0.2874466 0.9437834 -0.1632401
vn -0.3000359 0.933525 -0.03219057
vn -0.2396121 0.9592247 0.1499136
vn -0.3000359 0.933525 -0.03219057
vn -0.3604597 0.9078252 -0.2142947
vn 0.2965626 0.9329298 -0.02342606
vn 0.2326656 0.9580343 0.1674426
vn 0.2965626 0.9329298 -0.02342606
vn 0.3604597 0.9078252 -0.2142947
vn 0.3386791 0.9315029 -0.06976005
vn 0.4168507 0.908936 0.008421324
vn 0.3386791 0.9315029 -0.06976005
vn 0.2605074 0.9540699 -0.1479414
vn 0.2044211 0.9432541 -0.09100908
vn 0.441194 0.8886565 -0.1250502
vn 0.2044211 0.9432541 -0.09100908
vn -0.03235192 0.9978517 -0.05696794
vn -0.04621803 0.954991 -0.2135628
vn -0.1654447 0.9846857 -0.05497436
vn -0.04621803 0.954991 -0.2135628
vn 0.07300863 0.9252964 -0.3721512
vn 0.008231295 0.9694855 0.2447886
vn 0.01646259 0.9709859 0.2385695
vn 0.008231295 0.9694855 0.2447886
vn 0 0.9679851 0.2510076
vn -0.3384498 0.9159917 0.1692244
vn -0.4486609 0.8650894 0.2243298
vn -0.3384498 0.9159917 0.1692244
vn -0.2282387 0.966894 0.114119
vn 0.1269993 0.9553785 0.1751002
vn -0.04989428 0.9948827 0.08785798
vn 0.1269993 0.9553785 0.1751002
vn 0.3038929 0.9158742 0.2623424
vn -0.2194337 0.9597279 0.103879
vn -0.105444 0.9769374 0.1856745
vn -0.2194337 0.9597279 0.103879
vn -0.3334233 0.9425185 0.02208349
vn 0 0.909767 0.4151193
vn -0.08162029 0.926775 0.3512834
vn -0.08162029 0.926775 0.3512834
vn -0.1632406 0.943783 0.2874475
vn -0.2029559 0.9116399 0.3573816
vn -0.2086256 0.9097323 0.3589212
vn -0.2086256 0.9097323 0.3589212
vn -0.2142952 0.9078247 0.3604608
vn -0.04764698 0.9341553 -0.3060334
vn -0.04764698 0.9341553 -0.3060334
vn 0.1190012 0.9604859 -0.251606
vn -0.2142952 0.9078247 -0.3604608
vn -0.08162029 0.926775 -0.3512834
vn -0.1632406 0.943783 -0.2874475
vn -0.08162029 0.926775 -0.3512834
vn 0 0.909767 -0.4151193
vn -0.2044851 0.956618 -0.2054195
vn -0.2257744 0.9564546 -0.1849881
vn -0.2044851 0.956618 -0.2054195
vn -0.1831957 0.9567814 -0.2258509
vn -0.01243476 0.9684709 -0.2478583
vn 0 0.9641775 -0.2652577
vn -0.01243476 0.9684709 -0.2478583
vn -0.02486951 0.9727642 -0.2304589
vn -0.2707047 0.9613781 -0.02270318
vn -0.2340364 0.971167 -0.04540637
vn -0.2707047 0.9613781 -0.02270318
vn -0.3073729 0.9515892 0
vn 0 1 0
vn 0 1 0
vn 0 1 0
vn 0 1 0
g pb_Mesh2883882_0
f 3/3/3 2/2/2 1/1/1
f 3/3/3 4/4/4 2/2/2
f 7/7/7 6/6/6 5/5/5
f 7/7/7 8/8/8 6/6/6
f 11/11/11 10/10/10 9/9/9
f 14/14/14 13/13/13 12/12/12
f 17/17/17 16/16/16 15/15/15
f 17/17/17 18/18/18 16/16/16
f 21/21/21 20/20/20 19/19/19
f 21/21/21 22/22/22 20/20/20
f 25/25/25 24/24/24 23/23/23
f 25/25/25 26/26/26 24/24/24
f 29/29/29 28/28/28 27/27/27
f 27/27/27 28/28/28 30/30/30
f 33/33/33 32/32/32 31/31/31
f 33/33/33 34/34/34 32/32/32
f 37/37/37 36/36/36 35/35/35
f 37/37/37 38/38/38 36/36/36
f 41/41/41 40/40/40 39/39/39
f 41/41/41 42/42/42 40/40/40
f 45/45/45 44/44/44 43/43/43
f 45/45/45 46/46/46 44/44/44
f 49/49/49 48/48/48 47/47/47
f 49/49/49 50/50/50 48/48/48
f 53/53/53 52/52/52 51/51/51
f 53/53/53 54/54/54 52/52/52
f 57/57/57 56/56/56 55/55/55
f 56/56/56 58/58/58 55/55/55
f 61/61/61 60/60/60 59/59/59
f 64/64/64 63/63/63 62/62/62
f 67/67/67 66/66/66 65/65/65
f 67/67/67 68/68/68 66/66/66
f 71/71/71 70/70/70 69/69/69
f 71/71/71 72/72/72 70/70/70
f 75/75/75 74/74/74 73/73/73
f 74/74/74 76/76/76 73/73/73
f 79/79/79 78/78/78 77/77/77
f 78/78/78 80/80/80 77/77/77
f 83/83/83 82/82/82 81/81/81
f 83/83/83 81/81/81 84/84/84
f 87/87/87 86/86/86 85/85/85
f 88/88/88 87/87/87 85/85/85
f 91/91/91 90/90/90 89/89/89
f 91/91/91 89/89/89 92/92/92
f 95/95/95 94/94/94 93/93/93
f 96/96/96 95/95/95 93/93/93
f 99/99/99 98/98/98 97/97/97
f 100/100/100 99/99/99 97/97/97
f 103/103/103 102/102/102 101/101/101
f 104/104/104 103/103/103 101/101/101
f 107/107/107 106/106/106 105/105/105
f 107/107/107 105/105/105 108/108/108
f 111/111/111 110/110/110 109/109/109
f 111/111/111 109/109/109 112/112/112
f 115/115/115 114/114/114 113/113/113
f 116/116/116 115/115/115 113/113/113
f 119/119/119 118/118/118 117/117/117
f 120/120/120 119/119/119 117/117/117
f 123/123/123 122/122/122 121/121/121
f 123/123/123 124/124/124 122/122/122
f 127/127/127 126/126/126 125/125/125
f 127/127/127 128/128/128 126/126/126
f 131/131/131 130/130/130 129/129/129
f 130/130/130 132/132/132 129/129/129
f 135/135/135 134/134/134 133/133/133
f 136/136/136 135/135/135 133/133/133
f 139/139/139 138/138/138 137/137/137
f 139/139/139 137/137/137 140/140/140
f 143/143/143 142/142/142 141/141/141
f 143/143/143 141/141/141 144/144/144
f 147/147/147 146/146/146 145/145/145
f 147/147/147 145/145/145 148/148/148
f 151/151/151 150/150/150 149/149/149
f 151/151/151 149/149/149 152/152/152
