g pb_Mesh436860
v 0 0 0
v 4 0 0
v 0 0.25 0
v 4 0.25 0
v 0 0.25 0
v 4 0.25 0
v 0 0.25 0.5
v 4 0.25 0.5
v 0 0.25 0.5
v 4 0.25 0.5
v 0 0.5 0.5
v 4 0.5 0.5
v 0 0.5 0.5
v 4 0.5 0.5
v 0 0.5 1
v 4 0.5 1
v 0 0.5 1
v 4 0.5 1
v 0 0.75 1
v 4 0.75 1
v 0 0.75 1
v 4 0.75 1
v 0 0.75 1.5
v 4 0.75 1.5
v 0 0.75 1.5
v 4 0.75 1.5
v 0 1 1.5
v 4 1 1.5
v 0 1 1.5
v 4 1 1.5
v 0 1 2
v 4 1 2
v 0 1 2
v 4 1 2
v 0 1.25 2
v 4 1.25 2
v 0 1.25 2
v 4 1.25 2
v 0 1.25 2.5
v 4 1.25 2.5
v 0 1.25 2.5
v 4 1.25 2.5
v 0 1.5 2.5
v 4 1.5 2.5
v 0 1.5 2.5
v 4 1.5 2.5
v 0 1.5 3
v 4 1.5 3
v 0 1.5 3
v 4 1.5 3
v 0 1.75 3
v 4 1.75 3
v 0 1.75 3
v 4 1.75 3
v 0 1.75 3.5
v 4 1.75 3.5
v 0 1.75 3.5
v 4 1.75 3.5
v 0 2 3.5
v 4 2 3.5
v 0 2 3.5
v 4 2 3.5
v 0 2 4
v 4 2 4
v 0 2 4
v 4 2 4
v 0 2.25 4
v 4 2.25 4
v 0 2.25 4
v 4 2.25 4
v 0 2.25 4.5
v 4 2.25 4.5
v 0 2.25 4.5
v 4 2.25 4.5
v 0 2.5 4.5
v 4 2.5 4.5
v 0 2.5 4.5
v 4 2.5 4.5
v 0 2.5 5
v 4 2.5 5
v 0 2.5 5
v 4 2.5 5
v 0 2.75 5
v 4 2.75 5
v 0 2.75 5
v 4 2.75 5
v 0 2.75 5.5
v 4 2.75 5.5
v 0 2.75 5.5
v 4 2.75 5.5
v 0 3 5.5
v 4 3 5.5
v 0 3 5.5
v 4 3 5.5
v 0 3 6
v 4 3 6
v 4 0 0
v 4 0 0.5
v 4 0.25 0
v 4 0.25 0.5
v 4 0 0.5
v 4 0 1
v 4 0.25 0.5
v 4 0.5 1
v 4 0.25 0.5
v 4 0.5 0.5
v 4 0.5 1
v 4 0 1
v 4 0 1.5
v 4 0.5 1
v 4 0.75 1.5
v 4 0.5 1
v 4 0.75 1
v 4 0.75 1.5
v 4 0 1.5
v 4 0 2
v 4 0.75 1.5
v 4 1 2
v 4 0.75 1.5
v 4 1 1.5
v 4 1 2
v 4 0 2
v 4 0 2.5
v 4 1 2
v 4 1.25 2.5
v 4 1 2
v 4 1.25 2
v 4 1.25 2.5
v 4 0 2.5
v 4 0 3
v 4 1.25 2.5
v 4 1.5 3
v 4 1.25 2.5
v 4 1.5 2.5
v 4 1.5 3
v 4 0 3
v 4 0 3.5
v 4 1.5 3
v 4 1.75 3.5
v 4 1.5 3
v 4 1.75 3
v 4 1.75 3.5
v 4 0 3.5
v 4 0 4
v 4 1.75 3.5
v 4 2 4
v 4 1.75 3.5
v 4 2 3.5
v 4 2 4
v 4 0 4
v 4 0 4.5
v 4 2 4
v 4 2.25 4.5
v 4 2 4
v 4 2.25 4
v 4 2.25 4.5
v 4 0 4.5
v 4 0 5
v 4 2.25 4.5
v 4 2.5 5
v 4 2.25 4.5
v 4 2.5 4.5
v 4 2.5 5
v 4 0 5
v 4 0 5.5
v 4 2.5 5
v 4 2.75 5.5
v 4 2.5 5
v 4 2.75 5
v 4 2.75 5.5
v 4 0 5.5
v 4 0 6
v 4 2.75 5.5
v 4 3 6
v 4 2.75 5.5
v 4 3 5.5
v 4 3 6
v 0 0 0
v 0 0 0.5
v 0 0.25 0
v 0 0.25 0.5
v 0 0 0.5
v 0 0 1
v 0 0.25 0.5
v 0 0.5 1
v 0 0.25 0.5
v 0 0.5 0.5
v 0 0.5 1
v 0 0 1
v 0 0 1.5
v 0 0.5 1
v 0 0.75 1.5
v 0 0.5 1
v 0 0.75 1
v 0 0.75 1.5
v 0 0 1.5
v 0 0 2
v 0 0.75 1.5
v 0 1 2
v 0 0.75 1.5
v 0 1 1.5
v 0 1 2
v 0 0 2
v 0 0 2.5
v 0 1 2
v 0 1.25 2.5
v 0 1 2
v 0 1.25 2
v 0 1.25 2.5
v 0 0 2.5
v 0 0 3
v 0 1.25 2.5
v 0 1.5 3
v 0 1.25 2.5
v 0 1.5 2.5
v 0 1.5 3
v 0 0 3
v 0 0 3.5
v 0 1.5 3
v 0 1.75 3.5
v 0 1.5 3
v 0 1.75 3
v 0 1.75 3.5
v 0 0 3.5
v 0 0 4
v 0 1.75 3.5
v 0 2 4
v 0 1.75 3.5
v 0 2 3.5
v 0 2 4
v 0 0 4
v 0 0 4.5
v 0 2 4
v 0 2.25 4.5
v 0 2 4
v 0 2.25 4
v 0 2.25 4.5
v 0 0 4.5
v 0 0 5
v 0 2.25 4.5
v 0 2.5 5
v 0 2.25 4.5
v 0 2.5 4.5
v 0 2.5 5
v 0 0 5
v 0 0 5.5
v 0 2.5 5
v 0 2.75 5.5
v 0 2.5 5
v 0 2.75 5
v 0 2.75 5.5
v 0 0 5.5
v 0 0 6
v 0 2.75 5.5
v 0 3 6
v 0 2.75 5.5
v 0 3 5.5
v 0 3 6
v 4 0 6
v 0 0 6
v 4 3 6
v 0 3 6
vt 0 0
vt -4 0
vt 0 0.25
vt -4 0.25
vt 0 0
vt -4 0
vt 0 0.5
vt -4 0.5
vt 0 0.25
vt -4 0.25
vt 0 0.5
vt -4 0.5
vt 0 0.5
vt -4 0.5
vt 0 1
vt -4 1
vt 0 0.5
vt -4 0.5
vt 0 0.75
vt -4 0.75
vt 0 1
vt -4 1
vt 0 1.5
vt -4 1.5
vt 0 0.75
vt -4 0.75
vt 0 1
vt -4 1
vt 0 1.5
vt -4 1.5
vt 0 2
vt -4 2
vt 0 1
vt -4 1
vt 0 1.25
vt -4 1.25
vt 0 2
vt -4 2
vt 0 2.5
vt -4 2.5
vt 0 1.25
vt -4 1.25
vt 0 1.5
vt -4 1.5
vt 0 2.5
vt -4 2.5
vt 0 3
vt -4 3
vt 0 1.5
vt -4 1.5
vt 0 1.75
vt -4 1.75
vt 0 3
vt -4 3
vt 0 3.5
vt -4 3.5
vt 0 1.75
vt -4 1.75
vt 0 2
vt -4 2
vt 0 3.5
vt -4 3.5
vt 0 4
vt -4 4
vt 0 2
vt -4 2
vt 0 2.25
vt -4 2.25
vt 0 4
vt -4 4
vt 0 4.5
vt -4 4.5
vt 0 2.25
vt -4 2.25
vt 0 2.5
vt -4 2.5
vt 0 4.5
vt -4 4.5
vt 0 5
vt -4 5
vt 0 2.5
vt -4 2.5
vt 0 2.75
vt -4 2.75
vt 0 5
vt -4 5
vt 0 5.5
vt -4 5.5
vt 0 2.75
vt -4 2.75
vt 0 3
vt -4 3
vt 0 5.5
vt -4 5.5
vt 0 6
vt -4 6
vt 0 0
vt -0.5 0
vt 0 0.25
vt -0.5 0.25
vt -0.5 0
vt -1 0
vt -0.5 0.25
vt -1 0.5
vt -0.5 0.25
vt -0.5 0.5
vt -1 0.5
vt -1 0
vt -1.5 0
vt -1 0.5
vt -1.5 0.75
vt -1 0.5
vt -1 0.75
vt -1.5 0.75
vt -1.5 0
vt -2 0
vt -1.5 0.75
vt -2 1
vt -1.5 0.75
vt -1.5 1
vt -2 1
vt -2 0
vt -2.5 0
vt -2 1
vt -2.5 1.25
vt -2 1
vt -2 1.25
vt -2.5 1.25
vt -2.5 0
vt -3 0
vt -2.5 1.25
vt -3 1.5
vt -2.5 1.25
vt -2.5 1.5
vt -3 1.5
vt -3 0
vt -3.5 0
vt -3 1.5
vt -3.5 1.75
vt -3 1.5
vt -3 1.75
vt -3.5 1.75
vt -3.5 0
vt -4 0
vt -3.5 1.75
vt -4 2
vt -3.5 1.75
vt -3.5 2
vt -4 2
vt -4 0
vt -4.5 0
vt -4 2
vt -4.5 2.25
vt -4 2
vt -4 2.25
vt -4.5 2.25
vt -4.5 0
vt -5 0
vt -4.5 2.25
vt -5 2.5
vt -4.5 2.25
vt -4.5 2.5
vt -5 2.5
vt -5 0
vt -5.5 0
vt -5 2.5
vt -5.5 2.75
vt -5 2.5
vt -5 2.75
vt -5.5 2.75
vt -5.5 0
vt -6 0
vt -5.5 2.75
vt -6 3
vt -5.5 2.75
vt -5.5 3
vt -6 3
vt 0 0
vt 0.5 0
vt 0 0.25
vt 0.5 0.25
vt 0.5 0
vt 1 0
vt 0.5 0.25
vt 1 0.5
vt 0.5 0.25
vt 0.5 0.5
vt 1 0.5
vt 1 0
vt 1.5 0
vt 1 0.5
vt 1.5 0.75
vt 1 0.5
vt 1 0.75
vt 1.5 0.75
vt 1.5 0
vt 2 0
vt 1.5 0.75
vt 2 1
vt 1.5 0.75
vt 1.5 1
vt 2 1
vt 2 0
vt 2.5 0
vt 2 1
vt 2.5 1.25
vt 2 1
vt 2 1.25
vt 2.5 1.25
vt 2.5 0
vt 3 0
vt 2.5 1.25
vt 3 1.5
vt 2.5 1.25
vt 2.5 1.5
vt 3 1.5
vt 3 0
vt 3.5 0
vt 3 1.5
vt 3.5 1.75
vt 3 1.5
vt 3 1.75
vt 3.5 1.75
vt 3.5 0
vt 4 0
vt 3.5 1.75
vt 4 2
vt 3.5 1.75
vt 3.5 2
vt 4 2
vt 4 0
vt 4.5 0
vt 4 2
vt 4.5 2.25
vt 4 2
vt 4 2.25
vt 4.5 2.25
vt 4.5 0
vt 5 0
vt 4.5 2.25
vt 5 2.5
vt 4.5 2.25
vt 4.5 2.5
vt 5 2.5
vt 5 0
vt 5.5 0
vt 5 2.5
vt 5.5 2.75
vt 5 2.5
vt 5 2.75
vt 5.5 2.75
vt 5.5 0
vt 6 0
vt 5.5 2.75
vt 6 3
vt 5.5 2.75
vt 5.5 3
vt 6 3
vt 4 0
vt 0 0
vt 4 3
vt 0 3
vn 0 0 -1
vn 0 0 -1
vn 0 0 -1
vn 0 0 -1
vn 0 1 0
vn 0 1 0
vn 0 1 0
vn 0 1 0
vn 0 0 -1
vn 0 0 -1
vn 0 0 -1
vn 0 0 -1
vn 0 1 0
vn 0 1 0
vn 0 1 0
vn 0 1 0
vn 0 0 -1
vn 0 0 -1
vn 0 0 -1
vn 0 0 -1
vn 0 1 0
vn 0 1 0
vn 0 1 0
vn 0 1 0
vn 0 0 -1
vn 0 0 -1
vn 0 0 -1
vn 0 0 -1
vn 0 1 0
vn 0 1 0
vn 0 1 0
vn 0 1 0
vn 0 0 -1
vn 0 0 -1
vn 0 0 -1
vn 0 0 -1
vn 0 1 0
vn 0 1 0
vn 0 1 0
vn 0 1 0
vn 0 0 -1
vn 0 0 -1
vn 0 0 -1
vn 0 0 -1
vn 0 1 0
vn 0 1 0
vn 0 1 0
vn 0 1 0
vn 0 0 -1
vn 0 0 -1
vn 0 0 -1
vn 0 0 -1
vn 0 1 0
vn 0 1 0
vn 0 1 0
vn 0 1 0
vn 0 0 -1
vn 0 0 -1
vn 0 0 -1
vn 0 0 -1
vn 0 1 0
vn 0 1 0
vn 0 1 0
vn 0 1 0
vn 0 0 -1
vn 0 0 -1
vn 0 0 -1
vn 0 0 -1
vn 0 1 0
vn 0 1 0
vn 0 1 0
vn 0 1 0
vn 0 0 -1
vn 0 0 -1
vn 0 0 -1
vn 0 0 -1
vn 0 1 0
vn 0 1 0
vn 0 1 0
vn 0 1 0
vn 0 0 -1
vn 0 0 -1
vn 0 0 -1
vn 0 0 -1
vn 0 1 0
vn 0 1 0
vn 0 1 0
vn 0 1 0
vn 0 0 -1
vn 0 0 -1
vn 0 0 -1
vn 0 0 -1
vn 0 1 0
vn 0 1 0
vn 0 1 0
vn 0 1 0
vn 1 0 0
vn 1 0 0
vn 1 0 0
vn 1 0 0
vn 1 0 0
vn 1 0 0
vn 1 0 0
vn 1 0 0
vn 1 0 0
vn 1 0 0
vn 1 0 0
vn 1 0 0
vn 1 0 0
vn 1 0 0
vn 1 0 0
vn 1 0 0
vn 1 0 0
vn 1 0 0
vn 1 0 0
vn 1 0 0
vn 1 0 0
vn 1 0 0
vn 1 0 0
vn 1 0 0
vn 1 0 0
vn 1 0 0
vn 1 0 0
vn 1 0 0
vn 1 0 0
vn 1 0 0
vn 1 0 0
vn 1 0 0
vn 1 0 0
vn 1 0 0
vn 1 0 0
vn 1 0 0
vn 1 0 0
vn 1 0 0
vn 1 0 0
vn 1 0 0
vn 1 0 0
vn 1 0 0
vn 1 0 0
vn 1 0 0
vn 1 0 0
vn 1 0 0
vn 1 0 0
vn 1 0 0
vn 1 0 0
vn 1 0 0
vn 1 0 0
vn 1 0 0
vn 1 0 0
vn 1 0 0
vn 1 0 0
vn 1 0 0
vn 1 0 0
vn 1 0 0
vn 1 0 0
vn 1 0 0
vn 1 0 0
vn 1 0 0
vn 1 0 0
vn 1 0 0
vn 1 0 0
vn 1 0 0
vn 1 0 0
vn 1 0 0
vn 1 0 0
vn 1 0 0
vn 1 0 0
vn 1 0 0
vn 1 0 0
vn 1 0 0
vn 1 0 0
vn 1 0 0
vn 1 0 0
vn 1 0 0
vn 1 0 0
vn 1 0 0
vn 1 0 0
vn -1 0 0
vn -1 0 0
vn -1 0 0
vn -1 0 0
vn -1 0 0
vn -1 0 0
vn -1 0 0
vn -1 0 0
vn -1 0 0
vn -1 0 0
vn -1 0 0
vn -1 0 0
vn -1 0 0
vn -1 0 0
vn -1 0 0
vn -1 0 0
vn -1 0 0
vn -1 0 0
vn -1 0 0
vn -1 0 0
vn -1 0 0
vn -1 0 0
vn -1 0 0
vn -1 0 0
vn -1 0 0
vn -1 0 0
vn -1 0 0
vn -1 0 0
vn -1 0 0
vn -1 0 0
vn -1 0 0
vn -1 0 0
vn -1 0 0
vn -1 0 0
vn -1 0 0
vn -1 0 0
vn -1 0 0
vn -1 0 0
vn -1 0 0
vn -1 0 0
vn -1 0 0
vn -1 0 0
vn -1 0 0
vn -1 0 0
vn -1 0 0
vn -1 0 0
vn -1 0 0
vn -1 0 0
vn -1 0 0
vn -1 0 0
vn -1 0 0
vn -1 0 0
vn -1 0 0
vn -1 0 0
vn -1 0 0
vn -1 0 0
vn -1 0 0
vn -1 0 0
vn -1 0 0
vn -1 0 0
vn -1 0 0
vn -1 0 0
vn -1 0 0
vn -1 0 0
vn -1 0 0
vn -1 0 0
vn -1 0 0
vn -1 0 0
vn -1 0 0
vn -1 0 0
vn -1 0 0
vn -1 0 0
vn -1 0 0
vn -1 0 0
vn -1 0 0
vn -1 0 0
vn -1 0 0
vn -1 0 0
vn -1 0 0
vn -1 0 0
vn -1 0 0
vn 0 0 1
vn 0 0 1
vn 0 0 1
vn 0 0 1
g pb_Mesh436860_0
f 3/3/3 2/2/2 1/1/1
f 3/3/3 4/4/4 2/2/2
f 7/7/7 6/6/6 5/5/5
f 7/7/7 8/8/8 6/6/6
f 11/11/11 10/10/10 9/9/9
f 11/11/11 12/12/12 10/10/10
f 15/15/15 14/14/14 13/13/13
f 15/15/15 16/16/16 14/14/14
f 19/19/19 18/18/18 17/17/17
f 19/19/19 20/20/20 18/18/18
f 23/23/23 22/22/22 21/21/21
f 23/23/23 24/24/24 22/22/22
f 27/27/27 26/26/26 25/25/25
f 27/27/27 28/28/28 26/26/26
f 31/31/31 30/30/30 29/29/29
f 31/31/31 32/32/32 30/30/30
f 35/35/35 34/34/34 33/33/33
f 35/35/35 36/36/36 34/34/34
f 39/39/39 38/38/38 37/37/37
f 39/39/39 40/40/40 38/38/38
f 43/43/43 42/42/42 41/41/41
f 43/43/43 44/44/44 42/42/42
f 47/47/47 46/46/46 45/45/45
f 47/47/47 48/48/48 46/46/46
f 51/51/51 50/50/50 49/49/49
f 51/51/51 52/52/52 50/50/50
f 55/55/55 54/54/54 53/53/53
f 55/55/55 56/56/56 54/54/54
f 59/59/59 58/58/58 57/57/57
f 59/59/59 60/60/60 58/58/58
f 63/63/63 62/62/62 61/61/61
f 63/63/63 64/64/64 62/62/62
f 67/67/67 66/66/66 65/65/65
f 67/67/67 68/68/68 66/66/66
f 71/71/71 70/70/70 69/69/69
f 71/71/71 72/72/72 70/70/70
f 75/75/75 74/74/74 73/73/73
f 75/75/75 76/76/76 74/74/74
f 79/79/79 78/78/78 77/77/77
f 79/79/79 80/80/80 78/78/78
f 83/83/83 82/82/82 81/81/81
f 83/83/83 84/84/84 82/82/82
f 87/87/87 86/86/86 85/85/85
f 87/87/87 88/88/88 86/86/86
f 91/91/91 90/90/90 89/89/89
f 91/91/91 92/92/92 90/90/90
f 95/95/95 94/94/94 93/93/93
f 95/95/95 96/96/96 94/94/94
f 99/99/99 98/98/98 97/97/97
f 99/99/99 100/100/100 98/98/98
f 103/103/103 102/102/102 101/101/101
f 103/103/103 104/104/104 102/102/102
f 105/105/105 106/106/106 107/107/107
f 110/110/110 109/109/109 108/108/108
f 110/110/110 111/111/111 109/109/109
f 112/112/112 113/113/113 114/114/114
f 117/117/117 116/116/116 115/115/115
f 117/117/117 118/118/118 116/116/116
f 119/119/119 120/120/120 121/121/121
f 124/124/124 123/123/123 122/122/122
f 124/124/124 125/125/125 123/123/123
f 126/126/126 127/127/127 128/128/128
f 131/131/131 130/130/130 129/129/129
f 131/131/131 132/132/132 130/130/130
f 133/133/133 134/134/134 135/135/135
f 138/138/138 137/137/137 136/136/136
f 138/138/138 139/139/139 137/137/137
f 140/140/140 141/141/141 142/142/142
f 145/145/145 144/144/144 143/143/143
f 145/145/145 146/146/146 144/144/144
f 147/147/147 148/148/148 149/149/149
f 152/152/152 151/151/151 150/150/150
f 152/152/152 153/153/153 151/151/151
f 154/154/154 155/155/155 156/156/156
f 159/159/159 158/158/158 157/157/157
f 159/159/159 160/160/160 158/158/158
f 161/161/161 162/162/162 163/163/163
f 166/166/166 165/165/165 164/164/164
f 166/166/166 167/167/167 165/165/165
f 168/168/168 169/169/169 170/170/170
f 173/173/173 172/172/172 171/171/171
f 173/173/173 174/174/174 172/172/172
f 175/175/175 176/176/176 177/177/177
f 178/178/178 179/179/179 180/180/180
f 179/179/179 181/181/181 180/180/180
f 182/182/182 183/183/183 184/184/184
f 183/183/183 185/185/185 184/184/184
f 188/188/188 187/187/187 186/186/186
f 189/189/189 190/190/190 191/191/191
f 190/190/190 192/192/192 191/191/191
f 195/195/195 194/194/194 193/193/193
f 196/196/196 197/197/197 198/198/198
f 197/197/197 199/199/199 198/198/198
f 202/202/202 201/201/201 200/200/200
f 203/203/203 204/204/204 205/205/205
f 204/204/204 206/206/206 205/205/205
f 209/209/209 208/208/208 207/207/207
f 210/210/210 211/211/211 212/212/212
f 211/211/211 213/213/213 212/212/212
f 216/216/216 215/215/215 214/214/214
f 217/217/217 218/218/218 219/219/219
f 218/218/218 220/220/220 219/219/219
f 223/223/223 222/222/222 221/221/221
f 224/224/224 225/225/225 226/226/226
f 225/225/225 227/227/227 226/226/226
f 230/230/230 229/229/229 228/228/228
f 231/231/231 232/232/232 233/233/233
f 232/232/232 234/234/234 233/233/233
f 237/237/237 236/236/236 235/235/235
f 238/238/238 239/239/239 240/240/240
f 239/239/239 241/241/241 240/240/240
f 244/244/244 243/243/243 242/242/242
f 245/245/245 246/246/246 247/247/247
f 246/246/246 248/248/248 247/247/247
f 251/251/251 250/250/250 249/249/249
f 252/252/252 253/253/253 254/254/254
f 253/253/253 255/255/255 254/254/254
f 258/258/258 257/257/257 256/256/256
f 261/261/261 260/260/260 259/259/259
f 261/261/261 262/262/262 260/260/260
