g pb_Mesh328854
v -12.5 -12 -2
v -12.5 -12 -6
v -12.5 32.5 -6
v -12.5 32.5 -2
v -3 32.5 -6
v -3 -12 -2
v -3 32.5 -2
v -3 -12 -6
v -3 -12 -2
v -6 -12 -6
v -6 -12 -2
v -3 -12 -6
v -12.5 -12 -2
v -12.5 -12 -6
v -6 -12 -6
v -6 32 -6
v -12.5 -12 -6
v -12.5 32.5 -6
v -3 -12 -7
v -6 32.5 -7
v -6 -12 -7
v -3 32.5 -7
v -6 32 -6
v -6 -12 -6
v -6 32.5 -7
v -6 -12 -7
v -6 -12 -7
v -3 -12 -7
v -3 -12 -7
v -3 32.5 -7
vt -2 -12
vt -6 -12
vt -6 32.5
vt -2 32.5
vt 6 32.5
vt 2 -12
vt 2 32.5
vt 6 -12
vt -3 -2
vt -6 -6
vt -6 -2
vt -3 -6
vt -12.5 -2
vt -12.5 -6
vt 6 -12
vt 6 32
vt 12.5 -12
vt 12.5 32.5
vt 3 -12
vt 6 32.5
vt 6 -12
vt 3 32.5
vt -6 32
vt -6 -12
vt -7 32.5
vt -7 -12
vt -6 -7
vt -3 -7
vt 7 -12
vt 7 32.5
vn -1 0 0
vn -1 0 0
vn -1 0 0
vn -1 0 0
vn 1 0 0
vn 1 0 0
vn 1 0 0
vn 1 0 0
vn 0 -1 0
vn 0 -1 0
vn 0 -1 0
vn 0 -1 0
vn 0 -1 0
vn 0 -1 0
vn 0 0 -1
vn 0 0 -1
vn 0 0 -1
vn 0 0 -1
vn 0 0 -1
vn 0 0 -1
vn 0 0 -1
vn 0 0 -1
vn -1 0 0
vn -1 0 0
vn -1 0 0
vn -1 0 0
vn 0 -1 0
vn 0 -1 0
vn 1 0 0
vn 1 0 0
g pb_Mesh328854_0
f 3/3/3 2/2/2 1/1/1
f 3/3/3 1/1/1 4/4/4
f 7/7/7 6/6/6 5/5/5
f 6/6/6 8/8/8 5/5/5
f 11/11/11 10/10/10 9/9/9
f 10/10/10 12/12/12 9/9/9
f 13/13/13 10/10/10 11/11/11
f 13/13/13 14/14/14 10/10/10
f 17/17/17 16/16/16 15/15/15
f 17/17/17 18/18/18 16/16/16
f 21/21/21 20/20/20 19/19/19
f 20/20/20 22/22/22 19/19/19
f 25/25/25 24/24/24 23/23/23
f 25/25/25 26/26/26 24/24/24
f 27/27/27 12/12/12 10/10/10
f 27/27/27 28/28/28 12/12/12
f 29/29/29 5/5/5 8/8/8
f 29/29/29 30/30/30 5/5/5
g pb_Mesh328854_1
