g pb_Mesh345206
v -6 0 2
v -6 0 -2
v -6 2 2
v -6 2 -2
v 0 0 -2
v 0 0 2
v 0 2 -2
v 0 2 2
v 0 2 4
v 0 0 4
v -10 0 2
v -10 2 2
v -10 0 4
v -10 2 4
v -4 0 -2
v -4 2 -2
v -6 0 -2
v -6 2 -2
v -4 0 4
v -4 0 2
v -6 0 4
v -6 0 2
v -4 2 2
v -4 2 4
v -6 2 2
v -6 2 4
v -4 2 4
v -4 0 4
v -6 2 4
v -6 0 4
v -4 0 -2
v -6 0 -2
v -4 2 -2
v -6 2 -2
v -6 0 2
v -6 2 2
v -10 0 2
v -10 2 2
v -10 0 4
v -10 0 2
v -10 2 2
v -10 2 4
v -10 2 4
v -10 0 4
v 0 0 4
v -2 0 4
v -2 2 4
v 0 2 4
v -4 2 -12
v -2 0 -12
v -2 2 -12
v -4 0 -12
v 0 0 -12
v 0 2 -12
v -2 2 -2
v 0 2 -2
v 0 2 2
v -2 2 2
v 0 0 2
v -2 0 -2
v -2 0 2
v 0 0 -2
v 0 0 4
v -2 0 4
v -2 2 4
v 0 2 4
v -4 0 -2
v -4 0 -7
v -4 2 -7
v -4 2 -2
v -4 0 -12
v -4 2 -12
v 0 2 -8
v 0 0 -7
v 0 2 -12
v 0 0 -12
v -2 0 -7
v -4 0 -12
v -4 0 -7
v -2 0 -12
v 0 0 -7
v 0 0 -12
v -2 2 -12
v 0 2 -12
v 0 2 -8
v -2 2 -7
v -4 2 -12
v -4 2 -7
v 8 2.000099 -12
v 0 2 -8
v 0 2 -12
v 8 2.000099 -8
vt 2 0
vt -2 0
vt 2 2
vt -2 2
vt 2 0
vt -2 0
vt 2 2
vt -2 2
vt -4 2
vt -4 0
vt 2 0
vt 2 2
vt 4 0
vt 4 2
vt 4 0
vt 4 2
vt 6 0
vt 6 2
vt -4 4
vt -4 2
vt -6 4
vt -6 2
vt 4 2
vt 4 4
vt 6 2
vt 6 4
vt -4 2
vt -4 0
vt -6 2
vt -6 0
vt -4 -2
vt -6 -2
vt 4 -2
vt 6 -2
vt 6 0
vt 6 2
vt 10 0
vt 10 2
vt -10 4
vt -10 2
vt 10 2
vt 10 4
vt -10 2
vt -10 0
vt 0 0
vt -2 0
vt -2 2
vt 0 2
vt 4 2
vt 2 0
vt 2 2
vt 4 0
vt 0 0
vt 0 2
vt 2 -2
vt 0 -2
vt 0 2
vt 2 2
vt 0 2
vt -2 -2
vt -2 2
vt 0 -2
vt 0 4
vt -2 4
vt 2 4
vt 0 4
vt -2 0
vt -7 0
vt -7 2
vt -2 2
vt -12 0
vt -12 2
vt 8 2
vt 7 0
vt 12 2
vt 12 0
vt -2 -7
vt -4 -12
vt -4 -7
vt -2 -12
vt 0 -7
vt 0 -12
vt 2 -12
vt 0 -12
vt 0 -8
vt 2 -7
vt 4 -12
vt 4 -7
vt -8.000025 -12
vt -2.479553E-05 -8
vt -2.479553E-05 -12
vt -8.000025 -8
vn -1 0 0
vn -1 0 0
vn -1 0 0
vn -1 0 0
vn 1 0 0
vn 1 0 0
vn 1 0 0
vn 1 0 0
vn 1 0 0
vn 1 0 0
vn -1 0 0
vn -1 0 0
vn -1 0 0
vn -1 0 0
vn 0 0 -1
vn 0 0 -1
vn 0 0 -1
vn 0 0 -1
vn 0 -1 0
vn 0 -1 0
vn 0 -1 0
vn 0 -1 0
vn 0 1 0
vn 0 1 0
vn 0 1 0
vn 0 1 0
vn 0 0 1
vn 0 0 1
vn 0 0 1
vn 0 0 1
vn 0 -1 0
vn 0 -1 0
vn 0 1 0
vn 0 1 0
vn 0 0 -1
vn 0 0 -1
vn 0 0 -1
vn 0 0 -1
vn 0 -1 0
vn 0 -1 0
vn 0 1 0
vn 0 1 0
vn 0 0 1
vn 0 0 1
vn 0 0 1
vn 0 0 1
vn 0 0 1
vn 0 0 1
vn 0 0 -1
vn 0 0 -1
vn 0 0 -1
vn 0 0 -1
vn 0 0 -1
vn 0 0 -1
vn 0 1 0
vn 0 1 0
vn 0 1 0
vn 0 1 0
vn 0 -1 0
vn 0 -1 0
vn 0 -1 0
vn 0 -1 0
vn 0 -1 0
vn 0 -1 0
vn 0 1 0
vn 0 1 0
vn -1 0 0
vn -1 0 0
vn -1 0 0
vn -1 0 0
vn -1 0 0
vn -1 0 0
vn 1 0 0
vn 1 0 0
vn 1 0 0
vn 1 0 0
vn 0 -1 0
vn 0 -1 0
vn 0 -1 0
vn 0 -1 0
vn 0 -1 0
vn 0 -1 0
vn 0 1 0
vn 0 1 0
vn 0 1 0
vn 0 1 0
vn 0 1 0
vn 0 1 0
vn -1.239777E-05 1 0
vn -1.239777E-05 1 0
vn -1.239777E-05 1 0
vn -1.239777E-05 1 0
g pb_Mesh345206_0
f 3/3/3 2/2/2 1/1/1
f 3/3/3 4/4/4 2/2/2
f 7/7/7 6/6/6 5/5/5
f 7/7/7 8/8/8 6/6/6
f 9/9/9 6/6/6 8/8/8
f 9/9/9 10/10/10 6/6/6
f 13/13/13 12/12/12 11/11/11
f 13/13/13 14/14/14 12/12/12
f 17/17/17 16/16/16 15/15/15
f 17/17/17 18/18/18 16/16/16
f 21/21/21 20/20/20 19/19/19
f 21/21/21 22/22/22 20/20/20
f 25/25/25 24/24/24 23/23/23
f 25/25/25 26/26/26 24/24/24
f 29/29/29 28/28/28 27/27/27
f 29/29/29 30/30/30 28/28/28
f 22/22/22 31/31/31 20/20/20
f 22/22/22 32/32/32 31/31/31
f 34/34/34 23/23/23 33/33/33
f 34/34/34 25/25/25 23/23/23
f 37/37/37 36/36/36 35/35/35
f 37/37/37 38/38/38 36/36/36
f 39/39/39 22/22/22 21/21/21
f 39/39/39 40/40/40 22/22/22
f 41/41/41 26/26/26 25/25/25
f 41/41/41 42/42/42 26/26/26
f 43/43/43 30/30/30 29/29/29
f 43/43/43 44/44/44 30/30/30
f 47/47/47 46/46/46 45/45/45
f 47/47/47 45/45/45 48/48/48
f 27/27/27 28/28/28 46/46/46
f 27/27/27 46/46/46 47/47/47
f 51/51/51 50/50/50 49/49/49
f 50/50/50 52/52/52 49/49/49
f 54/54/54 53/53/53 51/51/51
f 53/53/53 50/50/50 51/51/51
f 57/57/57 56/56/56 55/55/55
f 57/57/57 55/55/55 58/58/58
f 58/58/58 55/55/55 33/33/33
f 58/58/58 33/33/33 23/23/23
f 61/61/61 60/60/60 59/59/59
f 60/60/60 62/62/62 59/59/59
f 20/20/20 31/31/31 61/61/61
f 31/31/31 60/60/60 61/61/61
f 64/64/64 61/61/61 63/63/63
f 61/61/61 59/59/59 63/63/63
f 19/19/19 20/20/20 64/64/64
f 20/20/20 61/61/61 64/64/64
f 65/65/65 58/58/58 23/23/23
f 65/65/65 23/23/23 24/24/24
f 66/66/66 57/57/57 58/58/58
f 66/66/66 58/58/58 65/65/65
f 69/69/69 68/68/68 67/67/67
f 69/69/69 67/67/67 70/70/70
f 72/72/72 71/71/71 68/68/68
f 72/72/72 68/68/68 69/69/69
f 7/7/7 5/5/5 73/73/73
f 5/5/5 74/74/74 73/73/73
f 73/73/73 74/74/74 75/75/75
f 74/74/74 76/76/76 75/75/75
f 79/79/79 78/78/78 77/77/77
f 78/78/78 80/80/80 77/77/77
f 31/31/31 79/79/79 60/60/60
f 79/79/79 77/77/77 60/60/60
f 77/77/77 80/80/80 81/81/81
f 80/80/80 82/82/82 81/81/81
f 60/60/60 77/77/77 62/62/62
f 77/77/77 81/81/81 62/62/62
f 85/85/85 84/84/84 83/83/83
f 85/85/85 83/83/83 86/86/86
f 56/56/56 85/85/85 86/86/86
f 56/56/56 86/86/86 55/55/55
f 86/86/86 83/83/83 87/87/87
f 86/86/86 87/87/87 88/88/88
f 55/55/55 86/86/86 88/88/88
f 55/55/55 88/88/88 33/33/33
f 91/91/91 90/90/90 89/89/89
f 90/90/90 92/92/92 89/89/89
