g pb_Mesh384158
v -4 -2.88303 0
v -4 -2.88303 -2
v -4 -1 0
v -4 -1 -2
v 0 -1.073044 -2
v 0 -1.073044 0
v 0 1 -2
v 0 1 0
v -1.145309 -0.1199627 -0.1906242
v -2.46946 -0.5193653 -0.201561
v -2.312973 0.4023933 -0.201561
v -1.245907 0.8800373 -0.1906242
v 0 -1.073044 0
v -1.145309 -0.1199627 -0.1906242
v -1.245907 0.8800373 -0.1906242
v 0 1 0
v -1.245907 0.8800373 -1.809376
v 0 -1.073044 -2
v 0 1 -2
v -1.145309 -0.1199627 -1.809376
v -2.312973 0.4023933 -1.798439
v -1.145309 -0.1199627 -1.809376
v -1.245907 0.8800373 -1.809376
v -2.46946 -0.5193653 -1.798439
v -2.312973 0.4023933 -1.798439
v -1.245907 0.8800373 -1.809376
v -2.312973 0.4023933 -0.201561
v -1.245907 0.8800373 -0.1906242
v 0 1 -2
v 0 1 0
v -2.46946 -0.5193653 -0.201561
v -1.145309 -0.1199627 -0.1906242
v -1.145309 -0.1199627 -1.809376
v -2.46946 -0.5193653 -1.798439
v -1.145309 -0.1199627 -0.1906242
v 0 -1.073044 0
v 0 -1.073044 -2
v -1.145309 -0.1199627 -1.809376
v -3.391212 -1.354692 -0.1687508
v -4 -2.88303 0
v -4 -1 0
v -3.212376 -0.2540951 -0.1687508
v -2.46946 -0.5193653 -0.201561
v -3.391212 -1.354692 -0.1687508
v -3.212376 -0.2540951 -0.1687508
v -2.312973 0.4023933 -0.201561
v -3.212376 -0.2540951 -1.831249
v -2.46946 -0.5193653 -1.798439
v -2.312973 0.4023933 -1.798439
v -3.391212 -1.354692 -1.831249
v -4 -1 -2
v -3.391212 -1.354692 -1.831249
v -3.212376 -0.2540951 -1.831249
v -4 -2.88303 -2
v -4 -1 -2
v -3.212376 -0.2540951 -1.831249
v -3.212376 -0.2540951 -0.1687508
v -4 -1 0
v -3.391212 -1.354692 -0.1687508
v -4 -2.88303 -2
v -4 -2.88303 0
v -3.391212 -1.354692 -1.831249
v -2.46946 -0.5193653 -0.201561
v -3.391212 -1.354692 -1.831249
v -3.391212 -1.354692 -0.1687508
v -2.46946 -0.5193653 -1.798439
vt 0 -2.88303
vt -2 -2.88303
vt 0 -1
vt -2 -1
vt 2 -1.073044
vt 0 -1.073044
vt 2 1
vt 0 1
vt -1.138905 -0.1212914
vt -2.462093 -0.5209916
vt -2.30568 0.4007795
vt -1.239455 0.878673
vt 0 -1.073025
vt -1.138905 -0.1212914
vt -1.239455 0.878673
vt 0 0.9999827
vt 1.302798 0.9013792
vt 0.06358042 -1.048774
vt 0.06358042 1.024118
vt 1.202251 -0.09850895
vt 2.368977 0.4232273
vt 1.202251 -0.09850895
vt 1.302798 0.9013792
vt 2.525384 -0.498524
vt 1.869138 -1.798439
vt 0.7019297 -1.809376
vt 1.869138 -0.201561
vt 0.7019297 -0.1906242
vt -0.4596836 -2
vt -0.4596836 0
vt -2.469299 -0.201561
vt -1.096495 -0.1906242
vt -1.096495 -1.809376
vt -2.469299 -1.798439
vt -1.096495 -0.1906242
vt -0.4325399 0
vt -0.4325399 -2
vt -1.096495 -1.809376
vt -3.384419 -1.356278
vt -3.998108 -2.883705
vt -3.998108 -1.000708
vt -3.205667 -0.2556673
vt -2.462093 -0.5209916
vt -3.384419 -1.356278
vt -3.205667 -0.2556673
vt -2.30568 0.4007795
vt 3.268968 -0.2331622
vt 2.525384 -0.498524
vt 2.368977 0.4232273
vt 3.447714 -1.333748
vt 4.061559 -0.9772744
vt 3.447714 -1.333748
vt 3.268968 -0.2331622
vt 4.061559 -2.860167
vt 4.012014 -2
vt 2.969659 -1.831249
vt 2.969659 -0.1687508
vt 4.012014 0
vt -3.649565 -0.1687508
vt -4.822769 -2
vt -4.822769 0
vt -3.649565 -1.831249
vt -2.469299 -0.201561
vt -3.649565 -1.831249
vt -3.649565 -0.1687508
vt -2.469299 -1.798439
vn -1 0 0
vn -1 0 0
vn -1 0 0
vn -1 0 0
vn 1 0 0
vn 1 0 0
vn 1 0 0
vn 1 0 0
vn -0.009256055 0.0002456198 0.9999562
vn -0.008704873 0.001477822 0.999961
vn -0.009256055 0.0002456198 0.9999562
vn -0.009807236 -0.0009865823 0.9999514
vn -0.1649661 -0.008987961 0.986119
vn -0.1786918 -0.01797592 0.9837409
vn -0.1649661 -0.008987961 0.986119
vn -0.1512404 0 0.988497
vn -0.1649661 -0.008987961 -0.986119
vn -0.1649661 -0.008987961 -0.986119
vn -0.1512404 0 -0.988497
vn -0.1786918 -0.01797592 -0.9837409
vn -0.009256055 0.0002456198 -0.9999562
vn -0.009256055 0.0002456198 -0.9999562
vn -0.009807236 -0.0009865823 -0.9999514
vn -0.008704873 0.001477822 -0.999961
vn -0.5018181 0.8649732 0
vn -0.2555656 0.9667917 0
vn -0.5018182 0.8649731 0
vn -0.2555656 0.9667917 0
vn -0.0958422 0.9953966 0
vn -0.0958422 0.9953966 0
vn 0.2887788 -0.9573959 0
vn 0.2887788 -0.9573959 0
vn 0.2887788 -0.9573959 0
vn 0.2887788 -0.9573959 0
vn -0.6396522 -0.7686645 0
vn -0.6396522 -0.7686645 0
vn -0.6396522 -0.7686645 0
vn -0.6396522 -0.7686645 0
vn 0.256198 -0.01992758 0.9661485
vn 0.2671193 0 0.9636635
vn 0.256198 -0.01992758 0.9661485
vn 0.2452766 -0.03985516 0.9686335
vn 0.04165388 -0.006919777 0.9991081
vn 0.04170493 -0.006776663 0.999107
vn 0.04165388 -0.006919777 0.9991081
vn 0.04160283 -0.007062892 0.9991093
vn 0.04165388 -0.006919777 -0.9991081
vn 0.04165388 -0.006919777 -0.9991081
vn 0.04160283 -0.007062892 -0.9991093
vn 0.04170493 -0.006776663 -0.999107
vn 0.256198 -0.01992758 -0.9661485
vn 0.256198 -0.01992758 -0.9661485
vn 0.2452766 -0.03985516 -0.9686335
vn 0.2671193 0 -0.9636635
vn -0.6876156 0.7260749 0
vn -0.6398949 0.7684624 0
vn -0.6398948 0.7684624 0
vn -0.6876156 0.7260749 0
vn 0.9290097 -0.3700554 0
vn 0.9290097 -0.3700554 0
vn 0.9290097 -0.3700554 0
vn 0.9290097 -0.3700554 0
vn 0.6715144 -0.7409915 0
vn 0.6715144 -0.7409915 0
vn 0.6715143 -0.7409915 0
vn 0.6715144 -0.7409915 0
g pb_Mesh384158_0
f 3/3/3 2/2/2 1/1/1
f 3/3/3 4/4/4 2/2/2
f 7/7/7 6/6/6 5/5/5
f 7/7/7 8/8/8 6/6/6
f 11/11/11 10/10/10 9/9/9
f 11/11/11 9/9/9 12/12/12
f 15/15/15 14/14/14 13/13/13
f 15/15/15 13/13/13 16/16/16
f 19/19/19 18/18/18 17/17/17
f 18/18/18 20/20/20 17/17/17
f 23/23/23 22/22/22 21/21/21
f 22/22/22 24/24/24 21/21/21
f 27/27/27 26/26/26 25/25/25
f 27/27/27 28/28/28 26/26/26
f 28/28/28 29/29/29 26/26/26
f 28/28/28 30/30/30 29/29/29
f 33/33/33 32/32/32 31/31/31
f 34/34/34 33/33/33 31/31/31
f 37/37/37 36/36/36 35/35/35
f 38/38/38 37/37/37 35/35/35
f 41/41/41 40/40/40 39/39/39
f 41/41/41 39/39/39 42/42/42
f 45/45/45 44/44/44 43/43/43
f 45/45/45 43/43/43 46/46/46
f 49/49/49 48/48/48 47/47/47
f 48/48/48 50/50/50 47/47/47
f 53/53/53 52/52/52 51/51/51
f 52/52/52 54/54/54 51/51/51
f 57/57/57 56/56/56 55/55/55
f 57/57/57 55/55/55 58/58/58
f 27/27/27 25/25/25 56/56/56
f 27/27/27 56/56/56 57/57/57
f 61/61/61 60/60/60 59/59/59
f 60/60/60 62/62/62 59/59/59
f 65/65/65 64/64/64 63/63/63
f 64/64/64 66/66/66 63/63/63
