g pb_Mesh128028
v -16 8 24
v 0 0 24
v 0 8 24
v -16 0 24
v -32 8 24
v -32 0 24
v -32 16 -32
v -32 12 -16
v -32 16 -16
v -32 12 -32
v 0 0 -16
v 0 7 -16
v 0 0 0
v 0 7 0
v 0 8 -32
v 0 16 -32
v 0 16 -16
v 0 20 0
v -16 20 -16
v -16 20 0
v 0 20 -16
v -32 20 -16
v -32 20 0
v -16 16 -16
v -32 16 -32
v -32 16 -16
v -16 16 -32
v 0 16 -16
v 0 16 -32
v 0 0 -32
v 0 0 -16
v -16 0 -32
v -16 0 -16
v -32 0 -32
v -32 0 -16
v -16 0 0
v -32 0 0
v 0 0 0
v -16 28 0
v -32 28 0
v -16 28 24
v -32 28 24
v -32 16 0
v -32 8 0
v -32 16 24
v -32 8 24
v 0 16 0
v 0 8 24
v 0 16 24
v 0 28 0
v 0 28 24
v 0 0 24
v -16 0 24
v 0 0 24
v -32 0 0
v -32 0 24
v -32 0 24
v 0 0 -32
v 0 0 -28
v 0 6 -28
v 0 6 -24
v 0 0 -24
v 1 0 -28
v 0 0 -24
v 0 0 -28
v 1 0 -24
v -32 0 -16
v -32 0 -23.875
v -32 4 -24
v -32 4 -28
v -32 0 -32
v -32 0 -27.875
v -32 0 -23.875
v -32 4 -24
v -33 0 -23.875
v -33 4 -24
v -32 4 -24
v -32 4 -28
v -33 4 -24
v -33 4 -28
v -32 4 -28
v -32 0 -27.875
v -33 4 -28
v -33 0 -27.875
v 0 20 24
v 0 20 0
v -32 16 -16
v -32 20 -16
v -32 20 0
v -16 16 -16
v -32 16 -16
v -16 20 -16
v -32 20 -16
v -32 20 24
v 0 20 -16
v 0 16 -16
v 0 20 -16
v 0 28 24
v 0 28 0
v -32 28 0
v -32 28 24
v 0 8 -5
v 0 12 -5
v 0 8 -1
v 0 12 -1
v -32 8 -1
v -32 16 -1
v -32 8 -1
v -32 16 -1
v -33 8 -1
v -33 16 -1
v -32 12 -1
v -32 12 -5
v -33 12 -1
v -33 12 -5
v -32 16 -5
v -32 8 -5
v -33 16 -5
v -33 8 -5
v 1 8 -5
v 0 8 -1
v 0 8 -5
v 1 8 -1
v -32 0 -5
v -32 12 -4.875
v -32 16 -5
v -32 16 -1
v -32 16 -5
v -32 12 -1
v -32 12 -5
v -33 16 -1
v -32 16 -1
v -33 12 -1
v -32 12 -1
v -32 16 -5
v -33 16 -5
v -32 12 -5
v -33 12 -5
v -33 16 -5
v -33 16 -1
v -33 12 -5
v -33 12 -1
vt 16 8
vt 0 0
vt 0 8
vt 16 0
vt 32 8
vt 32 0
vt 32 16
vt 16 12
vt 16 16
vt 32 12
vt -16 0
vt -16 7
vt 0 0
vt 0 7
vt -32 8
vt -32 16
vt -16 16
vt 0 0
vt -16 -16
vt -16 0
vt 0 -16
vt -32 -16
vt -32 0
vt -16 -16
vt -32 -32
vt -32 -16
vt -16 -32
vt 0 -16
vt 0 -32
vt 0 -32
vt 0 -16
vt 16 -32
vt 16 -16
vt 32 -32
vt 32 -16
vt 16 0
vt 32 0
vt 0 0
vt -16 0
vt -32 0
vt -16 24
vt -32 24
vt 0 16
vt 0 8
vt -24 16
vt -24 8
vt 0 16
vt 24 8
vt 24 16
vt 0 0
vt 0 24
vt 24 0
vt 16 24
vt 0 24
vt 0 0
vt -24 0
vt 32 24
vt -32 0
vt -28 0
vt -28 6
vt -24 6
vt -24 0
vt -1 -28
vt 0 -24
vt 0 -28
vt -1 -24
vt 16 0
vt 23.875 0
vt 24 4
vt 28 4
vt 32 0
vt 27.875 0
vt 32 0.7457297
vt 32 4.747683
vt 33 0.7457297
vt 33 4.747683
vt -32 -24
vt -32 -28
vt -33 -24
vt -33 -28
vt -32 4.872622
vt -32 0.8706687
vt -33 4.872622
vt -33 0.8706687
vt 24 20
vt 0 20
vt 16 16
vt 16 20
vt 0 20
vt -16 16
vt -32 16
vt -16 20
vt -32 20
vt -24 20
vt -16 20
vt 0 16
vt 0 20
vt 24 28
vt 0 28
vt 0 28
vt -24 28
vt -5 8
vt -5 12
vt -1 8
vt -1 12
vt 1 8
vt 1 16
vt 32 8
vt 32 16
vt 33 8
vt 33 16
vt -32 -1
vt -32 -5
vt -33 -1
vt -33 -5
vt -32 16
vt -32 8
vt -33 16
vt -33 8
vt -1 -5
vt 0 -1
vt 0 -5
vt -1 -1
vt 5 0
vt 4.875 12
vt 5 16
vt 1 16
vt 5 16
vt 1 12
vt 5 12
vt -33 16
vt -32 16
vt -33 12
vt -32 12
vt 32 16
vt 33 16
vt 32 12
vt 33 12
vt -5 16
vt -1 16
vt -5 12
vt -1 12
vn 0 0 -1
vn 0 0 -1
vn 0 0 -1
vn 0 0 -1
vn 0 0 -1
vn 0 0 -1
vn 1 0 0
vn 1 0 0
vn 1 0 0
vn 1 0 0
vn -1 0 0
vn -1 0 0
vn -1 0 0
vn -1 0 0
vn -1 0 0
vn -1 0 0
vn -1 0 0
vn 0 -1 0
vn 0 -1 0
vn 0 -1 0
vn 0 -1 0
vn 0 -1 0
vn 0 -1 0
vn 0 -1 0
vn 0 -1 0
vn 0 -1 0
vn 0 -1 0
vn 0 -1 0
vn 0 -1 0
vn 0 1 0
vn 0 1 0
vn 0 1 0
vn 0 1 0
vn 0 1 0
vn 0 1 0
vn 0 1 0
vn 0 1 0
vn 0 1 0
vn 0 -1 0
vn 0 -1 0
vn 0 -1 0
vn 0 -1 0
vn 1 0 0
vn 1 0 0
vn 1 0 0
vn 1 0 0
vn -1 0 0
vn -1 0 0
vn -1 0 0
vn 0 -1 0
vn 0 -1 0
vn -1 0 0
vn 0 1 0
vn 0 1 0
vn 1 0 0
vn 1 0 0
vn 0 1 0
vn -1 0 0
vn -1 0 0
vn -1 0 0
vn -1 0 0
vn -1 0 0
vn 0 1 0
vn 0 1 0
vn 0 1 0
vn 0 1 0
vn 1 0 0
vn 1 0 0
vn 1 0 0
vn 1 0 0
vn 1 0 0
vn 1 0 0
vn 0 -0.03123475 -0.9995121
vn 0 -0.03123475 -0.9995121
vn 0 -0.03123475 -0.9995121
vn 0 -0.03123475 -0.9995121
vn 0 -1 0
vn 0 -1 0
vn 0 -1 0
vn 0 -1 0
vn 0 0.03123475 0.9995121
vn 0 0.03123475 0.9995121
vn 0 0.03123475 0.9995121
vn 0 0.03123475 0.9995121
vn -1 0 0
vn -1 0 0
vn 1 0 0
vn 1 0 0
vn 1 0 0
vn 0 0 1
vn 0 0 1
vn 0 0 1
vn 0 0 1
vn 1 0 0
vn -1 0 0
vn 0 0 1
vn 0 0 1
vn -1 0 0
vn -1 0 0
vn 1 0 0
vn 1 0 0
vn -1 0 0
vn -1 0 0
vn -1 0 0
vn -1 0 0
vn 1 0 0
vn 1 0 0
vn 0 0 -1
vn 0 0 -1
vn 0 0 -1
vn 0 0 -1
vn 0 -1 0
vn 0 -1 0
vn 0 -1 0
vn 0 -1 0
vn 0 0 1
vn 0 0 1
vn 0 0 1
vn 0 0 1
vn 0 1 0
vn 0 1 0
vn 0 1 0
vn 0 1 0
vn 1 0 0
vn 1 0 0
vn 1 0 0
vn 1 0 0
vn 1 0 0
vn 1 0 0
vn 1 0 0
vn 0 0 1
vn 0 0 1
vn 0 0 1
vn 0 0 1
vn 0 0 -1
vn 0 0 -1
vn 0 0 -1
vn 0 0 -1
vn -1 0 0
vn -1 0 0
vn -1 0 0
vn -1 0 0
g pb_Mesh128028_0
f 3/3/3 2/2/2 1/1/1
f 4/4/4 1/1/1 2/2/2
f 1/1/1 4/4/4 5/5/5
f 6/6/6 5/5/5 4/4/4
f 9/9/9 8/8/8 7/7/7
f 10/10/10 7/7/7 8/8/8
f 13/13/13 12/12/12 11/11/11
f 12/12/12 13/13/13 14/14/14
f 12/12/12 16/16/16 15/15/15
f 16/16/16 12/12/12 17/17/17
f 20/20/20 19/19/19 18/18/18
f 21/21/21 18/18/18 19/19/19
f 23/23/23 22/22/22 20/20/20
f 19/19/19 20/20/20 22/22/22
f 26/26/26 25/25/25 24/24/24
f 27/27/27 24/24/24 25/25/25
f 24/24/24 27/27/27 28/28/28
f 29/29/29 28/28/28 27/27/27
f 32/32/32 31/31/31 30/30/30
f 31/31/31 32/32/32 33/33/33
f 34/34/34 33/33/33 32/32/32
f 33/33/33 34/34/34 35/35/35
f 35/35/35 36/36/36 33/33/33
f 36/36/36 35/35/35 37/37/37
f 33/33/33 38/38/38 31/31/31
f 38/38/38 33/33/33 36/36/36
f 41/41/41 40/40/40 39/39/39
f 41/41/41 42/42/42 40/40/40
f 45/45/45 44/44/44 43/43/43
f 45/45/45 46/46/46 44/44/44
f 48/48/48 47/47/47 14/14/14
f 48/48/48 49/49/49 47/47/47
f 51/51/51 39/39/39 50/50/50
f 51/51/51 41/41/41 39/39/39
f 52/52/52 14/14/14 13/13/13
f 52/52/52 48/48/48 14/14/14
f 53/53/53 38/38/38 36/36/36
f 53/53/53 54/54/54 38/38/38
f 46/46/46 55/55/55 44/44/44
f 46/46/46 56/56/56 55/55/55
f 57/57/57 36/36/36 37/37/37
f 57/57/57 53/53/53 36/36/36
f 59/59/59 15/15/15 58/58/58
f 59/59/59 60/60/60 15/15/15
f 61/61/61 11/11/11 12/12/12
f 61/61/61 62/62/62 11/11/11
f 60/60/60 12/12/12 15/15/15
f 60/60/60 61/61/61 12/12/12
f 65/65/65 64/64/64 63/63/63
f 64/64/64 66/66/66 63/63/63
f 68/68/68 8/8/8 67/67/67
f 68/68/68 69/69/69 8/8/8
f 69/69/69 10/10/10 8/8/8
f 69/69/69 70/70/70 10/10/10
f 70/70/70 71/71/71 10/10/10
f 70/70/70 72/72/72 71/71/71
f 75/75/75 74/74/74 73/73/73
f 75/75/75 76/76/76 74/74/74
f 79/79/79 78/78/78 77/77/77
f 79/79/79 80/80/80 78/78/78
f 83/83/83 82/82/82 81/81/81
f 83/83/83 84/84/84 82/82/82
f 85/85/85 47/47/47 49/49/49
f 85/85/85 86/86/86 47/47/47
f 88/88/88 43/43/43 87/87/87
f 88/88/88 89/89/89 43/43/43
f 92/92/92 91/91/91 90/90/90
f 92/92/92 93/93/93 91/91/91
f 89/89/89 45/45/45 43/43/43
f 89/89/89 94/94/94 45/45/45
f 86/86/86 17/17/17 47/47/47
f 86/86/86 95/95/95 17/17/17
f 97/97/97 90/90/90 96/96/96
f 97/97/97 92/92/92 90/90/90
f 98/98/98 86/86/86 85/85/85
f 98/98/98 99/99/99 86/86/86
f 100/100/100 94/94/94 89/89/89
f 100/100/100 101/101/101 94/94/94
f 102/102/102 17/17/17 12/12/12
f 102/102/102 103/103/103 17/17/17
f 104/104/104 12/12/12 14/14/14
f 104/104/104 102/102/102 12/12/12
f 105/105/105 14/14/14 47/47/47
f 105/105/105 104/104/104 14/14/14
f 103/103/103 47/47/47 17/17/17
f 103/103/103 105/105/105 47/47/47
f 106/106/106 43/43/43 44/44/44
f 106/106/106 107/107/107 43/43/43
f 110/110/110 109/109/109 108/108/108
f 110/110/110 111/111/111 109/109/109
f 114/114/114 113/113/113 112/112/112
f 114/114/114 115/115/115 113/113/113
f 118/118/118 117/117/117 116/116/116
f 118/118/118 119/119/119 117/117/117
f 122/122/122 121/121/121 120/120/120
f 121/121/121 123/123/123 120/120/120
f 67/67/67 8/8/8 124/124/124
f 8/8/8 125/125/125 124/124/124
f 8/8/8 9/9/9 125/125/125
f 9/9/9 126/126/126 125/125/125
f 129/129/129 128/128/128 127/127/127
f 129/129/129 130/130/130 128/128/128
f 133/133/133 132/132/132 131/131/131
f 133/133/133 134/134/134 132/132/132
f 137/137/137 136/136/136 135/135/135
f 137/137/137 138/138/138 136/136/136
f 141/141/141 140/140/140 139/139/139
f 141/141/141 142/142/142 140/140/140
g pb_Mesh128028_1
