g pb_Mesh191052
v 0 16 6
v -8 16 6
v -8 0 6
v 0 0 6
v -8 16 6
v -8 16 -11
v -8 0 -11
v -8 0 6
v 0 16 -11
v 0 16 6
v 0 0 6
v 0 0 -11
v 0 16 -11
v -8 16 -11
v -8 16 6
v 0 16 6
v 0 0 6
v -8 0 6
v -8 0 -11
v 0 0 -11
vt 0 16
vt 8 16
vt 8 0
vt 0 0
vt -6 16
vt 11 16
vt 11 0
vt -6 0
vt -11 16
vt 6 16
vt 6 0
vt -11 0
vt 0 -11
vt -8 -11
vt -8 6
vt 0 6
vt 0 6
vt 8 6
vt 8 -11
vt 0 -11
vn 0 0 -1
vn 0 0 -1
vn 0 0 -1
vn 0 0 -1
vn 1 0 0
vn 1 0 0
vn 1 0 0
vn 1 0 0
vn -1 0 0
vn -1 0 0
vn -1 0 0
vn -1 0 0
vn 0 -1 0
vn 0 -1 0
vn 0 -1 0
vn 0 -1 0
vn 0 1 0
vn 0 1 0
vn 0 1 0
vn 0 1 0
g pb_Mesh191052_0
f 3/3/3 2/2/2 1/1/1
f 4/4/4 3/3/3 1/1/1
f 7/7/7 6/6/6 5/5/5
f 8/8/8 7/7/7 5/5/5
f 11/11/11 10/10/10 9/9/9
f 12/12/12 11/11/11 9/9/9
f 15/15/15 14/14/14 13/13/13
f 16/16/16 15/15/15 13/13/13
f 19/19/19 18/18/18 17/17/17
f 20/20/20 19/19/19 17/17/17
