g pb_Mesh561306
v -12 32 -32
v 0 32 -32
v 0 32 0
v -12 32 0
v -32 32 -32
v -20 32 -32
v -20 32 0
v -32 32 0
v -32 0 0
v -32 0 -32
v -32 16 -32
v -32 16 0
v -32 32 -32
v -32 32 0
v 0 16 -32
v 0 0 0
v 0 16 0
v 0 0 -32
v 0 32 -32
v 0 32 0
v 0 0 0
v -12 0 0
v -12 16 0
v 0 16 0
v -12 32 0
v 0 32 0
v -12 16 -32
v 0 0 -32
v 0 16 -32
v -12 0 -32
v -12 32 -32
v 0 32 -32
v -20 0 0
v -20 16 0
v -20 32 0
v -32 0 0
v -32 16 0
v -32 32 0
v -20 16 -12
v -12 0 -12
v -12 16 -12
v -20 0 -12
v -20 32 -32
v -20 16 -32
v -32 16 -32
v -20 0 -32
v -32 0 -32
v -32 32 -32
v -12 0 -32
v -12 16 -32
v -12 0 -12
v -12 16 -12
v -12 16 -32
v -20 16 -32
v -12 16 -12
v -20 16 -12
v -20 16 -32
v -20 0 -32
v -20 16 -12
v -20 0 -12
vt 12 -32
vt 0 -32
vt 0 0
vt 12 0
vt 32 -32
vt 20 -32
vt 20 0
vt 32 0
vt 0 0
vt -32 0
vt -32 16
vt 0 16
vt -32 32
vt 0 32
vt 32 16
vt 0 0
vt 0 16
vt 32 0
vt 32 32
vt 0 32
vt 0 0
vt -12 0
vt -12 16
vt 0 16
vt -12 32
vt 0 32
vt 12 16
vt 0 0
vt 0 16
vt 12 0
vt 12 32
vt 0 32
vt -20 0
vt -20 16
vt -20 32
vt -32 0
vt -32 16
vt -32 32
vt 20 16
vt 12 0
vt 12 16
vt 20 0
vt 20 32
vt 20 16
vt 32 16
vt 20 0
vt 32 0
vt 32 32
vt -32 0
vt -32 16
vt -12 0
vt -12 16
vt -12 -32
vt -20 -32
vt -12 -12
vt -20 -12
vt 32 16
vt 32 0
vt 12 16
vt 12 0
vn 0 1 0
vn 0 1 0
vn 0 1 0
vn 0 1 0
vn 0 1 0
vn 0 1 0
vn 0 1 0
vn 0 1 0
vn -1 0 0
vn -1 0 0
vn -1 0 0
vn -1 0 0
vn -1 0 0
vn -1 0 0
vn 1 0 0
vn 1 0 0
vn 1 0 0
vn 1 0 0
vn 1 0 0
vn 1 0 0
vn 0 0 1
vn 0 0 1
vn 0 0 1
vn 0 0 1
vn 0 0 1
vn 0 0 1
vn 0 0 -1
vn 0 0 -1
vn 0 0 -1
vn 0 0 -1
vn 0 0 -1
vn 0 0 -1
vn 0 0 1
vn 0 0 1
vn 0 0 1
vn 0 0 1
vn 0 0 1
vn 0 0 1
vn 0 0 -1
vn 0 0 -1
vn 0 0 -1
vn 0 0 -1
vn 0 0 -1
vn 0 0 -1
vn 0 0 -1
vn 0 0 -1
vn 0 0 -1
vn 0 0 -1
vn -1 0 0
vn -1 0 0
vn -1 0 0
vn -1 0 0
vn 0 -1 0
vn 0 -1 0
vn 0 -1 0
vn 0 -1 0
vn 1 0 0
vn 1 0 0
vn 1 0 0
vn 1 0 0
g pb_Mesh561306_0
f 3/3/3 2/2/2 1/1/1
f 3/3/3 1/1/1 4/4/4
f 7/7/7 6/6/6 5/5/5
f 7/7/7 5/5/5 8/8/8
f 4/4/4 1/1/1 6/6/6
f 4/4/4 6/6/6 7/7/7
f 11/11/11 10/10/10 9/9/9
f 11/11/11 9/9/9 12/12/12
f 13/13/13 11/11/11 12/12/12
f 13/13/13 12/12/12 14/14/14
f 17/17/17 16/16/16 15/15/15
f 16/16/16 18/18/18 15/15/15
f 20/20/20 17/17/17 19/19/19
f 17/17/17 15/15/15 19/19/19
f 23/23/23 22/22/22 21/21/21
f 23/23/23 21/21/21 24/24/24
f 25/25/25 23/23/23 24/24/24
f 25/25/25 24/24/24 26/26/26
f 29/29/29 28/28/28 27/27/27
f 28/28/28 30/30/30 27/27/27
f 32/32/32 29/29/29 31/31/31
f 29/29/29 27/27/27 31/31/31
f 34/34/34 33/33/33 22/22/22
f 34/34/34 22/22/22 23/23/23
f 35/35/35 34/34/34 23/23/23
f 35/35/35 23/23/23 25/25/25
f 37/37/37 36/36/36 33/33/33
f 37/37/37 33/33/33 34/34/34
f 38/38/38 37/37/37 34/34/34
f 38/38/38 34/34/34 35/35/35
f 41/41/41 40/40/40 39/39/39
f 40/40/40 42/42/42 39/39/39
f 31/31/31 27/27/27 43/43/43
f 27/27/27 44/44/44 43/43/43
f 44/44/44 46/46/46 45/45/45
f 46/46/46 47/47/47 45/45/45
f 43/43/43 44/44/44 48/48/48
f 44/44/44 45/45/45 48/48/48
f 51/51/51 50/50/50 49/49/49
f 51/51/51 52/52/52 50/50/50
f 55/55/55 54/54/54 53/53/53
f 55/55/55 56/56/56 54/54/54
f 59/59/59 58/58/58 57/57/57
f 59/59/59 60/60/60 58/58/58
