g pb_Mesh-589172
v 0 0 0
v -1 0 0
v 0 1 0
v -1 1 0
v -1 0 0
v -1 0 -1
v -1 1 0
v -1 1 -1
v -1 0 -2
v 0 0 -2
v -1 1 -2
v 0 1 -2
v 1 0 -1
v 1 0 0
v 1 1 -1
v 1 1 0
v 0 5 0
v -1 5 0
v 0 5 -1
v -1 5 -1
v 0 0 -1
v -1 0 -1
v 0 0 0
v -1 0 0
v -1 0 -2
v 0 0 -2
v -1 1 -2
v -1 0 -2
v 0 0 -1
v 0 1 -1
v 0 0 -2
v 0 1 -2
v 0 3 -1
v -1 3 -1
v 0 3 -2
v -1 3 -2
v 1 0 -1
v 1 0 0
v 0 1 -1
v 0 0 -1
v 1 1 -1
v 1 0 -1
v 1 0 0
v 1 1 0
v 0 2 0
v 0 2 -1
v 1 2 0
v 1 2 -1
v -2 1 0
v -2 1 -1
v -2 2 0
v -2 2 -1
v 1 2 0
v 0 2 0
v 0 2 -1
v 1 2 -1
v 1 2 -1
v 1 2 0
v -1 2 0
v 0 2 -2
v 0 2 -1
v -2 1 -2
v -2 2 -2
v -1 2 -2
v 0 2 -2
v 0 3 -2
v 0 3 -1
v -1 2 -1
v -1 2 -2
v -1 3 -1
v -1 3 -2
v -1 3 -2
v 0 3 -2
v 0 3 0
v -1 3 0
v 0 2 0
v 0 3 0
v -1 2 0
v -1 3 0
v 0 5 0
v -1 5 0
v 0 5 -1
v 0 5 0
v -1 5 0
v -1 5 -1
v -1 3 -1
v 0 3 -1
v -1 5 -1
v 0 5 -1
v -1 1 -1
v -1 1 -2
v -1 1 -1
v -1 1 -2
v -1 1 -2
v -1 1 -1
v -1 2 -1
v -1 2 0
v -1 2 -1
v -1 2 0
v -1 2 0
v -1 2 -1
v -1 1 -2
v -1 2 -2
v -1 1 -2
v -1 2 -2
v -1 2 -2
v -1 1 -2
v -1 2 -2
v -1 2 -1
v -1 2 -2
v -1 2 -1
v -1 2 -1
v -1 2 -2
v -1 1 0
v -1 1 -1
v -1 1 0
v -1 1 -1
v -1 1 -1
v -1 1 0
v -1 2 0
v -1 1 0
v -1 2 0
v -1 1 0
v -1 1 0
v -1 2 0
v -1 1 -1
v -1 1 -2
v -2 1 -1
v -2 1 -2
v -1 2 -1
v -1 2 0
v -2 2 -1
v -2 2 0
v -2 1 -2
v -2 2 -2
v -1 2 -2
v -2 2 -2
v -1 1 0
v -2 1 0
v -2 2 0
v -2 1 0
vt 0 0
vt -1 0
vt 0 1
vt -1 1
vt 0 0
vt -1 0
vt 0 1
vt -1 1
vt 1 0
vt 0 0
vt 1 1
vt 0 1
vt 1 0
vt 0 0
vt 1 1
vt 0 1
vt 0 0
vt 1 0
vt 0 -1
vt 1 -1
vt 0 -1
vt -1 -1
vt 0 0
vt -1 0
vt -1 -2
vt 0 -2
vt -2 1
vt -2 0
vt 1 0
vt 1 1
vt 2 0
vt 2 1
vt 0 -1
vt 1 -1
vt 0 -2
vt 1 -2
vt 1 -1
vt 1 0
vt 0 1
vt 0 0
vt -1 1
vt -1 0
vt 1 0
vt 1 1
vt 0 0
vt 0 -1
vt -1 0
vt -1 -1
vt 0 1
vt -1 1
vt 0 2
vt -1 2
vt 1 2
vt 0 2
vt 0 2
vt -1 2
vt 1 2
vt 0 2
vt -1 2
vt 2 2
vt 1 2
vt -2 1
vt -2 2
vt 1 2
vt 0 2
vt 2 3
vt 1 3
vt -1 2
vt -2 2
vt -1 3
vt -2 3
vt 1 3
vt 0 3
vt 0 3
vt -1 3
vt 0 2
vt 0 3
vt 0 2
vt 0 3
vt 0 5
vt -1 5
vt 1 5
vt 0 5
vt 0 5
vt -1 5
vt 1 3
vt 0 3
vt 1 5
vt 0 5
vt 0 0
vt 0 0
vt 0 0
vt 0 0
vt 0 0
vt 0 0
vt 0 0
vt 0 0
vt 0 0
vt 0 0
vt 0 0
vt 0 0
vt 0 0
vt 0 0
vt 0 0
vt 0 0
vt 0 0
vt 0 0
vt 0 0
vt 0 0
vt 0 0
vt 0 0
vt 0 0
vt 0 0
vt 0 0
vt 0 0
vt 0 0
vt 0 0
vt 0 0
vt 0 0
vt 0 0
vt 0 0
vt 0 0
vt 0 0
vt 0 0
vt 0 0
vt -1 -1
vt -1 -2
vt -2 -1
vt -2 -2
vt 1 -1
vt 1 0
vt 2 -1
vt 2 0
vt 2 1
vt 2 2
vt 1 -2
vt 2 -2
vt -1 0
vt -2 0
vt -2 2
vt -2 1
vn 0 0 1
vn 0 0 1
vn 0 0 1
vn 0 0 1
vn -1 0 0
vn -1 0 0
vn -1 0 0
vn -1 0 0
vn 0 0 -1
vn 0 0 -1
vn 0 0 -1
vn 0 0 -1
vn 1 0 0
vn 1 0 0
vn 1 0 0
vn 1 0 0
vn 0 1 0
vn 0 1 0
vn 0 1 0
vn 0 1 0
vn 0 -1 0
vn 0 -1 0
vn 0 -1 0
vn 0 -1 0
vn 0 -1 0
vn 0 -1 0
vn -1 0 0
vn -1 0 0
vn 1 0 0
vn 1 0 0
vn 1 0 0
vn 1 0 0
vn 0 1 0
vn 0 1 0
vn 0 1 0
vn 0 1 0
vn 0 -1 0
vn 0 -1 0
vn 0 0 -1
vn 0 0 -1
vn 0 0 -1
vn 0 0 -1
vn 0 0 1
vn 0 0 1
vn 0 1 0
vn 0 1 0
vn 0 1 0
vn 0 1 0
vn -1 0 0
vn -1 0 0
vn -1 0 0
vn -1 0 0
vn 0 0 1
vn 0 0 1
vn 0 0 -1
vn 0 0 -1
vn 1 0 0
vn 1 0 0
vn 0 0 1
vn 1 0 0
vn 1 0 0
vn -1 0 0
vn -1 0 0
vn 0 0 -1
vn 0 0 -1
vn 1 0 0
vn 1 0 0
vn -1 0 0
vn -1 0 0
vn -1 0 0
vn -1 0 0
vn 0 0 -1
vn 0 0 -1
vn 0 0 1
vn 0 0 1
vn 1 0 0
vn 1 0 0
vn -1 0 0
vn -1 0 0
vn 0 0 1
vn 0 0 1
vn 1 0 0
vn 1 0 0
vn -1 0 0
vn -1 0 0
vn 0 0 -1
vn 0 0 -1
vn 0 0 -1
vn 0 0 -1
vn 0 0 0
vn 0 0 0
vn 0 0 0
vn 0 0 0
vn 0 0 0
vn 0 0 0
vn 0 0 0
vn 0 0 0
vn 0 0 0
vn 0 0 0
vn 0 0 0
vn 0 0 0
vn 0 0 0
vn 0 0 0
vn 0 0 0
vn 0 0 0
vn 0 0 0
vn 0 0 0
vn 0 0 0
vn 0 0 0
vn 0 0 0
vn 0 0 0
vn 0 0 0
vn 0 0 0
vn 0 0 0
vn 0 0 0
vn 0 0 0
vn 0 0 0
vn 0 0 0
vn 0 0 0
vn 0 0 0
vn 0 0 0
vn 0 0 0
vn 0 0 0
vn 0 0 0
vn 0 0 0
vn 0 -1 0
vn 0 -1 0
vn 0 -1 0
vn 0 -1 0
vn 0 1 0
vn 0 1 0
vn 0 1 0
vn 0 1 0
vn 0 0 -1
vn 0 0 -1
vn 0 1 0
vn 0 1 0
vn 0 -1 0
vn 0 -1 0
vn 0 0 1
vn 0 0 1
g pb_Mesh-589172_0
f 3/3/3 2/2/2 1/1/1
f 3/3/3 4/4/4 2/2/2
f 7/7/7 6/6/6 5/5/5
f 7/7/7 8/8/8 6/6/6
f 11/11/11 10/10/10 9/9/9
f 11/11/11 12/12/12 10/10/10
f 15/15/15 14/14/14 13/13/13
f 15/15/15 16/16/16 14/14/14
f 19/19/19 18/18/18 17/17/17
f 19/19/19 20/20/20 18/18/18
f 23/23/23 22/22/22 21/21/21
f 23/23/23 24/24/24 22/22/22
f 25/25/25 21/21/21 22/22/22
f 25/25/25 26/26/26 21/21/21
f 27/27/27 6/6/6 8/8/8
f 27/27/27 28/28/28 6/6/6
f 31/31/31 30/30/30 29/29/29
f 31/31/31 32/32/32 30/30/30
f 35/35/35 34/34/34 33/33/33
f 35/35/35 36/36/36 34/34/34
f 37/37/37 23/23/23 21/21/21
f 37/37/37 38/38/38 23/23/23
f 41/41/41 40/40/40 39/39/39
f 41/41/41 42/42/42 40/40/40
f 43/43/43 3/3/3 1/1/1
f 43/43/43 44/44/44 3/3/3
f 47/47/47 46/46/46 45/45/45
f 47/47/47 48/48/48 46/46/46
f 51/51/51 50/50/50 49/49/49
f 51/51/51 52/52/52 50/50/50
f 53/53/53 3/3/3 44/44/44
f 53/53/53 54/54/54 3/3/3
f 55/55/55 41/41/41 39/39/39
f 55/55/55 56/56/56 41/41/41
f 57/57/57 16/16/16 15/15/15
f 57/57/57 58/58/58 16/16/16
f 54/54/54 4/4/4 3/3/3
f 54/54/54 59/59/59 4/4/4
f 60/60/60 30/30/30 32/32/32
f 60/60/60 61/61/61 30/30/30
f 52/52/52 62/62/62 50/50/50
f 52/52/52 63/63/63 62/62/62
f 64/64/64 12/12/12 11/11/11
f 64/64/64 65/65/65 12/12/12
f 66/66/66 61/61/61 60/60/60
f 66/66/66 67/67/67 61/61/61
f 70/70/70 69/69/69 68/68/68
f 70/70/70 71/71/71 69/69/69
f 72/72/72 65/65/65 64/64/64
f 72/72/72 73/73/73 65/65/65
f 74/74/74 59/59/59 54/54/54
f 74/74/74 75/75/75 59/59/59
f 67/67/67 76/76/76 61/61/61
f 67/67/67 77/77/77 76/76/76
f 79/79/79 68/68/68 78/78/78
f 79/79/79 70/70/70 68/68/68
f 80/80/80 75/75/75 74/74/74
f 80/80/80 81/81/81 75/75/75
f 82/82/82 77/77/77 67/67/67
f 82/82/82 83/83/83 77/77/77
f 84/84/84 70/70/70 79/79/79
f 84/84/84 85/85/85 70/70/70
f 88/88/88 87/87/87 86/86/86
f 88/88/88 89/89/89 87/87/87
f 92/92/92 91/91/91 90/90/90
f 95/95/95 94/94/94 93/93/93
f 98/98/98 97/97/97 96/96/96
f 101/101/101 100/100/100 99/99/99
f 104/104/104 103/103/103 102/102/102
f 107/107/107 106/106/106 105/105/105
f 110/110/110 109/109/109 108/108/108
f 113/113/113 112/112/112 111/111/111
f 116/116/116 115/115/115 114/114/114
f 119/119/119 118/118/118 117/117/117
f 122/122/122 121/121/121 120/120/120
f 125/125/125 124/124/124 123/123/123
f 128/128/128 127/127/127 126/126/126
f 128/128/128 129/129/129 127/127/127
f 132/132/132 131/131/131 130/130/130
f 132/132/132 133/133/133 131/131/131
f 134/134/134 64/64/64 11/11/11
f 134/134/134 135/135/135 64/64/64
f 137/137/137 130/130/130 136/136/136
f 137/137/137 132/132/132 130/130/130
f 139/139/139 126/126/126 138/138/138
f 139/139/139 128/128/128 126/126/126
f 140/140/140 4/4/4 59/59/59
f 140/140/140 141/141/141 4/4/4
