g pb_Mesh408868
v 0 0 0
v 7.152557E-07 0 8.000006
v 0 0.25 0
v 7.152557E-07 0.25 8.000006
v 0 0.25 0
v 7.152557E-07 0.25 8.000006
v -0.5 0.25 0.5000019
v -0.4999995 0.25 8.000007
v -0.5 0.25 0.5000019
v -0.4999995 0.25 8.000007
v -0.5 0.5 0.5000019
v -0.4999995 0.5 8.000007
v -0.5 0.5 0.5000019
v -0.4999995 0.5 8.000007
v -1 0.5 1.000002
v -0.9999998 0.5 8.000006
v -1 0.5 1.000002
v -0.9999998 0.5 8.000006
v -1 0.75 1.000002
v -0.9999998 0.75 8.000006
v -1 0.75 1.000002
v -0.9999998 0.75 8.000006
v -1.500001 0.75 1.500002
v -1.5 0.75 8.000006
v -1.500001 0.75 1.500002
v -1.5 0.75 8.000006
v -1.500001 1 1.500002
v -1.5 1 8.000006
v -1.500001 1 1.500002
v -1.5 1 8.000006
v -2.000001 1 2.000002
v -2.000001 1 8.000007
v -2.000001 1 2.000002
v -2.000001 1 8.000007
v -2.000001 1.25 2.000002
v -2.000001 1.25 8.000007
v -2.000001 1.25 2.000002
v -2.000001 1.25 8.000007
v -2.500001 1.25 2.500003
v -2.500001 1.25 8.000007
v -2.500001 1.25 2.500003
v -2.500001 1.25 8.000007
v -2.500001 1.5 2.500003
v -2.500001 1.5 8.000007
v -2.500001 1.5 2.500003
v -2.500001 1.5 8.000007
v -3.000002 1.5 3.000003
v -3.000001 1.5 8.000007
v -3.000002 1.5 3.000003
v -3.000001 1.5 8.000007
v -3.000002 1.75 3.000003
v -3.000001 1.75 8.000007
v -3.000002 1.75 3.000003
v -3.000001 1.75 8.000007
v -3.500003 1.75 3.500004
v -3.500002 1.75 8.000006
v -3.500003 1.75 3.500004
v -3.500002 1.75 8.000006
v -3.500003 2 3.500004
v -3.500002 2 8.000006
v -3.500003 2 3.500004
v -3.500002 2 8.000006
v -4.000003 2 3.999969
v -4.000002 2 8.000006
v 0 0 0
v 0 0.25 0
v -4.000003 0 -7.05719E-05
v -4.000003 0.25 -7.05719E-05
v -4.000003 0.25 -7.05719E-05
v -4.000003 0.25 0.4999294
v -0.5 0.25 0.5000019
v -0.5 0.5 0.5000019
v -4.000003 0.25 0.4999294
v -4.000003 0.5 0.4999294
v -4.000003 0.5 0.4999294
v -4.000003 0.5 0.9999294
v -1 0.5 1.000002
v -1 0.75 1.000002
v -4.000003 0.5 0.9999294
v -4.000003 0.75 0.9999294
v -4.000003 0.75 0.9999294
v -4.000003 0.75 1.499931
v -1.500001 0.75 1.500002
v -1.500001 1 1.500002
v -4.000003 0.75 1.499931
v -4.000003 1 1.499931
v -4.000003 1 1.499931
v -4.000003 1 1.999931
v -2.000001 1 2.000002
v -2.000001 1.25 2.000002
v -4.000003 1 1.999931
v -4.000003 1.25 1.999931
v -4.000003 1.25 1.999931
v -4.000003 1.25 2.499931
v -2.500001 1.25 2.500003
v -2.500001 1.5 2.500003
v -4.000003 1.25 2.499931
v -4.000003 1.5 2.499931
v -4.000003 1.5 2.499931
v -4.000003 1.5 2.999933
v -3.000002 1.5 3.000003
v -3.000002 1.75 3.000003
v -4.000003 1.5 2.999933
v -4.000003 1.75 2.999933
v -4.000003 1.75 2.999933
v -4.000003 1.75 3.499933
v -3.500003 1.75 3.500004
v -3.500003 2 3.500004
v -4.000003 1.75 3.499933
v -4.000003 2 3.499933
v -4.000003 2 3.499933
v -28 0.25 0
v -28 0.25 8.000006
v -28 0 8.000006
v -28 0 0
v -27.5 0.25 0.5
v -27.5 0.25 8.000006
v -28 0.25 8.000006
v -28 0.25 0
v -27.5 0.5 0.5
v -27.5 0.5 8.000006
v -27.5 0.25 8.000006
v -27.5 0.25 0.5
v -27 0.5 1.000002
v -27 0.5 8.000006
v -27.5 0.5 8.000006
v -27.5 0.5 0.5
v -27 0.75 1.000002
v -27 0.75 8.000006
v -27 0.5 8.000006
v -27 0.5 1.000002
v -26.5 0.75 1.500002
v -26.5 0.75 8.000006
v -27 0.75 8.000006
v -27 0.75 1.000002
v -26.5 1 1.500002
v -26.5 1 8.000006
v -26.5 0.75 8.000006
v -26.5 0.75 1.500002
v -26 1 2.000002
v -26 1 8.000006
v -26.5 1 8.000006
v -26.5 1 1.500002
v -26 1.25 2.000002
v -26 1.25 8.000006
v -26 1 8.000006
v -26 1 2.000002
v -25.5 1.25 2.500002
v -25.5 1.25 8.000006
v -26 1.25 8.000006
v -26 1.25 2.000002
v -25.5 1.5 2.500002
v -25.5 1.5 8.000006
v -25.5 1.25 8.000006
v -25.5 1.25 2.500002
v -25 1.5 3.000003
v -25 1.5 8.000006
v -25.5 1.5 8.000006
v -25.5 1.5 2.500002
v -25 1.75 3.000003
v -25 1.75 8.000006
v -25 1.5 8.000006
v -25 1.5 3.000003
v -24.5 1.75 3.500003
v -24.5 1.75 8.000006
v -25 1.75 8.000006
v -25 1.75 3.000003
v -24.5 2 3.500003
v -24.5 2 8.000006
v -24.5 1.75 8.000006
v -24.5 1.75 3.500003
v -23.99999 2 3.999969
v -24 2 8.000006
v -24.5 2 8.000006
v -24.5 2 3.500003
v -24 0 -7.247925E-05
v -24 0.25 -7.247925E-05
v -28 0.25 0
v -28 0 0
v -24 0.25 -7.247925E-05
v -24 0.25 0.4999275
v -24 0.25 0.4999275
v -24 0.5 0.4999275
v -27.5 0.5 0.5
v -27.5 0.25 0.5
v -24 0.5 0.4999275
v -24 0.5 0.9999275
v -24 0.5 0.9999275
v -24 0.75 0.9999275
v -27 0.75 1.000002
v -27 0.5 1.000002
v -24 0.75 0.9999275
v -24 0.75 1.499931
v -24 0.75 1.499931
v -24 1 1.499931
v -26.5 1 1.500002
v -26.5 0.75 1.500002
v -24 1 1.499931
v -24 1 1.999931
v -24 1 1.999931
v -24 1.25 1.999931
v -26 1.25 2.000002
v -26 1 2.000002
v -24 1.25 1.999931
v -24 1.25 2.49993
v -24 1.25 2.49993
v -24 1.5 2.49993
v -25.5 1.5 2.500002
v -25.5 1.25 2.500002
v -24 1.5 2.49993
v -24 1.5 2.999931
v -24 1.5 2.999931
v -24 1.75 2.999931
v -25 1.75 3.000003
v -25 1.5 3.000003
v -24 1.75 2.999931
v -24 1.75 3.499932
v -24 1.75 3.499932
v -24 2 3.499932
v -24.5 2 3.500003
v -24.5 1.75 3.500003
v -24 2 3.499932
v -8 0.25 3.814697E-06
v -4 0 3.814697E-06
v -4 0.25 3.814697E-06
v -8 0 3.814697E-06
v -8 0.25 3.814697E-06
v -4 0.25 3.814697E-06
v -4 0.25 0.5000038
v -8 0.25 0.5000038
v -8 0.5 0.5000038
v -4 0.25 0.5000038
v -4 0.5 0.5000038
v -8 0.25 0.5000038
v -8 0.5 0.5000038
v -4 0.5 0.5000038
v -4 0.5 1.000004
v -8 0.5 1.000004
v -8 0.75 1.000004
v -4 0.5 1.000004
v -4 0.75 1.000004
v -8 0.5 1.000004
v -8 0.75 1.000004
v -4 0.75 1.000004
v -4 0.75 1.500004
v -8 0.75 1.500004
v -8 1 1.500004
v -4 0.75 1.500004
v -4 1 1.500004
v -8 0.75 1.500004
v -8 1 1.500004
v -4 1 1.500004
v -4 1 2.000004
v -8 1 2.000004
v -8 1.25 2.000004
v -4 1 2.000004
v -4 1.25 2.000004
v -8 1 2.000004
v -8 1.25 2.000004
v -4 1.25 2.000004
v -4 1.25 2.500004
v -8 1.25 2.500004
v -8 1.5 2.500004
v -4 1.25 2.500004
v -4 1.5 2.500004
v -8 1.25 2.500004
v -8 1.5 2.500004
v -4 1.5 2.500004
v -4 1.5 3.000004
v -8 1.5 3.000004
v -8 1.75 3.000004
v -4 1.5 3.000004
v -4 1.75 3.000004
v -8 1.5 3.000004
v -8 1.75 3.000004
v -4 1.75 3.000004
v -4 1.75 3.500004
v -8 1.75 3.500004
v -8 2 3.500004
v -4 1.75 3.500004
v -4 2 3.500004
v -8 1.75 3.500004
v -8 2 3.500004
v -4 2 3.500004
v -4 2 4.000004
v -8 2 4.000004
v -20 0.25 3.814697E-06
v -20 0 3.814697E-06
v -24 0.25 3.814697E-06
v -24 0 3.814697E-06
v -24 0.25 3.814697E-06
v -20 0.25 3.814697E-06
v -20 0.25 0.5000038
v -24 0.25 0.5000038
v -20 0.5 0.5000038
v -20 0.25 0.5000038
v -24 0.5 0.5000038
v -24 0.25 0.5000038
v -24 0.5 0.5000038
v -20 0.5 0.5000038
v -20 0.5 1.000004
v -24 0.5 1.000004
v -20 0.75 1.000004
v -20 0.5 1.000004
v -24 0.75 1.000004
v -24 0.5 1.000004
v -24 0.75 1.000004
v -20 0.75 1.000004
v -20 0.75 1.500004
v -24 0.75 1.500004
v -20 1 1.500004
v -20 0.75 1.500004
v -24 1 1.500004
v -24 0.75 1.500004
v -24 1 1.500004
v -20 1 1.500004
v -20 1 2.000004
v -24 1 2.000004
v -20 1.25 2.000004
v -20 1 2.000004
v -24 1.25 2.000004
v -24 1 2.000004
v -24 1.25 2.000004
v -20 1.25 2.000004
v -20 1.25 2.500004
v -24 1.25 2.500004
v -20 1.5 2.500004
v -20 1.25 2.500004
v -24 1.5 2.500004
v -24 1.25 2.500004
v -24 1.5 2.500004
v -20 1.5 2.500004
v -20 1.5 3.000004
v -24 1.5 3.000004
v -20 1.75 3.000004
v -20 1.5 3.000004
v -24 1.75 3.000004
v -24 1.5 3.000004
v -24 1.75 3.000004
v -20 1.75 3.000004
v -20 1.75 3.500004
v -24 1.75 3.500004
v -20 2 3.500004
v -20 1.75 3.500004
v -24 2 3.500004
v -24 1.75 3.500004
v -24 2 3.500004
v -20 2 3.500004
v -20 2 4.000004
v -24 2 4.000004
v -20 2.0001 8.000004
v -24 2.0001 8.000004
v -4 2.0001 8.000004
v -8 2.0001 8.000004
vt 4 0
vt -4 0
vt 4 0.25
vt -4 0.25
vt 4 -2.384186E-07
vt -4 0
vt 3.5 0.4999998
vt -4 0.5
vt 3.5 0.25
vt -4 0.25
vt 3.5 0.5
vt -4 0.5
vt 3.5 0.4999998
vt -4 0.5
vt 3 0.9999999
vt -4 1
vt 3 0.5
vt -4 0.5
vt 3 0.75
vt -4 0.75
vt 3 0.9999999
vt -4 1
vt 2.5 1.5
vt -4 1.5
vt 2.5 0.75
vt -4 0.75
vt 2.5 1
vt -4 1
vt 2.5 1.5
vt -4 1.5
vt 2 2
vt -4 2
vt 2 1
vt -4 1
vt 2 1.25
vt -4 1.25
vt 2 2
vt -4 2
vt 1.5 2.5
vt -4 2.5
vt 1.5 1.25
vt -4 1.25
vt 1.5 1.5
vt -4 1.5
vt 1.5 2.5
vt -4 2.5
vt 1 3
vt -4 3
vt 1.000001 1.5
vt -4 1.5
vt 1.000001 1.75
vt -4 1.75
vt 1 3
vt -4 3
vt 0.5000003 3.5
vt -4 3.5
vt 0.5000007 1.75
vt -4 1.75
vt 0.5000007 2
vt -4 2
vt 0.5000003 3.5
vt -4 3.5
vt 3.546477E-05 4
vt -4 4
vt 7.224084E-05 0
vt 7.224084E-05 0.25
vt 4.000072 0
vt 4.000072 0.25
vt 4.000073 4
vt 3.500073 4
vt 0.5000722 0.25
vt 0.5000722 0.5
vt 4.000073 0.25
vt 4.000073 0.5
vt 3.500073 4
vt 3.000073 4
vt 1.000072 0.5
vt 1.000072 0.75
vt 4.000073 0.5
vt 4.000073 0.75
vt 3.000073 4
vt 2.500071 4
vt 1.500071 0.75
vt 1.500071 1
vt 4.000071 0.75
vt 4.000071 1
vt 2.500071 4
vt 2.000071 4
vt 2.000071 1
vt 2.000071 1.25
vt 4.000071 1
vt 4.000071 1.25
vt 2.000071 4
vt 1.500072 4
vt 2.500072 1.25
vt 2.500072 1.5
vt 4.000072 1.25
vt 4.000072 1.5
vt 1.500072 4
vt 1.000071 4
vt 3.000071 1.5
vt 3.000071 1.75
vt 4.000071 1.5
vt 4.000071 1.75
vt 1.000071 4
vt 0.5000708 4
vt 3.500071 1.75
vt 3.500071 2
vt 4.000071 1.75
vt 4.000071 2
vt 0.5000708 4
vt 4 0.25
vt -4 0.25
vt -4 0
vt 4 0
vt 3.5 0.4999998
vt -4 0.5
vt -4 0
vt 4 -2.384186E-07
vt 3.5 0.5
vt -4 0.5
vt -4 0.25
vt 3.5 0.25
vt 3 0.9999999
vt -4 1
vt -4 0.5
vt 3.5 0.4999998
vt 3 0.75
vt -4 0.75
vt -4 0.5
vt 3 0.5
vt 2.5 1.5
vt -4 1.5
vt -4 1
vt 3 0.9999999
vt 2.5 1
vt -4 1
vt -4 0.75
vt 2.5 0.75
vt 2 2
vt -4 2
vt -4 1.5
vt 2.5 1.5
vt 2 1.25
vt -4 1.25
vt -4 1
vt 2 1
vt 1.5 2.5
vt -4 2.5
vt -4 2
vt 2 2
vt 1.5 1.5
vt -4 1.5
vt -4 1.25
vt 1.5 1.25
vt 1 3
vt -4 3
vt -4 2.5
vt 1.5 2.5
vt 1.000001 1.75
vt -4 1.75
vt -4 1.5
vt 1.000001 1.5
vt 0.5000003 3.5
vt -4 3.5
vt -4 3
vt 1 3
vt 0.5000007 2
vt -4 2
vt -4 1.75
vt 0.5000007 1.75
vt 3.498793E-05 4.000003
vt -4 4
vt -4 3.5
vt 0.5000003 3.5
vt 4.000072 0
vt 4.000072 0.25
vt 7.224084E-05 0.25
vt 7.224084E-05 0
vt 4.000073 4
vt 3.500073 4
vt 4.000073 0.25
vt 4.000073 0.5
vt 0.5000722 0.5
vt 0.5000722 0.25
vt 3.500073 4
vt 3.000073 4
vt 4.000073 0.5
vt 4.000073 0.75
vt 1.000072 0.75
vt 1.000072 0.5
vt 3.000073 4
vt 2.500071 4
vt 4.000071 0.75
vt 4.000071 1
vt 1.500071 1
vt 1.500071 0.75
vt 2.500071 4
vt 2.000071 4
vt 4.000071 1
vt 4.000071 1.25
vt 2.000071 1.25
vt 2.000071 1
vt 2.000071 4
vt 1.500072 4
vt 4.000072 1.25
vt 4.000072 1.5
vt 2.500072 1.5
vt 2.500072 1.25
vt 1.500072 4
vt 1.000071 4
vt 4.000071 1.5
vt 4.000071 1.75
vt 3.000071 1.75
vt 3.000071 1.5
vt 1.000071 4
vt 0.5000708 4
vt 4.000071 1.75
vt 4.000071 2
vt 3.500071 2
vt 3.500071 1.75
vt 0.5000708 4
vt 0 0.25
vt 4 0
vt 4 0.25
vt 0 0
vt 0 0
vt -4 0
vt -4 0.5
vt 0 0.5
vt 0 0.5
vt 4 0.25
vt 4 0.5
vt 0 0.25
vt 0 0.5
vt -4 0.5
vt -4 1
vt 0 1
vt 0 0.75
vt 4 0.5
vt 4 0.75
vt 0 0.5
vt 0 1
vt -4 1
vt -4 1.5
vt 0 1.5
vt 0 1
vt 4 0.75
vt 4 1
vt 0 0.75
vt 0 1.5
vt -4 1.5
vt -4 2
vt 0 2
vt 0 1.25
vt 4 1
vt 4 1.25
vt 0 1
vt 0 2
vt -4 2
vt -4 2.5
vt 0 2.5
vt 0 1.5
vt 4 1.25
vt 4 1.5
vt 0 1.25
vt 0 2.5
vt -4 2.5
vt -4 3
vt 0 3
vt 0 1.75
vt 4 1.5
vt 4 1.75
vt 0 1.5
vt 0 3
vt -4 3
vt -4 3.5
vt 0 3.5
vt 0 2
vt 4 1.75
vt 4 2
vt 0 1.75
vt 0 3.5
vt -4 3.5
vt -4 4
vt 0 4
vt -12 0.25
vt -12 0
vt -16 0.25
vt -16 0
vt 16 0
vt 12 0
vt 12 0.5
vt 16 0.5
vt -12 0.5
vt -12 0.25
vt -16 0.5
vt -16 0.25
vt 16 0.5
vt 12 0.5
vt 12 1
vt 16 1
vt -12 0.75
vt -12 0.5
vt -16 0.75
vt -16 0.5
vt 16 1
vt 12 1
vt 12 1.5
vt 16 1.5
vt -12 1
vt -12 0.75
vt -16 1
vt -16 0.75
vt 16 1.5
vt 12 1.5
vt 12 2
vt 16 2
vt -12 1.25
vt -12 1
vt -16 1.25
vt -16 1
vt 16 2
vt 12 2
vt 12 2.5
vt 16 2.5
vt -12 1.5
vt -12 1.25
vt -16 1.5
vt -16 1.25
vt 16 2.5
vt 12 2.5
vt 12 3
vt 16 3
vt -12 1.75
vt -12 1.5
vt -16 1.75
vt -16 1.5
vt 16 3
vt 12 3
vt 12 3.5
vt 16 3.5
vt -12 2
vt -12 1.75
vt -16 2
vt -16 1.75
vt 16 3.5
vt 12 3.5
vt 12 4
vt 16 4
vt 12 8.00005
vt 16 8.00005
vt -4 8.00005
vt 0 8.00005
vn 1 0 -8.94069E-08
vn 1 0 -8.94069E-08
vn 1 0 -8.94069E-08
vn 1 0 -8.94069E-08
vn 0 1 0
vn 0 1 0
vn 0 1 0
vn 0 1 0
vn 1 0 -6.357825E-08
vn 1 0 -6.357825E-08
vn 1 0 -6.357825E-08
vn 1 0 -6.357825E-08
vn 0 1 0
vn 0 1 0
vn 0 1 0
vn 0 1 0
vn 1 0 -1.021793E-07
vn 1 0 -1.021793E-07
vn 1 0 -1.021793E-07
vn 1 0 -1.021793E-07
vn 0 1 0
vn 0 1 0
vn 0 1 0
vn 0 1 0
vn 1 0 -1.100393E-07
vn 1 0 -1.100393E-07
vn 1 0 -1.100393E-07
vn 1 0 -1.100393E-07
vn 0 1 0
vn 0 1 0
vn 0 1 0
vn 0 1 0
vn 1 0 -7.94728E-08
vn 1 0 -7.94728E-08
vn 1 0 -7.94728E-08
vn 1 0 -7.94728E-08
vn 0 1 0
vn 0 1 0
vn 0 1 0
vn 0 1 0
vn 1 0 -8.66976E-08
vn 1 0 -8.66976E-08
vn 1 0 -8.66976E-08
vn 1 0 -8.66976E-08
vn 0 1 0
vn 0 1 0
vn 0 1 0
vn 0 1 0
vn 1 0 -1.907347E-07
vn 1 0 -1.907347E-07
vn 1 0 -1.907347E-07
vn 1 0 -1.907347E-07
vn 0 1 0
vn 0 1 0
vn 0 1 0
vn 0 1 0
vn 1 0 -2.119275E-07
vn 1 0 -2.119275E-07
vn 1 0 -2.119275E-07
vn 1 0 -2.119275E-07
vn 0 1 0
vn 0 1 0
vn 0 1 0
vn 0 1 0
vn 1.764296E-05 0 -1
vn 1.764296E-05 0 -1
vn 1.764296E-05 0 -1
vn 1.764296E-05 0 -1
vn 0 1 0
vn 0 1 0
vn 2.070834E-05 0 -1
vn 2.070834E-05 0 -1
vn 2.070834E-05 0 -1
vn 2.070834E-05 0 -1
vn 0 1 0
vn 0 1 0
vn 2.415973E-05 0 -1
vn 2.415973E-05 0 -1
vn 2.415973E-05 0 -1
vn 2.415973E-05 0 -1
vn 0 1 0
vn 0 1 0
vn 2.822874E-05 0 -1
vn 2.822874E-05 0 -1
vn 2.822874E-05 0 -1
vn 2.822874E-05 0 -1
vn 0 1 0
vn 0 1 0
vn 3.528592E-05 0 -1
vn 3.528592E-05 0 -1
vn 3.528592E-05 0 -1
vn 3.528592E-05 0 -1
vn 0 1 0
vn 0 1 0
vn 4.768366E-05 0 -1
vn 4.768366E-05 0 -1
vn 4.768366E-05 0 -1
vn 4.768366E-05 0 -1
vn 0 1 0
vn 0 1 0
vn 6.961817E-05 0 -1
vn 6.961817E-05 0 -1
vn 6.961817E-05 0 -1
vn 6.961817E-05 0 -1
vn 0 1 0
vn 0 1 0
vn 0.0001411437 0 -1
vn 0.0001411437 0 -1
vn 0.0001411437 0 -1
vn 0.0001411437 0 -1
vn 0 1 0
vn -1 0 0
vn -1 0 0
vn -1 0 0
vn -1 0 0
vn 0 1 0
vn 0 1 0
vn 0 1 0
vn 0 1 0
vn -1 0 0
vn -1 0 0
vn -1 0 0
vn -1 0 0
vn 0 1 0
vn 0 1 0
vn 0 1 0
vn 0 1 0
vn -1 0 2.724782E-07
vn -1 0 2.724782E-07
vn -1 0 2.724782E-07
vn -1 0 2.724782E-07
vn 0 1 0
vn 0 1 0
vn 0 1 0
vn 0 1 0
vn -1 0 2.934381E-07
vn -1 0 2.934381E-07
vn -1 0 2.934381E-07
vn -1 0 2.934381E-07
vn 0 1 0
vn 0 1 0
vn 0 1 0
vn 0 1 0
vn -1 0 3.178912E-07
vn -1 0 3.178912E-07
vn -1 0 3.178912E-07
vn -1 0 3.178912E-07
vn 0 1 0
vn 0 1 0
vn 0 1 0
vn 0 1 0
vn -1 0 0
vn -1 0 0
vn -1 0 0
vn -1 0 0
vn 0 1 0
vn 0 1 0
vn 0 1 0
vn 0 1 0
vn -1 0 0
vn -1 0 0
vn -1 0 0
vn -1 0 0
vn 0 1 0
vn 0 1 0
vn 0 1 0
vn 0 1 0
vn -1 0 0
vn -1 0 0
vn -1 0 0
vn -1 0 0
vn 0 1 0
vn 0 1 0
vn 0 1 0
vn 0 1 0
vn -1.81198E-05 0 -1
vn -1.81198E-05 0 -1
vn -1.81198E-05 0 -1
vn -1.81198E-05 0 -1
vn 0 1 0
vn 0 1 0
vn -2.070833E-05 0 -1
vn -2.070833E-05 0 -1
vn -2.070833E-05 0 -1
vn -2.070833E-05 0 -1
vn 0 1 0
vn 0 1 0
vn -2.47955E-05 0 -1
vn -2.47955E-05 0 -1
vn -2.47955E-05 0 -1
vn -2.47955E-05 0 -1
vn 0 1 0
vn 0 1 0
vn -2.822872E-05 0 -1
vn -2.822872E-05 0 -1
vn -2.822872E-05 0 -1
vn -2.822872E-05 0 -1
vn 0 1 0
vn 0 1 0
vn -3.528588E-05 0 -1
vn -3.528588E-05 0 -1
vn -3.528588E-05 0 -1
vn -3.528588E-05 0 -1
vn 0 1 0
vn 0 1 0
vn -4.768365E-05 0 -1
vn -4.768365E-05 0 -1
vn -4.768365E-05 0 -1
vn -4.768365E-05 0 -1
vn 0 1 0
vn 0 1 0
vn -7.152544E-05 0 -1
vn -7.152544E-05 0 -1
vn -7.152544E-05 0 -1
vn -7.152544E-05 0 -1
vn 0 1 0
vn 0 1 0
vn -0.0001411433 0 -1
vn -0.0001411433 0 -1
vn -0.0001411433 0 -1
vn -0.0001411433 0 -1
vn 0 1 0
vn 0 0 -1
vn 0 0 -1
vn 0 0 -1
vn 0 0 -1
vn 0 1 0
vn 0 1 0
vn 0 1 0
vn 0 1 0
vn 0 0 -1
vn 0 0 -1
vn 0 0 -1
vn 0 0 -1
vn 0 1 0
vn 0 1 0
vn 0 1 0
vn 0 1 0
vn 0 0 -1
vn 0 0 -1
vn 0 0 -1
vn 0 0 -1
vn 0 1 0
vn 0 1 0
vn 0 1 0
vn 0 1 0
vn 0 0 -1
vn 0 0 -1
vn 0 0 -1
vn 0 0 -1
vn 0 1 0
vn 0 1 0
vn 0 1 0
vn 0 1 0
vn 0 0 -1
vn 0 0 -1
vn 0 0 -1
vn 0 0 -1
vn 0 1 0
vn 0 1 0
vn 0 1 0
vn 0 1 0
vn 0 0 -1
vn 0 0 -1
vn 0 0 -1
vn 0 0 -1
vn 0 1 0
vn 0 1 0
vn 0 1 0
vn 0 1 0
vn 0 0 -1
vn 0 0 -1
vn 0 0 -1
vn 0 0 -1
vn 0 1 0
vn 0 1 0
vn 0 1 0
vn 0 1 0
vn 0 0 -1
vn 0 0 -1
vn 0 0 -1
vn 0 0 -1
vn 0 1 0
vn 0 1 0
vn 0 1 0
vn 0 1 0
vn 0 0 -1
vn 0 0 -1
vn 0 0 -1
vn 0 0 -1
vn 0 1 0
vn 0 1 0
vn 0 1 0
vn 0 1 0
vn 0 0 -1
vn 0 0 -1
vn 0 0 -1
vn 0 0 -1
vn 0 1 0
vn 0 1 0
vn 0 1 0
vn 0 1 0
vn 0 0 -1
vn 0 0 -1
vn 0 0 -1
vn 0 0 -1
vn 0 1 0
vn 0 1 0
vn 0 1 0
vn 0 1 0
vn 0 0 -1
vn 0 0 -1
vn 0 0 -1
vn 0 0 -1
vn 0 1 0
vn 0 1 0
vn 0 1 0
vn 0 1 0
vn 0 0 -1
vn 0 0 -1
vn 0 0 -1
vn 0 0 -1
vn 0 1 0
vn 0 1 0
vn 0 1 0
vn 0 1 0
vn 0 0 -1
vn 0 0 -1
vn 0 0 -1
vn 0 0 -1
vn 0 1 0
vn 0 1 0
vn 0 1 0
vn 0 1 0
vn 0 0 -1
vn 0 0 -1
vn 0 0 -1
vn 0 0 -1
vn 0 1 0
vn 0 1 0
vn 0 1 0
vn 0 1 0
vn 0 0 -1
vn 0 0 -1
vn 0 0 -1
vn 0 0 -1
vn 0 1 0
vn 0 1 0
vn 0 1 0
vn 0 1 0
vn 0 1 -2.497435E-05
vn 0 1 -2.497435E-05
vn 0 1 -2.497435E-05
vn 0 1 -2.497435E-05
g pb_Mesh408868_0
f 3/3/3 2/2/2 1/1/1
f 3/3/3 4/4/4 2/2/2
f 7/7/7 6/6/6 5/5/5
f 7/7/7 8/8/8 6/6/6
f 11/11/11 10/10/10 9/9/9
f 11/11/11 12/12/12 10/10/10
f 15/15/15 14/14/14 13/13/13
f 15/15/15 16/16/16 14/14/14
f 19/19/19 18/18/18 17/17/17
f 19/19/19 20/20/20 18/18/18
f 23/23/23 22/22/22 21/21/21
f 23/23/23 24/24/24 22/22/22
f 27/27/27 26/26/26 25/25/25
f 27/27/27 28/28/28 26/26/26
f 31/31/31 30/30/30 29/29/29
f 31/31/31 32/32/32 30/30/30
f 35/35/35 34/34/34 33/33/33
f 35/35/35 36/36/36 34/34/34
f 39/39/39 38/38/38 37/37/37
f 39/39/39 40/40/40 38/38/38
f 43/43/43 42/42/42 41/41/41
f 43/43/43 44/44/44 42/42/42
f 47/47/47 46/46/46 45/45/45
f 47/47/47 48/48/48 46/46/46
f 51/51/51 50/50/50 49/49/49
f 51/51/51 52/52/52 50/50/50
f 55/55/55 54/54/54 53/53/53
f 55/55/55 56/56/56 54/54/54
f 59/59/59 58/58/58 57/57/57
f 59/59/59 60/60/60 58/58/58
f 63/63/63 62/62/62 61/61/61
f 63/63/63 64/64/64 62/62/62
f 67/67/67 66/66/66 65/65/65
f 67/67/67 68/68/68 66/66/66
f 69/69/69 7/7/7 5/5/5
f 69/69/69 70/70/70 7/7/7
f 73/73/73 72/72/72 71/71/71
f 73/73/73 74/74/74 72/72/72
f 75/75/75 15/15/15 13/13/13
f 75/75/75 76/76/76 15/15/15
f 79/79/79 78/78/78 77/77/77
f 79/79/79 80/80/80 78/78/78
f 81/81/81 23/23/23 21/21/21
f 81/81/81 82/82/82 23/23/23
f 85/85/85 84/84/84 83/83/83
f 85/85/85 86/86/86 84/84/84
f 87/87/87 31/31/31 29/29/29
f 87/87/87 88/88/88 31/31/31
f 91/91/91 90/90/90 89/89/89
f 91/91/91 92/92/92 90/90/90
f 93/93/93 39/39/39 37/37/37
f 93/93/93 94/94/94 39/39/39
f 97/97/97 96/96/96 95/95/95
f 97/97/97 98/98/98 96/96/96
f 99/99/99 47/47/47 45/45/45
f 99/99/99 100/100/100 47/47/47
f 103/103/103 102/102/102 101/101/101
f 103/103/103 104/104/104 102/102/102
f 105/105/105 55/55/55 53/53/53
f 105/105/105 106/106/106 55/55/55
f 109/109/109 108/108/108 107/107/107
f 109/109/109 110/110/110 108/108/108
f 111/111/111 63/63/63 61/61/61
f 114/114/114 113/113/113 112/112/112
f 115/115/115 114/114/114 112/112/112
f 118/118/118 117/117/117 116/116/116
f 119/119/119 118/118/118 116/116/116
f 122/122/122 121/121/121 120/120/120
f 123/123/123 122/122/122 120/120/120
f 126/126/126 125/125/125 124/124/124
f 127/127/127 126/126/126 124/124/124
f 130/130/130 129/129/129 128/128/128
f 131/131/131 130/130/130 128/128/128
f 134/134/134 133/133/133 132/132/132
f 135/135/135 134/134/134 132/132/132
f 138/138/138 137/137/137 136/136/136
f 139/139/139 138/138/138 136/136/136
f 142/142/142 141/141/141 140/140/140
f 143/143/143 142/142/142 140/140/140
f 146/146/146 145/145/145 144/144/144
f 147/147/147 146/146/146 144/144/144
f 150/150/150 149/149/149 148/148/148
f 151/151/151 150/150/150 148/148/148
f 154/154/154 153/153/153 152/152/152
f 155/155/155 154/154/154 152/152/152
f 158/158/158 157/157/157 156/156/156
f 159/159/159 158/158/158 156/156/156
f 162/162/162 161/161/161 160/160/160
f 163/163/163 162/162/162 160/160/160
f 166/166/166 165/165/165 164/164/164
f 167/167/167 166/166/166 164/164/164
f 170/170/170 169/169/169 168/168/168
f 171/171/171 170/170/170 168/168/168
f 174/174/174 173/173/173 172/172/172
f 175/175/175 174/174/174 172/172/172
f 178/178/178 177/177/177 176/176/176
f 179/179/179 178/178/178 176/176/176
f 116/116/116 181/181/181 180/180/180
f 119/119/119 116/116/116 180/180/180
f 184/184/184 183/183/183 182/182/182
f 185/185/185 184/184/184 182/182/182
f 124/124/124 187/187/187 186/186/186
f 127/127/127 124/124/124 186/186/186
f 190/190/190 189/189/189 188/188/188
f 191/191/191 190/190/190 188/188/188
f 132/132/132 193/193/193 192/192/192
f 135/135/135 132/132/132 192/192/192
f 196/196/196 195/195/195 194/194/194
f 197/197/197 196/196/196 194/194/194
f 140/140/140 199/199/199 198/198/198
f 143/143/143 140/140/140 198/198/198
f 202/202/202 201/201/201 200/200/200
f 203/203/203 202/202/202 200/200/200
f 148/148/148 205/205/205 204/204/204
f 151/151/151 148/148/148 204/204/204
f 208/208/208 207/207/207 206/206/206
f 209/209/209 208/208/208 206/206/206
f 156/156/156 211/211/211 210/210/210
f 159/159/159 156/156/156 210/210/210
f 214/214/214 213/213/213 212/212/212
f 215/215/215 214/214/214 212/212/212
f 164/164/164 217/217/217 216/216/216
f 167/167/167 164/164/164 216/216/216
f 220/220/220 219/219/219 218/218/218
f 221/221/221 220/220/220 218/218/218
f 175/175/175 172/172/172 222/222/222
f 225/225/225 224/224/224 223/223/223
f 224/224/224 226/226/226 223/223/223
f 229/229/229 228/228/228 227/227/227
f 229/229/229 227/227/227 230/230/230
f 233/233/233 232/232/232 231/231/231
f 232/232/232 234/234/234 231/231/231
f 237/237/237 236/236/236 235/235/235
f 237/237/237 235/235/235 238/238/238
f 241/241/241 240/240/240 239/239/239
f 240/240/240 242/242/242 239/239/239
f 245/245/245 244/244/244 243/243/243
f 245/245/245 243/243/243 246/246/246
f 249/249/249 248/248/248 247/247/247
f 248/248/248 250/250/250 247/247/247
f 253/253/253 252/252/252 251/251/251
f 253/253/253 251/251/251 254/254/254
f 257/257/257 256/256/256 255/255/255
f 256/256/256 258/258/258 255/255/255
f 261/261/261 260/260/260 259/259/259
f 261/261/261 259/259/259 262/262/262
f 265/265/265 264/264/264 263/263/263
f 264/264/264 266/266/266 263/263/263
f 269/269/269 268/268/268 267/267/267
f 269/269/269 267/267/267 270/270/270
f 273/273/273 272/272/272 271/271/271
f 272/272/272 274/274/274 271/271/271
f 277/277/277 276/276/276 275/275/275
f 277/277/277 275/275/275 278/278/278
f 281/281/281 280/280/280 279/279/279
f 280/280/280 282/282/282 279/279/279
f 285/285/285 284/284/284 283/283/283
f 285/285/285 283/283/283 286/286/286
f 223/223/223 226/226/226 287/287/287
f 226/226/226 288/288/288 287/287/287
f 287/287/287 288/288/288 289/289/289
f 288/288/288 290/290/290 289/289/289
f 293/293/293 292/292/292 291/291/291
f 293/293/293 291/291/291 294/294/294
f 230/230/230 227/227/227 292/292/292
f 230/230/230 292/292/292 293/293/293
f 231/231/231 234/234/234 295/295/295
f 234/234/234 296/296/296 295/295/295
f 295/295/295 296/296/296 297/297/297
f 296/296/296 298/298/298 297/297/297
f 301/301/301 300/300/300 299/299/299
f 301/301/301 299/299/299 302/302/302
f 238/238/238 235/235/235 300/300/300
f 238/238/238 300/300/300 301/301/301
f 239/239/239 242/242/242 303/303/303
f 242/242/242 304/304/304 303/303/303
f 303/303/303 304/304/304 305/305/305
f 304/304/304 306/306/306 305/305/305
f 309/309/309 308/308/308 307/307/307
f 309/309/309 307/307/307 310/310/310
f 246/246/246 243/243/243 308/308/308
f 246/246/246 308/308/308 309/309/309
f 247/247/247 250/250/250 311/311/311
f 250/250/250 312/312/312 311/311/311
f 311/311/311 312/312/312 313/313/313
f 312/312/312 314/314/314 313/313/313
f 317/317/317 316/316/316 315/315/315
f 317/317/317 315/315/315 318/318/318
f 254/254/254 251/251/251 316/316/316
f 254/254/254 316/316/316 317/317/317
f 255/255/255 258/258/258 319/319/319
f 258/258/258 320/320/320 319/319/319
f 319/319/319 320/320/320 321/321/321
f 320/320/320 322/322/322 321/321/321
f 325/325/325 324/324/324 323/323/323
f 325/325/325 323/323/323 326/326/326
f 262/262/262 259/259/259 324/324/324
f 262/262/262 324/324/324 325/325/325
f 263/263/263 266/266/266 327/327/327
f 266/266/266 328/328/328 327/327/327
f 327/327/327 328/328/328 329/329/329
f 328/328/328 330/330/330 329/329/329
f 333/333/333 332/332/332 331/331/331
f 333/333/333 331/331/331 334/334/334
f 270/270/270 267/267/267 332/332/332
f 270/270/270 332/332/332 333/333/333
f 271/271/271 274/274/274 335/335/335
f 274/274/274 336/336/336 335/335/335
f 335/335/335 336/336/336 337/337/337
f 336/336/336 338/338/338 337/337/337
f 341/341/341 340/340/340 339/339/339
f 341/341/341 339/339/339 342/342/342
f 278/278/278 275/275/275 340/340/340
f 278/278/278 340/340/340 341/341/341
f 279/279/279 282/282/282 343/343/343
f 282/282/282 344/344/344 343/343/343
f 343/343/343 344/344/344 345/345/345
f 344/344/344 346/346/346 345/345/345
f 349/349/349 348/348/348 347/347/347
f 349/349/349 347/347/347 350/350/350
f 286/286/286 283/283/283 348/348/348
f 286/286/286 348/348/348 349/349/349
f 349/349/349 350/350/350 351/351/351
f 350/350/350 352/352/352 351/351/351
f 285/285/285 286/286/286 353/353/353
f 286/286/286 354/354/354 353/353/353
