g pb_Mesh360374
v -6 0 -16
v -1 0 -16
v -6 4 -16
v -1 4 -16
v -6 4 -12
v -6 0 -12
v -6 4 -16
v -6 0 -16
v -6 -4 -16
v -6 -4 -12
v -1 -4 -16
v -6 -4 -16
v -1 4 -14
v -1 2 -12
v -1 4 -12
v -1 2 -14
v -6 4 -16
v -1 4 -16
v -1 4 -14
v -6 4 -12
v -1 4 -12
v 0 2 -14
v 0 -2 -12
v 0 2 -12
v 0 -2 -14
v 0 0 -16
v 0 -4 -16
v 0 4 -16
v 0 0 -16
v 0 -4 -16
v -1 -4 -14
v -1 -4 -12
v 0 -2 -14
v 0 -2 -12
v -1 -4 -16
v -1 -4 -14
v 0 -4 -16
v -1 -4 -14
v 0 -2 -14
v 0 -4 -16
v -1 -4 -12
v -1 2 -12
v 0 -2 -12
v 0 2 -12
v -1 2 -12
v -1 2 -14
v 0 2 -12
v 0 2 -14
v 0 4 -14.5
v 0 4 -16
v 0 3.5 -14
v 0 3.5 -14
v 0 2 -14
v -0.5 4 -14
v -1 2 -14
v -1 4 -14
v 0 4 -16
v 0 4 -14.5
v -0.5 4 -14
v 0 4 -14.5
v 0 3.5 -14
v -0.5 4 -14
vt 6 0
vt 1 0
vt 6 4
vt 1 4
vt -12 4
vt -12 0
vt -16 4
vt -16 0
vt -16 -4
vt -12 -4
vt 1 -4
vt 6 -4
vt 14 4
vt 12 2
vt 12 4
vt 14 2
vt 6 -16
vt 1 -16
vt 1 -14
vt 6 -12
vt 1 -12
vt 14 2
vt 12 -2
vt 12 2
vt 14 -2
vt 16 0
vt 16 -4
vt 0 4
vt 0 0
vt 0 -4
vt 14 -4.024922
vt 12 -4.024922
vt 14 -1.788854
vt 12 -1.788854
vt -1 -16
vt -1 -14
vt 0 -16
vt -1 -14
vt 0 -14
vt 0 -16
vt -1 -4
vt -1 2
vt 0 -2
vt 0 2
vt 1 -12
vt 1 -14
vt 0 -12
vt 0 -14
vt 14.5 4
vt 16 4
vt 14 3.5
vt 0 3.5
vt 0 2
vt -0.5 4
vt -1 2
vt -1 4
vt 0 -16
vt 0 -14.5
vt 0.5 -14
vt 10.25305 9.185586
vt 9.899495 8.573214
vt 9.545941 9.185586
vn 0 0 -1
vn 0 0 -1
vn 0 0 -1
vn 0 0 -1
vn -1 0 0
vn -1 0 0
vn -1 0 0
vn -1 0 0
vn -1 0 0
vn -1 0 0
vn 0 0 -1
vn 0 0 -1
vn 1 0 0
vn 1 0 0
vn 1 0 0
vn 1 0 0
vn 0 1 0
vn 0 1 0
vn 0 1 0
vn 0 1 0
vn 0 1 0
vn 1 0 0
vn 1 0 0
vn 1 0 0
vn 1 0 0
vn 1 0 0
vn 1 0 0
vn 0 0 -1
vn 0 0 -1
vn 0 0 -1
vn 0.8944272 -0.4472136 0
vn 0.8944272 -0.4472136 0
vn 0.8944272 -0.4472136 0
vn 0.8944272 -0.4472136 0
vn 0 -1 0
vn 0.4082483 -0.7041242 0.2041242
vn 0.4082483 -0.7041242 0.2041242
vn 0.4082483 -0.7041242 0.2041242
vn 0.8164966 -0.4082483 0.4082483
vn 0.4082483 -0.7041242 0.2041242
vn 0 0 1
vn 0 0 1
vn 0 0 1
vn 0 0 1
vn 0 1 0
vn 0 1 0
vn 0 1 0
vn 0 1 0
vn 1 0 0
vn 1 0 0
vn 1 0 0
vn 0 0 1
vn 0 0 1
vn 0 0 1
vn 0 0 1
vn 0 0 1
vn 0 1 0
vn 0 1 0
vn 0 1 0
vn 0.5773503 0.5773503 0.5773503
vn 0.5773503 0.5773503 0.5773503
vn 0.5773503 0.5773503 0.5773503
g pb_Mesh360374_0
f 3/3/3 2/2/2 1/1/1
f 3/3/3 4/4/4 2/2/2
f 7/7/7 6/6/6 5/5/5
f 7/7/7 8/8/8 6/6/6
f 9/9/9 6/6/6 8/8/8
f 9/9/9 10/10/10 6/6/6
f 11/11/11 1/1/1 2/2/2
f 11/11/11 12/12/12 1/1/1
f 15/15/15 14/14/14 13/13/13
f 14/14/14 16/16/16 13/13/13
f 19/19/19 18/18/18 17/17/17
f 20/20/20 19/19/19 17/17/17
f 20/20/20 21/21/21 19/19/19
f 24/24/24 23/23/23 22/22/22
f 23/23/23 25/25/25 22/22/22
f 22/22/22 25/25/25 26/26/26
f 25/25/25 27/27/27 26/26/26
f 28/28/28 2/2/2 4/4/4
f 28/28/28 29/29/29 2/2/2
f 29/29/29 11/11/11 2/2/2
f 29/29/29 30/30/30 11/11/11
f 33/33/33 32/32/32 31/31/31
f 33/33/33 34/34/34 32/32/32
f 37/37/37 36/36/36 35/35/35
f 40/40/40 39/39/39 38/38/38
f 43/43/43 42/42/42 41/41/41
f 43/43/43 44/44/44 42/42/42
f 47/47/47 46/46/46 45/45/45
f 47/47/47 48/48/48 46/46/46
f 22/22/22 50/50/50 49/49/49
f 22/22/22 26/26/26 50/50/50
f 51/51/51 22/22/22 49/49/49
f 54/54/54 53/53/53 52/52/52
f 53/53/53 54/54/54 55/55/55
f 54/54/54 56/56/56 55/55/55
f 58/58/58 57/57/57 18/18/18
f 19/19/19 58/58/58 18/18/18
f 19/19/19 59/59/59 58/58/58
f 62/62/62 61/61/61 60/60/60
