g pb_Mesh390110
v -7 45 -104
v -57.5 45 -116.25
v -6.99995 45 -143.9299
v -57.5 45 -76.25
v -6.99995 45 -143.9299
v -6.99995 7 -143.9299
v -7 7 -104
v -7 45 -104
vt 7 -104
vt 57.5 -116.25
vt 6.99995 -143.9299
vt 57.5 -76.25
vt 143.9299 45
vt 143.9299 7
vt 104 7
vt 104 45
vn 0 1 0
vn 0 1 0
vn 0 1 0
vn 0 1 0
vn 1 0 1.241952E-06
vn 1 0 1.241952E-06
vn 1 0 1.241952E-06
vn 1 0 1.241952E-06
g pb_Mesh390110_0
f 3/3/3 2/2/2 1/1/1
f 1/1/1 2/2/2 4/4/4
f 7/7/7 6/6/6 5/5/5
f 7/7/7 5/5/5 8/8/8
g pb_Mesh390110_1
