g pb_Mesh-25380
v -1.00003 0 -4.999999
v -3.004074E-05 0 -5.000002
v -1.000015 1 -4.999997
v -1.502037E-05 1 -5
v -1 0 -1
v 0 0 -1
v -1 0 -2
v 0 0 -2
v -1 1 -1
v -1 0 -1
v -1 1 -2
v -1 0 -2
v 0 0 -1
v 0 1 -1
v 0 0 -2
v 0 1 -2
v 0 8 -1
v -1 8 -1
v 0 8 -2
v -1 8 -2
v -1 0 -3
v 0 0 -3
v -1.000009 1 -2.999997
v -1 0 -3
v 0 0 -3
v -8.821487E-06 1 -3
v 0 1 -2
v -1 1 -2
v -8.821487E-06 1 -3
v -1.000009 1 -2.999997
v 0 1 -1
v -1 1 -1
v 0 7 -1
v -1 7 -1
v 0 7 -2
v 0 7 -1
v -1 7 -1
v -1 7 -2
v -1 1 -2
v 0 1 -2
v -1 7 -2
v 0 7 -2
v 0 8 -1
v -1 8 -1
v 0 8 -2
v 0 8 -1
v -2 7 -1
v -2 7 -2
v -2 8 -1
v -2 8 -2
v -1 8 -2
v 0 8 -2
v 0 0 0
v -1 1 0
v 0 1 0
v -1 0 0
v -1 1 -1
v 0 1 -1
v -1 1 0
v 0 1 0
v 0 1 0
v 0 0 0
v 0 -3 -1
v -1 -3 -1
v 0 -2 0
v -1 -2 0
v -1 0 0
v -1 1 0
v 0 0 -1
v -1 0 -1
v 0 -3 -1
v -1 -3 -1
v 0 -2 0
v 0 -3 -1
v -1 -3 -1
v -1 -2 0
v -1 -2 0
v 0 -2 0
v -1 7 -1
v -1 7 -2
v -2 7 -1
v -2 7 -2
v -2 8 -1
v -2 7 -1
v -2 7 -2
v -2 8 -2
v -2 8 -2
v -2 8 -1
v -1.00003 0 -4.999999
v -3.004074E-05 0 -5.000002
v -1.000015 1 -4.999997
v -1.00003 0 -4.999999
v -3.004074E-05 0 -5.000002
v -1.502037E-05 1 -5
v -0.2482959 2.002977 -4.168663
v -0.7517276 2.002977 -4.168662
v -0.248299 2.002977 -4.709845
v -0.7517307 2.002977 -4.709844
v -1.000009 1 -2.999997
v -0.2482959 1.0001 -4.168663
v -0.7517276 1.0001 -4.168662
v -1.502037E-05 1 -5
v -8.821487E-06 1 -3
v -0.248299 1.0001 -4.709845
v -0.2482959 1.0001 -4.168663
v -1.000009 1 -2.999997
v -1.000015 1 -4.999997
v -0.7517276 1.0001 -4.168662
v -0.7517307 1.0001 -4.709844
v -1.000015 1 -4.999997
v -1.502037E-05 1 -5
v -0.7517307 1.0001 -4.709844
v -0.248299 1.0001 -4.709845
v -0.2482959 1.0001 -4.168663
v -0.7517276 1.0001 -4.168662
v -0.2482959 2.002977 -4.168663
v -0.7517276 2.002977 -4.168662
v -0.248299 1.0001 -4.709845
v -0.2482959 1.0001 -4.168663
v -0.248299 2.002977 -4.709845
v -0.2482959 2.002977 -4.168663
v -0.7517276 1.0001 -4.168662
v -0.7517307 1.0001 -4.709844
v -0.7517276 2.002977 -4.168662
v -0.7517307 2.002977 -4.709844
v -0.7517307 1.0001 -4.709844
v -0.248299 1.0001 -4.709845
v -0.7517307 2.002977 -4.709844
v -0.248299 2.002977 -4.709845
vt 1.000016 -9.536961E-06
vt 1.573562E-05 -9.536961E-06
vt 1.000001 0.9999905
vt 7.152557E-07 0.9999905
vt -1 -1
vt 0 -1
vt -1 -2
vt 0 -2
vt -1 1
vt -1 0
vt -2 1
vt -2 0
vt 1 0
vt 1 1
vt 2 0
vt 2 1
vt 0 -1
vt 1 -1
vt 0 -2
vt 1 -2
vt -1 -3
vt 0 -3
vt -3.000006 1
vt -3.000009 0
vt 3 0
vt 3 1
vt 0 -2
vt 1 -2
vt 8.821487E-06 -3
vt 1.000009 -2.999997
vt 0 1
vt -1 1
vt 0 7
vt -1 7
vt 2 7
vt 1 7
vt -1 7
vt -2 7
vt 1 1
vt 0 1
vt 1 7
vt 0 7
vt 0 8
vt -1 8
vt 2 8
vt 1 8
vt -1 7
vt -2 7
vt -1 8
vt -2 8
vt 1 8
vt 0 8
vt 0 0
vt -1 1
vt 0 1
vt -1 0
vt 1 -1
vt 0 -1
vt 1 0
vt 0 0
vt 0 1
vt 0 0
vt 0 -2.828427
vt -1 -2.828427
vt 0 -1.414214
vt -1 -1.414214
vt 0 0
vt 0 1
vt 0 0
vt 1 0
vt 0 -3
vt 1 -3
vt 0 -2
vt 1 -3
vt -1 -3
vt 0 -2
vt -1 -2
vt 0 -2
vt -1 -1
vt -1 -2
vt -2 -1
vt -2 -2
vt -2 8
vt -2 7
vt 2 7
vt 2 8
vt 2 -2
vt 2 -1
vt -1.00003 -4.999999
vt -3.004074E-05 -5.000002
vt -5 1.000009
vt -5.000002 8.821625E-06
vt 5.000002 -3.975057E-10
vt 5 1
vt 0.2482959 -4.168663
vt 0.7517276 -4.168662
vt 0.248299 -4.709845
vt 0.7517307 -4.709844
vt 1.000009 -3.000083
vt 0.2482959 -4.168748
vt 0.7517276 -4.168747
vt 0.0004178503 -5
vt 0.0004116514 -3
vt 0.2487019 -4.709845
vt 0.2486988 -4.168663
vt 0.999606 -2.999997
vt 0.9996122 -4.999997
vt 0.7513247 -4.168662
vt 0.7513278 -4.709844
vt 1.000015 -4.999652
vt 1.501938E-05 -4.999655
vt 0.7517307 -4.709499
vt 0.248299 -4.709499
vt -0.248288 1.0001
vt -0.7517197 1.0001
vt -0.248288 2.002977
vt -0.7517197 2.002977
vt 4.709846 1.0001
vt 4.168664 1.0001
vt 4.709846 2.002977
vt 4.168664 2.002977
vt -4.168666 1.0001
vt -4.709848 1.0001
vt -4.168666 2.002977
vt -4.709848 2.002977
vt 0.7517262 1.0001
vt 0.2482946 1.0001
vt 0.7517262 2.002977
vt 0.2482946 2.002977
vn -2.861023E-06 1.907392E-06 -1
vn -2.861023E-06 1.907392E-06 -1
vn -2.861023E-06 1.907392E-06 -1
vn -2.861023E-06 1.907392E-06 -1
vn 0 -1 0
vn 0 -1 0
vn 0 -1 0
vn 0 -1 0
vn -1 0 0
vn -1 0 0
vn -1 0 0
vn -1 0 0
vn 1 0 0
vn 1 0 0
vn 1 0 0
vn 1 0 0
vn 0 1 0
vn 0 1 0
vn 0 1 0
vn 0 1 0
vn 0 -1 0
vn 0 -1 0
vn -1 -4.41075E-06 4.41075E-06
vn -1 -8.821487E-06 0
vn 1 4.410744E-06 -4.410744E-06
vn 1 8.821487E-06 -8.821487E-06
vn 0 1 0
vn 0 1 0
vn 0 1 0
vn 0 1 0
vn 0 0 1
vn 0 0 1
vn 0 0 1
vn 0 0 1
vn 1 0 0
vn 1 0 0
vn -1 0 0
vn -1 0 0
vn 0 0 -1
vn 0 0 -1
vn 0 0 -1
vn 0 0 -1
vn 0 0 1
vn 0 0 1
vn 1 0 0
vn 1 0 0
vn -1 0 0
vn -1 0 0
vn -1 0 0
vn -1 0 0
vn 0 0 -1
vn 0 0 -1
vn 0 0 1
vn 0 0 1
vn 0 0 1
vn 0 0 1
vn 0 1 0
vn 0 1 0
vn 0 1 0
vn 0 1 0
vn 1 0 0
vn 1 0 0
vn 0 -0.7071068 0.7071068
vn 0 -0.7071068 0.7071068
vn 0 -0.7071068 0.7071068
vn 0 -0.7071068 0.7071068
vn -1 0 0
vn -1 0 0
vn 0 0 -1
vn 0 0 -1
vn 0 0 -1
vn 0 0 -1
vn 1 0 0
vn 1 0 0
vn -1 0 0
vn -1 0 0
vn 0 0 1
vn 0 0 1
vn 0 -1 0
vn 0 -1 0
vn 0 -1 0
vn 0 -1 0
vn 0 0 1
vn 0 0 1
vn 0 0 -1
vn 0 0 -1
vn 0 1 0
vn 0 1 0
vn 0 -1 0
vn 0 -1 0
vn -1 3.099419E-06 9.059908E-06
vn -1 1.502034E-05 1.502038E-05
vn 1 -3.099433E-06 -9.059901E-06
vn 1 -1.502037E-05 -3.099442E-06
vn 0 1 0
vn 0 0.9999999 0
vn 0 0.9999999 0
vn 0 1 0
vn 2.166965E-10 1 8.5582E-05
vn 2.166965E-10 1 8.5582E-05
vn 1.607693E-10 1 8.558196E-05
vn 0.0004028299 0.9999999 -1.248548E-09
vn 0.0004028314 0.9999999 -1.472766E-09
vn 0.0004028314 0.9999999 -1.472766E-09
vn 0.0004028371 0.9999999 -2.301408E-09
vn -0.00040283 0.9999999 1.248548E-09
vn -0.0004028307 0.9999999 1.472763E-09
vn -0.0004028307 0.9999999 1.472763E-09
vn -0.0004028335 0.9999999 2.301385E-09
vn -9.862006E-10 1 -0.0003447021
vn -7.685504E-10 0.9999999 -0.0003447015
vn -7.685504E-10 0.9999999 -0.0003447015
vn -3.362196E-10 0.9999999 -0.0003447004
vn 1.894347E-06 0 1
vn 1.894347E-06 0 1
vn 1.894347E-06 0 1
vn 1.894347E-06 0 1
vn 1 0 -5.727175E-06
vn 1 0 -5.727175E-06
vn 1 0 -5.727175E-06
vn 1 0 -5.727175E-06
vn -1 0 5.72717E-06
vn -1 0 5.72717E-06
vn -1 0 5.72717E-06
vn -1 0 5.72717E-06
vn -9.471735E-07 0 -1
vn -9.471735E-07 0 -1
vn -9.471735E-07 0 -1
vn -9.471735E-07 0 -1
g pb_Mesh-25380_0
f 3/3/3 2/2/2 1/1/1
f 3/3/3 4/4/4 2/2/2
f 7/7/7 6/6/6 5/5/5
f 7/7/7 8/8/8 6/6/6
f 11/11/11 10/10/10 9/9/9
f 11/11/11 12/12/12 10/10/10
f 15/15/15 14/14/14 13/13/13
f 15/15/15 16/16/16 14/14/14
f 19/19/19 18/18/18 17/17/17
f 19/19/19 20/20/20 18/18/18
f 21/21/21 8/8/8 7/7/7
f 21/21/21 22/22/22 8/8/8
f 23/23/23 12/12/12 11/11/11
f 23/23/23 24/24/24 12/12/12
f 25/25/25 16/16/16 15/15/15
f 25/25/25 26/26/26 16/16/16
f 29/29/29 28/28/28 27/27/27
f 29/29/29 30/30/30 28/28/28
f 33/33/33 32/32/32 31/31/31
f 33/33/33 34/34/34 32/32/32
f 35/35/35 14/14/14 16/16/16
f 35/35/35 36/36/36 14/14/14
f 37/37/37 11/11/11 9/9/9
f 37/37/37 38/38/38 11/11/11
f 41/41/41 40/40/40 39/39/39
f 41/41/41 42/42/42 40/40/40
f 43/43/43 34/34/34 33/33/33
f 43/43/43 44/44/44 34/34/34
f 45/45/45 36/36/36 35/35/35
f 45/45/45 46/46/46 36/36/36
f 49/49/49 48/48/48 47/47/47
f 49/49/49 50/50/50 48/48/48
f 51/51/51 42/42/42 41/41/41
f 51/51/51 52/52/52 42/42/42
f 55/55/55 54/54/54 53/53/53
f 54/54/54 56/56/56 53/53/53
f 59/59/59 58/58/58 57/57/57
f 59/59/59 60/60/60 58/58/58
f 61/61/61 13/13/13 14/14/14
f 61/61/61 62/62/62 13/13/13
f 65/65/65 64/64/64 63/63/63
f 65/65/65 66/66/66 64/64/64
f 67/67/67 9/9/9 10/10/10
f 67/67/67 68/68/68 9/9/9
f 71/71/71 70/70/70 69/69/69
f 71/71/71 72/72/72 70/70/70
f 73/73/73 13/13/13 62/62/62
f 73/73/73 74/74/74 13/13/13
f 75/75/75 67/67/67 10/10/10
f 75/75/75 76/76/76 67/67/67
f 77/77/77 53/53/53 56/56/56
f 77/77/77 78/78/78 53/53/53
f 81/81/81 80/80/80 79/79/79
f 81/81/81 82/82/82 80/80/80
f 83/83/83 34/34/34 44/44/44
f 83/83/83 84/84/84 34/34/34
f 85/85/85 51/51/51 41/41/41
f 85/85/85 86/86/86 51/51/51
f 87/87/87 18/18/18 20/20/20
f 87/87/87 88/88/88 18/18/18
f 89/89/89 22/22/22 21/21/21
f 89/89/89 90/90/90 22/22/22
f 91/91/91 24/24/24 23/23/23
f 91/91/91 92/92/92 24/24/24
f 93/93/93 26/26/26 25/25/25
f 93/93/93 94/94/94 26/26/26
f 97/97/97 96/96/96 95/95/95
f 97/97/97 98/98/98 96/96/96
f 100/100/100 99/99/99 29/29/29
f 100/100/100 101/101/101 99/99/99
f 104/104/104 103/103/103 102/102/102
f 104/104/104 105/105/105 103/103/103
f 108/108/108 107/107/107 106/106/106
f 108/108/108 109/109/109 107/107/107
f 112/112/112 111/111/111 110/110/110
f 112/112/112 113/113/113 111/111/111
f 116/116/116 115/115/115 114/114/114
f 116/116/116 117/117/117 115/115/115
f 120/120/120 119/119/119 118/118/118
f 120/120/120 121/121/121 119/119/119
f 124/124/124 123/123/123 122/122/122
f 124/124/124 125/125/125 123/123/123
f 128/128/128 127/127/127 126/126/126
f 128/128/128 129/129/129 127/127/127
