g pb_Mesh278538
v 14.00001 2 8
v 13.99999 2 -4
v 14 0 -4
v 14 0 8
v 13.99999 2 -4
v -49.00002 2 -4.000288
v -49.00002 0 -4.000288
v 14 0 -4
v -48.99999 0 7.999712
v 14 0 8
v 14 0 -4
v -49.00002 0 -4.000288
v -49.00002 2 -4.000288
v 13.99999 2 -4
v 14.00001 2 8
v -48.99999 2 7.999712
v 14.00001 9.918213E-05 8
v -48.99999 2 7.999712
v 14.00001 2 8
v -48.99999 9.918213E-05 7.999712
v -48.99999 9.918213E-05 7.999712
v -49.00002 2 -4.000288
v -48.99999 2 7.999712
v -49.00002 9.918213E-05 -4.000288
vt -8.000024 1.9999
vt 3.999976 1.9999
vt 3.999975 -0.0001001359
vt -8.000025 -0.0001001357
vt -13.99997 2
vt 49.00003 2
vt 49.00003 0
vt -13.99998 0
vt -48.99999 7.999712
vt 14 8
vt 14 -4
vt -49.00002 -4.000288
vt 49.00002 -4.000288
vt -13.99999 -4
vt -14.00001 8
vt 48.99999 7.999712
vt 14.00004 9.918213E-05
vt -48.99995 2
vt 14.00004 2
vt -48.99995 9.918213E-05
vt 7.999619 9.918213E-05
vt -4.000381 2
vt 7.999619 2
vt -4.000381 9.918213E-05
vn 1 1.907349E-06 -8.742015E-07
vn 1 7.152557E-06 -1.748403E-06
vn 1 1.907349E-06 -8.742015E-07
vn 1 -3.33786E-06 0
vn 4.567797E-06 -1.191929E-07 -1
vn 4.564013E-06 0 -1
vn 4.567797E-06 -1.191929E-07 -1
vn 4.571581E-06 -2.383859E-07 -1
vn 0 -1 0
vn 0 -1 0
vn 0 -1 0
vn 0 -1 0
vn 0 1 0
vn 0 1 0
vn 0 1 0
vn 0 1 0
vn -4.564013E-06 0 1
vn -4.564013E-06 0 1
vn -4.564013E-06 0 1
vn -4.564013E-06 0 1
vn -1 0 1.907349E-06
vn -1 0 1.907349E-06
vn -1 0 1.907349E-06
vn -1 0 1.907349E-06
g pb_Mesh278538_0
f 3/3/3 2/2/2 1/1/1
f 4/4/4 3/3/3 1/1/1
f 7/7/7 6/6/6 5/5/5
f 8/8/8 7/7/7 5/5/5
f 11/11/11 10/10/10 9/9/9
f 12/12/12 11/11/11 9/9/9
g pb_Mesh278538_1
f 15/15/15 14/14/14 13/13/13
f 16/16/16 15/15/15 13/13/13
f 19/19/19 18/18/18 17/17/17
f 18/18/18 20/20/20 17/17/17
f 23/23/23 22/22/22 21/21/21
f 22/22/22 24/24/24 21/21/21
