g pb_Mesh334030
v 0 2 0
v 0 0 0
v 0 2 0
v 0 2 0
v 0 0 0
v 0 0 0
v -20 2 0
v 0 0 0
v 0 2 0
v -20 0 0
v -20 -2 -9.918213E-05
v 0 -2 -9.918213E-05
v -20 -6 -0.0001983643
v 0 -6 -0.0001983643
v -20 -14 -0.0002975464
v 0 -14 -0.0002975464
vt 0 0
vt 0 0
vt 0 0
vt 0 0
vt 0 0
vt 0 0
vt 20 2
vt 0 0
vt 0 2
vt 20 0
vt 20 -2
vt 0 -2
vt 20 -6
vt 0 -6
vt 20 -14
vt 0 -14
vn 0 0 0
vn 0 0 0
vn 0 0 0
vn 0 0 0
vn 0 0 0
vn 0 0 0
vn 0 0 -1
vn 0 0 -1
vn 0 0 -1
vn 0 0 -1
vn 0 4.959106E-05 -1
vn 0 4.959106E-05 -1
vn 0 2.479553E-05 -1
vn 0 2.479553E-05 -1
vn 0 1.239777E-05 -1
vn 0 1.239777E-05 -1
g pb_Mesh334030_0
g pb_Mesh334030_1
f 3/3/3 2/2/2 1/1/1
f 6/6/6 5/5/5 4/4/4
f 9/9/9 8/8/8 7/7/7
f 8/8/8 10/10/10 7/7/7
f 10/10/10 8/8/8 11/11/11
f 8/8/8 12/12/12 11/11/11
f 11/11/11 12/12/12 13/13/13
f 12/12/12 14/14/14 13/13/13
f 13/13/13 14/14/14 15/15/15
f 14/14/14 16/16/16 15/15/15
