g pb_Mesh261742
v 0 0 0
v -32 0 0
v 0 32 0
v -32 32 0
v -32 0 0
v -32 0 -32
v -32 32 0
v -32 32 -32
v -32 0 -32
v 0 0 -32
v -32 32 -32
v 0 32 -32
v 0 0 -32
v 0 0 0
v 0 32 -32
v 0 32 0
v -5.863861 -3 -5.863861
v -26.13614 -3 -5.863861
v -5.863861 -3 -26.13614
v -26.13614 -3 -26.13614
v 0 0 -32
v -32 0 -32
v 0 0 0
v -32 0 0
v 0 32 0
v -32 32 0
v -5.863857 32.0001 -5.863857
v -26.13614 32.0001 -5.863857
v 0 32 -32
v 0 32 0
v -5.863857 32.0001 -26.13614
v -5.863857 32.0001 -5.863857
v -32 32 0
v -32 32 -32
v -26.13614 32.0001 -5.863857
v -26.13614 32.0001 -26.13614
v -32 32 -32
v 0 32 -32
v -26.13614 32.0001 -26.13614
v -5.863857 32.0001 -26.13614
v -5.863857 32.0001 -5.863857
v -26.13614 32.0001 -5.863857
v -5.863861 -3 -5.863861
v -26.13614 -3 -5.863861
v -5.863857 32.0001 -26.13614
v -5.863857 32.0001 -5.863857
v -5.863861 -3 -26.13614
v -5.863861 -3 -5.863861
v -26.13614 32.0001 -5.863857
v -26.13614 32.0001 -26.13614
v -26.13614 -3 -5.863861
v -26.13614 -3 -26.13614
v -26.13614 32.0001 -26.13614
v -5.863857 32.0001 -26.13614
v -26.13614 -3 -26.13614
v -5.863861 -3 -26.13614
vt 0 0
vt -32 0
vt 0 32
vt -32 32
vt 0 0
vt -32 0
vt 0 32
vt -32 32
vt 32 0
vt 0 0
vt 32 32
vt 0 32
vt 32 0
vt 0 0
vt 32 32
vt 0 32
vt 5.863861 -5.863861
vt 26.13614 -5.863861
vt 5.863861 -26.13614
vt 26.13614 -26.13614
vt 0 -32
vt -32 -32
vt 0 0
vt -32 0
vt 0 -0.0005412526
vt 32 -0.0005412526
vt 5.863857 -5.864398
vt 26.13614 -5.864398
vt 0.0005412526 -32
vt 0.0005412526 0
vt 5.864398 -26.13614
vt 5.864398 -5.863857
vt 31.99946 0
vt 31.99946 -32
vt 26.1356 -5.863857
vt 26.1356 -26.13614
vt 32 -31.99946
vt 0 -31.99946
vt 26.13614 -26.1356
vt 5.863857 -26.1356
vt 5.863857 32.0001
vt 26.13614 32.0001
vt 5.863861 -3.000001
vt 26.13614 -3.000001
vt -26.13614 32.0001
vt -5.863857 32.0001
vt -26.13614 -3.000001
vt -5.863861 -3.000001
vt 5.863857 32.0001
vt 26.13614 32.0001
vt 5.863861 -2.999997
vt 26.13614 -2.999997
vt -26.13614 32.0001
vt -5.863857 32.0001
vt -26.13614 -3
vt -5.863861 -3
vn 0 0 1
vn 0 0 1
vn 0 0 1
vn 0 0 1
vn -1 0 0
vn -1 0 0
vn -1 0 0
vn -1 0 0
vn 0 0 -1
vn 0 0 -1
vn 0 0 -1
vn 0 0 -1
vn 1 0 0
vn 1 0 0
vn 1 0 0
vn 1 0 0
vn 0 1 0
vn 0 1 0
vn 0 1 0
vn 0 1 0
vn 0 -1 0
vn 0 -1 0
vn 0 -1 0
vn 0 -1 0
vn 0 0.9999999 1.691414E-05
vn 0 1 1.691415E-05
vn 0 1 1.691415E-05
vn 0 1 1.691415E-05
vn 1.691414E-05 0.9999999 0
vn 1.691415E-05 1 0
vn 1.691415E-05 1 0
vn 1.691415E-05 1 0
vn -1.691414E-05 0.9999999 0
vn -1.691415E-05 1 0
vn -1.691415E-05 1 0
vn -1.691415E-05 1 0
vn 0 0.9999999 -1.691414E-05
vn 0 1 -1.691415E-05
vn 0 1 -1.691415E-05
vn 0 1 -1.691415E-05
vn 0 1.08991E-07 -1
vn 0 1.08991E-07 -1
vn 0 1.08991E-07 -1
vn 0 1.08991E-07 -1
vn -1 1.08991E-07 0
vn -1 1.08991E-07 0
vn -1 1.08991E-07 0
vn -1 1.08991E-07 0
vn 1 1.08991E-07 0
vn 1 1.08991E-07 0
vn 1 1.08991E-07 0
vn 1 1.08991E-07 0
vn 0 0 1
vn 0 0 1
vn 0 0 1
vn 0 0 1
g pb_Mesh261742_0
f 3/3/3 2/2/2 1/1/1
f 3/3/3 4/4/4 2/2/2
f 7/7/7 6/6/6 5/5/5
f 7/7/7 8/8/8 6/6/6
f 11/11/11 10/10/10 9/9/9
f 11/11/11 12/12/12 10/10/10
f 15/15/15 14/14/14 13/13/13
f 15/15/15 16/16/16 14/14/14
f 19/19/19 18/18/18 17/17/17
f 19/19/19 20/20/20 18/18/18
f 23/23/23 22/22/22 21/21/21
f 23/23/23 24/24/24 22/22/22
f 27/27/27 26/26/26 25/25/25
f 27/27/27 28/28/28 26/26/26
f 31/31/31 30/30/30 29/29/29
f 31/31/31 32/32/32 30/30/30
f 35/35/35 34/34/34 33/33/33
f 35/35/35 36/36/36 34/34/34
f 39/39/39 38/38/38 37/37/37
f 39/39/39 40/40/40 38/38/38
f 43/43/43 42/42/42 41/41/41
f 43/43/43 44/44/44 42/42/42
f 47/47/47 46/46/46 45/45/45
f 47/47/47 48/48/48 46/46/46
f 51/51/51 50/50/50 49/49/49
f 51/51/51 52/52/52 50/50/50
f 55/55/55 54/54/54 53/53/53
f 55/55/55 56/56/56 54/54/54
