g pb_Mesh137396
v 0 0 1
v -1 0 1
v 0 1 1
v -1 1 1
v -1 0 0
v -1 0 -1
v -1 1 0
v -1 1 -1
v -1 0 -1
v 0 0 -1
v -1 1 -1
v 0 1 -1
v 3 0 -1
v 3 0 0
v 3 1 -1
v 3 1 0
v 0 2 0
v -1 2 0
v 0 2 -1
v -1 2 -1
v 0 0 -1
v -1 0 -1
v 0 0 0
v -1 0 0
v 1 0 -1
v 1 0 0
v 0 1 -2
v 0 0 -2
v 1 1 -2
v 1 0 -2
v 1 0 1
v 1 1 1
v 0 5.75 0
v 0 5.75 -1
v 1 5.75 0
v 1 5.75 -1
v 2 0 -1
v 2 0 0
v 2 1 -2
v 2 0 -2
v 1 0 0
v 1 1 0
v 2 0 0
v 2 1 0
v 2 5.75 0
v 2 5.75 -1
v 3 0 -1
v 3 0 0
v 2 1 -1
v 2 0 -1
v 3 1 -1
v 3 0 -1
v 3 0 0
v 3 1 0
v 2 2 0
v 2 2 -1
v 3 2 0
v 3 2 -1
v 2 4.25 -1
v 1 4.25 -1
v 2 4.25 -2
v 1 4.25 -2
v 1 0 -2
v 2 0 -2
v 2 0 -1
v 2 1 -1
v 2 0 -2
v 2 1 -2
v 0 1 -1
v 0 0 -1
v 0 1 -2
v 0 0 -2
v 1 1 -1
v 0 1 -1
v 1 1 -2
v 0 1 -2
v 0 0 -2
v -1 2 0
v -1 2 -1
v 3 2 0
v 2 2 0
v 2 2 -1
v 3 2 -1
v 3 2 -1
v 3 2 0
v 0 2 1
v -1 2 1
v 1 2 0
v 2 2 -2
v 2 2 -1
v 1 2 1
v 1 1 -1
v 0 2 -1
v 1 2 -1
v -1 2 -1
v 1 1 -1
v 1 1 -2
v 1 2 -1
v 1 2 -2
v 1 2 -2
v 2 2 -2
v 2 2 0
v 2 4.25 -1
v 2 4.25 0
v 2 4.25 -2
v 1 4.25 -1
v 1 4.25 -2
v 1 4.25 -2
v 2 4.25 -2
v 2 4.25 0
v 1 4.25 0
v 0 2 0
v 0 2 -1
v 0 4.25 0
v 0 4.25 -1
v 0 2 0
v 0 4.25 0
v 0 4.25 -1
v 1 4.25 -1
v 2 5.75 0
v 1 5.75 0
v 2 4.25 -1
v 1 5.75 -1
v 2 5.75 -1
v 2 5.75 -1
v 2 5.75 0
v 0 5.75 0
v 0 5.75 -1
v 0 5.75 0
v 0 5.75 -1
v 1 2 0
v 1 1 0
v 1 2 1
v 1 1 1
v 1 2 0
v 0 2 1
v 1 2 1
v -1 1 1
v -1 2 1
v -1 2 1
v 0 0 1
v -1 0 1
v 1 0 1
v -1 0 1
v 1 0 0
v 1 0 1
vt 0 0
vt -1 0
vt 0 1
vt -1 1
vt 0 0
vt -1 0
vt 0 1
vt -1 1
vt 1 0
vt 0 0
vt 1 1
vt 0 1
vt 1 0
vt 0 0
vt 1 1
vt 0 1
vt 0 0
vt 1 0
vt 0 -1
vt 1 -1
vt 0 -1
vt -1 -1
vt 0 0
vt -1 0
vt 1 -1
vt 1 0
vt 0 1
vt 0 0
vt -1 1
vt -1 0
vt 1 0
vt 1 1
vt 0 0
vt 0 -1
vt -1 0
vt -1 -1
vt 2 -1
vt 2 0
vt -2 1
vt -2 0
vt 1 0
vt 1 1
vt 2 0
vt 2 1
vt -2 0
vt -2 -1
vt 3 -1
vt 3 0
vt -2 1
vt -2 0
vt -3 1
vt -3 0
vt 3 0
vt 3 1
vt -2 0
vt -2 -1
vt -3 0
vt -3 -1
vt -2 -1
vt -1 -1
vt -2 -2
vt -1 -2
vt 1 -2
vt 2 -2
vt 1 0
vt 1 1
vt 2 0
vt 2 1
vt -1 1
vt -1 0
vt -2 1
vt -2 0
vt -1 -1
vt 0 -1
vt -1 -2
vt 0 -2
vt 0 -2
vt 0 2
vt -1 2
vt 3 2
vt 2 2
vt -2 2
vt -3 2
vt 1 2
vt 0 2
vt 0 2
vt -1 2
vt 1 2
vt 2 2
vt 1 2
vt 1 2
vt -1 1
vt 0 2
vt -1 2
vt 1 2
vt -1 1
vt -2 1
vt -1 2
vt -2 2
vt -1 2
vt -2 2
vt 0 2
vt 1 4.25
vt 0 4.25
vt 2 4.25
vt -1 4.25
vt -2 4.25
vt -1 4.25
vt -2 4.25
vt 2 4.25
vt 1 4.25
vt 0 2
vt -1 2
vt 0 4.25
vt -1 4.25
vt 0 2
vt 0 4.25
vt 0 4.25
vt -1 4.25
vt 2 5.75
vt 1 5.75
vt -2 4.25
vt -1 5.75
vt -2 5.75
vt 1 5.75
vt 0 5.75
vt 0 5.75
vt -1 5.75
vt 0 5.75
vt 0 5.75
vt 0 2
vt 0 1
vt -1 2
vt -1 1
vt -1 0
vt 0 1
vt -1 1
vt 1 1
vt 1 2
vt 1 1
vt 0 1
vt -1 1
vt 1 1
vt 1 0
vt 0 0
vt -1 0
vn 0 0 1
vn 0 0 1
vn 0 0 1
vn 0 0 1
vn -1 0 0
vn -1 0 0
vn -1 0 0
vn -1 0 0
vn 0 0 -1
vn 0 0 -1
vn 0 0 -1
vn 0 0 -1
vn 1 0 0
vn 1 0 0
vn 1 0 0
vn 1 0 0
vn 0 1 0
vn 0 1 0
vn 0 1 0
vn 0 1 0
vn 0 -1 0
vn 0 -1 0
vn 0 -1 0
vn 0 -1 0
vn 0 -1 0
vn 0 -1 0
vn 0 0 -1
vn 0 0 -1
vn 0 0 -1
vn 0 0 -1
vn 0 0 1
vn 0 0 1
vn 0 1 0
vn 0 1 0
vn 0 1 0
vn 0 1 0
vn 0 -1 0
vn 0 -1 0
vn 0 0 -1
vn 0 0 -1
vn 0 0 1
vn 0 0 1
vn 0 0 1
vn 0 0 1
vn 0 1 0
vn 0 1 0
vn 0 -1 0
vn 0 -1 0
vn 0 0 -1
vn 0 0 -1
vn 0 0 -1
vn 0 0 -1
vn 0 0 1
vn 0 0 1
vn 0 1 0
vn 0 1 0
vn 0 1 0
vn 0 1 0
vn 0 1 0
vn 0 1 0
vn 0 1 0
vn 0 1 0
vn 0 -1 0
vn 0 -1 0
vn 1 0 0
vn 1 0 0
vn 1 0 0
vn 1 0 0
vn -1 0 0
vn -1 0 0
vn -1 0 0
vn -1 0 0
vn 0 1 0
vn 0 1 0
vn 0 1 0
vn 0 1 0
vn 0 -1 0
vn -1 0 0
vn -1 0 0
vn 0 0 1
vn 0 0 1
vn 0 0 -1
vn 0 0 -1
vn 1 0 0
vn 1 0 0
vn 0 0 1
vn 0 0 1
vn 0 0 1
vn 1 0 0
vn 1 0 0
vn 0 0 1
vn 0 0 -1
vn 0 0 -1
vn 0 0 -1
vn 0 0 -1
vn -1 0 0
vn -1 0 0
vn -1 0 0
vn -1 0 0
vn 0 0 -1
vn 0 0 -1
vn 1 0 0
vn 1 0 0
vn 1 0 0
vn 1 0 0
vn -1 0 0
vn -1 0 0
vn 0 0 -1
vn 0 0 -1
vn 0 0 1
vn 0 0 1
vn -1 0 0
vn -1 0 0
vn -1 0 0
vn -1 0 0
vn 0 0 1
vn 0 0 1
vn 0 0 -1
vn 0 0 -1
vn 0 0 1
vn 0 0 1
vn 0 0 -1
vn 0 0 -1
vn 0 0 -1
vn 1 0 0
vn 1 0 0
vn -1 0 0
vn -1 0 0
vn 0 0 1
vn 0 0 -1
vn 1 0 0
vn 1 0 0
vn 1 0 0
vn 1 0 0
vn 0 1 0
vn 0 1 0
vn 0 1 0
vn -1 0 0
vn -1 0 0
vn 0 1 0
vn 0 -1 0
vn 0 -1 0
vn 0 -1 0
vn -1 0 0
vn 1 0 0
vn 1 0 0
g pb_Mesh137396_0
f 3/3/3 2/2/2 1/1/1
f 3/3/3 4/4/4 2/2/2
f 7/7/7 6/6/6 5/5/5
f 7/7/7 8/8/8 6/6/6
f 11/11/11 10/10/10 9/9/9
f 11/11/11 12/12/12 10/10/10
f 15/15/15 14/14/14 13/13/13
f 15/15/15 16/16/16 14/14/14
f 19/19/19 18/18/18 17/17/17
f 19/19/19 20/20/20 18/18/18
f 23/23/23 22/22/22 21/21/21
f 23/23/23 24/24/24 22/22/22
f 25/25/25 23/23/23 21/21/21
f 25/25/25 26/26/26 23/23/23
f 29/29/29 28/28/28 27/27/27
f 29/29/29 30/30/30 28/28/28
f 31/31/31 3/3/3 1/1/1
f 31/31/31 32/32/32 3/3/3
f 35/35/35 34/34/34 33/33/33
f 35/35/35 36/36/36 34/34/34
f 37/37/37 26/26/26 25/25/25
f 37/37/37 38/38/38 26/26/26
f 39/39/39 30/30/30 29/29/29
f 39/39/39 40/40/40 30/30/30
f 43/43/43 42/42/42 41/41/41
f 43/43/43 44/44/44 42/42/42
f 45/45/45 36/36/36 35/35/35
f 45/45/45 46/46/46 36/36/36
f 47/47/47 38/38/38 37/37/37
f 47/47/47 48/48/48 38/38/38
f 51/51/51 50/50/50 49/49/49
f 51/51/51 52/52/52 50/50/50
f 53/53/53 44/44/44 43/43/43
f 53/53/53 54/54/54 44/44/44
f 57/57/57 56/56/56 55/55/55
f 57/57/57 58/58/58 56/56/56
f 61/61/61 60/60/60 59/59/59
f 61/61/61 62/62/62 60/60/60
f 63/63/63 37/37/37 25/25/25
f 63/63/63 64/64/64 37/37/37
f 67/67/67 66/66/66 65/65/65
f 67/67/67 68/68/68 66/66/66
f 71/71/71 70/70/70 69/69/69
f 71/71/71 72/72/72 70/70/70
f 75/75/75 74/74/74 73/73/73
f 75/75/75 76/76/76 74/74/74
f 77/77/77 25/25/25 21/21/21
f 77/77/77 63/63/63 25/25/25
f 78/78/78 8/8/8 7/7/7
f 78/78/78 79/79/79 8/8/8
f 80/80/80 44/44/44 54/54/54
f 80/80/80 81/81/81 44/44/44
f 82/82/82 51/51/51 49/49/49
f 82/82/82 83/83/83 51/51/51
f 84/84/84 16/16/16 15/15/15
f 84/84/84 85/85/85 16/16/16
f 86/86/86 4/4/4 3/3/3
f 86/86/86 87/87/87 4/4/4
f 81/81/81 42/42/42 44/44/44
f 81/81/81 88/88/88 42/42/42
f 89/89/89 66/66/66 68/68/68
f 89/89/89 90/90/90 66/66/66
f 91/91/91 3/3/3 32/32/32
f 91/91/91 86/86/86 3/3/3
f 93/93/93 92/92/92 12/12/12
f 93/93/93 94/94/94 92/92/92
f 95/95/95 12/12/12 11/11/11
f 95/95/95 93/93/93 12/12/12
f 98/98/98 97/97/97 96/96/96
f 98/98/98 99/99/99 97/97/97
f 100/100/100 39/39/39 29/29/29
f 100/100/100 101/101/101 39/39/39
f 103/103/103 102/102/102 90/90/90
f 103/103/103 104/104/104 102/102/102
f 105/105/105 90/90/90 89/89/89
f 105/105/105 103/103/103 90/90/90
f 106/106/106 99/99/99 98/98/98
f 106/106/106 107/107/107 99/99/99
f 108/108/108 101/101/101 100/100/100
f 108/108/108 109/109/109 101/101/101
f 110/110/110 88/88/88 81/81/81
f 110/110/110 111/111/111 88/88/88
f 114/114/114 113/113/113 112/112/112
f 114/114/114 115/115/115 113/113/113
f 111/111/111 116/116/116 88/88/88
f 111/111/111 117/117/117 116/116/116
f 118/118/118 94/94/94 93/93/93
f 118/118/118 119/119/119 94/94/94
f 120/120/120 111/111/111 110/110/110
f 120/120/120 121/121/121 111/111/111
f 123/123/123 122/122/122 119/119/119
f 123/123/123 124/124/124 122/122/122
f 125/125/125 104/104/104 103/103/103
f 125/125/125 126/126/126 104/104/104
f 127/127/127 115/115/115 114/114/114
f 127/127/127 128/128/128 115/115/115
f 121/121/121 117/117/117 111/111/111
f 121/121/121 129/129/129 117/117/117
f 130/130/130 119/119/119 118/118/118
f 130/130/130 123/123/123 119/119/119
f 133/133/133 132/132/132 131/131/131
f 133/133/133 134/134/134 132/132/132
f 136/136/136 135/135/135 17/17/17
f 136/136/136 137/137/137 135/135/135
f 138/138/138 78/78/78 7/7/7
f 138/138/138 139/139/139 78/78/78
f 140/140/140 17/17/17 18/18/18
f 140/140/140 136/136/136 17/17/17
f 141/141/141 24/24/24 23/23/23
f 141/141/141 142/142/142 24/24/24
f 143/143/143 23/23/23 26/26/26
f 143/143/143 141/141/141 23/23/23
f 144/144/144 7/7/7 5/5/5
f 144/144/144 138/138/138 7/7/7
f 134/134/134 145/145/145 132/132/132
f 134/134/134 146/146/146 145/145/145
