g pb_Mesh562072
v 0 0 16
v -16 0 16
v 0 0 0
v -16 0 0
v 0 -16 16
v -16 -16 16
v -16 0 16
v 0 0 16
v -16 0 0
v 0 -16 0
v 0 0 0
v -16 -16 0
v 0 0 0
v 0 -16 16
v 0 0 16
v 0 -16 0
v 0 -71.5 16
v -16 -71.5 16
v -16 -51 16
v 0 -51 16
v 0 -51 0
v -16 -51 0
v 0 -51 0
v 0 -71.5 16
v 0 -51 16
v 0 -71.5 0
v 0 -51 -8
v -16 -51 0
v -16 -51 -8
v 0 -51 0
v 0 -51 -12
v -16 -51 -12
v 0 -72 -12
v -16 -51 -12
v -16 -72 -12
v 0 -51 -12
v 0 -51 -8
v 0 -72 -8
v 0 -51 -12
v 0 -72 -12
vt 0 16
vt 16 16
vt 0 0
vt 16 0
vt 0 -16
vt -16 -16
vt -16 0
vt 0 0
vt 16 0
vt 0 -16
vt 0 0
vt 16 -16
vt 0 0
vt -16 -16
vt -16 0
vt 0 -16
vt 0 -71.5
vt -16 -71.5
vt -16 -51
vt 0 -51
vt 0 -51
vt 16 -51
vt 0 -51
vt -16 -71.5
vt -16 -51
vt 0 -71.5
vt 0 -8
vt 16 0
vt 16 -8
vt 0 0
vt 0 -12
vt 16 -12
vt 0 -72
vt 16 -51
vt 16 -72
vt 0 -51
vt 8 -51
vt 8 -72
vt 12 -51
vt 12 -72
vn 0 1 0
vn 0 1 0
vn 0 1 0
vn 0 1 0
vn 0 0 1
vn 0 0 1
vn 0 0 1
vn 0 0 1
vn 0 0 -1
vn 0 0 -1
vn 0 0 -1
vn 0 0 -1
vn 1 0 0
vn 1 0 0
vn 1 0 0
vn 1 0 0
vn 0 0 1
vn 0 0 1
vn 0 0 1
vn 0 0 1
vn 0 0 -1
vn 0 0 -1
vn 1 0 0
vn 1 0 0
vn 1 0 0
vn 1 0 0
vn 0 1 0
vn 0 1 0
vn 0 1 0
vn 0 1 0
vn 0 1 0
vn 0 1 0
vn 0 0 -1
vn 0 0 -1
vn 0 0 -1
vn 0 0 -1
vn 1 0 0
vn 1 0 0
vn 1 0 0
vn 1 0 0
g pb_Mesh562072_0
f 3/3/3 2/2/2 1/1/1
f 3/3/3 4/4/4 2/2/2
f 7/7/7 6/6/6 5/5/5
f 7/7/7 5/5/5 8/8/8
f 11/11/11 10/10/10 9/9/9
f 10/10/10 12/12/12 9/9/9
f 15/15/15 14/14/14 13/13/13
f 14/14/14 16/16/16 13/13/13
f 19/19/19 18/18/18 17/17/17
f 19/19/19 17/17/17 20/20/20
f 6/6/6 19/19/19 20/20/20
f 6/6/6 20/20/20 5/5/5
f 10/10/10 21/21/21 12/12/12
f 21/21/21 22/22/22 12/12/12
f 25/25/25 24/24/24 23/23/23
f 24/24/24 26/26/26 23/23/23
f 14/14/14 25/25/25 16/16/16
f 25/25/25 23/23/23 16/16/16
f 29/29/29 28/28/28 27/27/27
f 28/28/28 30/30/30 27/27/27
f 32/32/32 29/29/29 31/31/31
f 29/29/29 27/27/27 31/31/31
f 35/35/35 34/34/34 33/33/33
f 34/34/34 36/36/36 33/33/33
f 23/23/23 26/26/26 37/37/37
f 26/26/26 38/38/38 37/37/37
f 37/37/37 38/38/38 39/39/39
f 38/38/38 40/40/40 39/39/39
