g pb_Mesh-2202252
v -2 -3.75 -10.39231
v -6 -3.75 -10.39231
v -6 -4 -10.39231
v -2 -4 -10.39231
v -1.982872 -3.75 -9.869081
v -5.974307 -3.75 -9.607469
v -2 -3.75 -10.39231
v -6 -3.75 -10.39231
v -1.982872 -3.5 -9.869081
v -5.974307 -3.5 -9.607469
v -5.974307 -3.75 -9.607469
v -1.982872 -3.75 -9.869081
v -1.931559 -3.5 -9.348097
v -5.897339 -3.5 -8.825992
v -1.982872 -3.5 -9.869081
v -5.974307 -3.5 -9.607469
v -1.931559 -3.25 -9.348097
v -5.897339 -3.25 -8.825992
v -5.897339 -3.5 -8.825992
v -1.931559 -3.5 -9.348097
v -1.846282 -3.25 -8.831584
v -5.769423 -3.25 -8.051222
v -1.931559 -3.25 -9.348097
v -5.897339 -3.25 -8.825992
v -1.846282 -3 -8.831584
v -5.769423 -3 -8.051222
v -5.769423 -3.25 -8.051222
v -1.846282 -3.25 -8.831584
v -1.727407 -3 -8.321754
v -5.59111 -3 -7.286478
v -1.846282 -3 -8.831584
v -5.769423 -3 -8.051222
v -1.727407 -2.75 -8.321754
v -5.59111 -2.75 -7.286478
v -5.59111 -3 -7.286478
v -1.727407 -3 -8.321754
v -1.575441 -2.75 -7.820791
v -5.363161 -2.75 -6.535033
v -1.727407 -2.75 -8.321754
v -5.59111 -2.75 -7.286478
v -1.575441 -2.5 -7.820791
v -5.363161 -2.5 -6.535033
v -5.363161 -2.75 -6.535033
v -1.575441 -2.75 -7.820791
v -1.391036 -2.5 -7.330839
v -5.086554 -2.5 -5.800105
v -1.575441 -2.5 -7.820791
v -5.363161 -2.5 -6.535033
v -1.391036 -2.25 -7.330839
v -5.086554 -2.25 -5.800105
v -5.086554 -2.5 -5.800105
v -1.391036 -2.5 -7.330839
v -1.174982 -2.25 -6.853996
v -4.762473 -2.25 -5.084842
v -1.391036 -2.25 -7.330839
v -5.086554 -2.25 -5.800105
v -1.174982 -2 -6.853996
v -4.762473 -2 -5.084842
v -4.762473 -2.25 -5.084842
v -1.174982 -2.25 -6.853996
v -0.9282031 -2 -6.392306
v -4.392304 -2 -4.392306
v -1.174982 -2 -6.853996
v -4.762473 -2 -5.084842
v -0.9282031 -1.75 -6.392306
v -4.392304 -1.75 -4.392306
v -4.392304 -2 -4.392306
v -0.9282031 -2 -6.392306
v -0.6517568 -1.75 -5.947744
v -3.977635 -1.75 -3.725463
v -0.9282031 -1.75 -6.392306
v -4.392304 -1.75 -4.392306
v -0.6517568 -1.5 -5.947744
v -3.977635 -1.5 -3.725463
v -3.977635 -1.75 -3.725463
v -0.6517568 -1.75 -5.947744
v -0.3468266 -1.5 -5.522215
v -3.52024 -1.5 -3.087169
v -0.6517568 -1.5 -5.947744
v -3.977635 -1.5 -3.725463
v -0.3468266 -1.25 -5.522215
v -3.52024 -1.25 -3.087169
v -3.52024 -1.5 -3.087169
v -0.3468266 -1.5 -5.522215
v -0.01471806 -1.25 -5.117539
v -3.022078 -1.25 -2.480156
v -0.3468266 -1.25 -5.522215
v -3.52024 -1.25 -3.087169
v -0.01471806 -1 -5.117539
v -3.022078 -1 -2.480156
v -3.022078 -1.25 -2.480156
v -0.01471806 -1.25 -5.117539
v 0.3431458 -1 -4.735452
v -2.485281 -1 -1.907025
v -0.01471806 -1 -5.117539
v -3.022078 -1 -2.480156
v 0.3431458 -0.75 -4.735452
v -2.485281 -0.75 -1.907025
v -2.485281 -1 -1.907025
v 0.3431458 -1 -4.735452
v 0.7252336 -0.75 -4.377588
v -1.912149 -0.75 -1.370229
v 0.3431458 -0.75 -4.735452
v -2.485281 -0.75 -1.907025
v 0.7252336 -0.5 -4.377588
v -1.912149 -0.5 -1.370229
v -1.912149 -0.75 -1.370229
v 0.7252336 -0.75 -4.377588
v 1.129909 -0.5 -4.045479
v -1.305137 -0.5 -0.8720655
v 0.7252336 -0.5 -4.377588
v -1.912149 -0.5 -1.370229
v 1.129909 -0.25 -4.045479
v -1.305137 -0.25 -0.8720655
v -1.305137 -0.5 -0.8720655
v 1.129909 -0.5 -4.045479
v 1.555439 -0.25 -3.740549
v -0.6668425 -0.25 -0.41467
v 1.129909 -0.25 -4.045479
v -1.305137 -0.25 -0.8720655
v 1.555439 0 -3.740549
v -0.6668425 0 -0.41467
v -0.6668425 -0.25 -0.41467
v 1.555439 -0.25 -3.740549
v 2 0 -3.464103
v 4.768372E-07 0 -9.536743E-07
v 1.555439 0 -3.740549
v -0.6668425 0 -0.41467
v -1.982872 -4 -9.869081
v -1.982872 -3.75 -9.869081
v -2 -3.75 -10.39231
v -2 -4 -10.39231
v -1.931559 -4 -9.348097
v -1.931559 -3.5 -9.348097
v -1.982872 -3.75 -9.869081
v -1.982872 -4 -9.869081
v -1.982872 -3.5 -9.869081
v -1.846282 -4 -8.831584
v -1.846282 -3.25 -8.831584
v -1.931559 -3.5 -9.348097
v -1.931559 -4 -9.348097
v -1.931559 -3.25 -9.348097
v -1.727407 -4 -8.321754
v -1.727407 -3 -8.321754
v -1.846282 -3.25 -8.831584
v -1.846282 -4 -8.831584
v -1.846282 -3 -8.831584
v -1.575441 -4 -7.820791
v -1.575441 -2.75 -7.820791
v -1.727407 -3 -8.321754
v -1.727407 -4 -8.321754
v -1.727407 -2.75 -8.321754
v -1.391036 -4 -7.330839
v -1.391036 -2.5 -7.330839
v -1.575441 -2.75 -7.820791
v -1.575441 -4 -7.820791
v -1.575441 -2.5 -7.820791
v -1.174982 -4 -6.853996
v -1.174982 -2.25 -6.853996
v -1.391036 -2.5 -7.330839
v -1.391036 -4 -7.330839
v -1.391036 -2.25 -7.330839
v -0.9282031 -4 -6.392306
v -0.9282031 -2 -6.392306
v -1.174982 -2.25 -6.853996
v -1.174982 -4 -6.853996
v -1.174982 -2 -6.853996
v -0.6517568 -4 -5.947744
v -0.6517568 -1.75 -5.947744
v -0.9282031 -2 -6.392306
v -0.9282031 -4 -6.392306
v -0.9282031 -1.75 -6.392306
v -0.3468266 -4 -5.522215
v -0.3468266 -1.5 -5.522215
v -0.6517568 -1.75 -5.947744
v -0.6517568 -4 -5.947744
v -0.6517568 -1.5 -5.947744
v -0.01471806 -4 -5.117539
v -0.01471806 -1.25 -5.117539
v -0.3468266 -1.5 -5.522215
v -0.3468266 -4 -5.522215
v -0.3468266 -1.25 -5.522215
v 0.3431458 -4 -4.735452
v 0.3431458 -1 -4.735452
v -0.01471806 -1.25 -5.117539
v -0.01471806 -4 -5.117539
v -0.01471806 -1 -5.117539
v 0.7252336 -4 -4.377588
v 0.7252336 -0.75 -4.377588
v 0.3431458 -1 -4.735452
v 0.3431458 -4 -4.735452
v 0.3431458 -0.75 -4.735452
v 1.129909 -4 -4.045479
v 1.129909 -0.5 -4.045479
v 0.7252336 -0.75 -4.377588
v 0.7252336 -4 -4.377588
v 0.7252336 -0.5 -4.377588
v 1.555439 -4 -3.740549
v 1.555439 -0.25 -3.740549
v 1.129909 -0.5 -4.045479
v 1.129909 -4 -4.045479
v 1.129909 -0.25 -4.045479
v 2 -4 -3.464103
v 2 0 -3.464103
v 1.555439 -0.25 -3.740549
v 1.555439 -4 -3.740549
v 1.555439 0 -3.740549
v -6 -3.75 -10.39231
v -5.974307 -3.75 -9.607469
v -5.974307 -4 -9.607469
v -6 -4 -10.39231
v -5.974307 -3.75 -9.607469
v -5.897339 -3.5 -8.825992
v -5.897339 -4 -8.825992
v -5.974307 -4 -9.607469
v -5.974307 -3.5 -9.607469
v -5.897339 -3.5 -8.825992
v -5.769423 -3.25 -8.051222
v -5.769423 -4 -8.051222
v -5.897339 -4 -8.825992
v -5.897339 -3.25 -8.825992
v -5.769423 -3.25 -8.051222
v -5.59111 -3 -7.286478
v -5.59111 -4 -7.286478
v -5.769423 -4 -8.051222
v -5.769423 -3 -8.051222
v -5.59111 -3 -7.286478
v -5.363161 -2.75 -6.535033
v -5.363161 -4 -6.535033
v -5.59111 -4 -7.286478
v -5.59111 -2.75 -7.286478
v -5.363161 -2.75 -6.535033
v -5.086554 -2.5 -5.800105
v -5.086554 -4 -5.800105
v -5.363161 -4 -6.535033
v -5.363161 -2.5 -6.535033
v -5.086554 -2.5 -5.800105
v -4.762473 -2.25 -5.084842
v -4.762473 -4 -5.084842
v -5.086554 -4 -5.800105
v -5.086554 -2.25 -5.800105
v -4.762473 -2.25 -5.084842
v -4.392304 -2 -4.392306
v -4.392304 -4 -4.392306
v -4.762473 -4 -5.084842
v -4.762473 -2 -5.084842
v -4.392304 -2 -4.392306
v -3.977635 -1.75 -3.725463
v -3.977635 -4 -3.725463
v -4.392304 -4 -4.392306
v -4.392304 -1.75 -4.392306
v -3.977635 -1.75 -3.725463
v -3.52024 -1.5 -3.087169
v -3.52024 -4 -3.087169
v -3.977635 -4 -3.725463
v -3.977635 -1.5 -3.725463
v -3.52024 -1.5 -3.087169
v -3.022078 -1.25 -2.480156
v -3.022078 -4 -2.480156
v -3.52024 -4 -3.087169
v -3.52024 -1.25 -3.087169
v -3.022078 -1.25 -2.480156
v -2.485281 -1 -1.907025
v -2.485281 -4 -1.907025
v -3.022078 -4 -2.480156
v -3.022078 -1 -2.480156
v -2.485281 -1 -1.907025
v -1.912149 -0.75 -1.370229
v -1.912149 -4 -1.370229
v -2.485281 -4 -1.907025
v -2.485281 -0.75 -1.907025
v -1.912149 -0.75 -1.370229
v -1.305137 -0.5 -0.8720655
v -1.305137 -4 -0.8720655
v -1.912149 -4 -1.370229
v -1.912149 -0.5 -1.370229
v -1.305137 -0.5 -0.8720655
v -0.6668425 -0.25 -0.41467
v -0.6668425 -4 -0.41467
v -1.305137 -4 -0.8720655
v -1.305137 -0.25 -0.8720655
v -0.6668425 -0.25 -0.41467
v 4.768372E-07 0 -9.536743E-07
v 4.768372E-07 -4 -9.536743E-07
v -0.6668425 -4 -0.41467
v -0.6668425 0 -0.41467
v 4.768372E-07 -4 -9.536743E-07
v 4.768372E-07 0 -9.536743E-07
v 2 0 -3.464103
v 2 -4 -3.464103
vt 2 -3.75
vt 6 -3.75
vt 6 -4
vt 2 -4
vt 1.979667 -9.934871
vt 5.960406 -9.542801
vt 2.013906 -10.45725
vt 6.011765 -10.32638
vt 1.333156 -3.5
vt 5.333156 -3.5
vt 5.333156 -3.75
vt 1.333156 -3.75
vt 1.941348 -9.546224
vt 5.836856 -8.637918
vt 2.043478 -10.05967
vt 5.990051 -9.408088
vt 0.6948618 -3.25
vt 4.694862 -3.25
vt 4.694862 -3.5
vt 0.6948618 -3.5
vt 1.894826 -9.159771
vt 5.638449 -7.750771
vt 2.063102 -9.655494
vt 5.890863 -8.494355
vt 0.08784748 -3
vt 4.087847 -3
vt 4.087847 -3.25
vt 0.08784748 -3.25
vt 1.83986 -8.773814
vt 5.367545 -6.888227
vt 2.0714 -9.243332
vt 5.714855 -7.592503
vt -0.4852822 -2.75
vt 3.514718 -2.75
vt 3.514718 -3
vt -0.4852822 -3
vt 1.775805 -8.386738
vt 5.027191 -6.056828
vt 2.066649 -8.822018
vt 5.463458 -6.709745
vt -1.022078 -2.5
vt 2.977922 -2.5
vt 2.977922 -2.75
vt -1.022078 -2.75
vt 1.701639 -7.997076
vt 4.621094 -5.262706
vt 2.04681 -8.390668
vt 5.138852 -5.853095
vt -1.520241 -2.25
vt 2.479759 -2.25
vt 2.479759 -2.5
vt -1.520241 -2.5
vt 1.615986 -7.603567
vt 4.15356 -4.511525
vt 2.009578 -7.948738
vt 4.743948 -5.029283
vt -1.977635 -2
vt 2.022365 -2
vt 2.022365 -2.25
vt -1.977635 -2.25
vt 1.517154 -7.205217
vt 3.629424 -3.808408
vt 1.952432 -7.49606
vt 4.282342 -4.244673
vt -2.392306 -1.75
vt 1.607694 -1.75
vt 1.607694 -2
vt -2.392306 -2
vt 1.403168 -6.801338
vt 3.053996 -3.157882
vt 1.872686 -7.032878
vt 3.758272 -3.505193
vt -2.762474 -1.5
vt 1.237527 -1.5
vt 1.237527 -1.75
vt -2.762474 -1.75
vt 1.271835 -6.391603
vt 2.432973 -2.563842
vt 1.767558 -6.559879
vt 3.176558 -2.816255
vt -3.086556 -1.25
vt 0.9134445 -1.25
vt 0.9134445 -1.5
vt -3.086556 -1.5
vt 1.120784 -5.976079
vt 1.772366 -2.029505
vt 1.63423 -6.078209
vt 2.542536 -2.182702
vt -3.363163 -1
vt 0.6368378 -1
vt 0.6368378 -1.25
vt -3.363163 -1.25
vt 0.9475379 -5.555251
vt 1.078413 -1.557393
vt 1.469922 -5.589489
vt 1.86199 -1.60875
vt -3.591111 -0.75
vt 0.4088885 -0.75
vt 0.4088885 -1
vt -3.591111 -1
vt 0.7495678 -5.130047
vt 0.3574989 -1.149309
vt 1.271952 -5.095809
vt 1.141076 -1.09795
vt -3.769425 -0.5
vt 0.2305751 -0.5
vt 0.2305751 -0.75
vt -3.769425 -0.75
vt 0.5243687 -4.701851
vt -0.3839365 -0.8063424
vt 1.037815 -4.59972
vt 0.3862337 -0.6531466
vt -3.89734 -0.25
vt 0.1026607 -0.25
vt 0.1026607 -0.5
vt -3.89734 -0.5
vt 0.2695222 -4.272497
vt -1.139478 -0.5288725
vt 0.7652452 -4.104222
vt -0.3958931 -0.2764599
vt -3.974308 0
vt 0.02569227 0
vt 0.02569227 -0.25
vt -3.974308 -0.25
vt -0.01723331 -3.844268
vt -1.902821 -0.3165839
vt 0.4522841 -3.612728
vt -1.198545 0.03072739
vt 9.928675 -4
vt 9.928675 -3.75
vt 10.45218 -3.75
vt 10.45218 -4
vt 9.49241 -4
vt 9.49241 -3.5
vt 10.01591 -3.75
vt 10.01591 -4
vt 10.01591 -3.5
vt 9.014375 -4
vt 9.014375 -3.25
vt 9.53788 -3.5
vt 9.53788 -4
vt 9.537881 -3.25
vt 8.496618 -4
vt 8.496618 -3
vt 9.020123 -3.25
vt 9.020123 -4
vt 9.020123 -3
vt 7.941357 -4
vt 7.941357 -2.75
vt 8.464863 -3
vt 8.464863 -4
vt 8.464863 -2.75
vt 7.350968 -4
vt 7.350968 -2.5
vt 7.874474 -2.75
vt 7.874474 -4
vt 7.874474 -2.5
vt 6.727983 -4
vt 6.727983 -2.25
vt 7.251488 -2.5
vt 7.251488 -4
vt 7.251488 -2.25
vt 6.075061 -4
vt 6.075061 -2
vt 6.598566 -2.25
vt 6.598566 -4
vt 6.598566 -2
vt 5.39501 -4
vt 5.39501 -1.75
vt 5.918515 -2
vt 5.918515 -4
vt 5.918515 -1.75
vt 4.690732 -4
vt 4.690732 -1.5
vt 5.214238 -1.75
vt 5.214238 -4
vt 5.214238 -1.5
vt 3.965249 -4
vt 3.965249 -1.25
vt 4.488755 -1.5
vt 4.488755 -4
vt 4.488755 -1.25
vt 3.221664 -4
vt 3.221664 -1
vt 3.745169 -1.25
vt 3.745169 -4
vt 3.745169 -1
vt 2.463164 -4
vt 2.463164 -0.75
vt 2.98667 -1
vt 2.98667 -4
vt 2.98667 -0.75
vt 1.692993 -4
vt 1.692993 -0.5
vt 2.216499 -0.75
vt 2.216499 -4
vt 2.216499 -0.5
vt 0.9144539 -4
vt 0.9144539 -0.25
vt 1.437959 -0.5
vt 1.437959 -4
vt 1.437959 -0.25
vt 0.1308786 -4
vt 0.1308786 0
vt 0.6543837 -0.25
vt 0.6543837 -4
vt 0.6543837 0
vt -10.58306 -3.75
vt -9.797799 -3.75
vt -9.797799 -4
vt -10.58306 -4
vt -10.14679 -3.75
vt -9.361529 -3.5
vt -9.361529 -4
vt -10.14679 -4
vt -10.14679 -3.5
vt -9.668763 -3.5
vt -8.883505 -3.25
vt -8.883505 -4
vt -9.668763 -4
vt -9.668763 -3.25
vt -9.150994 -3.25
vt -8.365737 -3
vt -8.365737 -4
vt -9.150994 -4
vt -9.150994 -3
vt -8.595742 -3
vt -7.810484 -2.75
vt -7.810484 -4
vt -8.595742 -4
vt -8.595742 -2.75
vt -8.005351 -2.75
vt -7.220092 -2.5
vt -7.220092 -4
vt -8.005351 -4
vt -8.005351 -2.5
vt -7.38236 -2.5
vt -6.597102 -2.25
vt -6.597102 -4
vt -7.38236 -4
vt -7.38236 -2.25
vt -6.729446 -2.25
vt -5.944188 -2
vt -5.944188 -4
vt -6.729446 -4
vt -6.729446 -2
vt -6.04939 -2
vt -5.264132 -1.75
vt -5.264132 -4
vt -6.04939 -4
vt -6.04939 -1.75
vt -5.345115 -1.75
vt -4.559857 -1.5
vt -4.559857 -4
vt -5.345115 -4
vt -5.345115 -1.5
vt -4.61963 -1.5
vt -3.834372 -1.25
vt -3.834372 -4
vt -4.61963 -4
vt -4.61963 -1.25
vt -3.876046 -1.25
vt -3.090789 -1
vt -3.090789 -4
vt -3.876046 -4
vt -3.876046 -1
vt -3.117545 -1
vt -2.332287 -0.75
vt -2.332287 -4
vt -3.117545 -4
vt -3.117545 -0.75
vt -2.347375 -0.75
vt -1.562117 -0.5
vt -1.562117 -4
vt -2.347375 -4
vt -2.347375 -0.5
vt -1.568835 -0.5
vt -0.7835767 -0.25
vt -0.7835767 -4
vt -1.568835 -4
vt -1.568835 -0.25
vt -0.785258 -0.25
vt -9.867301E-08 0
vt -9.867301E-08 -4
vt -0.785258 -4
vt -0.785258 0
vt 1.064325E-06 -4
vt 1.064325E-06 0
vt 4.000001 0
vt 4.000001 -4
vn 0 0 -1
vn 0 0 -1
vn 0 0 -1
vn 0 0 -1
vn 0 1 0
vn 0 1 0
vn 0 1 0
vn 0 1 0
vn -0.06540323 0 -0.9978589
vn -0.06540323 0 -0.9978589
vn -0.06540323 0 -0.9978589
vn -0.06540323 0 -0.9978589
vn 0 1 0
vn 0 1 0
vn 0 1 0
vn 0 1 0
vn -0.1305263 0 -0.9914449
vn -0.1305263 0 -0.9914449
vn -0.1305263 0 -0.9914449
vn -0.1305263 0 -0.9914449
vn 0 1 0
vn 0 1 0
vn 0 1 0
vn 0 1 0
vn -0.1950906 0 -0.9807853
vn -0.1950906 0 -0.9807853
vn -0.1950906 0 -0.9807853
vn -0.1950906 0 -0.9807853
vn 0 1 0
vn 0 1 0
vn 0 1 0
vn 0 1 0
vn -0.2588191 0 -0.9659258
vn -0.2588191 0 -0.9659258
vn -0.2588191 0 -0.9659258
vn -0.2588191 0 -0.9659258
vn 0 1 0
vn 0 1 0
vn 0 1 0
vn 0 1 0
vn -0.3214394 0 -0.9469302
vn -0.3214394 0 -0.9469302
vn -0.3214394 0 -0.9469302
vn -0.3214394 0 -0.9469302
vn 0 1 0
vn 0 1 0
vn 0 1 0
vn 0 1 0
vn -0.3826835 0 -0.9238796
vn -0.3826835 0 -0.9238796
vn -0.3826835 0 -0.9238796
vn -0.3826835 0 -0.9238796
vn 0 1 0
vn 0 1 0
vn 0 1 0
vn 0 1 0
vn -0.4422886 0 -0.8968728
vn -0.4422886 0 -0.8968728
vn -0.4422886 0 -0.8968728
vn -0.4422886 0 -0.8968728
vn 0 1 0
vn 0 1 0
vn 0 1 0
vn 0 1 0
vn -0.5000001 0 -0.8660254
vn -0.5000001 0 -0.8660254
vn -0.5000001 0 -0.8660254
vn -0.5000001 0 -0.8660254
vn 0 1 0
vn 0 1 0
vn 0 1 0
vn 0 1 0
vn -0.5555702 0 -0.8314697
vn -0.5555702 0 -0.8314697
vn -0.5555702 0 -0.8314697
vn -0.5555702 0 -0.8314697
vn 0 1 0
vn 0 1 0
vn 0 1 0
vn 0 1 0
vn -0.6087615 0 -0.7933534
vn -0.6087615 0 -0.7933534
vn -0.6087615 0 -0.7933534
vn -0.6087615 0 -0.7933534
vn 0 1 0
vn 0 1 0
vn 0 1 0
vn 0 1 0
vn -0.6593459 0 -0.7518399
vn -0.6593459 0 -0.7518399
vn -0.6593459 0 -0.7518399
vn -0.6593459 0 -0.7518399
vn 0 1 0
vn 0 1 0
vn 0 1 0
vn 0 1 0
vn -0.7071068 0 -0.7071068
vn -0.7071068 0 -0.7071068
vn -0.7071068 0 -0.7071068
vn -0.7071068 0 -0.7071068
vn 0 1 0
vn 0 1 0
vn 0 1 0
vn 0 1 0
vn -0.7518399 0 -0.6593458
vn -0.7518399 0 -0.6593458
vn -0.7518399 0 -0.6593458
vn -0.7518399 0 -0.6593458
vn 0 1 0
vn 0 1 0
vn 0 1 0
vn 0 1 0
vn -0.7933534 0 -0.6087614
vn -0.7933534 0 -0.6087614
vn -0.7933534 0 -0.6087614
vn -0.7933534 0 -0.6087614
vn 0 1 0
vn 0 1 0
vn 0 1 0
vn 0 1 0
vn -0.8314697 0 -0.5555702
vn -0.8314697 0 -0.5555702
vn -0.8314697 0 -0.5555702
vn -0.8314697 0 -0.5555702
vn 0 1 0
vn 0 1 0
vn 0 1 0
vn 0 1 0
vn 0.9978589 0 -0.06540294
vn 0.9970859 0 -0.07628725
vn 0.9994646 0 -0.03271882
vn 0.9994646 0 -0.03271882
vn 0.9914448 0 -0.1305266
vn 0.9914448 0 -0.1305266
vn 0.9970859 0 -0.07628725
vn 0.9978589 0 -0.06540294
vn 0.9951848 0 -0.09801702
vn 0.9807852 0 -0.1950907
vn 0.9807852 0 -0.1950907
vn 0.9914448 0 -0.1305266
vn 0.9914448 0 -0.1305266
vn 0.9866433 0 -0.1628963
vn 0.9659259 0 -0.258819
vn 0.9659259 0 -0.2588189
vn 0.9807852 0 -0.1950907
vn 0.9807852 0 -0.1950907
vn 0.973877 0 -0.2270761
vn 0.9469301 0 -0.3214394
vn 0.9469301 0 -0.3214394
vn 0.9659259 0 -0.2588189
vn 0.9659259 0 -0.258819
vn 0.9569404 0 -0.2902846
vn 0.9238797 0 -0.382683
vn 0.9238797 0 -0.382683
vn 0.9469301 0 -0.3214394
vn 0.9469301 0 -0.3214394
vn 0.935906 0 -0.35225
vn 0.8968728 0 -0.4422887
vn 0.8968728 0 -0.4422887
vn 0.9238797 0 -0.382683
vn 0.9238797 0 -0.382683
vn 0.9108642 0 -0.4127062
vn 0.8660252 0 -0.5000004
vn 0.8660252 0 -0.5000004
vn 0.8968728 0 -0.4422887
vn 0.8968728 0 -0.4422887
vn 0.8819209 0 -0.4713975
vn 0.8314696 0 -0.5555703
vn 0.8314696 0 -0.5555703
vn 0.8660252 0 -0.5000004
vn 0.8660252 0 -0.5000004
vn 0.8492022 0 -0.5280678
vn 0.7933533 0 -0.6087614
vn 0.7933533 0 -0.6087614
vn 0.8314696 0 -0.5555703
vn 0.8314696 0 -0.5555703
vn 0.8128466 0 -0.5824778
vn 0.7518398 0 -0.6593459
vn 0.7518398 0 -0.6593459
vn 0.7933533 0 -0.6087614
vn 0.7933533 0 -0.6087614
vn 0.7730106 0 -0.6343932
vn 0.7071068 0 -0.7071068
vn 0.7071068 0 -0.7071068
vn 0.7518398 0 -0.6593459
vn 0.7518398 0 -0.6593459
vn 0.7298639 0 -0.6835925
vn 0.6593459 0 -0.7518397
vn 0.6593459 0 -0.7518397
vn 0.7071068 0 -0.7071068
vn 0.7071068 0 -0.7071068
vn 0.6835925 0 -0.7298639
vn 0.6087614 0 -0.7933533
vn 0.6087614 0 -0.7933533
vn 0.6593459 0 -0.7518397
vn 0.6593459 0 -0.7518397
vn 0.6343932 0 -0.7730106
vn 0.5555705 0 -0.8314694
vn 0.5555705 0 -0.8314694
vn 0.6087614 0 -0.7933533
vn 0.6087614 0 -0.7933533
vn 0.5824778 0 -0.8128466
vn 0.5280682 0 -0.849202
vn 0.5280682 0 -0.849202
vn 0.5555705 0 -0.8314694
vn 0.5555705 0 -0.8314694
vn 0.5280682 0 -0.849202
vn -0.9994646 0 0.0327191
vn -0.9970859 0 0.07628696
vn -0.9978589 0 0.06540278
vn -0.9994646 0 0.0327191
vn -0.9970859 0 0.07628696
vn -0.9914448 0 0.1305267
vn -0.9914448 0 0.1305267
vn -0.9978589 0 0.06540278
vn -0.9951848 0 0.09801643
vn -0.9914448 0 0.1305267
vn -0.9807852 0 0.1950906
vn -0.9807852 0 0.1950906
vn -0.9914448 0 0.1305267
vn -0.9866431 0 0.1628971
vn -0.9807852 0 0.1950906
vn -0.9659258 0 0.258819
vn -0.9659258 0 0.258819
vn -0.9807852 0 0.1950906
vn -0.9738773 0 0.2270751
vn -0.9659258 0 0.258819
vn -0.9469299 0 0.32144
vn -0.9469299 0 0.32144
vn -0.9659258 0 0.258819
vn -0.9569401 0 0.2902857
vn -0.9469299 0 0.32144
vn -0.9238797 0 0.3826829
vn -0.9238797 0 0.3826829
vn -0.9469299 0 0.32144
vn -0.9359059 0 0.3522502
vn -0.9238797 0 0.3826829
vn -0.8968729 0 0.4422885
vn -0.8968728 0 0.4422885
vn -0.9238797 0 0.3826829
vn -0.9108644 0 0.4127058
vn -0.8968729 0 0.4422885
vn -0.8660253 0 0.5000001
vn -0.8660253 0 0.5000002
vn -0.8968728 0 0.4422885
vn -0.8819209 0 0.4713975
vn -0.8660253 0 0.5000001
vn -0.8314697 0 0.5555702
vn -0.8314697 0 0.5555701
vn -0.8660253 0 0.5000002
vn -0.8492025 0 0.5280674
vn -0.8314697 0 0.5555702
vn -0.7933534 0 0.6087613
vn -0.7933534 0 0.6087613
vn -0.8314697 0 0.5555701
vn -0.8128465 0 0.582478
vn -0.7933534 0 0.6087613
vn -0.7518396 0 0.659346
vn -0.7518396 0 0.659346
vn -0.7933534 0 0.6087613
vn -0.7730108 0 0.6343929
vn -0.7518396 0 0.659346
vn -0.7071065 0 0.7071071
vn -0.7071065 0 0.7071071
vn -0.7518396 0 0.659346
vn -0.7298633 0 0.6835932
vn -0.7071065 0 0.7071071
vn -0.6593462 0 0.7518395
vn -0.6593462 0 0.7518395
vn -0.7071065 0 0.7071071
vn -0.6835925 0 0.7298639
vn -0.6593462 0 0.7518395
vn -0.6087619 0 0.793353
vn -0.6087619 0 0.793353
vn -0.6593462 0 0.7518395
vn -0.6343939 0 0.77301
vn -0.6087619 0 0.793353
vn -0.5555701 0 0.8314697
vn -0.5555701 0 0.8314697
vn -0.6087619 0 0.793353
vn -0.582478 0 0.8128465
vn -0.5555701 0 0.8314697
vn -0.5280674 0 0.8492025
vn -0.5280674 0 0.8492025
vn -0.5555701 0 0.8314697
vn -0.5280674 0 0.8492025
vn 0.8660255 0 0.4999999
vn 0.8660255 0 0.4999999
vn 0.8660255 0 0.4999999
vn 0.8660255 0 0.4999999
g pb_Mesh-2202252_0
f 3/3/3 2/2/2 1/1/1
f 4/4/4 3/3/3 1/1/1
f 7/7/7 6/6/6 5/5/5
f 7/7/7 8/8/8 6/6/6
f 11/11/11 10/10/10 9/9/9
f 12/12/12 11/11/11 9/9/9
f 15/15/15 14/14/14 13/13/13
f 15/15/15 16/16/16 14/14/14
f 19/19/19 18/18/18 17/17/17
f 20/20/20 19/19/19 17/17/17
f 23/23/23 22/22/22 21/21/21
f 23/23/23 24/24/24 22/22/22
f 27/27/27 26/26/26 25/25/25
f 28/28/28 27/27/27 25/25/25
f 31/31/31 30/30/30 29/29/29
f 31/31/31 32/32/32 30/30/30
f 35/35/35 34/34/34 33/33/33
f 36/36/36 35/35/35 33/33/33
f 39/39/39 38/38/38 37/37/37
f 39/39/39 40/40/40 38/38/38
f 43/43/43 42/42/42 41/41/41
f 44/44/44 43/43/43 41/41/41
f 47/47/47 46/46/46 45/45/45
f 47/47/47 48/48/48 46/46/46
f 51/51/51 50/50/50 49/49/49
f 52/52/52 51/51/51 49/49/49
f 55/55/55 54/54/54 53/53/53
f 55/55/55 56/56/56 54/54/54
f 59/59/59 58/58/58 57/57/57
f 60/60/60 59/59/59 57/57/57
f 63/63/63 62/62/62 61/61/61
f 63/63/63 64/64/64 62/62/62
f 67/67/67 66/66/66 65/65/65
f 68/68/68 67/67/67 65/65/65
f 71/71/71 70/70/70 69/69/69
f 71/71/71 72/72/72 70/70/70
f 75/75/75 74/74/74 73/73/73
f 76/76/76 75/75/75 73/73/73
f 79/79/79 78/78/78 77/77/77
f 79/79/79 80/80/80 78/78/78
f 83/83/83 82/82/82 81/81/81
f 84/84/84 83/83/83 81/81/81
f 87/87/87 86/86/86 85/85/85
f 87/87/87 88/88/88 86/86/86
f 91/91/91 90/90/90 89/89/89
f 92/92/92 91/91/91 89/89/89
f 95/95/95 94/94/94 93/93/93
f 95/95/95 96/96/96 94/94/94
f 99/99/99 98/98/98 97/97/97
f 100/100/100 99/99/99 97/97/97
f 103/103/103 102/102/102 101/101/101
f 103/103/103 104/104/104 102/102/102
f 107/107/107 106/106/106 105/105/105
f 108/108/108 107/107/107 105/105/105
f 111/111/111 110/110/110 109/109/109
f 111/111/111 112/112/112 110/110/110
f 115/115/115 114/114/114 113/113/113
f 116/116/116 115/115/115 113/113/113
f 119/119/119 118/118/118 117/117/117
f 119/119/119 120/120/120 118/118/118
f 123/123/123 122/122/122 121/121/121
f 124/124/124 123/123/123 121/121/121
f 127/127/127 126/126/126 125/125/125
f 127/127/127 128/128/128 126/126/126
f 131/131/131 130/130/130 129/129/129
f 131/131/131 129/129/129 132/132/132
f 135/135/135 134/134/134 133/133/133
f 135/135/135 133/133/133 136/136/136
f 137/137/137 134/134/134 135/135/135
f 140/140/140 139/139/139 138/138/138
f 140/140/140 138/138/138 141/141/141
f 142/142/142 139/139/139 140/140/140
f 145/145/145 144/144/144 143/143/143
f 145/145/145 143/143/143 146/146/146
f 147/147/147 144/144/144 145/145/145
f 150/150/150 149/149/149 148/148/148
f 150/150/150 148/148/148 151/151/151
f 152/152/152 149/149/149 150/150/150
f 155/155/155 154/154/154 153/153/153
f 155/155/155 153/153/153 156/156/156
f 157/157/157 154/154/154 155/155/155
f 160/160/160 159/159/159 158/158/158
f 160/160/160 158/158/158 161/161/161
f 162/162/162 159/159/159 160/160/160
f 165/165/165 164/164/164 163/163/163
f 165/165/165 163/163/163 166/166/166
f 167/167/167 164/164/164 165/165/165
f 170/170/170 169/169/169 168/168/168
f 170/170/170 168/168/168 171/171/171
f 172/172/172 169/169/169 170/170/170
f 175/175/175 174/174/174 173/173/173
f 175/175/175 173/173/173 176/176/176
f 177/177/177 174/174/174 175/175/175
f 180/180/180 179/179/179 178/178/178
f 180/180/180 178/178/178 181/181/181
f 182/182/182 179/179/179 180/180/180
f 185/185/185 184/184/184 183/183/183
f 185/185/185 183/183/183 186/186/186
f 187/187/187 184/184/184 185/185/185
f 190/190/190 189/189/189 188/188/188
f 190/190/190 188/188/188 191/191/191
f 192/192/192 189/189/189 190/190/190
f 195/195/195 194/194/194 193/193/193
f 195/195/195 193/193/193 196/196/196
f 197/197/197 194/194/194 195/195/195
f 200/200/200 199/199/199 198/198/198
f 200/200/200 198/198/198 201/201/201
f 202/202/202 199/199/199 200/200/200
f 205/205/205 204/204/204 203/203/203
f 205/205/205 203/203/203 206/206/206
f 207/207/207 204/204/204 205/205/205
f 210/210/210 209/209/209 208/208/208
f 211/211/211 210/210/210 208/208/208
f 214/214/214 213/213/213 212/212/212
f 215/215/215 214/214/214 212/212/212
f 212/212/212 213/213/213 216/216/216
f 219/219/219 218/218/218 217/217/217
f 220/220/220 219/219/219 217/217/217
f 217/217/217 218/218/218 221/221/221
f 224/224/224 223/223/223 222/222/222
f 225/225/225 224/224/224 222/222/222
f 222/222/222 223/223/223 226/226/226
f 229/229/229 228/228/228 227/227/227
f 230/230/230 229/229/229 227/227/227
f 227/227/227 228/228/228 231/231/231
f 234/234/234 233/233/233 232/232/232
f 235/235/235 234/234/234 232/232/232
f 232/232/232 233/233/233 236/236/236
f 239/239/239 238/238/238 237/237/237
f 240/240/240 239/239/239 237/237/237
f 237/237/237 238/238/238 241/241/241
f 244/244/244 243/243/243 242/242/242
f 245/245/245 244/244/244 242/242/242
f 242/242/242 243/243/243 246/246/246
f 249/249/249 248/248/248 247/247/247
f 250/250/250 249/249/249 247/247/247
f 247/247/247 248/248/248 251/251/251
f 254/254/254 253/253/253 252/252/252
f 255/255/255 254/254/254 252/252/252
f 252/252/252 253/253/253 256/256/256
f 259/259/259 258/258/258 257/257/257
f 260/260/260 259/259/259 257/257/257
f 257/257/257 258/258/258 261/261/261
f 264/264/264 263/263/263 262/262/262
f 265/265/265 264/264/264 262/262/262
f 262/262/262 263/263/263 266/266/266
f 269/269/269 268/268/268 267/267/267
f 270/270/270 269/269/269 267/267/267
f 267/267/267 268/268/268 271/271/271
f 274/274/274 273/273/273 272/272/272
f 275/275/275 274/274/274 272/272/272
f 272/272/272 273/273/273 276/276/276
f 279/279/279 278/278/278 277/277/277
f 280/280/280 279/279/279 277/277/277
f 277/277/277 278/278/278 281/281/281
f 284/284/284 283/283/283 282/282/282
f 285/285/285 284/284/284 282/282/282
f 282/282/282 283/283/283 286/286/286
f 289/289/289 288/288/288 287/287/287
f 289/289/289 287/287/287 290/290/290
