g pb_Mesh-113930
v 1.000004 3.87434E-07 0
v -0.7499963 -4.284034E-07 0
v 1.000003 2 0
v -0.7499973 2 0
v -0.7499963 -4.284034E-07 0
v -0.7499963 -4.284034E-07 -1
v -0.7499963 -4.284034E-07 -1
v 1.000004 3.87434E-07 -1
v -0.7499971 1.5 -1
v 1.000003 1.5 -1
v 1.000004 3.87434E-07 -1
v 1.000004 3.87434E-07 0
v 1.000003 2 -0.5
v -0.7499973 2 -0.5
v 1.000003 1.5 -1
v -0.7499971 1.5 -1
v 1.000004 3.87434E-07 -1
v -0.7499963 -4.284034E-07 -1
v 1.000004 3.87434E-07 0
v -0.7499963 -4.284034E-07 0
v 1.000003 2 0
v -0.7499973 2 0
v 1.000003 2 -0.5
v -0.7499973 2 -0.5
v 1.000003 2 0
v 1.000003 1.5 -1
v 1.000003 2 -0.5
v -0.7499973 2 0
v -0.7499971 1.5 -1
v -0.7499973 2 -0.5
vt 1.000004 3.87434E-07
vt -0.7499963 -4.284034E-07
vt 1.000003 2
vt -0.7499973 2
vt -5.942419E-09 -4.700758E-08
vt -1 -4.700758E-08
vt 0.7499963 -4.284034E-07
vt -1.000004 3.87434E-07
vt 0.7499971 1.5
vt -1.000003 1.5
vt 1 -1.527913E-07
vt -1.584663E-08 -1.527913E-07
vt -1.000003 1.060661
vt 0.749997 1.06066
vt -1.000003 0.3535544
vt 0.7499965 0.3535531
vt 1.000004 -1
vt -0.7499963 -1
vt 1.000004 0
vt -0.7499963 0
vt -1.000004 0
vt 0.7499962 0
vt -1.000004 -0.5
vt 0.7499962 -0.5
vt -1.584662E-08 2
vt 1 1.5
vt 0.5 2
vt -5.942427E-09 2
vt -1 1.5
vt -0.5 2
vn 0 0 1
vn 0 0 1
vn 0 0 1
vn 0 0 1
vn -1 -5.066395E-07 0
vn -1 -5.116066E-07 9.934108E-09
vn 0 0 -1
vn 0 0 -1
vn 0 0 -1
vn 0 0 -1
vn 1 5.5631E-07 0
vn 1 5.463759E-07 -1.490116E-08
vn -3.853426E-07 0.7071067 -0.7071069
vn -3.612587E-07 0.7071067 -0.7071068
vn -3.612587E-07 0.7071067 -0.7071068
vn -3.371748E-07 0.7071068 -0.7071068
vn 4.661927E-07 -1 0
vn 4.661927E-07 -1 0
vn 4.661927E-07 -1 0
vn 4.661927E-07 -1 0
vn -5.449568E-07 1 0
vn -5.449568E-07 1 0
vn -5.449568E-07 1 0
vn -5.449568E-07 1 0
vn 1 5.066394E-07 -1.490116E-08
vn 1 5.231963E-07 -9.934108E-09
vn 1 4.76837E-07 0
vn -1 -5.000168E-07 6.622738E-09
vn -1 -4.967054E-07 9.934108E-09
vn -1 -4.768372E-07 0
g pb_Mesh-113930_0
f 3/3/3 2/2/2 1/1/1
f 3/3/3 4/4/4 2/2/2
f 9/9/9 8/8/8 7/7/7
f 9/9/9 10/10/10 8/8/8
f 15/15/15 14/14/14 13/13/13
f 15/15/15 16/16/16 14/14/14
f 19/19/19 18/18/18 17/17/17
f 19/19/19 20/20/20 18/18/18
f 23/23/23 22/22/22 21/21/21
f 23/23/23 24/24/24 22/22/22
f 26/26/26 27/27/27 25/25/25
f 26/26/26 12/12/12 11/11/11
f 26/26/26 25/25/25 12/12/12
f 30/30/30 29/29/29 28/28/28
f 28/28/28 6/6/6 5/5/5
f 28/28/28 29/29/29 6/6/6
g pb_Mesh-113930_1
