g pb_Mesh745686
v 5 0 -3
v 5 0 1
v 1 0 -3
v 1 0 1
v 7 0 5
v 3 0 5
v 5 0 9
v 1 0 9
v 5 0 13
v 1 0 13
v -3 0 -6
v -3 0 -2
v -3 0 5
v -3 0 11
v -3 0 15
v -7 0 -3
v -7 0 1
v -7 0 5
v -7 0 9
v -7 0 13
v -11 0 -3
v -11 0 1
v -11 0 5
v -11 0 9
v -11 0 13
vt -5 -3
vt -5 1
vt -1 -3
vt -1 1
vt -7 5
vt -3 5
vt -5 9
vt -1 9
vt -5 13
vt -1 13
vt 3 -6
vt 3 -2
vt 3 5
vt 3 11
vt 3 15
vt 7 -3
vt 7 1
vt 7 5
vt 7 9
vt 7 13
vt 11 -3
vt 11 1
vt 11 5
vt 11 9
vt 11 13
vn 0 1 0
vn 0 1 0
vn 0 1 0
vn 0 1 0
vn 0 1 0
vn 0 1 0
vn 0 1 0
vn 0 1 0
vn 0 1 0
vn 0 1 0
vn 0 1 0
vn 0 1 0
vn 0 1 0
vn 0 1 0
vn 0 1 0
vn 0 1 0
vn 0 1 0
vn 0 1 0
vn 0 1 0
vn 0 1 0
vn 0 1 0
vn 0 1 0
vn 0 1 0
vn 0 1 0
vn 0 1 0
g pb_Mesh745686_0
f 3/3/3 2/2/2 1/1/1
f 3/3/3 4/4/4 2/2/2
f 4/4/4 5/5/5 2/2/2
f 4/4/4 6/6/6 5/5/5
f 6/6/6 7/7/7 5/5/5
f 6/6/6 8/8/8 7/7/7
f 8/8/8 9/9/9 7/7/7
f 8/8/8 10/10/10 9/9/9
f 11/11/11 4/4/4 3/3/3
f 11/11/11 12/12/12 4/4/4
f 12/12/12 6/6/6 4/4/4
f 12/12/12 13/13/13 6/6/6
f 13/13/13 8/8/8 6/6/6
f 13/13/13 14/14/14 8/8/8
f 14/14/14 10/10/10 8/8/8
f 14/14/14 15/15/15 10/10/10
f 16/16/16 12/12/12 11/11/11
f 16/16/16 17/17/17 12/12/12
f 17/17/17 13/13/13 12/12/12
f 17/17/17 18/18/18 13/13/13
f 18/18/18 14/14/14 13/13/13
f 18/18/18 19/19/19 14/14/14
f 19/19/19 15/15/15 14/14/14
f 19/19/19 20/20/20 15/15/15
f 21/21/21 17/17/17 16/16/16
f 21/21/21 22/22/22 17/17/17
f 22/22/22 18/18/18 17/17/17
f 22/22/22 23/23/23 18/18/18
f 23/23/23 19/19/19 18/18/18
f 23/23/23 24/24/24 19/19/19
f 24/24/24 20/20/20 19/19/19
f 24/24/24 25/25/25 20/20/20
