g pb_Mesh390374
v 14 0 0
v 14 0 16
v -16 0 0
v -16 0 16
v 14 9.918213E-05 34
v -16 9.918213E-05 34
v -16 9.918213E-05 -29
v 14 9.918213E-05 -29
v -32 9.918213E-05 0
v -32 0.0001983643 -29
v -45 0.0001983643 0
v -45 0.0002975464 -29
v -45 43.23426 0
v -45 0.0002975464 -29
v -45 0.0001983643 0
v -45 43.23426 -36.54448
v 17.35178 31.73286 34
v -16 9.918213E-05 34
v 14 9.918213E-05 34
v -16 31.73286 34
vt -14 0
vt -14 16
vt 16 0
vt 16 16
vt -14 34
vt 16 34
vt 16 -29
vt -14 -29
vt 32 3.392102E-10
vt 32 -29
vt 45 4.957687E-10
vt 45 -29
vt 0 43.23426
vt 29 0.0002975464
vt 0 0.0001983643
vt 36.54448 43.23426
vt -17.35178 31.73286
vt 16 9.918213E-05
vt -14 9.918213E-05
vt 16 31.73286
vn 0 1 0
vn 0 1 0
vn 0 1 0
vn 0 1 0
vn 0 1 -5.510118E-06
vn 0 1 -5.510118E-06
vn 0 1 3.420073E-06
vn 0 1 3.420073E-06
vn 6.198883E-06 1 3.420073E-06
vn 6.198883E-06 1 3.420073E-06
vn 7.629395E-06 1 3.420073E-06
vn 7.629395E-06 1 3.420073E-06
vn 1 0 0
vn 1 0 0
vn 1 0 0
vn 1 0 0
vn 0 0 -1
vn 0 0 -1
vn 0 0 -1
vn 0 0 -1
g pb_Mesh390374_0
f 3/3/3 2/2/2 1/1/1
f 3/3/3 4/4/4 2/2/2
f 2/2/2 4/4/4 5/5/5
f 4/4/4 6/6/6 5/5/5
f 3/3/3 1/1/1 7/7/7
f 1/1/1 8/8/8 7/7/7
f 3/3/3 7/7/7 9/9/9
f 7/7/7 10/10/10 9/9/9
f 9/9/9 10/10/10 11/11/11
f 10/10/10 12/12/12 11/11/11
f 15/15/15 14/14/14 13/13/13
f 14/14/14 16/16/16 13/13/13
f 19/19/19 18/18/18 17/17/17
f 18/18/18 20/20/20 17/17/17
