g pb_Mesh1756210
v 47 0 -6
v 53 0 -10
v 51 0 -24
v 36 0 -7
v 32 0 -26
v 24 0 -15
v 24 0 -19
v 19 0 -26
v 32 0 -30
v 19 0 -32
v 24 0 -38
v 33 0 -38
v 27 0 -44
v 36 0 -46
v 27 0 -53
v 36 0 -54
v 23 0 -11
v 20 0 -14
v 15 0 -11
v 11 0 -16
v 3 0 -7
v 4 0 -26
v -7 0 -22
v -7 0 -32
v 2 0 -33
v -6.853233 0 -2.375642
v 0 0 1
v -5 0 14
v -13 0 0
v -13 0 19
v -8 0 20
v -5 0 31
v -7 0 30
v -8 1 20
v -5 1 31
v -7 1 30
v -5 1 14
v -13 1 19
v -13 1 0
v -6.853233 1 -2.375642
v 0 1 1
v 3 1 -7
v -7 1 -22
v -7 1 -32
v 2 1 -33
v 4 1 -26
v 11 1 -16
v 15 1 -11
v 20 1 -14
v 23 1 -11
v 24 1 -15
v 36 1 -7
v 27 1 -53
v 36 1 -54
v 36 1 -46
v 27 1 -44
v 33 1 -38
v 24 1 -38
v 32 1 -30
v 19 1 -32
v 19 1 -26
v 32 1 -26
v 24 1 -19
v 51 1 -24
v 47 1 -6
v 53 1 -10
v -5 0 31
v -7 0 30
v -5 1 31
v -7 1 30
v -7 0 30
v -8 0 20
v -7 1 30
v -8 1 20
v -5 0 14
v -5 0 31
v -5 1 14
v -5 1 31
v -8 0 20
v -13 0 19
v -8 1 20
v -13 1 19
v -13 0 19
v -13 0 0
v -13 1 19
v -13 1 0
v -13 0 0
v -6.853233 0 -2.375642
v -13 1 0
v -6.853233 1 -2.375642
v 0 0 1
v -5 0 14
v 0 1 1
v -5 1 14
v 3 0 -7
v 0 0 1
v 3 1 -7
v 0 1 1
v -6.853233 0 -2.375642
v -7 0 -22
v -6.853233 1 -2.375642
v -7 1 -22
v -7 0 -32
v 2 0 -33
v -7 1 -32
v 2 1 -33
v 2 0 -33
v 4 0 -26
v 2 1 -33
v 4 1 -26
v -7 0 -22
v -7 0 -32
v -7 1 -22
v -7 1 -32
v 4 0 -26
v 11 0 -16
v 4 1 -26
v 11 1 -16
v 15 0 -11
v 3 0 -7
v 15 1 -11
v 3 1 -7
v 11 0 -16
v 20 0 -14
v 11 1 -16
v 20 1 -14
v 23 0 -11
v 15 0 -11
v 23 1 -11
v 15 1 -11
v 20 0 -14
v 24 0 -15
v 20 1 -14
v 24 1 -15
v 36 0 -7
v 23 0 -11
v 36 1 -7
v 23 1 -11
v 27 0 -53
v 36 0 -54
v 27 1 -53
v 36 1 -54
v 36 0 -54
v 36 0 -46
v 36 1 -54
v 36 1 -46
v 27 0 -44
v 27 0 -53
v 27 1 -44
v 27 1 -53
v 36 0 -46
v 33 0 -38
v 36 1 -46
v 33 1 -38
v 24 0 -38
v 27 0 -44
v 24 1 -38
v 27 1 -44
v 33 0 -38
v 32 0 -30
v 33 1 -38
v 32 1 -30
v 19 0 -32
v 24 0 -38
v 19 1 -32
v 24 1 -38
v 19 0 -26
v 19 0 -32
v 19 1 -26
v 19 1 -32
v 32 0 -30
v 32 0 -26
v 32 1 -30
v 32 1 -26
v 24 0 -19
v 19 0 -26
v 24 1 -19
v 19 1 -26
v 24 0 -15
v 24 0 -19
v 24 1 -15
v 24 1 -19
v 32 0 -26
v 51 0 -24
v 32 1 -26
v 51 1 -24
v 47 0 -6
v 36 0 -7
v 47 1 -6
v 36 1 -7
v 51 0 -24
v 53 0 -10
v 51 1 -24
v 53 1 -10
v 53 0 -10
v 47 0 -6
v 53 1 -10
v 47 1 -6
vt 47 -6
vt 53 -10
vt 51 -24
vt 36 -7
vt 32 -26
vt 24 -15
vt 24 -19
vt 19 -26
vt 32 -30
vt 19 -32
vt 24 -38
vt 33 -38
vt 27 -44
vt 36 -46
vt 27 -53
vt 36 -54
vt 23 -11
vt 20 -14
vt 15 -11
vt 11 -16
vt 3 -7
vt 4 -26
vt -7 -22
vt -7 -32
vt 2 -33
vt -6.853233 -2.375642
vt 0 1
vt -5 14
vt -13 0
vt -13 19
vt -8 20
vt -5 31
vt -7 30
vt 8 20
vt 5 31
vt 7 30
vt 5 14
vt 13 19
vt 13 0
vt 6.853233 -2.375642
vt 0 1
vt -3 -7
vt 7 -22
vt 7 -32
vt -2 -33
vt -4 -26
vt -11 -16
vt -15 -11
vt -20 -14
vt -23 -11
vt -24 -15
vt -36 -7
vt -27 -53
vt -36 -54
vt -36 -46
vt -27 -44
vt -33 -38
vt -24 -38
vt -32 -30
vt -19 -32
vt -19 -26
vt -32 -26
vt -24 -19
vt -51 -24
vt -47 -6
vt -53 -10
vt 9.391485 0
vt 7.155417 0
vt 9.391485 1
vt 7.155417 1
vt 29.15459 0
vt 19.10471 0
vt 29.15459 1
vt 19.10471 1
vt -14 0
vt -31 0
vt -14 1
vt -31 1
vt -3.922323 0
vt -9.021342 0
vt -3.922323 1
vt -9.021342 1
vt 19 0
vt 0 0
vt 19 1
vt 0 1
vt 12.12588 0
vt 5.536003 0
vt 12.12588 1
vt 5.536003 1
vt -0.9333456 0
vt -14.86173 0
vt -0.9333456 1
vt -14.86173 1
vt 7.607675 0
vt -0.9363292 0
vt 7.607675 1
vt -0.9363292 1
vt -2.426828 0
vt -22.05173 0
vt -2.426828 1
vt -22.05173 1
vt 3.423377 0
vt -5.632008 0
vt 3.423377 1
vt -5.632008 1
vt 31.18085 0
vt 23.90074 0
vt 31.18085 1
vt 23.90074 1
vt -22 0
vt -32 0
vt -22 1
vt -32 1
vt 19.00618 0
vt 6.799625 0
vt 19.00618 1
vt 6.799625 1
vt 17.70876 0
vt 5.059645 0
vt 17.70876 1
vt 5.059645 1
vt -7.26717 0
vt -16.48672 0
vt -7.26717 1
vt -16.48672 1
vt 23 0
vt 15 0
vt 23 1
vt 15 1
vt -22.79835 0
vt -26.92146 0
vt -22.79835 1
vt -26.92146 1
vt 32.34945 0
vt 18.74797 0
vt 32.34945 1
vt 18.74797 1
vt -32.68773 0
vt -41.74312 0
vt -32.68773 1
vt -41.74312 1
vt 54 0
vt 46 0
vt 54 1
vt 46 1
vt -44 0
vt -53 0
vt -44 1
vt -53 1
vt 55.71159 0
vt 47.16758 0
vt 55.71159 1
vt 47.16758 1
vt -44.72136 0
vt -51.42956 0
vt -44.72136 1
vt -51.42956 1
vt 41.79971 0
vt 33.73745 0
vt 41.79971 1
vt 33.73745 1
vt -36.74658 0
vt -44.55684 0
vt -36.74658 1
vt -44.55684 1
vt -26 0
vt -32 0
vt -26 1
vt -32 1
vt 30 0
vt 26 0
vt 30 1
vt 26 1
vt -1.511219 0
vt -10.11354 0
vt -1.511219 1
vt -10.11354 1
vt -15 0
vt -19 0
vt -15 1
vt -19 1
vt -29.10237 0
vt -48.20734 0
vt -29.10237 1
vt -48.20734 1
vt 46.26377 0
vt 35.21841 0
vt 46.26377 1
vt 35.21841 1
vt 16.5463 0
vt 2.404162 0
vt 16.5463 1
vt 2.404162 1
vt 49.64567 0
vt 42.43457 0
vt 49.64567 1
vt 42.43457 1
vn 0 -1 0
vn 0 -1 0
vn 0 -1 0
vn 0 -1 0
vn 0 -1 0
vn 0 -1 0
vn 0 -1 0
vn 0 -1 0
vn 0 -1 0
vn 0 -1 0
vn 0 -1 0
vn 0 -1 0
vn 0 -1 0
vn 0 -1 0
vn 0 -1 0
vn 0 -1 0
vn 0 -1 0
vn 0 -1 0
vn 0 -1 0
vn 0 -1 0
vn 0 -1 0
vn 0 -1 0
vn 0 -1 0
vn 0 -1 0
vn 0 -1 0
vn 0 -1 0
vn 0 -1 0
vn 0 -1 0
vn 0 -1 0
vn 0 -1 0
vn 0 -1 0
vn 0 -1 0
vn 0 -1 0
vn 0 1 0
vn 0 1 0
vn 0 1 0
vn 0 1 0
vn 0 1 0
vn 0 1 0
vn 0 1 0
vn 0 1 0
vn 0 1 0
vn 0 1 0
vn 0 1 0
vn 0 1 0
vn 0 1 0
vn 0 1 0
vn 0 1 0
vn 0 1 0
vn 0 1 0
vn 0 1 0
vn 0 1 0
vn 0 1 0
vn 0 1 0
vn 0 1 0
vn 0 1 0
vn 0 1 0
vn 0 1 0
vn 0 1 0
vn 0 1 0
vn 0 1 0
vn 0 1 0
vn 0 1 0
vn 0 1 0
vn 0 1 0
vn 0 1 0
vn -0.4472136 0 0.8944272
vn -0.4472136 0 0.8944272
vn -0.4472136 0 0.8944272
vn -0.4472136 0 0.8944272
vn -0.9950372 0 0.09950373
vn -0.9950372 0 0.09950373
vn -0.9950372 0 0.09950373
vn -0.9950372 0 0.09950373
vn 1 0 0
vn 1 0 0
vn 1 0 0
vn 1 0 0
vn -0.1961161 0 0.9805807
vn -0.1961161 0 0.9805807
vn -0.1961161 0 0.9805807
vn -0.1961161 0 0.9805807
vn -1 0 0
vn -1 0 0
vn -1 0 0
vn -1 0 0
vn -0.3604989 0 -0.9327596
vn -0.3604989 0 -0.9327596
vn -0.3604989 0 -0.9327596
vn -0.3604989 0 -0.9327596
vn 0.9333456 0 0.3589791
vn 0.9333456 0 0.3589791
vn 0.9333456 0 0.3589791
vn 0.9333456 0 0.3589791
vn 0.9363292 0 0.3511235
vn 0.9363292 0 0.3511235
vn 0.9363292 0 0.3511235
vn 0.9363292 0 0.3511235
vn -0.999972 0 0.007478592
vn -0.999972 0 0.007478592
vn -0.999972 0 0.007478592
vn -0.999972 0 0.007478592
vn -0.1104315 0 -0.9938837
vn -0.1104315 0 -0.9938837
vn -0.1104315 0 -0.9938837
vn -0.1104315 0 -0.9938837
vn 0.961524 0 -0.2747211
vn 0.961524 0 -0.2747211
vn 0.961524 0 -0.2747211
vn 0.961524 0 -0.2747211
vn -1 0 0
vn -1 0 0
vn -1 0 0
vn -1 0 0
vn 0.8192319 0 -0.5734624
vn 0.8192319 0 -0.5734624
vn 0.8192319 0 -0.5734624
vn 0.8192319 0 -0.5734624
vn 0.3162278 0 0.9486833
vn 0.3162278 0 0.9486833
vn 0.3162278 0 0.9486833
vn 0.3162278 0 0.9486833
vn 0.2169305 0 -0.9761871
vn 0.2169305 0 -0.9761871
vn 0.2169305 0 -0.9761871
vn 0.2169305 0 -0.9761871
vn 0 0 1
vn 0 0 1
vn 0 0 1
vn 0 0 1
vn -0.2425356 0 -0.9701425
vn -0.2425356 0 -0.9701425
vn -0.2425356 0 -0.9701425
vn -0.2425356 0 -0.9701425
vn -0.2940859 0 0.955779
vn -0.2940859 0 0.955779
vn -0.2940859 0 0.955779
vn -0.2940859 0 0.955779
vn -0.1104315 0 -0.9938837
vn -0.1104315 0 -0.9938837
vn -0.1104315 0 -0.9938837
vn -0.1104315 0 -0.9938837
vn 1 0 0
vn 1 0 0
vn 1 0 0
vn 1 0 0
vn -1 0 0
vn -1 0 0
vn -1 0 0
vn -1 0 0
vn 0.9363292 0 0.3511235
vn 0.9363292 0 0.3511235
vn 0.9363292 0 0.3511235
vn 0.9363292 0 0.3511235
vn -0.8944272 0 -0.4472136
vn -0.8944272 0 -0.4472136
vn -0.8944272 0 -0.4472136
vn -0.8944272 0 -0.4472136
vn 0.9922779 0 0.1240347
vn 0.9922779 0 0.1240347
vn 0.9922779 0 0.1240347
vn 0.9922779 0 0.1240347
vn -0.7682213 0 -0.6401844
vn -0.7682213 0 -0.6401844
vn -0.7682213 0 -0.6401844
vn -0.7682213 0 -0.6401844
vn -1 0 0
vn -1 0 0
vn -1 0 0
vn -1 0 0
vn 1 0 0
vn 1 0 0
vn 1 0 0
vn 1 0 0
vn -0.8137335 0 0.5812382
vn -0.8137335 0 0.5812382
vn -0.8137335 0 0.5812382
vn -0.8137335 0 0.5812382
vn -1 0 0
vn -1 0 0
vn -1 0 0
vn -1 0 0
vn 0.1046848 0 -0.9945055
vn 0.1046848 0 -0.9945055
vn 0.1046848 0 -0.9945055
vn 0.1046848 0 -0.9945055
vn -0.09053575 0 0.9958932
vn -0.09053575 0 0.9958932
vn -0.09053575 0 0.9958932
vn -0.09053575 0 0.9958932
vn 0.9899495 0 -0.1414214
vn 0.9899495 0 -0.1414214
vn 0.9899495 0 -0.1414214
vn 0.9899495 0 -0.1414214
vn 0.5547002 0 0.8320503
vn 0.5547002 0 0.8320503
vn 0.5547002 0 0.8320503
vn 0.5547002 0 0.8320503
g pb_Mesh1756210_0
g pb_Mesh1756210_1
f 3/3/3 2/2/2 1/1/1
f 3/3/3 1/1/1 4/4/4
f 5/5/5 3/3/3 4/4/4
f 6/6/6 5/5/5 4/4/4
f 6/6/6 7/7/7 5/5/5
f 8/8/8 5/5/5 7/7/7
f 9/9/9 5/5/5 8/8/8
f 10/10/10 9/9/9 8/8/8
f 10/10/10 11/11/11 9/9/9
f 11/11/11 12/12/12 9/9/9
f 11/11/11 13/13/13 12/12/12
f 13/13/13 14/14/14 12/12/12
f 13/13/13 15/15/15 14/14/14
f 15/15/15 16/16/16 14/14/14
f 17/17/17 6/6/6 4/4/4
f 18/18/18 6/6/6 17/17/17
f 19/19/19 18/18/18 17/17/17
f 20/20/20 18/18/18 19/19/19
f 21/21/21 20/20/20 19/19/19
f 21/21/21 22/22/22 20/20/20
f 23/23/23 22/22/22 21/21/21
f 24/24/24 22/22/22 23/23/23
f 24/24/24 25/25/25 22/22/22
f 23/23/23 21/21/21 26/26/26
f 26/26/26 21/21/21 27/27/27
f 26/26/26 27/27/27 28/28/28
f 29/29/29 26/26/26 28/28/28
f 30/30/30 29/29/29 28/28/28
f 30/30/30 28/28/28 31/31/31
f 28/28/28 32/32/32 31/31/31
f 31/31/31 32/32/32 33/33/33
f 36/36/36 35/35/35 34/34/34
f 34/34/34 35/35/35 37/37/37
f 34/34/34 37/37/37 38/38/38
f 37/37/37 39/39/39 38/38/38
f 37/37/37 40/40/40 39/39/39
f 37/37/37 41/41/41 40/40/40
f 41/41/41 42/42/42 40/40/40
f 40/40/40 42/42/42 43/43/43
f 46/46/46 45/45/45 44/44/44
f 43/43/43 46/46/46 44/44/44
f 42/42/42 46/46/46 43/43/43
f 47/47/47 46/46/46 42/42/42
f 48/48/48 47/47/47 42/42/42
f 48/48/48 49/49/49 47/47/47
f 50/50/50 49/49/49 48/48/48
f 50/50/50 51/51/51 49/49/49
f 52/52/52 51/51/51 50/50/50
f 55/55/55 54/54/54 53/53/53
f 55/55/55 53/53/53 56/56/56
f 57/57/57 55/55/55 56/56/56
f 57/57/57 56/56/56 58/58/58
f 59/59/59 57/57/57 58/58/58
f 59/59/59 58/58/58 60/60/60
f 61/61/61 59/59/59 60/60/60
f 61/61/61 62/62/62 59/59/59
f 63/63/63 62/62/62 61/61/61
f 62/62/62 63/63/63 51/51/51
f 52/52/52 62/62/62 51/51/51
f 52/52/52 64/64/64 62/62/62
f 52/52/52 65/65/65 64/64/64
f 65/65/65 66/66/66 64/64/64
f 69/69/69 68/68/68 67/67/67
f 69/69/69 70/70/70 68/68/68
f 73/73/73 72/72/72 71/71/71
f 73/73/73 74/74/74 72/72/72
f 77/77/77 76/76/76 75/75/75
f 77/77/77 78/78/78 76/76/76
f 81/81/81 80/80/80 79/79/79
f 81/81/81 82/82/82 80/80/80
f 85/85/85 84/84/84 83/83/83
f 85/85/85 86/86/86 84/84/84
f 89/89/89 88/88/88 87/87/87
f 89/89/89 90/90/90 88/88/88
f 93/93/93 92/92/92 91/91/91
f 93/93/93 94/94/94 92/92/92
f 97/97/97 96/96/96 95/95/95
f 97/97/97 98/98/98 96/96/96
f 101/101/101 100/100/100 99/99/99
f 101/101/101 102/102/102 100/100/100
f 105/105/105 104/104/104 103/103/103
f 105/105/105 106/106/106 104/104/104
f 109/109/109 108/108/108 107/107/107
f 109/109/109 110/110/110 108/108/108
f 113/113/113 112/112/112 111/111/111
f 113/113/113 114/114/114 112/112/112
f 117/117/117 116/116/116 115/115/115
f 117/117/117 118/118/118 116/116/116
f 121/121/121 120/120/120 119/119/119
f 121/121/121 122/122/122 120/120/120
f 125/125/125 124/124/124 123/123/123
f 125/125/125 126/126/126 124/124/124
f 129/129/129 128/128/128 127/127/127
f 129/129/129 130/130/130 128/128/128
f 133/133/133 132/132/132 131/131/131
f 133/133/133 134/134/134 132/132/132
f 137/137/137 136/136/136 135/135/135
f 137/137/137 138/138/138 136/136/136
f 141/141/141 140/140/140 139/139/139
f 141/141/141 142/142/142 140/140/140
f 145/145/145 144/144/144 143/143/143
f 145/145/145 146/146/146 144/144/144
f 149/149/149 148/148/148 147/147/147
f 149/149/149 150/150/150 148/148/148
f 153/153/153 152/152/152 151/151/151
f 153/153/153 154/154/154 152/152/152
f 157/157/157 156/156/156 155/155/155
f 157/157/157 158/158/158 156/156/156
f 161/161/161 160/160/160 159/159/159
f 161/161/161 162/162/162 160/160/160
f 165/165/165 164/164/164 163/163/163
f 165/165/165 166/166/166 164/164/164
f 169/169/169 168/168/168 167/167/167
f 169/169/169 170/170/170 168/168/168
f 173/173/173 172/172/172 171/171/171
f 173/173/173 174/174/174 172/172/172
f 177/177/177 176/176/176 175/175/175
f 177/177/177 178/178/178 176/176/176
f 181/181/181 180/180/180 179/179/179
f 181/181/181 182/182/182 180/180/180
f 185/185/185 184/184/184 183/183/183
f 185/185/185 186/186/186 184/184/184
f 189/189/189 188/188/188 187/187/187
f 189/189/189 190/190/190 188/188/188
f 193/193/193 192/192/192 191/191/191
f 193/193/193 194/194/194 192/192/192
f 197/197/197 196/196/196 195/195/195
f 197/197/197 198/198/198 196/196/196
