g pb_Mesh142926
v -17 4 -2
v 27 -2 -2
v 27 4 -2
v -17 -2 -2
v 27 5 0
v 27 4 -2
v 27 -2 -2
v 27 -8 0
v 27 -8 -2
v -17 4 -2
v 27 4 -2
v 27 5 0
v -35 5 0
v -35 4 -2
v -35 -8 0
v -35 -8 -2
v -35 -5 -2
v -35 -2 -2
v -35 5 0
v -35 4 -2
v -30 -7.5 0
v -28 -7.5 -2
v -30 -7.5 -2
v -28 -7.5 0
v -28 -7.5 0
v -28 -8 -2
v -28 -7.5 -2
v -28 -8 0
v -30 -8 0
v -30 -7.5 -2
v -30 -8 -2
v -30 -7.5 0
v -30 -6 -3
v -28 -7.5 -3
v -28 -6 -3
v -27 -6 -3
v -30 -7.5 -3
v -27 -5.5 -2
v -28 -5.5 -2
v -28 -8 -3
v -27 -8 -3
v -27 -8 -2
v 27 -8 -2
v -31 -6 -3
v -31 -7.5 -3
v -35 -2 -2
v -35 -5 -2
v -31 -5.5 -2
v -31 -7.5 -2
v -31 -8 -3
v -30 -8 -3
v -35 -8 -2
v -31 -8 -2
v -35 4 -2
v -30 -5.5 -2
v -28 -5.5 -2
v -30 -5.5 -2
v -28 -6 -3
v -30 -6 -3
v -28 -7.5 -3
v -28 -8 -3
v -27 -5.5 -2
v -27 -6 -3
v -31 -7.5 -2
v -31 -8 -2
v -31 -7.5 -3
v -31 -8 -3
v -30 -7.5 -3
v -28 -7.5 -3
v -31 -5.5 -2
v -31 -6 -3
v -31 -5.5 -2
v -31 -6 -3
v -31 -8 -2
v -30 -8 -2
v -31 -8 -3
v -30 -8 -3
v -30 -8 -3
v -30 -7.5 -3
v -27 -8 -2
v -27 -5.5 -2
v -27 -8 -3
v -27 -6 -3
v -28 -8 -2
v -27 -8 -2
v -28 -8 -3
v -27 -8 -3
vt 17 4
vt -27 -2
vt -27 4
vt 17 -2
vt 0 5
vt 2 4
vt 2 -2
vt 0 -8
vt 2 -8
vt 17 0
vt -27 0
vt -27 2.236068
vt 35 2.236068
vt 35 0
vt 0 -8
vt -2 -8
vt -2 -5
vt -2 -2
vt 0 5
vt -2 4
vt -30 0
vt -28 -2
vt -30 -2
vt -28 0
vt 0 -7.5
vt -2 -8
vt -2 -7.5
vt 0 -8
vt 0 -8
vt 2 -7.5
vt 2 -8
vt 0 -7.5
vt 30 -6
vt 28 -7.5
vt 28 -6
vt 27 -6
vt 30 -7.5
vt 27 -5.5
vt 28 -5.5
vt 28 -8
vt 27 -8
vt 27 -8
vt -27 -8
vt 31 -6
vt 31 -7.5
vt 35 -2
vt 35 -5
vt 31 -5.5
vt 31 -7.5
vt 31 -8
vt 30 -8
vt 35 -8
vt 31 -8
vt 35 4
vt 30 -5.5
vt 28 -4.248529
vt 30 -4.248529
vt 28 -5.366563
vt 30 -5.366563
vt -3 -7.5
vt -3 -8
vt 27 -4.248529
vt 27 -5.366563
vt -2 -7.5
vt -2 -8
vt -3 -7.5
vt -3 -8
vt -30 -3
vt -28 -3
vt -2 -5.5
vt -3 -6
vt 31 -4.248529
vt 31 -5.366563
vt -31 -2
vt -30 -2
vt -31 -3
vt -30 -3
vt 3 -8
vt 3 -7.5
vt 2 -8
vt 2 -5.5
vt 3 -8
vt 3 -6
vt -28 -2
vt -27 -2
vt -28 -3
vt -27 -3
vn 0 0 -1
vn 0 0 -1
vn 0 0 -1
vn 0 0 -1
vn 1 0 0
vn 1 0 0
vn 1 0 0
vn 1 0 0
vn 1 0 0
vn 0 0.8944271 -0.4472136
vn 0 0.8944272 -0.4472136
vn 0 0.8944272 -0.4472136
vn 0 0.8944272 -0.4472136
vn 0 0.8944272 -0.4472136
vn -1 0 0
vn -1 0 0
vn -1 0 0
vn -1 0 0
vn -1 0 0
vn -1 0 0
vn 0 -1 0
vn 0 -1 0
vn 0 -1 0
vn 0 -1 0
vn -1 0 0
vn -1 0 0
vn -1 0 0
vn -1 0 0
vn 1 0 0
vn 1 0 0
vn 1 0 0
vn 1 0 0
vn 0 0 -1
vn 0 0 -1
vn 0 0 -1
vn 0 0 -1
vn 0 0 -1
vn 0 0 -1
vn 0 0 -1
vn 0 0 -1
vn 0 0 -1
vn 0 0 -1
vn 0 0 -1
vn 0 0 -1
vn 0 0 -1
vn 0 0 -1
vn 0 0 -1
vn 0 0 -1
vn 0 0 -1
vn 0 0 -1
vn 0 0 -1
vn 0 0 -1
vn 0 0 -1
vn 0 0 -1
vn 0 0 -1
vn 0 0.8944272 -0.4472136
vn 0 0.8944272 -0.4472136
vn 0 0.8944272 -0.4472136
vn 0 0.8944272 -0.4472136
vn -1 0 0
vn -1 0 0
vn 0 0.8944272 -0.4472136
vn 0 0.8944272 -0.4472136
vn -1 0 0
vn -1 0 0
vn -1 0 0
vn -1 0 0
vn 0 -1 0
vn 0 -1 0
vn -1 0 0
vn -1 0 0
vn 0 0.8944272 -0.4472136
vn 0 0.8944272 -0.4472136
vn 0 -1 0
vn 0 -1 0
vn 0 -1 0
vn 0 -1 0
vn 1 0 0
vn 1 0 0
vn 1 0 0
vn 1 0 0
vn 1 0 0
vn 1 0 0
vn 0 -1 0
vn 0 -1 0
vn 0 -1 0
vn 0 -1 0
g pb_Mesh142926_0
g pb_Mesh142926_1
f 3/3/3 2/2/2 1/1/1
f 2/2/2 4/4/4 1/1/1
f 7/7/7 6/6/6 5/5/5
f 8/8/8 7/7/7 5/5/5
f 8/8/8 9/9/9 7/7/7
f 12/12/12 11/11/11 10/10/10
f 10/10/10 14/14/14 13/13/13
f 12/12/12 10/10/10 13/13/13
f 17/17/17 16/16/16 15/15/15
f 18/18/18 17/17/17 15/15/15
f 19/19/19 18/18/18 15/15/15
f 19/19/19 20/20/20 18/18/18
f 23/23/23 22/22/22 21/21/21
f 22/22/22 24/24/24 21/21/21
f 27/27/27 26/26/26 25/25/25
f 26/26/26 28/28/28 25/25/25
f 31/31/31 30/30/30 29/29/29
f 30/30/30 32/32/32 29/29/29
f 35/35/35 34/34/34 33/33/33
f 36/36/36 34/34/34 35/35/35
f 34/34/34 37/37/37 33/33/33
f 39/39/39 4/4/4 38/38/38
f 40/40/40 34/34/34 36/36/36
f 40/40/40 36/36/36 41/41/41
f 42/42/42 38/38/38 4/4/4
f 2/2/2 42/42/42 4/4/4
f 2/2/2 43/43/43 42/42/42
f 33/33/33 45/45/45 44/44/44
f 37/37/37 45/45/45 33/33/33
f 48/48/48 47/47/47 46/46/46
f 48/48/48 49/49/49 47/47/47
f 37/37/37 50/50/50 45/45/45
f 37/37/37 51/51/51 50/50/50
f 49/49/49 52/52/52 47/47/47
f 49/49/49 53/53/53 52/52/52
f 1/1/1 39/39/39 54/54/54
f 1/1/1 4/4/4 39/39/39
f 39/39/39 46/46/46 54/54/54
f 39/39/39 55/55/55 46/46/46
f 55/55/55 48/48/48 46/46/46
f 58/58/58 57/57/57 56/56/56
f 58/58/58 59/59/59 57/57/57
f 60/60/60 26/26/26 27/27/27
f 60/60/60 61/61/61 26/26/26
f 63/63/63 56/56/56 62/62/62
f 63/63/63 58/58/58 56/56/56
f 66/66/66 65/65/65 64/64/64
f 66/66/66 67/67/67 65/65/65
f 68/68/68 22/22/22 23/23/23
f 68/68/68 69/69/69 22/22/22
f 71/71/71 64/64/64 70/70/70
f 71/71/71 66/66/66 64/64/64
f 59/59/59 72/72/72 57/57/57
f 59/59/59 73/73/73 72/72/72
f 76/76/76 75/75/75 74/74/74
f 76/76/76 77/77/77 75/75/75
f 78/78/78 30/30/30 31/31/31
f 78/78/78 79/79/79 30/30/30
f 82/82/82 81/81/81 80/80/80
f 82/82/82 83/83/83 81/81/81
f 86/86/86 85/85/85 84/84/84
f 86/86/86 87/87/87 85/85/85
