g pb_Mesh260048
v -6 0 0
v -6 0 -2
v -6 4.5 -2
v -6 4.5 0
v -6 9 -2
v -6 9 0
v 0 4.5 -2
v 0 0 0
v 0 4.5 0
v 0 0 -2
v 0 9 -2
v 0 9 0
v -3 9 -2
v 0 9 -2
v 0 9 0
v -3 9 0
v -6 9 -2
v -6 9 0
v 0 0 0
v -3 0 -2
v -3 0 0
v 0 0 -2
v -6 0 -2
v -6 0 0
v 0 0 0
v -3 0 0
v -3 4.5 0
v 0 4.5 0
v -6 0 0
v -6 4.5 0
v -3 9 0
v 0 9 0
v -6 9 0
v -3 4.5 -2
v 0 0 -2
v 0 4.5 -2
v -3 0 -2
v -6 4.5 -2
v -6 0 -2
v -3 9 -2
v 0 9 -2
v -6 9 -2
vt 0 0
vt -2 0
vt -2 4.5
vt 0 4.5
vt -2 9
vt 0 9
vt 2 4.5
vt 0 0
vt 0 4.5
vt 2 0
vt 2 9
vt 0 9
vt 3 -2
vt 0 -2
vt 0 0
vt 3 0
vt 6 -2
vt 6 0
vt 0 0
vt -3 -2
vt -3 0
vt 0 -2
vt -6 -2
vt -6 0
vt 0 0
vt -3 0
vt -3 4.5
vt 0 4.5
vt -6 0
vt -6 4.5
vt -3 9
vt 0 9
vt -6 9
vt 3 4.5
vt 0 0
vt 0 4.5
vt 3 0
vt 6 4.5
vt 6 0
vt 3 9
vt 0 9
vt 6 9
vn -1 0 0
vn -1 0 0
vn -1 0 0
vn -1 0 0
vn -1 0 0
vn -1 0 0
vn 1 0 0
vn 1 0 0
vn 1 0 0
vn 1 0 0
vn 1 0 0
vn 1 0 0
vn 0 1 0
vn 0 1 0
vn 0 1 0
vn 0 1 0
vn 0 1 0
vn 0 1 0
vn 0 -1 0
vn 0 -1 0
vn 0 -1 0
vn 0 -1 0
vn 0 -1 0
vn 0 -1 0
vn 0 0 1
vn 0 0 1
vn 0 0 1
vn 0 0 1
vn 0 0 1
vn 0 0 1
vn 0 0 1
vn 0 0 1
vn 0 0 1
vn 0 0 -1
vn 0 0 -1
vn 0 0 -1
vn 0 0 -1
vn 0 0 -1
vn 0 0 -1
vn 0 0 -1
vn 0 0 -1
vn 0 0 -1
g pb_Mesh260048_0
g pb_Mesh260048_1
f 3/3/3 2/2/2 1/1/1
f 3/3/3 1/1/1 4/4/4
f 5/5/5 3/3/3 4/4/4
f 5/5/5 4/4/4 6/6/6
f 9/9/9 8/8/8 7/7/7
f 8/8/8 10/10/10 7/7/7
f 12/12/12 9/9/9 11/11/11
f 9/9/9 7/7/7 11/11/11
f 15/15/15 14/14/14 13/13/13
f 15/15/15 13/13/13 16/16/16
f 16/16/16 13/13/13 17/17/17
f 16/16/16 17/17/17 18/18/18
f 21/21/21 20/20/20 19/19/19
f 20/20/20 22/22/22 19/19/19
f 24/24/24 23/23/23 21/21/21
f 23/23/23 20/20/20 21/21/21
f 27/27/27 26/26/26 25/25/25
f 27/27/27 25/25/25 28/28/28
f 30/30/30 29/29/29 26/26/26
f 30/30/30 26/26/26 27/27/27
f 31/31/31 27/27/27 28/28/28
f 31/31/31 28/28/28 32/32/32
f 33/33/33 30/30/30 27/27/27
f 33/33/33 27/27/27 31/31/31
f 36/36/36 35/35/35 34/34/34
f 35/35/35 37/37/37 34/34/34
f 34/34/34 37/37/37 38/38/38
f 37/37/37 39/39/39 38/38/38
f 41/41/41 36/36/36 40/40/40
f 36/36/36 34/34/34 40/40/40
f 40/40/40 34/34/34 42/42/42
f 34/34/34 38/38/38 42/42/42
