g pb_Mesh242184
v 12 2 6
v 12 -5 6
v 2 2 6
v -8 -5 6
v -8 2 6
v -8 2 6
v -8 -5 6
v -8 2 -3
v -8 -5 -12
v -8 2 -12
v 2 2 -12
v -8 2 -12
v -8 -5 -12
v 12 -5 -12
v 12 2 -12
v 12 2 -3.125
v 12 2 -12
v 12 -5 -12
v 12 -5 6
v 12 2 6
v 2 2 -3.125
v 12 2 -3.125
v 12 2 6
v 2 2 6
v -8 2 -3
v -8 2 6
v -8 2 -12
v 2 2 -12
v 12 2 -12
vt 12 2
vt 12 -5
vt 2 2
vt -8 -5
vt -8 2
vt 6 2
vt 6 -5
vt -3 2
vt -12 -5
vt -12 2
vt -2 2
vt 8 2
vt 8 -5
vt -12 -5
vt -12 2
vt 3.125 2
vt 12 2
vt 12 -5
vt -6 -5
vt -6 2
vt -2 -3.125
vt -12 -3.125
vt -12 6
vt -2 6
vt 8 -3
vt 8 6
vt 8 -12
vt -2 -12
vt -12 -12
vn 0 0 1
vn 0 0 1
vn 0 0 1
vn 0 0 1
vn 0 0 1
vn -1 0 0
vn -1 0 0
vn -1 0 0
vn -1 0 0
vn -1 0 0
vn 0 0 -1
vn 0 0 -1
vn 0 0 -1
vn 0 0 -1
vn 0 0 -1
vn 1 0 0
vn 1 0 0
vn 1 0 0
vn 1 0 0
vn 1 0 0
vn 0 1 0
vn 0 1 0
vn 0 1 0
vn 0 1 0
vn 0 1 0
vn 0 1 0
vn 0 1 0
vn 0 1 0
vn 0 1 0
g pb_Mesh242184_0
g pb_Mesh242184_1
f 3/3/3 2/2/2 1/1/1
f 2/2/2 3/3/3 4/4/4
f 3/3/3 5/5/5 4/4/4
f 8/8/8 7/7/7 6/6/6
f 7/7/7 8/8/8 9/9/9
f 8/8/8 10/10/10 9/9/9
f 13/13/13 12/12/12 11/11/11
f 13/13/13 11/11/11 14/14/14
f 15/15/15 14/14/14 11/11/11
f 18/18/18 17/17/17 16/16/16
f 18/18/18 16/16/16 19/19/19
f 20/20/20 19/19/19 16/16/16
f 23/23/23 22/22/22 21/21/21
f 23/23/23 21/21/21 24/24/24
f 24/24/24 21/21/21 25/25/25
f 24/24/24 25/25/25 26/26/26
f 21/21/21 28/28/28 27/27/27
f 21/21/21 27/27/27 25/25/25
f 22/22/22 29/29/29 28/28/28
f 22/22/22 28/28/28 21/21/21
