g pb_Mesh-467570
v -3 3 -9
v 0.9999963 -2 -8.999939
v 1 3 -9
v -5.960934 -2.0625 -8.999949
v 1 3 -9
v 0.9999961 -2 -4.999939
v 1 3 -5
v 0.9999963 -2 -8.999939
v 0.9999897 -2 -4.124939
v 0.9999897 2.999954 -4.125
v 0.9999961 -2 -4.999939
v -3 3 -9
v 1 3 -9
v 1 3 -5
v -3 3 -5
v -3 3 -5
v 1 3 -5
v 0.9999897 2.999954 -4.125
v -3.00001 2.999954 -4.125
v -40 2.999992 -4.999998
v -39.875 -2 -9.000058
v -40 2.999992 -8.999997
v -40 -1.999977 -4.937559
v -38 -4 -9.000051
v -34 -4 -9.000041
v -37 3 -9
v -30 -2 -9.00003
v -26 -2 -9.000018
v -21.99999 2 -9
v -9.874996 -2 -8.99997
v -5.960934 -2.0625 -8.999949
v -3 3 -9
v -11.50002 -1.999996 -9.000006
v -15.75 2 -8.999991
v -40 2.999992 -8.999997
v -38 -4 -9.000051
v -37 3 -9
v -39.875 -2 -9.000058
v -40 2.999992 -8.999997
v -37 3 -9
v -37 3 -5
v -40 2.999992 -4.999998
v -37 3 -9
v -37 3 -5
v -37.00001 3.000053 -3.625
v -40 2.999992 -4.999998
v -37 3 -5
v -40.00001 3.000019 -3.624998
v -40.00001 3.000019 -3.624998
v -40 -1.999977 -4.937559
v -40 2.999992 -4.999998
v -40.00002 -2.000023 -3.562559
v -25.99998 -6 -9.000016
v -21.99999 2 -9
v -26 -2 -9.000018
v -25.99998 -6 -9.000016
v -22 -5.999996 -9.000011
v -21.99999 2 -9
v -30 -4 -9.00003
v -25.99998 -6 -9.000016
v -21.99999 2 -9
v -26 -2 -9.000018
v -25.99998 -6 -9.000016
v -22 -5.999996 -9.000011
v -21.99999 2 -9
v -9.953117 -5.875 -8.99999
v -6.039055 -5.9375 -8.999969
v -39.875 -4 -9.000058
v -39.875 -2 -9.000058
vt 3 3.00011
vt -0.9999963 -1.99989
vt -1 3.00011
vt 5.960934 -2.06239
vt 9 3.000001
vt 4.999939 -1.999999
vt 5 3.000001
vt 8.999939 -1.999999
vt 4.124951 -2
vt 4.125012 2.999954
vt 4.999951 -2
vt 3 -9
vt -1 -9
vt -1 -5
vt 3 -5
vt 3 -5.000157
vt -1 -5.000157
vt -0.9999897 -4.125157
vt 3.00001 -4.125157
vt -4.999998 3.998775
vt -9.000058 -1.00278
vt -8.999997 3.998775
vt -4.937559 -0.9996327
vt 38.00001 -4.000018
vt 34.00001 -4.000018
vt 37.00002 2.999983
vt 30.00001 -2.000017
vt 26.00001 -2.000017
vt 22.00001 1.999983
vt 9.87501 -2.000017
vt 5.960948 -2.062517
vt 3.000015 2.999983
vt 11.50003 -2.000014
vt 15.75001 1.999983
vt 39.99999 2.999926
vt 37.99999 -4.000066
vt 36.99999 2.999934
vt 39.87499 -2.000066
vt 39.99999 -8.999997
vt 36.99999 -9
vt 36.99999 -5
vt 39.99999 -4.999998
vt 37 -9
vt 37 -5
vt 37 -3.624884
vt 39.99999 -4.999881
vt 36.99999 -4.999884
vt 40 -3.624881
vt -3.624665 2.999993
vt -4.937226 -2.000004
vt -4.999665 2.999966
vt -3.562226 -2.000049
vt 26.00003 -5.999996
vt 22.00004 2.000004
vt 26.00004 -1.999996
vt 26.00003 -5.999996
vt 22.00005 -5.999992
vt 22.00004 2.000004
vt 30.00002 -4
vt 26.00003 -5.999996
vt 22.00004 2.000004
vt 26.00004 -1.999996
vt 26.00003 -5.999996
vt 22.00005 -5.999992
vt 22.00004 2.000004
vt 9.953166 -5.875043
vt 6.039104 -5.937543
vt 39.87503 -4
vt 39.87503 -2
vn 8.025581E-07 -1.156499E-05 -1
vn 8.025581E-07 -1.156499E-05 -1
vn 0 -1.220703E-05 -1
vn 1.605116E-06 -1.092294E-05 -1
vn 1 -7.629391E-07 2.980232E-08
vn 1 -7.629391E-07 2.980232E-08
vn 1 -7.867813E-07 0
vn 1 -7.390969E-07 5.960464E-08
vn 1 -3.932742E-07 9.536743E-06
vn 1 1.438574E-10 1.178469E-05
vn 1 -7.866923E-07 7.288796E-06
vn 0 1 0
vn 0 1 0
vn 0 1 0
vn 0 1 0
vn 0 1 5.231585E-05
vn 0 1 5.231585E-05
vn 0 1 5.231585E-05
vn 0 1 5.231585E-05
vn -0.9996073 -0.01268816 -0.01537828
vn -0.9996073 -0.01268816 -0.01537828
vn -0.9996877 -0.02499299 0
vn -0.9995269 -0.0003833212 -0.03075655
vn 2.384186E-06 6.88008E-06 -1
vn 1.164044E-06 6.357162E-06 -1
vn 1.094446E-06 5.375874E-06 -1
vn 1.402462E-06 7.87623E-06 -1
vn 1.572072E-06 7.082523E-06 -1
vn 5.52138E-07 -7.281903E-06 -1
vn 1.343343E-05 -2.438374E-05 -1
vn 5.152821E-06 -1.299791E-05 -1
vn 5.471968E-06 -1.444381E-05 -1
vn 1.041686E-05 -1.656431E-05 -1
vn 2.464884E-07 -1.172579E-05 -1
vn 8.302201E-06 1.000147E-05 -1
vn 8.302201E-06 1.000147E-05 -1
vn -9.536931E-07 7.356918E-06 -1
vn 1.75581E-05 1.264602E-05 -1
vn -2.543132E-06 1 0
vn -2.543132E-06 1 0
vn -2.543132E-06 1 0
vn -2.543132E-06 1 0
vn 0 1 0
vn 0 1 0
vn -6.993635E-06 1 -2.913048E-05
vn -6.993635E-06 1 -2.913048E-05
vn -2.543163E-06 1 -3.884058E-05
vn -1.144411E-05 1 -1.942037E-05
vn -1 6.590031E-07 -8.322972E-06
vn -1 6.590031E-07 -8.322972E-06
vn -1 6.590078E-07 -8.322989E-06
vn -1 6.589986E-07 -8.322954E-06
vn 3.099433E-06 4.768438E-07 -1
vn 3.099433E-06 4.768438E-07 -1
vn 5.006769E-06 -4.768228E-07 -1
vn 3.099433E-06 4.768438E-07 -1
vn 1.192097E-06 1.43051E-06 -1
vn 3.099433E-06 4.768438E-07 -1
vn 2.861023E-06 0 -1
vn 3.099433E-06 4.768438E-07 -1
vn 3.099433E-06 4.768438E-07 -1
vn 5.006769E-06 -4.768228E-07 -1
vn 3.099433E-06 4.768438E-07 -1
vn 1.192097E-06 1.43051E-06 -1
vn 3.099433E-06 4.768438E-07 -1
vn 5.43722E-06 4.812574E-06 -1
vn 5.43722E-06 4.812574E-06 -1
vn 4.069011E-06 0 -1
vn 4.069011E-06 0 -1
g pb_Mesh-467570_0
g pb_Mesh-467570_1
f 3/3/3 2/2/2 1/1/1
f 2/2/2 4/4/4 1/1/1
f 7/7/7 6/6/6 5/5/5
f 6/6/6 8/8/8 5/5/5
f 10/10/10 9/9/9 7/7/7
f 9/9/9 11/11/11 7/7/7
f 14/14/14 13/13/13 12/12/12
f 14/14/14 12/12/12 15/15/15
f 18/18/18 17/17/17 16/16/16
f 18/18/18 16/16/16 19/19/19
f 22/22/22 21/21/21 20/20/20
f 21/21/21 23/23/23 20/20/20
f 26/26/26 25/25/25 24/24/24
f 27/27/27 25/25/25 26/26/26
f 28/28/28 27/27/27 26/26/26
f 29/29/29 28/28/28 26/26/26
f 32/32/32 31/31/31 30/30/30
f 32/32/32 30/30/30 33/33/33
f 32/32/32 33/33/33 34/34/34
f 32/32/32 34/34/34 29/29/29
f 26/26/26 32/32/32 29/29/29
f 37/37/37 36/36/36 35/35/35
f 36/36/36 38/38/38 35/35/35
f 41/41/41 40/40/40 39/39/39
f 41/41/41 39/39/39 42/42/42
f 15/15/15 12/12/12 43/43/43
f 15/15/15 43/43/43 44/44/44
f 47/47/47 46/46/46 45/45/45
f 46/46/46 48/48/48 45/45/45
f 51/51/51 50/50/50 49/49/49
f 50/50/50 52/52/52 49/49/49
f 55/55/55 54/54/54 53/53/53
f 58/58/58 57/57/57 56/56/56
f 27/27/27 59/59/59 25/25/25
f 62/62/62 61/61/61 60/60/60
f 65/65/65 64/64/64 63/63/63
f 30/30/30 31/31/31 66/66/66
f 31/31/31 67/67/67 66/66/66
f 69/69/69 24/24/24 68/68/68
