g pb_Mesh45210
v -2.833519 -96 -2.833517
v -5.166481 -96 -2.833517
v -2.833519 2 -2.833517
v -5.166481 2 -2.833517
v -5.166481 -96 -2.833517
v -5.166481 -96 -5.166483
v -5.166481 2 -2.833517
v -5.166481 2 -5.166483
v -5.166481 -96 -5.166483
v -2.833519 -96 -5.166483
v -5.166481 2 -5.166483
v -2.833519 2 -5.166483
v -2.833519 -96 -5.166483
v -2.833519 -96 -2.833517
v -2.833519 2 -5.166483
v -2.833519 2 -2.833517
v -2.833519 2 -2.833517
v -5.166481 2 -2.833517
v -2.833519 2 -5.166483
v -5.166481 2 -5.166483
v -2.833519 -96 -5.166483
v -5.166481 -96 -5.166483
v -2.833519 -96 -2.833517
v -5.166481 -96 -2.833517
vt -2.833519 -96
vt -5.166481 -96
vt -2.833519 2
vt -5.166481 2
vt -2.833517 -96
vt -5.166483 -96
vt -2.833517 2
vt -5.166483 2
vt 5.166481 -96
vt 2.833519 -96
vt 5.166481 2
vt 2.833519 2
vt 5.166483 -96
vt 2.833517 -96
vt 5.166483 2
vt 2.833517 2
vt 2.833519 -2.833517
vt 5.166481 -2.833517
vt 2.833519 -5.166483
vt 5.166481 -5.166483
vt -2.833519 -5.166483
vt -5.166481 -5.166483
vt -2.833519 -2.833517
vt -5.166481 -2.833517
vn 0 0 1
vn 0 0 1
vn 0 0 1
vn 0 0 1
vn -1 0 0
vn -1 0 0
vn -1 0 0
vn -1 0 0
vn 0 0 -1
vn 0 0 -1
vn 0 0 -1
vn 0 0 -1
vn 1 0 0
vn 1 0 0
vn 1 0 0
vn 1 0 0
vn 0 1 0
vn 0 1 0
vn 0 1 0
vn 0 1 0
vn 0 -1 0
vn 0 -1 0
vn 0 -1 0
vn 0 -1 0
g pb_Mesh45210_0
f 3/3/3 2/2/2 1/1/1
f 3/3/3 4/4/4 2/2/2
f 7/7/7 6/6/6 5/5/5
f 7/7/7 8/8/8 6/6/6
f 11/11/11 10/10/10 9/9/9
f 11/11/11 12/12/12 10/10/10
f 15/15/15 14/14/14 13/13/13
f 15/15/15 16/16/16 14/14/14
f 19/19/19 18/18/18 17/17/17
f 19/19/19 20/20/20 18/18/18
f 23/23/23 22/22/22 21/21/21
f 23/23/23 24/24/24 22/22/22
