g pb_Mesh324394
v -1.227856E-05 4 4
v -7.000012 4 3.999979
v -9.357929E-06 4 1
v -7.000002 4 0.3999879
v -2.384186E-07 4 -2
v -4.999994 4 -2.000015
v -9.000003 4 0.3999819
v -9.000012 4 3.999973
v -10.98292 2 5.321897
v -9.991451 3 -0.2000273
v -9.991465 3 4.660934
v -10.9829 2 -1.000033
v -9.000003 4 0.3999819
v -9.000012 4 3.999973
v 0.9914521 3 -2.660962
v -5.110153 3 -2.66098
v -5.220312 2 -3.321946
v 1.982904 2 -3.321924
v -2.384186E-07 4 -2
v -4.999994 4 -2.000015
v -7.550807 3 -0.2000198
v -5.110153 3 -2.66098
v -4.999994 4 -2.000015
v -7.000002 4 0.3999879
v -8.101608 2 -1.000025
v -5.220312 2 -3.321946
v -5.110153 3 -2.66098
v -7.550807 3 -0.2000198
v -10.9829 2 -1.000033
v -8.101608 2 -1.000025
v -9.991451 3 -0.2000273
v -7.550807 3 -0.2000198
v -9.991451 3 -0.2000273
v -7.550807 3 -0.2000198
v -9.000003 4 0.3999819
v -7.000002 4 0.3999879
v -7.000012 4 3.999979
v -7.55082 3 4.660942
v -9.000012 4 3.999973
v -9.991465 3 4.660934
v -8.101627 2 5.321905
v -10.98292 2 5.321897
v -1.227856E-05 11.5 4
v -7.000012 4 3.999979
v -1.227856E-05 4 4
v -7.000012 11.5 3.999979
vt 1.227856E-05 4
vt 7.000012 3.999979
vt 9.357929E-06 1
vt 7.000002 0.3999879
vt 2.384186E-07 -2
vt 4.999994 -2.000015
vt 9.000003 0.3999819
vt 9.000012 3.999973
vt 5.321926 -6.312401
vt -0.2000003 -4.90422
vt 4.660962 -4.90422
vt -1.000004 -6.3124
vt 0.4000061 -3.496039
vt 3.999997 -3.496039
vt -0.991444 1.035454
vt 5.110161 1.035454
vt 5.220322 -0.1632428
vt -1.982894 -0.1632428
vt 6.338008E-06 2.234151
vt 5 2.234151
vt 5.470416 0.05244122
vt 2.009689 -0.04145054
vt 2.370866 1.106836
vt 5.463681 1.323634
vt 5.343122 -1.291714
vt 1.648512 -1.189737
vt 2.009689 -0.04145054
vt 5.470416 0.05244122
vt 10.9829 1.071175
vt 8.101611 1.071175
vt 9.991452 2.348915
vt 7.550808 2.348915
vt 9.991452 2.348915
vt 7.550808 2.348915
vt 9.000002 3.512479
vt 7.000001 3.512479
vt -7 1.131345
vt -7.550806 -0.0673516
vt -9 1.131345
vt -9.99145 -0.06735151
vt -8.101611 -1.266049
vt -10.9829 -1.266049
vt 1.53269E-07 11.5
vt 7 4
vt 1.53269E-07 4
vt 7 11.5
vn 0 1 0
vn 0 1 0
vn 0 1 0
vn 0 1 0
vn 0 1 0
vn 0 1 0
vn 0 1 0
vn 0 1 0
vn -0.7101362 0.7040643 -2.046507E-06
vn -0.7101362 0.7040643 -2.046507E-06
vn -0.710136 0.7040646 -1.950507E-06
vn -0.7101365 0.704064 -2.142507E-06
vn -0.7101361 0.7040645 -1.915865E-06
vn -0.7101359 0.7040646 -1.881223E-06
vn 2.54148E-06 0.5514028 -0.8342391
vn 2.542618E-06 0.5514027 -0.8342392
vn 2.54148E-06 0.5514028 -0.8342391
vn 2.540341E-06 0.5514028 -0.8342391
vn 2.544258E-06 0.5514028 -0.8342392
vn 2.545899E-06 0.5514027 -0.8342392
vn -0.6107815 0.5528803 -0.5583954
vn -0.6238052 0.477629 -0.6186579
vn -0.6107815 0.5528803 -0.5583954
vn -0.5977578 0.6281316 -0.4981329
vn -0.5277646 0.5972927 -0.5909195
vn -0.5418941 0.504155 -0.6724421
vn -0.5277646 0.5972927 -0.5909195
vn -0.513635 0.6904303 -0.5093968
vn 2.39074E-06 0.6246966 -0.7808676
vn 2.382484E-06 0.6246965 -0.7808676
vn 2.382484E-06 0.6246965 -0.7808676
vn 2.374228E-06 0.6246965 -0.7808676
vn 2.6072E-06 0.5144996 -0.8574906
vn 2.606916E-06 0.5144996 -0.8574907
vn 2.606916E-06 0.5144996 -0.8574907
vn 2.606631E-06 0.5144996 -0.8574907
vn -2.486226E-06 0.5514028 0.8342391
vn -2.547019E-06 0.5514027 0.8342392
vn -2.547019E-06 0.5514027 0.8342392
vn -2.607811E-06 0.5514027 0.8342392
vn -2.546462E-06 0.5514028 0.8342392
vn -2.485114E-06 0.5514029 0.8342391
vn 3.031322E-06 0 -1
vn 3.031322E-06 0 -1
vn 3.031322E-06 0 -1
vn 3.031322E-06 0 -1
g pb_Mesh324394_0
f 3/3/3 2/2/2 1/1/1
f 3/3/3 4/4/4 2/2/2
f 5/5/5 4/4/4 3/3/3
f 5/5/5 6/6/6 4/4/4
f 7/7/7 2/2/2 4/4/4
f 7/7/7 8/8/8 2/2/2
f 11/11/11 10/10/10 9/9/9
f 10/10/10 12/12/12 9/9/9
f 14/14/14 13/13/13 11/11/11
f 11/11/11 13/13/13 10/10/10
f 17/17/17 16/16/16 15/15/15
f 17/17/17 15/15/15 18/18/18
f 16/16/16 20/20/20 19/19/19
f 16/16/16 19/19/19 15/15/15
f 23/23/23 22/22/22 21/21/21
f 24/24/24 23/23/23 21/21/21
f 27/27/27 26/26/26 25/25/25
f 28/28/28 27/27/27 25/25/25
f 31/31/31 30/30/30 29/29/29
f 32/32/32 30/30/30 31/31/31
f 35/35/35 34/34/34 33/33/33
f 36/36/36 34/34/34 35/35/35
f 39/39/39 38/38/38 37/37/37
f 39/39/39 40/40/40 38/38/38
f 40/40/40 41/41/41 38/38/38
f 40/40/40 42/42/42 41/41/41
f 45/45/45 44/44/44 43/43/43
f 44/44/44 46/46/46 43/43/43
