g pb_Mesh371184
v -1.050968 -6.67572E-06 1.847744E-06
v 1.864426 -1.060963E-05 -1.999998
v 0.4067268 -7.927418E-06 11
v 3.322121 -8.46386E-06 2.000002
v 7 -1.03116E-05 3.000002
v 4.779819 -1.055002E-05 -0.9999982
v 4.779819 -1.072884E-05 -3.999998
v 1.135574 -9.059906E-06 -7.999998
v -3.966362 -8.761883E-06 -2.999998
v 0.4067268 -7.927418E-06 11
v 1.864426 -1.060963E-05 -1.999998
v -1.050968 -6.67572E-06 1.847744E-06
v 3.322121 -8.46386E-06 2.000002
v 7 -1.03116E-05 3.000002
v 4.779819 -1.055002E-05 -0.9999982
v 4.779819 -1.072884E-05 -3.999998
v 1.135574 -9.059906E-06 -7.999998
v -3.966362 -8.761883E-06 -2.999998
vt 1.050968 1.847744E-06
vt -1.864426 -1.999998
vt -0.4067268 11
vt -3.322121 2.000002
vt -7 3.000002
vt -4.779819 -0.9999982
vt -4.779819 -3.999998
vt -1.135574 -7.999998
vt 3.966362 -2.999998
vt 0.4067268 11
vt 1.864426 -1.999998
vt -1.050968 1.847744E-06
vt 3.322121 2.000002
vt 7 3.000002
vt 4.779819 -0.9999982
vt 4.779819 -3.999998
vt 1.135574 -7.999998
vt -3.966362 -2.999998
vn 9.159272E-07 1 -6.318091E-07
vn 2.922978E-07 1 -2.508983E-07
vn 3.078745E-07 1 -1.718016E-07
vn 1.341411E-08 1 -5.413302E-07
vn 3.597733E-07 1 -4.291331E-07
vn -6.093025E-16 1 -5.960464E-08
vn 1.006513E-07 1 8.711444E-08
vn 2.3985E-07 1 2.29151E-07
vn 4.008921E-07 1 -4.897727E-07
vn -1.308467E-06 -1 5.960444E-08
vn -1.308467E-06 -1 5.960444E-08
vn -1.308467E-06 -1 5.960444E-08
vn 6.927184E-07 -1 2.839988E-07
vn -7.195466E-07 -1 7.986616E-07
vn 1.505165E-15 -1 5.960464E-08
vn 0 -1 5.960464E-08
vn -2.013026E-07 -1 -2.338335E-07
vn -2.783973E-07 -1 -2.244684E-07
g pb_Mesh371184_0
f 3/3/3 2/2/2 1/1/1
f 4/4/4 2/2/2 3/3/3
f 5/5/5 2/2/2 4/4/4
f 6/6/6 2/2/2 5/5/5
f 7/7/7 2/2/2 6/6/6
f 8/8/8 2/2/2 7/7/7
f 9/9/9 2/2/2 8/8/8
f 1/1/1 2/2/2 9/9/9
f 12/12/12 11/11/11 10/10/10
f 10/10/10 11/11/11 13/13/13
f 13/13/13 11/11/11 14/14/14
f 14/14/14 11/11/11 15/15/15
f 15/15/15 11/11/11 16/16/16
f 16/16/16 11/11/11 17/17/17
f 17/17/17 11/11/11 18/18/18
f 18/18/18 11/11/11 12/12/12
