g pb_Mesh93550
v -10 6 6
v 0 0 6
v 0 6 6
v -10 0 6
v -10 8 6
v 0 8 6
v 0 0 -8
v -10 0 -8
v -10 6 -8
v 0 6 -8
v -10 8 -8
v 0 8 -8
v 0 8 6
v -10 8 -4
v -10 8 6
v 0 8 -4
v -10 8 -8
v 0 8 -8
v -10 0 -8
v 0 0 -8
v 0 0 -4
v -10 0 -4
v 0 0 6
v -10 0 6
v -10 6 -4
v -10 0 6
v -10 6 6
v -10 0 -4
v -10 6 -8
v -10 0 -8
v -10 8 -4
v -10 8 6
v -10 8 -8
v 0 0 6
v 0 0 -4
v 0 6 -4
v 0 6 6
v 0 8 -4
v 0 8 6
v 0 6 -8
v 0 8 -8
v 3 0.0001001358 -8
v 3 0.0001001358 -4
vt 10 6
vt 0 0
vt 0 6
vt 10 0
vt 10 8
vt 0 8
vt 0 0
vt -10 0
vt -10 6
vt 0 6
vt -10 8
vt 0 8
vt 0 6
vt -10 -4
vt -10 6
vt 0 -4
vt -10 -8
vt 0 -8
vt 10 -8
vt 0 -8
vt 0 -4
vt 10 -4
vt 0 6
vt 10 6
vt 4 6
vt -6 0
vt -6 6
vt 4 0
vt 8 6
vt 8 0
vt 4 8
vt -6 8
vt 8 8
vt 6 0
vt -4 0
vt -4 6
vt 6 6
vt -4 8
vt 6 8
vt -8 6
vt -8 8
vt -3 -8
vt -3 -4
vn 0 0 -1
vn 0 0 -1
vn 0 0 -1
vn 0 0 -1
vn 0 0 -1
vn 0 0 -1
vn 0 0 1
vn 0 0 1
vn 0 0 1
vn 0 0 1
vn 0 0 1
vn 0 0 1
vn 0 -1 0
vn 0 -1 0
vn 0 -1 0
vn 0 -1 0
vn 0 -1 0
vn 0 -1 0
vn 0 1 0
vn 0 1 0
vn 0 1 0
vn 0 1 0
vn 0 1 0
vn 0 1 0
vn 1 0 0
vn 1 0 0
vn 1 0 0
vn 1 0 0
vn 1 0 0
vn 1 0 0
vn 1 0 0
vn 1 0 0
vn 1 0 0
vn -1 0 0
vn -1 0 0
vn -1 0 0
vn -1 0 0
vn -1 0 0
vn -1 0 0
vn -1 0 0
vn -1 0 0
vn -3.33786E-05 1 0
vn -3.33786E-05 1 0
g pb_Mesh93550_0
f 3/3/3 2/2/2 1/1/1
f 2/2/2 4/4/4 1/1/1
f 6/6/6 3/3/3 5/5/5
f 3/3/3 1/1/1 5/5/5
f 9/9/9 8/8/8 7/7/7
f 9/9/9 7/7/7 10/10/10
f 11/11/11 9/9/9 10/10/10
f 11/11/11 10/10/10 12/12/12
f 15/15/15 14/14/14 13/13/13
f 14/14/14 16/16/16 13/13/13
f 14/14/14 17/17/17 16/16/16
f 17/17/17 18/18/18 16/16/16
f 21/21/21 20/20/20 19/19/19
f 21/21/21 19/19/19 22/22/22
f 23/23/23 21/21/21 22/22/22
f 23/23/23 22/22/22 24/24/24
f 27/27/27 26/26/26 25/25/25
f 26/26/26 28/28/28 25/25/25
f 25/25/25 28/28/28 29/29/29
f 28/28/28 30/30/30 29/29/29
f 32/32/32 27/27/27 31/31/31
f 27/27/27 25/25/25 31/31/31
f 31/31/31 25/25/25 33/33/33
f 25/25/25 29/29/29 33/33/33
f 36/36/36 35/35/35 34/34/34
f 36/36/36 34/34/34 37/37/37
f 38/38/38 36/36/36 37/37/37
f 38/38/38 37/37/37 39/39/39
f 41/41/41 40/40/40 36/36/36
f 41/41/41 36/36/36 38/38/38
f 20/20/20 21/21/21 42/42/42
f 21/21/21 43/43/43 42/42/42
g pb_Mesh93550_1
