g pb_Mesh357496
v 0 -4 24
v 0 -4 32
v -8 -2 24
v -8 -4 32
v -3.5 -2 -1.25
v 0 -4 -1.25
v -3.75 -2 4
v 0 -4 4
v -3.75 -2 4
v 0 -4 4
v -4 -2 8
v 0 -4 8
v -7.75 0 4
v -3.75 -2 4
v -8 0 8
v -4 -2 8
v -7.5 0 -1.25
v -3.5 -2 -1.25
v -7.75 0 4
v -3.75 -2 4
v 0 -4 8
v -4 -2.5 12
v -4 -2 8
v 0 -4 12
v 0 -4 12
v -4 -3 16
v -4 -2.5 12
v 0 -4 16
v -8 -1.5 12
v -4 -2.5 12
v -8 -2 16
v -4 -3 16
v -8 0 8
v -4 -2 8
v -8 -1.5 12
v -4 -2.5 12
v -4 -3 16
v 0 -4 16
v -8 -2 20
v -8 -2 16
v -8 -2 24
v -7.5 0 -1.25
v -12 -0.5 4
v -12 -1.25 -1.25
v -7.75 0 4
v -7.75 0 4
v -12 0 8
v -12 -0.5 4
v -8 0 8
v -16 -1.25 4
v -12 -0.5 4
v -16 0 8
v -12 0 8
v -16 -2 -1.25
v -12 -1.25 -1.25
v -16 -1.25 4
v -12 -0.5 4
v -12 0 8
v -8 0 8
v -12 -0.5 12
v -8 -1.5 12
v -12 -0.5 12
v -12 -1 16
v -12 -1 16
v -12 -1 20
v -12 -1 24
v -20 -3 -1.25
v -16 -2 -1.25
v -20 -1.5 4
v -16 -1.25 4
v -20 -1.5 4
v -16 -1.25 4
v -20 0 8
v -16 0 8
v -24 -2 4
v -20 -1.5 4
v -24 -0.25 8
v -20 0 8
v -24 -4 -1.25
v -20 -3 -1.25
v -24 -2 4
v -20 -1.5 4
v -20 0 8
v -16 0 8
v -16 0 12
v -20 0 12
v -24 0 12
v -20 0 18
v -24 0 18
v -24 -0.25 8
v -20 0 8
v -20 0 12
v -24 0 12
v -28 -4 -1.25
v -24 -4 -1.25
v -28 -3 4
v -24 -2 4
v -28 -3 4
v -24 -2 4
v -28 -2 8
v -24 -0.25 8
v -32 -4 8
v -32 -4 4
v -28 -3 4
v -28 -2 8
v -32 -4 4
v -32 -4 -1.25
v -28 -4 -1.25
v -28 -3 4
v -28 -2 8
v -24 -0.25 8
v -24 0 12
v -28 -2 12
v -32 -4 12
v -28 -2 12
v -28 -2 16
v -32 -4 16
v -32 -4 8
v -28 -2 8
v -3.75 -2 -4.25
v 0 -3.99995 -4.25
v -3.5 -2 -1.25
v 0 -4 -1.25
v -7.75 0 -4.25
v -3.75 -2 -4.25
v -7.5 0 -1.25
v -3.5 -2 -1.25
v -7.999992 0 -7.25
v -4 -1.99995 -7.25
v 0 -3.9999 -7.25
v 0 -3.99995 -4.25
v -7.75 0 -4.25
v -12 -1.25 -1.25
v -12 -1.499978 -4.25
v -7.5 0 -1.25
v -16 -2.999955 -4.25
v -12 -1.499978 -4.25
v -16 -2 -1.25
v -12 -1.25 -1.25
v -16 -1 -7.25
v -12 0 -7.25
v -16 -2.999955 -4.25
v -12 -1.499978 -4.25
v -24 -4 -1.25
v -24 -3.999911 -7.25
v -20 -3 -1.25
v -16 -1 -7.25
v -16 -2.999955 -4.25
v -16 -2 -1.25
v -32.00002 -3.999906 -7.25
v -28 -4 -1.25
v -32 -4 -1.25
v -24 -3.999911 -7.25
v -24 -4 -1.25
v -4 -1.999925 -9.25
v 0 -3.99985 -9.25
v -4 -1.99995 -7.25
v 0 -3.9999 -7.25
v -7.999992 0 -7.25
v -7.999992 0 -9.25
v -4 -1.999925 -9.25
v -4 -1.99995 -7.25
v -7.999992 0 -9.25
v -8.375 0 -11.25
v -4.375 -2 -11.25
v -4 -1.999925 -9.25
v -4.375 -2 -11.25
v 0 -3.9998 -11.25
v -4 -1.999925 -9.25
v 0 -3.99985 -9.25
v -4 -2.999802 -13.25
v 0 -3.99975 -13.25
v 0 -3.9998 -11.25
v -4.375 -2 -11.25
v -8.375 0 -11.25
v -8 -1.25 -13.25
v -4.375 -2 -11.25
v -4 -2.999802 -13.25
v -8 -1.25 -13.25
v -7.999992 -3.999707 -15.25
v -4 -2.999802 -13.25
v -4 -3.999703 -15.25
v -4 -3.999703 -15.25
v 0 -3.9997 -15.25
v 0 -3.99975 -13.25
v -4 -2.999802 -13.25
v -12 -1.499978 -4.25
v -12 0 -7.25
v -9.999996 0 -7.25
v -7.999992 0 -7.25
v -7.75 0 -4.25
v -9.999994 -3.24978 -15.25
v -7.999992 -3.999707 -15.25
v -8 -1.25 -13.25
v -10.28125 -0.25 -11.25
v -8.375 0 -11.25
v -8.375 0 -11.25
v -7.999992 0 -9.25
v -10.28125 -0.25 -11.25
v -9.999996 0 -7.25
v -7.999992 0 -7.25
v -16 0 8
v -14 -0.25 12
v -16 0 12
v -12 0 8
v -12 -0.5 12
v -14 -0.5 20
v -14 -0.5 24
v -14 -0.5 16
v -14 -0.5 24
v -12 -1 24
v -14 -4 32
v -12 -4 32
v -8 -2 24
v -8 -4 32
v -16 0 14
v -16 0 12
v -14 -0.25 12
v -14 -0.375 14
v -14 -0.25 12
v -12 -0.5 12
v -14 -0.375 14
v -12 -1 16
v -14 -0.5 16
vt -0.9701425 24
vt -0.9701425 32
vt 7.276069 24
vt 6.790998 32
vt 2.046573 -1.167623
vt -1.984556 -1.167623
vt 2.263634 4.083842
vt -1.984556 4.080913
vt 2.367647 4.102032
vt -1.882353 4.102032
vt 2.588235 8.103762
vt -1.882353 8.100304
vt 6.931811 4.095275
vt 2.459675 4.095275
vt 7.155417 8.096838
vt 2.683281 8.096838
vt 6.708204 -1.178304
vt 2.236068 -1.178304
vt 6.931811 4.072886
vt 2.459675 4.072886
vt -1.788854 8.347987
vt 2.459675 12.37291
vt 2.683282 8.347987
vt -1.788854 12.32322
vt -1.404494 12.35403
vt 2.691947 16.38133
vt 2.867508 12.35403
vt -1.404494 16.32691
vt 7.397336 12.3215
vt 3.274231 12.3215
vt 7.276069 16.3508
vt 3.152963 16.3508
vt 7.155417 8.722436
vt 2.683281 8.722436
vt 6.484597 12.94144
vt 2.459675 12.65701
vt 3.152963 16
vt -0.9701425 16
vt 7.276069 20
vt 7.276069 16
vt 7.276069 24
vt 7.226384 -0.9646054
vt 11.69604 4.334895
vt 11.89677 -0.9646054
vt 7.467264 4.24548
vt 7.696918 4.081087
vt 11.91781 8.111792
vt 11.97623 4.081087
vt 7.945205 8.054214
vt 15.95632 4.328718
vt 11.88661 4.328718
vt 15.72596 8.513145
vt 11.79447 8.29671
vt 16.09453 -1.101192
vt 12.02483 -1.101193
vt 15.95632 4.200307
vt 11.88661 4.200307
vt 12 7.938223
vt 8 7.938223
vt 12 11.96935
vt 8 12.09339
vt 11.52044 12.3215
vt 11.39917 16.3508
vt 11.39917 16
vt 11.39917 20
vt 11.39917 24
vt 20.13046 -0.686308
vt 16.00735 -0.686308
vt 19.76665 4.761641
vt 15.82545 4.567288
vt 20.05462 3.658755
vt 16.04681 3.658755
vt 19.96105 7.929732
vt 15.96884 7.842272
vt 24.06274 4.064308
vt 20.03161 4.064308
vt 23.84568 8.424971
vt 19.84556 8.326185
vt 24.25356 -0.4998676
vt 20.13046 -0.4998676
vt 23.76849 5.097204
vt 19.76665 4.929049
vt 20 8
vt 16 8
vt 16 12
vt 20 12
vt 24 12
vt 20 18
vt 24 18
vt 23.96886 8
vt 19.96105 8
vt 19.96105 12
vt 23.95326 12
vt 28 -1.976372
vt 24 -1.976372
vt 28 3.368018
vt 24 3.55513
vt 27.8916 4.80196
vt 23.76849 4.80196
vt 27.64906 8.917926
vt 23.34406 9.089425
vt 32.01471 8
vt 32.01471 4
vt 27.8916 4
vt 27.64906 8
vt 32 4
vt 32 -1.25
vt 28 -1.25
vt 28 4
vt 26.45404 8.523743
vt 22.08798 8.523743
vt 21.98778 12.5303
vt 26.45404 12.5172
vt 30.41052 12
vt 25.93839 12
vt 25.93839 16
vt 30.41052 16
vt 30.41052 8
vt 25.93839 8
vt 2.367684 -4.385034
vt -1.882293 -4.385034
vt 2.147094 -1.382728
vt -1.882316 -1.38734
vt 6.931811 -4.376129
vt 2.459675 -4.376129
vt 6.708204 -1.374046
vt 2.236068 -1.374046
vt 7.155444 -7.378202
vt 2.683337 -7.378202
vt -1.788774 -7.378157
vt -1.788796 -4.380238
vt 7.308187 -4.034892
vt 11.73192 -1.025645
vt 11.81512 -4.034892
vt 7.072439 -1.050628
vt 16.03464 -3.220153
vt 11.76264 -3.220153
vt 15.68353 -0.07744069
vt 11.67487 -0.286651
vt 15.76482 -7.668305
vt 11.64171 -7.668305
vt 16.24988 -4.095556
vt 12.00551 -4.358971
vt 24.2568 -1.37422
vt 24.25677 -7.360795
vt 20.1337 -1.374684
vt 15.7697 -7.42662
vt 16.25149 -4.303534
vt 16.0106 -1.375149
vt 32.00002 -7.249939
vt 28 -1.249939
vt 32 -1.249939
vt 24 -7.249939
vt 24 -1.249939
vt 2.683369 -9.24996
vt -1.788734 -9.24996
vt 2.683357 -7.24996
vt -1.788756 -7.24996
vt 7.155462 -7.25
vt 7.155462 -9.25
vt 2.683366 -9.25
vt 2.683355 -7.25
vt 7.155411 -9.516606
vt 7.490828 -11.52363
vt 3.018692 -11.52363
vt 2.683315 -9.516602
vt 3.147569 -11.49877
vt -1.662819 -11.49877
vt 2.806541 -9.492701
vt -1.662839 -9.50483
vt 3.153059 -13.24991
vt -0.9700347 -13.24991
vt -0.9700468 -11.24991
vt 3.759339 -11.24993
vt 7.490828 -11.76867
vt 6.5964 -13.98297
vt 3.018692 -11.76867
vt 2.236156 -13.88693
vt 11.64084 -6.838226
vt 12.24724 -10.18385
vt 7.829134 -8.967242
vt 8.435539 -10.87473
vt 4.000003 -15.2499
vt 3.099209E-06 -15.2499
vt 3.099248E-06 -13.2499
vt 4.000002 -13.24993
vt 12.07114 -4.299873
vt 11.79521 -7.570117
vt 9.829335 -7.479745
vt 7.863464 -7.389372
vt 7.617738 -4.469986
vt 10.04555 -13.51771
vt 8.056508 -14.03071
vt 8.017097 -10.71461
vt 10.28378 -8.529799
vt 8.37414 -8.383088
vt 8.359716 -11.23286
vt 7.985394 -9.234146
vt 10.27758 -11.23639
vt 9.981748 -7.231666
vt 7.985394 -7.234834
vt 15.96884 8.046618
vt 13.95714 12.04663
vt 15.96884 12.03886
vt 11.97663 8.031083
vt 11.94544 12.05439
vt 13.46073 20
vt 13.46073 24
vt 13.46073 16
vt 13.82987 23.38271
vt 11.7833 23.46496
vt 13.39575 32.08168
vt 11.4112 31.99943
vt 7.690154 23.62945
vt 7.442084 31.83493
vt 15.87645 14
vt 15.87645 12
vt 13.86088 12
vt 13.84538 14
vt 13.71414 12.20866
vt 11.70232 12.19738
vt 13.6911 14.21149
vt 11.61018 16.2256
vt 13.66807 16.21433
vn 0.2425356 0.9701425 0
vn 0.1230915 0.9847319 0.1230915
vn 0.1828229 0.9775285 0.1049466
vn 0 0.9701425 0.2425356
vn 0.4686368 0.8833859 -0.002981394
vn 0.4897814 0.8718253 0.005912795
vn 0.4620605 0.88656 0.02261493
vn 0.4647615 0.8854054 0.007350835
vn 0.4620605 0.88656 0.02261493
vn 0.4647615 0.8854054 0.007350835
vn 0.4238136 0.9008655 0.09393318
vn 0.4234267 0.9055026 0.02783879
vn 0.1872194 0.982307 -0.004667063
vn 0.4620605 0.88656 0.02261493
vn 0.2547385 0.9553503 0.1497134
vn 0.4238136 0.9008655 0.09393318
vn 0.1160864 0.9930897 -0.01722568
vn 0.4686368 0.8833859 -0.002981394
vn 0.1872194 0.982307 -0.004667063
vn 0.4620605 0.88656 0.02261493
vn 0.4234267 0.9055026 0.02783879
vn 0.3081564 0.9456859 0.1035263
vn 0.4238136 0.9008655 0.09393318
vn 0.3241867 0.9455444 0.02913428
vn 0.3241867 0.9455444 0.02913428
vn 0.2603442 0.9636707 0.05966257
vn 0.3081564 0.9456859 0.1035263
vn 0.2425356 0.9701425 0
vn 0.2625928 0.9435042 0.202101
vn 0.3081564 0.9456859 0.1035263
vn 0.2420942 0.968377 0.06030267
vn 0.2603442 0.9636707 0.05966257
vn 0.2547385 0.9553503 0.1497134
vn 0.4238136 0.9008655 0.09393318
vn 0.2625928 0.9435042 0.202101
vn 0.3081564 0.9456859 0.1035263
vn 0.2603442 0.9636707 0.05966257
vn 0.2425356 0.9701425 0
vn 0.2425356 0.9701425 0
vn 0.2420942 0.968377 0.06030267
vn 0.1828229 0.9775285 0.1049466
vn 0.1160864 0.9930897 -0.01722568
vn -0.1451689 0.9799811 -0.1362466
vn -0.2334235 0.9675708 -0.09654079
vn 0.1872194 0.982307 -0.004667063
vn 0.1872194 0.982307 -0.004667063
vn 0.0008995433 0.9999688 0.007845026
vn -0.1451689 0.9799811 -0.1362466
vn 0.2547385 0.9553503 0.1497134
vn -0.1131266 0.9675388 -0.2259891
vn -0.1451689 0.9799811 -0.1362466
vn -0.006608167 0.9926728 -0.1206523
vn 0.0008995433 0.9999688 0.007845026
vn -0.2065415 0.9552771 -0.2116272
vn -0.2334235 0.9675708 -0.09654079
vn -0.1131266 0.9675388 -0.2259891
vn -0.1451689 0.9799811 -0.1362466
vn 0.0008995433 0.9999688 0.007845026
vn 0.2547385 0.9553503 0.1497134
vn 0.1588043 0.9768996 0.1429981
vn 0.2625928 0.9435042 0.202101
vn 0.1588043 0.9768996 0.1429981
vn 0.2350023 0.9705489 0.0529984
vn 0.2350023 0.9705489 0.0529984
vn 0.2425356 0.9701425 0
vn 0.2156977 0.9687312 0.1226154
vn -0.1808141 0.967446 -0.1770721
vn -0.2065415 0.9552771 -0.2116272
vn -0.1033775 0.9477346 -0.301848
vn -0.1131266 0.9675388 -0.2259891
vn -0.1033775 0.9477346 -0.301848
vn -0.1131266 0.9675388 -0.2259891
vn -0.03808745 0.9844714 -0.1713634
vn -0.006608167 0.9926728 -0.1206523
vn -0.2057264 0.9171208 -0.341418
vn -0.1033775 0.9477346 -0.301848
vn -0.2291218 0.949351 -0.2150252
vn -0.03808745 0.9844714 -0.1713634
vn -0.1489657 0.9763709 -0.156554
vn -0.1808141 0.967446 -0.1770721
vn -0.2057264 0.9171208 -0.341418
vn -0.1033775 0.9477346 -0.301848
vn -0.03808745 0.9844714 -0.1713634
vn -0.006608167 0.9926728 -0.1206523
vn 0.08283208 0.9965635 0
vn -0.01040201 0.9998918 -0.01040201
vn -0.1443688 0.9890384 -0.03099443
vn 0 1 0
vn 0 1 0
vn -0.2291218 0.949351 -0.2150252
vn -0.03808745 0.9844714 -0.1713634
vn -0.01040201 0.9998918 -0.01040201
vn -0.1443688 0.9890384 -0.03099443
vn -0.04008697 0.9948178 -0.09343748
vn -0.1489657 0.9763709 -0.156554
vn -0.2343555 0.9512528 -0.2004887
vn -0.2057264 0.9171208 -0.341418
vn -0.2343555 0.9512528 -0.2004887
vn -0.2057264 0.9171208 -0.341418
vn -0.4075034 0.9025206 -0.1392752
vn -0.2291218 0.949351 -0.2150252
vn -0.3969172 0.9162021 -0.05504927
vn -0.1824848 0.9821401 -0.04582809
vn -0.2343555 0.9512528 -0.2004887
vn -0.4075034 0.9025206 -0.1392752
vn -0.1824848 0.9821401 -0.04582809
vn 0 1 7.847945E-06
vn -0.04008697 0.9948178 -0.09343748
vn -0.2343555 0.9512528 -0.2004887
vn -0.4075034 0.9025206 -0.1392752
vn -0.2291218 0.949351 -0.2150252
vn -0.1443688 0.9890384 -0.03099443
vn -0.4472136 0.8944272 0
vn -0.4472136 0.8944272 0
vn -0.4472136 0.8944272 0
vn -0.4472136 0.8944272 0
vn -0.4472136 0.8944272 0
vn -0.3969172 0.9162021 -0.05504927
vn -0.4075034 0.9025206 -0.1392752
vn 0.4557631 0.8894866 -0.0330702
vn 0.4769856 0.8788567 -0.009787444
vn 0.4686368 0.8833859 -0.002981394
vn 0.4897814 0.8718253 0.005912795
vn 0.1162436 0.9932082 0.004996389
vn 0.4557631 0.8894866 -0.0330702
vn 0.1160864 0.9930897 -0.01722568
vn 0.4686368 0.8833859 -0.002981394
vn 0.2296975 0.973215 -0.009565708
vn 0.447128 0.8942763 -0.01861125
vn 0.4530591 0.891432 -0.009293592
vn 0.4769856 0.8788567 -0.009787444
vn 0.1162436 0.9932082 0.004996389
vn -0.2334235 0.9675708 -0.09654079
vn -0.2804948 0.9508544 0.1311427
vn 0.1160864 0.9930897 -0.01722568
vn -0.1968331 0.9743487 0.1090933
vn -0.2804948 0.9508544 0.1311427
vn -0.2065415 0.9552771 -0.2116272
vn -0.2334235 0.9675708 -0.09654079
vn -0.09960233 0.8888459 0.4472497
vn -0.1318631 0.8724672 0.4705455
vn -0.1968331 0.9743487 0.1090933
vn -0.2804948 0.9508544 0.1311427
vn -0.1489657 0.9763709 -0.156554
vn -0.1500547 0.9884812 0.01971141
vn -0.1808141 0.967446 -0.1770721
vn -0.09960233 0.8888459 0.4472497
vn -0.1968331 0.9743487 0.1090933
vn -0.2065415 0.9552771 -0.2116272
vn 2.980224E-07 1 1.549721E-05
vn -0.04008697 0.9948178 -0.09343748
vn 0 1 7.847945E-06
vn -0.1500547 0.9884812 0.01971141
vn -0.1489657 0.9763709 -0.156554
vn 0.4430951 0.895951 -0.03063492
vn 0.4472013 0.8944334 1.955232E-05
vn 0.447128 0.8942763 -0.01861125
vn 0.4530591 0.891432 -0.009293592
vn 0.2296975 0.973215 -0.009565708
vn 0.2858078 0.9577304 -0.03265661
vn 0.4430951 0.895951 -0.03063492
vn 0.447128 0.8942763 -0.01861125
vn 0.2858078 0.9577304 -0.03265661
vn 0.1639736 0.9468597 -0.2767119
vn 0.4144706 0.8806449 -0.2295183
vn 0.4430951 0.895951 -0.03063492
vn 0.4144706 0.8806449 -0.2295183
vn 0.3788315 0.9190068 -0.1091474
vn 0.4430951 0.895951 -0.03063492
vn 0.4472013 0.8944334 1.955232E-05
vn 0.2671772 0.8720315 -0.4100944
vn 0.1802319 0.9772472 -0.1118229
vn 0.3788315 0.9190068 -0.1091474
vn 0.4144706 0.8806449 -0.2295183
vn 0.1639736 0.9468597 -0.2767119
vn 0.213681 0.742891 -0.6343923
vn 0.4144706 0.8806449 -0.2295183
vn 0.2671772 0.8720315 -0.4100944
vn 0.213681 0.742891 -0.6343923
vn 0.1744932 0.6705347 -0.7210654
vn 0.2671772 0.8720315 -0.4100944
vn 0.0559196 0.9383906 -0.3410222
vn 0.0559196 0.9383906 -0.3410222
vn -7.748604E-07 1 2.491474E-05
vn 0.1802319 0.9772472 -0.1118229
vn 0.2671772 0.8720315 -0.4100944
vn -0.2804948 0.9508544 0.1311427
vn -0.1318631 0.8724672 0.4705455
vn -0.07012232 0.9922143 0.1029256
vn 0.2296975 0.973215 -0.009565708
vn 0.1162436 0.9932082 0.004996389
vn 0.01708008 0.6984509 -0.7154542
vn 0.1744932 0.6705347 -0.7210654
vn 0.213681 0.742891 -0.6343923
vn -0.1256449 0.9432814 -0.3073006
vn 0.1639736 0.9468597 -0.2767119
vn 0.1639736 0.9468597 -0.2767119
vn 0.2858078 0.9577304 -0.03265661
vn -0.1256449 0.9432814 -0.3073006
vn -0.07012232 0.9922143 0.1029256
vn 0.2296975 0.973215 -0.009565708
vn -0.006608167 0.9926728 -0.1206523
vn 0.1202755 0.991401 0.05155472
vn 0.08283208 0.9965635 0
vn 0.0008995433 0.9999688 0.007845026
vn 0.1588043 0.9768996 0.1429981
vn 0.2425356 0.9701425 0
vn 0.2376674 0.9506697 0.1993524
vn 0.2424244 0.9696978 0.03027525
vn 0.2376674 0.9506697 0.1993524
vn 0.2156977 0.9687312 0.1226154
vn 0.1123801 0.920835 0.3734081
vn 0.07653193 0.9462875 0.3141382
vn 0.1828229 0.9775285 0.1049466
vn 0 0.9701425 0.2425356
vn 0.1541324 0.9875736 0.03068565
vn 0.08283208 0.9965635 0
vn 0.1202755 0.991401 0.05155472
vn 0.1835959 0.980402 0.07144573
vn 0.1202755 0.991401 0.05155472
vn 0.1588043 0.9768996 0.1429981
vn 0.1835959 0.980402 0.07144573
vn 0.2350023 0.9705489 0.0529984
vn 0.2424244 0.9696978 0.03027525
g pb_Mesh357496_0
f 3/3/3 2/2/2 1/1/1
f 3/3/3 4/4/4 2/2/2
f 7/7/7 6/6/6 5/5/5
f 7/7/7 8/8/8 6/6/6
f 11/11/11 10/10/10 9/9/9
f 11/11/11 12/12/12 10/10/10
f 15/15/15 14/14/14 13/13/13
f 15/15/15 16/16/16 14/14/14
f 19/19/19 18/18/18 17/17/17
f 19/19/19 20/20/20 18/18/18
f 23/23/23 22/22/22 21/21/21
f 22/22/22 24/24/24 21/21/21
f 27/27/27 26/26/26 25/25/25
f 26/26/26 28/28/28 25/25/25
f 31/31/31 30/30/30 29/29/29
f 32/32/32 30/30/30 31/31/31
f 35/35/35 34/34/34 33/33/33
f 36/36/36 34/34/34 35/35/35
f 1/1/1 38/38/38 37/37/37
f 37/37/37 40/40/40 39/39/39
f 1/1/1 37/37/37 39/39/39
f 1/1/1 39/39/39 41/41/41
f 44/44/44 43/43/43 42/42/42
f 43/43/43 45/45/45 42/42/42
f 48/48/48 47/47/47 46/46/46
f 47/47/47 49/49/49 46/46/46
f 52/52/52 51/51/51 50/50/50
f 53/53/53 51/51/51 52/52/52
f 56/56/56 55/55/55 54/54/54
f 57/57/57 55/55/55 56/56/56
f 60/60/60 59/59/59 58/58/58
f 61/61/61 59/59/59 60/60/60
f 63/63/63 29/29/29 62/62/62
f 31/31/31 29/29/29 63/63/63
f 39/39/39 40/40/40 64/64/64
f 39/39/39 64/64/64 65/65/65
f 41/41/41 39/39/39 65/65/65
f 41/41/41 65/65/65 66/66/66
f 69/69/69 68/68/68 67/67/67
f 70/70/70 68/68/68 69/69/69
f 73/73/73 72/72/72 71/71/71
f 74/74/74 72/72/72 73/73/73
f 77/77/77 76/76/76 75/75/75
f 78/78/78 76/76/76 77/77/77
f 81/81/81 80/80/80 79/79/79
f 82/82/82 80/80/80 81/81/81
f 85/85/85 84/84/84 83/83/83
f 85/85/85 83/83/83 86/86/86
f 88/88/88 86/86/86 87/87/87
f 88/88/88 87/87/87 89/89/89
f 92/92/92 91/91/91 90/90/90
f 92/92/92 90/90/90 93/93/93
f 96/96/96 95/95/95 94/94/94
f 97/97/97 95/95/95 96/96/96
f 100/100/100 99/99/99 98/98/98
f 101/101/101 99/99/99 100/100/100
f 104/104/104 103/103/103 102/102/102
f 105/105/105 104/104/104 102/102/102
f 108/108/108 107/107/107 106/106/106
f 109/109/109 108/108/108 106/106/106
f 112/112/112 111/111/111 110/110/110
f 112/112/112 110/110/110 113/113/113
f 116/116/116 115/115/115 114/114/114
f 116/116/116 114/114/114 117/117/117
f 115/115/115 119/119/119 118/118/118
f 115/115/115 118/118/118 114/114/114
f 122/122/122 121/121/121 120/120/120
f 123/123/123 121/121/121 122/122/122
f 126/126/126 125/125/125 124/124/124
f 126/126/126 127/127/127 125/125/125
f 129/129/129 128/128/128 124/124/124
f 125/125/125 129/129/129 124/124/124
f 125/125/125 130/130/130 129/129/129
f 131/131/131 130/130/130 125/125/125
f 134/134/134 133/133/133 132/132/132
f 133/133/133 135/135/135 132/132/132
f 138/138/138 137/137/137 136/136/136
f 139/139/139 137/137/137 138/138/138
f 142/142/142 141/141/141 140/140/140
f 143/143/143 141/141/141 142/142/142
f 146/146/146 145/145/145 144/144/144
f 146/146/146 147/147/147 145/145/145
f 148/148/148 147/147/147 146/146/146
f 149/149/149 148/148/148 146/146/146
f 152/152/152 151/151/151 150/150/150
f 150/150/150 151/151/151 153/153/153
f 151/151/151 154/154/154 153/153/153
f 157/157/157 156/156/156 155/155/155
f 158/158/158 156/156/156 157/157/157
f 161/161/161 160/160/160 159/159/159
f 162/162/162 161/161/161 159/159/159
f 165/165/165 164/164/164 163/163/163
f 166/166/166 165/165/165 163/163/163
f 169/169/169 168/168/168 167/167/167
f 170/170/170 168/168/168 169/169/169
f 173/173/173 172/172/172 171/171/171
f 174/174/174 173/173/173 171/171/171
f 177/177/177 176/176/176 175/175/175
f 177/177/177 178/178/178 176/176/176
f 181/181/181 180/180/180 179/179/179
f 181/181/181 182/182/182 180/180/180
f 185/185/185 184/184/184 183/183/183
f 186/186/186 185/185/185 183/183/183
f 189/189/189 188/188/188 187/187/187
f 191/191/191 190/190/190 189/189/189
f 187/187/187 191/191/191 189/189/189
f 194/194/194 193/193/193 192/192/192
f 194/194/194 192/192/192 195/195/195
f 196/196/196 194/194/194 195/195/195
f 199/199/199 198/198/198 197/197/197
f 199/199/199 200/200/200 198/198/198
f 200/200/200 201/201/201 198/198/198
f 204/204/204 203/203/203 202/202/202
f 203/203/203 205/205/205 202/202/202
f 206/206/206 205/205/205 203/203/203
f 208/208/208 65/65/65 207/207/207
f 208/208/208 66/66/66 65/65/65
f 207/207/207 64/64/64 209/209/209
f 207/207/207 65/65/65 64/64/64
f 212/212/212 211/211/211 210/210/210
f 213/213/213 211/211/211 212/212/212
f 213/213/213 214/214/214 211/211/211
f 215/215/215 214/214/214 213/213/213
f 218/218/218 217/217/217 216/216/216
f 219/219/219 218/218/218 216/216/216
f 222/222/222 221/221/221 220/220/220
f 222/222/222 223/223/223 221/221/221
f 224/224/224 223/223/223 222/222/222
