g pb_Mesh404562
v 14 39 -33
v -18 39 -33
v -18 39 -1
v 14 39 -1
v 14 -5 -1
v -18 -5 -1
v -18 -5 -33
v 14 -5 -33
v -18 39 -1
v 14 10 -1
v 14 39 -1
v -18 10 -1
v -18 39 -33
v -18 10 -1
v -18 39 -1
v -18 10 -33
v 14 10 -33
v -18 10 -33
v -18 39 -33
v 14 39 -33
v 14 10 -1
v 14 10 -33
v 14 39 -33
v 14 39 -1
v -18 -3 -1
v 14 -5 -1
v 14 -3 -1
v -18 -5 -1
v -18 -3 -33
v -18 -5 -1
v -18 -3 -1
v -18 -5 -33
v 14 -5 -33
v -18 -5 -33
v -18 -3 -33
v 14 -3 -33
v 14 -5 -1
v 14 -5 -33
v 14 -3 -33
v 14 -3 -1
vt 14 -33
vt -18 -33
vt -18 -1
vt 14 -1
vt -14 -1
vt 18 -1
vt 18 -33
vt -14 -33
vt 18 39
vt -14 10
vt -14 39
vt 18 10
vt 33 39
vt 1 10
vt 1 39
vt 33 10
vt 14 10
vt -18 10
vt -18 39
vt 14 39
vt -1 10
vt -33 10
vt -33 39
vt -1 39
vt 18 -3
vt -14 -5
vt -14 -3
vt 18 -5
vt 33 -3
vt 1 -5
vt 1 -3
vt 33 -5
vt 14 -5
vt -18 -5
vt -18 -3
vt 14 -3
vt -1 -5
vt -33 -5
vt -33 -3
vt -1 -3
vn 0 -1 0
vn 0 -1 0
vn 0 -1 0
vn 0 -1 0
vn 0 1 0
vn 0 1 0
vn 0 1 0
vn 0 1 0
vn 0 0 -1
vn 0 0 -1
vn 0 0 -1
vn 0 0 -1
vn 1 0 0
vn 1 0 0
vn 1 0 0
vn 1 0 0
vn 0 0 1
vn 0 0 1
vn 0 0 1
vn 0 0 1
vn -1 0 0
vn -1 0 0
vn -1 0 0
vn -1 0 0
vn 0 0 -1
vn 0 0 -1
vn 0 0 -1
vn 0 0 -1
vn 1 0 0
vn 1 0 0
vn 1 0 0
vn 1 0 0
vn 0 0 1
vn 0 0 1
vn 0 0 1
vn 0 0 1
vn -1 0 0
vn -1 0 0
vn -1 0 0
vn -1 0 0
g pb_Mesh404562_0
f 3/3/3 2/2/2 1/1/1
f 4/4/4 3/3/3 1/1/1
f 7/7/7 6/6/6 5/5/5
f 8/8/8 7/7/7 5/5/5
f 11/11/11 10/10/10 9/9/9
f 10/10/10 12/12/12 9/9/9
f 15/15/15 14/14/14 13/13/13
f 14/14/14 16/16/16 13/13/13
f 19/19/19 18/18/18 17/17/17
f 19/19/19 17/17/17 20/20/20
f 23/23/23 22/22/22 21/21/21
f 23/23/23 21/21/21 24/24/24
f 27/27/27 26/26/26 25/25/25
f 26/26/26 28/28/28 25/25/25
f 10/10/10 27/27/27 12/12/12
f 27/27/27 25/25/25 12/12/12
f 31/31/31 30/30/30 29/29/29
f 30/30/30 32/32/32 29/29/29
f 14/14/14 31/31/31 16/16/16
f 31/31/31 29/29/29 16/16/16
f 35/35/35 34/34/34 33/33/33
f 35/35/35 33/33/33 36/36/36
f 18/18/18 35/35/35 36/36/36
f 18/18/18 36/36/36 17/17/17
f 39/39/39 38/38/38 37/37/37
f 39/39/39 37/37/37 40/40/40
f 22/22/22 39/39/39 40/40/40
f 22/22/22 40/40/40 21/21/21
