g pb_Mesh7592622
v 141.3107 -25.31929 -45.31938
v 148.936 -26.66799 -23.79605
v 117.6651 -12.93865 -29.3078
v 125.2904 -14.28735 -7.784583
v 148.936 -26.66799 -23.79605
v 191.6364 -31.05973 37.83976
v 125.2904 -14.28735 -7.784583
v 144.7939 -16.6556 32.62371
v 117.6651 -12.93865 -29.3078
v 125.2904 -14.28735 -7.784583
v 87.27726 -6.638492 -36.9561
v 103.6816 -8.56321 4.652864
v 125.2904 -14.28735 -7.784583
v 144.7939 -16.6556 32.62371
v 103.6816 -8.56321 4.652864
v 111.3069 -9.911958 26.17601
v 87.27726 -6.638492 -36.9561
v 103.6816 -8.56321 4.652864
v 68.30871 1.526208 -39.3587
v 78.09619 -0.5337738 1.30457
v 103.6816 -8.56321 4.652864
v 111.3069 -9.911958 26.17601
v 78.09619 -0.5337738 1.30457
v 79.10451 -2.017593 21.88199
v 68.30871 1.526208 -39.3587
v 78.09619 -0.5337738 1.30457
v 47.13404 9.615232 -42.1441
v 51.89872 7.606489 -4.287196
v 78.09619 -0.5337738 1.30457
v 79.10451 -2.017593 21.88199
v 51.89872 7.606489 -4.287196
v 45.02952 10.53119 48.08138
v 47.13404 9.615232 -42.1441
v 51.89872 7.606489 -4.287196
v 20.42406 17.21626 -57.34976
v 25.18856 15.20755 -19.4929
v 51.89872 7.606489 -4.287196
v 45.02952 10.53119 48.08138
v 25.18856 15.20755 -19.4929
v 9.067377 15.40939 6.75793
v 20.42406 17.21626 -57.34976
v 25.18856 15.20755 -19.4929
v -13.92221 17.15654 -77.65182
v -9.157644 15.14779 -39.79489
v 25.18856 15.20755 -19.4929
v 9.067377 15.40939 6.75793
v -9.157644 15.14779 -39.79489
v -19.92708 14.77438 -19.86476
v -13.92221 17.15654 -77.65182
v -9.157644 15.14779 -39.79489
v -42.86319 10.63918 -96.79112
v -47.25234 9.549517 -68.87855
v -9.157644 15.14779 -39.79489
v -19.92708 14.77438 -19.86476
v -47.25234 9.549517 -68.87855
v -75.51867 10.22278 -33.73193
v -42.86319 10.63918 -96.79112
v -47.25234 9.549517 -68.87855
v -77.94759 13.25089 -132.0531
v -81.96194 11.81816 -114.282
v -47.25234 9.549517 -68.87855
v -75.51867 10.22278 -33.73193
v -81.96194 11.81816 -114.282
v -85.97652 10.38547 -96.51102
vt 0.1914062 0.2860034
vt 0.1914062 0.3317461
vt 0.2701961 0.2860034
vt 0.2701961 0.3317461
vt 0.1914062 0.3317461
vt 0.1914062 0.3774889
vt 0.2701961 0.3317461
vt 0.2701961 0.3774889
vt 0.2701961 0.2860034
vt 0.2701961 0.3317461
vt 0.3424202 0.2860034
vt 0.3424202 0.3317461
vt 0.2701961 0.3317461
vt 0.2701961 0.3774889
vt 0.3424202 0.3317461
vt 0.3424202 0.3774889
vt 0.3424202 0.2860034
vt 0.3424202 0.3317461
vt 0.4212101 0.2860034
vt 0.4212101 0.3317461
vt 0.3424202 0.3317461
vt 0.3424202 0.3774889
vt 0.4212101 0.3317461
vt 0.4212101 0.3774889
vt 0.4212101 0.2860034
vt 0.4212101 0.3317461
vt 0.4999999 0.2860034
vt 0.4999999 0.3317461
vt 0.4212101 0.3317461
vt 0.4212101 0.3774889
vt 0.4999999 0.3317461
vt 0.4999999 0.3774889
vt 0.4999999 0.2860034
vt 0.4999999 0.3317461
vt 0.5787898 0.2860034
vt 0.5787898 0.3317461
vt 0.4999999 0.3317461
vt 0.4999999 0.3774889
vt 0.5787898 0.3317461
vt 0.5787898 0.3774889
vt 0.5787898 0.2860034
vt 0.5787898 0.3317461
vt 0.6575797 0.2860034
vt 0.6575797 0.3317461
vt 0.5787898 0.3317461
vt 0.5787898 0.3774889
vt 0.6575797 0.3317461
vt 0.6575797 0.3774889
vt 0.6575797 0.2860034
vt 0.6575797 0.3317461
vt 0.7298038 0.2860034
vt 0.7298038 0.3317461
vt 0.6575797 0.3317461
vt 0.6575797 0.3774889
vt 0.7298038 0.3317461
vt 0.7298038 0.3774889
vt 0.7298038 0.2860034
vt 0.7298038 0.3317461
vt 0.8085937 0.2860034
vt 0.8085937 0.3317461
vt 0.7298038 0.3317461
vt 0.7298038 0.3774889
vt 0.8085937 0.3317461
vt 0.8085937 0.3774889
vn 0.4136053 0.9060211 -0.08975821
vn 0.4136053 0.906021 -0.08975857
vn 0.4136053 0.906021 -0.08975857
vn 0.4136053 0.9060209 -0.08975895
vn 0.3566859 0.9163619 -0.1818132
vn 0.3292804 0.9327222 -0.1359463
vn 0.3292804 0.9327222 -0.1359463
vn 0.3018748 0.9490824 -0.0900794
vn 0.2057904 0.9785275 -0.01159044
vn 0.2183575 0.9752035 -0.02883811
vn 0.2183575 0.9752035 -0.02883811
vn 0.2309246 0.9718796 -0.04608577
vn 0.2272587 0.9724076 -0.05269805
vn 0.2131787 0.9761723 -0.03091376
vn 0.2131787 0.9761723 -0.03091376
vn 0.1990987 0.979937 -0.009129466
vn 0.405162 0.9066243 -0.1177976
vn 0.3537082 0.9297687 -0.07113743
vn 0.3537082 0.9297687 -0.07113743
vn 0.3022543 0.952913 -0.02447727
vn 0.3048384 0.9511738 -0.04839364
vn 0.2675636 0.9612603 0.00518246
vn 0.2675636 0.9612603 0.00518246
vn 0.2302888 0.9713467 0.05875856
vn 0.3611356 0.9316667 -0.03972607
vn 0.3275856 0.9436815 -0.01301141
vn 0.3275856 0.9436815 -0.01301141
vn 0.2940357 0.9556962 0.01370325
vn 0.2855583 0.9567819 0.055
vn 0.312891 0.9485466 0.02355611
vn 0.312891 0.9485466 0.02355611
vn 0.3402236 0.9403115 -0.007887789
vn 0.2642188 0.9642965 0.01791236
vn 0.2642184 0.9642966 0.01791263
vn 0.2642184 0.9642966 0.01791263
vn 0.264218 0.9642966 0.01791291
vn 0.2823653 0.9591646 -0.01652998
vn 0.1833441 0.9773127 0.01380024
vn 0.1833441 0.9773127 0.01380024
vn 0.08432295 0.9954608 0.04413046
vn -0.03568168 0.9977117 0.05743001
vn -0.03568266 0.9977117 0.05743067
vn -0.03568266 0.9977117 0.05743067
vn -0.03568363 0.9977115 0.05743133
vn 0.002057803 0.9999772 -0.006425
vn -0.01203484 0.9998126 -0.0009069289
vn -0.01203484 0.9998126 -0.0009069289
vn -0.02612748 0.999648 0.004611142
vn -0.272131 0.9584891 0.0851087
vn -0.2140008 0.9730834 0.04957806
vn -0.2140008 0.9730834 0.04957806
vn -0.1558705 0.9876776 0.01404742
vn -0.1133238 0.9926429 -0.04263743
vn -0.08862363 0.9940529 -0.0565581
vn -0.08862363 0.9940529 -0.0565581
vn -0.06392349 0.995463 -0.07047878
vn 0.03035683 0.9985809 0.04375665
vn -0.0002491167 0.9977032 0.05857603
vn -0.0002491167 0.9977032 0.05857603
vn -0.03085506 0.9968255 0.07339542
vn 0.04401446 0.9988985 0.01626348
vn -0.07542644 0.9895517 0.02563253
vn -0.07542644 0.9895517 0.02563253
vn -0.1948673 0.9802049 0.03500159
g pb_Mesh7592622_0
f 3/3/3 2/2/2 1/1/1
f 3/3/3 4/4/4 2/2/2
f 7/7/7 6/6/6 5/5/5
f 7/7/7 8/8/8 6/6/6
f 11/11/11 10/10/10 9/9/9
f 11/11/11 12/12/12 10/10/10
f 15/15/15 14/14/14 13/13/13
f 15/15/15 16/16/16 14/14/14
f 19/19/19 18/18/18 17/17/17
f 19/19/19 20/20/20 18/18/18
f 23/23/23 22/22/22 21/21/21
f 23/23/23 24/24/24 22/22/22
f 27/27/27 26/26/26 25/25/25
f 27/27/27 28/28/28 26/26/26
f 31/31/31 30/30/30 29/29/29
f 31/31/31 32/32/32 30/30/30
f 35/35/35 34/34/34 33/33/33
f 35/35/35 36/36/36 34/34/34
f 39/39/39 38/38/38 37/37/37
f 39/39/39 40/40/40 38/38/38
f 43/43/43 42/42/42 41/41/41
f 43/43/43 44/44/44 42/42/42
f 47/47/47 46/46/46 45/45/45
f 47/47/47 48/48/48 46/46/46
f 51/51/51 50/50/50 49/49/49
f 51/51/51 52/52/52 50/50/50
f 55/55/55 54/54/54 53/53/53
f 55/55/55 56/56/56 54/54/54
f 59/59/59 58/58/58 57/57/57
f 59/59/59 60/60/60 58/58/58
f 63/63/63 62/62/62 61/61/61
f 63/63/63 64/64/64 62/62/62
