g pb_Mesh328174
v -21 4 -22
v -20 2 -22
v -20 4 -22
v -21 2 -22
v -21 2 -22
v -20 2 -24
v -20 2 -22
v -21 2 -24
v -20 2 -26
v -21 2 -26
v -22 2 -24
v -22 2 -26
v -21 2 -28
v -20 2 -28
vt 21 4
vt 20 2
vt 20 4
vt 21 2
vt 21 -22
vt 20 -24
vt 20 -22
vt 21 -24
vt 20 -26
vt 21 -26
vt 22 -24
vt 22 -26
vt 21 -28
vt 20 -28
vn 0 0 -1
vn 0 0 -1
vn 0 0 -1
vn 0 0 -1
vn 0 1 0
vn 0 1 0
vn 0 1 0
vn 0 1 0
vn 0 1 0
vn 0 1 0
vn 0 1 0
vn 0 1 0
vn 0 1 0
vn 0 1 0
g pb_Mesh328174_0
f 3/3/3 2/2/2 1/1/1
f 2/2/2 4/4/4 1/1/1
f 7/7/7 6/6/6 5/5/5
f 6/6/6 8/8/8 5/5/5
f 6/6/6 9/9/9 8/8/8
f 9/9/9 10/10/10 8/8/8
f 8/8/8 10/10/10 11/11/11
f 10/10/10 12/12/12 11/11/11
f 10/10/10 9/9/9 13/13/13
f 9/9/9 14/14/14 13/13/13
g pb_Mesh328174_1
