g pb_Mesh125806
v 0 16 23
v -8 16 23
v -8 8 23
v 0 8 23
v -8 8 0
v -8 8 -6
v -8 0 -6
v -8 0 0
v 0 8 -6
v 0 8 0
v 0 0 0
v 0 0 -6
v 0 8 -6
v -8 8 -6
v -8 8 0
v 0 8 0
v 0 0 0
v -8 0 0
v -8 0 -6
v 0 0 -6
v 0 0 7
v -8 0 7
v 0 8 3
v 0 0 7
v -8 0 7
v -8 8 3
v -8 8 3
v 0 8 3
v 0 4 7
v -8 4 7
v -8 0 7
v 0 0 7
v -8 12 11
v 0 12 11
v 0 8 3
v -8 8 3
v 0 16 19
v 0 8 19
v 0 12 11
v 0 4 19
v 0 4 7
v -8 4 7
v -8 4 19
v -8 12 11
v -8 8 19
v -8 16 19
v -8 16 19
v 0 16 19
v 0 8 23
v -8 8 23
v -8 8 19
v 0 8 19
v 0 16 23
v 0 8 23
v -8 16 23
v 0 16 23
v 0 16 19
v -8 16 19
v -15 8 19
v -15 16 19
v -8 16 19
v -8 8 19
v -15 8 23
v -15 8 19
v -15 16 19
v -15 16 23
v -15 16 23
v -15 8 23
v -8 8 -6
v 0 8 -6
v -6 4 -6
v -2 4 -6
v 0 0 -6
v -2 0 -6
v -8 0 -6
v -6 0 -6
v -6 0 -7
v -2 0 -6
v -6 0 -6
v -2 0 -7
v -16 8 23
v -16 16 23
v -16 16 23
v -16 16 19
v -16 16 19
v -16 8 19
v -8 4 7
v 0 4 7
v 0 4 19
v -8 4 19
v -8 4 19
v 0 4 19
v -8 8 19
v 0 8 19
vt 0 16
vt 8 16
vt 8 8
vt 0 8
vt 0 8
vt 6 8
vt 6 0
vt 0 0
vt -6 8
vt 0 8
vt 0 0
vt -6 0
vt 0 -6
vt -8 -6
vt -8 0
vt 0 0
vt 0 0
vt 8 0
vt 8 -6
vt 0 -6
vt 0 7
vt 8 7
vt 3 8
vt 7 0
vt -7 0
vt -3 8
vt -8 3
vt 0 3
vt 0 4
vt 8 4
vt 8 0
vt 0 0
vt -8 15.20526
vt 0 15.20526
vt 0 6.26099
vt -8 6.26099
vt 19 16
vt 19 8
vt 11 12
vt 19 4
vt 7 4
vt -7 4
vt -19 4
vt -11 12
vt -19 8
vt -19 16
vt -8 24.14953
vt 0 24.14953
vt 0 23
vt 8 23
vt 8 19
vt 0 19
vt 23 16
vt 23 8
vt -8 23
vt 0 23
vt 0 19
vt -8 19
vt -15 8
vt -15 16
vt -8 16
vt -8 8
vt 15 23
vt 15 19
vt -15 19
vt -15 23
vt 15 16
vt 15 8
vt -8 8
vt 0 8
vt -6 4
vt -2 4
vt 0 0
vt -2 0
vt -8 0
vt -6 0
vt 6 -7
vt 2 -6
vt 6 -6
vt 2 -7
vt 16 8
vt 16 16
vt -16 23
vt -16 19
vt -16 16
vt -16 8
vt 8 7
vt 0 7
vt 0 19
vt 8 19
vt 8 4
vt 0 4
vt 8 8
vt 0 8
vn 0 0 -1
vn 0 0 -1
vn 0 0 -1
vn 0 0 -1
vn 1 0 0
vn 1 0 0
vn 1 0 0
vn 1 0 0
vn -1 0 0
vn -1 0 0
vn -1 0 0
vn -1 0 0
vn 0 -1 0
vn 0 -1 0
vn 0 -1 0
vn 0 -1 0
vn 0 1 0
vn 0 1 0
vn 0 1 0
vn 0 1 0
vn 0 1 0
vn 0 1 0
vn -1 0 0
vn -1 0 0
vn 1 0 0
vn 1 0 0
vn 0 -1 0
vn 0 -1 0
vn 0 0 -1
vn 0 0 -1
vn 0 0 -1
vn 0 0 -1
vn 0 -0.8944272 0.4472136
vn 0 -0.8944272 0.4472136
vn 0 -0.8944272 0.4472136
vn 0 -0.8944272 0.4472136
vn -1 0 0
vn -1 0 0
vn -1 0 0
vn -1 0 0
vn -1 0 0
vn 1 0 0
vn 1 0 0
vn 1 0 0
vn 1 0 0
vn 1 0 0
vn 0 -0.8944272 0.4472136
vn 0 -0.8944272 0.4472136
vn 0 1 0
vn 0 1 0
vn 0 1 0
vn 0 1 0
vn -1 0 0
vn -1 0 0
vn 0 -1 0
vn 0 -1 0
vn 0 -1 0
vn 0 -1 0
vn 0 0 1
vn 0 0 1
vn 0 0 1
vn 0 0 1
vn 0 1 0
vn 0 1 0
vn 0 -1 0
vn 0 -1 0
vn 0 0 -1
vn 0 0 -1
vn 0 0 1
vn 0 0 1
vn 0 0 1
vn 0 0 1
vn 0 0 1
vn 0 0 1
vn 0 0 1
vn 0 0 1
vn 0 1 0
vn 0 1 0
vn 0 1 0
vn 0 1 0
vn 0 0 -1
vn 0 0 -1
vn 0 -1 0
vn 0 -1 0
vn 0 0 1
vn 0 0 1
vn 0 1 0
vn 0 1 0
vn 0 1 0
vn 0 1 0
vn 0 0 -1
vn 0 0 -1
vn 0 0 -1
vn 0 0 -1
g pb_Mesh125806_0
f 3/3/3 2/2/2 1/1/1
f 4/4/4 3/3/3 1/1/1
f 7/7/7 6/6/6 5/5/5
f 8/8/8 7/7/7 5/5/5
f 11/11/11 10/10/10 9/9/9
f 12/12/12 11/11/11 9/9/9
f 15/15/15 14/14/14 13/13/13
f 16/16/16 15/15/15 13/13/13
f 19/19/19 18/18/18 17/17/17
f 20/20/20 19/19/19 17/17/17
f 18/18/18 22/22/22 21/21/21
f 17/17/17 18/18/18 21/21/21
f 11/11/11 24/24/24 23/23/23
f 10/10/10 11/11/11 23/23/23
f 5/5/5 26/26/26 25/25/25
f 8/8/8 5/5/5 25/25/25
f 16/16/16 28/28/28 27/27/27
f 15/15/15 16/16/16 27/27/27
f 31/31/31 30/30/30 29/29/29
f 32/32/32 31/31/31 29/29/29
f 35/35/35 34/34/34 33/33/33
f 36/36/36 35/35/35 33/33/33
f 39/39/39 38/38/38 37/37/37
f 39/39/39 40/40/40 38/38/38
f 39/39/39 41/41/41 40/40/40
f 44/44/44 43/43/43 42/42/42
f 45/45/45 43/43/43 44/44/44
f 46/46/46 45/45/45 44/44/44
f 34/34/34 48/48/48 47/47/47
f 33/33/33 34/34/34 47/47/47
f 51/51/51 50/50/50 49/49/49
f 52/52/52 51/51/51 49/49/49
f 38/38/38 54/54/54 53/53/53
f 37/37/37 38/38/38 53/53/53
f 57/57/57 56/56/56 55/55/55
f 58/58/58 57/57/57 55/55/55
f 61/61/61 60/60/60 59/59/59
f 62/62/62 61/61/61 59/59/59
f 51/51/51 64/64/64 63/63/63
f 50/50/50 51/51/51 63/63/63
f 55/55/55 66/66/66 65/65/65
f 58/58/58 55/55/55 65/65/65
f 3/3/3 68/68/68 67/67/67
f 2/2/2 3/3/3 67/67/67
f 71/71/71 70/70/70 69/69/69
f 71/71/71 72/72/72 70/70/70
f 72/72/72 73/73/73 70/70/70
f 72/72/72 74/74/74 73/73/73
f 76/76/76 69/69/69 75/75/75
f 76/76/76 71/71/71 69/69/69
f 79/79/79 78/78/78 77/77/77
f 78/78/78 80/80/80 77/77/77
f 81/81/81 67/67/67 68/68/68
f 81/81/81 82/82/82 67/67/67
f 83/83/83 65/65/65 66/66/66
f 83/83/83 84/84/84 65/65/65
f 85/85/85 59/59/59 60/60/60
f 85/85/85 86/86/86 59/59/59
f 23/23/23 41/41/41 39/39/39
f 23/23/23 24/24/24 41/41/41
f 25/25/25 26/26/26 42/42/42
f 26/26/26 44/44/44 42/42/42
f 89/89/89 88/88/88 87/87/87
f 89/89/89 87/87/87 90/90/90
f 93/93/93 92/92/92 91/91/91
f 93/93/93 94/94/94 92/92/92
g pb_Mesh125806_1
