g pb_Mesh330114
v 32 -24 1
v 4 -24 1
v 32 8 1
v 4 8 1
v 4 -24 1
v 4 -24 -11.25
v 4 8 1
v 4 8 -11.25
v 11 8 -12
v 18 -24 -12
v 18 8 -12
v 11 -24 -12
v 4 8 -12
v 4 -24 -12
v 25 8 -12
v 32 -24 -12
v 32 8 -12
v 25 -24 -12
v 18 8 -11.25
v 25 -24 -11.25
v 25 8 -11.25
v 18 -24 -11.25
v 4 8 1
v 4 8 -11.25
v 11 8 -11.25
v 18 8 -11.25
v 25 8 -11.25
v 32 8 -11.25
v 32 8 1
v 4 -24 1
v 32 -24 1
v 18 -24 -11.25
v 25 -24 -11.25
v 32 -24 -11.25
v 11 -24 -11.25
v 4 -24 -11.25
v 32 8 -12
v 25 8 -12
v 25 8 -11.25
v 25 -24 -11.25
v 25 8 -12
v 25 -24 -12
v 25 -24 -12
v 32 -24 -12
v 18 -24 -11.25
v 18 8 -11.25
v 18 -24 -12
v 18 8 -12
v 18 8 -12
v 11 8 -12
v 4 8 -12
v 11 -24 -12
v 18 -24 -12
v 4 8 -12
v 4 -24 -12
v 4 -24 -12
v 32 -24 -11.25
v 32 -24 1
v 32 8 -11.25
v 32 8 1
v 32 -24 -12
v 32 8 -12
vt 32 -24
vt 4 -24
vt 32 8
vt 4 8
vt 1 -24
vt -11.25 -24
vt 1 8
vt -11.25 8
vt -11 8
vt -18 -24
vt -18 8
vt -11 -24
vt -4 8
vt -4 -24
vt -25 8
vt -32 -24
vt -32 8
vt -25 -24
vt -18 8
vt -25 -24
vt -25 8
vt -18 -24
vt -4 1
vt -4 -11.25
vt -11 -11.25
vt -18 -11.25
vt -25 -11.25
vt -32 -11.25
vt -32 1
vt 4 1
vt 32 1
vt 18 -11.25
vt 25 -11.25
vt 32 -11.25
vt 11 -11.25
vt 4 -11.25
vt -32 -12
vt -25 -12
vt -11.25 8
vt -11.25 -24
vt -12 8
vt -12 -24
vt 25 -12
vt 32 -12
vt 11.25 -24
vt 11.25 8
vt 12 -24
vt 12 8
vt -18 -12
vt -11 -12
vt -4 -12
vt 11 -12
vt 18 -12
vt -12 8
vt -12 -24
vt 4 -12
vt 11.25 -24
vt -1 -24
vt 11.25 8
vt -1 8
vt 12 -24
vt 12 8
vn 0 0 1
vn 0 0 1
vn 0 0 1
vn 0 0 1
vn -1 0 0
vn -1 0 0
vn -1 0 0
vn -1 0 0
vn 0 0 -1
vn 0 0 -1
vn 0 0 -1
vn 0 0 -1
vn 0 0 -1
vn 0 0 -1
vn 0 0 -1
vn 0 0 -1
vn 0 0 -1
vn 0 0 -1
vn 0 0 -1
vn 0 0 -1
vn 0 0 -1
vn 0 0 -1
vn 0 1 0
vn 0 1 0
vn 0 1 0
vn 0 1 0
vn 0 1 0
vn 0 1 0
vn 0 1 0
vn 0 -1 0
vn 0 -1 0
vn 0 -1 0
vn 0 -1 0
vn 0 -1 0
vn 0 -1 0
vn 0 -1 0
vn 0 1 0
vn 0 1 0
vn -1 0 0
vn -1 0 0
vn -1 0 0
vn -1 0 0
vn 0 -1 0
vn 0 -1 0
vn 1 0 0
vn 1 0 0
vn 1 0 0
vn 1 0 0
vn 0 1 0
vn 0 1 0
vn 0 1 0
vn 0 -1 0
vn 0 -1 0
vn -1 0 0
vn -1 0 0
vn 0 -1 0
vn 1 0 0
vn 1 0 0
vn 1 0 0
vn 1 0 0
vn 1 0 0
vn 1 0 0
g pb_Mesh330114_0
f 3/3/3 2/2/2 1/1/1
f 3/3/3 4/4/4 2/2/2
f 7/7/7 6/6/6 5/5/5
f 7/7/7 8/8/8 6/6/6
f 11/11/11 10/10/10 9/9/9
f 10/10/10 12/12/12 9/9/9
f 9/9/9 12/12/12 13/13/13
f 12/12/12 14/14/14 13/13/13
f 17/17/17 16/16/16 15/15/15
f 16/16/16 18/18/18 15/15/15
f 21/21/21 20/20/20 19/19/19
f 20/20/20 22/22/22 19/19/19
f 25/25/25 24/24/24 23/23/23
f 26/26/26 25/25/25 23/23/23
f 29/29/29 28/28/28 27/27/27
f 29/29/29 27/27/27 26/26/26
f 23/23/23 29/29/29 26/26/26
f 32/32/32 31/31/31 30/30/30
f 32/32/32 33/33/33 31/31/31
f 33/33/33 34/34/34 31/31/31
f 30/30/30 35/35/35 32/32/32
f 30/30/30 36/36/36 35/35/35
f 37/37/37 27/27/27 28/28/28
f 37/37/37 38/38/38 27/27/27
f 41/41/41 40/40/40 39/39/39
f 41/41/41 42/42/42 40/40/40
f 43/43/43 34/34/34 33/33/33
f 43/43/43 44/44/44 34/34/34
f 47/47/47 46/46/46 45/45/45
f 47/47/47 48/48/48 46/46/46
f 49/49/49 25/25/25 26/26/26
f 49/49/49 50/50/50 25/25/25
f 50/50/50 24/24/24 25/25/25
f 50/50/50 51/51/51 24/24/24
f 52/52/52 32/32/32 35/35/35
f 52/52/52 53/53/53 32/32/32
f 54/54/54 6/6/6 8/8/8
f 54/54/54 55/55/55 6/6/6
f 56/56/56 35/35/35 36/36/36
f 56/56/56 52/52/52 35/35/35
g pb_Mesh330114_1
f 59/59/59 58/58/58 57/57/57
f 59/59/59 60/60/60 58/58/58
f 61/61/61 59/59/59 57/57/57
f 61/61/61 62/62/62 59/59/59
