g pb_Mesh306238
v 0 0 0
v 0 0 68
v -0.3333321 32.08337 68
v -0.3333321 31.91669 0
v -0.3332329 68.08337 68
v -0.3333321 31.91669 0
v -0.3333321 32.08337 68
v -0.3332329 67.91669 0
v -31.99985 67.91669 0
v -0.3333321 31.91669 0
v -0.3332329 67.91669 0
v -31.99995 31.91669 0
v -31.99985 67.91669 -52.00011
v -31.99995 31.91669 0
v -31.99985 67.91669 0
v -31.99995 31.91669 -52.00011
v -31.99975 67.91669 -148
v -31.99985 31.91669 -148
v -31.99975 16 -148
v -31.99995 31.91669 -52.00011
v -31.99985 31.91669 -148
v -31.99985 16 -52.00011
v -17.99985 16 -148
v -31.99985 16 -52.00011
v -31.99975 16 -148
v -17.99995 16 -52.00011
v 9.918213E-05 -24 0
v 0 0 68
v 0 0 0
v 9.918213E-05 -24 68
v 9.918213E-05 0 -52
v 0.0001983643 -24 -52
v -14 0 -52
v 0.0001983643 -24 -52
v 9.918213E-05 0 -52
v -14 -24 -52
v -14 0 -148
v -14 -24 -52
v -14 0 -52
v -14 -24 -148
vt -142 -13
vt 64 -13
vt 66.5 66.5
vt -142 63.66667
vt -68 68.08337
vt -2.251132E-09 31.91669
vt -68 32.08337
vt -2.250462E-09 67.91669
vt 31.99985 67.91669
vt 0.3333321 31.91669
vt 0.3332329 67.91669
vt 31.99995 31.91669
vt 52.00011 67.9166
vt 0 31.9166
vt 0 67.9166
vt 52.00011 31.9166
vt 148 67.9166
vt 148 31.9166
vt 148 16.0002
vt 52.00007 31.91689
vt 148 31.91689
vt 52.00007 16.0002
vt 17.99985 -148
vt 31.99985 -52.00011
vt 31.99975 -148
vt 17.99995 -52.00011
vt 0 -24
vt -68 0
vt 0 0
vt -68 -24
vt 52 0
vt 52 -24
vt 14 0
vt -0.0001983643 -24
vt -9.918213E-05 0
vt 14 -24
vt 148 0
vt 52 -24
vt 52 0
vt 148 -24
vn 0.9999458 0.01041612 -1.279966E-05
vn 0.9999461 0.010389 0
vn 0.9999458 0.01041612 -1.279966E-05
vn 0.9999455 0.01044325 -2.559932E-05
vn 1 -2.755059E-06 6.75342E-09
vn 1 -2.755059E-06 6.75342E-09
vn 1 -2.755059E-06 6.75342E-09
vn 1 -2.755059E-06 6.75342E-09
vn 0 0 -1
vn 0 0 -1
vn 0 0 -1
vn 0 0 -1
vn 1 -2.755059E-06 0
vn 1 -2.755059E-06 0
vn 1 -2.755059E-06 0
vn 1 -2.755059E-06 0
vn 1 -2.755059E-06 1.033148E-06
vn 1 -2.755059E-06 1.033148E-06
vn 1 6.23133E-06 1.033148E-06
vn 1 6.23133E-06 1.033148E-06
vn 1 6.23133E-06 1.033148E-06
vn 1 6.23133E-06 1.033148E-06
vn 0 1 0
vn 0 1 0
vn 0 1 0
vn 0 1 0
vn 1 4.132589E-06 0
vn 1 4.132589E-06 0
vn 1 4.132589E-06 0
vn 1 4.132589E-06 0
vn 1 4.132589E-06 1.907349E-06
vn 1 4.132589E-06 1.907349E-06
vn 0 0 -1
vn 0 0 -1
vn 0 0 -1
vn 0 0 -1
vn 1 0 0
vn 1 0 0
vn 1 0 0
vn 1 0 0
g pb_Mesh306238_0
f 3/3/3 2/2/2 1/1/1
f 3/3/3 1/1/1 4/4/4
f 7/7/7 6/6/6 5/5/5
f 6/6/6 8/8/8 5/5/5
f 11/11/11 10/10/10 9/9/9
f 10/10/10 12/12/12 9/9/9
f 15/15/15 14/14/14 13/13/13
f 14/14/14 16/16/16 13/13/13
f 13/13/13 16/16/16 17/17/17
f 16/16/16 18/18/18 17/17/17
f 21/21/21 20/20/20 19/19/19
f 20/20/20 22/22/22 19/19/19
f 25/25/25 24/24/24 23/23/23
f 24/24/24 26/26/26 23/23/23
f 29/29/29 28/28/28 27/27/27
f 28/28/28 30/30/30 27/27/27
f 29/29/29 27/27/27 31/31/31
f 27/27/27 32/32/32 31/31/31
f 35/35/35 34/34/34 33/33/33
f 34/34/34 36/36/36 33/33/33
f 39/39/39 38/38/38 37/37/37
f 38/38/38 40/40/40 37/37/37
