g pb_Mesh274296
v -1.525879E-05 -1 0.8750992
v -0.9999652 -1 0.8750992
v -1.525879E-05 1 0.8750992
v -0.9999652 1 0.8750992
v -0.9999499 -1 -1
v 0 -1 -1
v -0.9999499 1 -1
v 0 1 -1
v 4.125 -1 -1
v 4.125 -1 0
v 4.125 1 -1
v 4.125 1 0
v 0 1 0
v -0.9999499 1 0
v 0 1 -1
v -0.9999499 1 -1
v 0 -1 -1
v -0.9999499 -1 -1
v 0 -1 0
v -0.9999499 -1 0
v 1 -1 -1
v 1 -1 0
v 1 1 -1
v 1 -1 -1
v 0.9999847 -1 0.8750992
v 0.9999847 1 0.8750992
v 1 1 0
v 1 1 -1
v 2 -1 -1
v 2 -1 0
v 1 1 -10
v 1 -1 -10
v 2 1 -10
v 2 -1 -10
v 1 -1 0
v 1 1 0
v 2 -1 0
v 2 1 0
v 2 1 0
v 2 1 -1
v 1 1 -1
v 1 -1 -1
v 1 1 -9
v 1 -1 -9
v 2 1 -7.958588
v 1 1 -9
v 1 -1 -9
v 2 -1 -7.958588
v 4.125 -1 -7.958588
v 4.125 1 -7.958588
v -8 1 -8.999996
v -8 -1 -8.999996
v -8 1 -9.999996
v -8 -1 -9.999996
v 2 1 -10
v 1 1 -10
v 1 -1 -10
v 2 -1 -10
v 2 -1 -7.958588
v 2 1 -7.958588
v 2 -1 -10
v 2 1 -10
v 1 1 -9
v 1 -1 -9
v -7 1 -9
v -7 -1 -9
v -7 1 -10
v -7 1 -9
v -7 -1 -9
v -7 -1 -10
v -7 -1 -10
v -7 1 -10
v -6.999969 1 0
v -6.999969 -1 0
v -7.999969 1 0
v -7.999969 -1 0
v -8 1 -9.999996
v -8 1 -8.999996
v -8 -1 -8.999996
v -8 -1 -9.999996
v -7 -1 -10
v -7 1 -10
v -8 -1 -9.999996
v -8 1 -9.999996
v -7 1 -9
v -7 -1 -9
v -6.999969 1 -1
v -6.999969 -1 -1
v -7.999969 1 -1
v -6.999969 1 -1
v -6.999969 -1 -1
v -7.999969 -1 -1
v -8 -1 -8.999996
v -8 1 -8.999996
v -7.999969 -1 -1
v -7.999969 1 -1
v -7.999969 1 0
v -6.999969 1 0
v -6.999969 -1 0
v -7.999969 -1 0
v -7.999969 -1 0
v -7.999969 1 0
v -6.999969 1 -1
v -6.999969 -1 -1
v -5 1 -1
v -5 -1 -1
v -5 1 0
v -5 1 -1
v -5 -1 -1
v -5 -1 0
v -6.999985 -1 0.8750992
v -6.999985 1 0.8750992
v -5.000015 -1 0.8750992
v -5.000015 1 0.8750992
v -6.999969 -1 0
v -6.999969 1 0
v -6.999985 -1 0.8750992
v -6.999985 1 0.8750992
v -5.000015 -1 0.8750992
v -6.999985 -1 0.8750992
v -6.999985 1 0.8750992
v -5.000015 1 0.8750992
v -0.9999652 -1 0.8750992
v -0.9999652 1 0.8750992
v -1.525879E-05 1 0.8750992
v -1.525879E-05 -1 0.8750992
v 0.9999847 -1 0.8750992
v 0.9999847 1 0.8750992
v 1 1 0
v 1 -1 0
v 0.9999847 1 0.8750992
v 0.9999847 -1 0.8750992
v 4.125 -1 -1
v 4.125 -1 0
v 4.125 -1 -7.958588
v 4.125 -1 0
v 4.125 1 0
v 4.125 1 0
v 4.125 1 -1
v 4.125 1 -7.958588
v 2 1 -7.958588
v 2 -1 -7.958588
v 4.125 1 -7.958588
v 4.125 -1 -7.958588
vt -1.525879E-05 -1
vt -0.9999652 -1
vt -1.525879E-05 1
vt -0.9999652 1
vt 0.9999499 -1
vt 0 -1
vt 0.9999499 1
vt 0 1
vt 1 -1
vt 0 -1
vt 1 1
vt 0 1
vt 0 0
vt 0.9999499 0
vt 0 -1
vt 0.9999499 -1
vt 0 -1
vt -0.9999499 -1
vt 0 0
vt -0.9999499 0
vt 1 -1
vt 1 0
vt -1 1
vt -1 -1
vt 0.9999847 -1
vt 0.9999847 1
vt -1 0
vt -1 -1
vt 2 -1
vt 2 0
vt -1 1
vt -1 -1
vt -2 1
vt -2 -1
vt 1 -1
vt 1 1
vt 2 -1
vt 2 1
vt -2 0
vt -2 -1
vt -1 1
vt -1 -1
vt -9 1
vt -9 -1
vt -2 -7.958588
vt -1 -9
vt 1 -9
vt 2 -7.958588
vt 7.958588 -1
vt 7.958588 1
vt -8.999996 1
vt -8.999996 -1
vt -9.999996 1
vt -9.999996 -1
vt -2 -10
vt -1 -10
vt 1 -10
vt 2 -10
vt 7.958588 -1
vt 7.958588 1
vt 10 -1
vt 10 1
vt 1 1
vt 1 -1
vt -7 1
vt -7 -1
vt 7 -10
vt 7 -9
vt -7 -9
vt -7 -10
vt 7 -1
vt 7 1
vt -6.999969 1
vt -6.999969 -1
vt -7.999969 1
vt -7.999969 -1
vt 8 -9.999996
vt 8 -8.999996
vt -8 -8.999996
vt -8 -9.999996
vt 6.999962 -1
vt 6.999962 1
vt 7.999962 -1
vt 7.999962 1
vt 9.000027 1
vt 9.000027 -1
vt 1.000027 1
vt 1.000027 -1
vt 7.999969 -1
vt 6.999969 -1
vt -6.999969 -1
vt -7.999969 -1
vt -9.000027 -1
vt -9.000027 1
vt -1.000031 -1
vt -1.000031 1
vt 7.999969 0
vt 6.999969 0
vt -6.999969 0
vt -7.999969 0
vt 0 -1
vt 0 1
vt 6.999969 1
vt 6.999969 -1
vt 5 1
vt 5 -1
vt 5 0
vt 5 -1
vt -5 -1
vt -5 0
vt -6.999985 -1
vt -6.999985 1
vt -5.000015 -1
vt -5.000015 1
vt 0.0001220559 -1
vt 0.0001220559 1
vt 0.8752213 -1
vt 0.8752213 1
vt -5.000015 0.8750992
vt -6.999985 0.8750992
vt 6.999985 0.8750992
vt 5.000015 0.8750992
vt -0.9999652 0.8750992
vt 0.9999652 0.8750992
vt 1.525879E-05 0.8750992
vt -1.525879E-05 0.8750992
vt 0.9999847 0.8750992
vt -0.9999847 0.8750992
vt 1.743664E-05 1
vt 1.743664E-05 -1
vt -0.8750817 1
vt -0.8750817 -1
vt 4.125 -1
vt 4.125 0
vt 4.125 -7.958588
vt 4.125 -1
vt 4.125 1
vt -4.125 0
vt -4.125 -1
vt -4.125 -7.958588
vt -2 1
vt -2 -1
vt -4.125 1
vt -4.125 -1
vn 0 0 1
vn 0 0 1
vn 0 0 1
vn 0 0 1
vn 0 0 -1
vn 0 0 -1
vn 0 0 -1
vn 0 0 -1
vn 1 0 0
vn 1 0 0
vn 1 0 0
vn 1 0 0
vn 0 1 0
vn 0 1 0
vn 0 1 0
vn 0 1 0
vn 0 -1 0
vn 0 -1 0
vn 0 -1 0
vn 0 -1 0
vn 0 -1 0
vn 0 -1 0
vn 0 0 -1
vn 0 0 -1
vn 0 0 1
vn 0 0 1
vn 0 1 0
vn 0 1 0
vn 0 -1 0
vn 0 -1 0
vn 0 0 -1
vn 0 0 -1
vn 0 0 -1
vn 0 0 -1
vn 0 0 1
vn 0 0 1
vn 0 0 1
vn 0 0 1
vn 0 1 0
vn 0 1 0
vn -1 0 0
vn -1 0 0
vn -1 0 0
vn -1 0 0
vn 0 1 0
vn 0 1 0
vn 0 -1 0
vn 0 -1 0
vn 1 0 0
vn 1 0 0
vn -1 0 0
vn -1 0 0
vn -1 0 0
vn -1 0 0
vn 0 1 0
vn 0 1 0
vn 0 -1 0
vn 0 -1 0
vn 1 0 0
vn 1 0 0
vn 1 0 0
vn 1 0 0
vn 0 0 1
vn 0 0 1
vn 0 0 1
vn 0 0 1
vn 0 1 0
vn 0 1 0
vn 0 -1 0
vn 0 -1 0
vn 0 0 -1
vn 0 0 -1
vn 0 0 1
vn 0 0 1
vn 0 0 1
vn 0 0 1
vn 0 1 0
vn 0 1 0
vn 0 -1 0
vn 0 -1 0
vn -3.814697E-06 0 -1
vn -3.814697E-06 0 -1
vn -3.814697E-06 0 -1
vn -3.814697E-06 0 -1
vn 1 0 -3.814697E-06
vn 1 0 -3.814697E-06
vn 1 0 -3.814697E-06
vn 1 0 -3.814697E-06
vn 0 1 0
vn 0 1 0
vn 0 -1 0
vn 0 -1 0
vn -1 0 3.814699E-06
vn -1 0 3.814699E-06
vn -1 0 3.814699E-06
vn -1 0 3.814699E-06
vn 0 1 0
vn 0 1 0
vn 0 -1 0
vn 0 -1 0
vn -1 0 0
vn -1 0 0
vn 0 0 -1
vn 0 0 -1
vn 0 0 -1
vn 0 0 -1
vn 0 1 0
vn 0 1 0
vn 0 -1 0
vn 0 -1 0
vn 0 0 1
vn 0 0 1
vn 0 0 1
vn 0 0 1
vn -1 0 -1.743664E-05
vn -1 0 -1.743664E-05
vn -1 0 -1.743664E-05
vn -1 0 -1.743664E-05
vn 0 -1 0
vn 0 -1 0
vn 0 1 0
vn 0 1 0
vn 0 -1 0
vn 0 1 0
vn 0 1 0
vn 0 -1 0
vn 0 -1 0
vn 0 1 0
vn 1 0 1.743664E-05
vn 1 0 1.743664E-05
vn 1 0 1.743664E-05
vn 1 0 1.743664E-05
vn 0 -1 0
vn 0 -1 0
vn 0 -1 0
vn 0 0 1
vn 0 0 1
vn 0 1 0
vn 0 1 0
vn 0 1 0
vn 0 0 -1
vn 0 0 -1
vn 0 0 -1
vn 0 0 -1
g pb_Mesh274296_0
g pb_Mesh274296_1
f 3/3/3 2/2/2 1/1/1
f 3/3/3 4/4/4 2/2/2
f 7/7/7 6/6/6 5/5/5
f 7/7/7 8/8/8 6/6/6
f 11/11/11 10/10/10 9/9/9
f 11/11/11 12/12/12 10/10/10
f 15/15/15 14/14/14 13/13/13
f 15/15/15 16/16/16 14/14/14
f 19/19/19 18/18/18 17/17/17
f 19/19/19 20/20/20 18/18/18
f 21/21/21 19/19/19 17/17/17
f 21/21/21 22/22/22 19/19/19
f 23/23/23 6/6/6 8/8/8
f 23/23/23 24/24/24 6/6/6
f 25/25/25 3/3/3 1/1/1
f 25/25/25 26/26/26 3/3/3
f 27/27/27 15/15/15 13/13/13
f 27/27/27 28/28/28 15/15/15
f 29/29/29 22/22/22 21/21/21
f 29/29/29 30/30/30 22/22/22
f 33/33/33 32/32/32 31/31/31
f 33/33/33 34/34/34 32/32/32
f 37/37/37 36/36/36 35/35/35
f 37/37/37 38/38/38 36/36/36
f 39/39/39 28/28/28 27/27/27
f 39/39/39 40/40/40 28/28/28
f 43/43/43 42/42/42 41/41/41
f 43/43/43 44/44/44 42/42/42
f 45/45/45 28/28/28 40/40/40
f 45/45/45 46/46/46 28/28/28
f 47/47/47 29/29/29 21/21/21
f 47/47/47 48/48/48 29/29/29
f 49/49/49 11/11/11 9/9/9
f 49/49/49 50/50/50 11/11/11
f 53/53/53 52/52/52 51/51/51
f 53/53/53 54/54/54 52/52/52
f 55/55/55 46/46/46 45/45/45
f 55/55/55 56/56/56 46/46/46
f 57/57/57 48/48/48 47/47/47
f 57/57/57 58/58/58 48/48/48
f 61/61/61 60/60/60 59/59/59
f 61/61/61 62/62/62 60/60/60
f 65/65/65 64/64/64 63/63/63
f 65/65/65 66/66/66 64/64/64
f 67/67/67 46/46/46 56/56/56
f 67/67/67 68/68/68 46/46/46
f 69/69/69 57/57/57 47/47/47
f 69/69/69 70/70/70 57/57/57
f 71/71/71 31/31/31 32/32/32
f 71/71/71 72/72/72 31/31/31
f 75/75/75 74/74/74 73/73/73
f 75/75/75 76/76/76 74/74/74
f 77/77/77 68/68/68 67/67/67
f 77/77/77 78/78/78 68/68/68
f 79/79/79 70/70/70 69/69/69
f 79/79/79 80/80/80 70/70/70
f 83/83/83 82/82/82 81/81/81
f 83/83/83 84/84/84 82/82/82
f 87/87/87 86/86/86 85/85/85
f 87/87/87 88/88/88 86/86/86
f 89/89/89 68/68/68 78/78/78
f 89/89/89 90/90/90 68/68/68
f 91/91/91 79/79/79 69/69/69
f 91/91/91 92/92/92 79/79/79
f 95/95/95 94/94/94 93/93/93
f 95/95/95 96/96/96 94/94/94
f 97/97/97 90/90/90 89/89/89
f 97/97/97 98/98/98 90/90/90
f 99/99/99 92/92/92 91/91/91
f 99/99/99 100/100/100 92/92/92
f 101/101/101 96/96/96 95/95/95
f 101/101/101 102/102/102 96/96/96
f 105/105/105 104/104/104 103/103/103
f 105/105/105 106/106/106 104/104/104
f 107/107/107 90/90/90 98/98/98
f 107/107/107 108/108/108 90/90/90
f 109/109/109 99/99/99 91/91/91
f 109/109/109 110/110/110 99/99/99
f 113/113/113 112/112/112 111/111/111
f 113/113/113 114/114/114 112/112/112
f 7/7/7 106/106/106 105/105/105
f 7/7/7 5/5/5 106/106/106
f 14/14/14 108/108/108 107/107/107
f 14/14/14 16/16/16 108/108/108
f 18/18/18 110/110/110 109/109/109
f 18/18/18 20/20/20 110/110/110
f 2/2/2 114/114/114 113/113/113
f 2/2/2 4/4/4 114/114/114
f 117/117/117 116/116/116 115/115/115
f 117/117/117 118/118/118 116/116/116
f 119/119/119 99/99/99 110/110/110
f 119/119/119 120/120/120 99/99/99
f 121/121/121 107/107/107 98/98/98
f 121/121/121 122/122/122 107/107/107
f 123/123/123 110/110/110 20/20/20
f 123/123/123 119/119/119 110/110/110
f 122/122/122 14/14/14 107/107/107
f 122/122/122 124/124/124 14/14/14
f 124/124/124 13/13/13 14/14/14
f 124/124/124 125/125/125 13/13/13
f 126/126/126 20/20/20 19/19/19
f 126/126/126 123/123/123 20/20/20
f 127/127/127 19/19/19 22/22/22
f 127/127/127 126/126/126 19/19/19
f 125/125/125 27/27/27 13/13/13
f 125/125/125 128/128/128 27/27/27
f 131/131/131 130/130/130 129/129/129
f 131/131/131 132/132/132 130/130/130
f 133/133/133 30/30/30 29/29/29
f 133/133/133 134/134/134 30/30/30
f 135/135/135 29/29/29 48/48/48
f 135/135/135 133/133/133 29/29/29
f 136/136/136 38/38/38 37/37/37
f 136/136/136 137/137/137 38/38/38
f 138/138/138 40/40/40 39/39/39
f 138/138/138 139/139/139 40/40/40
f 139/139/139 45/45/45 40/40/40
f 139/139/139 140/140/140 45/45/45
f 143/143/143 142/142/142 141/141/141
f 143/143/143 144/144/144 142/142/142
