g pb_Mesh35056
v -4 4 -10
v -4 2 -10
v 0 4 -10
v 0 2 -10
v -8 4 -8
v -8 2 -8
v -4 4 -10
v -4 2 -10
v 0 4 -6
v -8 4 -8
v 0 4 -10
v -4 4 -10
v -8 2 -8
v 0 2 -6
v -4 2 -10
v 0 2 -10
v 0 2 -4
v -8 2 -8
v -8 2 -6
v 0 2 -6
v 0 2 0
v -8 2 0
v 0 4 -4
v -8 4 -4
v -18 8 -6
v -18 6 -4
v -18 8 -4
v -18 6 -6
v -18 6 -6
v -14 2 -6
v -14 4 -6
v -18 2 -6
v -18 8 -4
v -14 8 -4
v -14 8 0
v -18 8 0
v -18 6 -6
v -14 4 -6
v -14 4 -4
v -18 6 -4
v -14 2 -4
v -18 2 -6
v -18 2 -4
v -14 2 -6
v -14 2 0
v -18 2 0
v -18 8 -4
v -14 4 -4
v -14 8 -4
v -18 6 -4
v -12 4 -8
v -8 2 -8
v -8 4 -8
v -12 2 -8
v -14 4 -6
v -12 2 -8
v -12 4 -8
v -14 2 -6
v -14 8 -4
v -10 12 -4
v -10 12 0
v -14 8 0
v -10 12 -4
v -8 12 -4
v -8 12 0
v -10 12 0
v -14 4 -6
v -12 4 -8
v -12 4 -4
v -14 4 -4
v -8 4 -8
v -8 4 -4
v -12 2 -6
v -12 2 -8
v -12 2 0
v -10 12 -4
v -8 4 -4
v -8 12 -4
v -12 4 -4
v -20 6 -6
v -18 2 -6
v -18 6 -6
v -20 2 -6
v -20 8 -6
v -18 6 -6
v -18 8 -6
v -20 6 -6
v -20 2 -4
v -20 2 0
v -20 2 -6
v -20 8 -6
v -18 8 -6
v -18 8 -4
v -20 8 -4
v -18 8 0
v -20 8 0
v 0 12 -4
v -8 12 0
v -8 12 -4
v 0 12 0
v -8 12 -4
v -8 4 -4
v -6 8 -4
v -6 4 -4
v 0 4 -4
v 0 12 -4
v -2 4 -4
v -2 8 -4
v -6 8 -4
v -6 4 -4
v -6 8 2
v -6 4 2
v -6 4 -4
v -2 4 -4
v -6 4 2
v -2 4 2
v -2 4 -4
v -2 8 -4
v -2 4 2
v -2 8 2
v -2 8 -4
v -6 8 -4
v -2 8 2
v -6 8 2
v -6 8 6
v -6 4 6
v -2 4 6
v -2 8 6
v -2 8 6
v -6 8 6
v -8 2 0
v -8 4 0
v 0 2 0
v 0 4 0
v 0 2 -6
v 0 4 -6
v 0 2 -10
v 0 4 -10
v 0 4 -6
v 0 2 -4
v 0 4 -4
v 0 2 -6
v 0 2 0
v 0 4 0
v -14 2 0
v -18 2 0
v -18 4 0
v -14 4 0
v -18 8 0
v -14 8 0
v -12 2 0
v -12 4 0
v -10 12 0
v -8 12 0
v -20 2 0
v -20 4 0
v -20 8 0
v -18 8 0
v 0 4 0
v 0 12 -4
v 0 4 -4
v 0 12 0
vt 4 4
vt 4 2
vt 0 4
vt 0 2
vt 3.577709 4
vt 3.577709 2
vt -0.8944272 4
vt -0.8944272 2
vt 0 -6
vt 8 -8
vt 0 -10
vt 4 -10
vt -8 -8
vt 0 -6
vt -4 -10
vt 0 -10
vt 0 -4
vt 8 -8
vt 8 -6
vt 0 -6
vt 0 0
vt 8 0
vt -4.959106E-05 -4
vt 8 -4
vt -6 8.0001
vt -4 4
vt -4 8.0001
vt -6 4
vt -15.8898 6.314198
vt -12.02058 2.285053
vt -12.02058 4.284118
vt -15.8898 2.316067
vt 12.10169 -4
vt 8.574213 -4
vt 8.574213 0
vt 12.10169 0
vt 18.7978 -6.047081
vt 14.49756 -6.02415
vt 14.49756 -4.024499
vt 18.7978 -4.04743
vt 14 -4
vt 18 -6
vt 18 -4
vt 14 -6
vt 14 0
vt 18 0
vt -18 8
vt -14 4
vt -14 8
vt -18 6
vt -9.578743 4.327756
vt -5.709522 2.297677
vt -5.709522 4.296742
vt -9.578743 2.328691
vt -12.02058 4.284118
vt -9.578743 2.328691
vt -9.578743 4.327756
vt -12.02058 2.285053
vt 8.574213 -4
vt 3.160759 -4
vt 3.160759 0
vt 8.574213 0
vt 3.160759 -4
vt 1.397021 -4
vt 1.397021 0
vt 3.160759 0
vt 14.49756 -6.02415
vt 12.53187 -8.030689
vt 12.53187 -4.031387
vt 14.49756 -4.024499
vt 8.600484 -8.044465
vt 8.600484 -4.045163
vt 12 -6
vt 12 -8
vt 12 0
vt -10 12
vt -8 4
vt -8 12
vt -12 4
vt -21.00005 5
vt -18 2
vt -18 6
vt -21.00005 2
vt -21.00005 8.0001
vt -18 6
vt -18 8.0001
vt -21.00005 5
vt 20 -4
vt 20 0
vt 20 -6
vt 20 -6
vt 18 -6
vt 18 -4
vt 20 -4
vt 18 0
vt 20 0
vt 0 -4
vt 8 0
vt 8 -4
vt 0 0
vt 8 12
vt 8 4
vt 6 8
vt 6 4
vt 0 4
vt 0 12
vt 2 4
vt 2 8
vt 4 8
vt 4 4
vt -2 8
vt -2 4
vt 6 -4
vt 2 -4
vt 6 2
vt 2 2
vt -4 4
vt -4 8
vt 2 4
vt 2 8
vt -2 -4
vt -6 -4
vt -2 2
vt -6 2
vt -6 8
vt -6 4
vt 6 4
vt 6 8
vt -2 6
vt -6 6
vt -8 2
vt -8 4
vt 0 2
vt 0 4
vt 6 2
vt 6 4
vt 10 2
vt 10 4
vt -6 4
vt -4 2
vt -4 4
vt -6 2
vt 0 2
vt 0 4
vt -14 2
vt -18 2
vt -18 4
vt -14 4
vt -18 8
vt -14 8
vt -12 2
vt -12 4
vt -10 12
vt -8 12
vt -21.00005 2
vt -21.00005 4
vt -21.00005 8.0001
vt -18 8.0001
vt 0 4
vt 4 12
vt 4 4
vt 0 12
vn 0 0 -1
vn 0 0 -1
vn 0 0 -1
vn 0 0 -1
vn -0.4472136 0 -0.8944272
vn -0.4472136 0 -0.8944272
vn -0.4472136 0 -0.8944272
vn -0.4472136 0 -0.8944272
vn 0 1 0
vn 0 1 0
vn 0 1 0
vn 0 1 0
vn 0 -1 0
vn 0 -1 0
vn 0 -1 0
vn 0 -1 0
vn 0 -1 0
vn 0 -1 0
vn 0 -1 0
vn 0 -1 0
vn 0 -1 0
vn 0 -1 0
vn 0 1 0
vn 0 1 0
vn 1 0 0
vn 1 0 0
vn 1 0 0
vn 1 0 0
vn 0 0 -1
vn 0 0 -1
vn 0 0 -1
vn 0 0 -1
vn 0 1 0
vn 0 1 0
vn 0 1 0
vn 0 1 0
vn 0.4472136 0.8944272 0
vn 0.4472136 0.8944272 0
vn 0.4472136 0.8944272 0
vn 0.4472136 0.8944272 0
vn 0 -1 0
vn 0 -1 0
vn 0 -1 0
vn 0 -1 0
vn 0 -1 0
vn 0 -1 0
vn 0 0 -1
vn 0 0 -1
vn 0 0 -1
vn 0 0 -1
vn 0 0 -1
vn 0 0 -1
vn 0 0 -1
vn 0 0 -1
vn -0.7071068 0 -0.7071068
vn -0.7071068 0 -0.7071068
vn -0.7071068 0 -0.7071068
vn -0.7071068 0 -0.7071068
vn -0.7071068 0.7071068 0
vn -0.7071068 0.7071068 0
vn -0.7071068 0.7071068 0
vn -0.7071068 0.7071068 0
vn 0 1 0
vn 0 1 0
vn 0 1 0
vn 0 1 0
vn 0 1 0
vn 0 1 0
vn 0 1 0
vn 0 1 0
vn 0 1 0
vn 0 1 0
vn 0 -1 0
vn 0 -1 0
vn 0 -1 0
vn 0 0 -1
vn 0 0 -1
vn 0 0 -1
vn 0 0 -1
vn 0 0 -1
vn 0 0 -1
vn 0 0 -1
vn 0 0 -1
vn 0 0 -1
vn 0 0 -1
vn 0 0 -1
vn 0 0 -1
vn 0 -1 0
vn 0 -1 0
vn 0 -1 0
vn 0 1 0
vn 0 1 0
vn 0 1 0
vn 0 1 0
vn 0 1 0
vn 0 1 0
vn 0 1 0
vn 0 1 0
vn 0 1 0
vn 0 1 0
vn 0 0 -1
vn 0 0 -1
vn 0 0 -1
vn 0 0 -1
vn 0 0 -1
vn 0 0 -1
vn 0 0 -1
vn 0 0 -1
vn 1 0 0
vn 1 0 0
vn 1 0 0
vn 1 0 0
vn 0 1 0
vn 0 1 0
vn 0 1 0
vn 0 1 0
vn -1 0 0
vn -1 0 0
vn -1 0 0
vn -1 0 0
vn 0 -1 0
vn 0 -1 0
vn 0 -1 0
vn 0 -1 0
vn 1 0 0
vn 1 0 0
vn -1 0 0
vn -1 0 0
vn 0 -1 0
vn 0 -1 0
vn 0 0 1
vn 0 0 1
vn 0 0 1
vn 0 0 1
vn 1 0 0
vn 1 0 0
vn 1 0 0
vn 1 0 0
vn 1 0 0
vn 1 0 0
vn 1 0 0
vn 1 0 0
vn 1 0 0
vn 1 0 0
vn 0 0 1
vn 0 0 1
vn 0 0 1
vn 0 0 1
vn 0 0 1
vn 0 0 1
vn 0 0 1
vn 0 0 1
vn 0 0 1
vn 0 0 1
vn 0 0 1
vn 0 0 1
vn 0 0 1
vn 0 0 1
vn 1 0 0
vn 1 0 0
vn 1 0 0
vn 1 0 0
g pb_Mesh35056_0
f 3/3/3 2/2/2 1/1/1
f 3/3/3 4/4/4 2/2/2
f 7/7/7 6/6/6 5/5/5
f 7/7/7 8/8/8 6/6/6
f 11/11/11 10/10/10 9/9/9
f 11/11/11 12/12/12 10/10/10
f 15/15/15 14/14/14 13/13/13
f 15/15/15 16/16/16 14/14/14
f 19/19/19 18/18/18 17/17/17
f 18/18/18 20/20/20 17/17/17
f 22/22/22 19/19/19 21/21/21
f 19/19/19 17/17/17 21/21/21
f 23/23/23 9/9/9 10/10/10
f 23/23/23 10/10/10 24/24/24
f 27/27/27 26/26/26 25/25/25
f 26/26/26 28/28/28 25/25/25
f 31/31/31 30/30/30 29/29/29
f 30/30/30 32/32/32 29/29/29
f 35/35/35 34/34/34 33/33/33
f 35/35/35 33/33/33 36/36/36
f 39/39/39 38/38/38 37/37/37
f 39/39/39 37/37/37 40/40/40
f 43/43/43 42/42/42 41/41/41
f 42/42/42 44/44/44 41/41/41
f 46/46/46 43/43/43 45/45/45
f 43/43/43 41/41/41 45/45/45
f 49/49/49 48/48/48 47/47/47
f 48/48/48 50/50/50 47/47/47
f 53/53/53 52/52/52 51/51/51
f 52/52/52 54/54/54 51/51/51
f 57/57/57 56/56/56 55/55/55
f 56/56/56 58/58/58 55/55/55
f 61/61/61 60/60/60 59/59/59
f 61/61/61 59/59/59 62/62/62
f 65/65/65 64/64/64 63/63/63
f 65/65/65 63/63/63 66/66/66
f 69/69/69 68/68/68 67/67/67
f 69/69/69 67/67/67 70/70/70
f 72/72/72 71/71/71 68/68/68
f 72/72/72 68/68/68 69/69/69
f 41/41/41 44/44/44 73/73/73
f 44/44/44 74/74/74 73/73/73
f 73/73/73 74/74/74 19/19/19
f 74/74/74 18/18/18 19/19/19
f 45/45/45 41/41/41 75/75/75
f 41/41/41 73/73/73 75/75/75
f 75/75/75 73/73/73 22/22/22
f 73/73/73 19/19/19 22/22/22
f 78/78/78 77/77/77 76/76/76
f 77/77/77 79/79/79 76/76/76
f 76/76/76 79/79/79 49/49/49
f 79/79/79 48/48/48 49/49/49
f 82/82/82 81/81/81 80/80/80
f 81/81/81 83/83/83 80/80/80
f 86/86/86 85/85/85 84/84/84
f 85/85/85 87/87/87 84/84/84
f 89/89/89 88/88/88 46/46/46
f 88/88/88 43/43/43 46/46/46
f 88/88/88 90/90/90 43/43/43
f 90/90/90 42/42/42 43/43/43
f 93/93/93 92/92/92 91/91/91
f 93/93/93 91/91/91 94/94/94
f 95/95/95 93/93/93 94/94/94
f 95/95/95 94/94/94 96/96/96
f 99/99/99 98/98/98 97/97/97
f 98/98/98 100/100/100 97/97/97
f 103/103/103 102/102/102 101/101/101
f 103/103/103 104/104/104 102/102/102
f 107/107/107 106/106/106 105/105/105
f 107/107/107 108/108/108 106/106/106
f 108/108/108 101/101/101 106/106/106
f 108/108/108 103/103/103 101/101/101
f 111/111/111 110/110/110 109/109/109
f 111/111/111 112/112/112 110/110/110
f 115/115/115 114/114/114 113/113/113
f 115/115/115 116/116/116 114/114/114
f 119/119/119 118/118/118 117/117/117
f 119/119/119 120/120/120 118/118/118
f 123/123/123 122/122/122 121/121/121
f 123/123/123 124/124/124 122/122/122
f 125/125/125 112/112/112 111/111/111
f 125/125/125 126/126/126 112/112/112
f 127/127/127 120/120/120 119/119/119
f 127/127/127 128/128/128 120/120/120
f 129/129/129 124/124/124 123/123/123
f 129/129/129 130/130/130 124/124/124
g pb_Mesh35056_1
f 133/133/133 132/132/132 131/131/131
f 133/133/133 134/134/134 132/132/132
f 137/137/137 136/136/136 135/135/135
f 137/137/137 138/138/138 136/136/136
f 141/141/141 140/140/140 139/139/139
f 140/140/140 142/142/142 139/139/139
f 144/144/144 143/143/143 141/141/141
f 143/143/143 140/140/140 141/141/141
f 147/147/147 146/146/146 145/145/145
f 147/147/147 145/145/145 148/148/148
f 149/149/149 147/147/147 148/148/148
f 149/149/149 148/148/148 150/150/150
f 152/152/152 151/151/151 131/131/131
f 152/152/152 131/131/131 132/132/132
f 148/148/148 145/145/145 151/151/151
f 148/148/148 151/151/151 152/152/152
f 153/153/153 152/152/152 132/132/132
f 153/153/153 132/132/132 154/154/154
f 150/150/150 148/148/148 152/152/152
f 150/150/150 152/152/152 153/153/153
f 156/156/156 155/155/155 146/146/146
f 156/156/156 146/146/146 147/147/147
f 157/157/157 156/156/156 147/147/147
f 157/157/157 147/147/147 158/158/158
f 161/161/161 160/160/160 159/159/159
f 160/160/160 162/162/162 159/159/159
