g pb_Mesh237850
v 0 0 0
v -6.000011 0 1.549721E-06
v 0 2 0
v -6.000011 2 1.549721E-06
v -6.000011 0 1.549721E-06
v -6.000013 0 -1.999998
v -6.000011 2 1.549721E-06
v -6.000013 2 -1.999998
v -6.000013 0 -1.999998
v 0 0 -2
v -6.000013 2 -1.999998
v 0 2 -2
v 0 0 -2
v 0 0 0
v 0 2 -2
v 0 2 0
v 0 2 0
v -6.000011 2 1.549721E-06
v 0 2 -2
v -6.000013 2 -1.999998
v 0 0 -2
v -6.000013 0 -1.999998
v 0 0 0
v -6.000011 0 1.549721E-06
vt 0 0
vt -6.000011 0
vt 0 2
vt -6.000011 2
vt -4.172336E-06 0
vt -2.000004 0
vt -4.172336E-06 2
vt -2.000004 2
vt 6.000012 0
vt -5.165725E-07 0
vt 6.000012 2
vt -5.165725E-07 2
vt 2 0
vt 0 0
vt 2 2
vt 0 2
vt 0 0
vt 6.000011 1.549721E-06
vt 0 -2
vt 6.000013 -1.999998
vt 0 -2
vt -6.000013 -1.999998
vt 0 0
vt -6.000011 1.549721E-06
vn 2.582863E-07 0 1
vn 2.582863E-07 0 1
vn 2.582863E-07 0 1
vn 2.582863E-07 0 1
vn -1 0 9.536743E-07
vn -1 0 9.536743E-07
vn -1 0 9.536743E-07
vn -1 0 9.536743E-07
vn -2.582862E-07 0 -1
vn -2.582862E-07 0 -1
vn -2.582862E-07 0 -1
vn -2.582862E-07 0 -1
vn 1 0 0
vn 1 0 0
vn 1 0 0
vn 1 0 0
vn 0 1 0
vn 0 1 0
vn 0 1 0
vn 0 1 0
vn 0 -1 0
vn 0 -1 0
vn 0 -1 0
vn 0 -1 0
g pb_Mesh237850_0
f 3/3/3 2/2/2 1/1/1
f 3/3/3 4/4/4 2/2/2
f 7/7/7 6/6/6 5/5/5
f 7/7/7 8/8/8 6/6/6
f 11/11/11 10/10/10 9/9/9
f 11/11/11 12/12/12 10/10/10
f 15/15/15 14/14/14 13/13/13
f 15/15/15 16/16/16 14/14/14
f 19/19/19 18/18/18 17/17/17
f 19/19/19 20/20/20 18/18/18
f 23/23/23 22/22/22 21/21/21
f 23/23/23 24/24/24 22/22/22
