g pb_Mesh238752
v -10.5 6 0
v -2.5 6 0
v -10.5 -0.5 0
v -2.5 -0.5 0
v -34.5 6 -8
v -34.5 4.625 0
v -34.5 -0.5 -8
v -34.5 -0.5 0
v -27.5 4.5 0
v -18.5 6 0
v -27.5 -0.5 0
v -18.5 -0.5 0
v -2.5 6 0
v -2.5 6 -8
v -2.5 -0.5 0
v -2.5 -0.5 -8
v -2.5 8 0
v -5.25 8 0
v -10.5 8 0
v -5.25 8 -8
v -10.5 8 -8
v -8 6 -8
v -2.5 6 -8
v -2.5 8 -8
v -2.5 8 -8
v -2.5 8 -6
v -2.5 8 -4
v -2.5 8 -2
v -2.5 8 0
v -14.5 8 0
v -18.5 8 0
v -14.5 8 -8
v -18.5 8 -8
v -18.5 6 -8
v -22.5 8 0
v -26.5 8 0
v -22.5 8 -8
v -26.5 8 -8
v -26.5 6 -8
v -30.5 8 -8
v -33.875 8 -8
v -34.5 6 -8
v -10.5 8 -8
v -5.25 8 -8
v -5.25 8 -6
v -10.5 8 -6
v -14.5 8 -8
v -14.5 8 -6
v -18.5 8 -8
v -18.5 8 -6
v -22.5 8 -8
v -22.5 8 -6
v -26.5 8 -8
v -26.5 8 -6
v -30.5 8 -8
v -30.5 8 -6
v -33.875 8 -8
v -34.5 8 -6
v -10.5 8 -2
v -5.25 8 -2
v -5.25 8 0
v -10.5 8 0
v -14.5 8 -2
v -14.5 8 0
v -26.5 8 -2
v -22.5 8 -2
v -22.5 8 0
v -26.5 8 0
v -30.5 8 -2
v -30.5 8 0
v -2.5 8 -8
v -2.5 8 -6
v -2.5 8 -2
v -2.5 8 0
v -34.5 0 8
v -34.5 4.625 8
v -34.5 7.75 0
v -34.5 8 -2
v -34.5 8 -4
v -34.5 8 -6
v -34.5 6 -8
v -33.875 8 -8
v -34.5 8 -6
v -34.5 8 -2
v -30.5 8 0
v -34.5 7.75 0
v -34.5 8 -2
v -29.03159 4.625 0
v -34.5 4.625 0
v -34.5 7.75 0
v -30.5 8 0
v -29.40659 4.625 4
v -29.03159 4.625 0
v -27.5 4.5 4
v -27.5 4.5 0
v -27.5 -0.5 0
v -27.5 4.5 4
v -27.5 4.5 0
v -27.5 -0.5 4
v -29.25 4.5 7
v -30.125 4.5 8
v -29.25 4.5 6
v -34.5 4.625 8
v -29.40659 4.625 4
v -34.5 4.625 0
v -29.03159 4.625 0
v -29.25 4.5 7
v -29.25 3.5 8
v -30.125 4.5 8
v -29.25 0 8
v -30.125 4.5 8
v -29.25 3.5 8
v -34.5 0 8
v -34.5 4.625 8
v -29.25 4.5 6
v -29.25 0.125 6
v -29.25 4.5 7
v -29.25 0 8
v -29.25 3.5 8
v -26.5 6 -8
v -34.5 6 -8
v -26.5 -0.5 -8
v -34.5 -0.5 -8
v -2.5 6 -12
v -8 6 -12
v -2.5 0 -12
v -8 0 -12
v -18.5 6 -8
v -18.5 -0.5 -8
v -8 6 -8
v -8 0 -8
v -10.5 8 -6
v -5.25 8 -6
v -5.25 8 -4
v -10.5 8 -4
v -14.5 8 -6
v -14.5 8 -4
v -18.5 8 -6
v -18.5 8 -4
v -22.5 8 -6
v -22.5 8 -4
v -26.5 8 -6
v -26.5 8 -4
v -30.5 8 -6
v -30.5 8 -4
v -34.5 8 -6
v -34.5 8 -4
v -5.25 8 -2
v -10.5 8 -2
v -14.5 8 -2
v -18.5 8 -2
v -22.5 8 -2
v -26.5 8 -2
v -30.5 8 -2
v -34.5 8 -2
v -2.5 8 -6
v -2.5 8 -4
v -2.5 8 -2
v -2.5 6 -8
v -8 6 -8
v -2.5 6 -12
v -8 6 -12
v -2.5 -0.5 -8
v -2.5 6 -8
v -2.5 0 -12
v -2.5 6 -12
v -8 6 -8
v -8 0 -8
v -8 6 -12
v -8 0 -12
v -8 0 -8
v -2.5 -0.5 -8
v -8 0 -12
v -2.5 0 -12
vt -10.5 6
vt -2.5 6
vt -10.5 -0.5
vt -2.5 -0.5
vt -8 6
vt 0 4.625
vt -8 -0.5
vt 0 -0.5
vt -27.5 4.5
vt -18.5 6
vt -27.5 -0.5
vt -18.5 -0.5
vt 0 6
vt 8 6
vt 0 -0.5
vt 8 -0.5
vt -2.5 8
vt -5.25 8
vt -10.5 8
vt 5.25 8
vt 10.5 8
vt 8 6
vt 2.5 6
vt 2.5 8
vt 8 8
vt 6 8
vt 4 8
vt 2 8
vt 0 8
vt -14.5 8
vt -18.5 8
vt 14.5 8
vt 18.5 8
vt 18.5 6
vt -22.5 8
vt -26.5 8
vt 22.5 8
vt 26.5 8
vt 26.5 6
vt 30.5 8
vt 33.875 8
vt 34.5 6
vt 10.5 -8
vt 5.25 -8
vt 5.25 -6
vt 10.5 -6
vt 14.5 -8
vt 14.5 -6
vt 18.5 -8
vt 18.5 -6
vt 22.5 -8
vt 22.5 -6
vt 26.5 -8
vt 26.5 -6
vt 30.5 -8
vt 30.5 -6
vt 33.875 -8
vt 34.5 -6
vt 10.5 -2
vt 5.25 -2
vt 5.25 0
vt 10.5 0
vt 14.5 -2
vt 14.5 0
vt 26.5 -2
vt 22.5 -2
vt 22.5 0
vt 26.5 0
vt 30.5 -2
vt 30.5 0
vt 2.5 -8
vt 2.5 -6
vt 2.5 -2
vt 2.5 0
vt 8 0
vt 8 4.625
vt 0 7.75
vt -2 8
vt -4 8
vt -6 8
vt 2.654647 -4.344657
vt 2.468225 -2.257585
vt 4.563607 -2.257585
vt 33.93379 -3.239479
vt 29.94158 -1.223975
vt 33.94938 -1.223975
vt 34.5 -2
vt -29.03159 4.625
vt -34.5 4.625
vt -34.5 7.75
vt -30.5 8
vt 29.64616 3.983419
vt 29.27197 -0.01665645
vt 27.73549 3.983419
vt 27.73549 -0.01650598
vt 0 -0.5
vt -4 4.5
vt 0 4.5
vt -4 -0.5
vt 29.30228 6.953713
vt 30.17721 7.953769
vt 29.30228 5.953774
vt 34.55341 7.952971
vt 29.46036 3.952535
vt 34.55341 -0.04653911
vt 29.08539 -0.04727056
vt -24.5293 13.32967
vt -25.28188 12.13233
vt -25.85807 13.32967
vt -29.25 0
vt -30.125 4.5
vt -29.25 3.5
vt -34.5 0
vt -34.5 4.625
vt -6 4.5
vt -6 0.125
vt -7 4.5
vt -8 0
vt -8 3.5
vt 26.5 6
vt 34.5 6
vt 26.5 -0.5
vt 34.5 -0.5
vt 2.5 6
vt 8 6
vt 2.5 0
vt 8 0
vt 18.5 6
vt 18.5 -0.5
vt 8 6
vt 8 0
vt 10.5 -6
vt 5.25 -6
vt 5.25 -4
vt 10.5 -4
vt 14.5 -6
vt 14.5 -4
vt 18.5 -6
vt 18.5 -4
vt 22.5 -6
vt 22.5 -4
vt 26.5 -6
vt 26.5 -4
vt 30.5 -6
vt 30.5 -4
vt 34.5 -6
vt 34.5 -4
vt 5.25 -2
vt 10.5 -2
vt 14.5 -2
vt 18.5 -2
vt 22.5 -2
vt 26.5 -2
vt 30.5 -2
vt 34.5 -2
vt 2.5 -6
vt 2.5 -4
vt 2.5 -2
vt 2.5 -8
vt 8 -8
vt 2.5 -12
vt 8 -12
vt 8 -0.5
vt 8 6
vt 12 0
vt 12 6
vt -8 6
vt -8 0
vt -12 6
vt -12 0
vt -7.967146 -8
vt -2.444465 -8
vt -7.967146 -12
vt -2.489733 -12
vn 0 0 1
vn 0 0 1
vn 0 0 1
vn 0 0 1
vn -1 0 0
vn -1 0 0
vn -1 0 0
vn -1 0 0
vn 0 0 1
vn 0 0 1
vn 0 0 1
vn 0 0 1
vn 1 0 0
vn 1 0 0
vn 1 0 0
vn 1 0 0
vn 0 0 1
vn 0 0 1
vn 0 0 1
vn 0 0 -1
vn 0 0 -1
vn 0 0 -1
vn 0 0 -1
vn 0 0 -1
vn 1 0 0
vn 1 0 0
vn 1 0 0
vn 1 0 0
vn 1 0 0
vn 0 0 1
vn 0 0 1
vn 0 0 -1
vn 0 0 -1
vn 0 0 -1
vn 0 0 1
vn 0 0 1
vn 0 0 -1
vn 0 0 -1
vn 0 0 -1
vn 0 0 -1
vn 0 0 -1
vn 0 0 -1
vn 0 1 0
vn 0 1 0
vn 0 1 0
vn 0 1 0
vn 0 1 0
vn 0 1 0
vn 0 1 0
vn 0 1 0
vn 0 1 0
vn 0 1 0
vn 0 1 0
vn 0 1 0
vn 0 1 0
vn 0 1 0
vn 0 1 0
vn 0 1 0
vn 0 1 0
vn 0 1 0
vn 0 1 0
vn 0 1 0
vn 0 1 0
vn 0 1 0
vn 0 1 0
vn 0 1 0
vn 0 1 0
vn 0 1 0
vn 0 1 0
vn 0 1 0
vn 0 1 0
vn 0 1 0
vn 0 1 0
vn 0 1 0
vn -1 0 0
vn -1 0 0
vn -1 0 0
vn -1 0 0
vn -1 0 0
vn -1 0 0
vn -0.9146591 0.285831 -0.285831
vn -0.9146591 0.285831 -0.285831
vn -0.9146591 0.285831 -0.285831
vn -0.06189845 0.9903752 0.1237969
vn -0.06189845 0.9903752 0.1237969
vn -0.06189845 0.9903752 0.1237969
vn 0 1 0
vn 0 0 1
vn 0 0 1
vn 0 0 1
vn 0 0 1
vn 0.06542054 0.9978389 0.006133176
vn 0.07338241 0.9972625 0.003066588
vn 0.07338241 0.9972625 0.003066588
vn 0.08134429 0.996686 0
vn 1 0 0
vn 1 0 0
vn 1 0 0
vn 1 0 0
vn 0 1 0
vn 0.01427877 0.9997571 0.006246963
vn 0.02488947 0.9989078 0.02373645
vn 0.02488947 0.9989077 0.02373645
vn 0.01537029 0.9990698 0.01957181
vn 0 1 0
vn 0 1 0
vn 0.6285393 0.5499719 0.5499719
vn 0.6285393 0.5499719 0.5499719
vn 0.6285393 0.5499719 0.5499719
vn 0 0 1
vn 0 0 1
vn 0 0 1
vn 0 0 1
vn 0 0 1
vn 1 0 0
vn 1 0 0
vn 1 0 0
vn 1 0 0
vn 1 0 0
vn 0 0 -1
vn 0 0 -1
vn 0 0 -1
vn 0 0 -1
vn 0 0 -1
vn 0 0 -1
vn 0 0 -1
vn 0 0 -1
vn 0 0 -1
vn 0 0 -1
vn 0 0 -1
vn 0 0 -1
vn 0 1 0
vn 0 1 0
vn 0 1 0
vn 0 1 0
vn 0 1 0
vn 0 1 0
vn 0 1 0
vn 0 1 0
vn 0 1 0
vn 0 1 0
vn 0 1 0
vn 0 1 0
vn 0 1 0
vn 0 1 0
vn 0 1 0
vn 0 1 0
vn 0 1 0
vn 0 1 0
vn 0 1 0
vn 0 1 0
vn 0 1 0
vn 0 1 0
vn 0 1 0
vn 0 1 0
vn 0 1 0
vn 0 1 0
vn 0 1 0
vn 0 1 0
vn 0 1 0
vn 0 1 0
vn 0 1 0
vn 1 0 0
vn 1 0 0
vn 1 0 0
vn 1 0 0
vn -1 0 0
vn -1 0 0
vn -1 0 0
vn -1 0 0
vn -0.09053575 -0.9958932 0
vn -0.04526788 -0.9940856 -0.06201737
vn -0.04526788 -0.9940856 -0.06201737
vn 0 -0.9922779 -0.1240347
g pb_Mesh238752_0
f 3/3/3 2/2/2 1/1/1
f 3/3/3 4/4/4 2/2/2
f 7/7/7 6/6/6 5/5/5
f 7/7/7 8/8/8 6/6/6
f 11/11/11 10/10/10 9/9/9
f 11/11/11 12/12/12 10/10/10
f 12/12/12 1/1/1 10/10/10
f 12/12/12 3/3/3 1/1/1
f 15/15/15 14/14/14 13/13/13
f 15/15/15 16/16/16 14/14/14
f 18/18/18 2/2/2 17/17/17
f 2/2/2 18/18/18 1/1/1
f 18/18/18 19/19/19 1/1/1
f 22/22/22 21/21/21 20/20/20
f 22/22/22 20/20/20 23/23/23
f 24/24/24 23/23/23 20/20/20
f 26/26/26 14/14/14 25/25/25
f 26/26/26 27/27/27 14/14/14
f 14/14/14 27/27/27 13/13/13
f 13/13/13 27/27/27 28/28/28
f 28/28/28 29/29/29 13/13/13
f 30/30/30 1/1/1 19/19/19
f 1/1/1 30/30/30 10/10/10
f 30/30/30 31/31/31 10/10/10
f 34/34/34 33/33/33 32/32/32
f 34/34/34 32/32/32 22/22/22
f 21/21/21 22/22/22 32/32/32
f 35/35/35 10/10/10 31/31/31
f 10/10/10 35/35/35 9/9/9
f 35/35/35 36/36/36 9/9/9
f 39/39/39 38/38/38 37/37/37
f 39/39/39 37/37/37 34/34/34
f 33/33/33 34/34/34 37/37/37
f 42/42/42 41/41/41 40/40/40
f 42/42/42 40/40/40 39/39/39
f 38/38/38 39/39/39 40/40/40
f 45/45/45 44/44/44 43/43/43
f 45/45/45 43/43/43 46/46/46
f 46/46/46 43/43/43 47/47/47
f 46/46/46 47/47/47 48/48/48
f 48/48/48 47/47/47 49/49/49
f 48/48/48 49/49/49 50/50/50
f 50/50/50 49/49/49 51/51/51
f 50/50/50 51/51/51 52/52/52
f 52/52/52 51/51/51 53/53/53
f 52/52/52 53/53/53 54/54/54
f 54/54/54 53/53/53 55/55/55
f 54/54/54 55/55/55 56/56/56
f 56/56/56 55/55/55 57/57/57
f 56/56/56 57/57/57 58/58/58
f 61/61/61 60/60/60 59/59/59
f 61/61/61 59/59/59 62/62/62
f 62/62/62 59/59/59 63/63/63
f 62/62/62 63/63/63 64/64/64
f 67/67/67 66/66/66 65/65/65
f 67/67/67 65/65/65 68/68/68
f 68/68/68 65/65/65 69/69/69
f 68/68/68 69/69/69 70/70/70
f 72/72/72 71/71/71 44/44/44
f 72/72/72 44/44/44 45/45/45
f 74/74/74 73/73/73 60/60/60
f 74/74/74 60/60/60 61/61/61
f 75/75/75 6/6/6 8/8/8
f 75/75/75 76/76/76 6/6/6
f 78/78/78 6/6/6 77/77/77
f 78/78/78 79/79/79 6/6/6
f 6/6/6 79/79/79 5/5/5
f 79/79/79 80/80/80 5/5/5
f 83/83/83 82/82/82 81/81/81
f 86/86/86 85/85/85 84/84/84
f 70/70/70 69/69/69 87/87/87
f 90/90/90 89/89/89 88/88/88
f 91/91/91 9/9/9 36/36/36
f 91/91/91 88/88/88 9/9/9
f 90/90/90 88/88/88 91/91/91
f 94/94/94 93/93/93 92/92/92
f 94/94/94 95/95/95 93/93/93
f 98/98/98 97/97/97 96/96/96
f 97/97/97 99/99/99 96/96/96
f 102/102/102 101/101/101 100/100/100
f 103/103/103 101/101/101 102/102/102
f 103/103/103 102/102/102 104/104/104
f 105/105/105 103/103/103 104/104/104
f 104/104/104 106/106/106 105/105/105
f 109/109/109 108/108/108 107/107/107
f 112/112/112 111/111/111 110/110/110
f 111/111/111 113/113/113 110/110/110
f 114/114/114 113/113/113 111/111/111
f 117/117/117 116/116/116 115/115/115
f 118/118/118 116/116/116 117/117/117
f 118/118/118 117/117/117 119/119/119
g pb_Mesh238752_1
f 122/122/122 121/121/121 120/120/120
f 122/122/122 123/123/123 121/121/121
f 126/126/126 125/125/125 124/124/124
f 126/126/126 127/127/127 125/125/125
f 129/129/129 120/120/120 128/128/128
f 129/129/129 122/122/122 120/120/120
f 131/131/131 128/128/128 130/130/130
f 131/131/131 129/129/129 128/128/128
f 134/134/134 133/133/133 132/132/132
f 134/134/134 132/132/132 135/135/135
f 135/135/135 132/132/132 136/136/136
f 135/135/135 136/136/136 137/137/137
f 137/137/137 136/136/136 138/138/138
f 137/137/137 138/138/138 139/139/139
f 139/139/139 138/138/138 140/140/140
f 139/139/139 140/140/140 141/141/141
f 141/141/141 140/140/140 142/142/142
f 141/141/141 142/142/142 143/143/143
f 143/143/143 142/142/142 144/144/144
f 143/143/143 144/144/144 145/145/145
f 145/145/145 144/144/144 146/146/146
f 145/145/145 146/146/146 147/147/147
f 148/148/148 134/134/134 135/135/135
f 148/148/148 135/135/135 149/149/149
f 149/149/149 135/135/135 137/137/137
f 149/149/149 137/137/137 150/150/150
f 150/150/150 137/137/137 139/139/139
f 150/150/150 139/139/139 151/151/151
f 151/151/151 139/139/139 141/141/141
f 151/151/151 141/141/141 152/152/152
f 152/152/152 141/141/141 143/143/143
f 152/152/152 143/143/143 153/153/153
f 153/153/153 143/143/143 145/145/145
f 153/153/153 145/145/145 154/154/154
f 154/154/154 145/145/145 147/147/147
f 154/154/154 147/147/147 155/155/155
f 157/157/157 156/156/156 133/133/133
f 157/157/157 133/133/133 134/134/134
f 158/158/158 157/157/157 134/134/134
f 158/158/158 134/134/134 148/148/148
f 161/161/161 160/160/160 159/159/159
f 161/161/161 162/162/162 160/160/160
f 165/165/165 164/164/164 163/163/163
f 165/165/165 166/166/166 164/164/164
f 169/169/169 168/168/168 167/167/167
f 169/169/169 170/170/170 168/168/168
f 173/173/173 172/172/172 171/171/171
f 173/173/173 174/174/174 172/172/172
