g pb_Mesh341332
v -16 0 0
v -16 0 -4
v -16 5 -4
v -16 5 0
v -16 8 -4
v -16 8 0
v -16 0 -12
v -16 2 -12
v -16 4 -12
v -16 5 -12
v -16 8 -12
v 0 8 -4
v 0 5 0
v 0 8 0
v 0 5 -4
v 0 5 -12
v 0 0 -4
v 0 0 -12
v 0 8 -12
v 0 0 0
v 0 5 0
v -8 0 0
v -8 5 0
v 0 5 0
v 0 5 -4
v -8 5 0
v -8 5 -4
v 0 5 -4
v 0 0 -4
v -8 5 -4
v -8 0 -4
v -16 8 -12
v -8 8 -12
v -8 8 -4
v -16 8 -4
v 0 8 -12
v 0 8 -4
v -8 8 0
v -16 8 0
v 0 8 0
v 0 0 8
v -8 0 8
v -8 5 8
v 0 5 8
v -16 0 8
v -16 5 8
v -8 8 8
v 0 8 8
v -16 8 8
v -8 5 -12
v 0 0 -12
v 0 5 -12
v -8 0 -12
v -16 2 -12
v -16 0 -12
v -16 4 -12
v -16 5 -12
v -8 8 -12
v 0 8 -12
v -16 8 -12
v -16 0 8
v -16 0 4
v -16 5 4
v -16 5 8
v -16 8 4
v -16 8 8
v 0 5 4
v 0 0 8
v 0 5 8
v 0 0 4
v 0 0 0
v 0 8 4
v 0 8 8
v -8 8 4
v -16 8 4
v -8 8 8
v -16 8 8
v 0 8 4
v 0 8 8
v -16.25 2 -12
v -16 4 -12
v -16 2 -12
v -16.25 4 -12
v -16 4 -12
v -16 4 -10.63012
v -16.25 4 -10.63012
v -16.25 4 -12
vt 0 0
vt -4 0
vt -4 5
vt 0 5
vt -4 8
vt 0 8
vt -12 0
vt -12 2
vt -12 4
vt -12 5
vt -12 8
vt 4 8
vt 0 5
vt 0 8
vt 4 5
vt 12 5
vt 4 0
vt 12 0
vt 12 8
vt 0 0
vt 0 5
vt 8 0
vt 8 5
vt 0 0
vt 0 -4
vt -8 0
vt -8 -4
vt 0 5
vt 0 0
vt -8 5
vt -8 0
vt 16 -12
vt 8 -12
vt 8 -4
vt 16 -4
vt 0 -12
vt 0 -4
vt 8 0
vt 16 0
vt 0 0
vt 0 0
vt -8 0
vt -8 5
vt 0 5
vt -16 0
vt -16 5
vt -8 8
vt 0 8
vt -16 8
vt 8 5
vt 0 0
vt 0 5
vt 8 0
vt 16 2
vt 16 0
vt 16 4
vt 16 5
vt 8 8
vt 0 8
vt 16 8
vt 8 0
vt 4 0
vt 4 5
vt 8 5
vt 4 8
vt 8 8
vt -4 5
vt -8 0
vt -8 5
vt -4 0
vt 0 0
vt -4 8
vt -8 8
vt 8 4
vt 16 4
vt 8 8
vt 16 8
vt 0 4
vt 0 8
vt -16.25 2
vt -16 4
vt -16 2
vt -16.25 4
vt 16 -12
vt 16 -10.63012
vt 16.25 -10.63012
vt 16.25 -12
vn -1 0 0
vn -1 0 0
vn -1 0 0
vn -1 0 0
vn -1 0 0
vn -1 0 0
vn -1 0 0
vn -1 0 0
vn -1 0 0
vn -1 0 0
vn -1 0 0
vn 1 0 0
vn 1 0 0
vn 1 0 0
vn 1 0 0
vn 1 0 0
vn 1 0 0
vn 1 0 0
vn 1 0 0
vn 0 0 -1
vn 0 0 -1
vn 0 0 -1
vn 0 0 -1
vn 0 -1 0
vn 0 -1 0
vn 0 -1 0
vn 0 -1 0
vn 0 0 1
vn 0 0 1
vn 0 0 1
vn 0 0 1
vn 0 1 0
vn 0 1 0
vn 0 1 0
vn 0 1 0
vn 0 1 0
vn 0 1 0
vn 0 1 0
vn 0 1 0
vn 0 1 0
vn 0 0 1
vn 0 0 1
vn 0 0 1
vn 0 0 1
vn 0 0 1
vn 0 0 1
vn 0 0 1
vn 0 0 1
vn 0 0 1
vn 0 0 -1
vn 0 0 -1
vn 0 0 -1
vn 0 0 -1
vn 0 0 -1
vn 0 0 -1
vn 0 0 -1
vn 0 0 -1
vn 0 0 -1
vn 0 0 -1
vn 0 0 -1
vn -1 0 0
vn -1 0 0
vn -1 0 0
vn -1 0 0
vn -1 0 0
vn -1 0 0
vn 1 0 0
vn 1 0 0
vn 1 0 0
vn 1 0 0
vn 1 0 0
vn 1 0 0
vn 1 0 0
vn 0 1 0
vn 0 1 0
vn 0 1 0
vn 0 1 0
vn 0 1 0
vn 0 1 0
vn 0 0 1
vn 0 0 1
vn 0 0 1
vn 0 0 1
vn 0 1 0
vn 0 1 0
vn 0 1 0
vn 0 1 0
g pb_Mesh341332_0
f 3/3/3 2/2/2 1/1/1
f 3/3/3 1/1/1 4/4/4
f 5/5/5 3/3/3 4/4/4
f 5/5/5 4/4/4 6/6/6
f 8/8/8 7/7/7 2/2/2
f 2/2/2 3/3/3 8/8/8
f 3/3/3 9/9/9 8/8/8
f 3/3/3 10/10/10 9/9/9
f 11/11/11 10/10/10 3/3/3
f 11/11/11 3/3/3 5/5/5
f 14/14/14 13/13/13 12/12/12
f 13/13/13 15/15/15 12/12/12
f 15/15/15 17/17/17 16/16/16
f 17/17/17 18/18/18 16/16/16
f 12/12/12 15/15/15 19/19/19
f 15/15/15 16/16/16 19/19/19
f 22/22/22 21/21/21 20/20/20
f 22/22/22 23/23/23 21/21/21
f 26/26/26 25/25/25 24/24/24
f 26/26/26 27/27/27 25/25/25
f 30/30/30 29/29/29 28/28/28
f 30/30/30 31/31/31 29/29/29
f 34/34/34 33/33/33 32/32/32
f 34/34/34 32/32/32 35/35/35
f 37/37/37 36/36/36 33/33/33
f 37/37/37 33/33/33 34/34/34
f 38/38/38 34/34/34 35/35/35
f 38/38/38 35/35/35 39/39/39
f 40/40/40 37/37/37 34/34/34
f 40/40/40 34/34/34 38/38/38
f 43/43/43 42/42/42 41/41/41
f 43/43/43 41/41/41 44/44/44
f 46/46/46 45/45/45 42/42/42
f 46/46/46 42/42/42 43/43/43
f 47/47/47 43/43/43 44/44/44
f 47/47/47 44/44/44 48/48/48
f 49/49/49 46/46/46 43/43/43
f 49/49/49 43/43/43 47/47/47
f 52/52/52 51/51/51 50/50/50
f 51/51/51 53/53/53 50/50/50
f 53/53/53 55/55/55 54/54/54
f 50/50/50 53/53/53 54/54/54
f 56/56/56 50/50/50 54/54/54
f 50/50/50 56/56/56 57/57/57
f 59/59/59 52/52/52 58/58/58
f 52/52/52 50/50/50 58/58/58
f 58/58/58 50/50/50 60/60/60
f 50/50/50 57/57/57 60/60/60
f 63/63/63 62/62/62 61/61/61
f 63/63/63 61/61/61 64/64/64
f 4/4/4 1/1/1 62/62/62
f 4/4/4 62/62/62 63/63/63
f 65/65/65 63/63/63 64/64/64
f 65/65/65 64/64/64 66/66/66
f 6/6/6 4/4/4 63/63/63
f 6/6/6 63/63/63 65/65/65
f 69/69/69 68/68/68 67/67/67
f 68/68/68 70/70/70 67/67/67
f 67/67/67 70/70/70 13/13/13
f 70/70/70 71/71/71 13/13/13
f 73/73/73 69/69/69 72/72/72
f 69/69/69 67/67/67 72/72/72
f 72/72/72 67/67/67 14/14/14
f 67/67/67 13/13/13 14/14/14
f 74/74/74 38/38/38 39/39/39
f 74/74/74 39/39/39 75/75/75
f 76/76/76 74/74/74 75/75/75
f 76/76/76 75/75/75 77/77/77
f 78/78/78 40/40/40 38/38/38
f 78/78/78 38/38/38 74/74/74
f 79/79/79 78/78/78 74/74/74
f 79/79/79 74/74/74 76/76/76
f 82/82/82 81/81/81 80/80/80
f 81/81/81 83/83/83 80/80/80
f 86/86/86 85/85/85 84/84/84
f 86/86/86 84/84/84 87/87/87
g pb_Mesh341332_1
