g pb_Mesh306486
v 16 0 0
v 0 0 0
v 0 -123 0
v 16 -123 0
v 0 0 0
v 0 0 -16
v 0 -123 -16
v 0 -123 0
v 16 11 -0.0001068115
v 7.247925E-05 11 -7.629395E-05
v 7.247925E-05 11 -7.629395E-05
v 9.918213E-05 11 -16
v 15.75 11 -16
v 0 0 -16
v 9.918213E-05 11 -16
v 16 0 -16
v 16 11 0
v 16 0 -16
v 15.75 11 -16
v 16 0 0
v -112 0 -16
v 0 -123 -16
v 0 0 -16
v -112 -123 -16
v 16 -123 105
v 16 0 0
v 16 -123 0
v 16 0 105
v 0 0 -16
v 16 0 -16
v 16 -123 -16
v 0 -123 -16
v 16 0 -16
v 16 0 0
v 16 -123 0
v 16 -123 -16
vt -16 0
vt 0 0
vt 0 -123
vt -16 -123
vt 0 0
vt 16 0
vt 16 -123
vt 0 -123
vt -16 11
vt -7.247925E-05 11
vt 7.629395E-05 11
vt 16 11
vt 15.75 11
vt 0 0
vt 9.918213E-05 11
vt 16 0
vt 0.2499695 10.63371
vt -15.74808 -0.3691328
vt -15.75198 10.63371
vt 0.2499695 -0.3634538
vt 112 0
vt 0 -123
vt 0 0
vt 112 -123
vt -105 -123
vt 0 0
vt 0 -123
vt -105 0
vt 0 0
vt 16 0
vt 16 -123
vt 0 -123
vt -16 0
vt 0 0
vt 0 -123
vt -16 -123
vn 0 0 -1
vn 0 0 -1
vn 0 0 -1
vn 0 0 -1
vn 1 0 0
vn 1 0 0
vn 1 0 0
vn 1 0 0
vn -9.536786E-07 -8.32297E-06 -1
vn -1.907357E-06 -6.935801E-06 -1
vn 1 -7.80279E-06 8.34469E-07
vn 1 -9.016557E-06 1.668938E-06
vn 0 0 1
vn 0 0 1
vn 0 0 1
vn 0 0 1
vn -0.99981 -0.01135932 0.00780953
vn -0.99981 -0.01135932 0.00780953
vn -0.9996199 -0.02271863 0.01561906
vn -1 0 0
vn 0 0 -1
vn 0 0 -1
vn 0 0 -1
vn 0 0 -1
vn 1 0 0
vn 1 0 0
vn 1 0 0
vn 1 0 0
vn 0 0 1
vn 0 0 1
vn 0 0 1
vn 0 0 1
vn -1 0 0
vn -1 0 0
vn -1 0 0
vn -1 0 0
g pb_Mesh306486_0
f 3/3/3 2/2/2 1/1/1
f 4/4/4 3/3/3 1/1/1
f 7/7/7 6/6/6 5/5/5
f 8/8/8 7/7/7 5/5/5
f 1/1/1 2/2/2 9/9/9
f 2/2/2 10/10/10 9/9/9
f 5/5/5 6/6/6 11/11/11
f 6/6/6 12/12/12 11/11/11
f 15/15/15 14/14/14 13/13/13
f 14/14/14 16/16/16 13/13/13
f 19/19/19 18/18/18 17/17/17
f 18/18/18 20/20/20 17/17/17
g pb_Mesh306486_1
f 23/23/23 22/22/22 21/21/21
f 22/22/22 24/24/24 21/21/21
f 27/27/27 26/26/26 25/25/25
f 26/26/26 28/28/28 25/25/25
g pb_Mesh306486_2
f 31/31/31 30/30/30 29/29/29
f 31/31/31 29/29/29 32/32/32
f 35/35/35 34/34/34 33/33/33
f 35/35/35 33/33/33 36/36/36
