g pb_Mesh51178
v -32 0 0
v -32 4 0
v -16 0 27.71281
v -16 4 27.71281
v -16 0 27.71281
v -16 4 27.71281
v 16 0 27.71281
v 16 4 27.71281
v 16 0 27.71281
v 16 4 27.71281
v 32 0 -2.797529E-06
v 32 4 -2.797529E-06
v 32 0 -2.797529E-06
v 32 4 -2.797529E-06
v 16 0 -27.71281
v 16 4 -27.71281
v 16 0 -27.71281
v 16 4 -27.71281
v -16 0 -27.71281
v -16 4 -27.71281
v -16 0 -27.71281
v -16 4 -27.71281
v -32 0 0
v -32 4 0
v -32 8 0
v -16 8 27.71281
v -16 8 27.71281
v 16 8 27.71281
v 16 8 27.71281
v 32 8 -2.797529E-06
v 32 8 -2.797529E-06
v 16 8 -27.71281
v 16 8 -27.71281
v -16 8 -27.71281
v -16 8 -27.71281
v -32 8 0
v -32 12 0
v -16 12 27.71281
v -16 12 27.71281
v 16 12 27.71281
v 16 12 27.71281
v 32 12 -2.797529E-06
v 32 12 -2.797529E-06
v 16 12 -27.71281
v 16 12 -27.71281
v -16 12 -27.71281
v -16 12 -27.71281
v -32 12 0
v -32 16 0
v -16 16 27.71281
v -16 16 27.71281
v 16 16 27.71281
v 16 16 27.71281
v 32 16 -2.797529E-06
v 32 16 -2.797529E-06
v 16 16 -27.71281
v 16 16 -27.71281
v -16 16 -27.71281
v -16 16 -27.71281
v -32 16 0
v -16 0 27.71281
v 0 0 0
v -32 0 0
v 16 0 27.71281
v 32 0 -2.797529E-06
v 0 0 0
v 16 0 27.71281
v 16 0 -27.71281
v 32 0 -2.797529E-06
v -16 0 -27.71281
v -32 16 0
v 0 16 0
v -16 16 27.71281
v 16 16 27.71281
v 32 16 -2.797529E-06
v 16 16 -27.71281
v -16 16 -27.71281
vt -16 0
vt -16 4
vt 16 0
vt 16 4
vt -16 0
vt -16 4
vt 16 0
vt 16 4
vt -16 0
vt -16 4
vt 16 0
vt 16 4
vt -16 0
vt -16 4
vt 16 0
vt 16 4
vt -16 0
vt -16 4
vt 16 0
vt 16 4
vt -16 0
vt -16 4
vt 16 0
vt 16 4
vt -16 8
vt 16 8
vt -16 8
vt 16 8
vt -16 8
vt 16 8
vt -16 8
vt 16 8
vt -16 8
vt 16 8
vt -16 8
vt 16 8
vt -16 12
vt 16 12
vt -16 12
vt 16 12
vt -16 12
vt 16 12
vt -16 12
vt 16 12
vt -16 12
vt 16 12
vt -16 12
vt 16 12
vt -16 16
vt 16 16
vt -16 16
vt 16 16
vt -16 16
vt 16 16
vt -16 16
vt 16 16
vt -16 16
vt 16 16
vt -16 16
vt 16 16
vt -16 27.71281
vt 0 0
vt -32 0
vt 16 27.71281
vt 32 -2.797529E-06
vt 0 0
vt 16 27.71281
vt 16 -27.71281
vt 32 -2.797529E-06
vt -16 -27.71281
vt 32 0
vt 0 0
vt 16 27.71281
vt -16 27.71281
vt -32 -2.797529E-06
vt -16 -27.71281
vt 16 -27.71281
vn -0.8660254 0 -2.980232E-08
vn -0.8660254 0 -2.980232E-08
vn -0.4330127 0 0.75
vn -0.4330127 0 0.75
vn -0.4330127 0 0.75
vn -0.4330127 0 0.75
vn 0.4330128 0 0.75
vn 0.4330128 0 0.75
vn 0.4330128 0 0.75
vn 0.4330128 0 0.75
vn 0.8660254 0 -8.940697E-08
vn 0.8660254 0 -8.940697E-08
vn 0.8660254 0 -8.940697E-08
vn 0.8660254 0 -8.940697E-08
vn 0.4330127 0 -0.7500001
vn 0.4330127 0 -0.7500001
vn 0.4330127 0 -0.7500001
vn 0.4330127 0 -0.7500001
vn -0.4330127 0 -0.75
vn -0.4330127 0 -0.75
vn -0.4330127 0 -0.75
vn -0.4330127 0 -0.75
vn -0.8660254 0 -2.980232E-08
vn -0.8660254 0 -2.980232E-08
vn -0.8660254 0 -2.980232E-08
vn -0.4330127 0 0.75
vn -0.4330127 0 0.75
vn 0.4330128 0 0.75
vn 0.4330128 0 0.75
vn 0.8660254 0 -8.940697E-08
vn 0.8660254 0 -8.940697E-08
vn 0.4330127 0 -0.7500001
vn 0.4330127 0 -0.7500001
vn -0.4330127 0 -0.75
vn -0.4330127 0 -0.75
vn -0.8660254 0 -2.980232E-08
vn -0.8660254 0 -2.980232E-08
vn -0.4330127 0 0.75
vn -0.4330127 0 0.75
vn 0.4330128 0 0.75
vn 0.4330128 0 0.75
vn 0.8660254 0 -8.940697E-08
vn 0.8660254 0 -8.940697E-08
vn 0.4330127 0 -0.7500001
vn 0.4330127 0 -0.7500001
vn -0.4330127 0 -0.75
vn -0.4330127 0 -0.75
vn -0.8660254 0 -2.980232E-08
vn -0.8660254 0 -2.980232E-08
vn -0.4330127 0 0.75
vn -0.4330127 0 0.75
vn 0.4330128 0 0.75
vn 0.4330128 0 0.75
vn 0.8660254 0 -8.940697E-08
vn 0.8660254 0 -8.940697E-08
vn 0.4330127 0 -0.7500001
vn 0.4330127 0 -0.7500001
vn -0.4330127 0 -0.75
vn -0.4330127 0 -0.75
vn -0.8660254 0 -2.980232E-08
vn 0 -1 0
vn 0 -1 0
vn 0 -1 0
vn 0 -1 0
vn 0 -0.9999999 0
vn 0 -0.9999999 0
vn 0 -0.9999999 0
vn 0 -1 0
vn 0 -1 0
vn 0 -1 0
vn 0 1 0
vn 0 1 0
vn 0 1 0
vn 0 1 0
vn 0 1 0
vn 0 1 0
vn 0 1 0
g pb_Mesh51178_0
f 3/3/3 2/2/2 1/1/1
f 3/3/3 4/4/4 2/2/2
f 7/7/7 6/6/6 5/5/5
f 7/7/7 8/8/8 6/6/6
f 11/11/11 10/10/10 9/9/9
f 11/11/11 12/12/12 10/10/10
f 15/15/15 14/14/14 13/13/13
f 15/15/15 16/16/16 14/14/14
f 19/19/19 18/18/18 17/17/17
f 19/19/19 20/20/20 18/18/18
f 23/23/23 22/22/22 21/21/21
f 23/23/23 24/24/24 22/22/22
f 4/4/4 25/25/25 2/2/2
f 4/4/4 26/26/26 25/25/25
f 8/8/8 27/27/27 6/6/6
f 8/8/8 28/28/28 27/27/27
f 12/12/12 29/29/29 10/10/10
f 12/12/12 30/30/30 29/29/29
f 16/16/16 31/31/31 14/14/14
f 16/16/16 32/32/32 31/31/31
f 20/20/20 33/33/33 18/18/18
f 20/20/20 34/34/34 33/33/33
f 24/24/24 35/35/35 22/22/22
f 24/24/24 36/36/36 35/35/35
f 26/26/26 37/37/37 25/25/25
f 26/26/26 38/38/38 37/37/37
f 28/28/28 39/39/39 27/27/27
f 28/28/28 40/40/40 39/39/39
f 30/30/30 41/41/41 29/29/29
f 30/30/30 42/42/42 41/41/41
f 32/32/32 43/43/43 31/31/31
f 32/32/32 44/44/44 43/43/43
f 34/34/34 45/45/45 33/33/33
f 34/34/34 46/46/46 45/45/45
f 36/36/36 47/47/47 35/35/35
f 36/36/36 48/48/48 47/47/47
f 38/38/38 49/49/49 37/37/37
f 38/38/38 50/50/50 49/49/49
f 40/40/40 51/51/51 39/39/39
f 40/40/40 52/52/52 51/51/51
f 42/42/42 53/53/53 41/41/41
f 42/42/42 54/54/54 53/53/53
f 44/44/44 55/55/55 43/43/43
f 44/44/44 56/56/56 55/55/55
f 46/46/46 57/57/57 45/45/45
f 46/46/46 58/58/58 57/57/57
f 48/48/48 59/59/59 47/47/47
f 48/48/48 60/60/60 59/59/59
f 63/63/63 62/62/62 61/61/61
f 61/61/61 62/62/62 64/64/64
f 67/67/67 66/66/66 65/65/65
f 69/69/69 62/62/62 68/68/68
f 68/68/68 62/62/62 70/70/70
f 70/70/70 62/62/62 63/63/63
f 73/73/73 72/72/72 71/71/71
f 74/74/74 72/72/72 73/73/73
f 75/75/75 72/72/72 74/74/74
f 76/76/76 72/72/72 75/75/75
f 77/77/77 72/72/72 76/76/76
f 71/71/71 72/72/72 77/77/77
