g pb_Mesh266664
v 2.5 -0.5 0.5
v -1.5 -0.5 0.5
v 2.5 1 0.5
v -1.5 1 0.5
v -1.5 -0.5 0.5
v -1.5 -0.5 -0.5
v -1.5 1 0.5
v -1.5 1 -0.5
v -1.5 -0.5 -0.5
v 2.5 -0.5 -0.5
v -1.5 1 -0.5
v 2.5 1 -0.5
v 3.5 -0.5 -0.5
v 3.5 -0.5 0.5
v 3.5 1 -0.5
v 3.5 1 0.5
v 2.5 1 0.5
v -1.5 1 0.5
v 2.5 1 -0.5
v -1.5 1 -0.5
v 2.5 -0.5 -0.5
v -1.5 -0.5 -0.5
v 2.5 -0.5 0.5
v -1.5 -0.5 0.5
v 2.5 -13.5 -0.5
v 2.5 -13.5 0.5
v 3.5 -13.5 -0.5
v 3.5 -13.5 0.5
v 3.5 1 -0.5
v 3.5 -0.5 -0.5
v 2.5 -0.5 1.5
v 2.5 1 1.5
v 3.5 -0.5 1.5
v 3.5 1 1.5
v 3.5 1 0.5
v 3.5 1 -0.5
v 2.5 -0.5 0.5
v 2.5 1 0.5
v 2.5 -0.5 1.5
v 2.5 1 1.5
v 3.5 -0.5 0.5
v 2.5 -0.5 0.5
v 3.5 -0.5 1.5
v 2.5 -0.5 1.5
v 2.5 1 1.5
v 3.5 1 1.5
v 3.5 1 1.5
v 3.5 -0.5 1.5
v 2.5 -0.5 -0.5
v 2.5 -0.5 0.5
v 2.5 -13.5 -0.5
v 2.5 -13.5 0.5
v 3.5 -13.5 -0.5
v 2.5 -13.5 -0.5
v 2.5 -0.5 0.5
v 3.5 -0.5 0.5
v 2.5 -13.5 0.5
v 3.5 -13.5 0.5
v 3.5 -13.5 0.5
v 3.5 -13.5 -0.5
vt 2.5 -0.5
vt -1.5 -0.5
vt 2.5 1
vt -1.5 1
vt 0.5 -0.5
vt -0.5 -0.5
vt 0.5 1
vt -0.5 1
vt 1.5 -0.5
vt -2.5 -0.5
vt 1.5 1
vt -2.5 1
vt 0.5 -0.5
vt -0.5 -0.5
vt 0.5 1
vt -0.5 1
vt -2.5 0.5
vt 1.5 0.5
vt -2.5 -0.5
vt 1.5 -0.5
vt 2.5 -0.5
vt -1.5 -0.5
vt 2.5 0.5
vt -1.5 0.5
vt 2.5 -0.5
vt 2.5 0.5
vt 3.5 -0.5
vt 3.5 0.5
vt -3.5 1
vt -3.5 -0.5
vt 2.5 -0.5
vt 2.5 1
vt 3.5 -0.5
vt 3.5 1
vt -3.5 0.5
vt -3.5 -0.5
vt 0.5 -0.5
vt 0.5 1
vt 1.5 -0.5
vt 1.5 1
vt 3.5 0.5
vt 2.5 0.5
vt 3.5 1.5
vt 2.5 1.5
vt -2.5 1.5
vt -3.5 1.5
vt -1.5 1
vt -1.5 -0.5
vt -0.5 -0.5
vt 0.5 -0.5
vt -0.5 -13.5
vt 0.5 -13.5
vt -3.5 -13.5
vt -2.5 -13.5
vt 2.5 -0.5
vt 3.5 -0.5
vt 2.5 -13.5
vt 3.5 -13.5
vt -0.5 -13.5
vt 0.5 -13.5
vn 0 0 1
vn 0 0 1
vn 0 0 1
vn 0 0 1
vn -1 0 0
vn -1 0 0
vn -1 0 0
vn -1 0 0
vn 0 0 -1
vn 0 0 -1
vn 0 0 -1
vn 0 0 -1
vn 1 0 0
vn 1 0 0
vn 1 0 0
vn 1 0 0
vn 0 1 0
vn 0 1 0
vn 0 1 0
vn 0 1 0
vn 0 -1 0
vn 0 -1 0
vn 0 -1 0
vn 0 -1 0
vn 0 -1 0
vn 0 -1 0
vn 0 -1 0
vn 0 -1 0
vn 0 0 -1
vn 0 0 -1
vn 0 0 1
vn 0 0 1
vn 0 0 1
vn 0 0 1
vn 0 1 0
vn 0 1 0
vn -1 0 0
vn -1 0 0
vn -1 0 0
vn -1 0 0
vn 0 -1 0
vn 0 -1 0
vn 0 -1 0
vn 0 -1 0
vn 0 1 0
vn 0 1 0
vn 1 0 0
vn 1 0 0
vn -1 0 0
vn -1 0 0
vn -1 0 0
vn -1 0 0
vn 0 0 -1
vn 0 0 -1
vn 0 0 1
vn 0 0 1
vn 0 0 1
vn 0 0 1
vn 1 0 0
vn 1 0 0
g pb_Mesh266664_0
f 3/3/3 2/2/2 1/1/1
f 3/3/3 4/4/4 2/2/2
f 7/7/7 6/6/6 5/5/5
f 7/7/7 8/8/8 6/6/6
f 11/11/11 10/10/10 9/9/9
f 11/11/11 12/12/12 10/10/10
f 15/15/15 14/14/14 13/13/13
f 15/15/15 16/16/16 14/14/14
f 19/19/19 18/18/18 17/17/17
f 19/19/19 20/20/20 18/18/18
f 23/23/23 22/22/22 21/21/21
f 23/23/23 24/24/24 22/22/22
f 27/27/27 26/26/26 25/25/25
f 27/27/27 28/28/28 26/26/26
f 29/29/29 10/10/10 12/12/12
f 29/29/29 30/30/30 10/10/10
f 33/33/33 32/32/32 31/31/31
f 33/33/33 34/34/34 32/32/32
f 35/35/35 19/19/19 17/17/17
f 35/35/35 36/36/36 19/19/19
f 39/39/39 38/38/38 37/37/37
f 39/39/39 40/40/40 38/38/38
f 43/43/43 42/42/42 41/41/41
f 43/43/43 44/44/44 42/42/42
f 45/45/45 35/35/35 17/17/17
f 45/45/45 46/46/46 35/35/35
f 47/47/47 14/14/14 16/16/16
f 47/47/47 48/48/48 14/14/14
f 51/51/51 50/50/50 49/49/49
f 51/51/51 52/52/52 50/50/50
f 53/53/53 10/10/10 30/30/30
f 53/53/53 54/54/54 10/10/10
f 57/57/57 56/56/56 55/55/55
f 57/57/57 58/58/58 56/56/56
f 59/59/59 13/13/13 14/14/14
f 59/59/59 60/60/60 13/13/13
