g pb_Mesh46606
v -7.629409E-06 -32 6
v -16.00001 -32 5.999935
v -7.629409E-06 -8 6
v -8.000025 -8 5.999968
v -32 -28 4
v -32 -28 0
v -32 0 4
v -32 0 0
v -16 -32 0
v 0 -32 0
v -8 -8 3.361703E-05
v -1.192266E-07 -8 1.668939E-06
v 0 -32 0
v 0 -32 4
v -1.192266E-07 -8 1.668939E-06
v 5.96031E-07 -8 4.000002
v 5.96031E-07 -8 4.000002
v -8.000016 -8 4.000038
v -1.192266E-07 -8 1.668939E-06
v -8 -8 3.361703E-05
v 0 -32 0
v -16 -32 0
v 0 -32 4
v -16 -32 4
v -16 -32 4
v -16 -32 0
v -24 -28 4
v -24 -28 0
v -8.000016 -8 4.000038
v -16 -32 4
v -24 0 4
v -24 -28 4
v -24 -28 0
v -24 0 0
v -8 -8 3.361703E-05
v -8.000016 -8 4.000038
v -24 0 0
v -24 0 4
v -24 -28 4
v -24 -28 0
v -32 -28 4
v -32 -28 0
v -24 0 4
v -24 -28 4
v -32 0 4
v -32 -28 4
v -23.99998 -28 -4.000097
v -23.99998 0 -4.000097
v -31.99998 -28 -4.00013
v -31.99998 0 -4.00013
v -24 0 0
v -24 0 4
v -32 0 0
v -32 0 4
v -24 -28 0
v -24 0 0
v -23.99998 -28 -4.000097
v -23.99998 0 -4.000097
v -31.99998 -28 -4.00013
v -23.99998 -28 -4.000097
v -23.99998 0 -4.000097
v -31.99998 0 -4.00013
v -32 0 0
v -32 -28 0
v -31.99998 0 -4.00013
v -31.99998 -28 -4.00013
v -7.629409E-06 -32 6
v -16.00001 -32 5.999935
v -7.629409E-06 -8 6
v -7.629409E-06 -32 6
v -32.00002 -31.99997 3.999934
v -32.00002 -7.999969 3.999941
v -32.00003 -31.99997 5.999869
v -32.00003 -7.999969 5.999869
v -8.000025 -8 5.999968
v -7.629409E-06 -8 6
v -16 -32 4
v -8.000016 -8 4.000038
v -32.00002 -31.99997 3.999934
v -32.00002 -7.999969 3.999941
v -16.00001 -32 5.999935
v -16 -32 4
v -32.00003 -31.99997 5.999869
v -32.00002 -31.99997 3.999934
v -32.00002 -7.999969 3.999941
v -32.00003 -7.999969 5.999869
v -32.00003 -7.999969 5.999869
v -32.00003 -31.99997 5.999869
vt 1.704691E-05 -32
vt -15.99998 -32
vt 1.704691E-05 -8
vt -8 -8
vt 4 -28
vt 0 -28
vt 4 0
vt 0 0
vt 16 -32
vt 0 -32
vt 8 -8
vt 1.192266E-07 -8
vt 0 -32
vt -4 -32
vt -1.668939E-06 -8
vt -4.000002 -8
vt -5.96031E-07 4.000002
vt 8.000016 4.000038
vt 1.192266E-07 1.668939E-06
vt 8 3.361703E-05
vt 0 0
vt -16 0
vt 0 4
vt -16 4
vt 0 4
vt 0 0
vt -8.944272 4
vt -8.944272 0
vt -8.000006 -7.999997
vt -15.99999 -32
vt -23.99999 2.690771E-06
vt -23.99999 -28
vt 24 -28
vt 24 1.729752E-11
vt 3.577709 5.307197E-05
vt 3.577723 4.000057
vt 21.46625 1.945494E-05
vt 21.46625 4.00002
vt -24 4
vt -24 0
vt -32 4
vt -32 0
vt -24 0
vt -24 -28
vt -32 0
vt -32 -28
vt 24 -28
vt 24 0
vt 32 -28
vt 32 0
vt 24 0
vt 24 4
vt 32 0
vt 32 4
vt -0.0001029943 -28
vt -0.0001029943 0
vt 3.999994 -28
vt 3.999994 0
vt -31.99998 -4.00013
vt -23.99998 -4.000097
vt 23.99998 -4.000097
vt 31.99998 -4.00013
vt 0.0001373246 0
vt 0.0001373246 -28
vt -3.999992 0
vt -3.999992 -28
vt -7.629409E-06 6
vt -16.00001 5.999935
vt -6 -8
vt -6 -32
vt 4.000117 -31.99997
vt 4.000124 -7.999969
vt 6.000052 -31.99997
vt 6.000052 -7.999969
vt 8.000025 5.999968
vt 7.629409E-06 6
vt 15.99998 -32
vt 8 -7.999999
vt 32 -31.99997
vt 32 -7.999969
vt -15.99994 5.999935
vt -15.99994 4
vt -31.99996 5.999869
vt -31.99995 3.999934
vt 32 3.999941
vt 32.00002 5.999869
vt -32 -7.999969
vt -32 -31.99997
vn -4.11272E-06 0 1
vn -4.112716E-06 -2.778216E-12 1
vn -4.112716E-06 -2.778216E-12 1
vn -4.112712E-06 -5.556432E-12 1
vn -1 0 0
vn -1 0 0
vn -1 0 0
vn -1 0 0
vn 0 1.40071E-06 -1
vn -1.996756E-06 7.351244E-07 -1
vn -1.996756E-06 7.351244E-07 -1
vn -3.993512E-06 6.953911E-08 -1
vn 1 4.967774E-09 0
vn 1 -9.933419E-09 -8.940719E-08
vn 1 -9.933419E-09 -8.940719E-08
vn 1 -2.483461E-08 -1.788144E-07
vn 0 1 0
vn 0 1 0
vn 0 1 0
vn 0 1 0
vn 0 -1 0
vn 0 -1 0
vn 0 -1 0
vn 0 -1 0
vn -0.4472136 -0.8944272 0
vn -0.4472136 -0.8944272 0
vn -0.4472136 -0.8944272 0
vn -0.4472136 -0.8944272 0
vn -2.690727E-06 -6.726818E-07 1
vn -1.345364E-06 -3.363409E-07 1
vn -1.345364E-06 -3.363409E-07 1
vn 0 0 1
vn 1.350684E-06 6.003042E-07 -1
vn 2.101065E-06 0 -1
vn 0.4472136 0.8944272 1.812607E-06
vn 0.4472138 0.8944271 9.063034E-07
vn 0.4472138 0.8944271 9.063034E-07
vn 0.447214 0.8944271 0
vn 0 -1 0
vn 0 -1 0
vn 0 -1 0
vn 0 -1 0
vn 0 0 1
vn 0 0 1
vn 0 0 1
vn 0 0 1
vn 4.11272E-06 0 -1
vn 4.11272E-06 0 -1
vn 4.11272E-06 0 -1
vn 4.11272E-06 0 -1
vn 0 1 0
vn 0 1 0
vn 0 1 0
vn 0 1 0
vn 1 0 4.291431E-06
vn 1 0 4.291431E-06
vn 1 0 4.291431E-06
vn 1 0 4.291431E-06
vn 0 -1 0
vn 0 -1 0
vn 0 1 0
vn 0 1 0
vn -1 0 -4.291395E-06
vn -1 0 -4.291395E-06
vn -1 0 -4.291395E-06
vn -1 0 -4.291395E-06
vn 0 -1 0
vn 0 -1 0
vn 1 -1.241748E-08 3.963713E-06
vn 1 0 3.814704E-06
vn -1 1.819049E-12 -5.722231E-06
vn -1 9.095243E-13 -5.722242E-06
vn -1 9.095243E-13 -5.722242E-06
vn -1 0 -5.722253E-06
vn 0 1 0
vn 0 1 0
vn 4.142519E-06 1.88752E-07 -1
vn 4.07795E-06 2.533218E-07 -1
vn 4.07795E-06 2.533218E-07 -1
vn 4.01338E-06 3.178915E-07 -1
vn -2.026556E-06 -1 -9.663687E-12
vn -2.026556E-06 -1 -1.063005E-11
vn -2.026556E-06 -1 -1.063005E-11
vn -2.026556E-06 -1 -1.159642E-11
vn 1.271566E-06 1 6.36669E-12
vn 1.271566E-06 1 7.27622E-12
vn -4.112718E-06 -1.361873E-12 1
vn -4.112716E-06 0 1
g pb_Mesh46606_0
f 3/3/3 2/2/2 1/1/1
f 3/3/3 4/4/4 2/2/2
f 7/7/7 6/6/6 5/5/5
f 7/7/7 8/8/8 6/6/6
f 11/11/11 10/10/10 9/9/9
f 11/11/11 12/12/12 10/10/10
f 15/15/15 14/14/14 13/13/13
f 15/15/15 16/16/16 14/14/14
f 19/19/19 18/18/18 17/17/17
f 19/19/19 20/20/20 18/18/18
f 23/23/23 22/22/22 21/21/21
f 23/23/23 24/24/24 22/22/22
f 27/27/27 26/26/26 25/25/25
f 27/27/27 28/28/28 26/26/26
f 31/31/31 30/30/30 29/29/29
f 31/31/31 32/32/32 30/30/30
f 33/33/33 11/11/11 9/9/9
f 33/33/33 34/34/34 11/11/11
f 37/37/37 36/36/36 35/35/35
f 37/37/37 38/38/38 36/36/36
f 41/41/41 40/40/40 39/39/39
f 41/41/41 42/42/42 40/40/40
f 45/45/45 44/44/44 43/43/43
f 45/45/45 46/46/46 44/44/44
f 49/49/49 48/48/48 47/47/47
f 49/49/49 50/50/50 48/48/48
f 53/53/53 52/52/52 51/51/51
f 53/53/53 54/54/54 52/52/52
f 57/57/57 56/56/56 55/55/55
f 57/57/57 58/58/58 56/56/56
f 59/59/59 40/40/40 42/42/42
f 59/59/59 60/60/60 40/40/40
f 61/61/61 53/53/53 51/51/51
f 61/61/61 62/62/62 53/53/53
f 65/65/65 64/64/64 63/63/63
f 65/65/65 66/66/66 64/64/64
f 67/67/67 24/24/24 23/23/23
f 67/67/67 68/68/68 24/24/24
f 69/69/69 14/14/14 16/16/16
f 69/69/69 70/70/70 14/14/14
f 73/73/73 72/72/72 71/71/71
f 73/73/73 74/74/74 72/72/72
f 75/75/75 17/17/17 18/18/18
f 75/75/75 76/76/76 17/17/17
f 79/79/79 78/78/78 77/77/77
f 79/79/79 80/80/80 78/78/78
f 83/83/83 82/82/82 81/81/81
f 83/83/83 84/84/84 82/82/82
f 85/85/85 75/75/75 18/18/18
f 85/85/85 86/86/86 75/75/75
f 87/87/87 2/2/2 4/4/4
f 87/87/87 88/88/88 2/2/2
