g pb_Mesh-85676
v 0.125 1.25 0
v -1.125 1.25 0
v 0.125 1.25 -1
v -1.125 1.25 -1
v 0.125 1.25 0
v 0.125 -3 0
v -0.125 -3 0
v -0.875 -3 0
v -1.125 -3 0
v -1.125 1.25 0
v -1.125 1.25 0
v -1.125 -3 0
v -1.125 -2 -1
v -1.125 1.25 -1
v -1.125 1.25 -1
v 0.125 -2 -1
v 0.125 1.25 -1
v -1.125 -2 -1
v 0.125 1.25 -1
v 0.125 -2 -1
v 0.125 1.25 0
v 0.125 -3 0
v -0.125 -2.25 -0.75
v 0.125 -2 -1
v -0.875 -2.25 -0.75
v -1.125 -2 -1
v 0.125 -3 0
v -0.125 -3 0
v -0.125 -5.375 0
v -0.875 -4.5 -0.75
v -0.875 -5.375 0
v -0.125 -4.5 -0.75
v -0.875 -3 0
v -1.125 -3 0
v -0.875 -2.25 -0.75
v -0.875 -3 0
v -0.875 -4.5 -0.75
v -0.875 -5.375 0
v -0.875 -5.375 0
v -0.125 -5.375 0
v -0.125 -3 0
v -0.125 -2.25 -0.75
v -0.125 -5.375 0
v -0.125 -4.5 -0.75
v -0.125 -2.25 -0.75
v -0.875 -2.25 -0.75
v -0.125 -4.5 -0.75
v -0.875 -4.5 -0.75
vt -0.125 0
vt 1.125 0
vt -0.125 -1
vt 1.125 -1
vt 0.125 1.25
vt 0.125 -3
vt -0.125 -3
vt -0.875 -3
vt -1.125 -3
vt -1.125 1.25
vt 0 1.25
vt 0 -3
vt -1 -2
vt -1 1.25
vt 1.125 1.25
vt -0.125 -2
vt -0.125 1.25
vt 1.125 -2
vt 1 1.25
vt 1 -2
vt 0 1.25
vt 0 -3
vt 0.125 -1.06066
vt -0.125 -0.7071068
vt 0.875 -1.06066
vt 1.125 -0.7071068
vt -0.125 -2.12132
vt 0.125 -2.12132
vt 0.125 -4.081005
vt 0.875 -2.928561
vt 0.875 -4.081005
vt 0.125 -2.928561
vt 0.875 -2.12132
vt 1.125 -2.12132
vt -0.75 -2.25
vt 0 -3
vt -0.75 -4.5
vt 0 -5.375
vt -0.875 -5.375
vt -0.125 -5.375
vt 0 -3
vt 0.75 -2.25
vt 0 -5.375
vt 0.75 -4.5
vt 0.125 -2.25
vt 0.875 -2.25
vt 0.125 -4.5
vt 0.875 -4.5
vn 0 1 0
vn 0 1 0
vn 0 1 0
vn 0 1 0
vn 0 0 1
vn 0 0 1
vn 0 0 1
vn 0 0 1
vn 0 0 1
vn 0 0 1
vn -1 0 0
vn -1 0 0
vn -1 0 0
vn -1 0 0
vn 0 0 -1
vn 0 0 -1
vn 0 0 -1
vn 0 0 -1
vn 1 0 0
vn 1 0 0
vn 1 0 0
vn 1 0 0
vn 0 -0.7071068 -0.7071068
vn 0 -0.7071068 -0.7071068
vn 0 -0.7071068 -0.7071068
vn 0 -0.7071068 -0.7071068
vn 0 -0.7071068 -0.7071068
vn 0 -0.7071068 -0.7071068
vn 0 -0.6507913 -0.7592566
vn 0 -0.6507913 -0.7592566
vn 0 -0.6507913 -0.7592566
vn 0 -0.6507913 -0.7592566
vn 0 -0.7071068 -0.7071068
vn 0 -0.7071068 -0.7071068
vn -1 0 0
vn -1 0 0
vn -1 0 0
vn -1 0 0
vn 0 0 1
vn 0 0 1
vn 1 0 0
vn 1 0 0
vn 1 0 0
vn 1 0 0
vn 0 0 -1
vn 0 0 -1
vn 0 0 -1
vn 0 0 -1
g pb_Mesh-85676_0
g pb_Mesh-85676_1
f 3/3/3 2/2/2 1/1/1
f 3/3/3 4/4/4 2/2/2
f 7/7/7 6/6/6 5/5/5
f 10/10/10 9/9/9 8/8/8
f 10/10/10 8/8/8 7/7/7
f 5/5/5 10/10/10 7/7/7
f 13/13/13 12/12/12 11/11/11
f 14/14/14 13/13/13 11/11/11
f 17/17/17 16/16/16 15/15/15
f 16/16/16 18/18/18 15/15/15
f 21/21/21 20/20/20 19/19/19
f 21/21/21 22/22/22 20/20/20
f 25/25/25 24/24/24 23/23/23
f 24/24/24 25/25/25 26/26/26
f 28/28/28 23/23/23 27/27/27
f 23/23/23 24/24/24 27/27/27
f 31/31/31 30/30/30 29/29/29
f 30/30/30 32/32/32 29/29/29
f 34/34/34 26/26/26 33/33/33
f 26/26/26 25/25/25 33/33/33
f 37/37/37 36/36/36 35/35/35
f 37/37/37 38/38/38 36/36/36
f 39/39/39 7/7/7 8/8/8
f 39/39/39 40/40/40 7/7/7
f 43/43/43 42/42/42 41/41/41
f 43/43/43 44/44/44 42/42/42
f 47/47/47 46/46/46 45/45/45
f 47/47/47 48/48/48 46/46/46
