g pb_Mesh-112770
v 6.374999 -3.736537E-06 0
v 5.374999 -2.855391E-06 0
v 6.375 0.7499962 0
v 5.375 0.7499971 0
v 5.374999 -2.855391E-06 0
v 5.374999 -2.855391E-06 -1
v 5.375 0.7499971 0
v 5.375 0.7499971 -1
v 5.374999 -2.855391E-06 -1
v 6.374999 -3.736537E-06 -1
v 5.375 0.7499971 -1
v 6.375 0.7499962 -1
v 6.374999 -3.736537E-06 -1
v 6.374999 -3.736537E-06 0
v 6.375 0.7499962 -1
v 6.375 0.7499962 0
v 6.375 0.7499962 0
v 5.375 0.7499971 0
v 6.375 0.7499962 -1
v 5.375 0.7499971 -1
v 6.624999 -0.250004 -1
v 5.124999 -0.2500026 -1
v 6.624999 -0.250004 0
v 5.124999 -0.2500026 0
v 6.624999 -0.250004 -1
v 5.124999 -0.2500026 -1
v 6.374999 -3.736537E-06 0
v 6.374999 -3.736537E-06 -1
v 6.624999 -0.250004 0
v 6.624999 -0.250004 -1
v 5.374999 -2.855391E-06 -1
v 5.374999 -2.855391E-06 0
v 5.124999 -0.2500026 -1
v 5.124999 -0.2500026 0
v 5.124999 -0.2500026 0
v 6.624999 -0.250004 0
vt 6.374999 -3.736537E-06
vt 5.374999 -2.855391E-06
vt 6.375 0.7499962
vt 5.375 0.7499971
vt 0 3.979274E-06
vt -1 3.979274E-06
vt 0 0.750004
vt -1 0.750004
vt -5.374999 -2.855391E-06
vt -6.374999 -3.736537E-06
vt -5.375 0.7499971
vt -6.375 0.7499962
vt 1 4.369693E-06
vt 0 4.369693E-06
vt 1 0.7500044
vt 0 0.7500044
vt -6.374999 0
vt -5.374999 0
vt -6.374999 -1
vt -5.374999 -1
vt 6.624999 -1
vt 5.124999 -1
vt 6.624999 0
vt 5.124999 0
vt -6.624999 -0.250004
vt -5.124999 -0.2500026
vt -4.507805 0
vt -4.507805 -1
vt -4.861359 0
vt -4.861359 -1
vt -3.800698 -1
vt -3.800698 0
vt -3.447145 -1
vt -3.447145 0
vt 5.124999 -0.2500026
vt 6.624999 -0.250004
vn 0 0 1
vn 0 0 1
vn 0 0 1
vn 0 0 1
vn -1 1.271566E-06 0
vn -1 1.271566E-06 0
vn -1 1.271566E-06 0
vn -1 1.271566E-06 0
vn 0 0 -1
vn 0 0 -1
vn 0 0 -1
vn 0 0 -1
vn 1 -1.271566E-06 0
vn 1 -1.271566E-06 0
vn 1 -1.271566E-06 0
vn 1 -1.271566E-06 0
vn 8.940697E-07 1 0
vn 8.940697E-07 1 0
vn 8.940697E-07 1 0
vn 8.940697E-07 1 0
vn -8.940697E-07 -1 0
vn -8.940697E-07 -1 0
vn -8.940697E-07 -1 0
vn -8.940697E-07 -1 0
vn 0 0 -1
vn 0 0 -1
vn 0.7071071 0.7071064 0
vn 0.7071071 0.7071064 0
vn 0.7071071 0.7071064 0
vn 0.7071071 0.7071064 0
vn -0.7071065 0.7071071 0
vn -0.7071065 0.7071071 0
vn -0.7071065 0.7071071 0
vn -0.7071065 0.7071071 0
vn 0 0 1
vn 0 0 1
g pb_Mesh-112770_0
g pb_Mesh-112770_1
f 3/3/3 2/2/2 1/1/1
f 3/3/3 4/4/4 2/2/2
f 7/7/7 6/6/6 5/5/5
f 7/7/7 8/8/8 6/6/6
f 11/11/11 10/10/10 9/9/9
f 11/11/11 12/12/12 10/10/10
f 15/15/15 14/14/14 13/13/13
f 15/15/15 16/16/16 14/14/14
f 19/19/19 18/18/18 17/17/17
f 19/19/19 20/20/20 18/18/18
f 23/23/23 22/22/22 21/21/21
f 23/23/23 24/24/24 22/22/22
f 25/25/25 9/9/9 10/10/10
f 25/25/25 26/26/26 9/9/9
f 29/29/29 28/28/28 27/27/27
f 29/29/29 30/30/30 28/28/28
f 33/33/33 32/32/32 31/31/31
f 33/33/33 34/34/34 32/32/32
f 35/35/35 1/1/1 2/2/2
f 35/35/35 36/36/36 1/1/1
