g pb_Mesh202212
v 85 28 30
v 87 5 30
v 87 28 30
v 85 5 30
v 110 3.5 24
v 110 0 28
v 110 6 28
v 110 0 24
v 110 0 36
v 110 6 36
v 61.5 2.5 24
v 110 0 24
v 110 3.5 24
v 61 0 24
v 4 6.000015 24
v 53.00003 1.017253E-05 24
v 53 6.000015 24
v 4 1.525879E-05 24
v 4 29 36
v 4 29 28
v 17.75 29 28
v 25.75 29 28
v 53 29 28
v 53.00005 29 36
v -79 7 24
v -79 5 24
v -30 5 24
v -30 7 24
v -79 29 24
v -79 29 28
v -79 27 28
v -79 27 32
v -79 5 24
v -79 7 24
v -79 2 28
v -79 4 28
v 110 -24 98
v 110 6 63
v 110 -24 70
v 110 6 98
v 4 17 24
v 53 17 24
v 53.00005 6 26
v 53 17 26
v 53 6.000015 24
v 53 17 24
v 53.00003 1.017253E-05 24
v 53.00015 0 26
v 53.0001 17 36
v 53 29 28
v 53 17 28
v 53.00005 29 36
v 53.0001 6 28
v 53.0001 17 36
v 53 17 28
v 53.0002 6 36
v 53.00005 6 26
v 53 17 28
v 53 17 26
v 53.0001 6 28
v 53.0002 0 28
v 53.0002 6 36
v 53.0001 6 28
v 53.0003 0 36
v 53.00015 0 26
v 53.0001 6 28
v 53.00005 6 26
v 53.0002 0 28
v -26 29.0001 24
v -30 29 28
v -30 29 24
v -26 29.0001 28
v -79 26.75 24
v -79 29 24
v -50.25 27 24
v -50.25 29 24
v -79 26.75 24
v -42.25 27 24
v -30 26.75 24
v -42.25 29 24
v -30 29 24
v -79 29 24
v -50.25 29 24
v -50.25 29 26
v -79 29 28
v -54.5 29 28
v -42.25 29 26
v -42.25 29 28
v -42.25 29 24
v -30 29 24
v -30 29 28
v 84 28 24
v 61.5 29 24
v 84 5 24
v 88 5 24
v 87 5 30
v 87 5 24.5
v 87 28 24.5
v 87 28 30
v 85 28 24.5
v 85 5 30
v 85 28 30
v 85 5 24.5
v 87 28 30
v 85 28 24.5
v 85 28 30
v 87 28 24.5
v 85 28 24
v 87 28 24
v 85 5 24
v 87 5 24
v 87 5 24.5
v 85 5 24.5
v 87 5 30
v 85 5 30
v 88 5 24.5
v 88 5 24
v 88 28 24.5
v 87 5 24.5
v 88 5 24.5
v 87 28 24.5
v 84 5 24
v 84 5 24.5
v 85 28 24.5
v 84 5 24.5
v 85 5 24.5
v 84 28 24.5
v 84 28 24.5
v 84 5 24
v 84 5 24.5
v 84 28 24
v 25.75 27 26
v 53 17 26
v 53 27.5 26
v 28.5 17 26
v 25.75 29 26
v 53 29 26
v 53 29 28
v 53 29 26
v 53 27.5 26
v 53 17 28
v 53 17 26
v 4 29 26
v 17.75 27 26
v 17.75 29 26
v 4 23 26
v 16.25 17 26
v 4 17 26
v 4 17 26
v 4 17 24
v 16.25 17 26
v 28.5 17 26
v 53 17 24
v 53 17 26
v 25.75 29 26
v 53 29 26
v 4 29 26
v 17.75 29 26
v 110 25 24
v 110 25 28
v 110 27 30.125
v 110 29 30.125
v 110 29 28
v 88 5 24.5
v 88 5 24
v 88 16.5 24
v 88 28 24.5
v 88 28 24
v 106 29 24
v 88 28 24
v 106 25 24
v 88 16.5 24
v 110 25 24
v 61 28.5 24
v 61 2.5 24
v 110 6 44.5
v 110 -24 36
v 110 6 53
v 110 29 50.75
v 110 27 38.125
v 110 27 50.75
v 110 29 38.125
v 110 26.25 51.875
v 110 29 54
v 110 27 54
v 110 27 63
v 110.0001 29 62
v 110 27 63
v 110 29 63
v 110.0001 27 62
v 110 71.75 63
v 110 29 76.5
v 110 71.75 76.5
v 110 29 63
v 110 29 98
v 110 55.5 98
vt -85 28
vt -87 5
vt -87 28
vt -85 5
vt -24 3.5
vt -28 0
vt -28 6
vt -24 0
vt -36 0
vt -36 6
vt -61.5 2.5
vt -110 0
vt -110 3.5
vt -61 0
vt -4 6.000015
vt -53.00003 1.017253E-05
vt -53 6.000015
vt -4 1.525879E-05
vt -4 36
vt -4 28
vt -17.75 28
vt -25.75 28
vt -53 28
vt -53.00005 36
vt 79 7
vt 79 5
vt 30 5
vt 30 7
vt 24 29
vt 28 29
vt 28 27
vt 32 27
vt 24 5
vt 24 7
vt 28 2
vt 28 4
vt -98 -24
vt -63 6
vt -70 -24
vt -98 6
vt -4 17
vt -53 17
vt -26.00131 5.999761
vt -26.00131 16.99976
vt -24.00131 5.999776
vt -24.00131 16.99976
vt -24.00131 -0.0002593963
vt -26.00131 -0.0002695692
vt -36.00066 17
vt -28.00066 29
vt -28.00066 17
vt -36.00066 29
vt -28.00066 5.999522
vt -36.00066 16.99952
vt -28.00066 16.99952
vt -36.00066 5.999522
vt -26 5.999761
vt -28 16.99976
vt -26 16.99976
vt -28 5.999761
vt -28.00066 -0.0008761064
vt -36.00066 5.999124
vt -28.00066 5.999124
vt -36.00066 -0.0008761064
vt -26.00131 -0.0008761006
vt -28.00131 5.999124
vt -26.00131 5.999124
vt -28.00131 -0.0008761006
vt 25.99928 24
vt 29.99928 28
vt 29.99928 24
vt 25.99928 28
vt 24 26.75
vt 79 29
vt 50.25 27
vt 50.25 29
vt 79 26.75
vt 42.25 27
vt 30 26.75
vt 42.25 29
vt 30 29
vt 79 24
vt 50.25 24
vt 50.25 26
vt 79 28
vt 54.5 28
vt 42.25 26
vt 42.25 28
vt 42.25 24
vt 30 24
vt 30 28
vt -84 28
vt -61.5 29
vt -84 5
vt -88 5
vt 30 5
vt 24.5 5
vt 24.5 28
vt 30 28
vt -24.5 28
vt -30 5
vt -30 28
vt -24.5 5
vt 87 30
vt 85 24.5
vt 85 30
vt 87 24.5
vt 85 24
vt 87 24
vt -85 24
vt -87 24
vt -87 24.5
vt -85 24.5
vt -87 30
vt -85 30
vt -88 24.5
vt -88 24
vt -88 28
vt -87 5
vt -88 5
vt -87 28
vt -84 24
vt -84 24.5
vt -85 28
vt -84 5
vt -85 5
vt -84 28
vt -24.5 28
vt -24 5
vt -24.5 5
vt -24 28
vt -25.75 27
vt -53 17
vt -53 27.5
vt -28.5 17
vt -25.75 29
vt -53 29
vt -28 29
vt -26 29
vt -26 27.5
vt -28 17
vt -26 17
vt -4 29
vt -17.75 27
vt -17.75 29
vt -4 23
vt -16.25 17
vt -4 17
vt -4 26
vt -4 24
vt -16.25 26
vt -28.5 26
vt -53 24
vt -53 26
vt -25.75 26
vt -53 26
vt -4 26
vt -17.75 26
vt -24 25
vt -28 25
vt -30.125 27
vt -30.125 29
vt -28 29
vt 24.5 5
vt 24 5
vt 24 16.5
vt 24.5 28
vt 24 28
vt -106 29
vt -88 28
vt -106 25
vt -88 16.5
vt -110 25
vt -61 28.5
vt -61 2.5
vt -44.5 6
vt -36 -24
vt -53 6
vt -50.75 29
vt -38.125 27
vt -50.75 27
vt -38.125 29
vt -51.875 26.25
vt -54 29
vt -54 27
vt -63 27
vt -61.98909 29
vt -62.98909 27
vt -62.98909 29
vt -61.98909 27
vt -63 71.75
vt -76.5 29
vt -76.5 71.75
vt -63 29
vt -98 29
vt -98 55.5
vn 0 0 -1
vn 0 0 -1
vn 0 0 -1
vn 0 0 -1
vn 1 0 0
vn 1 0 0
vn 1 0 0
vn 1 0 0
vn 1 0 0
vn 1 0 0
vn 0 0 -1
vn 0 0 -1
vn 0 0 -1
vn 0 0 -1
vn 0 0 -1
vn 0 0 -1
vn 0 0 -1
vn 0 0 -1
vn 0 1 0
vn 0 1 0
vn 0 1 0
vn 0 1 0
vn 0 1 0
vn 0 1 0
vn 0 0 -1
vn 0 0 -1
vn 0 0 -1
vn 0 0 -1
vn -1 0 0
vn -1 0 0
vn -1 0 0
vn -1 0 0
vn -1 0 0
vn -1 0 0
vn -1 0 0
vn -1 0 0
vn 1 0 0
vn 1 0 0
vn 1 0 0
vn 1 0 0
vn 0 0 -1
vn 0 0 -1
vn 1 4.508278E-06 -2.47955E-05
vn 1 2.254139E-06 -1.239775E-05
vn 1 2.254139E-06 -1.239775E-05
vn 1 0 0
vn 1 1.080831E-05 -4.196161E-05
vn 1 1.653036E-05 -5.912772E-05
vn 1 2.066294E-06 -9.298325E-06
vn 1 2.066294E-06 -9.298325E-06
vn 1 0 -1.239777E-05
vn 1 4.132589E-06 -6.198883E-06
vn 1 9.016557E-06 -1.239777E-05
vn 1 9.016557E-06 -1.239777E-05
vn 1 9.016557E-06 -1.239777E-05
vn 1 9.016557E-06 -1.239777E-05
vn 1 6.762418E-06 -1.239777E-05
vn 1 6.762418E-06 -1.239777E-05
vn 1 4.508278E-06 0
vn 1 9.016557E-06 -2.479553E-05
vn 1 1.653036E-05 -1.239777E-05
vn 1 1.653036E-05 -1.239777E-05
vn 1 1.653036E-05 -1.239777E-05
vn 1 1.653036E-05 -1.239777E-05
vn 1 1.653036E-05 -2.479553E-05
vn 1 1.653036E-05 -2.479553E-05
vn 1 1.653036E-05 -2.479553E-05
vn 1 1.653036E-05 -2.479553E-05
vn -2.479553E-05 1 0
vn -2.479553E-05 1 0
vn -2.479553E-05 1 0
vn -2.479553E-05 1 0
vn -1 0 0
vn 0 0 -1
vn 0 0 -1
vn 0 0 -1
vn 0 0 -1
vn 0 0 -1
vn 0 0 -1
vn 0 0 -1
vn 0 0 -1
vn 0 1 0
vn 0 1 0
vn 0 1 0
vn 0 1 0
vn 0 1 0
vn 0 1 0
vn 0 1 0
vn 0 1 0
vn 0 1 0
vn 0 1 0
vn 0 0 -1
vn 0 0 -1
vn 0 0 -1
vn 0 0 -1
vn -1 0 0
vn -1 0 0
vn -1 0 0
vn -1 0 0
vn 1 0 0
vn 1 0 0
vn 1 0 0
vn 1 0 0
vn 0 -1 0
vn 0 -1 0
vn 0 -1 0
vn 0 -1 0
vn 0 -1 0
vn 0 -1 0
vn 0 1 0
vn 0 1 0
vn 0 1 0
vn 0 1 0
vn 0 1 0
vn 0 1 0
vn 0 1 0
vn 0 1 0
vn 0 0 -1
vn 0 0 -1
vn 0 0 -1
vn 0 0 -1
vn 0 1 0
vn 0 1 0
vn 0 0 -1
vn 0 0 -1
vn 0 0 -1
vn 0 0 -1
vn 1 0 0
vn 1 0 0
vn 1 0 0
vn 1 0 0
vn 0 0 -1
vn 0 0 -1
vn 0 0 -1
vn 0 0 -1
vn 0 0 -1
vn 0 0 -1
vn 1 0 0
vn 1 0 0
vn 1 0 0
vn 1 0 0
vn 1 0 0
vn 0 0 -1
vn 0 0 -1
vn 0 0 -1
vn 0 0 -1
vn 0 0 -1
vn 0 0 -1
vn 0 1 0
vn 0 1 0
vn 0 1 0
vn 0 1 0
vn 0 1 0
vn 0 1 0
vn 0 1 0
vn 0 1 0
vn 0 1 0
vn 0 1 0
vn 1 0 0
vn 1 0 0
vn 1 0 0
vn 1 0 0
vn 1 0 0
vn -1 0 0
vn -1 0 0
vn -1 0 0
vn -1 0 0
vn -1 0 0
vn 0 0 -1
vn 0 0 -1
vn 0 0 -1
vn 0 0 -1
vn 0 0 -1
vn 0 0 -1
vn 0 0 -1
vn 1 0 0
vn 1 0 0
vn 1 0 0
vn 1 0 0
vn 1 0 0
vn 1 0 0
vn 1 0 0
vn 1 0 0
vn 1 0 0
vn 1 0 0
vn 1 0 0
vn 1 0 9.918213E-05
vn 1 0 9.918213E-05
vn 1 0 9.918213E-05
vn 1 0 9.918213E-05
vn 1 0 0
vn 1 0 0
vn 1 0 0
vn 1 0 0
vn 1 0 0
vn 1 0 0
g pb_Mesh202212_0
f 3/3/3 2/2/2 1/1/1
f 2/2/2 4/4/4 1/1/1
g pb_Mesh202212_1
g pb_Mesh202212_2
g pb_Mesh202212_3
f 7/7/7 6/6/6 5/5/5
f 6/6/6 8/8/8 5/5/5
f 10/10/10 9/9/9 7/7/7
f 9/9/9 6/6/6 7/7/7
f 13/13/13 12/12/12 11/11/11
f 12/12/12 14/14/14 11/11/11
f 17/17/17 16/16/16 15/15/15
f 16/16/16 18/18/18 15/15/15
f 21/21/21 20/20/20 19/19/19
f 22/22/22 21/21/21 19/19/19
f 24/24/24 23/23/23 22/22/22
f 19/19/19 24/24/24 22/22/22
f 27/27/27 26/26/26 25/25/25
f 28/28/28 27/27/27 25/25/25
f 31/31/31 30/30/30 29/29/29
f 31/31/31 32/32/32 30/30/30
f 35/35/35 34/34/34 33/33/33
f 35/35/35 36/36/36 34/34/34
f 39/39/39 38/38/38 37/37/37
f 38/38/38 40/40/40 37/37/37
f 42/42/42 17/17/17 41/41/41
f 17/17/17 15/15/15 41/41/41
f 45/45/45 44/44/44 43/43/43
f 45/45/45 46/46/46 44/44/44
f 45/45/45 43/43/43 47/47/47
f 43/43/43 48/48/48 47/47/47
f 51/51/51 50/50/50 49/49/49
f 50/50/50 52/52/52 49/49/49
f 55/55/55 54/54/54 53/53/53
f 54/54/54 56/56/56 53/53/53
f 59/59/59 58/58/58 57/57/57
f 58/58/58 60/60/60 57/57/57
f 63/63/63 62/62/62 61/61/61
f 62/62/62 64/64/64 61/61/61
f 67/67/67 66/66/66 65/65/65
f 66/66/66 68/68/68 65/65/65
f 71/71/71 70/70/70 69/69/69
f 70/70/70 72/72/72 69/69/69
f 73/73/73 34/34/34 36/36/36
f 73/73/73 36/36/36 31/31/31
f 29/29/29 73/73/73 31/31/31
f 76/76/76 75/75/75 74/74/74
f 75/75/75 77/77/77 74/74/74
f 25/25/25 77/77/77 75/75/75
f 25/25/25 75/75/75 28/28/28
f 28/28/28 75/75/75 78/78/78
f 79/79/79 28/28/28 78/78/78
f 81/81/81 79/79/79 80/80/80
f 79/79/79 78/78/78 80/80/80
f 84/84/84 83/83/83 82/82/82
f 85/85/85 84/84/84 82/82/82
f 85/85/85 86/86/86 84/84/84
f 88/88/88 87/87/87 84/84/84
f 88/88/88 84/84/84 86/86/86
f 90/90/90 89/89/89 87/87/87
f 91/91/91 90/90/90 87/87/87
f 91/91/91 87/87/87 88/88/88
f 94/94/94 93/93/93 92/92/92
f 94/94/94 11/11/11 93/93/93
f 13/13/13 11/11/11 94/94/94
f 13/13/13 94/94/94 95/95/95
f 98/98/98 97/97/97 96/96/96
f 98/98/98 96/96/96 99/99/99
f 102/102/102 101/101/101 100/100/100
f 101/101/101 103/103/103 100/100/100
f 106/106/106 105/105/105 104/104/104
f 105/105/105 107/107/107 104/104/104
f 105/105/105 108/108/108 107/107/107
f 108/108/108 109/109/109 107/107/107
f 112/112/112 111/111/111 110/110/110
f 112/112/112 110/110/110 113/113/113
f 114/114/114 112/112/112 113/113/113
f 114/114/114 113/113/113 115/115/115
f 117/117/117 111/111/111 116/116/116
f 111/111/111 112/112/112 116/116/116
f 120/120/120 119/119/119 118/118/118
f 119/119/119 121/121/121 118/118/118
f 110/110/110 122/122/122 113/113/113
f 122/122/122 123/123/123 113/113/113
f 126/126/126 125/125/125 124/124/124
f 125/125/125 127/127/127 124/124/124
f 130/130/130 129/129/129 128/128/128
f 129/129/129 131/131/131 128/128/128
f 134/134/134 133/133/133 132/132/132
f 133/133/133 135/135/135 132/132/132
f 137/137/137 134/134/134 136/136/136
f 134/134/134 132/132/132 136/136/136
f 140/140/140 139/139/139 138/138/138
f 141/141/141 140/140/140 138/138/138
f 141/141/141 142/142/142 140/140/140
f 145/145/145 144/144/144 143/143/143
f 144/144/144 146/146/146 143/143/143
f 132/132/132 135/135/135 144/144/144
f 135/135/135 147/147/147 144/144/144
f 144/144/144 147/147/147 146/146/146
f 147/147/147 148/148/148 146/146/146
f 151/151/151 150/150/150 149/149/149
f 151/151/151 152/152/152 150/150/150
f 150/150/150 152/152/152 153/153/153
f 152/152/152 154/154/154 153/153/153
f 23/23/23 156/156/156 155/155/155
f 23/23/23 155/155/155 22/22/22
f 21/21/21 158/158/158 157/157/157
f 21/21/21 157/157/157 20/20/20
f 160/160/160 7/7/7 159/159/159
f 7/7/7 5/5/5 159/159/159
f 161/161/161 10/10/10 7/7/7
f 161/161/161 7/7/7 160/160/160
f 162/162/162 161/161/161 160/160/160
f 162/162/162 160/160/160 163/163/163
f 166/166/166 165/165/165 164/164/164
f 167/167/167 166/166/166 164/164/164
f 167/167/167 168/168/168 166/166/166
f 169/169/169 92/92/92 93/93/93
f 170/170/170 92/92/92 169/169/169
f 169/169/169 171/171/171 170/170/170
f 171/171/171 172/172/172 170/170/170
f 171/171/171 95/95/95 172/172/172
f 13/13/13 95/95/95 171/171/171
f 13/13/13 171/171/171 173/173/173
f 93/93/93 11/11/11 174/174/174
f 11/11/11 175/175/175 174/174/174
f 177/177/177 10/10/10 176/176/176
f 176/176/176 178/178/178 177/177/177
f 177/177/177 178/178/178 39/39/39
f 38/38/38 39/39/39 178/178/178
f 181/181/181 180/180/180 179/179/179
f 180/180/180 182/182/182 179/179/179
f 176/176/176 161/161/161 180/180/180
f 176/176/176 10/10/10 161/161/161
f 183/183/183 180/180/180 181/181/181
f 183/183/183 176/176/176 180/180/180
f 178/178/178 176/176/176 183/183/183
f 184/184/184 183/183/183 179/179/179
f 185/185/185 183/183/183 184/184/184
f 183/183/183 181/181/181 179/179/179
f 185/185/185 178/178/178 183/183/183
f 38/38/38 178/178/178 185/185/185
f 186/186/186 38/38/38 185/185/185
f 189/189/189 188/188/188 187/187/187
f 188/188/188 190/190/190 187/187/187
f 193/193/193 192/192/192 191/191/191
f 192/192/192 194/194/194 191/191/191
f 196/196/196 195/195/195 193/193/193
f 195/195/195 192/192/192 193/193/193
f 186/186/186 194/194/194 192/192/192
f 38/38/38 186/186/186 192/192/192
f 192/192/192 40/40/40 38/38/38
f 195/195/195 40/40/40 192/192/192
