g pb_Mesh92332
v 0 0 0
v 4 0 0
v 0 0.1666667 0
v 4 0.1666667 0
v 0 0.1666667 0
v 4 0.1666667 0
v 0 0.1666667 0.3333333
v 4 0.1666667 0.3333333
v 0 0.1666667 0.3333333
v 4 0.1666667 0.3333333
v 0 0.3333333 0.3333333
v 4 0.3333333 0.3333333
v 0 0.3333333 0.3333333
v 4 0.3333333 0.3333333
v 0 0.3333333 0.6666667
v 4 0.3333333 0.6666667
v 0 0.3333333 0.6666667
v 4 0.3333333 0.6666667
v 0 0.5 0.6666667
v 4 0.5 0.6666667
v 0 0.5 0.6666667
v 4 0.5 0.6666667
v 0 0.5 1
v 4 0.5 1
v 0 0.5 1
v 4 0.5 1
v 0 0.6666667 1
v 4 0.6666667 1
v 0 0.6666667 1
v 4 0.6666667 1
v 0 0.6666667 1.333333
v 4 0.6666667 1.333333
v 0 0.6666667 1.333333
v 4 0.6666667 1.333333
v 0 0.8333333 1.333333
v 4 0.8333333 1.333333
v 0 0.8333333 1.333333
v 4 0.8333333 1.333333
v 0 0.8333333 1.666667
v 4 0.8333333 1.666667
v 0 0.8333333 1.666667
v 4 0.8333333 1.666667
v 0 1 1.666667
v 4 1 1.666667
v 0 1 1.666667
v 4 1 1.666667
v 0 1 2
v 4 1 2
v 4 0 0
v 4 0 0.3333333
v 4 0.1666667 0
v 4 0.1666667 0.3333333
v 4 0 0.6666667
v 4 0.3333333 0.6666667
v 4 0.3333333 0.3333333
v 4 0 1
v 4 0.5 1
v 4 0.5 0.6666667
v 4 0 1.333333
v 4 0.6666667 1.333333
v 4 0.6666667 1
v 4 0 1.666667
v 4 0.8333333 1.666667
v 4 0.8333333 1.333333
v 4 0 2
v 4 1 2
v 4 1 1.666667
v 0 0.1666667 0
v 0 0 0.3333333
v 0 0 0
v 0 0.1666667 0.3333333
v 0 0 0.6666667
v 0 0.3333333 0.6666667
v 0 0.3333333 0.3333333
v 0 0 1
v 0 0.5 1
v 0 0.5 0.6666667
v 0 0 1.333333
v 0 0.6666667 1.333333
v 0 0.6666667 1
v 0 0 1.666667
v 0 0.8333333 1.666667
v 0 0.8333333 1.333333
v 0 0 2
v 0 1 2
v 0 1 1.666667
v 4 0 2
v 0 0 2
v 4 1 2
v 0 1 2
vt -6.000001 0
vt -10 0
vt -6.000001 0.1666667
vt -10 0.1666667
vt 6 2
vt 10 2.000002
vt 6 1.666667
vt 10 1.666669
vt -6.000001 0.1666667
vt -10 0.1666667
vt -6.000001 0.3333333
vt -10 0.3333333
vt 6 1.666667
vt 10 1.666669
vt 6 1.333333
vt 10 1.333336
vt -6.000001 0.3333333
vt -10 0.3333333
vt -6.000001 0.5
vt -10 0.5
vt 6 1.333333
vt 10 1.333336
vt 6 1
vt 10 1.000002
vt -6.000001 0.5
vt -10 0.5
vt -6.000001 0.6666667
vt -10 0.6666667
vt 6 1
vt 10 1.000002
vt 6.000001 0.6666666
vt 10 0.6666689
vt -6.000001 0.6666667
vt -10 0.6666667
vt -6.000001 0.8333333
vt -10 0.8333333
vt 6.000001 0.6666666
vt 10 0.6666689
vt 6.000001 0.3333334
vt 10 0.3333356
vt -6.000001 0.8333333
vt -10 0.8333333
vt -6.000001 1
vt -10 1
vt 6.000001 0.3333334
vt 10 0.3333356
vt 6.000001 0
vt 10 2.145767E-06
vt 1.999997 0
vt 1.666663 0
vt 1.999997 0.1666667
vt 1.666663 0.1666667
vt 1.33333 0
vt 1.33333 0.3333333
vt 1.666663 0.3333333
vt 0.9999966 0
vt 0.9999966 0.5
vt 1.33333 0.5
vt 0.6666632 0
vt 0.6666632 0.6666667
vt 0.9999966 0.6666667
vt 0.33333 0
vt 0.33333 0.8333333
vt 0.6666632 0.8333333
vt -3.516674E-06 0
vt -3.516674E-06 1
vt 0.33333 1
vt -1.999997 0.1666667
vt -1.666663 0
vt -1.999997 0
vt -1.666663 0.1666667
vt -1.33333 0
vt -1.33333 0.3333333
vt -1.666663 0.3333333
vt -0.9999966 0
vt -0.9999966 0.5
vt -1.33333 0.5
vt -0.6666632 0
vt -0.6666632 0.6666667
vt -0.9999966 0.6666667
vt -0.33333 0
vt -0.33333 0.8333333
vt -0.6666632 0.8333333
vt 3.397465E-06 0
vt 3.397465E-06 1
vt -0.33333 1
vt 10 0
vt 6.000001 0
vt 10 1
vt 6.000001 1
vn 0 0 -1
vn 0 0 -1
vn 0 0 -1
vn 0 0 -1
vn 0 1 0
vn 0 1 0
vn 0 1 0
vn 0 1 0
vn 0 0 -1
vn 0 0 -1
vn 0 0 -1
vn 0 0 -1
vn 0 1 0
vn 0 1 0
vn 0 1 0
vn 0 1 0
vn 0 0 -1
vn 0 0 -1
vn 0 0 -1
vn 0 0 -1
vn 0 1 0
vn 0 1 0
vn 0 1 0
vn 0 1 0
vn 0 0 -1
vn 0 0 -1
vn 0 0 -1
vn 0 0 -1
vn 0 1 0
vn 0 1 0
vn 0 1 0
vn 0 1 0
vn 0 0 -1
vn 0 0 -1
vn 0 0 -1
vn 0 0 -1
vn 0 1 0
vn 0 1 0
vn 0 1 0
vn 0 1 0
vn 0 0 -1
vn 0 0 -1
vn 0 0 -1
vn 0 0 -1
vn 0 1 0
vn 0 1 0
vn 0 1 0
vn 0 1 0
vn 1 0 0
vn 1 0 0
vn 1 0 0
vn 1 0 0
vn 1 0 0
vn 1 0 0
vn 1 0 0
vn 1 0 0
vn 1 0 0
vn 1 0 0
vn 1 0 0
vn 1 0 0
vn 1 0 0
vn 1 0 0
vn 1 0 0
vn 1 0 0
vn 1 0 0
vn 1 0 0
vn 1 0 0
vn -1 0 0
vn -1 0 0
vn -1 0 0
vn -1 0 0
vn -1 0 0
vn -1 0 0
vn -1 0 0
vn -1 0 0
vn -1 0 0
vn -1 0 0
vn -1 0 0
vn -1 0 0
vn -1 0 0
vn -1 0 0
vn -1 0 0
vn -1 0 0
vn -1 0 0
vn -1 0 0
vn -1 0 0
vn 0 0 1
vn 0 0 1
vn 0 0 1
vn 0 0 1
g pb_Mesh92332_0
f 3/3/3 2/2/2 1/1/1
f 3/3/3 4/4/4 2/2/2
f 7/7/7 6/6/6 5/5/5
f 7/7/7 8/8/8 6/6/6
f 11/11/11 10/10/10 9/9/9
f 11/11/11 12/12/12 10/10/10
f 15/15/15 14/14/14 13/13/13
f 15/15/15 16/16/16 14/14/14
f 19/19/19 18/18/18 17/17/17
f 19/19/19 20/20/20 18/18/18
f 23/23/23 22/22/22 21/21/21
f 23/23/23 24/24/24 22/22/22
f 27/27/27 26/26/26 25/25/25
f 27/27/27 28/28/28 26/26/26
f 31/31/31 30/30/30 29/29/29
f 31/31/31 32/32/32 30/30/30
f 35/35/35 34/34/34 33/33/33
f 35/35/35 36/36/36 34/34/34
f 39/39/39 38/38/38 37/37/37
f 39/39/39 40/40/40 38/38/38
f 43/43/43 42/42/42 41/41/41
f 43/43/43 44/44/44 42/42/42
f 47/47/47 46/46/46 45/45/45
f 47/47/47 48/48/48 46/46/46
f 51/51/51 50/50/50 49/49/49
f 51/51/51 52/52/52 50/50/50
f 52/52/52 53/53/53 50/50/50
f 52/52/52 54/54/54 53/53/53
f 52/52/52 55/55/55 54/54/54
f 54/54/54 56/56/56 53/53/53
f 54/54/54 57/57/57 56/56/56
f 54/54/54 58/58/58 57/57/57
f 57/57/57 59/59/59 56/56/56
f 57/57/57 60/60/60 59/59/59
f 57/57/57 61/61/61 60/60/60
f 60/60/60 62/62/62 59/59/59
f 60/60/60 63/63/63 62/62/62
f 60/60/60 64/64/64 63/63/63
f 63/63/63 65/65/65 62/62/62
f 63/63/63 66/66/66 65/65/65
f 63/63/63 67/67/67 66/66/66
f 70/70/70 69/69/69 68/68/68
f 69/69/69 71/71/71 68/68/68
f 69/69/69 72/72/72 71/71/71
f 72/72/72 73/73/73 71/71/71
f 73/73/73 74/74/74 71/71/71
f 72/72/72 75/75/75 73/73/73
f 75/75/75 76/76/76 73/73/73
f 76/76/76 77/77/77 73/73/73
f 75/75/75 78/78/78 76/76/76
f 78/78/78 79/79/79 76/76/76
f 79/79/79 80/80/80 76/76/76
f 78/78/78 81/81/81 79/79/79
f 81/81/81 82/82/82 79/79/79
f 82/82/82 83/83/83 79/79/79
f 81/81/81 84/84/84 82/82/82
f 84/84/84 85/85/85 82/82/82
f 85/85/85 86/86/86 82/82/82
g pb_Mesh92332_1
f 89/89/89 88/88/88 87/87/87
f 89/89/89 90/90/90 88/88/88
