g pb_Mesh569756
v -8 16 -8
v -16 16 -8
v -8 16 -16
v -16 16 -16
v -24 16 -16
v -24 16 -8
v -26 24 -14
v -26 24 -8
v -32 24 -14
v -32 24 -8
v -32 16 -16
v -24 16 -24
v -32 16 -24
v -16 16 -24
v -8 16 -24
v -24 16 -32
v -32 16 -32
v -24 16 -40
v -32 16 -40
v -16 16 -32
v -16 16 -40
v -8 16 -32
v -8 16 -40
v -34.5 24 -40
v -34.5 24 -32
v -40 24 -40
v -40 24 -32
v -32 16 -40
v -32 16 -32
v -32 20 -40
v -32 20 -32
v -40 16 -40
v -32 16 -40
v -40 20 -40
v -32 20 -40
v -32 16 -32
v -40 16 -32
v -32 20 -32
v -40 20 -32
v -40 16 -32
v -40 16 -40
v -40 20 -32
v -40 20 -40
v -24 16 -16
v -24 16 -8
v -24 20 -16
v -24 20 -8
v -32 16 -16
v -24 16 -16
v -32 20 -16
v -24 20 -16
v -24 16 -8
v -32 16 -8
v -24 20 -8
v -32 20 -8
v -32 16 -8
v -32 16 -16
v -32 20 -8
v -32 20 -16
v -32 20 -40
v -32 20 -32
v -34.5 24 -40
v -34.5 24 -32
v -40 24 -40
v -34.5 24 -40
v -34.5 24 -32
v -40 24 -32
v -40 24 -32
v -40 24 -40
v -24 20 -16
v -24 20 -8
v -26 24 -14
v -26 24 -8
v -32 20 -16
v -24 20 -16
v -32 24 -14
v -26 24 -14
v -26 24 -8
v -32 24 -8
v -32 24 -8
v -32 24 -14
v -8 12 0
v -16 12 0
v -16 16 0
v -8 16 0
v -16 16 -40
v -8 12 -40
v -8 16 -40
v -16 12 -40
v -32 12 -8
v -32 12 -16
v -8 16 -16
v -8 12 -8
v -8 16 -8
v -8 12 -16
v -16 12 -8
v -24 12 -8
v -16 16 -8
v -24 16 -40
v -24 12 -40
v -32 12 -8
v -32 12 -40
v -32 12 -24
v -32 16 -24
v -8 16 -24
v -8 12 -24
v -40 12 -32
v -40 12 -40
v -8 16 -40
v -8 12 -32
v -8 16 -32
v -8 12 -40
v -32 12 -32
v -40 12 -32
v -40 12 -40
v -8 12 -8
v -16 12 -8
v -8 12 -4
v -16 12 -4
v -16 12 -8
v -16 16 -8
v -16 12 -4
v -16 16 -4
v -8 16 -4
v -8 12 -4
v -16 16 -4
v -8 16 -4
v -16 12 0
v -16 16 0
v -8 16 0
v -8 12 0
v -16 16 0
v -8 16 0
v -8 12 -4
v -16 12 -4
v -8 8 -4
v -16 8 -4
v -8 8 0
v -8 8 -4
v -16 8 -4
v -16 8 0
v -16 8 0
v -8 8 0
v -8 8 -8
v -16 8 -8
v -8 12 -8
v -16 8 -40
v -8 0 -40
v -8 8 -40
v -16 0 -40
v -32 0 -8
v -32 0 -16
v -32 8 -16
v -32 8 -8
v -6 8 -16
v -6 0 -8
v -6 8 -8
v -6 0 -16
v -8 8 -8
v -8 8 -16
v -24 8 -8
v -24 8 -40
v -24 0 -40
v -24 0 -8
v -32 0 -8
v -32 8 -8
v -32 8 -40
v -32 0 -40
v -32 0 -24
v -32 8 -24
v -6 8 -24
v -6 0 -24
v -8 8 -24
v -40 8 -32
v -40 8 -40
v -8 8 -40
v -8 0 -32
v -8 8 -32
v -8 0 -40
v -32 8 -32
v -40 8 -32
v -40 8 -40
v -8 0 0
v -8 0 -4
v -16 0 -4
v -16 0 0
v -16 0 0
v -8 0 0
v -8 8 -4
v -16 8 -4
v -8 8 -8
v -16 8 -8
v -6 0 -4
v -6 8 -4
v -24 8 -4
v -24 0 -4
v -24 8 -8
v -24 0 -8
v -16 8 -4
v -16 0 -4
v -24 8 -4
v -24 0 -4
v -16 8 -8
v -16 8 -4
v -24 8 -8
v -24 8 -4
v -32 16 -28
v -24 16 -28
v -16 16 -28
v -8 16 -28
v -32 12 -28
v -32 16 -28
v -32 12 -32
v -32 16 -32
v -8 16 -28
v -8 12 -28
v -32 0 -28
v -32 8 -28
v -41.5 0 -30.5
v -42 0 -32
v -42 8 -32
v -41.5 8 -30.5
v -6 8 -28
v -6 0 -28
v -6 8 -32
v -6 0 -32
v -8 8 -28
v -8 8 -24
v -8 8 -28
v -6 8 -24
v -6 8 -28
v -8 8 -32
v -6 8 -32
v -8 8 -16
v -6 8 -16
v -8 8 -32
v -8 0 -32
v -6 8 -32
v -6 0 -32
v -8 8 -8
v -6 8 -8
v -8 0 -4
v -8 8 -4
v -6 0 -4
v -6 8 -4
v -8 8 -4
v -6 8 -4
v -8 8 -28
v -8 12 -28
v -32 8 -28
v -32 12 -28
v -8 12 -28
v -8 12 -32
v -32 12 -28
v -32 12 -32
v -8 12 -32
v -8 8 -32
v -32 8 -32
v -32 8 -28
v -32 8 -28
v -32 0 -28
v -40 8 -30
v -40 0 -30
v -40 8 -32
v -40 8 -30
v -40 0 -42
v -40 8 -42
v -41.5 0 -41.5
v -41.5 8 -41.5
v -40 8 -30
v -40 0 -30
v -41.5 8 -30.5
v -41.5 0 -30.5
v -42 8 -32
v -41.5 8 -30.5
v -40 8 -40
v -42 8 -40
v -42 8 -32
v -42 0 -32
v -42 8 -40
v -42 0 -40
v -32 0 -40
v -32 8 -40
v -32 0 -42
v -32 8 -42
v -40 8 -42
v -41.5 8 -41.5
v -42 8 -40
v -42 0 -40
v -41.5 8 -41.5
v -41.5 0 -41.5
v -32 8 -40
v -32 8 -42
v -40 8 -42
v -40 0 -42
v -32 8 -42
v -32 0 -42
v -16 -55.5 -40
v -8 -55.5 -40
v -32 -55.5 -8
v -32 -55.5 -16
v -6 -55.5 -16
v -6 -55.5 -8
v -24 -55.5 -40
v -24 -55.5 -8
v -32 -55.5 -8
v -32 -55.5 -40
v -32 -55.5 -24
v -6 -55.5 -24
v -8 -55.5 -40
v -8 -55.5 -32
v -8 -55.5 -4
v -8 -55.5 0
v -16 -55.5 0
v -16 -55.5 -4
v -8 -55.5 0
v -16 -55.5 0
v -6 -55.5 -4
v -24 -55.5 -4
v -24 -55.5 -8
v -16 -55.5 -4
v -24 -55.5 -4
v -32 -55.5 -28
v -42 -55.5 -30
v -42 0 -32
v -41.5 0 -30.5
v -42 -55.5 -32
v -6 -55.5 -28
v -6 -55.5 -32
v -8 -55.5 -32
v -6 -55.5 -32
v -6 -55.5 -4
v -8 -55.5 -4
v -32 -55.5 -28
v -40 -55.5 -30
v -42 -55.5 -42
v -40 0 -42
v -41.5 0 -41.5
v -40 -55.5 -42
v -40 -55.5 -30
v -41.5 0 -30.5
v -42 -55.5 -30
v -42 -55.5 -32
v -42 -55.5 -40
v -32 -55.5 -42
v -32 -55.5 -40
v -42 -55.5 -40
v -41.5 0 -41.5
v -42 -55.5 -42
v -40 -55.5 -42
v -32 -55.5 -42
vt 8 -8
vt 16 -8
vt 8 -16
vt 16 -16
vt 24 -16
vt 24 -8
vt 26 -14
vt 26 -8
vt 32 -14
vt 32 -8
vt 32 -16
vt 24 -24
vt 32 -24
vt 16 -24
vt 8 -24
vt 24 -32
vt 32 -32
vt 24 -40
vt 32 -40
vt 16 -32
vt 16 -40
vt 8 -32
vt 8 -40
vt 34.5 -40
vt 34.5 -32
vt 40 -40
vt 40 -32
vt 40 16
vt 32 16
vt 40 20
vt 32 20
vt 40 16
vt 32 16
vt 40 20
vt 32 20
vt -32 16
vt -40 16
vt -32 20
vt -40 20
vt -32 16
vt -40 16
vt -32 20
vt -40 20
vt 16 16
vt 8 16
vt 16 20
vt 8 20
vt 32 16
vt 24 16
vt 32 20
vt 24 20
vt -24 16
vt -32 16
vt -24 20
vt -32 20
vt -8 16
vt -16 16
vt -8 20
vt -16 20
vt 40 33.91993
vt 32 33.91993
vt 40 38.63692
vt 32 38.63692
vt 40 24
vt 34.5 24
vt -34.5 24
vt -40 24
vt -32 24
vt -40 24
vt 16 28.62167
vt 8 28.62167
vt 14 33.09381
vt 8 33.09381
vt 32 10.73313
vt 24 10.73313
vt 32 15.20526
vt 26 15.20526
vt -26 24
vt -32 24
vt -8 24
vt -14 24
vt -8 12
vt -16 12
vt -16 16
vt -8 16
vt 16 16
vt 8 12
vt 8 16
vt 16 12
vt -8 12
vt -16 12
vt 16 16
vt 8 12
vt 8 16
vt 16 12
vt -16 12
vt -24 12
vt -16 16
vt 24 16
vt 24 12
vt -32 12
vt 32 12
vt -24 12
vt -24 16
vt 24 16
vt 24 12
vt -32 12
vt -40 12
vt 40 16
vt 32 12
vt 32 16
vt 40 12
vt -32 12
vt -40 12
vt 40 12
vt -8 -8
vt -16 -8
vt -8 -4
vt -16 -4
vt -8 12
vt -8 16
vt -4 12
vt -4 16
vt 4 16
vt 4 12
vt 16 -4
vt 8 -4
vt 0 12
vt 0 16
vt 0 16
vt 0 12
vt 16 0
vt 8 0
vt 8 12
vt 16 12
vt 8 8
vt 16 8
vt 0 8
vt 4 8
vt -4 8
vt 0 8
vt -16 8
vt -8 8
vt -8 8
vt -16 8
vt -8 12
vt 16 8
vt 8 0
vt 8 8
vt 16 0
vt -8 0
vt -16 0
vt -16 8
vt -8 8
vt 16 8
vt 8 0
vt 8 8
vt 16 0
vt 8 8
vt 16 8
vt -24 8
vt 24 8
vt 24 0
vt -24 0
vt -32 0
vt -32 8
vt 32 8
vt 32 0
vt -24 0
vt -24 8
vt 24 8
vt 24 0
vt 24 8
vt -32 8
vt -40 8
vt 40 8
vt 32 0
vt 32 8
vt 40 0
vt -32 8
vt -40 8
vt 40 8
vt 0 0
vt 4 0
vt -4 0
vt 0 0
vt -16 0
vt -8 0
vt 8 -4
vt 16 -4
vt 8 -8
vt 16 -8
vt 4 0
vt 4 8
vt -4 8
vt -4 0
vt -8 8
vt -8 0
vt -16 8
vt -16 0
vt -24 8
vt -24 0
vt 16 -8
vt 16 -4
vt 24 -8
vt 24 -4
vt 32 -28
vt 24 -28
vt 16 -28
vt 8 -28
vt -28 12
vt -28 16
vt -32 12
vt -32 16
vt 28 16
vt 28 12
vt -28 0
vt -28 8
vt -42.0583 0
vt -43.63943 0
vt -43.63943 8
vt -42.0583 8
vt 28 8
vt 28 0
vt 32 8
vt 32 0
vt 28 8
vt 8 -24
vt 8 -28
vt 6 -24
vt 6 -28
vt 8 -32
vt 6 -32
vt 8 -16
vt 6 -16
vt 8 8
vt 8 0
vt 6 8
vt 6 0
vt 8 -8
vt 6 -8
vt -8 0
vt -8 8
vt -6 0
vt -6 8
vt 8 -4
vt 6 -4
vt 8 8
vt 8 12
vt 32 8
vt 32 12
vt -8 -28
vt -8 -32
vt -32 -28
vt -32 -32
vt -8 12
vt -8 8
vt 32 -32
vt 32 -28
vt -37.83556 8
vt -37.83556 0
vt -46.08177 8
vt -46.08177 0
vt 40 -32
vt 40 -30
vt 24.66577 0
vt 24.66577 8
vt 26.2469 0
vt 26.2469 8
vt -47.43417 8
vt -47.43417 0
vt -49.0153 8
vt -49.0153 0
vt 42 -32
vt 41.5 -30.5
vt 40 -40
vt 42 -40
vt -32 8
vt -32 0
vt -40 8
vt -40 0
vt 40 0
vt 40 8
vt 42 0
vt 42 8
vt 40 -42
vt 41.5 -41.5
vt -24.66577 8
vt -24.66577 0
vt -26.2469 8
vt -26.2469 0
vt 32 -40
vt 32 -42
vt 40 8
vt 40 0
vt 32 8
vt 32 0
vt 16 -55.5
vt 8 -55.5
vt -8 -55.5
vt -16 -55.5
vt 16 -55.5
vt 8 -55.5
vt 24 -55.5
vt -24 -55.5
vt -32 -55.5
vt 32 -55.5
vt -24 -55.5
vt 24 -55.5
vt 40 -55.5
vt 32 -55.5
vt 4 -55.5
vt 0 -55.5
vt 0 -55.5
vt -4 -55.5
vt -8 -55.5
vt -16 -55.5
vt 4 -55.5
vt -4 -55.5
vt -8 -55.5
vt -16 -55.5
vt -24 -55.5
vt -28 -55.5
vt -41.74207 -55.84232
vt -43.63943 -0.3387168
vt -42.05829 -0.3387168
vt -43.63943 -55.83511
vt 28 -55.5
vt 32 -55.5
vt 8 -55.5
vt 6 -55.5
vt -6 -55.5
vt -8 -55.5
vt -37.83556 -55.5
vt -46.08177 -55.5
vt 26.56313 -56.10176
vt 24.66577 -0.5981594
vt 26.24691 -0.5981594
vt 24.66577 -56.09456
vt -47.43417 -55.5
vt -49.0153 0
vt -49.33153 -55.5
vt -32 -55.5
vt -40 -55.5
vt 42 -55.5
vt 40 -55.5
vt -24.66577 -55.5
vt -26.24691 0
vt -26.56313 -55.5
vt 40 -55.5
vt 32 -55.5
vn 0 1 0
vn 0 1 0
vn 0 1 0
vn 0 1 0
vn 0 1 0
vn 0 1 0
vn 0 1 0
vn 0 1 0
vn 0 1 0
vn 0 1 0
vn 0 1 0
vn 0 1 0
vn 0 1 0
vn 0 1 0
vn 0 1 0
vn 0 1 0
vn 0 1 0
vn 0 1 0
vn 0 1 0
vn 0 1 0
vn 0 1 0
vn 0 1 0
vn 0 1 0
vn 0 1 0
vn 0 1 0
vn 0 1 0
vn 0 1 0
vn 1 0 0
vn 1 0 0
vn 1 0 0
vn 1 0 0
vn 0 0 -1
vn 0 0 -1
vn 0 0 -1
vn 0 0 -1
vn 0 0 1
vn 0 0 1
vn 0 0 1
vn 0 0 1
vn -1 0 0
vn -1 0 0
vn -1 0 0
vn -1 0 0
vn 1 0 0
vn 1 0 0
vn 1 0 0
vn 1 0 0
vn 0 0 -1
vn 0 0 -1
vn 0 0 -1
vn 0 0 -1
vn 0 0 1
vn 0 0 1
vn 0 0 1
vn 0 0 1
vn -1 0 0
vn -1 0 0
vn -1 0 0
vn -1 0 0
vn 0.8479983 0.529999 0
vn 0.8479983 0.529999 0
vn 0.8479983 0.529999 0
vn 0.8479983 0.529999 0
vn 0 0 -1
vn 0 0 -1
vn 0 0 1
vn 0 0 1
vn -1 0 0
vn -1 0 0
vn 0.8944272 0.4472136 0
vn 0.8944272 0.4472136 0
vn 0.8944272 0.4472136 0
vn 0.8944272 0.4472136 0
vn 0 0.4472136 -0.8944272
vn 0 0.4472136 -0.8944272
vn 0 0.4472136 -0.8944272
vn 0 0.4472136 -0.8944272
vn 0 0 1
vn 0 0 1
vn -1 0 0
vn -1 0 0
vn 0 0 1
vn 0 0 1
vn 0 0 1
vn 0 0 1
vn 0 0 -1
vn 0 0 -1
vn 0 0 -1
vn 0 0 -1
vn -1 0 0
vn -1 0 0
vn 1 0 0
vn 1 0 0
vn 1 0 0
vn 1 0 0
vn 0 0 1
vn 0 0 1
vn 0 0 1
vn 0 0 -1
vn 0 0 -1
vn 0 0 1
vn 0 0 -1
vn -1 0 0
vn -1 0 0
vn 1 0 0
vn 1 0 0
vn -1 0 0
vn -1 0 0
vn 1 0 0
vn 1 0 0
vn 1 0 0
vn 1 0 0
vn 0 0 1
vn 0 0 1
vn 0 0 -1
vn 0 -1 0
vn 0 -1 0
vn 0 -1 0
vn 0 -1 0
vn -1 0 0
vn -1 0 0
vn -1 0 0
vn -1 0 0
vn 1 0 0
vn 1 0 0
vn 0 1 0
vn 0 1 0
vn -1 0 0
vn -1 0 0
vn 1 0 0
vn 1 0 0
vn 0 1 0
vn 0 1 0
vn 0 0 -1
vn 0 0 -1
vn 0 0 -1
vn 0 0 -1
vn 1 0 0
vn 1 0 0
vn -1 0 0
vn -1 0 0
vn 0 0 1
vn 0 0 1
vn 0 0 1
vn 0 0 1
vn 0 0 1
vn 0 0 -1
vn 0 0 -1
vn 0 0 -1
vn 0 0 -1
vn -1 0 0
vn -1 0 0
vn -1 0 0
vn -1 0 0
vn 1 0 0
vn 1 0 0
vn 1 0 0
vn 1 0 0
vn 1 0 0
vn 1 0 0
vn 0 0 1
vn 0 0 -1
vn 0 0 -1
vn 0 0 1
vn 0 0 1
vn 0 0 1
vn 0 0 -1
vn 0 0 -1
vn -1 0 0
vn -1 0 0
vn 1 0 0
vn 1 0 0
vn 1 0 0
vn -1 0 0
vn -1 0 0
vn 1 0 0
vn 1 0 0
vn 1 0 0
vn 1 0 0
vn 0 0 1
vn 0 0 1
vn 0 0 -1
vn 1 0 0
vn 1 0 0
vn -1 0 0
vn -1 0 0
vn 0 0 1
vn 0 0 1
vn 0 1 0
vn 0 1 0
vn 0 1 0
vn 0 1 0
vn 1 0 0
vn 1 0 0
vn -1 0 0
vn -1 0 0
vn -1 0 0
vn -1 0 0
vn 0 0 1
vn 0 0 1
vn 0 0 1
vn 0 0 1
vn 0 1 0
vn 0 1 0
vn 0 1 0
vn 0 1 0
vn 0 1 0
vn 0 1 0
vn 0 1 0
vn 0 1 0
vn -1 0 0
vn -1 0 0
vn -1 0 0
vn -1 0 0
vn 1 0 0
vn 1 0 0
vn -1 0 0
vn -1 0 0
vn -0.9486833 0 0.3162278
vn -0.9486833 0 0.3162278
vn -0.9486833 0 0.3162278
vn -0.9486833 0 0.3162278
vn 1 0 0
vn 1 0 0
vn 1 0 0
vn 1 0 0
vn 1 0 0
vn 0 1 0
vn 0 1 0
vn 0 1 0
vn 0 1 0
vn 0 1 0
vn 0 1 0
vn 0 1 0
vn 0 1 0
vn 0 0 -1
vn 0 0 -1
vn 0 0 -1
vn 0 0 -1
vn 0 1 0
vn 0 1 0
vn 0 0 1
vn 0 0 1
vn 0 0 1
vn 0 0 1
vn 0 1 0
vn 0 1 0
vn 0 0 -1
vn 0 0 -1
vn 0 0 -1
vn 0 0 -1
vn 0 -1 0
vn 0 -1 0
vn 0 -1 0
vn 0 -1 0
vn 0 0 1
vn 0 0 1
vn 0 1 0
vn 0 1 0
vn -0.2425356 0 0.9701425
vn -0.2425356 0 0.9701425
vn -0.2425356 0 0.9701425
vn -0.2425356 0 0.9701425
vn 0 1 0
vn 0 1 0
vn -0.3162278 0 -0.9486833
vn -0.3162278 0 -0.9486833
vn -0.3162278 0 -0.9486833
vn -0.3162278 0 -0.9486833
vn -0.3162278 0 0.9486833
vn -0.3162278 0 0.9486833
vn -0.3162278 0 0.9486833
vn -0.3162278 0 0.9486833
vn 0 1 0
vn 0 1 0
vn 0 1 0
vn 0 1 0
vn -1 0 0
vn -1 0 0
vn -1 0 0
vn -1 0 0
vn 1 0 0
vn 1 0 0
vn 1 0 0
vn 1 0 0
vn 0 1 0
vn 0 1 0
vn -0.9486833 0 -0.3162278
vn -0.9486833 0 -0.3162278
vn -0.9486833 0 -0.3162278
vn -0.9486833 0 -0.3162278
vn 0 1 0
vn 0 1 0
vn 0 0 -1
vn 0 0 -1
vn 0 0 -1
vn 0 0 -1
vn 0 0 -1
vn 0 0 -1
vn -1 0 0
vn -1 0 0
vn 1 0 0
vn 1 0 0
vn 0 0 -1
vn 0 0 1
vn 0 0 1
vn 0 0 -1
vn -1 0 0
vn 1 0 0
vn 1 0 0
vn 1 0 0
vn 1 0 0
vn 1 0 0
vn -1 0 0
vn -1 0 0
vn 0 0 1
vn 0 0 1
vn 1 0 0
vn -1 0 0
vn -1 0 0
vn 0 0 1
vn 0 0 1
vn -1 0 0
vn -0.9743109 0.005697428 0.1581036
vn -0.9743109 0.005697428 0.1581036
vn -0.9486217 0.01139486 0.3162073
vn -1 0 0
vn 1 0 0
vn 1 0 0
vn 0 0 -1
vn 0 0 -1
vn 0 0 1
vn 0 0 1
vn -0.2425356 0 0.9701425
vn -0.2425356 0 0.9701425
vn -0.1581036 0.005697428 -0.9743109
vn -0.1581036 0.005697428 -0.9743109
vn -0.3162073 0.01139486 -0.9486217
vn 0 0 -1
vn -0.1581139 0.004504322 0.9743214
vn -0.1581139 0.004504322 0.9743214
vn 0 0.009008644 0.9999595
vn -1 0 0
vn -1 0 0
vn 1 0 0
vn 1 0 0
vn -0.9743214 0.004504322 -0.1581139
vn -0.9743214 0.004504322 -0.1581139
vn -0.9999595 0.009008644 0
vn 0 0 -1
vn 0 0 -1
g pb_Mesh569756_0
f 3/3/3 2/2/2 1/1/1
f 3/3/3 4/4/4 2/2/2
f 5/5/5 2/2/2 4/4/4
f 5/5/5 6/6/6 2/2/2
f 9/9/9 8/8/8 7/7/7
f 9/9/9 10/10/10 8/8/8
f 12/12/12 11/11/11 5/5/5
f 12/12/12 13/13/13 11/11/11
f 14/14/14 5/5/5 4/4/4
f 14/14/14 12/12/12 5/5/5
f 15/15/15 4/4/4 3/3/3
f 15/15/15 14/14/14 4/4/4
f 18/18/18 17/17/17 16/16/16
f 18/18/18 19/19/19 17/17/17
f 21/21/21 16/16/16 20/20/20
f 21/21/21 18/18/18 16/16/16
f 23/23/23 20/20/20 22/22/22
f 23/23/23 21/21/21 20/20/20
f 26/26/26 25/25/25 24/24/24
f 26/26/26 27/27/27 25/25/25
f 30/30/30 29/29/29 28/28/28
f 30/30/30 31/31/31 29/29/29
f 34/34/34 33/33/33 32/32/32
f 34/34/34 35/35/35 33/33/33
f 38/38/38 37/37/37 36/36/36
f 38/38/38 39/39/39 37/37/37
f 42/42/42 41/41/41 40/40/40
f 42/42/42 43/43/43 41/41/41
f 46/46/46 45/45/45 44/44/44
f 46/46/46 47/47/47 45/45/45
f 50/50/50 49/49/49 48/48/48
f 50/50/50 51/51/51 49/49/49
f 54/54/54 53/53/53 52/52/52
f 54/54/54 55/55/55 53/53/53
f 58/58/58 57/57/57 56/56/56
f 58/58/58 59/59/59 57/57/57
f 62/62/62 61/61/61 60/60/60
f 62/62/62 63/63/63 61/61/61
f 64/64/64 35/35/35 34/34/34
f 64/64/64 65/65/65 35/35/35
f 66/66/66 39/39/39 38/38/38
f 66/66/66 67/67/67 39/39/39
f 68/68/68 43/43/43 42/42/42
f 68/68/68 69/69/69 43/43/43
f 72/72/72 71/71/71 70/70/70
f 72/72/72 73/73/73 71/71/71
f 76/76/76 75/75/75 74/74/74
f 76/76/76 77/77/77 75/75/75
f 78/78/78 55/55/55 54/54/54
f 78/78/78 79/79/79 55/55/55
f 80/80/80 59/59/59 58/58/58
f 80/80/80 81/81/81 59/59/59
f 84/84/84 83/83/83 82/82/82
f 84/84/84 82/82/82 85/85/85
f 88/88/88 87/87/87 86/86/86
f 87/87/87 89/89/89 86/86/86
f 57/57/57 91/91/91 90/90/90
f 57/57/57 90/90/90 56/56/56
f 94/94/94 93/93/93 92/92/92
f 93/93/93 95/95/95 92/92/92
f 52/52/52 97/97/97 96/96/96
f 52/52/52 96/96/96 98/98/98
f 86/86/86 89/89/89 99/99/99
f 89/89/89 100/100/100 99/99/99
f 53/53/53 101/101/101 97/97/97
f 53/53/53 97/97/97 52/52/52
f 99/99/99 100/100/100 33/33/33
f 100/100/100 102/102/102 33/33/33
f 104/104/104 103/103/103 91/91/91
f 104/104/104 91/91/91 57/57/57
f 92/92/92 95/95/95 105/105/105
f 95/95/95 106/106/106 105/105/105
f 41/41/41 108/108/108 107/107/107
f 41/41/41 107/107/107 40/40/40
f 111/111/111 110/110/110 109/109/109
f 110/110/110 112/112/112 109/109/109
f 37/37/37 114/114/114 113/113/113
f 37/37/37 113/113/113 36/36/36
f 33/33/33 102/102/102 32/32/32
f 102/102/102 115/115/115 32/32/32
f 118/118/118 117/117/117 116/116/116
f 118/118/118 119/119/119 117/117/117
f 122/122/122 121/121/121 120/120/120
f 122/122/122 123/123/123 121/121/121
f 124/124/124 93/93/93 94/94/94
f 124/124/124 125/125/125 93/93/93
f 126/126/126 1/1/1 2/2/2
f 126/126/126 127/127/127 1/1/1
f 128/128/128 123/123/123 122/122/122
f 128/128/128 129/129/129 123/123/123
f 130/130/130 125/125/125 124/124/124
f 130/130/130 131/131/131 125/125/125
f 132/132/132 127/127/127 126/126/126
f 132/132/132 133/133/133 127/127/127
f 136/136/136 135/135/135 134/134/134
f 136/136/136 137/137/137 135/135/135
f 138/138/138 125/125/125 131/131/131
f 138/138/138 139/139/139 125/125/125
f 140/140/140 128/128/128 122/122/122
f 140/140/140 141/141/141 128/128/128
f 142/142/142 82/82/82 83/83/83
f 142/142/142 143/143/143 82/82/82
f 96/96/96 145/145/145 144/144/144
f 96/96/96 144/144/144 146/146/146
f 149/149/149 148/148/148 147/147/147
f 148/148/148 150/150/150 147/147/147
f 87/87/87 149/149/149 89/89/89
f 149/149/149 147/147/147 89/89/89
f 153/153/153 152/152/152 151/151/151
f 153/153/153 151/151/151 154/154/154
f 91/91/91 153/153/153 154/154/154
f 91/91/91 154/154/154 90/90/90
f 157/157/157 156/156/156 155/155/155
f 156/156/156 158/158/158 155/155/155
f 93/93/93 159/159/159 95/95/95
f 159/159/159 160/160/160 95/95/95
f 97/97/97 161/161/161 145/145/145
f 97/97/97 145/145/145 96/96/96
f 147/147/147 150/150/150 162/162/162
f 150/150/150 163/163/163 162/162/162
f 89/89/89 147/147/147 100/100/100
f 147/147/147 162/162/162 100/100/100
f 166/166/166 165/165/165 164/164/164
f 166/166/166 164/164/164 161/161/161
f 101/101/101 166/166/166 161/161/161
f 101/101/101 161/161/161 97/97/97
f 162/162/162 163/163/163 167/167/167
f 163/163/163 168/168/168 167/167/167
f 100/100/100 162/162/162 102/102/102
f 162/162/162 167/167/167 102/102/102
f 170/170/170 169/169/169 152/152/152
f 170/170/170 152/152/152 153/153/153
f 103/103/103 170/170/170 153/153/153
f 103/103/103 153/153/153 91/91/91
f 155/155/155 158/158/158 171/171/171
f 158/158/158 172/172/172 171/171/171
f 95/95/95 160/160/160 106/106/106
f 160/160/160 173/173/173 106/106/106
f 108/108/108 175/175/175 174/174/174
f 108/108/108 174/174/174 107/107/107
f 178/178/178 177/177/177 176/176/176
f 177/177/177 179/179/179 176/176/176
f 110/110/110 178/178/178 112/112/112
f 178/178/178 176/176/176 112/112/112
f 114/114/114 181/181/181 180/180/180
f 114/114/114 180/180/180 113/113/113
f 102/102/102 167/167/167 115/115/115
f 167/167/167 182/182/182 115/115/115
f 183/183/183 139/139/139 138/138/138
f 183/183/183 184/184/184 139/139/139
f 185/185/185 141/141/141 140/140/140
f 185/185/185 186/186/186 141/141/141
f 187/187/187 143/143/143 142/142/142
f 187/187/187 188/188/188 143/143/143
f 191/191/191 190/190/190 189/189/189
f 191/191/191 192/192/192 190/190/190
f 156/156/156 194/194/194 193/193/193
f 156/156/156 157/157/157 194/194/194
f 197/197/197 196/196/196 195/195/195
f 197/197/197 198/198/198 196/196/196
f 201/201/201 200/200/200 199/199/199
f 201/201/201 202/202/202 200/200/200
f 205/205/205 204/204/204 203/203/203
f 205/205/205 206/206/206 204/204/204
f 12/12/12 208/208/208 207/207/207
f 12/12/12 207/207/207 13/13/13
f 208/208/208 16/16/16 17/17/17
f 208/208/208 17/17/17 207/207/207
f 14/14/14 209/209/209 208/208/208
f 14/14/14 208/208/208 12/12/12
f 209/209/209 20/20/20 16/16/16
f 209/209/209 16/16/16 208/208/208
f 15/15/15 210/210/210 209/209/209
f 15/15/15 209/209/209 14/14/14
f 210/210/210 22/22/22 20/20/20
f 210/210/210 20/20/20 209/209/209
f 212/212/212 211/211/211 103/103/103
f 212/212/212 103/103/103 104/104/104
f 214/214/214 213/213/213 211/211/211
f 214/214/214 211/211/211 212/212/212
f 105/105/105 106/106/106 215/215/215
f 106/106/106 216/216/216 215/215/215
f 215/215/215 216/216/216 111/111/111
f 216/216/216 110/110/110 111/111/111
f 218/218/218 217/217/217 169/169/169
f 218/218/218 169/169/169 170/170/170
f 221/221/221 220/220/220 219/219/219
f 221/221/221 219/219/219 222/222/222
f 211/211/211 218/218/218 170/170/170
f 211/211/211 170/170/170 103/103/103
f 171/171/171 172/172/172 223/223/223
f 172/172/172 224/224/224 223/223/223
f 223/223/223 224/224/224 225/225/225
f 224/224/224 226/226/226 225/225/225
f 106/106/106 173/173/173 216/216/216
f 173/173/173 227/227/227 216/216/216
f 230/230/230 229/229/229 228/228/228
f 230/230/230 231/231/231 229/229/229
f 231/231/231 232/232/232 229/229/229
f 231/231/231 233/233/233 232/232/232
f 235/235/235 228/228/228 234/234/234
f 235/235/235 230/230/230 228/228/228
f 238/238/238 237/237/237 236/236/236
f 238/238/238 239/239/239 237/237/237
f 241/241/241 234/234/234 240/240/240
f 241/241/241 235/235/235 234/234/234
f 244/244/244 243/243/243 242/242/242
f 244/244/244 245/245/245 243/243/243
f 247/247/247 240/240/240 246/246/246
f 247/247/247 241/241/241 240/240/240
f 250/250/250 249/249/249 248/248/248
f 250/250/250 251/251/251 249/249/249
f 254/254/254 253/253/253 252/252/252
f 254/254/254 255/255/255 253/253/253
f 113/113/113 257/257/257 256/256/256
f 113/113/113 180/180/180 257/257/257
f 258/258/258 229/229/229 232/232/232
f 258/258/258 259/259/259 229/229/229
f 262/262/262 261/261/261 260/260/260
f 262/262/262 263/263/263 261/261/261
f 264/264/264 259/259/259 258/258/258
f 264/264/264 265/265/265 259/259/259
f 268/268/268 267/267/267 266/266/266
f 268/268/268 269/269/269 267/267/267
f 272/272/272 271/271/271 270/270/270
f 272/272/272 273/273/273 271/271/271
f 274/274/274 265/265/265 264/264/264
f 274/274/274 275/275/275 265/265/265
f 276/276/276 274/274/274 264/264/264
f 276/276/276 277/277/277 274/274/274
f 280/280/280 279/279/279 278/278/278
f 280/280/280 281/281/281 279/279/279
f 284/284/284 283/283/283 282/282/282
f 284/284/284 285/285/285 283/283/283
f 286/286/286 277/277/277 276/276/276
f 286/286/286 287/287/287 277/277/277
f 290/290/290 289/289/289 288/288/288
f 290/290/290 291/291/291 289/289/289
f 292/292/292 286/286/286 276/276/276
f 292/292/292 293/293/293 286/286/286
f 296/296/296 295/295/295 294/294/294
f 296/296/296 297/297/297 295/295/295
f 150/150/150 148/148/148 298/298/298
f 148/148/148 299/299/299 298/298/298
f 151/151/151 152/152/152 300/300/300
f 152/152/152 301/301/301 300/300/300
f 158/158/158 156/156/156 302/302/302
f 156/156/156 303/303/303 302/302/302
f 163/163/163 150/150/150 304/304/304
f 150/150/150 298/298/298 304/304/304
f 164/164/164 165/165/165 305/305/305
f 165/165/165 306/306/306 305/305/305
f 168/168/168 163/163/163 307/307/307
f 163/163/163 304/304/304 307/307/307
f 152/152/152 169/169/169 301/301/301
f 169/169/169 308/308/308 301/301/301
f 172/172/172 158/158/158 309/309/309
f 158/158/158 302/302/302 309/309/309
f 179/179/179 177/177/177 310/310/310
f 177/177/177 311/311/311 310/310/310
f 184/184/184 183/183/183 312/312/312
f 183/183/183 313/313/313 312/312/312
f 186/186/186 185/185/185 314/314/314
f 185/185/185 315/315/315 314/314/314
f 188/188/188 187/187/187 316/316/316
f 187/187/187 317/317/317 316/316/316
f 156/156/156 193/193/193 303/303/303
f 193/193/193 318/318/318 303/303/303
f 196/196/196 198/198/198 319/319/319
f 198/198/198 320/320/320 319/319/319
f 200/200/200 202/202/202 321/321/321
f 202/202/202 322/322/322 321/321/321
f 169/169/169 217/217/217 308/308/308
f 217/217/217 323/323/323 308/308/308
f 326/326/326 325/325/325 324/324/324
f 325/325/325 327/327/327 324/324/324
f 224/224/224 172/172/172 328/328/328
f 172/172/172 309/309/309 328/328/328
f 226/226/226 224/224/224 329/329/329
f 224/224/224 328/328/328 329/329/329
f 237/237/237 239/239/239 330/330/330
f 239/239/239 331/331/331 330/330/330
f 244/244/244 242/242/242 332/332/332
f 242/242/242 333/333/333 332/332/332
f 261/261/261 263/263/263 334/334/334
f 263/263/263 335/335/335 334/334/334
f 338/338/338 337/337/337 336/336/336
f 337/337/337 339/339/339 336/336/336
f 271/271/271 341/341/341 340/340/340
f 341/341/341 342/342/342 340/340/340
f 279/279/279 281/281/281 343/343/343
f 281/281/281 344/344/344 343/343/343
f 284/284/284 282/282/282 345/345/345
f 282/282/282 346/346/346 345/345/345
f 289/289/289 348/348/348 347/347/347
f 348/348/348 349/349/349 347/347/347
f 295/295/295 297/297/297 350/350/350
f 297/297/297 351/351/351 350/350/350
