g pb_Mesh402706
v 28 4 0
v 20 4 0
v 28 4 -16
v 12 4 -16
v 20 8 0
v 12 4 -16
v 20 4 0
v 12 8 -16
v 7 8 0
v 12 8 -16
v 20 8 0
v 7 8 -16
v 7 8 7.875
v 12 8 7.875
v 12 8.000099 40
v 7 8.000099 40
vt -28 0
vt -20 0
vt -28 -16
vt -12 -16
vt -8.944272 8
vt 8.944272 4
vt -8.944272 4
vt 8.944272 8
vt -7 0
vt -12 -16
vt -20 0
vt -7 -16
vt -7 7.875
vt -12 7.875
vt -12 40.00002
vt -7 40.00002
vn 0 1 0
vn 0 1 0
vn 0 1 0
vn 0 1 0
vn 0.8944272 0 -0.4472136
vn 0.8944272 0 -0.4472136
vn 0.8944272 0 -0.4472136
vn 0.8944272 0 -0.4472136
vn 0 1 0
vn 0 1 0
vn 0 1 0
vn 0 1 0
vn 0 1 0
vn 0 1 0
vn 0 1 -3.087381E-06
vn 0 1 -3.087381E-06
g pb_Mesh402706_0
f 3/3/3 2/2/2 1/1/1
f 3/3/3 4/4/4 2/2/2
f 7/7/7 6/6/6 5/5/5
f 6/6/6 8/8/8 5/5/5
f 11/11/11 10/10/10 9/9/9
f 10/10/10 12/12/12 9/9/9
f 13/13/13 11/11/11 9/9/9
f 13/13/13 14/14/14 11/11/11
f 15/15/15 14/14/14 13/13/13
f 15/15/15 13/13/13 16/16/16
