g pb_Mesh236698
v 6 1.5 -6
v -26 1.5 -6
v 6 1.5 -0.25
v -26 1.5 -0.25
v 6 2 -0.25
v 6 1.5 -0.25
v -9.5 2 -0.25
v -26 1.5 -0.25
v -26 2 -0.25
v -26 2 -0.25
v -26 1.5 -0.25
v -26 2 -3.5
v -26 1.5 -6
v -26 2 -6
v -9.5 2 -6
v -26 2 -6
v -26 1.5 -6
v 6 1.5 -6
v 6 2 -6
v 6 2 -3.5
v 6 2 -6
v 6 1.5 -6
v 6 1.5 -0.25
v 6 2 -0.25
v 3.25 2 -3.5
v 6 2 -3.5
v 6 2 -0.25
v -9.5 2 -0.25
v -9.5 2 -3.5
v -26 2 -3.5
v -26 2 -0.25
v -26 2 -6
v -9.5 2 -6
v 6 2 -6
vt 6 -6
vt -26 -6
vt 6 -0.25
vt -26 -0.25
vt 6 2
vt 6 1.5
vt -9.5 2
vt -26 1.5
vt -26 2
vt -0.25 2
vt -0.25 1.5
vt -3.5 2
vt -6 1.5
vt -6 2
vt 9.5 2
vt 26 2
vt 26 1.5
vt -6 1.5
vt -6 2
vt 3.5 2
vt 6 2
vt 6 1.5
vt 0.25 1.5
vt 0.25 2
vt -3.25 -3.5
vt -6 -3.5
vt -6 -0.25
vt 9.5 -0.25
vt 9.5 -3.5
vt 26 -3.5
vt 26 -0.25
vt 26 -6
vt 9.5 -6
vt -6 -6
vn 0 -1 0
vn 0 -1 0
vn 0 -1 0
vn 0 -1 0
vn 0 0 1
vn 0 0 1
vn 0 0 1
vn 0 0 1
vn 0 0 1
vn -1 0 0
vn -1 0 0
vn -1 0 0
vn -1 0 0
vn -1 0 0
vn 0 0 -1
vn 0 0 -1
vn 0 0 -1
vn 0 0 -1
vn 0 0 -1
vn 1 0 0
vn 1 0 0
vn 1 0 0
vn 1 0 0
vn 1 0 0
vn 0 1 0
vn 0 1 0
vn 0 1 0
vn 0 1 0
vn 0 1 0
vn 0 1 0
vn 0 1 0
vn 0 1 0
vn 0 1 0
vn 0 1 0
g pb_Mesh236698_0
f 3/3/3 2/2/2 1/1/1
f 3/3/3 4/4/4 2/2/2
f 7/7/7 6/6/6 5/5/5
f 6/6/6 7/7/7 8/8/8
f 7/7/7 9/9/9 8/8/8
f 12/12/12 11/11/11 10/10/10
f 11/11/11 12/12/12 13/13/13
f 12/12/12 14/14/14 13/13/13
f 17/17/17 16/16/16 15/15/15
f 17/17/17 15/15/15 18/18/18
f 19/19/19 18/18/18 15/15/15
f 22/22/22 21/21/21 20/20/20
f 22/22/22 20/20/20 23/23/23
f 24/24/24 23/23/23 20/20/20
f 27/27/27 26/26/26 25/25/25
f 25/25/25 29/29/29 28/28/28
f 27/27/27 25/25/25 28/28/28
f 28/28/28 29/29/29 30/30/30
f 28/28/28 30/30/30 31/31/31
f 29/29/29 33/33/33 32/32/32
f 29/29/29 32/32/32 30/30/30
f 25/25/25 33/33/33 29/29/29
f 33/33/33 25/25/25 34/34/34
f 25/25/25 26/26/26 34/34/34
g pb_Mesh236698_1
