g pb_Mesh206392
v -13 4 -12
v -17 4 -12
v -13 4 -17
v -17 4 -17
v -13 4 -10
v -17 4 -10
v -13 4 -8
v -17 4 -8
v -4 4 -8
v -2 4 -8
v -2 4 0
v -4 4 0
v -4 4 -10
v -2 4 -10
v 0 4 -10
v 0 4 -8
v -4 4 -12
v -2 4 -12
v 0 2 -8
v 0 -8 0
v 0 2 0
v 0 -8 -8
v -17 2 -17
v -13 -8 -17
v -13 2 -17
v -17 -8 -17
v -17 4 -17
v -13 4 -17
v -13 2 -17
v -13 -8 -12
v -13 2 -12
v -13 -8 -17
v -13 4 -17
v -13 4 -12
v 0 2 -10
v 0 -8 -10
v 0 4 -10
v 0 4 -8
v 0 2 -12
v 0 -8 -12
v -4 2 -12
v -2 -8 -12
v -2 2 -12
v -4 -8 -12
v -4 4 -12
v -2 4 -12
v 0 -8 -12
v 0 2 -12
v -5 4 -10
v -5 4 -12
v -5 4 -12
v -5 2 -12
v -5 4 -8
v -5 -8 -12
v -13 2 -12
v -13 -8 -12
vt 13 -12
vt 17 -12
vt 13 -17
vt 17 -17
vt 13 -10
vt 17 -10
vt 13 -8
vt 17 -8
vt 4 -8
vt 2 -8
vt 2 0
vt 4 0
vt 4 -10
vt 2 -10
vt 0 -10
vt 0 -8
vt 4 -12
vt 2 -12
vt 8 2
vt 0 -8
vt 0 2
vt 8 -8
vt 17 2
vt 13 -8
vt 13 2
vt 17 -8
vt 17 4
vt 13 4
vt 17 2
vt 12 -8
vt 12 2
vt 17 -8
vt 17 4
vt 12 4
vt 10 2
vt 10 -8
vt 10 4
vt 8 4
vt 12 2
vt 12 -8
vt 4 2
vt 2 -8
vt 2 2
vt 4 -8
vt 4 4
vt 2 4
vt 0 -8
vt 0 2
vt 5 -10
vt 5 -12
vt 5 4
vt 5 2
vt 5 -8
vt 5 -8
vt 13 2
vt 13 -8
vn 0 1 0
vn 0 1 0
vn 0 1 0
vn 0 1 0
vn 0 1 0
vn 0 1 0
vn 0 1 0
vn 0 1 0
vn 0 1 0
vn 0 1 0
vn 0 1 0
vn 0 1 0
vn 0 1 0
vn 0 1 0
vn 0 1 0
vn 0 1 0
vn 0 1 0
vn 0 1 0
vn 1 0 0
vn 1 0 0
vn 1 0 0
vn 1 0 0
vn 0 0 -1
vn 0 0 -1
vn 0 0 -1
vn 0 0 -1
vn 0 0 -1
vn 0 0 -1
vn 1 0 0
vn 1 0 0
vn 1 0 0
vn 1 0 0
vn 1 0 0
vn 1 0 0
vn 1 0 0
vn 1 0 0
vn 1 0 0
vn 1 0 0
vn 1 0 0
vn 1 0 0
vn 0 0 -1
vn 0 0 -1
vn 0 0 -1
vn 0 0 -1
vn 0 0 -1
vn 0 0 -1
vn 0 0 -1
vn 0 0 -1
vn 0 1 0
vn 0 1 0
vn 0 0 -1
vn 0 0 -1
vn 0 1 0
vn 0 0 -1
vn 0 0 -1
vn 0 0 -1
g pb_Mesh206392_0
f 3/3/3 2/2/2 1/1/1
f 3/3/3 4/4/4 2/2/2
f 5/5/5 1/1/1 2/2/2
f 5/5/5 2/2/2 6/6/6
f 7/7/7 5/5/5 6/6/6
f 7/7/7 6/6/6 8/8/8
f 11/11/11 10/10/10 9/9/9
f 11/11/11 9/9/9 12/12/12
f 10/10/10 14/14/14 13/13/13
f 10/10/10 13/13/13 9/9/9
f 16/16/16 15/15/15 14/14/14
f 16/16/16 14/14/14 10/10/10
f 14/14/14 18/18/18 17/17/17
f 14/14/14 17/17/17 13/13/13
f 21/21/21 20/20/20 19/19/19
f 20/20/20 22/22/22 19/19/19
f 25/25/25 24/24/24 23/23/23
f 24/24/24 26/26/26 23/23/23
f 28/28/28 25/25/25 27/27/27
f 25/25/25 23/23/23 27/27/27
f 31/31/31 30/30/30 29/29/29
f 30/30/30 32/32/32 29/29/29
f 34/34/34 31/31/31 33/33/33
f 31/31/31 29/29/29 33/33/33
f 19/19/19 22/22/22 35/35/35
f 22/22/22 36/36/36 35/35/35
f 38/38/38 19/19/19 37/37/37
f 19/19/19 35/35/35 37/37/37
f 35/35/35 36/36/36 39/39/39
f 36/36/36 40/40/40 39/39/39
f 43/43/43 42/42/42 41/41/41
f 42/42/42 44/44/44 41/41/41
f 46/46/46 43/43/43 45/45/45
f 43/43/43 41/41/41 45/45/45
f 48/48/48 47/47/47 43/43/43
f 47/47/47 42/42/42 43/43/43
f 13/13/13 17/17/17 49/49/49
f 17/17/17 50/50/50 49/49/49
f 45/45/45 41/41/41 51/51/51
f 41/41/41 52/52/52 51/51/51
f 53/53/53 49/49/49 5/5/5
f 53/53/53 5/5/5 7/7/7
f 9/9/9 13/13/13 49/49/49
f 9/9/9 49/49/49 53/53/53
f 41/41/41 44/44/44 52/52/52
f 44/44/44 54/54/54 52/52/52
f 52/52/52 54/54/54 55/55/55
f 54/54/54 56/56/56 55/55/55
