g pb_Mesh304490
v 0 0 0
v -2 0 0
v 0 4 0
v -2 4 0
v -6.000107 0 0
v -6.000107 0 -2
v -6.000107 4 0
v -6.000107 4 -2
v -2 0 -2
v 0 0 -2
v -2 4 -2
v 0 4 -2
v 2.000101 0 -2.000014
v 2.000107 0 -1.347096E-05
v 2.000101 4 -2.000014
v 2.000107 4 -1.347096E-05
v 0 4 0
v -2 4 0
v 0 4 -2
v -2 4 -2
v 0 0 -2
v -2 0 -2
v 0 0 0
v -2 0 0
v -4.000107 0 0
v -4.000107 0 -2
v -4.000107 4 0
v -4.000107 0 0
v -4.000107 0 -2
v -4.000107 4 -2
v -4.000107 4 -2
v -4.000107 4 0
v -6.000107 0 0
v -6.000107 0 -2
v -6.000107 4 0
v -6.000107 0 0
v -6.000107 4 -2
v -6.000107 4 0
v -4.000107 0 -2
v -4.000107 4 -2
v -4.000113 0 -6.000105
v -4.000113 4 -6.000105
v -6.00006 0 -6.000102
v -4.000113 0 -6.000105
v -4.000113 4 -6.000105
v -6.00006 4 -6.000102
v -6.000107 4 -2
v -6.000107 0 -2
v -6.00006 4 -6.000102
v -6.00006 0 -6.000102
v 2.000101 0 -2.000014
v 2.000107 0 -1.347096E-05
v -2.694161E-05 4 -8.000107
v -2.694161E-05 0 -8.000107
v 2.00008 4 -8.000113
v 2.00008 0 -8.000113
v 2.000107 0 -1.347096E-05
v 2.000107 4 -1.347096E-05
v 2.000107 4 -1.347096E-05
v 2.000101 4 -2.000014
v 0 4 -2
v 0 0 -2
v -1.716645E-05 4 -6.000114
v -1.716645E-05 0 -6.000114
v 2.00009 4 -6.00012
v -1.716645E-05 4 -6.000114
v -1.716645E-05 0 -6.000114
v 2.00009 0 -6.00012
v 2.00009 0 -6.00012
v 2.00009 4 -6.00012
v -6.000027 4 -8.00009
v -6.000027 0 -8.00009
v 2.00008 4 -8.000113
v -2.694161E-05 4 -8.000107
v -2.694161E-05 0 -8.000107
v 2.00008 0 -8.000113
v 2.00008 0 -8.000113
v 2.00008 4 -8.000113
v -1.716645E-05 4 -6.000114
v -1.716645E-05 0 -6.000114
v -4.000113 4 -6.000105
v -4.000113 0 -6.000105
v -4.000134 4 -8.000095
v -4.000134 0 -8.000095
v -2.920659E-05 0 -14.00011
v -2.920659E-05 4 -14.00011
v -4.000136 0 -14.0001
v -4.000136 4 -14.0001
v -6.000027 4 -8.00009
v -6.000027 0 -8.00009
v -4.000134 0 -8.000095
v -4.000134 4 -8.000095
v -6.000027 0 -8.00009
v -6.000027 4 -8.00009
v -2.694161E-05 0 -8.000107
v -2.694161E-05 4 -8.000107
v -2.920659E-05 0 -14.00011
v -2.920659E-05 4 -14.00011
v -4.000136 0 -14.0001
v -2.920659E-05 0 -14.00011
v -2.920659E-05 4 -14.00011
v -4.000136 4 -14.0001
v -4.000134 4 -8.000095
v -4.000134 0 -8.000095
v -4.000136 4 -14.0001
v -4.000136 0 -14.0001
vt 0 0
vt -2 0
vt 0 4
vt -2 4
vt 0 0
vt -2 0
vt 0 4
vt -2 4
vt 2 0
vt 0 0
vt 2 4
vt 0 4
vt 2.000008 0
vt 7.510178E-06 0
vt 2.000008 4
vt 7.510178E-06 4
vt 0 0
vt 2 0
vt 0 -2
vt 2 -2
vt 0 -2
vt -2 -2
vt 0 0
vt -2 0
vt -4.000107 0
vt -4.000107 -2
vt -4.000107 4
vt -4.000107 0
vt 4.000107 0
vt 4.000107 4
vt 4.000107 -2
vt 4.000107 0
vt -6.000107 0
vt -6.000107 -2
vt -6.000107 4
vt -6.000107 0
vt 6.000107 -2
vt 6.000107 0
vt 2.000007 0
vt 2.000007 4
vt 6.000112 0
vt 6.000112 4
vt -6.00006 -6.000102
vt -4.000113 -6.000105
vt 4.000113 -6.000105
vt 6.00006 -6.000102
vt -1.99993 4
vt -1.99993 0
vt -6.000032 4
vt -6.000032 0
vt 2.000101 -2.000014
vt 2.000107 -1.347096E-05
vt 4.054345E-06 4
vt 4.054345E-06 0
vt -2.000103 4
vt -2.000103 0
vt 2.000107 0
vt 2.000107 4
vt -2.000107 -1.347096E-05
vt -2.000101 -2.000014
vt -2 4
vt -2 0
vt -6.000114 4
vt -6.000114 0
vt -2.00009 -6.00012
vt 1.716645E-05 -6.000114
vt -1.716645E-05 -6.000114
vt 2.00009 -6.00012
vt 6.000114 0
vt 6.000114 4
vt -7.999991 4
vt -7.999991 0
vt -2.00008 -8.000113
vt 2.694161E-05 -8.000107
vt -2.694161E-05 -8.000107
vt 2.00008 -8.000113
vt 8.000103 0
vt 8.000103 4
vt -2.861407E-06 4
vt -2.861407E-06 0
vt -4.000099 4
vt -4.000099 0
vt 4.000134 -8.000095
vt -4.000134 -8.000095
vt -1.084697E-05 0
vt -1.084697E-05 4
vt 4.000096 0
vt 4.000096 4
vt 6.000027 -8.00009
vt -6.000027 -8.00009
vt 4.000111 0
vt 4.000111 4
vt 6.000004 0
vt 6.000004 4
vt 8.000107 0
vt 8.000107 4
vt 14.00011 0
vt 14.00011 4
vt -4.000136 -14.0001
vt -2.920659E-05 -14.00011
vt 2.920659E-05 -14.00011
vt 4.000136 -14.0001
vt -8.000096 4
vt -8.000096 0
vt -14.0001 4
vt -14.0001 0
vn 0 0 1
vn 0 0 1
vn 0 0 1
vn 0 0 1
vn -1 0 0
vn -1 0 0
vn -1 0 0
vn -1 0 0
vn 0 0 -1
vn 0 0 -1
vn 0 0 -1
vn 0 0 -1
vn 1 0 -2.980232E-06
vn 1 0 -2.980232E-06
vn 1 0 -2.980232E-06
vn 1 0 -2.980232E-06
vn 0 1 0
vn 0 1 0
vn 0 1 0
vn 0 1 0
vn 0 -1 0
vn 0 -1 0
vn 0 -1 0
vn 0 -1 0
vn 0 -1 0
vn 0 -1 0
vn 0 0 1
vn 0 0 1
vn 0 0 -1
vn 0 0 -1
vn 0 1 0
vn 0 1 0
vn 0 -1 0
vn 0 -1 0
vn 0 0 1
vn 0 0 1
vn 0 1 0
vn 0 1 0
vn 1 0 -1.668886E-06
vn 1 0 -1.668886E-06
vn 1 0 -1.668886E-06
vn 1 0 -1.668886E-06
vn 0 -1 0
vn 0 -1 0
vn 0 1 0
vn 0 1 0
vn -1 0 -1.168221E-05
vn -1 0 -1.168221E-05
vn -1 0 -1.168221E-05
vn -1 0 -1.168221E-05
vn 0 -1 0
vn 0 -1 0
vn -2.86087E-06 0 -1
vn -2.86087E-06 0 -1
vn -2.86087E-06 0 -1
vn -2.86087E-06 0 -1
vn 6.735119E-06 0 1
vn 6.735119E-06 0 1
vn 0 1 0
vn 0 1 0
vn -1 0 4.29149E-06
vn -1 0 4.29149E-06
vn -1 0 4.29149E-06
vn -1 0 4.29149E-06
vn 0 1 0
vn 0 1 0
vn 0 -1 0
vn 0 -1 0
vn 1 0 -2.92055E-06
vn 1 0 -2.92055E-06
vn -1 0 -1.645098E-05
vn -1 0 -1.645098E-05
vn 0 1 0
vn 0 1 0
vn 0 -1 0
vn 0 -1 0
vn 1 0 -4.8876E-06
vn 1 0 -4.8876E-06
vn 2.384128E-06 0 1
vn 2.384128E-06 0 1
vn 2.384128E-06 0 1
vn 2.384128E-06 0 1
vn 0 1 0
vn 0 -1 0
vn -2.860947E-06 0 -1
vn -2.860947E-06 0 -1
vn -2.860947E-06 0 -1
vn -2.860947E-06 0 -1
vn 0 1 0
vn 0 -1 0
vn -2.861176E-06 0 -1
vn -2.861176E-06 0 -1
vn -2.861176E-06 0 -1
vn -2.861176E-06 0 -1
vn 1 0 -3.774961E-07
vn 1 0 -3.774961E-07
vn 1 0 -3.774961E-07
vn 1 0 -3.774961E-07
vn 0 -1 0
vn 0 -1 0
vn 0 1 0
vn 0 1 0
vn -1 0 3.178914E-07
vn -1 0 3.178914E-07
vn -1 0 3.178914E-07
vn -1 0 3.178914E-07
g pb_Mesh304490_0
g pb_Mesh304490_1
f 3/3/3 2/2/2 1/1/1
f 3/3/3 4/4/4 2/2/2
f 7/7/7 6/6/6 5/5/5
f 7/7/7 8/8/8 6/6/6
f 11/11/11 10/10/10 9/9/9
f 11/11/11 12/12/12 10/10/10
f 15/15/15 14/14/14 13/13/13
f 15/15/15 16/16/16 14/14/14
f 19/19/19 18/18/18 17/17/17
f 19/19/19 20/20/20 18/18/18
f 23/23/23 22/22/22 21/21/21
f 23/23/23 24/24/24 22/22/22
f 25/25/25 22/22/22 24/24/24
f 25/25/25 26/26/26 22/22/22
f 27/27/27 2/2/2 4/4/4
f 27/27/27 28/28/28 2/2/2
f 29/29/29 11/11/11 9/9/9
f 29/29/29 30/30/30 11/11/11
f 31/31/31 18/18/18 20/20/20
f 31/31/31 32/32/32 18/18/18
f 33/33/33 26/26/26 25/25/25
f 33/33/33 34/34/34 26/26/26
f 35/35/35 28/28/28 27/27/27
f 35/35/35 36/36/36 28/28/28
f 37/37/37 32/32/32 31/31/31
f 37/37/37 38/38/38 32/32/32
f 41/41/41 40/40/40 39/39/39
f 41/41/41 42/42/42 40/40/40
f 43/43/43 26/26/26 34/34/34
f 43/43/43 44/44/44 26/26/26
f 45/45/45 37/37/37 31/31/31
f 45/45/45 46/46/46 37/37/37
f 49/49/49 48/48/48 47/47/47
f 49/49/49 50/50/50 48/48/48
f 51/51/51 23/23/23 21/21/21
f 51/51/51 52/52/52 23/23/23
f 55/55/55 54/54/54 53/53/53
f 55/55/55 56/56/56 54/54/54
f 57/57/57 3/3/3 1/1/1
f 57/57/57 58/58/58 3/3/3
f 59/59/59 19/19/19 17/17/17
f 59/59/59 60/60/60 19/19/19
f 63/63/63 62/62/62 61/61/61
f 63/63/63 64/64/64 62/62/62
f 65/65/65 19/19/19 60/60/60
f 65/65/65 66/66/66 19/19/19
f 67/67/67 51/51/51 21/21/21
f 67/67/67 68/68/68 51/51/51
f 69/69/69 15/15/15 13/13/13
f 69/69/69 70/70/70 15/15/15
f 71/71/71 50/50/50 49/49/49
f 71/71/71 72/72/72 50/50/50
f 73/73/73 66/66/66 65/65/65
f 73/73/73 74/74/74 66/66/66
f 75/75/75 68/68/68 67/67/67
f 75/75/75 76/76/76 68/68/68
f 77/77/77 70/70/70 69/69/69
f 77/77/77 78/78/78 70/70/70
f 81/81/81 80/80/80 79/79/79
f 81/81/81 82/82/82 80/80/80
f 83/83/83 66/66/66 74/74/74
f 83/83/83 45/45/45 66/66/66
f 44/44/44 75/75/75 67/67/67
f 44/44/44 84/84/84 75/75/75
f 87/87/87 86/86/86 85/85/85
f 87/87/87 88/88/88 86/86/86
f 89/89/89 45/45/45 83/83/83
f 89/89/89 46/46/46 45/45/45
f 43/43/43 84/84/84 44/44/44
f 43/43/43 90/90/90 84/84/84
f 93/93/93 92/92/92 91/91/91
f 93/93/93 94/94/94 92/92/92
f 97/97/97 96/96/96 95/95/95
f 97/97/97 98/98/98 96/96/96
f 99/99/99 75/75/75 84/84/84
f 99/99/99 100/100/100 75/75/75
f 101/101/101 83/83/83 74/74/74
f 101/101/101 102/102/102 83/83/83
f 105/105/105 104/104/104 103/103/103
f 105/105/105 106/106/106 104/104/104
