g pb_Mesh90736
v 4.999996 0 -74
v 4.999996 0 -69
v 3.999996 0 -74
v 3.999996 0 -69
v 4.999996 0 -69
v 4.999997 0 -65
v 3.999996 0 -69
v 3.999997 0 -65
v 3.999996 0 -74
v 3.999996 0 -69
v 1.999996 0 -74
v 1.999996 0 -69
v 3.999996 0 -69
v 3.999997 0 -65
v 1.999996 0 -69
v 1.999997 0 -65
v 1.999996 0 -74
v 1.999996 0 -69
v 0.999996 0 -74
v 0.9999963 0 -69
v 1.999996 0 -69
v 1.999997 0 -65
v 0.9999963 0 -69
v 0.9999965 0 -65
v 4.999997 0 -53
v 3.999997 0 -65
v 4.999997 0 -65
v 3.999997 0 -53
v 3.999997 0 -53
v 1.999997 0 -65
v 3.999997 0 -65
v 1.999997 0 -53
v 1.999997 0 -53
v 0.9999965 0 -65
v 1.999997 0 -65
v 0.9999973 0 -53
v 4.999998 0 -43
v 3.999997 0 -53
v 4.999997 0 -53
v 3.999998 0 -43
v 3.999998 0 -43
v 1.999997 0 -53
v 3.999997 0 -53
v 1.999998 0 -43
v 1.999998 0 -43
v 0.9999973 0 -53
v 1.999997 0 -53
v 0.9999979 0 -43
v 4.999999 0 -33
v 3.999998 0 -43
v 4.999998 0 -43
v 3.999999 0 -33
v 3.999999 0 -33
v 1.999998 0 -43
v 3.999998 0 -43
v 1.999998 0 -33
v 4.999999 0 -30
v 3.999999 0 -33
v 4.999999 0 -33
v 3.999999 0 -30
v 3.999999 0 -30
v 1.999998 0 -33
v 3.999999 0 -33
v 1.999999 0 -30
v 3.999999 0 -21
v 1.999999 0 -30
v 3.999999 0 -30
v 1.999999 0 -21
v 3.999999 0 -18
v 1.999999 0 -21
v 3.999999 0 -21
v 1.999999 0 -18
v -6.556511E-07 0 -18
v 1.999999 0 -21
v 1.999999 0 -18
v -8.34465E-07 0 -21
v 4 0 -3
v 1.999999 0 -18
v 3.999999 0 -18
v 2 0 -5
v 2 0 -5
v -6.556511E-07 0 -18
v 1.999999 0 -18
v -1.122813 0 -4.999999
v 6 0 1
v 2 0 -5
v 4 0 -3
v 2 0 -0.9999993
v 2 0 -0.9999993
v -1.122813 0 -4.999999
v 2 0 -5
v -2.676094 0 -0.9999991
v 7.000001 0 7
v 2 0 -0.9999993
v 6 0 1
v 2.000001 0 7
v 2.000001 0 7
v -2.676094 0 -0.9999991
v 2 0 -0.9999993
v -0.9999994 0 3.000001
v 4.17772 0 11.98601
v 2.000001 0 7
v 7.000001 0 7
v 2.000001 0 11
v 2.000001 0 11
v -0.9999994 0 3.000001
v 2.000001 0 7
v -0.1777174 0 10.01399
v 3.144778 0 15.3676
v 2.000001 0 11
v 4.17772 0 11.98601
v 1.000001 0 16
v 1.000001 0 16
v -0.1777174 0 10.01399
v 2.000001 0 11
v -1.144775 0 16.6324
v 3.000001 0 18
v 1.000001 0 16
v 3.144778 0 15.3676
v 2.000001 0 19
v 2.000001 0 19
v -1.144775 0 16.6324
v 1.000001 0 16
v 1.000002 0 20
v 6.916243 0 23.97201
v 2.000001 0 19
v 3.000001 0 18
v 4.000002 0 24
v 4.000002 0 24
v 1.000002 0 20
v 2.000001 0 19
v 1.083761 0 24.02799
v 7.515972 0 32
v 4.000002 0 24
v 6.916243 0 23.97201
v 3.000002 0 32
v 3.000002 0 32
v 1.083761 0 24.02799
v 4.000002 0 24
v -1.515967 0 32
v 8.000004 0 51.5
v 3.000002 0 32
v 7.515972 0 32
v 3.000004 0 51.5
v 3.000004 0 51.5
v -1.515967 0 32
v 3.000002 0 32
v -2.999996 0 51.5
v -7.242811 -1.891565E-08 5.158677
v -2.676094 0 -0.9999991
v -0.9999994 0 3.000001
v -8 0 2.000001
v -15.09346 -4.548095E-08 6.065114
v -8 0 2.000001
v -7.242811 -1.891565E-08 5.158677
v -13.90654 4.548097E-08 2.934889
v -21.23893 0 5.059438
v -13.90654 4.548097E-08 2.934889
v -15.09346 -4.548095E-08 6.065114
v -21.76107 0 1.940566
v -23.25224 6.596854E-08 8.149826
v -21.76107 0 1.940566
v -21.23893 0 5.059438
v -27 0 4.000002
v -24.08827 4.799588E-07 11.88888
v -27 0 4.000002
v -23.25224 6.596854E-08 8.149826
v -32 0 10
v -24 0 17
v -32 0 10
v -24.08827 4.799588E-07 11.88888
v -31 0 17
v -23 0 21
v -31 0 17
v -24 0 17
v -30 0 21
v -24.24711 0 25
v -30 0 21
v -23 0 21
v -26.75288 0 25
vt 0 0
vt 0 5
vt 1 0
vt 1 5
vt 0 0
vt -4.768372E-07 4
vt 1 0
vt 0.9999995 4
vt 2.384186E-07 0
vt 0 5
vt 2 0
vt 2 5
vt 4.768372E-07 0
vt 0 4
vt 2 0
vt 2 4
vt 3.576279E-07 0
vt 0 5
vt 1 0
vt 1 5
vt 2.384186E-07 0
vt 0 4
vt 1 0
vt 1 4
vt 0 12
vt 1 0
vt 4.768372E-07 0
vt 1 12
vt 0 12
vt 2 0
vt 4.768372E-07 0
vt 2 12
vt 0 12
vt 1.000001 0
vt 7.152557E-07 0
vt 1 12
vt 0 10
vt 1.000001 0
vt 9.536743E-07 0
vt 1 10
vt 0 10
vt 2 0
vt 7.152557E-07 0
vt 2 10
vt 0 10
vt 1.000001 0
vt 5.960464E-07 0
vt 1 10
vt 0 10
vt 1.000001 0
vt 4.768372E-07 0
vt 1 10
vt 0 10
vt 2.000001 0
vt 7.152557E-07 0
vt 2 10
vt 0 3
vt 1 0
vt 0 0
vt 1 3
vt 0 3
vt 2 0
vt 0 0
vt 2 3
vt 0 9
vt 2 0
vt 4.768372E-07 0
vt 2 9
vt 0 3
vt 2 0
vt 2.384186E-07 0
vt 2 3
vt 2 3
vt 1.192093E-07 0
vt 0 3
vt 2 0
vt 0 15
vt 2.000001 0
vt 7.152557E-07 0
vt 2 13
vt 0 13
vt 2.000001 0
vt 7.152557E-07 0
vt 3.122813 13
vt -4.768372E-07 6
vt 4 0
vt 2 2
vt 4 4
vt 0 4
vt 3.122814 9.536743E-07
vt 4.768372E-07 0
vt 4.676095 4.000001
vt 0 8
vt 5 2.384186E-07
vt 1 2
vt 5 8
vt -2.384186E-07 8
vt 4.676095 4.768372E-07
vt 4.768372E-07 2.384186E-07
vt 3 4
vt 2.822281 4.986013
vt 5 -4.768372E-07
vt 0 -4.768372E-07
vt 5 3.999999
vt 0 7.999999
vt 3 -2.384186E-07
vt 0 4
vt 2.177719 7.013985
vt 1.032942 4.367599
vt 2.177719 0
vt 0 0.9860144
vt 3.177719 5
vt 0.9999998 5.986013
vt 2.177719 -9.536743E-07
vt 0 0.9860134
vt 3.144776 6.618416
vt 0.1447768 2.632401
vt 2.144777 0.6324005
vt 0 -9.536743E-07
vt 1.144777 3.632401
vt 0 3
vt 3.144776 0.6324024
vt 1 0
vt 0.9999998 4
vt 0 5.97201
vt 4.916241 1
vt 3.916241 0
vt 2.916241 6
vt 0 5
vt 3 1
vt 2 0
vt 2.916241 5.02799
vt 0 8.027992
vt 3.51597 0.02799225
vt 0.5997291 1.907349E-06
vt 4.515969 8.027992
vt 0.9999995 8
vt 2.916241 0.02799034
vt 0 0
vt 5.515969 8
vt 0 19.5
vt 5.000001 0
vt 0.4840322 0
vt 5 19.5
vt 0 19.5
vt 4.51597 0
vt 1.192093E-06 0
vt 6 19.5
vt 6.242811 6.158676
vt 1.676095 0
vt 0 4
vt 7 3
vt 7.850649 4.065113
vt 0.7571893 2.384186E-07
vt 4.768372E-07 3.158676
vt 6.663729 0.9348884
vt 7.33239 3.118872
vt 9.536743E-07 0.9943233
vt 1.186921 4.124548
vt 7.854534 -2.384186E-07
vt 2.013311 6.20926
vt 0.5221424 -2.384186E-07
vt -1.907349E-06 3.118872
vt 5.76107 2.059436
vt 0.8360271 7.888874
vt 3.747759 -4.768372E-07
vt 0 4.149823
vt 8.747757 6
vt 0 7
vt 8 9.536743E-07
vt 0.08827019 1.888875
vt 7 7
vt 0 4
vt 8 0
vt 1 0
vt 7 4
vt 1.247116 4
vt 7 0
vt 0 0
vt 3.752884 4
vn 0 1 0
vn 0 1 0
vn 0 1 0
vn 0 1 0
vn 0 1 0
vn 0 1 0
vn 0 1 0
vn 0 1 0
vn 0 1 0
vn 0 1 0
vn 0 1 0
vn 0 1 0
vn 0 1 0
vn 0 1 0
vn 0 1 0
vn 0 1 0
vn 0 1 0
vn 0 1 0
vn 0 1 0
vn 0 1 0
vn 0 1 0
vn 0 1 0
vn 0 1 0
vn 0 1 0
vn 0 1 0
vn 0 1 0
vn 0 1 0
vn 0 1 0
vn 0 1 0
vn 0 1 0
vn 0 1 0
vn 0 1 0
vn 0 1 0
vn 0 1 0
vn 0 1 0
vn 0 1 0
vn 0 1 0
vn 0 1 0
vn 0 1 0
vn 0 1 0
vn 0 1 0
vn 0 1 0
vn 0 1 0
vn 0 1 0
vn 0 1 0
vn 0 1 0
vn 0 1 0
vn 0 1 0
vn 0 1 0
vn 0 1 0
vn 0 1 0
vn 0 1 0
vn 0 1 0
vn 0 1 0
vn 0 1 0
vn 0 1 0
vn 0 1 0
vn 0 1 0
vn 0 1 0
vn 0 1 0
vn 0 1 0
vn 0 1 0
vn 0 1 0
vn 0 1 0
vn 0 1 0
vn 0 1 0
vn 0 1 0
vn 0 0.9999999 0
vn 0 1 0
vn 0 1 0
vn 0 0.9999999 0
vn 0 1 0
vn 0 1 0
vn 0 1 0
vn 0 1 0
vn 0 1 0
vn 0 1 0
vn 0 1 0
vn 0 1 0
vn 0 0.9999999 0
vn 0 1 0
vn 0 1 0
vn 0 1 0
vn 0 1 0
vn 0 1 0
vn 0 1 0
vn 0 1 0
vn 0 1 0
vn 0 1 0
vn 0 1 0
vn 0 1 0
vn 0 1 0
vn 0 1 0
vn 0 1 0
vn 0 1 0
vn 0 1 0
vn 0 1 0
vn 0 1 0
vn 0 1 0
vn 0 1 0
vn 0 1 0
vn 0 1 0
vn 0 1 0
vn 0 1 0
vn 0 0.9999999 0
vn 0 0.9999999 0
vn 0 1 0
vn 0 1 0
vn 0 1 0
vn 0 1 0
vn 0 0.9999999 0
vn 0 1 0
vn 0 1 0
vn 0 1 0
vn 0 1 0
vn 0 1 0
vn 0 1 0
vn 0 1 0
vn 0 1 0
vn 0 1 0
vn 0 1 0
vn 0 1 0
vn 0 0.9999999 0
vn 0 1 0
vn 0 1 0
vn 0 1 0
vn 0 1 0
vn 0 0.9999999 0
vn 0 1 0
vn 0 1 0
vn 0 1 0
vn 0 1 0
vn 0 0.9999999 0
vn 0 0.9999999 0
vn 0 1 0
vn 0 1 0
vn 0 0.9999999 0
vn 0 0.9999999 0
vn 0 1 0
vn 0 1 0
vn 0 1 0
vn 0 1 0
vn 0 1 0
vn 0 1 0
vn 0 1 0
vn 0 1 0
vn 0 1 0
vn 0 1 0
vn -3.967419E-10 1 2.777195E-09
vn -3.967419E-10 1 2.777195E-09
vn -2.646528E-09 0.9999999 1.108958E-09
vn 2.972904E-09 1 5.27582E-09
vn 3.747731E-09 1 1.772775E-08
vn 3.747731E-09 1 1.772775E-08
vn -2.619891E-09 1 6.616509E-09
vn 1.308492E-08 1 3.402078E-08
vn -2.048303E-09 1 1.433811E-08
vn -2.048303E-09 1 1.433811E-08
vn 2.490772E-09 1 3.000368E-08
vn -5.915785E-09 0.9999999 9.90388E-10
vn 1.871113E-09 0.9999999 -1.017487E-08
vn 1.871113E-09 0.9999999 -1.017487E-08
vn 2.606743E-08 1 -4.364065E-09
vn -4.611782E-09 0.9999999 -1.173175E-08
vn -1.893118E-08 1 -5.385259E-08
vn -1.893118E-08 1 -5.385259E-08
vn 8.416032E-08 1 -9.190298E-08
vn -5.059766E-08 1 -4.216469E-08
vn -3.763492E-08 1 4.301134E-08
vn -3.763492E-08 1 4.301134E-08
vn -8.342732E-08 1 9.534553E-08
vn 0 1 0
vn 0 1 0
vn 0 1 0
vn 0 1 0
vn 0 1 0
vn 0 1 0
vn 0 1 0
vn 0 1 0
vn 0 1 0
g pb_Mesh90736_0
f 3/3/3 2/2/2 1/1/1
f 3/3/3 4/4/4 2/2/2
f 7/7/7 6/6/6 5/5/5
f 7/7/7 8/8/8 6/6/6
f 11/11/11 10/10/10 9/9/9
f 11/11/11 12/12/12 10/10/10
f 15/15/15 14/14/14 13/13/13
f 15/15/15 16/16/16 14/14/14
f 19/19/19 18/18/18 17/17/17
f 19/19/19 20/20/20 18/18/18
f 23/23/23 22/22/22 21/21/21
f 23/23/23 24/24/24 22/22/22
f 27/27/27 26/26/26 25/25/25
f 26/26/26 28/28/28 25/25/25
f 31/31/31 30/30/30 29/29/29
f 30/30/30 32/32/32 29/29/29
f 35/35/35 34/34/34 33/33/33
f 34/34/34 36/36/36 33/33/33
f 39/39/39 38/38/38 37/37/37
f 38/38/38 40/40/40 37/37/37
f 43/43/43 42/42/42 41/41/41
f 42/42/42 44/44/44 41/41/41
f 47/47/47 46/46/46 45/45/45
f 46/46/46 48/48/48 45/45/45
f 51/51/51 50/50/50 49/49/49
f 50/50/50 52/52/52 49/49/49
f 55/55/55 54/54/54 53/53/53
f 54/54/54 56/56/56 53/53/53
f 59/59/59 58/58/58 57/57/57
f 58/58/58 60/60/60 57/57/57
f 63/63/63 62/62/62 61/61/61
f 62/62/62 64/64/64 61/61/61
f 67/67/67 66/66/66 65/65/65
f 66/66/66 68/68/68 65/65/65
f 71/71/71 70/70/70 69/69/69
f 70/70/70 72/72/72 69/69/69
f 75/75/75 74/74/74 73/73/73
f 74/74/74 76/76/76 73/73/73
f 79/79/79 78/78/78 77/77/77
f 78/78/78 80/80/80 77/77/77
f 83/83/83 82/82/82 81/81/81
f 82/82/82 84/84/84 81/81/81
f 87/87/87 86/86/86 85/85/85
f 86/86/86 88/88/88 85/85/85
f 91/91/91 90/90/90 89/89/89
f 90/90/90 92/92/92 89/89/89
f 95/95/95 94/94/94 93/93/93
f 94/94/94 96/96/96 93/93/93
f 99/99/99 98/98/98 97/97/97
f 98/98/98 100/100/100 97/97/97
f 103/103/103 102/102/102 101/101/101
f 102/102/102 104/104/104 101/101/101
f 107/107/107 106/106/106 105/105/105
f 106/106/106 108/108/108 105/105/105
f 111/111/111 110/110/110 109/109/109
f 110/110/110 112/112/112 109/109/109
f 115/115/115 114/114/114 113/113/113
f 114/114/114 116/116/116 113/113/113
f 119/119/119 118/118/118 117/117/117
f 118/118/118 120/120/120 117/117/117
f 123/123/123 122/122/122 121/121/121
f 122/122/122 124/124/124 121/121/121
f 127/127/127 126/126/126 125/125/125
f 126/126/126 128/128/128 125/125/125
f 131/131/131 130/130/130 129/129/129
f 130/130/130 132/132/132 129/129/129
f 135/135/135 134/134/134 133/133/133
f 134/134/134 136/136/136 133/133/133
f 139/139/139 138/138/138 137/137/137
f 138/138/138 140/140/140 137/137/137
f 143/143/143 142/142/142 141/141/141
f 142/142/142 144/144/144 141/141/141
f 147/147/147 146/146/146 145/145/145
f 146/146/146 148/148/148 145/145/145
f 151/151/151 150/150/150 149/149/149
f 150/150/150 152/152/152 149/149/149
f 155/155/155 154/154/154 153/153/153
f 154/154/154 156/156/156 153/153/153
f 159/159/159 158/158/158 157/157/157
f 158/158/158 160/160/160 157/157/157
f 163/163/163 162/162/162 161/161/161
f 162/162/162 164/164/164 161/161/161
f 167/167/167 166/166/166 165/165/165
f 166/166/166 168/168/168 165/165/165
f 171/171/171 170/170/170 169/169/169
f 170/170/170 172/172/172 169/169/169
f 175/175/175 174/174/174 173/173/173
f 174/174/174 176/176/176 173/173/173
f 179/179/179 178/178/178 177/177/177
f 178/178/178 180/180/180 177/177/177
