g pb_Mesh1195292
v -8 0 33
v 4 0 22
v -8 0 23
v -2 0 19
v 3 0 12
v -7 0 8
v -12 0 10
v -12 0 -3
v 0 0 0
v -2 0 -6
v -2 1 -6
v 0 1 0
v -12 1 -3
v -7 1 8
v -12 1 10
v -2 1 19
v 3 1 12
v 4 1 22
v -8 1 23
v -8 1 33
v -2 0 -6
v 0 0 0
v -2 1 -6
v 0 1 0
v -12 0 -3
v -2 0 -6
v -12 1 -3
v -2 1 -6
v 0 0 0
v -7 0 8
v 0 1 0
v -7 1 8
v -12 0 10
v -12 0 -3
v -12 1 10
v -12 1 -3
v -2 0 19
v -12 0 10
v -2 1 19
v -12 1 10
v -7 0 8
v 3 0 12
v -7 1 8
v 3 1 12
v 3 0 12
v 4 0 22
v 3 1 12
v 4 1 22
v -8 0 23
v -2 0 19
v -8 1 23
v -2 1 19
v 4 0 22
v -8 0 33
v 4 1 22
v -8 1 33
v -8 0 33
v -8 0 23
v -8 1 33
v -8 1 23
vt -8 33
vt 4 22
vt -8 23
vt -2 19
vt 3 12
vt -7 8
vt -12 10
vt -12 -3
vt 0 0
vt -2 -6
vt 2 -6
vt 0 0
vt 12 -3
vt 7 8
vt 12 10
vt 2 19
vt -3 12
vt -4 22
vt 8 23
vt 8 33
vt 6.324555 0
vt 0 0
vt 6.324555 1
vt 0 1
vt 10.63187 0
vt 0.1915652 0
vt 10.63187 1
vt 0.1915652 1
vt 0 0
vt -10.63015 0
vt 0 1
vt -10.63015 1
vt 10 0
vt -3 0
vt 10 1
vt -3 1
vt 11.22374 0
vt -2.229883 0
vt 11.22374 1
vt -2.229883 1
vt 3.528212 0
vt -7.242118 0
vt 3.528212 1
vt -7.242118 1
vt -12.23896 0
vt -22.28883 0
vt -12.23896 1
vt -22.28883 1
vt 19.41451 0
vt 12.2034 0
vt 19.41451 1
vt 12.2034 1
vt -11.91733 0
vt -28.19615 0
vt -11.91733 1
vt -28.19615 1
vt 33 0
vt 23 0
vt 33 1
vt 23 1
vn 0 -1 0
vn 0 -1 0
vn 0 -1 0
vn 0 -1 0
vn 0 -1 0
vn 0 -1 0
vn 0 -1 0
vn 0 -1 0
vn 0 -1 0
vn 0 -1 0
vn 0 1 0
vn 0 1 0
vn 0 1 0
vn 0 1 0
vn 0 1 0
vn 0 1 0
vn 0 1 0
vn 0 1 0
vn 0 1 0
vn 0 1 0
vn 0.9486833 0 -0.3162278
vn 0.9486833 0 -0.3162278
vn 0.9486833 0 -0.3162278
vn 0.9486833 0 -0.3162278
vn -0.2873479 0 -0.9578263
vn -0.2873479 0 -0.9578263
vn -0.2873479 0 -0.9578263
vn -0.2873479 0 -0.9578263
vn 0.7525767 0 0.6585046
vn 0.7525767 0 0.6585046
vn 0.7525767 0 0.6585046
vn 0.7525767 0 0.6585046
vn -1 0 0
vn -1 0 0
vn -1 0 0
vn -1 0 0
vn -0.6689647 0 0.7432942
vn -0.6689647 0 0.7432942
vn -0.6689647 0 0.7432942
vn -0.6689647 0 0.7432942
vn 0.3713907 0 -0.9284767
vn 0.3713907 0 -0.9284767
vn 0.3713907 0 -0.9284767
vn 0.3713907 0 -0.9284767
vn 0.9950372 0 -0.09950373
vn 0.9950372 0 -0.09950373
vn 0.9950372 0 -0.09950373
vn 0.9950372 0 -0.09950373
vn -0.5547002 0 -0.8320503
vn -0.5547002 0 -0.8320503
vn -0.5547002 0 -0.8320503
vn -0.5547002 0 -0.8320503
vn 0.6757246 0 0.7371542
vn 0.6757246 0 0.7371542
vn 0.6757246 0 0.7371542
vn 0.6757246 0 0.7371542
vn -1 0 0
vn -1 0 0
vn -1 0 0
vn -1 0 0
g pb_Mesh1195292_0
g pb_Mesh1195292_1
f 3/3/3 2/2/2 1/1/1
f 3/3/3 4/4/4 2/2/2
f 4/4/4 5/5/5 2/2/2
f 6/6/6 5/5/5 4/4/4
f 7/7/7 6/6/6 4/4/4
f 7/7/7 8/8/8 6/6/6
f 8/8/8 9/9/9 6/6/6
f 10/10/10 9/9/9 8/8/8
f 13/13/13 12/12/12 11/11/11
f 14/14/14 12/12/12 13/13/13
f 14/14/14 13/13/13 15/15/15
f 16/16/16 14/14/14 15/15/15
f 16/16/16 17/17/17 14/14/14
f 18/18/18 17/17/17 16/16/16
f 18/18/18 16/16/16 19/19/19
f 20/20/20 18/18/18 19/19/19
f 23/23/23 22/22/22 21/21/21
f 23/23/23 24/24/24 22/22/22
f 27/27/27 26/26/26 25/25/25
f 27/27/27 28/28/28 26/26/26
f 31/31/31 30/30/30 29/29/29
f 31/31/31 32/32/32 30/30/30
f 35/35/35 34/34/34 33/33/33
f 35/35/35 36/36/36 34/34/34
f 39/39/39 38/38/38 37/37/37
f 39/39/39 40/40/40 38/38/38
f 43/43/43 42/42/42 41/41/41
f 43/43/43 44/44/44 42/42/42
f 47/47/47 46/46/46 45/45/45
f 47/47/47 48/48/48 46/46/46
f 51/51/51 50/50/50 49/49/49
f 51/51/51 52/52/52 50/50/50
f 55/55/55 54/54/54 53/53/53
f 55/55/55 56/56/56 54/54/54
f 59/59/59 58/58/58 57/57/57
f 59/59/59 60/60/60 58/58/58
