g pb_Mesh45096
v -8 0 -20
v -8 0 -32
v -8 2 -20
v -8 2 -32
v 0 0 -30
v 0 0 -20
v 0 2 -30
v 0 2 -20
v 0 0 -20
v -4 0 -20
v -4 2 -20
v 0 2 -20
v -8 0 -20
v -8 2 -20
v -8 2 -32
v -4 0 -32
v -4 2 -32
v -8 0 -32
v -4 2 -32
v 0 0 -30
v 0 2 -30
v -4 0 -32
v -4 2 -32
v 0 2 -30
v 0 2 -20
v -4 2 -20
v -8 2 -32
v -8 2 -20
v 0 0 -20
v -4 0 -32
v -4 0 -20
v 0 0 -30
v -8 0 -32
v -8 0 -20
vt -20 0
vt -32 0
vt -20 2
vt -32 2
vt 30 0
vt 20 0
vt 30 2
vt 20 2
vt 0 0
vt -4 0
vt -4 2
vt 0 2
vt -8 0
vt -8 2
vt 8 2
vt 4 0
vt 4 2
vt 8 0
vt 17.88854 2
vt 13.41641 0
vt 13.41641 2
vt 17.88854 0
vt 4 -32
vt 0 -30
vt 0 -20
vt 4 -20
vt 8 -32
vt 8 -20
vt 0 -20
vt -4 -32
vt -4 -20
vt 0 -30
vt -8 -32
vt -8 -20
vn -1 0 0
vn -1 0 0
vn -1 0 0
vn -1 0 0
vn 1 0 0
vn 1 0 0
vn 1 0 0
vn 1 0 0
vn 0 0 1
vn 0 0 1
vn 0 0 1
vn 0 0 1
vn 0 0 1
vn 0 0 1
vn 0 0 -1
vn 0 0 -1
vn 0 0 -1
vn 0 0 -1
vn 0.4472136 0 -0.8944272
vn 0.4472136 0 -0.8944272
vn 0.4472136 0 -0.8944272
vn 0.4472136 0 -0.8944272
vn 0 1 0
vn 0 1 0
vn 0 1 0
vn 0 1 0
vn 0 1 0
vn 0 1 0
vn 0 -1 0
vn 0 -1 0
vn 0 -1 0
vn 0 -1 0
vn 0 -1 0
vn 0 -1 0
g pb_Mesh45096_0
f 3/3/3 2/2/2 1/1/1
f 3/3/3 4/4/4 2/2/2
f 7/7/7 6/6/6 5/5/5
f 7/7/7 8/8/8 6/6/6
f 11/11/11 10/10/10 9/9/9
f 11/11/11 9/9/9 12/12/12
f 14/14/14 13/13/13 10/10/10
f 14/14/14 10/10/10 11/11/11
f 17/17/17 16/16/16 15/15/15
f 16/16/16 18/18/18 15/15/15
f 21/21/21 20/20/20 19/19/19
f 20/20/20 22/22/22 19/19/19
f 25/25/25 24/24/24 23/23/23
f 25/25/25 23/23/23 26/26/26
f 26/26/26 23/23/23 27/27/27
f 26/26/26 27/27/27 28/28/28
f 31/31/31 30/30/30 29/29/29
f 30/30/30 32/32/32 29/29/29
f 34/34/34 33/33/33 31/31/31
f 33/33/33 30/30/30 31/31/31
