g pb_Mesh50396
v 0 -13 4
v -20 -13 4
v 0 32 4
v -20 32 4
v -16 -13 -4
v 0 -13 -4
v -16 32 -4
v 0 32 -4
v -20 -13 4
v -20 -13 0
v -20 32 0
v -20 32 4
v -20 -13 0
v -16 -13 -4
v -16 32 -4
v -20 32 0
v 0 32 -4
v 0 -13 0
v 0 32 0
v 0 -13 -4
v 0 -13 4
v 0 32 4
v -20 32 0
v 0 32 0
v 0 32 4
v -20 32 4
v -16 32 -4
v 0 32 -4
v 0 -13 0
v -16 -13 -4
v -20 -13 0
v 0 -13 -4
v 0 -13 4
v -20 -13 4
vt 0 -13
vt -20 -13
vt 0 32
vt -20 32
vt 16 -13
vt 0 -13
vt 16 32
vt 0 32
vt 12.52198 -13
vt 8.944272 -13
vt 8.944272 32
vt 12.52198 32
vt 8.944272 -13
vt 3.577709 -13
vt 3.577709 32
vt 8.944272 32
vt -4 32
vt 0 -13
vt 0 32
vt -4 -13
vt 4 -13
vt 4 32
vt 20 0
vt 0 0
vt 0 4
vt 20 4
vt 16 -4
vt 0 -4
vt 0 0
vt 16 -4
vt 20 0
vt 0 -4
vt 0 4
vt 20 4
vn 0 0 1
vn 0 0 1
vn 0 0 1
vn 0 0 1
vn 0 0 -1
vn 0 0 -1
vn 0 0 -1
vn 0 0 -1
vn -1 0 0
vn -1 0 0
vn -1 0 0
vn -1 0 0
vn -0.7071068 0 -0.7071068
vn -0.7071068 0 -0.7071068
vn -0.7071068 0 -0.7071068
vn -0.7071068 0 -0.7071068
vn 1 0 0
vn 1 0 0
vn 1 0 0
vn 1 0 0
vn 1 0 0
vn 1 0 0
vn 0 1 0
vn 0 1 0
vn 0 1 0
vn 0 1 0
vn 0 1 0
vn 0 1 0
vn 0 -1 0
vn 0 -1 0
vn 0 -1 0
vn 0 -1 0
vn 0 -1 0
vn 0 -1 0
g pb_Mesh50396_0
f 3/3/3 2/2/2 1/1/1
f 3/3/3 4/4/4 2/2/2
f 7/7/7 6/6/6 5/5/5
f 7/7/7 8/8/8 6/6/6
f 11/11/11 10/10/10 9/9/9
f 11/11/11 9/9/9 12/12/12
f 15/15/15 14/14/14 13/13/13
f 15/15/15 13/13/13 16/16/16
f 19/19/19 18/18/18 17/17/17
f 18/18/18 20/20/20 17/17/17
f 22/22/22 21/21/21 19/19/19
f 21/21/21 18/18/18 19/19/19
f 25/25/25 24/24/24 23/23/23
f 25/25/25 23/23/23 26/26/26
f 24/24/24 28/28/28 27/27/27
f 24/24/24 27/27/27 23/23/23
f 31/31/31 30/30/30 29/29/29
f 30/30/30 32/32/32 29/29/29
f 34/34/34 31/31/31 33/33/33
f 31/31/31 29/29/29 33/33/33
