g pb_Mesh370932
v 8.940697E-08 0 2.980232E-07
v 2 0 0
v 0 0.125 0
v 2 0.125 0
v 0 0.125 0
v 2 0.125 0
v 0 0.125 0.25
v 2 0.125 0.25
v 0 0.125 0.25
v 2 0.125 0.25
v 0 0.25 0.25
v 2 0.25 0.25
v 0 0.25 0.25
v 2 0.25 0.25
v 0 0.25 0.5
v 2 0.25 0.5
v 0 0.25 0.5
v 2 0.25 0.5
v 0 0.375 0.5
v 2 0.375 0.5
v 0 0.375 0.5
v 2 0.375 0.5
v 0 0.375 0.75
v 2 0.375 0.75
v 0 0.375 0.75
v 2 0.375 0.75
v 0 0.5 0.75
v 2 0.5 0.75
v 0 0.5 0.75
v 2 0.5 0.75
v 0 0.5 1
v 2 0.5 1
v 0 0.5 1
v 2 0.5 1
v 0 0.625 1
v 2 0.625 1
v 0 0.625 1
v 2 0.625 1
v 0 0.625 1.25
v 2 0.625 1.25
v 0 0.625 1.25
v 2 0.625 1.25
v 0 0.75 1.25
v 2 0.75 1.25
v 0 0.75 1.25
v 2 0.75 1.25
v 0 0.75 1.5
v 2 0.75 1.5
v 0 0.75 1.5
v 2 0.75 1.5
v 0 0.875 1.5
v 2 0.875 1.5
v 0 0.875 1.5
v 2 0.875 1.5
v 0 0.875 1.75
v 2 0.875 1.75
v 0 0.875 1.75
v 2 0.875 1.75
v 0 1 1.75
v 2 1 1.75
v 0 1 1.75
v 2 1 1.75
v 0 1 2
v 2 1 2
v 0 1 2
v 2 1 2
v 0 1.125 2
v 2 1.125 2
v 0 1.125 2
v 2 1.125 2
v 0 1.125 2.25
v 2 1.125 2.25
v 0 1.125 2.25
v 2 1.125 2.25
v 0 1.25 2.25
v 2 1.25 2.25
v 0 1.25 2.25
v 2 1.25 2.25
v 0 1.25 2.5
v 2 1.25 2.5
v 0 1.25 2.5
v 2 1.25 2.5
v 0 1.375 2.5
v 2 1.375 2.5
v 0 1.375 2.5
v 2 1.375 2.5
v 0 1.375 2.75
v 2 1.375 2.75
v 0 1.375 2.75
v 2 1.375 2.75
v 0 1.5 2.75
v 2 1.5 2.75
v 0 1.5 2.75
v 2 1.5 2.75
v 0 1.5 3
v 2 1.5 3
v 0 1.5 3
v 2 1.5 3
v 0 1.625 3
v 2 1.625 3
v 0 1.625 3
v 2 1.625 3
v 0 1.625 3.25
v 2 1.625 3.25
v 0 1.625 3.25
v 2 1.625 3.25
v 0 1.75 3.25
v 2 1.75 3.25
v 0 1.75 3.25
v 2 1.75 3.25
v 0 1.75 3.5
v 2 1.75 3.5
v 0 1.75 3.5
v 2 1.75 3.5
v 0 1.875 3.5
v 2 1.875 3.5
v 0 1.875 3.5
v 2 1.875 3.5
v 0 1.875 3.75
v 2 1.875 3.75
v 0 1.875 3.75
v 2 1.875 3.75
v 0 2 3.75
v 2 2 3.75
v 0 2 3.75
v 2 2 3.75
v 2.086163E-07 2.00005 4
v 2 2 4
v 8.940697E-08 0 2.980232E-07
v 2.00005 0 -2
v 2 0 0
v 4.172325E-07 0 4
v 2.000051 0 6
v 2.000001 0 4
v 1.788139E-07 -2 5.960464E-07
v 2.000001 0 4
v 2.000101 -2 4.768312E-07
v 4.172325E-07 0 4
v 2.0001 -2 -2
v 1.788139E-07 -2 5.960464E-07
v 2.000101 -2 4.768312E-07
v -4.000003 -9.918213E-05 4
v -4.000004 -9.918213E-05 6
vt -8.940692E-08 -7.105428E-13
vt -2 -7.105429E-13
vt 0 0.125
vt -2 0.125
vt 0 0
vt -2 0
vt 0 0.25
vt -2 0.25
vt 0 0.125
vt -2 0.125
vt 0 0.25
vt -2 0.25
vt 0 0.25
vt -2 0.25
vt 0 0.5
vt -2 0.5
vt 0 0.25
vt -2 0.25
vt 0 0.375
vt -2 0.375
vt 0 0.5
vt -2 0.5
vt 0 0.75
vt -2 0.75
vt 0 0.375
vt -2 0.375
vt 0 0.5
vt -2 0.5
vt 0 0.75
vt -2 0.75
vt 0 1
vt -2 1
vt 0 0.5
vt -2 0.5
vt 0 0.625
vt -2 0.625
vt 0 1
vt -2 1
vt 0 1.25
vt -2 1.25
vt 0 0.625
vt -2 0.625
vt 0 0.75
vt -2 0.75
vt 0 1.25
vt -2 1.25
vt 0 1.5
vt -2 1.5
vt 0 0.75
vt -2 0.75
vt 0 0.875
vt -2 0.875
vt 0 1.5
vt -2 1.5
vt 0 1.75
vt -2 1.75
vt 0 0.875
vt -2 0.875
vt 0 1
vt -2 1
vt 0 1.75
vt -2 1.75
vt 0 2
vt -2 2
vt 0 1
vt -2 1
vt 0 1.125
vt -2 1.125
vt 0 2
vt -2 2
vt 0 2.25
vt -2 2.25
vt 0 1.125
vt -2 1.125
vt 0 1.25
vt -2 1.25
vt 0 2.25
vt -2 2.25
vt 0 2.5
vt -2 2.5
vt 0 1.25
vt -2 1.25
vt 0 1.375
vt -2 1.375
vt 0 2.5
vt -2 2.5
vt 0 2.75
vt -2 2.75
vt 0 1.375
vt -2 1.375
vt 0 1.5
vt -2 1.5
vt 0 2.75
vt -2 2.75
vt 0 3
vt -2 3
vt 0 1.5
vt -2 1.5
vt 0 1.625
vt -2 1.625
vt 0 3
vt -2 3
vt 0 3.25
vt -2 3.25
vt 0 1.625
vt -2 1.625
vt 0 1.75
vt -2 1.75
vt 0 3.25
vt -2 3.25
vt 0 3.5
vt -2 3.5
vt 0 1.75
vt -2 1.75
vt 0 1.875
vt -2 1.875
vt 0 3.5
vt -2 3.5
vt 0 3.75
vt -2 3.75
vt 0 1.875
vt -2 1.875
vt 0 2
vt -2 2
vt 0 3.750397
vt -2 3.750397
vt -2.086163E-07 4.000397
vt -2 4.000397
vt -8.940697E-08 2.980232E-07
vt -2.00005 -2
vt -2 0
vt 4.172325E-07 4
vt 2.000051 6
vt 2.000001 4
vt 1.192093E-07 -0.8944266
vt 2.000001 3.577709
vt 2.000101 -0.8944268
vt 4.172325E-07 3.577709
vt 2.0001 -2
vt 1.788139E-07 5.960464E-07
vt 2.000101 4.768312E-07
vt -4.000003 4
vt -4.000004 6
vn -1.490116E-07 -2.384186E-06 -1
vn -7.450581E-08 -1.192093E-06 -1
vn -7.450581E-08 -1.192093E-06 -1
vn 0 0 -1
vn 0 1 0
vn 0 1 0
vn 0 1 0
vn 0 1 0
vn 0 0 -1
vn 0 0 -1
vn 0 0 -1
vn 0 0 -1
vn 0 1 0
vn 0 1 0
vn 0 1 0
vn 0 1 0
vn 0 0 -1
vn 0 0 -1
vn 0 0 -1
vn 0 0 -1
vn 0 1 0
vn 0 1 0
vn 0 1 0
vn 0 1 0
vn 0 0 -1
vn 0 0 -1
vn 0 0 -1
vn 0 0 -1
vn 0 1 0
vn 0 1 0
vn 0 1 0
vn 0 1 0
vn 0 0 -1
vn 0 0 -1
vn 0 0 -1
vn 0 0 -1
vn 0 1 0
vn 0 1 0
vn 0 1 0
vn 0 1 0
vn 0 0 -1
vn 0 0 -1
vn 0 0 -1
vn 0 0 -1
vn 0 1 0
vn 0 1 0
vn 0 1 0
vn 0 1 0
vn 0 0 -1
vn 0 0 -1
vn 0 0 -1
vn 0 0 -1
vn 0 1 0
vn 0 1 0
vn 0 1 0
vn 0 1 0
vn 0 0 -1
vn 0 0 -1
vn 0 0 -1
vn 0 0 -1
vn 0 1 0
vn 0 1 0
vn 0 1 0
vn 0 1 0
vn 0 0 -1
vn 0 0 -1
vn 0 0 -1
vn 0 0 -1
vn 0 1 0
vn 0 1 0
vn 0 1 0
vn 0 1 0
vn 0 0 -1
vn 0 0 -1
vn 0 0 -1
vn 0 0 -1
vn 0 1 0
vn 0 1 0
vn 0 1 0
vn 0 1 0
vn 0 0 -1
vn 0 0 -1
vn 0 0 -1
vn 0 0 -1
vn 0 1 0
vn 0 1 0
vn 0 1 0
vn 0 1 0
vn 0 0 -1
vn 0 0 -1
vn 0 0 -1
vn 0 0 -1
vn 0 1 0
vn 0 1 0
vn 0 1 0
vn 0 1 0
vn 0 0 -1
vn 0 0 -1
vn 0 0 -1
vn 0 0 -1
vn 0 1 0
vn 0 1 0
vn 0 1 0
vn 0 1 0
vn 0 0 -1
vn 0 0 -1
vn 0 0 -1
vn 0 0 -1
vn 0 1 0
vn 0 1 0
vn 0 1 0
vn 0 1 0
vn 0 0 -1
vn 0 0 -1
vn 0 0 -1
vn 0 0 -1
vn 0 1 0
vn 0 1 0
vn 0 1 0
vn 0 1 0
vn 0 0 -1
vn 0 0 -1
vn 0 0 -1
vn 0 0 -1
vn 0 1 -0.0001983643
vn 1.239777E-05 1 -9.918213E-05
vn 1.239777E-05 1 -9.918213E-05
vn 2.479554E-05 1 0
vn 0 1 0
vn 0 1 0
vn 0 1 0
vn 0 -1 0
vn 0 -1 0
vn 0 -1 0
vn 1.3328E-08 -0.8944272 0.4472136
vn 1.3328E-08 -0.8944272 0.4472136
vn 2.665601E-08 -0.8944272 0.4472136
vn 0 -0.8944272 0.4472136
vn 0 -1 0
vn 0 -1 0
vn 0 -1 0
vn 2.066286E-05 -1 -1.239807E-05
vn 1.65302E-05 -1 7.882215E-12
g pb_Mesh370932_0
g pb_Mesh370932_1
f 3/3/3 2/2/2 1/1/1
f 3/3/3 4/4/4 2/2/2
f 7/7/7 6/6/6 5/5/5
f 7/7/7 8/8/8 6/6/6
f 11/11/11 10/10/10 9/9/9
f 11/11/11 12/12/12 10/10/10
f 15/15/15 14/14/14 13/13/13
f 15/15/15 16/16/16 14/14/14
f 19/19/19 18/18/18 17/17/17
f 19/19/19 20/20/20 18/18/18
f 23/23/23 22/22/22 21/21/21
f 23/23/23 24/24/24 22/22/22
f 27/27/27 26/26/26 25/25/25
f 27/27/27 28/28/28 26/26/26
f 31/31/31 30/30/30 29/29/29
f 31/31/31 32/32/32 30/30/30
f 35/35/35 34/34/34 33/33/33
f 35/35/35 36/36/36 34/34/34
f 39/39/39 38/38/38 37/37/37
f 39/39/39 40/40/40 38/38/38
f 43/43/43 42/42/42 41/41/41
f 43/43/43 44/44/44 42/42/42
f 47/47/47 46/46/46 45/45/45
f 47/47/47 48/48/48 46/46/46
f 51/51/51 50/50/50 49/49/49
f 51/51/51 52/52/52 50/50/50
f 55/55/55 54/54/54 53/53/53
f 55/55/55 56/56/56 54/54/54
f 59/59/59 58/58/58 57/57/57
f 59/59/59 60/60/60 58/58/58
f 63/63/63 62/62/62 61/61/61
f 63/63/63 64/64/64 62/62/62
f 67/67/67 66/66/66 65/65/65
f 67/67/67 68/68/68 66/66/66
f 71/71/71 70/70/70 69/69/69
f 71/71/71 72/72/72 70/70/70
f 75/75/75 74/74/74 73/73/73
f 75/75/75 76/76/76 74/74/74
f 79/79/79 78/78/78 77/77/77
f 79/79/79 80/80/80 78/78/78
f 83/83/83 82/82/82 81/81/81
f 83/83/83 84/84/84 82/82/82
f 87/87/87 86/86/86 85/85/85
f 87/87/87 88/88/88 86/86/86
f 91/91/91 90/90/90 89/89/89
f 91/91/91 92/92/92 90/90/90
f 95/95/95 94/94/94 93/93/93
f 95/95/95 96/96/96 94/94/94
f 99/99/99 98/98/98 97/97/97
f 99/99/99 100/100/100 98/98/98
f 103/103/103 102/102/102 101/101/101
f 103/103/103 104/104/104 102/102/102
f 107/107/107 106/106/106 105/105/105
f 107/107/107 108/108/108 106/106/106
f 111/111/111 110/110/110 109/109/109
f 111/111/111 112/112/112 110/110/110
f 115/115/115 114/114/114 113/113/113
f 115/115/115 116/116/116 114/114/114
f 119/119/119 118/118/118 117/117/117
f 119/119/119 120/120/120 118/118/118
f 123/123/123 122/122/122 121/121/121
f 123/123/123 124/124/124 122/122/122
f 127/127/127 126/126/126 125/125/125
f 127/127/127 128/128/128 126/126/126
f 131/131/131 130/130/130 129/129/129
f 134/134/134 133/133/133 132/132/132
f 137/137/137 136/136/136 135/135/135
f 136/136/136 138/138/138 135/135/135
f 141/141/141 140/140/140 139/139/139
f 132/132/132 133/133/133 142/142/142
f 133/133/133 143/143/143 142/142/142
