g pb_Mesh385398
v 0.456604 2.87936 -0.08444595
v -3.456604 2.87936 -0.08444595
v 0.456604 2.87936 -3.974937
v -3.456604 2.87936 -3.974937
v 0.456604 -3.320641 -3.974937
v -3.456604 -3.320641 -3.974937
v 0.456604 -3.320641 -0.08444595
v -3.456604 -3.320641 -0.08444595
v 0.456604 -3.320641 -0.08444595
v -3.456604 -3.320641 -0.08444595
v -4.335106 -0.2206421 0.8093185
v 1.335106 -0.2206421 0.8093185
v 1.335106 -0.2206421 0.8093185
v -4.335106 -0.2206421 0.8093185
v -3.456604 2.87936 -0.08444595
v 0.456604 2.87936 -0.08444595
v -3.456604 -3.320641 -0.08444595
v -3.456604 -3.320641 -3.974937
v -4.335106 -0.2206421 -4.868698
v -4.335106 -0.2206421 0.8093185
v -4.335106 -0.2206421 0.8093185
v -4.335106 -0.2206421 -4.868698
v -3.456604 2.87936 -3.974937
v -3.456604 2.87936 -0.08444595
v -4.335106 -0.2206421 -4.868698
v 0.456604 -3.320641 -3.974937
v 1.335106 -0.2206421 -4.868698
v -3.456604 -3.320641 -3.974937
v -3.456604 2.87936 -3.974937
v 1.335106 -0.2206421 -4.868698
v 0.456604 2.87936 -3.974937
v -4.335106 -0.2206421 -4.868698
v 1.335106 -0.2206421 -4.868698
v 0.456604 -3.320641 -0.08444595
v 1.335106 -0.2206421 0.8093185
v 0.456604 -3.320641 -3.974937
v 0.456604 2.87936 -3.974937
v 1.335106 -0.2206421 0.8093185
v 0.456604 2.87936 -0.08444595
v 1.335106 -0.2206421 -4.868698
vt -0.456604 -0.08444595
vt 3.456604 -0.08444595
vt -0.456604 -3.974937
vt 3.456604 -3.974937
vt 0.456604 -3.974937
vt -3.456604 -3.974937
vt 0.456604 -0.08444595
vt -3.456604 -0.08444595
vt 0.456604 -3.320641
vt -3.456604 -3.320641
vt -4.335106 -0.220642
vt 1.335106 -0.220642
vt 1.335106 -0.220642
vt -4.335106 -0.220642
vt -3.456604 2.87936
vt 0.456604 2.87936
vt -0.08444595 -3.32064
vt -3.974937 -3.32064
vt -4.868698 -0.2206413
vt 0.8093185 -0.2206413
vt 0.8093185 -0.2206413
vt -4.868698 -0.2206413
vt -3.974937 2.879361
vt -0.08444595 2.879361
vt 4.335106 -0.2206413
vt -0.456604 -3.32064
vt -1.335106 -0.2206413
vt 3.456604 -3.32064
vt 3.456604 2.879361
vt -1.335106 -0.2206413
vt -0.456604 2.879361
vt 4.335106 -0.2206413
vt 4.868698 -0.2206419
vt 0.08444595 -3.320641
vt -0.8093185 -0.2206419
vt 3.974937 -3.320641
vt 3.974937 2.87936
vt -0.8093185 -0.2206419
vt 0.08444595 2.87936
vt 4.868698 -0.2206419
vn 0 1 0
vn 0 1 0
vn 0 1 0
vn 0 1 0
vn 0 -1 0
vn 0 -1 0
vn 0 -1 0
vn 0 -1 0
vn 0 -0.2770274 0.960862
vn 0 -0.2770274 0.960862
vn 0 -0.2770274 0.960862
vn 0 -0.2770273 0.960862
vn 0 0.277027 0.9608621
vn 0 0.277027 0.9608621
vn 0 0.277027 0.9608621
vn 0 0.277027 0.9608621
vn -0.962113 -0.2726511 0
vn -0.962113 -0.2726511 0
vn -0.962113 -0.2726511 0
vn -0.962113 -0.2726511 0
vn -0.9621131 0.2726508 0
vn -0.9621131 0.2726508 0
vn -0.9621131 0.2726508 0
vn -0.9621131 0.2726508 0
vn 0 -0.2770263 -0.9608623
vn 0 -0.2770263 -0.9608623
vn 0 -0.2770263 -0.9608623
vn 0 -0.2770263 -0.9608623
vn 0 0.277026 -0.9608625
vn 0 0.277026 -0.9608625
vn 0 0.277026 -0.9608625
vn 0 0.277026 -0.9608625
vn 0.962113 -0.2726511 0
vn 0.962113 -0.2726511 0
vn 0.962113 -0.2726511 0
vn 0.962113 -0.2726511 0
vn 0.9621131 0.2726508 0
vn 0.9621131 0.2726508 0
vn 0.9621131 0.2726508 0
vn 0.9621131 0.2726508 0
g pb_Mesh385398_0
f 3/3/3 2/2/2 1/1/1
f 3/3/3 4/4/4 2/2/2
f 7/7/7 6/6/6 5/5/5
f 7/7/7 8/8/8 6/6/6
f 11/11/11 10/10/10 9/9/9
f 11/11/11 9/9/9 12/12/12
f 15/15/15 14/14/14 13/13/13
f 15/15/15 13/13/13 16/16/16
f 19/19/19 18/18/18 17/17/17
f 19/19/19 17/17/17 20/20/20
f 23/23/23 22/22/22 21/21/21
f 23/23/23 21/21/21 24/24/24
f 27/27/27 26/26/26 25/25/25
f 26/26/26 28/28/28 25/25/25
f 31/31/31 30/30/30 29/29/29
f 30/30/30 32/32/32 29/29/29
f 35/35/35 34/34/34 33/33/33
f 34/34/34 36/36/36 33/33/33
f 39/39/39 38/38/38 37/37/37
f 38/38/38 40/40/40 37/37/37
