g pb_Mesh125520
v 31 -2.25 0.2500021
v -1.000001 -2.25 0.2500002
v 31 2.25 0.2500021
v -1.000001 2.25 0.2500002
v -1.000001 -2.25 0.2500002
v -1.000001 -2.25 -0.2499998
v -1.000001 2.25 0.2500002
v -1.000001 1.75 -0.2499998
v -1.000001 -2.25 -0.2499998
v 31 -2.25 -0.2499979
v -1.000001 1.75 -0.2499998
v 31 1.75 -0.2499979
v 31 -2.25 -0.2499979
v 31 -2.25 0.2500021
v 31 1.75 -0.2499979
v 31 2.25 0.2500021
v 31 2.25 0.2500021
v -1.000001 2.25 0.2500002
v 31 1.75 -0.2499979
v -1.000001 1.75 -0.2499998
v 31 -2.25 -0.2499979
v -1.000001 -2.25 -0.2499998
v 31 -2.25 0.2500021
v -1.000001 -2.25 0.2500002
vt 31 -2.25
vt -1.000001 -2.25
vt 31 2.25
vt -1.000001 2.25
vt 0.2500002 -2.25
vt -0.2499998 -2.25
vt 0.2500002 2.25
vt -0.2499998 1.75
vt 1.000001 -2.25
vt -31 -2.25
vt 1.000001 1.75
vt -31 1.75
vt 0.2499979 -2.25
vt -0.2500021 -2.25
vt 0.2499979 1.75
vt -0.2500021 2.25
vt -31 1.767767
vt 1.000001 1.767767
vt -31 1.06066
vt 1.000001 1.06066
vt 31 -0.2499979
vt -1.000001 -0.2499998
vt 31 0.2500021
vt -1.000001 0.2500002
vn -5.960464E-08 0 1
vn -5.960464E-08 0 1
vn -5.960464E-08 0 1
vn -5.960464E-08 0 1
vn -1 0 0
vn -1 0 0
vn -1 0 0
vn -1 0 0
vn 5.960464E-08 0 -1
vn 5.960464E-08 0 -1
vn 5.960464E-08 0 -1
vn 5.960464E-08 0 -1
vn 1 0 0
vn 1 0 0
vn 1 0 0
vn 1 0 0
vn 4.214685E-08 0.7071068 -0.7071068
vn 4.214685E-08 0.7071068 -0.7071068
vn 4.214685E-08 0.7071068 -0.7071068
vn 4.214685E-08 0.7071068 -0.7071068
vn 0 -1 0
vn 0 -1 0
vn 0 -1 0
vn 0 -1 0
g pb_Mesh125520_0
f 3/3/3 2/2/2 1/1/1
f 3/3/3 4/4/4 2/2/2
f 7/7/7 6/6/6 5/5/5
f 7/7/7 8/8/8 6/6/6
f 11/11/11 10/10/10 9/9/9
f 11/11/11 12/12/12 10/10/10
f 15/15/15 14/14/14 13/13/13
f 15/15/15 16/16/16 14/14/14
f 19/19/19 18/18/18 17/17/17
f 19/19/19 20/20/20 18/18/18
f 23/23/23 22/22/22 21/21/21
f 23/23/23 24/24/24 22/22/22
g pb_Mesh125520_1
