g pb_Mesh266652
v 0 0 0
v -2 0 2
v -12 0 0
v -10 0 2
v -10 0.0001502037 10
v -12 0.0001502037 12
v 0 0.0001001358 12
v -2 0.0001001358 10
vt 0 0
vt 2 2
vt 12 0
vt 10 2
vt 10 10
vt 12 12
vt -8.355983E-10 12
vt 2 10
vn 0 1 0
vn 0 1 0
vn 0 1 0
vn 0 1 0
vn 3.129244E-06 1 -1.564622E-05
vn -1.251698E-05 1 -1.251698E-05
vn 2.086163E-06 1 -1.043081E-05
vn 1.251698E-05 1 -1.251698E-05
g pb_Mesh266652_0
f 3/3/3 2/2/2 1/1/1
f 3/3/3 4/4/4 2/2/2
f 4/4/4 3/3/3 5/5/5
f 3/3/3 6/6/6 5/5/5
f 1/1/1 2/2/2 7/7/7
f 2/2/2 8/8/8 7/7/7
f 7/7/7 8/8/8 6/6/6
f 8/8/8 5/5/5 6/6/6
