g pb_Mesh246998
v 3.220312 0 -1.804748
v 0.7705746 0 -1.164629
v 1.368859 0 -2.711516
v 2.812719 0 -0.1519308
v 1.417719 0 -0.007410181
v 2.837994 0 2.392638
v 0.864607 0 3.305626
v 2.516653 0 2.930138
v 1.564178 0 4.125348
v -0.113703 0 -3.349062
v -0.7697977 0 -1.92006
v -0.9615565 0 -0.0074042
v -1.204237 0 3.184356
v -1.50341 0 4.878704
v -2.403674 0 -3.181078
v -2.055281 0 -1.735842
v -3.340827 0 -0.007405583
v -2.152419 0 2.008423
v -4.819573 0 -2.407446
v -4.819583 0 -0.007414809
v -4.819574 0 2.392614
v -2.928307 0 4.078293
v -5.142524 0 2.930126
v -4.803683 0 -3.235659
vt -3.220312 -1.804748
vt -0.7705746 -1.164629
vt -1.368859 -2.711516
vt -2.812719 -0.1519308
vt -1.417719 -0.007410181
vt -2.837994 2.392638
vt -0.864607 3.305626
vt -2.516653 2.930138
vt -1.564178 4.125348
vt 0.113703 -3.349062
vt 0.7697977 -1.92006
vt 0.9615565 -0.0074042
vt 1.204237 3.184356
vt 1.50341 4.878704
vt 2.403674 -3.181078
vt 2.055281 -1.735842
vt 3.340827 -0.007405583
vt 2.152419 2.008423
vt 4.819573 -2.407446
vt 4.819583 -0.007414809
vt 4.819574 2.392614
vt 2.928307 4.078293
vt 5.142524 2.930126
vt 4.803683 -3.235659
vn 0 1 0
vn 0 1 0
vn 0 1 0
vn 0 1 0
vn 0 1 0
vn 0 1 0
vn 0 1 0
vn 0 1 0
vn 0 1 0
vn 0 1 0
vn 0 1 0
vn 0 1 0
vn 0 1 0
vn 0 1 0
vn 0 1 0
vn 0 1 0
vn 0 1 0
vn 0 1 0
vn 0 1 0
vn 0 1 0
vn 0 1 0
vn 0 1 0
vn 0 1 0
vn 0 1 0
g pb_Mesh246998_0
g pb_Mesh246998_1
f 3/3/3 2/2/2 1/1/1
f 2/2/2 4/4/4 1/1/1
f 2/2/2 5/5/5 4/4/4
f 5/5/5 6/6/6 4/4/4
f 5/5/5 7/7/7 6/6/6
f 7/7/7 8/8/8 6/6/6
f 7/7/7 9/9/9 8/8/8
f 10/10/10 2/2/2 3/3/3
f 10/10/10 11/11/11 2/2/2
f 11/11/11 5/5/5 2/2/2
f 11/11/11 12/12/12 5/5/5
f 12/12/12 7/7/7 5/5/5
f 12/12/12 13/13/13 7/7/7
f 13/13/13 9/9/9 7/7/7
f 13/13/13 14/14/14 9/9/9
f 15/15/15 11/11/11 10/10/10
f 15/15/15 16/16/16 11/11/11
f 16/16/16 12/12/12 11/11/11
f 16/16/16 17/17/17 12/12/12
f 17/17/17 13/13/13 12/12/12
f 17/17/17 18/18/18 13/13/13
f 19/19/19 17/17/17 16/16/16
f 19/19/19 20/20/20 17/17/17
f 20/20/20 18/18/18 17/17/17
f 20/20/20 21/21/21 18/18/18
f 21/21/21 22/22/22 18/18/18
f 21/21/21 23/23/23 22/22/22
f 24/24/24 19/19/19 15/15/15
f 19/19/19 16/16/16 15/15/15
f 18/18/18 22/22/22 13/13/13
f 22/22/22 14/14/14 13/13/13
