g pb_Mesh281080
v 48.76831 0 -11.49494
v 60.42406 0 -4.83086
v 34.28609 0 -9.845163
v 35.11111 0 6.460141
v 60.42406 0 -4.83086
v 53.07147 0 9.604991
v 35.11111 0 6.460141
v 35.74766 0 19.79251
v 34.28609 0 -9.845163
v 35.11111 0 6.460141
v 21.34949 0 -7.433971
v 22.22198 0 6.480432
v 35.11111 0 6.460141
v 35.74766 0 19.79251
v 22.22198 0 6.480432
v 21.29038 0 18.61879
v 21.34949 0 -7.433971
v 22.22198 0 6.480432
v 10.96162 0 -5.546286
v 10.96161 0 2.453719
v 22.22198 0 6.480432
v 21.29038 0 18.61879
v 10.96161 0 2.453719
v 10.96163 0 10.4537
v 10.96162 0 -5.546286
v 10.96161 0 2.453719
v 0 0 -8
v 0 0 0
v 10.96163 0 10.4537
v 0 0 8
v 0 0 -8
v 0 0 0
v -12.72636 0 -7.966949
v -11.99998 0 -1.20573E-06
v 0 0 0
v 0 0 8
v -11.99998 0 -1.20573E-06
v -11.27363 0 7.966949
v -12.72636 0 -7.966949
v -11.99998 0 -1.20573E-06
v -26.57472 -3.54482E-07 -3.183723
v -23.63074 0 4.254897
v -11.99998 0 -1.20573E-06
v -11.27363 0 7.966949
v -23.63074 0 4.254897
v -20.68673 3.544818E-07 11.69351
v -26.57472 -3.54482E-07 -3.183723
v -23.63074 0 4.254897
v -36.78487 0 4.64954
v -34.14067 0 11.98444
v -23.63074 0 4.254897
v -20.68673 3.544818E-07 11.69351
v -34.14067 0 11.98444
v -34.14068 0 19.98444
v -36.78487 0 4.64954
v -34.14067 0 11.98444
v -50.41639 0 8.73278
v -62.85089 0 19.90903
v -34.14067 0 11.98444
v -34.14068 0 19.98444
v -62.85089 0 19.90903
v -50.4164 0 24.73279
vt 0.8084491 0.3784535
vt 0.8085922 0.3327109
vt 0.7296597 0.3782071
vt 0.7298027 0.3324646
vt 0.8085922 0.3327109
vt 0.8087352 0.2869684
vt 0.7298027 0.3324646
vt 0.7299457 0.2867221
vt 0.7296597 0.3782071
vt 0.7298027 0.3324646
vt 0.657436 0.3779813
vt 0.6575789 0.3322388
vt 0.7298027 0.3324646
vt 0.7299457 0.2867221
vt 0.6575789 0.3322388
vt 0.657722 0.2864963
vt 0.657436 0.3779813
vt 0.6575789 0.3322388
vt 0.5786464 0.377735
vt 0.5787895 0.3319924
vt 0.6575789 0.3322388
vt 0.657722 0.2864963
vt 0.5787895 0.3319924
vt 0.5789325 0.2862499
vt 0.5786464 0.377735
vt 0.5787895 0.3319924
vt 0.4998569 0.3774886
vt 0.4999999 0.3317461
vt 0.5789325 0.2862499
vt 0.5001429 0.2860036
vt 0.4998569 0.3774886
vt 0.4999999 0.3317461
vt 0.4210674 0.3772423
vt 0.4212104 0.3314998
vt 0.4999999 0.3317461
vt 0.5001429 0.2860036
vt 0.4212104 0.3314998
vt 0.4213535 0.2857572
vt 0.4210674 0.3772423
vt 0.4212104 0.3314998
vt 0.3422779 0.376996
vt 0.3424209 0.3312534
vt 0.4212104 0.3314998
vt 0.4213535 0.2857572
vt 0.3424209 0.3312534
vt 0.3425639 0.2855109
vt 0.3422779 0.376996
vt 0.3424209 0.3312534
vt 0.2700542 0.3767701
vt 0.2701972 0.3310276
vt 0.3424209 0.3312534
vt 0.3425639 0.2855109
vt 0.2701972 0.3310276
vt 0.2703402 0.2852851
vt 0.2700542 0.3767701
vt 0.2701972 0.3310276
vt 0.1912647 0.3765238
vt 0.1914077 0.3307813
vt 0.2701972 0.3310276
vt 0.2703402 0.2852851
vt 0.1914077 0.3307813
vt 0.1915507 0.2850387
vn 0 1 0
vn 0 1 0
vn 0 1 0
vn 0 1 0
vn 0 1 0
vn 0 1 0
vn 0 1 0
vn 0 1 0
vn 0 1 0
vn 0 1 0
vn 0 1 0
vn 0 1 0
vn 0 1 0
vn 0 1 0
vn 0 1 0
vn 0 1 0
vn 0 1 0
vn 0 1 0
vn 0 1 0
vn 0 1 0
vn 0 1 0
vn 0 1 0
vn 0 1 0
vn 0 1 0
vn 0 1 0
vn 0 1 0
vn 0 1 0
vn 0 1 0
vn 0 1 0
vn 0 1 0
vn 0 1 0
vn 0 1 0
vn 0 1 0
vn 0 1 0
vn 0 1 0
vn 0 1 0
vn 0 1 0
vn 0 1 0
vn -2.481592E-08 1 2.262557E-09
vn -2.002225E-08 1 -1.968236E-08
vn -2.002225E-08 1 -1.968236E-08
vn -1.522857E-08 1 -4.162727E-08
vn 0 1 0
vn 8.123416E-09 1 -2.704216E-08
vn 8.123416E-09 1 -2.704216E-08
vn 1.624683E-08 1 -5.408431E-08
vn -1.412923E-09 1 -4.709509E-08
vn -7.064617E-10 1 -2.354754E-08
vn -7.064617E-10 1 -2.354754E-08
vn 0 1 0
vn -2.714595E-08 1 -3.691062E-08
vn -2.674688E-08 1 -1.845532E-08
vn -2.674688E-08 1 -1.845532E-08
vn -2.634781E-08 1 -2.512722E-14
vn 0 1 0
vn 0 1 0
vn 0 1 0
vn 0 1 0
vn 0 1 0
vn 0 1 0
vn 0 1 0
vn 0 1 0
g pb_Mesh281080_0
f 3/3/3 2/2/2 1/1/1
f 3/3/3 4/4/4 2/2/2
f 7/7/7 6/6/6 5/5/5
f 7/7/7 8/8/8 6/6/6
f 11/11/11 10/10/10 9/9/9
f 11/11/11 12/12/12 10/10/10
f 15/15/15 14/14/14 13/13/13
f 15/15/15 16/16/16 14/14/14
f 19/19/19 18/18/18 17/17/17
f 19/19/19 20/20/20 18/18/18
f 23/23/23 22/22/22 21/21/21
f 23/23/23 24/24/24 22/22/22
f 27/27/27 26/26/26 25/25/25
f 27/27/27 28/28/28 26/26/26
f 28/28/28 29/29/29 26/26/26
f 28/28/28 30/30/30 29/29/29
f 33/33/33 32/32/32 31/31/31
f 33/33/33 34/34/34 32/32/32
f 37/37/37 36/36/36 35/35/35
f 37/37/37 38/38/38 36/36/36
f 41/41/41 40/40/40 39/39/39
f 41/41/41 42/42/42 40/40/40
f 45/45/45 44/44/44 43/43/43
f 45/45/45 46/46/46 44/44/44
f 49/49/49 48/48/48 47/47/47
f 49/49/49 50/50/50 48/48/48
f 53/53/53 52/52/52 51/51/51
f 53/53/53 54/54/54 52/52/52
f 57/57/57 56/56/56 55/55/55
f 57/57/57 58/58/58 56/56/56
f 61/61/61 60/60/60 59/59/59
f 61/61/61 62/62/62 60/60/60
