g pb_Mesh55760
v -32 -3 32
v -32 -3 0
v -32 32 32
v -32 32 0
v 0 -3 0
v 0 -3 32
v 0 32 0
v 0 32 32
v 0 -3 32
v -11.90002 -3 32
v -11.90002 32 32
v 0 32 32
v -11.90002 32 0
v 0 -3 0
v 0 32 0
v -11.90002 -3 0
v -11.90002 51 0
v 0 51 0
v 0 64 32
v -11.90002 64 32
v -20.09998 -3 32
v -20.09998 32 32
v -32 -3 32
v -32 32 32
v -20.09998 32 20
v -11.90002 -3 20
v -11.90002 32 20
v -20.09998 -3 20
v -32 32 0
v -20.09998 -3 0
v -20.09998 32 0
v -32 -3 0
v -32 51 0
v -20.09998 51 0
v -20.09998 64 32
v -32 64 32
v 0 48 0
v 0 48 32
v 0 51 0
v 0 64 32
v -32 48 0
v -32 48 32
v -32 51 0
v -32 64 32
v -11.90002 48 32
v 0 48 32
v -11.90002 64 32
v 0 64 32
v -11.90002 48 0
v 0 48 0
v -11.90002 51 0
v 0 51 0
v -20.09998 48 32
v -20.09998 64 32
v -32 48 32
v -32 64 32
v -20.09998 48 20
v -11.90002 48 20
v -20.09998 51 0
v -20.09998 48 0
v -32 48 0
v -32 51 0
v -11.90002 32 0
v -11.90002 48 0
v -11.90002 32 20
v -11.90002 48 20
v -11.90002 48 0
v -20.09998 48 0
v -11.90002 48 20
v -20.09998 48 20
v -20.09998 48 0
v -20.09998 32 0
v -20.09998 48 20
v -20.09998 32 20
v -20.09998 -3 0
v -20.09998 -3 20
v -11.90002 -3 0
v -11.90002 -3 20
v -20.09998 -3 0
v -11.90002 -3 0
v -20.09998 -3 20
v -11.90002 -3 20
vt 32 -3
vt 0 -3
vt 32 32
vt 0 32
vt 0 -3
vt -32 -3
vt 0 32
vt -32 32
vt 0 -3
vt -11.90002 -3
vt -11.90002 32
vt 0 32
vt 11.90002 32
vt 0 -3
vt 0 32
vt 11.90002 -3
vt 11.90002 19.19523
vt 0 19.19523
vt 0 53.73506
vt 11.90002 53.73506
vt -20.09998 -3
vt -20.09998 32
vt -32 -3
vt -32 32
vt 20.09998 32
vt 11.90002 -3
vt 11.90002 32
vt 20.09998 -3
vt 32 32
vt 20.09998 -3
vt 20.09998 32
vt 32 -3
vt 32 19.19523
vt 20.09998 19.19523
vt 20.09998 53.73506
vt 32 53.73506
vt 0 48
vt -32 48
vt 0 51
vt -32 64
vt 0 48
vt 32 48
vt 0 51
vt 32 64
vt -11.90002 48
vt 0 48
vt -11.90002 64
vt 0 64
vt 11.90002 48
vt 0 48
vt 11.90002 51
vt 0 51
vt -20.09998 48
vt -20.09998 64
vt -32 48
vt -32 64
vt 20.09998 48
vt 11.90002 48
vt 20.09998 51
vt 20.09998 48
vt 32 48
vt 32 51
vt 0 32
vt 0 48
vt 20 32
vt 20 48
vt -11.90002 0
vt -20.09998 0
vt -11.90002 20
vt -20.09998 20
vt 0 48
vt 0 32
vt -20 48
vt -20 32
vt 0 -3
vt -20 -3
vt 0 -3
vt 20 -3
vt 20.09998 0
vt 11.90002 0
vt 20.09998 20
vt 11.90002 20
vn -1 0 0
vn -1 0 0
vn -1 0 0
vn -1 0 0
vn 1 0 0
vn 1 0 0
vn 1 0 0
vn 1 0 0
vn 0 0 1
vn 0 0 1
vn 0 0 1
vn 0 0 1
vn 0 0 -1
vn 0 0 -1
vn 0 0 -1
vn 0 0 -1
vn 0 0.9264666 -0.376377
vn 0 0.9264666 -0.376377
vn 0 0.9264666 -0.376377
vn 0 0.9264666 -0.376377
vn 0 0 1
vn 0 0 1
vn 0 0 1
vn 0 0 1
vn 0 0 -1
vn 0 0 -1
vn 0 0 -1
vn 0 0 -1
vn 0 0 -1
vn 0 0 -1
vn 0 0 -1
vn 0 0 -1
vn 0 0.9264666 -0.376377
vn 0 0.9264666 -0.376377
vn 0 0.9264666 -0.376377
vn 0 0.9264666 -0.376377
vn 1 0 0
vn 1 0 0
vn 1 0 0
vn 1 0 0
vn -1 0 0
vn -1 0 0
vn -1 0 0
vn -1 0 0
vn 0 0 1
vn 0 0 1
vn 0 0 1
vn 0 0 1
vn 0 0 -1
vn 0 0 -1
vn 0 0 -1
vn 0 0 -1
vn 0 0 1
vn 0 0 1
vn 0 0 1
vn 0 0 1
vn 0 0 -1
vn 0 0 -1
vn 0 0 -1
vn 0 0 -1
vn 0 0 -1
vn 0 0 -1
vn -1 0 0
vn -1 0 0
vn -1 0 0
vn -1 0 0
vn 0 -1 0
vn 0 -1 0
vn 0 -1 0
vn 0 -1 0
vn 1 0 0
vn 1 0 0
vn 1 0 0
vn 1 0 0
vn 1 0 0
vn 1 0 0
vn -1 0 0
vn -1 0 0
vn 0 1 0
vn 0 1 0
vn 0 1 0
vn 0 1 0
g pb_Mesh55760_0
f 3/3/3 2/2/2 1/1/1
f 3/3/3 4/4/4 2/2/2
f 7/7/7 6/6/6 5/5/5
f 7/7/7 8/8/8 6/6/6
f 11/11/11 10/10/10 9/9/9
f 11/11/11 9/9/9 12/12/12
f 15/15/15 14/14/14 13/13/13
f 14/14/14 16/16/16 13/13/13
f 19/19/19 18/18/18 17/17/17
f 19/19/19 17/17/17 20/20/20
f 22/22/22 21/21/21 10/10/10
f 22/22/22 10/10/10 11/11/11
f 24/24/24 23/23/23 21/21/21
f 24/24/24 21/21/21 22/22/22
f 27/27/27 26/26/26 25/25/25
f 26/26/26 28/28/28 25/25/25
f 31/31/31 30/30/30 29/29/29
f 30/30/30 32/32/32 29/29/29
f 35/35/35 34/34/34 33/33/33
f 35/35/35 33/33/33 36/36/36
f 20/20/20 17/17/17 34/34/34
f 20/20/20 34/34/34 35/35/35
f 38/38/38 8/8/8 37/37/37
f 8/8/8 7/7/7 37/37/37
f 40/40/40 38/38/38 39/39/39
f 38/38/38 37/37/37 39/39/39
f 41/41/41 4/4/4 3/3/3
f 41/41/41 3/3/3 42/42/42
f 43/43/43 41/41/41 42/42/42
f 43/43/43 42/42/42 44/44/44
f 45/45/45 11/11/11 12/12/12
f 45/45/45 12/12/12 46/46/46
f 47/47/47 45/45/45 46/46/46
f 47/47/47 46/46/46 48/48/48
f 50/50/50 15/15/15 49/49/49
f 15/15/15 13/13/13 49/49/49
f 52/52/52 50/50/50 51/51/51
f 50/50/50 49/49/49 51/51/51
f 53/53/53 22/22/22 11/11/11
f 53/53/53 11/11/11 45/45/45
f 54/54/54 53/53/53 45/45/45
f 54/54/54 45/45/45 47/47/47
f 55/55/55 24/24/24 22/22/22
f 55/55/55 22/22/22 53/53/53
f 56/56/56 55/55/55 53/53/53
f 56/56/56 53/53/53 54/54/54
f 58/58/58 27/27/27 57/57/57
f 27/27/27 25/25/25 57/57/57
f 51/51/51 49/49/49 59/59/59
f 49/49/49 60/60/60 59/59/59
f 60/60/60 31/31/31 61/61/61
f 31/31/31 29/29/29 61/61/61
f 59/59/59 60/60/60 62/62/62
f 60/60/60 61/61/61 62/62/62
f 65/65/65 64/64/64 63/63/63
f 65/65/65 66/66/66 64/64/64
f 69/69/69 68/68/68 67/67/67
f 69/69/69 70/70/70 68/68/68
f 73/73/73 72/72/72 71/71/71
f 73/73/73 74/74/74 72/72/72
f 74/74/74 75/75/75 72/72/72
f 74/74/74 76/76/76 75/75/75
f 78/78/78 63/63/63 77/77/77
f 78/78/78 65/65/65 63/63/63
f 81/81/81 80/80/80 79/79/79
f 81/81/81 82/82/82 80/80/80
g pb_Mesh55760_1
