g pb_Mesh176240
v -13 0 7
v -16 0 8
v -13 2 7
v -16 2 8
v -16 0 -16
v -8 0 -16
v -16 2 -16
v -8 2 -16
v -16 2 37
v -16 0 37
v -32 2 37
v -32 0 37
v -16 0 -16
v -16 2 -16
v -32 0 -16
v -32 2 -16
v -16 2 8
v -16 0 8
v -16 2 24
v -16 0 24
v -32 2 8
v -16 2 8
v -32 2 24
v -16 2 24
v -16 0 8
v -32 0 8
v -16 0 24
v -32 0 24
v -54 0 8
v -54 2 8
v -54 0 24
v -54 2 24
v 6 2 24
v 6 0 24
v 6 2 37
v 6 0 37
v -32 2 24
v -16 2 24
v -32 2 37
v -16 2 37
v -16 0 24
v -32 0 24
v -16 0 37
v -32 0 37
v -32 0 24
v -32 2 24
v -32 0 37
v -32 2 37
v -16 2 24
v -16 0 24
v -2 2 24
v -2 0 24
v -16 2 37
v -16 2 24
v -2 2 37
v -2 2 24
v -16 0 24
v -16 0 37
v -2 0 24
v -2 0 37
v -16 0 37
v -16 2 37
v -2 0 37
v -2 2 37
v -2 2 24
v -2 0 24
v 6 2 24
v 6 0 24
v -2 2 37
v -2 2 24
v 6 2 37
v 6 2 24
v -2 0 24
v -2 0 37
v 6 0 24
v 6 0 37
v -2 0 52
v -2 2 52
v 6 0 52
v 6 2 52
v -2 0 37
v -2 2 37
v -2 0 48
v -2 2 48
v 6 0 37
v -2 0 37
v 6 0 48
v -2 0 48
v -2 2 37
v 6 2 37
v -2 2 48
v 6 2 48
v 6 2 37
v 6 0 37
v 6 2 48
v 6 0 48
v -2 0 48
v -2 2 48
v -2 0 52
v -2 2 52
v 6 0 48
v -2 0 48
v 6 0 52
v -2 0 52
v -2 2 48
v 6 2 48
v -2 2 52
v 6 2 52
v 10 2 48
v 10 0 48
v 10 2 52
v 10 0 52
v 6 2 48
v 6 0 48
v 10 2 48
v 10 0 48
v 6 2 52
v 6 2 48
v 10 2 52
v 10 2 48
v 6 0 48
v 6 0 52
v 10 0 48
v 10 0 52
v 6 0 52
v 6 2 52
v 6 0 58
v 6 2 58
v 10 0 52
v 6 0 52
v 10 0 58
v 6 0 58
v 6 2 52
v 10 2 52
v 6 2 58
v 10 2 58
v 18 2 52
v 18 0 52
v 18 2 58
v 18 0 58
v 10 2 52
v 10 0 52
v 18 2 52
v 18 0 52
v 10 2 58
v 10 2 52
v 18 2 58
v 18 2 52
v 10 0 52
v 10 0 58
v 18 0 52
v 18 0 58
v 10 0 58
v 10 2 58
v 18 0 58
v 18 2 58
v -32 0 -16
v -32 2 -16
v -48 2 -16
v -48 0 -16
v -48 2 -20
v -54 2 -20
v -54 0 -20
v -48 0 -20
v -32 0 24
v -32 0 8
v -48 0 8
v -48 0 24
v -48 0 8
v -54 0 8
v -54 0 24
v -48 0 24
v -32 2 8
v -32 2 24
v -48 2 24
v -48 2 8
v -48 2 24
v -54 2 24
v -54 2 8
v -48 2 8
v -32 2 24
v -32 0 24
v -48 0 24
v -48 2 24
v -48 0 24
v -54 0 24
v -54 2 24
v -48 2 24
v -48 0 -16
v -48 2 -16
v -48 0 -20
v -48 2 -20
v -48 2 -16
v -54 2 -16
v -48 2 -20
v -54 2 -20
v -54 2 -16
v -54 0 -16
v -54 2 -20
v -54 0 -20
v -54 0 -16
v -48 0 -16
v -54 0 -20
v -48 0 -20
v -16 2 0
v -13 2 -5
v -11 2 4
v -16 2 4
v -11 2 4
v -13 2 7
v -16 2 8
v -16 2 4
v -32 2 0
v -16 2 0
v -16 2 4
v -32 2 4
v -16 2 4
v -16 2 8
v -32 2 8
v -32 2 4
v -16 0 0
v -32 0 0
v -32 0 4
v -16 0 4
v -32 0 4
v -32 0 8
v -16 0 8
v -16 0 4
v -54 0 0
v -54 2 0
v -54 2 4
v -54 0 4
v -54 2 4
v -54 2 8
v -54 0 8
v -54 0 4
v -13 0 -5
v -16 0 0
v -16 0 4
v -11 0 4
v -16 0 4
v -16 0 8
v -13 0 7
v -11 0 4
v -13 2 -5
v -13 0 -5
v -11 0 4
v -11 2 4
v -48 0 0
v -48 0 4
v -32 0 4
v -32 0 0
v -48 0 4
v -48 0 8
v -32 0 8
v -32 0 4
v -54 0 0
v -54 0 4
v -48 0 4
v -48 0 0
v -54 0 4
v -54 0 8
v -48 0 8
v -48 0 4
v -48 2 0
v -32 2 0
v -32 2 4
v -48 2 4
v -32 2 4
v -32 2 8
v -48 2 8
v -48 2 4
v -54 2 0
v -48 2 0
v -48 2 4
v -54 2 4
v -48 2 4
v -48 2 8
v -54 2 8
v -54 2 4
v -13 2 7
v -13 0 7
v -11 2 4
v -11 0 4
v -54 0 0
v -54 0 -12
v -54 2 -12
v -54 2 0
v -54 0 -12
v -54 0 -16
v -54 2 -16
v -54 2 -12
v -2 0 -16
v -2 0 -12
v -2 2 -12
v -2 2 -16
v -8 0 -12
v -13 0 -5
v -13 2 -5
v -8 2 -12
v -13 2 -5
v -16 2 0
v -16 2 -12
v -8 2 -12
v -16 2 -12
v -16 2 -16
v -8 2 -16
v -8 2 -12
v -8 0 -16
v -16 0 -16
v -16 0 -12
v -8 0 -12
v -16 0 -12
v -16 0 0
v -13 0 -5
v -8 0 -12
v -16 0 0
v -16 0 -12
v -32 0 -12
v -32 0 0
v -16 0 -12
v -16 0 -16
v -32 0 -16
v -32 0 -12
v -16 2 -16
v -16 2 -12
v -32 2 -12
v -32 2 -16
v -16 2 -12
v -16 2 0
v -32 2 0
v -32 2 -12
v -48 0 -16
v -48 0 -12
v -32 0 -12
v -32 0 -16
v -48 0 -12
v -48 0 0
v -32 0 0
v -32 0 -12
v -54 0 -16
v -54 0 -12
v -48 0 -12
v -48 0 -16
v -54 0 -12
v -54 0 0
v -48 0 0
v -48 0 -12
v -48 2 -16
v -32 2 -16
v -32 2 -12
v -48 2 -12
v -32 2 -12
v -32 2 0
v -48 2 0
v -48 2 -12
v -54 2 -16
v -48 2 -16
v -48 2 -12
v -54 2 -12
v -48 2 -12
v -48 2 0
v -54 2 0
v -54 2 -12
v -8 0 -12
v -8 2 -12
v -5 0 -12
v -5 2 -12
v -8 2 -12
v -8 2 -16
v -5 2 -12
v -5 2 -16
v -8 2 -16
v -8 0 -16
v -5 2 -16
v -5 0 -16
v -8 0 -16
v -8 0 -12
v -5 0 -16
v -5 0 -12
v -5 0 8
v -5 2 8
v -2 0 8
v -2 2 8
v -5 2 -12
v -5 2 -16
v -2 2 -12
v -2 2 -16
v -5 2 -16
v -5 0 -16
v -2 2 -16
v -2 0 -16
v -5 0 -16
v -5 0 -12
v -2 0 -16
v -2 0 -12
v -5 0 -12
v -5 2 -12
v -5 0 7
v -5 2 7
v -2 0 -12
v -5 0 -12
v -2 0 7
v -5 0 7
v -5 2 -12
v -2 2 -12
v -5 2 7
v -2 2 7
v -2 2 -12
v -2 0 -12
v -2 2 7
v -2 0 7
v -5 0 7
v -5 2 7
v -5 0 8
v -5 2 8
v -12 -22 7
v -15 -22 7
v -12 -22 8
v -15 -22 8
v -5 2 7
v -2 2 7
v -5 2 8
v -2 2 8
v -2 2 7
v -2 0 7
v -2 2 8
v -2 0 8
v -12 -10 7
v -15 -8 7
v -12 -22 7
v -15 -22 7
v -12 -10 8
v -12 -10 7
v -12 -22 8
v -12 -22 7
v -15 -8 7
v -15 -8 8
v -15 -22 7
v -15 -22 8
v -15 -8 8
v -12 -10 8
v -15 -22 8
v -12 -22 8
v -2 0 7
v -5 0 7
v -5 -3 7
v -2 -5 7
v -5 -3 7
v -15 -8 7
v -12 -10 7
v -2 -5 7
v -2 -5 7
v -12 -10 7
v -12 -10 8
v -2 -5 8
v -5 0 7
v -5 0 8
v -5 -3 8
v -5 -3 7
v -5 -3 8
v -15 -8 8
v -15 -8 7
v -5 -3 7
v -5 0 8
v -2 0 8
v -2 -5 8
v -5 -3 8
v -2 -5 8
v -12 -10 8
v -15 -8 8
v -5 -3 8
v -2 0 7
v -2 0 8
v -2 -5 7
v -2 -5 8
vt -14.54648 0
vt -17.70876 0
vt -14.54648 2
vt -17.70876 2
vt 16 0
vt 8 0
vt 16 2
vt 8 2
vt -16 2
vt -16 0
vt -32 2
vt -32 0
vt 16 0
vt 16 2
vt 32 0
vt 32 2
vt -8 2
vt -8 0
vt -24 2
vt -24 0
vt 32 8
vt 16 8
vt 32 24
vt 16 24
vt -16 8
vt -32 8
vt -16 24
vt -32 24
vt 8 0
vt 8 2
vt 24 0
vt 24 2
vt -24 2
vt -24 0
vt -37 2
vt -37 0
vt 32 24
vt 16 24
vt 32 37
vt 16 37
vt -16 24
vt -32 24
vt -16 37
vt -32 37
vt 24 0
vt 24 2
vt 37 0
vt 37 2
vt 16 2
vt 16 0
vt 2 2
vt 2 0
vt 16 37
vt 16 24
vt 2 37
vt 2 24
vt -16 24
vt -16 37
vt -2 24
vt -2 37
vt -16 0
vt -16 2
vt -2 0
vt -2 2
vt 2 2
vt 2 0
vt -6 2
vt -6 0
vt 2 37
vt 2 24
vt -6 37
vt -6 24
vt -2 24
vt -2 37
vt 6 24
vt 6 37
vt -2 0
vt -2 2
vt 6 0
vt 6 2
vt 37 0
vt 37 2
vt 48 0
vt 48 2
vt 6 37
vt -2 37
vt 6 48
vt -2 48
vt 2 37
vt -6 37
vt 2 48
vt -6 48
vt -37 2
vt -37 0
vt -48 2
vt -48 0
vt 48 0
vt 48 2
vt 52 0
vt 52 2
vt 6 48
vt -2 48
vt 6 52
vt -2 52
vt 2 48
vt -6 48
vt 2 52
vt -6 52
vt -48 2
vt -48 0
vt -52 2
vt -52 0
vt -6 2
vt -6 0
vt -10 2
vt -10 0
vt -6 52
vt -6 48
vt -10 52
vt -10 48
vt 6 48
vt 6 52
vt 10 48
vt 10 52
vt 52 0
vt 52 2
vt 58 0
vt 58 2
vt 10 52
vt 6 52
vt 10 58
vt 6 58
vt -6 52
vt -10 52
vt -6 58
vt -10 58
vt -52 2
vt -52 0
vt -58 2
vt -58 0
vt -10 2
vt -10 0
vt -18 2
vt -18 0
vt -10 58
vt -10 52
vt -18 58
vt -18 52
vt 10 52
vt 10 58
vt 18 52
vt 18 58
vt 10 0
vt 10 2
vt 18 0
vt 18 2
vt 32 0
vt 32 2
vt 48 2
vt 48 0
vt 48 2
vt 54 2
vt 54 0
vt 48 0
vt -32 24
vt -32 8
vt -48 8
vt -48 24
vt -48 8
vt -54 8
vt -54 24
vt -48 24
vt 32 8
vt 32 24
vt 48 24
vt 48 8
vt 48 24
vt 54 24
vt 54 8
vt 48 8
vt -32 2
vt -32 0
vt -48 0
vt -48 2
vt -48 0
vt -54 0
vt -54 2
vt -48 2
vt 16 0
vt 16 2
vt 20 0
vt 20 2
vt 48 -16
vt 54 -16
vt 48 -20
vt 54 -20
vt -16 2
vt -16 0
vt -20 2
vt -20 0
vt -54 -16
vt -48 -16
vt -54 -20
vt -48 -20
vt 16 0
vt 13 -5
vt 11 4
vt 16 4
vt 11 4
vt 13 7
vt 16 8
vt 16 4
vt 32 0
vt 16 0
vt 16 4
vt 32 4
vt 16 4
vt 16 8
vt 32 8
vt 32 4
vt -16 0
vt -32 0
vt -32 4
vt -16 4
vt -32 4
vt -32 8
vt -16 8
vt -16 4
vt 0 0
vt 0 2
vt 4 2
vt 4 0
vt 4 2
vt 8 2
vt 8 0
vt 4 0
vt -13 -5
vt -16 0
vt -16 4
vt -11 4
vt -16 4
vt -16 8
vt -13 7
vt -11 4
vt 7.701031 2
vt 7.701031 0
vt -1.518513 0
vt -1.518513 2
vt -48 0
vt -48 4
vt -32 4
vt -32 0
vt -48 4
vt -48 8
vt -32 8
vt -32 4
vt -54 0
vt -54 4
vt -48 4
vt -48 0
vt -54 4
vt -54 8
vt -48 8
vt -48 4
vt 48 0
vt 32 0
vt 32 4
vt 48 4
vt 32 4
vt 32 8
vt 48 8
vt 48 4
vt 54 0
vt 48 0
vt 48 4
vt 54 4
vt 48 4
vt 48 8
vt 54 8
vt 54 4
vt -13.03545 2
vt -13.03545 0
vt -9.429903 2
vt -9.429903 0
vt 0 0
vt -12 0
vt -12 2
vt 0 2
vt -12 0
vt -16 0
vt -16 2
vt -12 2
vt 16 0
vt 12 0
vt 12 2
vt 16 2
vt 5.114896 0
vt -3.487429 0
vt -3.487429 2
vt 5.114896 2
vt 13 -5
vt 16 0
vt 16 -12
vt 8 -12
vt 16 -12
vt 16 -16
vt 8 -16
vt 8 -12
vt -8 -16
vt -16 -16
vt -16 -12
vt -8 -12
vt -16 -12
vt -16 0
vt -13 -5
vt -8 -12
vt -16 0
vt -16 -12
vt -32 -12
vt -32 0
vt -16 -12
vt -16 -16
vt -32 -16
vt -32 -12
vt 16 -16
vt 16 -12
vt 32 -12
vt 32 -16
vt 16 -12
vt 16 0
vt 32 0
vt 32 -12
vt -48 -16
vt -48 -12
vt -32 -12
vt -32 -16
vt -48 -12
vt -48 0
vt -32 0
vt -32 -12
vt -54 -16
vt -54 -12
vt -48 -12
vt -48 -16
vt -54 -12
vt -54 0
vt -48 0
vt -48 -12
vt 48 -16
vt 32 -16
vt 32 -12
vt 48 -12
vt 32 -12
vt 32 0
vt 48 0
vt 48 -12
vt 54 -16
vt 48 -16
vt 48 -12
vt 54 -12
vt 48 -12
vt 48 0
vt 54 0
vt 54 -12
vt -8 0
vt -8 2
vt -5 0
vt -5 2
vt 8 -12
vt 8 -16
vt 5 -12
vt 5 -16
vt 8 2
vt 8 0
vt 5 2
vt 5 0
vt -8 -16
vt -8 -12
vt -5 -16
vt -5 -12
vt -5 0
vt -5 2
vt -2 0
vt -2 2
vt 5 -12
vt 5 -16
vt 2 -12
vt 2 -16
vt 5 2
vt 5 0
vt 2 2
vt 2 0
vt -5 -16
vt -5 -12
vt -2 -16
vt -2 -12
vt -12 0
vt -12 2
vt 7 0
vt 7 2
vt -2 -12
vt -5 -12
vt -2 7
vt -5 7
vt 5 -12
vt 2 -12
vt 5 7
vt 2 7
vt 12 2
vt 12 0
vt -7 2
vt -7 0
vt 7 0
vt 7 2
vt 8 0
vt 8 2
vt -12 7
vt -15 7
vt -12 8
vt -15 8
vt 5 7
vt 2 7
vt 5 8
vt 2 8
vt -7 2
vt -7 0
vt -8 2
vt -8 0
vt 12 -10
vt 15 -8
vt 12 -22
vt 15 -22
vt -8 -10
vt -7 -10
vt -8 -22
vt -7 -22
vt 7 -8
vt 8 -8
vt 7 -22
vt 8 -22
vt -15 -8
vt -12 -10
vt -15 -22
vt -12 -22
vt 2 0
vt 5 0
vt 5 -3
vt 2 -5
vt 5 -3
vt 15 -8
vt 12 -10
vt 2 -5
vt -4.024922 7
vt -15.20526 7
vt -15.20526 8
vt -4.024922 8
vt 7 0
vt 8 0
vt 8 -3
vt 7 -3
vt 5.813776 8
vt 16.99412 8
vt 16.99412 7
vt 5.813776 7
vt -5 0
vt -2 0
vt -2 -5
vt -5 -3
vt -2 -5
vt -12 -10
vt -15 -8
vt -5 -3
vt -7 0
vt -8 0
vt -7 -5
vt -8 -5
vn 0.3162278 0 0.9486833
vn 0.3162278 0 0.9486833
vn 0.3162278 0 0.9486833
vn 0.3162278 0 0.9486833
vn 0 0 -1
vn 0 0 -1
vn 0 0 -1
vn 0 0 -1
vn 0 0 1
vn 0 0 1
vn 0 0 1
vn 0 0 1
vn 0 0 -1
vn 0 0 -1
vn 0 0 -1
vn 0 0 -1
vn 1 0 0
vn 1 0 0
vn 1 0 0
vn 1 0 0
vn 0 1 0
vn 0 1 0
vn 0 1 0
vn 0 1 0
vn 0 -1 0
vn 0 -1 0
vn 0 -1 0
vn 0 -1 0
vn -1 0 0
vn -1 0 0
vn -1 0 0
vn -1 0 0
vn 1 0 0
vn 1 0 0
vn 1 0 0
vn 1 0 0
vn 0 1 0
vn 0 1 0
vn 0 1 0
vn 0 1 0
vn 0 -1 0
vn 0 -1 0
vn 0 -1 0
vn 0 -1 0
vn -1 0 0
vn -1 0 0
vn -1 0 0
vn -1 0 0
vn 0 0 -1
vn 0 0 -1
vn 0 0 -1
vn 0 0 -1
vn 0 1 0
vn 0 1 0
vn 0 1 0
vn 0 1 0
vn 0 -1 0
vn 0 -1 0
vn 0 -1 0
vn 0 -1 0
vn 0 0 1
vn 0 0 1
vn 0 0 1
vn 0 0 1
vn 0 0 -1
vn 0 0 -1
vn 0 0 -1
vn 0 0 -1
vn 0 1 0
vn 0 1 0
vn 0 1 0
vn 0 1 0
vn 0 -1 0
vn 0 -1 0
vn 0 -1 0
vn 0 -1 0
vn 0 0 1
vn 0 0 1
vn 0 0 1
vn 0 0 1
vn -1 0 0
vn -1 0 0
vn -1 0 0
vn -1 0 0
vn 0 -1 0
vn 0 -1 0
vn 0 -1 0
vn 0 -1 0
vn 0 1 0
vn 0 1 0
vn 0 1 0
vn 0 1 0
vn 1 0 0
vn 1 0 0
vn 1 0 0
vn 1 0 0
vn -1 0 0
vn -1 0 0
vn -1 0 0
vn -1 0 0
vn 0 -1 0
vn 0 -1 0
vn 0 -1 0
vn 0 -1 0
vn 0 1 0
vn 0 1 0
vn 0 1 0
vn 0 1 0
vn 1 0 0
vn 1 0 0
vn 1 0 0
vn 1 0 0
vn 0 0 -1
vn 0 0 -1
vn 0 0 -1
vn 0 0 -1
vn 0 1 0
vn 0 1 0
vn 0 1 0
vn 0 1 0
vn 0 -1 0
vn 0 -1 0
vn 0 -1 0
vn 0 -1 0
vn -1 0 0
vn -1 0 0
vn -1 0 0
vn -1 0 0
vn 0 -1 0
vn 0 -1 0
vn 0 -1 0
vn 0 -1 0
vn 0 1 0
vn 0 1 0
vn 0 1 0
vn 0 1 0
vn 1 0 0
vn 1 0 0
vn 1 0 0
vn 1 0 0
vn 0 0 -1
vn 0 0 -1
vn 0 0 -1
vn 0 0 -1
vn 0 1 0
vn 0 1 0
vn 0 1 0
vn 0 1 0
vn 0 -1 0
vn 0 -1 0
vn 0 -1 0
vn 0 -1 0
vn 0 0 1
vn 0 0 1
vn 0 0 1
vn 0 0 1
vn 0 0 -1
vn 0 0 -1
vn 0 0 -1
vn 0 0 -1
vn 0 0 -1
vn 0 0 -1
vn 0 0 -1
vn 0 0 -1
vn 0 -1 0
vn 0 -1 0
vn 0 -1 0
vn 0 -1 0
vn 0 -1 0
vn 0 -1 0
vn 0 -1 0
vn 0 -1 0
vn 0 1 0
vn 0 1 0
vn 0 1 0
vn 0 1 0
vn 0 1 0
vn 0 1 0
vn 0 1 0
vn 0 1 0
vn 0 0 1
vn 0 0 1
vn 0 0 1
vn 0 0 1
vn 0 0 1
vn 0 0 1
vn 0 0 1
vn 0 0 1
vn 1 0 0
vn 1 0 0
vn 1 0 0
vn 1 0 0
vn 0 1 0
vn 0 1 0
vn 0 1 0
vn 0 1 0
vn -1 0 0
vn -1 0 0
vn -1 0 0
vn -1 0 0
vn 0 -1 0
vn 0 -1 0
vn 0 -1 0
vn 0 -1 0
vn 0 1 0
vn 0 1 0
vn 0 1 0
vn 0 1 0
vn 0 1 0
vn 0 1 0
vn 0 1 0
vn 0 1 0
vn 0 1 0
vn 0 1 0
vn 0 1 0
vn 0 1 0
vn 0 1 0
vn 0 1 0
vn 0 1 0
vn 0 1 0
vn 0 -1 0
vn 0 -1 0
vn 0 -1 0
vn 0 -1 0
vn 0 -1 0
vn 0 -1 0
vn 0 -1 0
vn 0 -1 0
vn -1 0 0
vn -1 0 0
vn -1 0 0
vn -1 0 0
vn -1 0 0
vn -1 0 0
vn -1 0 0
vn -1 0 0
vn 0 -1 0
vn 0 -1 0
vn 0 -1 0
vn 0 -1 0
vn 0 -1 0
vn 0 -1 0
vn 0 -1 0
vn 0 -1 0
vn 0.9761871 0 -0.2169305
vn 0.9761871 0 -0.2169305
vn 0.9761871 0 -0.2169305
vn 0.9761871 0 -0.2169305
vn 0 -1 0
vn 0 -1 0
vn 0 -1 0
vn 0 -1 0
vn 0 -1 0
vn 0 -1 0
vn 0 -1 0
vn 0 -1 0
vn 0 -1 0
vn 0 -1 0
vn 0 -1 0
vn 0 -1 0
vn 0 -1 0
vn 0 -1 0
vn 0 -1 0
vn 0 -1 0
vn 0 1 0
vn 0 1 0
vn 0 1 0
vn 0 1 0
vn 0 1 0
vn 0 1 0
vn 0 1 0
vn 0 1 0
vn 0 1 0
vn 0 1 0
vn 0 1 0
vn 0 1 0
vn 0 1 0
vn 0 1 0
vn 0 1 0
vn 0 1 0
vn 0.8320503 0 0.5547002
vn 0.8320503 0 0.5547002
vn 0.8320503 0 0.5547002
vn 0.8320503 0 0.5547002
vn -1 0 0
vn -1 0 0
vn -1 0 0
vn -1 0 0
vn -1 0 0
vn -1 0 0
vn -1 0 0
vn -1 0 0
vn 1 0 0
vn 1 0 0
vn 1 0 0
vn 1 0 0
vn 0.8137335 0 0.5812382
vn 0.8137335 0 0.5812382
vn 0.8137335 0 0.5812382
vn 0.8137335 0 0.5812382
vn 0 1 0
vn 0 1 0
vn 0 1 0
vn 0 1 0
vn 0 1 0
vn 0 1 0
vn 0 1 0
vn 0 1 0
vn 0 -1 0
vn 0 -1 0
vn 0 -1 0
vn 0 -1 0
vn 0 -1 0
vn 0 -1 0
vn 0 -1 0
vn 0 -1 0
vn 0 -1 0
vn 0 -1 0
vn 0 -1 0
vn 0 -1 0
vn 0 -1 0
vn 0 -1 0
vn 0 -1 0
vn 0 -1 0
vn 0 1 0
vn 0 1 0
vn 0 1 0
vn 0 1 0
vn 0 1 0
vn 0 1 0
vn 0 1 0
vn 0 1 0
vn 0 -1 0
vn 0 -1 0
vn 0 -1 0
vn 0 -1 0
vn 0 -1 0
vn 0 -1 0
vn 0 -1 0
vn 0 -1 0
vn 0 -1 0
vn 0 -1 0
vn 0 -1 0
vn 0 -1 0
vn 0 -1 0
vn 0 -1 0
vn 0 -1 0
vn 0 -1 0
vn 0 1 0
vn 0 1 0
vn 0 1 0
vn 0 1 0
vn 0 1 0
vn 0 1 0
vn 0 1 0
vn 0 1 0
vn 0 1 0
vn 0 1 0
vn 0 1 0
vn 0 1 0
vn 0 1 0
vn 0 1 0
vn 0 1 0
vn 0 1 0
vn 0 0 1
vn 0 0 1
vn 0 0 1
vn 0 0 1
vn 0 1 0
vn 0 1 0
vn 0 1 0
vn 0 1 0
vn 0 0 -1
vn 0 0 -1
vn 0 0 -1
vn 0 0 -1
vn 0 -1 0
vn 0 -1 0
vn 0 -1 0
vn 0 -1 0
vn 0 0 1
vn 0 0 1
vn 0 0 1
vn 0 0 1
vn 0 1 0
vn 0 1 0
vn 0 1 0
vn 0 1 0
vn 0 0 -1
vn 0 0 -1
vn 0 0 -1
vn 0 0 -1
vn 0 -1 0
vn 0 -1 0
vn 0 -1 0
vn 0 -1 0
vn -1 0 0
vn -1 0 0
vn -1 0 0
vn -1 0 0
vn 0 -1 0
vn 0 -1 0
vn 0 -1 0
vn 0 -1 0
vn 0 1 0
vn 0 1 0
vn 0 1 0
vn 0 1 0
vn 1 0 0
vn 1 0 0
vn 1 0 0
vn 1 0 0
vn -1 0 0
vn -1 0 0
vn -1 0 0
vn -1 0 0
vn 0 -1 0
vn 0 -1 0
vn 0 -1 0
vn 0 -1 0
vn 0 1 0
vn 0 1 0
vn 0 1 0
vn 0 1 0
vn 1 0 0
vn 1 0 0
vn 1 0 0
vn 1 0 0
vn 0 0 -1
vn 0 0 -1
vn 0 0 -1
vn 0 0 -1
vn 1 0 0
vn 1 0 0
vn 1 0 0
vn 1 0 0
vn -1 0 0
vn -1 0 0
vn -1 0 0
vn -1 0 0
vn 0 0 1
vn 0 0 1
vn 0 0 1
vn 0 0 1
vn 0 0 -1
vn 0 0 -1
vn 0 0 -1
vn 0 0 -1
vn 0 0 -1
vn 0 0 -1
vn 0 0 -1
vn 0 0 -1
vn 0.4472136 -0.8944272 0
vn 0.4472136 -0.8944272 0
vn 0.4472136 -0.8944272 0
vn 0.4472136 -0.8944272 0
vn -1 0 0
vn -1 0 0
vn -1 0 0
vn -1 0 0
vn -0.4472136 0.8944272 0
vn -0.4472136 0.8944272 0
vn -0.4472136 0.8944272 0
vn -0.4472136 0.8944272 0
vn 0 0 1
vn 0 0 1
vn 0 0 1
vn 0 0 1
vn 0 0 1
vn 0 0 1
vn 0 0 1
vn 0 0 1
vn 1 0 0
vn 1 0 0
vn 1 0 0
vn 1 0 0
g pb_Mesh176240_0
f 3/3/3 2/2/2 1/1/1
f 3/3/3 4/4/4 2/2/2
f 7/7/7 6/6/6 5/5/5
f 7/7/7 8/8/8 6/6/6
f 11/11/11 10/10/10 9/9/9
f 11/11/11 12/12/12 10/10/10
f 15/15/15 14/14/14 13/13/13
f 15/15/15 16/16/16 14/14/14
f 19/19/19 18/18/18 17/17/17
f 19/19/19 20/20/20 18/18/18
f 23/23/23 22/22/22 21/21/21
f 23/23/23 24/24/24 22/22/22
f 27/27/27 26/26/26 25/25/25
f 27/27/27 28/28/28 26/26/26
f 31/31/31 30/30/30 29/29/29
f 31/31/31 32/32/32 30/30/30
f 35/35/35 34/34/34 33/33/33
f 35/35/35 36/36/36 34/34/34
f 39/39/39 38/38/38 37/37/37
f 39/39/39 40/40/40 38/38/38
f 43/43/43 42/42/42 41/41/41
f 43/43/43 44/44/44 42/42/42
f 47/47/47 46/46/46 45/45/45
f 47/47/47 48/48/48 46/46/46
f 51/51/51 50/50/50 49/49/49
f 51/51/51 52/52/52 50/50/50
f 55/55/55 54/54/54 53/53/53
f 55/55/55 56/56/56 54/54/54
f 59/59/59 58/58/58 57/57/57
f 59/59/59 60/60/60 58/58/58
f 63/63/63 62/62/62 61/61/61
f 63/63/63 64/64/64 62/62/62
f 67/67/67 66/66/66 65/65/65
f 67/67/67 68/68/68 66/66/66
f 71/71/71 70/70/70 69/69/69
f 71/71/71 72/72/72 70/70/70
f 75/75/75 74/74/74 73/73/73
f 75/75/75 76/76/76 74/74/74
f 79/79/79 78/78/78 77/77/77
f 79/79/79 80/80/80 78/78/78
f 83/83/83 82/82/82 81/81/81
f 83/83/83 84/84/84 82/82/82
f 87/87/87 86/86/86 85/85/85
f 87/87/87 88/88/88 86/86/86
f 91/91/91 90/90/90 89/89/89
f 91/91/91 92/92/92 90/90/90
f 95/95/95 94/94/94 93/93/93
f 95/95/95 96/96/96 94/94/94
f 99/99/99 98/98/98 97/97/97
f 99/99/99 100/100/100 98/98/98
f 103/103/103 102/102/102 101/101/101
f 103/103/103 104/104/104 102/102/102
f 107/107/107 106/106/106 105/105/105
f 107/107/107 108/108/108 106/106/106
f 111/111/111 110/110/110 109/109/109
f 111/111/111 112/112/112 110/110/110
f 115/115/115 114/114/114 113/113/113
f 115/115/115 116/116/116 114/114/114
f 119/119/119 118/118/118 117/117/117
f 119/119/119 120/120/120 118/118/118
f 123/123/123 122/122/122 121/121/121
f 123/123/123 124/124/124 122/122/122
f 127/127/127 126/126/126 125/125/125
f 127/127/127 128/128/128 126/126/126
f 131/131/131 130/130/130 129/129/129
f 131/131/131 132/132/132 130/130/130
f 135/135/135 134/134/134 133/133/133
f 135/135/135 136/136/136 134/134/134
f 139/139/139 138/138/138 137/137/137
f 139/139/139 140/140/140 138/138/138
f 143/143/143 142/142/142 141/141/141
f 143/143/143 144/144/144 142/142/142
f 147/147/147 146/146/146 145/145/145
f 147/147/147 148/148/148 146/146/146
f 151/151/151 150/150/150 149/149/149
f 151/151/151 152/152/152 150/150/150
f 155/155/155 154/154/154 153/153/153
f 155/155/155 156/156/156 154/154/154
f 158/158/158 157/157/157 159/159/159
f 157/157/157 160/160/160 159/159/159
f 161/161/161 164/164/164 162/162/162
f 164/164/164 163/163/163 162/162/162
f 168/168/168 167/167/167 165/165/165
f 167/167/167 166/166/166 165/165/165
f 171/171/171 170/170/170 172/172/172
f 170/170/170 169/169/169 172/172/172
f 174/174/174 173/173/173 176/176/176
f 174/174/174 176/176/176 175/175/175
f 177/177/177 180/180/180 179/179/179
f 177/177/177 179/179/179 178/178/178
f 184/184/184 183/183/183 182/182/182
f 184/184/184 182/182/182 181/181/181
f 187/187/187 186/186/186 185/185/185
f 187/187/187 185/185/185 188/188/188
f 191/191/191 190/190/190 189/189/189
f 191/191/191 192/192/192 190/190/190
f 195/195/195 194/194/194 193/193/193
f 195/195/195 196/196/196 194/194/194
f 199/199/199 198/198/198 197/197/197
f 199/199/199 200/200/200 198/198/198
f 203/203/203 202/202/202 201/201/201
f 203/203/203 204/204/204 202/202/202
f 207/207/207 206/206/206 205/205/205
f 207/207/207 205/205/205 208/208/208
f 210/210/210 209/209/209 212/212/212
f 210/210/210 212/212/212 211/211/211
f 215/215/215 214/214/214 213/213/213
f 215/215/215 213/213/213 216/216/216
f 218/218/218 217/217/217 220/220/220
f 218/218/218 220/220/220 219/219/219
f 223/223/223 222/222/222 224/224/224
f 222/222/222 221/221/221 224/224/224
f 226/226/226 225/225/225 227/227/227
f 225/225/225 228/228/228 227/227/227
f 230/230/230 229/229/229 232/232/232
f 230/230/230 232/232/232 231/231/231
f 233/233/233 236/236/236 235/235/235
f 233/233/233 235/235/235 234/234/234
f 239/239/239 238/238/238 240/240/240
f 238/238/238 237/237/237 240/240/240
f 242/242/242 241/241/241 243/243/243
f 241/241/241 244/244/244 243/243/243
f 248/248/248 247/247/247 245/245/245
f 247/247/247 246/246/246 245/245/245
f 250/250/250 249/249/249 251/251/251
f 249/249/249 252/252/252 251/251/251
f 254/254/254 253/253/253 255/255/255
f 253/253/253 256/256/256 255/255/255
f 258/258/258 257/257/257 259/259/259
f 257/257/257 260/260/260 259/259/259
f 262/262/262 261/261/261 263/263/263
f 261/261/261 264/264/264 263/263/263
f 267/267/267 266/266/266 265/265/265
f 267/267/267 265/265/265 268/268/268
f 270/270/270 269/269/269 272/272/272
f 270/270/270 272/272/272 271/271/271
f 275/275/275 274/274/274 273/273/273
f 275/275/275 273/273/273 276/276/276
f 278/278/278 277/277/277 280/280/280
f 278/278/278 280/280/280 279/279/279
f 281/281/281 282/282/282 283/283/283
f 282/282/282 284/284/284 283/283/283
f 287/287/287 286/286/286 285/285/285
f 287/287/287 285/285/285 288/288/288
f 291/291/291 290/290/290 289/289/289
f 291/291/291 289/289/289 292/292/292
f 295/295/295 294/294/294 296/296/296
f 294/294/294 293/293/293 296/296/296
f 299/299/299 298/298/298 300/300/300
f 298/298/298 297/297/297 300/300/300
f 301/301/301 304/304/304 303/303/303
f 301/301/301 303/303/303 302/302/302
f 308/308/308 307/307/307 306/306/306
f 308/308/308 306/306/306 305/305/305
f 311/311/311 310/310/310 312/312/312
f 310/310/310 309/309/309 312/312/312
f 314/314/314 313/313/313 315/315/315
f 313/313/313 316/316/316 315/315/315
f 320/320/320 319/319/319 317/317/317
f 319/319/319 318/318/318 317/317/317
f 324/324/324 323/323/323 321/321/321
f 323/323/323 322/322/322 321/321/321
f 326/326/326 325/325/325 328/328/328
f 326/326/326 328/328/328 327/327/327
f 330/330/330 329/329/329 332/332/332
f 330/330/330 332/332/332 331/331/331
f 334/334/334 333/333/333 335/335/335
f 333/333/333 336/336/336 335/335/335
f 338/338/338 337/337/337 339/339/339
f 337/337/337 340/340/340 339/339/339
f 342/342/342 341/341/341 343/343/343
f 341/341/341 344/344/344 343/343/343
f 346/346/346 345/345/345 347/347/347
f 345/345/345 348/348/348 347/347/347
f 351/351/351 350/350/350 349/349/349
f 351/351/351 349/349/349 352/352/352
f 354/354/354 353/353/353 356/356/356
f 354/354/354 356/356/356 355/355/355
f 359/359/359 358/358/358 357/357/357
f 359/359/359 357/357/357 360/360/360
f 362/362/362 361/361/361 364/364/364
f 362/362/362 364/364/364 363/363/363
f 367/367/367 366/366/366 365/365/365
f 367/367/367 368/368/368 366/366/366
f 371/371/371 370/370/370 369/369/369
f 371/371/371 372/372/372 370/370/370
f 375/375/375 374/374/374 373/373/373
f 375/375/375 376/376/376 374/374/374
f 379/379/379 378/378/378 377/377/377
f 379/379/379 380/380/380 378/378/378
f 383/383/383 382/382/382 381/381/381
f 383/383/383 384/384/384 382/382/382
f 387/387/387 386/386/386 385/385/385
f 387/387/387 388/388/388 386/386/386
f 391/391/391 390/390/390 389/389/389
f 391/391/391 392/392/392 390/390/390
f 395/395/395 394/394/394 393/393/393
f 395/395/395 396/396/396 394/394/394
f 399/399/399 398/398/398 397/397/397
f 399/399/399 400/400/400 398/398/398
f 403/403/403 402/402/402 401/401/401
f 403/403/403 404/404/404 402/402/402
f 407/407/407 406/406/406 405/405/405
f 407/407/407 408/408/408 406/406/406
f 411/411/411 410/410/410 409/409/409
f 411/411/411 412/412/412 410/410/410
f 415/415/415 414/414/414 413/413/413
f 415/415/415 416/416/416 414/414/414
f 419/419/419 418/418/418 417/417/417
f 419/419/419 420/420/420 418/418/418
f 423/423/423 422/422/422 421/421/421
f 423/423/423 424/424/424 422/422/422
f 427/427/427 426/426/426 425/425/425
f 427/427/427 428/428/428 426/426/426
f 431/431/431 430/430/430 429/429/429
f 431/431/431 432/432/432 430/430/430
f 435/435/435 434/434/434 433/433/433
f 435/435/435 436/436/436 434/434/434
f 439/439/439 438/438/438 437/437/437
f 439/439/439 440/440/440 438/438/438
f 443/443/443 442/442/442 441/441/441
f 443/443/443 444/444/444 442/442/442
f 446/446/446 448/448/448 447/447/447
f 448/448/448 446/446/446 445/445/445
f 449/449/449 451/451/451 450/450/450
f 451/451/451 449/449/449 452/452/452
f 455/455/455 454/454/454 456/456/456
f 454/454/454 453/453/453 456/456/456
f 458/458/458 457/457/457 460/460/460
f 458/458/458 460/460/460 459/459/459
f 461/461/461 464/464/464 463/463/463
f 461/461/461 463/463/463 462/462/462
f 466/466/466 465/465/465 467/467/467
f 468/468/468 467/467/467 465/465/465
f 469/469/469 472/472/472 470/470/470
f 471/471/471 470/470/470 472/472/472
f 473/473/473 474/474/474 475/475/475
f 474/474/474 476/476/476 475/475/475
