g pb_Mesh234490
v 12 6 104
v 13 0 106
v 13 6 106
v 12 0 104
v 7 0 78
v 11 0 78
v 7 0 81
v 11 0 81
v 35 0 81
v 35 8 81
v 34 0 89
v 34 8 89
v 11 8 81
v 7 8 81
v 11 8 91
v 9 8 89
v 7 8 81
v 7 0 81
v 9 8 89
v 9 0 89
v 9 0 89
v 11 0 91
v 11 0 81
v 11 8 81
v 29 0 82
v 29 8 82
v 29 0 91
v 29 0 82
v 29 8 82
v 29 8 91
v 13 6 106
v 13 0 106
v 27 6 106
v 27 0 106
v 29 16 -12
v 29 24 -12
v 35 16 -12
v 35 24 -12
v 34 0 89
v 35 0 81
v 35 8 81
v 34 8 89
v 27 6 106
v 27 0 106
v 31 6 104
v 31 0 104
v 29 0 82
v 29 8 82
v 29 0 59
v 29 8 59
v 35 0 59
v 29 0 59
v 29 8 59
v 35 8 59
v 35 8 81
v 35 0 81
v 35 8 59
v 35 0 59
v 29 16 6
v 29 24 6
v 35 0 59
v 29 0 59
v 35 16 6
v 29 16 6
v 29 8 59
v 35 8 59
v 29 24 6
v 35 24 6
v 35 24 6
v 35 16 6
v 29 16 -12
v 29 24 -12
v 35 16 6
v 29 16 6
v 35 16 -12
v 29 16 -12
v 29 24 6
v 35 24 6
v 29 24 -12
v 35 24 -12
v 35 24 -12
v 35 16 -12
v 29 8 91
v 11 8 91
v 27 6 106
v 13 6 106
v 11 8 91
v 9 8 89
v 13 6 106
v 12 6 104
v 9 8 89
v 9 0 89
v 12 6 104
v 12 0 104
v 12 0 104
v 13 0 106
v 27 0 106
v 34 8 89
v 29 8 91
v 31 6 104
v 27 6 106
v 31 0 104
v 34 0 89
v 34 8 89
v 31 0 104
v 31 6 104
vt -98.38699 6
vt -100.6231 0
vt -100.6231 6
vt -98.38699 0
vt -7 78
vt -11 78
vt -7 81
vt -11 81
vt 76.03329 0
vt 76.03329 8
vt 84.09555 0
vt 84.09555 8
vt 11 81
vt 7 81
vt 11 91
vt 9 89
vt -80.2793 8
vt -80.2793 0
vt -88.52551 8
vt -88.52551 0
vt -9 89
vt -11 91
vt 15.47614 0
vt 15.47614 8
vt 33.50389 0
vt 33.50389 8
vt -29 91
vt -29 82
vt 29 82
vt 29 91
vt -13 6
vt -13 0
vt -27 6
vt -27 0
vt 29 16
vt 29 24
vt 35 16
vt 35 24
vt -34 89
vt -35 81
vt 35 81
vt 34 89
vt 23.25511 6
vt 23.25511 0
vt 18.78297 6
vt 18.78297 0
vt -82 0
vt -82 8
vt -59 0
vt -59 8
vt -35 59
vt -29 59
vt 29 59
vt 35 59
vt 81 8
vt 81 0
vt 59 8
vt 59 0
vt -6 16
vt -6 24
vt -35 56.48233
vt -29 56.48233
vt -35 1.119892
vt -29 1.119892
vt 29 54.1703
vt 35 54.1703
vt 29 -1.192144
vt 35 -1.192144
vt 6 24
vt 6 16
vt 12 16
vt 12 24
vt -35 6
vt -29 6
vt -35 -12
vt -29 -12
vt 29 6
vt 35 6
vt 29 -12
vt 35 -12
vt -12 24
vt -12 16
vt 29 89.14443
vt 11 89.14443
vt 27 104.2772
vt 13 104.2772
vt 12.08855 89.02867
vt 10.1118 87.00568
vt 13.76118 104.2011
vt 12.7728 102.201
vt -89.03673 8
vt -89.03673 0
vt -104.3338 6
vt -104.3338 0
vt -12 104
vt -13 106
vt -27 106
vt 33.48002 86.65743
vt 28.4884 88.67826
vt 30.6008 101.8136
vt 26.6075 103.8262
vt -31 104
vt 80.60373 0
vt 80.60373 8
vt 95.90079 0
vt 95.90079 6
vn 0.8944272 0 -0.4472136
vn 0.8944272 0 -0.4472136
vn 0.8944272 0 -0.4472136
vn 0.8944272 0 -0.4472136
vn 0 1 0
vn 0 1 0
vn 0 1 0
vn 0 1 0
vn -0.9922779 0 -0.1240347
vn -0.9922779 0 -0.1240347
vn -0.9922779 0 -0.1240347
vn -0.9922779 0 -0.1240347
vn 0 -1 0
vn 0 -1 0
vn 0 -1 0
vn 0 -1 0
vn 0.9701425 0 -0.2425356
vn 0.9701425 0 -0.2425356
vn 0.9701425 0 -0.2425356
vn 0.9701425 0 -0.2425356
vn 0 1 0
vn 0 1 0
vn -0.05547002 0 0.9984604
vn -0.05547002 0 0.9984604
vn -0.05547002 0 0.9984604
vn -0.05547002 0 0.9984604
vn 0 1 0
vn 0 1 0
vn 0 -1 0
vn 0 -1 0
vn 0 0 -1
vn 0 0 -1
vn 0 0 -1
vn 0 0 -1
vn 0 0 1
vn 0 0 1
vn 0 0 1
vn 0 0 1
vn 0 1 0
vn 0 1 0
vn 0 -1 0
vn 0 -1 0
vn -0.4472136 0 -0.8944272
vn -0.4472136 0 -0.8944272
vn -0.4472136 0 -0.8944272
vn -0.4472136 0 -0.8944272
vn 1 0 0
vn 1 0 0
vn 1 0 0
vn 1 0 0
vn 0 1 0
vn 0 1 0
vn 0 -1 0
vn 0 -1 0
vn -1 0 0
vn -1 0 0
vn -1 0 0
vn -1 0 0
vn 1 0 0
vn 1 0 0
vn 0 0.9573277 0.2890046
vn 0 0.9573277 0.2890046
vn 0 0.9573277 0.2890046
vn 0 0.9573277 0.2890046
vn 0 -0.9573277 -0.2890046
vn 0 -0.9573277 -0.2890046
vn 0 -0.9573277 -0.2890046
vn 0 -0.9573277 -0.2890046
vn -1 0 0
vn -1 0 0
vn 1 0 0
vn 1 0 0
vn 0 1 0
vn 0 1 0
vn 0 1 0
vn 0 1 0
vn 0 -1 0
vn 0 -1 0
vn 0 -1 0
vn 0 -1 0
vn -1 0 0
vn -1 0 0
vn 0 -0.9912279 -0.1321637
vn 0 -0.9912279 -0.1321637
vn 0 -0.9912279 -0.1321637
vn 0 -0.9912279 -0.1321637
vn 0.1503292 -0.9771399 -0.1503292
vn 0.2741721 -0.9363367 -0.1746683
vn 0.2741721 -0.9363367 -0.1746683
vn 0.3980149 -0.8955335 -0.1990075
vn 0.9805807 0 -0.1961161
vn 0.9805807 0 -0.1961161
vn 0.9805807 0 -0.1961161
vn 0.9805807 0 -0.1961161
vn 0 1 0
vn 0 1 0
vn 0 1 0
vn -0.05727744 -0.9880359 -0.1431936
vn -0.063906 -0.9877599 -0.1421314
vn -0.063906 -0.9877599 -0.1421314
vn -0.07053456 -0.9874839 -0.1410691
vn 0 1 0
vn -0.9805807 0 -0.1961161
vn -0.9805807 0 -0.1961161
vn -0.9805807 0 -0.1961161
vn -0.9805807 0 -0.1961161
g pb_Mesh234490_0
f 3/3/3 2/2/2 1/1/1
f 2/2/2 4/4/4 1/1/1
f 7/7/7 6/6/6 5/5/5
f 7/7/7 8/8/8 6/6/6
f 11/11/11 10/10/10 9/9/9
f 11/11/11 12/12/12 10/10/10
f 15/15/15 14/14/14 13/13/13
f 15/15/15 16/16/16 14/14/14
f 19/19/19 18/18/18 17/17/17
f 19/19/19 20/20/20 18/18/18
f 21/21/21 8/8/8 7/7/7
f 21/21/21 22/22/22 8/8/8
f 25/25/25 24/24/24 23/23/23
f 25/25/25 26/26/26 24/24/24
f 27/27/27 8/8/8 22/22/22
f 27/27/27 28/28/28 8/8/8
f 29/29/29 15/15/15 13/13/13
f 29/29/29 30/30/30 15/15/15
f 33/33/33 32/32/32 31/31/31
f 33/33/33 34/34/34 32/32/32
f 37/37/37 36/36/36 35/35/35
f 37/37/37 38/38/38 36/36/36
f 39/39/39 28/28/28 27/27/27
f 39/39/39 40/40/40 28/28/28
f 41/41/41 30/30/30 29/29/29
f 41/41/41 42/42/42 30/30/30
f 45/45/45 44/44/44 43/43/43
f 45/45/45 46/46/46 44/44/44
f 49/49/49 48/48/48 47/47/47
f 49/49/49 50/50/50 48/48/48
f 51/51/51 28/28/28 40/40/40
f 51/51/51 52/52/52 28/28/28
f 53/53/53 41/41/41 29/29/29
f 53/53/53 54/54/54 41/41/41
f 57/57/57 56/56/56 55/55/55
f 57/57/57 58/58/58 56/56/56
f 59/59/59 50/50/50 49/49/49
f 59/59/59 60/60/60 50/50/50
f 63/63/63 62/62/62 61/61/61
f 63/63/63 64/64/64 62/62/62
f 67/67/67 66/66/66 65/65/65
f 67/67/67 68/68/68 66/66/66
f 69/69/69 58/58/58 57/57/57
f 69/69/69 70/70/70 58/58/58
f 71/71/71 60/60/60 59/59/59
f 71/71/71 72/72/72 60/60/60
f 75/75/75 74/74/74 73/73/73
f 75/75/75 76/76/76 74/74/74
f 79/79/79 78/78/78 77/77/77
f 79/79/79 80/80/80 78/78/78
f 81/81/81 70/70/70 69/69/69
f 81/81/81 82/82/82 70/70/70
f 85/85/85 84/84/84 83/83/83
f 85/85/85 86/86/86 84/84/84
f 89/89/89 88/88/88 87/87/87
f 89/89/89 90/90/90 88/88/88
f 93/93/93 92/92/92 91/91/91
f 93/93/93 94/94/94 92/92/92
f 95/95/95 22/22/22 21/21/21
f 95/95/95 96/96/96 22/22/22
f 96/96/96 27/27/27 22/22/22
f 96/96/96 97/97/97 27/27/27
f 100/100/100 99/99/99 98/98/98
f 100/100/100 101/101/101 99/99/99
f 97/97/97 39/39/39 27/27/27
f 97/97/97 102/102/102 39/39/39
f 105/105/105 104/104/104 103/103/103
f 105/105/105 106/106/106 104/104/104
