g pb_Mesh339830
v -16 4 -6
v 0 4 -6
v 0 4 -4
v -16 4 -4
v -16 4 -8
v 0 4 -8
v 6 4 -6
v 6 4 -4
v 6 4 -8
v 8 4 -4
v 8 4 -6
v 8 4 -8
v 6 -4 -8
v 0 -4 -8
v 6 -36 -8
v 0 -36 -8
v 6 -4 -6
v 6 -36 -4
v 6 -4 -4
v 6 -36 -6
v 6 -4 -8
v 6 -36 -8
v 0 -4 -4
v -16 -4 -4
v -16 2 -4
v 0 2 -4
v -16 4 -4
v 0 4 -4
v -16 2 -8
v 0 2 -8
v -16 -4 -8
v -16 4 -8
v 0 4 -8
v 6 2 -8
v 6 4 -8
v 6 2 -4
v 6 4 -4
v -16 -4 -4
v -16 -4 -6
v -16 2 -6
v -16 2 -4
v -16 4 -6
v -16 4 -4
v -16 -4 -8
v -16 2 -8
v -16 4 -8
v 8 2 -8
v 8 -4 -6
v 8 2 -6
v 8 -4 -8
v 8 4 -8
v 8 4 -6
v 8 -4 -4
v 8 2 -4
v 8 4 -4
v 6 -4 -6
v 6 -4 -4
v 8 -4 -6
v 8 -4 -4
v 8 2 -8
v 8 -4 -8
v 6 -4 -8
v 8 -4 -8
v 6 -4 -4
v 8 -4 -4
v 8 2 -4
v 8 4 -8
v 8 4 -4
vt 16 -6
vt 0 -6
vt 0 -4
vt 16 -4
vt 16 -8
vt 0 -8
vt -6 -6
vt -6 -4
vt -6 -8
vt -8 -4
vt -8 -6
vt -8 -8
vt -6 -4
vt 0 -4
vt -6 -36
vt 0 -36
vt 6 -4
vt 4 -36
vt 4 -4
vt 6 -36
vt 8 -4
vt 8 -36
vt 0 -4
vt -16 -4
vt -16 2
vt 0 2
vt -16 4
vt 0 4
vt 16 2
vt 0 2
vt 16 -4
vt 16 4
vt 0 4
vt -6 2
vt -6 4
vt 6 2
vt 6 4
vt -4 -4
vt -6 -4
vt -6 2
vt -4 2
vt -6 4
vt -4 4
vt -8 -4
vt -8 2
vt -8 4
vt 8 2
vt 6 -4
vt 6 2
vt 8 -4
vt 8 4
vt 6 4
vt 4 -4
vt 4 2
vt 4 4
vt 6 -6
vt 6 -4
vt 8 -6
vt 8 -4
vt -8 2
vt -8 -4
vt 6 -8
vt 8 -8
vt 6 -4
vt 8 -4
vt 8 2
vt -8 4
vt 8 4
vn 0 1 0
vn 0 1 0
vn 0 1 0
vn 0 1 0
vn 0 1 0
vn 0 1 0
vn 0 1 0
vn 0 1 0
vn 0 1 0
vn 0 1 0
vn 0 1 0
vn 0 1 0
vn 0 0 -1
vn 0 0 -1
vn 0 0 -1
vn 0 0 -1
vn 1 0 0
vn 1 0 0
vn 1 0 0
vn 1 0 0
vn 1 0 0
vn 1 0 0
vn 0 0 1
vn 0 0 1
vn 0 0 1
vn 0 0 1
vn 0 0 1
vn 0 0 1
vn 0 0 -1
vn 0 0 -1
vn 0 0 -1
vn 0 0 -1
vn 0 0 -1
vn 0 0 -1
vn 0 0 -1
vn 0 0 1
vn 0 0 1
vn -1 0 0
vn -1 0 0
vn -1 0 0
vn -1 0 0
vn -1 0 0
vn -1 0 0
vn -1 0 0
vn -1 0 0
vn -1 0 0
vn 1 0 0
vn 1 0 0
vn 1 0 0
vn 1 0 0
vn 1 0 0
vn 1 0 0
vn 1 0 0
vn 1 0 0
vn 1 0 0
vn 0 -1 0
vn 0 -1 0
vn 0 -1 0
vn 0 -1 0
vn 0 0 -1
vn 0 0 -1
vn 0 -1 0
vn 0 -1 0
vn 0 0 1
vn 0 0 1
vn 0 0 1
vn 0 0 -1
vn 0 0 1
g pb_Mesh339830_0
f 3/3/3 2/2/2 1/1/1
f 3/3/3 1/1/1 4/4/4
f 2/2/2 6/6/6 5/5/5
f 2/2/2 5/5/5 1/1/1
f 8/8/8 7/7/7 2/2/2
f 8/8/8 2/2/2 3/3/3
f 7/7/7 9/9/9 6/6/6
f 7/7/7 6/6/6 2/2/2
f 10/10/10 7/7/7 8/8/8
f 10/10/10 11/11/11 7/7/7
f 11/11/11 9/9/9 7/7/7
f 11/11/11 12/12/12 9/9/9
g pb_Mesh339830_1
f 15/15/15 14/14/14 13/13/13
f 15/15/15 16/16/16 14/14/14
f 19/19/19 18/18/18 17/17/17
f 18/18/18 20/20/20 17/17/17
f 17/17/17 20/20/20 21/21/21
f 20/20/20 22/22/22 21/21/21
f 25/25/25 24/24/24 23/23/23
f 25/25/25 23/23/23 26/26/26
f 27/27/27 25/25/25 26/26/26
f 27/27/27 26/26/26 28/28/28
f 30/30/30 14/14/14 29/29/29
f 14/14/14 31/31/31 29/29/29
f 33/33/33 30/30/30 32/32/32
f 30/30/30 29/29/29 32/32/32
f 35/35/35 34/34/34 33/33/33
f 34/34/34 30/30/30 33/33/33
f 34/34/34 13/13/13 30/30/30
f 13/13/13 14/14/14 30/30/30
f 28/28/28 26/26/26 36/36/36
f 28/28/28 36/36/36 37/37/37
f 40/40/40 39/39/39 38/38/38
f 40/40/40 38/38/38 41/41/41
f 42/42/42 40/40/40 41/41/41
f 42/42/42 41/41/41 43/43/43
f 45/45/45 44/44/44 39/39/39
f 45/45/45 39/39/39 40/40/40
f 46/46/46 45/45/45 40/40/40
f 46/46/46 40/40/40 42/42/42
f 49/49/49 48/48/48 47/47/47
f 48/48/48 50/50/50 47/47/47
f 52/52/52 49/49/49 51/51/51
f 49/49/49 47/47/47 51/51/51
f 54/54/54 53/53/53 49/49/49
f 53/53/53 48/48/48 49/49/49
f 55/55/55 54/54/54 52/52/52
f 54/54/54 49/49/49 52/52/52
f 58/58/58 57/57/57 56/56/56
f 58/58/58 59/59/59 57/57/57
f 60/60/60 13/13/13 34/34/34
f 60/60/60 61/61/61 13/13/13
f 63/63/63 56/56/56 62/62/62
f 63/63/63 58/58/58 56/56/56
f 65/65/65 36/36/36 64/64/64
f 65/65/65 66/66/66 36/36/36
f 67/67/67 34/34/34 35/35/35
f 67/67/67 60/60/60 34/34/34
f 66/66/66 37/37/37 36/36/36
f 66/66/66 68/68/68 37/37/37
