g pb_Mesh111148
v 5.857235 0 2.175735
v -6.152512 0 2.175735
v 4.707245 2.661827 2.175735
v -4.962704 2.80859 2.175735
v -6.152512 0 2.175735
v -7.031498 -0.6826191 -9.037617
v -4.962704 2.80859 2.175735
v -7.031498 -0.6826191 -9.037617
v -5.555111 0.8583851 -6.193321
v -4.962704 2.80859 2.175735
v -7.031498 -0.6826191 -9.037617
v 6.78038 -0.6826191 -9.037617
v -5.555111 0.8583851 -6.193321
v 5.879314 0.8583851 -6.193321
v 6.78038 -0.6826191 -9.037617
v 5.857235 0 2.175735
v 5.879314 0.8583851 -6.193321
v 4.707245 2.661827 2.175735
v 4.707245 2.661827 2.175735
v -4.962704 2.80859 2.175735
v 5.879314 0.8583851 -6.193321
v -5.555111 0.8583851 -6.193321
v 6.78038 -0.6826191 -9.037617
v -7.031498 -0.6826191 -9.037617
v 5.857235 0 2.175735
v -6.152512 0 2.175735
vt 5.857235 0
vt -6.152512 0
vt 4.707245 2.661827
vt -4.962704 2.80859
vt 1.849565 -2.438338
vt -9.394478 -3.179528
vt 1.912061 0.6112381
vt -9.394478 -3.179528
vt -6.47656 -1.244076
vt 1.912061 0.6112381
vt 7.031498 -8.271478
vt -6.78038 -8.271478
vt 5.555111 -5.036557
vt -5.879314 -5.036557
vt 9.381579 -3.369782
vt -1.864798 -2.610553
vt 6.493846 -1.655831
vt -1.925255 0.285399
vt -4.666308 2.698066
vt 5.004754 2.698066
vt -5.865611 -5.859325
vt 5.567498 -5.895529
vt 6.78038 -9.062395
vt -7.031498 -9.062395
vt 5.857235 2.171715
vt -6.152512 2.171715
vn 0 0 1
vn 0 0 1
vn 0 0 1
vn 0 0 1
vn -0.9197058 0.3896166 0.04837529
vn -0.7402601 0.6019248 -0.05083219
vn -0.7402601 0.6019248 -0.05083219
vn -0.7402601 0.6019248 -0.05083219
vn -0.5608145 0.8142329 -0.1500397
vn -0.7402601 0.6019248 -0.05083219
vn 0 0.8792474 -0.4763654
vn 0 0.8792474 -0.4763654
vn 0 0.8792474 -0.4763654
vn 0 0.8792474 -0.4763654
vn 0.8978516 0.4377537 0.04726761
vn 0.9074958 0.416993 0.04516371
vn 0.9074958 0.416993 0.04516371
vn 0.91714 0.3962323 0.0430598
vn 0.01484148 0.977879 -0.2086439
vn 0.007420738 0.9758933 -0.2177947
vn 0.007420738 0.9758933 -0.2177947
vn 0 0.9739075 -0.2269454
vn 0 -0.9981522 0.06076308
vn 0 -0.9981523 0.06076308
vn 0 -0.9981523 0.06076308
vn 0 -0.9981523 0.06076307
g pb_Mesh111148_0
f 3/3/3 2/2/2 1/1/1
f 3/3/3 4/4/4 2/2/2
f 7/7/7 6/6/6 5/5/5
f 10/10/10 9/9/9 8/8/8
f 13/13/13 12/12/12 11/11/11
f 13/13/13 14/14/14 12/12/12
f 17/17/17 16/16/16 15/15/15
f 17/17/17 18/18/18 16/16/16
f 21/21/21 20/20/20 19/19/19
f 21/21/21 22/22/22 20/20/20
f 25/25/25 24/24/24 23/23/23
f 25/25/25 26/26/26 24/24/24
