g pb_Mesh255366
v 3 0 3
v -11 0 3
v 3 13 3
v -11 13 3
v -11 0 3
v -11 0 -11
v -11 13 3
v -11 13 -11
v -11 0 -11
v 3 0 -11
v -11 13 -11
v 3 13 -11
v 3 0 -11
v 3 0 3
v 3 13 -11
v 3 13 3
v 1.5 25 -10
v 2 25 -9.5
v 2 25 2
v -10 25 2
v -10 25 -10
v 3 13 3
v -11 13 3
v 1 13 1
v -9 13 1
v -11 13 -11
v -9 13 -9
v 3 13 -11
v 1 13 -9
v -9 13 1
v -9 13 -9
v -9 16 1
v -9 16 -9
v 1 16 1
v -9 16 1
v 2 17 2
v -10 17 2
v -9 16 1
v -9 16 -9
v -10 17 2
v -10 17 -10
v -9 16 -9
v 1 16 -9
v -10 17 -10
v 2 17 -10
v 2 17 2
v -10 17 2
v 2 25 2
v -10 25 2
v 2 24.5 -10
v 2 17 -10
v 2 17 2
v 2 25 2
v 2 25 -9.5
v -10 17 2
v -10 17 -10
v -10 25 2
v -10 25 -10
v 1.5 25 -10
v -10 25 -10
v -10 17 -10
v 2 17 -10
v 2 24.5 -10
v 2 24.5 -10
v 2 25 -9.5
v 1.5 25 -10
v 1 13 -5
v 1 13 -3
v 1 14.5 1
v 1 13 1
v -9 13 1
v -9 16 1
v 1 16 1
v 1 14 -3
v 1 13 1
v 1 14.5 1
v 1 13 -3
v 1 16 -4
v 1 16 1
v 1 14 -5
v 1 16 -9
v 1 14.5 -9
v -9 16 -9
v 1 14.5 -9
v 1 16 -9
v -9 13 -9
v 1 13 -9
v 1 16 1
v 2 17 2
v 1 16 -4
v 2 17 -10
v 1 16 -9
v 1 13 -5
v 1 13 -9
v -1 14 -5
v -1 13 -3
v -1 14 -3
v -1 13 -5
v 1 13 -3
v 1 14 -3
v -1 13 -3
v -1 14 -3
v 1 14 -3
v 1 14 -5
v -1 14 -3
v -1 14 -5
v 1 14 -5
v 1 13 -5
v -1 14 -5
v -1 13 -5
v 1 13 -5
v 1 13 -3
v -1 13 -5
v -1 13 -3
vt 3 0
vt -11 0
vt 3 13
vt -11 13
vt 3 0
vt -11 0
vt 3 13
vt -11 13
vt 11.95282 -0.9981909
vt -2.047182 -0.9981909
vt 11.95282 12.00181
vt -2.047182 12.00181
vt 11.96083 -1.067584
vt -2.039174 -1.067584
vt 11.96083 11.93242
vt -2.039174 11.93242
vt -1.5 -10
vt -2 -9.5
vt -2 2
vt 10 2
vt 10 -10
vt -2.039174 1.985795
vt 11.96083 1.985795
vt -0.03917408 -0.01420498
vt 9.960826 -0.01420498
vt 11.96083 -12.0142
vt 9.960826 -10.0142
vt -2.039174 -12.0142
vt -0.03917408 -10.0142
vt 1 13
vt -9 13
vt 1 16
vt -9 16
vt 1 12.02082
vt -9 12.02082
vt 2 13.43503
vt -10 13.43503
vt -17.67767 1
vt -17.67767 -9
vt -19.09188 2
vt -19.09188 -10
vt 9 17.67767
vt -1 17.67767
vt 10 19.09188
vt -2 19.09188
vt 2 17
vt -10 17
vt 2 25
vt -10 25
vt 9.999999 25.56764
vt 9.999999 18.06764
vt -2.000001 18.06764
vt -2.000001 26.06764
vt 9.499999 26.06764
vt 2 17
vt -10 17
vt 2 25
vt -10 25
vt -1.500001 26.06764
vt 9.999999 26.06764
vt 9.999999 18.06764
vt -2.000001 18.06764
vt -2.000001 25.56764
vt 5.656854 15.10519
vt 5.303301 15.71756
vt 6.010407 15.71756
vt -0.03917408 -6.014205
vt -0.03917408 -4.014205
vt 1 14.5
vt 1 13
vt -9 13
vt -9 16
vt 1 16
vt 5.937408 13.02083
vt 1.937408 12.02083
vt 1.937408 13.52083
vt 5.937408 12.02083
vt 6.937408 15.02083
vt 1.937408 15.02083
vt 7.937408 13.02083
vt 11.93741 15.02083
vt 11.93741 13.52083
vt 12.06053 15.0563
vt 2.060531 13.5563
vt 2.060531 15.0563
vt 12.06053 12.0563
vt 2.060531 12.0563
vt 12.02081 1
vt 13.43503 2
vt 12.02081 -4
vt 13.43503 -10
vt 12.02081 -9
vt 7.937408 12.02083
vt 11.93741 12.02083
vt 5 14
vt 3 13
vt 3 14
vt 5 13
vt -1 13
vt -1 14
vt 1 13
vt 1 14
vt 1 -3
vt 1 -5
vt -1 -3
vt -1 -5
vt 1 14
vt 1 13
vt -1 14
vt -1 13
vt -1 -5
vt -1 -3
vt 1 -5
vt 1 -3
vn 0 0 1
vn 0 0 1
vn 0 0 1
vn 0 0 1
vn -1 0 0
vn -1 0 0
vn -1 0 0
vn -1 0 0
vn 0 0 -1
vn 0 0 -1
vn 0 0 -1
vn 0 0 -1
vn 1 0 0
vn 1 0 0
vn 1 0 0
vn 1 0 0
vn 0 1 0
vn 0 1 0
vn 0 1 0
vn 0 1 0
vn 0 1 0
vn 0 1 0
vn 0 1 0
vn 0 1 0
vn 0 1 0
vn 0 1 0
vn 0 1 0
vn 0 1 0
vn 0 1 0
vn -1 0 0
vn -1 0 0
vn -1 0 0
vn -1 0 0
vn 0 -0.7071068 0.7071068
vn 0 -0.7071068 0.7071068
vn 0 -0.7071068 0.7071068
vn 0 -0.7071068 0.7071068
vn -0.7071068 -0.7071068 0
vn -0.7071068 -0.7071068 0
vn -0.7071068 -0.7071068 0
vn -0.7071068 -0.7071068 0
vn 0 -0.7071068 -0.7071068
vn 0 -0.7071068 -0.7071068
vn 0 -0.7071068 -0.7071068
vn 0 -0.7071068 -0.7071068
vn 0 0 1
vn 0 0 1
vn 0 0 1
vn 0 0 1
vn 1 0 0
vn 1 0 0
vn 1 0 0
vn 1 0 0
vn 1 0 0
vn -1 0 0
vn -1 0 0
vn -1 0 0
vn -1 0 0
vn 0 0 -1
vn 0 0 -1
vn 0 0 -1
vn 0 0 -1
vn 0 0 -1
vn 0.5773503 0.5773503 -0.5773503
vn 0.5773503 0.5773503 -0.5773503
vn 0.5773503 0.5773503 -0.5773503
vn 0 1 0
vn 0 1 0
vn 0 0 1
vn 0 0 1
vn 0 0 1
vn 0 0 1
vn 0 0 1
vn 1 0 0
vn 1 0 0
vn 1 0 0
vn 1 0 0
vn 1 0 0
vn 1 0 0
vn 1 0 0
vn 1 0 0
vn 1 0 0
vn 0 0 -1
vn 0 0 -1
vn 0 0 -1
vn 0 0 -1
vn 0 0 -1
vn 0.7071068 -0.7071068 0
vn 0.7071068 -0.7071068 0
vn 0.7071068 -0.7071068 0
vn 0.7071068 -0.7071068 0
vn 0.7071068 -0.7071068 0
vn 1 0 0
vn 1 0 0
vn 1 0 0
vn 1 0 0
vn 1 0 0
vn 1 0 0
vn 0 0 -1
vn 0 0 -1
vn 0 0 -1
vn 0 0 -1
vn 0 -1 0
vn 0 -1 0
vn 0 -1 0
vn 0 -1 0
vn 0 0 1
vn 0 0 1
vn 0 0 1
vn 0 0 1
vn 0 1 0
vn 0 1 0
vn 0 1 0
vn 0 1 0
g pb_Mesh255366_0
g pb_Mesh255366_1
f 3/3/3 2/2/2 1/1/1
f 3/3/3 4/4/4 2/2/2
f 7/7/7 6/6/6 5/5/5
f 7/7/7 8/8/8 6/6/6
f 11/11/11 10/10/10 9/9/9
f 11/11/11 12/12/12 10/10/10
f 15/15/15 14/14/14 13/13/13
f 15/15/15 16/16/16 14/14/14
f 19/19/19 18/18/18 17/17/17
f 17/17/17 21/21/21 20/20/20
f 19/19/19 17/17/17 20/20/20
f 24/24/24 23/23/23 22/22/22
f 24/24/24 25/25/25 23/23/23
f 25/25/25 26/26/26 23/23/23
f 25/25/25 27/27/27 26/26/26
f 27/27/27 28/28/28 26/26/26
f 27/27/27 29/29/29 28/28/28
f 32/32/32 31/31/31 30/30/30
f 32/32/32 33/33/33 31/31/31
f 36/36/36 35/35/35 34/34/34
f 36/36/36 37/37/37 35/35/35
f 40/40/40 39/39/39 38/38/38
f 40/40/40 41/41/41 39/39/39
f 44/44/44 43/43/43 42/42/42
f 44/44/44 45/45/45 43/43/43
f 48/48/48 47/47/47 46/46/46
f 48/48/48 49/49/49 47/47/47
f 52/52/52 51/51/51 50/50/50
f 53/53/53 52/52/52 50/50/50
f 53/53/53 50/50/50 54/54/54
f 57/57/57 56/56/56 55/55/55
f 57/57/57 58/58/58 56/56/56
f 61/61/61 60/60/60 59/59/59
f 62/62/62 61/61/61 59/59/59
f 59/59/59 63/63/63 62/62/62
f 66/66/66 65/65/65 64/64/64
f 28/28/28 29/29/29 67/67/67
f 28/28/28 67/67/67 68/68/68
f 22/22/22 28/28/28 68/68/68
f 24/24/24 22/22/22 68/68/68
f 71/71/71 70/70/70 69/69/69
f 72/72/72 71/71/71 69/69/69
f 72/72/72 69/69/69 73/73/73
f 76/76/76 75/75/75 74/74/74
f 75/75/75 77/77/77 74/74/74
f 79/79/79 76/76/76 78/78/78
f 76/76/76 74/74/74 78/78/78
f 78/78/78 74/74/74 80/80/80
f 80/80/80 82/82/82 81/81/81
f 78/78/78 80/80/80 81/81/81
f 85/85/85 84/84/84 83/83/83
f 84/84/84 86/86/86 83/83/83
f 84/84/84 87/87/87 86/86/86
f 90/90/90 89/89/89 88/88/88
f 90/90/90 91/91/91 89/89/89
f 90/90/90 92/92/92 91/91/91
f 80/80/80 93/93/93 82/82/82
f 93/93/93 94/94/94 82/82/82
f 97/97/97 96/96/96 95/95/95
f 96/96/96 98/98/98 95/95/95
f 101/101/101 100/100/100 99/99/99
f 101/101/101 102/102/102 100/100/100
f 105/105/105 104/104/104 103/103/103
f 105/105/105 106/106/106 104/104/104
f 109/109/109 108/108/108 107/107/107
f 109/109/109 110/110/110 108/108/108
f 113/113/113 112/112/112 111/111/111
f 113/113/113 114/114/114 112/112/112
