g pb_Mesh446080
v 9.000012 -8 -11.99998
v 8.999993 0 4.500018
v -6.999988 -8 -12
v -7.000007 0 4.500014
v 8.999991 8.773804E-05 6.000018
v -7.000007 0 4.500014
v 8.999993 0 4.500018
v -7.000009 8.773804E-05 5.999999
v -6.999986 -7.999912 -13.5
v 9.000012 -8 -11.99998
v -6.999988 -8 -12
v 9.000014 -7.999912 -13.49998
vt -9.000017 -14.28794
vt -8.999993 4.049181
vt 6.999983 -14.28796
vt 7.000007 4.049175
vt -8.999991 6.000018
vt 7.000007 4.500014
vt -8.999993 4.500018
vt 7.000009 5.999999
vt 6.999986 -13.49953
vt -9.000012 -11.99951
vt 6.999988 -11.99953
vt -9.000014 -13.49951
vn 4.940746E-07 0.8998141 -0.4362735
vn 2.925441E-07 0.8998142 -0.4362733
vn 2.925441E-07 0.8998142 -0.4362733
vn 9.101367E-08 0.8998142 -0.4362732
vn 4.00939E-11 1 -5.849232E-05
vn 4.00939E-11 1 -5.849232E-05
vn 1.220239E-11 1 -5.849202E-05
vn 6.798542E-11 1 -5.849262E-05
vn -6.624153E-11 1 5.849202E-05
vn -6.624153E-11 1 5.849202E-05
vn -6.624153E-11 1 5.849202E-05
vn -6.624153E-11 1 5.849202E-05
g pb_Mesh446080_0
f 3/3/3 2/2/2 1/1/1
f 3/3/3 4/4/4 2/2/2
f 7/7/7 6/6/6 5/5/5
f 6/6/6 8/8/8 5/5/5
f 11/11/11 10/10/10 9/9/9
f 10/10/10 12/12/12 9/9/9
