g pb_Mesh113740
v -45 39 -51
v -45 39 -55
v -45 39.94112 -51
v -45 39.94112 -55
v -10 0 0
v -49.99822 0 0
v -10 64 0
v -49.99822 64 0
v -33.80364 25.1791 -64.96997
v -26.12167 25.23783 -64.9544
v -33.87655 34.73583 -65.0458
v -26.19458 34.79456 -65.03023
v -10 0 -64
v -10 0 0
v -10 64 -64
v -10 64 0
v -10 64 0
v -49.99822 64 0
v -10 64 -64
v -49.99822 64 -64
v -10 0 -64
v -49.99822 0 -64
v -10 0 0
v -49.99822 0 0
v -49.99822 0 -64
v -10 0 -64
v -35.35316 22.35135 -64.00002
v -24.64506 22.35135 -64.00002
v -49.99822 64 -64
v -35.35316 37 -64.00002
v -10 0 -64
v -10 64 -64
v -24.64506 37 -64.00002
v -10 64 -64
v -49.99822 64 -64
v -24.64506 37 -64.00002
v -35.35316 37 -64.00002
v -35.35316 22.35135 -64.00002
v -24.64506 22.35135 -64.00002
v -35.35316 22.35135 -66.0001
v -24.64506 22.35135 -66.0001
v -35.35316 37 -64.00002
v -35.35316 22.35135 -64.00002
v -35.35316 37 -66.0001
v -35.35316 22.35135 -66.0001
v -24.64506 22.35135 -64.00002
v -24.64506 37 -64.00002
v -24.64506 22.35135 -66.0001
v -24.64506 37 -66.0001
v -24.64506 37 -64.00002
v -35.35316 37 -64.00002
v -24.64506 37 -66.0001
v -35.35316 37 -66.0001
v -35.35316 22.35135 -66.0001
v -24.64506 22.35135 -66.0001
v -33.84021 25.20818 -66.00017
v -26.158 25.20818 -66.00017
v -35.35316 37 -66.0001
v -35.35316 22.35135 -66.0001
v -33.84021 34.76549 -66.00017
v -33.84021 25.20818 -66.00017
v -24.64506 22.35135 -66.0001
v -24.64506 37 -66.0001
v -26.158 25.20818 -66.00017
v -26.158 34.76549 -66.00017
v -24.64506 37 -66.0001
v -35.35316 37 -66.0001
v -26.158 34.76549 -66.00017
v -33.84021 34.76549 -66.00017
v -33.84021 25.20818 -66.00017
v -26.158 25.20818 -66.00017
v -33.80364 25.1791 -64.96997
v -26.12167 25.23783 -64.9544
v -33.84021 34.76549 -66.00017
v -33.84021 25.20818 -66.00017
v -33.87655 34.73583 -65.0458
v -33.80364 25.1791 -64.96997
v -26.158 25.20818 -66.00017
v -26.158 34.76549 -66.00017
v -26.12167 25.23783 -64.9544
v -26.19458 34.79456 -65.03023
v -26.158 34.76549 -66.00017
v -33.84021 34.76549 -66.00017
v -26.19458 34.79456 -65.03023
v -33.87655 34.73583 -65.0458
v -49.99822 0 0
v -49.99822 0 -64
v -50 39 -51
v -50 39 -55
v -49.99822 64 0
v -49.99822 0 0
v -50 47 -51
v -50 39 -51
v -49.99822 0 -64
v -49.99822 64 -64
v -50 39 -55
v -50 47 -55
v -49.99822 64 -64
v -49.99822 64 0
v -50 47 -55
v -50 47 -51
v -50 39 -51
v -50 39 -55
v -45 39 -51
v -45 39 -55
v -50 47 -51
v -50 39 -51
v -45 39.94112 -51
v -45 39 -51
v -50 39 -55
v -50 47 -55
v -45 39 -55
v -45 39.94112 -55
v -50 47 -55
v -50 47 -51
v -45 39.94112 -55
v -45 39.94112 -51
vt -51 39
vt -55 39
vt -51 39.94112
vt -55 39.94112
vt -10 0
vt -49.99822 0
vt -10 64
vt -49.99822 64
vt 33.93919 25.69221
vt 26.25721 25.75094
vt 34.01226 35.24924
vt 26.33028 35.30797
vt 64 0
vt 0 0
vt 64 64
vt 0 64
vt 10 0
vt 49.99822 0
vt 10 -64
vt 49.99822 -64
vt -10 -64
vt -49.99822 -64
vt -10 0
vt -49.99822 0
vt 49.99822 6.553716E-05
vt 10 6.553716E-05
vt 35.35316 22.35141
vt 24.64506 22.35141
vt 49.99812 64
vt 35.35306 37
vt 10.0001 0
vt 10.0001 64
vt 24.64516 37
vt 10 63.99995
vt 49.99822 63.99995
vt 24.64506 36.99995
vt 35.35316 36.99995
vt -35.35316 -64.00002
vt -24.64506 -64.00002
vt -35.35316 -66.0001
vt -24.64506 -66.0001
vt -64.00002 37
vt -64.00002 22.35135
vt -66.0001 37
vt -66.0001 22.35135
vt 64.00002 22.35135
vt 64.00002 37
vt 66.0001 22.35135
vt 66.0001 37
vt 24.64506 -64.00002
vt 35.35316 -64.00002
vt 24.64506 -66.0001
vt 35.35316 -66.0001
vt 35.35316 22.35293
vt 24.64506 22.35293
vt 33.84021 25.20977
vt 26.158 25.20977
vt 35.35017 37
vt 35.35017 22.35135
vt 33.83722 34.76549
vt 33.83722 25.20818
vt 24.64805 22.35135
vt 24.64805 37
vt 26.161 25.20818
vt 26.161 34.76549
vt 24.64506 36.99797
vt 35.35316 36.99797
vt 26.158 34.76346
vt 33.84021 34.76346
vt 33.84021 -66.68507
vt 26.158 -66.68507
vt 33.80364 -65.65446
vt 26.12167 -65.64056
vt 64.66495 34.76549
vt 64.66495 25.20818
vt 63.70988 34.73583
vt 63.63689 25.1791
vt -66.86868 25.20818
vt -66.86868 34.76549
vt -65.82227 25.23783
vt -65.90059 34.79456
vt -26.158 -64.92885
vt -33.84021 -64.92885
vt -26.19458 -63.95847
vt -33.87655 -63.9758
vt 0 0.002283846
vt -64 0.002283846
vt -51 39.00229
vt -55 39.00229
vt -0.001746471 64
vt -0.001746471 0
vt -51.00175 47
vt -51.00175 39
vt -63.9901 0
vt -63.9901 64
vt -54.9901 39
vt -54.9901 47
vt -64 63.99476
vt 0 63.99476
vt -55 46.99476
vt -51 46.99476
vt 50 -51
vt 50 -55
vt 45 -51
vt 45 -55
vt 50 47
vt 50 39
vt 45 39.94112
vt 45 39
vt -50 39
vt -50 47
vt -45 39
vt -45 39.94112
vt -55 67.25397
vt -51 67.25397
vt -55 58.60366
vt -51 58.60366
vn -1 0 0
vn -1 0 0
vn -1 0 0
vn -1 0 0
vn 0 0 1
vn 0 0 1
vn 0 0 1
vn 0 0 1
vn 0.002087503 -0.00791838 -0.9999665
vn 0.002087503 -0.00791838 -0.9999665
vn 0.002087503 -0.00791838 -0.9999665
vn 0.002087503 -0.00791838 -0.9999665
vn 1 0 0
vn 1 0 0
vn 1 0 0
vn 1 0 0
vn 0 1 0
vn 0 1 0
vn 0 1 0
vn 0 1 0
vn 0 -1 0
vn 0 -1 0
vn 0 -1 0
vn 0 -1 0
vn 0 -1.024018E-06 -1
vn 0 -1.024018E-06 -1
vn 0 -1.024018E-06 -1
vn 0 -1.024018E-06 -1
vn -1.562861E-06 0 -1
vn -1.562861E-06 0 -1
vn 1.562861E-06 0 -1
vn 1.562861E-06 0 -1
vn 1.562861E-06 0 -1
vn 0 8.477105E-07 -1
vn 0 8.477105E-07 -1
vn 0 8.477105E-07 -1
vn 0 8.477105E-07 -1
vn 0 -1 0
vn 0 -1 0
vn 0 -1 0
vn 0 -1 0
vn -1 0 0
vn -1 0 0
vn -1 0 0
vn -1 0 0
vn 1 0 0
vn 1 0 0
vn 1 0 0
vn 1 0 0
vn 0 1 0
vn 0 1 0
vn 0 1 0
vn 0 1 0
vn 0 -2.403519E-05 -1
vn 0 -2.403519E-05 -1
vn 0 -2.403519E-05 -1
vn 0 -2.403519E-05 -1
vn -4.538463E-05 0 -1
vn -4.538464E-05 0 -1
vn -4.538464E-05 0 -1
vn -4.538464E-05 0 -1
vn 4.538463E-05 0 -1
vn 4.538464E-05 0 -1
vn 4.538464E-05 0 -1
vn 4.538464E-05 0 -1
vn 0 3.07291E-05 -1
vn 0 3.07291E-05 -1
vn 0 3.07291E-05 -1
vn 0 3.07291E-05 -1
vn 0 0.999602 0.02821212
vn -0.003792579 0.9995894 6.505009E-05
vn -0.003792579 0.9995894 6.505009E-05
vn -0.007585158 0.9995769 -0.02808202
vn 0.999276 0 0.03804472
vn 0.9993134 0.003672192 0.001385916
vn 0.9993134 0.003672192 0.001385916
vn 0.9993507 0.007344384 -0.03527289
vn -0.999397 0 0.03472382
vn -0.9993322 -0.003960362 -0.001359977
vn -0.9993322 -0.003960362 -0.001359977
vn -0.9992673 -0.007920723 -0.03744377
vn 0 -0.999551 0.02996326
vn 0.003851915 -0.999524 -0.0004005944
vn 0.003851915 -0.999524 -0.0004005944
vn 0.007703831 -0.999497 -0.03076445
vn -1 -4.567855E-05 0
vn -1 -4.567855E-05 0
vn -1 -4.567855E-05 0
vn -1 -4.567855E-05 0
vn -1 0 3.493066E-05
vn -1 0 3.493066E-05
vn -1 0 3.493066E-05
vn -1 0 3.493066E-05
vn -1 0 -0.0001979404
vn -1 0 -0.0001979404
vn -1 0 -0.0001979404
vn -1 0 -0.0001979404
vn -1 0.000104792 0
vn -1 0.000104792 0
vn -1 0.000104792 0
vn -1 0.000104792 0
vn 0 1 0
vn 0 1 0
vn 0 1 0
vn 0 1 0
vn 0 0 -1
vn 0 0 -1
vn 0 0 -1
vn 0 0 -1
vn 0 0 1
vn 0 0 1
vn 0 0 1
vn 0 0 1
vn -0.8160268 -0.5780141 0
vn -0.8160268 -0.5780141 0
vn -0.8160268 -0.5780141 0
vn -0.8160268 -0.5780141 0
g pb_Mesh113740_0
f 3/3/3 2/2/2 1/1/1
f 3/3/3 4/4/4 2/2/2
g pb_Mesh113740_1
f 7/7/7 6/6/6 5/5/5
f 7/7/7 8/8/8 6/6/6
f 11/11/11 10/10/10 9/9/9
f 11/11/11 12/12/12 10/10/10
f 15/15/15 14/14/14 13/13/13
f 15/15/15 16/16/16 14/14/14
f 19/19/19 18/18/18 17/17/17
f 19/19/19 20/20/20 18/18/18
f 23/23/23 22/22/22 21/21/21
f 23/23/23 24/24/24 22/22/22
f 27/27/27 26/26/26 25/25/25
f 27/27/27 28/28/28 26/26/26
f 30/30/30 25/25/25 29/29/29
f 30/30/30 27/27/27 25/25/25
f 28/28/28 32/32/32 31/31/31
f 28/28/28 33/33/33 32/32/32
f 36/36/36 35/35/35 34/34/34
f 36/36/36 37/37/37 35/35/35
f 40/40/40 39/39/39 38/38/38
f 40/40/40 41/41/41 39/39/39
f 44/44/44 43/43/43 42/42/42
f 44/44/44 45/45/45 43/43/43
f 48/48/48 47/47/47 46/46/46
f 48/48/48 49/49/49 47/47/47
f 52/52/52 51/51/51 50/50/50
f 52/52/52 53/53/53 51/51/51
f 56/56/56 55/55/55 54/54/54
f 56/56/56 57/57/57 55/55/55
f 60/60/60 59/59/59 58/58/58
f 60/60/60 61/61/61 59/59/59
f 64/64/64 63/63/63 62/62/62
f 64/64/64 65/65/65 63/63/63
f 68/68/68 67/67/67 66/66/66
f 68/68/68 69/69/69 67/67/67
f 72/72/72 71/71/71 70/70/70
f 72/72/72 73/73/73 71/71/71
f 76/76/76 75/75/75 74/74/74
f 76/76/76 77/77/77 75/75/75
f 80/80/80 79/79/79 78/78/78
f 80/80/80 81/81/81 79/79/79
f 84/84/84 83/83/83 82/82/82
f 84/84/84 85/85/85 83/83/83
f 88/88/88 87/87/87 86/86/86
f 88/88/88 89/89/89 87/87/87
f 92/92/92 91/91/91 90/90/90
f 92/92/92 93/93/93 91/91/91
f 96/96/96 95/95/95 94/94/94
f 96/96/96 97/97/97 95/95/95
f 100/100/100 99/99/99 98/98/98
f 100/100/100 101/101/101 99/99/99
f 104/104/104 103/103/103 102/102/102
f 104/104/104 105/105/105 103/103/103
f 108/108/108 107/107/107 106/106/106
f 108/108/108 109/109/109 107/107/107
f 112/112/112 111/111/111 110/110/110
f 112/112/112 113/113/113 111/111/111
f 116/116/116 115/115/115 114/114/114
f 116/116/116 117/117/117 115/115/115
