g pb_Mesh271964
v 0 0 0
v -4 0 0
v 0 2 0
v -4 2 0
v -4.000004 0 -16
v -3.933907E-06 0 -16
v -4.000004 2 -16
v -3.933907E-06 2 -16
v -4 0 0
v -4.000004 0 -16
v -4 2 0
v -4.000004 2 -16
v -3.933907E-06 0 -16
v 0 0 0
v -3.933907E-06 2 -16
v 0 2 0
v 0 2 0
v -4 2 0
v -3.933907E-06 2 -16
v -4.000004 2 -16
v -3.933907E-06 0 -16
v -4.000004 0 -16
v 0 0 0
v -4 0 0
vt 0 0
vt -4 0
vt 0 2
vt -4 2
vt 4.000004 0
vt 3.933907E-06 0
vt 4.000004 2
vt 3.933907E-06 2
vt -9.536741E-07 0
vt -16.00001 0
vt -9.536741E-07 2
vt -16.00001 2
vt 16 0
vt 0 0
vt 16 2
vt 0 2
vt 0 0
vt 4 0
vt 3.933907E-06 -16
vt 4.000004 -16
vt -3.933907E-06 -16
vt -4.000004 -16
vt 0 0
vt -4 0
vn 0 0 1
vn 0 0 1
vn 0 0 1
vn 0 0 1
vn 0 0 -1
vn 0 0 -1
vn 0 0 -1
vn 0 0 -1
vn -1 0 2.384185E-07
vn -1 0 2.384185E-07
vn -1 0 2.384185E-07
vn -1 0 2.384185E-07
vn 1 0 -2.458691E-07
vn 1 0 -2.458691E-07
vn 1 0 -2.458691E-07
vn 1 0 -2.458691E-07
vn 0 1 0
vn 0 1 0
vn 0 1 0
vn 0 1 0
vn 0 -1 0
vn 0 -1 0
vn 0 -1 0
vn 0 -1 0
g pb_Mesh271964_0
f 3/3/3 2/2/2 1/1/1
f 3/3/3 4/4/4 2/2/2
f 7/7/7 6/6/6 5/5/5
f 7/7/7 8/8/8 6/6/6
g pb_Mesh271964_1
f 11/11/11 10/10/10 9/9/9
f 11/11/11 12/12/12 10/10/10
f 15/15/15 14/14/14 13/13/13
f 15/15/15 16/16/16 14/14/14
f 19/19/19 18/18/18 17/17/17
f 19/19/19 20/20/20 18/18/18
f 23/23/23 22/22/22 21/21/21
f 23/23/23 24/24/24 22/22/22
