g pb_Mesh298780
v -3.874491E-07 -1.403269 -3.397468E-06
v -0.7500004 -1.403269 -4.850331E-06
v 0 4 0
v -0.75 4 0
v -0.7500004 -1.403269 -4.850331E-06
v -0.7500004 -0.4032688 -1.000005
v -0.75 4 0
v -0.75 4 -1
v -0.7500004 -0.4032688 -1.000005
v -3.57647E-07 -0.6532688 -1.000003
v -0.75 4 -1
v 0 4 -1
v -3.57647E-07 -0.6532688 -1.000003
v -3.874491E-07 -1.403269 -3.397468E-06
v 0 4 -1
v 0 4 0
v 0 4 0
v -0.75 4 0
v 0 4 -1
v -0.75 4 -1
v -3.57647E-07 -0.6532688 -1.000003
v -0.7500004 -0.4032688 -1.000005
v -3.874491E-07 -1.403269 -3.397468E-06
v -0.7500004 -0.4032688 -1.000005
v -0.7500004 -1.403269 -4.850331E-06
v -3.874491E-07 -1.403269 -3.397468E-06
vt -3.874557E-07 -1.403269
vt -0.7500004 -1.403269
vt 0 4
vt -0.75 4
vt -4.863542E-06 -1.403269
vt -1.000005 -0.4032689
vt -1.321041E-08 4
vt -1 4
vt 0.7500026 -0.4032699
vt 2.635E-06 -0.6532699
vt 0.7500023 3.999999
vt 2.277345E-06 3.999999
vt 1.000003 -0.6532688
vt 3.397468E-06 -1.403269
vt 1 4
vt 0 4
vt 0 0
vt 0.75 0
vt 0 -1
vt 0.75 -1
vt 0.2065806 -0.4555115
vt -0.5839888 -0.4555133
vt 0.4437505 0.7717825
vt 0.7500023 0.4219551
vt 0.7500004 -0.9922584
vt 3.874555E-07 -0.9922585
vn -1.937151E-06 -6.2878E-07 1
vn -9.685755E-07 -7.63223E-07 1
vn -9.685755E-07 -7.63223E-07 1
vn 0 -8.97666E-07 1
vn -1 7.721852E-08 1.761388E-08
vn -1 7.921862E-08 8.806938E-09
vn -1 7.921862E-08 8.806938E-09
vn -1 8.121872E-08 0
vn 2.277345E-06 1.109989E-06 -1
vn 1.138672E-06 9.264613E-07 -1
vn 1.138672E-06 9.264613E-07 -1
vn 0 7.429335E-07 -1
vn 1 -7.685928E-08 -2.784236E-08
vn 1 -7.428285E-08 -1.392118E-08
vn 1 -7.428285E-08 -1.392118E-08
vn 1 -7.170642E-08 0
vn 0 1 0
vn 0 1 0
vn 0 1 0
vn 0 1 0
vn -0.2576616 -0.7729882 -0.5797411
vn -0.2576616 -0.7729882 -0.5797411
vn -0.2576616 -0.7729882 -0.5797411
vn 1.348699E-06 -0.7071068 -0.7071068
vn 1.348699E-06 -0.7071068 -0.7071068
vn 1.348699E-06 -0.7071068 -0.7071068
g pb_Mesh298780_0
f 3/3/3 2/2/2 1/1/1
f 3/3/3 4/4/4 2/2/2
f 7/7/7 6/6/6 5/5/5
f 7/7/7 8/8/8 6/6/6
f 11/11/11 10/10/10 9/9/9
f 11/11/11 12/12/12 10/10/10
f 15/15/15 14/14/14 13/13/13
f 15/15/15 16/16/16 14/14/14
f 19/19/19 18/18/18 17/17/17
f 19/19/19 20/20/20 18/18/18
f 23/23/23 22/22/22 21/21/21
f 26/26/26 25/25/25 24/24/24
