g pb_Mesh203666
v 9.999978 -1.000003 0.000118792
v 9.999978 -2.861553E-06 0.000118792
v 8.99999 -1.000003 0.0001149774
v 8.428314 -4.088557E-06 0.0001111627
v 8.999993 -10.0001 0.0001149774
v 8.999993 -9.000102 0.0001149774
v 7.999993 -10.0001 0.0001111627
v 7.999993 -9.000102 0.0001111627
v 8.999993 -8.000102 0.0001149774
v 7.999993 -8.000102 0.0001111627
v 8.999993 -7.000003 0.0001149774
v 7.999993 -7.000003 0.0001111627
v 8.999993 -6.000003 0.0001149774
v 7.999993 -6.000003 0.0001111627
v 8.999993 -5.000003 0.0001149774
v 7.999993 -5.000003 0.0001111627
v 8.999993 -4.000003 0.0001149774
v 7.999993 -4.000003 0.0001111627
v 8.999993 -3.000003 0.0001149774
v 7.999993 -3.000003 0.0001111627
v 8.999993 -2.000003 0.0001149774
v 7.999993 -2.000003 0.0001111627
v 7.999993 -1.000003 0.0001111627
v 7.999993 -2.861553E-06 0.0001111627
v 6.999993 -10.0001 0.000107348
v 6.999993 -9.000102 0.000107348
v 6.999993 -8.000102 0.000107348
v 6.999993 -7.000003 0.000107348
v 6.999993 -6.000003 0.000107348
v 6.999993 -5.000003 0.0001032948
v 6.999993 -4.000003 0.000107348
v 6.999993 -3.000003 0.000107348
v 6.999993 -2.000003 0.000107348
v 6.999993 -1.000003 0.000107348
v 6.999993 -2.861553E-06 0.000107348
v 5.999993 -10.0001 0.0001035333
v 5.999993 -9.000102 0.0001035333
v 5.999993 -8.000102 0.0001035333
v 5.999993 -7.000003 0.0001035333
v 5.999993 -6.000003 0.0001035333
v 5.999993 -5.000003 0.0001032352
v 5.999993 -4.000003 0.0001035333
v 5.999993 -3.000003 0.0001035333
v 5.999993 -2.000003 0.0001035333
v 5.999993 -1.000003 0.0001035333
v 5.999993 -2.861553E-06 0.0001035333
v 4.999993 -10.0001 9.971856E-05
v 4.999993 -9.000102 9.971856E-05
v 4.999993 -8.000102 9.971856E-05
v 4.999993 -7.000003 9.971856E-05
v 4.999993 -6.000003 9.971856E-05
v 4.999993 -5.000003 9.554625E-05
v 4.999993 -4.000003 9.971856E-05
v 4.999993 -3.000003 9.971856E-05
v 4.999993 -2.000003 9.971856E-05
v 4.999993 -1.000003 9.971856E-05
v 4.999993 -2.861553E-06 9.971856E-05
v 3.999993 -10.0001 9.971856E-05
v 3.999993 -9.000102 9.971856E-05
v 3.999993 -8.000102 9.971856E-05
v 3.999993 -7.000003 9.971856E-05
v 3.999993 -6.000003 9.971856E-05
v 3.999993 -5.000003 9.971856E-05
v 3.999993 -4.000003 9.971856E-05
v 3.999993 -3.000003 9.971856E-05
v 3.999993 -2.000003 9.971856E-05
v 3.999993 -1.000003 9.971856E-05
v 3.999993 -2.861553E-06 9.971856E-05
v 2.999993 -10.0001 9.971856E-05
v 2.999993 -9.000102 9.971856E-05
v 2.999993 -8.000102 9.971856E-05
v 2.999993 -7.000003 9.971856E-05
v 2.999993 -6.000003 9.971856E-05
v 2.999993 -5.000003 9.971856E-05
v 2.999993 -4.000003 9.971856E-05
v 2.999993 -3.000003 9.971856E-05
v 2.999993 -2.000003 9.971856E-05
v 2.999993 -1.000003 9.971856E-05
v 2.999993 -2.861553E-06 9.971856E-05
v 1.999993 -10.0001 9.971856E-05
v 1.999993 -9.000102 9.971856E-05
v 1.999993 -8.000102 9.971856E-05
v 1.999993 -7.000003 9.971856E-05
v 1.999993 -6.000003 9.971856E-05
v 1.999993 -5.000003 9.971856E-05
v 1.999993 -4.000003 9.971856E-05
v 1.999993 -3.000003 9.971856E-05
v 1.999993 -2.000003 9.971856E-05
v 1.999993 -1.000003 9.971856E-05
v 1.999993 -2.861553E-06 9.971856E-05
v 0.9999857 -10.0001 9.971856E-05
v 0.9999857 -9.000102 9.971856E-05
v 0.9999857 -8.000102 9.971856E-05
v 0.9999857 -7.000003 9.971856E-05
v 0.9999857 -6.000003 9.971856E-05
v 0.9999857 -5.000003 9.971856E-05
v 0.9999857 -4.000003 9.971856E-05
v 0.9999857 -3.000003 9.971856E-05
v 0.9999857 -2.000003 9.971856E-05
v 0.9999857 -1.000003 9.971856E-05
v 0.9999857 -2.861553E-06 9.971856E-05
v -2.861023E-06 -9.000102 1.072418E-06
v 0.9999857 -10.0001 9.971856E-05
v 9.536743E-07 -10.0001 -3.576744E-06
v -6.67572E-06 -8.000102 -1.907814E-06
v 0.9999857 -9.000102 9.971856E-05
v 0.9999857 -8.000102 9.971856E-05
v -1.049042E-05 -7.000003 -4.887588E-06
v 0.9999857 -7.000003 9.971856E-05
v -2.861023E-06 -6.000003 -2.384259E-07
v -6.67572E-06 -5.000003 -3.218658E-06
v 0.9999857 -6.000003 9.971856E-05
v 0.9999857 -5.000003 9.971856E-05
v -1.049042E-05 -4.000001 1.430511E-06
v 9.536743E-07 -3.000001 -1.549721E-06
v 0.9999857 -3.000003 9.971856E-05
v -6.67572E-06 -2.000001 -4.529953E-06
v 0.9999857 -2.000003 9.971856E-05
v -1.049042E-05 -1.000001 1.192093E-07
v 9.536743E-07 -9.536288E-07 -2.861023E-06
v 0.9999857 -1.000003 9.971856E-05
v 0.9999857 -2.861553E-06 9.971856E-05
v 7.999965 -11.99999 1.198053E-05
v 8.999965 -11.99999 1.579522E-05
v 6.999965 -11.99999 8.165829E-06
v 5.999965 -11.99999 4.351132E-06
v 4.999965 -11.99999 5.364345E-07
v 3.999965 -11.99999 5.364345E-07
v 2.999965 -11.99999 5.364345E-07
v 1.999965 -11.99999 5.364345E-07
v 0.9999647 -11.99999 5.364345E-07
v -1.811981E-05 -11.99999 -0.0001044273
v 0.9999647 -11.99999 5.364345E-07
vt -9.999978 -1.000003
vt -9.999978 -2.861553E-06
vt -8.99999 -1.000003
vt -8.428314 -4.088557E-06
vt -8.999993 -10.0001
vt -8.999993 -9.000102
vt -7.999993 -10.0001
vt -7.999993 -9.000102
vt -8.999993 -8.000102
vt -7.999993 -8.000102
vt -8.999993 -7.000003
vt -7.999993 -7.000003
vt -8.999993 -6.000003
vt -7.999993 -6.000003
vt -8.999993 -5.000003
vt -7.999993 -5.000003
vt -8.999993 -4.000003
vt -7.999993 -4.000003
vt -8.999993 -3.000003
vt -7.999993 -3.000003
vt -8.999993 -2.000003
vt -7.999993 -2.000003
vt -7.999993 -1.000003
vt -7.999993 -2.861685E-06
vt -6.999993 -10.0001
vt -6.999993 -9.000102
vt -6.999993 -8.000102
vt -6.999993 -7.000003
vt -6.999993 -6.000003
vt -6.999993 -5.000003
vt -6.999993 -4.000003
vt -6.999993 -3.000003
vt -6.999993 -2.000003
vt -6.999993 -1.000003
vt -6.999993 -2.861553E-06
vt -5.999993 -10.0001
vt -5.999993 -9.000102
vt -5.999993 -8.000102
vt -5.999993 -7.000003
vt -5.999993 -6.000003
vt -5.999993 -5.000003
vt -5.999993 -4.000003
vt -5.999993 -3.000003
vt -5.999993 -2.000003
vt -5.999993 -1.000003
vt -5.999993 -2.861553E-06
vt -4.999993 -10.0001
vt -4.999993 -9.000102
vt -4.999993 -8.000102
vt -4.999993 -7.000003
vt -4.999993 -6.000003
vt -4.999993 -5.000003
vt -4.999993 -4.000003
vt -4.999993 -3.000003
vt -4.999993 -2.000003
vt -4.999993 -1.000003
vt -4.999993 -2.861553E-06
vt -3.999993 -10.0001
vt -3.999993 -9.000102
vt -3.999993 -8.000102
vt -3.999993 -7.000003
vt -3.999993 -6.000003
vt -3.999993 -5.000003
vt -3.999993 -4.000003
vt -3.999993 -3.000003
vt -3.999993 -2.000003
vt -3.999993 -1.000003
vt -3.999993 -2.861553E-06
vt -2.999993 -10.0001
vt -2.999993 -9.000102
vt -2.999993 -8.000102
vt -2.999993 -7.000003
vt -2.999993 -6.000003
vt -2.999993 -5.000003
vt -2.999993 -4.000003
vt -2.999993 -3.000003
vt -2.999993 -2.000003
vt -2.999993 -1.000003
vt -2.999993 -2.861553E-06
vt -1.999993 -10.0001
vt -1.999993 -9.000102
vt -1.999993 -8.000102
vt -1.999993 -7.000003
vt -1.999993 -6.000003
vt -1.999993 -5.000003
vt -1.999993 -4.000003
vt -1.999993 -3.000003
vt -1.999993 -2.000003
vt -1.999993 -1.000003
vt -1.999993 -2.861553E-06
vt -0.9999857 -10.0001
vt -0.9999857 -9.000102
vt -0.9999857 -8.000102
vt -0.9999857 -7.000003
vt -0.9999857 -6.000003
vt -0.9999857 -5.000003
vt -0.9999857 -4.000003
vt -0.9999857 -3.000003
vt -0.9999857 -2.000003
vt -0.9999857 -1.000003
vt -0.9999857 -2.861553E-06
vt 2.860917E-06 -9.000102
vt -0.9999857 -10.0001
vt -9.533215E-07 -10.0001
vt 6.675914E-06 -8.000102
vt -0.9999857 -9.000102
vt -0.9999857 -8.000102
vt 1.049093E-05 -7.000003
vt -0.9999857 -7.000003
vt 2.861047E-06 -6.000003
vt 6.676052E-06 -5.000003
vt -0.9999857 -6.000003
vt -0.9999857 -5.000003
vt 1.049028E-05 -4.000001
vt -9.535174E-07 -3.000001
vt -0.9999857 -3.000003
vt 6.676192E-06 -2.000001
vt -0.9999857 -2.000003
vt 1.049041E-05 -1.000001
vt -9.533808E-07 -9.536288E-07
vt -0.9999857 -1.000003
vt -0.9999857 -2.861553E-06
vt -7.999965 -11.99999
vt -8.999965 -11.99999
vt -6.999965 -11.99999
vt -5.999965 -11.99999
vt -4.999965 -11.99999
vt -3.999965 -11.99999
vt -2.999965 -11.99999
vt -1.999965 -11.99999
vt -0.9999647 -11.99999
vt 1.81306E-05 -11.99999
vt -0.9999647 -11.99999
vn 3.814741E-06 0 -1
vn 4.334542E-06 -5.19795E-07 -1
vn 4.334542E-06 -5.19795E-07 -1
vn 4.854343E-06 -1.03959E-06 -1
vn 3.814697E-06 0 -1
vn 3.814697E-06 0 -1
vn 3.814697E-06 0 -1
vn 3.814697E-06 0 -1
vn 3.814697E-06 0 -1
vn 3.814697E-06 0 -1
vn 3.814697E-06 0 -1
vn 3.814697E-06 0 -1
vn 3.814697E-06 0 -1
vn 3.814697E-06 0 -1
vn 3.814697E-06 0 -1
vn 3.814697E-06 0 -1
vn 3.814697E-06 0 -1
vn 3.814697E-06 0 -1
vn 3.814697E-06 0 -1
vn 3.814697E-06 0 -1
vn 3.814697E-06 0 -1
vn 3.814697E-06 0 -1
vn 3.814712E-06 0 -1
vn 0 0 -1
vn 3.814697E-06 0 -1
vn 3.814697E-06 0 -1
vn 3.814697E-06 0 -1
vn 3.814697E-06 0 -1
vn 3.814697E-06 0 -1
vn 7.867806E-06 -4.053109E-06 -1
vn 3.814697E-06 4.053109E-06 -1
vn 3.814697E-06 0 -1
vn 3.814697E-06 0 -1
vn 3.814697E-06 0 -1
vn 3.814697E-06 0 -1
vn 3.814697E-06 0 -1
vn 3.814697E-06 0 -1
vn 3.814697E-06 0 -1
vn 3.814697E-06 0 -1
vn 3.814697E-06 0 -1
vn 5.960464E-08 -2.980159E-07 -1
vn 3.814697E-06 2.980159E-07 -1
vn 3.814697E-06 0 -1
vn 3.814697E-06 0 -1
vn 3.814697E-06 0 -1
vn 3.814697E-06 0 -1
vn 3.814697E-06 0 -1
vn 3.814697E-06 0 -1
vn 3.814697E-06 0 -1
vn 3.814697E-06 0 -1
vn 3.814697E-06 0 -1
vn 7.688999E-06 -4.172318E-06 -1
vn 3.814697E-06 4.172318E-06 -1
vn 3.814697E-06 0 -1
vn 3.814697E-06 0 -1
vn 3.814697E-06 0 -1
vn 3.814697E-06 0 -1
vn 0 0 -1
vn 0 0 -1
vn 0 0 -1
vn 0 0 -1
vn 0 0 -1
vn -4.172318E-06 0 -1
vn 0 0 -1
vn 0 0 -1
vn 0 0 -1
vn 0 0 -1
vn 0 0 -1
vn 0 0 -1
vn 0 0 -1
vn 0 0 -1
vn 0 0 -1
vn 0 0 -1
vn 0 0 -1
vn 0 0 -1
vn 0 0 -1
vn 0 0 -1
vn 0 0 -1
vn 0 0 -1
vn 0 0 -1
vn 0 0 -1
vn 0 0 -1
vn 0 0 -1
vn 0 0 -1
vn 0 0 -1
vn 0 0 -1
vn 0 0 -1
vn 0 0 -1
vn 0 0 -1
vn 0 0 -1
vn 0 0 -1
vn 0 0 -1
vn 0 0 -1
vn 0 0 -1
vn 0 0 -1
vn 0 0 -1
vn 0 0 -1
vn 0 0 -1
vn 0 0 -1
vn 0 0 -1
vn 0 0 -1
vn 0.0001009721 2.324778E-06 -1
vn 0.0001009721 2.324778E-06 -1
vn 0.0001032969 4.649557E-06 -1
vn 0.0001001372 -1.489928E-06 -1
vn 0.0001001372 -1.489928E-06 -1
vn 0.0001016272 0 -1
vn 0.0001031169 -1.489545E-06 -1
vn 0.0001046066 0 -1
vn 0.0001022823 2.324182E-06 -1
vn 0.0001014481 -1.489925E-06 -1
vn 0.0001014481 -1.489925E-06 -1
vn 0.000102938 0 -1
vn 0.0001006132 2.324777E-06 -1
vn 9.977912E-05 -1.490679E-06 -1
vn 0.0001012698 0 -1
vn 0.0001027596 -1.48973E-06 -1
vn 0.0001042493 0 -1
vn 0.0001019245 2.32478E-06 -1
vn 0.0001010904 -1.490686E-06 -1
vn 0.0001010904 -1.490686E-06 -1
vn 0.0001025812 0 -1
vn 3.814697E-06 4.959378E-05 -1
vn 3.814697E-06 4.959378E-05 -1
vn 3.814674E-06 4.959376E-05 -1
vn 3.814674E-06 4.959374E-05 -1
vn 3.814768E-06 4.959376E-05 -1
vn -2.364819E-11 4.959384E-05 -1
vn -2.364818E-11 4.959382E-05 -1
vn -2.364817E-11 4.95938E-05 -1
vn 7.094448E-11 4.959382E-05 -1
vn 0.0001041312 5.000991E-05 -1
vn 0.0001049654 4.959275E-05 -1
g pb_Mesh203666_0
g pb_Mesh203666_1
f 3/3/3 2/2/2 1/1/1
f 3/3/3 4/4/4 2/2/2
f 7/7/7 6/6/6 5/5/5
f 7/7/7 8/8/8 6/6/6
f 8/8/8 9/9/9 6/6/6
f 8/8/8 10/10/10 9/9/9
f 10/10/10 11/11/11 9/9/9
f 10/10/10 12/12/12 11/11/11
f 12/12/12 13/13/13 11/11/11
f 12/12/12 14/14/14 13/13/13
f 14/14/14 15/15/15 13/13/13
f 14/14/14 16/16/16 15/15/15
f 16/16/16 17/17/17 15/15/15
f 16/16/16 18/18/18 17/17/17
f 18/18/18 19/19/19 17/17/17
f 18/18/18 20/20/20 19/19/19
f 20/20/20 21/21/21 19/19/19
f 20/20/20 22/22/22 21/21/21
f 22/22/22 3/3/3 21/21/21
f 22/22/22 23/23/23 3/3/3
f 23/23/23 4/4/4 3/3/3
f 23/23/23 24/24/24 4/4/4
f 25/25/25 8/8/8 7/7/7
f 25/25/25 26/26/26 8/8/8
f 26/26/26 10/10/10 8/8/8
f 26/26/26 27/27/27 10/10/10
f 27/27/27 12/12/12 10/10/10
f 27/27/27 28/28/28 12/12/12
f 28/28/28 14/14/14 12/12/12
f 28/28/28 29/29/29 14/14/14
f 29/29/29 16/16/16 14/14/14
f 29/29/29 30/30/30 16/16/16
f 30/30/30 18/18/18 16/16/16
f 30/30/30 31/31/31 18/18/18
f 31/31/31 20/20/20 18/18/18
f 31/31/31 32/32/32 20/20/20
f 32/32/32 22/22/22 20/20/20
f 32/32/32 33/33/33 22/22/22
f 33/33/33 23/23/23 22/22/22
f 33/33/33 34/34/34 23/23/23
f 34/34/34 24/24/24 23/23/23
f 34/34/34 35/35/35 24/24/24
f 36/36/36 26/26/26 25/25/25
f 36/36/36 37/37/37 26/26/26
f 37/37/37 27/27/27 26/26/26
f 37/37/37 38/38/38 27/27/27
f 38/38/38 28/28/28 27/27/27
f 38/38/38 39/39/39 28/28/28
f 39/39/39 29/29/29 28/28/28
f 39/39/39 40/40/40 29/29/29
f 40/40/40 30/30/30 29/29/29
f 40/40/40 41/41/41 30/30/30
f 41/41/41 31/31/31 30/30/30
f 41/41/41 42/42/42 31/31/31
f 42/42/42 32/32/32 31/31/31
f 42/42/42 43/43/43 32/32/32
f 43/43/43 33/33/33 32/32/32
f 43/43/43 44/44/44 33/33/33
f 44/44/44 34/34/34 33/33/33
f 44/44/44 45/45/45 34/34/34
f 45/45/45 35/35/35 34/34/34
f 45/45/45 46/46/46 35/35/35
f 47/47/47 37/37/37 36/36/36
f 47/47/47 48/48/48 37/37/37
f 48/48/48 38/38/38 37/37/37
f 48/48/48 49/49/49 38/38/38
f 49/49/49 39/39/39 38/38/38
f 49/49/49 50/50/50 39/39/39
f 50/50/50 40/40/40 39/39/39
f 50/50/50 51/51/51 40/40/40
f 51/51/51 41/41/41 40/40/40
f 51/51/51 52/52/52 41/41/41
f 52/52/52 42/42/42 41/41/41
f 52/52/52 53/53/53 42/42/42
f 53/53/53 43/43/43 42/42/42
f 53/53/53 54/54/54 43/43/43
f 54/54/54 44/44/44 43/43/43
f 54/54/54 55/55/55 44/44/44
f 55/55/55 45/45/45 44/44/44
f 55/55/55 56/56/56 45/45/45
f 56/56/56 46/46/46 45/45/45
f 56/56/56 57/57/57 46/46/46
f 58/58/58 48/48/48 47/47/47
f 58/58/58 59/59/59 48/48/48
f 59/59/59 49/49/49 48/48/48
f 59/59/59 60/60/60 49/49/49
f 60/60/60 50/50/50 49/49/49
f 60/60/60 61/61/61 50/50/50
f 61/61/61 51/51/51 50/50/50
f 61/61/61 62/62/62 51/51/51
f 62/62/62 52/52/52 51/51/51
f 62/62/62 63/63/63 52/52/52
f 63/63/63 53/53/53 52/52/52
f 63/63/63 64/64/64 53/53/53
f 64/64/64 54/54/54 53/53/53
f 64/64/64 65/65/65 54/54/54
f 65/65/65 55/55/55 54/54/54
f 65/65/65 66/66/66 55/55/55
f 66/66/66 56/56/56 55/55/55
f 66/66/66 67/67/67 56/56/56
f 67/67/67 57/57/57 56/56/56
f 67/67/67 68/68/68 57/57/57
f 69/69/69 59/59/59 58/58/58
f 69/69/69 70/70/70 59/59/59
f 70/70/70 60/60/60 59/59/59
f 70/70/70 71/71/71 60/60/60
f 71/71/71 61/61/61 60/60/60
f 71/71/71 72/72/72 61/61/61
f 72/72/72 62/62/62 61/61/61
f 72/72/72 73/73/73 62/62/62
f 73/73/73 63/63/63 62/62/62
f 73/73/73 74/74/74 63/63/63
f 74/74/74 64/64/64 63/63/63
f 74/74/74 75/75/75 64/64/64
f 75/75/75 65/65/65 64/64/64
f 75/75/75 76/76/76 65/65/65
f 76/76/76 66/66/66 65/65/65
f 76/76/76 77/77/77 66/66/66
f 77/77/77 67/67/67 66/66/66
f 77/77/77 78/78/78 67/67/67
f 78/78/78 68/68/68 67/67/67
f 78/78/78 79/79/79 68/68/68
f 80/80/80 70/70/70 69/69/69
f 80/80/80 81/81/81 70/70/70
f 81/81/81 71/71/71 70/70/70
f 81/81/81 82/82/82 71/71/71
f 82/82/82 72/72/72 71/71/71
f 82/82/82 83/83/83 72/72/72
f 83/83/83 73/73/73 72/72/72
f 83/83/83 84/84/84 73/73/73
f 84/84/84 74/74/74 73/73/73
f 84/84/84 85/85/85 74/74/74
f 85/85/85 75/75/75 74/74/74
f 85/85/85 86/86/86 75/75/75
f 86/86/86 76/76/76 75/75/75
f 86/86/86 87/87/87 76/76/76
f 87/87/87 77/77/77 76/76/76
f 87/87/87 88/88/88 77/77/77
f 88/88/88 78/78/78 77/77/77
f 88/88/88 89/89/89 78/78/78
f 89/89/89 79/79/79 78/78/78
f 89/89/89 90/90/90 79/79/79
f 91/91/91 81/81/81 80/80/80
f 91/91/91 92/92/92 81/81/81
f 92/92/92 82/82/82 81/81/81
f 92/92/92 93/93/93 82/82/82
f 93/93/93 83/83/83 82/82/82
f 93/93/93 94/94/94 83/83/83
f 94/94/94 84/84/84 83/83/83
f 94/94/94 95/95/95 84/84/84
f 95/95/95 85/85/85 84/84/84
f 95/95/95 96/96/96 85/85/85
f 96/96/96 86/86/86 85/85/85
f 96/96/96 97/97/97 86/86/86
f 97/97/97 87/87/87 86/86/86
f 97/97/97 98/98/98 87/87/87
f 98/98/98 88/88/88 87/87/87
f 98/98/98 99/99/99 88/88/88
f 99/99/99 89/89/89 88/88/88
f 99/99/99 100/100/100 89/89/89
f 100/100/100 90/90/90 89/89/89
f 100/100/100 101/101/101 90/90/90
f 92/92/92 103/103/103 102/102/102
f 103/103/103 104/104/104 102/102/102
f 107/107/107 106/106/106 105/105/105
f 106/106/106 102/102/102 105/105/105
f 109/109/109 107/107/107 108/108/108
f 107/107/107 105/105/105 108/108/108
f 95/95/95 109/109/109 110/110/110
f 109/109/109 108/108/108 110/110/110
f 113/113/113 112/112/112 111/111/111
f 112/112/112 110/110/110 111/111/111
f 97/97/97 113/113/113 114/114/114
f 113/113/113 111/111/111 114/114/114
f 116/116/116 97/97/97 115/115/115
f 97/97/97 114/114/114 115/115/115
f 118/118/118 116/116/116 117/117/117
f 116/116/116 115/115/115 117/117/117
f 100/100/100 118/118/118 119/119/119
f 118/118/118 117/117/117 119/119/119
f 122/122/122 121/121/121 120/120/120
f 121/121/121 119/119/119 120/120/120
f 7/7/7 5/5/5 123/123/123
f 5/5/5 124/124/124 123/123/123
f 25/25/25 7/7/7 125/125/125
f 7/7/7 123/123/123 125/125/125
f 36/36/36 25/25/25 126/126/126
f 25/25/25 125/125/125 126/126/126
f 47/47/47 36/36/36 127/127/127
f 36/36/36 126/126/126 127/127/127
f 58/58/58 47/47/47 128/128/128
f 47/47/47 127/127/127 128/128/128
f 69/69/69 58/58/58 129/129/129
f 58/58/58 128/128/128 129/129/129
f 80/80/80 69/69/69 130/130/130
f 69/69/69 129/129/129 130/130/130
f 91/91/91 80/80/80 131/131/131
f 80/80/80 130/130/130 131/131/131
f 104/104/104 103/103/103 132/132/132
f 103/103/103 133/133/133 132/132/132
