g pb_Mesh369164
v 6.331275E-08 0 -6.318094E-06
v -0.3749999 0 -6.038697E-06
v 6.331275E-08 3.125 -6.318094E-06
v -0.3749999 3.125 -6.038697E-06
v -0.3749999 0 -6.038697E-06
v -0.3750002 0 -0.375006
v -0.3749999 3.125 -6.038697E-06
v -0.3750002 1.75 -0.375006
v -0.3750002 0 -0.375006
v -2.16084E-07 0 -0.3750063
v -0.3750002 1.75 -0.375006
v -2.16084E-07 1.75 -0.3750063
v -2.16084E-07 0 -0.3750063
v 6.331275E-08 0 -6.318094E-06
v -2.16084E-07 1.75 -0.3750063
v 6.331275E-08 3.125 -6.318094E-06
v -2.16084E-07 0 -0.3750063
v -0.3750002 0 -0.375006
v 6.331275E-08 0 -6.318094E-06
v -0.3749999 0 -6.038697E-06
v -2.16084E-07 1.75 -0.3750063
v 6.331275E-08 3.125 -6.318094E-06
v 0 2.25 -0.5
v -0.3750002 1.75 -0.375006
v -0.3750002 2.25 -0.375006
v -0.3749999 3.125 -6.038697E-06
v 0 2.25 -0.5
v 6.331275E-08 3.125 -6.318094E-06
v -2.16084E-07 2.75 -0.3750063
v -0.3750002 2.25 -0.375006
v -0.3750002 2.75 -0.375006
v -0.3749999 3.125 -6.038697E-06
v -0.3750002 2.25 -0.375006
v 0 2.25 -0.5
v -0.3750002 2.75 -0.375006
v -2.16084E-07 2.75 -0.3750063
v -0.3750002 2.75 -0.375006
v -2.16084E-07 2.75 -0.3750063
v -0.3750006 2.75 -0.875006
v 0 2.75 -1
v -0.3750002 2.75 -0.375006
v -0.3750006 2.75 -0.875006
v -0.3749999 3.125 -6.038697E-06
v -2.16084E-07 2.75 -0.3750063
v 6.331275E-08 3.125 -6.318094E-06
v 0 2.75 -1
v -0.3750006 2.75 -0.875006
v -0.375001 2.75 -1.375006
v -0.3749999 3.125 -6.038697E-06
v 0 2.75 -1
v 6.331275E-08 3.125 -6.318094E-06
v -7.467605E-09 2.75 -1.375006
v -0.375001 2.75 -1.375006
v -7.467605E-09 2.75 -1.375006
v -0.3750036 2.75 -4.875006
v 2.458525E-07 2.75 -4.875006
v -0.3749999 3.125 -6.038697E-06
v -0.375001 2.75 -1.375006
v -0.3750046 3.125 -6.250006
v -0.3750036 2.75 -4.875006
v -7.467605E-09 2.75 -1.375006
v 6.331275E-08 3.125 -6.318094E-06
v 2.458525E-07 2.75 -4.875006
v 2.682044E-07 3.125 -6.125006
v 6.331275E-08 3.125 -6.318094E-06
v -0.3749999 3.125 -6.038697E-06
v 2.682044E-07 3.125 -6.125006
v -0.3750046 3.125 -6.250006
v -0.3750002 1.75 -0.375006
v -2.16084E-07 1.75 -0.3750063
v -0.375001 2.75 -1.375006
v -7.467605E-09 2.75 -1.375006
v -0.3750002 2.25 -0.375006
v -0.3750002 1.75 -0.375006
v -0.3750006 2.75 -0.875006
v -0.375001 2.75 -1.375006
v -2.16084E-07 1.75 -0.3750063
v 0 2.25 -0.5
v -7.467605E-09 2.75 -1.375006
v 0 2.75 -1
v 0 2.25 -0.5
v -0.3750002 2.25 -0.375006
v 0 2.75 -1
v -0.3750006 2.75 -0.875006
v -0.3750036 2.75 -4.875006
v -0.3750039 2.75 -5.375006
v -0.3750046 3.125 -6.250006
v 2.458525E-07 2.75 -4.875006
v 2.682044E-07 3.125 -6.125006
v 0 2.75 -5.25
v -0.3750039 2.75 -5.375006
v 0 2.75 -5.25
v -0.3750043 2.75 -5.875006
v -4.992054E-07 2.75 -5.875006
v -0.3750039 2.75 -5.375006
v -0.3750043 2.75 -5.875006
v -0.3750046 3.125 -6.250006
v 0 2.75 -5.25
v 2.682044E-07 3.125 -6.125006
v -4.992054E-07 2.75 -5.875006
v -0.3750043 0 -5.875006
v -4.992054E-07 0 -5.875006
v -0.3750046 0 -6.250006
v 2.682044E-07 0 -6.125006
v -0.3750043 2.75 -5.875006
v -4.992054E-07 2.75 -5.875006
v -0.3750043 2.25 -5.875006
v 0 2.25 -5.75
v -0.3750043 2.75 -5.875006
v -0.3750043 2.25 -5.875006
v -0.3750046 3.125 -6.250006
v -4.992054E-07 2.75 -5.875006
v 2.682044E-07 3.125 -6.125006
v 0 2.25 -5.75
v -0.3750043 2.25 -5.875006
v -0.3750043 1.75 -5.875006
v -0.3750046 3.125 -6.250006
v 0 2.25 -5.75
v 2.682044E-07 3.125 -6.125006
v -4.992054E-07 1.75 -5.875006
v -0.3750046 3.125 -6.250006
v -0.3750043 1.75 -5.875006
v -0.3750046 0 -6.250006
v -0.3750043 0 -5.875006
v -4.992054E-07 1.75 -5.875006
v 2.682044E-07 3.125 -6.125006
v -4.992054E-07 0 -5.875006
v 2.682044E-07 0 -6.125006
v 2.682044E-07 3.125 -6.125006
v -0.3750046 3.125 -6.250006
v 2.682044E-07 0 -6.125006
v -0.3750046 0 -6.250006
v -0.3750043 2.25 -5.875006
v 0 2.25 -5.75
v -0.3750039 2.75 -5.375006
v 0 2.75 -5.25
v -0.3750043 1.75 -5.875006
v -0.3750043 2.25 -5.875006
v -0.3750036 2.75 -4.875006
v -0.3750039 2.75 -5.375006
v 0 2.25 -5.75
v -4.992054E-07 1.75 -5.875006
v 0 2.75 -5.25
v 2.458525E-07 2.75 -4.875006
v 0 -1.125 -0.625
v 0.25 -0.375 -0.375
v 0 -0.375 -0.625
v 0.25 -1.125 -0.375
v -0.6249999 -1.125 -0.02121557
v 0 -0.375 -0.625
v -0.6249999 -0.375 -0.02121557
v 0 -1.125 -0.625
v 0.25 -1.125 -0.375
v -0.3749998 -0.375 0.2287842
v 0.25 -0.375 -0.375
v -0.3749998 -1.125 0.2287842
v -0.3749998 -1.125 0.2287842
v -0.6249999 -0.375 -0.02121557
v -0.3749998 -0.375 0.2287842
v -0.6249999 -1.125 -0.02121557
v -4.992054E-07 1.75 -5.875006
v -0.3750036 2.75 -4.875006
v 2.458525E-07 2.75 -4.875006
v -0.3750043 1.75 -5.875006
v -4.992054E-07 0 -5.875006
v -0.3750043 1.75 -5.875006
v -4.992054E-07 1.75 -5.875006
v -0.3750043 0 -5.875006
vt -0.1816406 1.513672
vt -0.1933593 1.513672
vt -0.1816406 1.611328
vt -0.1933593 1.611328
vt -0.1816469 1.513672
vt -0.1933657 1.513672
vt -0.1816469 1.611328
vt -0.1933657 1.568359
vt 0.1933593 0.8476563
vt 0.1816406 0.8476563
vt 0.1933593 0.9023438
vt 0.1816406 0.9023438
vt 0.1933657 1.513672
vt 0.1816469 1.513672
vt 0.1933657 1.568359
vt 0.1816469 1.611328
vt -0.1816407 -0.1933656
vt -0.1933594 -0.1933656
vt -0.1816407 -0.1816468
vt -0.1933594 -0.1816468
vt 0.2539095 2.416016
vt 0.2421908 2.458984
vt 0.2578156 2.431641
vt -0.1933657 2.416016
vt -0.1933657 2.431641
vt -0.1816469 2.458984
vt 0.2578156 2.673828
vt 0.2421908 2.701172
vt 0.2539095 2.689453
vt -0.1933657 2.673828
vt -0.1933657 2.689453
vt -0.1816469 2.701172
vt 0.04571087 2.492188
vt 0.03335828 2.492188
vt 0.04571087 2.507813
vt 0.03459343 2.507813
vt -0.1933597 -0.6777375
vt -0.1816409 -0.6777375
vt -0.1933597 -0.6933625
vt -0.1816409 -0.6972685
vt -0.4355532 2.931641
vt -0.4511782 2.931641
vt -0.4238344 2.943359
vt 0.496097 2.931641
vt 0.4843782 2.943359
vt 0.515628 2.931641
vt -0.6933657 2.931641
vt -0.7089907 2.931641
vt -0.6660219 2.943359
vt 0.6972718 2.931641
vt 0.6660219 2.943359
vt 0.7089907 2.931641
vt -0.193361 -3.070319
vt -0.1816422 -3.070319
vt -0.1933611 -3.179694
vt -0.1816422 -3.179694
vt -3.02735 2.943359
vt -3.070319 2.931641
vt -3.222663 2.943359
vt -3.179694 2.931641
vt 3.009772 2.931641
vt 2.966803 2.943359
vt 3.119147 2.931641
vt 3.158209 2.943359
vt 0.1816427 -3.02735
vt 0.1933615 -3.02735
vt 0.1816427 -3.218756
vt 0.1933616 -3.222662
vt 0.1933589 2.187616
vt 0.1816401 2.187616
vt 0.1933589 2.23181
vt 0.1816401 2.23181
vt -0.8593813 2.25
vt -0.8593813 2.234375
vt -0.8750063 2.265625
vt -0.8906313 2.265625
vt 0.8593813 2.234375
vt 0.8632874 2.25
vt 0.8906313 2.265625
vt 0.8789124 2.265625
vt 0.04322477 2.292618
vt 0.03087218 2.292618
vt 0.04816561 2.314155
vt 0.035813 2.314155
vt -5.541022 2.931641
vt -5.556647 2.931641
vt -5.583991 2.943359
vt 5.480475 2.931641
vt 5.519537 2.943359
vt 5.492194 2.931641
vt -0.1933616 -5.556643
vt -0.1816427 -5.552737
vt -0.1933616 -5.572268
vt -0.1816427 -5.572268
vt -5.798835 2.931641
vt -5.81446 2.931641
vt -5.826179 2.943359
vt 5.673831 2.931641
vt 5.701175 2.943359
vt 5.693362 2.931641
vt -0.1933616 -6.056647
vt -0.1816427 -6.056647
vt -0.1933616 -6.068366
vt -0.1816427 -6.064459
vt -0.1933616 2.507813
vt -0.1816427 2.507813
vt -0.1933616 2.492188
vt -0.1816427 2.492188
vt -6.056647 2.689453
vt -6.056647 2.673828
vt -6.068366 2.701172
vt 5.93555 2.689453
vt 5.943362 2.701172
vt 5.931643 2.673828
vt -6.056647 2.431641
vt -6.056647 2.416016
vt -6.068366 2.458984
vt 5.931643 2.431641
vt 5.943362 2.458984
vt 5.93555 2.416016
vt -6.068366 1.611328
vt -6.056647 1.568359
vt -6.068366 1.513672
vt -6.056647 1.513672
vt 5.9961 1.568359
vt 6.003912 1.611328
vt 5.9961 1.513672
vt 6.003912 1.513672
vt 2.128342 1.611328
vt 2.140695 1.611328
vt 2.128342 1.513672
vt 2.140695 1.513672
vt 1.945605 -1.788161
vt 1.933252 -1.788161
vt 1.940664 -1.766623
vt 1.928311 -1.766623
vt -5.390632 2.234375
vt -5.390632 2.25
vt -5.359382 2.265625
vt -5.375007 2.265625
vt 5.386725 2.25
vt 5.390631 2.234375
vt 5.3711 2.265625
vt 5.359381 2.265625
vt 0.2706893 -0.7617188
vt 0.2596408 -0.7382813
vt 0.2706893 -0.7382813
vt 0.2596408 -0.7617188
vt 0.01383724 -0.7617188
vt -0.01331936 -0.7382813
vt 0.01383724 -0.7382813
vt -0.01331936 -0.7617188
vt 0.01942285 -0.7617188
vt -0.007733749 -0.7382813
vt 0.01942285 -0.7382813
vt -0.007733749 -0.7617188
vt -0.2746427 -0.7617188
vt -0.2856913 -0.7382813
vt -0.2746427 -0.7382813
vt -0.2856913 -0.7617188
vt -0.1816426 -2.23181
vt -0.1933615 -2.187616
vt -0.1816426 -2.187616
vt -0.1933615 -2.23181
vt -0.181643 0.8476563
vt -0.1933618 0.9023438
vt -0.181643 0.9023438
vt -0.1933618 0.8476563
vn 7.450581E-07 0 1
vn 7.450581E-07 0 1
vn 7.450581E-07 0 1
vn 7.450581E-07 0 1
vn -1 0 7.152557E-07
vn -1 0 7.152557E-07
vn -1 0 7.152557E-07
vn -1 0 7.152557E-07
vn -7.152557E-07 0 -1
vn -7.152557E-07 0 -1
vn -7.152557E-07 0 -1
vn -7.152557E-07 0 -1
vn 1 0 -7.450579E-07
vn 1 0 -7.450579E-07
vn 1 0 -7.450579E-07
vn 1 0 -7.450579E-07
vn 0 -1 0
vn 0 -1 0
vn 0 -1 0
vn 0 -1 0
vn 1 -3.226633E-07 4.380408E-07
vn 1 -3.226633E-07 4.380408E-07
vn 1 -3.226633E-07 4.380408E-07
vn -1 0 7.152557E-07
vn -1 0 7.152557E-07
vn -1 0 7.152557E-07
vn 1 8.245501E-07 -1.569608E-06
vn 1 8.245501E-07 -1.569608E-06
vn 1 8.245501E-07 -1.569608E-06
vn -1 0 7.152557E-07
vn -1 0 7.152557E-07
vn -1 0 7.152557E-07
vn -0.3162138 0 -0.948688
vn -0.1581073 0.121262 -0.9594167
vn -0.1581073 0.121262 -0.9594167
vn -6.939021E-07 0.2425241 -0.9701454
vn 0 -1 0
vn 0 -1 0
vn 0 -1 0
vn 0 -1 0
vn -1 -5.960469E-08 7.748604E-07
vn -1 -5.960469E-08 7.748604E-07
vn -1 -5.960469E-08 7.748604E-07
vn 1 -1.090796E-06 3.457378E-07
vn 1 -1.090796E-06 3.457378E-07
vn 1 -1.090796E-06 3.457378E-07
vn -1 7.947305E-08 7.152556E-07
vn -1 7.947305E-08 7.152556E-07
vn -1 7.947305E-08 7.152556E-07
vn 1 -1.157323E-07 -1.991328E-08
vn 1 -1.157323E-07 -1.991328E-08
vn 1 -1.157323E-07 -1.991328E-08
vn 0 -1 0
vn 0 -1 0
vn 0 -1 0
vn 0 -1 0
vn -1 -2.543132E-08 7.438659E-07
vn -1 9.990874E-09 7.465907E-07
vn -1 9.990874E-09 7.465907E-07
vn -1 4.541306E-08 7.493155E-07
vn 1 -4.541306E-07 7.237718E-08
vn 1 -2.01115E-07 5.291444E-08
vn 1 -2.01115E-07 5.291444E-08
vn 1 5.190064E-08 3.34517E-08
vn 0 1 0
vn 0 1 0
vn 0 1 0
vn 0 1 0
vn -5.057622E-07 -0.7071068 -0.7071068
vn -4.776637E-07 -0.7071068 -0.7071068
vn -4.776637E-07 -0.7071068 -0.7071068
vn -4.495652E-07 -0.7071068 -0.7071068
vn -1 0 7.748604E-07
vn -1 -1.490118E-08 7.450581E-07
vn -1 -1.490118E-08 7.450581E-07
vn -1 -2.980237E-08 7.152557E-07
vn 1 -5.066801E-07 -2.980638E-07
vn 1 -2.632967E-07 -1.589885E-07
vn 1 -2.632967E-07 -1.589885E-07
vn 1 -1.991328E-08 -1.991328E-08
vn 0.2294051 0.688249 0.688249
vn 0.229405 0.6882491 0.688249
vn 0.229405 0.6882491 0.688249
vn 0.2294049 0.6882491 0.688249
vn -1 -7.947286E-08 7.152557E-07
vn -1 -7.947286E-08 7.152557E-07
vn -1 -7.947286E-08 7.152557E-07
vn 1 -2.244997E-06 -6.556176E-07
vn 1 -2.244997E-06 -6.556176E-07
vn 1 -2.244997E-06 -6.556176E-07
vn 0 -1 0
vn 0 -1 0
vn 0 -1 0
vn 0 -1 0
vn -1 5.960464E-08 7.748604E-07
vn -1 5.960464E-08 7.748604E-07
vn -1 5.960464E-08 7.748604E-07
vn 1 -2.578907E-06 -7.987207E-07
vn 1 -2.578907E-06 -7.987207E-07
vn 1 -2.578907E-06 -7.987207E-07
vn 0 -1 0
vn 0 -1 0
vn 0 -1 0
vn 0 -1 0
vn 0 0 1
vn -0.1538511 0.1153895 0.9615356
vn -0.1538511 0.1153895 0.9615356
vn -0.3077021 0.2307789 0.9230713
vn -1 0 7.152557E-07
vn -1 0 7.152557E-07
vn -1 0 7.152557E-07
vn 1 2.825458E-06 7.307826E-06
vn 1 2.825458E-06 7.307826E-06
vn 1 2.825458E-06 7.307826E-06
vn -1 0 7.152557E-07
vn -1 0 7.152557E-07
vn -1 0 7.152557E-07
vn 1 -7.434981E-07 -1.0196E-06
vn 1 -7.434981E-07 -1.0196E-06
vn 1 -7.434981E-07 -1.0196E-06
vn -1 0 7.152557E-07
vn -1 0 7.152557E-07
vn -1 0 7.152557E-07
vn -1 0 7.152557E-07
vn 1 0 3.069639E-06
vn 1 0 3.069639E-06
vn 1 0 3.069639E-06
vn 1 0 3.069639E-06
vn 0.3162241 0 -0.9486845
vn 0.3162241 0 -0.9486845
vn 0.3162241 0 -0.9486845
vn 0.3162241 0 -0.9486845
vn 0.229424 0.6882458 -0.6882459
vn 0.2294241 0.6882458 -0.6882458
vn 0.2294241 0.6882458 -0.6882458
vn 0.2294242 0.6882458 -0.6882458
vn -1 0 7.450581E-07
vn -1 2.980232E-08 7.301569E-07
vn -1 2.980232E-08 7.301569E-07
vn -1 5.960464E-08 7.152557E-07
vn 1 -1.331236E-06 1.331236E-06
vn 1 -7.103383E-07 3.378094E-07
vn 1 -7.103383E-07 3.378094E-07
vn 1 -8.944028E-08 -6.556177E-07
vn 0.7071068 0 -0.7071068
vn 0.7071068 0 -0.7071068
vn 0.7071068 0 -0.7071068
vn 0.7071068 0 -0.7071068
vn -0.6947947 0 -0.7192081
vn -0.6947947 0 -0.7192081
vn -0.6947947 0 -0.7192081
vn -0.6947947 0 -0.7192081
vn 0.6947947 0 0.7192081
vn 0.6947947 0 0.7192081
vn 0.6947947 0 0.7192081
vn 0.6947947 0 0.7192081
vn -0.7071063 0 0.7071073
vn -0.7071063 0 0.7071073
vn -0.7071063 0 0.7071073
vn -0.7071063 0 0.7071073
vn 0 -0.7071068 0.7071068
vn 0 -0.7071068 0.7071068
vn 0 -0.7071068 0.7071068
vn 0 -0.7071068 0.7071068
vn 0 0 1
vn 0 0 1
vn 0 0 1
vn 0 0 1
g pb_Mesh369164_0
f 3/3/3 2/2/2 1/1/1
f 3/3/3 4/4/4 2/2/2
f 7/7/7 6/6/6 5/5/5
f 7/7/7 8/8/8 6/6/6
f 11/11/11 10/10/10 9/9/9
f 11/11/11 12/12/12 10/10/10
f 15/15/15 14/14/14 13/13/13
f 15/15/15 16/16/16 14/14/14
f 19/19/19 18/18/18 17/17/17
f 19/19/19 20/20/20 18/18/18
f 23/23/23 22/22/22 21/21/21
f 26/26/26 25/25/25 24/24/24
f 29/29/29 28/28/28 27/27/27
f 32/32/32 31/31/31 30/30/30
f 35/35/35 34/34/34 33/33/33
f 35/35/35 36/36/36 34/34/34
f 39/39/39 38/38/38 37/37/37
f 39/39/39 40/40/40 38/38/38
f 43/43/43 42/42/42 41/41/41
f 46/46/46 45/45/45 44/44/44
f 49/49/49 48/48/48 47/47/47
f 52/52/52 51/51/51 50/50/50
f 55/55/55 54/54/54 53/53/53
f 55/55/55 56/56/56 54/54/54
f 59/59/59 58/58/58 57/57/57
f 59/59/59 60/60/60 58/58/58
f 63/63/63 62/62/62 61/61/61
f 63/63/63 64/64/64 62/62/62
f 67/67/67 66/66/66 65/65/65
f 67/67/67 68/68/68 66/66/66
f 71/71/71 70/70/70 69/69/69
f 71/71/71 72/72/72 70/70/70
f 75/75/75 74/74/74 73/73/73
f 75/75/75 76/76/76 74/74/74
f 79/79/79 78/78/78 77/77/77
f 79/79/79 80/80/80 78/78/78
f 83/83/83 82/82/82 81/81/81
f 83/83/83 84/84/84 82/82/82
f 87/87/87 86/86/86 85/85/85
f 90/90/90 89/89/89 88/88/88
f 93/93/93 92/92/92 91/91/91
f 93/93/93 94/94/94 92/92/92
f 97/97/97 96/96/96 95/95/95
f 100/100/100 99/99/99 98/98/98
f 103/103/103 102/102/102 101/101/101
f 103/103/103 104/104/104 102/102/102
f 107/107/107 106/106/106 105/105/105
f 107/107/107 108/108/108 106/106/106
f 111/111/111 110/110/110 109/109/109
f 114/114/114 113/113/113 112/112/112
f 117/117/117 116/116/116 115/115/115
f 120/120/120 119/119/119 118/118/118
f 123/123/123 122/122/122 121/121/121
f 123/123/123 124/124/124 122/122/122
f 127/127/127 126/126/126 125/125/125
f 127/127/127 128/128/128 126/126/126
f 131/131/131 130/130/130 129/129/129
f 131/131/131 132/132/132 130/130/130
f 135/135/135 134/134/134 133/133/133
f 135/135/135 136/136/136 134/134/134
f 139/139/139 138/138/138 137/137/137
f 139/139/139 140/140/140 138/138/138
f 143/143/143 142/142/142 141/141/141
f 143/143/143 144/144/144 142/142/142
f 147/147/147 146/146/146 145/145/145
f 146/146/146 148/148/148 145/145/145
f 151/151/151 150/150/150 149/149/149
f 150/150/150 152/152/152 149/149/149
f 155/155/155 154/154/154 153/153/153
f 154/154/154 156/156/156 153/153/153
f 159/159/159 158/158/158 157/157/157
f 158/158/158 160/160/160 157/157/157
f 163/163/163 162/162/162 161/161/161
f 162/162/162 164/164/164 161/161/161
f 167/167/167 166/166/166 165/165/165
f 166/166/166 168/168/168 165/165/165
