g pb_Mesh1877300
v -2.00001 0 17.99999
v -4.000017 0 17.99999
v -2.00001 3 17.99999
v -4.000017 3 17.99999
v -4.000017 0 17.99999
v -4.000013 0 4.000002
v -4.000017 3 17.99999
v -4.000013 3 4.000002
v -4.000013 0 4.000002
v -2.000006 0 3.999995
v -4.000013 3 4.000002
v -2.000006 3 3.999995
v -2.000006 0 3.999995
v -2.00001 0 17.99999
v -2.000006 3 3.999995
v -2.00001 3 17.99999
v -2.00001 3 17.99999
v -4.000017 3 17.99999
v -2.000006 3 3.999995
v -4.000013 3 4.000002
vt -2.000045 0
vt -4.000051 0
vt -2.000045 3
vt -4.000051 3
vt 17.99999 0
vt 4.000003 0
vt 17.99999 3
vt 4.000003 3
vt 4.000028 0
vt 2.000021 0
vt 4.000028 3
vt 2.000021 3
vt -3.999996 0
vt -17.99999 0
vt -3.999996 3
vt -17.99999 3
vt 2.00001 17.99999
vt 4.000017 17.99999
vt 2.000006 3.999995
vt 4.000013 4.000002
vn 1.907342E-06 0 1
vn 1.907342E-06 0 1
vn 1.907342E-06 0 1
vn 1.907342E-06 0 1
vn -1 0 -2.724786E-07
vn -1 0 -2.724786E-07
vn -1 0 -2.724786E-07
vn -1 0 -2.724786E-07
vn -3.576266E-06 0 -1
vn -3.576266E-06 0 -1
vn -3.576266E-06 0 -1
vn -3.576266E-06 0 -1
vn 1 0 2.895084E-07
vn 1 0 2.895084E-07
vn 1 0 2.895084E-07
vn 1 0 2.895084E-07
vn 0 1 0
vn 0 1 0
vn 0 1 0
vn 0 1 0
g pb_Mesh1877300_0
g pb_Mesh1877300_1
f 3/3/3 2/2/2 1/1/1
f 3/3/3 4/4/4 2/2/2
f 7/7/7 6/6/6 5/5/5
f 7/7/7 8/8/8 6/6/6
f 11/11/11 10/10/10 9/9/9
f 11/11/11 12/12/12 10/10/10
f 15/15/15 14/14/14 13/13/13
f 15/15/15 16/16/16 14/14/14
f 19/19/19 18/18/18 17/17/17
f 19/19/19 20/20/20 18/18/18
