g pb_Mesh-111330
v 0 0 -11.5
v 1.098253E-05 0 -6.482196
v -2 0 -10
v -1.5 1 -6.5
v 1.098253E-05 0 -6.482196
v 0 1.5 -4
v -1.5 1 -6.5
v -2 1.5 -4
v 0 1.5 -4
v 0 2 -2
v -2 1.5 -4
v -2 2 -2
v 0 2 -2
v 0 3 0
v -2 2 -2
v -2.079703 2.81994 -3.768446E-06
v -2 0 -10
v -1.5 1 -6.5
v -3.5 0 -9
v -3.5 1 -5.5
v -1.5 1 -6.5
v -2 1.5 -4
v -3.5 1 -5.5
v -4 1 -4
v -2 1.5 -4
v -2 2 -2
v -4 1 -4
v -5.670469 1.588487 -2.000003
v -2 2 -2
v -2.079703 2.81994 -3.768446E-06
v -5.670469 1.588487 -2.000003
v -5.500002 2.953703 -3.349197E-06
v -3.5 0 -9
v -3.5 1 -5.5
v -5.5 0 -8
v -5 0.5 -5.5
v -3.5 1 -5.5
v -4 1 -4
v -5 0.5 -5.5
v -6 0.5 -4
v -4 1 -4
v -5.670469 1.588487 -2.000003
v -6 0.5 -4
v -6.499996 1.59407 -2.000003
v -5.670469 1.588487 -2.000003
v -5.500002 2.953703 -3.349197E-06
v -6.499996 1.59407 -2.000003
v -7.5 2.908607 -2.943781E-06
v -5.5 0 -8
v -5 0.5 -5.5
v -6.5 0 -6.5
v -8 0 -5.5
v -5 0.5 -5.5
v -6 0.5 -4
v -8 0 -5.5
v -8.5 0 -4
v -6 0.5 -4
v -6.499996 1.59407 -2.000003
v -8.5 0 -4
v -9.5 0 -2.5
v -6.499996 1.59407 -2.000003
v -7.5 2.908607 -2.943781E-06
v -9.5 0 -2.5
v -11 0 0
vt 1.098253E-05 -4.017804
vt 0 1
vt 2.000011 -2.517804
vt 1.500011 0.9821963
vt 0 -1.776451
vt 0.8382218 1
vt 1.802763 -1.796365
vt 2.496815 0.4992721
vt 0 -1.061553
vt 0 1
vt 2 -1.061553
vt 2 1
vt 0 -1.236068
vt 0 1
vt 2 -1.236068
vt 2.079703 0.9194713
vt 0.6639471 -3.667573
vt 0 -0.0538249
vt 2.141765 -2.635074
vt 1.970424 1
vt 0 -1.56025
vt 0.4417261 1
vt 1.987767 -0.53615
vt 2.484709 0.9404593
vt 0.1212678 -1.173708
vt 0 0.8842751
vt 2.182821 -1.173708
vt 3.660685 1
vt 0.01214755 -1.358729
vt 0 0.8042532
vt 3.705612 -1.358732
vt 3.3841 1
vt 0.1414213 -2.637307
vt 0 1
vt 2.12132 -1.598076
vt 1.555635 0.9230199
vt 0 -0.5248852
vt 0.4743416 0.9834251
vt 1.581139 -0.5248852
vt 2.529822 1
vt 0 -1.316079
vt 1.477864 0.9093849
vt 2.061553 -1.316079
vt 2.28127 1
vt 0.161274 -1.422161
vt 0 1
vt 0.9908204 -1.422162
vt 1.999649 0.9669687
vt 0.5996251 -1.555713
vt 0 0.9722204
vt 1.574016 -0.0389533
vt 3.035603 1
vt 0 -0.5089822
vt 0.9863939 1
vt 3.041381 -0.5089822
vt 3.534578 0.9910445
vt 0 -1.317531
vt 0.2757215 1
vt 2.54951 -1.317531
vt 3.53009 0.07603157
vt 0 -1.553641
vt 0.4549022 1
vt 3.373947 -2.192046
vt 4.771729 0.1043427
vn 0 1 0
vn 0.4019261 0.8599133 -0.3146499
vn 0.05259578 0.9760665 -0.2110165
vn 0.1382205 0.9466126 -0.2912382
vn 0.4019261 0.8599133 -0.3146499
vn 0.1292641 0.947588 -0.2921779
vn 0.1382205 0.9466126 -0.2912382
vn -0.1033945 0.9728269 -0.2071652
vn 0.1292641 0.947588 -0.2921779
vn 0 0.937885 -0.3469463
vn -0.1033945 0.9728269 -0.2071652
vn -0.07865793 0.9386439 -0.3357983
vn 0 0.937885 -0.3469463
vn -0.03993545 0.9091166 -0.4146228
vn -0.07865793 0.9386439 -0.3357983
vn -0.05789118 0.9012985 -0.429313
vn 0.05259578 0.9760665 -0.2110165
vn 0.1382205 0.9466126 -0.2912382
vn -0.1435684 0.9531129 -0.2663904
vn -0.2140711 0.9596624 -0.1822682
vn 0.1382205 0.9466126 -0.2912382
vn -0.1033945 0.9728269 -0.2071652
vn -0.2140711 0.9596624 -0.1822682
vn -0.2295548 0.9431553 -0.2403387
vn -0.1033945 0.9728269 -0.2071652
vn -0.07865793 0.9386439 -0.3357983
vn -0.2295548 0.9431553 -0.2403387
vn -0.06043685 0.8818675 -0.4676079
vn -0.07865793 0.9386439 -0.3357983
vn -0.05789118 0.9012985 -0.429313
vn -0.06043685 0.8818675 -0.4676079
vn 0.01282389 0.8265213 -0.5627594
vn -0.1435684 0.9531129 -0.2663904
vn -0.2140711 0.9596624 -0.1822682
vn -0.2244678 0.9587883 -0.1741814
vn -0.2370252 0.96128 -0.1405696
vn -0.2140711 0.9596624 -0.1822682
vn -0.2295548 0.9431553 -0.2403387
vn -0.2370252 0.96128 -0.1405696
vn -0.1773115 0.9343251 -0.3091879
vn -0.2295548 0.9431553 -0.2403387
vn -0.06043685 0.8818675 -0.4676079
vn -0.1773115 0.9343251 -0.3091879
vn -0.1470599 0.8395495 -0.523001
vn -0.06043685 0.8818675 -0.4676079
vn 0.01282389 0.8265213 -0.5627594
vn -0.1470599 0.8395495 -0.523001
vn -0.2380041 0.8060211 -0.5419262
vn -0.2244678 0.9587883 -0.1741814
vn -0.2370252 0.96128 -0.1405696
vn -0.1912901 0.962143 -0.1941364
vn -0.1701328 0.9717152 -0.1637821
vn -0.2370252 0.96128 -0.1405696
vn -0.1773115 0.9343251 -0.3091879
vn -0.1701328 0.9717152 -0.1637821
vn -0.2497096 0.9397364 -0.2335392
vn -0.1773115 0.9343251 -0.3091879
vn -0.1470599 0.8395495 -0.523001
vn -0.2497096 0.9397364 -0.2335392
vn -0.4358141 0.810873 -0.3905779
vn -0.1470599 0.8395495 -0.523001
vn -0.2380041 0.8060211 -0.5419262
vn -0.4358141 0.810873 -0.3905779
vn -0.5967634 0.7181002 -0.358058
g pb_Mesh-111330_0
f 3/3/3 2/2/2 1/1/1
f 3/3/3 4/4/4 2/2/2
f 7/7/7 6/6/6 5/5/5
f 7/7/7 8/8/8 6/6/6
f 11/11/11 10/10/10 9/9/9
f 11/11/11 12/12/12 10/10/10
f 15/15/15 14/14/14 13/13/13
f 15/15/15 16/16/16 14/14/14
f 19/19/19 18/18/18 17/17/17
f 19/19/19 20/20/20 18/18/18
f 23/23/23 22/22/22 21/21/21
f 23/23/23 24/24/24 22/22/22
f 27/27/27 26/26/26 25/25/25
f 27/27/27 28/28/28 26/26/26
f 31/31/31 30/30/30 29/29/29
f 31/31/31 32/32/32 30/30/30
f 35/35/35 34/34/34 33/33/33
f 35/35/35 36/36/36 34/34/34
f 39/39/39 38/38/38 37/37/37
f 39/39/39 40/40/40 38/38/38
f 43/43/43 42/42/42 41/41/41
f 43/43/43 44/44/44 42/42/42
f 47/47/47 46/46/46 45/45/45
f 47/47/47 48/48/48 46/46/46
f 51/51/51 50/50/50 49/49/49
f 51/51/51 52/52/52 50/50/50
f 55/55/55 54/54/54 53/53/53
f 55/55/55 56/56/56 54/54/54
f 59/59/59 58/58/58 57/57/57
f 59/59/59 60/60/60 58/58/58
f 63/63/63 62/62/62 61/61/61
f 63/63/63 64/64/64 62/62/62
