g pb_Mesh239442
v 7.875 -4 6
v -4.125 -4 6
v 7.875 2 6
v -4.125 2 6
v 2.875 2 -1
v 0.875 2 -1
v 2.875 2 -3
v 0.875 2 -3
v 7.875 2 4
v -4.125 2 4
v 6.875 2 3
v -3.125 2 3
v -4.125 2 -8
v -3.125 2 -7
v 6 2.125 -6.125
v 6.875 2 3
v 2.875 2 -3
v 2.875 2 -1
v -3.125 2 -7
v 6 2.125 -6.125
v 0.875 2 -3
v 2.875 2 -3
v -4.125 -4 4
v -4.125 2 4
v -4.125 -4 6
v -4.125 2 6
v -4.125 4 4
v 7.875 4 4
v -4.125 4 6
v 7.875 4 6
v -4.125 2 4
v 7.875 2 4
v -4.125 4 4
v 7.875 4 4
v -4.125 4 6
v -4.125 4 4
v 7.875 2 4
v 7.875 2 6
v 7.875 4 4
v 7.875 4 6
v 7.875 4 6
v -4.125 4 6
v -4.125 -4 -8
v -4.125 -1 -8
v -4.125 2 -8
v -4.125 -1 -8
v 1.875 -4 -8
v 6 0.125 -8
v -4.125 -4 -8
v 7.875 0.125 -6
v 7.875 -4 4
v 7.875 -1 4
v 7.875 -4 -2
v 7.875 -4 6
v 7.75 2.125 -5.5
v 7.875 1.625 -6
v 7.875 2 4
v 7.875 0.125 -6
v 7.875 -1 4
v 6 2.125 -6.125
v 7.375 2.125 -6
v 6.875 2 3
v 7.75 2.125 -5.5
v 7.875 2 4
v 6 2.125 -6.125
v 6 0.125 -6.125
v 7.375 2.125 -6
v 7.875 1.625 -6
v 7.875 0.125 -6
v 7.875 1.625 -6
v 7.75 2.125 -5.5
v 7.375 2.125 -6
v -4.125 2 -8
v 6 1.0625 -8
v 5 2 -8
v 5.5 2.03125 -7.53125
v 6 2.125 -6.5
v 6 2.125 -6.125
v 5 2 -8
v -4.125 2 -8
v -3.125 2 -7
v 6 1.5625 -7.53125
v 6 1.0625 -8
v 6 0.125 -6.125
v 6 0.125 -8
v 6 2.125 -6.5
v 6 2.125 -6.125
v 6 2.125 -6.5
v 5.5 2.03125 -7.53125
v 6 1.5625 -7.53125
v 5.5 2.03125 -7.53125
v 5 2 -8
v 6 1.0625 -8
v 6 1.5625 -7.53125
v 7.875 -4 -8
v 6.9375 0.125 -8
v 7.875 -0.375 -8
v 7.875 0.125 -7
v 7.875 -0.375 -8
v 7.875 -4 -8
v 7.875 -0.375 -8
v 7.875 0.125 -7
v 6.9375 0.125 -8
v 6 0.125 -6.125
v 6 0.125 -8
v 6.9375 0.125 -8
v 7.875 0.125 -7
v 7.875 0.125 -6
vt 7.875 -4
vt -4.125 -4
vt 7.875 2
vt -4.125 2
vt -2.875 -1
vt -0.875 -1
vt -2.875 -3
vt -0.875 -3
vt -7.875 4
vt 4.125 4
vt -6.875 3
vt 3.125 3
vt 4.125 -8
vt 3.125 -7
vt -6.049258 -6.15589
vt -6.921007 2.970277
vt -2.922158 -3.030491
vt -2.922158 -1.030746
vt 3.094342 -7.030207
vt -6.031505 -6.155106
vt -0.9051992 -3.029747
vt -2.90497 -3.029289
vt 4 -4
vt 4 2
vt 6 -4
vt 6 2
vt 4.125 4
vt -7.875 4
vt 4.125 6
vt -7.875 6
vt 4.125 2
vt -7.875 2
vt 4.125 4
vt -7.875 4
vt 6 4
vt 4 4
vt -4 2
vt -6 2
vt -4 4
vt -6 4
vt 7.875 4
vt -4.125 4
vt -8 -4
vt -8 -1
vt -8 2
vt 4.125 -1
vt -1.875 -4
vt -6 0.125
vt 4.125 -4
vt 6 0.125
vt -4 -4
vt -4 -1
vt 2 -4
vt -6 -4
vt 5.479621 1.998829
vt 5.979291 1.496847
vt -4.020675 1.872224
vt 5.979291 -0.00295586
vt -4.020675 -1.127382
vt -6.012619 -6.152661
vt -7.387594 -6.027561
vt -6.886855 2.973266
vt -7.762588 -5.527576
vt -7.886837 3.973255
vt -5.55769 2.078038
vt -5.55769 0.07808919
vt -6.938062 2.078244
vt -7.436841 1.578006
vt -7.436841 0.07804447
vt -4.419417 -2.153415
vt -3.977476 -1.587453
vt -3.712311 -2.153415
vt 4.125 2
vt -6 1.0625
vt -5 2
vt -5.509388 -7.405056
vt -6.009819 -6.370276
vt -6.009819 -5.995883
vt -5.009248 -7.874691
vt 4.115654 -7.872279
vt 3.115664 -6.874161
vt 7.53125 1.5625
vt 8 1.0625
vt 6.125 0.125
vt 8 0.125
vt 6.5 2.125
vt 6.125 2.125
vt -2.923848 -3.948971
vt -2.623199 -5.05887
vt -3.308565 -5.05887
vt 0.840701 -3.686656
vt 1.525714 -3.724876
vt 0.7745929 -4.87149
vt 0.4651407 -4.259963
vt -7.875 -4
vt -6.9375 0.125
vt -7.875 -0.375
vt 7 0.125
vt 8 -0.375
vt 8 -4
vt -7.125 -5.957057
vt -6.889706 -4.864062
vt -6.0625 -5.957057
vt -6 -6.125
vt -6 -8
vt -6.9375 -8
vt -7.875 -7
vt -7.875 -6
vn 0 0 1
vn 0 0 1
vn 0 0 1
vn 0 0 1
vn 0 1 0
vn 0 1 0
vn 0 1 0
vn 0 1 0
vn 0 1 0
vn 0 1 0
vn 0 1 0
vn 0 1 0
vn 0 1 0
vn 0 1 0
vn -0.02399002 0.9995843 0.01599335
vn -0.01199501 0.9997921 0.007996675
vn -0.01199501 0.9997921 0.007996675
vn 0 1 0
vn -0.01514804 0.9997705 0.01514804
vn -0.007574019 0.9994857 0.02755804
vn -0.007574019 0.9994857 0.02755804
vn 0 0.9992009 0.03996804
vn -1 0 0
vn -1 0 0
vn -1 0 0
vn -1 0 0
vn 0 1 0
vn 0 1 0
vn 0 1 0
vn 0 1 0
vn 0 0 -1
vn 0 0 -1
vn 0 0 -1
vn 0 0 -1
vn -1 0 0
vn -1 0 0
vn 1 0 0
vn 1 0 0
vn 1 0 0
vn 1 0 0
vn 0 0 1
vn 0 0 1
vn -1 0 0
vn -1 0 0
vn -1 0 0
vn 0 0 -1
vn 0 0 -1
vn 0 0 -1
vn 0 0 -1
vn 1 0 0
vn 1 0 0
vn 1 0 0
vn 1 0 0
vn 1 0 0
vn 0.9678407 0.2513872 -0.009427019
vn 0.9839203 0.1256936 -0.00471351
vn 0.9892802 0.08379573 -0.00314234
vn 1 0 0
vn 1 0 0
vn -0.001256161 0.9999038 0.01381777
vn -0.009246768 0.9998358 0.0133729
vn -0.01060817 0.9998314 0.01335892
vn -0.01528417 0.9997951 0.0131295
vn -0.01333096 0.9998223 0.01333096
vn 0.09053575 0 -0.9958932
vn 0.06468037 0.01232878 -0.9974365
vn 0.06376104 0.01849317 -0.9972621
vn 0.05175268 0.01849317 -0.9982082
vn 0.06651901 0 -0.9977852
vn 0.6246951 0.6246951 -0.4685213
vn 0.6246951 0.6246951 -0.4685213
vn 0.6246951 0.6246951 -0.4685213
vn 0 0 -1
vn 0 0 -1
vn 0 0 -1
vn -0.09214427 0.9903287 -0.0332595
vn -0.1842885 0.9828721 0
vn -0.063991 0.9928923 -0.04298508
vn -0.002561487 0.9986015 -0.04298508
vn 0 1 0
vn -0.00384223 0.9990097 -0.03121812
vn 1 0 0
vn 1 0 0
vn 1 0 0
vn 1 0 0
vn 1 0 0
vn 1 0 0
vn 0.6354761 0.6778412 -0.3697315
vn 0.6354761 0.6778412 -0.3697315
vn 0.6354761 0.6778412 -0.3697315
vn 0.539767 0.5757515 -0.614135
vn 0.539767 0.5757515 -0.614135
vn 0.539767 0.5757515 -0.614135
vn 0.539767 0.5757515 -0.614135
vn 0 0 -1
vn 0 0 -1
vn 0 0 -1
vn 1 0 0
vn 1 0 0
vn 1 0 0
vn 0.4305496 0.8072804 -0.4036402
vn 0.4305496 0.8072804 -0.4036402
vn 0.4305496 0.8072804 -0.4036402
vn 0 1 0
vn 0 1 0
vn 0 1 0
vn 0 1 0
vn 0 1 0
g pb_Mesh239442_0
f 3/3/3 2/2/2 1/1/1
f 3/3/3 4/4/4 2/2/2
f 7/7/7 6/6/6 5/5/5
f 7/7/7 8/8/8 6/6/6
f 11/11/11 10/10/10 9/9/9
f 11/11/11 12/12/12 10/10/10
f 12/12/12 13/13/13 10/10/10
f 12/12/12 14/14/14 13/13/13
f 5/5/5 12/12/12 11/11/11
f 5/5/5 6/6/6 12/12/12
f 17/17/17 16/16/16 15/15/15
f 17/17/17 18/18/18 16/16/16
f 6/6/6 14/14/14 12/12/12
f 6/6/6 8/8/8 14/14/14
f 21/21/21 20/20/20 19/19/19
f 21/21/21 22/22/22 20/20/20
f 25/25/25 24/24/24 23/23/23
f 25/25/25 26/26/26 24/24/24
f 29/29/29 28/28/28 27/27/27
f 29/29/29 30/30/30 28/28/28
f 33/33/33 32/32/32 31/31/31
f 33/33/33 34/34/34 32/32/32
f 35/35/35 24/24/24 26/26/26
f 35/35/35 36/36/36 24/24/24
f 39/39/39 38/38/38 37/37/37
f 39/39/39 40/40/40 38/38/38
f 41/41/41 4/4/4 3/3/3
f 41/41/41 42/42/42 4/4/4
f 44/44/44 43/43/43 23/23/23
f 24/24/24 44/44/44 23/23/23
f 24/24/24 45/45/45 44/44/44
f 48/48/48 47/47/47 46/46/46
f 47/47/47 49/49/49 46/46/46
f 52/52/52 51/51/51 50/50/50
f 51/51/51 53/53/53 50/50/50
f 52/52/52 37/37/37 38/38/38
f 54/54/54 52/52/52 38/38/38
f 54/54/54 51/51/51 52/52/52
f 57/57/57 56/56/56 55/55/55
f 57/57/57 58/58/58 56/56/56
f 57/57/57 59/59/59 58/58/58
f 62/62/62 61/61/61 60/60/60
f 63/63/63 61/61/61 62/62/62
f 64/64/64 63/63/63 62/62/62
f 67/67/67 66/66/66 65/65/65
f 68/68/68 66/66/66 67/67/67
f 69/69/69 66/66/66 68/68/68
f 72/72/72 71/71/71 70/70/70
f 75/75/75 74/74/74 73/73/73
f 48/48/48 73/73/73 74/74/74
f 48/48/48 46/46/46 73/73/73
f 78/78/78 77/77/77 76/76/76
f 78/78/78 76/76/76 79/79/79
f 81/81/81 79/79/79 80/80/80
f 78/78/78 79/79/79 81/81/81
f 84/84/84 83/83/83 82/82/82
f 84/84/84 85/85/85 83/83/83
f 84/84/84 82/82/82 86/86/86
f 87/87/87 84/84/84 86/86/86
f 90/90/90 89/89/89 88/88/88
f 93/93/93 92/92/92 91/91/91
f 93/93/93 91/91/91 94/94/94
f 95/95/95 47/47/47 48/48/48
f 95/95/95 48/48/48 96/96/96
f 97/97/97 95/95/95 96/96/96
f 100/100/100 99/99/99 98/98/98
f 98/98/98 50/50/50 100/100/100
f 100/100/100 50/50/50 53/53/53
f 103/103/103 102/102/102 101/101/101
f 106/106/106 105/105/105 104/104/104
f 107/107/107 106/106/106 104/104/104
f 108/108/108 107/107/107 104/104/104
g pb_Mesh239442_1
