g pb_Mesh276988
v 0 -6 4
v -3.5 -6 4
v 0 2 4
v -3.5 2 4
v -3.5 -6 -2
v 0 -6 -2
v -3.5 2 -2
v 0 2 -2
v 0 -6 -2
v 0 -6 0
v 0 2 -2
v 0 2 0
v 0 2 0
v -3.5 2 0
v 0 2 -2
v -3.5 2 -2
v 0 -6 -2
v -3.5 -6 -2
v 0 -6 0
v -3.5 -6 0
v -16.5 -6.0001 0
v -20 -6.00005 0
v -16.5 -6.0001 2
v -20 -6.0001 2
v 0 2 2
v 0 -6 2
v -20 -6.00005 0
v -20 2 0
v -20 -6.0001 2
v -20 2 2
v -3.5 2 2
v 0 2 2
v -16.5 -6.0001 2
v -20 -6.0001 2
v -16.5 -6.0001 4
v -20 -6.0001 4
v 0 2 4
v 0 -6 4
v -20 -6.0001 4
v -20 2 4
v -3.5 2 4
v 0 2 4
v 0 -6 2
v 0 -6 0
v -16.5 -6.0001 0
v -20 2 0
v -20 2 2
v 0 -6 4
v -3.5 -6 0
v -3.5 2 0
v -20 -6.00005 0
v -3.5 2 0
v -20 2 0
v -20 -6.00005 0
v -3.5 2 2
v -3.5 2 4
v -20 10 2
v -20 10 4
v -20 2 4
v -20 -6.0001 4
v -20 2 2
v -3.5 2 2
v -20 10 2
v -20 10 4
v -20 10 4
v -20 10 2
v -20 -6.00005 0
v -20 -6 -2
v -3.5 2 0
v -3.5 -6 0
v -20 -6.00005 0
v -20 -6 -2
v -3.5 2 -2
v -3.5 2 0
v -20 -6 -2
v -20 -6.00005 0
vt 0 -6
vt -3.5 -6
vt 0 2
vt -3.5 2
vt 3.5 -6
vt 0 -6
vt 3.5 2
vt 0 2
vt 2 -6
vt 0 -6
vt 2 2
vt 0 2
vt 0 0
vt 3.5 0
vt 0 -2
vt 3.5 -2
vt 0 -2
vt -3.5 -2
vt 0 0
vt -3.5 0
vt -16.49991 0
vt -19.99991 0
vt -16.49991 2
vt -19.99991 2
vt -2 2
vt -2 -6
vt 0 -6.00005
vt 0 2
vt 2 -6.0001
vt 2 2
vt 3.5 2
vt 0 2
vt -16.5 2
vt -20 2
vt -16.5 4
vt -20 4
vt -4 2
vt -4 -6
vt 4 -6.0001
vt 4 2
vt 3.5 4
vt 0 4
vt -3.641302E-05 2
vt -3.641302E-05 0
vt -16.50004 0
vt 20 0
vt 20 2
vt -3.641302E-05 4
vt 3.5 -6
vt 3.5 2
vt 20 -6.00005
vt 3.5 2
vt 20 2
vt 20 -6.00005
vt 4.021896 2
vt 4.021896 4
vt 22.35902 2
vt 22.35902 4
vt -20 2
vt -20 -6.0001
vt 20 2
vt 3.5 2
vt 20 10
vt -20 10
vt 4 10
vt 2 10
vt -20.00002 0
vt -20.00002 -2
vt -3.5 2
vt -3.5 -6
vt -20 -6.00005
vt 20 -6
vt 2.276803 -2
vt 2.276803 0
vt 20.61392 -2
vt 20.61395 0
vn 0 0 1
vn 0 0 1
vn 0 0 1
vn 0 0 1
vn 0 0 -1
vn 0 0 -1
vn 0 0 -1
vn 0 0 -1
vn 1 0 0
vn 1 0 0
vn 1 0 0
vn 1 0 0
vn 0 1 0
vn 0 1 0
vn 0 1 0
vn 0 1 0
vn 0 -1 0
vn 0 -1 0
vn 0 -1 0
vn 0 -1 0
vn -1.430511E-05 -1 0
vn -7.152557E-06 -1 -1.251698E-05
vn -7.152557E-06 -1 -1.251698E-05
vn 0 -1 -2.503395E-05
vn 1 0 0
vn 1 0 0
vn -1 0 0
vn -1 0 0
vn -1 0 0
vn -1 0 0
vn 0 1 0
vn 0 1 0
vn 0 -1 0
vn 0 -1 0
vn 0 -1 0
vn 0 -1 0
vn 1 0 0
vn 1 0 0
vn -1 0 0
vn -1 0 0
vn 0 1 0
vn 0 1 0
vn 6.068837E-06 -1 0
vn 6.068837E-06 -1 0
vn 6.068837E-06 -1 0
vn 0 1 0
vn 0 1 0
vn 6.068837E-06 -1 0
vn 0 0 -1
vn 0 0 -1
vn 0 0 -1
vn 0 0 -1
vn 0 0 -1
vn 0 0 -1
vn 0.4362735 0.8998141 0
vn 0.4362735 0.8998141 0
vn 0.4362735 0.8998141 0
vn 0.4362735 0.8998141 0
vn 0 0 1
vn 0 0 1
vn 0 0 -1
vn 0 0 -1
vn 0 0 -1
vn 0 0 1
vn -1 0 0
vn -1 0 0
vn 1.517209E-06 -1 -1.251698E-05
vn 0 -1 -2.503395E-05
vn 0 0 1
vn 0 0 1
vn 0 0 1
vn 0 0 -1
vn -0.4362735 0.8998141 0
vn -0.4362746 0.8998136 1.115567E-05
vn -0.4362746 0.8998136 1.115567E-05
vn -0.4362757 0.8998131 2.231134E-05
g pb_Mesh276988_0
f 3/3/3 2/2/2 1/1/1
f 3/3/3 4/4/4 2/2/2
f 7/7/7 6/6/6 5/5/5
f 7/7/7 8/8/8 6/6/6
f 11/11/11 10/10/10 9/9/9
f 11/11/11 12/12/12 10/10/10
f 15/15/15 14/14/14 13/13/13
f 15/15/15 16/16/16 14/14/14
f 19/19/19 18/18/18 17/17/17
f 19/19/19 20/20/20 18/18/18
f 23/23/23 22/22/22 21/21/21
f 23/23/23 24/24/24 22/22/22
f 25/25/25 10/10/10 12/12/12
f 25/25/25 26/26/26 10/10/10
f 29/29/29 28/28/28 27/27/27
f 29/29/29 30/30/30 28/28/28
f 31/31/31 13/13/13 14/14/14
f 31/31/31 32/32/32 13/13/13
f 35/35/35 34/34/34 33/33/33
f 35/35/35 36/36/36 34/34/34
f 37/37/37 26/26/26 25/25/25
f 37/37/37 38/38/38 26/26/26
f 39/39/39 30/30/30 29/29/29
f 39/39/39 40/40/40 30/30/30
f 41/41/41 32/32/32 31/31/31
f 41/41/41 42/42/42 32/32/32
f 33/33/33 44/44/44 43/43/43
f 33/33/33 45/45/45 44/44/44
f 46/46/46 31/31/31 14/14/14
f 46/46/46 47/47/47 31/31/31
f 35/35/35 43/43/43 48/48/48
f 35/35/35 33/33/33 43/43/43
f 51/51/51 50/50/50 49/49/49
f 54/54/54 53/53/53 52/52/52
f 57/57/57 56/56/56 55/55/55
f 57/57/57 58/58/58 56/56/56
f 59/59/59 2/2/2 4/4/4
f 59/59/59 60/60/60 2/2/2
f 63/63/63 62/62/62 61/61/61
f 4/4/4 64/64/64 59/59/59
f 65/65/65 30/30/30 40/40/40
f 65/65/65 66/66/66 30/30/30
f 67/67/67 18/18/18 20/20/20
f 67/67/67 68/68/68 18/18/18
f 71/71/71 70/70/70 69/69/69
f 72/72/72 7/7/7 5/5/5
f 75/75/75 74/74/74 73/73/73
f 75/75/75 76/76/76 74/74/74
