g pb_Mesh277136
v -1.008133 -0.09430609 0.5161747
v -0.5654336 -0.09683828 2.146912
v -2.35571 -0.09384303 -0.04255898
v -1.918203 0.4164467 1.586051
v -0.5654336 -0.09683828 2.146912
v -0.2978579 -0.103283 4.248473
v -1.918203 0.4164467 1.586051
v -1.786593 0.7703743 3.794561
v -0.2978579 -0.103283 4.248473
v -0.2589473 -0.09305032 6.0356
v -1.786593 0.7703743 3.794561
v -1.793447 0.7346535 5.793808
v -0.2589473 -0.09305032 6.0356
v 1.113776 -0.0920578 7.864699
v -1.793447 0.7346535 5.793808
v -1.999994 0.275425 7.999998
v -2.35571 -0.09384303 -0.04255898
v -1.918203 0.4164467 1.586051
v -3.76062 -0.09373304 -0.2047912
v -3.767441 0.9525375 1.794487
v -1.918203 0.4164467 1.586051
v -1.786593 0.7703743 3.794561
v -3.767441 0.9525375 1.794487
v -3.774295 0.9168205 3.793734
v -1.786593 0.7703743 3.794561
v -1.793447 0.7346535 5.793808
v -3.774295 0.9168205 3.793734
v -3.781124 0.984108 5.793
v -1.793447 0.7346535 5.793808
v -1.999994 0.275425 7.999998
v -3.781124 0.984108 5.793
v -3.787964 0.9300766 7.792275
v -1.999994 0.275425 7.999998
v -1.999994 0.275425 10.00001
v -3.787964 0.9300766 7.792275
v -3.794832 2.495705 9.791494
v -3.76062 -0.09373304 -0.2047912
v -3.767441 0.9525375 1.794487
v -5.748304 -0.08388227 -0.2055858
v -5.755143 1.098984 1.79366
v -3.767441 0.9525375 1.794487
v -3.774295 0.9168205 3.793734
v -5.755143 1.098984 1.79366
v -5.761971 1.259666 3.792926
v -3.774295 0.9168205 3.793734
v -3.781124 0.984108 5.793
v -5.761971 1.259666 3.792926
v -5.768832 1.901505 5.792179
v -3.781124 0.984108 5.793
v -3.787964 0.9300766 7.792275
v -5.768832 1.901505 5.792179
v -5.77568 2.771263 7.791421
v -3.787964 0.9300766 7.792275
v -3.794832 2.495705 9.791494
v -5.77568 2.771263 7.791421
v -5.782515 3.548508 9.790691
v -5.748304 -0.08388227 -0.2055858
v -5.755143 1.098984 1.79366
v -7.485034 -0.08389673 0.2453242
v -7.494353 1.425243 2.243383
v -5.755143 1.098984 1.79366
v -5.761971 1.259666 3.792926
v -7.494353 1.425243 2.243383
v -7.74968 1.481197 3.792104
v -5.761971 1.259666 3.792926
v -5.768832 1.901505 5.792179
v -7.74968 1.481197 3.792104
v -7.756514 3.046822 5.791375
v -5.768832 1.901505 5.792179
v -5.77568 2.771263 7.791421
v -7.756514 3.046822 5.791375
v -7.763362 2.99279 7.790618
v -5.77568 2.771263 7.791421
v -5.782515 3.548508 9.790691
v -7.763362 2.99279 7.790618
v -7.770203 3.645592 9.789893
v -7.485034 -0.08389673 0.2453242
v -7.494353 1.425243 2.243383
v -9.427818 -0.08837929 0.2570813
v -9.437119 0.9504089 2.255147
v -7.494353 1.425243 2.243383
v -7.74968 1.481197 3.792104
v -9.437119 0.9504089 2.255147
v -9.44646 3.320274 4.253211
v -7.74968 1.481197 3.792104
v -7.756514 3.046822 5.791375
v -9.44646 3.320274 4.253211
v -9.455784 3.407894 6.25126
v -7.756514 3.046822 5.791375
v -7.763362 2.99279 7.790618
v -9.455784 3.407894 6.25126
v -9.4651 2.659096 8.249342
v -7.763362 2.99279 7.790618
v -7.770203 3.645592 9.789893
v -9.4651 2.659096 8.249342
v -7.770203 3.645592 9.789893
v -9.47445 1.3009 10.24737
v -9.4651 2.659096 8.249342
v -7.770203 3.645592 9.789893
v -7.777032 1.265072 11.78916
v -9.47445 1.3009 10.24737
v -9.764753 1.486603 11.78831
v -9.427818 -0.08837929 0.2570813
v -9.437119 0.9504089 2.255147
v -11.37059 -0.08873811 0.2688378
v -11.3799 2.757816 2.266921
v -9.437119 0.9504089 2.255147
v -9.44646 3.320274 4.253211
v -11.3799 2.757816 2.266921
v -11.38924 2.845436 4.264946
v -9.44646 3.320274 4.253211
v -9.455784 3.407894 6.25126
v -11.38924 2.845436 4.264946
v -11.39857 4.080383 6.263005
v -9.455784 3.407894 6.25126
v -9.4651 2.659096 8.249342
v -11.39857 4.080383 6.263005
v -9.4651 2.659096 8.249342
v -11.40789 0.7384415 8.261082
v -11.39857 4.080383 6.263005
v -9.4651 2.659096 8.249342
v -9.47445 1.3009 10.24737
v -11.40789 0.7384415 8.261082
v -11.41724 0.8260574 10.25912
v -9.47445 1.3009 10.24737
v -9.764753 1.486603 11.78831
v -11.41724 0.8260574 10.25912
v -11.42655 0.9136848 12.25719
v -11.37059 -0.08873811 0.2688378
v -11.3799 2.757816 2.266921
v -13.31336 -0.08736638 0.2806251
v -13.32267 3.430305 2.278656
v -11.3799 2.757816 2.266921
v -11.38924 2.845436 4.264946
v -13.32267 3.430305 2.278656
v -13.33203 3.517925 4.276691
v -11.38924 2.845436 4.264946
v -11.39857 4.080383 6.263005
v -13.33203 3.517925 4.276691
v -11.39857 4.080383 6.263005
v -13.34135 0.1759796 6.274774
v -13.33203 3.517925 4.276691
v -11.39857 4.080383 6.263005
v -11.40789 0.7384415 8.261082
v -13.34135 0.1759796 6.274774
v -13.35068 0.2635994 8.272827
v -11.40789 0.7384415 8.261082
v -11.41724 0.8260574 10.25912
v -13.35068 0.2635994 8.272827
v -13.36001 0.351223 10.27089
v -11.42655 0.9136848 12.25719
v -13.36931 0.4388542 12.26895
v -13.31336 -0.08736638 0.2806251
v -13.32267 3.430305 2.278656
v -15.25617 -0.08685703 0.2923221
v -15.26546 2.955467 2.290402
v -13.32267 3.430305 2.278656
v -13.33203 3.517925 4.276691
v -15.26546 2.955467 2.290402
v -13.33203 3.517925 4.276691
v -15.2748 -0.3864784 4.288455
v -15.26546 2.955467 2.290402
v -13.33203 3.517925 4.276691
v -15.2748 -0.3864784 4.288455
v -15.28411 -0.298851 6.286538
v -13.34135 0.1759796 6.274774
v -15.28411 -0.298851 6.286538
v -15.29345 -0.211235 8.284596
v -15.30279 -0.1236115 10.28262
v -15.31211 -0.03598404 12.2807
vt 1.008165 0.5163285
vt 0.5654663 2.147068
vt 2.355742 -0.0424059
vt 1.918062 1.585363
vt 0.4892245 2.131526
vt 0.2383317 4.235154
vt 1.935885 1.570114
vt 1.944885 3.793183
vt 0.2036028 4.244071
vt 0.1753436 6.031428
vt 1.929742 3.790101
vt 1.917429 5.788543
vt 0.172321 5.540691
vt -0.9981036 7.5054
vt 1.913238 5.280972
vt 1.849753 7.152522
vt 2.350553 -0.09642098
vt 1.932434 1.615115
vt 3.754484 -0.2669137
vt 3.800425 1.956919
vt 1.96044 1.547105
vt 1.925644 3.787393
vt 3.885489 1.75854
vt 3.882796 3.723341
vt 1.838363 3.782432
vt 1.842575 5.782005
vt 3.831453 3.781605
vt 3.843207 5.779341
vt 1.870925 5.55282
vt 2.018722 7.810913
vt 3.874194 5.551993
vt 3.874258 7.516924
vt 1.972762 7.999998
vt 1.972762 10.00001
vt 3.876812 7.792275
vt 4.421556 9.791494
vt 3.760086 -0.2339133
vt 3.77231 2.022564
vt 5.747794 -0.2348101
vt 5.760743 2.084971
vt 3.827241 1.782033
vt 3.831453 3.781606
vt 5.820331 1.781206
vt 5.838947 3.77726
vt 3.875213 3.800251
vt 3.89338 5.800578
vt 5.892241 3.799443
vt 6.008106 5.818196
vt 3.845514 5.808986
vt 3.829083 7.808935
vt 6.034715 5.808164
vt 6.405402 7.786304
vt 3.410656 5.823957
vt 4.479822 8.127215
vt 6.120081 5.822972
vt 6.653372 7.839127
vt 5.694284 0.2219704
vt 5.521282 2.538492
vt 7.410844 0.7444388
vt 7.190708 3.223026
vt 5.857548 1.798821
vt 5.890744 3.80427
vt 7.626741 2.249934
vt 7.887796 3.794912
vt 5.866123 3.799963
vt 5.944118 5.898279
vt 7.866138 3.7991
vt 8.04655 6.176197
vt 5.947605 4.989752
vt 6.38787 7.125089
vt 8.241648 4.988894
vt 8.220599 6.84307
vt 6.047425 8.029814
vt 6.140428 10.17285
vt 8.047414 8.028954
vt 8.12662 10.12746
vt 7.485435 0.1762238
vt 7.484373 2.680187
vt 9.428203 0.1909578
vt 9.430358 2.411446
vt 6.940293 2.471881
vt 7.174984 4.024871
vt 8.940245 2.483677
vt 8.385651 4.64698
vt 6.81469 1.253338
vt 7.848714 3.572628
vt 9.302209 1.788252
vt 9.366817 3.540978
vt 8.230008 5.753743
vt 8.225087 7.753721
vt 9.967172 6.213797
vt 9.815379 8.231031
vt 6.648701 8.933562
vt 6.476723 11.02968
vt 8.376817 9.414507
vt 6.476723 11.02968
vt 8.757311 10.92848
vt 8.376817 9.414507
vt 0.7079765 -3.559057
vt 2.032487 -6.371468
vt -0.2605086 -6.329141
vt 0.5474923 -6.88754
vt 9.42806 0.2018129
vt 9.4339 2.45379
vt 11.37082 0.2150634
vt 11.37065 3.300955
vt 6.048687 4.999857
vt 4.82603 7.848316
vt 7.572453 7.17227
vt 6.349823 8.121927
vt 8.386639 4.488007
vt 8.37487 6.487963
vt 10.3866 4.499754
vt 10.10216 6.54838
vt 10.05058 5.854437
vt 9.813005 7.974974
vt 12.10646 5.866902
vt 9.813005 7.974974
vt 11.01568 8.807529
vt 12.10646 5.866902
vt 4.879259 3.733241
vt 5.838795 5.950491
vt 7.611162 3.746269
vt 7.55636 5.516844
vt 8.89133 10.67855
vt 9.129004 12.23957
vt 10.89131 10.69045
vt 10.87946 12.67679
vt 11.37191 0.04541837
vt 11.39235 3.523187
vt 13.31472 0.04709428
vt 13.33516 4.074143
vt 11.65621 2.2207
vt 11.69369 4.220317
vt 13.71209 2.232445
vt 13.74958 4.232071
vt 11.69684 3.181546
vt 12.10574 5.494601
vt 13.75272 3.195143
vt 12.10574 5.494601
vt 12.6789 3.326713
vt 13.75272 3.195143
vt -2.474128 -0.7735244
vt -0.9439462 -4.35396
vt -3.707445 -4.956561
vt -2.177294 -5.335879
vt 10.90549 8.402916
vt 10.89375 10.40286
vt 12.90547 8.414673
vt 12.89371 10.41464
vt 10.88196 12.40283
vt 12.88192 12.41461
vt 13.31478 0.02401572
vt 13.33582 4.069481
vt 15.25762 0.02460149
vt 15.27865 3.656759
vt 12.12564 2.560253
vt 12.1139 4.560196
vt 14.12561 2.57201
vt 12.1139 4.560196
vt 14.92896 4.426502
vt 14.12561 2.57201
vt -5.237567 -1.376123
vt -6.470877 -5.559159
vt -4.940689 -5.938469
vt 12.91723 6.414706
vt 14.91719 6.426481
vt 14.90543 8.426447
vt 14.89367 10.42639
vt 14.8819 12.42637
vn -0.0003382685 0.9999986 0.001644618
vn 0.3096661 0.9433351 -0.1192724
vn 0.1373063 0.9570277 -0.2554308
vn 0.3298563 0.9065994 -0.2631963
vn 0.3096661 0.9433351 -0.1192724
vn 0.4837292 0.873122 -0.06053117
vn 0.3298563 0.9065994 -0.2631963
vn 0.3255325 0.9438248 -0.05677519
vn 0.4837292 0.873122 -0.06053117
vn 0.4973503 0.8474848 -0.1855052
vn 0.3255325 0.9438248 -0.05677519
vn 0.2584636 0.9652683 0.03812987
vn 0.4973503 0.8474848 -0.1855052
vn 0.3256332 0.942013 -0.08108371
vn 0.2584636 0.9652683 0.03812987
vn 0.2356201 0.9653296 0.1123477
vn 0.1373063 0.9570277 -0.2554308
vn 0.3298563 0.9065994 -0.2631963
vn 0.06169914 0.9032357 -0.4246864
vn 0.1222103 0.9585795 -0.2572743
vn 0.3298563 0.9065994 -0.2631963
vn 0.3255325 0.9438248 -0.05677519
vn 0.1222103 0.9585795 -0.2572743
vn 0.1161333 0.993148 -0.01304592
vn 0.3255325 0.9438248 -0.05677519
vn 0.2584636 0.9652683 0.03812987
vn 0.1161333 0.993148 -0.01304592
vn 0.2700449 0.9627864 -0.01086505
vn 0.2584636 0.9652683 0.03812987
vn 0.2356201 0.9653296 0.1123477
vn 0.2700449 0.9627864 -0.01086505
vn 0.5263101 0.8223865 -0.216051
vn 0.2356201 0.9653296 0.1123477
vn 0.568724 0.7908472 -0.2260838
vn 0.5263101 0.8223865 -0.216051
vn 0.629833 0.6509095 -0.4238245
vn 0.06169914 0.9032357 -0.4246864
vn 0.1222103 0.9585795 -0.2572743
vn -0.04874974 0.8661355 -0.4974262
vn 0.07284145 0.9498828 -0.3040012
vn 0.1222103 0.9585795 -0.2572743
vn 0.1161333 0.993148 -0.01304592
vn 0.07284145 0.9498828 -0.3040012
vn 0.1767922 0.973034 -0.1481532
vn 0.1161333 0.993148 -0.01304592
vn 0.2700449 0.9627864 -0.01086505
vn 0.1767922 0.973034 -0.1481532
vn 0.426303 0.8506879 -0.3075642
vn 0.2700449 0.9627864 -0.01086505
vn 0.5263101 0.8223865 -0.216051
vn 0.426303 0.8506879 -0.3075642
vn 0.4073536 0.8542808 -0.3229044
vn 0.5263101 0.8223865 -0.216051
vn 0.629833 0.6509095 -0.4238245
vn 0.4073536 0.8542808 -0.3229044
vn 0.2639586 0.9042723 -0.3355854
vn -0.04874974 0.8661355 -0.4974262
vn 0.07284145 0.9498828 -0.3040012
vn -0.03717308 0.8138686 -0.5798587
vn -0.05672433 0.9426339 -0.3289738
vn 0.07284145 0.9498828 -0.3040012
vn 0.1767922 0.973034 -0.1481532
vn -0.05672433 0.9426339 -0.3289738
vn 0.283613 0.8868963 -0.3646624
vn 0.1767922 0.973034 -0.1481532
vn 0.426303 0.8506879 -0.3075642
vn 0.283613 0.8868963 -0.3646624
vn 0.3440238 0.90316 -0.2568064
vn 0.426303 0.8506879 -0.3075642
vn 0.4073536 0.8542808 -0.3229044
vn 0.3440238 0.90316 -0.2568064
vn -0.003184741 0.9939524 -0.1097659
vn 0.4073536 0.8542808 -0.3229044
vn 0.2639586 0.9042723 -0.3355854
vn -0.003184741 0.9939524 -0.1097659
vn -0.4033405 0.9027317 0.1496391
vn -0.03717308 0.8138686 -0.5798587
vn -0.05672433 0.9426339 -0.3289738
vn -0.05684878 0.8655683 -0.4975537
vn 0.1749327 0.7996129 -0.5744718
vn -0.05672433 0.9426339 -0.3289738
vn 0.283613 0.8868963 -0.3646624
vn 0.1749327 0.7996129 -0.5744718
vn 0.2076578 0.8977855 -0.3884063
vn 0.283613 0.8868963 -0.3646624
vn 0.3440238 0.90316 -0.2568064
vn 0.2076578 0.8977855 -0.3884063
vn 0.1567534 0.9861063 0.05497959
vn 0.3440238 0.90316 -0.2568064
vn -0.003184741 0.9939524 -0.1097659
vn 0.1567534 0.9861063 0.05497959
vn -0.3594151 0.8477492 0.3900538
vn -0.003184741 0.9939524 -0.1097659
vn -0.4033405 0.9027317 0.1496391
vn -0.3594151 0.8477492 0.3900538
vn -0.4033405 0.9027317 0.1496391
vn -0.448134 0.8722686 0.1957636
vn -0.3594151 0.8477492 0.3900538
vn -0.4033405 0.9027317 0.1496391
vn -0.2702835 0.9085103 0.3186781
vn -0.448134 0.8722686 0.1957636
vn -0.08972365 0.9907217 -0.1020793
vn -0.05684878 0.8655683 -0.4975537
vn 0.1749327 0.7996129 -0.5744718
vn 0.1193455 0.665091 -0.7371639
vn 0.2878032 0.7808998 -0.554405
vn 0.1749327 0.7996129 -0.5744718
vn 0.2076578 0.8977855 -0.3884063
vn 0.2878032 0.7808998 -0.554405
vn 0.1041406 0.9676486 -0.2298061
vn 0.2076578 0.8977855 -0.3884063
vn 0.1567534 0.9861063 0.05497959
vn 0.1041406 0.9676486 -0.2298061
vn -0.2755005 0.9249743 0.2617673
vn 0.1567534 0.9861063 0.05497959
vn -0.3594151 0.8477492 0.3900538
vn -0.2755005 0.9249743 0.2617673
vn -0.3594151 0.8477492 0.3900538
vn -0.4542092 0.8238254 0.3391249
vn -0.2755005 0.9249743 0.2617673
vn -0.3594151 0.8477492 0.3900538
vn -0.448134 0.8722686 0.1957636
vn -0.4542092 0.8238254 0.3391249
vn -0.2498786 0.9665288 -0.05816193
vn -0.448134 0.8722686 0.1957636
vn -0.08972365 0.9907217 -0.1020793
vn -0.2498786 0.9665288 -0.05816193
vn -0.287312 0.9568577 -0.04330215
vn 0.1193455 0.665091 -0.7371639
vn 0.2878032 0.7808998 -0.554405
vn 0.03733611 0.5142702 -0.8568152
vn 0.05285085 0.8514465 -0.5217716
vn 0.2878032 0.7808998 -0.554405
vn 0.1041406 0.9676486 -0.2298061
vn 0.05285085 0.8514465 -0.5217716
vn -0.3731967 0.8771972 0.302075
vn 0.1041406 0.9676486 -0.2298061
vn -0.2755005 0.9249743 0.2617673
vn -0.3731967 0.8771972 0.302075
vn -0.2755005 0.9249743 0.2617673
vn -0.5527637 0.7693685 0.3201943
vn -0.3731967 0.8771972 0.302075
vn -0.2755005 0.9249743 0.2617673
vn -0.4542092 0.8238254 0.3391249
vn -0.5527637 0.7693685 0.3201943
vn -0.2374457 0.9704189 -0.04366509
vn -0.4542092 0.8238254 0.3391249
vn -0.2498786 0.9665288 -0.05816193
vn -0.2374457 0.9704189 -0.04366509
vn -0.2374447 0.9704192 -0.04366617
vn -0.287312 0.9568577 -0.04330215
vn -0.237444 0.9704193 -0.04366571
vn 0.03733611 0.5142702 -0.8568152
vn 0.05285085 0.8514465 -0.5217716
vn -0.07166034 0.5200652 -0.8511151
vn -0.420428 0.8253955 -0.376779
vn 0.05285085 0.8514465 -0.5217716
vn -0.3731967 0.8771972 0.302075
vn -0.420428 0.8253955 -0.376779
vn -0.3731967 0.8771972 0.302075
vn -0.6640723 0.5687137 0.4853584
vn -0.420428 0.8253955 -0.376779
vn -0.3731967 0.8771972 0.302075
vn -0.6640723 0.5687137 0.4853584
vn -0.2374445 0.9704192 -0.04366456
vn -0.5527637 0.7693685 0.3201943
vn -0.2374445 0.9704192 -0.04366456
vn -0.2374451 0.970419 -0.04366511
vn -0.2374438 0.9704193 -0.04366698
vn -0.2374439 0.9704193 -0.04366561
g pb_Mesh277136_0
f 3/3/3 2/2/2 1/1/1
f 3/3/3 4/4/4 2/2/2
f 7/7/7 6/6/6 5/5/5
f 7/7/7 8/8/8 6/6/6
f 11/11/11 10/10/10 9/9/9
f 11/11/11 12/12/12 10/10/10
f 15/15/15 14/14/14 13/13/13
f 15/15/15 16/16/16 14/14/14
f 19/19/19 18/18/18 17/17/17
f 19/19/19 20/20/20 18/18/18
f 23/23/23 22/22/22 21/21/21
f 23/23/23 24/24/24 22/22/22
f 27/27/27 26/26/26 25/25/25
f 27/27/27 28/28/28 26/26/26
f 31/31/31 30/30/30 29/29/29
f 31/31/31 32/32/32 30/30/30
f 35/35/35 34/34/34 33/33/33
f 35/35/35 36/36/36 34/34/34
f 39/39/39 38/38/38 37/37/37
f 39/39/39 40/40/40 38/38/38
f 43/43/43 42/42/42 41/41/41
f 43/43/43 44/44/44 42/42/42
f 47/47/47 46/46/46 45/45/45
f 47/47/47 48/48/48 46/46/46
f 51/51/51 50/50/50 49/49/49
f 51/51/51 52/52/52 50/50/50
f 55/55/55 54/54/54 53/53/53
f 55/55/55 56/56/56 54/54/54
f 59/59/59 58/58/58 57/57/57
f 59/59/59 60/60/60 58/58/58
f 63/63/63 62/62/62 61/61/61
f 63/63/63 64/64/64 62/62/62
f 67/67/67 66/66/66 65/65/65
f 67/67/67 68/68/68 66/66/66
f 71/71/71 70/70/70 69/69/69
f 71/71/71 72/72/72 70/70/70
f 75/75/75 74/74/74 73/73/73
f 75/75/75 76/76/76 74/74/74
f 79/79/79 78/78/78 77/77/77
f 79/79/79 80/80/80 78/78/78
f 83/83/83 82/82/82 81/81/81
f 83/83/83 84/84/84 82/82/82
f 87/87/87 86/86/86 85/85/85
f 87/87/87 88/88/88 86/86/86
f 91/91/91 90/90/90 89/89/89
f 91/91/91 92/92/92 90/90/90
f 95/95/95 94/94/94 93/93/93
f 98/98/98 97/97/97 96/96/96
f 101/101/101 100/100/100 99/99/99
f 101/101/101 102/102/102 100/100/100
f 105/105/105 104/104/104 103/103/103
f 105/105/105 106/106/106 104/104/104
f 109/109/109 108/108/108 107/107/107
f 109/109/109 110/110/110 108/108/108
f 113/113/113 112/112/112 111/111/111
f 113/113/113 114/114/114 112/112/112
f 117/117/117 116/116/116 115/115/115
f 120/120/120 119/119/119 118/118/118
f 123/123/123 122/122/122 121/121/121
f 123/123/123 124/124/124 122/122/122
f 127/127/127 126/126/126 125/125/125
f 127/127/127 128/128/128 126/126/126
f 131/131/131 130/130/130 129/129/129
f 131/131/131 132/132/132 130/130/130
f 135/135/135 134/134/134 133/133/133
f 135/135/135 136/136/136 134/134/134
f 139/139/139 138/138/138 137/137/137
f 142/142/142 141/141/141 140/140/140
f 145/145/145 144/144/144 143/143/143
f 145/145/145 146/146/146 144/144/144
f 149/149/149 148/148/148 147/147/147
f 149/149/149 150/150/150 148/148/148
f 150/150/150 151/151/151 148/148/148
f 150/150/150 152/152/152 151/151/151
f 155/155/155 154/154/154 153/153/153
f 155/155/155 156/156/156 154/154/154
f 159/159/159 158/158/158 157/157/157
f 162/162/162 161/161/161 160/160/160
f 164/164/164 145/145/145 163/163/163
f 164/164/164 165/165/165 145/145/145
f 167/167/167 149/149/149 166/166/166
f 167/167/167 168/168/168 149/149/149
f 168/168/168 150/150/150 149/149/149
f 168/168/168 169/169/169 150/150/150
f 169/169/169 152/152/152 150/150/150
f 169/169/169 170/170/170 152/152/152
