g pb_Mesh220854
v -2.928643E-05 0.0003522151 0.0005290907
v -2.888692E-05 1.615845E-07 2.76143E-06
v 0.001377181 -3.999647 0.001652691
v 0.00137758 -3.999999 0.001126362
v -2.888692E-05 1.615845E-07 2.76143E-06
v -4.000028 -0.001406894 -0.00209228
v 0.00137758 -3.999999 0.001126362
v -3.998622 -4.001406 -0.0009686793
v -0.003575848 9.999999 -0.002279827
v -4.003575 9.998592 -0.004634268
v -2.928643E-05 0.0003522151 0.0005290907
v -4.000029 -0.001231343 -0.0018253
v -0.007764656 22.00018 -0.005913876
v -4.007764 21.99868 -0.008138591
v -0.006358265 18 -0.004527012
v -4.006357 17.99859 -0.006881453
v -0.006358265 18 -0.004527012
v -4.006357 17.99859 -0.006881453
v -0.01067093 18.00224 7.994945
v -4.01067 18.00083 7.99285
v -0.003575848 9.999999 -0.002279827
v -0.006358265 18 -0.004527012
v -0.007888515 10.00224 7.997192
v -0.01067093 18.00224 7.994945
v -4.006357 17.99859 -0.006881453
v -4.003575 9.998592 -0.004634268
v -4.01067 18.00083 7.99285
v -4.007888 10.00084 7.995097
v -4.003575 9.998592 -0.004634268
v -0.003575848 9.999999 -0.002279827
v -4.007888 10.00084 7.995097
v -0.007888515 10.00224 7.997192
vt 0.001122864 4.000352
vt 0.001649193 4
vt 0 0.0003519058
vt 0.0005263295 0
vt 0.001407056 4.001406
vt 4.001407 3.999999
vt 0 0.001406908
vt 4 0
vt 0.00357719 10
vt 4.003577 9.998593
vt 2.897494E-05 0.0003520666
vt 4.000029 -0.001231492
vt 0.007767945 22.00018
vt 4.007768 21.99868
vt 0.006360782 18
vt 4.006361 17.99859
vt -2.693181E-05 0.0005235781
vt -4.000026 -0.001830862
vt -0.004338809 7.999996
vt -4.004338 7.9979
vt -0.0022779 10
vt -0.004523585 18
vt 7.997196 10.00224
vt 7.99495 18.00224
vt 0.004721847 17.99998
vt 0.002476162 9.999985
vt -7.995011 18.00223
vt -7.997257 10.00223
vt 4.00006 -0.001826092
vt 6.082649E-05 0.0005283485
vt 4.004372 7.997905
vt 0.004372703 8.000001
vn 0.9999998 0.0003517639 0.0005237602
vn 0.9999998 0.0003517639 0.0005238354
vn 0.9999998 0.0003517639 0.0005238354
vn 0.9999998 0.0003517639 0.0005239107
vn 0.000523859 -0.0002807159 -0.9999998
vn 0.0005238591 -0.0002807159 -0.9999998
vn 0.0005238591 -0.0002807159 -0.9999998
vn 0.0005238591 -0.0002807159 -0.9999998
vn 0.0005887089 -0.0002806929 -0.9999998
vn 0.0005887088 -0.0002806929 -0.9999998
vn 0.0005887088 -0.0002806929 -0.9999998
vn 0.0005887088 -0.0002806929 -0.9999998
vn 0.0005563085 -0.0003465049 -0.9999998
vn 0.0005725145 -0.0003302878 -0.9999998
vn 0.0005725145 -0.0003302878 -0.9999998
vn 0.0005887206 -0.0003140707 -0.9999998
vn 0.0003517407 -0.9999999 0.0002805883
vn 0.0003517498 -0.9999999 0.0002805838
vn 0.0003517498 -0.9999999 0.0002805838
vn 0.0003517588 -0.9999999 0.0002805793
vn -0.9999998 -0.0003479535 -0.0005390211
vn -0.9999998 -0.0003479535 -0.0005390211
vn -0.9999998 -0.0003479535 -0.0005390211
vn -0.9999998 -0.0003479536 -0.0005390212
vn 0.9999998 0.0003479446 0.0005390445
vn 0.9999998 0.0003479446 0.0005390444
vn 0.9999998 0.0003479446 0.0005390444
vn 0.9999998 0.0003479446 0.0005390444
vn -0.0003515022 0.9999999 -0.0002808176
vn -0.0003515112 0.9999999 -0.0002808221
vn -0.0003515112 0.9999999 -0.0002808221
vn -0.0003515203 0.9999999 -0.0002808266
g pb_Mesh220854_0
f 3/3/3 2/2/2 1/1/1
f 3/3/3 4/4/4 2/2/2
f 7/7/7 6/6/6 5/5/5
f 7/7/7 8/8/8 6/6/6
f 11/11/11 10/10/10 9/9/9
f 11/11/11 12/12/12 10/10/10
f 15/15/15 14/14/14 13/13/13
f 15/15/15 16/16/16 14/14/14
f 19/19/19 18/18/18 17/17/17
f 19/19/19 20/20/20 18/18/18
f 23/23/23 22/22/22 21/21/21
f 23/23/23 24/24/24 22/22/22
f 27/27/27 26/26/26 25/25/25
f 27/27/27 28/28/28 26/26/26
f 31/31/31 30/30/30 29/29/29
f 31/31/31 32/32/32 30/30/30
g pb_Mesh220854_1
