g pb_Mesh300188
v -3.000065 2 3.000067
v 3.000035 2 -2.999983
v 3.000035 2 3.000067
v -3.000065 2 -2.999983
v 4 2 4.000015
v 3 2 4.000015
v 4.000035 4 4.000017
v 3.000035 4 4.000017
v -4 2 4.000015
v -4 2 3.000015
v -4.000065 4 4.000017
v -4.000065 4 3.000017
v 4 2 3.000015
v 4 2 4.000015
v 4.000085 4 3.000067
v 4.000035 4 4.000017
v 4.000035 4 4.000017
v 3.000035 4 4.000017
v 4.000085 4 3.000067
v 3.000035 4 3.000067
v -3.000065 4 4.000017
v -3 2 4.000015
v 3.000035 2 3.000067
v 3.000035 4 3.000067
v -3.000065 2 3.000067
v -3.000065 4 3.000017
v -3.000065 4 3.000017
v -3.000065 4 4.000017
v -4.000065 4 4.000017
v -4 2 4.000015
v -3 2 -3.999985
v -3.000065 4 -4.000083
v -4 2 -3.999985
v -4.000065 4 -4.000083
v -4.000065 4 3.000017
v -4.000065 4 4.000017
v -3.000065 2 3.000067
v -3.000065 4 3.000017
v -3.000065 2 -2.999983
v -3.000065 4 -2.999983
v -3.000065 4 -2.999983
v -4.000065 4 -2.999983
v -4.000065 4 -2.999983
v -4 2 -2.999985
v 4 2 -2.999985
v 4.000135 4 -2.999983
v 4 2 -3.999985
v 4.000135 4 -4.000083
v -3.000065 4 -4.000083
v -4.000065 4 -4.000083
v -4.000065 4 -4.000083
v -4 2 -3.999985
v -3.000065 2 -2.999983
v -3.000065 4 -2.999983
v 3.000035 2 -2.999983
v 3.000035 4 -2.999983
v 3.000035 4 -2.999983
v 3.000035 4 -4.000083
v 3.000035 4 -4.000083
v 3 2 -3.999985
v 4.000135 4 -2.999983
v 4.000135 4 -4.000083
v 4.000135 4 -4.000083
v 4 2 -3.999985
v 3.000035 2 -2.999983
v 3.000035 4 -2.999983
v 3.000035 2 3.000067
v 3.000035 4 3.000067
v 4.000135 4 -2.999983
v 4 2 -2.999985
v 4.000085 4 3.000067
v 4 2 3.000015
v 3.5 2 -3.499985
v 4 2 -3.999985
v 3 2 -3.999985
v 4 2 -2.999985
v -3.5 2 -3.499985
v -3 2 -3.999985
v -4 2 -2.999985
v -3 2 -3.999985
v -4 2 -3.999985
v -4 2 -2.999985
v -3.5 2 -3.499985
v -3 2 -3.999985
v 3.5 2 3.500015
v 4 2 3.000015
v -3.5 -13 3.500015
v 3.5 -13 -3.499985
v -3.5 -13 -3.499985
v 3.5 -13 3.500015
v -4 2 3.000015
v -3.5 2 -3.499985
v -4 2 -2.999985
v -3.5 2 3.500015
v 3 2 4.000015
v 4 2 3.000015
v 3.5 2 3.500015
v 3 2 4.000015
v 4 2 4.000015
v 4 2 3.000015
v -3 2 4.000015
v 3.5 2 3.500015
v 3 2 4.000015
v -4 2 4.000015
v 3.5 2 -3.499985
v -3.5 2 -3.499985
v 3.5 -13 -3.499985
v -3.5 -13 -3.499985
v -3.5 2 -3.499985
v -3.5 2 3.500015
v -3.5 -13 -3.499985
v -3.5 -13 3.500015
v -3.5 2 3.500015
v 3.5 2 3.500015
v -3.5 -13 3.500015
v 3.5 -13 3.500015
v 3.5 2 3.500015
v 3.5 2 -3.499985
v 3.5 -13 3.500015
v 3.5 -13 -3.499985
vt 3.000065 3.000067
vt -3.000035 -2.999983
vt -3.000035 3.000067
vt 3.000065 -2.999983
vt 4 2.000004
vt 3 2.000004
vt 4.000035 4.000004
vt 3.000035 4.000004
vt 4.000015 2.00013
vt 3.000015 2.00013
vt 4.000017 4.00013
vt 3.000017 4.00013
vt -3.000015 2.000171
vt -4.000015 2.000171
vt -3.000067 4.000171
vt -4.000017 4.000171
vt -4.000035 4.000017
vt -3.000035 4.000017
vt -4.000085 3.000067
vt -3.000035 3.000067
vt -3.000065 4.000004
vt -3 2.000004
vt -3.000035 2
vt -3.000035 4
vt 3.000065 2
vt 3.000065 4
vt 3.000065 3.000017
vt 3.000065 4.000017
vt -4.000065 4.000004
vt -4 2.000004
vt 3 2.000196
vt 3.000065 4.000196
vt 4 2.000196
vt 4.000065 4.000196
vt 4.000065 3.000017
vt 4.000065 4.000017
vt -3.000067 2
vt -3.000017 4
vt 2.999983 2
vt 2.999983 4
vt 3.000065 -2.999983
vt 4.000065 -2.999983
vt -2.999983 4.00013
vt -2.999985 2.00013
vt 2.999985 2.000271
vt 2.999983 4.000271
vt 3.999985 2.000271
vt 4.000083 4.000271
vt 3.000065 -4.000083
vt 4.000065 -4.000083
vt -4.000083 4.00013
vt -3.999985 2.00013
vt -3.000065 2
vt -3.000065 4
vt 3.000035 2
vt 3.000035 4
vt -3.000035 -2.999983
vt -3.000035 -4.000083
vt -3.000035 4.000196
vt -3 2.000196
vt -4.000135 -2.999983
vt -4.000135 -4.000083
vt -4.000135 4.000196
vt -4 2.000196
vt -2.999983 2
vt -2.999983 4
vt 3.000067 2
vt 3.000067 4
vt 3.000016 4.000271
vt 3.000018 2.000271
vt -3.000034 4.000271
vt -2.999982 2.000271
vt 3.5 -3.499985
vt 4 -3.999985
vt 3 -3.999985
vt 4 -2.999985
vt -3.5 -3.499985
vt -3 -3.999985
vt -4 -2.999985
vt -3 -3.999985
vt -4 -3.999985
vt -4 -2.999985
vt -3.5 -3.499985
vt -3 -3.999985
vt 3.5 3.500015
vt 4 3.000015
vt -3.5 3.500015
vt 3.5 -3.499985
vt -3.5 -3.499985
vt 3.5 3.500015
vt -4 3.000015
vt -3.5 -3.499985
vt -4 -2.999985
vt -3.5 3.500015
vt 0 0
vt 0 0
vt 0 0
vt 0 0
vt 0 0
vt 0 0
vt -3 4.000015
vt 3.5 3.500015
vt 3 4.000015
vt -4 4.000015
vt -3.5 2
vt 3.5 2
vt -3.5 -13
vt 3.5 -13
vt -3.499985 2
vt 3.500015 2
vt -3.499985 -13
vt 3.500015 -13
vt -3.5 2
vt 3.5 2
vt -3.5 -13
vt 3.5 -13
vt -3.500015 2
vt 3.499985 2
vt -3.500015 -13
vt 3.499985 -13
vn 0 1 0
vn 0 1 0
vn 0 1 0
vn 0 1 0
vn 0 -9.536743E-07 1
vn 0 -9.536743E-07 1
vn 0 -9.536743E-07 1
vn 0 -9.536743E-07 1
vn -1 -3.242493E-05 0
vn -1 -3.242493E-05 0
vn -1 -3.242493E-05 0
vn -1 -3.242493E-05 0
vn 1 -4.267693E-05 0
vn 1 -3.015997E-05 2.50352E-05
vn 1 -3.015997E-05 2.50352E-05
vn 1 -1.764302E-05 5.00704E-05
vn 0 1 0
vn 0 1 0
vn 0 1 0
vn 0 1 0
vn 0 -9.536743E-07 1
vn 0 -9.536743E-07 1
vn 0 0 -1
vn 4.172256E-06 -1.251698E-05 -1
vn 4.172256E-06 -1.251698E-05 -1
vn 8.344511E-06 -2.503395E-05 -1
vn 0 1 0
vn 0 1 0
vn 0 -9.536743E-07 1
vn 0 -9.536743E-07 1
vn 0 -4.911423E-05 -1
vn 0 -4.911423E-05 -1
vn 0 -4.911423E-05 -1
vn 0 -4.911423E-05 -1
vn 0 1 0
vn 0 1 0
vn 1 0 0
vn 1 0 0
vn 1 0 0
vn 1 0 0
vn 0 1 0
vn 0 1 0
vn -1 -3.242493E-05 0
vn -1 -3.242493E-05 0
vn 1 -6.771088E-05 0
vn 1 -6.771088E-05 0
vn 1 -6.771088E-05 0
vn 1 -6.771088E-05 0
vn 0 1 0
vn 0 1 0
vn -1 -3.242493E-05 0
vn -1 -3.242493E-05 0
vn 0 0 1
vn 0 0 1
vn 0 0 1
vn 0 0 1
vn 0 1 0
vn 0 1 0
vn 0 -4.911423E-05 -1
vn 0 -4.911423E-05 -1
vn 0 1 0
vn 0 1 0
vn 0 -4.911423E-05 -1
vn 0 -4.911423E-05 -1
vn -1 0 0
vn -1 0 0
vn -1 0 0
vn -1 0 0
vn 1 -6.771088E-05 8.344581E-06
vn 1 -5.51939E-05 4.172291E-06
vn 1 -5.51939E-05 4.172291E-06
vn 1 -4.267693E-05 0
vn 0 -1 0
vn 0 -1 0
vn 0 -1 0
vn 0 -1 0
vn 0 -1 0
vn 0 -1 0
vn 0 -0.5 0
vn 0 -0.5 0
vn 0 -1 0
vn 0 -0.5 0
vn 0 0 0
vn 0 -0.5 0
vn 0 -1 0
vn 0 -1 0
vn 0 -1 0
vn 0 -1 0
vn 0 -1 0
vn 0 -1 0
vn 0 -1 0
vn 0 -1 0
vn 0 -1 0
vn 0 -1 0
vn 0 -0.5 0
vn 0 -0.5 0
vn 0 0 0
vn 0 -0.5 0
vn 0 -1 0
vn 0 -0.5 0
vn 0 -1 0
vn 0 -1 0
vn 0 -1 0
vn 0 -1 0
vn 0 0 -1
vn 0 0 -1
vn 0 0 -1
vn 0 0 -1
vn -1 0 0
vn -1 0 0
vn -1 0 0
vn -1 0 0
vn 0 0 1
vn 0 0 1
vn 0 0 1
vn 0 0 1
vn 1 0 0
vn 1 0 0
vn 1 0 0
vn 1 0 0
g pb_Mesh300188_0
f 3/3/3 2/2/2 1/1/1
f 2/2/2 4/4/4 1/1/1
g pb_Mesh300188_1
f 7/7/7 6/6/6 5/5/5
f 7/7/7 8/8/8 6/6/6
f 11/11/11 10/10/10 9/9/9
f 11/11/11 12/12/12 10/10/10
f 15/15/15 14/14/14 13/13/13
f 15/15/15 16/16/16 14/14/14
f 19/19/19 18/18/18 17/17/17
f 19/19/19 20/20/20 18/18/18
f 21/21/21 6/6/6 8/8/8
f 21/21/21 22/22/22 6/6/6
f 25/25/25 24/24/24 23/23/23
f 25/25/25 26/26/26 24/24/24
f 27/27/27 18/18/18 20/20/20
f 27/27/27 28/28/28 18/18/18
f 29/29/29 22/22/22 21/21/21
f 29/29/29 30/30/30 22/22/22
f 33/33/33 32/32/32 31/31/31
f 33/33/33 34/34/34 32/32/32
f 35/35/35 28/28/28 27/27/27
f 35/35/35 36/36/36 28/28/28
f 39/39/39 38/38/38 37/37/37
f 39/39/39 40/40/40 38/38/38
f 41/41/41 35/35/35 27/27/27
f 41/41/41 42/42/42 35/35/35
f 43/43/43 10/10/10 12/12/12
f 43/43/43 44/44/44 10/10/10
f 47/47/47 46/46/46 45/45/45
f 47/47/47 48/48/48 46/46/46
f 49/49/49 42/42/42 41/41/41
f 49/49/49 50/50/50 42/42/42
f 51/51/51 44/44/44 43/43/43
f 51/51/51 52/52/52 44/44/44
f 55/55/55 54/54/54 53/53/53
f 55/55/55 56/56/56 54/54/54
f 57/57/57 49/49/49 41/41/41
f 57/57/57 58/58/58 49/49/49
f 59/59/59 31/31/31 32/32/32
f 59/59/59 60/60/60 31/31/31
f 61/61/61 58/58/58 57/57/57
f 61/61/61 62/62/62 58/58/58
f 63/63/63 60/60/60 59/59/59
f 63/63/63 64/64/64 60/60/60
f 67/67/67 66/66/66 65/65/65
f 67/67/67 68/68/68 66/66/66
f 20/20/20 61/61/61 57/57/57
f 20/20/20 19/19/19 61/61/61
f 71/71/71 70/70/70 69/69/69
f 71/71/71 72/72/72 70/70/70
f 75/75/75 74/74/74 73/73/73
f 74/74/74 76/76/76 73/73/73
f 78/78/78 75/75/75 77/77/77
f 75/75/75 73/73/73 77/77/77
f 81/81/81 80/80/80 79/79/79
f 84/84/84 83/83/83 82/82/82
f 73/73/73 76/76/76 85/85/85
f 76/76/76 86/86/86 85/85/85
f 89/89/89 88/88/88 87/87/87
f 88/88/88 90/90/90 87/87/87
f 93/93/93 92/92/92 91/91/91
f 92/92/92 94/94/94 91/91/91
f 97/97/97 96/96/96 95/95/95
f 100/100/100 99/99/99 98/98/98
f 94/94/94 102/102/102 101/101/101
f 102/102/102 103/103/103 101/101/101
f 91/91/91 94/94/94 104/104/104
f 94/94/94 101/101/101 104/104/104
f 107/107/107 106/106/106 105/105/105
f 107/107/107 108/108/108 106/106/106
f 111/111/111 110/110/110 109/109/109
f 111/111/111 112/112/112 110/110/110
f 115/115/115 114/114/114 113/113/113
f 115/115/115 116/116/116 114/114/114
f 119/119/119 118/118/118 117/117/117
f 119/119/119 120/120/120 118/118/118
g pb_Mesh300188_2
