g pb_Mesh-944862
v 6.25 0 -0.25
v 5.5 0 -0.25
v 6.25 0.75 -0.25
v 5.5 0.25 -0.25
v 5.5 0 -0.25
v 5.5 0 -0.75
v 5.5 0.25 -0.25
v 5.5 0.25 -0.75
v 5.5 0 -0.75
v 6.25 0 -0.75
v 5.5 0.25 -0.75
v 6.25 0.5 -0.75
v 6.25 0 -0.75
v 6.25 0 -0.25
v 6.25 0.5 -0.75
v 6.25 0.75 -0.25
v 6.25 0.75 -0.25
v 5.5 0.25 -0.25
v 6.25 0.5 -0.75
v 5.5 0.25 -0.75
v 6.5 -0.25 -0.75
v 5.25 -0.5 -0.75
v 6.5 -0.25 -0.25
v 5.25 -0.5 -0.25
v 6.5 -0.25 -0.75
v 5.25 -0.5 -0.75
v 6.25 0 -0.25
v 6.25 0 -0.75
v 6.5 -0.25 -0.25
v 6.5 -0.25 -0.75
v 5.5 0 -0.75
v 5.5 0 -0.25
v 5.25 -0.5 -0.75
v 5.25 -0.5 -0.25
v 5.25 -0.5 -0.25
v 6.5 -0.25 -0.25
vt 6.25 0
vt 5.5 0
vt 6.25 0.75
vt 5.5 0.25
vt -0.25 0
vt -0.75 0
vt -0.25 0.25
vt -0.75 0.25
vt -5.5 0
vt -6.25 0
vt -5.5 0.25
vt -6.25 0.5
vt 0.75 0
vt 0.25 0
vt 0.75 0.5
vt 0.25 0.75
vt -5.61634 -1.322786
vt -4.714952 -1.322786
vt -5.477664 -1.86433
vt -4.714952 -1.78443
vt 6.324746 -0.75
vt 5.049991 -0.75
vt 6.324746 -0.25
vt 5.049991 -0.25
vt -6.5 -0.25
vt -5.25 -0.5
vt -4.419417 -0.25
vt -4.419417 -0.75
vt -4.772971 -0.25
vt -4.772971 -0.75
vt -0.75 2.459675
vt -0.25 2.459675
vt -0.75 1.900658
vt -0.25 1.900658
vt 5.25 -0.5
vt 6.5 -0.25
vn 0 0 1
vn 0 0 1
vn 0 0 1
vn 0 0 1
vn -1 0 0
vn -1 0 0
vn -1 0 0
vn -1 0 0
vn 0 0 -1
vn 0 0 -1
vn 0 0 -1
vn 0 0 -1
vn 1 0 0
vn 1 0 0
vn 1 0 0
vn 1 0 0
vn -0.5121475 0.7682213 -0.3841107
vn -0.4141877 0.8584523 -0.1920553
vn -0.4141877 0.8584523 -0.1920553
vn -0.3162278 0.9486833 0
vn 0.1961161 -0.9805807 0
vn 0.1961161 -0.9805807 0
vn 0.1961161 -0.9805807 0
vn 0.1961161 -0.9805807 0
vn 0 0 -1
vn 0 0 -1
vn 0.7071068 0.7071068 0
vn 0.7071068 0.7071068 0
vn 0.7071068 0.7071068 0
vn 0.7071068 0.7071068 0
vn -0.8944272 0.4472136 0
vn -0.8944272 0.4472136 0
vn -0.8944272 0.4472136 0
vn -0.8944272 0.4472136 0
vn 0 0 1
vn 0 0 1
g pb_Mesh-944862_0
g pb_Mesh-944862_1
f 3/3/3 2/2/2 1/1/1
f 3/3/3 4/4/4 2/2/2
f 7/7/7 6/6/6 5/5/5
f 7/7/7 8/8/8 6/6/6
f 11/11/11 10/10/10 9/9/9
f 11/11/11 12/12/12 10/10/10
f 15/15/15 14/14/14 13/13/13
f 15/15/15 16/16/16 14/14/14
f 19/19/19 18/18/18 17/17/17
f 19/19/19 20/20/20 18/18/18
f 23/23/23 22/22/22 21/21/21
f 23/23/23 24/24/24 22/22/22
f 25/25/25 9/9/9 10/10/10
f 25/25/25 26/26/26 9/9/9
f 29/29/29 28/28/28 27/27/27
f 29/29/29 30/30/30 28/28/28
f 33/33/33 32/32/32 31/31/31
f 33/33/33 34/34/34 32/32/32
f 35/35/35 1/1/1 2/2/2
f 35/35/35 36/36/36 1/1/1
