g pb_Mesh316202
v 0 0 0
v -0.8372803 0 0.9363251
v 0 1.256058 0
v -0.8372803 1.256058 0.9363251
v -0.8372803 0 0.9363251
v -1.77359 0 0.09906006
v -0.8372803 1.256058 0.9363251
v -1.77359 1.256058 0.09906006
v -1.77359 0 0.09906006
v -0.9363403 0 -0.8372498
v -1.77359 1.256058 0.09906006
v -0.9363403 1.256058 -0.8372498
v -0.9363403 0 -0.8372498
v 0 0 0
v -0.9363403 1.256058 -0.8372498
v 0 1.256058 0
v 0 1.256058 0
v -0.8372803 1.256058 0.9363251
v -0.9363403 1.256058 -0.8372498
v -1.77359 1.256058 0.09906006
v -0.9363403 0 -0.8372498
v -1.77359 0 0.09906006
v 0 0 0
v -0.8372803 0 0.9363251
v -1.185791 0.01265907 0.4957275
v -4.175964 0.01265907 1.566116
v -1.185791 3.188616 0.4957275
v -4.175964 3.188616 1.566116
v -4.175964 0.01265907 1.566116
v -5.246338 0.01265907 -1.424026
v -4.175964 3.188616 1.566116
v -5.246338 3.188616 -1.424026
v -5.246338 0.01265907 -1.424026
v -2.256195 0.01265907 -2.494415
v -5.246338 3.188616 -1.424026
v -2.256195 3.188616 -2.494415
v -2.256195 0.01265907 -2.494415
v -1.185791 0.01265907 0.4957275
v -2.256195 3.188616 -2.494415
v -1.185791 3.188616 0.4957275
v -1.185791 3.188616 0.4957275
v -4.175964 3.188616 1.566116
v -2.256195 3.188616 -2.494415
v -5.246338 3.188616 -1.424026
v -2.256195 0.01265907 -2.494415
v -5.246338 0.01265907 -1.424026
v -1.185791 0.01265907 0.4957275
v -4.175964 0.01265907 1.566116
vt -0.4120178 0.01432228
vt -3.587982 0.01432228
vt -0.4120178 3.190279
vt -3.587982 3.190279
vt -0.4120178 0.01432228
vt -3.587982 0.01432228
vt -0.4120178 3.190279
vt -3.587982 3.190279
vt 3.587982 0.01432228
vt 0.4120178 0.01432228
vt 3.587982 3.190279
vt 0.4120178 3.190279
vt 3.587982 0.01432228
vt 0.4120178 0.01432228
vt 3.587982 3.190279
vt 0.4120178 3.190279
vt 0.4120178 -0.4120178
vt 3.587982 -0.4120178
vt 0.4120178 -3.587982
vt 3.587982 -3.587982
vt -0.4120178 -3.587982
vt -3.587982 -3.587982
vt -0.4120178 -0.4120178
vt -3.587982 -0.4120178
vt -0.4120178 0.01432228
vt -3.587982 0.01432228
vt -0.4120178 3.190279
vt -3.587982 3.190279
vt -0.4120178 0.01432228
vt -3.587982 0.01432228
vt -0.4120178 3.190279
vt -3.587982 3.190279
vt 3.587982 0.01432228
vt 0.4120178 0.01432228
vt 3.587982 3.190279
vt 0.4120178 3.190279
vt 3.587982 0.01432228
vt 0.4120178 0.01432228
vt 3.587982 3.190279
vt 0.4120178 3.190279
vt 0.4120178 -0.4120178
vt 3.587982 -0.4120178
vt 0.4120178 -3.587982
vt 3.587982 -3.587982
vt -0.4120178 -3.587982
vt -3.587982 -3.587982
vt -0.4120178 -0.4120178
vt -3.587982 -0.4120178
vn 0.7454329 0 0.6665807
vn 0.7454329 0 0.6665807
vn 0.7454329 0 0.6665807
vn 0.7454329 0 0.6665807
vn -0.66658 0 0.7454336
vn -0.66658 0 0.7454336
vn -0.66658 0 0.7454336
vn -0.66658 0 0.7454336
vn -0.7454396 0 -0.6665733
vn -0.7454396 0 -0.6665733
vn -0.7454396 0 -0.6665733
vn -0.7454396 0 -0.6665733
vn 0.6665612 0 -0.7454503
vn 0.6665612 0 -0.7454503
vn 0.6665612 0 -0.7454503
vn 0.6665612 0 -0.7454503
vn 0 1 0
vn 0 1 0
vn 0 1 0
vn 0 1 0
vn 0 -1 0
vn 0 -1 0
vn 0 -1 0
vn 0 -1 0
vn 0.337026 0 0.9414954
vn 0.337026 0 0.9414954
vn 0.337026 0 0.9414954
vn 0.337026 0 0.9414954
vn -0.9414958 0 0.3370248
vn -0.9414958 0 0.3370248
vn -0.9414958 0 0.3370248
vn -0.9414958 0 0.3370248
vn -0.337029 0 -0.9414943
vn -0.337029 0 -0.9414943
vn -0.337029 0 -0.9414943
vn -0.337029 0 -0.9414943
vn 0.9414927 0 -0.3370333
vn 0.9414927 0 -0.3370333
vn 0.9414927 0 -0.3370333
vn 0.9414927 0 -0.3370333
vn 0 1 0
vn 0 1 0
vn 0 1 0
vn 0 1 0
vn 0 -1 0
vn 0 -1 0
vn 0 -1 0
vn 0 -1 0
g pb_Mesh316202_0
f 3/3/3 2/2/2 1/1/1
f 3/3/3 4/4/4 2/2/2
f 7/7/7 6/6/6 5/5/5
f 7/7/7 8/8/8 6/6/6
f 11/11/11 10/10/10 9/9/9
f 11/11/11 12/12/12 10/10/10
f 15/15/15 14/14/14 13/13/13
f 15/15/15 16/16/16 14/14/14
f 19/19/19 18/18/18 17/17/17
f 19/19/19 20/20/20 18/18/18
f 23/23/23 22/22/22 21/21/21
f 23/23/23 24/24/24 22/22/22
f 27/27/27 26/26/26 25/25/25
f 27/27/27 28/28/28 26/26/26
f 31/31/31 30/30/30 29/29/29
f 31/31/31 32/32/32 30/30/30
f 35/35/35 34/34/34 33/33/33
f 35/35/35 36/36/36 34/34/34
f 39/39/39 38/38/38 37/37/37
f 39/39/39 40/40/40 38/38/38
f 43/43/43 42/42/42 41/41/41
f 43/43/43 44/44/44 42/42/42
f 47/47/47 46/46/46 45/45/45
f 47/47/47 48/48/48 46/46/46
g pb_Mesh316202_1
