g pb_Mesh51430
v -32 0 0
v -32 4 0
v -16 0 27.71281
v -16 4 27.71281
v 14.34286 11.50142 60.74675
v 14.34286 12.41966 60.74675
v 15.31965 11.50142 56.97541
v 15.31965 12.41966 56.97541
v 16 0 27.71281
v 16 4 27.71281
v 32 0 -2.797529E-06
v 32 4 -2.797529E-06
v 32 0 -2.797529E-06
v 32 4 -2.797529E-06
v 16 0 -27.71281
v 16 4 -27.71281
v 16 0 -27.71281
v 16 4 -27.71281
v -16 0 -27.71281
v -16 4 -27.71281
v -16 0 -27.71281
v -16 4 -27.71281
v -32 0 0
v -32 4 0
v -32 8 0
v -16 8 27.71281
v 14.34287 13.33791 60.74675
v 15.31965 13.33791 56.97541
v 16 8 27.71281
v 32 8 -2.797529E-06
v 32 8 -2.797529E-06
v 16 8 -27.71281
v 16 8 -27.71281
v -16 8 -27.71281
v -16 8 -27.71281
v -32 8 0
v -32 12 0
v -16 12 27.71281
v 14.34287 14.25615 60.74675
v 15.31966 14.25615 56.97541
v 16 12 27.71281
v 32 12 -2.797529E-06
v 32 12 -2.797529E-06
v 16 12 -27.71281
v 16 12 -27.71281
v -16 12 -27.71281
v -16 12 -27.71281
v -32 12 0
v -32 16 0
v -16 16 27.71281
v 14.34287 14.25615 60.74675
v 14.34287 14.25615 60.74675
v 15.31966 14.25615 56.97541
v 14.34287 14.25615 60.74675
v 15.31966 14.25615 56.97541
v 15.31966 14.25615 56.97541
v 16 16 27.71281
v 32 16 -2.797529E-06
v 32 16 -2.797529E-06
v 16 16 -27.71281
v 16 16 -27.71281
v -16 16 -27.71281
v -16 16 -27.71281
v -32 16 0
v -16 0 27.71281
v 0 0 0
v -32 0 0
v 16 0 27.71281
v 32 0 -2.797529E-06
v 0 0 0
v 16 0 27.71281
v 16 0 -27.71281
v 32 0 -2.797529E-06
v -16 0 -27.71281
v -32 16 0
v 0 16 0
v -16 16 27.71281
v 16 16 27.71281
v 32 16 -2.797529E-06
v 16 16 -27.71281
v -16 16 -27.71281
v -16 12 27.71281
v -16 16 27.71281
v -17.49532 19.48689 42.35466
v -16 16 27.71281
v -17.49532 19.48689 42.35466
v -17.49532 19.48689 42.35466
v 16 12 27.71281
v 16 8 27.71281
v -0.2762798 19.48684 38.6807
v -0.2762944 13.91914 38.6807
v -16 16 27.71281
v 16 16 27.71281
v -17.49532 19.48689 42.35466
v -0.2762798 19.48684 38.6807
v 16 16 27.71281
v 16 12 27.71281
v -0.2762798 19.48684 38.6807
v 16 12 27.71281
v -0.2762798 19.48684 38.6807
v -0.2762798 19.48684 38.6807
v -16 8 27.71281
v -17.49533 13.91918 42.35465
v -17.49532 19.48689 42.35466
v 16 4 27.71281
v -0.276309 8.351435 38.68069
v -16 4 27.71281
v -16 8 27.71281
v -17.49535 8.351476 42.35465
v -17.49533 13.91918 42.35465
v 16 0 27.71281
v -0.2763236 2.78373 38.68069
v -16 0 27.71281
v -17.49536 2.783771 42.35464
v 16 0 27.71281
v -16 0 27.71281
v -0.2763236 2.78373 38.68069
v -17.49536 2.783771 42.35464
v -17.49536 2.783771 42.35464
v -17.49535 8.351476 42.35465
v -2.368882 2.783719 63.49608
v -2.368908 8.351423 63.49609
v -0.2763236 2.78373 38.68069
v -17.49536 2.783771 42.35464
v 1.541688 2.783709 46.32924
v -2.368882 2.783719 63.49608
v -17.49532 19.48689 42.35466
v -0.2762798 19.48684 38.6807
v -2.368839 19.48684 63.49609
v 1.541738 19.48685 46.32927
v -0.276309 8.351435 38.68069
v -0.2763236 2.78373 38.68069
v 1.541706 8.351413 46.32924
v 1.541688 2.783709 46.32924
v -17.49533 13.91918 42.35465
v -2.36885 13.91913 63.49609
v -0.2762944 13.91914 38.6807
v 1.541762 13.91914 46.32924
v -17.49532 19.48689 42.35466
v -2.368839 19.48684 63.49609
v -0.2762798 19.48684 38.6807
v 1.541738 19.48685 46.32927
v -17.49532 19.48689 42.35466
v -17.49532 19.48689 42.35466
v -2.368839 19.48684 63.49609
v -17.49532 19.48689 42.35466
v -2.368839 19.48684 63.49609
v -2.368839 19.48684 63.49609
v -0.2762798 19.48684 38.6807
v -0.2762798 19.48684 38.6807
v 1.541738 19.48685 46.32927
v -0.2762798 19.48684 38.6807
v 1.541738 19.48685 46.32927
v 1.541738 19.48685 46.32927
v 39.5906 -13.73184 69.68983
v 37.7454 -6.186814 67.48453
v 58.07899 -4.354849 65.8848
v 59.36131 0.9395278 66.32899
v 1.541688 2.783709 46.32924
v -2.368882 2.783719 63.49608
v 15.31965 11.50142 56.97541
v 14.34286 11.50142 60.74675
v -2.368839 19.48684 63.49609
v 1.541738 19.48685 46.32927
v 14.34287 14.25615 60.74675
v 15.31966 14.25615 56.97541
v 1.541706 8.351413 46.32924
v 1.541688 2.783709 46.32924
v 15.31965 12.41966 56.97541
v 15.31965 11.50142 56.97541
v -2.368908 8.351423 63.49609
v -2.36885 13.91913 63.49609
v 14.34286 12.41966 60.74675
v 14.34287 13.33791 60.74675
v 1.541762 13.91914 46.32924
v 1.541706 8.351413 46.32924
v 15.31965 13.33791 56.97541
v 15.31965 12.41966 56.97541
v -2.368839 19.48684 63.49609
v 14.34287 13.33791 60.74675
v 14.34287 14.25615 60.74675
v 1.541738 19.48685 46.32927
v 1.541762 13.91914 46.32924
v 15.31966 14.25615 56.97541
v 15.31965 13.33791 56.97541
v -2.368839 19.48684 63.49609
v -2.368839 19.48684 63.49609
v 14.34287 14.25615 60.74675
v -2.368839 19.48684 63.49609
v 14.34287 14.25615 60.74675
v 14.34287 14.25615 60.74675
v 1.541738 19.48685 46.32927
v 1.541738 19.48685 46.32927
v 15.31966 14.25615 56.97541
v 1.541738 19.48685 46.32927
v 15.31966 14.25615 56.97541
v 15.31966 14.25615 56.97541
v -2.368882 2.783719 63.49608
v -2.368908 8.351423 63.49609
v 39.5906 -13.73184 69.68983
v 37.7454 -6.186814 67.48453
v 14.34286 11.50142 60.74675
v -2.368882 2.783719 63.49608
v 58.07899 -4.354849 65.8848
v 39.5906 -13.73184 69.68983
v -2.368908 8.351423 63.49609
v 14.34286 12.41966 60.74675
v 37.7454 -6.186814 67.48453
v 59.36131 0.9395278 66.32899
v 14.34286 12.41966 60.74675
v 14.34286 11.50142 60.74675
v 59.36131 0.9395278 66.32899
v 58.07899 -4.354849 65.8848
vt -16 0
vt -16 4
vt 16 0
vt 16 4
vt -55.21013 11.50154
vt -55.21014 12.41978
vt -51.31435 11.50154
vt -51.31435 12.41978
vt -16 0
vt -16 4
vt 16 0
vt 16 4
vt -16 0
vt -16 4
vt 16 0
vt 16 4
vt -16 0
vt -16 4
vt 16 0
vt 16 4
vt -16 0
vt -16 4
vt 16 0
vt 16 4
vt -16 8
vt 16 8
vt -55.21014 13.33797
vt -51.31436 13.33797
vt -16 8
vt 16 8
vt -16 8
vt 16 8
vt -16 8
vt 16 8
vt -16 8
vt 16 8
vt -16 12
vt 16 12
vt -55.21014 14.25624
vt -51.31436 14.25624
vt -16 12
vt 16 12
vt -16 12
vt 16 12
vt -16 12
vt 16 12
vt -16 12
vt 16 12
vt -16 16
vt 16 16
vt 0 0
vt 0 0
vt 0 0
vt 0 0
vt 0 0
vt 0 0
vt -16 16
vt 16 16
vt -16 16
vt 16 16
vt -16 16
vt 16 16
vt -16 16
vt 16 16
vt -16 27.71281
vt 0 0
vt -32 0
vt 16 27.71281
vt 32 -2.797529E-06
vt 0 0
vt 16 27.71281
vt 16 -27.71281
vt 32 -2.797529E-06
vt -16 -27.71281
vt 32 0
vt 0 0
vt 16 27.71281
vt -16 27.71281
vt -32 -2.797529E-06
vt -16 -27.71281
vt 16 -27.71281
vt 29.19498 12
vt 29.19498 16
vt 43.91298 19.48689
vt 29.19498 16
vt 43.91298 19.48689
vt 43.91298 19.48689
vt -2.217913 12
vt -2.217913 8
vt -21.84473 19.48684
vt -21.84474 13.91914
vt 16 30.66556
vt -16 30.66556
vt 17.49532 45.71687
vt 0.2762795 42.14285
vt -2.217913 16
vt -2.217913 12
vt -21.84473 19.48684
vt -2.217913 12
vt -21.84473 19.48684
vt -21.84473 19.48684
vt 29.195 8
vt 43.91299 13.91918
vt 43.91299 19.48689
vt -2.217892 4
vt -21.84473 8.351435
vt 29.19501 4
vt 29.19501 8
vt 43.91301 8.351476
vt 43.91301 13.91918
vt -2.217876 0
vt -21.84472 2.78373
vt 29.19502 0
vt 43.91302 2.783771
vt 16 26.86114
vt -16 26.86114
vt -0.2763236 38.17677
vt -17.49536 41.73783
vt 24.26546 2.783711
vt 24.26547 8.351416
vt 50.26105 2.783659
vt 50.26104 8.351363
vt -0.2763315 38.68068
vt -17.49537 42.35464
vt 1.54168 46.32924
vt -2.36889 63.49607
vt 17.49537 42.35465
vt 0.2763291 38.68069
vt 2.368889 63.49608
vt -1.541689 46.32926
vt -37.56832 8.351413
vt -37.56831 2.783708
vt -45.42997 8.351391
vt -45.42996 2.783687
vt 24.26553 13.91911
vt 50.26112 13.91906
vt -37.56828 13.91912
vt -45.42992 13.91912
vt 24.26549 19.48681
vt 50.26107 19.48677
vt -37.56834 19.48682
vt -45.43 19.48683
vt 0 0
vt 0 0
vt 0 0
vt 0 0
vt 0 0
vt 0 0
vt 0 0
vt 0 0
vt 0 0
vt 0 0
vt 0 0
vt 0 0
vt 35.97451 -33.99466
vt 34.24451 -26.10779
vt 54.63332 -24.19283
vt 55.89124 -19.27621
vt 2.676586 46.2464
vt -0.7671789 63.51294
vt 18.94036 56.9544
vt 18.08017 60.75362
vt 8.278888 62.08835
vt 4.559998 44.87898
vt -9.231216 59.3322
vt -10.16013 55.54896
vt -29.54715 8.35134
vt -29.54714 2.783636
vt -46.95901 12.41959
vt -46.959 11.50135
vt -12.64503 8.351529
vt -12.64497 13.91923
vt 4.29139 12.41977
vt 4.291392 13.33801
vt -29.54725 13.91888
vt -29.54721 8.351155
vt -46.95907 13.33765
vt -46.95906 12.41941
vt -12.64497 19.48686
vt 4.291384 13.33793
vt 4.291387 14.25617
vt -29.54725 19.4871
vt -29.54725 13.91939
vt -46.95908 14.2564
vt -46.95907 13.33816
vt 0 0
vt 0 0
vt 0 0
vt 0 0
vt 0 0
vt 0 0
vt 0 0
vt 0 0
vt 0 0
vt 0 0
vt 0 0
vt 0 0
vt 6.928915 2.783849
vt 6.92889 8.351553
vt 49.34307 -13.73171
vt 47.19561 -6.186689
vt -14.45543 -7.492022
vt 2.251189 -16.64235
vt -58.20101 -24.13517
vt -39.7197 -34.23539
vt -6.070657 -17.56694
vt 10.77309 -13.13061
vt 33.7425 -33.42059
vt 55.38901 -26.92861
vt -21.7092 12.41988
vt -21.7092 11.50164
vt -67.07243 0.9397466
vt -65.74519 -4.354631
vn -0.8660254 0 -2.980232E-08
vn -0.8660254 0 -2.980232E-08
vn -0.6147242 -0.324858 0.2072811
vn -0.9304253 3.555519E-07 0.1991998
vn 0.3943996 -0.282986 -0.3922954
vn 0.4437661 0.06750064 0.2874231
vn 0.6837459 -0.2916119 -0.1434839
vn 0.7897447 -1.995501E-06 -0.2702834
vn 0.4749486 -0.3230897 0.5250987
vn 0.7124231 -2.64086E-07 0.6646442
vn 0.8660254 0 -8.940697E-08
vn 0.8660254 0 -8.940697E-08
vn 0.8660254 0 -8.940697E-08
vn 0.8660254 0 -8.940697E-08
vn 0.4330127 0 -0.7500001
vn 0.4330127 0 -0.7500001
vn 0.4330127 0 -0.7500001
vn 0.4330127 0 -0.7500001
vn -0.4330127 0 -0.75
vn -0.4330127 0 -0.75
vn -0.4330127 0 -0.75
vn -0.4330127 0 -0.75
vn -0.8660254 0 -2.980232E-08
vn -0.8660254 0 -2.980232E-08
vn -0.8660254 0 -2.980232E-08
vn -0.9304254 4.06345E-07 0.1992002
vn 0.5651953 -1.46248E-06 0.6187329
vn 0.7897455 -2.480873E-06 -0.2702829
vn 0.7124233 -3.047147E-07 0.6646441
vn 0.8660254 0 -8.940697E-08
vn 0.8660254 0 -8.940697E-08
vn 0.4330127 0 -0.7500001
vn 0.4330127 0 -0.7500001
vn -0.4330127 0 -0.75
vn -0.4330127 0 -0.75
vn -0.8660254 0 -2.980232E-08
vn -0.8660254 0 -2.980232E-08
vn -0.9304255 4.063449E-07 0.1992007
vn 0.2825976 -9.995354E-07 0.3093664
vn 0.3948727 5.605278E-07 -0.1351414
vn 0.7124236 0 0.6646439
vn 0.8660254 0 -8.940697E-08
vn 0.8660254 0 -8.940697E-08
vn 0.4330127 0 -0.7500001
vn 0.4330127 0 -0.7500001
vn -0.4330127 0 -0.75
vn -0.4330127 0 -0.75
vn -0.8660254 0 -2.980232E-08
vn -0.8660254 0 -2.980232E-08
vn -0.6202837 0.3242651 0.0555785
vn 0.2825976 -9.995354E-07 0.3093664
vn 0.1023494 0.3163305 0.02389047
vn 0.3948727 5.605278E-07 -0.1351414
vn 0.1023494 0.3163305 0.02389047
vn 0.1002295 0.3168458 0.02595971
vn 0.3948727 5.605278E-07 -0.1351414
vn 0.4680828 0.3203154 0.3511068
vn 0.8660254 0 -8.940697E-08
vn 0.8660254 0 -8.940697E-08
vn 0.4330127 0 -0.7500001
vn 0.4330127 0 -0.7500001
vn -0.4330127 0 -0.75
vn -0.4330127 0 -0.75
vn -0.8660254 0 -2.980232E-08
vn 0 -1 0
vn 0 -1 0
vn 0 -1 0
vn 0 -1 0
vn 0 -0.9999999 0
vn 0 -0.9999999 0
vn 0 -0.9999999 0
vn 0 -1 0
vn 0 -1 0
vn 0 -1 0
vn 0 1 0
vn 0 1 0
vn 0 1 0
vn 0 1 0
vn 0 1 0
vn 0 1 0
vn 0 1 0
vn -0.9304255 4.063449E-07 0.1992007
vn -0.6202837 0.3242651 0.0555785
vn -0.7007303 1.111539E-06 0.09467228
vn -0.6202837 0.3242651 0.0555785
vn -0.005149061 0.4902365 -0.06899173
vn -0.7007303 1.111539E-06 0.09467228
vn 0.7124236 0 0.6646439
vn 0.7124233 -3.047147E-07 0.6646441
vn 0.3829288 -9.030383E-07 0.1495093
vn 0.7658569 -1.004337E-06 0.2990167
vn -0.6202837 0.3242651 0.0555785
vn 0.4680828 0.3203154 0.3511068
vn -0.005149061 0.4902365 -0.06899173
vn 0.1172974 0.4757596 0.102296
vn 0.4680828 0.3203154 0.3511068
vn 0.7124236 0 0.6646439
vn 0.1172974 0.4757596 0.102296
vn 0.7124236 0 0.6646439
vn 0.3829288 -9.030383E-07 0.1495093
vn 0.1172974 0.4757596 0.102296
vn -0.9304254 4.06345E-07 0.1992002
vn -0.9040478 2.845182E-06 0.2401432
vn -0.7007303 1.111539E-06 0.09467228
vn 0.7124231 -2.64086E-07 0.6646442
vn 0.765857 -2.914246E-06 0.2990181
vn -0.9304253 3.555519E-07 0.1991998
vn -0.9304254 4.06345E-07 0.1992002
vn -0.9040481 1.088983E-06 0.2401426
vn -0.9040478 2.845182E-06 0.2401432
vn 0.4749486 -0.3230897 0.5250987
vn 0.3870974 -0.4936447 0.20537
vn -0.6147242 -0.324858 0.2072811
vn -0.4418566 -0.4952039 0.1677291
vn 0.4749486 -0.3230897 0.5250987
vn -0.6147242 -0.324858 0.2072811
vn 0.3870974 -0.4936447 0.20537
vn -0.4418566 -0.4952039 0.1677291
vn -0.4418566 -0.4952039 0.1677291
vn -0.9040481 1.088983E-06 0.2401426
vn -0.09801063 -0.4422216 0.147904
vn -0.2947192 0.1111459 0.8103159
vn 0.3870974 -0.4936447 0.20537
vn -0.4418566 -0.4952039 0.1677291
vn 0.5138475 -0.4688879 -0.2288099
vn -0.09801063 -0.4422216 0.147904
vn -0.005149061 0.4902365 -0.06899173
vn 0.1172974 0.4757596 0.102296
vn 0.07711999 0.4871581 0.01756797
vn 0.07676131 0.4872479 0.01791785
vn 0.765857 -2.914246E-06 0.2990181
vn 0.3870974 -0.4936447 0.20537
vn 0.7921636 -5.316015E-06 -0.5112736
vn 0.5138475 -0.4688879 -0.2288099
vn -0.9040478 2.845182E-06 0.2401432
vn -0.3254683 2.060706E-06 0.7843112
vn 0.7658569 -1.004337E-06 0.2990167
vn 0.7921635 -4.381727E-07 -0.5112754
vn -0.7007303 1.111539E-06 0.09467228
vn -0.1627342 2.844926E-07 0.3921556
vn 0.3829288 -9.030383E-07 0.1495093
vn 0.3960819 2.120573E-06 -0.2556373
vn -0.7007303 1.111539E-06 0.09467228
vn -0.005149061 0.4902365 -0.06899173
vn -0.1627342 2.844926E-07 0.3921556
vn -0.005149061 0.4902365 -0.06899173
vn 0.07711999 0.4871581 0.01756797
vn -0.1627342 2.844926E-07 0.3921556
vn 0.1172974 0.4757596 0.102296
vn 0.3829288 -9.030383E-07 0.1495093
vn 0.07676131 0.4872479 0.01791785
vn 0.3829288 -9.030383E-07 0.1495093
vn 0.3960819 2.120573E-06 -0.2556373
vn 0.07676131 0.4872479 0.01791785
vn -0.0067751 0.02763123 0.3367058
vn 0.02314951 0.252667 0.9629688
vn 0.06577561 -0.04914074 -0.3143874
vn 0.05858 0.07640573 0.3188269
vn 0.5138475 -0.4688879 -0.2288099
vn -0.09801063 -0.4422216 0.147904
vn 0.6837459 -0.2916119 -0.1434839
vn 0.3943996 -0.282986 -0.3922954
vn 0.07711999 0.4871581 0.01756797
vn 0.07676131 0.4872479 0.01791785
vn 0.1023494 0.3163305 0.02389047
vn 0.1002295 0.3168458 0.02595971
vn 0.7921636 -5.316015E-06 -0.5112736
vn 0.5138475 -0.4688879 -0.2288099
vn 0.7897447 -1.995501E-06 -0.2702834
vn 0.6837459 -0.2916119 -0.1434839
vn -0.2947192 0.1111459 0.8103159
vn -0.3254683 2.060706E-06 0.7843112
vn 0.4437661 0.06750064 0.2874231
vn 0.5651953 -1.46248E-06 0.6187329
vn 0.7921635 -4.381727E-07 -0.5112754
vn 0.7921636 -5.316015E-06 -0.5112736
vn 0.7897455 -2.480873E-06 -0.2702829
vn 0.7897447 -1.995501E-06 -0.2702834
vn -0.1627342 2.844926E-07 0.3921556
vn 0.5651953 -1.46248E-06 0.6187329
vn 0.2825976 -9.995354E-07 0.3093664
vn 0.3960819 2.120573E-06 -0.2556373
vn 0.7921635 -4.381727E-07 -0.5112754
vn 0.3948727 5.605278E-07 -0.1351414
vn 0.7897455 -2.480873E-06 -0.2702829
vn -0.1627342 2.844926E-07 0.3921556
vn 0.07711999 0.4871581 0.01756797
vn 0.2825976 -9.995354E-07 0.3093664
vn 0.07711999 0.4871581 0.01756797
vn 0.1023494 0.3163305 0.02389047
vn 0.2825976 -9.995354E-07 0.3093664
vn 0.07676131 0.4872479 0.01791785
vn 0.3960819 2.120573E-06 -0.2556373
vn 0.1002295 0.3168458 0.02595971
vn 0.3960819 2.120573E-06 -0.2556373
vn 0.3948727 5.605278E-07 -0.1351414
vn 0.1002295 0.3168458 0.02595971
vn -0.09801063 -0.4422216 0.147904
vn -0.2947192 0.1111459 0.8103159
vn -0.0067751 0.02763123 0.3367058
vn 0.02314951 0.252667 0.9629688
vn 0.3943996 -0.282986 -0.3922954
vn -0.09801063 -0.4422216 0.147904
vn 0.06577561 -0.04914074 -0.3143874
vn -0.0067751 0.02763123 0.3367058
vn -0.2947192 0.1111459 0.8103159
vn 0.4437661 0.06750064 0.2874231
vn 0.02314951 0.252667 0.9629688
vn 0.05858 0.07640573 0.3188269
vn 0.4437661 0.06750064 0.2874231
vn 0.3943996 -0.282986 -0.3922954
vn 0.05858 0.07640573 0.3188269
vn 0.06577561 -0.04914074 -0.3143874
g pb_Mesh51430_0
f 3/3/3 2/2/2 1/1/1
f 3/3/3 4/4/4 2/2/2
f 7/7/7 6/6/6 5/5/5
f 7/7/7 8/8/8 6/6/6
f 11/11/11 10/10/10 9/9/9
f 11/11/11 12/12/12 10/10/10
f 15/15/15 14/14/14 13/13/13
f 15/15/15 16/16/16 14/14/14
f 19/19/19 18/18/18 17/17/17
f 19/19/19 20/20/20 18/18/18
f 23/23/23 22/22/22 21/21/21
f 23/23/23 24/24/24 22/22/22
f 4/4/4 25/25/25 2/2/2
f 4/4/4 26/26/26 25/25/25
f 8/8/8 27/27/27 6/6/6
f 8/8/8 28/28/28 27/27/27
f 12/12/12 29/29/29 10/10/10
f 12/12/12 30/30/30 29/29/29
f 16/16/16 31/31/31 14/14/14
f 16/16/16 32/32/32 31/31/31
f 20/20/20 33/33/33 18/18/18
f 20/20/20 34/34/34 33/33/33
f 24/24/24 35/35/35 22/22/22
f 24/24/24 36/36/36 35/35/35
f 26/26/26 37/37/37 25/25/25
f 26/26/26 38/38/38 37/37/37
f 28/28/28 39/39/39 27/27/27
f 28/28/28 40/40/40 39/39/39
f 30/30/30 41/41/41 29/29/29
f 30/30/30 42/42/42 41/41/41
f 32/32/32 43/43/43 31/31/31
f 32/32/32 44/44/44 43/43/43
f 34/34/34 45/45/45 33/33/33
f 34/34/34 46/46/46 45/45/45
f 36/36/36 47/47/47 35/35/35
f 36/36/36 48/48/48 47/47/47
f 38/38/38 49/49/49 37/37/37
f 38/38/38 50/50/50 49/49/49
f 53/53/53 52/52/52 51/51/51
f 56/56/56 55/55/55 54/54/54
f 42/42/42 57/57/57 41/41/41
f 42/42/42 58/58/58 57/57/57
f 44/44/44 59/59/59 43/43/43
f 44/44/44 60/60/60 59/59/59
f 46/46/46 61/61/61 45/45/45
f 46/46/46 62/62/62 61/61/61
f 48/48/48 63/63/63 47/47/47
f 48/48/48 64/64/64 63/63/63
f 67/67/67 66/66/66 65/65/65
f 65/65/65 66/66/66 68/68/68
f 71/71/71 70/70/70 69/69/69
f 73/73/73 66/66/66 72/72/72
f 72/72/72 66/66/66 74/74/74
f 74/74/74 66/66/66 67/67/67
f 77/77/77 76/76/76 75/75/75
f 78/78/78 76/76/76 77/77/77
f 79/79/79 76/76/76 78/78/78
f 80/80/80 76/76/76 79/79/79
f 81/81/81 76/76/76 80/80/80
f 75/75/75 76/76/76 81/81/81
f 84/84/84 83/83/83 82/82/82
f 87/87/87 86/86/86 85/85/85
f 90/90/90 89/89/89 88/88/88
f 90/90/90 91/91/91 89/89/89
f 94/94/94 93/93/93 92/92/92
f 94/94/94 95/95/95 93/93/93
f 98/98/98 97/97/97 96/96/96
f 101/101/101 100/100/100 99/99/99
f 103/103/103 82/82/82 102/102/102
f 103/103/103 104/104/104 82/82/82
f 91/91/91 105/105/105 89/89/89
f 91/91/91 106/106/106 105/105/105
f 109/109/109 108/108/108 107/107/107
f 109/109/109 110/110/110 108/108/108
f 106/106/106 111/111/111 105/105/105
f 106/106/106 112/112/112 111/111/111
f 114/114/114 107/107/107 113/113/113
f 114/114/114 109/109/109 107/107/107
f 117/117/117 116/116/116 115/115/115
f 117/117/117 118/118/118 116/116/116
f 121/121/121 120/120/120 119/119/119
f 121/121/121 122/122/122 120/120/120
f 125/125/125 124/124/124 123/123/123
f 125/125/125 126/126/126 124/124/124
f 129/129/129 128/128/128 127/127/127
f 129/129/129 130/130/130 128/128/128
f 133/133/133 132/132/132 131/131/131
f 133/133/133 134/134/134 132/132/132
f 122/122/122 135/135/135 120/120/120
f 122/122/122 136/136/136 135/135/135
f 138/138/138 131/131/131 137/137/137
f 138/138/138 133/133/133 131/131/131
f 136/136/136 139/139/139 135/135/135
f 136/136/136 140/140/140 139/139/139
f 142/142/142 137/137/137 141/141/141
f 142/142/142 138/138/138 137/137/137
f 145/145/145 144/144/144 143/143/143
f 148/148/148 147/147/147 146/146/146
f 151/151/151 150/150/150 149/149/149
f 154/154/154 153/153/153 152/152/152
f 157/157/157 156/156/156 155/155/155
f 157/157/157 158/158/158 156/156/156
f 161/161/161 160/160/160 159/159/159
f 161/161/161 162/162/162 160/160/160
f 165/165/165 164/164/164 163/163/163
f 165/165/165 166/166/166 164/164/164
f 169/169/169 168/168/168 167/167/167
f 169/169/169 170/170/170 168/168/168
f 173/173/173 172/172/172 171/171/171
f 173/173/173 174/174/174 172/172/172
f 177/177/177 176/176/176 175/175/175
f 177/177/177 178/178/178 176/176/176
f 180/180/180 179/179/179 172/172/172
f 180/180/180 181/181/181 179/179/179
f 184/184/184 183/183/183 182/182/182
f 184/184/184 185/185/185 183/183/183
f 188/188/188 187/187/187 186/186/186
f 191/191/191 190/190/190 189/189/189
f 194/194/194 193/193/193 192/192/192
f 197/197/197 196/196/196 195/195/195
f 200/200/200 199/199/199 198/198/198
f 200/200/200 201/201/201 199/199/199
f 204/204/204 203/203/203 202/202/202
f 204/204/204 205/205/205 203/203/203
f 208/208/208 207/207/207 206/206/206
f 208/208/208 209/209/209 207/207/207
f 212/212/212 211/211/211 210/210/210
f 212/212/212 213/213/213 211/211/211
