g pb_Mesh26264
v -20 0 12
v -16 0 16
v -16 -6 16
v -20 -6 12
v -20 0 12
v -16 0 12
v -16 0 16
v -20 -8 0
v -16 -8 -4
v -16 -6 -4
v -20 -6 0
v -20 -8 12
v -20 -8 0
v -20 -6 0
v -20 -6 12
v -16 -8 16
v -20 -8 12
v -20 -6 0
v -16 -6 -4
v -16 -6 0
v -3 -28 -4
v -13 -28 -4
v -3 -20 -4
v -13 -20 -4
v -13 -28 -4
v -13 -28 -14
v -13 -20 -4
v -13 -20 -14
v -13 -28 -14
v -3 -28 -14
v -13 -20 -14
v -3 -20 -14
v -3 -28 -14
v -3 -28 -4
v -3 -20 -14
v -3 -20 -4
v -3 -20 -4
v -13 -20 -4
v -3 -20 -14
v -13 -20 -14
v 4 -6 12
v 0 -6 16
v 4 0 12
v 0 0 16
v 0 0 16
v 0 0 12
v 4 0 12
v 4 -6 0
v 0 -6 -4
v 4 -8 0
v 0 -8 -4
v 4 -6 12
v 4 -6 0
v 4 -8 12
v 4 -8 0
v 0 -8 16
v 4 -8 12
v 0 -6 0
v 0 -6 -4
v 4 -6 0
v 4 -28 -4
v -3 -28 -4
v 4 -20 -4
v -3 -20 -4
v -3 -28 -4
v -3 -28 -6
v -3 -20 -4
v -3 -20 -6
v -3 -28 -6
v 4 -28 -6
v -3 -20 -6
v 4 -20 -6
v 6 -28 -6
v 6 -28 -4
v 6 -20 -6
v 6 -20 -4
v 4 -20 -4
v -3 -20 -4
v 4 -20 -6
v -3 -20 -6
v 6 -20 -6
v 6 -28 -6
v 4 -28 18
v 4 -20 18
v 6 -28 18
v 6 -20 18
v 6 -20 -4
v 6 -20 -6
v -8 -28 16
v -8 -20 16
v -8 -28 18
v -8 -20 18
v 4 -20 16
v 6 -20 16
v 4 -20 18
v 6 -20 18
v 6 -20 16
v 6 -28 16
v 6 -20 18
v 6 -28 18
v 4 -28 0
v 4 -28 -4
v 4 -20 -4
v 4 -20 0
v 6 -20 0
v 4 -20 0
v 6 -20 -4
v 6 -28 0
v 6 -20 0
v 6 -28 -4
v 4 -20 0
v 0 -20 0
v 0 -20 -4
v 4 -20 -4
v 4 -20 0
v 0 -20 -4
v 4 -28 16
v 4 -28 12
v 4 -20 12
v 4 -20 16
v 0 -20 16
v 4 -28 16
v 4 -20 16
v 0 -28 16
v -8 -20 16
v -8 -28 16
v 0 -20 16
v 0 -20 18
v -8 -20 16
v -8 -20 18
v 0 -28 18
v 0 -20 18
v -8 -28 18
v -8 -20 18
v 0 -20 16
v 0 -20 12
v 4 -20 12
v 4 -20 16
v 0 -20 16
v 4 -20 12
v 4 -20 12
v 0 -20 16
v 0 -8 16
v 4 -8 12
v 0 -8 -4
v 4 -20 0
v 4 -8 0
v 0 -20 -4
v 0 -20 16
v -16 -20 16
v -16 -8 16
v 0 -8 16
v -16 -20 16
v -20 -20 12
v -20 -8 12
v -16 -8 16
v -16 -8 -4
v 0 -20 -4
v 0 -8 -4
v -16 -20 -4
v -20 -8 0
v -16 -20 -4
v -16 -8 -4
v -20 -20 0
v -20 -20 12
v -20 -20 0
v -20 -8 0
v -20 -8 12
v 4 -8 0
v 4 -20 4
v 4 -8 4
v 4 -20 0
v 4 -20 12
v 4 -8 12
v 0 -8 -4
v 4 -8 0
v 4 -8 4
v 0 -8 0
v -20 -8 0
v -16 -8 -4
v -16 -8 0
v -16 -8 16
v -20 -8 12
v 0 -8 8
v 4 -8 12
v 0 -8 16
v -8 -8 0
v -16 0 8
v -8 0 8
v -8 0 16
v -16 0 16
v -16 -4 0
v -8 -8 0
v -8 -4 0
v -16 -8 0
v 0 -4 8
v 0 -8 16
v 0 -4 16
v 0 -8 8
v -16 0 16
v -16 -8 16
v -16 0 8
v -16 -8 0
v -16 -4 0
v -16 0 0
v 0 0 16
v 0 -4 16
v -8 0 16
v -16 0 16
v -16 0 0
v -8 0 0
v -8 0 4
v -4 0 4
v 0 0 4
v 0 0 8
v -4 0 8
v 0 0 16
v -8 0 0
v -4 -2 0
v -4 0 0
v -8 -2 0
v -4 -4 0
v -16 0 0
v 0 0 16
v 0 0 8
v 0 -2 8
v 0 -2 4
v 0 -4 4
v 0 0 4
v -4 0 0
v -4 0 2
v 0 -4 2
v 0 -4 0
v 0 -8 0
v 0 0 2
v 0 -2 2
v 0 -2 0
v 0 -8 0
v -2 -4 0
v 0 -4 0
v -2 -2 0
v 0 -2 0
v -2 0 0
v -2 0 0
v -2 0 2
v 0 0 2
v 4 -20 0
v 6 -20 0
v 6 -20 11.75
v 4 -20 12
v 5 -20 12
v 6 -20 11.75
v 6 -20.875 12
v 5 -20 12
v 4 -20 12
v 6 -20 12.375
v 4 -20 16
v 5 -20 12
v 6 -20.875 12
v 6 -20 12.375
v 6 -20 16
v 6 -20 12.375
v 6 -20.875 12
v 6 -28 16
v 6 -28 12
v 6 -20 11.75
v 6 -28 12
v 6 -20.875 12
vt -2.828427 4
vt 2.828427 4
vt 2.828427 -2
vt -2.828427 -2
vt 0 -4
vt -4 -4
vt -4 0
vt -11.31371 -4
vt -16.97056 -4
vt -16.97056 -2
vt -11.31371 -2
vt -4 -4
vt -16 -4
vt -16 -2
vt -4 -2
vt 2.828427 -4
vt -2.828427 -4
vt 0 -16
vt -4 -20
vt -4 -16
vt 1 0
vt -9 0
vt 1 8
vt -9 8
vt 2 0
vt -8 0
vt 2 8
vt -8 8
vt 9 0
vt -1 0
vt 9 8
vt -1 8
vt 8 0
vt -2 0
vt 8 8
vt -2 8
vt -1 2
vt 9 2
vt -1 -8
vt 9 -8
vt 2.828427 -2
vt -2.828427 -2
vt 2.828427 4
vt -2.828427 4
vt 4 0
vt 4 -4
vt 0 -4
vt 11.31371 -2
vt 16.97056 -2
vt 11.31371 -4
vt 16.97056 -4
vt 4 -2
vt 16 -2
vt 4 -4
vt 16 -4
vt -2.828427 -4
vt 2.828427 -4
vt 4 -16
vt 4 -20
vt 0 -16
vt 3 -1
vt -4 -1
vt 3 7
vt -4 7
vt 0 -1
vt -2 -1
vt 0 7
vt -2 7
vt 4 -1
vt -3 -1
vt 4 7
vt -3 7
vt 2 -1
vt 0 -1
vt 2 7
vt 0 7
vt -3 0
vt 4 0
vt -3 -2
vt 4 -2
vt -5 7
vt -5 -1
vt 3 -1
vt 3 7
vt 5 -1
vt 5 7
vt -5 0
vt -5 -2
vt 20 -1
vt 20 7
vt 22 -1
vt 22 7
vt -3 20
vt -5 20
vt -3 22
vt -5 22
vt -20 7
vt -20 -1
vt -22 7
vt -22 -1
vt 4 -1
vt 0 -1
vt 0 7
vt 4 7
vt -5 4
vt -3 4
vt 0 7
vt 4 -1
vt 4 7
vt 0 -1
vt -3 4
vt 1 4
vt 1 0
vt -3 0
vt -3 4
vt 1 0
vt 20 -1
vt 16 -1
vt 16 7
vt 20 7
vt -1 7
vt 3 -1
vt 3 7
vt -1 -1
vt -9 7
vt -9 -1
vt 1 20
vt 1 22
vt 9 20
vt 9 22
vt -1 -1
vt -1 7
vt -9 -1
vt -9 7
vt 1 20
vt 1 16
vt -3 16
vt -3 20
vt 1 20
vt -3 16
vt 1.051847E-08 -8
vt -4 -8
vt -4 4
vt 1.051847E-08 4
vt -4 4
vt 0 -8
vt 0 4
vt -4 -8
vt -4 -8
vt -20 -8
vt -20 4
vt -4 4
vt -20 -8
vt -24 -8
vt -24 4
vt -20 4
vt -20 4
vt -4 -8
vt -4 4
vt -20 -8
vt -24 4
vt -20 -8
vt -20 4
vt -24 -8
vt -4 -8
vt -16 -8
vt -16 4
vt -4 4
vt -16 4
vt -12 -8
vt -12 4
vt -16 -8
vt -4 -8
vt -4 4
vt 4 -20
vt 0 -16
vt 0 -12
vt 4 -16
vt 24 -16
vt 20 -20
vt 20 -16
vt 20 0
vt 24 -4
vt 4 -8
vt 0 -4
vt 4 0
vt 12 -16
vt 20 -8
vt 12 -8
vt 12 0
vt 20 0
vt 20 8
vt 12 4
vt 12 8
vt 20 4
vt 8 8
vt 0 4
vt 0 8
vt 8 4
vt 0 12
vt 0 4
vt -8 12
vt -16 4
vt -16 8
vt -16 12
vt -4 12
vt -4 8
vt -12 12
vt -20 12
vt 20 -16
vt 12 -16
vt 12 -12
vt 8 -12
vt 4 -12
vt 4 -8
vt 8 -8
vt 4 0
vt 12 12
vt 8 10
vt 8 12
vt 12 10
vt 8 8
vt 20 12
vt 0 12
vt 8 12
vt 8 10
vt 12 10
vt 12 8
vt 12 12
vt 8 -16
vt 8 -14
vt 14 8
vt 16 8
vt 16 4
vt 14 12
vt 14 10
vt 16 10
vt 4 4
vt 6 8
vt 4 8
vt 6 10
vt 4 10
vt 6 12
vt 6 -16
vt 6 -14
vt 4 -14
vt -3 4
vt -5 4
vt -5 10
vt -3 16
vt -4 16
vt -5 10
vt 16 3
vt -4 16
vt -3 16
vt -5 18
vt -3 20
vt -4 16
vt 16 3
vt -5 18
vt 20 7
vt 18 7
vt 16 3
vt 20 -1
vt 16 -1
vt 10 7
vt 16 -1
vt 16 3
vn -0.7071068 0 0.7071068
vn -0.7071068 0 0.7071068
vn -0.7071068 0 0.7071068
vn -0.7071068 0 0.7071068
vn 0 1 0
vn 0 1 0
vn 0 1 0
vn -0.7071068 0 -0.7071068
vn -0.7071068 0 -0.7071068
vn -0.7071068 0 -0.7071068
vn -0.7071068 0 -0.7071068
vn -1 0 0
vn -1 0 0
vn -1 0 0
vn -1 0 0
vn -0.7071068 0 0.7071068
vn -0.7071068 0 0.7071068
vn 0 1 0
vn 0 1 0
vn 0 1 0
vn 0 0 1
vn 0 0 1
vn 0 0 1
vn 0 0 1
vn -1 0 0
vn -1 0 0
vn -1 0 0
vn -1 0 0
vn 0 0 -1
vn 0 0 -1
vn 0 0 -1
vn 0 0 -1
vn 1 0 0
vn 1 0 0
vn 1 0 0
vn 1 0 0
vn 0 1 0
vn 0 1 0
vn 0 1 0
vn 0 1 0
vn 0.7071068 0 0.7071068
vn 0.7071068 0 0.7071068
vn 0.7071068 0 0.7071068
vn 0.7071068 0 0.7071068
vn 0 1 0
vn 0 1 0
vn 0 1 0
vn 0.7071068 0 -0.7071068
vn 0.7071068 0 -0.7071068
vn 0.7071068 0 -0.7071068
vn 0.7071068 0 -0.7071068
vn 1 0 0
vn 1 0 0
vn 1 0 0
vn 1 0 0
vn 0.7071068 0 0.7071068
vn 0.7071068 0 0.7071068
vn 0 1 0
vn 0 1 0
vn 0 1 0
vn 0 0 1
vn 0 0 1
vn 0 0 1
vn 0 0 1
vn -1 0 0
vn -1 0 0
vn -1 0 0
vn -1 0 0
vn 0 0 -1
vn 0 0 -1
vn 0 0 -1
vn 0 0 -1
vn 1 0 0
vn 1 0 0
vn 1 0 0
vn 1 0 0
vn 0 1 0
vn 0 1 0
vn 0 1 0
vn 0 1 0
vn 0 0 -1
vn 0 0 -1
vn 0 0 1
vn 0 0 1
vn 0 0 1
vn 0 0 1
vn 0 1 0
vn 0 1 0
vn -1 0 0
vn -1 0 0
vn -1 0 0
vn -1 0 0
vn 0 1 0
vn 0 1 0
vn 0 1 0
vn 0 1 0
vn 1 0 0
vn 1 0 0
vn 1 0 0
vn 1 0 0
vn -1 0 0
vn -1 0 0
vn -1 0 0
vn -1 0 0
vn 0 1 0
vn 0 1 0
vn 1 0 0
vn 1 0 0
vn 1 0 0
vn 1 0 0
vn 0 1 0
vn 0 1 0
vn 0 1 0
vn 0 1 0
vn 0 1 0
vn 0 1 0
vn -1 0 0
vn -1 0 0
vn -1 0 0
vn -1 0 0
vn 0 0 -1
vn 0 0 -1
vn 0 0 -1
vn 0 0 -1
vn 0 0 -1
vn 0 0 -1
vn 0 1 0
vn 0 1 0
vn 0 1 0
vn 0 1 0
vn 0 0 1
vn 0 0 1
vn 0 0 1
vn 0 0 1
vn 0 1 0
vn 0 1 0
vn 0 1 0
vn 0 1 0
vn 0 1 0
vn 0 1 0
vn 0.7071068 0 0.7071068
vn 0.7071068 0 0.7071068
vn 0.7071068 0 0.7071068
vn 0.7071068 0 0.7071068
vn 0.7071068 0 -0.7071068
vn 0.7071068 0 -0.7071068
vn 0.7071068 0 -0.7071068
vn 0.7071068 0 -0.7071068
vn 0 0 1
vn 0 0 1
vn 0 0 1
vn 0 0 1
vn -0.7071068 0 0.7071068
vn -0.7071068 0 0.7071068
vn -0.7071068 0 0.7071068
vn -0.7071068 0 0.7071068
vn 0 0 -1
vn 0 0 -1
vn 0 0 -1
vn 0 0 -1
vn -0.7071068 0 -0.7071068
vn -0.7071068 0 -0.7071068
vn -0.7071068 0 -0.7071068
vn -0.7071068 0 -0.7071068
vn -1 0 0
vn -1 0 0
vn -1 0 0
vn -1 0 0
vn 1 0 0
vn 1 0 0
vn 1 0 0
vn 1 0 0
vn 1 0 0
vn 1 0 0
vn 0 1 0
vn 0 1 0
vn 0 1 0
vn 0 1 0
vn 0 1 0
vn 0 1 0
vn 0 1 0
vn 0 1 0
vn 0 1 0
vn 0 1 0
vn 0 1 0
vn 0 1 0
vn 0 1 0
vn 0 1 0
vn 0 1 0
vn 0 1 0
vn 0 1 0
vn 0 0 -1
vn 0 0 -1
vn 0 0 -1
vn 0 0 -1
vn 1 0 0
vn 1 0 0
vn 1 0 0
vn 1 0 0
vn -1 0 0
vn -1 0 0
vn -1 0 0
vn -1 0 0
vn -1 0 0
vn -1 0 0
vn 0 0 1
vn 0 0 1
vn 0 0 1
vn 0 0 1
vn 0 1 0
vn 0 1 0
vn 0 1 0
vn 0 1 0
vn 0 1 0
vn 0 1 0
vn 0 1 0
vn 0 1 0
vn 0 0 -1
vn 0 0 -1
vn 0 0 -1
vn 0 0 -1
vn 0 0 -1
vn 0 0 -1
vn 1 0 0
vn 1 0 0
vn 1 0 0
vn 1 0 0
vn 1 0 0
vn 1 0 0
vn 0 1 0
vn 0 1 0
vn 1 0 0
vn 1 0 0
vn 1 0 0
vn 1 0 0
vn 1 0 0
vn 1 0 0
vn 0 0 -1
vn 0 0 -1
vn 0 0 -1
vn 0 0 -1
vn 0 0 -1
vn 0 0 -1
vn 0 1 0
vn 0 1 0
vn 0 1 0
vn 0 1 0
vn 0 1 0
vn 0 1 0
vn 0 1 0
vn 0 1 0
vn 0.2337232 0.2671122 0.9348928
vn 0.2337232 0.2671122 0.9348928
vn 0.2337232 0.2671122 0.9348928
vn 0 1 0
vn 0 1 0
vn 0 1 0
vn 0.3258655 0.3724177 -0.8689746
vn 0.3258655 0.3724177 -0.8689746
vn 0.3258655 0.3724177 -0.8689746
vn 1 0 0
vn 1 0 0
vn 1 0 0
vn 1 0 0
vn 1 0 0
vn 1 0 0
vn 1 0 0
vn 1 0 0
g pb_Mesh26264_0
g pb_Mesh26264_1
f 3/3/3 2/2/2 1/1/1
f 4/4/4 3/3/3 1/1/1
f 7/7/7 6/6/6 5/5/5
f 10/10/10 9/9/9 8/8/8
f 11/11/11 10/10/10 8/8/8
f 14/14/14 13/13/13 12/12/12
f 15/15/15 14/14/14 12/12/12
f 4/4/4 17/17/17 16/16/16
f 3/3/3 4/4/4 16/16/16
f 20/20/20 19/19/19 18/18/18
f 23/23/23 22/22/22 21/21/21
f 23/23/23 24/24/24 22/22/22
f 27/27/27 26/26/26 25/25/25
f 27/27/27 28/28/28 26/26/26
f 31/31/31 30/30/30 29/29/29
f 31/31/31 32/32/32 30/30/30
f 35/35/35 34/34/34 33/33/33
f 35/35/35 36/36/36 34/34/34
f 39/39/39 38/38/38 37/37/37
f 39/39/39 40/40/40 38/38/38
f 43/43/43 42/42/42 41/41/41
f 43/43/43 44/44/44 42/42/42
f 47/47/47 46/46/46 45/45/45
f 50/50/50 49/49/49 48/48/48
f 50/50/50 51/51/51 49/49/49
f 54/54/54 53/53/53 52/52/52
f 54/54/54 55/55/55 53/53/53
f 56/56/56 41/41/41 42/42/42
f 56/56/56 57/57/57 41/41/41
f 60/60/60 59/59/59 58/58/58
f 63/63/63 62/62/62 61/61/61
f 63/63/63 64/64/64 62/62/62
f 67/67/67 66/66/66 65/65/65
f 67/67/67 68/68/68 66/66/66
f 71/71/71 70/70/70 69/69/69
f 71/71/71 72/72/72 70/70/70
f 75/75/75 74/74/74 73/73/73
f 75/75/75 76/76/76 74/74/74
f 79/79/79 78/78/78 77/77/77
f 79/79/79 80/80/80 78/78/78
f 81/81/81 70/70/70 72/72/72
f 81/81/81 82/82/82 70/70/70
f 85/85/85 84/84/84 83/83/83
f 85/85/85 86/86/86 84/84/84
f 87/87/87 79/79/79 77/77/77
f 87/87/87 88/88/88 79/79/79
f 91/91/91 90/90/90 89/89/89
f 91/91/91 92/92/92 90/90/90
f 95/95/95 94/94/94 93/93/93
f 95/95/95 96/96/96 94/94/94
f 99/99/99 98/98/98 97/97/97
f 99/99/99 100/100/100 98/98/98
f 103/103/103 102/102/102 101/101/101
f 103/103/103 101/101/101 104/104/104
f 105/105/105 87/87/87 77/77/77
f 105/105/105 77/77/77 106/106/106
f 109/109/109 108/108/108 107/107/107
f 108/108/108 110/110/110 107/107/107
f 113/113/113 112/112/112 111/111/111
f 116/116/116 115/115/115 114/114/114
f 119/119/119 118/118/118 117/117/117
f 119/119/119 117/117/117 120/120/120
f 104/104/104 101/101/101 118/118/118
f 104/104/104 118/118/118 119/119/119
f 123/123/123 122/122/122 121/121/121
f 122/122/122 124/124/124 121/121/121
f 121/121/121 124/124/124 125/125/125
f 124/124/124 126/126/126 125/125/125
f 95/95/95 93/93/93 127/127/127
f 95/95/95 127/127/127 128/128/128
f 128/128/128 127/127/127 129/129/129
f 128/128/128 129/129/129 130/130/130
f 132/132/132 131/131/131 83/83/83
f 132/132/132 83/83/83 84/84/84
f 134/134/134 133/133/133 131/131/131
f 134/134/134 131/131/131 132/132/132
f 137/137/137 136/136/136 135/135/135
f 140/140/140 139/139/139 138/138/138
f 143/143/143 142/142/142 141/141/141
f 143/143/143 141/141/141 144/144/144
f 147/147/147 146/146/146 145/145/145
f 146/146/146 148/148/148 145/145/145
f 151/151/151 150/150/150 149/149/149
f 151/151/151 149/149/149 152/152/152
f 155/155/155 154/154/154 153/153/153
f 155/155/155 153/153/153 156/156/156
f 159/159/159 158/158/158 157/157/157
f 158/158/158 160/160/160 157/157/157
f 163/163/163 162/162/162 161/161/161
f 162/162/162 164/164/164 161/161/161
f 167/167/167 166/166/166 165/165/165
f 167/167/167 165/165/165 168/168/168
f 171/171/171 170/170/170 169/169/169
f 170/170/170 172/172/172 169/169/169
f 174/174/174 173/173/173 171/171/171
f 173/173/173 170/170/170 171/171/171
f 177/177/177 176/176/176 175/175/175
f 177/177/177 175/175/175 178/178/178
f 181/181/181 180/180/180 179/179/179
f 182/182/182 181/181/181 179/179/179
f 182/182/182 179/179/179 183/183/183
f 177/177/177 178/178/178 184/184/184
f 185/185/185 177/177/177 184/184/184
f 185/185/185 184/184/184 186/186/186
f 187/187/187 180/180/180 181/181/181
f 180/180/180 187/187/187 175/175/175
f 187/187/187 178/178/178 175/175/175
f 190/190/190 189/189/189 188/188/188
f 190/190/190 188/188/188 191/191/191
f 194/194/194 193/193/193 192/192/192
f 193/193/193 195/195/195 192/192/192
f 198/198/198 197/197/197 196/196/196
f 197/197/197 199/199/199 196/196/196
f 202/202/202 201/201/201 200/200/200
f 203/203/203 201/201/201 202/202/202
f 202/202/202 204/204/204 203/203/203
f 202/202/202 205/205/205 204/204/204
f 208/208/208 207/207/207 206/206/206
f 152/152/152 207/207/207 208/208/208
f 208/208/208 151/151/151 152/152/152
f 208/208/208 209/209/209 151/151/151
f 212/212/212 211/211/211 210/210/210
f 188/188/188 212/212/212 210/210/210
f 188/188/188 189/189/189 212/212/212
f 215/215/215 214/214/214 213/213/213
f 215/215/215 213/213/213 216/216/216
f 216/216/216 213/213/213 212/212/212
f 216/216/216 212/212/212 189/189/189
f 217/217/217 215/215/215 216/216/216
f 216/216/216 189/189/189 190/190/190
f 217/217/217 216/216/216 190/190/190
f 220/220/220 219/219/219 218/218/218
f 219/219/219 221/221/221 218/218/218
f 219/219/219 222/222/222 221/221/221
f 222/222/222 194/194/194 221/221/221
f 218/218/218 221/221/221 223/223/223
f 221/221/221 192/192/192 223/223/223
f 221/221/221 194/194/194 192/192/192
f 226/226/226 225/225/225 224/224/224
f 198/198/198 226/226/226 224/224/224
f 198/198/198 196/196/196 226/226/226
f 226/226/226 196/196/196 227/227/227
f 196/196/196 228/228/228 227/227/227
f 225/225/225 226/226/226 229/229/229
f 226/226/226 227/227/227 229/229/229
f 231/231/231 230/230/230 211/211/211
f 212/212/212 231/231/231 211/211/211
f 212/212/212 213/213/213 231/231/231
f 234/234/234 233/233/233 232/232/232
f 232/232/232 228/228/228 234/234/234
f 234/234/234 228/228/228 199/199/199
f 196/196/196 199/199/199 228/228/228
f 229/229/229 227/227/227 235/235/235
f 227/227/227 236/236/236 235/235/235
f 227/227/227 228/228/228 236/236/236
f 228/228/228 232/232/232 236/236/236
f 236/236/236 232/232/232 237/237/237
f 232/232/232 233/233/233 237/237/237
f 193/193/193 194/194/194 222/222/222
f 193/193/193 222/222/222 238/238/238
f 238/238/238 222/222/222 239/239/239
f 240/240/240 238/238/238 239/239/239
f 242/242/242 240/240/240 241/241/241
f 240/240/240 239/239/239 241/241/241
f 241/241/241 239/239/239 219/219/219
f 239/239/239 222/222/222 219/219/219
f 243/243/243 241/241/241 220/220/220
f 241/241/241 219/219/219 220/220/220
f 245/245/245 244/244/244 230/230/230
f 245/245/245 230/230/230 231/231/231
f 214/214/214 246/246/246 245/245/245
f 245/245/245 231/231/231 213/213/213
f 214/214/214 245/245/245 213/213/213
f 249/249/249 248/248/248 247/247/247
f 250/250/250 249/249/249 247/247/247
f 250/250/250 251/251/251 249/249/249
f 254/254/254 253/253/253 252/252/252
f 256/256/256 251/251/251 255/255/255
f 255/255/255 257/257/257 256/256/256
f 257/257/257 94/94/94 256/256/256
f 260/260/260 259/259/259 258/258/258
f 263/263/263 262/262/262 261/261/261
f 264/264/264 263/263/263 261/261/261
f 264/264/264 265/265/265 263/263/263
f 108/108/108 109/109/109 266/266/266
f 267/267/267 108/108/108 266/266/266
f 266/266/266 268/268/268 267/267/267
