g pb_Mesh434342
v -0.9419556 -0.2508097 0
v -0.9419556 0.8078547 0
v 1.529022 -0.2508097 4.279861
v 1.529022 0.8078547 4.279861
v 1.529022 -0.2508097 4.279861
v 1.529022 0.8078547 4.279861
v 6.470978 -0.2508097 4.279861
v 6.470978 0.8078547 4.279861
v 6.470978 -0.2508097 4.279861
v 6.470978 0.8078547 4.279861
v 8.941956 -0.2508097 0
v 8.941956 0.8078547 0
v 8.941956 -0.2508097 0
v 8.941956 0.8078547 0
v 6.470978 -0.2508097 -4.279861
v 6.470978 0.8078547 -4.279861
v 6.470978 -0.2508097 -4.279861
v 6.470978 0.8078547 -4.279861
v 1.529022 -0.2508097 -4.279861
v 1.529022 0.8078547 -4.279861
v 1.529022 -0.2508097 -4.279861
v 1.529022 0.8078547 -4.279861
v -0.9419556 -0.2508097 0
v -0.9419556 0.8078547 0
v 0 0 0
v 4 0 0
v 2 0 3.464102
v 0.866272 0.4683557 0
v 2 0 3.464102
v 4 0 0
v 6 0 3.464102
v 2.433136 0.4683557 2.71389
v 6 0 3.464102
v 4 0 0
v 8 0 -3.496911E-07
v 5.566864 0.4683557 2.71389
v 4 0.4683557 0
v 7.133728 0.4683557 0
v 8 0 -3.496911E-07
v 4 0 0
v 6 0 -3.464102
v 6 0 -3.464102
v 4 0 0
v 2 0 -3.464102
v 5.566864 0.4683557 -2.71389
v 2 0 -3.464102
v 4 0 0
v 0 0 0
v 2.433136 0.4683557 -2.71389
v 6 1.825338 3.464104
v 2 1.825338 3.464104
v 5.566864 1.825417 2.71389
v 2.433136 1.825417 2.71389
v 8 1.825338 0
v 6 1.825338 3.464104
v 7.133728 1.825417 0
v 5.566864 1.825417 2.71389
v 2 1.825338 3.464104
v 0 1.825338 0
v 2.433136 1.825417 2.71389
v 0.866272 1.825417 0
v 0 1.825338 0
v 2 1.825338 -3.464104
v 0.866272 1.825417 0
v 2.433136 1.825417 -2.71389
v 2 1.825338 -3.464104
v 6 1.825338 -3.464104
v 2.433136 1.825417 -2.71389
v 5.566864 1.825417 -2.71389
v 6 1.825338 -3.464104
v 8 1.825338 0
v 5.566864 1.825417 -2.71389
v 7.133728 1.825417 0
v 6 0.8569031 -3.464104
v 8 0.8569031 0
v 6 1.825338 -3.464104
v 8 1.825338 0
v 5.566864 0.4683557 -2.71389
v 2.433136 0.4683557 -2.71389
v 5.566864 1.825417 -2.71389
v 2.433136 1.825417 -2.71389
v 7.133728 0.4683557 0
v 5.566864 0.4683557 -2.71389
v 7.133728 1.825417 0
v 5.566864 1.825417 -2.71389
v 8 0.8569031 0
v 6 0.8569031 3.464104
v 8 1.825338 0
v 6 1.825338 3.464104
v 5.566864 0.4683557 2.71389
v 7.133728 0.4683557 0
v 5.566864 1.825417 2.71389
v 7.133728 1.825417 0
v 6 0.8569031 3.464104
v 2 0.8569031 3.464104
v 6 1.825338 3.464104
v 2 1.825338 3.464104
v 2.433136 0.4683557 2.71389
v 5.566864 0.4683557 2.71389
v 2.433136 1.825417 2.71389
v 5.566864 1.825417 2.71389
v 2 0.8569031 3.464104
v 0 0.8569031 0
v 2 1.825338 3.464104
v 0 1.825338 0
v 0.866272 0.4683557 0
v 2.433136 0.4683557 2.71389
v 0.866272 1.825417 0
v 2.433136 1.825417 2.71389
v 0 0.8569031 0
v 2 0.8569031 -3.464104
v 0 1.825338 0
v 2 1.825338 -3.464104
v 2.433136 0.4683557 -2.71389
v 0.866272 0.4683557 0
v 2.433136 1.825417 -2.71389
v 0.866272 1.825417 0
v 2 0.8569031 -3.464104
v 6 0.8569031 -3.464104
v 2 1.825338 -3.464104
v 6 1.825338 -3.464104
v 0 0 0
v 2 0 -3.464102
v -0.9419556 -0.2508097 0
v 1.529022 -0.2508097 -4.279861
v 2 0.8569031 -3.464104
v 0 0.8569031 0
v 1.529022 0.8078547 -4.279861
v -0.9419556 0.8078547 0
v 2 0 3.464102
v 0 0 0
v 1.529022 -0.2508097 4.279861
v -0.9419556 -0.2508097 0
v 0 0.8569031 0
v 2 0.8569031 3.464104
v -0.9419556 0.8078547 0
v 1.529022 0.8078547 4.279861
v 2 0 -3.464102
v 6 0 -3.464102
v 1.529022 -0.2508097 -4.279861
v 6.470978 -0.2508097 -4.279861
v 6 0.8569031 -3.464104
v 2 0.8569031 -3.464104
v 6.470978 0.8078547 -4.279861
v 1.529022 0.8078547 -4.279861
v 6 0 -3.464102
v 8 0 -3.496911E-07
v 6.470978 -0.2508097 -4.279861
v 8.941956 -0.2508097 0
v 8 0.8569031 0
v 6 0.8569031 -3.464104
v 8.941956 0.8078547 0
v 6.470978 0.8078547 -4.279861
v 8 0 -3.496911E-07
v 6 0 3.464102
v 8.941956 -0.2508097 0
v 6.470978 -0.2508097 4.279861
v 6 0.8569031 3.464104
v 8 0.8569031 0
v 6.470978 0.8078547 4.279861
v 8.941956 0.8078547 0
v 6 0 3.464102
v 2 0 3.464102
v 6.470978 -0.2508097 4.279861
v 1.529022 -0.2508097 4.279861
v 2 0.8569031 3.464104
v 6 0.8569031 3.464104
v 1.529022 0.8078547 4.279861
v 6.470978 0.8078547 4.279861
vt -0.4709775 -0.2508097
vt -0.4709775 0.8078547
vt 4.47098 -0.2508097
vt 4.47098 0.8078547
vt 1.529022 -0.2508097
vt 1.529022 0.8078547
vt 6.470978 -0.2508097
vt 6.470978 0.8078547
vt -0.4709818 -0.2508097
vt -0.4709818 0.8078547
vt 4.470976 -0.2508097
vt 4.470976 0.8078547
vt -4.470976 -0.2508097
vt -4.470976 0.8078547
vt 0.4709818 -0.2508097
vt 0.4709818 0.8078547
vt -6.470978 -0.2508097
vt -6.470978 0.8078547
vt -1.529022 -0.2508097
vt -1.529022 0.8078547
vt -4.47098 -0.2508097
vt -4.47098 0.8078547
vt 0.4709775 -0.2508097
vt 0.4709775 0.8078547
vt 0 0
vt 4 0
vt 2 3.464102
vt -0.866272 0
vt 2 3.464102
vt 4 0
vt 6 3.464102
vt -2.433136 2.71389
vt 6 3.464102
vt 4 0
vt 8 -3.496911E-07
vt -5.566864 2.71389
vt -4 0
vt -7.133728 0
vt 8 -3.496911E-07
vt 4 0
vt 6 -3.464102
vt 6 -3.464102
vt 4 0
vt 2 -3.464102
vt -5.566864 -2.71389
vt 2 -3.464102
vt 4 0
vt 0 0
vt -2.433136 -2.71389
vt -6 3.463912
vt -2 3.463912
vt -5.566864 2.713699
vt -2.433136 2.713699
vt -7.999834 -9.57536E-05
vt -5.999834 3.464008
vt -7.133562 -9.57536E-05
vt -5.566698 2.713794
vt -2.000166 3.464008
vt -0.0001657843 -9.571552E-05
vt -2.433302 2.713794
vt -0.8664378 -9.571552E-05
vt -0.0001657842 9.57155E-05
vt -2.000166 -3.464008
vt -0.8664378 9.57155E-05
vt -2.433302 -2.713794
vt -2 -3.463912
vt -6 -3.463912
vt -2.433136 -2.713699
vt -5.566864 -2.713699
vt -5.999834 -3.464008
vt -7.999834 9.575362E-05
vt -5.566698 -2.713794
vt -7.133562 9.575362E-05
vt 3.41525E-06 0.8569031
vt -3.999998 0.8569031
vt 3.41525E-06 1.825338
vt -3.999998 1.825338
vt 5.566864 0.4683557
vt 2.433136 0.4683557
vt 5.566864 1.825417
vt 2.433136 1.825417
vt 3.566862 0.4683557
vt 0.4331323 0.4683557
vt 3.566862 1.825417
vt 0.4331323 1.825417
vt 3.999998 0.8569031
vt -3.41525E-06 0.8569031
vt 3.999998 1.825338
vt -3.41525E-06 1.825338
vt -0.4331323 0.4683557
vt -3.566862 0.4683557
vt -0.4331323 1.825417
vt -3.566862 1.825417
vt 6 0.8569031
vt 2 0.8569031
vt 6 1.825338
vt 2 1.825338
vt -2.433136 0.4683557
vt -5.566864 0.4683557
vt -2.433136 1.825417
vt -5.566864 1.825417
vt 4.000002 0.8569031
vt 0 0.8569031
vt 4.000002 1.825338
vt 0 1.825338
vt -0.4331357 0.4683557
vt -3.566865 0.4683557
vt -0.4331357 1.825417
vt -3.566865 1.825417
vt 0 0.8569031
vt -4.000002 0.8569031
vt 0 1.825338
vt -4.000002 1.825338
vt 3.566865 0.4683557
vt 0.4331357 0.4683557
vt 3.566865 1.825417
vt 0.4331357 1.825417
vt -2 0.8569031
vt -6 0.8569031
vt -2 1.825338
vt -6 1.825338
vt 0 0
vt 1.932664 -3.502116
vt -0.9747747 -4.077322E-09
vt 1.413009 -4.326827
vt -2.041853 -3.439985
vt -0.0445593 0.02567993
vt -1.568962 -4.25611
vt 0.8986724 0.02567993
vt 1.932663 3.502116
vt 0 0
vt 1.413009 4.326827
vt -0.9747748 4.672721E-08
vt -0.0445593 -0.02567993
vt -2.041853 3.439985
vt 0.8986724 -0.02567993
vt -1.568962 4.25611
vt 2 -3.311136
vt 6 -3.311136
vt 1.529022 -4.164582
vt 6.470978 -4.164582
vt -6 -3.406429
vt -2 -3.406429
vt -6.470978 -4.22366
vt -1.529022 -4.22366
vt 5.797989 -3.199656
vt 7.730653 0.3024597
vt 6.317644 -4.024367
vt 8.705428 0.30246
vt -7.944617 0.03816373
vt -5.947323 -3.427501
vt -8.887849 0.03816373
vt -6.420214 -4.243626
vt 7.730653 -0.3024613
vt 5.79799 3.199654
vt 8.705427 -0.3024609
vt 6.317644 4.024366
vt -5.947323 3.427501
vt -7.944617 -0.03816374
vt -6.420214 4.243626
vt -8.887849 -0.03816374
vt 6 3.311136
vt 2 3.311136
vt 6.470978 4.164582
vt 1.529022 4.164582
vt -2 3.406429
vt -6 3.406429
vt -1.529022 4.22366
vt -6.470978 4.22366
vn -0.8660255 0 0.4999998
vn -0.8660255 0 0.4999998
vn -0.8660255 0 0.4999998
vn -0.8660255 0 0.4999998
vn 0 0 1
vn 0 0 1
vn 0 0 1
vn 0 0 1
vn 0.8660255 0 0.4999998
vn 0.8660255 0 0.4999998
vn 0.8660255 0 0.4999998
vn 0.8660255 0 0.4999998
vn 0.8660255 0 -0.4999998
vn 0.8660255 0 -0.4999998
vn 0.8660255 0 -0.4999998
vn 0.8660255 0 -0.4999998
vn 0 0 -1
vn 0 0 -1
vn 0 0 -1
vn 0 0 -1
vn -0.8660255 0 -0.4999998
vn -0.8660255 0 -0.4999998
vn -0.8660255 0 -0.4999998
vn -0.8660255 0 -0.4999998
vn 0 -1 0
vn 0 -1 0
vn 0 -1 0
vn 0 1 0
vn 0 -1 0
vn 0 -1 0
vn 0 -1 0
vn 0 1 0
vn 0 -1 0
vn 0 -1 0
vn 0 -1 0
vn 0 1 0
vn 0 1 0
vn 0 1 0
vn 0 -1 0
vn 0 -1 0
vn 0 -1 0
vn 0 -1 0
vn 0 -1 0
vn 0 -1 0
vn 0 1 0
vn 0 -1 0
vn 0 -1 0
vn 0 -1 0
vn 0 1 0
vn 0 1 0.0001048743
vn 0 1 0.0001048743
vn 0 1 0.0001048743
vn 0 1 0.0001048743
vn 9.082382E-05 1 5.243713E-05
vn 9.082384E-05 1 5.243713E-05
vn 9.082384E-05 1 5.243713E-05
vn 9.082385E-05 1 5.243714E-05
vn -9.082384E-05 1 5.243714E-05
vn -9.082383E-05 1 5.243713E-05
vn -9.082383E-05 1 5.243713E-05
vn -9.082382E-05 1 5.243712E-05
vn -9.082382E-05 1 -5.243713E-05
vn -9.082384E-05 1 -5.243713E-05
vn -9.082384E-05 1 -5.243713E-05
vn -9.082385E-05 1 -5.243714E-05
vn 0 1 -0.0001048743
vn 0 1 -0.0001048743
vn 0 1 -0.0001048743
vn 0 1 -0.0001048743
vn 9.082384E-05 1 -5.243714E-05
vn 9.082383E-05 1 -5.243713E-05
vn 9.082383E-05 1 -5.243713E-05
vn 9.082382E-05 1 -5.243712E-05
vn 0.8660255 0 -0.4999998
vn 0.8660255 0 -0.4999998
vn 0.8660255 0 -0.4999998
vn 0.8660255 0 -0.4999998
vn 0 0 1
vn 0 0 1
vn 0 0 1
vn 0 0 1
vn -0.8660256 0 0.4999997
vn -0.8660256 0 0.4999997
vn -0.8660256 0 0.4999997
vn -0.8660256 0 0.4999997
vn 0.8660255 0 0.4999998
vn 0.8660255 0 0.4999998
vn 0.8660255 0 0.4999998
vn 0.8660255 0 0.4999998
vn -0.8660256 0 -0.4999997
vn -0.8660256 0 -0.4999997
vn -0.8660256 0 -0.4999997
vn -0.8660256 0 -0.4999997
vn 0 0 1
vn 0 0 1
vn 0 0 1
vn 0 0 1
vn 0 0 -1
vn 0 0 -1
vn 0 0 -1
vn 0 0 -1
vn -0.8660255 0 0.4999998
vn -0.8660255 0 0.4999998
vn -0.8660255 0 0.4999998
vn -0.8660255 0 0.4999998
vn 0.8660256 0 -0.4999997
vn 0.8660256 0 -0.4999997
vn 0.8660256 0 -0.4999997
vn 0.8660256 0 -0.4999997
vn -0.8660255 0 -0.4999998
vn -0.8660255 0 -0.4999998
vn -0.8660255 0 -0.4999998
vn -0.8660255 0 -0.4999998
vn 0.8660256 0 0.4999997
vn 0.8660256 0 0.4999997
vn 0.8660256 0 0.4999997
vn 0.8660256 0 0.4999997
vn 0 0 -1
vn 0 0 -1
vn 0 0 -1
vn 0 0 -1
vn 0.2545072 -0.9558424 0.1469399
vn 0.2545071 -0.9558425 0.1469397
vn 0.2545071 -0.9558425 0.1469397
vn 0.2545069 -0.9558426 0.1469396
vn -0.05197698 0.9981973 -0.03000891
vn -0.05197698 0.9981973 -0.03000891
vn -0.05197698 0.9981973 -0.03000891
vn -0.05197697 0.9981973 -0.0300089
vn 0.2545069 -0.9558426 -0.1469397
vn 0.2545071 -0.9558425 -0.1469397
vn 0.2545071 -0.9558425 -0.1469397
vn 0.2545073 -0.9558424 -0.1469398
vn -0.05197698 0.9981973 0.03000891
vn -0.05197698 0.9981973 0.03000891
vn -0.05197698 0.9981973 0.03000891
vn -0.05197698 0.9981973 0.03000891
vn 0 -0.9558427 0.2938789
vn 0 -0.9558427 0.293879
vn 0 -0.9558427 0.293879
vn 0 -0.9558427 0.293879
vn 0 0.9981973 -0.06001782
vn 0 0.9981973 -0.06001782
vn 0 0.9981973 -0.06001782
vn 0 0.9981973 -0.06001782
vn -0.2545068 -0.9558426 0.1469396
vn -0.2545071 -0.9558425 0.1469397
vn -0.2545071 -0.9558425 0.1469397
vn -0.2545073 -0.9558424 0.1469398
vn 0.05197698 0.9981973 -0.03000891
vn 0.05197698 0.9981973 -0.03000891
vn 0.05197698 0.9981973 -0.03000891
vn 0.05197698 0.9981973 -0.03000891
vn -0.2545072 -0.9558424 -0.1469398
vn -0.2545071 -0.9558425 -0.1469397
vn -0.2545071 -0.9558425 -0.1469397
vn -0.254507 -0.9558426 -0.1469396
vn 0.05197698 0.9981973 0.03000891
vn 0.05197698 0.9981973 0.03000891
vn 0.05197698 0.9981973 0.03000891
vn 0.05197697 0.9981973 0.0300089
vn -1.751654E-08 -0.9558427 -0.2938789
vn -8.758272E-09 -0.9558427 -0.2938789
vn -8.758272E-09 -0.9558427 -0.2938789
vn 0 -0.9558427 -0.293879
vn 0 0.9981973 0.06001782
vn 0 0.9981973 0.06001782
vn 0 0.9981973 0.06001782
vn 0 0.9981973 0.06001782
g pb_Mesh434342_0
f 3/3/3 2/2/2 1/1/1
f 3/3/3 4/4/4 2/2/2
f 7/7/7 6/6/6 5/5/5
f 7/7/7 8/8/8 6/6/6
f 11/11/11 10/10/10 9/9/9
f 11/11/11 12/12/12 10/10/10
f 15/15/15 14/14/14 13/13/13
f 15/15/15 16/16/16 14/14/14
f 19/19/19 18/18/18 17/17/17
f 19/19/19 20/20/20 18/18/18
f 23/23/23 22/22/22 21/21/21
f 23/23/23 24/24/24 22/22/22
f 25/25/25 26/26/26 27/27/27
f 29/29/29 30/30/30 31/31/31
f 33/33/33 34/34/34 35/35/35
f 39/39/39 40/40/40 41/41/41
f 42/42/42 43/43/43 44/44/44
f 46/46/46 47/47/47 48/48/48
f 52/52/52 51/51/51 50/50/50
f 52/52/52 53/53/53 51/51/51
f 56/56/56 55/55/55 54/54/54
f 56/56/56 57/57/57 55/55/55
f 60/60/60 59/59/59 58/58/58
f 60/60/60 61/61/61 59/59/59
f 64/64/64 63/63/63 62/62/62
f 64/64/64 65/65/65 63/63/63
f 68/68/68 67/67/67 66/66/66
f 68/68/68 69/69/69 67/67/67
f 72/72/72 71/71/71 70/70/70
f 72/72/72 73/73/73 71/71/71
f 76/76/76 75/75/75 74/74/74
f 76/76/76 77/77/77 75/75/75
f 80/80/80 79/79/79 78/78/78
f 80/80/80 81/81/81 79/79/79
f 84/84/84 83/83/83 82/82/82
f 84/84/84 85/85/85 83/83/83
f 88/88/88 87/87/87 86/86/86
f 88/88/88 89/89/89 87/87/87
f 92/92/92 91/91/91 90/90/90
f 92/92/92 93/93/93 91/91/91
f 96/96/96 95/95/95 94/94/94
f 96/96/96 97/97/97 95/95/95
f 100/100/100 99/99/99 98/98/98
f 100/100/100 101/101/101 99/99/99
f 104/104/104 103/103/103 102/102/102
f 104/104/104 105/105/105 103/103/103
f 108/108/108 107/107/107 106/106/106
f 108/108/108 109/109/109 107/107/107
f 112/112/112 111/111/111 110/110/110
f 112/112/112 113/113/113 111/111/111
f 116/116/116 115/115/115 114/114/114
f 116/116/116 117/117/117 115/115/115
f 120/120/120 119/119/119 118/118/118
f 120/120/120 121/121/121 119/119/119
f 38/38/38 37/37/37 36/36/36
f 36/36/36 37/37/37 32/32/32
f 32/32/32 37/37/37 28/28/28
f 28/28/28 37/37/37 49/49/49
f 49/49/49 37/37/37 45/45/45
f 45/45/45 37/37/37 38/38/38
f 124/124/124 123/123/123 122/122/122
f 124/124/124 125/125/125 123/123/123
f 128/128/128 127/127/127 126/126/126
f 128/128/128 129/129/129 127/127/127
f 132/132/132 131/131/131 130/130/130
f 132/132/132 133/133/133 131/131/131
f 136/136/136 135/135/135 134/134/134
f 136/136/136 137/137/137 135/135/135
f 140/140/140 139/139/139 138/138/138
f 140/140/140 141/141/141 139/139/139
f 144/144/144 143/143/143 142/142/142
f 144/144/144 145/145/145 143/143/143
f 148/148/148 147/147/147 146/146/146
f 148/148/148 149/149/149 147/147/147
f 152/152/152 151/151/151 150/150/150
f 152/152/152 153/153/153 151/151/151
f 156/156/156 155/155/155 154/154/154
f 156/156/156 157/157/157 155/155/155
f 160/160/160 159/159/159 158/158/158
f 160/160/160 161/161/161 159/159/159
f 164/164/164 163/163/163 162/162/162
f 164/164/164 165/165/165 163/163/163
f 168/168/168 167/167/167 166/166/166
f 168/168/168 169/169/169 167/167/167
