g pb_Mesh142234
v 0 0 0.5
v -0.5 0 0.5
v 0 1 0.5
v -0.5 1 0.5
v -0.5 0 -0.5
v -0.5 0 -1
v -0.5 1 -0.5
v -0.5 1 -1
v 0.5 0 -1
v 0.5 0 -0.5
v 0.5 1 -1
v 0.5 1 -0.5
v 0 1 -0.5
v -0.5 1 -0.5
v 0 1 -1
v -0.5 1 -1
v -0.5 0 0.5
v -0.5 1 0.5
v 0 -1 -1
v 0 -1 -0.5
v 0.5 -1 -1
v 0.5 -1 -0.5
v 0.5 1 -0.5
v 0.5 1 -1
v 0.5 -1 -0.5
v 0.5 -1 -1
v -0.5 1 0.5
v 0 1 0.5
vt 0 0
vt -0.5 0
vt 0 1
vt -0.5 1
vt -0.5 0
vt -1 0
vt -0.5 1
vt -1 1
vt 1 0
vt 0.5 0
vt 1 1
vt 0.5 1
vt 0 -0.5
vt 0.5 -0.5
vt 0 -1
vt 0.5 -1
vt 0.5 0
vt 0.5 1
vt 0 -1
vt 0 -0.5
vt 0.5 -1
vt 0.5 -0.5
vt -0.5 -0.5
vt -0.5 -1
vt 0.5 -1
vt 1 -1
vt 0.5 0.5
vt 0 0.5
vn 0 0 1
vn 0 0 1
vn 0 0 1
vn 0 0 1
vn -1 0 0
vn -1 0 0
vn -1 0 0
vn -1 0 0
vn 1 0 0
vn 1 0 0
vn 1 0 0
vn 1 0 0
vn 0 1 0
vn 0 1 0
vn 0 1 0
vn 0 1 0
vn -1 0 0
vn -1 0 0
vn 0 -1 0
vn 0 -1 0
vn 0 -1 0
vn 0 -1 0
vn 0 1 0
vn 0 1 0
vn 1 0 0
vn 1 0 0
vn 0 1 0
vn 0 1 0
g pb_Mesh142234_0
f 3/3/3 2/2/2 1/1/1
f 3/3/3 4/4/4 2/2/2
f 7/7/7 6/6/6 5/5/5
f 7/7/7 8/8/8 6/6/6
f 11/11/11 10/10/10 9/9/9
f 11/11/11 12/12/12 10/10/10
f 15/15/15 14/14/14 13/13/13
f 15/15/15 16/16/16 14/14/14
f 17/17/17 7/7/7 5/5/5
f 17/17/17 18/18/18 7/7/7
f 21/21/21 20/20/20 19/19/19
f 21/21/21 22/22/22 20/20/20
f 23/23/23 15/15/15 13/13/13
f 23/23/23 24/24/24 15/15/15
f 25/25/25 9/9/9 10/10/10
f 25/25/25 26/26/26 9/9/9
f 14/14/14 27/27/27 13/13/13
f 27/27/27 28/28/28 13/13/13
