g pb_Mesh243098
v 1.5 -3 1.5
v -1 -3 1
v 1.5 0 1.5
v -1 0 1
v -1 -3 1
v -1.5 -3 -1.5
v -1 0 1
v -1.5 0 -1.5
v -1.5 -3 -1.5
v 1.5 -3 -1.5
v -1.5 0 -1.5
v 1.5 0 -1.5
v 1.5 -3 -1.5
v 1.5 -3 1.5
v 1.5 0 -1.5
v 1.5 0 1.5
v 1.5 0 1.5
v -1 0 1
v 1.5 0 -1.5
v -1.5 0 -1.5
v 1.5 -3 -1.5
v -1.5 -3 -1.5
v 1.5 -3 1.5
v -1 -3 1
vt 1.765045 -3
vt -0.7844645 -3
vt 1.765045 0
vt -0.7844645 0
vt 0.7844645 -3
vt -1.765045 -3
vt 0.7844645 0
vt -1.765045 0
vt 1.5 -3
vt -1.5 -3
vt 1.5 0
vt -1.5 0
vt 1.5 -3
vt -1.5 -3
vt 1.5 0
vt -1.5 0
vt -1.5 1.5
vt 1 1
vt -1.5 -1.5
vt 1.5 -1.5
vt 1.5 -1.5
vt -1.5 -1.5
vt 1.5 1.5
vt -1 1
vn -0.1961161 0 0.9805807
vn -0.1961161 0 0.9805807
vn -0.1961161 0 0.9805807
vn -0.1961161 0 0.9805807
vn -0.9805807 0 0.1961161
vn -0.9805807 0 0.1961161
vn -0.9805807 0 0.1961161
vn -0.9805807 0 0.1961161
vn 0 0 -1
vn 0 0 -1
vn 0 0 -1
vn 0 0 -1
vn 1 0 0
vn 1 0 0
vn 1 0 0
vn 1 0 0
vn 0 1 0
vn 0 1 0
vn 0 1 0
vn 0 1 0
vn 0 -1 0
vn 0 -1 0
vn 0 -1 0
vn 0 -1 0
g pb_Mesh243098_0
f 3/3/3 2/2/2 1/1/1
f 3/3/3 4/4/4 2/2/2
f 7/7/7 6/6/6 5/5/5
f 7/7/7 8/8/8 6/6/6
f 11/11/11 10/10/10 9/9/9
f 11/11/11 12/12/12 10/10/10
f 15/15/15 14/14/14 13/13/13
f 15/15/15 16/16/16 14/14/14
f 19/19/19 18/18/18 17/17/17
f 19/19/19 20/20/20 18/18/18
f 23/23/23 22/22/22 21/21/21
f 23/23/23 24/24/24 22/22/22
