g pb_Mesh46922
v -7.999975 -59 24.00001
v -11.99998 -59 24
v -7.999973 4 24.00001
v -11.99997 4 24
v -11.99998 -59 24
v -11.99997 -59 -8.000055
v -11.99997 4 24
v -11.99997 4 -8.000055
v -11.99997 -59 -8.000055
v -6.999905 -59 -8.000032
v -11.99997 4 -8.000055
v -6.999905 4 -8.000032
v 10.00004 -59 4.62532E-05
v 10.00004 -59 15.00004
v 10.00004 0 4.62532E-05
v 10.00005 0 15.00004
v -7.999973 4 24.00001
v -11.99997 4 24
v -6.999905 4 -8.000032
v -11.99997 4 -8.000055
v -6.999905 -59 -8.000032
v -11.99997 -59 -8.000055
v -7.999975 -59 24.00001
v -11.99998 -59 24
v -2.861023E-06 -59 4.768372E-07
v 3.194809E-05 -59 24.00002
v -6.999905 4 -8.000032
v -6.999905 -59 -8.000032
v -2.861023E-06 0 4.768372E-07
v -2.861023E-06 -59 4.768372E-07
v 3.194809E-05 -59 24.00002
v 3.194809E-05 0 24.00002
v -7.999973 4 24.00001
v -6.999905 4 -8.000032
v 3.194809E-05 0 24.00002
v -2.861023E-06 0 4.768372E-07
v 10.00004 -59 4.62532E-05
v 10.00004 -59 15.00004
v -2.861023E-06 0 4.768372E-07
v -2.861023E-06 -59 4.768372E-07
v 10.00004 0 4.62532E-05
v 10.00004 -59 4.62532E-05
v 3.194809E-05 -59 24.00002
v 3.194809E-05 0 24.00002
v 10.00004 -59 15.00004
v 10.00005 0 15.00004
v 3.194809E-05 0 24.00002
v -2.861023E-06 0 4.768372E-07
v 10.00005 0 15.00004
v 10.00004 0 4.62532E-05
vt -7.999929 -59
vt -11.99993 -59
vt -7.999928 4
vt -11.99993 4
vt 24 -59
vt -8.000051 -59
vt 24 4
vt -8.000051 4
vt 12 -59
vt 6.999941 -59
vt 12 4
vt 6.999941 4
vt -4.62532E-05 -59
vt -15.00004 -59
vt -4.62532E-05 0
vt -15.00004 0
vt 7.999973 24.00001
vt 11.99997 24
vt 6.999905 -8.000032
vt 11.99997 -8.000055
vt -6.999905 -8.000032
vt -11.99997 -8.000055
vt -7.999975 24.00001
vt -11.99998 24
vt -2.861023E-06 4.768372E-07
vt 3.194809E-05 24.00002
vt 10.63011 4
vt 10.63011 -59
vt 1.525118E-06 0
vt 1.525118E-06 -59
vt 7.772445E-05 -59
vt 7.772445E-05 -1.385896E-12
vt 8.944248 23.99766
vt 8.049759 -8.005502
vt -2.857524E-05 23.99768
vt 2.558977E-06 4.946714E-07
vt 10.00004 4.62532E-05
vt 10.00004 15.00004
vt 2.861021E-06 0
vt 2.861021E-06 -59
vt -10.00004 0
vt -10.00004 -59
vt -16.05512 -59
vt -16.05512 0
vt -2.601497 -59
vt -2.601495 0
vt -3.194809E-05 24.00002
vt 2.861023E-06 4.768372E-07
vt -10.00005 15.00004
vt -10.00004 4.62532E-05
vn -1.907348E-06 5.774568E-14 1
vn -1.907348E-06 5.774568E-14 1
vn -1.907348E-06 5.774568E-14 1
vn -1.907348E-06 5.774568E-14 1
vn -1 3.027537E-08 -2.980227E-07
vn -1 1.513769E-08 -2.682204E-07
vn -1 1.513769E-08 -2.682204E-07
vn -1 0 -2.384182E-07
vn 4.57758E-06 0 -1
vn 4.57758E-06 0 -1
vn 4.57758E-06 0 -1
vn 4.57758E-06 0 -1
vn 1 0 0
vn 1 -2.424596E-08 -9.536749E-08
vn 1 -2.424596E-08 -9.536749E-08
vn 1 -4.849191E-08 -1.90735E-07
vn 0 1 0
vn 0 1 0
vn 0 1 0
vn 0 1 0
vn 0 -1 0
vn 0 -1 0
vn 0 -1 0
vn 0 -1 0
vn 0 -1 0
vn 0 -1 0
vn 0.7525826 0 -0.6584979
vn 0.7525826 0 -0.6584979
vn 0.7525826 0 -0.6584979
vn 0.7525826 0 -0.6584979
vn -1.907347E-06 2.887282E-14 1
vn -1.907347E-06 0 1
vn 0.4471696 0.89434 0.01397499
vn 0.4716572 0.88129 0.006987137
vn 0.4716572 0.88129 0.006987137
vn 0.4961448 0.8682398 -7.195977E-07
vn 0 -1 0
vn 0 -1 0
vn 4.577616E-06 0 -1
vn 4.577616E-06 0 -1
vn 4.577616E-06 0 -1
vn 4.577616E-06 0 -1
vn 0.6689637 0 0.7432951
vn 0.6689637 -1.081311E-08 0.7432952
vn 0.6689637 -1.081311E-08 0.7432952
vn 0.6689636 -2.162622E-08 0.7432952
vn 0 1 0
vn 0 1 0
vn 0 1 0
vn 0 1 0
g pb_Mesh46922_0
f 3/3/3 2/2/2 1/1/1
f 3/3/3 4/4/4 2/2/2
f 7/7/7 6/6/6 5/5/5
f 7/7/7 8/8/8 6/6/6
f 11/11/11 10/10/10 9/9/9
f 11/11/11 12/12/12 10/10/10
f 15/15/15 14/14/14 13/13/13
f 15/15/15 16/16/16 14/14/14
f 19/19/19 18/18/18 17/17/17
f 19/19/19 20/20/20 18/18/18
f 23/23/23 22/22/22 21/21/21
f 23/23/23 24/24/24 22/22/22
f 25/25/25 23/23/23 21/21/21
f 25/25/25 26/26/26 23/23/23
f 29/29/29 28/28/28 27/27/27
f 29/29/29 30/30/30 28/28/28
f 31/31/31 3/3/3 1/1/1
f 31/31/31 32/32/32 3/3/3
f 35/35/35 34/34/34 33/33/33
f 35/35/35 36/36/36 34/34/34
f 37/37/37 26/26/26 25/25/25
f 37/37/37 38/38/38 26/26/26
f 41/41/41 40/40/40 39/39/39
f 41/41/41 42/42/42 40/40/40
f 45/45/45 44/44/44 43/43/43
f 45/45/45 46/46/46 44/44/44
f 49/49/49 48/48/48 47/47/47
f 49/49/49 50/50/50 48/48/48
