g pb_Mesh3430842
v 0 4.366606 12.47163
v 0 5.912876 12.47163
v 4.77269 4.366606 11.52229
v 4.77269 5.912876 11.52229
v 4.77269 4.366606 11.52229
v 4.77269 5.912876 11.52229
v 8.818779 4.366606 8.818779
v 8.818779 5.912876 8.818779
v 8.818779 4.366606 8.818779
v 8.818779 5.912876 8.818779
v 11.52229 4.366606 4.77269
v 11.52229 5.912876 4.77269
v 11.52229 4.366606 4.77269
v 11.52229 5.912876 4.77269
v 12.47163 4.366606 0
v 12.47163 5.912876 0
v 12.47163 4.366606 0
v 12.47163 5.912876 0
v 11.52229 1.526371 -4.77269
v 11.52229 5.912876 -4.77269
v 11.52229 1.526371 -4.77269
v 11.52229 5.912876 -4.77269
v 8.818779 1.526371 -8.818779
v 8.818779 5.912876 -8.818779
v 8.818779 1.526371 -8.818779
v 8.818779 5.912876 -8.818779
v 4.77269 0.9513702 -11.52229
v 4.77269 5.912876 -11.52229
v 4.77269 0.9513702 -11.52229
v 4.77269 5.912876 -11.52229
v 0 0.9513702 -12.47163
v 0 5.912876 -12.47163
v 0 0.9513702 -12.47163
v 0 5.912876 -12.47163
v -4.77269 1.34359 -11.52229
v -4.77269 2.889858 -11.52229
v -4.77269 1.34359 -11.52229
v -4.77269 2.889858 -11.52229
v -8.818779 1.34359 -8.818779
v -8.818779 2.889858 -8.818779
v -8.818779 1.34359 -8.818779
v -8.818779 2.889858 -8.818779
v -11.52229 1.34359 -4.77269
v -11.52229 2.889858 -4.77269
v -11.52229 1.34359 -4.77269
v -11.52229 2.889858 -4.77269
v -12.47163 1.34359 0
v -12.47163 2.889858 0
v -12.47163 1.34359 0
v -12.47163 2.889858 0
v -11.52229 1.34359 4.77269
v -11.52229 2.889858 4.77269
v -11.52229 1.34359 4.77269
v -11.52229 2.889858 4.77269
v -8.818779 4.366606 8.818768
v -8.818779 5.912884 8.818768
v -8.818779 4.366606 8.818768
v -8.818779 5.912884 8.818768
v -4.77269 4.366606 11.52229
v -4.77269 5.912876 11.52229
v -4.77269 4.366606 11.52229
v -4.77269 5.912876 11.52229
v 0 4.366606 12.47163
v 0 5.912876 12.47163
v 0 6.934254 12.47163
v 4.77269 10.47363 11.52229
v 4.77269 10.47363 11.52229
v 8.818779 11.04863 8.818779
v 8.818779 5.912876 8.818779
v 8.818779 11.04863 8.818779
v 11.52229 5.912876 4.77269
v 11.52229 9.611132 4.77269
v 11.52229 5.912876 4.77269
v 11.52229 9.611132 4.77269
v 12.47163 5.912876 0
v 12.47163 9.036131 0
v 12.47163 9.036131 0
v 11.52229 7.459145 -4.77269
v 11.52229 5.912876 -4.77269
v 11.52229 7.459145 -4.77269
v 8.818779 5.912876 -8.818779
v 8.818779 8.290066 -8.818779
v 8.818779 8.290066 -8.818779
v 4.77269 7.482195 -11.52229
v 4.77269 7.482195 -11.52229
v 0 6.651276 -12.47163
v 0 6.651276 -12.47163
v -4.77269 4.436129 -11.52229
v -4.77269 4.436129 -11.52229
v -8.818779 4.436129 -8.818779
v -8.818779 4.436129 -8.818779
v -11.52229 4.436129 -4.77269
v -11.52229 4.436129 -4.77269
v -12.47163 4.436129 0
v -12.47163 4.436129 0
v -11.52229 4.436129 4.77269
v -11.52229 4.436129 4.77269
v -4.77269 6.161129 11.52229
v -4.77269 6.161129 11.52229
v 0 6.934254 12.47163
v 0 6.86475 10.27314
v 3.931366 10.40413 9.491142
v 0 6.934254 12.47163
v 4.77269 10.47363 11.52229
v 3.931366 10.40413 9.491142
v 7.264206 10.97913 7.264202
v 4.77269 10.47363 11.52229
v 8.818779 11.04863 8.818779
v -3.931358 6.091623 9.491142
v 0 6.86475 10.27314
v -4.77269 6.161129 11.52229
v 0 6.934254 12.47163
v -7.264206 5.843388 7.264202
v -3.931358 6.091623 9.491142
v -8.818779 5.912884 8.818768
v -4.77269 6.161129 11.52229
v -9.491142 4.366623 3.931362
v -7.264206 5.843388 7.264202
v -11.52229 4.436129 4.77269
v -8.818779 5.912884 8.818768
v -10.27313 4.366623 0
v -9.491142 4.366623 3.931362
v -12.47163 4.436129 0
v -11.52229 4.436129 4.77269
v -9.491142 4.366623 -3.931366
v -10.27313 4.366623 0
v -11.52229 4.436129 -4.77269
v -12.47163 4.436129 0
v -7.264206 4.366623 -7.264206
v -9.491142 4.366623 -3.931366
v -8.818779 4.436129 -8.818779
v -11.52229 4.436129 -4.77269
v -3.931358 4.366623 -9.491142
v -7.264206 4.366623 -7.264206
v -4.77269 4.436129 -11.52229
v -8.818779 4.436129 -8.818779
v 0 6.58177 -10.27314
v -3.931358 4.366623 -9.491142
v 0 6.651276 -12.47163
v -4.77269 4.436129 -11.52229
v 3.931366 7.412689 -9.491142
v 0 6.58177 -10.27314
v 4.77269 7.482195 -11.52229
v 0 6.651276 -12.47163
v 7.264206 8.22056 -7.264206
v 3.931366 7.412689 -9.491142
v 8.818779 8.290066 -8.818779
v 4.77269 7.482195 -11.52229
v 9.491142 7.389641 -3.931366
v 7.264206 8.22056 -7.264206
v 11.52229 7.459145 -4.77269
v 8.818779 8.290066 -8.818779
v 10.27314 8.966625 0
v 9.491142 7.389641 -3.931366
v 12.47163 9.036131 0
v 11.52229 7.459145 -4.77269
v 9.491142 9.541626 3.931358
v 10.27314 8.966625 0
v 11.52229 9.611132 4.77269
v 12.47163 9.036131 0
v 7.264206 10.97913 7.264202
v 9.491142 9.541626 3.931358
v 8.818779 11.04863 8.818779
v 11.52229 9.611132 4.77269
v -10.27313 1.41313 0
v -9.491142 4.366623 3.931362
v -10.27313 4.366623 0
v -9.491135 1.41313 3.931358
v -9.491135 1.41313 -3.931351
v -10.27313 4.366623 0
v -9.491142 4.366623 -3.931366
v -10.27313 1.41313 0
v -7.264206 1.41313 -7.264206
v -9.491142 4.366623 -3.931366
v -7.264206 4.366623 -7.264206
v -9.491135 1.41313 -3.931351
v -3.931358 1.41313 -9.491142
v -7.264206 4.366623 -7.264206
v -3.931358 4.366623 -9.491142
v -7.264206 1.41313 -7.264206
v 0 1.526371 -10.27314
v -3.931358 4.366623 -9.491142
v 0 6.58177 -10.27314
v -3.931358 1.41313 -9.491142
v 3.931351 1.526371 -9.491142
v 0 6.58177 -10.27314
v 3.931366 7.412689 -9.491142
v 0 1.526371 -10.27314
v 7.264206 2.101372 -7.264206
v 3.931366 7.412689 -9.491142
v 7.264206 8.22056 -7.264206
v 3.931351 1.526371 -9.491142
v 9.491142 2.101372 -3.931351
v 7.264206 8.22056 -7.264206
v 9.491142 7.389641 -3.931366
v 7.264206 2.101372 -7.264206
v 10.27314 4.436148 0
v 9.491142 7.389641 -3.931366
v 10.27314 8.966625 0
v 9.491142 2.101372 -3.931351
v 9.491135 4.436148 3.931358
v 10.27314 8.966625 0
v 9.491142 9.541626 3.931358
v 10.27314 4.436148 0
v 7.264206 4.436148 7.264198
v 9.491142 9.541626 3.931358
v 7.264206 10.97913 7.264202
v 9.491135 4.436148 3.931358
v 3.931351 4.436148 9.491142
v 7.264206 10.97913 7.264202
v 3.931366 10.40413 9.491142
v 7.264206 4.436148 7.264198
v 0 4.436148 10.27314
v 3.931366 10.40413 9.491142
v 0 6.86475 10.27314
v 3.931351 4.436148 9.491142
v -3.931358 4.436148 9.491142
v 0 6.86475 10.27314
v -3.931358 6.091623 9.491142
v 0 4.436148 10.27314
v -7.264206 4.436148 7.264198
v -3.931358 6.091623 9.491142
v -7.264206 5.843388 7.264202
v -3.931358 4.436148 9.491142
v -9.491135 1.41313 3.931358
v -7.264206 5.843388 7.264202
v -9.491142 4.366623 3.931362
v -7.264206 4.436148 7.264198
vt -2.433078 4.366606
vt -2.433078 5.912876
vt 2.433113 4.366606
vt 2.433113 5.912876
vt -2.433084 4.366606
vt -2.433084 5.912876
vt 2.433104 4.366606
vt 2.433104 5.912876
vt -2.433104 4.366606
vt -2.433104 5.912876
vt 2.433084 4.366606
vt 2.433084 5.912876
vt -2.433113 4.366606
vt -2.433113 5.912876
vt 2.433078 4.366606
vt 2.433078 5.912876
vt -2.433078 4.366606
vt -2.433078 5.912876
vt 2.433113 1.526371
vt 2.433113 5.912876
vt -2.433084 1.526371
vt -2.433084 5.912876
vt 2.433104 1.526371
vt 2.433104 5.912876
vt -2.433104 1.526371
vt -2.433104 5.912876
vt 2.433084 0.9513702
vt 2.433084 5.912876
vt -2.433113 0.9513702
vt -2.433113 5.912876
vt 2.433078 0.9513702
vt 2.433078 5.912876
vt -2.433078 0.9513702
vt -2.433078 5.912876
vt 2.433113 1.34359
vt 2.433113 2.889858
vt -2.433084 1.34359
vt -2.433084 2.889858
vt 2.433103 1.34359
vt 2.433103 2.889858
vt -2.433103 1.34359
vt -2.433103 2.889858
vt 2.433084 1.34359
vt 2.433084 2.889858
vt -2.433113 1.34359
vt -2.433113 2.889858
vt 2.433078 1.34359
vt 2.433078 2.889858
vt -2.433078 1.34359
vt -2.433078 2.889858
vt 2.433113 1.34359
vt 2.433113 2.889858
vt -2.4331 1.34359
vt -2.4331 2.889858
vt 2.433078 4.366606
vt 2.433078 5.912884
vt -2.433086 4.366606
vt -2.433086 5.912884
vt 2.433108 4.366606
vt 2.433108 5.912876
vt -2.433113 4.366606
vt -2.433113 5.912876
vt 2.433078 4.366606
vt 2.433078 5.912876
vt -2.433078 6.934254
vt 2.433113 10.47363
vt -2.433084 10.47363
vt 2.433104 11.04863
vt -2.433104 5.912876
vt -2.433104 11.04863
vt 2.433084 5.912876
vt 2.433084 9.611132
vt -2.433113 5.912876
vt -2.433113 9.611132
vt 2.433078 5.912876
vt 2.433078 9.036131
vt -2.433078 9.036131
vt 2.433113 7.459145
vt -2.433084 5.912876
vt -2.433084 7.459145
vt 2.433103 5.912876
vt 2.433103 8.290066
vt -2.433104 8.290066
vt 2.433084 7.482195
vt -2.433113 7.482195
vt 2.433078 6.651276
vt -2.433078 6.651276
vt 2.433113 4.436129
vt -2.433084 4.436129
vt 2.433104 4.436129
vt -2.433104 4.436129
vt 2.433084 4.436129
vt -2.433113 4.436129
vt 2.433078 4.436129
vt -2.433078 4.436129
vt 2.433113 4.436129
vt -2.4331 4.436129
vt 2.433108 6.161129
vt -2.433113 6.161129
vt 2.433078 6.934254
vt -4.610736 10.38941
vt -9.900584 9.607199
vt -4.657418 12.5885
vt -10.57058 11.62576
vt -5.459996 9.20793
vt -8.841464 6.980064
vt -6.302153 11.23992
vt -10.38866 8.538793
vt 2.819852 10.13822
vt -1.18596 10.92453
vt 3.636525 12.18058
vt -1.197967 13.11811
vt 7.105401 7.675713
vt 3.767108 9.908326
vt 8.65756 9.234239
vt 4.606281 11.94086
vt 8.919683 5.549742
vt 6.536285 9.094783
vt 10.929 6.444636
vt 8.072263 10.64135
vt 10.40598 0.02539157
vt 9.624385 3.956831
vt 12.60558 0.02539157
vt 11.65671 4.798176
vt 9.624385 -3.956835
vt 10.40598 -0.02539157
vt 11.65671 -4.798176
vt 12.60558 -0.02539157
vt 7.37859 -7.33769
vt 9.604727 -4.004316
vt 8.934467 -8.892512
vt 11.637 -4.845775
vt 4.008915 -9.602806
vt 7.341228 -7.37507
vt 4.851357 -11.63468
vt 8.896797 -8.930201
vt -3.203468 -10.42795
vt 1.308958 -9.645658
vt -3.237298 -12.62728
vt 2.010081 -11.68901
vt -5.318485 -9.167027
vt -1.300446 -9.949936
vt -6.156957 -11.20054
vt -1.314179 -12.14258
vt -8.493537 -6.408485
vt -5.074087 -8.650601
vt -10.039 -7.973655
vt -5.91562 -10.67577
vt -9.078235 -5.488211
vt -6.809677 -8.895722
vt -11.10266 -6.348384
vt -8.358228 -10.44816
vt -10.55135 3.170757
vt -9.719912 -1.055678
vt -12.75094 3.170757
vt -11.75224 -1.836324
vt -9.255998 5.260255
vt -10.05176 1.289804
vt -11.28485 6.109952
vt -12.24791 1.307024
vt -4.597914 10.22225
vt -7.091895 6.770644
vt -6.096657 11.83222
vt -9.054904 7.719891
vt 2.004173 1.41313
vt -2.004208 4.366623
vt 2.004173 4.366623
vt -2.004206 1.41313
vt 2.0042 1.413165
vt -2.004171 4.366659
vt 2.004214 4.366659
vt -2.004171 1.413165
vt 2.004182 1.41313
vt -2.004193 4.366623
vt 2.004182 4.366623
vt -2.004201 1.41313
vt 2.004189 1.41313
vt -2.004192 4.366623
vt 2.004189 4.366623
vt -2.004192 1.41313
vt 2.004195 1.526371
vt -2.004184 4.366623
vt 2.004195 6.58177
vt -2.004184 1.41313
vt 2.004179 1.526376
vt -2.004192 6.581775
vt 2.004194 7.412694
vt -2.004192 1.526376
vt 2.004182 2.101372
vt -2.004193 7.412689
vt 2.004182 8.22056
vt -2.004205 1.526371
vt 2.00421 2.101388
vt -2.004178 8.220576
vt 2.004197 7.389657
vt -2.004178 2.101388
vt 2.004191 4.436148
vt -2.004195 7.389641
vt 2.004191 8.966625
vt -2.00418 2.101372
vt 2.004183 4.436162
vt -2.004197 8.96664
vt 2.004182 9.54164
vt -2.004197 4.436162
vt 2.00418 4.436151
vt -2.004195 9.541629
vt 2.004183 10.97913
vt -2.004191 4.436151
vt 2.004215 4.436162
vt -2.004174 10.97914
vt 2.004203 10.40414
vt -2.004176 4.436162
vt 2.004181 4.436148
vt -2.004205 10.40413
vt 2.004181 6.86475
vt -2.004189 4.436148
vt 2.004193 4.436148
vt -2.004185 6.86475
vt 2.004193 6.091623
vt -2.004185 4.436148
vt 2.004189 4.436171
vt -2.004196 6.091646
vt 2.004188 5.84341
vt -2.004196 4.436171
vt 2.004206 1.413159
vt -2.004168 5.843417
vt 2.004207 4.366652
vt -2.004165 4.436177
vn 0 0 1
vn 0 0 1
vn 0.3826826 0 0.9238799
vn 0.3826826 0 0.9238799
vn 0.3826826 0 0.9238799
vn 0.3826826 0 0.9238799
vn 0.7071068 0 0.7071068
vn 0.7071068 0 0.7071068
vn 0.7071068 0 0.7071068
vn 0.7071068 0 0.7071068
vn 0.9238799 0 0.3826826
vn 0.9238799 0 0.3826826
vn 0.9238799 0 0.3826826
vn 0.9238799 0 0.3826826
vn 1 0 0
vn 1 0 0
vn 1 0 0
vn 1 0 0
vn 0.9238799 0 -0.3826826
vn 0.9238799 0 -0.3826826
vn 0.9238799 0 -0.3826826
vn 0.9238799 0 -0.3826826
vn 0.7071068 0 -0.7071068
vn 0.7071068 0 -0.7071068
vn 0.7071068 0 -0.7071068
vn 0.7071068 0 -0.7071068
vn 0.3826826 0 -0.9238799
vn 0.3826826 0 -0.9238799
vn 0.3826826 0 -0.9238799
vn 0.3826826 0 -0.9238799
vn 0 0 -1
vn 3.798272E-09 0 -1
vn 0 0 -1
vn 3.798272E-09 0 -1
vn -0.3826826 0 -0.9238799
vn -0.3826826 0 -0.9238799
vn -0.3826826 0 -0.9238799
vn -0.3826826 0 -0.9238799
vn -0.7071068 0 -0.7071068
vn -0.7071068 0 -0.7071068
vn -0.7071068 0 -0.7071068
vn -0.7071068 0 -0.7071068
vn -0.9238799 0 -0.3826826
vn -0.9238799 0 -0.3826826
vn -0.9238799 0 -0.3826826
vn -0.9238799 0 -0.3826826
vn -1 0 0
vn -1 0 0
vn -1 0 0
vn -1 0 0
vn -0.9238797 0 0.3826832
vn -0.9238797 0 0.3826832
vn -0.9238797 0 0.3826832
vn -0.9238797 0 0.3826832
vn -0.707107 0 0.7071065
vn -0.707107 0 0.7071065
vn -0.707107 0 0.7071065
vn -0.707107 0 0.7071065
vn -0.3826835 0 0.9238796
vn -0.3826835 0 0.9238796
vn -0.3826835 0 0.9238796
vn -0.3826835 0 0.9238796
vn 0 0 1
vn 0 0 1
vn 0 0 1
vn 0.3826826 0 0.9238799
vn 0.3826826 0 0.9238799
vn 0.7071068 0 0.7071068
vn 0.7071068 0 0.7071068
vn 0.7071068 0 0.7071068
vn 0.9238799 0 0.3826826
vn 0.9238799 0 0.3826826
vn 0.9238799 0 0.3826826
vn 0.9238799 0 0.3826826
vn 1 0 0
vn 1 0 0
vn 1 0 0
vn 0.9238799 0 -0.3826826
vn 0.9238799 0 -0.3826826
vn 0.9238799 0 -0.3826826
vn 0.7071068 0 -0.7071068
vn 0.7071068 0 -0.7071068
vn 0.7071068 0 -0.7071068
vn 0.3826826 0 -0.9238799
vn 0.3826826 0 -0.9238799
vn -7.596544E-09 0 -1
vn -7.596544E-09 0 -1
vn -0.3826826 0 -0.9238799
vn -0.3826826 0 -0.9238799
vn -0.7071068 0 -0.7071068
vn -0.7071068 0 -0.7071068
vn -0.9238799 0 -0.3826826
vn -0.9238799 0 -0.3826826
vn -1 0 0
vn -1 0 0
vn -0.9238797 0 0.3826832
vn -0.9238797 0 0.3826832
vn -0.3826835 0 0.9238796
vn -0.3826835 0 0.9238796
vn 0 0 1
vn -0.6714697 0.740662 -0.02341553
vn -0.6141688 0.7730244 0.08984275
vn -0.6141688 0.7730244 0.08984275
vn -0.5568679 0.805387 0.203101
vn -0.1512111 0.9880813 0.02882131
vn -0.1267968 0.9905676 0.04340189
vn -0.1267968 0.9905676 0.04340189
vn -0.1023825 0.9930538 0.05798248
vn -0.1718115 0.9795517 -0.1046873
vn -0.1627919 0.9835823 -0.067955
vn -0.1627919 0.9835823 -0.067955
vn -0.1537722 0.9876129 -0.03122272
vn -0.02666474 0.9971027 -0.0712399
vn -0.02838202 0.9977806 -0.05893736
vn -0.02838202 0.9977806 -0.05893736
vn -0.0300993 0.9984584 -0.04663483
vn -0.1092038 0.9337776 -0.3407844
vn -0.1464283 0.9451689 -0.2836004
vn -0.1464283 0.9451689 -0.2836004
vn -0.1836529 0.9565601 -0.2264164
vn 0.03159873 0.9994809 -0.006285326
vn 0.03159874 0.9994809 -0.006285333
vn 0.03159874 0.9994809 -0.006285333
vn 0.03159875 0.9994809 -0.006285341
vn 0.03159877 0.9994809 0.006285327
vn 0.03159875 0.9994809 0.006285332
vn 0.03159875 0.9994809 0.006285332
vn 0.03159873 0.9994809 0.006285336
vn 0.02678804 0.9994809 0.01789922
vn 0.02678809 0.9994809 0.01789923
vn 0.02678809 0.9994809 0.01789923
vn 0.02678814 0.9994809 0.01789924
vn 0.01789922 0.9994809 0.02678808
vn 0.0178992 0.9994809 0.02678808
vn 0.0178992 0.9994809 0.02678808
vn 0.01789919 0.9994809 0.02678807
vn -0.4865329 0.873226 0.02760726
vn -0.4343489 0.8888669 0.1084291
vn -0.4343489 0.8888669 0.1084291
vn -0.3821648 0.9045077 0.1892509
vn -0.1973531 0.9791449 -0.04823967
vn -0.1873947 0.9813929 -0.008570811
vn -0.1873947 0.9813929 -0.008570811
vn -0.1774364 0.9836408 0.03109805
vn -0.1599929 0.9802592 -0.116165
vn -0.1657889 0.9823595 -0.07677467
vn -0.1657889 0.9823595 -0.07677467
vn -0.1715849 0.9844598 -0.03738431
vn 0.05281896 0.9766589 0.2082009
vn 0.07387482 0.9811951 0.173602
vn 0.07387482 0.9811951 0.173602
vn 0.09493068 0.9857314 0.1390032
vn -0.02939335 0.9297205 -0.3670911
vn -0.08956123 0.9385076 -0.3251561
vn -0.08956123 0.9385076 -0.3251561
vn -0.1497291 0.9472946 -0.2832212
vn 0.02410948 0.9898606 -0.1399814
vn -0.003619676 0.9907169 -0.1328395
vn -0.003619676 0.9907169 -0.1328395
vn -0.03134884 0.9915732 -0.1256977
vn 0.2180003 0.9406626 -0.2600571
vn 0.1512575 0.9480311 -0.271511
vn 0.1512575 0.9480311 -0.271511
vn 0.08451471 0.9553995 -0.2829648
vn 0.9807854 1.392759E-06 -0.1950898
vn 0.9807854 1.392759E-06 -0.1950898
vn 0.9807856 0 -0.1950888
vn 0.9807852 2.785519E-06 -0.1950908
vn 0.9807854 1.77072E-06 0.1950899
vn 0.9807854 1.77072E-06 0.1950899
vn 0.9807857 3.541439E-06 0.1950886
vn 0.9807851 0 0.1950911
vn 0.8314703 2.509048E-06 0.5555694
vn 0.8314703 2.509048E-06 0.5555694
vn 0.8314692 0 0.5555709
vn 0.8314713 5.018097E-06 0.5555679
vn 0.5555701 0 0.8314698
vn 0.5555701 0 0.8314698
vn 0.5555701 0 0.8314698
vn 0.5555701 0 0.8314698
vn 0.1950908 0 0.9807852
vn 0.1950908 0 0.9807852
vn 0.1950908 0 0.9807852
vn 0.1950908 0 0.9807852
vn -0.1950908 2.528614E-07 0.9807852
vn -0.1950908 2.528614E-07 0.9807852
vn -0.1950905 5.057228E-07 0.9807853
vn -0.1950911 0 0.9807851
vn -0.5555701 7.200863E-07 0.8314697
vn -0.5555701 7.200863E-07 0.8314697
vn -0.5555709 0 0.8314692
vn -0.5555693 1.440173E-06 0.8314703
vn -0.8314697 8.015235E-07 0.5555702
vn -0.8314697 8.015235E-07 0.5555702
vn -0.831469 1.603047E-06 0.5555713
vn -0.8314704 0 0.5555692
vn -0.9807853 2.814579E-07 0.1950906
vn -0.9807853 2.814579E-07 0.1950906
vn -0.9807853 0 0.1950904
vn -0.9807852 5.629157E-07 0.1950908
vn -0.980785 7.328204E-07 -0.1950918
vn -0.980785 7.328204E-07 -0.1950918
vn -0.9807852 1.465641E-06 -0.195091
vn -0.9807848 0 -0.1950926
vn -0.8314698 7.832103E-07 -0.5555701
vn -0.8314698 7.832103E-07 -0.5555701
vn -0.8314694 3.239096E-07 -0.5555705
vn -0.8314701 1.242511E-06 -0.5555696
vn -0.5555711 9.526187E-07 -0.8314691
vn -0.5555711 9.526187E-07 -0.8314691
vn -0.5555717 1.420473E-06 -0.8314686
vn -0.5555705 4.847647E-07 -0.8314695
vn -0.1950899 2.49401E-07 -0.9807854
vn -0.1950899 2.49401E-07 -0.9807854
vn -0.1950895 0 -0.9807855
vn -0.1950902 4.988021E-07 -0.9807853
vn 0.1950899 0 -0.9807854
vn 0.1950899 0 -0.9807854
vn 0.1950899 0 -0.9807854
vn 0.1950899 0 -0.9807854
vn 0.555571 1.126959E-06 -0.8314691
vn 0.555571 1.126959E-06 -0.8314691
vn 0.5555706 2.253918E-06 -0.8314694
vn 0.5555713 0 -0.8314689
vn 0.8314691 2.185711E-06 -0.5555712
vn 0.8314691 2.185711E-06 -0.5555712
vn 0.8314686 2.8654E-06 -0.5555718
vn 0.8314695 1.506021E-06 -0.5555705
g pb_Mesh3430842_0
f 3/3/3 2/2/2 1/1/1
f 3/3/3 4/4/4 2/2/2
f 7/7/7 6/6/6 5/5/5
f 7/7/7 8/8/8 6/6/6
f 11/11/11 10/10/10 9/9/9
f 11/11/11 12/12/12 10/10/10
f 15/15/15 14/14/14 13/13/13
f 15/15/15 16/16/16 14/14/14
f 19/19/19 18/18/18 17/17/17
f 19/19/19 20/20/20 18/18/18
f 23/23/23 22/22/22 21/21/21
f 23/23/23 24/24/24 22/22/22
f 27/27/27 26/26/26 25/25/25
f 27/27/27 28/28/28 26/26/26
f 31/31/31 30/30/30 29/29/29
f 31/31/31 32/32/32 30/30/30
f 35/35/35 34/34/34 33/33/33
f 35/35/35 36/36/36 34/34/34
f 39/39/39 38/38/38 37/37/37
f 39/39/39 40/40/40 38/38/38
f 43/43/43 42/42/42 41/41/41
f 43/43/43 44/44/44 42/42/42
f 47/47/47 46/46/46 45/45/45
f 47/47/47 48/48/48 46/46/46
f 51/51/51 50/50/50 49/49/49
f 51/51/51 52/52/52 50/50/50
f 55/55/55 54/54/54 53/53/53
f 55/55/55 56/56/56 54/54/54
f 59/59/59 58/58/58 57/57/57
f 59/59/59 60/60/60 58/58/58
f 63/63/63 62/62/62 61/61/61
f 63/63/63 64/64/64 62/62/62
f 4/4/4 65/65/65 2/2/2
f 4/4/4 66/66/66 65/65/65
f 8/8/8 67/67/67 6/6/6
f 8/8/8 68/68/68 67/67/67
f 71/71/71 70/70/70 69/69/69
f 71/71/71 72/72/72 70/70/70
f 75/75/75 74/74/74 73/73/73
f 75/75/75 76/76/76 74/74/74
f 20/20/20 77/77/77 18/18/18
f 20/20/20 78/78/78 77/77/77
f 81/81/81 80/80/80 79/79/79
f 81/81/81 82/82/82 80/80/80
f 28/28/28 83/83/83 26/26/26
f 28/28/28 84/84/84 83/83/83
f 32/32/32 85/85/85 30/30/30
f 32/32/32 86/86/86 85/85/85
f 36/36/36 87/87/87 34/34/34
f 36/36/36 88/88/88 87/87/87
f 40/40/40 89/89/89 38/38/38
f 40/40/40 90/90/90 89/89/89
f 44/44/44 91/91/91 42/42/42
f 44/44/44 92/92/92 91/91/91
f 48/48/48 93/93/93 46/46/46
f 48/48/48 94/94/94 93/93/93
f 52/52/52 95/95/95 50/50/50
f 52/52/52 96/96/96 95/95/95
f 56/56/56 97/97/97 54/54/54
f 60/60/60 98/98/98 58/58/58
f 64/64/64 99/99/99 62/62/62
f 64/64/64 100/100/100 99/99/99
f 103/103/103 102/102/102 101/101/101
f 103/103/103 104/104/104 102/102/102
f 107/107/107 106/106/106 105/105/105
f 107/107/107 108/108/108 106/106/106
f 111/111/111 110/110/110 109/109/109
f 111/111/111 112/112/112 110/110/110
f 115/115/115 114/114/114 113/113/113
f 115/115/115 116/116/116 114/114/114
f 119/119/119 118/118/118 117/117/117
f 119/119/119 120/120/120 118/118/118
f 123/123/123 122/122/122 121/121/121
f 123/123/123 124/124/124 122/122/122
f 127/127/127 126/126/126 125/125/125
f 127/127/127 128/128/128 126/126/126
f 131/131/131 130/130/130 129/129/129
f 131/131/131 132/132/132 130/130/130
f 135/135/135 134/134/134 133/133/133
f 135/135/135 136/136/136 134/134/134
f 139/139/139 138/138/138 137/137/137
f 139/139/139 140/140/140 138/138/138
f 143/143/143 142/142/142 141/141/141
f 143/143/143 144/144/144 142/142/142
f 147/147/147 146/146/146 145/145/145
f 147/147/147 148/148/148 146/146/146
f 151/151/151 150/150/150 149/149/149
f 151/151/151 152/152/152 150/150/150
f 155/155/155 154/154/154 153/153/153
f 155/155/155 156/156/156 154/154/154
f 159/159/159 158/158/158 157/157/157
f 159/159/159 160/160/160 158/158/158
f 163/163/163 162/162/162 161/161/161
f 163/163/163 164/164/164 162/162/162
f 167/167/167 166/166/166 165/165/165
f 166/166/166 168/168/168 165/165/165
f 171/171/171 170/170/170 169/169/169
f 170/170/170 172/172/172 169/169/169
f 175/175/175 174/174/174 173/173/173
f 174/174/174 176/176/176 173/173/173
f 179/179/179 178/178/178 177/177/177
f 178/178/178 180/180/180 177/177/177
f 183/183/183 182/182/182 181/181/181
f 182/182/182 184/184/184 181/181/181
f 187/187/187 186/186/186 185/185/185
f 186/186/186 188/188/188 185/185/185
f 191/191/191 190/190/190 189/189/189
f 190/190/190 192/192/192 189/189/189
f 195/195/195 194/194/194 193/193/193
f 194/194/194 196/196/196 193/193/193
f 199/199/199 198/198/198 197/197/197
f 198/198/198 200/200/200 197/197/197
f 203/203/203 202/202/202 201/201/201
f 202/202/202 204/204/204 201/201/201
f 207/207/207 206/206/206 205/205/205
f 206/206/206 208/208/208 205/205/205
f 211/211/211 210/210/210 209/209/209
f 210/210/210 212/212/212 209/209/209
f 215/215/215 214/214/214 213/213/213
f 214/214/214 216/216/216 213/213/213
f 219/219/219 218/218/218 217/217/217
f 218/218/218 220/220/220 217/217/217
f 223/223/223 222/222/222 221/221/221
f 222/222/222 224/224/224 221/221/221
f 227/227/227 226/226/226 225/225/225
f 226/226/226 228/228/228 225/225/225
g pb_Mesh3430842_1
