g pb_Mesh133432
v 0 0 4
v -6 0 4
v -1 4 3
v -5 4 3
v -6 0 4
v -6 0 -2
v -5 4 3
v -5 4 -1
v -6 0 -2
v 0 0 -2
v -5 4 -1
v -1 4 -1
v 0 0 -2
v 0 0 4
v -1 4 -1
v -1 4 3
v -1 4 3
v -5 4 3
v -1 4 -1
v -5 4 -1
vt 6 0
vt 0 0
vt 5 4.123106
vt 1 4.123106
vt 6 0
vt 0 0
vt 5 4.123106
vt 1 4.123106
vt 6 0
vt 0 0
vt 5 4.123106
vt 1 4.123106
vt 6 0
vt 0 0
vt 5 4.123106
vt 1 4.123106
vt 0 4
vt 4 4
vt 0 0
vt 4 0
vn 0 0.2425356 0.9701425
vn 0 0.2425356 0.9701425
vn 0 0.2425356 0.9701425
vn 0 0.2425356 0.9701425
vn -0.9701425 0.2425356 0
vn -0.9701425 0.2425356 0
vn -0.9701425 0.2425356 0
vn -0.9701425 0.2425356 0
vn 0 0.2425356 -0.9701425
vn 0 0.2425356 -0.9701425
vn 0 0.2425356 -0.9701425
vn 0 0.2425356 -0.9701425
vn 0.9701425 0.2425356 0
vn 0.9701425 0.2425356 0
vn 0.9701425 0.2425356 0
vn 0.9701425 0.2425356 0
vn 0 1 0
vn 0 1 0
vn 0 1 0
vn 0 1 0
g pb_Mesh133432_0
f 3/3/3 2/2/2 1/1/1
f 3/3/3 4/4/4 2/2/2
f 7/7/7 6/6/6 5/5/5
f 7/7/7 8/8/8 6/6/6
f 11/11/11 10/10/10 9/9/9
f 11/11/11 12/12/12 10/10/10
f 15/15/15 14/14/14 13/13/13
f 15/15/15 16/16/16 14/14/14
g pb_Mesh133432_1
f 19/19/19 18/18/18 17/17/17
f 19/19/19 20/20/20 18/18/18
