g pb_Mesh124642
v 4 -1.19352E-08 0
v 3 -1.232753E-07 -1
v 0 -1.779352E-08 0
v 0 -1.174138E-07 -1
v 3 -2.346157E-07 -2
v 3 -3.693963E-07 -3
v 4 -9.495393E-07 -8
v 3 -7.385779E-07 -6
v 3 -4.674613E-06 -7
v 2 -4.662892E-06 -7
v 1 -7.268569E-07 -6
v 1 -1.201519E-06 -10
v 2 -1.201519E-06 -10
v 1 -1.31872E-06 -11
v 3 -1.20152E-06 -10
v 4 -1.312861E-06 -11
v 4 -1.19566E-06 -10
v 4 -1.0726E-06 -9
v 3 -1.078459E-06 -9
v 3 -9.612588E-07 -8
v 2 -3.752559E-07 -3
v 1 -2.404749E-07 -2
v 1 -4.690158E-07 -4
v 2 -4.865964E-07 -4
v 1 -6.037964E-07 -5
v 2 -5.920769E-07 -5
v 1.000018 1.000001 -4.999997
v 2.000019 1.000001 -4.999993
v 2.000015 1.000001 -3.999993
v 1.000015 1.000001 -3.999997
v 2.000011 1.000001 -2.999993
v 1.000007 1.000001 -1.999997
v 3.000007 1.000001 -1.999989
v 3.000011 1.000001 -2.99999
v 3.000026 1.000001 -6.99999
v 3.00003 1.000002 -7.99999
v 4.00003 1.000002 -7.999986
v 3.000034 1.000002 -8.99999
v 3.000037 1.000002 -9.99999
v 4.000034 1.000002 -8.999987
v 4.000038 1.000002 -9.999987
v 4.000041 1.000002 -10.99999
v 1.000041 1.000002 -11
v 2.000037 1.000002 -9.999994
v 1.000037 1.000002 -9.999998
v 2.000026 1.000001 -6.999994
v 1.000022 1.000001 -5.999998
v 3.000022 1.000001 -5.99999
v 4 1.000001 1.467485E-05
v 3.000003 1.000001 -0.9999892
v -4.139893E-07 1 -4.784592E-07
v 3.374337E-06 1.000001 -1.000001
v 1 -6.037964E-07 -5
v 2 -5.920769E-07 -5
v 1.000018 1.000001 -4.999997
v 2.000019 1.000001 -4.999993
v 2 -5.920769E-07 -5
v 2 -4.865964E-07 -4
v 2.000019 1.000001 -4.999993
v 2.000015 1.000001 -3.999993
v 1 -4.690158E-07 -4
v 1 -6.037964E-07 -5
v 1.000015 1.000001 -3.999997
v 1.000018 1.000001 -4.999997
v 2 -3.752559E-07 -3
v 2.000011 1.000001 -2.999993
v 1 -2.404749E-07 -2
v 1.000007 1.000001 -1.999997
v 3 -2.346157E-07 -2
v 1 -2.404749E-07 -2
v 3.000007 1.000001 -1.999989
v 1.000007 1.000001 -1.999997
v 2 -3.752559E-07 -3
v 3 -3.693963E-07 -3
v 2.000011 1.000001 -2.999993
v 3.000011 1.000001 -2.99999
v 3 -4.674613E-06 -7
v 3 -9.612588E-07 -8
v 3.000026 1.000001 -6.99999
v 3.00003 1.000002 -7.99999
v 3 -9.612588E-07 -8
v 4 -9.495393E-07 -8
v 3.00003 1.000002 -7.99999
v 4.00003 1.000002 -7.999986
v 3 -1.078459E-06 -9
v 3 -1.20152E-06 -10
v 3.000034 1.000002 -8.99999
v 3.000037 1.000002 -9.99999
v 4 -1.0726E-06 -9
v 3 -1.078459E-06 -9
v 4.000034 1.000002 -8.999987
v 3.000034 1.000002 -8.99999
v 4 -1.19566E-06 -10
v 4 -1.0726E-06 -9
v 4.000038 1.000002 -9.999987
v 4.000034 1.000002 -8.999987
v 4 -1.312861E-06 -11
v 4.000041 1.000002 -10.99999
v 1 -1.31872E-06 -11
v 4 -1.312861E-06 -11
v 1.000041 1.000002 -11
v 4.000041 1.000002 -10.99999
v 3 -1.20152E-06 -10
v 2 -1.201519E-06 -10
v 3.000037 1.000002 -9.99999
v 2.000037 1.000002 -9.999994
v 1 -1.201519E-06 -10
v 1 -1.31872E-06 -11
v 1.000037 1.000002 -9.999998
v 1.000041 1.000002 -11
v 2 -1.201519E-06 -10
v 2 -4.662892E-06 -7
v 2.000037 1.000002 -9.999994
v 2.000026 1.000001 -6.999994
v 1 -7.268569E-07 -6
v 1.000022 1.000001 -5.999998
v 3 -7.385779E-07 -6
v 1 -7.268569E-07 -6
v 3.000022 1.000001 -5.99999
v 1.000022 1.000001 -5.999998
v 2 -4.662892E-06 -7
v 3 -4.674613E-06 -7
v 2.000026 1.000001 -6.999994
v 3.000026 1.000001 -6.99999
v 3 -3.693963E-07 -3
v 3 -7.385779E-07 -6
v 3.000011 1.000001 -2.99999
v 3.000022 1.000001 -5.99999
v 4 -9.495393E-07 -8
v 4 -1.19352E-08 0
v 4.00003 1.000002 -7.999986
v 4 1.000001 1.467485E-05
v 3 -1.232753E-07 -1
v 3 -2.346157E-07 -2
v 3.000003 1.000001 -0.9999892
v 3.000007 1.000001 -1.999989
v 0 -1.779352E-08 0
v 0 -1.174138E-07 -1
v -4.139893E-07 1 -4.784592E-07
v 3.374337E-06 1.000001 -1.000001
v 0 -1.174138E-07 -1
v 3 -1.232753E-07 -1
v 3.374337E-06 1.000001 -1.000001
v 3.000003 1.000001 -0.9999892
v 4 -1.19352E-08 0
v 0 -1.779352E-08 0
v 4 1.000001 1.467485E-05
v -4.139893E-07 1 -4.784592E-07
vt 4 6.352413E-15
vt 3 -1
vt 2.481569E-16 -2.57765E-15
vt 1.637509E-15 -1
vt 3 -2
vt 3 -3
vt 4 -8
vt 3 -6
vt 3 -7
vt 2 -7
vt 1 -6
vt 1 -10
vt 2 -10
vt 1 -11
vt 3 -10
vt 4 -11
vt 4 -10
vt 4 -9
vt 3 -9
vt 3 -8
vt 2 -3
vt 1 -2
vt 1 -4
vt 2 -4
vt 1 -5
vt 2 -5
vt -1.000018 -4.999997
vt -2.000019 -4.999993
vt -2.000015 -3.999993
vt -1.000015 -3.999997
vt -2.000011 -2.999993
vt -1.000007 -1.999997
vt -3.000007 -1.99999
vt -3.000011 -2.99999
vt -3.000026 -6.99999
vt -3.00003 -7.99999
vt -4.00003 -7.999986
vt -3.000034 -8.99999
vt -3.000037 -9.99999
vt -4.000034 -8.999987
vt -4.000038 -9.999987
vt -4.000041 -10.99999
vt -1.000041 -11
vt -2.000037 -9.999994
vt -1.000037 -9.999998
vt -2.000026 -6.999994
vt -1.000022 -5.999998
vt -3.000022 -5.99999
vt -4 1.455746E-05
vt -3.000003 -0.9999893
vt 3.701506E-07 -5.958415E-07
vt -3.418176E-06 -1.000001
vt -1 -1.490889E-05
vt -2 -1.489717E-05
vt -1.000018 0.9999868
vt -2.000019 0.9999868
vt 5 3.660116E-05
vt 4 3.670664E-05
vt 4.999993 1.000038
vt 3.999993 1.000038
vt -4 1.431292E-05
vt -5 1.417813E-05
vt -3.999997 1.000016
vt -4.999997 1.000016
vt 3 2.918861E-05
vt 2.999993 1.00003
vt -2 6.912076E-06
vt -1.999997 1.000008
vt 3 -2.145384E-05
vt 1 -2.14597E-05
vt 3.000007 0.9999796
vt 1.000007 0.9999795
vt -2 -2.040239E-05
vt -3 -2.039653E-05
vt -2.000011 0.9999808
vt -3.000011 0.9999809
vt -7 7.328779E-05
vt -8 7.700114E-05
vt -6.99999 1.000079
vt -7.99999 1.00008
vt -3 -8.106969E-05
vt -4 -8.105798E-05
vt -3.00003 0.9999214
vt -4.00003 0.9999214
vt -9 9.977233E-05
vt -10 9.964927E-05
vt -8.99999 1.000103
vt -9.99999 1.000103
vt 4 -0.0001212352
vt 3 -0.0001212411
vt 4.000034 0.9998815
vt 3.000034 0.9998815
vt 10 0.0001494844
vt 9 0.0001496075
vt 9.999987 1.000152
vt 8.999987 1.000152
vt 11 0.0001646259
vt 10.99999 1.000168
vt -1 -2.229949E-05
vt -4 -2.229363E-05
vt -1.000041 0.9999808
vt -4.000041 0.9999809
vt 3 -9.656867E-05
vt 2 -9.656867E-05
vt 3.000037 0.9999064
vt 2.000037 0.9999063
vt -10 3.623009E-05
vt -11 3.611289E-05
vt -9.999998 1.000039
vt -11 1.000039
vt 10 7.36617E-05
vt 7 7.020033E-05
vt 9.999994 1.000077
vt 6.999994 1.000076
vt -6 2.156524E-05
vt -5.999998 1.000023
vt 3 -6.081994E-05
vt 1 -6.080822E-05
vt 3.000022 0.9999412
vt 1.000022 0.9999411
vt -2 -4.805482E-05
vt -3 -4.806654E-05
vt -2.000026 0.9999579
vt -3.000026 0.999958
vt -3 3.253233E-05
vt -6 3.216315E-05
vt -2.99999 1.000034
vt -5.99999 1.000034
vt 8 0.0001192131
vt 1.408313E-11 0.0001201507
vt 7.999986 1.000122
vt -1.467483E-05 1.000121
vt -1 9.890296E-06
vt -2 9.778956E-06
vt -0.9999892 1.000011
vt -1.999989 1.000011
vt 0 -1.779352E-08
vt -1 -1.174138E-07
vt -4.784592E-07 1
vt -1.000001 1.000001
vt -1.164564E-15 4.786322E-07
vt -3 4.727708E-07
vt -3.374337E-06 1.000001
vt -3.000003 1.000001
vt 4 -1.19352E-08
vt 0 -1.779352E-08
vt 4 1.000001
vt -4.139893E-07 1
vn 4.18124E-10 -1 1.159448E-07
vn -4.340972E-13 -1 1.062129E-07
vn -4.473882E-13 -1 1.054804E-07
vn -1.953815E-09 -1 9.962032E-08
vn -7.03246E-09 -1 1.312646E-07
vn 8.564161E-09 -1 1.212575E-07
vn 6.019372E-07 -1 1.176513E-07
vn 1.106164E-06 -1 2.300229E-06
vn 2.553703E-06 -1 1.386239E-06
vn -1.529292E-06 -1 8.809673E-07
vn -2.546867E-06 -1 1.389169E-06
vn -1.908685E-06 -1 -3.586888E-07
vn -5.229594E-13 -1 -6.453944E-07
vn 1.171634E-09 -1 1.148566E-07
vn 3.348126E-09 -1 1.172005E-07
vn 2.929568E-09 -1 1.142705E-07
vn 5.859306E-09 -1 1.201304E-07
vn 5.859476E-09 -1 1.230605E-07
vn 5.859647E-09 -1 1.230603E-07
vn 1.171952E-08 -1 -3.713354E-06
vn -7.813817E-09 -1 1.250139E-07
vn -8.790469E-09 -1 1.259905E-07
vn -1.904557E-08 -1 1.186655E-07
vn -7.813886E-09 -1 1.172005E-07
vn -2.930534E-09 -1 1.201306E-07
vn 1.171952E-08 -1 1.054805E-07
vn -4.547474E-13 1 1.192093E-07
vn -4.547473E-13 1 1.192093E-07
vn -4.547474E-13 1 1.192093E-07
vn -4.476419E-13 1 1.192093E-07
vn -3.97368E-08 1 9.934091E-08
vn -2.980265E-08 1 8.940683E-08
vn -4.768407E-08 1 9.536723E-08
vn -9.1704E-09 1 1.192092E-07
vn -3.973688E-08 1 1.192091E-07
vn -4.547472E-13 1 1.192093E-07
vn -4.547473E-13 1 1.192093E-07
vn -4.547472E-13 1 1.192093E-07
vn -3.406025E-08 1 1.192092E-07
vn -4.547472E-13 1 1.192093E-07
vn -4.547472E-13 1 1.192093E-07
vn -2.980266E-08 1 8.940685E-08
vn -4.768417E-08 1 1.192091E-07
vn -2.38424E-08 1 1.430511E-07
vn -4.618528E-13 1 1.192093E-07
vn -2.384227E-08 1 1.072883E-07
vn -1.98686E-08 1 9.934099E-08
vn -3.406018E-08 1 1.021793E-07
vn -8.515433E-09 1 1.277242E-07
vn -2.980282E-08 1 1.341103E-07
vn -3.406031E-08 1 1.36239E-07
vn -3.973688E-08 1 1.192091E-07
vn -3.352976E-14 2.861018E-06 -1
vn 1.907349E-06 4.768329E-06 -1
vn 1.907349E-06 4.768329E-06 -1
vn 3.814697E-06 6.675638E-06 -1
vn 1 -1.859662E-05 1.961581E-12
vn 1 -1.668929E-05 1.907349E-06
vn 1 -1.668929E-05 1.907349E-06
vn 1 -1.478196E-05 3.814696E-06
vn -1 1.478193E-05 -1.992318E-12
vn -1 1.662968E-05 -1.847744E-06
vn -1 1.662968E-05 -1.847744E-06
vn -1 1.847742E-05 -3.695486E-06
vn 1 -1.28746E-05 1.907348E-06
vn 1 -1.096727E-05 3.814695E-06
vn -1 7.152551E-06 -8.173251E-13
vn -1 1.096725E-05 -1.907349E-06
vn 3.108196E-14 -1.060961E-05 1
vn -1.877546E-06 -6.854514E-06 1
vn -1.877546E-06 -6.854514E-06 1
vn -3.755092E-06 -3.099412E-06 1
vn -3.911675E-14 6.675712E-06 -1
vn 1.907348E-06 8.583038E-06 -1
vn 1.907348E-06 8.583038E-06 -1
vn 3.814696E-06 1.049036E-05 -1
vn -1 2.598747E-05 9.650067E-11
vn -1 2.789487E-05 -1.907295E-06
vn -1 2.789487E-05 -1.907295E-06
vn -1 2.980229E-05 -3.814693E-06
vn -1.173541E-13 1.001355E-05 -1
vn 1.907348E-06 1.192084E-05 -1
vn 1.907348E-06 1.192084E-05 -1
vn 3.814696E-06 1.382813E-05 -1
vn -1 3.361693E-05 -4.13691E-12
vn -1 3.552428E-05 -1.907347E-06
vn -1 3.552428E-05 -1.907347E-06
vn -1 3.743164E-05 -3.81469E-06
vn 7.823451E-14 -1.33514E-05 1
vn -1.907348E-06 -1.1444E-05 1
vn -1.907348E-06 -1.1444E-05 1
vn -3.814696E-06 -9.536589E-06 1
vn 1 -3.767002E-05 4.635698E-12
vn 1 -3.576271E-05 1.907347E-06
vn 1 -3.576271E-05 1.907347E-06
vn 1 -3.385539E-05 3.81469E-06
vn 1 -4.14847E-05 4.862016E-12
vn 1 -3.957739E-05 1.907349E-06
vn -3.725018E-15 1.907343E-06 -1
vn 1.907348E-06 7.629292E-06 -1
vn 1.907348E-06 7.629292E-06 -1
vn 3.814697E-06 1.335124E-05 -1
vn -3.252597E-18 -9.536715E-06 1
vn -1.907348E-06 -7.629301E-06 1
vn -1.907348E-06 -7.629301E-06 1
vn -3.814696E-06 -5.721887E-06 1
vn -1 3.743161E-05 -4.38701E-12
vn -1 3.933895E-05 -1.907349E-06
vn -1 3.933895E-05 -1.907349E-06
vn -1 4.124629E-05 -3.814693E-06
vn 1 -3.743161E-05 -4.318826E-11
vn 1 -3.170954E-05 1.907328E-06
vn 1 -3.170954E-05 1.907328E-06
vn 1 -2.598749E-05 3.814693E-06
vn -1 2.22921E-05 -2.645303E-12
vn -1 2.986186E-05 -1.892448E-06
vn -5.868446E-14 -1.001356E-05 1
vn -1.907349E-06 -6.198829E-06 1
vn -1.907349E-06 -6.198829E-06 1
vn -3.814697E-06 -2.384096E-06 1
vn 7.265456E-14 6.198846E-06 -1
vn 1.907348E-06 8.106134E-06 -1
vn 1.907348E-06 8.106134E-06 -1
vn 3.814696E-06 1.001342E-05 -1
vn -0.9999999 1.096724E-05 -1.349634E-12
vn -1 1.668929E-05 -1.907349E-06
vn -1 1.668929E-05 -1.907349E-06
vn -1 2.241134E-05 -3.814694E-06
vn 1 -3.004067E-05 3.520781E-12
vn 1 -1.478196E-05 1.907348E-06
vn 1 -1.478196E-05 1.907348E-06
vn 1 4.767809E-07 3.814697E-06
vn -1 3.337857E-06 -3.716385E-13
vn -1 5.245225E-06 -1.907349E-06
vn -1 5.245225E-06 -1.907349E-06
vn -1 7.15259E-06 -3.814696E-06
vn -1 -4.139891E-07 4.124172E-14
vn -1 1.480172E-06 -1.894163E-06
vn -1 1.480172E-06 -1.894163E-06
vn -1 3.374333E-06 -3.788326E-06
vn -1.164564E-15 -5.96046E-07 -1
vn 1.897414E-06 5.096187E-06 -1
vn 1.897414E-06 5.096187E-06 -1
vn 3.794829E-06 1.078842E-05 -1
vn 2.149245E-14 -1.467484E-05 1
vn -1.894163E-06 -7.098191E-06 1
vn -1.894163E-06 -7.098191E-06 1
vn -3.788326E-06 4.784574E-07 1
g pb_Mesh124642_0
f 3/3/3 2/2/2 1/1/1
f 3/3/3 4/4/4 2/2/2
f 5/5/5 1/1/1 2/2/2
f 6/6/6 1/1/1 5/5/5
f 6/6/6 7/7/7 1/1/1
f 6/6/6 8/8/8 7/7/7
f 8/8/8 9/9/9 7/7/7
f 10/10/10 9/9/9 8/8/8
f 11/11/11 10/10/10 8/8/8
f 11/11/11 12/12/12 10/10/10
f 12/12/12 13/13/13 10/10/10
f 12/12/12 14/14/14 13/13/13
f 14/14/14 15/15/15 13/13/13
f 16/16/16 15/15/15 14/14/14
f 16/16/16 17/17/17 15/15/15
f 15/15/15 17/17/17 18/18/18
f 19/19/19 15/15/15 18/18/18
f 9/9/9 20/20/20 7/7/7
f 21/21/21 6/6/6 5/5/5
f 22/22/22 21/21/21 5/5/5
f 22/22/22 23/23/23 21/21/21
f 23/23/23 24/24/24 21/21/21
f 23/23/23 25/25/25 24/24/24
f 25/25/25 26/26/26 24/24/24
f 29/29/29 28/28/28 27/27/27
f 29/29/29 27/27/27 30/30/30
f 31/31/31 29/29/29 30/30/30
f 31/31/31 30/30/30 32/32/32
f 33/33/33 31/31/31 32/32/32
f 33/33/33 34/34/34 31/31/31
f 37/37/37 36/36/36 35/35/35
f 40/40/40 39/39/39 38/38/38
f 40/40/40 41/41/41 39/39/39
f 39/39/39 41/41/41 42/42/42
f 43/43/43 39/39/39 42/42/42
f 44/44/44 39/39/39 43/43/43
f 44/44/44 43/43/43 45/45/45
f 46/46/46 44/44/44 45/45/45
f 46/46/46 45/45/45 47/47/47
f 48/48/48 46/46/46 47/47/47
f 48/48/48 35/35/35 46/46/46
f 37/37/37 35/35/35 48/48/48
f 37/37/37 48/48/48 34/34/34
f 49/49/49 37/37/37 34/34/34
f 33/33/33 49/49/49 34/34/34
f 50/50/50 49/49/49 33/33/33
f 50/50/50 52/52/52 51/51/51
f 49/49/49 50/50/50 51/51/51
f 55/55/55 54/54/54 53/53/53
f 55/55/55 56/56/56 54/54/54
f 59/59/59 58/58/58 57/57/57
f 59/59/59 60/60/60 58/58/58
f 63/63/63 62/62/62 61/61/61
f 63/63/63 64/64/64 62/62/62
f 60/60/60 65/65/65 58/58/58
f 60/60/60 66/66/66 65/65/65
f 68/68/68 61/61/61 67/67/67
f 68/68/68 63/63/63 61/61/61
f 71/71/71 70/70/70 69/69/69
f 71/71/71 72/72/72 70/70/70
f 75/75/75 74/74/74 73/73/73
f 75/75/75 76/76/76 74/74/74
f 79/79/79 78/78/78 77/77/77
f 79/79/79 80/80/80 78/78/78
f 83/83/83 82/82/82 81/81/81
f 83/83/83 84/84/84 82/82/82
f 87/87/87 86/86/86 85/85/85
f 87/87/87 88/88/88 86/86/86
f 91/91/91 90/90/90 89/89/89
f 91/91/91 92/92/92 90/90/90
f 95/95/95 94/94/94 93/93/93
f 95/95/95 96/96/96 94/94/94
f 98/98/98 93/93/93 97/97/97
f 98/98/98 95/95/95 93/93/93
f 101/101/101 100/100/100 99/99/99
f 101/101/101 102/102/102 100/100/100
f 105/105/105 104/104/104 103/103/103
f 105/105/105 106/106/106 104/104/104
f 109/109/109 108/108/108 107/107/107
f 109/109/109 110/110/110 108/108/108
f 113/113/113 112/112/112 111/111/111
f 113/113/113 114/114/114 112/112/112
f 116/116/116 107/107/107 115/115/115
f 116/116/116 109/109/109 107/107/107
f 119/119/119 118/118/118 117/117/117
f 119/119/119 120/120/120 118/118/118
f 123/123/123 122/122/122 121/121/121
f 123/123/123 124/124/124 122/122/122
f 127/127/127 126/126/126 125/125/125
f 127/127/127 128/128/128 126/126/126
f 131/131/131 130/130/130 129/129/129
f 131/131/131 132/132/132 130/130/130
f 135/135/135 134/134/134 133/133/133
f 135/135/135 136/136/136 134/134/134
f 139/139/139 138/138/138 137/137/137
f 139/139/139 140/140/140 138/138/138
f 143/143/143 142/142/142 141/141/141
f 143/143/143 144/144/144 142/142/142
f 147/147/147 146/146/146 145/145/145
f 147/147/147 148/148/148 146/146/146
