g pb_Mesh36472
v -8 0 8
v -8 0 12.0001
v -12.0001 0 8
v -12.0001 0 12.0001
v -8 0 0
v -12.0001 0 0
v -12.0001 -4 8
v -12.0001 -4 0
v -12.0001 0 0
v -12.0001 0 8
v 0 -4 0
v 0 -8 8
v 0 -4 8
v 0 -8 0
v 0 0 0
v 0 0 8
v 0 0 12.0001
v 0 -4 12.0001
v -12.0001 -4 12.0001
v -12.0001 0 12.0001
v -8 0 0
v -12.0001 0 0
v -12.0001 -4 0
v -8 -4 5.00679E-05
v -8 -4 12.0001
v -12.0001 -4 12.0001
v -8 0 12.0001
v -12.0001 0 12.0001
v 0 0 0
v 0 0 8
v 0 0 12.0001
v 0 -4 12.0001
v 0 0 12.0001
v 0 -8 0
v 0 -4 0
v -8 -7.999967 3.33786E-05
v 0 0 0
v -8 -4 12.0001
v 0 -4 12.0001
v 0 -4 8
v -8 -4 8
v -12.0001 -4 12.0001
v -12.0001 -4 8
v 0 -8 8
v -8 -8 8
v -8 -4 8
v 0 -4 8
v -8 -8 8
v 0 -8 8
v -8 -8 12.0001
v 0 -8 12.0001
v -8 -7.999967 3.33786E-05
v -8 -4 8
v -8 -8 8
v -8 -4 5.00679E-05
v -12.0001 -4 0
v -8 -4 5.00679E-05
v -8 -16 -4
v -8 -7.999967 3.33786E-05
v -8 -7.999802 -4
v -8 -16.00016 3.33786E-05
v 7.247925E-05 -10.00002 -7.247925E-05
v 3.623962E-05 -9.999996 8
v 0 -8 12.0001
v 0 -10.00003 12.00005
v 0 -10.00003 12.00005
v -8 -8 12.0001
v 0 -8 12.0001
v -7.99995 -9.999982 12.00005
v -12 -10.00003 12.00005
v -12 -8 8
v -12 -8 12.0001
v -12 -9.999982 8
v -12 -7.999901 0
v -12 -9.999968 -3.623962E-05
v -7.99995 -10 -6.866455E-05
v 7.247925E-05 -10.00002 -7.247925E-05
v -7.99995 -10.00002 -6.866455E-05
v 3.623962E-05 -10.00001 8
v 7.247925E-05 -10.00004 -7.247925E-05
v -7.999901 -9.999964 8
v 0 -10.00003 12.00005
v -7.999901 -9.999947 8
v -7.99995 -9.999982 12.00005
v 3.623962E-05 -9.999996 8
v 3.623962E-05 -9.999996 8
v 7.247925E-05 -10.00002 -7.247925E-05
v 3.623962E-05 -10.00001 8
v 7.247925E-05 -10.00002 -7.247925E-05
v -7.99995 -10 -6.866455E-05
v -7.99995 -10 -6.866455E-05
v -7.999901 -9.999947 8
v -7.999901 -9.999947 8
v 3.623962E-05 -9.999996 8
v 3.623962E-05 -10.00001 8
v -12 -8 8
v -10 -8 8
v -10 -8 12.0001
v -12 -8 12.0001
v -10 -7.999933 1.716614E-05
v -8 -7.999967 3.33786E-05
v -10 -8 8
v -8 -8 8
v -12 -7.999901 0
v -12 -8 8
v -10 -7.999933 1.716614E-05
v -10 -7.999802 -4
v -8 -7.999802 -4
v -8 -7.999967 3.33786E-05
v -12 -7.999901 0
v -12 -7.999802 -4
v -10 -7.999802 -4
v -8 -16 -4
v -8 -7.999802 -4
v -10 -16 -4
v -12 -7.999802 -4
v -12 -16 -4
v -12 -10.00003 12.00005
v -10 -8 12.0001
v -9.999975 -10.00001 12.00005
v -12 -8 12.0001
v -9.99995 -9.999964 8
v -7.999901 -9.999947 8
v -7.99995 -10 -6.866455E-05
v -9.999975 -9.999985 -5.245209E-05
v -9.99995 -9.999964 8
v -12 -9.999968 -3.623962E-05
v -12 -9.999982 8
v -7.99995 -9.999982 12.00005
v -7.999901 -9.999947 8
v -9.999975 -10.00001 12.00005
v -12 -10.00003 12.00005
v -9.999975 -9.999985 -5.245209E-05
v -9.999975 -16.0001 -5.245209E-05
v -12 -16.00008 -3.623962E-05
v -12 -9.999968 -3.623962E-05
v -7.99995 -10 -6.866455E-05
v -7.99995 -16.00012 -6.866455E-05
v -9.999975 -16.0001 -5.245209E-05
v -12 -16.00008 -3.999884
v -12 -16.00008 -3.623962E-05
v -9.999975 -16.0001 -3.9999
v -7.99995 -26.00011 -6.866455E-05
v -9.999975 -26.00009 -3.9999
v -9.999975 -26.00009 -5.245209E-05
v -7.99995 -26.00011 -3.999916
v -9.999975 -16.0001 -3.9999
v -9.999975 -16.0001 -5.245209E-05
v -9.999975 -26.00009 -3.9999
v -9.999975 -26.00009 -5.245209E-05
v -9.999975 -26.00009 -5.245209E-05
v -7.99995 -26.00011 -6.866455E-05
v -7.99995 -16.00012 -6.866455E-05
v -7.99995 -16.00012 -3.999916
v -7.99995 -26.00011 -6.866455E-05
v -7.99995 -26.00011 -3.999916
v -7.99995 -16.00012 -3.999916
v -9.999975 -16.0001 -3.9999
v -7.99995 -26.00011 -3.999916
v -9.999975 -26.00009 -3.9999
vt 8 8
vt 8 12.0001
vt 12.0001 8
vt 12.0001 12.0001
vt 8 0
vt 12.0001 0
vt 8 -4
vt 0 -4
vt 0 0
vt 8 0
vt 0 -4
vt -8 -8
vt -8 -4
vt 0 -8
vt 0 0
vt -8 0
vt -12.0001 0
vt -12.0001 -4
vt 12.0001 -4
vt 12.0001 0
vt 8 0
vt 12.0001 0
vt 12.0001 -4
vt 8 -4
vt -8 -4
vt -12.0001 -4
vt -8 0
vt -12.0001 0
vt 0 0
vt 0 8
vt 0 12.0001
vt 0 -4
vt 0 0
vt 0 -8
vt 0 -4
vt 8 -7.999967
vt 0 0
vt -8 12.0001
vt 0 12.0001
vt 0 8
vt -8 8
vt -12.0001 12.0001
vt -12.0001 8
vt 0 -8
vt -8 -8
vt -8 -4
vt 0 -4
vt 8 8
vt 0 8
vt 8 12.0001
vt 0 12.0001
vt 3.33786E-05 -7.999967
vt 8 -4
vt 8 -8
vt 5.00679E-05 -4
vt -12.0001 0
vt -8 5.00679E-05
vt 4 -16
vt -3.33786E-05 -7.999967
vt 4 -7.999802
vt -3.33786E-05 -16.00016
vt 7.247925E-05 -10.00002
vt -8 -9.999996
vt -12.0001 -8
vt -12.00005 -10.00003
vt 0 -9.999728
vt -8 -7.999697
vt 0 -7.999697
vt -7.99995 -9.999679
vt 12.00005 -10.00003
vt 8 -8
vt 12.0001 -8
vt 8 -9.999982
vt 0 -7.999901
vt -3.623962E-05 -9.999968
vt 7.99995 -10
vt -7.247955E-05 -10.00002
vt -7.999929 -9.727453E-05
vt 5.769725E-05 7.999971
vt 9.393693E-05 -0.0001010892
vt -7.999879 7.999971
vt 6.198941E-05 12.00014
vt -7.999839 8.000088
vt -7.999888 12.00014
vt 9.822881E-05 8.000088
vt -8 -9.999996
vt 7.247958E-05 -10.00002
vt -8 -10.00001
vt -7.247928E-05 -10.00002
vt 7.99995 -10
vt -0.0001182549 -10
vt 7.99995 -9.999947
vt -7.999901 -9.999947
vt 3.623962E-05 -9.999996
vt 3.623962E-05 -10.00001
vt 12 8
vt 10 8
vt 10 12.0001
vt 12 12.0001
vt 9.999866 8.392432E-05
vt 7.999866 0.0001001368
vt 9.999866 8.000067
vt 7.999866 8.000067
vt 11.99987 9.918331E-05
vt 11.99987 8.000099
vt 10 0.0002803769
vt 10 -3.999737
vt 8 -3.999737
vt 8 0.0002965905
vt 12 0.0001983618
vt 12 -3.999802
vt 10 -7.999802
vt 8 -16
vt 8 -7.999802
vt 10 -16
vt 12 -7.999802
vt 12 -16
vt -12 -9.999728
vt -10 -7.999697
vt -9.999975 -9.999704
vt -12 -7.999697
vt -10.00004 7.999932
vt -7.999987 7.999932
vt -8.000036 -0.0001366123
vt -10.00006 -0.0001203996
vt -10.00004 8.000018
vt -12.00009 -1.835856E-05
vt -12.00009 8.000018
vt -8.000036 12.00014
vt -7.999987 8.000088
vt -10.00006 12.00014
vt -12.00009 12.00016
vt -9.999975 -9.999985
vt -9.999975 -16.0001
vt -12 -16.00008
vt -12 -9.999968
vt -7.99995 -10
vt -7.99995 -16.00012
vt -9.999853 -5.245209E-05
vt -11.99988 -3.999884
vt -11.99988 -3.623962E-05
vt -9.999853 -3.9999
vt -7.999727 -6.866455E-05
vt -9.999752 -3.9999
vt -9.999752 -5.245209E-05
vt -7.999727 -3.999916
vt -3.9999 -16.0001
vt -5.245209E-05 -16.0001
vt -3.9999 -26.00009
vt -5.245209E-05 -26.00009
vt -9.999975 -26.00009
vt -7.99995 -26.00011
vt 6.866455E-05 -16.00012
vt 3.999916 -16.00012
vt 6.866455E-05 -26.00011
vt 3.999916 -26.00011
vt 7.999918 -16.00012
vt 9.999943 -16.0001
vt 7.999918 -26.00011
vt 9.999943 -26.00009
vn 0 1 0
vn 0 1 0
vn 0 1 0
vn 0 1 0
vn 0 1 0
vn 0 1 0
vn -1 0 0
vn -1 0 0
vn -1 0 0
vn -1 0 0
vn 1 0 0
vn 1 0 0
vn 1 0 0
vn 1 0 0
vn 1 0 0
vn 1 0 0
vn 1 0 0
vn 1 0 0
vn -1 0 0
vn -1 0 0
vn 6.258333E-06 -6.258488E-06 -1
vn 0 0 -1
vn 6.258333E-06 -6.258488E-06 -1
vn 1.251667E-05 -1.251698E-05 -1
vn 0 0 1
vn 0 0 1
vn 0 0 1
vn 0 0 1
vn 0 1 0
vn 0 1 0
vn 0 1 0
vn 0 0 1
vn 0 0 1
vn -5.215398E-06 2.08618E-06 -1
vn -6.258488E-06 0 -1
vn -4.172308E-06 4.17236E-06 -1
vn 0 0 -1
vn 0 -1 0
vn 0 -1 0
vn 0 -1 0
vn 0 -1 0
vn 0 -1 0
vn 0 -1 0
vn 0 0 1
vn 0 0 1
vn 0 0 1
vn 0 0 1
vn 0 1 0
vn 0 1 0
vn 0 1 0
vn 0 1 0
vn -1 0 0
vn -1 0 0
vn -1 0 0
vn -1 0 0
vn 0 -1 0
vn 0 -1 0
vn 1 0 0
vn 1 0 0
vn 1 0 0
vn 1 0 0
vn 1 2.717958E-05 2.264932E-06
vn 1 1.811985E-05 4.529864E-06
vn 1 9.059809E-06 4.529897E-06
vn 1 -2.289589E-10 9.059794E-06
vn -7.833142E-11 -2.527229E-05 1
vn -7.833142E-11 -2.527229E-05 1
vn 0 -2.527197E-05 1
vn -1.566628E-10 -2.52726E-05 1
vn -1 0 0
vn -1 0 0
vn -1 0 0
vn -1 0 0
vn -1 0 0
vn -1 0 0
vn -2.324437E-06 4.362995E-05 -1
vn -4.767624E-07 3.62393E-05 -1
vn -4.172346E-06 -1 4.887553E-06
vn -4.172346E-06 -1 4.887553E-06
vn -2.14576E-06 -1 2.860987E-06
vn -6.198932E-06 -1 6.914118E-06
vn -6.198927E-06 -1 -8.821444E-06
vn -6.198927E-06 -1 -8.821444E-06
vn -6.198921E-06 -1 -8.821455E-06
vn -6.198932E-06 -1 -8.821434E-06
vn 1 0 4.529912E-06
vn 1 0 4.529912E-06
vn 1 0 4.529912E-06
vn -4.768358E-07 0 -1
vn -4.768358E-07 0 -1
vn -1 0 6.198829E-06
vn -1 0 6.198829E-06
vn 0 0 1
vn 0 0 1
vn 0 0 1
vn 0 1 0
vn 0 1 0
vn 0 1 0
vn 0 1 0
vn 1.668923E-05 1 8.344668E-06
vn 8.344617E-06 1 6.258505E-06
vn 8.344617E-06 1 6.258505E-06
vn 0 1 4.172342E-06
vn 1.621236E-05 1 1.239777E-05
vn 8.106179E-06 1 1.037122E-05
vn 8.344483E-06 1 3.707385E-05
vn 0 1 3.290162E-05
vn 8.344483E-06 1 3.707385E-05
vn 1.668897E-05 1 4.124607E-05
vn 8.106091E-06 1 2.884858E-05
vn 0 1 2.479553E-05
vn 0 0 -1
vn 0 0 -1
vn 0 0 -1
vn 0 0 -1
vn 0 0 -1
vn 0 0 -1
vn 1.506326E-10 -2.527212E-05 1
vn 1.506326E-10 -2.527212E-05 1
vn 3.012652E-10 -2.527227E-05 1
vn 0 -2.527197E-05 1
vn 2.383731E-07 -1 4.708715E-06
vn 8.582856E-06 -1 6.794818E-06
vn 2.383731E-07 -1 4.708715E-06
vn -8.10611E-06 -1 2.622612E-06
vn 2.383704E-07 -1 4.172412E-07
vn 2.383704E-07 -1 4.172412E-07
vn 9.059681E-06 -1 -1.788131E-06
vn 1.072865E-05 -1 -9.894155E-06
vn 8.582856E-06 -1 -8.821272E-06
vn 1.287444E-05 -1 -1.096704E-05
vn 1.192078E-05 -1 -1.239761E-05
vn 8.106132E-06 0 1
vn 8.106132E-06 0 1
vn 8.106132E-06 0 1
vn 8.106131E-06 0 1
vn 8.106132E-06 0 1
vn 8.106131E-06 0 1
vn -7.6293E-06 -1 0
vn -7.6293E-06 -1 0
vn -7.6293E-06 -1 0
vn -7.6293E-06 -1 0
vn -8.582962E-06 -1 0
vn -8.582962E-06 -1 0
vn -8.582962E-06 -1 0
vn -8.582962E-06 -1 0
vn -1 0 0
vn -1 0 0
vn -1 0 0
vn -1 0 0
vn 8.106132E-06 0 1
vn 8.106132E-06 0 1
vn 1 0 0
vn 1 0 0
vn 1 0 0
vn 1 0 0
vn -8.106132E-06 0 -1
vn -8.106132E-06 0 -1
vn -8.106132E-06 0 -1
vn -8.106132E-06 0 -1
g pb_Mesh36472_0
g pb_Mesh36472_1
g pb_Mesh36472_2
f 3/3/3 2/2/2 1/1/1
f 3/3/3 4/4/4 2/2/2
f 6/6/6 1/1/1 5/5/5
f 6/6/6 3/3/3 1/1/1
f 9/9/9 8/8/8 7/7/7
f 9/9/9 7/7/7 10/10/10
f 13/13/13 12/12/12 11/11/11
f 12/12/12 14/14/14 11/11/11
f 16/16/16 13/13/13 15/15/15
f 13/13/13 11/11/11 15/15/15
f 13/13/13 16/16/16 17/17/17
f 18/18/18 13/13/13 17/17/17
f 20/20/20 7/7/7 19/19/19
f 20/20/20 10/10/10 7/7/7
f 23/23/23 22/22/22 21/21/21
f 24/24/24 23/23/23 21/21/21
f 27/27/27 26/26/26 25/25/25
f 27/27/27 28/28/28 26/26/26
f 30/30/30 29/29/29 5/5/5
f 30/30/30 5/5/5 1/1/1
f 2/2/2 30/30/30 1/1/1
f 2/2/2 31/31/31 30/30/30
f 27/27/27 25/25/25 32/32/32
f 27/27/27 32/32/32 33/33/33
f 35/35/35 34/34/34 24/24/24
f 34/34/34 36/36/36 24/24/24
f 37/37/37 35/35/35 21/21/21
f 35/35/35 24/24/24 21/21/21
f 40/40/40 39/39/39 38/38/38
f 41/41/41 40/40/40 38/38/38
f 41/41/41 38/38/38 42/42/42
f 43/43/43 41/41/41 42/42/42
f 46/46/46 45/45/45 44/44/44
f 46/46/46 44/44/44 47/47/47
f 50/50/50 49/49/49 48/48/48
f 50/50/50 51/51/51 49/49/49
f 54/54/54 53/53/53 52/52/52
f 53/53/53 55/55/55 52/52/52
f 43/43/43 56/56/56 41/41/41
f 56/56/56 57/57/57 41/41/41
f 60/60/60 59/59/59 58/58/58
f 59/59/59 61/61/61 58/58/58
f 14/14/14 12/12/12 62/62/62
f 12/12/12 63/63/63 62/62/62
f 12/12/12 64/64/64 63/63/63
f 64/64/64 65/65/65 63/63/63
f 68/68/68 67/67/67 66/66/66
f 67/67/67 69/69/69 66/66/66
f 72/72/72 71/71/71 70/70/70
f 71/71/71 73/73/73 70/70/70
f 71/71/71 74/74/74 73/73/73
f 74/74/74 75/75/75 73/73/73
f 36/36/36 34/34/34 76/76/76
f 34/34/34 77/77/77 76/76/76
f 80/80/80 79/79/79 78/78/78
f 79/79/79 81/81/81 78/78/78
f 84/84/84 83/83/83 82/82/82
f 83/83/83 85/85/85 82/82/82
f 88/88/88 87/87/87 86/86/86
f 88/88/88 87/87/87 87/87/87
f 89/89/89 90/90/90 89/89/89
f 89/89/89 90/90/90 90/90/90
f 91/91/91 92/92/92 91/91/91
f 91/91/91 92/92/92 92/92/92
f 93/93/93 94/94/94 93/93/93
f 93/93/93 95/95/95 94/94/94
f 98/98/98 97/97/97 96/96/96
f 98/98/98 96/96/96 99/99/99
f 50/50/50 48/48/48 97/97/97
f 50/50/50 97/97/97 98/98/98
f 102/102/102 101/101/101 100/100/100
f 102/102/102 103/103/103 101/101/101
f 105/105/105 100/100/100 104/104/104
f 105/105/105 102/102/102 100/100/100
f 108/108/108 107/107/107 106/106/106
f 109/109/109 108/108/108 106/106/106
f 107/107/107 111/111/111 110/110/110
f 106/106/106 107/107/107 110/110/110
f 114/114/114 113/113/113 112/112/112
f 113/113/113 115/115/115 112/112/112
f 112/112/112 115/115/115 116/116/116
f 115/115/115 117/117/117 116/116/116
f 120/120/120 119/119/119 118/118/118
f 119/119/119 121/121/121 118/118/118
f 67/67/67 120/120/120 69/69/69
f 119/119/119 120/120/120 67/67/67
f 124/124/124 123/123/123 122/122/122
f 124/124/124 122/122/122 125/125/125
f 128/128/128 127/127/127 126/126/126
f 127/127/127 125/125/125 126/126/126
f 126/126/126 130/130/130 129/129/129
f 131/131/131 126/126/126 129/129/129
f 128/128/128 126/126/126 131/131/131
f 132/132/132 128/128/128 131/131/131
f 135/135/135 134/134/134 133/133/133
f 136/136/136 135/135/135 133/133/133
f 134/134/134 138/138/138 137/137/137
f 133/133/133 134/134/134 137/137/137
f 141/141/141 140/140/140 139/139/139
f 140/140/140 142/142/142 139/139/139
f 145/145/145 144/144/144 143/143/143
f 144/144/144 146/146/146 143/143/143
f 149/149/149 148/148/148 147/147/147
f 149/149/149 150/150/150 148/148/148
f 151/151/151 138/138/138 134/134/134
f 151/151/151 152/152/152 138/138/138
f 155/155/155 154/154/154 153/153/153
f 155/155/155 156/156/156 154/154/154
f 159/159/159 158/158/158 157/157/157
f 159/159/159 160/160/160 158/158/158
