g pb_Mesh-1015030
v 1.499999 0.5 0.9999924
v -1.500001 0.5 0.9999924
v 1.499999 0.5 -2.000008
v -1.500001 0.5 -2.000008
v 1.499999 0 -2.000008
v -1.500001 0 -2.000008
v 1.499999 0 0.9999924
v -1.500001 0 0.9999924
v 1.499999 0 3.499992
v -1.500001 0 3.499992
v -1.500001 1.5 0.9999924
v 1.499999 1.5 0.9999924
v -1.500001 1.5 3.499992
v 1.499999 1.5 3.499992
v -1.500001 0.5 0.9999924
v 1.499999 0.5 0.9999924
v -1.500001 1.5 0.9999924
v 1.499999 1.5 0.9999924
v -1.500001 0.5 3.499992
v -1.500001 0.5 0.9999924
v -1.500001 1.5 3.499992
v -1.500001 1.5 0.9999924
v 1.499999 0.5 0.9999924
v 1.499999 0.5 3.499992
v 1.499999 1.5 0.9999924
v 1.499999 1.5 3.499992
v 1.499999 0.5 3.499992
v -1.500001 0.5 3.499992
v 1.499999 1.5 3.499992
v -1.500001 1.5 3.499992
v -1.500001 0 3.499992
v -1.500001 0.25 3.499992
v 1.499999 0 3.499992
v 1.499999 0.25 3.499992
v -2.000001 0 -2.500008
v -2.000001 0.25 -2.500008
v -2.000001 0 0.2499924
v -2.000001 0.25 0.2499924
v -1.500001 0.25 -2.000008
v -1.500001 0.5 -2.000008
v -1.500001 0.25 0.9999924
v -2.000001 0.25 -2.500008
v 1.999999 0 -2.500008
v 1.999999 0.25 -2.500008
v -2.000001 0 -2.500008
v -1.500001 0.5 -2.000008
v 1.499999 0.25 -2.000008
v 1.499999 0.5 -2.000008
v -1.500001 0.25 -2.000008
v 1.999999 0.25 -2.500008
v 1.999999 0 0.2499924
v 1.999999 0.25 0.2499924
v 1.999999 0 -2.500008
v 1.499999 0.5 -2.000008
v 1.499999 0.25 0.9999924
v 1.499999 0.25 -2.000008
v 1.499999 0.25 3.499992
v 1.999999 0 3.499992
v 1.999999 0.25 3.499992
v -2.000001 0 3.499992
v -2.000001 0.25 3.499992
v -1.500001 0.25 3.499992
v -2.000001 0 0.2499924
v -2.000001 0 -2.500008
v -1.500001 0.25 -2.000008
v -1.500001 0.25 0.9999924
v -2.000001 0.25 -2.500008
v -2.000001 0.25 0.2499924
v 1.499999 0.25 -2.000008
v 1.999999 0.25 -2.500008
v 1.999999 0 -2.500008
v 1.499999 0.25 0.9999924
v 1.999999 0.25 0.2499924
v 1.999999 0 0.2499924
v 1.999999 0 3.499992
v 1.999999 0.25 3.499992
v 1.499999 0.25 3.499992
v 1.999999 0.25 3.499992
v 1.999999 0 3.499992
v -2.000001 0 3.499992
v -2.000001 0.25 3.499992
v -2.000001 0 3.499992
v -1.500001 0.25 3.499992
v -2.000001 0.25 3.499992
vt -26.11336 152.0043
vt -24.98022 149.2265
vt -28.89113 150.8711
vt -27.75798 148.0934
vt 28.89112 150.8711
vt 27.75798 148.0934
vt 26.11336 152.0043
vt 24.98022 149.2265
vt 23.79855 152.9485
vt 22.66541 150.1708
vt -24.98022 149.2265
vt -26.11336 152.0043
vt -22.66541 150.1708
vt -23.79855 152.9486
vt -148.8807 7.712934
vt -151.8254 8.286711
vt -148.6895 8.694473
vt -151.6341 9.26825
vt 32.94605 -25.07094
vt 30.46438 -24.76872
vt 33.06694 -24.07828
vt 30.58527 -23.77605
vt -30.46439 -24.76872
vt -32.94605 -25.07094
vt -30.58527 -23.77605
vt -33.06694 -24.07828
vt 151.8254 8.286711
vt 148.8807 7.712934
vt 151.6341 9.26825
vt 148.6895 8.694473
vt 148.9764 7.222164
vt 148.9286 7.467549
vt 151.921 7.795941
vt 151.8732 8.041327
vt 26.92961 -24.84194
vt 26.95983 -24.59377
vt 29.65944 -25.17439
vt 29.68966 -24.92622
vt 27.45617 -24.65422
vt 27.48639 -24.40605
vt 30.43416 -25.01689
vt -148.4378 7.371919
vt -152.4118 7.89157
vt -152.364 8.136956
vt -148.4856 7.126534
vt -148.8807 7.712934
vt -151.8732 8.041326
vt -151.8253 8.286711
vt -148.9286 7.467548
vt -26.95984 -24.59377
vt -29.65944 -25.17439
vt -29.68966 -24.92622
vt -26.92961 -24.84194
vt -27.48639 -24.40605
vt -30.43416 -25.01689
vt -27.45617 -24.65422
vt -32.91583 -25.31911
vt -32.88561 -25.56728
vt -32.91583 -25.31911
vt 32.8856 -25.56727
vt 32.91583 -25.31911
vt 32.91583 -25.31911
vt 25.4858 148.4803
vt 28.03209 147.4415
vt -27.75798 148.0934
vt -24.98022 149.2265
vt -28.03209 147.4415
vt -25.4858 148.4803
vt -28.89112 150.8711
vt -29.54294 151.1452
vt 29.54295 151.1452
vt -26.11336 152.0043
vt -26.99666 152.1839
vt 26.99666 152.1839
vt 152.4118 7.891571
vt 152.364 8.136955
vt -23.79855 152.9486
vt -23.98741 153.4115
vt 23.98741 153.4115
vt 22.47655 149.7078
vt 148.4378 7.371919
vt 148.4856 7.126534
vt -22.66541 150.1708
vt -22.47655 149.7078
vn 0 1 0
vn 0 1 0
vn 0 1 0
vn 0 1 0
vn 0 -1 0
vn 0 -1 0
vn 0 -1 0
vn 0 -1 0
vn 0 -1 0
vn 0 -1 0
vn 0 1 0
vn 0 1 0
vn 0 1 0
vn 0 1 0
vn 0 0 -1
vn 0 0 -1
vn 0 0 -1
vn 0 0 -1
vn -1 0 0
vn -1 0 0
vn -1 0 0
vn -1 0 0
vn 1 0 0
vn 1 0 0
vn 1 0 0
vn 1 0 0
vn 0 0 1
vn 0 0 1
vn 0 0 1
vn 0 0 1
vn 0 0 1
vn 0 0 1
vn 0 0 1
vn 0 0 1
vn -1 0 0
vn -1 0 0
vn -1 0 0
vn -1 0 0
vn -1 0 0
vn -1 0 0
vn -1 0 0
vn 0 0 -1
vn 0 0 -1
vn 0 0 -1
vn 0 0 -1
vn 0 0 -1
vn 0 0 -1
vn 0 0 -1
vn 0 0 -1
vn 1 0 0
vn 1 0 0
vn 1 0 0
vn 1 0 0
vn 1 0 0
vn 1 0 0
vn 1 0 0
vn 1 0 0
vn 1 0 0
vn 1 0 0
vn -1 0 0
vn -1 0 0
vn -1 0 0
vn 0 -1 0
vn 0 -1 0
vn 0 1 0
vn 0 1 0
vn 0 1 0
vn 0 1 0
vn 0 1 0
vn 0 1 0
vn 0 -1 0
vn 0 1 0
vn 0 1 0
vn 0 -1 0
vn 0 0 1
vn 0 0 1
vn 0 1 0
vn 0 1 0
vn 0 -1 0
vn 0 -1 0
vn 0 0 1
vn 0 0 1
vn 0 1 0
vn 0 1 0
g pb_Mesh-1015030_0
f 3/3/3 2/2/2 1/1/1
f 3/3/3 4/4/4 2/2/2
f 7/7/7 6/6/6 5/5/5
f 7/7/7 8/8/8 6/6/6
f 9/9/9 8/8/8 7/7/7
f 9/9/9 10/10/10 8/8/8
f 13/13/13 12/12/12 11/11/11
f 13/13/13 14/14/14 12/12/12
f 17/17/17 16/16/16 15/15/15
f 17/17/17 18/18/18 16/16/16
f 21/21/21 20/20/20 19/19/19
f 21/21/21 22/22/22 20/20/20
f 25/25/25 24/24/24 23/23/23
f 25/25/25 26/26/26 24/24/24
f 29/29/29 28/28/28 27/27/27
f 29/29/29 30/30/30 28/28/28
f 33/33/33 32/32/32 31/31/31
f 32/32/32 33/33/33 34/34/34
f 34/34/34 28/28/28 32/32/32
f 28/28/28 34/34/34 27/27/27
f 37/37/37 36/36/36 35/35/35
f 36/36/36 37/37/37 38/38/38
f 41/41/41 40/40/40 39/39/39
f 40/40/40 41/41/41 20/20/20
f 44/44/44 43/43/43 42/42/42
f 45/45/45 42/42/42 43/43/43
f 48/48/48 47/47/47 46/46/46
f 49/49/49 46/46/46 47/47/47
f 52/52/52 51/51/51 50/50/50
f 53/53/53 50/50/50 51/51/51
f 23/23/23 55/55/55 54/54/54
f 56/56/56 54/54/54 55/55/55
f 24/24/24 57/57/57 23/23/23
f 55/55/55 23/23/23 57/57/57
f 59/59/59 58/58/58 52/52/52
f 51/51/51 52/52/52 58/58/58
f 60/60/60 38/38/38 37/37/37
f 38/38/38 60/60/60 61/61/61
f 62/62/62 20/20/20 41/41/41
f 20/20/20 62/62/62 19/19/19
f 63/63/63 6/6/6 8/8/8
f 63/63/63 64/64/64 6/6/6
f 67/67/67 66/66/66 65/65/65
f 67/67/67 68/68/68 66/66/66
f 70/70/70 65/65/65 69/69/69
f 70/70/70 67/67/67 65/65/65
f 64/64/64 5/5/5 6/6/6
f 64/64/64 71/71/71 5/5/5
f 73/73/73 69/69/69 72/72/72
f 73/73/73 70/70/70 69/69/69
f 71/71/71 7/7/7 5/5/5
f 71/71/71 74/74/74 7/7/7
f 75/75/75 34/34/34 33/33/33
f 75/75/75 76/76/76 34/34/34
f 78/78/78 72/72/72 77/77/77
f 78/78/78 73/73/73 72/72/72
f 74/74/74 9/9/9 7/7/7
f 74/74/74 79/79/79 9/9/9
f 80/80/80 8/8/8 10/10/10
f 80/80/80 63/63/63 8/8/8
f 81/81/81 31/31/31 32/32/32
f 81/81/81 82/82/82 31/31/31
f 68/68/68 83/83/83 66/66/66
f 68/68/68 84/84/84 83/83/83
