g pb_Mesh416266
v -95 10.5 10
v -74 2 10
v -74 10.5 10
v -95 2 10
v -110 10.5 10
v -110 2 10
v -110 19 10
v -95 19 10
v -74 19 10
v -110 10.5 -4
v -110 2 10
v -110 10.5 10
v -110 2 -4
v -110 10.5 -29
v -110 2 -29
v -110 19 -29
v -110 19 -4
v -110 19 10
v -95 2 -29
v -110 2 -29
v -110 10.5 -29
v -95 10.5 -29
v -74 2 -29
v -74 10.5 -29
v -95 19 -29
v -74 19 -29
v -110 19 -29
v -74 2 -4
v -74 2 -29
v -74 10.5 -29
v -74 10.5 -4
v -74 2 10
v -74 10.5 10
v -74 19 -4
v -74 19 10
v -74 19 -29
v -74 19 10
v -95 19 -4
v -95 19 10
v -74 19 -4
v -110 19 -4
v -110 19 10
v -110 19 -29
v -95 19 -29
v -74 19 -29
v -95 2 -29
v -74 2 -29
v -74 2 -4
v -95 2 -4
v -110 2 -29
v -110 2 -4
v -95 2 10
v -110 2 10
v -74 2 10
vt -15 7.5
vt 0 -1
vt 0 7.5
vt -15 -1
vt -30 7.5
vt -30 -1
vt -30 16
vt -15 16
vt 0 16
vt -14 7.5
vt 0 -1
vt 0 7.5
vt -14 -1
vt -30 7.5
vt -30 -1
vt -30 16
vt -14 16
vt 0 16
vt -15 -1
vt -30 -1
vt -30 7.5
vt -15 7.5
vt 0 -1
vt 0 7.5
vt -15 16
vt 0 16
vt -30 16
vt -14 -1
vt -30 -1
vt -30 7.5
vt -14 7.5
vt 0 -1
vt 0 7.5
vt -14 16
vt 0 16
vt -30 16
vt 0 0
vt 15 -14
vt 15 0
vt 0 -14
vt 30 -14
vt 30 0
vt 30 -30
vt 15 -30
vt 0 -30
vt 15 -30
vt 0 -30
vt 0 -14
vt 15 -14
vt 30 -30
vt 30 -14
vt 15 0
vt 30 0
vt 0 0
vn 0 0 -1
vn 0 0 -1
vn 0 0 -1
vn 0 0 -1
vn 0 0 -1
vn 0 0 -1
vn 0 0 -1
vn 0 0 -1
vn 0 0 -1
vn 1 0 0
vn 1 0 0
vn 1 0 0
vn 1 0 0
vn 1 0 0
vn 1 0 0
vn 1 0 0
vn 1 0 0
vn 1 0 0
vn 0 0 1
vn 0 0 1
vn 0 0 1
vn 0 0 1
vn 0 0 1
vn 0 0 1
vn 0 0 1
vn 0 0 1
vn 0 0 1
vn -1 0 0
vn -1 0 0
vn -1 0 0
vn -1 0 0
vn -1 0 0
vn -1 0 0
vn -1 0 0
vn -1 0 0
vn -1 0 0
vn 0 -1 0
vn 0 -1 0
vn 0 -1 0
vn 0 -1 0
vn 0 -1 0
vn 0 -1 0
vn 0 -1 0
vn 0 -1 0
vn 0 -1 0
vn 0 1 0
vn 0 1 0
vn 0 1 0
vn 0 1 0
vn 0 1 0
vn 0 1 0
vn 0 1 0
vn 0 1 0
vn 0 1 0
g pb_Mesh416266_0
g pb_Mesh416266_1
f 3/3/3 2/2/2 1/1/1
f 2/2/2 4/4/4 1/1/1
f 1/1/1 4/4/4 5/5/5
f 4/4/4 6/6/6 5/5/5
f 8/8/8 1/1/1 7/7/7
f 1/1/1 5/5/5 7/7/7
f 9/9/9 3/3/3 8/8/8
f 3/3/3 1/1/1 8/8/8
f 12/12/12 11/11/11 10/10/10
f 11/11/11 13/13/13 10/10/10
f 10/10/10 13/13/13 14/14/14
f 13/13/13 15/15/15 14/14/14
f 17/17/17 10/10/10 16/16/16
f 10/10/10 14/14/14 16/16/16
f 18/18/18 12/12/12 17/17/17
f 12/12/12 10/10/10 17/17/17
f 21/21/21 20/20/20 19/19/19
f 21/21/21 19/19/19 22/22/22
f 22/22/22 19/19/19 23/23/23
f 22/22/22 23/23/23 24/24/24
f 25/25/25 22/22/22 24/24/24
f 25/25/25 24/24/24 26/26/26
f 27/27/27 21/21/21 22/22/22
f 27/27/27 22/22/22 25/25/25
f 30/30/30 29/29/29 28/28/28
f 30/30/30 28/28/28 31/31/31
f 31/31/31 28/28/28 32/32/32
f 31/31/31 32/32/32 33/33/33
f 34/34/34 31/31/31 33/33/33
f 34/34/34 33/33/33 35/35/35
f 36/36/36 30/30/30 31/31/31
f 36/36/36 31/31/31 34/34/34
f 39/39/39 38/38/38 37/37/37
f 38/38/38 40/40/40 37/37/37
f 42/42/42 41/41/41 39/39/39
f 41/41/41 38/38/38 39/39/39
f 41/41/41 43/43/43 38/38/38
f 43/43/43 44/44/44 38/38/38
f 38/38/38 44/44/44 40/40/40
f 44/44/44 45/45/45 40/40/40
f 48/48/48 47/47/47 46/46/46
f 48/48/48 46/46/46 49/49/49
f 49/49/49 46/46/46 50/50/50
f 49/49/49 50/50/50 51/51/51
f 52/52/52 49/49/49 51/51/51
f 52/52/52 51/51/51 53/53/53
f 54/54/54 48/48/48 49/49/49
f 54/54/54 49/49/49 52/52/52
