g pb_Mesh-870100
v 0.9999499 0 26.5
v 1.000001 0 7.000001
v 0.999948 2 26.49999
v 1.000001 2 7.000001
v -0.9999992 0 7.000001
v -1.000053 0 26.5
v -0.9999992 2 7.000001
v -1.000055 2 26.49999
v 1.000001 2 7.000001
v 2.525001 2 7
v 0.999948 2 26.49999
v 2.500005 2 28.00005
v 1.000001 2 7.000001
v 2.525001 0 7
v 2.525001 2 7
v 1.000001 0 7.000001
v 4.050001 2 7
v 4.050001 0 7
v -2.499994 2 28
v -2.524997 2 7.000001
v -1.000055 2 26.49999
v -0.9999992 2 7.000001
v -16.16508 2 27.99998
v -4.049995 2 7
v -2.524997 2 7.000001
v -4.049995 2 7
v -4.049995 0 7
v -2.524997 0 7.000001
v -0.9999992 0 7.000001
v -0.9999992 2 7.000001
v 2.500009 0 28.00005
v 0.999948 2 26.49999
v 2.500005 2 28.00005
v 0.9999499 0 26.5
v -1.000053 0 26.5
v -2.499994 2 28
v -1.000055 2 26.49999
v -2.499994 0 28.00001
v 13.60434 2 28.00006
v 16.16688 2 28.00006
v 13.80254 2.00005 28.34335
v 16.56327 2.000099 28.68664
v 16.56327 2.000099 28.68664
v 14.61009 2.000099 29.74211
v 13.80254 2.00005 28.34335
v 12.32307 2 28.00006
v 12.42217 2.000025 28.1717
v 12.42217 2.000025 28.1717
v 13.6335 2.000099 30.26985
v 4.050001 2 7
v 11.0418 2 28.00006
v 11.68244 2 28.00006
v 12.32307 2 28.00006
v 13.60434 2 28.00006
v 16.16688 2 28.00006
v 11.68244 2 28.00006
v 11.73199 2.000012 28.08588
v 11.73199 2.000012 28.08588
v 13.14521 2.000099 30.53372
vt 26.49999 -9.536978E-07
vt 6.999998 -9.536978E-07
vt 26.49999 1.999999
vt 6.999998 1.999999
vt -7.000004 0
vt -26.5 0
vt -7.000004 2
vt -26.49999 2
vt -1.000001 7.000001
vt -2.525001 7
vt -0.999948 26.49999
vt -2.500005 28.00005
vt -0.9999967 2
vt -2.524997 0
vt -2.524997 2
vt -0.9999967 0
vt -4.049999 2
vt -4.049999 0
vt 2.499994 28
vt 2.524997 7.000001
vt 1.000055 26.49999
vt 0.9999992 7.000001
vt 16.16508 27.99998
vt 4.049995 7
vt 2.524995 2
vt 4.049993 2
vt 4.049993 0
vt 2.524995 0
vt 0.9999992 0
vt 0.9999992 2
vt 21.56678 -2.431886E-05
vt 19.44537 1.999976
vt 21.56677 1.999976
vt 19.44538 -2.431886E-05
vt -19.44591 -3.647671E-05
vt -21.56719 1.999964
vt -19.44591 1.999964
vt -21.5672 -3.647671E-05
vt -13.60434 28.00035
vt -16.16688 28.00035
vt -13.80254 28.34364
vt -16.56327 28.68693
vt -16.5633 28.68669
vt -14.61012 29.74217
vt -13.80257 28.3434
vt -12.32307 28.00035
vt -12.42217 28.17199
vt -12.4222 28.17175
vt -13.63353 30.2699
vt -4.050001 7
vt -11.0418 28.00006
vt -11.68244 28.00006
vt -12.32307 28.00006
vt -13.60434 28.00006
vt -16.16688 28.00006
vt -11.68244 28.00035
vt -11.73199 28.08617
vt -11.73202 28.08593
vt -13.14524 30.53377
vn -1 -9.536793E-07 -2.625662E-06
vn -1 -4.768397E-07 -2.674568E-06
vn -1 -4.768397E-07 -2.674568E-06
vn -1 0 -2.723475E-06
vn 1 0 2.775437E-06
vn 1 4.768399E-07 2.824344E-06
vn 1 4.768399E-07 2.824344E-06
vn 1 9.536798E-07 2.873251E-06
vn 0 1 0
vn 0 1 0
vn 0 1 0
vn 0 1 0
vn -6.253602E-07 0 -1
vn -6.253602E-07 0 -1
vn -6.253602E-07 0 -1
vn -6.253602E-07 0 -1
vn -3.126801E-07 0 -1
vn -3.126801E-07 0 -1
vn 0 1 0
vn 0 1 0
vn 0 1 0
vn 0 1 0
vn 0 1 0
vn 0 1 0
vn 3.126805E-07 0 -1
vn 3.126805E-07 0 -1
vn 3.126805E-07 0 -1
vn 3.126805E-07 0 -1
vn 0 0 -1
vn 0 0 -1
vn -0.7071062 1.011527E-06 0.7071074
vn -0.7071062 1.011527E-06 0.7071074
vn -0.7071059 1.348704E-06 0.7071076
vn -0.7071064 6.743508E-07 0.7071072
vn 0.7071242 2.360181E-06 0.7070893
vn 0.7071242 2.360181E-06 0.7070893
vn 0.707124 2.023032E-06 0.7070895
vn 0.7071245 2.697331E-06 0.7070891
vn 1.075231E-10 1 -0.0001444581
vn 1.075231E-10 1 -0.0001444581
vn 1.075231E-10 1 -0.0001444581
vn 1.075231E-10 1 -0.0001444581
vn -1.460278E-05 1 -2.702276E-05
vn -1.460278E-05 1 -2.702276E-05
vn -1.460278E-05 1 -2.702276E-05
vn 0 1 -0.0001444589
vn 5.376153E-11 1 -0.0001444585
vn -1.460278E-05 1 -2.702276E-05
vn -1.460278E-05 1 -2.702276E-05
vn 0 1 0
vn 0 1 0
vn 0 1 0
vn 0 1 0
vn 0 1 0
vn 0 1 0
vn 0 1 -0.0001444605
vn 1.075238E-10 1 -0.0001444597
vn -1.460279E-05 1 -2.702275E-05
vn -1.460279E-05 1 -2.702275E-05
g pb_Mesh-870100_0
g pb_Mesh-870100_1
f 3/3/3 2/2/2 1/1/1
f 3/3/3 4/4/4 2/2/2
f 7/7/7 6/6/6 5/5/5
f 7/7/7 8/8/8 6/6/6
f 11/11/11 10/10/10 9/9/9
f 11/11/11 12/12/12 10/10/10
f 15/15/15 14/14/14 13/13/13
f 14/14/14 16/16/16 13/13/13
f 14/14/14 15/15/15 17/17/17
f 18/18/18 14/14/14 17/17/17
f 21/21/21 20/20/20 19/19/19
f 21/21/21 22/22/22 20/20/20
f 19/19/19 24/24/24 23/23/23
f 20/20/20 24/24/24 19/19/19
f 27/27/27 26/26/26 25/25/25
f 28/28/28 27/27/27 25/25/25
f 30/30/30 29/29/29 25/25/25
f 29/29/29 28/28/28 25/25/25
f 33/33/33 32/32/32 31/31/31
f 32/32/32 34/34/34 31/31/31
f 37/37/37 36/36/36 35/35/35
f 36/36/36 38/38/38 35/35/35
f 41/41/41 40/40/40 39/39/39
f 42/42/42 40/40/40 41/41/41
f 45/45/45 44/44/44 43/43/43
f 47/47/47 39/39/39 46/46/46
f 41/41/41 39/39/39 47/47/47
f 49/49/49 45/45/45 48/48/48
f 44/44/44 45/45/45 49/49/49
f 12/12/12 50/50/50 10/10/10
f 12/12/12 51/51/51 50/50/50
f 51/51/51 52/52/52 50/50/50
f 50/50/50 52/52/52 53/53/53
f 50/50/50 53/53/53 54/54/54
f 54/54/54 55/55/55 50/50/50
f 57/57/57 46/46/46 56/56/56
f 47/47/47 46/46/46 57/57/57
f 59/59/59 48/48/48 58/58/58
f 59/59/59 49/49/49 48/48/48
