g pb_Mesh320870
v -12 0 -0.500003
v 12 0 -0.5000023
v -12 1 -0.500003
v 12 1 -0.5000023
v -12 1 -0.500003
v 12 1 -0.5000023
v -12 1 0.9999982
v 12 1 0.9999989
v -12 1 0.9999982
v 12 1 0.9999989
v -12 2 0.9999982
v 12 2 0.9999989
v -12 2 0.9999982
v 12 2 0.9999989
v -12 2 1.999998
v 12 2 1.999999
v -12 2 1.999998
v 12 2 1.999999
v -12 3 1.999998
v 12 3 1.999999
v -12 3 1.999998
v 12 3 1.999999
v -12 3 2.999998
v 12 3 2.999999
v -12 3 2.999998
v 12 3 2.999999
v -12 4 2.999998
v 12 4 2.999999
v -12 4 2.999998
v 12 4 2.999999
v -12 4 3.999998
v 12 4 3.999999
v 12 0 -0.5000023
v 12 0 0.9999989
v 12 1 -0.5000023
v 12 1 0.9999989
v 12 0 0.9999989
v 12 0 1.999999
v 12 1 0.9999989
v 12 2 1.999999
v 12 2 0.9999989
v 12 0 2.999999
v 12 3 2.999999
v 12 3 1.999999
v 12 0 3.999999
v 12 4 3.999999
v 12 4 2.999999
v -12 1 -0.500003
v -12 0 0.9999982
v -12 0 -0.500003
v -12 1 0.9999982
v -12 0 1.999998
v -12 2 1.999998
v -12 2 0.9999982
v -12 0 2.999998
v -12 3 2.999998
v -12 3 1.999998
v -12 0 3.999998
v -12 4 3.999998
v -12 4 2.999998
v -12 -1 -0.500003
v 12 -1 -0.5000023
vt 12 0
vt -12 0
vt 12 1
vt -12 1
vt 12 -0.500003
vt -12 -0.5000023
vt 12 0.9999982
vt -12 0.9999989
vt 12 1
vt -12 1
vt 12 2
vt -12 2
vt 12 0.9999982
vt -12 0.9999989
vt 12 1.999998
vt -12 1.999999
vt 12 2
vt -12 2
vt 12 3
vt -12 3
vt 12 1.999998
vt -12 1.999999
vt 12 2.999998
vt -12 2.999999
vt 12 3
vt -12 3
vt 12 4
vt -12 4
vt 12 2.999998
vt -12 2.999999
vt 12 3.999998
vt -12 3.999999
vt 0.4999718 0
vt -1.000029 0
vt 0.4999718 1
vt -1.000029 1
vt -0.9999989 0
vt -1.999999 0
vt -0.9999989 1
vt -1.999999 2
vt -0.9999989 2
vt -2.999999 0
vt -2.999999 3
vt -1.999999 3
vt -3.999999 0
vt -3.999999 4
vt -2.999999 4
vt -0.5000336 1
vt 0.9999676 0
vt -0.5000336 0
vt 0.9999676 1
vt 1.999998 0
vt 1.999998 2
vt 0.9999982 2
vt 2.999998 0
vt 2.999998 3
vt 1.999998 3
vt 3.999998 0
vt 3.999998 4
vt 2.999998 4
vt 12 -1
vt -12 -1
vn 2.980232E-08 0 -1
vn 2.980232E-08 0 -1
vn 2.980232E-08 0 -1
vn 2.980232E-08 0 -1
vn 0 1 0
vn 0 1 0
vn 0 1 0
vn 0 1 0
vn 2.980232E-08 0 -1
vn 2.980232E-08 0 -1
vn 2.980232E-08 0 -1
vn 2.980232E-08 0 -1
vn 0 1 0
vn 0 1 0
vn 0 1 0
vn 0 1 0
vn 2.980232E-08 0 -1
vn 2.980232E-08 0 -1
vn 2.980232E-08 0 -1
vn 2.980232E-08 0 -1
vn 0 1 0
vn 0 1 0
vn 0 1 0
vn 0 1 0
vn 2.980232E-08 0 -1
vn 2.980232E-08 0 -1
vn 2.980232E-08 0 -1
vn 2.980232E-08 0 -1
vn 0 1 0
vn 0 1 0
vn 0 1 0
vn 0 1 0
vn 1 0 -2.54313E-06
vn 1 0 -2.54313E-06
vn 1 0 -2.54313E-06
vn 1 0 -2.54313E-06
vn 1 0 0
vn 1 0 0
vn 1 0 0
vn 1 0 0
vn 1 0 0
vn 1 0 0
vn 1 0 0
vn 1 0 0
vn 1 0 0
vn 1 0 0
vn 1 0 0
vn -1 0 2.54313E-06
vn -1 0 2.54313E-06
vn -1 0 2.54313E-06
vn -1 0 2.54313E-06
vn -1 0 0
vn -1 0 0
vn -1 0 0
vn -1 0 0
vn -1 0 0
vn -1 0 0
vn -1 0 0
vn -1 0 0
vn -1 0 0
vn 2.980232E-08 0 -1
vn 2.980232E-08 0 -1
g pb_Mesh320870_0
f 3/3/3 2/2/2 1/1/1
f 3/3/3 4/4/4 2/2/2
f 7/7/7 6/6/6 5/5/5
f 7/7/7 8/8/8 6/6/6
f 11/11/11 10/10/10 9/9/9
f 11/11/11 12/12/12 10/10/10
f 15/15/15 14/14/14 13/13/13
f 15/15/15 16/16/16 14/14/14
f 19/19/19 18/18/18 17/17/17
f 19/19/19 20/20/20 18/18/18
f 23/23/23 22/22/22 21/21/21
f 23/23/23 24/24/24 22/22/22
f 27/27/27 26/26/26 25/25/25
f 27/27/27 28/28/28 26/26/26
f 31/31/31 30/30/30 29/29/29
f 31/31/31 32/32/32 30/30/30
f 35/35/35 34/34/34 33/33/33
f 35/35/35 36/36/36 34/34/34
f 39/39/39 38/38/38 37/37/37
f 39/39/39 40/40/40 38/38/38
f 39/39/39 41/41/41 40/40/40
f 40/40/40 42/42/42 38/38/38
f 40/40/40 43/43/43 42/42/42
f 40/40/40 44/44/44 43/43/43
f 43/43/43 45/45/45 42/42/42
f 43/43/43 46/46/46 45/45/45
f 43/43/43 47/47/47 46/46/46
f 50/50/50 49/49/49 48/48/48
f 49/49/49 51/51/51 48/48/48
f 49/49/49 52/52/52 51/51/51
f 52/52/52 53/53/53 51/51/51
f 53/53/53 54/54/54 51/51/51
f 52/52/52 55/55/55 53/53/53
f 55/55/55 56/56/56 53/53/53
f 56/56/56 57/57/57 53/53/53
f 55/55/55 58/58/58 56/56/56
f 58/58/58 59/59/59 56/56/56
f 59/59/59 60/60/60 56/56/56
f 1/1/1 2/2/2 61/61/61
f 2/2/2 62/62/62 61/61/61
