g pb_Mesh177378
v -14 12 8
v -2 12 8
v -2 12 15
v -14 12 15
v -2 12 15
v -2 12 23
v -14 12 23
v -14 12 15
v -2 8 23
v -2 8 15
v 12 8 15
v 12 8 23
v -2 8 15
v -2 8 8
v 12 8 8
v 12 8 15
v -30 12 8
v -22 12 8
v -22 12 15
v -30 12 15
v -30 12 15
v -22 12 15
v -22 12 23
v -30 12 23
v -22 12 8
v -14 12 8
v -14 12 15
v -22 12 15
v -22 12 15
v -14 12 15
v -14 12 23
v -22 12 23
v -22 12 23
v -14 12 23
v -22 12 31
v -14 12 31
v -14 12 23
v -2 12 23
v -14 12 31
v -2 12 31
v -30 12 23
v -22 12 23
v -30 12 31
v -22 12 31
v -2 8 23
v 12 8 23
v -2 8 31
v 12 8 31
v -30 0 -9
v -22 0 -9
v -30 8 -9
v -22 8 -9
v -22 0 -7
v -14 0 -7
v -22 8 -7
v -14 8 -7
v -13 0 18
v -3 0 18
v -12 7 18
v -4 7 18
v 12 0 15
v 12 0 23
v 12 8 15
v 12 8 23
v -2 0 8
v 12 0 8
v -2 8 8
v 12 8 8
v 12 0 8
v 12 0 15
v 12 8 8
v 12 8 15
v -2 0 31
v -14 0 31
v -2 8 31
v -14 8 31
v 12 0 23
v 12 0 31
v 12 8 23
v 12 8 31
v -14 0 31
v -22 0 31
v -14 8 31
v -22 8 31
v -22 0 31
v -30 0 31
v -22 8 31
v -30 8 31
v -14 8 8
v -14 0 8
v -12 7 8
v -13 0 8
v -2 0 8
v -2 8 8
v -3 0 8
v -4 7 8
v -2 8 8
v -14 8 8
v -4 7 8
v -12 7 8
v -13 0 8
v -3 0 8
v -13 0 18
v -3 0 18
v -12 7 8
v -13 0 8
v -12 7 18
v -13 0 18
v -3 0 8
v -4 7 8
v -3 0 18
v -4 7 18
v -4 7 8
v -12 7 8
v -4 7 18
v -12 7 18
v -14 -8 31
v -14 0 31
v -2 0 31
v -2 -8 31
v -2 -8 -7
v -2 0 -7
v -14 0 -7
v -14 -8 -7
v -2 -8 31
v -2 0 31
v 12 0 31
v 12 -8 31
v 30 -8 15
v 30 0 15
v 30 0 8
v 30 -8 8
v 30 -8 23
v 30 0 23
v 30 0 15
v 30 -8 15
v -22 -8 -7
v -22 0 -7
v -30 0 -7
v -30 -8 -7
v -30 -8 31
v -30 0 31
v -22 0 31
v -22 -8 31
v -14 -8 -7
v -14 0 -7
v -22 0 -7
v -22 -8 -7
v -22 -8 31
v -22 0 31
v -14 0 31
v -14 -8 31
v 30 0 23
v 30 -8 23
v 30 -8 31
v 30 0 31
v -2 0 8
v -14 0 8
v -14 0 0
v -2 0 6
v -14 0 0
v -14 0 -7
v -2 0 -7
v -2 0 6
v -30 12 -7
v -22 12 -7
v -22 12 0
v -30 12 0
v -22 12 0
v -22 12 8
v -30 12 8
v -30 12 0
v -22 8 -7
v -14 8 -7
v -14 8 0
v -22 8 0
v -14 12 0
v -14 12 8
v -22 12 8
v -22 12 0
v -14 0 -7
v -14 0 0
v -14 8 0
v -14 8 -7
v -14 0 0
v -14 0 8
v -14 8 8
v -14 8 0
v 30 -8 8
v 30 0 8
v 30 0 6
v 30 -8 6
v -2 0 6
v -2 0 -7
v -2 -8 -7
v -2 -8 6
v -2 0 8
v -2 0 6
v 12 0 8
v 12 0 6
v -2 0 6
v -2 -8 6
v 12 0 6
v 12 -8 6
v -14 8 8
v -2 8 8
v -14 12 8
v -2 12 8
v -2 8 8
v -2 8 15
v -2 12 8
v -2 12 15
v -2 8 15
v -2 8 23
v -2 12 15
v -2 12 23
v -14 8 31
v -22 8 31
v -14 12 31
v -22 12 31
v -2 8 23
v -2 8 31
v -2 12 23
v -2 12 31
v -2 8 31
v -14 8 31
v -2 12 31
v -14 12 31
v -22 8 31
v -30 8 31
v -22 12 31
v -30 12 31
v -30 8 -9
v -22 8 -9
v -30 12 -9
v -22 12 -9
v -22 8 -7
v -22 8 0
v -22 12 -7
v -22 12 0
v -22 8 0
v -14 8 0
v -22 12 0
v -14 12 0
v -14 8 0
v -14 8 8
v -14 12 0
v -14 12 8
v 12 0 31
v -2 0 31
v 12 8 31
v -2 8 31
v 12 -8 8
v 12 0 8
v 12 -8 8
v 12 0 8
v 12 0 8
v 12 0 6
v 12 0 8
v 12 0 6
v 12 0 6
v 12 -8 6
v 12 0 6
v 12 -8 6
v 12 -8 6
v 12 -8 8
v 12 -8 6
v 12 -8 8
v 12 -8 8
v 12 0 8
v 30 -8 8
v 30 0 8
v 12 0 8
v 12 0 6
v 30 0 8
v 30 0 6
v 12 0 6
v 12 -8 6
v 30 0 6
v 30 -8 6
v 12 0 15
v 12 0 8
v 30 0 15
v 30 0 8
v 12 0 8
v 12 -8 8
v 30 0 8
v 30 -8 8
v 12 0 23
v 12 0 15
v 30 0 23
v 30 0 15
v 12 -8 31
v 12 0 31
v 30 -8 31
v 30 0 31
v 12 0 31
v 12 0 23
v 30 0 31
v 30 0 23
v -2 -8 31
v -14 -8 31
v -2 -40 31
v -14 -40 31
v -14 -8 -7
v -2 -8 -7
v -14 -40 -7
v -2 -40 -7
v 12 -8 31
v -2 -8 31
v 12 -40 31
v -2 -40 31
v 30 -8 8
v 30 -8 15
v 30 -40 8
v 30 -40 15
v 30 -8 15
v 30 -8 23
v 30 -40 15
v 30 -40 23
v -30 -8 -7
v -22 -8 -7
v -30 -40 -7
v -22 -40 -7
v -22 -8 31
v -30 -8 31
v -22 -40 31
v -30 -40 31
v -22 -8 -7
v -14 -8 -7
v -22 -40 -7
v -14 -40 -7
v -14 -8 31
v -22 -8 31
v -14 -40 31
v -22 -40 31
v 30 -8 23
v 30 -8 31
v 30 -40 23
v 30 -40 31
v 30 -8 6
v 30 -8 8
v 30 -40 6
v 30 -40 8
v -2 -8 -7
v -2 -8 6
v -2 -40 -7
v -2 -40 6
v -2 -8 6
v 12 -8 6
v -2 -40 6
v 12 -40 6
v 12 -8 6
v 12 -8 8
v 12 -40 6
v 12 -40 8
v 12 -8 8
v 12 -8 6
v 12 -40 8
v 12 -40 6
v 30 -8 8
v 12 -8 8
v 30 -40 8
v 12 -40 8
v 12 -8 6
v 30 -8 6
v 12 -40 6
v 30 -40 6
v 12 -8 8
v 30 -8 8
v 12 -40 8
v 30 -40 8
v 30 -8 31
v 12 -8 31
v 30 -40 31
v 12 -40 31
v -2 -40 31
v -14 -40 31
v -2 -72 31
v -14 -72 31
v -14 -40 -7
v -2 -40 -7
v -14 -72 -7
v -2 -72 -7
v 12 -40 31
v -2 -40 31
v 12 -72 31
v -2 -72 31
v 30 -40 8
v 30 -40 15
v 30 -72 8
v 30 -72 15
v 30 -40 15
v 30 -40 23
v 30 -72 15
v 30 -72 23
v -30 -40 -7
v -22 -40 -7
v -30 -72 -7
v -22 -72 -7
v -22 -40 31
v -30 -40 31
v -22 -72 31
v -30 -72 31
v -22 -40 -7
v -14 -40 -7
v -22 -72 -7
v -14 -72 -7
v -14 -40 31
v -22 -40 31
v -14 -72 31
v -22 -72 31
v 30 -40 23
v 30 -40 31
v 30 -72 23
v 30 -72 31
v 30 -40 6
v 30 -40 8
v 30 -72 6
v 30 -72 8
v -2 -40 -7
v -2 -40 6
v -2 -72 -7
v -2 -72 6
v -2 -40 6
v 12 -40 6
v -2 -72 6
v 12 -72 6
v 12 -40 6
v 12 -40 8
v 12 -72 6
v 12 -72 8
v 12 -40 8
v 12 -40 6
v 12 -72 8
v 12 -72 6
v 30 -40 8
v 12 -40 8
v 30 -72 8
v 12 -72 8
v 12 -40 6
v 30 -40 6
v 12 -72 6
v 30 -72 6
v 12 -40 8
v 30 -40 8
v 12 -72 8
v 30 -72 8
v 30 -40 31
v 12 -40 31
v 30 -72 31
v 12 -72 31
v -30 12 -7
v -30 8 -7
v -30 12 -9
v -30 8 -9
v -22 8 -7
v -22 12 -7
v -22 8 -9
v -22 12 -9
v -22 12 -7
v -30 12 -7
v -22 12 -9
v -30 12 -9
v -30 0 -7
v -22 0 -7
v -30 0 -9
v -22 0 -9
v -30 8 -7
v -30 0 -7
v -30 8 -9
v -30 0 -9
v -22 0 -7
v -22 8 -7
v -22 0 -9
v -22 8 -9
vt 14 8
vt 2 8
vt 2 15
vt 14 15
vt 2 15
vt 2 23
vt 14 23
vt 14 15
vt 2 23
vt 2 15
vt -12 15
vt -12 23
vt 2 15
vt 2 8
vt -12 8
vt -12 15
vt 30 8
vt 22 8
vt 22 15
vt 30 15
vt 30 15
vt 22 15
vt 22 23
vt 30 23
vt 22 8
vt 14 8
vt 14 15
vt 22 15
vt 22 15
vt 14 15
vt 14 23
vt 22 23
vt 22 23
vt 14 23
vt 22 31
vt 14 31
vt 14 23
vt 2 23
vt 14 31
vt 2 31
vt 30 23
vt 22 23
vt 30 31
vt 22 31
vt 2 23
vt -12 23
vt 2 31
vt -12 31
vt 30 0
vt 22 0
vt 30 8
vt 22 8
vt 22 0
vt 14 0
vt 22 8
vt 14 8
vt 13 0
vt 3 0
vt 12 7
vt 4 7
vt -15 0
vt -23 0
vt -15 8
vt -23 8
vt 2 0
vt -12 0
vt 2 8
vt -12 8
vt -8 0
vt -15 0
vt -8 8
vt -15 8
vt -2 0
vt -14 0
vt -2 8
vt -14 8
vt -23 0
vt -31 0
vt -23 8
vt -31 8
vt -14 0
vt -22 0
vt -14 8
vt -22 8
vt -22 0
vt -30 0
vt -22 8
vt -30 8
vt 14 8
vt 14 0
vt 12 7
vt 13 0
vt 2 0
vt 2 8
vt 3 0
vt 4 7
vt 2 8
vt 14 8
vt 4 7
vt 12 7
vt 13 8
vt 3 8
vt 13 18
vt 3 18
vt -8 5.23259
vt -8 -1.838478
vt -18 5.23259
vt -18 -1.838478
vt 8 0.4242641
vt 8 7.495332
vt 18 0.4242641
vt 18 7.495332
vt -4 8
vt -12 8
vt -4 18
vt -12 18
vt -14 -8
vt -14 0
vt -2 0
vt -2 -8
vt 2 -8
vt 2 0
vt 14 0
vt 14 -8
vt -2 -8
vt -2 0
vt 12 0
vt 12 -8
vt -15 -8
vt -15 0
vt -8 0
vt -8 -8
vt -23 -8
vt -23 0
vt -15 0
vt -15 -8
vt 22 -8
vt 22 0
vt 30 0
vt 30 -8
vt -30 -8
vt -30 0
vt -22 0
vt -22 -8
vt 14 -8
vt 14 0
vt 22 0
vt 22 -8
vt -22 -8
vt -22 0
vt -14 0
vt -14 -8
vt -23 0
vt -23 -8
vt -31 -8
vt -31 0
vt 2 8
vt 14 8
vt 14 0
vt 2 6
vt 14 0
vt 14 -7
vt 2 -7
vt 2 6
vt 30 -7
vt 22 -7
vt 22 0
vt 30 0
vt 22 0
vt 22 8
vt 30 8
vt 30 0
vt 22 -7
vt 14 -7
vt 14 0
vt 22 0
vt 14 0
vt 14 8
vt 22 8
vt 22 0
vt 7 0
vt 0 0
vt 0 8
vt 7 8
vt 0 0
vt -8 0
vt -8 8
vt 0 8
vt -8 -8
vt -8 0
vt -6 0
vt -6 -8
vt -6 0
vt 7 0
vt 7 -8
vt -6 -8
vt 2 8
vt 2 6
vt -12 8
vt -12 6
vt 2 0
vt 2 -8
vt -12 0
vt -12 -8
vt 14 8
vt 2 8
vt 14 12
vt 2 12
vt -8 8
vt -15 8
vt -8 12
vt -15 12
vt -15 8
vt -23 8
vt -15 12
vt -23 12
vt -14 8
vt -22 8
vt -14 12
vt -22 12
vt -23 8
vt -31 8
vt -23 12
vt -31 12
vt -2 8
vt -14 8
vt -2 12
vt -14 12
vt -22 8
vt -30 8
vt -22 12
vt -30 12
vt 30 8
vt 22 8
vt 30 12
vt 22 12
vt 7 8
vt 0 8
vt 7 12
vt 0 12
vt 22 8
vt 14 8
vt 22 12
vt 14 12
vt 0 8
vt -8 8
vt 0 12
vt -8 12
vt 12 0
vt -2 0
vt 12 8
vt -2 8
vt 0 0
vt 0 0
vt 0 0
vt 0 0
vt 0 0
vt 0 0
vt 0 0
vt 0 0
vt 0 0
vt 0 0
vt 0 0
vt 0 0
vt 0 0
vt 0 0
vt 0 0
vt 0 0
vt 12 -8
vt 12 0
vt 30 -8
vt 30 0
vt -12 8
vt -12 6
vt -30 8
vt -30 6
vt -12 0
vt -12 -8
vt -30 0
vt -30 -8
vt -12 15
vt -12 8
vt -30 15
vt -30 8
vt -12 0
vt -12 -8
vt -30 0
vt -30 -8
vt -12 23
vt -12 15
vt -30 23
vt -30 15
vt 12 -8
vt 12 0
vt 30 -8
vt 30 0
vt -12 31
vt -12 23
vt -30 31
vt -30 23
vt -2 -8
vt -14 -8
vt -2 -40
vt -14 -40
vt 14 -8
vt 2 -8
vt 14 -40
vt 2 -40
vt 12 -8
vt -2 -8
vt 12 -40
vt -2 -40
vt -8 -8
vt -15 -8
vt -8 -40
vt -15 -40
vt -15 -8
vt -23 -8
vt -15 -40
vt -23 -40
vt 30 -8
vt 22 -8
vt 30 -40
vt 22 -40
vt -22 -8
vt -30 -8
vt -22 -40
vt -30 -40
vt 22 -8
vt 14 -8
vt 22 -40
vt 14 -40
vt -14 -8
vt -22 -8
vt -14 -40
vt -22 -40
vt -23 -8
vt -31 -8
vt -23 -40
vt -31 -40
vt -6 -8
vt -8 -8
vt -6 -40
vt -8 -40
vt 7 -8
vt -6 -8
vt 7 -40
vt -6 -40
vt 2 -8
vt -12 -8
vt 2 -40
vt -12 -40
vt -6 -8
vt -8 -8
vt -6 -40
vt -8 -40
vt 8 -8
vt 6 -8
vt 8 -40
vt 6 -40
vt 30 -8
vt 12 -8
vt 30 -40
vt 12 -40
vt -12 -8
vt -30 -8
vt -12 -40
vt -30 -40
vt -12 -8
vt -30 -8
vt -12 -40
vt -30 -40
vt 30 -8
vt 12 -8
vt 30 -40
vt 12 -40
vt -2 -40
vt -14 -40
vt -2 -72
vt -14 -72
vt 14 -40
vt 2 -40
vt 14 -72
vt 2 -72
vt 12 -40
vt -2 -40
vt 12 -72
vt -2 -72
vt -8 -40
vt -15 -40
vt -8 -72
vt -15 -72
vt -15 -40
vt -23 -40
vt -15 -72
vt -23 -72
vt 30 -40
vt 22 -40
vt 30 -72
vt 22 -72
vt -22 -40
vt -30 -40
vt -22 -72
vt -30 -72
vt 22 -40
vt 14 -40
vt 22 -72
vt 14 -72
vt -14 -40
vt -22 -40
vt -14 -72
vt -22 -72
vt -23 -40
vt -31 -40
vt -23 -72
vt -31 -72
vt -6 -40
vt -8 -40
vt -6 -72
vt -8 -72
vt 7 -40
vt -6 -40
vt 7 -72
vt -6 -72
vt 2 -40
vt -12 -40
vt 2 -72
vt -12 -72
vt -6 -40
vt -8 -40
vt -6 -72
vt -8 -72
vt 8 -40
vt 6 -40
vt 8 -72
vt 6 -72
vt 30 -40
vt 12 -40
vt 30 -72
vt 12 -72
vt -12 -40
vt -30 -40
vt -12 -72
vt -30 -72
vt -12 -40
vt -30 -40
vt -12 -72
vt -30 -72
vt 30 -40
vt 12 -40
vt 30 -72
vt 12 -72
vt -7 12
vt -7 8
vt -9 12
vt -9 8
vt 7 8
vt 7 12
vt 9 8
vt 9 12
vt 22 -7
vt 30 -7
vt 22 -9
vt 30 -9
vt -30 -7
vt -22 -7
vt -30 -9
vt -22 -9
vt -7 8
vt -7 0
vt -9 8
vt -9 0
vt 7 0
vt 7 8
vt 9 0
vt 9 8
vn 0 1 0
vn 0 1 0
vn 0 1 0
vn 0 1 0
vn 0 1 0
vn 0 1 0
vn 0 1 0
vn 0 1 0
vn 0 1 0
vn 0 1 0
vn 0 1 0
vn 0 1 0
vn 0 1 0
vn 0 1 0
vn 0 1 0
vn 0 1 0
vn 0 1 0
vn 0 1 0
vn 0 1 0
vn 0 1 0
vn 0 1 0
vn 0 1 0
vn 0 1 0
vn 0 1 0
vn 0 1 0
vn 0 1 0
vn 0 1 0
vn 0 1 0
vn 0 1 0
vn 0 1 0
vn 0 1 0
vn 0 1 0
vn 0 1 0
vn 0 1 0
vn 0 1 0
vn 0 1 0
vn 0 1 0
vn 0 1 0
vn 0 1 0
vn 0 1 0
vn 0 1 0
vn 0 1 0
vn 0 1 0
vn 0 1 0
vn 0 1 0
vn 0 1 0
vn 0 1 0
vn 0 1 0
vn 0 0 -1
vn 0 0 -1
vn 0 0 -1
vn 0 0 -1
vn 0 0 -1
vn 0 0 -1
vn 0 0 -1
vn 0 0 -1
vn 0 0 -1
vn 0 0 -1
vn 0 0 -1
vn 0 0 -1
vn 1 0 0
vn 1 0 0
vn 1 0 0
vn 1 0 0
vn 0 0 -1
vn 0 0 -1
vn 0 0 -1
vn 0 0 -1
vn 1 0 0
vn 1 0 0
vn 1 0 0
vn 1 0 0
vn 0 0 1
vn 0 0 1
vn 0 0 1
vn 0 0 1
vn 1 0 0
vn 1 0 0
vn 1 0 0
vn 1 0 0
vn 0 0 1
vn 0 0 1
vn 0 0 1
vn 0 0 1
vn 0 0 1
vn 0 0 1
vn 0 0 1
vn 0 0 1
vn 0 0 -1
vn 0 0 -1
vn 0 0 -1
vn 0 0 -1
vn 0 0 -1
vn 0 0 -1
vn 0 0 -1
vn 0 0 -1
vn 0 0 -1
vn 0 0 -1
vn 0 0 -1
vn 0 0 -1
vn 0 1 0
vn 0 1 0
vn 0 1 0
vn 0 1 0
vn 0.9899495 -0.1414214 0
vn 0.9899495 -0.1414214 0
vn 0.9899495 -0.1414214 0
vn 0.9899495 -0.1414214 0
vn -0.9899495 -0.1414214 0
vn -0.9899495 -0.1414214 0
vn -0.9899495 -0.1414214 0
vn -0.9899495 -0.1414214 0
vn 0 -1 0
vn 0 -1 0
vn 0 -1 0
vn 0 -1 0
vn 0 0 1
vn 0 0 1
vn 0 0 1
vn 0 0 1
vn 0 0 -1
vn 0 0 -1
vn 0 0 -1
vn 0 0 -1
vn 0 0 1
vn 0 0 1
vn 0 0 1
vn 0 0 1
vn 1 0 0
vn 1 0 0
vn 1 0 0
vn 1 0 0
vn 1 0 0
vn 1 0 0
vn 1 0 0
vn 1 0 0
vn 0 0 -1
vn 0 0 -1
vn 0 0 -1
vn 0 0 -1
vn 0 0 1
vn 0 0 1
vn 0 0 1
vn 0 0 1
vn 0 0 -1
vn 0 0 -1
vn 0 0 -1
vn 0 0 -1
vn 0 0 1
vn 0 0 1
vn 0 0 1
vn 0 0 1
vn 1 0 0
vn 1 0 0
vn 1 0 0
vn 1 0 0
vn 0 1 0
vn 0 1 0
vn 0 1 0
vn 0 1 0
vn 0 1 0
vn 0 1 0
vn 0 1 0
vn 0 1 0
vn 0 1 0
vn 0 1 0
vn 0 1 0
vn 0 1 0
vn 0 1 0
vn 0 1 0
vn 0 1 0
vn 0 1 0
vn 0 1 0
vn 0 1 0
vn 0 1 0
vn 0 1 0
vn 0 1 0
vn 0 1 0
vn 0 1 0
vn 0 1 0
vn 1 0 0
vn 1 0 0
vn 1 0 0
vn 1 0 0
vn 1 0 0
vn 1 0 0
vn 1 0 0
vn 1 0 0
vn 1 0 0
vn 1 0 0
vn 1 0 0
vn 1 0 0
vn 1 0 0
vn 1 0 0
vn 1 0 0
vn 1 0 0
vn 0 1 0
vn 0 1 0
vn 0 1 0
vn 0 1 0
vn 0 0 -1
vn 0 0 -1
vn 0 0 -1
vn 0 0 -1
vn 0 0 -1
vn 0 0 -1
vn 0 0 -1
vn 0 0 -1
vn 1 0 0
vn 1 0 0
vn 1 0 0
vn 1 0 0
vn 1 0 0
vn 1 0 0
vn 1 0 0
vn 1 0 0
vn 0 0 1
vn 0 0 1
vn 0 0 1
vn 0 0 1
vn 1 0 0
vn 1 0 0
vn 1 0 0
vn 1 0 0
vn 0 0 1
vn 0 0 1
vn 0 0 1
vn 0 0 1
vn 0 0 1
vn 0 0 1
vn 0 0 1
vn 0 0 1
vn 0 0 -1
vn 0 0 -1
vn 0 0 -1
vn 0 0 -1
vn 1 0 0
vn 1 0 0
vn 1 0 0
vn 1 0 0
vn 0 0 -1
vn 0 0 -1
vn 0 0 -1
vn 0 0 -1
vn 1 0 0
vn 1 0 0
vn 1 0 0
vn 1 0 0
vn 0 0 1
vn 0 0 1
vn 0 0 1
vn 0 0 1
vn 0 0 0
vn 0 0 0
vn 0 0 0
vn 0 0 0
vn 0 0 0
vn 0 0 0
vn 0 0 0
vn 0 0 0
vn 0 0 0
vn 0 0 0
vn 0 0 0
vn 0 0 0
vn 0 0 0
vn 0 0 0
vn 0 0 0
vn 0 0 0
vn 0 0 1
vn 0 0 1
vn 0 0 1
vn 0 0 1
vn 0 1 0
vn 0 1 0
vn 0 1 0
vn 0 1 0
vn 0 0 -1
vn 0 0 -1
vn 0 0 -1
vn 0 0 -1
vn 0 1 0
vn 0 1 0
vn 0 1 0
vn 0 1 0
vn 0 0 -1
vn 0 0 -1
vn 0 0 -1
vn 0 0 -1
vn 0 1 0
vn 0 1 0
vn 0 1 0
vn 0 1 0
vn 0 0 1
vn 0 0 1
vn 0 0 1
vn 0 0 1
vn 0 1 0
vn 0 1 0
vn 0 1 0
vn 0 1 0
vn 0 0 1
vn 0 0 1
vn 0 0 1
vn 0 0 1
vn 0 0 -1
vn 0 0 -1
vn 0 0 -1
vn 0 0 -1
vn 0 0 1
vn 0 0 1
vn 0 0 1
vn 0 0 1
vn 1 0 0
vn 1 0 0
vn 1 0 0
vn 1 0 0
vn 1 0 0
vn 1 0 0
vn 1 0 0
vn 1 0 0
vn 0 0 -1
vn 0 0 -1
vn 0 0 -1
vn 0 0 -1
vn 0 0 1
vn 0 0 1
vn 0 0 1
vn 0 0 1
vn 0 0 -1
vn 0 0 -1
vn 0 0 -1
vn 0 0 -1
vn 0 0 1
vn 0 0 1
vn 0 0 1
vn 0 0 1
vn 1 0 0
vn 1 0 0
vn 1 0 0
vn 1 0 0
vn 1 0 0
vn 1 0 0
vn 1 0 0
vn 1 0 0
vn 1 0 0
vn 1 0 0
vn 1 0 0
vn 1 0 0
vn 0 0 -1
vn 0 0 -1
vn 0 0 -1
vn 0 0 -1
vn 1 0 0
vn 1 0 0
vn 1 0 0
vn 1 0 0
vn -1 0 0
vn -1 0 0
vn -1 0 0
vn -1 0 0
vn 0 0 1
vn 0 0 1
vn 0 0 1
vn 0 0 1
vn 0 0 -1
vn 0 0 -1
vn 0 0 -1
vn 0 0 -1
vn 0 0 -1
vn 0 0 -1
vn 0 0 -1
vn 0 0 -1
vn 0 0 1
vn 0 0 1
vn 0 0 1
vn 0 0 1
vn 0 0 1
vn 0 0 1
vn 0 0 1
vn 0 0 1
vn 0 0 -1
vn 0 0 -1
vn 0 0 -1
vn 0 0 -1
vn 0 0 1
vn 0 0 1
vn 0 0 1
vn 0 0 1
vn 1 0 0
vn 1 0 0
vn 1 0 0
vn 1 0 0
vn 1 0 0
vn 1 0 0
vn 1 0 0
vn 1 0 0
vn 0 0 -1
vn 0 0 -1
vn 0 0 -1
vn 0 0 -1
vn 0 0 1
vn 0 0 1
vn 0 0 1
vn 0 0 1
vn 0 0 -1
vn 0 0 -1
vn 0 0 -1
vn 0 0 -1
vn 0 0 1
vn 0 0 1
vn 0 0 1
vn 0 0 1
vn 1 0 0
vn 1 0 0
vn 1 0 0
vn 1 0 0
vn 1 0 0
vn 1 0 0
vn 1 0 0
vn 1 0 0
vn 1 0 0
vn 1 0 0
vn 1 0 0
vn 1 0 0
vn 0 0 -1
vn 0 0 -1
vn 0 0 -1
vn 0 0 -1
vn 1 0 0
vn 1 0 0
vn 1 0 0
vn 1 0 0
vn -1 0 0
vn -1 0 0
vn -1 0 0
vn -1 0 0
vn 0 0 1
vn 0 0 1
vn 0 0 1
vn 0 0 1
vn 0 0 -1
vn 0 0 -1
vn 0 0 -1
vn 0 0 -1
vn 0 0 -1
vn 0 0 -1
vn 0 0 -1
vn 0 0 -1
vn 0 0 1
vn 0 0 1
vn 0 0 1
vn 0 0 1
vn -1 0 0
vn -1 0 0
vn -1 0 0
vn -1 0 0
vn 1 0 0
vn 1 0 0
vn 1 0 0
vn 1 0 0
vn 0 1 0
vn 0 1 0
vn 0 1 0
vn 0 1 0
vn 0 -1 0
vn 0 -1 0
vn 0 -1 0
vn 0 -1 0
vn -1 0 0
vn -1 0 0
vn -1 0 0
vn -1 0 0
vn 1 0 0
vn 1 0 0
vn 1 0 0
vn 1 0 0
g pb_Mesh177378_0
f 3/3/3 2/2/2 1/1/1
f 3/3/3 1/1/1 4/4/4
f 6/6/6 5/5/5 8/8/8
f 6/6/6 8/8/8 7/7/7
f 12/12/12 11/11/11 10/10/10
f 12/12/12 10/10/10 9/9/9
f 16/16/16 15/15/15 14/14/14
f 16/16/16 14/14/14 13/13/13
f 19/19/19 18/18/18 17/17/17
f 19/19/19 17/17/17 20/20/20
f 23/23/23 22/22/22 21/21/21
f 23/23/23 21/21/21 24/24/24
f 27/27/27 26/26/26 25/25/25
f 27/27/27 25/25/25 28/28/28
f 31/31/31 30/30/30 29/29/29
f 31/31/31 29/29/29 32/32/32
f 35/35/35 34/34/34 33/33/33
f 35/35/35 36/36/36 34/34/34
f 39/39/39 38/38/38 37/37/37
f 39/39/39 40/40/40 38/38/38
f 43/43/43 42/42/42 41/41/41
f 43/43/43 44/44/44 42/42/42
f 47/47/47 46/46/46 45/45/45
f 47/47/47 48/48/48 46/46/46
f 51/51/51 50/50/50 49/49/49
f 51/51/51 52/52/52 50/50/50
f 55/55/55 54/54/54 53/53/53
f 55/55/55 56/56/56 54/54/54
f 59/59/59 58/58/58 57/57/57
f 59/59/59 60/60/60 58/58/58
f 63/63/63 62/62/62 61/61/61
f 63/63/63 64/64/64 62/62/62
f 67/67/67 66/66/66 65/65/65
f 67/67/67 68/68/68 66/66/66
f 71/71/71 70/70/70 69/69/69
f 71/71/71 72/72/72 70/70/70
f 75/75/75 74/74/74 73/73/73
f 75/75/75 76/76/76 74/74/74
f 79/79/79 78/78/78 77/77/77
f 79/79/79 80/80/80 78/78/78
f 83/83/83 82/82/82 81/81/81
f 83/83/83 84/84/84 82/82/82
f 87/87/87 86/86/86 85/85/85
f 87/87/87 88/88/88 86/86/86
f 91/91/91 90/90/90 89/89/89
f 91/91/91 92/92/92 90/90/90
f 95/95/95 94/94/94 93/93/93
f 95/95/95 96/96/96 94/94/94
f 99/99/99 98/98/98 97/97/97
f 99/99/99 100/100/100 98/98/98
f 103/103/103 102/102/102 101/101/101
f 103/103/103 104/104/104 102/102/102
f 107/107/107 106/106/106 105/105/105
f 107/107/107 108/108/108 106/106/106
f 111/111/111 110/110/110 109/109/109
f 111/111/111 112/112/112 110/110/110
f 115/115/115 114/114/114 113/113/113
f 115/115/115 116/116/116 114/114/114
f 118/118/118 117/117/117 120/120/120
f 118/118/118 120/120/120 119/119/119
f 122/122/122 121/121/121 123/123/123
f 121/121/121 124/124/124 123/123/123
f 126/126/126 125/125/125 128/128/128
f 126/126/126 128/128/128 127/127/127
f 130/130/130 129/129/129 131/131/131
f 129/129/129 132/132/132 131/131/131
f 134/134/134 133/133/133 135/135/135
f 133/133/133 136/136/136 135/135/135
f 138/138/138 137/137/137 139/139/139
f 137/137/137 140/140/140 139/139/139
f 142/142/142 141/141/141 144/144/144
f 142/142/142 144/144/144 143/143/143
f 146/146/146 145/145/145 147/147/147
f 145/145/145 148/148/148 147/147/147
f 150/150/150 149/149/149 152/152/152
f 150/150/150 152/152/152 151/151/151
f 156/156/156 155/155/155 153/153/153
f 155/155/155 154/154/154 153/153/153
f 157/157/157 160/160/160 159/159/159
f 157/157/157 159/159/159 158/158/158
f 164/164/164 163/163/163 162/162/162
f 164/164/164 162/162/162 161/161/161
f 167/167/167 166/166/166 165/165/165
f 167/167/167 165/165/165 168/168/168
f 170/170/170 169/169/169 172/172/172
f 170/170/170 172/172/172 171/171/171
f 175/175/175 174/174/174 173/173/173
f 175/175/175 173/173/173 176/176/176
f 178/178/178 177/177/177 180/180/180
f 178/178/178 180/180/180 179/179/179
f 183/183/183 182/182/182 184/184/184
f 182/182/182 181/181/181 184/184/184
f 187/187/187 186/186/186 188/188/188
f 186/186/186 185/185/185 188/188/188
f 190/190/190 189/189/189 191/191/191
f 189/189/189 192/192/192 191/191/191
f 193/193/193 196/196/196 194/194/194
f 196/196/196 195/195/195 194/194/194
f 199/199/199 198/198/198 197/197/197
f 199/199/199 200/200/200 198/198/198
f 203/203/203 202/202/202 201/201/201
f 203/203/203 204/204/204 202/202/202
f 207/207/207 206/206/206 205/205/205
f 207/207/207 208/208/208 206/206/206
f 211/211/211 210/210/210 209/209/209
f 211/211/211 212/212/212 210/210/210
f 215/215/215 214/214/214 213/213/213
f 215/215/215 216/216/216 214/214/214
f 219/219/219 218/218/218 217/217/217
f 219/219/219 220/220/220 218/218/218
f 223/223/223 222/222/222 221/221/221
f 223/223/223 224/224/224 222/222/222
f 227/227/227 226/226/226 225/225/225
f 227/227/227 228/228/228 226/226/226
f 231/231/231 230/230/230 229/229/229
f 231/231/231 232/232/232 230/230/230
f 235/235/235 234/234/234 233/233/233
f 235/235/235 236/236/236 234/234/234
f 239/239/239 238/238/238 237/237/237
f 239/239/239 240/240/240 238/238/238
f 243/243/243 242/242/242 241/241/241
f 243/243/243 244/244/244 242/242/242
f 247/247/247 246/246/246 245/245/245
f 247/247/247 248/248/248 246/246/246
f 251/251/251 250/250/250 249/249/249
f 251/251/251 252/252/252 250/250/250
f 255/255/255 254/254/254 253/253/253
f 255/255/255 256/256/256 254/254/254
f 259/259/259 258/258/258 257/257/257
f 259/259/259 260/260/260 258/258/258
f 263/263/263 262/262/262 261/261/261
f 263/263/263 264/264/264 262/262/262
f 267/267/267 266/266/266 265/265/265
f 267/267/267 268/268/268 266/266/266
f 271/271/271 270/270/270 269/269/269
f 271/271/271 272/272/272 270/270/270
f 275/275/275 274/274/274 273/273/273
f 275/275/275 276/276/276 274/274/274
f 279/279/279 278/278/278 277/277/277
f 279/279/279 280/280/280 278/278/278
f 283/283/283 282/282/282 281/281/281
f 283/283/283 284/284/284 282/282/282
f 287/287/287 286/286/286 285/285/285
f 287/287/287 288/288/288 286/286/286
f 291/291/291 290/290/290 289/289/289
f 291/291/291 292/292/292 290/290/290
f 295/295/295 294/294/294 293/293/293
f 295/295/295 296/296/296 294/294/294
f 299/299/299 298/298/298 297/297/297
f 299/299/299 300/300/300 298/298/298
f 301/301/301 302/302/302 303/303/303
f 302/302/302 304/304/304 303/303/303
f 305/305/305 306/306/306 307/307/307
f 306/306/306 308/308/308 307/307/307
f 309/309/309 310/310/310 311/311/311
f 310/310/310 312/312/312 311/311/311
f 313/313/313 314/314/314 315/315/315
f 314/314/314 316/316/316 315/315/315
f 317/317/317 318/318/318 319/319/319
f 318/318/318 320/320/320 319/319/319
f 321/321/321 322/322/322 323/323/323
f 322/322/322 324/324/324 323/323/323
f 325/325/325 326/326/326 327/327/327
f 326/326/326 328/328/328 327/327/327
f 329/329/329 330/330/330 331/331/331
f 330/330/330 332/332/332 331/331/331
f 333/333/333 334/334/334 335/335/335
f 334/334/334 336/336/336 335/335/335
f 337/337/337 338/338/338 339/339/339
f 338/338/338 340/340/340 339/339/339
f 341/341/341 342/342/342 343/343/343
f 342/342/342 344/344/344 343/343/343
f 345/345/345 346/346/346 347/347/347
f 346/346/346 348/348/348 347/347/347
f 349/349/349 350/350/350 351/351/351
f 350/350/350 352/352/352 351/351/351
f 353/353/353 354/354/354 355/355/355
f 354/354/354 356/356/356 355/355/355
f 357/357/357 358/358/358 359/359/359
f 358/358/358 360/360/360 359/359/359
f 361/361/361 362/362/362 363/363/363
f 362/362/362 364/364/364 363/363/363
f 365/365/365 366/366/366 367/367/367
f 366/366/366 368/368/368 367/367/367
f 369/369/369 370/370/370 371/371/371
f 370/370/370 372/372/372 371/371/371
f 373/373/373 374/374/374 375/375/375
f 374/374/374 376/376/376 375/375/375
f 377/377/377 378/378/378 379/379/379
f 378/378/378 380/380/380 379/379/379
f 381/381/381 382/382/382 383/383/383
f 382/382/382 384/384/384 383/383/383
f 385/385/385 386/386/386 387/387/387
f 386/386/386 388/388/388 387/387/387
f 389/389/389 390/390/390 391/391/391
f 390/390/390 392/392/392 391/391/391
f 393/393/393 394/394/394 395/395/395
f 394/394/394 396/396/396 395/395/395
f 397/397/397 398/398/398 399/399/399
f 398/398/398 400/400/400 399/399/399
f 401/401/401 402/402/402 403/403/403
f 402/402/402 404/404/404 403/403/403
f 405/405/405 406/406/406 407/407/407
f 406/406/406 408/408/408 407/407/407
f 409/409/409 410/410/410 411/411/411
f 410/410/410 412/412/412 411/411/411
f 413/413/413 414/414/414 415/415/415
f 414/414/414 416/416/416 415/415/415
f 417/417/417 418/418/418 419/419/419
f 418/418/418 420/420/420 419/419/419
f 421/421/421 422/422/422 423/423/423
f 422/422/422 424/424/424 423/423/423
f 425/425/425 426/426/426 427/427/427
f 426/426/426 428/428/428 427/427/427
f 429/429/429 430/430/430 431/431/431
f 430/430/430 432/432/432 431/431/431
f 433/433/433 434/434/434 435/435/435
f 434/434/434 436/436/436 435/435/435
f 437/437/437 438/438/438 439/439/439
f 438/438/438 440/440/440 439/439/439
f 441/441/441 442/442/442 443/443/443
f 442/442/442 444/444/444 443/443/443
f 445/445/445 446/446/446 447/447/447
f 446/446/446 448/448/448 447/447/447
f 449/449/449 450/450/450 451/451/451
f 450/450/450 452/452/452 451/451/451
f 455/455/455 454/454/454 453/453/453
f 455/455/455 456/456/456 454/454/454
f 459/459/459 458/458/458 457/457/457
f 459/459/459 460/460/460 458/458/458
f 463/463/463 462/462/462 461/461/461
f 463/463/463 464/464/464 462/462/462
f 467/467/467 466/466/466 465/465/465
f 467/467/467 468/468/468 466/466/466
f 471/471/471 470/470/470 469/469/469
f 471/471/471 472/472/472 470/470/470
f 475/475/475 474/474/474 473/473/473
f 475/475/475 476/476/476 474/474/474
g pb_Mesh177378_1
