g pb_Mesh1111264
v -8 0 -8
v 0 -16 -8
v -9 8 -8
v 0 8 -8
v 0 -16 -8
v 0 0 0
v 0 8 -8
v 0.5078125 7.214844 2.566406
v 0.1640625 17.31641 -5.722656
v -10.92969 29.58594 -2.625
v -0.6875 18.61328 -7.882813
v -5.003906 16.51953 -7.59375
v 0 13 -8
v 0.5078125 7.214844 2.566406
v -0.125 12.21875 -1.519531
v 0 8 -8
v -0.6875 18.61328 -7.882813
v -0.125 12.21875 -1.519531
v 0.1640625 17.31641 -5.722656
v 0 13 -8
v -7 13 -8
v 0 8 -8
v 0 13 -8
v -9 8 -8
v -5.003906 16.51953 -7.59375
v 0 13 -8
v -0.6875 18.61328 -7.882813
v -7 13 -8
vt 8 0
vt 0 -16
vt 9 8
vt 0 8
vt 8 -16
vt 0 0
vt 8 8
vt -2.566406 7.214844
vt 5.696587 13.47297
vt 1.204481 29.69114
vt 7.729981 15.18721
vt 6.890824 16.37857
vt -7.998074 12.97965
vt 2.576932 7.187955
vt -1.521908 12.21092
vt -7.998074 7.9845
vt -7.896001 18.61787
vt -1.521908 12.21092
vt -5.717678 17.28684
vt -7.998074 12.97965
vt -6.941945 12.79947
vt 0.05787231 7.8022
vt 0.05787231 12.80071
vt -8.941893 7.800609
vt -4.948842 16.32823
vt 0.05787231 12.80071
vt -0.6304575 18.41505
vt -6.941945 12.79947
vn 0 0 -1
vn 0 0 -1
vn 0 0 -1
vn 0 0 -1
vn 1 0 0
vn 0.9986577 -0.02588878 -0.02588878
vn 0.9986577 -0.02588878 -0.02588878
vn 0.9973155 -0.05177756 -0.05177756
vn 0.7503074 0.6539593 0.09683087
vn 0.277991 0.4621972 -0.4230458
vn 0.277991 0.4621972 -0.4230458
vn -0.1943253 0.2704352 -0.9429224
vn 0.9929636 0.07785189 -0.005096717
vn 0.9929636 0.07785189 -0.005096717
vn 0.9870799 0.1557038 0.03781031
vn 0.9988472 0 -0.04800375
vn 0.8264152 -0.1893319 -0.263315
vn 0.8264152 -0.1893319 -0.263315
vn 0.6607264 -0.4994705 -0.5603302
vn 0.9921039 0.1208067 0.03370022
vn 0 0 -1
vn 0 0 -1
vn 0 0 -1
vn 0 0 -1
vn -0.03628728 0.06329875 -0.9953479
vn -0.03628728 0.06329875 -0.9953479
vn -0.07257456 0.01193154 -0.9972916
vn 0 0.114666 -0.9934042
g pb_Mesh1111264_0
f 3/3/3 2/2/2 1/1/1
f 3/3/3 4/4/4 2/2/2
f 7/7/7 6/6/6 5/5/5
f 7/7/7 8/8/8 6/6/6
f 11/11/11 10/10/10 9/9/9
f 11/11/11 12/12/12 10/10/10
f 15/15/15 14/14/14 13/13/13
f 14/14/14 16/16/16 13/13/13
f 19/19/19 18/18/18 17/17/17
f 18/18/18 20/20/20 17/17/17
f 23/23/23 22/22/22 21/21/21
f 22/22/22 24/24/24 21/21/21
f 27/27/27 26/26/26 25/25/25
f 26/26/26 28/28/28 25/25/25
