g pb_Mesh192284
v 4 -5.5 2
v 0 -5.5 2
v 0 -2 2
v 4 -2 2
v -5.5 -5.5 2
v -5.5 -2 2
v -5.5 -2 0
v 0 -5.5 0
v 0 -2 0
v -5.5 -5.5 0
v 4 -5.5 0
v 4 -2 0
v 0 0 0
v 4 0 0
v 4 0 2
v 0 0 2
v -5.5 -2 0
v 0 -2 0
v 0 -2 2
v -5.5 -2 2
v 0 0 0
v 4 0 0
v 4 0 2
v 0 0 2
vt 4 -5.5
vt 0 -5.5
vt 0 -2
vt 4 -2
vt -5.5 -5.5
vt -5.5 -2
vt 5.5 -2
vt 0 -5.5
vt 0 -2
vt 5.5 -5.5
vt -4 -5.5
vt -4 -2
vt 0 0
vt -4 0
vt -4 2
vt 0 2
vt 5.5 0
vt 0 0
vt 0 2
vt 5.5 2
vt 0 0
vt -4 0
vt 4 0
vt 0 0
vn 0 0 1
vn 0 0 1
vn 0 0 1
vn 0 0 1
vn 0 0 1
vn 0 0 1
vn 0 0 -1
vn 0 0 -1
vn 0 0 -1
vn 0 0 -1
vn 0 0 -1
vn 0 0 -1
vn 0 1 0
vn 0 1 0
vn 0 1 0
vn 0 1 0
vn 0 1 0
vn 0 1 0
vn 0 1 0
vn 0 1 0
vn 0 0 -1
vn 0 0 -1
vn 0 0 1
vn 0 0 1
g pb_Mesh192284_0
g pb_Mesh192284_1
f 3/3/3 2/2/2 1/1/1
f 3/3/3 1/1/1 4/4/4
f 6/6/6 5/5/5 2/2/2
f 6/6/6 2/2/2 3/3/3
f 9/9/9 8/8/8 7/7/7
f 8/8/8 10/10/10 7/7/7
f 12/12/12 11/11/11 9/9/9
f 11/11/11 8/8/8 9/9/9
f 15/15/15 14/14/14 13/13/13
f 15/15/15 13/13/13 16/16/16
f 19/19/19 18/18/18 17/17/17
f 19/19/19 17/17/17 20/20/20
f 21/21/21 12/12/12 9/9/9
f 21/21/21 22/22/22 12/12/12
f 23/23/23 3/3/3 4/4/4
f 23/23/23 24/24/24 3/3/3
