g pb_Mesh290680
v 4 1 22
v 4 -1 22
v 4 1 24
v 4 -1 24
v -4 -1 22
v -4 1 22
v -4 -1 24
v -4 1 24
v -4 1 -12
v -4 -1 -12
v -4 1 -14
v -4 -1 -14
v 4 -1 -12
v 4 1 -12
v 4 -1 -14
v 4 1 -14
v -4 -1 2
v -4 -1 -6
v -4 1 -6
v -4 1 2
v 4 -1 -6
v 4 1 -6
v 0 1 22
v 2 1 22
v 2 1 24
v 0 1 24
v 4 1 22
v 4 1 24
v 0 1 -14
v 2 1 -14
v 2 1 -12
v 0 1 -12
v 4 1 -14
v 4 1 -12
v 2 1 -6
v 0 1 -6
v 4 1 -6
v 2 1 2
v 0 1 2
v -4 -1 14
v -4 1 14
v 4 1 2
v 4 -1 14
v 4 1 14
v 4 -1 2
v 2 1 14
v 0 1 14
v 2 1 22
v 0 1 22
v 4 1 2
v 4 1 14
v 4 1 22
v 2 -1 2
v -4 -1 -6
v -4 -1 2
v 2 -1 -6
v 4 -1 2
v 4 -1 -6
v -4 -1 -12
v 2 -1 -12
v 4 -1 -12
v 2 -1 22
v -4 -1 14
v -4 -1 22
v 2 -1 14
v 4 -1 14
v -4 1 22
v -2 1 22
v -2 1 24
v -4 1 24
v -2 1 22
v -4 1 22
v -4 -1 22
v 2 -1 22
v 0 1 22
v 2 1 22
v 4 -1 22
v 4 1 22
v -4 1 -14
v -2 1 -14
v -2 1 -12
v -4 1 -12
v -2 1 -6
v -4 1 -6
v -2 1 2
v -4 1 2
v -2 1 14
v -4 1 14
v 0 1.0001 22
v -2 1.0001 22
vt -22 1
vt -22 -1
vt -24 1
vt -24 -1
vt 22 -1
vt 22 1
vt 24 -1
vt 24 1
vt -12 1
vt -12 -1
vt -14 1
vt -14 -1
vt 12 -1
vt 12 1
vt 14 -1
vt 14 1
vt 2 -1
vt -6 -1
vt -6 1
vt 2 1
vt 6 -1
vt 6 1
vt 0 22
vt -2 22
vt -2 24
vt 0 24
vt -4 22
vt -4 24
vt 0 -14
vt -2 -14
vt -2 -12
vt 0 -12
vt -4 -14
vt -4 -12
vt -2 -6
vt 0 -6
vt -4 -6
vt -2 2
vt 0 2
vt 14 -1
vt 14 1
vt -2 1
vt -14 -1
vt -14 1
vt -2 -1
vt -2 14
vt 0 14
vt -2 22
vt 0 22
vt -4 2
vt -4 14
vt -4 22
vt 2 2
vt -4 -6
vt -4 2
vt 2 -6
vt 4 2
vt 4 -6
vt -4 -12
vt 2 -12
vt 4 -12
vt 2 22
vt -4 14
vt -4 22
vt 2 14
vt 4 14
vt 4 22
vt 2 22
vt 2 24
vt 4 24
vt 2 1
vt 4 1
vt 4 -1
vt -2 -1
vt 0 1
vt -2 1
vt -4 -1
vt -4 1
vt 4 -14
vt 2 -14
vt 2 -12
vt 4 -12
vt 2 -6
vt 4 -6
vt 2 2
vt 4 2
vt 2 14
vt 4 14
vt 0 22.00001
vt 2 22.00001
vn 1 0 0
vn 1 0 0
vn 1 0 0
vn 1 0 0
vn -1 0 0
vn -1 0 0
vn -1 0 0
vn -1 0 0
vn -1 0 0
vn -1 0 0
vn -1 0 0
vn -1 0 0
vn 1 0 0
vn 1 0 0
vn 1 0 0
vn 1 0 0
vn -1 0 0
vn -1 0 0
vn -1 0 0
vn -1 0 0
vn 1 0 0
vn 1 0 0
vn 0 1 0
vn 0 1 0
vn 0 1 0
vn 0 1 0
vn 0 1 0
vn 0 1 0
vn 0 1 0
vn 0 1 0
vn 0 1 0
vn 0 1 0
vn 0 1 0
vn 0 1 0
vn 0 1 0
vn 0 1 0
vn 0 1 0
vn 0 1 0
vn 0 1 0
vn -1 0 0
vn -1 0 0
vn 1 0 0
vn 1 0 0
vn 1 0 0
vn 1 0 0
vn 0 1 0
vn 0 1 0
vn 0 1 0
vn 0 1 0
vn 0 1 0
vn 0 1 0
vn 0 1 0
vn 0 -1 0
vn 0 -1 0
vn 0 -1 0
vn 0 -1 0
vn 0 -1 0
vn 0 -1 0
vn 0 -1 0
vn 0 -1 0
vn 0 -1 0
vn 0 -1 0
vn 0 -1 0
vn 0 -1 0
vn 0 -1 0
vn 0 -1 0
vn 0 1 0
vn 0 1 0
vn 0 1 0
vn 0 1 0
vn 0 0 -1
vn 0 0 -1
vn 0 0 -1
vn 0 0 -1
vn 0 0 -1
vn 0 0 -1
vn 0 0 -1
vn 0 0 -1
vn 0 1 0
vn 0 1 0
vn 0 1 0
vn 0 1 0
vn 0 1 0
vn 0 1 0
vn 0 1 0
vn 0 1 0
vn 0 1 0
vn 0 1 0
vn 0 1 -1.251698E-05
vn 0 1 -1.251698E-05
g pb_Mesh290680_0
g pb_Mesh290680_1
f 3/3/3 2/2/2 1/1/1
f 3/3/3 4/4/4 2/2/2
f 7/7/7 6/6/6 5/5/5
f 7/7/7 8/8/8 6/6/6
f 11/11/11 10/10/10 9/9/9
f 11/11/11 12/12/12 10/10/10
f 15/15/15 14/14/14 13/13/13
f 15/15/15 16/16/16 14/14/14
f 19/19/19 18/18/18 17/17/17
f 19/19/19 17/17/17 20/20/20
f 9/9/9 10/10/10 18/18/18
f 9/9/9 18/18/18 19/19/19
f 22/22/22 21/21/21 14/14/14
f 21/21/21 13/13/13 14/14/14
f 25/25/25 24/24/24 23/23/23
f 25/25/25 23/23/23 26/26/26
f 28/28/28 27/27/27 24/24/24
f 28/28/28 24/24/24 25/25/25
f 31/31/31 30/30/30 29/29/29
f 31/31/31 29/29/29 32/32/32
f 34/34/34 33/33/33 30/30/30
f 34/34/34 30/30/30 31/31/31
f 35/35/35 31/31/31 32/32/32
f 35/35/35 32/32/32 36/36/36
f 37/37/37 34/34/34 31/31/31
f 37/37/37 31/31/31 35/35/35
f 38/38/38 35/35/35 36/36/36
f 38/38/38 36/36/36 39/39/39
f 20/20/20 17/17/17 40/40/40
f 20/20/20 40/40/40 41/41/41
f 44/44/44 43/43/43 42/42/42
f 43/43/43 45/45/45 42/42/42
f 46/46/46 38/38/38 39/39/39
f 46/46/46 39/39/39 47/47/47
f 48/48/48 46/46/46 47/47/47
f 48/48/48 47/47/47 49/49/49
f 51/51/51 50/50/50 38/38/38
f 51/51/51 38/38/38 46/46/46
f 52/52/52 51/51/51 46/46/46
f 52/52/52 46/46/46 48/48/48
f 55/55/55 54/54/54 53/53/53
f 54/54/54 56/56/56 53/53/53
f 53/53/53 56/56/56 57/57/57
f 56/56/56 58/58/58 57/57/57
f 54/54/54 59/59/59 56/56/56
f 59/59/59 60/60/60 56/56/56
f 56/56/56 60/60/60 58/58/58
f 60/60/60 61/61/61 58/58/58
f 64/64/64 63/63/63 62/62/62
f 63/63/63 65/65/65 62/62/62
f 63/63/63 55/55/55 65/65/65
f 55/55/55 53/53/53 65/65/65
f 65/65/65 53/53/53 66/66/66
f 53/53/53 57/57/57 66/66/66
f 69/69/69 68/68/68 67/67/67
f 69/69/69 67/67/67 70/70/70
f 26/26/26 23/23/23 68/68/68
f 26/26/26 68/68/68 69/69/69
f 73/73/73 72/72/72 71/71/71
f 73/73/73 71/71/71 74/74/74
f 74/74/74 71/71/71 75/75/75
f 76/76/76 74/74/74 75/75/75
f 77/77/77 74/74/74 76/76/76
f 78/78/78 77/77/77 76/76/76
f 81/81/81 80/80/80 79/79/79
f 81/81/81 79/79/79 82/82/82
f 32/32/32 29/29/29 80/80/80
f 32/32/32 80/80/80 81/81/81
f 83/83/83 81/81/81 82/82/82
f 83/83/83 82/82/82 84/84/84
f 36/36/36 32/32/32 81/81/81
f 36/36/36 81/81/81 83/83/83
f 85/85/85 83/83/83 84/84/84
f 85/85/85 84/84/84 86/86/86
f 39/39/39 36/36/36 83/83/83
f 39/39/39 83/83/83 85/85/85
f 87/87/87 85/85/85 86/86/86
f 87/87/87 86/86/86 88/88/88
f 47/47/47 39/39/39 85/85/85
f 47/47/47 85/85/85 87/87/87
f 47/47/47 87/87/87 89/89/89
f 87/87/87 90/90/90 89/89/89
