g pb_Mesh135656
v 1 -3 0
v -4 -3 0
v 1 1 0
v -4 1 0
v -4 -3 0
v -4 -3 -3
v -4 1 0
v -4 1 -3
v -4 -3 -3
v 1 -3 -3
v -4 1 -3
v 1 1 -3
v 1 1 0
v -4 1 0
v 1 1 -3
v -4 1 -3
v 1 -3 -3
v -4 -3 -3
v 1 -3 0
v -4 -3 0
vt 58 0
vt 63 0
vt 58 4
vt 63 4
vt -134 0
vt -131 0
vt -134 4
vt -131 4
vt -63 0
vt -58 0
vt -63 4
vt -58 4
vt -58 134
vt -63 134
vt -58 131
vt -63 131
vt 58 131
vt 63 131
vt 58 134
vt 63 134
vn 0 0 -1
vn 0 0 -1
vn 0 0 -1
vn 0 0 -1
vn 1 0 0
vn 1 0 0
vn 1 0 0
vn 1 0 0
vn 0 0 1
vn 0 0 1
vn 0 0 1
vn 0 0 1
vn 0 -1 0
vn 0 -1 0
vn 0 -1 0
vn 0 -1 0
vn 0 1 0
vn 0 1 0
vn 0 1 0
vn 0 1 0
g pb_Mesh135656_0
f 2/2/2 4/4/4 3/3/3
f 1/1/1 2/2/2 3/3/3
f 6/6/6 8/8/8 7/7/7
f 5/5/5 6/6/6 7/7/7
f 10/10/10 12/12/12 11/11/11
f 9/9/9 10/10/10 11/11/11
f 14/14/14 16/16/16 15/15/15
f 13/13/13 14/14/14 15/15/15
g pb_Mesh135656_1
f 18/18/18 20/20/20 19/19/19
f 17/17/17 18/18/18 19/19/19
