g pb_Mesh325264
v 0 -4 2
v -2 -4 2
v -2 2 2
v 0 2 2
v -3 -4 2
v -3 2 2
v -3 4 2
v -2 4 2
v 0 4 2
v -3 -4 2
v -3 -4 -1
v -3 2 -1
v -3 2 2
v -3 -4 -2
v -3 2 -2
v -3 4 -2
v -3 4 -1
v -3 4 2
v -3 2 -4
v -2 -4 -4
v -2 2 -4
v -3 -4 -4
v -2 2 -3
v 0 -4 -3
v 0 2 -3
v -2 -4 -3
v -2 4 -2
v 0 2 -2
v 0 4 -2
v -2 2 -2
v -3 4 -2
v -3 2 -2
v 0 2 -2
v 0 -4 -1
v 0 2 -1
v 0 -4 -2
v 1 2 -1
v 1 -4 2
v 1 2 2
v 1 -4 -1
v 0 4 -1
v 0 2 2
v 0 4 2
v 0 4 -2
v -2 7.000099 -1
v 0 7.000099 -1
v 0 7.000099 2
v -2 7.000099 2
v -3 14.0001 -1
v -2 14.0001 -1
v -2 14.0001 2
v -3 14.0001 2
v -3 11.0001 -2
v -2 11.0001 -2
v -2 11.0001 -1
v -3 11.0001 -1
v -2 4 -2
v 0 4 -2
v 0 4 -1
v -2 4 -1
v 0 -4 -1
v -2 -4 -2
v -2 -4 -1
v 0 -4 -2
v -3 -4 -2
v -3 -4 -1
v -2 -4 2
v -3 -4 2
v 0 -4 2
v -3 7.000099 -2
v -2 7.000099 -2
v -2 4 -2
v -2 4 -1
v -2 7.000099 -2
v -2 7.000099 -1
v -3 7.000099 -1
v -3 7.000099 -2
v 0 7.000099 2
v -2 7.000099 2
v -3 7.000099 2
v -3 7.000099 2
v -2 4 -1
v 0 4 -1
v -2 7.000099 -1
v 0 7.000099 -1
v 0 7.000099 -1
v 0 7.000099 2
v -2 7.000099 2
v -2 11.0001 -1
v -2 11.0001 2
v -3 11.0001 2
v -3 11.0001 -1
v -2 11.0001 2
v -3 11.0001 2
v -3 11.0001 -2
v -2 11.0001 -2
v -2 11.0001 -2
v -3 11.0001 -2
v -3 11.0001 -1
v -2 11.0001 -1
v -3 14.0001 -1
v -2 14.0001 -1
v -2 14.0001 -1
v -2 14.0001 2
v -3 14.0001 2
v -3 14.0001 -1
v -2 14.0001 2
v -3 14.0001 2
v 1 -4 2
v 1 2 2
v 0 2 2
v 0 2 -1
v 1 2 2
v 1 2 -1
v 0 2 -1
v 0 -4 -1
v 1 2 -1
v 1 -4 -1
v 1 -4 -1
v 1 -4 2
v 0 -4 -3
v 0 2 -3
v 0 2 -2
v -2 2 -2
v 0 2 -3
v -2 2 -3
v -3 2 -2
v -3 2 -3
v -2 -4 -3
v 0 -4 -3
v -3 2 -3
v -3 -4 -3
v -3 -4 -3
v -2 -4 -3
v -2 2 -3
v -2 -4 -4
v -2 2 -4
v -2 2 -4
v -3 2 -4
v -3 2 -4
v -3 -4 -4
v -3 -4 -4
v -2 -4 -4
vt 0 -4
vt -2 -4
vt -2 2
vt 0 2
vt -3 -4
vt -3 2
vt -3 4
vt -2 4
vt 0 4
vt 2 -4
vt -1 -4
vt -1 2
vt 2 2
vt -2 -4
vt -2 2
vt -2 4
vt -1 4
vt 2 4
vt 3 2
vt 2 -4
vt 2 2
vt 3 -4
vt 2 2
vt 0 -4
vt 0 2
vt 2 -4
vt 2 4
vt 0 2
vt 0 4
vt 2 2
vt 3 4
vt 3 2
vt 2 2
vt 1 -4
vt 1 2
vt 2 -4
vt 1 2
vt -2 -4
vt -2 2
vt 1 -4
vt 1 4
vt -2 2
vt -2 4
vt 2 4
vt 2 -1
vt 0 -1
vt 0 2
vt 2 2
vt 3 -1
vt 2 -1
vt 2 2
vt 3 2
vt 3 -2
vt 2 -2
vt 2 -1
vt 3 -1
vt 2 -2
vt 0 -2
vt 0 -1
vt 2 -1
vt 0 -1
vt -2 -2
vt -2 -1
vt 0 -2
vt -3 -2
vt -3 -1
vt -2 2
vt -3 2
vt 0 2
vt 3 7.000099
vt 2 7.000099
vt 2 4
vt 1 4
vt 2 7.000099
vt 1 7.000099
vt -1 7.000099
vt -2 7.000099
vt 0 7.000099
vt -2 7.000099
vt 2 7.000099
vt -3 7.000099
vt 2 4
vt 0 4
vt 2 7.000099
vt 0 7.000099
vt 1 7.000099
vt -2 7.000099
vt -2 7.000099
vt 1 11.0001
vt -2 11.0001
vt 2 11.0001
vt -1 11.0001
vt -2 11.0001
vt -3 11.0001
vt 3 11.0001
vt 2 11.0001
vt 2 11.0001
vt -2 11.0001
vt 3 11.0001
vt 2 11.0001
vt 3 14.0001
vt 2 14.0001
vt 1 14.0001
vt -2 14.0001
vt 2 14.0001
vt -1 14.0001
vt -2 14.0001
vt -3 14.0001
vt 1 -4
vt 1 2
vt 0 2
vt 0 -1
vt -1 2
vt -1 -1
vt 0 2
vt 0 -4
vt -1 2
vt -1 -4
vt 1 -1
vt 1 2
vt 3 -4
vt 3 2
vt 0 -2
vt 2 -2
vt 0 -3
vt 2 -3
vt 3 -2
vt 3 -3
vt -2 -3
vt 0 -3
vt -3 2
vt -3 -4
vt -3 -3
vt 3 -4
vt 3 2
vt 4 -4
vt 4 2
vt 2 -4
vt 3 -4
vt -4 2
vt -4 -4
vt -3 -4
vt -2 -4
vn 0 0 1
vn 0 0 1
vn 0 0 1
vn 0 0 1
vn 0 0 1
vn 0 0 1
vn 0 0 1
vn 0 0 1
vn 0 0 1
vn -1 0 0
vn -1 0 0
vn -1 0 0
vn -1 0 0
vn -1 0 0
vn -1 0 0
vn -1 0 0
vn -1 0 0
vn -1 0 0
vn 0 0 -1
vn 0 0 -1
vn 0 0 -1
vn 0 0 -1
vn 0 0 -1
vn 0 0 -1
vn 0 0 -1
vn 0 0 -1
vn 0 0 -1
vn 0 0 -1
vn 0 0 -1
vn 0 0 -1
vn 0 0 -1
vn 0 0 -1
vn 1 0 0
vn 1 0 0
vn 1 0 0
vn 1 0 0
vn 1 0 0
vn 1 0 0
vn 1 0 0
vn 1 0 0
vn 1 0 0
vn 1 0 0
vn 1 0 0
vn 1 0 0
vn 0 1 0
vn 0 1 0
vn 0 1 0
vn 0 1 0
vn 0 1 0
vn 0 1 0
vn 0 1 0
vn 0 1 0
vn 0 1 0
vn 0 1 0
vn 0 1 0
vn 0 1 0
vn 0 1 0
vn 0 1 0
vn 0 1 0
vn 0 1 0
vn 0 -1 0
vn 0 -1 0
vn 0 -1 0
vn 0 -1 0
vn 0 -1 0
vn 0 -1 0
vn 0 -1 0
vn 0 -1 0
vn 0 -1 0
vn 0 0 -1
vn 0 0 -1
vn 1 0 0
vn 1 0 0
vn 1 0 0
vn 1 0 0
vn -1 0 0
vn -1 0 0
vn 0 0 1
vn 0 0 1
vn -1 0 0
vn 0 0 1
vn 0 0 -1
vn 0 0 -1
vn 0 0 -1
vn 0 0 -1
vn 1 0 0
vn 1 0 0
vn 1 0 0
vn 1 0 0
vn 1 0 0
vn -1 0 0
vn -1 0 0
vn 0 0 1
vn 0 0 1
vn 0 0 -1
vn 0 0 -1
vn 1 0 0
vn -1 0 0
vn 0 0 -1
vn 0 0 -1
vn 0 0 -1
vn 0 0 -1
vn 1 0 0
vn 1 0 0
vn -1 0 0
vn -1 0 0
vn 0 0 1
vn 0 0 1
vn 0 0 1
vn 0 0 1
vn 0 1 0
vn 0 1 0
vn 0 1 0
vn 0 1 0
vn 0 0 -1
vn 0 0 -1
vn 0 0 -1
vn 0 0 -1
vn 0 -1 0
vn 0 -1 0
vn 1 0 0
vn 1 0 0
vn 0 1 0
vn 0 1 0
vn 0 1 0
vn 0 1 0
vn 0 1 0
vn 0 1 0
vn 0 -1 0
vn 0 -1 0
vn -1 0 0
vn -1 0 0
vn 0 -1 0
vn 1 0 0
vn 1 0 0
vn 1 0 0
vn 1 0 0
vn 0 1 0
vn 0 1 0
vn -1 0 0
vn -1 0 0
vn 0 -1 0
vn 0 -1 0
g pb_Mesh325264_0
f 3/3/3 2/2/2 1/1/1
f 3/3/3 1/1/1 4/4/4
f 6/6/6 5/5/5 2/2/2
f 6/6/6 2/2/2 3/3/3
f 7/7/7 6/6/6 3/3/3
f 7/7/7 3/3/3 8/8/8
f 8/8/8 3/3/3 4/4/4
f 8/8/8 4/4/4 9/9/9
f 12/12/12 11/11/11 10/10/10
f 12/12/12 10/10/10 13/13/13
f 15/15/15 14/14/14 11/11/11
f 15/15/15 11/11/11 12/12/12
f 16/16/16 15/15/15 12/12/12
f 16/16/16 12/12/12 17/17/17
f 17/17/17 12/12/12 13/13/13
f 17/17/17 13/13/13 18/18/18
f 21/21/21 20/20/20 19/19/19
f 20/20/20 22/22/22 19/19/19
f 25/25/25 24/24/24 23/23/23
f 24/24/24 26/26/26 23/23/23
f 29/29/29 28/28/28 27/27/27
f 28/28/28 30/30/30 27/27/27
f 27/27/27 30/30/30 31/31/31
f 30/30/30 32/32/32 31/31/31
f 35/35/35 34/34/34 33/33/33
f 34/34/34 36/36/36 33/33/33
f 39/39/39 38/38/38 37/37/37
f 38/38/38 40/40/40 37/37/37
f 43/43/43 42/42/42 41/41/41
f 42/42/42 35/35/35 41/41/41
f 41/41/41 35/35/35 44/44/44
f 35/35/35 33/33/33 44/44/44
f 47/47/47 46/46/46 45/45/45
f 47/47/47 45/45/45 48/48/48
f 51/51/51 50/50/50 49/49/49
f 51/51/51 49/49/49 52/52/52
f 55/55/55 54/54/54 53/53/53
f 55/55/55 53/53/53 56/56/56
f 59/59/59 58/58/58 57/57/57
f 59/59/59 57/57/57 60/60/60
f 63/63/63 62/62/62 61/61/61
f 62/62/62 64/64/64 61/61/61
f 66/66/66 65/65/65 63/63/63
f 65/65/65 62/62/62 63/63/63
f 68/68/68 66/66/66 67/67/67
f 66/66/66 63/63/63 67/67/67
f 67/67/67 63/63/63 69/69/69
f 63/63/63 61/61/61 69/69/69
f 70/70/70 27/27/27 31/31/31
f 70/70/70 71/71/71 27/27/27
f 74/74/74 73/73/73 72/72/72
f 74/74/74 75/75/75 73/73/73
f 76/76/76 16/16/16 17/17/17
f 76/76/76 77/77/77 16/16/16
f 78/78/78 8/8/8 9/9/9
f 78/78/78 79/79/79 8/8/8
f 80/80/80 17/17/17 18/18/18
f 80/80/80 76/76/76 17/17/17
f 79/79/79 7/7/7 8/8/8
f 79/79/79 81/81/81 7/7/7
f 84/84/84 83/83/83 82/82/82
f 84/84/84 85/85/85 83/83/83
f 86/86/86 43/43/43 41/41/41
f 86/86/86 87/87/87 43/43/43
f 89/89/89 88/88/88 75/75/75
f 89/89/89 90/90/90 88/88/88
f 91/91/91 76/76/76 80/80/80
f 91/91/91 92/92/92 76/76/76
f 93/93/93 81/81/81 79/79/79
f 93/93/93 94/94/94 81/81/81
f 95/95/95 71/71/71 70/70/70
f 95/95/95 96/96/96 71/71/71
f 97/97/97 75/75/75 74/74/74
f 97/97/97 89/89/89 75/75/75
f 92/92/92 77/77/77 76/76/76
f 92/92/92 98/98/98 77/77/77
f 101/101/101 100/100/100 99/99/99
f 101/101/101 102/102/102 100/100/100
f 103/103/103 90/90/90 89/89/89
f 103/103/103 104/104/104 90/90/90
f 105/105/105 92/92/92 91/91/91
f 105/105/105 106/106/106 92/92/92
f 107/107/107 94/94/94 93/93/93
f 107/107/107 108/108/108 94/94/94
f 109/109/109 4/4/4 1/1/1
f 109/109/109 110/110/110 4/4/4
f 113/113/113 112/112/112 111/111/111
f 113/113/113 114/114/114 112/112/112
f 117/117/117 116/116/116 115/115/115
f 117/117/117 118/118/118 116/116/116
f 119/119/119 69/69/69 61/61/61
f 119/119/119 120/120/120 69/69/69
f 121/121/121 33/33/33 36/36/36
f 121/121/121 122/122/122 33/33/33
f 125/125/125 124/124/124 123/123/123
f 125/125/125 126/126/126 124/124/124
f 126/126/126 127/127/127 124/124/124
f 126/126/126 128/128/128 127/127/127
f 129/129/129 64/64/64 62/62/62
f 129/129/129 130/130/130 64/64/64
f 131/131/131 14/14/14 15/15/15
f 131/131/131 132/132/132 14/14/14
f 133/133/133 62/62/62 65/65/65
f 133/133/133 129/129/129 62/62/62
f 136/136/136 135/135/135 134/134/134
f 136/136/136 137/137/137 135/135/135
f 138/138/138 128/128/128 126/126/126
f 138/138/138 139/139/139 128/128/128
f 140/140/140 132/132/132 131/131/131
f 140/140/140 141/141/141 132/132/132
f 142/142/142 129/129/129 133/133/133
f 142/142/142 143/143/143 129/129/129
g pb_Mesh325264_1
