g pb_Mesh139218
v 0 4 -1
v -8 4 -1
v -8 0 -1
v 0 0 -1
v -8 4 -8
v 0 4 -8
v 0 0 -8
v -8 0 -8
v 0 4 -8
v -8 4 -8
v -8 4 -1
v 0 4 -1
v 0 0 -1
v -8 0 -1
v -8 0 -8
v 0 0 -8
v -8 4 -1
v -8 4 -8
v -8 3 -3
v -8 3 -6
v -8 0 -8
v -8 0 -6
v -8 0 -1
v -8 0 -3
v -8 3 -3
v -8 3 -6
v -9 3 -3
v -9 3 -6
v -8 3 -6
v -8 0 -6
v -9 3 -6
v -9 0 -6
v -8 0 -3
v -8 3 -3
v -9 0 -3
v -9 3 -3
v 0 4 -1
v -1.072884E-05 4 -2
v -1.03116E-05 4 -7
v 0 4 -1
v 0 0 -1
v -1.072884E-05 4 -2
v -1.072884E-05 0 -2
v 0 0 -8
v 0 4 -8
v -1.03116E-05 0 -7
v -1.03116E-05 4 -7
vt 0 4
vt 8 4
vt 8 0
vt 0 0
vt -8 4
vt 0 4
vt 0 0
vt -8 0
vt 0 -8
vt -8 -8
vt -8 -1
vt 0 -1
vt 0 -1
vt 8 -1
vt 8 -8
vt 0 -8
vt 1 4
vt 8 4
vt 3 3
vt 6 3
vt 8 0
vt 6 0
vt 1 0
vt 3 0
vt -8 -3
vt -8 -6
vt -9 -3
vt -9 -6
vt -8 3
vt -8 0
vt -9 3
vt -9 0
vt 8 0
vt 8 3
vt 9 0
vt 9 3
vt 0 -1
vt 1.072884E-05 -2
vt 1.03116E-05 -7
vt -1 4
vt -1 0
vt -2 4
vt -2 0
vt -8 0
vt -8 4
vt -7 0
vt -7 4
vn 0 0 -1
vn 0 0 -1
vn 0 0 -1
vn 0 0 -1
vn 0 0 1
vn 0 0 1
vn 0 0 1
vn 0 0 1
vn 0 -1 0
vn 0 -1 0
vn 0 -1 0
vn 0 -1 0
vn 0 1 0
vn 0 1 0
vn 0 1 0
vn 0 1 0
vn 1 0 0
vn 1 0 0
vn 1 0 0
vn 1 0 0
vn 1 0 0
vn 1 0 0
vn 1 0 0
vn 1 0 0
vn 0 -1 0
vn 0 -1 0
vn 0 -1 0
vn 0 -1 0
vn 0 0 1
vn 0 0 1
vn 0 0 1
vn 0 0 1
vn 0 0 -1
vn 0 0 -1
vn 0 0 -1
vn 0 0 -1
vn 0 1 0
vn 0 1 0
vn 0 1 0
vn -1 0 1.072884E-05
vn -1 0 1.072884E-05
vn -1 0 1.072884E-05
vn -1 0 1.072884E-05
vn -1 0 -1.03116E-05
vn -1 0 -1.03116E-05
vn -1 0 -1.03116E-05
vn -1 0 -1.03116E-05
g pb_Mesh139218_0
f 3/3/3 2/2/2 1/1/1
f 4/4/4 3/3/3 1/1/1
f 7/7/7 6/6/6 5/5/5
f 8/8/8 7/7/7 5/5/5
f 11/11/11 10/10/10 9/9/9
f 12/12/12 11/11/11 9/9/9
f 15/15/15 14/14/14 13/13/13
f 16/16/16 15/15/15 13/13/13
f 19/19/19 18/18/18 17/17/17
f 19/19/19 20/20/20 18/18/18
f 20/20/20 21/21/21 18/18/18
f 20/20/20 22/22/22 21/21/21
f 24/24/24 17/17/17 23/23/23
f 24/24/24 19/19/19 17/17/17
f 27/27/27 26/26/26 25/25/25
f 27/27/27 28/28/28 26/26/26
f 31/31/31 30/30/30 29/29/29
f 31/31/31 32/32/32 30/30/30
f 35/35/35 34/34/34 33/33/33
f 35/35/35 36/36/36 34/34/34
f 39/39/39 38/38/38 37/37/37
f 42/42/42 41/41/41 40/40/40
f 42/42/42 43/43/43 41/41/41
f 46/46/46 45/45/45 44/44/44
f 46/46/46 47/47/47 45/45/45
