g pb_Mesh238412
v -4 0 0
v -12 0 0
v -4 1 0
v -12 1 0
v -12 0 0
v -12 0 -4
v -12 1 0
v -12 1 -4
v -4 0 -2
v -4 0 -4
v -12 0 -4
v -12 0 0
v -4 0 0
v -1.999908 0 0
v -1.999908 1 0
v -1.999908 0 -2
v -1.999908 0 0
v -2 1 -1.5
v -1.999908 0.5 -2
v -1.999908 0 -2
v -1.999908 0 0
v -1.999908 1 0
v -2 1 -1.5
v -2.5 1 -2
v -1.999908 0.5 -2
v -4 1 -2
v -2.5 1 -2
v -2 1 -1.5
v -4 1 0
v -1.999908 1 0
v -4 1 -2
v -1.999908 0.5 -2
v -2.5 1 -2
v -4 0 -2
v -1.999908 0 -2
v -12 1 -4
v -4 0.5 -4
v -4.5 1 -4
v -12 0 -4
v -4 0 -4
v -12 1 -4
v -4.5 1 -4
v -4 1 -3.5
v -12 1 0
v -4 1 -3.5
v -4 0.5 -4
v -4 0 -4
v -4 0 -2
v -4 1 -2
v -4 1 -3.5
v -4.5 1 -4
v -4 0.5 -4
vt -4 0
vt -12 0
vt -4 1
vt -12 1
vt 0 0
vt -4 0
vt 0 1
vt -4 1
vt -4 -2
vt -4 -4
vt -12 -4
vt -12 0
vt -4 0
vt -1.999908 0
vt -1.999908 1
vt -1.999908 -2
vt -1.999908 0
vt 1.500023 1.000097
vt 2.000023 0.5000973
vt 2.000023 9.735563E-05
vt 2.323286E-05 9.735676E-05
vt 2.323286E-05 1.000097
vt 2.121385 -1.632893
vt 2.474971 -2.245247
vt 1.767799 -2.245247
vt 4 -2
vt 2.5 -2
vt 2 -1.5
vt 4 0
vt 1.999908 0
vt 4 1
vt 1.999908 0.5
vt 2.5 1
vt 4 0
vt 1.999908 0
vt 12 1
vt 4 0.5
vt 4.5 1
vt 12 0
vt 4 0
vt 12 -4
vt 4.5 -4
vt 4 -3.5
vt 12 0
vt 3.5 1
vt 4 0.5
vt 4 0
vt 2 0
vt 2 1
vt 5.303301 1.020621
vt 6.010407 1.020621
vt 5.656854 0.4082483
vn 0 0 1
vn 0 0 1
vn 0 0 1
vn 0 0 1
vn -1 0 0
vn -1 0 0
vn -1 0 0
vn -1 0 0
vn 0 -1 0
vn 0 -1 0
vn 0 -1 0
vn 0 -1 0
vn 0 -1 0
vn 0 0 1
vn 0 0 1
vn 0 -1 0
vn 0 -1 0
vn 1 3.051758E-05 4.069011E-05
vn 1 0 0.0001831055
vn 1 4.577637E-05 9.155273E-05
vn 1 4.577637E-05 -3.051758E-05
vn 1 0 -6.103516E-05
vn 0.577315 0.5774208 -0.577315
vn 0.577315 0.5774208 -0.577315
vn 0.577315 0.5774208 -0.577315
vn 0 1 0
vn 0 1 0
vn 0 1 0
vn 0 1 0
vn 0 1 0
vn 0 0 -1
vn 0 0 -1
vn 0 0 -1
vn 0 0 -1
vn 0 0 -1
vn 0 0 -1
vn 0 0 -1
vn 0 0 -1
vn 0 0 -1
vn 0 0 -1
vn 0 1 0
vn 0 1 0
vn 0 1 0
vn 0 1 0
vn 1 0 0
vn 1 0 0
vn 1 0 0
vn 1 0 0
vn 1 0 0
vn 0.5773503 0.5773503 -0.5773503
vn 0.5773503 0.5773503 -0.5773503
vn 0.5773503 0.5773503 -0.5773503
g pb_Mesh238412_0
f 3/3/3 2/2/2 1/1/1
f 3/3/3 4/4/4 2/2/2
f 7/7/7 6/6/6 5/5/5
f 7/7/7 8/8/8 6/6/6
f 11/11/11 10/10/10 9/9/9
f 12/12/12 11/11/11 9/9/9
f 12/12/12 9/9/9 13/13/13
f 14/14/14 3/3/3 1/1/1
f 14/14/14 15/15/15 3/3/3
f 16/16/16 13/13/13 9/9/9
f 16/16/16 17/17/17 13/13/13
f 20/20/20 19/19/19 18/18/18
f 20/20/20 18/18/18 21/21/21
f 22/22/22 21/21/21 18/18/18
f 25/25/25 24/24/24 23/23/23
f 28/28/28 27/27/27 26/26/26
f 29/29/29 28/28/28 26/26/26
f 29/29/29 30/30/30 28/28/28
f 33/33/33 32/32/32 31/31/31
f 32/32/32 34/34/34 31/31/31
f 32/32/32 35/35/35 34/34/34
f 38/38/38 37/37/37 36/36/36
f 37/37/37 39/39/39 36/36/36
f 37/37/37 40/40/40 39/39/39
f 43/43/43 42/42/42 41/41/41
f 26/26/26 43/43/43 41/41/41
f 44/44/44 26/26/26 41/41/41
f 44/44/44 29/29/29 26/26/26
f 47/47/47 46/46/46 45/45/45
f 47/47/47 45/45/45 48/48/48
f 49/49/49 48/48/48 45/45/45
f 52/52/52 51/51/51 50/50/50
