g pb_Mesh55848
v 0 -8 8
v -4 -8 8
v 0 4 8
v -4 3 8
v -96 0 -4
v -96 0 -8
v -96 3 -4
v -96 3 -8
v -4 -8 4
v 0 -8 4
v -4 3 4
v 0 4 4
v 0 -8 4
v 0 -8 8
v 0 4 4
v 0 4 8
v 0 4 8
v -4 3 8
v 0 4 4
v -4 3 4
v 0 -8 4
v -4 -8 4
v 0 -8 8
v -4 -8 8
v -50 0 -2
v -50 0 -6
v -96 0 -4
v -96 0 -8
v -50 0 -2
v -96 0 -4
v -96 3 -4
v -50 7 -2
v -96 3 -8
v -50 0 -6
v -50 7 -6
v -96 0 -8
v -96 3 -4
v -96 3 -8
v -50 7 -6
v -50 7 -2
v -4 -8 8
v -4 -8 4
v -27 -8 7
v -27 -8 3
v -27 -8 7
v -27 -8 3
v -50 0 -2
v -50 0 -6
v -4 -8 8
v -27 -8 7
v -27 3 7
v -4 3 8
v -27 -8 7
v -50 0 -2
v -50 7 -2
v -27 3 7
v -27 3 3
v -4 -8 4
v -4 3 4
v -27 -8 3
v -50 7 -6
v -27 -8 3
v -27 3 3
v -50 0 -6
v -50 7 -2
v -50 7 -6
v -27 3 3
v -27 3 7
v -27 3 7
v -27 3 3
v -4 3 4
v -4 3 8
vt 0 -8
vt -4 -8
vt 0 4
vt -4 3
vt -4 0
vt -8 0
vt -4 3
vt -8 3
vt 4 -8
vt 0 -8
vt 4 3
vt 0 4
vt -4 -8
vt -8 -8
vt -4 4
vt -8 4
vt -0.9701425 8
vt 3.152963 8
vt -0.9701425 4
vt 3.152963 4
vt 0 4
vt -4 4
vt 0 8
vt -4 8
vt 49.98954 -1.20546
vt 49.98954 -4.653382
vt 95.97991 -2.452401
vt 95.97991 -5.900322
vt -49.78238 -1.016428
vt -95.60473 -1.919793
vt -95.60473 1.019325
vt -49.78238 5.841514
vt -96.16881 1.813072
vt -50.34646 -0.2226819
vt -50.34646 6.635261
vt -96.16881 -1.126046
vt 95.69398 -6.927715
vt 95.69398 -10.60142
vt 49.54438 -9.353204
vt 49.54438 -5.679503
vt 3.835515 10.99201
vt 3.835515 7.544085
vt 26.8307 10.36854
vt 26.8307 6.920615
vt 26.8307 10.36854
vt 26.8307 6.920615
vt 49.98954 -1.20546
vt 49.98954 -4.653382
vt -2.831866 -9.538205
vt -25.74304 -9.989887
vt -25.74304 0.7868791
vt -2.831866 1.238561
vt -25.74304 -9.989887
vt -49.78238 -1.016428
vt -49.78238 5.841514
vt -25.74304 0.7868791
vt -26.30712 1.580626
vt -3.395946 -8.744459
vt -3.395946 2.032308
vt -26.30712 -9.19614
vt -50.34646 6.635261
vt -26.30712 -9.19614
vt -26.30712 1.580626
vt -50.34646 -0.2226819
vt 49.54438 -5.679503
vt 49.54438 -9.353204
vt 26.79646 0.9883485
vt 26.79646 4.662049
vt 26.79646 4.662049
vt 26.79646 0.9883485
vt 3.83062 2.40247
vt 3.83062 6.07617
vn 0 0 1
vn 0 0 1
vn 0 0 1
vn 0 0 1
vn -1 0 0
vn -1 0 0
vn -1 0 0
vn -1 0 0
vn 0 0 -1
vn 0 0 -1
vn 0 0 -1
vn 0 0 -1
vn 1 0 0
vn 1 0 0
vn 1 0 0
vn 1 0 0
vn -0.2425356 0.9701425 0
vn -0.2425356 0.9701425 0
vn -0.2425356 0.9701425 0
vn -0.2425356 0.9701425 0
vn 0 -1 0
vn 0 -1 0
vn 0 -1 0
vn 0 -1 0
vn 0 -1 0
vn 0 -1 0
vn 0 -1 0
vn 0 -1 0
vn -0.04343722 0 0.9990562
vn -0.04343722 0 0.9990562
vn -0.04343722 0 0.9990562
vn -0.04343722 0 0.9990562
vn 0.04343722 0 -0.9990562
vn 0.04343722 0 -0.9990562
vn 0.04343722 0 -0.9990562
vn 0.04343722 0 -0.9990562
vn -0.08662962 0.9962406 0
vn -0.08662962 0.9962406 0
vn -0.08662962 0.9962406 0
vn -0.08662962 0.9962406 0
vn 0 -1 0
vn 0 -1 0
vn 0 -1 0
vn 0 -1 0
vn -0.3285206 -0.9444968 0
vn -0.3285206 -0.9444968 0
vn -0.3285206 -0.9444968 0
vn -0.3285206 -0.9444968 0
vn -0.04343722 0 0.9990562
vn -0.04343722 0 0.9990562
vn -0.04343722 0 0.9990562
vn -0.04343722 0 0.9990562
vn -0.3643994 0 0.9312428
vn -0.3643994 0 0.9312428
vn -0.3643994 0 0.9312428
vn -0.3643994 0 0.9312428
vn 0.04343722 0 -0.9990562
vn 0.04343722 0 -0.9990562
vn 0.04343722 0 -0.9990562
vn 0.04343722 0 -0.9990562
vn 0.3643994 0 -0.9312428
vn 0.3643994 0 -0.9312428
vn 0.3643994 0 -0.9312428
vn 0.3643994 0 -0.9312428
vn 0.1713412 0.9852118 0
vn 0.1713412 0.9852118 0
vn 0.1713412 0.9852118 0
vn 0.1713412 0.9852118 0
vn 0 1 0
vn 0 1 0
vn 0 1 0
vn 0 1 0
g pb_Mesh55848_0
f 3/3/3 2/2/2 1/1/1
f 3/3/3 4/4/4 2/2/2
f 7/7/7 6/6/6 5/5/5
f 7/7/7 8/8/8 6/6/6
f 11/11/11 10/10/10 9/9/9
f 11/11/11 12/12/12 10/10/10
f 15/15/15 14/14/14 13/13/13
f 15/15/15 16/16/16 14/14/14
f 19/19/19 18/18/18 17/17/17
f 19/19/19 20/20/20 18/18/18
f 23/23/23 22/22/22 21/21/21
f 23/23/23 24/24/24 22/22/22
f 27/27/27 26/26/26 25/25/25
f 27/27/27 28/28/28 26/26/26
f 31/31/31 30/30/30 29/29/29
f 31/31/31 29/29/29 32/32/32
f 35/35/35 34/34/34 33/33/33
f 34/34/34 36/36/36 33/33/33
f 39/39/39 38/38/38 37/37/37
f 40/40/40 39/39/39 37/37/37
f 43/43/43 42/42/42 41/41/41
f 43/43/43 44/44/44 42/42/42
f 47/47/47 46/46/46 45/45/45
f 47/47/47 48/48/48 46/46/46
f 51/51/51 50/50/50 49/49/49
f 51/51/51 49/49/49 52/52/52
f 55/55/55 54/54/54 53/53/53
f 55/55/55 53/53/53 56/56/56
f 59/59/59 58/58/58 57/57/57
f 58/58/58 60/60/60 57/57/57
f 63/63/63 62/62/62 61/61/61
f 62/62/62 64/64/64 61/61/61
f 67/67/67 66/66/66 65/65/65
f 68/68/68 67/67/67 65/65/65
f 71/71/71 70/70/70 69/69/69
f 72/72/72 71/71/71 69/69/69
