g pb_Mesh127878
v 0 2.75 -7.125
v -0.01000214 2.75 11.375
v -0.01000214 8.75 -7.125
v -0.01000214 5 11.375
v -0.01000214 8.75 -14.125
v -0.01000214 8.75 -7.125
v 0 10.75 -14.125
v 0 10.75 4.875
v -0.01000214 8.75 -7.125
v -0.01000214 5 11.375
v 0 10.75 4.875
v -0.01000214 10.75 11.375
vt 7.124999 2.750003
vt -11.375 2.750003
vt 7.124994 8.750011
vt -11.375 5
vt 14.125 8.749841
vt 7.125 8.749841
vt 14.125 10.74987
vt -4.875 10.74987
vt 7.125004 8.749963
vt -11.37499 4.999953
vt -4.875 10.74997
vt -11.37499 10.74994
vn 0.9999985 0.00166702 0.0005406552
vn 0.9999993 0.0008335101 0.0002703276
vn 0.9999993 0.0008335101 0.0002703276
vn 1 0 0
vn 0.9999875 -0.005001005 0
vn 0.9999875 -0.005001006 0
vn 0.9999875 -0.005001006 0
vn 0.9999875 -0.005001006 0
vn 0.9999974 -0.002256574 -0.0004574136
vn 0.9999981 -0.001128287 0.0005406874
vn 0.9999981 -0.001128287 0.0005406874
vn 0.9999988 0 0.001538788
g pb_Mesh127878_0
g pb_Mesh127878_1
f 3/3/3 2/2/2 1/1/1
f 3/3/3 4/4/4 2/2/2
f 7/7/7 6/6/6 5/5/5
f 7/7/7 8/8/8 6/6/6
f 11/11/11 10/10/10 9/9/9
f 11/11/11 12/12/12 10/10/10
