g pb_Mesh306930
v 4 24 8
v -4 24 8
v 4 32 8
v -4 32 8
v -4 24 8
v -4 24 0
v -4 32 8
v -4 32 0
v -4 24 0
v 4 24 0
v -4 32 0
v 4 32 0
v 4 24 0
v 4 24 8
v 4 32 0
v 4 32 8
v 4 32 8
v -4 32 8
v 4 32 0
v -4 32 0
v 4 24 0
v -4 24 0
v 4 20 2.141495
v -4 20 2.141495
v 4 20 5.858505
v 4 20 2.141495
v -4 20 2.141495
v -4 20 5.858505
v -4 24 8
v 4 24 8
v -4 20 5.858505
v 4 20 5.858505
v 4 20 2.141495
v -4 20 2.141495
v 4 -20 2.141495
v -4 -20 2.141495
v 4 -20 5.858505
v 4 -20 2.141495
v -4 -20 2.141495
v -4 -20 5.858505
v -4 20 5.858505
v 4 20 5.858505
v -4 -20 5.858505
v 4 -20 5.858505
vt 4 24
vt -4 24
vt 4 32
vt -4 32
vt 8 24
vt 0 24
vt 8 32
vt 0 32
vt 4 24
vt -4 24
vt 4 32
vt -4 32
vt 0 24
vt -8 24
vt 0 32
vt -8 32
vt -4 8
vt 4 8
vt -4 0
vt 4 0
vt -4 21.15852
vt 4 21.15852
vt -4 16.62134
vt 4 16.62134
vt -5.858505 20
vt -2.141495 20
vt 2.141495 20
vt 5.858505 20
vt -4 24.93442
vt 4 24.93442
vt -4 20.39724
vt 4 20.39724
vt -4 20
vt 4 20
vt -4 -20
vt 4 -20
vt -5.858505 -20
vt -2.141495 -20
vt 2.141495 -20
vt 5.858505 -20
vt -4 20
vt 4 20
vt -4 -20
vt 4 -20
vn 0 0 1
vn 0 0 1
vn 0 0 1
vn 0 0 1
vn -1 0 0
vn -1 0 0
vn -1 0 0
vn -1 0 0
vn 0 0 -1
vn 0 0 -1
vn 0 0 -1
vn 0 0 -1
vn 1 0 0
vn 1 0 0
vn 1 0 0
vn 1 0 0
vn 0 1 0
vn 0 1 0
vn 0 1 0
vn 0 1 0
vn 0 -0.4719881 -0.881605
vn 0 -0.4719881 -0.881605
vn 0 -0.4719881 -0.881605
vn 0 -0.4719881 -0.881605
vn 1 0 0
vn 1 0 0
vn -1 0 0
vn -1 0 0
vn 0 -0.4719881 0.881605
vn 0 -0.4719881 0.881605
vn 0 -0.4719881 0.881605
vn 0 -0.4719881 0.881605
vn 0 0 -1
vn 0 0 -1
vn 0 0 -1
vn 0 0 -1
vn 1 0 0
vn 1 0 0
vn -1 0 0
vn -1 0 0
vn 0 0 1
vn 0 0 1
vn 0 0 1
vn 0 0 1
g pb_Mesh306930_0
g pb_Mesh306930_1
f 3/3/3 2/2/2 1/1/1
f 3/3/3 4/4/4 2/2/2
f 7/7/7 6/6/6 5/5/5
f 7/7/7 8/8/8 6/6/6
f 11/11/11 10/10/10 9/9/9
f 11/11/11 12/12/12 10/10/10
f 15/15/15 14/14/14 13/13/13
f 15/15/15 16/16/16 14/14/14
f 19/19/19 18/18/18 17/17/17
f 19/19/19 20/20/20 18/18/18
f 23/23/23 22/22/22 21/21/21
f 23/23/23 24/24/24 22/22/22
f 25/25/25 13/13/13 14/14/14
f 25/25/25 26/26/26 13/13/13
f 27/27/27 5/5/5 6/6/6
f 27/27/27 28/28/28 5/5/5
f 31/31/31 30/30/30 29/29/29
f 31/31/31 32/32/32 30/30/30
f 35/35/35 34/34/34 33/33/33
f 35/35/35 36/36/36 34/34/34
f 37/37/37 26/26/26 25/25/25
f 37/37/37 38/38/38 26/26/26
f 39/39/39 28/28/28 27/27/27
f 39/39/39 40/40/40 28/28/28
f 43/43/43 42/42/42 41/41/41
f 43/43/43 44/44/44 42/42/42
