g pb_Mesh385922
v 0 14 0
v -4 14 5.340576E-05
v -4 16 0
v 0 16 0
v -4 16 -16
v 7.534027E-05 14 -16
v 0 16 -16
v -4 14 -16.00004
v -4 14 3
v -12 14 3
v -12 16 3
v -4 16 3
v -12 14 0
v -16 14 0
v -16 16 0
v -12 16 0
v -12 16 -19
v -4 14 -19
v -4 16 -19
v -12 14 -19
v -16 16 -16
v -12 14 -16.00005
v -12 16 -16
v -16 14 -16
v -16 14 -12
v -16 14 -16
v -16 16 -16
v -16 16 -12
v 0 16 -16
v 0.0001003742 14 -12
v 0 16 -12
v 7.534027E-05 14 -16
v -4 16 -16
v 0 16 -16
v 0 16 -12
v -4 16 -12
v -16 16 -16
v -12 16 -16
v -12 16 -12
v -16 16 -12
v -16 14 0
v -16.00005 14 -4
v -16 16 -4
v -16 16 0
v -19 14 -4
v -19 14 -12
v -19 16 -12
v -19 16 -4
v 0 16 -4
v 0 14 0
v 0 16 0
v 0 14 -4
v 3 16 -12
v 3 14 -4
v 3 16 -4
v 3 14 -12
v 0 16 -4
v -4 16 -4
v 0 16 0
v -4 16 0
v -12 16 -4
v -16 16 -4
v -12 16 0
v -16 16 0
v 0 14 -4
v 0 16 -4
v 3 14 -4
v 3 16 -4
v 3 16 -4
v 3 16 -12
v 0 16 -12
v 0.0001003742 14 -12
v 3 16 -12
v 3 14 -12
v 0.0001003742 14 -12
v 0 14 -4
v 3 14 -12
v 3 14 -4
v -4 14 -16.00004
v -4 16 -16
v -4 14 -19
v -4 16 -19
v -4 16 -19
v -12 16 -19
v -12 16 -16
v -12 14 -16.00005
v -12 16 -19
v -12 14 -19
v -12 14 -16.00005
v -4 14 -16.00004
v -12 14 -19
v -4 14 -19
v -4 14 5.340576E-05
v -12 14 0
v -4 14 3
v -12 14 3
v -12 14 0
v -12 16 0
v -12 14 3
v -12 16 3
v -4 16 0
v -4 14 5.340576E-05
v -4 16 3
v -4 14 3
v -12 16 3
v -4 16 3
v -16.00005 14 -4
v -16 14 -12
v -19 14 -4
v -19 14 -12
v -16 14 -12
v -16 16 -12
v -19 14 -12
v -19 16 -12
v -16 16 -4
v -16.00005 14 -4
v -19 16 -4
v -19 14 -4
v -19 16 -12
v -19 16 -4
v -12 4 0.0001068115
v -16.00007 4 7.629395E-05
v -16.00007 4 7.629395E-05
v -16.00005 14 -4
v -16 14 0
v -16.00015 4 -4
v -12 14 -16.00005
v -4 4.00005 -16.00008
v -4 14 -16.00004
v -12 4 -16.00014
v 0.0001003742 14 -12
v 8.535385E-05 4.00005 -4
v 0 14 -4
v 0.0001502037 4 -12
v -4 14 5.340576E-05
v -4 4 0.0001602173
v 2 4.00005 -4
v 7.05719E-05 4 7.629395E-05
v 8.535385E-05 4.00005 -4
v 2 4.00005 7.629395E-05
v 2 4.00005 -12
v 8.535385E-05 4.00005 -4
v 0.0001502037 4 -12
v 2 4.00005 -4
v 2 4.00005 -16.00008
v 0.0001502037 4 -12
v 7.05719E-05 4 -16.00008
v 2 4.00005 -12
v -4 4.00005 -18
v 7.05719E-05 4 -16.00008
v -4 4.00005 -16.00008
v 7.05719E-05 4.0001 -18
v -12 4.00005 -18
v -4 4.00005 -16.00008
v -12 4 -16.00014
v -4 4.00005 -18
v -16.00007 4.0001 -18
v -12 4 -16.00014
v -16.00007 4 -16.00008
v -12 4.00005 -18
v -16.00005 14 -4
v -16.00008 4.00005 -12
v -16 14 -12
v -16.00015 4 -4
v -18 4.00005 -12
v -16.00007 4 -16.00008
v -16.00008 4.00005 -12
v -18 4.00005 -16.00008
v -18 4.00005 -4
v -16.00008 4.00005 -12
v -16.00015 4 -4
v -18 4.00005 -12
v -18 4.00005 7.629395E-05
v -16.00007 4 7.629395E-05
v -18 4.00015 -18
v -16.00007 4 -16.00008
v -18 4.00005 -16.00008
v -16.00007 4.0001 -18
v -16.00007 4.000121 2
v -18 4.00005 7.629395E-05
v -16.00007 4 7.629395E-05
v -18 4.00015 2
v -12 4.00005 2
v -16.00007 4 7.629395E-05
v -12 4 0.0001068115
v -16.00007 4.000121 2
v -4 4.00005 2
v -4 4 0.0001602173
v 7.05719E-05 4.000121 2
v -4 4 0.0001602173
v 7.05719E-05 4 7.629395E-05
v -4 4.00005 2
v 2 4.00015 2
v 7.05719E-05 4 7.629395E-05
v 2 4.00005 7.629395E-05
v 7.05719E-05 4.000121 2
v 7.05719E-05 4.0001 -18
v 2 4.00005 -16.00008
v 7.05719E-05 4 -16.00008
v 2 4.00015 -18
v -4 4.0001 -12
v 0.0001502037 4 -12
v 0.0001003742 14 -12
v -4 4.0001 -12
v 0.0001502037 4 -12
v -4 14 -12
v -4 14 -12
v -4 4.00005 -16.00008
v -4 4.0001 -12
v -4 14 -16.00004
v 7.534027E-05 14 -16
v -4 14 -12
v 0.0001003742 14 -12
v -4 14 -16.00004
v -12 4.000035 -12
v -12 4 -16.00014
v -12 14 -12
v -12 4 -16.00014
v -12 14 -16.00005
v -12 4.000035 -12
v -12 4.000035 -12
v -16 14 -12
v -16.00008 4.00005 -12
v -12 14 -12
v -16 14 -12
v -12 14 -16.00005
v -16 14 -16
v -12 14 -12
v 0 14 -4
v -4 14 5.340576E-05
v 0 14 0
v -4 14 -4
v -4 14 -4
v -4 4 0.0001602173
v -4 14 5.340576E-05
v -4 4.000035 -4
v -4 4.000035 -4
v -4 4 0.0001602173
v -4 4.000035 -4
v 0 14 -4
v 8.535385E-05 4.00005 -4
v -4 14 -4
v 1.999899 0 7.629395E-05
v 2 4.00015 2
v 2 4.00005 7.629395E-05
v 1.999929 0 1.999924
v 1.999899 0 -12
v 2 4.00005 -4
v 2 4.00005 -12
v 1.999899 0 -4
v 1.999899 0 -16.00008
v 2 4.00005 -16.00008
v 1.999929 0 -17.99992
v 2 4.00015 -18
v 0 0 -18
v 2 4.00015 -18
v 7.05719E-05 4.0001 -18
v 1.999929 0 -17.99992
v -4 0 -18
v -4 4.00005 -18
v -12 0 -18
v -12 4.00005 -18
v -16 0 -18
v -16.00007 4.0001 -18
v -17.99993 0 -17.99992
v -16.00007 4.0001 -18
v -18 4.00015 -18
v -16 0 -18
v -17.99995 0 2
v -18 4.00005 7.629395E-05
v -18 4.00015 2
v -17.9999 0 7.629395E-05
v -17.9999 0 7.629395E-05
v -18 4.00005 -4
v -18 4.00005 7.629395E-05
v -17.9999 0 -4
v -18 4.00005 -12
v -17.9999 0 -12
v -18 4.00005 -16.00008
v -17.9999 0 -16.00008
v -18 4.00015 -18
v -17.99993 0 -17.99992
v 1.999929 0 1.999924
v 7.05719E-05 4.000121 2
v 2 4.00015 2
v 7.05719E-05 0 1.999893
v -4 4.00005 2
v -4 0 1.999893
v -12 4.00005 2
v -12 0 1.999893
v -16.00007 4.000121 2
v -16.00007 0 1.999947
v -18 4.00015 2
v -17.99995 0 2
vt 0 14
vt -4 14
vt -4 16
vt 0 16
vt 4 16
vt -7.534027E-05 14
vt 0 16
vt 4 14
vt -4 14
vt -12 14
vt -12 16
vt -4 16
vt -12 14
vt -16 14
vt -16 16
vt -12 16
vt 12 16
vt 4 14
vt 4 16
vt 12 14
vt 16 15.99963
vt 12 13.99963
vt 12 15.99963
vt 16 13.99963
vt -12 14
vt -16 14
vt -16 16
vt -12 16
vt 16 16
vt 12 14
vt 12 16
vt 16 14
vt 4 -16
vt 0 -16
vt 0 -12
vt 4 -12
vt 16 -16
vt 12 -16
vt 12 -12
vt 16 -12
vt -0.0001983643 13.9996
vt -4.000198 13.9996
vt -4.000198 15.9996
vt -0.0001983643 15.9996
vt -4 14
vt -12 14
vt -12 16
vt -4 16
vt 4 16
vt 0 14
vt 0 16
vt 4 14
vt 12 16
vt 4 14
vt 4 16
vt 12 14
vt 0 -4
vt 4 -4
vt 0 0
vt 4 0
vt 12 -4
vt 16 -4
vt 12 0
vt 16 0
vt 0 14
vt 0 16
vt 3 14
vt 3 16
vt -3 -4
vt -3 -12
vt 0 16
vt -0.0001003742 14
vt -3 16
vt -3 14
vt 0.0001003742 -12
vt 0 -4
vt 3 -12
vt 3 -4
vt 16.00004 14
vt 16 16
vt 19 14
vt 19 16
vt 4 -19
vt 12 -19
vt -16 16
vt -16.00005 14
vt -19 16
vt -19 14
vt -12 -16.00005
vt -4 -16.00004
vt -12 -19
vt -4 -19
vt -4 5.340576E-05
vt -12 0
vt -4 3
vt -12 3
vt 0 14
vt 0 16
vt 3 14
vt 3 16
vt 0 16
vt -5.340576E-05 14
vt -3 16
vt -3 14
vt 12 3
vt 4 3
vt -16.00005 -4
vt -16 -12
vt -19 -4
vt -19 -12
vt 16 14
vt 16 16
vt 19 14
vt 19 16
vt -16 16
vt -16.00005 14
vt -19 16
vt -19 14
vt 19 -12
vt 19 -4
vt -12 4
vt -16.00007 4
vt -0.0001220712 3.999887
vt -4.000198 13.99989
vt -0.0001983643 13.99989
vt -4.000198 3.999887
vt 12.00002 13.99993
vt 4.000015 3.999977
vt 4.000015 13.99993
vt 12.00002 3.999927
vt 12 14
vt 4 4.00005
vt 4 14
vt 12 4
vt -4 14
vt -4 4
vt -2 -4.00005
vt -7.05719E-05 2.6227E-05
vt -8.535385E-05 -4.00005
vt -2 2.622637E-05
vt -2.0001 -11.99998
vt -0.0001854984 -3.999975
vt -0.000250347 -11.99998
vt -2.0001 -3.999975
vt -2.0001 -16.00008
vt -0.000250343 -12
vt -0.0001707112 -16.00008
vt -2.0001 -12
vt 4.00005 -18
vt -2.050488E-05 -16.00008
vt 4.00005 -16.00008
vt -2.050363E-05 -18
vt 11.99998 -18.0001
vt 3.999975 -16.00019
vt 11.99998 -16.00024
vt 3.999975 -18.0001
vt 16.00007 -18.0002
vt 12 -16.00034
vt 16.00007 -16.00028
vt 12 -18.0002
vt -3.999901 13.99987
vt -11.9999 3.999916
vt -11.9999 13.99987
vt -3.999901 3.999866
vt 18 -11.99995
vt 16.00007 -16.00003
vt 16.00008 -11.99995
vt 18 -16.00003
vt 18.0001 -4.000025
vt 16.00019 -12.00002
vt 16.00025 -4.000025
vt 18.0001 -12.00002
vt 18.0001 7.62959E-05
vt 16.00017 7.62959E-05
vt 18.0001 -18.0002
vt 16.00017 -16.00028
vt 18.0001 -16.00028
vt 16.00017 -18.0002
vt 16.00017 2.000241
vt 18.0001 0.0003175585
vt 16.00017 0.0003175585
vt 18.0001 2.000241
vt 12 2.0001
vt 16.00007 0.0001764351
vt 12 0.0002069527
vt 16.00007 2.0001
vt 4 2.0001
vt 4 0.0002603611
vt -7.057696E-05 2.000241
vt 4 0.0004015061
vt -7.057696E-05 0.0003175827
vt 4 2.000241
vt -2.0001 2.0002
vt -0.0001707112 0.0002765732
vt -2.0001 0.0002765732
vt -0.0001707143 2.0002
vt -0.0001707137 -18.0002
vt -2.0001 -16.00028
vt -0.0001707112 -16.00028
vt -2.0001 -18.0002
vt 4.0001 -12
vt -5.007166E-05 -12
vt -0.0001003742 14
vt 4 4.0001
vt -0.0001502037 4
vt 4 14
vt 12 14
vt 16.00008 4.00005
vt 12 4.0001
vt 16.00004 14
vt 7.534027E-05 -16
vt -4 -12
vt 0.0001003742 -12
vt -4 -16.00004
vt 12 -11.99996
vt 12 -16.0001
vt -12 14
vt -16.00014 4
vt -16.00005 14
vt -12 4.000035
vt 12 4.000035
vt 16 14
vt 16.00008 4.00005
vt 12 14
vt -16 -12
vt -12 -16.00005
vt -16 -16
vt -12 -12
vt 0 -4
vt -4 5.340576E-05
vt 0 0
vt -4 -4
vt 4 14
vt -0.0001602173 4
vt -5.340576E-05 14
vt 4 4.000035
vt 4 -4.000035
vt 4 0.0001249327
vt -4 4.000035
vt 0 14
vt 8.535385E-05 4.00005
vt -4 14
vt -7.629141E-05 5.054155E-05
vt -2 4.000201
vt -7.629141E-05 4.000101
vt -1.999924 5.054232E-05
vt 12 5.054155E-05
vt 4 4.000101
vt 12 4.000101
vt 4 5.054155E-05
vt 16.00008 5.054155E-05
vt 16.00008 4.000101
vt 17.99992 3.528338E-05
vt 18 4.000185
vt 0 0
vt -2 4.00015
vt -7.05719E-05 4.0001
vt -1.999929 0
vt 4 0
vt 4 4.00005
vt 12 0
vt 12 4.00005
vt 16 0
vt 16.00007 4.0001
vt 17.99993 0.0003433084
vt 16.00007 4.000443
vt 18 4.000494
vt 16 0.0003433099
vt 2 0.0002231508
vt 7.628277E-05 4.000273
vt 2 4.000373
vt 7.628277E-05 0.0002231502
vt 7.629395E-05 0.0004463115
vt -4 4.000496
vt 7.629395E-05 4.000496
vt -4 0.0004463115
vt -12 4.000496
vt -12 0.0004463115
vt -16.00008 4.000496
vt -16.00008 0.0004463115
vt -18 4.000597
vt -17.99992 0.0004463122
vt 1.999929 3.814408E-05
vt 7.057134E-05 4.000159
vt 2 4.000188
vt 7.057134E-05 3.81435E-05
vt -4 4.000103
vt -4 5.34013E-05
vt -12 4.000103
vt -12 5.340224E-05
vt -16.00007 4.000174
vt -16.00007 5.340367E-05
vt -18 4.000177
vt -17.99995 2.670208E-05
vn 6.67572E-06 1.335144E-05 1
vn 1.335144E-05 2.670288E-05 1
vn 6.67572E-06 1.335144E-05 1
vn 0 0 1
vn 4.768282E-06 9.536743E-06 -1
vn 4.768282E-06 9.536743E-06 -1
vn 0 0 -1
vn 9.536564E-06 1.907349E-05 -1
vn 0 0 1
vn 0 0 1
vn 0 0 1
vn 0 0 1
vn 0 0 1
vn 0 0 1
vn 0 0 1
vn 0 0 1
vn 0 0 -1
vn 0 0 -1
vn 0 0 -1
vn 0 0 -1
vn -5.722046E-06 1.144409E-05 -1
vn -5.722046E-06 1.144409E-05 -1
vn 0 2.288818E-05 -1
vn -1.144409E-05 0 -1
vn -1 0 0
vn -1 0 0
vn -1 0 0
vn -1 0 0
vn 1 4.392862E-05 -3.129244E-06
vn 1 4.392862E-05 -3.129244E-06
vn 1 5.018711E-05 0
vn 1 3.767014E-05 -6.258488E-06
vn 0 1 0
vn 0 1 0
vn 0 1 0
vn 0 1 0
vn 0 1 0
vn 0 1 0
vn 0 1 0
vn 0 1 0
vn -1 1.239777E-05 6.198883E-06
vn -1 2.479553E-05 1.239777E-05
vn -1 1.239777E-05 6.198883E-06
vn -1 0 0
vn -1 0 0
vn -1 0 0
vn -1 0 0
vn -1 0 0
vn 1 0 0
vn 1 0 0
vn 1 0 0
vn 1 0 0
vn 1 0 0
vn 1 0 0
vn 1 0 0
vn 1 0 0
vn 0 1 0
vn 0 1 0
vn 0 1 0
vn 0 1 0
vn 0 1 0
vn 0 1 0
vn 0 1 0
vn 0 1 0
vn 0 0 1
vn 0 0 1
vn 0 0 1
vn 0 0 1
vn 0 1 0
vn 0 1 0
vn 0 0 -1
vn 0 0 -1
vn 0 0 -1
vn 0 0 -1
vn 0 -1 0
vn 0 -1 0
vn 0 -1 0
vn 0 -1 0
vn 1 0 0
vn 1 0 0
vn 1 0 0
vn 1 0 0
vn 0 1 0
vn 0 1 0
vn -1 0 0
vn -1 0 0
vn -1 0 0
vn -1 0 0
vn 0 -1 0
vn 0 -1 0
vn 0 -1 0
vn 0 -1 0
vn 0 -1 0
vn 0 -1 0
vn 0 -1 0
vn 0 -1 0
vn -1 0 0
vn -1 0 0
vn -1 0 0
vn -1 0 0
vn 1 0 0
vn 1 0 0
vn 1 0 0
vn 1 0 0
vn 0 1 0
vn 0 1 0
vn 0 -1 0
vn 0 -1 0
vn 0 -1 0
vn 0 -1 0
vn 0 0 -1
vn 0 0 -1
vn 0 0 -1
vn 0 0 -1
vn 0 0 1
vn 0 0 1
vn 0 0 1
vn 0 0 1
vn 0 1 0
vn 0 1 0
vn -3.81463E-06 9.1553E-06 1
vn -7.62926E-06 7.629448E-06 1
vn -1 8.487748E-06 1.597386E-05
vn -1 8.487748E-06 1.597386E-05
vn -1 7.057285E-06 1.239777E-05
vn -1 9.918213E-06 1.954995E-05
vn 3.814669E-06 6.866467E-06 -1
vn 3.814669E-06 6.866467E-06 -1
vn 9.536743E-07 4.57766E-06 -1
vn 6.675663E-06 9.155274E-06 -1
vn 1 6.759188E-06 1.032649E-05
vn 1 6.759188E-06 1.032649E-05
vn 1 8.535428E-06 1.254678E-05
vn 1 4.982948E-06 8.106201E-06
vn -6.67572E-06 1.068115E-05 1
vn -6.67572E-06 1.068115E-05 1
vn -1.251742E-05 1 6.258369E-06
vn -1.251742E-05 1 6.258369E-06
vn 0 1 1.251674E-05
vn -2.503483E-05 1 0
vn -1.251792E-05 1 -3.129345E-06
vn -1.251792E-05 1 -3.129345E-06
vn -2.503583E-05 1 -6.258691E-06
vn 0 1 0
vn -2.503533E-05 1 2.491914E-10
vn -2.503533E-05 1 2.491914E-10
vn -2.503483E-05 1 4.983828E-10
vn -2.503583E-05 1 0
vn 0 1 2.503491E-05
vn 0 1 2.503491E-05
vn 1.251675E-05 1 0
vn -1.251675E-05 1 5.006981E-05
vn -3.129327E-06 1 1.251783E-05
vn -3.129327E-06 1 1.251783E-05
vn -6.258655E-06 1 2.503567E-05
vn 0 1 0
vn 6.258759E-06 1 3.755274E-05
vn 6.258759E-06 1 3.755274E-05
vn 7.639912E-10 1 5.006981E-05
vn 1.251675E-05 1 2.503567E-05
vn -1 9.155294E-06 -7.152527E-06
vn -1 9.155294E-06 -7.152527E-06
vn -1 8.392376E-06 -6.198883E-06
vn -1 9.918213E-06 -8.106171E-06
vn 1.251742E-05 1 -6.258368E-06
vn 1.251742E-05 1 -6.258368E-06
vn 0 1 -1.251674E-05
vn 2.503483E-05 1 0
vn 1.251791E-05 1 3.129345E-06
vn 1.251791E-05 1 3.129345E-06
vn 2.503581E-05 1 6.258691E-06
vn 0 1 0
vn 2.503532E-05 1 -2.447149E-10
vn 2.503483E-05 1 -4.894298E-10
vn 2.503483E-05 1 5.006981E-05
vn 2.503483E-05 1 5.006981E-05
vn 2.503483E-05 1 5.006981E-05
vn 2.503483E-05 1 5.006981E-05
vn 1.990866E-05 1 -5.5196E-05
vn 1.990866E-05 1 -5.5196E-05
vn 2.503483E-05 1 -6.032218E-05
vn 1.478249E-05 1 -5.006981E-05
vn 8.821423E-06 1 -4.267874E-05
vn 8.821423E-06 1 -4.267874E-05
vn 1.910007E-10 1 -2.503529E-05
vn 1.764265E-05 1 -6.032219E-05
vn 8.356652E-11 1 -2.503562E-05
vn 1.67133E-10 1 -2.503596E-05
vn -8.821965E-06 1 -4.267908E-05
vn -8.821965E-06 1 -4.267908E-05
vn -1.265588E-09 1 -6.03222E-05
vn -1.764266E-05 1 -2.503596E-05
vn -1.990865E-05 1 -5.519601E-05
vn -1.990865E-05 1 -5.519601E-05
vn -2.503483E-05 1 -5.006981E-05
vn -1.478247E-05 1 -6.03222E-05
vn -2.503483E-05 1 5.006981E-05
vn -2.503483E-05 1 5.006981E-05
vn -2.503483E-05 1 5.006981E-05
vn -2.503483E-05 1 5.006981E-05
vn 1.877489E-05 1 -6.258605E-06
vn 2.503301E-05 1 -4.983465E-10
vn 0 0 -1
vn 0 0 -1
vn 0 0 -1
vn 0 0 -1
vn 1 0 0
vn 1 0 0
vn 1 0 0
vn 1 0 0
vn 0 -1 0
vn 0 -1 0
vn 0 -1 0
vn 0 -1 0
vn 1.847638E-06 1 -1.066895E-05
vn -1.345982E-10 1 -8.821185E-06
vn -1 0 0
vn -1 0 0
vn -1 0 0
vn -1 0 0
vn 0 0 -1
vn 0 0 -1
vn 0 0 -1
vn 0 0 -1
vn 0 -1 0
vn 0 -1 0
vn 0 -1 0
vn 0 -1 0
vn 0 -1 0
vn 0 -1 0
vn 0 -1 0
vn 0 -1 0
vn 1 0 0
vn 1 0 0
vn 1 0 0
vn 1 0 0
vn -1.847612E-06 1 1.066893E-05
vn 1.850715E-10 1 8.821134E-06
vn 0 0 1
vn 0 0 1
vn 0 0 1
vn 0 0 1
vn 1 -2.145704E-05 -7.629344E-06
vn 1 -2.145704E-05 -7.629344E-06
vn 1 -2.527205E-05 1.265367E-09
vn 1 -1.764202E-05 -1.525995E-05
vn 1 -2.527205E-05 0
vn 1 -2.527205E-05 0
vn 1 -2.527205E-05 0
vn 1 -2.527205E-05 0
vn 1 -2.527205E-05 0
vn 1 -2.527205E-05 0
vn 1 -2.145718E-05 7.629535E-06
vn 1 -1.764231E-05 -8.833472E-10
vn 1.907416E-05 -9.536721E-06 -1
vn 1.907416E-05 -9.536721E-06 -1
vn 0 0 -1
vn 3.814832E-05 -1.907344E-05 -1
vn 0 0 -1
vn 0 0 -1
vn 0 0 -1
vn 0 0 -1
vn 0 0 -1
vn 0 0 -1
vn -1.90744E-05 -9.536721E-06 -1
vn -1.90744E-05 -9.536721E-06 -1
vn -4.774837E-10 -1.907277E-05 -1
vn -3.814832E-05 -6.73033E-10 -1
vn -1 -1.859626E-05 -1.239793E-05
vn -1 -1.859626E-05 -1.239793E-05
vn -1 -1.23973E-05 6.207305E-10
vn -1 -2.479522E-05 -2.479648E-05
vn -1 -2.479522E-05 0
vn -1 -2.479522E-05 0
vn -1 -2.479522E-05 0
vn -1 -2.479522E-05 0
vn -1 -2.479522E-05 0
vn -1 -2.479522E-05 0
vn -1 -2.479522E-05 0
vn -1 -2.479522E-05 0
vn -1 -2.121863E-05 7.152482E-06
vn -1 -1.764204E-05 1.430621E-05
vn -7.629792E-06 -2.288742E-05 1
vn -7.629792E-06 -2.288742E-05 1
vn 2.819427E-10 -1.907277E-05 1
vn -1.525987E-05 -2.670208E-05 1
vn 2.355479E-10 -2.670231E-05 1
vn 0 -2.670255E-05 1
vn 0 -2.670255E-05 1
vn 0 -2.670255E-05 1
vn 6.675364E-06 -2.002679E-05 1
vn 1.33512E-05 -1.335104E-05 1
vn 1.335216E-05 -6.675353E-06 1
vn 2.670451E-05 3.310638E-10 1
g pb_Mesh385922_0
g pb_Mesh385922_1
f 3/3/3 2/2/2 1/1/1
f 3/3/3 1/1/1 4/4/4
f 7/7/7 6/6/6 5/5/5
f 6/6/6 8/8/8 5/5/5
f 11/11/11 10/10/10 9/9/9
f 11/11/11 9/9/9 12/12/12
f 15/15/15 14/14/14 13/13/13
f 15/15/15 13/13/13 16/16/16
f 19/19/19 18/18/18 17/17/17
f 18/18/18 20/20/20 17/17/17
f 23/23/23 22/22/22 21/21/21
f 22/22/22 24/24/24 21/21/21
f 27/27/27 26/26/26 25/25/25
f 27/27/27 25/25/25 28/28/28
f 31/31/31 30/30/30 29/29/29
f 30/30/30 32/32/32 29/29/29
f 35/35/35 34/34/34 33/33/33
f 35/35/35 33/33/33 36/36/36
f 39/39/39 38/38/38 37/37/37
f 39/39/39 37/37/37 40/40/40
f 36/36/36 33/33/33 38/38/38
f 36/36/36 38/38/38 39/39/39
f 43/43/43 42/42/42 41/41/41
f 43/43/43 41/41/41 44/44/44
f 47/47/47 46/46/46 45/45/45
f 47/47/47 45/45/45 48/48/48
f 51/51/51 50/50/50 49/49/49
f 50/50/50 52/52/52 49/49/49
f 55/55/55 54/54/54 53/53/53
f 54/54/54 56/56/56 53/53/53
f 57/57/57 35/35/35 36/36/36
f 57/57/57 36/36/36 58/58/58
f 59/59/59 57/57/57 58/58/58
f 59/59/59 58/58/58 60/60/60
f 61/61/61 39/39/39 40/40/40
f 61/61/61 40/40/40 62/62/62
f 63/63/63 61/61/61 62/62/62
f 63/63/63 62/62/62 64/64/64
f 58/58/58 36/36/36 39/39/39
f 58/58/58 39/39/39 61/61/61
f 60/60/60 58/58/58 61/61/61
f 60/60/60 61/61/61 63/63/63
f 67/67/67 66/66/66 65/65/65
f 67/67/67 68/68/68 66/66/66
f 69/69/69 35/35/35 57/57/57
f 69/69/69 70/70/70 35/35/35
f 73/73/73 72/72/72 71/71/71
f 73/73/73 74/74/74 72/72/72
f 77/77/77 76/76/76 75/75/75
f 77/77/77 78/78/78 76/76/76
f 81/81/81 80/80/80 79/79/79
f 81/81/81 82/82/82 80/80/80
f 83/83/83 38/38/38 33/33/33
f 83/83/83 84/84/84 38/38/38
f 87/87/87 86/86/86 85/85/85
f 87/87/87 88/88/88 86/86/86
f 91/91/91 90/90/90 89/89/89
f 91/91/91 92/92/92 90/90/90
f 95/95/95 94/94/94 93/93/93
f 95/95/95 96/96/96 94/94/94
f 99/99/99 98/98/98 97/97/97
f 99/99/99 100/100/100 98/98/98
f 103/103/103 102/102/102 101/101/101
f 103/103/103 104/104/104 102/102/102
f 105/105/105 60/60/60 63/63/63
f 105/105/105 106/106/106 60/60/60
f 109/109/109 108/108/108 107/107/107
f 109/109/109 110/110/110 108/108/108
f 113/113/113 112/112/112 111/111/111
f 113/113/113 114/114/114 112/112/112
f 117/117/117 116/116/116 115/115/115
f 117/117/117 118/118/118 116/116/116
f 119/119/119 62/62/62 40/40/40
f 119/119/119 120/120/120 62/62/62
f 13/13/13 14/14/14 121/121/121
f 14/14/14 122/122/122 121/121/121
f 125/125/125 124/124/124 123/123/123
f 124/124/124 126/126/126 123/123/123
f 129/129/129 128/128/128 127/127/127
f 128/128/128 130/130/130 127/127/127
f 133/133/133 132/132/132 131/131/131
f 132/132/132 134/134/134 131/131/131
f 13/13/13 121/121/121 135/135/135
f 121/121/121 136/136/136 135/135/135
f 139/139/139 138/138/138 137/137/137
f 138/138/138 140/140/140 137/137/137
f 143/143/143 142/142/142 141/141/141
f 142/142/142 144/144/144 141/141/141
f 147/147/147 146/146/146 145/145/145
f 146/146/146 148/148/148 145/145/145
f 151/151/151 150/150/150 149/149/149
f 150/150/150 152/152/152 149/149/149
f 155/155/155 154/154/154 153/153/153
f 154/154/154 156/156/156 153/153/153
f 159/159/159 158/158/158 157/157/157
f 158/158/158 160/160/160 157/157/157
f 163/163/163 162/162/162 161/161/161
f 162/162/162 164/164/164 161/161/161
f 167/167/167 166/166/166 165/165/165
f 166/166/166 168/168/168 165/165/165
f 171/171/171 170/170/170 169/169/169
f 170/170/170 172/172/172 169/169/169
f 174/174/174 171/171/171 173/173/173
f 171/171/171 169/169/169 173/173/173
f 177/177/177 176/176/176 175/175/175
f 176/176/176 178/178/178 175/175/175
f 181/181/181 180/180/180 179/179/179
f 180/180/180 182/182/182 179/179/179
f 185/185/185 184/184/184 183/183/183
f 184/184/184 186/186/186 183/183/183
f 188/188/188 185/185/185 187/187/187
f 185/185/185 183/183/183 187/187/187
f 191/191/191 190/190/190 189/189/189
f 190/190/190 192/192/192 189/189/189
f 195/195/195 194/194/194 193/193/193
f 194/194/194 196/196/196 193/193/193
f 199/199/199 198/198/198 197/197/197
f 198/198/198 200/200/200 197/197/197
f 202/202/202 150/150/150 201/201/201
f 150/150/150 151/151/151 201/201/201
f 205/205/205 204/204/204 203/203/203
f 204/204/204 206/206/206 203/203/203
f 209/209/209 208/208/208 207/207/207
f 208/208/208 210/210/210 207/207/207
f 213/213/213 212/212/212 211/211/211
f 212/212/212 214/214/214 211/211/211
f 216/216/216 166/166/166 215/215/215
f 166/166/166 167/167/167 215/215/215
f 219/219/219 218/218/218 217/217/217
f 218/218/218 220/220/220 217/217/217
f 223/223/223 222/222/222 221/221/221
f 222/222/222 224/224/224 221/221/221
f 227/227/227 226/226/226 225/225/225
f 226/226/226 228/228/228 225/225/225
f 231/231/231 230/230/230 229/229/229
f 230/230/230 232/232/232 229/229/229
f 235/235/235 234/234/234 233/233/233
f 234/234/234 236/236/236 233/233/233
f 238/238/238 138/138/138 237/237/237
f 138/138/138 139/139/139 237/237/237
f 241/241/241 240/240/240 239/239/239
f 240/240/240 242/242/242 239/239/239
f 245/245/245 244/244/244 243/243/243
f 244/244/244 246/246/246 243/243/243
f 249/249/249 248/248/248 247/247/247
f 248/248/248 250/250/250 247/247/247
f 252/252/252 249/249/249 251/251/251
f 249/249/249 247/247/247 251/251/251
f 254/254/254 252/252/252 253/253/253
f 252/252/252 251/251/251 253/253/253
f 257/257/257 256/256/256 255/255/255
f 256/256/256 258/258/258 255/255/255
f 260/260/260 257/257/257 259/259/259
f 257/257/257 255/255/255 259/259/259
f 262/262/262 260/260/260 261/261/261
f 260/260/260 259/259/259 261/261/261
f 264/264/264 262/262/262 263/263/263
f 262/262/262 261/261/261 263/263/263
f 267/267/267 266/266/266 265/265/265
f 266/266/266 268/268/268 265/265/265
f 271/271/271 270/270/270 269/269/269
f 270/270/270 272/272/272 269/269/269
f 275/275/275 274/274/274 273/273/273
f 274/274/274 276/276/276 273/273/273
f 274/274/274 277/277/277 276/276/276
f 277/277/277 278/278/278 276/276/276
f 277/277/277 279/279/279 278/278/278
f 279/279/279 280/280/280 278/278/278
f 279/279/279 281/281/281 280/280/280
f 281/281/281 282/282/282 280/280/280
f 285/285/285 284/284/284 283/283/283
f 284/284/284 286/286/286 283/283/283
f 248/248/248 245/245/245 250/250/250
f 245/245/245 243/243/243 250/250/250
f 284/284/284 287/287/287 286/286/286
f 287/287/287 288/288/288 286/286/286
f 287/287/287 289/289/289 288/288/288
f 289/289/289 290/290/290 288/288/288
f 289/289/289 291/291/291 290/290/290
f 291/291/291 292/292/292 290/290/290
f 291/291/291 293/293/293 292/292/292
f 293/293/293 294/294/294 292/292/292
