g pb_Mesh376452
v 0 -17 0
v -4 -17 0
v -4 5 0
v 0 5 0
v -4 5 0
v -4 5 -4
v -4 8 -4
v -4 8 0
v -4 5 -4
v 0 -17 -4
v 0 5 -4
v -4 -17 -4
v 0 5 -4
v 0 -17 0
v 0 5 0
v 0 -17 -4
v -0.5 8 -4
v 0 7.5 -4
v 0 8 -3.5
v -0.5 8 -4
v -4 8 -4
v 0 7.5 -4
v 0 7.25 0
v -0.75 8 0
v -4 8 0
v -4 8 0
v -4 8 -4
v -0.75 8 0
v -0.5 8 -4
v 0 8 -3.5
v 0 8 -0.75
v 0 8 -0.75
v 0 7.25 0
v -0.75 8 0
v 0 8 -0.75
v 0 8 -3.5
v 0 7.5 -4
v 0 7.25 0
vt 0 -17
vt -4 -17
vt -4 5
vt 0 5
vt 0 5
vt -4 5
vt -4 8
vt 0 8
vt 4 5
vt 0 -17
vt 0 5
vt 4 -17
vt 4 5
vt 0 -17
vt 0 5
vt 4 -17
vt 3.18198 5.103104
vt 2.828427 4.490731
vt 2.474874 5.103104
vt 0.5 8
vt 4 8
vt 0 7.5
vt 0 7.25
vt -0.75 8
vt -4 8
vt 4 0
vt 4 -4
vt 0.75 0
vt 0.5 -4
vt 0 -3.5
vt 0 -0.75
vt 0.5303301 6.838159
vt 0 5.9196
vt -0.5303301 6.838159
vt 0.75 8
vt 3.5 8
vt 4 7.5
vt 0 7.25
vn 0 0 1
vn 0 0 1
vn 0 0 1
vn 0 0 1
vn -1 0 0
vn -1 0 0
vn -1 0 0
vn -1 0 0
vn 0 0 -1
vn 0 0 -1
vn 0 0 -1
vn 0 0 -1
vn 1 0 0
vn 1 0 0
vn 1 0 0
vn 1 0 0
vn 0.5773503 0.5773503 -0.5773503
vn 0.5773503 0.5773503 -0.5773503
vn 0.5773503 0.5773503 -0.5773503
vn 0 0 -1
vn 0 0 -1
vn 0 0 -1
vn 0 0 1
vn 0 0 1
vn 0 0 1
vn 0 1 0
vn 0 1 0
vn 0 1 0
vn 0 1 0
vn 0 1 0
vn 0 1 0
vn 0.5773503 0.5773503 0.5773503
vn 0.5773503 0.5773503 0.5773503
vn 0.5773503 0.5773503 0.5773503
vn 1 0 0
vn 1 0 0
vn 1 0 0
vn 1 0 0
g pb_Mesh376452_0
f 3/3/3 2/2/2 1/1/1
f 3/3/3 1/1/1 4/4/4
f 7/7/7 6/6/6 5/5/5
f 7/7/7 5/5/5 8/8/8
f 11/11/11 10/10/10 9/9/9
f 10/10/10 12/12/12 9/9/9
f 15/15/15 14/14/14 13/13/13
f 14/14/14 16/16/16 13/13/13
f 19/19/19 18/18/18 17/17/17
f 9/9/9 21/21/21 20/20/20
f 9/9/9 20/20/20 11/11/11
f 22/22/22 11/11/11 20/20/20
f 24/24/24 4/4/4 23/23/23
f 4/4/4 24/24/24 3/3/3
f 24/24/24 25/25/25 3/3/3
f 28/28/28 27/27/27 26/26/26
f 31/31/31 30/30/30 29/29/29
f 27/27/27 31/31/31 29/29/29
f 28/28/28 31/31/31 27/27/27
f 34/34/34 33/33/33 32/32/32
f 37/37/37 36/36/36 35/35/35
f 35/35/35 13/13/13 37/37/37
f 13/13/13 35/35/35 15/15/15
f 38/38/38 15/15/15 35/35/35
g pb_Mesh376452_1
