g pb_Mesh322714
v -0.1249938 11.5 -2
v -0.1249939 5.25 -2
v 0.1250061 5.25 -1.999999
v 0.1250062 11.5 -1.999999
v 1 4 3.278255E-06
v -0.9999998 4 -2.563E-06
v 1 13 3.278255E-06
v -0.9999996 13 -2.563E-06
v 1 13 3.278255E-06
v -0.9999996 13 -2.563E-06
v 1.000006 13 -1.999997
v -0.9999938 13 -2.000003
v -0.9999998 4 -2.563E-06
v -0.9999939 4 -2.000003
v -0.9999938 13 -2.000003
v -0.9999996 13 -2.563E-06
v 1 13 3.278255E-06
v 1.000006 13 -1.999997
v 1 4 3.278255E-06
v 1.000006 4 -1.999997
v 1.000006 13 -1.999997
v -0.9999938 13 -2.000003
v -0.1249938 11.5 -2
v 0.1250062 11.5 -1.999999
v 0.1250061 5.25 -1.999999
v 1.000006 4 -1.999997
v -0.9999939 4 -2.000003
v -0.1249939 5.25 -2
vt 0.1249995 11.5
vt 0.1249996 5.25
vt -0.1250004 5.25
vt -0.1250005 11.5
vt 1 4
vt -0.9999998 4
vt 1 13
vt -0.9999996 13
vt -1 3.278255E-06
vt 0.9999996 -2.563E-06
vt -1.000006 -1.999997
vt 0.9999938 -2.000003
vt 3.576272E-07 4
vt -2 4
vt -2 13
vt 3.576268E-07 13
vt -3.576268E-07 13
vt 2 13
vt -3.576272E-07 4
vt 2 4
vt -1 13
vt 0.9999998 13
vt 0.1249998 11.5
vt -0.1250002 11.5
vt -0.1250001 5.25
vt -1 4
vt 0.9999999 4
vt 0.1249999 5.25
vn 2.861023E-06 -4.092726E-14 -1
vn 2.861023E-06 -4.092726E-14 -1
vn 2.861023E-06 -4.092726E-14 -1
vn 2.861023E-06 -4.092726E-14 -1
vn -2.920628E-06 3.868511E-14 1
vn -2.920628E-06 3.868511E-14 1
vn -2.920628E-06 3.868511E-14 1
vn -2.920628E-06 3.868511E-14 1
vn 0 1 0
vn 0 1 0
vn 0 1 0
vn 0 1 0
vn -1 1.324548E-08 -2.920628E-06
vn -1 1.324548E-08 -2.920628E-06
vn -1 1.324548E-08 -2.920628E-06
vn -1 1.324548E-08 -2.920628E-06
vn 1 -1.324548E-08 2.920628E-06
vn 1 -1.324548E-08 2.920628E-06
vn 1 -1.324548E-08 2.920628E-06
vn 1 -1.324548E-08 2.920628E-06
vn 2.920628E-06 3.476938E-08 -1
vn 2.980232E-06 -9.934108E-09 -1
vn 2.920628E-06 3.476938E-08 -1
vn 2.861023E-06 7.947286E-08 -1
vn 2.997262E-06 -4.84342E-14 -1
vn 2.997262E-06 -3.970017E-14 -1
vn 2.997262E-06 -3.970017E-14 -1
vn 2.997262E-06 -4.84342E-14 -1
g pb_Mesh322714_0
f 3/3/3 2/2/2 1/1/1
f 4/4/4 3/3/3 1/1/1
g pb_Mesh322714_1
f 7/7/7 6/6/6 5/5/5
f 7/7/7 8/8/8 6/6/6
f 11/11/11 10/10/10 9/9/9
f 11/11/11 12/12/12 10/10/10
f 15/15/15 14/14/14 13/13/13
f 16/16/16 15/15/15 13/13/13
f 19/19/19 18/18/18 17/17/17
f 19/19/19 20/20/20 18/18/18
f 23/23/23 22/22/22 21/21/21
f 21/21/21 24/24/24 23/23/23
f 26/26/26 25/25/25 21/21/21
f 25/25/25 24/24/24 21/21/21
f 28/28/28 27/27/27 22/22/22
f 23/23/23 28/28/28 22/22/22
f 26/26/26 27/27/27 28/28/28
f 25/25/25 26/26/26 28/28/28
