g pb_Mesh227408
v -9 0 -14.5
v -6 0 -14.5
v -6 0 -16
v -10 0 -16
v -6 0 0
v -9 0 -1.5
v -10 0 0
v -6 0 -1.5
v -1.5 0 -14.5
v 0 0 -16
v -2 0 -16
v -3 0 -14.5
v 0 0 0
v -1.5 0 -1.5
v -2 0 0
v -3 0 -1.5
v 0 0 -14
v -1.5 0 -13
v 0 4.768372E-07 -10
v -1.5 4.768372E-07 -10
v -16 4.768372E-07 -10
v -14.5 4.768372E-07 -10
v -14.5 0 -13
v -16 0 -14
v -14.5 0 -14.5
v -16 0 -16
v -10 4 -14
v -6 4 -14
v -6 4 -10
v -10 4 -10
v -2 4 -14
v -2 4 -10
v -13 0 -14.5
v -14 -4.768372E-07 -16
v -13 -4.768372E-07 -1.499999
v -14 -4.768372E-07 9.536743E-07
v -14.5 0 -1.5
v -16 0 0
v -14 4 -16
v -10 4 -16
v -14 4 -14
v -14 4 -10
v 0 0 -2
v -1.5 0 -3
v 0 0 -6
v -1.5 0 -7
v -14.5 0 -3
v -16 0 -6
v -16 0 -2
v -14.5 0 -7
v -10 4 -6
v -6 4 -6
v -6 4 -2
v -10 4 -2
v -6 4 0
v -10 4 0
v -2 4 -6
v -2 4 -2
v -2 4 0
v 0 4 -6
v 0 4 -2
v -14 4 -6
v -14 4 -2
v -14 4 0
v -6 0 0
v -10 0 0
v -10 2 0
v -6 2 0
v -10 4 0
v -6 4 0
v -10 2 -16
v -6 0 -16
v -6 2 -16
v -10 0 -16
v 0 0 0
v -2 0 0
v -2 2 0
v 0 2 0
v -2 4 0
v -2 2 -16
v 0 0 -16
v 0 2 -16
v -2 0 -16
v -16 4.768372E-07 -10
v -16 0 -14
v -16 2 -14
v -16 2 -10
v -16 0 -16
v -16 2 -16
v 0 2 -14
v 0 4.768372E-07 -10
v 0 2 -10
v 0 0 -14
v 0 2 -16
v 0 0 -16
v -14 -4.768372E-07 9.536743E-07
v -14 2 4.768372E-07
v -14 4 0
v -16 0 0
v -16 2 0
v -14 2 -16
v -14 -4.768372E-07 -16
v -14 4 -16
v -10 4 -16
v -16 2 -16
v -16 0 -16
v -16 0 0
v -16 0 -2
v -16 2 -2
v -16 2 0
v -16 0 -6
v -16 2 -6
v 0 2 -2
v 0 0 0
v 0 2 0
v 0 0 -2
v 0 2 -6
v 0 0 -6
v 0 4 -6
v 0 4 -2
v 0 2.384186E-07 -8
v -1.5 2.384186E-07 -8.5
v -14.5 2.384186E-07 -8.5
v -16 2.384186E-07 -8
v -6 4 -8
v -10 4 -8
v -2 4 -8
v -14 4 -8
v -16 2.384186E-07 -8
v -16 2 -8
v 0 2 -8
v 0 2.384186E-07 -8
v -2 4 -14
v 0 4 -14
v -2 4.0001 -14
v 0 4.0001 -14
v 0 4 -14
v 0 4 -10
v 0 4.0001 -14
v 0 4.000101 -10
v -2 4 -10
v -2 4 -14
v -2 4.000101 -10
v -2 4.0001 -14
v 0 4 -8
v 0 4.0001 -8
v -2 4 -8
v -2 4.0001 -8
v 0 4 -8
v -2 4 -8
v 0 4.0001 -8
v -2 4.0001 -8
vt -9 -14.5
vt -6 -14.5
vt -6 -16
vt -10 -16
vt -6 6.315927E-15
vt -9 -1.5
vt -10 1.052654E-14
vt -6 -1.5
vt -1.5 -14.5
vt 0 -16
vt -2 -16
vt -3 -14.5
vt 0 0
vt -1.5 -1.5
vt -2 2.105309E-15
vt -3 -1.5
vt 0 -14
vt -1.5 -13
vt 9.473903E-15 -10
vt -1.5 -10
vt -16 -10
vt -14.5 -10
vt -14.5 -13
vt -16 -14
vt -14.5 -14.5
vt -16 -16
vt 10 -14
vt 6 -14
vt 6 -10
vt 10 -10
vt 2 -14
vt 2 -10
vt -13 -14.5
vt -14 -16
vt -13 -1.499999
vt -14 9.536743E-07
vt -14.5 -1.5
vt -16 1.684247E-14
vt 14 -16
vt 10 -16
vt 14 -14
vt 14 -10
vt 0 -2
vt -1.5 -3
vt 0 -6
vt -1.5 -7
vt -14.5 -3
vt -16 -6
vt -16 -2
vt -14.5 -7
vt 10 -6
vt 6 -6
vt 6 -2
vt 10 -2
vt 6 -8.414774E-08
vt 10 -8.414774E-08
vt 2 -6
vt 2 -2
vt 2 -8.414774E-08
vt 0 -6
vt 0 -2
vt 14 -6
vt 14 -2
vt 14 -8.414774E-08
vt -6 -7.993604E-15
vt -10 -1.332267E-14
vt -10 2
vt -6 2
vt -10 4
vt -6 4
vt 10 2
vt 6 0
vt 6 2
vt 10 0
vt 0 0
vt -2 -2.664535E-15
vt -2 2
vt 0 2
vt -2 4
vt 2 2
vt 0 0
vt 0 2
vt 2 0
vt -10 4.768372E-07
vt -14 0
vt -14 2
vt -10 2
vt -16 0
vt -16 2
vt 14 2
vt 10 4.768372E-07
vt 10 2
vt 14 0
vt 16 2
vt 16 0
vt -14 -4.768373E-07
vt -14 2
vt -14 4
vt -16 -2.131628E-14
vt -16 2
vt 14 2
vt 14 -4.768372E-07
vt 14 4
vt 10 4
vt 16 2
vt 16 0
vt 0 0
vt -2 0
vt -2 2
vt 0 2
vt -6 0
vt -6 2
vt 2 2
vt 0 0
vt 0 2
vt 2 0
vt 6 2
vt 6 0
vt 6 4
vt 2 4
vt 4.736952E-15 -8
vt -1.5 -8.5
vt -14.5 -8.5
vt -16 -8
vt 6 -8
vt 10 -8
vt 2 -8
vt 14 -8
vt -8 2.384186E-07
vt -8 2
vt 8 2
vt 8 2.384186E-07
vt 2 4
vt 0 4
vt 2 4.0001
vt 0 4.0001
vt 14 4
vt 10 4
vt 14 4.0001
vt 10 4.000101
vt -10 4
vt -14 4
vt -10 4.000101
vt -14 4.0001
vt 8 4
vt 8 4.0001
vt -8 4
vt -8 4.0001
vt 0 4
vt -2 4
vt 0 4.0001
vt -2 4.0001
vn 0 -1 0
vn 0 -1 0
vn 0 -1 0
vn 0 -1 0
vn 0 -1 0
vn 0 -1 0
vn 0 -1 0
vn 0 -1 0
vn 0 -1 0
vn 0 -1 0
vn 0 -1 0
vn 0 -1 0
vn 0 -1 0
vn 0 -1 0
vn 0 -1 0
vn 0 -1 0
vn 0 -1 0
vn 0 -1 0
vn 3.973644E-08 -1 1.390775E-07
vn 0 -1 1.589457E-07
vn -3.973643E-08 -1 1.390775E-07
vn 0 -1 1.589457E-07
vn -3.973643E-08 -1 1.390775E-07
vn -7.947286E-08 -1 1.192093E-07
vn 0 -1 0
vn 0 -1 0
vn 0 1 -1.192093E-07
vn 0 1 -1.192093E-07
vn 0 1 -1.192093E-07
vn 0 1 -1.192093E-07
vn 0 1 -1.192093E-07
vn 0 1 -1.192093E-07
vn 5.960464E-08 -1 1.192093E-07
vn 1.192093E-07 -1 2.384186E-07
vn 1.192093E-07 -1 7.947287E-08
vn 1.192093E-07 -1 7.947287E-08
vn -2.781549E-07 -1 -2.25173E-07
vn -2.384185E-07 -1 -2.384185E-07
vn 0 1 0
vn 0 1 0
vn 0 1 0
vn 0 1 -1.192093E-07
vn 0 -1 0
vn 0 -1 0
vn 0 -1 0
vn 0 -1 0
vn 0 -1 0
vn 0 -1 0
vn 0 -1 0
vn 0 -1 0
vn 0 1 0
vn 0 1 0
vn 0 1 0
vn 0 1 0
vn 0 1 0
vn 0 1 0
vn 0 1 0
vn 0 1 0
vn 0 1 0
vn 0 1 0
vn 0 1 0
vn 0 1 0
vn 0 1 0
vn 0 1 0
vn 0 0 1
vn 0 0 1
vn 0 0 1
vn 0 0 1
vn 0 0 1
vn 0 0 1
vn 0 0 -1
vn 0 0 -1
vn 0 0 -1
vn 0 0 -1
vn 0 0 1
vn 0 0 1
vn 0 0 1
vn 0 0 1
vn 0 0 1
vn 0 0 -1
vn 0 0 -1
vn 0 0 -1
vn 0 0 -1
vn -1 0 0
vn -1 0 0
vn -1 0 0
vn -1 0 0
vn -1 0 0
vn -1 0 0
vn 1 0 0
vn 1 0 0
vn 1 0 0
vn 1 0 0
vn 1 0 0
vn 1 0 0
vn 2.384186E-07 2.384186E-07 1
vn 1.788139E-07 1.192093E-07 1
vn 5.960464E-08 1.192093E-07 1
vn -3.576278E-07 1.192093E-07 1
vn -2.384186E-07 0 1
vn 0 0 -1
vn 0 0 -1
vn 0 0 -1
vn 0 0 -1
vn 0 0 -1
vn 0 0 -1
vn -1 0 0
vn -1 0 0
vn -1 0 0
vn -1 0 0
vn -1 0 0
vn -1 0 0
vn 1 0 0
vn 1 0 0
vn 1 0 0
vn 1 0 0
vn 1 0 0
vn 1 0 0
vn 1 0 0
vn 1 0 0
vn 6.622739E-08 -1 -1.390775E-07
vn 5.298191E-08 -1 -1.589457E-07
vn -1.986822E-08 -1 -1.390775E-07
vn -3.973643E-08 -1 -1.192093E-07
vn 0 1 2.384186E-07
vn 0 1 2.384186E-07
vn 0 1 2.384186E-07
vn 0 1 2.384186E-07
vn -1 0 0
vn -1 0 0
vn 1 0 0
vn 1 0 0
vn 0 0 -1
vn 0 0 -1
vn 0 0 -1
vn 0 0 -1
vn 1 0 0
vn 1 0 0
vn 1 0 0
vn 1 0 0
vn -1 0 -1.192093E-07
vn -1 0 -1.192093E-07
vn -1 0 -1.192093E-07
vn -1 0 -1.192093E-07
vn 1 0 0
vn 1 0 0
vn -1 0 0
vn -1 0 0
vn 0 0 1
vn 0 0 1
vn 0 0 1
vn 0 0 1
g pb_Mesh227408_0
g pb_Mesh227408_1
f 3/3/3 2/2/2 1/1/1
f 3/3/3 1/1/1 4/4/4
f 7/7/7 6/6/6 5/5/5
f 6/6/6 8/8/8 5/5/5
f 11/11/11 10/10/10 9/9/9
f 12/12/12 11/11/11 9/9/9
f 3/3/3 11/11/11 12/12/12
f 2/2/2 3/3/3 12/12/12
f 15/15/15 14/14/14 13/13/13
f 16/16/16 14/14/14 15/15/15
f 5/5/5 16/16/16 15/15/15
f 5/5/5 8/8/8 16/16/16
f 18/18/18 9/9/9 17/17/17
f 9/9/9 10/10/10 17/17/17
f 20/20/20 18/18/18 19/19/19
f 18/18/18 17/17/17 19/19/19
f 23/23/23 22/22/22 21/21/21
f 24/24/24 23/23/23 21/21/21
f 24/24/24 25/25/25 23/23/23
f 24/24/24 26/26/26 25/25/25
f 29/29/29 28/28/28 27/27/27
f 29/29/29 27/27/27 30/30/30
f 32/32/32 31/31/31 28/28/28
f 32/32/32 28/28/28 29/29/29
f 33/33/33 4/4/4 1/1/1
f 34/34/34 4/4/4 33/33/33
f 25/25/25 34/34/34 33/33/33
f 26/26/26 34/34/34 25/25/25
f 35/35/35 6/6/6 7/7/7
f 36/36/36 35/35/35 7/7/7
f 37/37/37 35/35/35 36/36/36
f 38/38/38 37/37/37 36/36/36
f 27/27/27 40/40/40 39/39/39
f 27/27/27 39/39/39 41/41/41
f 30/30/30 27/27/27 41/41/41
f 30/30/30 41/41/41 42/42/42
f 14/14/14 43/43/43 13/13/13
f 14/14/14 44/44/44 43/43/43
f 44/44/44 45/45/45 43/43/43
f 44/44/44 46/46/46 45/45/45
f 49/49/49 48/48/48 47/47/47
f 48/48/48 50/50/50 47/47/47
f 38/38/38 49/49/49 37/37/37
f 49/49/49 47/47/47 37/37/37
f 53/53/53 52/52/52 51/51/51
f 53/53/53 51/51/51 54/54/54
f 55/55/55 53/53/53 54/54/54
f 55/55/55 54/54/54 56/56/56
f 58/58/58 57/57/57 52/52/52
f 58/58/58 52/52/52 53/53/53
f 59/59/59 58/58/58 53/53/53
f 59/59/59 53/53/53 55/55/55
f 61/61/61 60/60/60 57/57/57
f 61/61/61 57/57/57 58/58/58
f 54/54/54 51/51/51 62/62/62
f 54/54/54 62/62/62 63/63/63
f 56/56/56 54/54/54 63/63/63
f 56/56/56 63/63/63 64/64/64
f 67/67/67 66/66/66 65/65/65
f 67/67/67 65/65/65 68/68/68
f 69/69/69 67/67/67 68/68/68
f 69/69/69 68/68/68 70/70/70
f 73/73/73 72/72/72 71/71/71
f 72/72/72 74/74/74 71/71/71
f 77/77/77 76/76/76 75/75/75
f 77/77/77 75/75/75 78/78/78
f 68/68/68 65/65/65 76/76/76
f 68/68/68 76/76/76 77/77/77
f 70/70/70 68/68/68 77/77/77
f 70/70/70 77/77/77 79/79/79
f 82/82/82 81/81/81 80/80/80
f 81/81/81 83/83/83 80/80/80
f 80/80/80 83/83/83 73/73/73
f 83/83/83 72/72/72 73/73/73
f 86/86/86 85/85/85 84/84/84
f 86/86/86 84/84/84 87/87/87
f 89/89/89 88/88/88 85/85/85
f 89/89/89 85/85/85 86/86/86
f 92/92/92 91/91/91 90/90/90
f 91/91/91 93/93/93 90/90/90
f 90/90/90 93/93/93 94/94/94
f 93/93/93 95/95/95 94/94/94
f 97/97/97 96/96/96 66/66/66
f 97/97/97 66/66/66 67/67/67
f 98/98/98 97/97/97 67/67/67
f 98/98/98 67/67/67 69/69/69
f 99/99/99 96/96/96 97/97/97
f 100/100/100 99/99/99 97/97/97
f 71/71/71 74/74/74 101/101/101
f 74/74/74 102/102/102 101/101/101
f 104/104/104 71/71/71 103/103/103
f 71/71/71 101/101/101 103/103/103
f 101/101/101 106/106/106 105/105/105
f 101/101/101 102/102/102 106/106/106
f 109/109/109 108/108/108 107/107/107
f 109/109/109 107/107/107 110/110/110
f 112/112/112 111/111/111 108/108/108
f 112/112/112 108/108/108 109/109/109
f 115/115/115 114/114/114 113/113/113
f 114/114/114 116/116/116 113/113/113
f 113/113/113 116/116/116 117/117/117
f 116/116/116 118/118/118 117/117/117
f 120/120/120 113/113/113 119/119/119
f 113/113/113 117/117/117 119/119/119
f 46/46/46 121/121/121 45/45/45
f 46/46/46 122/122/122 121/121/121
f 122/122/122 19/19/19 121/121/121
f 122/122/122 20/20/20 19/19/19
f 124/124/124 21/21/21 123/123/123
f 21/21/21 22/22/22 123/123/123
f 48/48/48 124/124/124 50/50/50
f 124/124/124 123/123/123 50/50/50
f 125/125/125 29/29/29 30/30/30
f 125/125/125 30/30/30 126/126/126
f 52/52/52 125/125/125 126/126/126
f 52/52/52 126/126/126 51/51/51
f 127/127/127 32/32/32 29/29/29
f 127/127/127 29/29/29 125/125/125
f 57/57/57 127/127/127 125/125/125
f 57/57/57 125/125/125 52/52/52
f 126/126/126 30/30/30 42/42/42
f 126/126/126 42/42/42 128/128/128
f 51/51/51 126/126/126 128/128/128
f 51/51/51 128/128/128 62/62/62
f 129/129/129 111/111/111 112/112/112
f 130/130/130 129/129/129 112/112/112
f 84/84/84 129/129/129 130/130/130
f 87/87/87 84/84/84 130/130/130
f 131/131/131 91/91/91 92/92/92
f 131/131/131 132/132/132 91/91/91
f 117/117/117 132/132/132 131/131/131
f 117/117/117 118/118/118 132/132/132
f 135/135/135 134/134/134 133/133/133
f 135/135/135 136/136/136 134/134/134
f 139/139/139 138/138/138 137/137/137
f 139/139/139 140/140/140 138/138/138
f 143/143/143 142/142/142 141/141/141
f 143/143/143 144/144/144 142/142/142
f 140/140/140 145/145/145 138/138/138
f 140/140/140 146/146/146 145/145/145
f 148/148/148 141/141/141 147/147/147
f 148/148/148 143/143/143 141/141/141
f 151/151/151 150/150/150 149/149/149
f 151/151/151 152/152/152 150/150/150
