g pb_Mesh324812
v 45.54506 0 -45.54506
v 45.54506 0 -20.27253
v 20.27253 0 -45.54506
v 20.27253 0 -20.27253
v 45.54506 0 -20.27253
v 45.54506 0 5
v 20.27253 0 -20.27253
v 20.27253 0 5
v 45.54506 0 5
v 45.54506 0 30.27253
v 20.27253 0 5
v 20.27253 0 30.27253
v 45.54506 0 30.27253
v 45.54506 0 55.54506
v 20.27253 0 30.27253
v 20.27253 0 55.54506
v 20.27253 0 -45.54506
v 20.27253 0 -20.27253
v -5 0 -45.54506
v -5 0 -20.27253
v 20.27253 0 -20.27253
v 20.27253 0 5
v -5 0 -20.27253
v -5 0 5
v 20.27253 0 5
v 20.27253 0 30.27253
v -5 0 5
v -5 0 30.27253
v 20.27253 0 30.27253
v 20.27253 0 55.54506
v -5 0 30.27253
v -5 0 55.54506
v -5 0 -45.54506
v -5 0 -20.27253
v -30.27253 0 -45.54506
v -30.27253 0 -20.27253
v -5 0 -20.27253
v -5 0 5
v -30.27253 0 -20.27253
v -30.27253 0 5
v -5 0 5
v -5 0 30.27253
v -30.27253 0 5
v -30.27253 0 30.27253
v -5 0 30.27253
v -5 0 55.54506
v -30.27253 0 30.27253
v -30.27253 0 55.54506
v -30.27253 0 -45.54506
v -30.27253 0 -20.27253
v -55.54506 0 -45.54506
v -55.54506 0 -20.27253
v -30.27253 0 -20.27253
v -30.27253 0 5
v -55.54506 0 -20.27253
v -55.54506 0 5
v -30.27253 0 5
v -30.27253 0 30.27253
v -55.54506 0 5
v -55.54506 0 30.27253
v -30.27253 0 30.27253
v -30.27253 0 55.54506
v -55.54506 0 30.27253
v -55.54506 0 55.54506
vt 5.789764 5.789764
vt 5.789764 5.394881
vt 5.394881 5.789764
vt 5.394881 5.394881
vt 5.789764 5.394881
vt 5.789764 4.999998
vt 5.394881 5.394881
vt 5.394881 4.999998
vt 5.789764 4.999998
vt 5.789764 4.605115
vt 5.394881 4.999998
vt 5.394881 4.605115
vt 5.789764 4.605115
vt 5.789764 4.210232
vt 5.394881 4.605115
vt 5.394881 4.210232
vt 5.394881 5.789764
vt 5.394881 5.394881
vt 4.999998 5.789764
vt 4.999998 5.394881
vt 5.394881 5.394881
vt 5.394881 4.999998
vt 4.999998 5.394881
vt 4.999998 4.999998
vt 5.394881 4.999998
vt 5.394881 4.605115
vt 4.999998 4.999998
vt 4.999998 4.605115
vt 5.394881 4.605115
vt 5.394881 4.210232
vt 4.999998 4.605115
vt 4.999998 4.210232
vt 4.999998 5.789764
vt 4.999998 5.394881
vt 4.605115 5.789764
vt 4.605115 5.394881
vt 4.999998 5.394881
vt 4.999998 4.999998
vt 4.605115 5.394881
vt 4.605115 4.999998
vt 4.999998 4.999998
vt 4.999998 4.605115
vt 4.605115 4.999998
vt 4.605115 4.605115
vt 4.999998 4.605115
vt 4.999998 4.210232
vt 4.605115 4.605115
vt 4.605115 4.210232
vt 4.605115 5.789764
vt 4.605115 5.394881
vt 4.210232 5.789764
vt 4.210232 5.394881
vt 4.605115 5.394881
vt 4.605115 4.999998
vt 4.210232 5.394881
vt 4.210232 4.999998
vt 4.605115 4.999998
vt 4.605115 4.605115
vt 4.210232 4.999998
vt 4.210232 4.605115
vt 4.605115 4.605115
vt 4.605115 4.210232
vt 4.210232 4.605115
vt 4.210232 4.210232
vn 0 1 0
vn 0 1 0
vn 0 1 0
vn 0 1 0
vn 0 1 0
vn 0 1 0
vn 0 1 0
vn 0 1 0
vn 0 1 0
vn 0 1 0
vn 0 1 0
vn 0 1 0
vn 0 1 0
vn 0 1 0
vn 0 1 0
vn 0 1 0
vn 0 1 0
vn 0 1 0
vn 0 1 0
vn 0 1 0
vn 0 1 0
vn 0 1 0
vn 0 1 0
vn 0 1 0
vn 0 1 0
vn 0 1 0
vn 0 1 0
vn 0 1 0
vn 0 1 0
vn 0 1 0
vn 0 1 0
vn 0 1 0
vn 0 1 0
vn 0 1 0
vn 0 1 0
vn 0 1 0
vn 0 1 0
vn 0 1 0
vn 0 1 0
vn 0 1 0
vn 0 1 0
vn 0 1 0
vn 0 1 0
vn 0 1 0
vn 0 1 0
vn 0 1 0
vn 0 1 0
vn 0 1 0
vn 0 1 0
vn 0 1 0
vn 0 1 0
vn 0 1 0
vn 0 1 0
vn 0 1 0
vn 0 1 0
vn 0 1 0
vn 0 1 0
vn 0 1 0
vn 0 1 0
vn 0 1 0
vn 0 1 0
vn 0 1 0
vn 0 1 0
vn 0 1 0
g pb_Mesh324812_0
g pb_Mesh324812_1
f 3/3/3 2/2/2 1/1/1
f 3/3/3 4/4/4 2/2/2
f 7/7/7 6/6/6 5/5/5
f 7/7/7 8/8/8 6/6/6
f 11/11/11 10/10/10 9/9/9
f 11/11/11 12/12/12 10/10/10
f 15/15/15 14/14/14 13/13/13
f 15/15/15 16/16/16 14/14/14
f 19/19/19 18/18/18 17/17/17
f 19/19/19 20/20/20 18/18/18
f 23/23/23 22/22/22 21/21/21
f 23/23/23 24/24/24 22/22/22
f 27/27/27 26/26/26 25/25/25
f 27/27/27 28/28/28 26/26/26
f 31/31/31 30/30/30 29/29/29
f 31/31/31 32/32/32 30/30/30
f 35/35/35 34/34/34 33/33/33
f 35/35/35 36/36/36 34/34/34
f 39/39/39 38/38/38 37/37/37
f 39/39/39 40/40/40 38/38/38
f 43/43/43 42/42/42 41/41/41
f 43/43/43 44/44/44 42/42/42
f 47/47/47 46/46/46 45/45/45
f 47/47/47 48/48/48 46/46/46
f 51/51/51 50/50/50 49/49/49
f 51/51/51 52/52/52 50/50/50
f 55/55/55 54/54/54 53/53/53
f 55/55/55 56/56/56 54/54/54
f 59/59/59 58/58/58 57/57/57
f 59/59/59 60/60/60 58/58/58
f 63/63/63 62/62/62 61/61/61
f 63/63/63 64/64/64 62/62/62
