g pb_Mesh281966
v 5 0 0
v -2 7.43866E-05 0
v 5 2 0
v -2 2.00005 0
v -2 4.959106E-05 -2
v 5 0 -2
v -2 2.00005 -2
v 5 2 -2
v 5 0 -2
v 5 0 0
v 5 2 -2
v 5 2 0
v 5 2 0
v -2 2.00005 0
v 5 2 -2
v -2 2.00005 -2
v 5 0 -2
v -2 4.959106E-05 -2
v 5 0 0
v -2 7.43866E-05 0
v -4.000099 4.959106E-05 0
v -4.000099 0 -2
v -2 2 10.2
v -2 0 10.2
v -4 2 10.2
v -4 0 10.2
v -2 2.00005 0
v -2 7.43866E-05 0
v -2 2 6.2
v -2 0 6.2
v -4.000099 2 0
v -2 2.00005 0
v -4 2 6.2
v -2 2 6.2
v -2 0 6.2
v -4 0 6.2
v -4.000099 4.959106E-05 0
v -4.000099 2 0
v -4 0 6.2
v -4 2 6.2
v -4.000099 4.959106E-05 0
v -2 2.00005 0
v -4.000099 2 0
v -2 7.43866E-05 0
v -2 7.43866E-05 0
v -2 2.00005 -2
v -2 2.00005 0
v -2 4.959106E-05 -2
v -2 2 10.2
v -2 0 10.2
v -4 2 6.2
v -2 2 6.2
v -4 2 10.2
v -2 2 10.2
v -2 0 10.2
v -4 0 10.2
v -4 0 10.2
v -4 2 10.2
vt 5 0
vt -2 7.43866E-05
vt 5 2
vt -2 2.00005
vt 2 4.959106E-05
vt -5 0
vt 2 2.00005
vt -5 2
vt 2 0
vt 0 0
vt 2 2
vt 0 2
vt -4.999986 0
vt 2.000014 0
vt -4.999986 -2
vt 2.000014 -2
vt 5 -2
vt -2 -2
vt 5 0
vt -2 0
vt -4.000099 1.229622E-09
vt -4.000099 -2
vt -2 2
vt -2 0
vt -4 2
vt -4 0
vt 0 2.00005
vt 0 7.43866E-05
vt -6.2 2
vt -6.2 0
vt 4.00005 -7.933141E-10
vt 1.99995 -7.933141E-10
vt 3.99995 6.2
vt 1.99995 6.2
vt -2 6.2
vt -4 6.2
vt -6.399005E-05 4.959106E-05
vt -6.399005E-05 2
vt 6.199936 0
vt 6.199936 2
vt 4.000099 4.959106E-05
vt 2 2.00005
vt 4.000099 2
vt 2 7.43866E-05
vt 0 7.43866E-05
vt -2 2.00005
vt 0 2.00005
vt -2 4.959106E-05
vt -10.2 2
vt -10.2 0
vt 4 6.2
vt 2 6.2
vt 4 10.2
vt 2 10.2
vt -2 10.2
vt -4 10.2
vt 10.2 0
vt 10.2 2
vn 0 0 1
vn 0 0 1
vn 0 0 1
vn 0 0 1
vn 0 0 -1
vn 0 0 -1
vn 0 0 -1
vn 0 0 -1
vn 1 0 0
vn 1 0 0
vn 1 0 0
vn 1 0 0
vn 7.084438E-06 1 0
vn 7.084438E-06 1 0
vn 7.084438E-06 1 0
vn 7.084438E-06 1 0
vn -7.084438E-06 -1 0
vn -8.855547E-06 -1 6.198883E-06
vn -8.855547E-06 -1 6.198883E-06
vn -1.062666E-05 -1 1.239777E-05
vn 1.859573E-05 -1 1.859665E-05
vn 2.47943E-05 -1 2.479553E-05
vn 0 0 1
vn 0 0 1
vn 0 0 1
vn 0 0 1
vn 1 0 0
vn 1 0 0
vn 1 0 0
vn 1 0 0
vn -2.47943E-05 1 3.966374E-10
vn -1.239715E-05 1 3.999478E-06
vn -1.239715E-05 1 3.999478E-06
vn 0 1 7.998559E-06
vn 6.198576E-06 -1 -9.998199E-06
vn 0 -1 -7.998559E-06
vn -1 0 1.599712E-05
vn -1 0 1.599712E-05
vn -1 0 1.599712E-05
vn -1 0 1.599712E-05
vn 0 0 -1
vn 0 0 -1
vn 0 0 -1
vn 0 0 -1
vn -1 0 0
vn -1 0 0
vn -1 0 0
vn -1 0 0
vn 1 0 0
vn 1 0 0
vn 0 1 0
vn 0 1 0
vn 0 1 0
vn 0 1 0
vn 0 -1 0
vn 0 -1 0
vn -1 0 0
vn -1 0 0
g pb_Mesh281966_0
g pb_Mesh281966_1
f 3/3/3 2/2/2 1/1/1
f 3/3/3 4/4/4 2/2/2
f 7/7/7 6/6/6 5/5/5
f 7/7/7 8/8/8 6/6/6
f 11/11/11 10/10/10 9/9/9
f 11/11/11 12/12/12 10/10/10
f 15/15/15 14/14/14 13/13/13
f 15/15/15 16/16/16 14/14/14
f 19/19/19 18/18/18 17/17/17
f 19/19/19 20/20/20 18/18/18
f 21/21/21 18/18/18 20/20/20
f 21/21/21 22/22/22 18/18/18
f 25/25/25 24/24/24 23/23/23
f 25/25/25 26/26/26 24/24/24
f 29/29/29 28/28/28 27/27/27
f 29/29/29 30/30/30 28/28/28
f 33/33/33 32/32/32 31/31/31
f 33/33/33 34/34/34 32/32/32
f 35/35/35 21/21/21 20/20/20
f 35/35/35 36/36/36 21/21/21
f 39/39/39 38/38/38 37/37/37
f 39/39/39 40/40/40 38/38/38
f 43/43/43 42/42/42 41/41/41
f 42/42/42 44/44/44 41/41/41
f 47/47/47 46/46/46 45/45/45
f 46/46/46 48/48/48 45/45/45
f 49/49/49 30/30/30 29/29/29
f 49/49/49 50/50/50 30/30/30
f 53/53/53 52/52/52 51/51/51
f 53/53/53 54/54/54 52/52/52
f 55/55/55 36/36/36 35/35/35
f 55/55/55 56/56/56 36/36/36
f 57/57/57 40/40/40 39/39/39
f 57/57/57 58/58/58 40/40/40
