g pb_Mesh385946
v 0 4 2
v -4 4 6
v 0 4 -4
v -4 4 -8
v 0 -19 -4
v -4 -19 -8
v 0 -19 2
v -4 -19 6
v 0 -19 2
v -4 -19 6
v -4 1 6
v 0 1 2
v -4 4 6
v 0 4 2
v -4 -19 6
v -4 -19 -8
v -4 1 -8
v -4 1 6
v -4 4 -8
v -4 4 6
v -4 1 -8
v 0 -19 -4
v 0 1 -4
v -4 -19 -8
v -4 4 -8
v 0 4 -4
v 0 1 -4
v 0 -19 2
v 0 1 2
v 0 -19 -4
v 0 4 -4
v 0 4 2
vt 0 2
vt 4 6
vt 0 -4
vt 4 -8
vt 0 -4
vt -4 -8
vt 0 2
vt -4 6
vt -1.414214 -19
vt -7.071068 -19
vt -7.071068 1
vt -1.414214 1
vt -7.071068 4
vt -1.414214 4
vt 6 -19
vt -8 -19
vt -8 1
vt 6 1
vt -8 4
vt 6 4
vt 8.485281 1
vt 2.828427 -19
vt 2.828427 1
vt 8.485281 -19
vt 8.485281 4
vt 2.828427 4
vt 4 1
vt -2 -19
vt -2 1
vt 4 -19
vt 4 4
vt -2 4
vn 0 1 0
vn 0 1 0
vn 0 1 0
vn 0 1 0
vn 0 -1 0
vn 0 -1 0
vn 0 -1 0
vn 0 -1 0
vn 0.7071068 0 0.7071068
vn 0.7071068 0 0.7071068
vn 0.7071068 0 0.7071068
vn 0.7071068 0 0.7071068
vn 0.7071068 0 0.7071068
vn 0.7071068 0 0.7071068
vn -1 0 0
vn -1 0 0
vn -1 0 0
vn -1 0 0
vn -1 0 0
vn -1 0 0
vn 0.7071068 0 -0.7071068
vn 0.7071068 0 -0.7071068
vn 0.7071068 0 -0.7071068
vn 0.7071068 0 -0.7071068
vn 0.7071068 0 -0.7071068
vn 0.7071068 0 -0.7071068
vn 1 0 0
vn 1 0 0
vn 1 0 0
vn 1 0 0
vn 1 0 0
vn 1 0 0
g pb_Mesh385946_0
f 3/3/3 2/2/2 1/1/1
f 3/3/3 4/4/4 2/2/2
f 7/7/7 6/6/6 5/5/5
f 7/7/7 8/8/8 6/6/6
f 11/11/11 10/10/10 9/9/9
f 11/11/11 9/9/9 12/12/12
f 13/13/13 11/11/11 12/12/12
f 13/13/13 12/12/12 14/14/14
f 17/17/17 16/16/16 15/15/15
f 17/17/17 15/15/15 18/18/18
f 19/19/19 17/17/17 18/18/18
f 19/19/19 18/18/18 20/20/20
f 23/23/23 22/22/22 21/21/21
f 22/22/22 24/24/24 21/21/21
f 26/26/26 23/23/23 25/25/25
f 23/23/23 21/21/21 25/25/25
f 29/29/29 28/28/28 27/27/27
f 28/28/28 30/30/30 27/27/27
f 32/32/32 29/29/29 31/31/31
f 29/29/29 27/27/27 31/31/31
