g pb_Mesh150208
v 0 0 0
v 2 0 0
v 0 0.25 0
v 2 0.25 0
v 0 0.25 0
v 2 0.25 0
v 0 0.25 0.5
v 2 0.25 0.5
v 0 0.25 0.5
v 2 0.25 0.5
v 0 0.5 0.5
v 2 0.5 0.5
v 0 0.5 0.5
v 2 0.5 0.5
v 0 0.5 1
v 2 0.5 1
v 0 0.5 1
v 2 0.5 1
v 0 0.75 1
v 2 0.75 1
v 0 0.75 1
v 2 0.75 1
v 0 0.75 1.5
v 2 0.75 1.5
v 0 0.75 1.5
v 2 0.75 1.5
v 0 1 1.5
v 2 1 1.5
v 0 1 1.5
v 2 1 1.5
v 0 1 2
v 2 1 2
v 2 0 0
v 2 0 0.5
v 2 0.25 0
v 2 0.25 0.5
v 2 0 1
v 2 0.5 1
v 2 0.5 0.5
v 2 0 1.5
v 2 0.75 1.5
v 2 0.75 1
v 2 0 2
v 2 1 2
v 2 1 1.5
v 0 0.25 0
v 0 0 0.5
v 0 0 0
v 0 0.25 0.5
v 0 0 1
v 0 0.5 1
v 0 0.5 0.5
v 0 0 1.5
v 0 0.75 1.5
v 0 0.75 1
v 0 0 2
v 0 1 2
v 0 1 1.5
v 2.000006 0.004999876 2.5001
v 5.618022E-06 0.004999876 2.500101
v 2.000006 1.005 2.5001
v 5.618022E-06 1.005 2.500101
v 2.000006 1.005 2.5001
v 2.000006 0.004999876 2.5001
v 5.618022E-06 0.004999876 2.500101
v 5.618022E-06 1.005 2.500101
v 0 1 2
v 2 1 2
v 5.618022E-06 1.005 2.500101
v 2.000006 1.005 2.5001
v 2.000102 -4.2475 1.499947
v 2.000096 -4.2475 1.999947
v 2.000105 -4.2425 2.500047
vt 0 0
vt -2 0
vt 0 0.25
vt -2 0.25
vt 0 0
vt -2 0
vt 0 0.5
vt -2 0.5
vt 0 0.25
vt -2 0.25
vt 0 0.5
vt -2 0.5
vt 0 0.5
vt -2 0.5
vt 0 1
vt -2 1
vt 0 0.5
vt -2 0.5
vt 0 0.75
vt -2 0.75
vt 0 1
vt -2 1
vt 0 1.5
vt -2 1.5
vt 0 0.75
vt -2 0.75
vt 0 1
vt -2 1
vt 0 1.5
vt -2 1.5
vt 0 2
vt -2 2
vt 0 0
vt -0.5 0
vt 0 0.25
vt -0.5 0.25
vt -1 0
vt -1 0.5
vt -0.5 0.5
vt -1.5 0
vt -1.5 0.75
vt -1 0.75
vt -2 0
vt -2 1
vt -1.5 1
vt 0 0.25
vt 0.5 0
vt 0 0
vt 0.5 0.25
vt 1 0
vt 1 0.5
vt 0.5 0.5
vt 1.5 0
vt 1.5 0.75
vt 1 0.75
vt 2 0
vt 2 1
vt 1.5 1
vt 2.000005 0.004999876
vt 5.319987E-06 0.004999876
vt 2.000005 1.005
vt 5.319987E-06 1.005
vt -2.500123 1.005
vt -2.500123 0.004999876
vt 2.500101 0.004999876
vt 2.500101 1.005
vt 0 2.009897
vt -2 2.009897
vt -5.618022E-06 2.510023
vt -2.000006 2.510023
vt -1.499947 -4.247549
vt -1.999947 -4.247549
vt -2.50007 -4.242545
vn 0 0 -1
vn 0 0 -1
vn 0 0 -1
vn 0 0 -1
vn 0 1 0
vn 0 1 0
vn 0 1 0
vn 0 1 0
vn 0 0 -1
vn 0 0 -1
vn 0 0 -1
vn 0 0 -1
vn 0 1 0
vn 0 1 0
vn 0 1 0
vn 0 1 0
vn 0 0 -1
vn 0 0 -1
vn 0 0 -1
vn 0 0 -1
vn 0 1 0
vn 0 1 0
vn 0 1 0
vn 0 1 0
vn 0 0 -1
vn 0 0 -1
vn 0 0 -1
vn 0 0 -1
vn 0 1 0
vn 0 1 0
vn 0 1 0
vn 0 1 0
vn 1 0 0
vn 1 0 0
vn 1 0 0
vn 1 0 0
vn 1 0 0
vn 1 0 0
vn 1 0 0
vn 1 0 0
vn 1 0 0
vn 1 0 0
vn 1 0 0
vn 1 0 0
vn 1 0 0
vn -1 0 0
vn -1 0 0
vn -1 0 0
vn -1 0 0
vn -1 0 0
vn -1 0 0
vn -1 0 0
vn -1 0 0
vn -1 0 0
vn -1 0 0
vn -1 0 0
vn -1 0 0
vn -1 0 0
vn 1.192093E-07 0 1
vn 1.192093E-07 0 1
vn 1.192093E-07 0 1
vn 1.192093E-07 0 1
vn 1 0 -1.14418E-05
vn 1 0 -1.14418E-05
vn -1 0 1.123378E-05
vn -1 0 1.123378E-05
vn 0 0.9999501 -0.009997241
vn -5.958822E-10 0.9999501 -0.009997243
vn -5.958822E-10 0.9999501 -0.009997243
vn -1.191764E-09 0.9999501 -0.009997246
vn 1 2.323836E-05 6.198883E-06
vn 1 2.250858E-05 1.239777E-05
vn 1 2.335094E-05 -1.882639E-05
g pb_Mesh150208_0
f 3/3/3 2/2/2 1/1/1
f 3/3/3 4/4/4 2/2/2
f 7/7/7 6/6/6 5/5/5
f 7/7/7 8/8/8 6/6/6
f 11/11/11 10/10/10 9/9/9
f 11/11/11 12/12/12 10/10/10
f 15/15/15 14/14/14 13/13/13
f 15/15/15 16/16/16 14/14/14
f 19/19/19 18/18/18 17/17/17
f 19/19/19 20/20/20 18/18/18
f 23/23/23 22/22/22 21/21/21
f 23/23/23 24/24/24 22/22/22
f 27/27/27 26/26/26 25/25/25
f 27/27/27 28/28/28 26/26/26
f 31/31/31 30/30/30 29/29/29
f 31/31/31 32/32/32 30/30/30
f 35/35/35 34/34/34 33/33/33
f 35/35/35 36/36/36 34/34/34
f 36/36/36 37/37/37 34/34/34
f 36/36/36 38/38/38 37/37/37
f 36/36/36 39/39/39 38/38/38
f 38/38/38 40/40/40 37/37/37
f 38/38/38 41/41/41 40/40/40
f 38/38/38 42/42/42 41/41/41
f 41/41/41 43/43/43 40/40/40
f 41/41/41 44/44/44 43/43/43
f 41/41/41 45/45/45 44/44/44
f 48/48/48 47/47/47 46/46/46
f 47/47/47 49/49/49 46/46/46
f 47/47/47 50/50/50 49/49/49
f 50/50/50 51/51/51 49/49/49
f 51/51/51 52/52/52 49/49/49
f 50/50/50 53/53/53 51/51/51
f 53/53/53 54/54/54 51/51/51
f 54/54/54 55/55/55 51/51/51
f 53/53/53 56/56/56 54/54/54
f 56/56/56 57/57/57 54/54/54
f 57/57/57 58/58/58 54/54/54
f 61/61/61 60/60/60 59/59/59
f 61/61/61 62/62/62 60/60/60
f 63/63/63 43/43/43 44/44/44
f 63/63/63 64/64/64 43/43/43
f 65/65/65 57/57/57 56/56/56
f 65/65/65 66/66/66 57/57/57
f 69/69/69 68/68/68 67/67/67
f 69/69/69 70/70/70 68/68/68
f 40/40/40 43/43/43 71/71/71
f 43/43/43 72/72/72 71/71/71
f 43/43/43 64/64/64 72/72/72
f 64/64/64 73/73/73 72/72/72
