g pb_Mesh239890
v -5.25 1 -3.5
v -5.25 1 -6
v -26 1 -6
v -26 1 0
v -5.25 1 0
v -5.25 2 -0.25
v -5.25 1 0
v -11.25 2 -0.25
v -19.6875 2 -0.25
v -26 1 0
v -26 2 -0.25
v -26 1 0
v -26 2 -1.75
v -26 2 -0.25
v -26 2 -3.5
v -26 1 -6
v -26 2 -4.75
v -26 2 -6
v -19.6875 2 -6
v -26 2 -6
v -26 1 -6
v -5.25 1 -6
v -11.25 2 -6
v -5.25 2 -6
v -11.25 2 -1.875
v -11.25 2 -3.5
v -5.25 2 -3.5
v -5.25 2 -0.25
v -11.25 2 -0.25
v -26 2 -3.5
v -19.6875 2 -3.5
v -19.6875 2 -1.875
v -26 2 -1.75
v -19.6875 2 -0.25
v -26 2 -0.25
v -26 2 -6
v -19.6875 2 -6
v -19.6875 2 -4.75
v -26 2 -4.75
v -11.25 2 -6
v -11.25 2 -4.75
v -5.25 2 -6
v -5.25 2 -3.5
v -5.25 2 -6
v -5.25 1 -6
v -5.25 1 -3.5
v -3 2 -2.25
v -3 1 -3.5
v -3 2 -0.25
v -3 1 0
v -4 2 -0.25
v -4 2 -3.5
v -3 2 -0.25
v -3 2 -2.25
v -4.25 1 -3.5
v -4.25 1 0
v -4.25 1 0
v -4.25 2 -0.25
v -4 2 -3.5
v -3 1 -3.5
v -3 2 -2.25
v -5.25 2 -3.5
v -5.25 1 -3.5
v -4.25 1 -3.5
v -3 1 -3.5
v -3 1 0
v -4 2 -3.5
v -3 1 -3.5
v -3 1 0
v -3 2 -0.25
vt -5.25 -3.5
vt -5.25 -6
vt -26 -6
vt -26 0
vt -5.25 0
vt -5.25 2.000919
vt -5.25 0.9701425
vt -11.25 2.000919
vt -19.6875 2.000919
vt -26 0.9701425
vt -26 2.000919
vt 0 1
vt -1.75 2
vt -0.25 2
vt -3.5 2
vt -6 1
vt -4.75 2
vt -6 2
vt 19.6875 2
vt 26 2
vt 26 1
vt 5.25 1
vt 11.25 2
vt 5.25 2
vt 11.25 -1.875
vt 11.25 -3.5
vt 5.25 -3.5
vt 5.25 -0.25
vt 11.25 -0.25
vt 26 -3.5
vt 19.6875 -3.5
vt 19.6875 -1.875
vt 26 -1.75
vt 19.6875 -0.25
vt 26 -0.25
vt 26 -6
vt 19.6875 -6
vt 19.6875 -4.75
vt 26 -4.75
vt 11.25 -6
vt 11.25 -4.75
vt 5.25 -6
vt 3.5 2
vt 6 2
vt 6 1
vt 3.5 1
vt 2.25 2
vt 3.5 1
vt 0.25 2
vt 0 1
vt 4 -0.25
vt 4 -3.5
vt 3 -0.25
vt 3 -2.25
vt -4.25 -3.5
vt -4.25 0
vt -4.25 0.9701425
vt -4.25 2.000919
vt 4.24264 -3.74267
vt 2.828427 -3.74267
vt 3.535534 -2.306529
vt 5.25 2
vt 5.25 1
vt 4.25 1
vt -3 -3.5
vt -3 0
vt 4 2
vt 3 1
vt -3 0.9701425
vt -3 2.000919
vn 0 -1 0
vn 0 -1 0
vn 0 -1 0
vn 0 -1 0
vn 0 -1 0
vn 0 0.2425356 0.9701425
vn 0 0.2425356 0.9701425
vn 0 0.2425356 0.9701425
vn 0 0.2425356 0.9701425
vn 0 0.2425356 0.9701425
vn 0 0.2425356 0.9701425
vn -1 0 0
vn -1 0 0
vn -1 0 0
vn -1 0 0
vn -1 0 0
vn -1 0 0
vn -1 0 0
vn 0 0 -1
vn 0 0 -1
vn 0 0 -1
vn 0 0 -1
vn 0 0 -1
vn 0 0 -1
vn 0 1 0
vn 0 1 0
vn 0 1 0
vn 0 1 0
vn 0 1 0
vn 0 1 0
vn 0 1 0
vn 0 1 0
vn 0 1 0
vn 0 1 0
vn 0 1 0
vn 0 1 0
vn 0 1 0
vn 0 1 0
vn 0 1 0
vn 0 1 0
vn 0 1 0
vn 0 1 0
vn 1 0 0
vn 1 0 0
vn 1 0 0
vn 1 0 0
vn 1 0 0
vn 1 0 0
vn 1 0 0
vn 1 0 0
vn 0 1 0
vn 0 1 0
vn 0 1 0
vn 0 1 0
vn 0 -1 0
vn 0 -1 0
vn 0 0.2425356 0.9701425
vn 0 0.2425356 0.9701425
vn 0.6154575 0.6154575 -0.492366
vn 0.6154575 0.6154575 -0.492366
vn 0.6154575 0.6154575 -0.492366
vn 0 0 -1
vn 0 0 -1
vn 0 0 -1
vn 0 -1 0
vn 0 -1 0
vn 0 0 -1
vn 0 0 -1
vn 0 0.2425356 0.9701425
vn 0 0.2425356 0.9701425
g pb_Mesh239890_0
f 3/3/3 2/2/2 1/1/1
f 4/4/4 3/3/3 1/1/1
f 4/4/4 1/1/1 5/5/5
f 8/8/8 7/7/7 6/6/6
f 8/8/8 9/9/9 7/7/7
f 7/7/7 9/9/9 10/10/10
f 9/9/9 11/11/11 10/10/10
f 14/14/14 13/13/13 12/12/12
f 13/13/13 15/15/15 12/12/12
f 12/12/12 15/15/15 16/16/16
f 16/16/16 15/15/15 17/17/17
f 17/17/17 18/18/18 16/16/16
f 21/21/21 20/20/20 19/19/19
f 21/21/21 19/19/19 22/22/22
f 22/22/22 19/19/19 23/23/23
f 24/24/24 22/22/22 23/23/23
f 27/27/27 26/26/26 25/25/25
f 28/28/28 27/27/27 25/25/25
f 28/28/28 25/25/25 29/29/29
f 32/32/32 31/31/31 30/30/30
f 32/32/32 30/30/30 33/33/33
f 25/25/25 26/26/26 31/31/31
f 25/25/25 31/31/31 32/32/32
f 29/29/29 25/25/25 32/32/32
f 29/29/29 32/32/32 34/34/34
f 34/34/34 32/32/32 33/33/33
f 34/34/34 33/33/33 35/35/35
f 38/38/38 37/37/37 36/36/36
f 38/38/38 36/36/36 39/39/39
f 41/41/41 40/40/40 37/37/37
f 41/41/41 37/37/37 38/38/38
f 26/26/26 41/41/41 38/38/38
f 26/26/26 38/38/38 31/31/31
f 31/31/31 38/38/38 39/39/39
f 31/31/31 39/39/39 30/30/30
f 42/42/42 40/40/40 41/41/41
f 27/27/27 42/42/42 41/41/41
f 27/27/27 41/41/41 26/26/26
f 45/45/45 44/44/44 43/43/43
f 45/45/45 43/43/43 46/46/46
f 49/49/49 48/48/48 47/47/47
f 50/50/50 48/48/48 49/49/49
f 53/53/53 52/52/52 51/51/51
f 53/53/53 54/54/54 52/52/52
f 55/55/55 5/5/5 1/1/1
f 55/55/55 56/56/56 5/5/5
f 57/57/57 6/6/6 7/7/7
f 57/57/57 58/58/58 6/6/6
f 61/61/61 60/60/60 59/59/59
f 64/64/64 63/63/63 62/62/62
f 51/51/51 27/27/27 28/28/28
f 51/51/51 52/52/52 27/27/27
f 65/65/65 56/56/56 55/55/55
f 65/65/65 66/66/66 56/56/56
f 67/67/67 64/64/64 62/62/62
f 67/67/67 68/68/68 64/64/64
f 69/69/69 58/58/58 57/57/57
f 69/69/69 70/70/70 58/58/58
g pb_Mesh239890_1
