g pb_Mesh113138
v 11 2 0
v 15 2 0
v 15 0 0
v 11 0 0
v 17 2 0
v 17 2 -2
v 17 0 -2
v 17 0 0
v 15 2 -2
v 11 2 -2
v 11 0 -2
v 15 0 -2
v 11 2 -2
v 11 2 0
v 11 0 0
v 11 0 -2
v 11 2 -2
v 15 2 -2
v 15 2 0
v 11 2 0
v 11 0 0
v 15 0 0
v 15 0 -2
v 11 0 -2
v 17 0 0
v 17 0 -2
v 17 2 9.0001
v 17 0 9.0001
v 15 0 9.0001
v 15 2 9.0001
v 17 0 -2
v 17 2 -2
v 17 2 -2
v 17 2 0
v 15 2 9.0001
v 15 0 9.0001
v 15 0 0
v 15 2 0
v 17 2 9.0001
v 15 2 9.0001
v 15 0 9.0001
v 17 0 9.0001
v 17 0 9.0001
v 17 2 9.0001
vt 11 2
vt 15 2
vt 15 0
vt 11 0
vt 0 2
vt 2 2
vt 2 0
vt 0 0
vt -15 2
vt -11 2
vt -11 0
vt -15 0
vt -2 2
vt 0 2
vt 0 0
vt -2 0
vt -11 -2
vt -15 -2
vt -15 0
vt -11 0
vt 11 0
vt 15 0
vt 15 -2
vt 11 -2
vt 17 0
vt 17 -2
vt 17 2
vt 17 0
vt 15 0
vt 15 2
vt -17 0
vt -17 2
vt -17 -2
vt -17 0
vt 9.0001 2
vt 9.0001 0
vt 0 0
vt 0 2
vt -17 9.0001
vt -15 9.0001
vt 15 9.0001
vt 17 9.0001
vt -9.0001 0
vt -9.0001 2
vn 0 0 1
vn 0 0 1
vn 0 0 1
vn 0 0 1
vn 1 0 0
vn 1 0 0
vn 1 0 0
vn 1 0 0
vn 0 0 -1
vn 0 0 -1
vn 0 0 -1
vn 0 0 -1
vn -1 0 0
vn -1 0 0
vn -1 0 0
vn -1 0 0
vn 0 1 0
vn 0 1 0
vn 0 1 0
vn 0 1 0
vn 0 -1 0
vn 0 -1 0
vn 0 -1 0
vn 0 -1 0
vn 0 -1 0
vn 0 -1 0
vn 0 0 1
vn 0 0 1
vn 0 0 1
vn 0 0 1
vn 0 0 -1
vn 0 0 -1
vn 0 1 0
vn 0 1 0
vn -1 0 0
vn -1 0 0
vn -1 0 0
vn -1 0 0
vn 0 1 0
vn 0 1 0
vn 0 -1 0
vn 0 -1 0
vn 1 0 0
vn 1 0 0
g pb_Mesh113138_0
g pb_Mesh113138_1
f 3/3/3 2/2/2 1/1/1
f 4/4/4 3/3/3 1/1/1
f 7/7/7 6/6/6 5/5/5
f 8/8/8 7/7/7 5/5/5
f 11/11/11 10/10/10 9/9/9
f 12/12/12 11/11/11 9/9/9
f 15/15/15 14/14/14 13/13/13
f 16/16/16 15/15/15 13/13/13
f 19/19/19 18/18/18 17/17/17
f 20/20/20 19/19/19 17/17/17
f 23/23/23 22/22/22 21/21/21
f 24/24/24 23/23/23 21/21/21
f 23/23/23 26/26/26 25/25/25
f 22/22/22 23/23/23 25/25/25
f 29/29/29 28/28/28 27/27/27
f 30/30/30 29/29/29 27/27/27
f 9/9/9 32/32/32 31/31/31
f 12/12/12 9/9/9 31/31/31
f 19/19/19 34/34/34 33/33/33
f 18/18/18 19/19/19 33/33/33
f 37/37/37 36/36/36 35/35/35
f 38/38/38 37/37/37 35/35/35
f 19/19/19 40/40/40 39/39/39
f 34/34/34 19/19/19 39/39/39
f 25/25/25 42/42/42 41/41/41
f 22/22/22 25/25/25 41/41/41
f 5/5/5 44/44/44 43/43/43
f 8/8/8 5/5/5 43/43/43
