g pb_Mesh-3583008
v 0.75 0 2
v -0.75 0 2
v 0.75 7.75 2
v -0.75 7.75 2
v -1 0 1.75
v -1 0 -1.75
v -1 7.75 1.75
v -1 7.75 -1.75
v -0.75 0 -2
v 0.75 0 -2
v -0.75 7.75 -2
v 0.75 7.75 -2
v 1 0 -1.75
v 1 0 1.75
v 1 7.75 -1.75
v 1 7.75 1.75
v 0.75 8 1.75
v -0.75 8 1.75
v 0.75 8 -1.75
v -0.75 8 -1.75
v 1 7.75 1.75
v 0.75 0 2
v 0.75 7.75 2
v 1 0 1.75
v 1 0 -1.75
v 0.75 7.75 -2
v 0.75 0 -2
v 1 7.75 -1.75
v -0.75 0 -2
v -1 7.75 -1.75
v -1 0 -1.75
v -0.75 7.75 -2
v -1 0 1.75
v -0.75 7.75 2
v -0.75 0 2
v -1 7.75 1.75
v -0.75 8 1.75
v 0.75 7.75 2
v -0.75 7.75 2
v 0.75 8 1.75
v 0.75 8 1.75
v 1 7.75 -1.75
v 1 7.75 1.75
v 0.75 8 -1.75
v 0.75 8 -1.75
v -0.75 7.75 -2
v 0.75 7.75 -2
v -0.75 8 -1.75
v -0.75 8 -1.75
v -1 7.75 1.75
v -1 7.75 -1.75
v -0.75 8 1.75
v 0.75 0 2
v 1 0 1.75
v -1 0 1.75
v -1 0 -1.75
v 1 0 -1.75
v 0.75 0 -2
v -0.75 0 -2
v -0.75 0 2
v 0.75 8 1.75
v 1 7.75 1.75
v 0.75 7.75 2
v 0.75 7.75 -2
v 1 7.75 -1.75
v 0.75 8 -1.75
v -1 7.75 -1.75
v -0.75 7.75 -2
v -0.75 8 -1.75
v -0.75 7.75 2
v -1 7.75 1.75
v -0.75 8 1.75
vt -0.25 0
vt -1.75 0
vt -0.25 7.75
vt -1.75 7.75
vt -0.25 0
vt -3.75 0
vt -0.25 7.75
vt -3.75 7.75
vt 1.75 0
vt 0.25 0
vt 1.75 7.75
vt 0.25 7.75
vt 3.75 0
vt 0.25 0
vt 3.75 7.75
vt 0.25 7.75
vt 0.25 -0.25
vt 1.75 -0.25
vt 0.25 -3.75
vt 1.75 -3.75
vt -0.5303301 7.75
vt -0.8838835 0
vt -0.8838835 7.75
vt -0.5303301 0
vt 0.5303301 0
vt 0.8838835 7.75
vt 0.8838835 0
vt 0.5303301 7.75
vt -0.8838835 0
vt -0.5303301 7.75
vt -0.5303301 0
vt -0.8838835 7.75
vt 0.5303301 0
vt 0.8838835 7.75
vt 0.8838835 0
vt 0.5303301 7.75
vt -0.75 4.419417
vt 0.75 4.065864
vt -0.75 4.065864
vt 0.75 4.419417
vt 5.126524 1.75
vt 4.772971 -1.75
vt 4.772971 1.75
vt 5.126524 -1.75
vt -0.75 4.419417
vt 0.75 4.065864
vt -0.75 4.065864
vt 0.75 4.419417
vt -5.126524 -1.75
vt -4.772971 1.75
vt -4.772971 -1.75
vt -5.126524 1.75
vt 0.75 2
vt 1 1.75
vt -1 1.75
vt -1 -1.75
vt 1 -1.75
vt 0.75 -2
vt -0.75 -2
vt -0.75 2
vt -0.7071068 5.511352
vt -0.5303301 5.205165
vt -0.8838835 5.205165
vt 0.8838835 5.205165
vt 0.5303301 5.205165
vt 0.7071068 5.511352
vt -0.5303301 5.205165
vt -0.8838835 5.205165
vt -0.7071068 5.511352
vt 0.8838835 5.205165
vt 0.5303301 5.205165
vt 0.7071068 5.511352
vn 0 0 1
vn 0 0 1
vn 0 0 1
vn 0 0 1
vn -1 0 0
vn -1 0 0
vn -1 0 0
vn -1 0 0
vn 0 0 -1
vn 0 0 -1
vn 0 0 -1
vn 0 0 -1
vn 1 0 0
vn 1 0 0
vn 1 0 0
vn 1 0 0
vn 0 1 0
vn 0 1 0
vn 0 1 0
vn 0 1 0
vn 0.7071068 0 0.7071068
vn 0.7071068 0 0.7071068
vn 0.7071068 0 0.7071068
vn 0.7071068 0 0.7071068
vn 0.7071068 0 -0.7071068
vn 0.7071068 0 -0.7071068
vn 0.7071068 0 -0.7071068
vn 0.7071068 0 -0.7071068
vn -0.7071068 0 -0.7071068
vn -0.7071068 0 -0.7071068
vn -0.7071068 0 -0.7071068
vn -0.7071068 0 -0.7071068
vn -0.7071068 0 0.7071068
vn -0.7071068 0 0.7071068
vn -0.7071068 0 0.7071068
vn -0.7071068 0 0.7071068
vn 0 0.7071068 0.7071068
vn 0 0.7071068 0.7071068
vn 0 0.7071068 0.7071068
vn 0 0.7071068 0.7071068
vn 0.7071068 0.7071068 0
vn 0.7071068 0.7071068 0
vn 0.7071068 0.7071068 0
vn 0.7071068 0.7071068 0
vn 0 0.7071068 -0.7071068
vn 0 0.7071068 -0.7071068
vn 0 0.7071068 -0.7071068
vn 0 0.7071068 -0.7071068
vn -0.7071068 0.7071068 0
vn -0.7071068 0.7071068 0
vn -0.7071068 0.7071068 0
vn -0.7071068 0.7071068 0
vn 0 -1 0
vn 0 -1 0
vn 0 -1 0
vn 0 -1 0
vn 0 -1 0
vn 0 -1 0
vn 0 -1 0
vn 0 -1 0
vn 0.5773503 0.5773503 0.5773503
vn 0.5773503 0.5773503 0.5773503
vn 0.5773503 0.5773503 0.5773503
vn 0.5773503 0.5773503 -0.5773503
vn 0.5773503 0.5773503 -0.5773503
vn 0.5773503 0.5773503 -0.5773503
vn -0.5773503 0.5773503 -0.5773503
vn -0.5773503 0.5773503 -0.5773503
vn -0.5773503 0.5773503 -0.5773503
vn -0.5773503 0.5773503 0.5773503
vn -0.5773503 0.5773503 0.5773503
vn -0.5773503 0.5773503 0.5773503
g pb_Mesh-3583008_0
f 3/3/3 2/2/2 1/1/1
f 3/3/3 4/4/4 2/2/2
f 7/7/7 6/6/6 5/5/5
f 7/7/7 8/8/8 6/6/6
f 11/11/11 10/10/10 9/9/9
f 11/11/11 12/12/12 10/10/10
f 15/15/15 14/14/14 13/13/13
f 15/15/15 16/16/16 14/14/14
f 19/19/19 18/18/18 17/17/17
f 19/19/19 20/20/20 18/18/18
f 23/23/23 22/22/22 21/21/21
f 22/22/22 24/24/24 21/21/21
f 27/27/27 26/26/26 25/25/25
f 26/26/26 28/28/28 25/25/25
f 31/31/31 30/30/30 29/29/29
f 30/30/30 32/32/32 29/29/29
f 35/35/35 34/34/34 33/33/33
f 34/34/34 36/36/36 33/33/33
f 39/39/39 38/38/38 37/37/37
f 38/38/38 40/40/40 37/37/37
f 43/43/43 42/42/42 41/41/41
f 42/42/42 44/44/44 41/41/41
f 47/47/47 46/46/46 45/45/45
f 46/46/46 48/48/48 45/45/45
f 51/51/51 50/50/50 49/49/49
f 50/50/50 52/52/52 49/49/49
f 55/55/55 54/54/54 53/53/53
f 55/55/55 56/56/56 54/54/54
f 57/57/57 54/54/54 56/56/56
f 58/58/58 57/57/57 56/56/56
f 56/56/56 59/59/59 58/58/58
f 55/55/55 53/53/53 60/60/60
f 63/63/63 62/62/62 61/61/61
f 66/66/66 65/65/65 64/64/64
f 69/69/69 68/68/68 67/67/67
f 72/72/72 71/71/71 70/70/70
