g pb_Mesh2885826
v 30.4088 0 -26.63521
v 40.4088 0 -13.63521
v 16.4088 0 -26.63521
v 12.8176 0 -12.8176
v 25.63521 0 0
v 12.8176 0 0
v 30.4088 0 22.36479
v 12.8176 0 12.81761
v 0.4087982 0 -47.63521
v 0 0 -12.8176
v 0 0 0
v -12.5912 0 38.36479
v -7.591202 0 -25.63521
v -33.5912 0 -14.63521
v -18.36479 0 14.36479
v -32.36479 0 35.36479
vt -30.4088 -26.63521
vt -40.4088 -13.63521
vt -16.4088 -26.63521
vt -12.8176 -12.8176
vt -25.63521 0
vt -12.8176 0
vt -30.4088 22.36479
vt -12.8176 12.81761
vt -0.4087982 -47.63521
vt 0 -12.8176
vt 0 0
vt 12.5912 38.36479
vt 7.591202 -25.63521
vt 33.5912 -14.63521
vt 18.36479 14.36479
vt 32.36479 35.36479
vn 0 1 0
vn 0 1 0
vn 0 1 0
vn 0 1 0
vn 0 1 0
vn 0 1 0
vn 0 1 0
vn 0 1 0
vn 0 1 0
vn 0 1 0
vn 0 1 0
vn 0 1 0
vn 0 1 0
vn 0 1 0
vn 0 1 0
vn 0 1 0
g pb_Mesh2885826_0
f 3/3/3 2/2/2 1/1/1
f 3/3/3 4/4/4 2/2/2
f 4/4/4 5/5/5 2/2/2
f 4/4/4 6/6/6 5/5/5
f 6/6/6 7/7/7 5/5/5
f 6/6/6 8/8/8 7/7/7
f 9/9/9 4/4/4 3/3/3
f 9/9/9 10/10/10 4/4/4
f 10/10/10 6/6/6 4/4/4
f 10/10/10 11/11/11 6/6/6
f 11/11/11 8/8/8 6/6/6
f 11/11/11 12/12/12 8/8/8
f 13/13/13 10/10/10 9/9/9
f 13/13/13 14/14/14 10/10/10
f 14/14/14 11/11/11 10/10/10
f 14/14/14 15/15/15 11/11/11
f 15/15/15 12/12/12 11/11/11
f 15/15/15 16/16/16 12/12/12
