g pb_Mesh-874888
v 16.76471 -21.75 15.75
v 0 3 0
v 16.76471 -4.25 15.75
v 0 17.25 0
v 0 3 -4
v 16.76471 -21.75 10.75
v 0 17.25 -4
v 16.76471 -4.25 10.75
v 16.76471 -21.75 10.75
v 0 3 -4
v 16.76471 -21.75 15.75
v 0 3 0
v 0 17.25 0
v 0 3 0
v -0.5 19.75 -2
v 0 3 -4
v 0 17.25 -4
v 16.17647 -1.75 13.25
v 16.76471 -4.25 10.75
v 16.76471 -21.75 10.75
v 16.76471 -21.75 15.75
v 16.76471 -4.25 15.75
v -0.5 19.75 -2
v 16.17647 -1.75 13.25
v 0 17.25 0
v 16.76471 -4.25 15.75
v 0 17.25 -4
v 16.76471 -4.25 10.75
v -0.5 19.75 -2
v 16.17647 -1.75 13.25
vt -0.7071058 -29
vt -31.81981 -8
vt -0.7071058 -11
vt -31.81981 10
vt 34.64823 -8
vt 3.535533 -29
vt 34.64823 10
vt 3.535533 -11
vt 19.30044 -3.999999
vt -11.11337 -26
vt 19.30044 1.430511E-06
vt -11.11337 -22
vt -22 10
vt -22 -8
vt -24 10
vt -26 -8
vt -26 10
vt 1.999999 -11
vt 3.999999 -11
vt 3.999999 -29
vt -1.430511E-06 -29
vt -1.430511E-06 -11
vt 23.54193 -24
vt -6.871878 -1.999999
vt 23.54193 -22
vt -6.871878 1.430511E-06
vt 23.54193 -26
vt -6.871878 -3.999999
vt 23.54193 -24
vt -6.871878 -1.999999
vn -0.6847063 0 0.7288191
vn -0.6847063 0 0.7288191
vn -0.6847063 0 0.7288191
vn -0.6847063 0 0.7288191
vn 0.6605536 0 -0.7507789
vn 0.6605536 0 -0.7507789
vn 0.6605536 0 -0.7507789
vn 0.6605536 0 -0.7507789
vn -0.8279408 -0.5608156 0
vn -0.8279408 -0.5608156 0
vn -0.8279408 -0.5608156 0
vn -0.8279408 -0.5608156 0
vn -0.9701425 0 0.2425356
vn -0.9848486 -0.01491873 0.1212678
vn -0.9799466 -0.009945818 0
vn -0.9848486 -0.01491873 -0.1212678
vn -0.9701425 0 -0.2425356
vn 0.982134 0.009799694 0
vn 0.9734172 0 0.2290395
vn 0.9864925 0.01469954 0.1145198
vn 0.9864925 0.01469954 -0.1145198
vn 0.9734172 0 -0.2290395
vn 0.1202678 0.6347165 0.7633287
vn 0.21591 0.6711413 0.6987942
vn 0.21591 0.6711413 0.6987942
vn 0.3115523 0.7075661 0.6342597
vn 0.8408248 0.4305909 -0.3280324
vn 0.842387 0.447981 -0.2974135
vn 0.842387 0.447981 -0.2974135
vn 0.8439493 0.4653711 -0.2667946
g pb_Mesh-874888_0
f 3/3/3 2/2/2 1/1/1
f 3/3/3 4/4/4 2/2/2
f 7/7/7 6/6/6 5/5/5
f 7/7/7 8/8/8 6/6/6
f 11/11/11 10/10/10 9/9/9
f 11/11/11 12/12/12 10/10/10
f 15/15/15 14/14/14 13/13/13
f 14/14/14 15/15/15 16/16/16
f 15/15/15 17/17/17 16/16/16
f 20/20/20 19/19/19 18/18/18
f 20/20/20 18/18/18 21/21/21
f 22/22/22 21/21/21 18/18/18
f 25/25/25 24/24/24 23/23/23
f 26/26/26 24/24/24 25/25/25
f 29/29/29 28/28/28 27/27/27
f 30/30/30 28/28/28 29/29/29
