g pb_Mesh428668
v -6 0 -13
v 0 0 -13
v -6 2 -13
v 0 2 -13
v 0 2 0
v -6 2 0
v 0 2 -13
v -6 2 -13
v 2 0 -13
v 2 2 0
v 2 2 -13
v 2 0 0
v 2 2 0
v 2 2 -13
v 2 2 -13
v 2 0 -13
v 0 0 -13
v 0 0 0
v 2 0 -13
v 2 0 0
v 0 0 16
v 0 2 16
v 2 0 16
v 2 2 16
v 0 0 0
v 0 2 0
v 0 0 14
v 0 2 14
v 2 0 14
v 0 0 14
v 0 2 14
v 2 2 14
v 2 2 14
v 2 0 14
v 0 0 16
v 0 2 16
v 2 0 16
v 0 0 16
v 0 10 14
v 2 10 14
v 0 10 16
v 2 10 16
v 2 2 16
v 2 0 16
v 0 2 14
v 2 2 14
v 0 8 14
v 2 8 14
v 0 8 16
v 0 8 14
v 2 8 14
v 2 8 16
v 2 8 16
v 0 8 16
v 0 10 14
v 2 10 14
v -18 8 16
v -18 8 14
v -18 10 16
v -18 10 14
v 2 10 14
v 2 10 16
v 2 10 16
v 0 10 16
v 0 8 16
v 0 8 14
v -16 8 16
v -16 8 14
v -16 10 16
v -16 8 16
v -16 8 14
v -16 10 14
v -16 10 14
v -16 10 16
v -16 -1 16
v -16 -1 14
v -18 -1 16
v -18 -1 14
v -18 10 16
v -18 8 16
v -18 8 14
v -18 10 14
v -18 10 14
v -18 10 16
v -16 8 16
v -16 8 14
v -16 -1 16
v -16 -1 14
v -18 -1 16
v -16 -1 16
v -16 -1 14
v -18 -1 14
v -18 -1 14
v -18 -1 16
vt 6 0
vt 0 0
vt 6 2
vt 0 2
vt 0 0
vt 6 0
vt 0 -13
vt 6 -13
vt 13 0
vt 0 2
vt 13 2
vt 0 0
vt -2 0
vt -2 -13
vt -2 2
vt -2 0
vt 0 -13
vt 0 0
vt 2 -13
vt 2 0
vt 0 0
vt 0 2
vt 2 0
vt 2 2
vt 0 0
vt 0 2
vt 14 0
vt 14 2
vt 2 14
vt 0 14
vt 0 14
vt -2 14
vt -14 2
vt -14 0
vt 16 0
vt 16 2
vt 2 16
vt 0 16
vt 0 14
vt -2 14
vt 0 16
vt -2 16
vt -16 2
vt -16 0
vt 0 2
vt -2 2
vt 0 8
vt -2 8
vt 16 8
vt 14 8
vt -14 8
vt -16 8
vt 2 8
vt 0 8
vt 0 10
vt -2 10
vt 16 8
vt 14 8
vt 16 10
vt 14 10
vt -14 10
vt -16 10
vt 2 10
vt 0 10
vt 0 16
vt 0 14
vt -16 16
vt -16 14
vt -16 10
vt -16 8
vt 16 8
vt 16 10
vt 16 14
vt 16 16
vt -16 16
vt -16 14
vt -18 16
vt -18 14
vt -18 10
vt -18 8
vt 18 8
vt 18 10
vt 18 14
vt 18 16
vt -16 8
vt -14 8
vt -16 -1
vt -14 -1
vt -18 -1
vt -16 -1
vt 16 -1
vt 18 -1
vt 14 -1
vt 16 -1
vn 0 0 -1
vn 0 0 -1
vn 0 0 -1
vn 0 0 -1
vn 0 1 0
vn 0 1 0
vn 0 1 0
vn 0 1 0
vn 1 0 0
vn 1 0 0
vn 1 0 0
vn 1 0 0
vn 0 1 0
vn 0 1 0
vn 0 0 -1
vn 0 0 -1
vn 0 -1 0
vn 0 -1 0
vn 0 -1 0
vn 0 -1 0
vn 0 0 1
vn 0 0 1
vn 0 0 1
vn 0 0 1
vn -1 0 0
vn -1 0 0
vn -1 0 0
vn -1 0 0
vn 0 -1 0
vn 0 -1 0
vn 0 1 0
vn 0 1 0
vn 1 0 0
vn 1 0 0
vn -1 0 0
vn -1 0 0
vn 0 -1 0
vn 0 -1 0
vn 0 1 0
vn 0 1 0
vn 0 1 0
vn 0 1 0
vn 1 0 0
vn 1 0 0
vn 0 0 -1
vn 0 0 -1
vn 0 0 -1
vn 0 0 -1
vn -1 0 0
vn -1 0 0
vn 1 0 0
vn 1 0 0
vn 0 0 1
vn 0 0 1
vn 0 0 -1
vn 0 0 -1
vn -1 0 0
vn -1 0 0
vn -1 0 0
vn -1 0 0
vn 1 0 0
vn 1 0 0
vn 0 0 1
vn 0 0 1
vn 0 -1 0
vn 0 -1 0
vn 0 -1 0
vn 0 -1 0
vn 0 0 1
vn 0 0 1
vn 0 0 -1
vn 0 0 -1
vn 0 1 0
vn 0 1 0
vn 0 -1 0
vn 0 -1 0
vn 0 -1 0
vn 0 -1 0
vn 0 0 1
vn 0 0 1
vn 0 0 -1
vn 0 0 -1
vn 0 1 0
vn 0 1 0
vn 1 0 0
vn 1 0 0
vn 1 0 0
vn 1 0 0
vn 0 0 1
vn 0 0 1
vn 0 0 -1
vn 0 0 -1
vn -1 0 0
vn -1 0 0
g pb_Mesh428668_0
f 3/3/3 2/2/2 1/1/1
f 3/3/3 4/4/4 2/2/2
f 7/7/7 6/6/6 5/5/5
f 7/7/7 8/8/8 6/6/6
f 11/11/11 10/10/10 9/9/9
f 10/10/10 12/12/12 9/9/9
f 13/13/13 7/7/7 5/5/5
f 13/13/13 14/14/14 7/7/7
f 15/15/15 2/2/2 4/4/4
f 15/15/15 16/16/16 2/2/2
f 19/19/19 18/18/18 17/17/17
f 19/19/19 20/20/20 18/18/18
f 23/23/23 22/22/22 21/21/21
f 23/23/23 24/24/24 22/22/22
f 27/27/27 26/26/26 25/25/25
f 27/27/27 28/28/28 26/26/26
f 29/29/29 18/18/18 20/20/20
f 29/29/29 30/30/30 18/18/18
f 31/31/31 13/13/13 5/5/5
f 31/31/31 32/32/32 13/13/13
f 33/33/33 12/12/12 10/10/10
f 33/33/33 34/34/34 12/12/12
f 35/35/35 28/28/28 27/27/27
f 35/35/35 36/36/36 28/28/28
f 37/37/37 30/30/30 29/29/29
f 37/37/37 38/38/38 30/30/30
f 41/41/41 40/40/40 39/39/39
f 41/41/41 42/42/42 40/40/40
f 43/43/43 34/34/34 33/33/33
f 43/43/43 44/44/44 34/34/34
f 47/47/47 46/46/46 45/45/45
f 47/47/47 48/48/48 46/46/46
f 49/49/49 28/28/28 36/36/36
f 49/49/49 50/50/50 28/28/28
f 51/51/51 43/43/43 33/33/33
f 51/51/51 52/52/52 43/43/43
f 53/53/53 22/22/22 24/24/24
f 53/53/53 54/54/54 22/22/22
f 55/55/55 48/48/48 47/47/47
f 55/55/55 56/56/56 48/48/48
f 59/59/59 58/58/58 57/57/57
f 59/59/59 60/60/60 58/58/58
f 61/61/61 52/52/52 51/51/51
f 61/61/61 62/62/62 52/52/52
f 63/63/63 54/54/54 53/53/53
f 63/63/63 64/64/64 54/54/54
f 67/67/67 66/66/66 65/65/65
f 67/67/67 68/68/68 66/66/66
f 69/69/69 54/54/54 64/64/64
f 69/69/69 70/70/70 54/54/54
f 71/71/71 55/55/55 47/47/47
f 71/71/71 72/72/72 55/55/55
f 73/73/73 41/41/41 39/39/39
f 73/73/73 74/74/74 41/41/41
f 77/77/77 76/76/76 75/75/75
f 77/77/77 78/78/78 76/76/76
f 79/79/79 70/70/70 69/69/69
f 79/79/79 80/80/80 70/70/70
f 81/81/81 72/72/72 71/71/71
f 81/81/81 82/82/82 72/72/72
f 83/83/83 74/74/74 73/73/73
f 83/83/83 84/84/84 74/74/74
f 87/87/87 86/86/86 85/85/85
f 87/87/87 88/88/88 86/86/86
f 89/89/89 70/70/70 80/80/80
f 89/89/89 90/90/90 70/70/70
f 91/91/91 81/81/81 71/71/71
f 91/91/91 92/92/92 81/81/81
f 93/93/93 57/57/57 58/58/58
f 93/93/93 94/94/94 57/57/57
