g pb_Mesh-2934
v 0 8 -1
v 4 8 -1
v 4 8 0
v 0 8 0
v 0 8 0
v 4 8 0
v 4 0 0
v 0 0 0
v 4 8 0
v 4 8 -1
v 4 0 -1
v 4 0 0
v 4 8 -1
v 0 8 -1
v 0 0 -1
v 4 0 -1
v 0 8 -1
v 0 8 0
v 0 0 0
v 0 0 -1
v 0 0 0
v 4 0 0
v 4 0 -1
v 0 0 -1
vt 0 -1
vt -4 -1
vt -4 0
vt 0 0
vt 0 8
vt 4 8
vt 4 0
vt 0 0
vt 0 8
vt 1 8
vt 1 0
vt 0 0
vt -4 8
vt 0 8
vt 0 0
vt -4 0
vt -1 8
vt 0 8
vt 0 0
vt -1 0
vt 0 0
vt 4 0
vt 4 -1
vt 0 -1
vn 0 1 0
vn 0 1 0
vn 0 1 0
vn 0 1 0
vn 0 0 1
vn 0 0 1
vn 0 0 1
vn 0 0 1
vn 1 0 0
vn 1 0 0
vn 1 0 0
vn 1 0 0
vn 0 0 -1
vn 0 0 -1
vn 0 0 -1
vn 0 0 -1
vn -1 0 0
vn -1 0 0
vn -1 0 0
vn -1 0 0
vn 0 -1 0
vn 0 -1 0
vn 0 -1 0
vn 0 -1 0
g pb_Mesh-2934_0
g pb_Mesh-2934_1
f 3/3/3 2/2/2 1/1/1
f 4/4/4 3/3/3 1/1/1
g pb_Mesh-2934_2
f 7/7/7 6/6/6 5/5/5
f 8/8/8 7/7/7 5/5/5
f 11/11/11 10/10/10 9/9/9
f 12/12/12 11/11/11 9/9/9
f 15/15/15 14/14/14 13/13/13
f 16/16/16 15/15/15 13/13/13
f 19/19/19 18/18/18 17/17/17
f 20/20/20 19/19/19 17/17/17
f 23/23/23 22/22/22 21/21/21
f 24/24/24 23/23/23 21/21/21
