g pb_Mesh47962
v -95 -112 47
v -95 -112 0
v -95 0 47
v -95 0 0
v -95 -112 0
v 0 -112 0
v -95 0 0
v 0 0 0
v 0 -112 0
v 0 -112 47
v 0 0 0
v 0 0 47
v 0 -112 0
v -95 -112 0
v 0 -112 47
v -95 -112 47
vt 47 -112
vt 0 -112
vt 47 0
vt 0 0
vt 95 -112
vt 0 -112
vt 95 0
vt 0 0
vt 0 -112
vt -47 -112
vt 0 0
vt -47 0
vt 0 0
vt -95 0
vt 0 47
vt -95 47
vn -1 0 0
vn -1 0 0
vn -1 0 0
vn -1 0 0
vn 0 0 -1
vn 0 0 -1
vn 0 0 -1
vn 0 0 -1
vn 1 0 0
vn 1 0 0
vn 1 0 0
vn 1 0 0
vn 0 -1 0
vn 0 -1 0
vn 0 -1 0
vn 0 -1 0
g pb_Mesh47962_0
f 3/3/3 2/2/2 1/1/1
f 3/3/3 4/4/4 2/2/2
f 7/7/7 6/6/6 5/5/5
f 7/7/7 8/8/8 6/6/6
f 11/11/11 10/10/10 9/9/9
f 11/11/11 12/12/12 10/10/10
f 15/15/15 14/14/14 13/13/13
f 15/15/15 16/16/16 14/14/14
