g pb_Mesh405812
v 2.200013 1 -0.9924108
v -0.9999924 1 -0.9924116
v 2.200016 1 -5.199998
v -0.9999899 1 -5.199996
v -0.9999924 0 0.1999998
v -0.9999924 0.5 -0.3962059
v 2.900014 0.5 -0.3962055
v 3.600015 0 0.1999998
v -0.9999924 1 -0.9924116
v 2.200013 1 -0.9924108
v -0.9999903 0 -6.399995
v 3.000002 0.6000004 -5.800004
v -0.9999901 0.5 -5.799995
v 4.000001 0 -6.400005
v -0.9999901 0.5 -5.799995
v 2.200016 1 -5.199998
v -0.9999899 1 -5.199996
v 3.000002 0.6000004 -5.800004
v 4.000001 0 -6.400005
v 3.600015 0 0.1999998
v 3.000002 0.6000004 -5.800004
v 2.900014 0.5 -0.3962055
v 2.200016 1 -5.199998
v 3.000002 0.6000004 -5.800004
v 2.900014 0.5 -0.3962055
v 2.200013 1 -0.9924108
vt -2.200013 -0.9924108
vt 0.9999924 -0.9924116
vt -2.200016 -5.199998
vt 0.9999899 -5.199996
vt 0.9999924 0.1532436
vt 0.9999923 -0.6248704
vt -2.900014 -0.6248696
vt -3.600015 0.153244
vt 0.9999922 -1.402984
vt -2.200014 -1.402983
vt 0.9999122 -4.908768
vt -3.007267 -4.09577
vt 0.9936624 -4.127769
vt -3.999688 -4.948783
vt 0.9936624 -4.127769
vt -2.212343 -3.372375
vt 0.9874126 -3.346769
vt -3.007267 -4.09577
vt -3.473963 -6.453927
vt -3.12658 0.1490478
vt -2.30805 -5.854894
vt -2.270782 -0.4494024
vt -1.414987 -5.25373
vt -2.30805 -5.854894
vt -2.270782 -0.4494024
vt -1.414985 -1.047853
vn 0 1 0
vn 0 1 0
vn 0 1 0
vn 0 1 0
vn -3.541316E-08 0.766219 0.6425796
vn -6.874477E-08 0.7662191 0.6425795
vn -3.541316E-08 0.766219 0.6425796
vn -2.081558E-09 0.7662188 0.6425797
vn -1.675653E-07 0.7662191 0.6425794
vn -1.181551E-07 0.766219 0.6425796
vn -0.009602444 0.7375929 -0.673587
vn -0.009602444 0.7375929 -0.673587
vn -0.01920347 0.7680796 -0.6400664
vn -1.416138E-06 0.7071062 -0.7071074
vn -0.01023924 0.7936418 -0.6067618
vn -0.01023924 0.7936418 -0.6067618
vn -5.723685E-07 0.7682213 -0.6401845
vn -0.0204779 0.8190623 -0.573339
vn 0.5282878 0.8484616 0.03201626
vn 0.5473664 0.8360797 0.02887018
vn 0.5473664 0.8360797 0.02887018
vn 0.5664451 0.8236979 0.02572409
vn 0.5216137 0.850134 0.01247722
vn 0.46199 0.886534 0.02495415
vn 0.5216137 0.850134 0.01247722
vn 0.5812375 0.8137339 2.964169E-07
g pb_Mesh405812_0
f 3/3/3 2/2/2 1/1/1
f 3/3/3 4/4/4 2/2/2
f 7/7/7 6/6/6 5/5/5
f 8/8/8 7/7/7 5/5/5
f 10/10/10 9/9/9 6/6/6
f 7/7/7 10/10/10 6/6/6
f 13/13/13 12/12/12 11/11/11
f 12/12/12 14/14/14 11/11/11
f 17/17/17 16/16/16 15/15/15
f 16/16/16 18/18/18 15/15/15
f 21/21/21 20/20/20 19/19/19
f 22/22/22 20/20/20 21/21/21
f 25/25/25 24/24/24 23/23/23
f 25/25/25 23/23/23 26/26/26
