g pb_Mesh180984
v -3 0 1
v -1.5 0 -2.5
v -2 3 2.5
v -0.5 3 0
v -1.5 0 -2.5
v 3 0 -2.5
v -0.5 3 0
v 2 3 0
v 3 0 -2.5
v 5 0 1
v 2 3 0
v 3 3 2.5
v 3 3 2.5
v -2 3 2.5
v 2 3 0
v -0.5 3 0
vt 2.100903 -1.062636
vt -1.706984 -1.062636
vt 3.085701 2.295961
vt 0.1969596 2.473067
vt 1.5 -1.600461
vt -3 -1.600461
vt 0.5 2.304664
vt -2 2.304664
vt 0.6821909 -2.211048
vt -3.348938 -2.211048
vt -0.9922779 1.455852
vt -3.659025 1.669824
vt -3 2.5
vt 2 2.5
vt -2 0
vt 0.5 0
vn -0.8210081 0.4495997 -0.3518606
vn -0.7593412 0.5154976 -0.3852326
vn -0.7593412 0.5154976 -0.3852326
vn -0.6976745 0.5813954 -0.4186047
vn 0 0.6401844 -0.7682213
vn 0 0.6401844 -0.7682213
vn 0 0.6401844 -0.7682213
vn 0 0.6401844 -0.7682213
vn 0.7103356 0.5750336 -0.4059061
vn 0.7168499 0.6009747 -0.3476259
vn 0.7168499 0.6009747 -0.3476259
vn 0.7233642 0.6269157 -0.2893457
vn 0 1 0
vn 0 1 0
vn 0 1 0
vn 0 1 0
g pb_Mesh180984_0
f 3/3/3 2/2/2 1/1/1
f 3/3/3 4/4/4 2/2/2
f 7/7/7 6/6/6 5/5/5
f 7/7/7 8/8/8 6/6/6
f 11/11/11 10/10/10 9/9/9
f 11/11/11 12/12/12 10/10/10
f 15/15/15 14/14/14 13/13/13
f 15/15/15 16/16/16 14/14/14
g pb_Mesh180984_1
