g pb_Mesh136648
v 0 -33 36.5
v -7 -33 36.5
v 0 -22 36.5
v -7 -22 36.5
v -7 -33 36.5
v -7 -33 -1
v -7 -22 36.5
v -7 -22 -1
v -7 -33 -1
v 0 -33 -1
v -7 -22 -1
v 0 -22 -1
v 0 -33 -1
v 0 -33 36.5
v 0 -22 -1
v 0 -22 36.5
v 0 -22 36.5
v -7 -22 36.5
v 0 -22 -1
v -7 -22 -1
v 0 -33 -1
v -7 -33 -1
v 0 -33 36.5
v -7 -33 36.5
vt -220 21
vt -227 21
vt -220 32
vt -227 32
vt 97.5 21
vt 60 21
vt 97.5 32
vt 60 32
vt 227 21
vt 220 21
vt 227 32
vt 220 32
vt -60 21
vt -97.5 21
vt -60 32
vt -97.5 32
vt 220 97.5
vt 227 97.5
vt 220 60
vt 227 60
vt -220 60
vt -227 60
vt -220 97.5
vt -227 97.5
vn 0 0 1
vn 0 0 1
vn 0 0 1
vn 0 0 1
vn -1 0 0
vn -1 0 0
vn -1 0 0
vn -1 0 0
vn 0 0 -1
vn 0 0 -1
vn 0 0 -1
vn 0 0 -1
vn 1 0 0
vn 1 0 0
vn 1 0 0
vn 1 0 0
vn 0 1 0
vn 0 1 0
vn 0 1 0
vn 0 1 0
vn 0 -1 0
vn 0 -1 0
vn 0 -1 0
vn 0 -1 0
g pb_Mesh136648_0
f 3/3/3 2/2/2 1/1/1
f 3/3/3 4/4/4 2/2/2
f 7/7/7 6/6/6 5/5/5
f 7/7/7 8/8/8 6/6/6
f 11/11/11 10/10/10 9/9/9
f 11/11/11 12/12/12 10/10/10
f 15/15/15 14/14/14 13/13/13
f 15/15/15 16/16/16 14/14/14
f 19/19/19 18/18/18 17/17/17
f 19/19/19 20/20/20 18/18/18
f 23/23/23 22/22/22 21/21/21
f 23/23/23 24/24/24 22/22/22
