g pb_Mesh320278
v -72 -59 4
v -72 -59 -3
v -72 14 4
v -72 14 -3
v -72 14 -3
v -67 -59 -3
v -67 18 -3
v -72 -59 -3
v 4 -59 -3
v 4 18 -3
v 4 18 3
v -67 18 -3
v 4 18 -3
v -67 18 3
v -67 18 3
v -72 14 -3
v -67 18 -3
v -72 14 3
vt 4 -59
vt -3 -59
vt 4 14
vt -3 14
vt 72 14
vt 67 -59
vt 67 18
vt 72 -59
vt -4 -59
vt -4 18
vt -4 3
vt 67 -3
vt -4 -3
vt 67 3
vt 41.0737 3
vt 47.47683 -3
vt 41.0737 -3
vt 47.47683 3
vn -1 0 0
vn -1 0 0
vn -1 0 0
vn -1 0 0
vn 0 0 -1
vn 0 0 -1
vn 0 0 -1
vn 0 0 -1
vn 0 0 -1
vn 0 0 -1
vn 0 1 0
vn 0 1 0
vn 0 1 0
vn 0 1 0
vn -0.6246951 0.7808688 0
vn -0.6246951 0.7808688 0
vn -0.6246951 0.7808688 0
vn -0.6246951 0.7808688 0
g pb_Mesh320278_0
g pb_Mesh320278_1
f 3/3/3 2/2/2 1/1/1
f 3/3/3 4/4/4 2/2/2
f 7/7/7 6/6/6 5/5/5
f 6/6/6 8/8/8 5/5/5
f 10/10/10 9/9/9 7/7/7
f 9/9/9 6/6/6 7/7/7
f 13/13/13 12/12/12 11/11/11
f 12/12/12 14/14/14 11/11/11
f 17/17/17 16/16/16 15/15/15
f 16/16/16 18/18/18 15/15/15
