g pb_Mesh331494
v 0 12 0
v -3 12 0
v 0 12 -1
v -3 12 -1
v 0 0.125 -1
v -3 0.125 -1
v 0 0.125 0
v -3 0.125 0
v 0 0.125 0
v -3 0.125 0
v -3 8 0
v 0 8 0
v -3 12 0
v 0 12 0
v -3 0.125 0
v -3 0.125 -1
v -3 8 -1
v -3 8 0
v -8 8 0
v -8 8 -1
v -8 12 -1
v -8 12 0
v -3 8 -1
v 0 0.125 -1
v 0 8 -1
v -3 0.125 -1
v -3 12 -1
v 0 12 -1
v 0 8 -1
v 0 0.125 0
v 0 8 0
v 0 0.125 -1
v 0 12 -1
v 0 12 0
v -3 8 0
v -3 8 -1
v -8 8 0
v -8 8 -1
v -8 8 -1
v -8 12 -1
v -8 12 0
v -8 8 0
v -8 12 -1
v -8 12 0
vt 0 0
vt 3 0
vt 0 -1
vt 3 -1
vt 0 -1
vt -3 -1
vt 0 0
vt -3 0
vt 0 0.125
vt -3 0.125
vt -3 8
vt 0 8
vt -3 12
vt 0 12
vt 0 0.125
vt -1 0.125
vt -1 8
vt 0 8
vt 0 8
vt -1 8
vt -1 12
vt 0 12
vt 3 8
vt 0 0.125
vt 0 8
vt 3 0.125
vt 3 12
vt 0 12
vt 1 8
vt 0 0.125
vt 0 8
vt 1 0.125
vt 1 12
vt 0 12
vt -3 0
vt -3 -1
vt -8 0
vt -8 -1
vt 8 8
vt 8 12
vt -8 12
vt -8 8
vt 8 -1
vt 8 0
vn 0 1 0
vn 0 1 0
vn 0 1 0
vn 0 1 0
vn 0 -1 0
vn 0 -1 0
vn 0 -1 0
vn 0 -1 0
vn 0 0 1
vn 0 0 1
vn 0 0 1
vn 0 0 1
vn 0 0 1
vn 0 0 1
vn -1 0 0
vn -1 0 0
vn -1 0 0
vn -1 0 0
vn -1 0 0
vn -1 0 0
vn -1 0 0
vn -1 0 0
vn 0 0 -1
vn 0 0 -1
vn 0 0 -1
vn 0 0 -1
vn 0 0 -1
vn 0 0 -1
vn 1 0 0
vn 1 0 0
vn 1 0 0
vn 1 0 0
vn 1 0 0
vn 1 0 0
vn 0 -1 0
vn 0 -1 0
vn 0 -1 0
vn 0 -1 0
vn 0 0 -1
vn 0 0 -1
vn 0 0 1
vn 0 0 1
vn 0 1 0
vn 0 1 0
g pb_Mesh331494_0
f 3/3/3 2/2/2 1/1/1
f 3/3/3 4/4/4 2/2/2
f 7/7/7 6/6/6 5/5/5
f 7/7/7 8/8/8 6/6/6
f 11/11/11 10/10/10 9/9/9
f 11/11/11 9/9/9 12/12/12
f 13/13/13 11/11/11 12/12/12
f 13/13/13 12/12/12 14/14/14
f 17/17/17 16/16/16 15/15/15
f 17/17/17 15/15/15 18/18/18
f 21/21/21 20/20/20 19/19/19
f 21/21/21 19/19/19 22/22/22
f 25/25/25 24/24/24 23/23/23
f 24/24/24 26/26/26 23/23/23
f 28/28/28 25/25/25 27/27/27
f 25/25/25 23/23/23 27/27/27
f 31/31/31 30/30/30 29/29/29
f 30/30/30 32/32/32 29/29/29
f 34/34/34 31/31/31 33/33/33
f 31/31/31 29/29/29 33/33/33
f 37/37/37 36/36/36 35/35/35
f 37/37/37 38/38/38 36/36/36
f 39/39/39 27/27/27 23/23/23
f 39/39/39 40/40/40 27/27/27
f 41/41/41 11/11/11 13/13/13
f 41/41/41 42/42/42 11/11/11
f 43/43/43 2/2/2 4/4/4
f 43/43/43 44/44/44 2/2/2
