g pb_Mesh416206
v -963.803 35.011 20
v -967.803 35.011 20
v -967.803 43.011 20
v -963.803 43.011 20
v -971.803 35.011 20
v -971.803 43.011 20
v -971.803 44.011 20
v -967.803 44.011 20
v -963.803 43.011 20
v -964.75 44.00275 20
v -963.803 43.75 20
v -965.803 44.0055 20
v -967.803 43.011 20
v -967.803 44.011 20
v -971.803 35.011 20
v -971.803 35.011 16
v -971.803 43.011 16
v -971.803 43.011 20
v -971.803 44.011 16
v -971.803 44.011 20
v -963.803 43.011 16
v -963.803 35.011 20
v -963.803 43.011 20
v -963.803 35.011 16
v -967.803 43.011 16
v -965.803 43.011 16
v -965.803 43.011 18
v -967.803 43.011 18
v -969.803 43.011 16
v -969.803 43.011 18
v -969.803 43.011 14
v -967.803 43.011 14
v -965.803 43.011 14
v -967.803 35.011 12
v -963.803 31.011 12
v -963.803 35.011 12
v -967.803 31.011 12
v -971.803 35.011 12
v -971.803 31.011 12
v -963.803 31.011 20
v -963.803 31.011 16
v -963.803 35.011 12
v -963.803 31.011 12
v -971.803 31.011 16
v -971.803 31.011 12
v -971.803 35.011 12
v -971.803 31.011 20
v -967.803 31.011 20
v -971.803 31.011 20
v -963.803 31.011 20
v -969.803 44.011 14
v -967.803 44.011 14
v -969.803 43.011 14
v -967.803 43.011 14
v -965.803 44.011 16
v -965.803 44.011 18
v -965.803 43.011 16
v -965.803 43.011 18
v -969.803 44.011 18
v -969.803 44.011 16
v -969.803 43.011 18
v -969.803 43.011 16
v -965.803 44.011 18
v -967.803 44.011 18
v -965.803 43.011 18
v -967.803 43.011 18
v -969.803 44.011 14
v -969.803 43.011 14
v -969.803 44.011 18
v -969.803 43.011 18
v -963.803 44 16
v -963.803 43.011 16
v -963.803 44.0055 18
v -963.803 43.011 20
v -963.803 44.00275 19.25
v -963.803 43.75 20
v -963.375 43.011 12
v -963.375 35.011 12
v -963.375 43.011 12.75
v -963.375 43.011 14
v -963.375 35.011 16
v -963.375 43.011 16
v -963.375 44 14
v -963.375 44 16
v -967.803 44.011 12
v -965.803 43.011 12
v -965.803 44.011 12
v -967.803 43.011 12
v -963.803 43.875 12
v -963.803 43.011 12.75
v -963.803 44.011 12.75
v -963.803 43.011 12
v -963.803 44.011 12.75
v -963.803 43.011 14
v -963.803 44.011 14
v -963.803 43.011 12.75
v -963.803 43.875 12
v -964.5 43.011 12
v -963.803 43.011 12
v -964.5 44.011 12
v -965.803 43.011 12
v -965.803 44.011 12
v -969.803 43.93171 11.75
v -967.803 43.011 11.75
v -967.803 43.93171 11.75
v -969.803 43.011 11.75
v -971.803 43.011 14
v -971.803 43.011 12.75
v -971.803 43.011 12
v -971.803 44.011 14
v -971.803 43.875 12
v -971 43.011 12
v -971 44.011 12
v -971.803 43.011 12
v -971 43.93171 11.75
v -971 43.011 11.75
v -971.803 44.011 12.75
v -971.803 43.011 12.75
v -971.803 43.875 12
v -971.803 44.011 12.75
v -963.803 43.011 16
v -963.803 44 16
v -963.375 43.011 16
v -963.375 44 16
v -963.803 44.011 14
v -963.803 43.011 14
v -963.375 44 14
v -963.375 43.011 14
v -963.803 43.011 12.75
v -963.803 43.011 12
v -963.375 43.011 12.75
v -963.375 43.011 12
v -963.803 43.011 14
v -963.375 43.011 14
v -963.803 35.011 12
v -963.803 35.011 16
v -963.375 35.011 12
v -963.375 35.011 16
v -963.803 35.011 16
v -963.375 35.011 16
v -967.803 43.011 12
v -967.803 44.011 12
v -967.803 43.011 11.75
v -967.803 43.93171 11.75
v -971 44.011 12
v -971 43.011 12
v -971 43.93171 11.75
v -971 43.011 11.75
v -971.803 35.011 12
v -967.803 35.011 12
v -971.803 35.011 11.75
v -967.803 35.011 11.75
v -971.803 43.011 12
v -971.803 35.011 12
v -971.803 43.011 11.75
v -971.803 35.011 11.75
v -971 43.011 12
v -971.803 43.011 12
v -971 43.011 11.75
v -971.803 43.011 11.75
v -967.803 39.011 12
v -963.803 39.011 12
v -963.375 43.011 12
v -963.803 39.011 12
v -963.375 35.011 12
v -963.803 35.011 12
v -967.1889 39.011 11.75
v -967.1889 35.011 12
v -967.1889 39.011 12
v -967.1889 35.011 11.75
v -967.803 41.011 12
v -964.5 43.011 12
v -963.803 43.011 12
v -967.803 39.011 11.75
v -971.803 43.011 11.75
v -971.803 35.011 11.75
v -967.803 35.011 11.75
v -967.803 41.011 11.75
v -967.803 41.011 11.75
v -967.803 39.011 12
v -967.803 41.011 12
v -967.803 39.011 11.75
v -967.803 39.011 12
v -967.803 39.011 11.75
v -967.1889 39.011 12
v -967.1889 39.011 11.75
v -967.803 39.011 11.75
v -967.803 35.011 11.75
v -967.1889 39.011 11.75
v -967.1889 35.011 11.75
v -967.1889 35.011 11.75
v -967.1889 35.011 12
v -967.803 44.011 20
v -971.803 44.011 20
v -967.803 44.011 18
v -969.803 44.011 18
v -967.803 44.011 14
v -965.803 44.011 14
v -967.803 43.011 14
v -965.803 43.011 14
v -965.803 44.011 14
v -965.803 44.011 16
v -965.803 43.011 14
v -965.803 43.011 16
v -967.803 44.011 18
v -965.803 44.011 18
v -965.803 44.00825 19
v -967.803 44.011 20
v -965.803 44.0055 20
v -965.803 44.011 18
v -964.803 44.0055 19
v -965.803 44.00825 19
v -963.803 44.0055 18
v -964.803 44.0055 19
v -965.803 44.011 18
v -963.803 44.00275 19.25
v -965.803 44.00825 19
v -964.803 44.0055 19
v -964.75 44.00275 20
v -965.803 44.0055 20
v -963.803 44.00275 19.25
v -963.803 43.75 20
v -964.75 44.00275 20
v -964.803 44.0055 19
v -964.803 44.25 16
v -963.803 44 16
v -963.803 44.0055 18
v -965.803 44.011 18
v -965.803 44.011 16
v -964.803 44.25 14.5
v -963.803 44.011 14
v -964.803 44.25 16
v -965.803 44.011 14
v -964.5 44.25 12.75
v -964.803 44.25 14.5
v -964.803 44.25 16
v -967.803 44.011 14
v -967.803 44.011 13
v -966.303 44.011 13
v -965.803 44.011 14
v -964.5 44.25 12.75
v -965.803 44.011 12
v -964.5 44.011 12
v -964.5 44.25 12.75
v -966.303 44.011 13
v -964.5 44.25 12.75
v -963.803 44.011 12.75
v -963.803 44.011 14
v -964.803 44.25 14.5
v -964.5 44.011 12
v -963.803 44.011 12.75
v -964.5 44.25 12.75
v -963.803 43.875 12
v -970.803 44.011 16
v -969.803 44.011 16
v -971.803 44.011 16
v -967.803 44.011 12.5
v -966.303 44.011 13
v -967.803 44.011 12
v -965.803 44.011 12
v -969.303 44.011 12.75
v -971 44.011 12.75
v -969.803 44.011 14
v -967.803 44.011 12
v -969.303 44.011 12.75
v -969.803 44.011 12
v -971.803 44.011 14
v -970.803 44.011 14.5
v -970.803 44.011 14.5
v -971 44.011 12.75
v -969.803 44.011 14
v -971 44.011 12.75
v -971 44.011 12
v -969.803 44.011 12
v -969.303 44.011 12.75
v -971.803 44.011 14
v -971.803 44.011 12.75
v -971 44.011 12.75
v -970.803 44.011 14.5
v -971.803 44.011 12.75
v -971 44.011 12
v -971 44.011 12.75
v -971.803 43.875 12
v -971 44.011 12
v -971.803 44.011 12.75
v -963.803 44 16
v -963.803 44.011 14
v -963.375 44 16
v -963.375 44 14
v -967.803 44.011 12
v -969.803 44.011 12
v -967.803 43.93171 11.75
v -969.803 43.93171 11.75
v -971 44.011 12
v -971 43.93171 11.75
vt 0 -1
vt -4 -1
vt -4 7
vt 0 7
vt -8 -1
vt -8 7
vt -8 8
vt -4 8
vt 0 7
vt -1 8
vt 0 8
vt -2 8
vt -4 7
vt -4 8
vt 0 -1
vt -4 -1
vt -4 7
vt 0 7
vt -4 8
vt 0 8
vt -4 7
vt 0 -1
vt 0 7
vt -4 -1
vt 4 -4
vt 2 -4
vt 2 -2
vt 4 -2
vt 6 -4
vt 6 -2
vt 6 -6
vt 4 -6
vt 2 -6
vt -4 -1
vt 0 -5
vt 0 -1
vt -4 -5
vt -8 -1
vt -8 -5
vt 0 -5
vt -4 -5
vt -8 -1
vt -8 -5
vt -4 -5
vt -8 -5
vt -8 -1
vt 0 -5
vt -4 -5
vt -8 -5
vt 0 -5
vt -6 8
vt -4 8
vt -6 7
vt -4 7
vt -4 8
vt -2 8
vt -4 7
vt -2 7
vt 2 8
vt 4 8
vt 2 7
vt 4 7
vt 2 8
vt 4 8
vt 2 7
vt 4 7
vt 6 8
vt 6 7
vt 6 8
vt 6 7
vt -4 8
vt -4 7
vt -2 8
vt 0 7
vt -1 8
vt 0 8
vt -8 7
vt -8 -1
vt -7 7
vt -6 7
vt -4 -1
vt -4 7
vt -6 8
vt -4 8
vt -4 8
vt -2 7
vt -2 8
vt -4 7
vt -8 8
vt -7 7
vt -7 8
vt -8 7
vt -7 8
vt -6 7
vt -6 8
vt -7 7
vt 963.803 43.875
vt 964.5 43.011
vt 963.803 43.011
vt 964.5 44.011
vt 965.803 43.011
vt 965.803 44.011
vt -6 8
vt -4 7
vt -4 8
vt -6 7
vt -6 7
vt -7 7
vt -8 7
vt -6 8
vt -8 8
vt -7 7
vt -7 8
vt -8 7
vt -7 8
vt -7 7
vt -7 8
vt -7 7
vt -8 8
vt -7 8
vt -963.803 43.011
vt -963.803 44
vt -963.375 43.011
vt -963.375 44
vt 963.803 44.011
vt 963.803 43.011
vt 963.375 44
vt 963.375 43.011
vt 963.803 12.75
vt 963.803 12
vt 963.375 12.75
vt 963.375 12
vt 963.803 14
vt 963.375 14
vt -963.803 12
vt -963.803 16
vt -963.375 12
vt -963.375 16
vt -963.803 35.011
vt -963.375 35.011
vt -12 43.011
vt -12 44.011
vt -11.75 43.011
vt -11.75 43.93171
vt 12 44.011
vt 12 43.011
vt 11.75 43.93171
vt 11.75 43.011
vt -971.803 12
vt -967.803 12
vt -971.803 11.75
vt -967.803 11.75
vt 12 43.011
vt 12 35.011
vt 11.75 43.011
vt 11.75 35.011
vt 971 12
vt 971.803 12
vt 971 11.75
vt 971.803 11.75
vt -4 3
vt 0 3
vt 963.375 43.011
vt 963.803 39.011
vt 963.375 35.011
vt 963.803 35.011
vt -11.75 39.011
vt -12 35.011
vt -12 39.011
vt -11.75 35.011
vt -4 5
vt -5 7
vt 0 7
vt -4 3
vt -8 7
vt -8 -1
vt -4 -1
vt -4 5
vt -11.75 41.011
vt -12 39.011
vt -12 41.011
vt -11.75 39.011
vt 967.803 12
vt 967.803 11.75
vt 967.1889 12
vt 967.1889 11.75
vt 967.803 39.011
vt 967.803 35.011
vt 967.1889 39.011
vt 967.1889 35.011
vt -967.1889 11.75
vt -967.1889 12
vt 4 0
vt 8 0
vt 4 -2
vt 6 -2
vt -4 8
vt -2 8
vt -4 7
vt -2 7
vt -6 8
vt -4 8
vt -6 7
vt -4 7
vt 4 -2
vt 2 -2
vt 0 3
vt 4 0
vt -2 8
vt 2 -2
vt 1 -1
vt 0 3
vt -2 8
vt 1 -1
vt 2 -2
vt -1 4
vt 0 3
vt 1 -1
vt -1 8
vt -2 8
vt -1 4
vt 0 0
vt -1 8
vt 1 -1
vt 1 -4
vt 0 -4
vt -2 8
vt 2 -2
vt 2 -4
vt 1 -5.5
vt 0 -6
vt 1 -4
vt 2 -6
vt 1 -7
vt 1 -5.5
vt 1 -4
vt 4 -6
vt 4 -7
vt 2.5 -7
vt 2 -6
vt 1 -7
vt -2 8
vt -5 8
vt 1 -7
vt 2.5 -7
vt 1 -7
vt -7 8
vt 0 -6
vt 1 -5.5
vt 926.6319 -66.78221
vt 925.9726 -65.99888
vt 926.7094 -65.99888
vt 925.9285 -66.75409
vt 7 -4
vt 6 -4
vt 8 -4
vt 4 -7.5
vt 2.5 -7
vt 4 -8
vt -2 8
vt 5.5 -7.25
vt 7 -7
vt 6 -6
vt 4 -8
vt 5.5 -7.25
vt 6 -8
vt 8 -6
vt 7 -5.5
vt 7 -5.5
vt 7 -7
vt 6 -6
vt 7 -7
vt -7 8
vt 6 -8
vt 5.5 -7.25
vt 8 -6
vt -7 8
vt 7 -7
vt 7 -5.5
vt -7 8
vt -7 8
vt 7 -7
vt 8 -8
vt -7 8
vt -7 8
vt 963.803 15.75773
vt 963.803 13.7577
vt 963.375 15.75773
vt 963.375 13.75776
vt 967.803 24.74364
vt 969.803 24.74364
vt 967.803 24.48136
vt 969.803 24.48136
vt 971 24.74364
vt 971 24.48136
vn 0 0 1
vn 0 0 1
vn 0 0 1
vn 0 0 1
vn 0 0 1
vn 0 0 1
vn 0 0 1
vn 0 0 1
vn 0 0 1
vn 0 0 1
vn 0 0 1
vn 0 0 1
vn 0 0 1
vn 0 0 1
vn -1 0 0
vn -1 0 0
vn -1 0 0
vn -1 0 0
vn -1 0 0
vn -1 0 0
vn 1 0 0
vn 1 0 0
vn 1 0 0
vn 1 0 0
vn 0 1 0
vn 0 1 0
vn 0 1 0
vn 0 1 0
vn 0 1 0
vn 0 1 0
vn 0 1 0
vn 0 1 0
vn 0 1 0
vn 0 0 -1
vn 0 0 -1
vn 0 0 -1
vn 0 0 -1
vn 0 0 -1
vn 0 0 -1
vn 1 0 0
vn 1 0 0
vn 1 0 0
vn 1 0 0
vn -1 0 0
vn -1 0 0
vn -1 0 0
vn -1 0 0
vn 0 0 1
vn 0 0 1
vn 0 0 1
vn 0 0 1
vn 0 0 1
vn 0 0 1
vn 0 0 1
vn -1 0 0
vn -1 0 0
vn -1 0 0
vn -1 0 0
vn 1 0 0
vn 1 0 0
vn 1 0 0
vn 1 0 0
vn 0 0 -1
vn 0 0 -1
vn 0 0 -1
vn 0 0 -1
vn 1 0 0
vn 1 0 0
vn 0 0 -1
vn 0 0 -1
vn 1 0 0
vn 1 0 0
vn 1 0 0
vn 1 0 0
vn 1 0 0
vn 1 0 0
vn 1 0 0
vn 1 0 0
vn 1 0 0
vn 1 0 0
vn 1 0 0
vn 1 0 0
vn 1 0 0
vn 1 0 0
vn 0 0 -1
vn 0 0 -1
vn 0 0 -1
vn 0 0 -1
vn 1 0 0
vn 1 0 0
vn 1 0 0
vn 1 0 0
vn 1 0 0
vn 1 0 0
vn 1 0 0
vn 1 0 0
vn 0 0 -1
vn 0 0 -1
vn 0 0 -1
vn 0 0 -1
vn 0 0 -1
vn 0 0 -1
vn 0 0 -1
vn 0 0 -1
vn 0 0 -1
vn 0 0 -1
vn -1 0 0
vn -1 0 0
vn -1 0 0
vn -1 0 0
vn 0 0 -1
vn 0 0 -1
vn 0 0 -1
vn 0 0 -1
vn 0 0 -1
vn 0 0 -1
vn -1 0 0
vn -1 0 0
vn -1 0 0
vn -1 0 0
vn 0 0 1
vn 0 0 1
vn 0 0 1
vn 0 0 1
vn 0 0 -1
vn 0 0 -1
vn 0 0 -1
vn 0 0 -1
vn 0 1 0
vn 0 1 0
vn 0 1 0
vn 0 1 0
vn 0 1 0
vn 0 1 0
vn 0 -1 0
vn 0 -1 0
vn 0 -1 0
vn 0 -1 0
vn 0 0 1
vn 0 0 1
vn 1 0 0
vn 1 0 0
vn 1 0 0
vn 1 0 0
vn -1 0 0
vn -1 0 0
vn -1 0 0
vn -1 0 0
vn 0 -1 0
vn 0 -1 0
vn 0 -1 0
vn 0 -1 0
vn -1 0 0
vn -1 0 0
vn -1 0 0
vn -1 0 0
vn 0 1 0
vn 0 1 0
vn 0 1 0
vn 0 1 0
vn 0 0 -1
vn 0 0 -1
vn 0 0 -1
vn 0 0 -1
vn 0 0 -1
vn 0 0 -1
vn 1 0 0
vn 1 0 0
vn 1 0 0
vn 1 0 0
vn 0 0 -1
vn 0 0 -1
vn 0 0 -1
vn 0 0 -1
vn 0 0 -1
vn 0 0 -1
vn 0 0 -1
vn 0 0 -1
vn 1 0 0
vn 1 0 0
vn 1 0 0
vn 1 0 0
vn 0 1 0
vn 0 1 0
vn 0 1 0
vn 0 1 0
vn 0 0 -1
vn 0 0 -1
vn 0 0 -1
vn 0 0 -1
vn 0 -1 0
vn 0 -1 0
vn 0.001031395 0.9999992 0.0006875949
vn 0 1 0
vn 0.0003437996 0.9999997 0.0006875973
vn 0 1 0
vn 0 0 1
vn 0 0 1
vn 0 0 1
vn 0 0 1
vn -1 0 0
vn -1 0 0
vn -1 0 0
vn -1 0 0
vn 0.0003437996 0.9999997 0.0006875973
vn -0.02744456 0.9994766 0.01712812
vn 0.00226892 0.9999945 0.002420497
vn 0.001031395 0.9999992 0.0006875949
vn 0.002681187 0.9999926 0.002750376
vn -0.02744456 0.9994766 0.01712812
vn 0.002516642 0.9999934 0.002617504
vn 0.00226892 0.9999945 0.002420497
vn 0.06298432 0.9975397 0.03078103
vn 0.002516642 0.9999934 0.002617504
vn -0.02744456 0.9994766 0.01712812
vn 0.06388732 0.994715 0.08037677
vn 0.00226892 0.9999945 0.002420497
vn 0.002516642 0.9999934 0.002617504
vn 0.06412927 0.99468 0.0806163
vn 0.002681187 0.9999926 0.002750376
vn 0.06388732 0.994715 0.08037677
vn 0.2451939 0.9187081 0.3096051
vn 0.06412927 0.99468 0.0806163
vn 0.002516642 0.9999934 0.002617504
vn 0.004913499 0.9998983 0.01338697
vn 0.1614901 0.9868726 0.001847387
vn 0.06298432 0.9975397 0.03078103
vn -0.02744456 0.9994766 0.01712812
vn -0.2324518 0.972608 0
vn 0.09068252 0.9958116 0.01165245
vn 0.1802001 0.9835784 0.01007351
vn 0.004913499 0.9998983 0.01338697
vn -0.1431874 0.9896769 0.006087153
vn 0.03969013 0.9952341 -0.08907185
vn 0.09068252 0.9958116 0.01165245
vn 0.004913499 0.9998983 0.01338697
vn 0 1 0
vn 0 1 0
vn -0.06072558 0.9980152 -0.01667542
vn -0.1431874 0.9896769 0.006087153
vn 0.03969013 0.9952341 -0.08907185
vn -0.03551525 0.9948989 -0.09441897
vn 0.126094 0.9543966 -0.2706055
vn 0.03969013 0.9952341 -0.08907185
vn -0.06072558 0.9980152 -0.01667542
vn 0.03969013 0.9952341 -0.08907185
vn 0.2896821 0.949937 -0.1170643
vn 0.1802001 0.9835784 0.01007351
vn 0.09068252 0.9958116 0.01165245
vn 0.126094 0.9543966 -0.2706055
vn 0.2896821 0.949937 -0.1170643
vn 0.03969013 0.9952341 -0.08907185
vn 0.1885439 0.966306 -0.1752255
vn 0 1 0
vn 0 1 0
vn 0 1 0
vn 0 1 0
vn -0.06072558 0.9980152 -0.01667542
vn 0 0.9948012 -0.1018357
vn -0.03551525 0.9948989 -0.09441897
vn 0 1 0
vn 0 1 0
vn 0 1 0
vn 0 0.9948012 -0.1018357
vn 0 1 0
vn 0 0.9882329 -0.1529568
vn 0 1 0
vn 0 1 0
vn 0 1 0
vn 0 1 0
vn 0 1 0
vn 0 1 0
vn -0.02771703 0.9909126 -0.1316206
vn 0 0.9882329 -0.1529568
vn 0 1 0
vn 0 1 0
vn -0.04132529 0.9981657 -0.04424443
vn 0 1 0
vn 0 1 0
vn -0.04132529 0.9981657 -0.04424443
vn -0.02771703 0.9909126 -0.1316206
vn 0 1 0
vn -0.1643864 0.9705677 -0.1759983
vn -0.02771703 0.9909126 -0.1316206
vn -0.04132529 0.9981657 -0.04424443
vn 0.1614901 0.9868726 0.001847387
vn 0.1802001 0.9835784 0.01007351
vn 0.01284983 0.9999136 0.002750593
vn 0.02569745 0.9996698 0
vn 0 0.9948012 -0.1018357
vn 0 0.9882329 -0.1529568
vn 0 0.9532084 -0.3023138
vn 0 0.9532084 -0.3023138
vn -0.02771703 0.9909126 -0.1316206
vn 0 0.9532084 -0.3023138
g pb_Mesh416206_0
f 3/3/3 2/2/2 1/1/1
f 3/3/3 1/1/1 4/4/4
f 6/6/6 5/5/5 2/2/2
f 6/6/6 2/2/2 3/3/3
f 7/7/7 6/6/6 3/3/3
f 7/7/7 3/3/3 8/8/8
f 11/11/11 10/10/10 9/9/9
f 10/10/10 12/12/12 9/9/9
f 9/9/9 12/12/12 13/13/13
f 14/14/14 13/13/13 12/12/12
f 17/17/17 16/16/16 15/15/15
f 17/17/17 15/15/15 18/18/18
f 19/19/19 17/17/17 18/18/18
f 19/19/19 18/18/18 20/20/20
f 23/23/23 22/22/22 21/21/21
f 22/22/22 24/24/24 21/21/21
f 27/27/27 26/26/26 25/25/25
f 27/27/27 25/25/25 28/28/28
f 28/28/28 25/25/25 29/29/29
f 28/28/28 29/29/29 30/30/30
f 25/25/25 32/32/32 31/31/31
f 25/25/25 31/31/31 29/29/29
f 26/26/26 33/33/33 32/32/32
f 26/26/26 32/32/32 25/25/25
f 36/36/36 35/35/35 34/34/34
f 35/35/35 37/37/37 34/34/34
f 34/34/34 37/37/37 38/38/38
f 37/37/37 39/39/39 38/38/38
f 22/22/22 40/40/40 24/24/24
f 40/40/40 41/41/41 24/24/24
f 24/24/24 41/41/41 42/42/42
f 41/41/41 43/43/43 42/42/42
f 46/46/46 45/45/45 44/44/44
f 46/46/46 44/44/44 16/16/16
f 16/16/16 44/44/44 47/47/47
f 16/16/16 47/47/47 15/15/15
f 5/5/5 49/49/49 48/48/48
f 5/5/5 48/48/48 2/2/2
f 2/2/2 48/48/48 50/50/50
f 2/2/2 50/50/50 1/1/1
f 53/53/53 52/52/52 51/51/51
f 53/53/53 54/54/54 52/52/52
f 57/57/57 56/56/56 55/55/55
f 57/57/57 58/58/58 56/56/56
f 61/61/61 60/60/60 59/59/59
f 61/61/61 62/62/62 60/60/60
f 65/65/65 64/64/64 63/63/63
f 65/65/65 66/66/66 64/64/64
f 62/62/62 67/67/67 60/60/60
f 62/62/62 68/68/68 67/67/67
f 66/66/66 69/69/69 64/64/64
f 66/66/66 70/70/70 69/69/69
f 73/73/73 72/72/72 71/71/71
f 72/72/72 73/73/73 74/74/74
f 74/74/74 73/73/73 75/75/75
f 74/74/74 75/75/75 76/76/76
f 79/79/79 78/78/78 77/77/77
f 79/79/79 80/80/80 78/78/78
f 78/78/78 80/80/80 81/81/81
f 80/80/80 82/82/82 81/81/81
f 84/84/84 82/82/82 83/83/83
f 82/82/82 80/80/80 83/83/83
f 87/87/87 86/86/86 85/85/85
f 86/86/86 88/88/88 85/85/85
f 91/91/91 90/90/90 89/89/89
f 90/90/90 92/92/92 89/89/89
f 95/95/95 94/94/94 93/93/93
f 94/94/94 96/96/96 93/93/93
f 99/99/99 98/98/98 97/97/97
f 98/98/98 100/100/100 97/97/97
f 98/98/98 101/101/101 100/100/100
f 101/101/101 102/102/102 100/100/100
f 105/105/105 104/104/104 103/103/103
f 104/104/104 106/106/106 103/103/103
f 107/107/107 16/16/16 17/17/17
f 16/16/16 107/107/107 46/46/46
f 46/46/46 107/107/107 108/108/108
f 108/108/108 109/109/109 46/46/46
f 110/110/110 107/107/107 17/17/17
f 110/110/110 17/17/17 19/19/19
f 113/113/113 112/112/112 111/111/111
f 112/112/112 114/114/114 111/111/111
f 103/103/103 106/106/106 115/115/115
f 106/106/106 116/116/116 115/115/115
f 117/117/117 108/108/108 107/107/107
f 117/117/117 107/107/107 110/110/110
f 119/119/119 109/109/109 118/118/118
f 119/119/119 118/118/118 120/120/120
f 123/123/123 122/122/122 121/121/121
f 123/123/123 124/124/124 122/122/122
f 127/127/127 126/126/126 125/125/125
f 127/127/127 128/128/128 126/126/126
f 131/131/131 130/130/130 129/129/129
f 131/131/131 132/132/132 130/130/130
f 134/134/134 129/129/129 133/133/133
f 134/134/134 131/131/131 129/129/129
f 137/137/137 136/136/136 135/135/135
f 137/137/137 138/138/138 136/136/136
f 140/140/140 121/121/121 139/139/139
f 140/140/140 123/123/123 121/121/121
f 143/143/143 142/142/142 141/141/141
f 143/143/143 144/144/144 142/142/142
f 147/147/147 146/146/146 145/145/145
f 147/147/147 148/148/148 146/146/146
f 151/151/151 150/150/150 149/149/149
f 151/151/151 152/152/152 150/150/150
f 155/155/155 154/154/154 153/153/153
f 155/155/155 156/156/156 154/154/154
f 159/159/159 158/158/158 157/157/157
f 159/159/159 160/160/160 158/158/158
f 162/162/162 36/36/36 161/161/161
f 36/36/36 34/34/34 161/161/161
f 164/164/164 99/99/99 163/163/163
f 165/165/165 164/164/164 163/163/163
f 165/165/165 166/166/166 164/164/164
f 169/169/169 168/168/168 167/167/167
f 168/168/168 170/170/170 167/167/167
f 171/171/171 88/88/88 86/86/86
f 171/171/171 86/86/86 162/162/162
f 162/162/162 161/161/161 171/171/171
f 162/162/162 86/86/86 172/172/172
f 173/173/173 162/162/162 172/172/172
f 175/175/175 116/116/116 174/174/174
f 174/174/174 176/176/176 175/175/175
f 174/174/174 177/177/177 176/176/176
f 174/174/174 116/116/116 178/178/178
f 178/178/178 116/116/116 106/106/106
f 104/104/104 178/178/178 106/106/106
f 181/181/181 180/180/180 179/179/179
f 180/180/180 182/182/182 179/179/179
f 141/141/141 181/181/181 143/143/143
f 181/181/181 179/179/179 143/143/143
f 185/185/185 184/184/184 183/183/183
f 185/185/185 186/186/186 184/184/184
f 189/189/189 188/188/188 187/187/187
f 189/189/189 190/190/190 188/188/188
f 191/191/191 150/150/150 152/152/152
f 191/191/191 192/192/192 150/150/150
g pb_Mesh416206_1
f 195/195/195 194/194/194 193/193/193
f 195/195/195 196/196/196 194/194/194
f 199/199/199 198/198/198 197/197/197
f 199/199/199 200/200/200 198/198/198
f 203/203/203 202/202/202 201/201/201
f 203/203/203 204/204/204 202/202/202
f 207/207/207 206/206/206 205/205/205
f 208/208/208 207/207/207 205/205/205
f 209/209/209 207/207/207 208/208/208
f 212/212/212 211/211/211 210/210/210
f 215/215/215 214/214/214 213/213/213
f 214/214/214 216/216/216 213/213/213
f 219/219/219 218/218/218 217/217/217
f 219/219/219 217/217/217 220/220/220
f 223/223/223 222/222/222 221/221/221
f 224/224/224 223/223/223 221/221/221
f 227/227/227 226/226/226 225/225/225
f 225/225/225 229/229/229 228/228/228
f 227/227/227 225/225/225 228/228/228
f 226/226/226 231/231/231 230/230/230
f 226/226/226 230/230/230 232/232/232
f 235/235/235 234/234/234 233/233/233
f 229/229/229 235/235/235 233/233/233
f 229/229/229 236/236/236 235/235/235
f 239/239/239 238/238/238 237/237/237
f 240/240/240 239/239/239 237/237/237
f 240/240/240 241/241/241 239/239/239
f 244/244/244 243/243/243 242/242/242
f 244/244/244 242/242/242 245/245/245
f 248/248/248 247/247/247 246/246/246
f 248/248/248 246/246/246 249/249/249
f 252/252/252 251/251/251 250/250/250
f 251/251/251 253/253/253 250/250/250
f 196/196/196 255/255/255 254/254/254
f 196/196/196 254/254/254 256/256/256
f 194/194/194 196/196/196 256/256/256
f 258/258/258 257/257/257 238/238/238
f 257/257/257 258/258/258 259/259/259
f 258/258/258 260/260/260 259/259/259
f 238/238/238 257/257/257 261/261/261
f 237/237/237 238/238/238 261/261/261
f 263/263/263 261/261/261 262/262/262
f 237/237/237 261/261/261 263/263/263
f 266/266/266 265/265/265 264/264/264
f 265/265/265 257/257/257 264/264/264
f 256/256/256 268/268/268 267/267/267
f 256/256/256 254/254/254 268/268/268
f 271/271/271 270/270/270 269/269/269
f 255/255/255 271/271/271 269/269/269
f 255/255/255 269/269/269 254/254/254
f 274/274/274 273/273/273 272/272/272
f 275/275/275 274/274/274 272/272/272
f 278/278/278 277/277/277 276/276/276
f 279/279/279 278/278/278 276/276/276
f 282/282/282 281/281/281 280/280/280
f 285/285/285 284/284/284 283/283/283
g pb_Mesh416206_2
f 288/288/288 287/287/287 286/286/286
f 288/288/288 289/289/289 287/287/287
g pb_Mesh416206_3
f 292/292/292 291/291/291 290/290/290
f 292/292/292 293/293/293 291/291/291
f 293/293/293 294/294/294 291/291/291
f 293/293/293 295/295/295 294/294/294
