g pb_Mesh224756
v -2.041561 -2.951852E-06 3.078715
v -4.144952 -4.442916E-06 1.106397
v -1.372207 0.354105 1.976757
v -2.088461 0.9104002 1.106359
v -1.791183 -5.188448E-06 -0.3261128
v -0.7611686 -2.20632E-06 0.684293
v -1.625895 0.002089259 -0.8560573
v -0.7611686 -2.20632E-06 0.684293
v -0.7611686 0.007027384 0.684293
v -1.625895 0.002089259 -0.8560573
v -0.3722025 -1.460788E-06 1.10645
v -1.069326 -0.4320389 2.106379
v -0.3722025 -0.01171184 1.10645
v -1.069326 -0.4320389 2.106379
v -0.2285328 -0.0004695306 2.106409
v -0.3722025 -0.01171184 1.10645
v -1.069326 -0.4320389 2.106379
v -2.041561 -2.951852E-06 3.078715
v -0.2285328 -0.0004695306 2.106409
v -2.041561 -2.951852E-06 3.078715
v -1.372207 0.354105 1.976757
v -0.2285328 -0.0004695306 2.106409
v -1.372207 0.354105 1.976757
v -2.088461 0.9104002 1.106359
v -0.2285328 -0.0004695306 2.106409
v -0.3722025 -0.01171184 1.10645
v -1.069326 -0.4320389 2.106379
v -0.3722025 -1.460788E-06 1.10645
v -2.041561 -2.951852E-06 3.078715
v -0.3722025 -1.460788E-06 1.10645
v -4.144952 -4.442916E-06 1.106397
v -2.041561 -2.951852E-06 3.078715
v -4.144952 -4.442916E-06 1.106397
v -0.3722025 -1.460788E-06 1.10645
v -1.791183 -5.188448E-06 -0.3261128
v -0.7611686 -2.20632E-06 0.684293
v -2.088461 0.9104002 1.106359
v -4.144952 -4.442916E-06 1.106397
v -1.625895 0.002089259 -0.8560573
v -4.144952 -4.442916E-06 1.106397
v -1.791183 -5.188448E-06 -0.3261128
v -1.625895 0.002089259 -0.8560573
v -0.3722025 -1.460788E-06 1.10645
v -0.3722025 -0.01171184 1.10645
v -0.7611686 -2.20632E-06 0.684293
v -0.3722025 -0.01171184 1.10645
v -0.7611686 0.007027384 0.684293
v -0.7611686 -2.20632E-06 0.684293
v -0.3722025 -0.01171184 1.10645
v -2.088461 0.9104002 1.106359
v -0.7611686 0.007027384 0.684293
v -1.625895 0.002089259 -0.8560573
vt 2.004949 2.94244
vt 4.070621 0.9306501
vt 1.280838 1.818429
vt 1.879367 0.830801
vt -1.791175 -0.3261274
vt -0.7611653 0.684283
vt -1.625881 -0.8560743
vt -0.7611653 0.684283
vt -0.7611443 0.6842617
vt -1.625881 -0.8560743
vt 1.120507 -1.460788E-06
vt 2.339458 -0.4320389
vt 1.120507 -0.01171184
vt 2.339458 -0.4320389
vt 1.858628 -0.0004695306
vt 1.120507 -0.01171184
vt -1.148616 1.670831
vt -1.816297 2.948146
vt -0.203531 1.67087
vt -1.816297 2.948146
vt -1.059106 2.11539
vt -0.203531 1.67087
vt 1.41715 1.831198
vt 2.251015 0.8905897
vt 0.220951 1.971309
vt 0.3570797 1.063919
vt 2.29862 -0.5566151
vt 1.085004 -0.1098138
vt 3.668913 -0.1098153
vt 1.085004 -0.1098138
vt 3.522383 0.6243458
vt 3.668913 -0.1098153
vt -4.144952 1.106397
vt -0.3722025 1.10645
vt -1.791183 -0.3261128
vt -0.7611686 0.684293
vt 1.541147 1.754647
vt 3.790145 1.754689
vt 1.485872 -0.4560134
vt 3.790145 1.754689
vt 1.637859 0.04434607
vt 1.485872 -0.4560134
vt 0.5615057 -1.460788E-06
vt 0.5615057 -0.01171184
vt -0.01252496 -2.20632E-06
vt 0.5615057 -0.01171184
vt -0.01252496 0.007027384
vt -0.01252496 -2.20632E-06
vt 0.3223285 0.9595664
vt 2.270618 0.9594687
vt 0.6738368 0.5053591
vt 1.433233 -1.078922
vn -0.1848345 0.9627985 0.1971173
vn -0.2415498 0.818285 0.4365934
vn -0.2415498 0.818285 0.4365934
vn -0.298265 0.6737716 0.6760695
vn 0.002970863 -0.999991 -0.003025565
vn 0.4374812 -0.4999955 -0.2462733
vn 0.4374812 -0.4999955 -0.2462733
vn 0.4374812 -0.4999955 -0.2462733
vn 0.8719915 0 -0.489521
vn 0.4374812 -0.4999955 -0.2462733
vn -0.8203201 0 -0.5719048
vn -0.1821884 -0.4441377 -0.313713
vn -0.1821884 -0.4441377 -0.313713
vn -0.1821884 -0.4441377 -0.313713
vn 0.4559433 -0.8882753 -0.05552128
vn -0.1821884 -0.4441377 -0.313713
vn 0.3475966 -0.6772399 0.6484773
vn 0.2863592 0.1011132 0.5339165
vn 0.2863592 0.1011132 0.5339165
vn 0.2863592 0.1011132 0.5339165
vn 0.2251219 0.8794663 0.4193556
vn 0.2863592 0.1011132 0.5339165
vn 0.2345442 0.8951381 0.3791001
vn 0.3532053 0.8866902 0.1507152
vn 0.3532053 0.8866902 0.1507152
vn 0.4718665 0.8782423 -0.07766961
vn -0.7380654 -0.2549418 -0.6247113
vn -0.3690323 -0.6274709 -0.3123557
vn -0.3690323 -0.6274709 -0.3123557
vn -0.3690323 -0.6274709 -0.3123557
vn 7.904401E-07 -1 -8.697442E-08
vn -0.3690323 -0.6274709 -0.3123557
vn 7.904131E-07 -1 1.819173E-06
vn 6.441468E-06 -1 -3.778302E-06
vn 6.441468E-06 -1 -3.778302E-06
vn 1.209252E-05 -1 -9.375776E-06
vn -0.3593544 0.8117182 -0.4604107
vn -0.1811618 -0.09413278 -0.2326445
vn -0.1811618 -0.09413278 -0.2326445
vn -0.1811618 -0.09413278 -0.2326445
vn -0.002969216 -0.9999837 -0.004878226
vn -0.1811618 -0.09413278 -0.2326445
vn -0.7354259 0 0.6776052
vn 0 0 0
vn 0 0 0
vn 0 0 0
vn 0.7354259 0 -0.6776052
vn 0 0 0
vn 0.4399111 0.8187375 -0.3689812
vn 0.4602768 0.8261206 -0.3207388
vn 0.4602768 0.8261206 -0.3207388
vn 0.4806425 0.8335038 -0.2724964
g pb_Mesh224756_0
f 3/3/3 2/2/2 1/1/1
f 3/3/3 4/4/4 2/2/2
f 7/7/7 6/6/6 5/5/5
f 10/10/10 9/9/9 8/8/8
f 13/13/13 12/12/12 11/11/11
f 16/16/16 15/15/15 14/14/14
f 19/19/19 18/18/18 17/17/17
f 22/22/22 21/21/21 20/20/20
f 25/25/25 24/24/24 23/23/23
f 25/25/25 26/26/26 24/24/24
f 29/29/29 28/28/28 27/27/27
f 32/32/32 31/31/31 30/30/30
f 35/35/35 34/34/34 33/33/33
f 35/35/35 36/36/36 34/34/34
f 39/39/39 38/38/38 37/37/37
f 42/42/42 41/41/41 40/40/40
f 45/45/45 44/44/44 43/43/43
f 48/48/48 47/47/47 46/46/46
f 51/51/51 50/50/50 49/49/49
f 51/51/51 52/52/52 50/50/50
