g pb_Mesh221600
v -16 2 -25
v -9 2 -27
v -9 2 -25
v -16 2 -27
v -9 16 -8
v -7 12 -8
v -7 16 -8
v -9 12 -8
v -7 12 -25
v -9 12 -25
v -9 16 -25
v -7 16 -25
v -7 12 -27
v -9 12 -27
v -9 12 -25
v -7 12 -25
v -9 0 -27
v -7 0 -27
v -7 0 -25
v -9 0 -25
v -7 16 -8
v -9 16 -13
v -9 16 -8
v -7 16 -13
v -9 0 -13
v -7 0 -13
v -7 0 -8
v -9 0 -8
v -16 16 -13
v -16 12 -8
v -16 16 -8
v -16 12 -13
v 0 12 -8
v 0 12 -13
v 0 16 -13
v 0 16 -8
v -7 16 -21
v -9 16 -25
v -9 16 -21
v -7 16 -25
v -7 0 -21
v -9 0 -21
v -16 16 -25
v -16 12 -21
v -16 16 -21
v -16 12 -25
v 0 12 -21
v 0 12 -25
v 0 16 -25
v 0 16 -21
v -4 16 -8
v 0 12 -8
v 0 16 -8
v -4 12 -8
v 0 12 -25
v -4 12 -25
v -4 16 -25
v 0 16 -25
v -4 16 -8
v -4 16 -13
v 0 16 -8
v 0 16 -13
v -4 0 -13
v -4 0 -8
v 0 0 -13
v 0 0 -8
v -4 16 -21
v -4 16 -25
v 0 16 -21
v 0 16 -25
v -4 0 -25
v -4 0 -21
v 0 0 -25
v 0 0 -21
v -12 16 -8
v -12 12 -8
v -12 12 -25
v -12 16 -25
v -12 16 -13
v -12 16 -8
v -12 0 -13
v -12 0 -8
v -12 16 -25
v -12 16 -21
v -12 0 -25
v -12 0 -21
v -9 2 -8
v -7 0 -8
v -7 2 -8
v -9 0 -8
v -7 0 -25
v -7 0 -27
v -7 2 -27
v -7 2 -25
v -7 12 -27
v -7 12 -25
v -9 2 -27
v -9 0 -25
v -9 2 -25
v -9 0 -27
v -16 2 -13
v -16 0 -8
v -16 2 -8
v -16 0 -13
v 0 0 -8
v 0 0 -13
v 0 2 -13
v 0 2 -8
v -16 2 -25
v -16 0 -21
v -16 2 -21
v -16 0 -25
v 0 0 -21
v 0 0 -25
v 0 2 -25
v 0 2 -21
v -4 2 -8
v 0 0 -8
v 0 2 -8
v -4 0 -8
v 0 0 -25
v -4 0 -25
v -4 2 -25
v 0 2 -25
v -7 0 -25
v -7 2 -25
v -12 2 -8
v -12 0 -8
v -9 0 -25
v -12 0 -25
v -12 2 -25
v -9 2 -25
v -7 16 -19
v -9 16 -19
v -7 0 -19
v -9 0 -19
v -16 16 -19
v -16 12 -19
v 0 12 -19
v 0 16 -19
v -4 16 -19
v 0 16 -19
v -4 0 -19
v 0 0 -19
v -12 16 -19
v -12 5.00679E-05 -19
v -16 2 -19
v -16 0 -19
v 0 0 -19
v 0 2 -19
v -14 16 -8
v -14 12 -8
v -16 16 -8
v -16 12 -8
v -14 12 -25
v -14 16 -25
v -16 12 -25
v -16 16 -25
v -14 16 -8
v -16 16 -13
v -16 16 -8
v -14 16 -13
v -16 0 -13
v -14 0 -13
v -14 0 -8
v -16 0 -8
v -14 16 -21
v -16 16 -25
v -16 16 -21
v -14 16 -25
v -16 0 -25
v -14 0 -25
v -14 0 -21
v -16 0 -21
v -14 2 -8
v -14 0 -8
v -16 2 -8
v -16 0 -8
v -14 0 -25
v -14 2 -25
v -16 0 -25
v -16 2 -25
v -14 16 -19
v -16 16 -19
v -14 5.00679E-05 -19
v -16 0 -19
vt 16 -25
vt 9 -27
vt 9 -25
vt 16 -27
vt 9 16
vt 7 12
vt 7 16
vt 9 12
vt -7 12
vt -9 12
vt -9 16
vt -7 16
vt -7 -27
vt -9 -27
vt -9 -25
vt -7 -25
vt 9 -27
vt 7 -27
vt 7 -25
vt 9 -25
vt -7 -8
vt -9 -13
vt -9 -8
vt -7 -13
vt 9 -13
vt 7 -13
vt 7 -8
vt 9 -8
vt 13 16
vt 8 12
vt 8 16
vt 13 12
vt -8 12
vt -13 12
vt -13 16
vt -8 16
vt -7 -21
vt -9 -25
vt -9 -21
vt -7 -25
vt 7 -21
vt 9 -21
vt 25 16
vt 21 12
vt 21 16
vt 25 12
vt -21 12
vt -25 12
vt -25 16
vt -21 16
vt 4 16
vt 0 12
vt 0 16
vt 4 12
vt 0 12
vt -4 12
vt -4 16
vt 0 16
vt -4 -8
vt -4 -13
vt 0 -8
vt 0 -13
vt 4 -13
vt 4 -8
vt 0 -13
vt 0 -8
vt -4 -21
vt -4 -25
vt 0 -21
vt 0 -25
vt 4 -25
vt 4 -21
vt 0 -25
vt 0 -21
vt 12 16
vt 12 12
vt -12 12
vt -12 16
vt -12 -13
vt -12 -8
vt 12 -13
vt 12 -8
vt -12 -25
vt -12 -21
vt 12 -25
vt 12 -21
vt 9 2
vt 7 0
vt 7 2
vt 9 0
vt -25 0
vt -27 0
vt -27 2
vt -25 2
vt -27 12
vt -25 12
vt 27 2
vt 25 0
vt 25 2
vt 27 0
vt 13 2
vt 8 0
vt 8 2
vt 13 0
vt -8 0
vt -13 0
vt -13 2
vt -8 2
vt 25 2
vt 21 0
vt 21 2
vt 25 0
vt -21 0
vt -25 0
vt -25 2
vt -21 2
vt 4 2
vt 0 0
vt 0 2
vt 4 0
vt 0 0
vt -4 0
vt -4 2
vt 0 2
vt -7 0
vt -7 2
vt 12 2
vt 12 0
vt -9 0
vt -12 0
vt -12 2
vt -9 2
vt -7 -19
vt -9 -19
vt 7 -19
vt 9 -19
vt 19 16
vt 19 12
vt -19 12
vt -19 16
vt -4 -19
vt 0 -19
vt 4 -19
vt 0 -19
vt -12 -19
vt 12 -19
vt 19 2
vt 19 0
vt -19 0
vt -19 2
vt 14 16
vt 14 12
vt 16 16
vt 16 12
vt -14 12
vt -14 16
vt -16 12
vt -16 16
vt -14 -8
vt -16 -13
vt -16 -8
vt -14 -13
vt 16 -13
vt 14 -13
vt 14 -8
vt 16 -8
vt -14 -21
vt -16 -25
vt -16 -21
vt -14 -25
vt 16 -25
vt 14 -25
vt 14 -21
vt 16 -21
vt 14 2
vt 14 0
vt 16 2
vt 16 0
vt -14 0
vt -14 2
vt -16 0
vt -16 2
vt -14 -19
vt -16 -19
vt 14 -19
vt 16 -19
vn 0 1 0
vn 0 1 0
vn 0 1 0
vn 0 1 0
vn 0 0 -1
vn 0 0 -1
vn 0 0 -1
vn 0 0 -1
vn 0 0 1
vn 0 0 1
vn 0 0 1
vn 0 0 1
vn 0 -1 0
vn 0 -1 0
vn 0 -1 0
vn 0 -1 0
vn 0 1 0
vn 0 1 0
vn 0 1 0
vn 0 1 0
vn 0 -1 0
vn 0 -1 0
vn 0 -1 0
vn 0 -1 0
vn 0 1 0
vn 0 1 0
vn 0 1 0
vn 0 1 0
vn 1 0 0
vn 1 0 0
vn 1 0 0
vn 1 0 0
vn -1 0 0
vn -1 0 0
vn -1 0 0
vn -1 0 0
vn 0 -1 0
vn 0 -1 0
vn 0 -1 0
vn 0 -1 0
vn 0 1 0
vn 0 1 0
vn 1 0 0
vn 1 0 0
vn 1 0 0
vn 1 0 0
vn -1 0 0
vn -1 0 0
vn -1 0 0
vn -1 0 0
vn 0 0 -1
vn 0 0 -1
vn 0 0 -1
vn 0 0 -1
vn 0 0 1
vn 0 0 1
vn 0 0 1
vn 0 0 1
vn 0 -1 0
vn 0 -1 0
vn 0 -1 0
vn 0 -1 0
vn 0 1 0
vn 0 1 0
vn 0 1 0
vn 0 1 0
vn 0 -1 0
vn 0 -1 0
vn 0 -1 0
vn 0 -1 0
vn 0 1 0
vn 0 1 0
vn 0 1 0
vn 0 1 0
vn 0 0 -1
vn 0 0 -1
vn 0 0 1
vn 0 0 1
vn 0 -1 0
vn 0 -1 0
vn 0 1 0
vn 0 1 0
vn 0 -1 0
vn 0 -1 0
vn 0 1 0
vn 0 1 0
vn 0 0 -1
vn 0 0 -1
vn 0 0 -1
vn 0 0 -1
vn -1 0 0
vn -1 0 0
vn -1 0 0
vn -1 0 0
vn -1 0 0
vn -1 0 0
vn 1 0 0
vn 1 0 0
vn 1 0 0
vn 1 0 0
vn 1 0 0
vn 1 0 0
vn 1 0 0
vn 1 0 0
vn -1 0 0
vn -1 0 0
vn -1 0 0
vn -1 0 0
vn 1 0 0
vn 1 0 0
vn 1 0 0
vn 1 0 0
vn -1 0 0
vn -1 0 0
vn -1 0 0
vn -1 0 0
vn 0 0 -1
vn 0 0 -1
vn 0 0 -1
vn 0 0 -1
vn 0 0 1
vn 0 0 1
vn 0 0 1
vn 0 0 1
vn 0 0 1
vn 0 0 1
vn 0 0 -1
vn 0 0 -1
vn 0 0 1
vn 0 0 1
vn 0 0 1
vn 0 0 1
vn 0 -1 0
vn 0 -1 0
vn 0 1 0
vn 0 1 0
vn 1 0 0
vn 1 0 0
vn -1 0 0
vn -1 0 0
vn 0 -1 0
vn 0 -1 0
vn 0 1 0
vn 0 1 0
vn 0 -1 0
vn 1.66893E-05 1 -2.503395E-05
vn 1 0 0
vn 1 0 0
vn -1 0 0
vn -1 0 0
vn 0 0 -1
vn 0 0 -1
vn 0 0 -1
vn 0 0 -1
vn 0 0 1
vn 0 0 1
vn 0 0 1
vn 0 0 1
vn 0 -1 0
vn 0 -1 0
vn 0 -1 0
vn 0 -1 0
vn 0 1 0
vn 0 1 0
vn 0 1 0
vn 0 1 0
vn 0 -1 0
vn 0 -1 0
vn 0 -1 0
vn 0 -1 0
vn 0 1 0
vn 0 1 0
vn 0 1 0
vn 0 1 0
vn 0 0 -1
vn 0 0 -1
vn 0 0 -1
vn 0 0 -1
vn 0 0 1
vn 0 0 1
vn 0 0 1
vn 0 0 1
vn 0 -1 0
vn 0 -1 0
vn -1.251698E-05 1 -1.251698E-05
vn -2.503395E-05 1 0
g pb_Mesh221600_0
f 3/3/3 2/2/2 1/1/1
f 2/2/2 4/4/4 1/1/1
g pb_Mesh221600_1
f 7/7/7 6/6/6 5/5/5
f 6/6/6 8/8/8 5/5/5
f 11/11/11 10/10/10 9/9/9
f 11/11/11 9/9/9 12/12/12
f 15/15/15 14/14/14 13/13/13
f 16/16/16 15/15/15 13/13/13
f 19/19/19 18/18/18 17/17/17
f 20/20/20 19/19/19 17/17/17
f 23/23/23 22/22/22 21/21/21
f 22/22/22 24/24/24 21/21/21
f 27/27/27 26/26/26 25/25/25
f 27/27/27 25/25/25 28/28/28
f 31/31/31 30/30/30 29/29/29
f 30/30/30 32/32/32 29/29/29
f 35/35/35 34/34/34 33/33/33
f 35/35/35 33/33/33 36/36/36
f 39/39/39 38/38/38 37/37/37
f 38/38/38 40/40/40 37/37/37
f 41/41/41 19/19/19 20/20/20
f 41/41/41 20/20/20 42/42/42
f 45/45/45 44/44/44 43/43/43
f 44/44/44 46/46/46 43/43/43
f 49/49/49 48/48/48 47/47/47
f 49/49/49 47/47/47 50/50/50
f 53/53/53 52/52/52 51/51/51
f 52/52/52 54/54/54 51/51/51
f 51/51/51 54/54/54 7/7/7
f 54/54/54 6/6/6 7/7/7
f 57/57/57 56/56/56 55/55/55
f 57/57/57 55/55/55 58/58/58
f 12/12/12 9/9/9 56/56/56
f 12/12/12 56/56/56 57/57/57
f 21/21/21 24/24/24 59/59/59
f 24/24/24 60/60/60 59/59/59
f 59/59/59 60/60/60 61/61/61
f 60/60/60 62/62/62 61/61/61
f 64/64/64 63/63/63 26/26/26
f 64/64/64 26/26/26 27/27/27
f 66/66/66 65/65/65 63/63/63
f 66/66/66 63/63/63 64/64/64
f 37/37/37 40/40/40 67/67/67
f 40/40/40 68/68/68 67/67/67
f 67/67/67 68/68/68 69/69/69
f 68/68/68 70/70/70 69/69/69
f 72/72/72 71/71/71 19/19/19
f 72/72/72 19/19/19 41/41/41
f 74/74/74 73/73/73 71/71/71
f 74/74/74 71/71/71 72/72/72
f 5/5/5 8/8/8 75/75/75
f 8/8/8 76/76/76 75/75/75
f 78/78/78 77/77/77 10/10/10
f 78/78/78 10/10/10 11/11/11
f 80/80/80 79/79/79 23/23/23
f 79/79/79 22/22/22 23/23/23
f 28/28/28 25/25/25 81/81/81
f 28/28/28 81/81/81 82/82/82
f 84/84/84 83/83/83 39/39/39
f 83/83/83 38/38/38 39/39/39
f 42/42/42 20/20/20 85/85/85
f 42/42/42 85/85/85 86/86/86
f 89/89/89 88/88/88 87/87/87
f 88/88/88 90/90/90 87/87/87
f 6/6/6 89/89/89 8/8/8
f 89/89/89 87/87/87 8/8/8
f 93/93/93 92/92/92 91/91/91
f 93/93/93 91/91/91 94/94/94
f 95/95/95 93/93/93 94/94/94
f 95/95/95 94/94/94 96/96/96
f 99/99/99 98/98/98 97/97/97
f 98/98/98 100/100/100 97/97/97
f 103/103/103 102/102/102 101/101/101
f 102/102/102 104/104/104 101/101/101
f 30/30/30 103/103/103 32/32/32
f 103/103/103 101/101/101 32/32/32
f 107/107/107 106/106/106 105/105/105
f 107/107/107 105/105/105 108/108/108
f 34/34/34 107/107/107 108/108/108
f 34/34/34 108/108/108 33/33/33
f 111/111/111 110/110/110 109/109/109
f 110/110/110 112/112/112 109/109/109
f 44/44/44 111/111/111 46/46/46
f 111/111/111 109/109/109 46/46/46
f 115/115/115 114/114/114 113/113/113
f 115/115/115 113/113/113 116/116/116
f 48/48/48 115/115/115 116/116/116
f 48/48/48 116/116/116 47/47/47
f 119/119/119 118/118/118 117/117/117
f 118/118/118 120/120/120 117/117/117
f 52/52/52 119/119/119 54/54/54
f 119/119/119 117/117/117 54/54/54
f 117/117/117 120/120/120 89/89/89
f 120/120/120 88/88/88 89/89/89
f 54/54/54 117/117/117 6/6/6
f 117/117/117 89/89/89 6/6/6
f 123/123/123 122/122/122 121/121/121
f 123/123/123 121/121/121 124/124/124
f 56/56/56 123/123/123 124/124/124
f 56/56/56 124/124/124 55/55/55
f 126/126/126 125/125/125 122/122/122
f 126/126/126 122/122/122 123/123/123
f 9/9/9 126/126/126 123/123/123
f 9/9/9 123/123/123 56/56/56
f 87/87/87 90/90/90 127/127/127
f 90/90/90 128/128/128 127/127/127
f 8/8/8 87/87/87 76/76/76
f 87/87/87 127/127/127 76/76/76
f 131/131/131 130/130/130 129/129/129
f 131/131/131 129/129/129 132/132/132
f 77/77/77 131/131/131 132/132/132
f 77/77/77 132/132/132 10/10/10
f 134/134/134 39/39/39 133/133/133
f 39/39/39 37/37/37 133/133/133
f 22/22/22 134/134/134 24/24/24
f 134/134/134 133/133/133 24/24/24
f 135/135/135 41/41/41 42/42/42
f 135/135/135 42/42/42 136/136/136
f 26/26/26 135/135/135 136/136/136
f 26/26/26 136/136/136 25/25/25
f 29/29/29 32/32/32 137/137/137
f 32/32/32 138/138/138 137/137/137
f 137/137/137 138/138/138 45/45/45
f 138/138/138 44/44/44 45/45/45
f 140/140/140 139/139/139 34/34/34
f 140/140/140 34/34/34 35/35/35
f 50/50/50 47/47/47 139/139/139
f 50/50/50 139/139/139 140/140/140
f 133/133/133 37/37/37 141/141/141
f 37/37/37 67/67/67 141/141/141
f 24/24/24 133/133/133 60/60/60
f 133/133/133 141/141/141 60/60/60
f 141/141/141 67/67/67 142/142/142
f 67/67/67 69/69/69 142/142/142
f 60/60/60 141/141/141 62/62/62
f 141/141/141 142/142/142 62/62/62
f 143/143/143 72/72/72 41/41/41
f 143/143/143 41/41/41 135/135/135
f 63/63/63 143/143/143 135/135/135
f 63/63/63 135/135/135 26/26/26
f 144/144/144 74/74/74 72/72/72
f 144/144/144 72/72/72 143/143/143
f 65/65/65 144/144/144 143/143/143
f 65/65/65 143/143/143 63/63/63
f 145/145/145 84/84/84 134/134/134
f 84/84/84 39/39/39 134/134/134
f 79/79/79 145/145/145 22/22/22
f 145/145/145 134/134/134 22/22/22
f 136/136/136 42/42/42 86/86/86
f 136/136/136 86/86/86 146/146/146
f 25/25/25 136/136/136 146/146/146
f 25/25/25 146/146/146 81/81/81
f 101/101/101 104/104/104 147/147/147
f 104/104/104 148/148/148 147/147/147
f 147/147/147 148/148/148 111/111/111
f 148/148/148 110/110/110 111/111/111
f 32/32/32 101/101/101 138/138/138
f 101/101/101 147/147/147 138/138/138
f 138/138/138 147/147/147 44/44/44
f 147/147/147 111/111/111 44/44/44
f 150/150/150 149/149/149 106/106/106
f 150/150/150 106/106/106 107/107/107
f 116/116/116 113/113/113 149/149/149
f 116/116/116 149/149/149 150/150/150
f 139/139/139 150/150/150 107/107/107
f 139/139/139 107/107/107 34/34/34
f 47/47/47 116/116/116 150/150/150
f 47/47/47 150/150/150 139/139/139
f 75/75/75 76/76/76 151/151/151
f 76/76/76 152/152/152 151/151/151
f 151/151/151 152/152/152 153/153/153
f 152/152/152 154/154/154 153/153/153
f 156/156/156 155/155/155 77/77/77
f 156/156/156 77/77/77 78/78/78
f 158/158/158 157/157/157 155/155/155
f 158/158/158 155/155/155 156/156/156
f 161/161/161 160/160/160 159/159/159
f 160/160/160 162/162/162 159/159/159
f 159/159/159 162/162/162 80/80/80
f 162/162/162 79/79/79 80/80/80
f 165/165/165 164/164/164 163/163/163
f 165/165/165 163/163/163 166/166/166
f 82/82/82 81/81/81 164/164/164
f 82/82/82 164/164/164 165/165/165
f 169/169/169 168/168/168 167/167/167
f 168/168/168 170/170/170 167/167/167
f 167/167/167 170/170/170 84/84/84
f 170/170/170 83/83/83 84/84/84
f 173/173/173 172/172/172 171/171/171
f 173/173/173 171/171/171 174/174/174
f 86/86/86 85/85/85 172/172/172
f 86/86/86 172/172/172 173/173/173
f 127/127/127 128/128/128 175/175/175
f 128/128/128 176/176/176 175/175/175
f 175/175/175 176/176/176 177/177/177
f 176/176/176 178/178/178 177/177/177
f 76/76/76 127/127/127 152/152/152
f 127/127/127 175/175/175 152/152/152
f 152/152/152 175/175/175 154/154/154
f 175/175/175 177/177/177 154/154/154
f 180/180/180 179/179/179 130/130/130
f 180/180/180 130/130/130 131/131/131
f 182/182/182 181/181/181 179/179/179
f 182/182/182 179/179/179 180/180/180
f 155/155/155 180/180/180 131/131/131
f 155/155/155 131/131/131 77/77/77
f 157/157/157 182/182/182 180/180/180
f 157/157/157 180/180/180 155/155/155
f 184/184/184 169/169/169 183/183/183
f 169/169/169 167/167/167 183/183/183
f 183/183/183 167/167/167 145/145/145
f 167/167/167 84/84/84 145/145/145
f 160/160/160 184/184/184 162/162/162
f 184/184/184 183/183/183 162/162/162
f 162/162/162 183/183/183 79/79/79
f 183/183/183 145/145/145 79/79/79
f 185/185/185 173/173/173 174/174/174
f 185/185/185 174/174/174 186/186/186
f 146/146/146 86/86/86 173/173/173
f 146/146/146 173/173/173 185/185/185
f 164/164/164 185/185/185 186/186/186
f 164/164/164 186/186/186 163/163/163
f 164/164/164 81/81/81 185/185/185
f 81/81/81 146/146/146 185/185/185
