g pb_Mesh194046
v 0 0 0
v -2 0 0
v 0 4 0
v -2 4 0
v -2 0 0
v -2 0 -2
v -2 4 0
v -2 4 -2
v -2 0 -2
v 0 0 -2
v -2 4 -2
v 0 4 -2
v 8 0 -2
v 8 0 0
v 8 4 -2
v 8 4 0
v 0 4 0
v -2 4 0
v 0 4 -2
v -2 4 -2
v 0 0 -2
v -2 0 -2
v 0 0 0
v -2 0 0
v 6 0 -2
v 6 0 0
v 6 4 -2
v 6 0 -2
v 6 0 0
v 6 4 0
v 6 4 0
v 6 4 -2
v 8 0 -2
v 8 0 0
v 6 4 -4
v 6 0 -4
v 8 4 -4
v 8 0 -4
v 8 0 0
v 8 4 0
v 8 4 0
v 8 4 -2
v 6 4 -2
v 6 0 -2
v 6 4 -4
v 6 0 -4
v 8 4 -4
v 6 4 -4
v 6 0 -4
v 8 0 -4
v 8 0 -4
v 8 4 -4
vt 0 0
vt -2 0
vt 0 4
vt -2 4
vt 0 0
vt -2 0
vt 0 4
vt -2 4
vt 2 0
vt 0 0
vt 2 4
vt 0 4
vt 2 0
vt 0 0
vt 2 4
vt 0 4
vt 0 0
vt 2 0
vt 0 -2
vt 2 -2
vt 0 -2
vt -2 -2
vt 0 0
vt -2 0
vt 6 -2
vt 6 0
vt -6 4
vt -6 0
vt 6 0
vt 6 4
vt -6 0
vt -6 -2
vt 8 -2
vt 8 0
vt -6 4
vt -6 0
vt -8 4
vt -8 0
vt 8 0
vt 8 4
vt -8 0
vt -8 -2
vt -2 4
vt -2 0
vt -4 4
vt -4 0
vt -8 -4
vt -6 -4
vt 6 -4
vt 8 -4
vt 4 0
vt 4 4
vn 0 0 1
vn 0 0 1
vn 0 0 1
vn 0 0 1
vn -1 0 0
vn -1 0 0
vn -1 0 0
vn -1 0 0
vn 0 0 -1
vn 0 0 -1
vn 0 0 -1
vn 0 0 -1
vn 1 0 0
vn 1 0 0
vn 1 0 0
vn 1 0 0
vn 0 1 0
vn 0 1 0
vn 0 1 0
vn 0 1 0
vn 0 -1 0
vn 0 -1 0
vn 0 -1 0
vn 0 -1 0
vn 0 -1 0
vn 0 -1 0
vn 0 0 -1
vn 0 0 -1
vn 0 0 1
vn 0 0 1
vn 0 1 0
vn 0 1 0
vn 0 -1 0
vn 0 -1 0
vn 0 0 -1
vn 0 0 -1
vn 0 0 -1
vn 0 0 -1
vn 0 0 1
vn 0 0 1
vn 0 1 0
vn 0 1 0
vn -1 0 0
vn -1 0 0
vn -1 0 0
vn -1 0 0
vn 0 1 0
vn 0 1 0
vn 0 -1 0
vn 0 -1 0
vn 1 0 0
vn 1 0 0
g pb_Mesh194046_0
g pb_Mesh194046_1
f 3/3/3 2/2/2 1/1/1
f 3/3/3 4/4/4 2/2/2
f 7/7/7 6/6/6 5/5/5
f 7/7/7 8/8/8 6/6/6
f 11/11/11 10/10/10 9/9/9
f 11/11/11 12/12/12 10/10/10
f 15/15/15 14/14/14 13/13/13
f 15/15/15 16/16/16 14/14/14
f 19/19/19 18/18/18 17/17/17
f 19/19/19 20/20/20 18/18/18
f 23/23/23 22/22/22 21/21/21
f 23/23/23 24/24/24 22/22/22
f 25/25/25 23/23/23 21/21/21
f 25/25/25 26/26/26 23/23/23
f 27/27/27 10/10/10 12/12/12
f 27/27/27 28/28/28 10/10/10
f 29/29/29 3/3/3 1/1/1
f 29/29/29 30/30/30 3/3/3
f 31/31/31 19/19/19 17/17/17
f 31/31/31 32/32/32 19/19/19
f 33/33/33 26/26/26 25/25/25
f 33/33/33 34/34/34 26/26/26
f 37/37/37 36/36/36 35/35/35
f 37/37/37 38/38/38 36/36/36
f 39/39/39 30/30/30 29/29/29
f 39/39/39 40/40/40 30/30/30
f 41/41/41 32/32/32 31/31/31
f 41/41/41 42/42/42 32/32/32
f 45/45/45 44/44/44 43/43/43
f 45/45/45 46/46/46 44/44/44
f 47/47/47 32/32/32 42/42/42
f 47/47/47 48/48/48 32/32/32
f 49/49/49 33/33/33 25/25/25
f 49/49/49 50/50/50 33/33/33
f 51/51/51 15/15/15 13/13/13
f 51/51/51 52/52/52 15/15/15
