g pb_Mesh315772
v 0 0 0
v 4 0 0
v 0 1 0
v 4 1 0
v 0 1 0
v 4 1 0
v 0 1 1
v 4 1 1
v 0 1 1
v 4 1 1
v 0 2 1
v 4 2 1
v 0 2 1
v 4 2 1
v 0 2 2
v 4 2 2
v 0 2 2
v 4 2 2
v 0 3 2
v 4 3 2
v 0 3 2
v 4 3 2
v 0 3 3
v 4 3 3
v 0 3 3
v 4 3 3
v 0 4 3
v 4 4 3
v 0 4 3
v 4 4 3
v 0 4 4
v 4 4 4
v 4 0 0
v 4 0 1
v 4 1 0
v 4 1 1
v 4 0 2
v 4 2 2
v 4 2 1
v 4 0 3
v 4 3 3
v 4 3 2
v 4 0 4
v 4 4 4
v 4 4 3
v 0 1 0
v 0 0 1
v 0 0 0
v 0 1 1
v 0 0 2
v 0 2 2
v 0 2 1
v 0 0 3
v 0 3 3
v 0 3 2
v 0 0 4
v 0 4 4
v 0 4 3
vt 0 0
vt -4 0
vt 0 1
vt -4 1
vt 0 0
vt -4 0
vt 0 1
vt -4 1
vt 0 1
vt -4 1
vt 0 2
vt -4 2
vt 0 1
vt -4 1
vt 0 2
vt -4 2
vt 0 2
vt -4 2
vt 0 3
vt -4 3
vt 0 2
vt -4 2
vt 0 3
vt -4 3
vt 0 3
vt -4 3
vt 0 4
vt -4 4
vt 0 3
vt -4 3
vt 0 4
vt -4 4
vt 0 0
vt -1 0
vt 0 1
vt -1 1
vt -2 0
vt -2 2
vt -1 2
vt -3 0
vt -3 3
vt -2 3
vt -4 0
vt -4 4
vt -3 4
vt 0 1
vt 1 0
vt 0 0
vt 1 1
vt 2 0
vt 2 2
vt 1 2
vt 3 0
vt 3 3
vt 2 3
vt 4 0
vt 4 4
vt 3 4
vn 0 0 -1
vn 0 0 -1
vn 0 0 -1
vn 0 0 -1
vn 0 1 0
vn 0 1 0
vn 0 1 0
vn 0 1 0
vn 0 0 -1
vn 0 0 -1
vn 0 0 -1
vn 0 0 -1
vn 0 1 0
vn 0 1 0
vn 0 1 0
vn 0 1 0
vn 0 0 -1
vn 0 0 -1
vn 0 0 -1
vn 0 0 -1
vn 0 1 0
vn 0 1 0
vn 0 1 0
vn 0 1 0
vn 0 0 -1
vn 0 0 -1
vn 0 0 -1
vn 0 0 -1
vn 0 1 0
vn 0 1 0
vn 0 1 0
vn 0 1 0
vn 1 0 0
vn 1 0 0
vn 1 0 0
vn 1 0 0
vn 1 0 0
vn 1 0 0
vn 1 0 0
vn 1 0 0
vn 1 0 0
vn 1 0 0
vn 1 0 0
vn 1 0 0
vn 1 0 0
vn -1 0 0
vn -1 0 0
vn -1 0 0
vn -1 0 0
vn -1 0 0
vn -1 0 0
vn -1 0 0
vn -1 0 0
vn -1 0 0
vn -1 0 0
vn -1 0 0
vn -1 0 0
vn -1 0 0
g pb_Mesh315772_0
g pb_Mesh315772_1
f 3/3/3 2/2/2 1/1/1
f 3/3/3 4/4/4 2/2/2
f 7/7/7 6/6/6 5/5/5
f 7/7/7 8/8/8 6/6/6
f 11/11/11 10/10/10 9/9/9
f 11/11/11 12/12/12 10/10/10
f 15/15/15 14/14/14 13/13/13
f 15/15/15 16/16/16 14/14/14
f 19/19/19 18/18/18 17/17/17
f 19/19/19 20/20/20 18/18/18
f 23/23/23 22/22/22 21/21/21
f 23/23/23 24/24/24 22/22/22
f 27/27/27 26/26/26 25/25/25
f 27/27/27 28/28/28 26/26/26
f 31/31/31 30/30/30 29/29/29
f 31/31/31 32/32/32 30/30/30
f 35/35/35 34/34/34 33/33/33
f 35/35/35 36/36/36 34/34/34
f 36/36/36 37/37/37 34/34/34
f 36/36/36 38/38/38 37/37/37
f 36/36/36 39/39/39 38/38/38
f 38/38/38 40/40/40 37/37/37
f 38/38/38 41/41/41 40/40/40
f 38/38/38 42/42/42 41/41/41
f 41/41/41 43/43/43 40/40/40
f 41/41/41 44/44/44 43/43/43
f 41/41/41 45/45/45 44/44/44
f 48/48/48 47/47/47 46/46/46
f 47/47/47 49/49/49 46/46/46
f 47/47/47 50/50/50 49/49/49
f 50/50/50 51/51/51 49/49/49
f 51/51/51 52/52/52 49/49/49
f 50/50/50 53/53/53 51/51/51
f 53/53/53 54/54/54 51/51/51
f 54/54/54 55/55/55 51/51/51
f 53/53/53 56/56/56 54/54/54
f 56/56/56 57/57/57 54/54/54
f 57/57/57 58/58/58 54/54/54
