g pb_Mesh107168
v 0 0 0
v -1 0 0
v 0 4 0
v -1 3.5 0
v -1 0 0
v -1 0 -1
v -1 3.5 0
v -1 4 -1
v -1 0 -1
v 0 0 -1
v -1 4 -1
v 0 3 -1
v 0 0 -1
v 0 0 0
v 0 3 -1
v 0 4 0
v 0 4 0
v -1 3.5 0
v 0 3 -1
v -1 3.5 0
v -1 4 -1
v 0 3 -1
v 0 0 -1
v -1 0 -1
v 0 0 0
v -1 0 0
vt 1 0
vt 0 0
vt 1 4
vt 0 3.5
vt 1 0
vt 0 0
vt 1 3.5
vt 0 4
vt 1 0
vt 0 0
vt 1 4
vt 0 3
vt 1 0
vt 0 0
vt 1 3
vt 0 4
vt 0.4472136 1.341641
vt 1.341641 0.6708205
vt 0 1.192093E-07
vt 1.341641 0.6708205
vt 0.8944272 0.4472136
vt 0 1.192093E-07
vt 1 0
vt 0 0
vt 1 1
vt 0 1
vn 0 0 1
vn 0 0 1
vn 0 0 1
vn 0 0 1
vn -1 0 0
vn -1 0 0
vn -1 0 0
vn -1 0 0
vn 0 0 -1
vn 0 0 -1
vn 0 0 -1
vn 0 0 -1
vn 1 0 0
vn 1 0 0
vn 1 0 0
vn 1 0 0
vn -0.3333333 0.6666667 -0.6666667
vn -0.3333333 0.6666667 -0.6666667
vn -0.3333333 0.6666667 -0.6666667
vn 0.6666667 0.6666667 0.3333333
vn 0.6666667 0.6666667 0.3333333
vn 0.6666667 0.6666667 0.3333333
vn 0 -1 0
vn 0 -1 0
vn 0 -1 0
vn 0 -1 0
g pb_Mesh107168_0
f 3/3/3 2/2/2 1/1/1
f 3/3/3 4/4/4 2/2/2
f 7/7/7 6/6/6 5/5/5
f 7/7/7 8/8/8 6/6/6
f 11/11/11 10/10/10 9/9/9
f 11/11/11 12/12/12 10/10/10
f 15/15/15 14/14/14 13/13/13
f 15/15/15 16/16/16 14/14/14
f 19/19/19 18/18/18 17/17/17
f 22/22/22 21/21/21 20/20/20
f 25/25/25 24/24/24 23/23/23
f 25/25/25 26/26/26 24/24/24
