g pb_Mesh574866
v -68 -16 0
v -68 -16 -8
v -68 8 0
v -68 8 -8
v 48 -16 -8
v 48 -16 0
v 48 8 -8
v 48 8 0
v 16 -16 0
v 16 -16 0
v 16 8 0
v 16 8 0
v 16 -16 0
v 16 8 0
v 16 -16 0
v -68 -16 0
v -68 8 0
v 16 8 0
v -68 8 -8
v 16 -16 -8
v 16 8 -8
v -68 -16 -8
v 16 8 -8
v 16 -16 -8
v 16 8 -8
v 16 8 -8
v 16 -16 -8
v 16 -16 -8
v 16 8 -8
v 16 8 -8
v 16 8 0
v 16 8 0
v 16 8 -8
v 16 8 0
v -68 8 -8
v 16 8 -8
v 16 8 0
v -68 8 0
v 16 -16 0
v 16 -16 -8
v 16 -16 0
v 16 -16 0
v 16 -16 -8
v 16 -16 -8
v 16 -16 0
v -68 -16 -8
v -68 -16 0
v 16 -16 -8
v 48 -16 -8
v 48 -16 0
v 16 8 -14
v 16 -16 -14
v 48 8 -14
v 48 -16 -14
v 48 -16 0
v 48 8 0
v 48 8 0
v 48 8 -8
v 16 8 -8
v 16 -16 -8
v 16 8 -14
v 16 -16 -14
v 48 8 -14
v 16 8 -14
v 16 -16 -14
v 48 -16 -14
v 48 -16 -14
v 48 8 -14
vt 0 -16
vt -8 -16
vt 0 8
vt -8 8
vt 8 -16
vt 0 -16
vt 8 8
vt 0 8
vt 0 0
vt 0 0
vt 0 0
vt 0 0
vt 0 0
vt 0 0
vt 16 -16
vt -68 -16
vt -68 8
vt 16 8
vt 68 8
vt -16 -16
vt -16 8
vt 68 -16
vt 0 0
vt 0 0
vt 0 0
vt 0 0
vt 0 0
vt 0 0
vt 0 0
vt 0 0
vt 0 0
vt 0 0
vt 0 0
vt 0 0
vt 68 -8
vt -16 -8
vt -16 0
vt 68 0
vt 0 0
vt 0 0
vt 0 0
vt 0 0
vt 0 0
vt 0 0
vt 16 0
vt -68 -8
vt -68 0
vt 16 -8
vt 48 -8
vt 48 0
vt -16 8
vt -16 -16
vt -48 8
vt -48 -16
vt 48 -16
vt 48 8
vt -48 0
vt -48 -8
vt -8 8
vt -8 -16
vt -14 8
vt -14 -16
vt -48 -14
vt -16 -14
vt 16 -14
vt 48 -14
vt 14 -16
vt 14 8
vn -1 0 0
vn -1 0 0
vn -1 0 0
vn -1 0 0
vn 1 0 0
vn 1 0 0
vn 1 0 0
vn 1 0 0
vn 0 0 0
vn 0 0 0
vn 0 0 0
vn 0 0 0
vn 0 0 0
vn 0 0 0
vn 0 0 1
vn 0 0 1
vn 0 0 1
vn 0 0 1
vn 0 0 -1
vn 0 0 -1
vn 0 0 -1
vn 0 0 -1
vn 0 0 0
vn 0 0 0
vn 0 0 0
vn 0 0 0
vn 0 0 0
vn 0 0 0
vn 0 0 0
vn 0 0 0
vn 0 0 0
vn 0 0 0
vn 0 0 0
vn 0 0 0
vn 0 1 0
vn 0 1 0
vn 0 1 0
vn 0 1 0
vn 0 0 0
vn 0 0 0
vn 0 0 0
vn 0 0 0
vn 0 0 0
vn 0 0 0
vn 0 -1 0
vn 0 -1 0
vn 0 -1 0
vn 0 -1 0
vn 0 -1 0
vn 0 -1 0
vn 0 0 -1
vn 0 0 -1
vn 0 0 -1
vn 0 0 -1
vn 0 0 1
vn 0 0 1
vn 0 1 0
vn 0 1 0
vn -1 0 0
vn -1 0 0
vn -1 0 0
vn -1 0 0
vn 0 1 0
vn 0 1 0
vn 0 -1 0
vn 0 -1 0
vn 1 0 0
vn 1 0 0
g pb_Mesh574866_0
f 3/3/3 2/2/2 1/1/1
f 3/3/3 4/4/4 2/2/2
f 7/7/7 6/6/6 5/5/5
f 7/7/7 8/8/8 6/6/6
f 11/11/11 10/10/10 9/9/9
f 14/14/14 13/13/13 12/12/12
f 17/17/17 16/16/16 15/15/15
f 17/17/17 15/15/15 18/18/18
f 21/21/21 20/20/20 19/19/19
f 20/20/20 22/22/22 19/19/19
f 25/25/25 24/24/24 23/23/23
f 28/28/28 27/27/27 26/26/26
f 31/31/31 30/30/30 29/29/29
f 34/34/34 33/33/33 32/32/32
f 37/37/37 36/36/36 35/35/35
f 37/37/37 35/35/35 38/38/38
f 41/41/41 40/40/40 39/39/39
f 44/44/44 43/43/43 42/42/42
f 47/47/47 46/46/46 45/45/45
f 46/46/46 48/48/48 45/45/45
f 49/49/49 45/45/45 48/48/48
f 49/49/49 50/50/50 45/45/45
f 53/53/53 52/52/52 51/51/51
f 53/53/53 54/54/54 52/52/52
f 55/55/55 18/18/18 15/15/15
f 55/55/55 56/56/56 18/18/18
f 57/57/57 36/36/36 37/37/37
f 57/57/57 58/58/58 36/36/36
f 61/61/61 60/60/60 59/59/59
f 61/61/61 62/62/62 60/60/60
f 63/63/63 36/36/36 58/58/58
f 63/63/63 64/64/64 36/36/36
f 65/65/65 49/49/49 48/48/48
f 65/65/65 66/66/66 49/49/49
f 67/67/67 7/7/7 5/5/5
f 67/67/67 68/68/68 7/7/7
