g pb_Mesh242034
v 3.25 0 0
v -4 0 0
v 3.25 1 0
v -4.005493 1 -0.01105499
v -4 0 0
v -4 0 -2
v -4.005493 1 -0.01105499
v -3.994446 1 -2.011024
v -4 0 -2
v 3.25 0 -2
v -3.994446 1 -2.011024
v 3.25 1 -2
v 3.25 0 -2
v 3.25 0 0
v 3.25 1 -2
v 3.25 1 0
v 3.25 1 0
v -4.005493 1 -0.01105499
v 3.25 1 -2
v -3.994446 1 -2.011024
v 3.25 0 -2
v -4 0 -2
v 3.25 0 0
v -4 0 0
vt 3.25 0
vt -4 0
vt 3.25 1
vt -4.005493 1
vt 0 0.02197232
vt -2 0.02197232
vt -0.01105499 1.021987
vt -2.011024 1.021927
vt 4 0.02204761
vt -3.25 0.02204761
vt 3.994446 1.022108
vt -3.25 1.021987
vt 2 0
vt 0 0
vt 2 1
vt 0 1
vt -3.25 0
vt 4.005493 -0.01105499
vt -3.25 -2
vt 3.994446 -2.011024
vt 3.25 -2
vt -4 -2
vt 3.25 0
vt -4 0
vn 0 0 1
vn -0.0007617887 0.005522968 0.9999689
vn -0.0007617887 0.005522968 0.9999689
vn -0.001523577 0.01104594 0.9999378
vn -0.9999849 -0.005493081 0
vn -0.9999773 2.747402E-08 -0.002761799
vn -0.9999773 2.747402E-08 -0.002761799
vn -0.9999697 0.005493136 -0.005523598
vn 0 -0.01102381 -0.9999393
vn 0.0007608907 -0.005511903 -0.9999691
vn 0.0007608907 -0.005511903 -0.9999691
vn 0.001521781 0 -0.9999989
vn 1 0 0
vn 1 0 0
vn 1 0 0
vn 1 0 0
vn 0 1 0
vn 0 1 0
vn 0 1 0
vn 0 1 0
vn 0 -1 0
vn 0 -1 0
vn 0 -1 0
vn 0 -1 0
g pb_Mesh242034_0
f 3/3/3 2/2/2 1/1/1
f 3/3/3 4/4/4 2/2/2
f 7/7/7 6/6/6 5/5/5
f 7/7/7 8/8/8 6/6/6
f 11/11/11 10/10/10 9/9/9
f 11/11/11 12/12/12 10/10/10
f 15/15/15 14/14/14 13/13/13
f 15/15/15 16/16/16 14/14/14
f 19/19/19 18/18/18 17/17/17
f 19/19/19 20/20/20 18/18/18
f 23/23/23 22/22/22 21/21/21
f 23/23/23 24/24/24 22/22/22
