g pb_Mesh436458
v 214 0 171
v 212 0 171
v 214 4 171
v 212 4 171
v 199.9999 0 171
v 199.9999 0 169
v 199.9999 4 171
v 199.9999 4 169
v 212 0 169
v 214 0 169
v 212 4 169
v 214 4 169
v 214 0 169
v 214 0 171
v 214 4 169
v 214 4 171
v 214 4 171
v 212 4 171
v 214 4 169
v 212 4 169
v 212 4 171
v 212 0 171
v 203 4 171
v 203 0 171
v 212 0 169
v 212 4 169
v 203.5 0 169
v 203.5 4 169
v 212 4 169
v 212 4 171
v 203.5 4 169
v 203 4 171
v 203 4 171
v 203 0 171
v 199.9999 4 171
v 199.9999 0 171
v 203.5 4 169
v 203 4 171
v 199.9999 4 169
v 199.9999 4 171
v 199.9999 4 169
v 199.9999 0 169
v 200 4 157.25
v 200 0 157.25
v 184 -8 161
v 182 -8 161
v 184 4 161.0001
v 182 4 161.0001
v 182 -8 158
v 182 -8 137
v 182 4 158.0001
v 182 4 137
v 184 4 157.25
v 182 4 158.0001
v 184 4 137
v 182 4 137
v 184 -8 137
v 182 -8 137
v 184 -8 157.25
v 182 -8 158
v 184 -8 157.25
v 182 -8 158
v 184 -8 161
v 182 -8 161
v 182 -8 158
v 182 4 158.0001
v 182 -8 161
v 182 4 161.0001
v 182 4 158.0001
v 184 4 157.25
v 182 4 161.0001
v 184 4 161.0001
v 184 4 161.0001
v 184 4 157.25
v 200 4 161.0001
v 200 4 157.25
v 184 -8 157.25
v 184 -8 161
v 200 -8 157.25
v 200 -8 161
v 184 -8 161
v 184 4 161.0001
v 200 -8 161
v 200 4 161.0001
v 182 -8 137
v 184 -8 137
v 183 -8 135
v 184 -8 135
v 158 0 161
v 156 0 161
v 158 4 161
v 156 4 161
v 156 0 161
v 156 0 137
v 156 4 161
v 156 4 137
v 156 0 137
v 158 0 137
v 156 4 137
v 158 4 137
v 158 0 137
v 158 0 161
v 158 4 137
v 158 4 161
v 158 4 161
v 156 4 161
v 158 4 137
v 156 4 137
v 158 0 137
v 156 0 137
v 158 0 161
v 156 0 161
v 183 -8 135
v 184 -8 135
v 184 2 135
v 183 3 135
v 184 -8 137
v 184 -8 157.25
v 184 2 157.25
v 184 2 137
v 184 2 157.25
v 184 4 157.25
v 184 4 137
v 184 2 137
v 156 4 137
v 156 -8 137
v 156 -8 135
v 156 2 135
v 156 4 135
v 184 -8 137
v 184 2 137
v 184 2 135
v 184 -8 135
v 200 4 157.25
v 200 -8 157.25
v 200 4 161.0001
v 200 -8 161
v 200 2.25 157.25
v 200 4 157.25
v 184 4 157.25
v 184 2 157.25
v 200 -8 157.25
v 184 -8 157.25
v 200 2.25 157.25
v 203.5 0 157.25
v 203.5 0 169
v 203.5 -5 157.25
v 203.5 -5 169
v 200 0 157.25
v 203.5 0 157.25
v 200 -5 157.25
v 203.5 -5 157.25
v 199.9999 0 169
v 200 0 157.25
v 200 -5 169
v 200 -5 157.25
v 203 0 171
v 199.9999 0 171
v 203 -5 171
v 200 -5 171
v 203.5 0 169
v 212 0 169
v 203.5 -5 169
v 212 -5 169
v 212 0 171
v 203 0 171
v 212 -5 171
v 203 -5 171
v 199.9999 0 171
v 199.9999 0 169
v 200 -5 171
v 200 -5 169
v 214 0 171
v 212 0 171
v 214 -5 171
v 212 -5 171
v 212 0 169
v 214 0 169
v 212 -5 169
v 214 -5 169
v 214 0 169
v 214 0 171
v 214 -5 169
v 214 -5 171
v 203.5 0 157.25
v 203.5 3.25 157.25
v 203 4 157.25
v 200 4 157.25
v 200 0 157.25
v 203.5 3.25 157.25
v 203.5 4 157.75
v 203 4 157.25
v 203.5 0 169
v 203.5 4 169
v 203.5 4 157.75
v 203.5 3.25 157.25
v 203.5 0 157.25
v 203.5 4 169
v 199.9999 4 169
v 200 4 157.25
v 203 4 157.25
v 203.5 4 157.75
v 184 4 137
v 182 4 137
v 182 4 135
v 183.5 4 135
v 184 4 135.5
v 184 2 135
v 184 3.5 135
v 183.5 4 135
v 182 4 135
v 183 3 135
v 184 3.5 135
v 184 4 135.5
v 183.5 4 135
v 184 4 135.5
v 184 3.5 135
v 184 2 135
v 184 2 137
v 184 4 137
v 182 4 137
v 182 -8 137
v 156 -8 137
v 156 4 137
v 157 4 137
v 182 4 135
v 182 4 137
v 157 4 137
v 157 4 135
v 157 4 137
v 156 4 137
v 156 4 135
v 157 4 135
v 182 -8 137
v 183 -8 135
v 157 -8 135
v 156 -8 135
v 156 -8 137
v 183 -8 135
v 183 3 135
v 157 3 135
v 157 -8 135
v 157 3 135
v 156 2 135
v 156 -8 135
v 157 -8 135
v 183 3 135
v 182 4 135
v 157 4 135
v 157 3 135
v 157 4 135
v 156 4 135
v 156 2 135
v 157 3 135
vt 0 -2
vt -2 -2
vt 0 2
vt -2 2
vt 0 -2
vt -2 -2
vt 0 2
vt -2 2
vt 2 -2
vt 0 -2
vt 2 2
vt 0 2
vt 2 -2
vt 0 -2
vt 2 2
vt 0 2
vt 0 0
vt 2 0
vt 0 -2
vt 2 -2
vt -2 2
vt -2 -2
vt -12 2
vt -12 -2
vt 2 -2
vt 2 2
vt 12 -2
vt 12 2
vt 2 -2
vt 2 0
vt 12 -2
vt 12 0
vt -12 2
vt -12 -2
vt -14.00011 2
vt -14.00011 -2
vt 12 -2
vt 12 0
vt 14.00011 -2
vt 14.00011 0
vt -2 2
vt -2 -2
vt -12.00011 2
vt -12.00011 -2
vt 0 0
vt -2 0
vt 0 2.080551
vt -2 2.080551
vt -2 0
vt -24 0
vt -2 2.080551
vt -24 2.080551
vt 0 -2
vt 2 -2
vt 0 -24
vt 2 -24
vt 0 -24
vt -2 -24
vt 0 -2
vt -2 -2
vt 0 -2
vt -2 -2
vt 0 0.0001068115
vt -2 0.0001068115
vt -2 0
vt -2 2.080551
vt 0.0001068115 0
vt 0.0001068115 2.080551
vt 2 -2
vt 0 -2
vt 2 0.0001068115
vt 0 0.0001068115
vt 0 0.0001068115
vt 0 -2
vt -16 0.0001068115
vt -16 -2
vt 0 -2
vt 0 0.0001068115
vt 16 -2
vt 16 0.0001068115
vt 0 0
vt 0 2.080551
vt 16 0
vt 16 2.080551
vt -2 -24
vt 0 -24
vt -2 -26.00009
vt 0 -26.00009
vt 0 0
vt -2 0
vt 0 2.080551
vt -2 2.080551
vt 0 0
vt -24 0
vt 0 2.080551
vt -24 2.080551
vt 2 0
vt 0 0
vt 2 2.080551
vt 0 2.080551
vt 24 0
vt 0 0
vt 24 2.080551
vt 0 2.080551
vt 0 0
vt 2 0
vt 0 -24
vt 2 -24
vt 0 -24
vt -2 -24
vt 0 0
vt -2 0
vt 1 -6.027596
vt 0 -6.027596
vt 0 3.972405
vt 1 4.972404
vt 23.125 -6.10415
vt 2.875 -6.10415
vt 2.875 3.89585
vt 23.125 3.89585
vt 2.875 3.89585
vt 2.875 5.89585
vt 23.125 5.89585
vt 23.125 3.89585
vt -24 2.080551
vt -24 0
vt -26.00009 0
vt -26.00009 1.040275
vt -26.00009 2.080551
vt 24 -6.10415
vt 24 3.89585
vt 26 3.89585
vt 26 -6.10415
vt 2 2.080551
vt 2 0
vt -0.0001068115 2.080551
vt -0.0001068115 0
vt 8.250031 1
vt -16 7.040276
vt 0 7.040276
vt 0 5.040276
vt -16 -4.959724
vt 0 -4.959724
vt -16 5.290276
vt -157.25 0
vt -169 0
vt -157.25 -5
vt -169 -5
vt -200 0
vt -203.5 0
vt -200 -5
vt -203.5 -5
vt 168.9982 -0.004272491
vt 157.2482 -0.004272491
vt 168.9982 -5.004272
vt 157.2482 -5.004272
vt 203 0
vt 199.9999 0
vt 203 -5
vt 200 -5
vt -203.5 0
vt -212 0
vt -203.5 -5
vt -212 -5
vt 212 0
vt 203 0
vt 212 -5
vt 203 -5
vt 171 -0.004272459
vt 169 -0.004272459
vt 171 -5.004272
vt 169 -5.004272
vt 214 0
vt 212 0
vt 214 -5
vt 212 -5
vt -212 0
vt -214 0
vt -212 -5
vt -214 -5
vt -169 0
vt -171 0
vt -169 -5
vt -171 -5
vt 11.00006 -2
vt 11.00006 1.25
vt 11.50006 2
vt 14.50006 2
vt 14.50006 -2
vt -40.5887 -13.00516
vt -40.94226 -12.17601
vt -40.23515 -12.17601
vt 2 -2
vt 2 2
vt 11.57458 2
vt 12.00012 1.25
vt 12.00012 -2
vt 12 -2
vt 14.00011 -2
vt 14.00011 -12.00011
vt 13.00005 -12.00011
vt 12 -12.00011
vt 0 -24
vt 2 -24
vt 2 -26.00009
vt 1 -26.00009
vt 0 -26.00009
vt -0.002822876 3.972324
vt -0.002822876 5.472324
vt 0.4971771 5.972324
vt 1.997177 5.972324
vt 0.9971771 4.972324
vt -41.56706 -15.17402
vt -41.92061 -14.56165
vt -41.2135 -14.56165
vt 25.5 5.89585
vt 26 5.39585
vt 26 3.89585
vt 24 3.89585
vt 24 5.89585
vt -2 2.080551
vt -2 0
vt -28 0
vt -28 2.080551
vt -15 2.080551
vt 2 -26.00009
vt 2 -24
vt 15 -24
vt 15 -26.00009
vt 15 -24
vt 28 -24
vt 28 -26.00009
vt 15 -26.00009
vt -2 -24
vt -2 -26.00009
vt -15 -26.00009
vt -28 -26.00009
vt -28 -24
vt 1 -6.027596
vt 1 4.972404
vt 27 4.972404
vt 27 -6.027596
vt 27 4.972404
vt 28 3.972405
vt 28 -6.027596
vt 27 -6.027596
vt 1.000244 4.965978
vt 2.000244 5.965978
vt 27.00024 5.965978
vt 27.00024 4.965978
vt 26.99382 5.972404
vt 27.99382 5.972404
vt 27.99382 3.972405
vt 26.99382 4.972404
vn 0 0 1
vn 0 0 1
vn 0 0 1
vn 0 0 1
vn -1 0 0
vn -1 0 0
vn -1 0 0
vn -1 0 0
vn 0 0 -1
vn 0 0 -1
vn 0 0 -1
vn 0 0 -1
vn 1 0 0
vn 1 0 0
vn 1 0 0
vn 1 0 0
vn 0 1 0
vn 0 1 0
vn 0 1 0
vn 0 1 0
vn 0 0 1
vn 0 0 1
vn 0 0 1
vn 0 0 1
vn 0 0 -1
vn 0 0 -1
vn 0 0 -1
vn 0 0 -1
vn 0 1 0
vn 0 1 0
vn 0 1 0
vn 0 1 0
vn 0 0 1
vn 0 0 1
vn 0 0 1
vn 0 0 1
vn 0 1 0
vn 0 1 0
vn 0 1 0
vn 0 1 0
vn -1 0 -9.090342E-06
vn -1 0 -9.090342E-06
vn -1 0 -9.090342E-06
vn -1 0 -9.090342E-06
vn 0 -8.90096E-06 1
vn 0 -8.90096E-06 1
vn 0 -8.90096E-06 1
vn 0 -8.90096E-06 1
vn -1 0 0
vn -1 0 0
vn -1 0 0
vn -1 0 0
vn 0 1 0
vn 0 1 0
vn 0 1 0
vn 0 1 0
vn 0 -1 0
vn 0 -1 0
vn 0 -1 0
vn 0 -1 0
vn 0 -1 0
vn 0 -1 0
vn 0 -1 0
vn 0 -1 0
vn -1 0 0
vn -1 0 0
vn -1 0 0
vn -1 0 0
vn 0 1 0
vn 0 1 0
vn 0 1 0
vn 0 1 0
vn 0 1 0
vn 0 1 0
vn 0 1 0
vn 0 1 0
vn 0 -1 0
vn 0 -1 0
vn 0 -1 0
vn 0 -1 0
vn 0 -8.90096E-06 1
vn 0 -8.90096E-06 1
vn 0 -8.90096E-06 1
vn 0 -8.90096E-06 1
vn 0 -1 0
vn 0 -1 0
vn 0 -1 0
vn 0 -1 0
vn 0 0 1
vn 0 0 1
vn 0 0 1
vn 0 0 1
vn -1 0 0
vn -1 0 0
vn -1 0 0
vn -1 0 0
vn 0 0 -1
vn 0 0 -1
vn 0 0 -1
vn 0 0 -1
vn 1 0 0
vn 1 0 0
vn 1 0 0
vn 1 0 0
vn 0 1 0
vn 0 1 0
vn 0 1 0
vn 0 1 0
vn 0 -1 0
vn 0 -1 0
vn 0 -1 0
vn 0 -1 0
vn 0 0 -1
vn 0 0 -1
vn 0 0 -1
vn 0 0 -1
vn 1 0 0
vn 1 0 0
vn 1 0 0
vn 1 0 0
vn 1 0 0
vn 1 0 0
vn 1 0 0
vn 1 0 0
vn -1 0 0
vn -1 0 0
vn -1 0 0
vn -1 0 0
vn -1 0 0
vn 1 0 0
vn 1 0 0
vn 1 0 0
vn 1 0 0
vn 1 0 0
vn 1 0 0
vn 1 0 0
vn 1 0 0
vn 1 0 0
vn 0 0 -1
vn 0 0 -1
vn 0 0 -1
vn 0 0 -1
vn 0 0 -1
vn 0 0 -1
vn 1 0 0
vn 1 0 0
vn 1 0 0
vn 1 0 0
vn 0 0 -1
vn 0 0 -1
vn 0 0 -1
vn 0 0 -1
vn -1 -2.13623E-05 -9.090342E-06
vn -1 -1.068115E-05 -4.545171E-06
vn -1 -1.068115E-05 -4.545171E-06
vn -1 0 0
vn 0 0 1
vn 0 0 1
vn 0 0 1
vn 0 0 1
vn 0 0 -1
vn 0 0 -1
vn 0 0 -1
vn 0 0 -1
vn 0 0 1
vn 0 0 1
vn 0 0 1
vn 0 0 1
vn -1 -2.13623E-05 0
vn -1 -2.13623E-05 0
vn -1 -2.13623E-05 0
vn -1 -2.13623E-05 0
vn 0 0 1
vn 0 0 1
vn 0 0 1
vn 0 0 1
vn 0 0 -1
vn 0 0 -1
vn 0 0 -1
vn 0 0 -1
vn 1 0 0
vn 1 0 0
vn 1 0 0
vn 1 0 0
vn 0 0 -1
vn 0 0 -1
vn 0 0 -1
vn 0 0 -1
vn 0 0 -1
vn 0.6396021 0.4264014 -0.6396021
vn 0.6396021 0.4264014 -0.6396021
vn 0.6396021 0.4264014 -0.6396021
vn 1 0 0
vn 1 0 0
vn 1 0 0
vn 1 0 0
vn 1 0 0
vn 0 1 0
vn 0 1 0
vn 0 1 0
vn 0 1 0
vn 0 1 0
vn 0 1 0
vn 0 1 0
vn 0 1 0
vn 0 1 0
vn 0 1 0
vn 0 0 -1
vn 0 0 -1
vn 1.525879E-05 -7.629395E-06 -1
vn 3.051758E-05 -1.525879E-05 -1
vn 1.017253E-05 -5.086263E-06 -1
vn 0.5773503 0.5773503 -0.5773503
vn 0.5773503 0.5773503 -0.5773503
vn 0.5773503 0.5773503 -0.5773503
vn 1 0 0
vn 1 0 0
vn 1 0 0
vn 1 0 0
vn 1 0 0
vn 0 0 1
vn 0 0 1
vn 0 0 1
vn 0 0 1
vn 0 0 1
vn 0 1 0
vn 0 1 0
vn 0 1 0
vn 0 1 0
vn 0 1 0
vn 0 1 0
vn 0 1 0
vn 0 1 0
vn 0 -1 0
vn 0 -1 0
vn 0 -1 0
vn 0 -1 0
vn 0 -1 0
vn 0 0 -1
vn 0 0 -1
vn 0 0 -1
vn 0 0 -1
vn 0 0 -1
vn 0 0 -1
vn 0 0 -1
vn 0 0 -1
vn -9.155273E-07 -2.380371E-05 -1
vn -1.831055E-06 -4.760742E-05 -1
vn -9.155273E-07 -2.380371E-05 -1
vn 0 0 -1
vn 4.577637E-05 0 -1
vn 3.433228E-05 -1.144409E-05 -1
vn 2.288818E-05 -2.288818E-05 -1
vn 3.433228E-05 -1.144409E-05 -1
g pb_Mesh436458_0
f 3/3/3 2/2/2 1/1/1
f 3/3/3 4/4/4 2/2/2
f 7/7/7 6/6/6 5/5/5
f 7/7/7 8/8/8 6/6/6
f 11/11/11 10/10/10 9/9/9
f 11/11/11 12/12/12 10/10/10
f 15/15/15 14/14/14 13/13/13
f 15/15/15 16/16/16 14/14/14
f 19/19/19 18/18/18 17/17/17
f 19/19/19 20/20/20 18/18/18
f 23/23/23 22/22/22 21/21/21
f 23/23/23 24/24/24 22/22/22
f 27/27/27 26/26/26 25/25/25
f 27/27/27 28/28/28 26/26/26
f 31/31/31 30/30/30 29/29/29
f 31/31/31 32/32/32 30/30/30
f 35/35/35 34/34/34 33/33/33
f 35/35/35 36/36/36 34/34/34
f 39/39/39 38/38/38 37/37/37
f 39/39/39 40/40/40 38/38/38
f 43/43/43 42/42/42 41/41/41
f 43/43/43 44/44/44 42/42/42
f 91/91/91 90/90/90 89/89/89
f 91/91/91 92/92/92 90/90/90
f 95/95/95 94/94/94 93/93/93
f 95/95/95 96/96/96 94/94/94
f 99/99/99 98/98/98 97/97/97
f 99/99/99 100/100/100 98/98/98
f 103/103/103 102/102/102 101/101/101
f 103/103/103 104/104/104 102/102/102
f 107/107/107 106/106/106 105/105/105
f 107/107/107 108/108/108 106/106/106
f 111/111/111 110/110/110 109/109/109
f 111/111/111 112/112/112 110/110/110
f 145/145/145 146/146/146 147/147/147
f 146/146/146 148/148/148 147/147/147
f 149/149/149 150/150/150 151/151/151
f 150/150/150 152/152/152 151/151/151
f 153/153/153 154/154/154 155/155/155
f 154/154/154 156/156/156 155/155/155
f 157/157/157 158/158/158 159/159/159
f 158/158/158 160/160/160 159/159/159
f 161/161/161 162/162/162 163/163/163
f 162/162/162 164/164/164 163/163/163
f 165/165/165 166/166/166 167/167/167
f 166/166/166 168/168/168 167/167/167
f 169/169/169 170/170/170 171/171/171
f 170/170/170 172/172/172 171/171/171
f 173/173/173 174/174/174 175/175/175
f 174/174/174 176/176/176 175/175/175
f 177/177/177 178/178/178 179/179/179
f 178/178/178 180/180/180 179/179/179
f 181/181/181 182/182/182 183/183/183
f 182/182/182 184/184/184 183/183/183
f 189/189/189 188/188/188 187/187/187
f 189/189/189 187/187/187 186/186/186
f 186/186/186 185/185/185 189/189/189
f 192/192/192 191/191/191 190/190/190
f 196/196/196 195/195/195 194/194/194
f 193/193/193 196/196/196 194/194/194
f 193/193/193 197/197/197 196/196/196
f 198/198/198 202/202/202 201/201/201
f 201/201/201 200/200/200 199/199/199
f 198/198/198 201/201/201 199/199/199
g pb_Mesh436458_1
f 47/47/47 46/46/46 45/45/45
f 47/47/47 48/48/48 46/46/46
f 51/51/51 50/50/50 49/49/49
f 51/51/51 52/52/52 50/50/50
f 55/55/55 54/54/54 53/53/53
f 55/55/55 56/56/56 54/54/54
f 59/59/59 58/58/58 57/57/57
f 59/59/59 60/60/60 58/58/58
f 63/63/63 62/62/62 61/61/61
f 63/63/63 64/64/64 62/62/62
f 137/137/137 135/135/135 138/138/138
f 136/136/136 137/137/137 138/138/138
f 136/136/136 138/138/138 134/134/134
f 67/67/67 66/66/66 65/65/65
f 67/67/67 68/68/68 66/66/66
f 71/71/71 70/70/70 69/69/69
f 71/71/71 72/72/72 70/70/70
f 75/75/75 74/74/74 73/73/73
f 75/75/75 76/76/76 74/74/74
f 79/79/79 78/78/78 77/77/77
f 79/79/79 80/80/80 78/78/78
f 83/83/83 82/82/82 81/81/81
f 83/83/83 84/84/84 82/82/82
f 87/87/87 86/86/86 85/85/85
f 87/87/87 88/88/88 86/86/86
f 115/115/115 114/114/114 116/116/116
f 114/114/114 113/113/113 116/116/116
f 119/119/119 118/118/118 120/120/120
f 118/118/118 117/117/117 120/120/120
f 122/122/122 121/121/121 123/123/123
f 121/121/121 124/124/124 123/123/123
f 144/144/144 142/142/142 143/143/143
f 144/144/144 143/143/143 141/141/141
f 139/139/139 144/144/144 141/141/141
f 139/139/139 141/141/141 140/140/140
f 128/128/128 127/127/127 126/126/126
f 125/125/125 128/128/128 126/126/126
f 129/129/129 128/128/128 125/125/125
f 131/131/131 133/133/133 132/132/132
f 131/131/131 130/130/130 133/133/133
f 203/203/203 207/207/207 206/206/206
f 206/206/206 205/205/205 204/204/204
f 203/203/203 206/206/206 204/204/204
f 212/212/212 211/211/211 210/210/210
f 212/212/212 210/210/210 209/209/209
f 209/209/209 208/208/208 212/212/212
f 215/215/215 214/214/214 213/213/213
f 220/220/220 217/217/217 216/216/216
f 219/219/219 217/217/217 220/220/220
f 219/219/219 218/218/218 217/217/217
f 225/225/225 222/222/222 221/221/221
f 222/222/222 225/225/225 223/223/223
f 225/225/225 224/224/224 223/223/223
f 227/227/227 226/226/226 229/229/229
f 227/227/227 229/229/229 228/228/228
f 230/230/230 233/233/233 232/232/232
f 230/230/230 232/232/232 231/231/231
f 238/238/238 236/236/236 234/234/234
f 238/238/238 237/237/237 236/236/236
f 236/236/236 235/235/235 234/234/234
f 240/240/240 239/239/239 241/241/241
f 239/239/239 242/242/242 241/241/241
f 243/243/243 246/246/246 244/244/244
f 246/246/246 245/245/245 244/244/244
f 248/248/248 247/247/247 249/249/249
f 247/247/247 250/250/250 249/249/249
f 251/251/251 254/254/254 252/252/252
f 254/254/254 253/253/253 252/252/252
