g pb_Mesh217550
v -24 12 0
v 0 12 0
v -14.12391 8 9.918213E-05
v -9.876089 8 9.918213E-05
v -9.876089 0 9.918213E-05
v -14.12391 0 9.918213E-05
v -9.876089 0 -4
v -14.12391 0 -4
v 0 12 14
v -24 12 0
v -24 12 14
v 0 12 0
v 0 12 16
v -24 12 14
v -24 12 16
v 0 12 14
v -24 0 0
v 0 0 0
v 0 0 14
v -24 0 14
v -9.876089 4 9.918213E-05
v 0 8 0
v 0 0 0
v -9.876089 0 9.918213E-05
v -9.876089 4 9.918213E-05
v -9.876089 4 -4
v -9.876089 8 9.918213E-05
v -9.876089 8 -4
v -9.876089 0 9.918213E-05
v -9.876089 0 -4
v 0 0 14
v 0 0 0
v 0 8 0
v 0 8 14
v 0 8 14
v 0 8 0
v 0 12 0
v 0 12 14
v 0 8 14
v 0 12 14
v 16 8 14
v 16 12 14
v 0 12 14
v 0 12 16
v 16 12 14
v 16 12 16
v 0 12 16
v 0 8 16
v 16 12 16
v 16 8 16
v 0 8 16
v 0 8 14
v 16 8 16
v 16 8 14
v -24 12 16
v 0 8 16
v 0 12 16
v -24 8 16
v -14.12391 0 9.918213E-05
v -24 0 0
v -24 8 0
v -24 8 14
v -24 0 16
v -24 8 16
v -24 0 14
v -24 12 14
v -24 8 16
v -24 12 16
v -24 8 14
v -24 8 0
v -24 0 14
v -24 8 14
v -24 0 0
v -24 12 0
v -24 8 14
v -24 12 14
v -24 8 0
vt -24 12
vt 0 12
vt -14.12391 8
vt -9.876089 8
vt 9.876089 9.918213E-05
vt 14.12391 9.918213E-05
vt 9.876089 -4
vt 14.12391 -4
vt 24 -2
vt 0 -16
vt 0 -2
vt 24 -16
vt 24 -14
vt 0 -16
vt 0 -14
vt 24 -16
vt -24 -1.999998
vt 0 -2
vt 0 -16
vt -24 -16
vt -9.876089 4
vt 0 8
vt 0 0
vt -9.876089 0
vt 9.918213E-05 4
vt -4 4
vt 9.918213E-05 8
vt -4 8
vt 9.918213E-05 0
vt -4 0
vt 8.000001 8
vt 22 8
vt 22 0
vt 8 1.192093E-06
vt 8 4.000002
vt 22 4
vt 22 0
vt 8 1.907349E-06
vt 0 8
vt 0 12
vt 16 8
vt 16 12
vt 0 14
vt 0 16
vt 16 14
vt 16 16
vt 0 12
vt 0 8
vt -16 12
vt -16 8
vt 0 16
vt 0 14
vt -16 16
vt -16 14
vt -24 1.907349E-06
vt 0 4
vt 0 0
vt -24 4.000002
vt -14.12391 0
vt -24 0
vt -24 8
vt -14 8
vt -16 0
vt -16 8
vt -14 0
vt -14 4
vt -16 0
vt -16 4
vt -14 0
vt -2 8
vt -16 0
vt -16 8
vt -2 0
vt -2 4
vt -16 0
vt -16 4
vt -2 0
vn 0 2.479553E-05 1
vn 0 2.479553E-05 1
vn 0 2.479553E-05 1
vn 0 2.479553E-05 1
vn 0 1 0
vn 0 1 0
vn 0 1 0
vn 0 1 0
vn 0 -1 0
vn 0 -1 0
vn 0 -1 0
vn 0 -1 0
vn 0 -1 0
vn 0 -1 0
vn 0 -1 0
vn 0 -1 0
vn 0 1 0
vn 0 1 0
vn 0 1 0
vn 0 1 0
vn 1.004265E-05 0 1
vn 1.004265E-05 0 1
vn 1.004265E-05 0 1
vn 1.004265E-05 0 1
vn -1 0 0
vn -1 0 0
vn -1 0 0
vn -1 0 0
vn -1 0 0
vn -1 0 0
vn -1 0 0
vn -1 0 0
vn -1 0 0
vn -1 0 0
vn -1 0 0
vn -1 0 0
vn -1 0 0
vn -1 0 0
vn 0 0 1
vn 0 0 1
vn 0 0 1
vn 0 0 1
vn 0 -1 0
vn 0 -1 0
vn 0 -1 0
vn 0 -1 0
vn 0 0 -1
vn 0 0 -1
vn 0 0 -1
vn 0 0 -1
vn 0 1 0
vn 0 1 0
vn 0 1 0
vn 0 1 0
vn 0 0 -1
vn 0 0 -1
vn 0 0 -1
vn 0 0 -1
vn -1.004265E-05 0 1
vn -1.004265E-05 0 1
vn -1.004265E-05 0 1
vn 1 0 0
vn 1 0 0
vn 1 0 0
vn 1 0 0
vn 1 0 0
vn 1 0 0
vn 1 0 0
vn 1 0 0
vn 1 0 0
vn 1 0 0
vn 1 0 0
vn 1 0 0
vn 1 0 0
vn 1 0 0
vn 1 0 0
vn 1 0 0
g pb_Mesh217550_0
g pb_Mesh217550_1
f 3/3/3 2/2/2 1/1/1
f 3/3/3 4/4/4 2/2/2
f 7/7/7 6/6/6 5/5/5
f 7/7/7 8/8/8 6/6/6
f 11/11/11 10/10/10 9/9/9
f 10/10/10 12/12/12 9/9/9
f 15/15/15 14/14/14 13/13/13
f 14/14/14 16/16/16 13/13/13
f 19/19/19 18/18/18 17/17/17
f 19/19/19 17/17/17 20/20/20
f 22/22/22 4/4/4 21/21/21
f 4/4/4 22/22/22 2/2/2
f 21/21/21 24/24/24 23/23/23
f 21/21/21 23/23/23 22/22/22
f 27/27/27 26/26/26 25/25/25
f 27/27/27 28/28/28 26/26/26
f 25/25/25 30/30/30 29/29/29
f 25/25/25 26/26/26 30/30/30
f 33/33/33 32/32/32 31/31/31
f 33/33/33 31/31/31 34/34/34
f 37/37/37 36/36/36 35/35/35
f 37/37/37 35/35/35 38/38/38
f 41/41/41 40/40/40 39/39/39
f 41/41/41 42/42/42 40/40/40
f 45/45/45 44/44/44 43/43/43
f 45/45/45 46/46/46 44/44/44
f 49/49/49 48/48/48 47/47/47
f 49/49/49 50/50/50 48/48/48
f 53/53/53 52/52/52 51/51/51
f 53/53/53 54/54/54 52/52/52
f 57/57/57 56/56/56 55/55/55
f 56/56/56 58/58/58 55/55/55
f 60/60/60 59/59/59 3/3/3
f 61/61/61 60/60/60 3/3/3
f 1/1/1 61/61/61 3/3/3
f 64/64/64 63/63/63 62/62/62
f 63/63/63 65/65/65 62/62/62
f 68/68/68 67/67/67 66/66/66
f 67/67/67 69/69/69 66/66/66
f 72/72/72 71/71/71 70/70/70
f 71/71/71 73/73/73 70/70/70
f 76/76/76 75/75/75 74/74/74
f 75/75/75 77/77/77 74/74/74
