g pb_Mesh134152
v -8 0 9
v -2 0 9
v -8 4 9
v -10 0 9
v -10 0 7
v -10 4 9
v -10 4 7
v -8 0 7
v -2 0 7
v -8 4 7
v -2 0 9
v -8 4 9
v -2 0 7
v -8 4 7
v -2 0 7
v -8 0 7
v -2 0 9
v -8 0 9
v -8 0 9
v -8 0 7
v -10 0 9
v -10 0 7
v -8 4 9
v -8 0 9
v -10 4 9
v -10 0 9
v -8 0 7
v -8 4 7
v -10 0 7
v -10 4 7
v -8 4 7
v -8 4 9
v -10 4 7
v -10 4 9
vt 0 0
vt 6 0
vt 0 4
vt 2 0
vt 0 0
vt 2 4
vt 0 4
vt 6 0
vt 0 0
vt 6 4
vt 0 2
vt 7.211102 2
vt 0 0
vt 7.211102 0
vt 6 0
vt 0 0
vt 6 2
vt 0 2
vt 2 2
vt 2 0
vt 0 2
vt 0 0
vt 2 4
vt 2 0
vt 0 4
vt 0 0
vt 0 0
vt 0 4
vt 2 0
vt 2 4
vt 0 0
vt 0 2
vt 2 0
vt 2 2
vn 0 0 1
vn 0 0 1
vn 0 0 1
vn -1 0 0
vn -1 0 0
vn -1 0 0
vn -1 0 0
vn 0 0 -1
vn 0 0 -1
vn 0 0 -1
vn 0.5547002 0.8320503 0
vn 0.5547002 0.8320503 0
vn 0.5547002 0.8320503 0
vn 0.5547002 0.8320503 0
vn 0 -1 0
vn 0 -1 0
vn 0 -1 0
vn 0 -1 0
vn 0 -1 0
vn 0 -1 0
vn 0 -1 0
vn 0 -1 0
vn 0 0 1
vn 0 0 1
vn 0 0 1
vn 0 0 1
vn 0 0 -1
vn 0 0 -1
vn 0 0 -1
vn 0 0 -1
vn 0 1 0
vn 0 1 0
vn 0 1 0
vn 0 1 0
g pb_Mesh134152_0
f 2/2/2 3/3/3 1/1/1
f 6/6/6 5/5/5 4/4/4
f 6/6/6 7/7/7 5/5/5
f 10/10/10 9/9/9 8/8/8
f 17/17/17 16/16/16 15/15/15
f 17/17/17 18/18/18 16/16/16
f 21/21/21 20/20/20 19/19/19
f 21/21/21 22/22/22 20/20/20
f 25/25/25 24/24/24 23/23/23
f 25/25/25 26/26/26 24/24/24
f 29/29/29 28/28/28 27/27/27
f 29/29/29 30/30/30 28/28/28
g pb_Mesh134152_1
f 13/13/13 12/12/12 11/11/11
f 13/13/13 14/14/14 12/12/12
f 33/33/33 32/32/32 31/31/31
f 33/33/33 34/34/34 32/32/32
