g pb_Mesh50264
v 0 -20 8
v -4 -20 8
v 0 32 8
v -4 32 8
v -4 -20 8
v -4 -20 -4
v -4 32 8
v -4 32 -4
v -4 -20 -4
v 0 -20 -4
v -4 32 -4
v 0 32 -3
v 12 -16 4
v 12 -16 8
v 12 36 4
v 12 36 8
v 0 32 8
v -4 32 8
v 0 32 -3
v -4 32 -4
v 0 -20 -4
v -4 -20 -4
v 0 -20 8
v -4 -20 8
v 0 -20 -4
v 0 -20 8
v 8 -16 4
v 8 -16 8
v 0 32 -3
v 0 -20 -4
v 8 36 4
v 8 -16 4
v 8 -16 8
v 8 36 8
v 0 32 8
v 0 32 -3
v 8 36 8
v 8 36 4
v 8 -16 4
v 8 -16 8
v 12 -16 4
v 12 -16 8
v 8 36 4
v 8 -16 4
v 12 36 4
v 12 -16 4
v 12 -16 8
v 12 36 8
v 8 36 8
v 8 36 4
v 12 36 8
v 12 36 4
vt 0 -20
vt -4 -20
vt 0 32
vt -4 32
vt 8 -20
vt -4 -20
vt 8 32
vt -4 32
vt 4 -20
vt 0 -20
vt 4 32
vt 0 32
vt -4 -16
vt -8 -16
vt -4 36
vt -8 36
vt 0 8
vt 4 8
vt 0 -3
vt 4 -4
vt 0 -4
vt -4 -4
vt 0 8
vt -4 8
vt -8.944272 -4
vt -8.944272 8
vt 0 4
vt 0 8
vt 1.96313 31.96363
vt 2.617507 -20.04187
vt -8.666857 35.96406
vt -8.666857 -16.03045
vt 8 -16
vt 8 36
vt -14.31083 8
vt -14.31083 -3
vt -23.25511 8
vt -23.25511 4
vt 8 4
vt 8 8
vt 12 4
vt 12 8
vt -8 36
vt -8 -16
vt -12 36
vt -12 -16
vt 12 -16
vt 12 36
vt -8 8
vt -8 4
vt -12 8
vt -12 4
vn 0 0 1
vn 0 0 1
vn 0 0 1
vn 0 0 1
vn -1 0 0
vn -1 0 0
vn -1 0 0
vn -1 0 0
vn 0 0 -1
vn 0.1212467 0.00932667 -0.9849869
vn 0.1212467 0.00932667 -0.9849869
vn 0.2424934 0.01865334 -0.9699737
vn 1 0 0
vn 1 0 0
vn 1 0 0
vn 1 0 0
vn 0 1 0
vn 0 1 0
vn 0 1 0
vn 0 1 0
vn 0 -1 0
vn 0 -1 0
vn 0 -1 0
vn 0 -1 0
vn 0.4472136 -0.8944272 0
vn 0.4472136 -0.8944272 0
vn 0.4472136 -0.8944272 0
vn 0.4472136 -0.8944272 0
vn 0.6543076 0.01454017 -0.7560887
vn 0.6807072 0.007270084 -0.7315978
vn 0.6807072 0.007270084 -0.7315978
vn 0.7071068 0 -0.7071068
vn 0 0 1
vn 0 0 1
vn -0.4472136 0.8944272 0
vn -0.4472136 0.8944272 0
vn -0.4472136 0.8944272 0
vn -0.4472136 0.8944272 0
vn 0 -1 0
vn 0 -1 0
vn 0 -1 0
vn 0 -1 0
vn 0 0 -1
vn 0 0 -1
vn 0 0 -1
vn 0 0 -1
vn 0 0 1
vn 0 0 1
vn 0 1 0
vn 0 1 0
vn 0 1 0
vn 0 1 0
g pb_Mesh50264_0
f 3/3/3 2/2/2 1/1/1
f 3/3/3 4/4/4 2/2/2
f 7/7/7 6/6/6 5/5/5
f 7/7/7 8/8/8 6/6/6
f 11/11/11 10/10/10 9/9/9
f 11/11/11 12/12/12 10/10/10
f 15/15/15 14/14/14 13/13/13
f 15/15/15 16/16/16 14/14/14
f 19/19/19 18/18/18 17/17/17
f 19/19/19 20/20/20 18/18/18
f 23/23/23 22/22/22 21/21/21
f 23/23/23 24/24/24 22/22/22
f 27/27/27 26/26/26 25/25/25
f 27/27/27 28/28/28 26/26/26
f 31/31/31 30/30/30 29/29/29
f 31/31/31 32/32/32 30/30/30
f 33/33/33 3/3/3 1/1/1
f 33/33/33 34/34/34 3/3/3
f 37/37/37 36/36/36 35/35/35
f 37/37/37 38/38/38 36/36/36
f 41/41/41 40/40/40 39/39/39
f 41/41/41 42/42/42 40/40/40
f 45/45/45 44/44/44 43/43/43
f 45/45/45 46/46/46 44/44/44
f 47/47/47 34/34/34 33/33/33
f 47/47/47 48/48/48 34/34/34
f 51/51/51 50/50/50 49/49/49
f 51/51/51 52/52/52 50/50/50
