g pb_Mesh139358
v -1.51524 -2.02032 1.01016
v -2.5254 -2.02032 1.01016
v -1.51524 1.01016 1.01016
v -2.5254 1.01016 1.01016
v -2.5254 -2.02032 1.01016
v -2.5254 -2.02032 -1.01016
v -2.5254 1.01016 1.01016
v -2.5254 1.01016 -1.01016
v -2.5254 -2.02032 -1.01016
v -1.51524 -2.02032 -1.01016
v -2.5254 1.01016 -1.01016
v -1.51524 1.01016 -1.01016
v -1.51524 -2.02032 -1.01016
v -1.51524 -2.02032 1.01016
v -1.51524 1.01016 -1.01016
v -1.51524 1.01016 1.01016
v -1.51524 1.01016 1.01016
v -2.5254 1.01016 1.01016
v -1.51524 1.01016 -1.01016
v -2.5254 1.01016 -1.01016
v -1.51524 -2.02032 -1.01016
v -2.5254 -2.02032 -1.01016
v -1.51524 -2.02032 1.01016
v -2.5254 -2.02032 1.01016
vt -82 8
vt -90 8
vt -82 32
vt -90 32
vt 176 8
vt 160 8
vt 176 32
vt 160 32
vt 90 8
vt 82 8
vt 90 32
vt 82 32
vt -160 8
vt -176 8
vt -160 32
vt -176 32
vt 82 176
vt 90 176
vt 82 160
vt 90 160
vt -82 160
vt -90 160
vt -82 176
vt -90 176
vn 0 0 1
vn 0 0 1
vn 0 0 1
vn 0 0 1
vn -1 0 0
vn -1 0 0
vn -1 0 0
vn -1 0 0
vn 0 0 -1
vn 0 0 -1
vn 0 0 -1
vn 0 0 -1
vn 1 0 0
vn 1 0 0
vn 1 0 0
vn 1 0 0
vn 0 1 0
vn 0 1 0
vn 0 1 0
vn 0 1 0
vn 0 -1 0
vn 0 -1 0
vn 0 -1 0
vn 0 -1 0
g pb_Mesh139358_0
f 3/3/3 2/2/2 1/1/1
f 3/3/3 4/4/4 2/2/2
f 7/7/7 6/6/6 5/5/5
f 7/7/7 8/8/8 6/6/6
f 11/11/11 10/10/10 9/9/9
f 11/11/11 12/12/12 10/10/10
f 15/15/15 14/14/14 13/13/13
f 15/15/15 16/16/16 14/14/14
f 23/23/23 22/22/22 21/21/21
f 23/23/23 24/24/24 22/22/22
g pb_Mesh139358_1
f 19/19/19 18/18/18 17/17/17
f 19/19/19 20/20/20 18/18/18
