g pb_Mesh327774
v 4 0 -8
v 4 0 -32
v 4 8 -32
v 4 8 -8
v 16 0 0
v 16 0 -8
v 16 8 -8
v 16 8 0
v 4 0 -40
v 0 0 -40
v 0 8 -40
v 4 8 -40
v 4 12 -8
v 0 12 -32
v 0 12 -8
v 4 12 -32
v 4 12 0
v 0 12 0
v 0 0 -8
v 4 0 -8
v 4 0 0
v 0 0 0
v 0 0 -32
v 4 0 -32
v 4 0 0
v 4 8 0
v 4 0 2
v 4 8 2
v 4 8 0
v 0 8 0
v 4 8 2
v 0 8 2
v 0 8 0
v 0 0 0
v 0 8 2
v 0 0 2
v 4 12 -40
v 0 12 -40
v 0 8 0
v 4 8 0
v 0 12 0
v 4 12 0
v 4 12 -8
v 4 12 -32
v 16 12 0
v 16 12 -8
v -3 8 0
v 0 0 0
v -3 0 0
v -6 8 0
v -6 0 0
v -3 0 -40
v -3 8 -40
v -6 0 -40
v -6 8 -40
v -3 12 -8
v -6 12 -32
v -6 12 -8
v -3 12 -32
v -3 12 0
v -6 12 0
v -6 0 -8
v -3 0 -8
v -3 0 0
v -6 0 0
v -6 0 -32
v -3 0 -32
v -3 12 -40
v -6 12 -40
v -6 12 0
v -3 12 0
v -42 8 -40
v -42 0 -36
v -42 8 -36
v -42 0 -40
v 4 0 -36
v 4 0 -40
v 4 8 -40
v 4 8 -36
v 0 0 -40
v 4 0 -40
v 4 0 -36
v 0 0 -36
v 4 12 -36
v 0 12 -40
v 0 12 -36
v 4 12 -40
v -42 12 -40
v -42 12 -36
v 4 12 -40
v 4 12 -36
v -6 0 -40
v -3 0 -40
v -3 0 -36
v -6 0 -36
v -3 12 -36
v -6 12 -40
v -6 12 -36
v -3 12 -40
v -42 8 -33
v -42 0 -32
v -42 8 -32
v -42 0 -33
v 4 0 -33
v 4 8 -33
v 4 0 -33
v 0 0 -33
v 4 12 -33
v 0 12 -33
v -42 12 -33
v -42 12 -32
v 4 12 -33
v -3 0 -33
v -6 0 -33
v -3 12 -33
v -6 12 -33
v -16 0 -40
v -16 8 -40
v -16 12 -40
v -16 12 -40
v -16 12 -36
v -16 0 -40
v -16 0 -36
v -16 12 -33
v -16 12 -32
v -16 0 -33
v -16 0 -32
v -28 0 -40
v -42 0 -40
v -42 8 -40
v -28 8 -40
v -42 12 -40
v -28 12 -40
v -28 12 -36
v -42 12 -40
v -42 12 -36
v -28 12 -40
v -42 0 -40
v -28 0 -40
v -28 0 -36
v -42 0 -36
v -28 12 -33
v -42 12 -33
v -28 12 -32
v -42 12 -32
v -28 0 -33
v -42 0 -33
v -28 0 -32
v -42 0 -32
v -16 0 -40
v -16 0 -36
v -16 -1 -40
v -16 -1 -36
v -28 0 -36
v -28 0 -40
v -28 -1 -36
v -28 -1 -40
v -16 0 -33
v -16 -1 -33
v -28 0 -33
v -28 -1 -33
v -16 -2 -40
v -16 -2 -36
v -28 -2 -36
v -28 -2 -40
v -16 -2 -33
v -28 -2 -33
v -16 -4 -40
v -16 -4 -36
v -28 -4 -36
v -28 -4 -40
v -16 -4 -33
v -28 -8 -33
v -16 -12 -36
v -16 -12 -40
v -28 -12 -36
v -28 -12 -40
v -16 -11.75 -33
v -24 0 -40
v -24 8 -40
v -24 12 -40
v -24 12 -36
v -24 12 -40
v -23.99995 -28 -40
v -16 -28 -40
v -16 -28 -38
v -23.99995 -28 -36
v -16 -28 -36
v -24 12 -33
v -24 12 -32
v -22 0 -33
v -22 0 -32
v -24 -1 -40
v -28 -1 -40
v -16 -1 -40
v -22 0 -33
v -16 -1 -33
v -16 0 -33
v -22 -1 -33
v -24 -2 -40
v -28 -2 -40
v -16 -2 -40
v -16 -2 -33
v -22 -2 -33
v -24 -4 -40
v -28 -4 -40
v -16 -4 -40
v -16 -4 -33
v -16 -11.75 -33
v -16 -28 -40
v -23.99995 -28 -40
v -24 -20 -40
v -16 -16 -40
v -23.99995 -28 -36
v -16 -28 -36
v -16 -25.5 -36
v -24 -16 -36
v -16 -16 -36
v -16 -12 -40
v -24 -12 -40
v -28 -12 -40
v -16 -16 -36
v -16 -16 -40
v -24 -16 -40
v -28 -16 -40
v -24 -20 -40
v -24 -16 -36
v -24 -16 -40
v -23.99995 -28 -40
v -24 -16 -36
v -24 -20 -40
v -23.99995 -28 -36
v 16 12 0
v 16 8 0
v 4 8 -8
v 4 12 -8
v 16 8 -8
v 16 12 -8
v 16 12 -8
v 16 12 0
v 16 0 0
v 16 0 -8
v 4 0 -8
v 16 0 -8
v 4 0 0
v 16 0 0
v -22 0 -32
v -22 -1 -33
v -22 0 -33
v -22 -1 -32
v -22 -2 -33
v -22 -8 -33
v -22 -8 -33
v -28 -8 -33
v -28 -6 -32
v -28 -1 -32
v -28 0 -32
v -28 -2 -32
v -28 -6 -32
v -16 -28 -34
v -16 -25.5 -36
v -16 -28 -36
v -16 -25.5 -34
v -15 -28 -38
v -15 -28 -36
v -16 -28 -34
v -15 -28 -34
v -15 -16 -40
v -15 -28 -40
v -15 -28 -40
v -13 -28 -36
v -13 -28 -34
v -14 -16 -40
v -14 -28 -40
v -14 -28 -40
v -14 -28 -38
v -15 -29.5 -36
v -13 -28 -36
v -15 -28 -36
v -13 -29.5 -36
v -15 -29.5 -38
v -15 -28 -36
v -15 -28 -38
v -15 -29.5 -36
v -28 -11.75 -33
v -28 -11.875 -34.5
v -22 -12 -36
v -16 -12 -36
v -20 -11.875 -34.5
v -16 -11.75 -33
v -22 -12 -34.5
v -22 -12 -36
v -20 -11.875 -34.5
v -22 -12 -34.5
v -20 -11.875 -34.5
v -22 -11.75 -33
v -16 -11.75 -33
v -28 -11.75 -33
v -28 -11.875 -34.5
v -22 -12 -34.5
v -22 -11.75 -33
v -28 -14 -36
v -28 -16 -40
v -28 -16 -36
v -16 -12 -36
v -22 -12 -36
v -22 -14 -36
v -26 -14 -36
v -26 -16 -36
v -28 -14 -36
v -28 -16 -36
v -28 -16 -36
v -28 -16 -40
v -26 -16 -36
v -24 -16 -40
v -24 -16 -36
v -28 -8 -33
v -22 -11.75 -33
v -28 -11.75 -33
vt -8 0
vt -32 0
vt -32 8
vt -8 8
vt 0 0
vt -8 0
vt -8 8
vt 0 8
vt 4 0
vt 0 0
vt 0 8
vt 4 8
vt 4 -8
vt 0 -32
vt 0 -8
vt 4 -32
vt 4 0
vt 0 0
vt 0 -8
vt -4 -8
vt -4 0
vt 0 0
vt 0 -32
vt -4 -32
vt 0 0
vt 0 8
vt 2 0
vt 2 8
vt 4 0
vt 0 0
vt 4 2
vt 0 2
vt 0 8
vt 0 0
vt -2 8
vt -2 0
vt 4 12
vt 0 12
vt 0 8
vt -4 8
vt 0 12
vt -4 12
vt -8 12
vt -32 12
vt 0 12
vt -8 12
vt 3 8
vt 0 0
vt 3 0
vt 6 8
vt 6 0
vt -3 0
vt -3 8
vt -6 0
vt -6 8
vt -3 -8
vt -6 -32
vt -6 -8
vt -3 -32
vt -3 0
vt -6 0
vt 6 -8
vt 3 -8
vt 3 0
vt 6 0
vt 6 -32
vt 3 -32
vt -3 12
vt -6 12
vt 6 12
vt 3 12
vt 40 8
vt 36 0
vt 36 8
vt 40 0
vt -36 0
vt -40 0
vt -40 8
vt -36 8
vt 0 -40
vt -4 -40
vt -4 -36
vt 0 -36
vt 4 -36
vt 0 -40
vt 0 -36
vt 4 -40
vt 40 12
vt 36 12
vt -40 12
vt -36 12
vt 6 -40
vt 3 -40
vt 3 -36
vt 6 -36
vt -3 -36
vt -6 -40
vt -6 -36
vt -3 -40
vt 33 8
vt 32 0
vt 32 8
vt 33 0
vt -33 0
vt -33 8
vt -4 -33
vt 0 -33
vt 4 -33
vt 0 -33
vt 33 12
vt 32 12
vt -33 12
vt 3 -33
vt 6 -33
vt -3 -33
vt -6 -33
vt -16 0
vt -16 8
vt -16 12
vt -16 -40
vt -16 -36
vt 16 -40
vt 16 -36
vt -16 -33
vt -16 -32
vt 16 -33
vt 16 -32
vt -28 0
vt -42 0
vt -42 8
vt -28 8
vt -42 12
vt -28 12
vt -28 -36
vt -42 -40
vt -42 -36
vt -28 -40
vt 42 -40
vt 28 -40
vt 28 -36
vt 42 -36
vt -28 -33
vt -42 -33
vt -28 -32
vt -42 -32
vt 28 -33
vt 42 -33
vt 28 -32
vt 42 -32
vt -40 0
vt -36 0
vt -40 -1
vt -36 -1
vt 36 0
vt 40 0
vt 36 -1
vt 40 -1
vt -33 0
vt -33 -1
vt 33 0
vt 33 -1
vt -40 -2
vt -36 -2
vt 36 -2
vt 40 -2
vt -33 -2
vt 33 -2
vt -40 -4
vt -36 -4
vt 36 -4
vt 40 -4
vt -33 -4
vt 33 -8
vt -36 -12
vt -40 -12
vt 36 -12
vt 40 -12
vt -33 -11.75
vt -24 0
vt -24 8
vt -24 12
vt -24 -36
vt -24 -40
vt 23.99995 -40
vt 16 -40
vt 16 -38
vt 23.99995 -36
vt 16 -36
vt -24 -33
vt -24 -32
vt 22 -33
vt 22 -32
vt -24 -1
vt -28 -1
vt -16 -1
vt 22 0
vt 16 -1
vt 16 0
vt 22 -1
vt -24 -2
vt -28 -2
vt -16 -2
vt 16 -2
vt 22 -2
vt -24 -4
vt -28 -4
vt -16 -4
vt 16 -4
vt 16 -11.75
vt -16 -28
vt -23.99995 -28
vt -24 -20
vt -16 -16
vt 23.99995 -28
vt 16 -28
vt 16 -25.5
vt 24 -16
vt 16 -16
vt -16 -12
vt -24 -12
vt -28 -12
vt -36 -16
vt -40 -16
vt -24 -16
vt -28 -16
vt 40 -20
vt 36 -16
vt 40 -16
vt 40.00015 -27.99985
vt 36.00015 -15.99985
vt 40.00015 -19.99985
vt 36.00015 -27.99985
vt -16 12
vt -16 8
vt 4 8
vt 4 12
vt 16 8
vt 16 12
vt 16 -8
vt 16 0
vt -16 0
vt -16 -8
vt 4 0
vt 16 0
vt -4 0
vt -16 0
vt -32 0
vt -33 -1
vt -33 0
vt -32 -1
vt -33 -2
vt 22 -8
vt 22 -8
vt 28 -8
vt 28 -6
vt 32 -1
vt 32 0
vt 32 -2
vt 32 -6
vt 34 -28
vt 36 -25.5
vt 36 -28
vt 34 -25.5
vt 15 -38
vt 15 -36
vt 16 -34
vt 15 -34
vt -15 -16
vt -15 -28
vt 15 -40
vt 13 -36
vt 13 -34
vt -14 -16
vt -14 -28
vt 14 -40
vt 14 -38
vt 15 -29.5
vt 13 -28
vt 15 -28
vt 13 -29.5
vt 38 -29.5
vt 36 -28
vt 38 -28
vt 36 -29.5
vt 33 -11.75
vt 34.5 -11.875
vt 22 -36.87219
vt 16 -36.87219
vt 20 -35.367
vt 16 -33.8618
vt 22.7057 -34.5
vt 22.7057 -36
vt 20.70179 -34.5
vt 22.7057 -35.77242
vt 20.70179 -35.77242
vt 22.6901 -34.2518
vt 16.70179 -34.31322
vt 27.74919 -33.90984
vt 27.74658 -35.41504
vt 21.74528 -35.41504
vt 21.75049 -33.89947
vt 36 -14
vt 40 -16
vt 36 -16
vt 16 -12
vt 22 -12
vt 22 -14
vt 26 -14
vt 26 -16
vt 28 -14
vt 28 -16
vt 28 -36
vt 28 -40
vt 26 -36
vt 24 -40
vt 24 -36
vt 28 -8
vt 22 -11.75
vt 28 -11.75
vn -1 0 0
vn -1 0 0
vn -1 0 0
vn -1 0 0
vn -1 0 0
vn -1 0 0
vn -1 0 0
vn -1 0 0
vn 0 0 1
vn 0 0 1
vn 0 0 1
vn 0 0 1
vn 0 -1 0
vn 0 -1 0
vn 0 -1 0
vn 0 -1 0
vn 0 -1 0
vn 0 -1 0
vn 0 1 0
vn 0 1 0
vn 0 1 0
vn 0 1 0
vn 0 1 0
vn 0 1 0
vn -1 0 0
vn -1 0 0
vn -1 0 0
vn -1 0 0
vn 0 -1 0
vn 0 -1 0
vn 0 -1 0
vn 0 -1 0
vn 1 0 0
vn 1 0 0
vn 1 0 0
vn 1 0 0
vn 0 0 1
vn 0 0 1
vn 0 0 -1
vn 0 0 -1
vn 0 0 -1
vn 0 0 -1
vn -1 0 0
vn -1 0 0
vn -1 0 0
vn -1 0 0
vn 0 0 -1
vn 0 0 -1
vn 0 0 -1
vn 0 0 -1
vn 0 0 -1
vn 0 0 1
vn 0 0 1
vn 0 0 1
vn 0 0 1
vn 0 -1 0
vn 0 -1 0
vn 0 -1 0
vn 0 -1 0
vn 0 -1 0
vn 0 -1 0
vn 0 1 0
vn 0 1 0
vn 0 1 0
vn 0 1 0
vn 0 1 0
vn 0 1 0
vn 0 0 1
vn 0 0 1
vn 0 0 -1
vn 0 0 -1
vn 1 0 0
vn 1 0 0
vn 1 0 0
vn 1 0 0
vn -1 0 0
vn -1 0 0
vn -1 0 0
vn -1 0 0
vn 0 1 0
vn 0 1 0
vn 0 1 0
vn 0 1 0
vn 0 -1 0
vn 0 -1 0
vn 0 -1 0
vn 0 -1 0
vn 1 0 0
vn 1 0 0
vn -1 0 0
vn -1 0 0
vn 0 1 0
vn 0 1 0
vn 0 1 0
vn 0 1 0
vn 0 -1 0
vn 0 -1 0
vn 0 -1 0
vn 0 -1 0
vn 1 0 0
vn 1 0 0
vn 1 0 0
vn 1 0 0
vn -1 0 0
vn -1 0 0
vn 0 1 0
vn 0 1 0
vn 0 -1 0
vn 0 -1 0
vn 1 0 0
vn 1 0 0
vn -1 0 0
vn 0 1 0
vn 0 1 0
vn 0 -1 0
vn 0 -1 0
vn 0 0 1
vn 0 0 1
vn 0 0 1
vn 0 -1 0
vn 0 -1 0
vn 0 1 0
vn 0 1 0
vn 0 -1 0
vn 0 -1 0
vn 0 1 0
vn 0 1 0
vn 0 0 1
vn 0 0 1
vn 0 0 1
vn 0 0 1
vn 0 0 1
vn 0 0 1
vn 0 -1 0
vn 0 -1 0
vn 0 -1 0
vn 0 -1 0
vn 0 1 0
vn 0 1 0
vn 0 1 0
vn 0 1 0
vn 0 -1 0
vn 0 -1 0
vn 0 -1 0
vn 0 -1 0
vn 0 1 0
vn 0 1 0
vn 0 1 0
vn 0 1 0
vn -1 0 0
vn -1 0 0
vn -1 0 0
vn -1 0 0
vn 1 0 0
vn 1 0 0
vn 1 0 0
vn 1 0 0
vn -1 0 0
vn -1 0 0
vn 1 0 0
vn 1 0 0
vn -1 0 0
vn -1 0 0
vn 1 0 0
vn 1 0 0
vn -1 0 0
vn 1 0 0
vn -1 0 0
vn -1 0 0
vn 1 0 0
vn 1 0 0
vn -1 0 0
vn 1 0 0
vn -1 0 0
vn -1 0 0
vn 1 0 0
vn 1 0 0
vn -1 0 0
vn 0 0 1
vn 0 0 1
vn 0 0 1
vn 0 -1 0
vn 0 -1 0
vn 0 1 0
vn 0 1 0
vn 0 1 0
vn 0 1 0
vn 0 1 0
vn 0 -1 0
vn 0 -1 0
vn 0 1 0
vn 0 1 0
vn 0 0 1
vn 0 0 1
vn 0 0 1
vn 0 0 -1
vn 0 0 -1
vn 0 0 -1
vn 0 0 -1
vn 0 0 1
vn 0 0 1
vn 0 0 1
vn 0 0 -1
vn 0 0 -1
vn 0 0 1
vn 0 0 1
vn 0 0 1
vn 0 0 -1
vn 0 0 -1
vn 0 0 1
vn 0 0 1
vn 0 0 1
vn 0 0 1
vn 0 0 -1
vn 0 0 -1
vn 0 0 -1
vn 0 0 -1
vn 0 0 -1
vn 0 0 1
vn 0 0 1
vn 0 0 1
vn -1 0 0
vn -1 0 0
vn 0 0 1
vn 0 0 1
vn 1 0 0
vn 1 0 0
vn 1 0 0
vn 1 5.165736E-06 -3.099442E-06
vn 1 5.165736E-06 -3.099442E-06
vn 1 6.198883E-06 -6.198883E-06
vn 1 4.132589E-06 0
vn 0 0 -1
vn 0 0 -1
vn 0 0 1
vn 0 0 1
vn 0 0 1
vn 0 0 1
vn 0 -1 0
vn 0 -1 0
vn 0 1 0
vn 0 1 0
vn 0 0 1
vn 0 0 1
vn 0 0 -1
vn 0 0 -1
vn -1 0 0
vn -1 0 0
vn -1 0 0
vn -1 0 0
vn -1 0 0
vn 0 0 -1
vn 0 0.2236068 -0.9472136
vn 0 0.2236068 -0.9472136
vn 0 0.4472136 -0.8944272
vn 1 0 0
vn 1 0 0
vn 1 0 0
vn 1 0 0
vn 1 0 0
vn 1 0 0
vn 1 0 0
vn 1 0 0
vn 0 1 0
vn 0 1 0
vn 0 1 0
vn 0 1 0
vn 0 0 1
vn 0 0 1
vn 0 1 0
vn 0 1 0
vn 0 1 0
vn 0 0 1
vn 0 0 1
vn 0 1 0
vn 0 1 0
vn 0 0 -1
vn 0 0 -1
vn 0 0 -1
vn 0 0 -1
vn 1 0 0
vn 1 0 0
vn 1 0 0
vn 1 0 0
vn 1 0 0
vn 1 0 0
vn 0 0.9965458 -0.08304548
vn 0 0.9965458 -0.08304548
vn 0 0.9965458 -0.08304548
vn 0 0.9965458 -0.08304548
vn -0.06237829 0.9980526 0
vn -0.06237829 0.9980526 0
vn -0.06237829 0.9980526 0
vn -0.0615328 0.9845248 -0.1640875
vn -0.0307664 0.9905353 -0.1235665
vn -0.0307664 0.9905353 -0.1235665
vn 0 0.9965458 -0.08304548
vn 0.01037845 0.9913625 -0.1237133
vn 0.0207569 0.996331 -0.08302759
vn 0.01037845 0.9913625 -0.1237133
vn 0 0.9863939 -0.164399
vn 1 0 0
vn 1 0 0
vn 1 0 0
vn 0 0 -1
vn 0 0 -1
vn 0 0 -1
vn 0 0 -1
vn 0 0 -1
vn 0 0 -1
vn 0 0 -1
vn 0 1 0
vn 0 1 0
vn 0 1 0
vn 0 1 0
vn 0 1 0
vn 0 0 -1
vn 0 0 -1
vn 0 0 -1
g pb_Mesh327774_0
g pb_Mesh327774_1
f 3/3/3 2/2/2 1/1/1
f 3/3/3 1/1/1 4/4/4
f 7/7/7 6/6/6 5/5/5
f 7/7/7 5/5/5 8/8/8
f 11/11/11 10/10/10 9/9/9
f 11/11/11 9/9/9 12/12/12
f 15/15/15 14/14/14 13/13/13
f 14/14/14 16/16/16 13/13/13
f 18/18/18 15/15/15 17/17/17
f 15/15/15 13/13/13 17/17/17
f 21/21/21 20/20/20 19/19/19
f 21/21/21 19/19/19 22/22/22
f 20/20/20 24/24/24 23/23/23
f 20/20/20 23/23/23 19/19/19
f 27/27/27 26/26/26 25/25/25
f 27/27/27 28/28/28 26/26/26
f 31/31/31 30/30/30 29/29/29
f 31/31/31 32/32/32 30/30/30
f 35/35/35 34/34/34 33/33/33
f 35/35/35 36/36/36 34/34/34
f 37/37/37 11/11/11 12/12/12
f 37/37/37 38/38/38 11/11/11
f 41/41/41 40/40/40 39/39/39
f 41/41/41 42/42/42 40/40/40
f 43/43/43 3/3/3 4/4/4
f 43/43/43 44/44/44 3/3/3
f 45/45/45 7/7/7 8/8/8
f 45/45/45 46/46/46 7/7/7
f 39/39/39 48/48/48 47/47/47
f 48/48/48 49/49/49 47/47/47
f 47/47/47 49/49/49 50/50/50
f 49/49/49 51/51/51 50/50/50
f 53/53/53 52/52/52 10/10/10
f 53/53/53 10/10/10 11/11/11
f 55/55/55 54/54/54 52/52/52
f 55/55/55 52/52/52 53/53/53
f 58/58/58 57/57/57 56/56/56
f 57/57/57 59/59/59 56/56/56
f 56/56/56 59/59/59 15/15/15
f 59/59/59 14/14/14 15/15/15
f 61/61/61 58/58/58 60/60/60
f 58/58/58 56/56/56 60/60/60
f 60/60/60 56/56/56 18/18/18
f 56/56/56 15/15/15 18/18/18
f 64/64/64 63/63/63 62/62/62
f 64/64/64 62/62/62 65/65/65
f 22/22/22 19/19/19 63/63/63
f 22/22/22 63/63/63 64/64/64
f 63/63/63 67/67/67 66/66/66
f 63/63/63 66/66/66 62/62/62
f 19/19/19 23/23/23 67/67/67
f 19/19/19 67/67/67 63/63/63
f 68/68/68 53/53/53 11/11/11
f 68/68/68 11/11/11 38/38/38
f 69/69/69 55/55/55 53/53/53
f 69/69/69 53/53/53 68/68/68
f 71/71/71 47/47/47 70/70/70
f 47/47/47 50/50/50 70/70/70
f 41/41/41 39/39/39 71/71/71
f 39/39/39 47/47/47 71/71/71
f 74/74/74 73/73/73 72/72/72
f 73/73/73 75/75/75 72/72/72
f 78/78/78 77/77/77 76/76/76
f 78/78/78 76/76/76 79/79/79
f 82/82/82 81/81/81 80/80/80
f 82/82/82 80/80/80 83/83/83
f 86/86/86 85/85/85 84/84/84
f 85/85/85 87/87/87 84/84/84
f 89/89/89 74/74/74 88/88/88
f 74/74/74 72/72/72 88/88/88
f 90/90/90 78/78/78 79/79/79
f 90/90/90 79/79/79 91/91/91
f 94/94/94 93/93/93 92/92/92
f 94/94/94 92/92/92 95/95/95
f 83/83/83 80/80/80 93/93/93
f 83/83/83 93/93/93 94/94/94
f 98/98/98 97/97/97 96/96/96
f 97/97/97 99/99/99 96/96/96
f 96/96/96 99/99/99 86/86/86
f 99/99/99 85/85/85 86/86/86
f 102/102/102 101/101/101 100/100/100
f 101/101/101 103/103/103 100/100/100
f 100/100/100 103/103/103 74/74/74
f 103/103/103 73/73/73 74/74/74
f 105/105/105 104/104/104 2/2/2
f 105/105/105 2/2/2 3/3/3
f 79/79/79 76/76/76 104/104/104
f 79/79/79 104/104/104 105/105/105
f 106/106/106 82/82/82 83/83/83
f 106/106/106 83/83/83 107/107/107
f 24/24/24 106/106/106 107/107/107
f 24/24/24 107/107/107 23/23/23
f 109/109/109 86/86/86 108/108/108
f 86/86/86 84/84/84 108/108/108
f 14/14/14 109/109/109 16/16/16
f 109/109/109 108/108/108 16/16/16
f 111/111/111 102/102/102 110/110/110
f 102/102/102 100/100/100 110/110/110
f 110/110/110 100/100/100 89/89/89
f 100/100/100 74/74/74 89/89/89
f 112/112/112 105/105/105 3/3/3
f 112/112/112 3/3/3 44/44/44
f 91/91/91 79/79/79 105/105/105
f 91/91/91 105/105/105 112/112/112
f 113/113/113 94/94/94 95/95/95
f 113/113/113 95/95/95 114/114/114
f 67/67/67 113/113/113 114/114/114
f 67/67/67 114/114/114 66/66/66
f 107/107/107 83/83/83 94/94/94
f 107/107/107 94/94/94 113/113/113
f 23/23/23 107/107/107 113/113/113
f 23/23/23 113/113/113 67/67/67
f 116/116/116 98/98/98 115/115/115
f 98/98/98 96/96/96 115/115/115
f 57/57/57 116/116/116 59/59/59
f 116/116/116 115/115/115 59/59/59
f 115/115/115 96/96/96 109/109/109
f 96/96/96 86/86/86 109/109/109
f 59/59/59 115/115/115 14/14/14
f 115/115/115 109/109/109 14/14/14
f 118/118/118 117/117/117 54/54/54
f 118/118/118 54/54/54 55/55/55
f 119/119/119 118/118/118 55/55/55
f 119/119/119 55/55/55 69/69/69
f 121/121/121 120/120/120 98/98/98
f 120/120/120 97/97/97 98/98/98
f 95/95/95 92/92/92 122/122/122
f 95/95/95 122/122/122 123/123/123
f 124/124/124 121/121/121 116/116/116
f 121/121/121 98/98/98 116/116/116
f 125/125/125 124/124/124 57/57/57
f 124/124/124 116/116/116 57/57/57
f 114/114/114 95/95/95 123/123/123
f 114/114/114 123/123/123 126/126/126
f 66/66/66 114/114/114 126/126/126
f 66/66/66 126/126/126 127/127/127
f 130/130/130 129/129/129 128/128/128
f 130/130/130 128/128/128 131/131/131
f 132/132/132 130/130/130 131/131/131
f 132/132/132 131/131/131 133/133/133
f 136/136/136 135/135/135 134/134/134
f 135/135/135 137/137/137 134/134/134
f 140/140/140 139/139/139 138/138/138
f 140/140/140 138/138/138 141/141/141
f 143/143/143 136/136/136 142/142/142
f 136/136/136 134/134/134 142/142/142
f 145/145/145 143/143/143 144/144/144
f 143/143/143 142/142/142 144/144/144
f 146/146/146 140/140/140 141/141/141
f 146/146/146 141/141/141 147/147/147
f 148/148/148 146/146/146 147/147/147
f 148/148/148 147/147/147 149/149/149
f 152/152/152 151/151/151 150/150/150
f 152/152/152 153/153/153 151/151/151
f 156/156/156 155/155/155 154/154/154
f 156/156/156 157/157/157 155/155/155
f 153/153/153 158/158/158 151/151/151
f 153/153/153 159/159/159 158/158/158
f 161/161/161 154/154/154 160/160/160
f 161/161/161 156/156/156 154/154/154
f 162/162/162 153/153/153 152/152/152
f 162/162/162 163/163/163 153/153/153
f 164/164/164 157/157/157 156/156/156
f 164/164/164 165/165/165 157/157/157
f 163/163/163 159/159/159 153/153/153
f 163/163/163 166/166/166 159/159/159
f 167/167/167 156/156/156 161/161/161
f 167/167/167 164/164/164 156/156/156
f 168/168/168 163/163/163 162/162/162
f 168/168/168 169/169/169 163/163/163
f 170/170/170 165/165/165 164/164/164
f 170/170/170 171/171/171 165/165/165
f 169/169/169 166/166/166 163/163/163
f 169/169/169 172/172/172 166/166/166
f 173/173/173 164/164/164 167/167/167
f 173/173/173 170/170/170 164/164/164
f 168/168/168 175/175/175 174/174/174
f 168/168/168 174/174/174 169/169/169
f 170/170/170 176/176/176 171/171/171
f 176/176/176 177/177/177 171/171/171
f 169/169/169 174/174/174 178/178/178
f 169/169/169 178/178/178 172/172/172
f 180/180/180 179/179/179 117/117/117
f 180/180/180 117/117/117 118/118/118
f 131/131/131 128/128/128 179/179/179
f 131/131/131 179/179/179 180/180/180
f 181/181/181 180/180/180 118/118/118
f 181/181/181 118/118/118 119/119/119
f 133/133/133 131/131/131 180/180/180
f 133/133/133 180/180/180 181/181/181
f 134/134/134 137/137/137 182/182/182
f 137/137/137 183/183/183 182/182/182
f 182/182/182 183/183/183 121/121/121
f 183/183/183 120/120/120 121/121/121
f 186/186/186 185/185/185 184/184/184
f 187/187/187 186/186/186 184/184/184
f 187/187/187 188/188/188 186/186/186
f 142/142/142 134/134/134 189/189/189
f 134/134/134 182/182/182 189/189/189
f 189/189/189 182/182/182 124/124/124
f 182/182/182 121/121/121 124/124/124
f 144/144/144 142/142/142 190/190/190
f 142/142/142 189/189/189 190/190/190
f 190/190/190 189/189/189 125/125/125
f 189/189/189 124/124/124 125/125/125
f 127/127/127 126/126/126 191/191/191
f 127/127/127 191/191/191 192/192/192
f 128/128/128 194/194/194 193/193/193
f 128/128/128 193/193/193 179/179/179
f 179/179/179 193/193/193 195/195/195
f 179/179/179 195/195/195 117/117/117
f 198/198/198 197/197/197 196/196/196
f 197/197/197 199/199/199 196/196/196
f 194/194/194 201/201/201 200/200/200
f 194/194/194 200/200/200 193/193/193
f 193/193/193 200/200/200 202/202/202
f 193/193/193 202/202/202 195/195/195
f 197/197/197 203/203/203 199/199/199
f 203/203/203 204/204/204 199/199/199
f 201/201/201 206/206/206 205/205/205
f 201/201/201 205/205/205 200/200/200
f 200/200/200 205/205/205 207/207/207
f 200/200/200 207/207/207 202/202/202
f 203/203/203 208/208/208 204/204/204
f 208/208/208 209/209/209 204/204/204
f 212/212/212 211/211/211 210/210/210
f 212/212/212 210/210/210 213/213/213
f 216/216/216 215/215/215 214/214/214
f 217/217/217 216/216/216 214/214/214
f 217/217/217 218/218/218 216/216/216
f 205/205/205 220/220/220 219/219/219
f 205/205/205 219/219/219 207/207/207
f 206/206/206 221/221/221 220/220/220
f 206/206/206 220/220/220 205/205/205
f 175/175/175 223/223/223 222/222/222
f 175/175/175 222/222/222 174/174/174
f 224/224/224 212/212/212 213/213/213
f 220/220/220 224/224/224 213/213/213
f 220/220/220 213/213/213 219/219/219
f 221/221/221 225/225/225 224/224/224
f 221/221/221 224/224/224 220/220/220
f 228/228/228 227/227/227 226/226/226
f 231/231/231 230/230/230 229/229/229
f 230/230/230 232/232/232 229/229/229
f 233/233/233 40/40/40 42/42/42
f 233/233/233 234/234/234 40/40/40
f 237/237/237 236/236/236 235/235/235
f 237/237/237 238/238/238 236/236/236
f 239/239/239 17/17/17 13/13/13
f 239/239/239 240/240/240 17/17/17
f 241/241/241 20/20/20 21/21/21
f 241/241/241 242/242/242 20/20/20
f 244/244/244 235/235/235 243/243/243
f 244/244/244 237/237/237 235/235/235
f 234/234/234 245/245/245 40/40/40
f 234/234/234 246/246/246 245/245/245
f 249/249/249 248/248/248 247/247/247
f 248/248/248 250/250/250 247/247/247
f 248/248/248 251/251/251 250/250/250
f 209/209/209 252/252/252 204/204/204
f 209/209/209 254/254/254 253/253/253
f 254/254/254 255/255/255 253/253/253
f 161/161/161 160/160/160 256/256/256
f 160/160/160 257/257/257 256/256/256
f 167/167/167 161/161/161 258/258/258
f 161/161/161 256/256/256 258/258/258
f 173/173/173 167/167/167 259/259/259
f 167/167/167 258/258/258 259/259/259
f 262/262/262 261/261/261 260/260/260
f 261/261/261 263/263/263 260/260/260
f 186/186/186 188/188/188 264/264/264
f 188/188/188 265/265/265 264/264/264
f 188/188/188 266/266/266 265/265/265
f 266/266/266 267/267/267 265/265/265
f 269/269/269 268/268/268 213/213/213
f 269/269/269 213/213/213 210/210/210
f 185/185/185 186/186/186 270/270/270
f 186/186/186 264/264/264 270/270/270
f 265/265/265 267/267/267 271/271/271
f 267/267/267 272/272/272 271/271/271
f 274/274/274 273/273/273 268/268/268
f 274/274/274 268/268/268 269/269/269
f 270/270/270 264/264/264 275/275/275
f 264/264/264 276/276/276 275/275/275
f 279/279/279 278/278/278 277/277/277
f 278/278/278 280/280/280 277/277/277
f 283/283/283 282/282/282 281/281/281
f 282/282/282 284/284/284 281/281/281
f 173/173/173 285/285/285 170/170/170
f 285/285/285 286/286/286 170/170/170
f 286/286/286 176/176/176 170/170/170
f 289/289/289 288/288/288 287/287/287
f 290/290/290 288/288/288 289/289/289
f 293/293/293 292/292/292 291/291/291
f 296/296/296 295/295/295 294/294/294
f 297/297/297 295/295/295 296/296/296
f 300/300/300 299/299/299 298/298/298
f 301/301/301 300/300/300 298/298/298
f 176/176/176 302/302/302 177/177/177
f 302/302/302 303/303/303 177/177/177
f 302/302/302 304/304/304 303/303/303
f 307/307/307 306/306/306 305/305/305
f 218/218/218 307/307/307 305/305/305
f 218/218/218 217/217/217 307/307/307
f 307/307/307 217/217/217 308/308/308
f 217/217/217 309/309/309 308/308/308
f 308/308/308 309/309/309 310/310/310
f 309/309/309 311/311/311 310/310/310
f 314/314/314 313/313/313 312/312/312
f 313/313/313 314/314/314 315/315/315
f 314/314/314 316/316/316 315/315/315
f 209/209/209 318/318/318 317/317/317
f 318/318/318 319/319/319 317/317/317
