g pb_Mesh195378
v -28.00006 9.298325E-05 -42
v -16 9.298325E-05 -42
v -28.00006 9.298325E-05 -34
v -16 9.298325E-05 -34
v -9.999971 9.298325E-05 -34
v -9.999971 9.298325E-05 -42
v -28 0 0
v -28 0 -13
v -28 2 -13
v -28 2 0
v -28 4 -13
v -28 4 0
v -28 0 -26
v -28 2 -26
v -28 4 -26
v -4 2 -13
v -4 0 0
v -4 2 0
v -4 0 -13
v -4 4 -13
v -4 4 0
v -4 2 -26
v -4 0 -26
v -4 4 -26
v -16 0 0
v -28 0 0
v -28 2 0
v -16 2 0
v -28 4 0
v -16 4 0
v -28 4.000035 -34
v -28.00003 3.022618 -34
v -16 3.022618 -34
v -16 4.000035 -34
v -28.00006 9.298325E-05 -34
v -16 9.298325E-05 -34
v -4 0 0
v -10 0 0
v -10 2 0
v -4 2 0
v -10 4 0
v -4 4 0
v -10 4.000035 -34
v -9.999986 3.022618 -34
v -4 4.000035 -34
v -3.999971 3.022618 -34
v -9.999971 9.298325E-05 -34
v -3.999943 9.298325E-05 -34
v -28 6 -13
v -28 6 0
v -28 8 -13
v -28 8 0
v -28 7.5 -26
v -28 8 -26
v -4 6.943398 -13
v -4 6.943398 0
v -4 8 -13
v -4 8 0
v -4 6.943398 -26
v -4 8 -26
v -28 6 0
v -16 6 0
v -28 8 0
v -16 8 0
v -28 7.5 -26
v -16 4 -26
v -16 7.5 -26
v -28 4 -26
v -28 8 -26
v -16 8 -26
v -10 6 0
v -4 6.943398 0
v -10 8 0
v -4 8 0
v -12 6.943398 -30
v -4 4 -30
v -4 6.943398 -30
v -12 4 -30
v -12 8 -30
v -4 8 -30
v -12 4 -26
v -12 7.5 -26
v -12 8 -26
v -4 6.943398 -30
v -4 8 -30
v -4 8 -26
v -12 8 -26
v -4 8 -30
v -12 8 -30
v -4 4 -30
v -28 4.000035 -34
v -16 4.000035 -34
v -16 4.000018 -30
v -28 4.000018 -30
v -16 4 -26
v -28 4 -26
v -11 4.000018 -30
v -10 4.000035 -34
v -12 4 -26
v -4 4.000035 -34
v -4 4 -30
v -4 4 -26
v -3.999971 3.022618 -34
v -3.999943 9.298325E-05 -34
v -3.999986 3.022586 -30
v -3.999971 4.649162E-05 -30
v -4 2 -26
v -4 0 -26
v -4 4.000035 -34
v -3.999971 3.022618 -34
v -4 4 -30
v -3.999986 3.022586 -30
v -28 4 -26
v -28 2 -26
v -28.00002 2.000032 -30
v -28 4.000018 -30
v -28 4.000018 -30
v -28.00002 2.000032 -30
v -28.00003 3.022618 -34
v -28 4.000035 -34
v -28 0 -26
v -28.00003 4.649162E-05 -30
v -28.00003 4.649162E-05 -30
v -28.00006 9.298325E-05 -34
v -28.00006 -1.999971 -34
v -28 -0.75 -42
v -28.00006 9.298325E-05 -34
v -28.00006 9.298325E-05 -42
v -28.00006 -1.999971 -34
v -28.00007 -4.000035 -34
v -28.00006 -4.000022 -42
v -28 -0.75 -42
v -4 -2 -13
v -4 -4 0
v -4 -2 0
v -4 -4 -13
v -4 -2 -26
v -4 -4 -26
v -28 -4 -13
v -28 -4 -26
v -28 -2 -26
v -28 -2 -13
v -28 -4 0
v -28 -2 0
v -28 -0.75 -42
v -16 -4.000011 -42
v -16 -0.75 -42
v -28.00006 -4.000022 -42
v -28.00006 9.298325E-05 -42
v -16 9.298325E-05 -42
v -16 -4 0
v -28 -4 0
v -28 -2 0
v -16 -2 0
v -4 -4 0
v -10 -4 0
v -10 -2 0
v -4 -2 0
v -10 -0.75 -42
v -9.999971 9.298325E-05 -42
v -9.999971 -4 -42
v -9.999971 9.298325E-05 -42
v -10 -0.75 -34
v -9.999971 9.298325E-05 -34
v -10 -0.75 -42
v -10 -0.75 -42
v -9.999971 -4 -34.00008
v -10 -0.75 -34
v -9.999971 -4 -42
v -10 -0.75 -34
v -3.999939 -1.999962 -34.00002
v -10 -0.75 -34
v -9.999971 -4 -34.00008
v -3.999939 -1.999962 -34.00002
v -3.999936 -4.000018 -34.00005
v -28 -2 -26
v -28.00003 -1.999986 -30
v -28 -4 -26
v -28.00003 -4.000018 -30
v -28.00003 -1.999986 -30
v -28.00006 -1.999971 -34
v -28.00006 9.298325E-05 -34
v -28.00007 -4.000035 -34
v -28.00006 -1.999971 -34
v -3.99997 -1.999981 -30.00001
v -4 -2 -26
v -3.999968 -4.000009 -30.00002
v -4 -4 -26
v -3.999939 -1.999962 -34.00002
v -3.999936 -4.000018 -34.00005
v -28 8 -13
v -16 8 -13
v -16 8 0
v -28 8 0
v -28 8 -26
v -16 8 -26
v -10 8 -13
v -10 8 0
v -4 8 -13
v -4 8 0
v -12 8 -26
v -4 8 -26
vt 28.00006 -42
vt 16 -42
vt 28.00006 -34
vt 16 -34
vt 9.999971 -34
vt 9.999971 -42
vt 0 0
vt -13 0
vt -13 2
vt 0 2
vt -13 4
vt 0 4
vt -26 0
vt -26 2
vt -26 4
vt 13 2
vt 0 0
vt 0 2
vt 13 0
vt 13 4
vt 0 4
vt 26 2
vt 26 0
vt 26 4
vt -16 0
vt -28 0
vt -28 2
vt -16 2
vt -28 4
vt -16 4
vt 28 4.000035
vt 28.00003 3.022618
vt 16 3.022618
vt 16 4.000035
vt 28.00006 9.298325E-05
vt 16 9.298325E-05
vt -4 0
vt -10 0
vt -10 2
vt -4 2
vt -10 4
vt -4 4
vt 10 4.000035
vt 9.999986 3.022618
vt 4 4.000035
vt 3.999971 3.022618
vt 9.999971 9.298325E-05
vt 3.999943 9.298325E-05
vt -13 6
vt 0 6
vt -13 8
vt 0 8
vt -26 7.5
vt -26 8
vt 13 6.943398
vt 0 6.943398
vt 13 8
vt 0 8
vt 26 6.943398
vt 26 8
vt -28 6
vt -16 6
vt -28 8
vt -16 8
vt 28 7.5
vt 16 4
vt 16 7.5
vt 28 4
vt 28 8
vt 16 8
vt -10 6
vt -4 6.943398
vt -10 8
vt -4 8
vt 12 6.943398
vt 4 4
vt 4 6.943398
vt 12 4
vt 12 8
vt 4 8
vt 12 4
vt 12 7.5
vt 12 8
vt 30 6.943398
vt 30 8
vt 4 -26
vt 12 -26
vt 4 -30
vt 12 -30
vt 30 4
vt 28 -34.00002
vt 16 -34.00002
vt 16 -30.00002
vt 28 -30.00002
vt 16 -26.00002
vt 28 -26.00002
vt 11 -30.00002
vt 10 -34.00002
vt 12 -26.00002
vt 4 -34.00003
vt 4 -30.00003
vt 4.00001 -26
vt 33.99998 3.022656
vt 33.99998 0.0001308465
vt 29.99998 3.022624
vt 29.99998 8.435505E-05
vt 25.99998 2.000019
vt 25.99998 1.893184E-05
vt 34 4.000153
vt 34 3.022735
vt 30 4.000117
vt 30 3.022703
vt -26.00011 4
vt -26.00011 2
vt -30.00011 2.000032
vt -30.00011 4.000018
vt -30.00014 3.999804
vt -30.00014 1.999818
vt -34.00013 3.022405
vt -34.00013 3.999822
vt -26.0002 0
vt -30.0002 4.649162E-05
vt -30.0002 -0.0001404287
vt -34.0002 -9.393704E-05
vt -33.99979 -2.000078
vt -41.99979 -0.7501068
vt -33.99979 -1.382604E-05
vt -41.99979 -1.382627E-05
vt -33.99995 -2.000051
vt -33.99995 -4.000115
vt -41.99995 -4.000103
vt -41.99995 -0.7500801
vt 13 -2
vt 0 -4
vt 0 -2
vt 13 -4
vt 26 -2
vt 26 -4
vt -13 -4
vt -26 -4
vt -26 -2
vt -13 -2
vt 0 -4
vt 0 -2
vt 28 -0.75
vt 16 -4.000011
vt 16 -0.75
vt 28.00006 -4.000022
vt 28.00006 9.298325E-05
vt 16 9.298325E-05
vt -16 -4
vt -28 -4
vt -28 -2
vt -16 -2
vt -4 -4
vt -10 -4
vt -10 -2
vt -4 -2
vt 10 -0.75
vt 9.999971 9.298325E-05
vt 9.999971 -4
vt 42 -0.0002884381
vt 34 -0.7503814
vt 34 -0.0002884381
vt 42 -0.7503814
vt 42 -0.749912
vt 34.00008 -3.999912
vt 34 -0.749912
vt 42 -3.999912
vt 10 -0.75
vt 3.999939 -1.999962
vt 10.00004 -0.7507982
vt 10.00001 -4.000798
vt 3.999976 -2.000761
vt 3.999973 -4.000816
vt -26.00021 -2
vt -30.00021 -1.999986
vt -26.00024 -4.000053
vt -30.00024 -4.000071
vt -30.00024 -2.000039
vt -34.00024 -1.999998
vt -34.00024 6.628101E-05
vt -34.00026 -4.000115
vt -34.00026 -2.000051
vt 29.99998 -1.999978
vt 25.99997 -1.999997
vt 29.99999 -4.000005
vt 25.99997 -3.999997
vt 33.99999 -1.999956
vt 34.00002 -4.000011
vt 28 -13
vt 16 -13
vt 16 0
vt 28 0
vt 28 -26
vt 16 -26
vt 10 -13
vt 10 0
vt 4 -13
vt 4 0
vt 12 -26
vt 4 -26
vn 0 1 0
vn 0 1 0
vn 0 1 0
vn 0 1 0
vn 0 1 0
vn 0 1 0
vn -1 0 0
vn -1 0 0
vn -1 0 0
vn -1 0 0
vn -1 0 0
vn -1 0 0
vn -1 0 0
vn -1 0 0
vn -1 0 0
vn 1 0 0
vn 1 0 0
vn 1 0 0
vn 1 0 0
vn 1 0 0
vn 1 0 0
vn 1 0 0
vn 1 0 0
vn 1 0 0
vn 0 0 1
vn 0 0 1
vn 0 0 1
vn 0 0 1
vn 0 0 1
vn 0 0 1
vn 0 0 -1
vn 0 0 -1
vn 0 0 -1
vn 0 0 -1
vn 0 0 -1
vn 0 0 -1
vn 0 0 1
vn 0 0 1
vn 0 0 1
vn 0 0 1
vn 0 0 1
vn 0 0 1
vn 0 0 -1
vn 0 0 -1
vn 0 0 -1
vn 0 0 -1
vn 0 0 -1
vn 0 0 -1
vn -1 0 0
vn -1 0 0
vn -1 0 0
vn -1 0 0
vn -1 0 0
vn -1 0 0
vn 1 0 0
vn 1 0 0
vn 1 0 0
vn 1 0 0
vn 1 0 0
vn 1 0 0
vn 0 0 1
vn 0 0 1
vn 0 0 1
vn 0 0 1
vn 0 0 -1
vn 0 0 -1
vn 0 0 -1
vn 0 0 -1
vn 0 0 -1
vn 0 0 -1
vn 0 0 1
vn 0 0 1
vn 0 0 1
vn 0 0 1
vn 0 0 -1
vn 0 0 -1
vn 0 0 -1
vn 0 0 -1
vn 0 0 -1
vn 0 0 -1
vn 0 0 -1
vn 0 0 -1
vn 0 0 -1
vn 1 0 0
vn 1 0 0
vn 0 1 0
vn 0 1 0
vn 0 1 0
vn 0 1 0
vn 1 0 0
vn 0 1 4.410744E-06
vn 0 1 4.410744E-06
vn 0 1 4.410744E-06
vn 0 1 4.410744E-06
vn 0 1 4.410744E-06
vn 0 1 4.410744E-06
vn 0 1 4.410744E-06
vn 0 1 4.410744E-06
vn 0 1 4.410744E-06
vn 0 1 8.821487E-06
vn 1.260212E-06 1 6.931169E-06
vn 1.260212E-06 1 2.205372E-06
vn 1 9.465671E-06 3.576354E-06
vn 1 7.099242E-06 5.364484E-06
vn 1 7.099242E-06 5.364484E-06
vn 1 4.732813E-06 7.152612E-06
vn 1 2.366406E-06 5.969382E-06
vn 1 0 7.152557E-06
vn 1 2.927126E-05 2.582161E-10
vn 1 2.195347E-05 1.788327E-06
vn 1 2.195347E-05 1.788327E-06
vn 1 1.463568E-05 3.576396E-06
vn -1 3.814725E-06 1.907365E-06
vn -1 0 3.814697E-06
vn -1 3.814725E-06 1.907365E-06
vn -1 7.629449E-06 3.365154E-11
vn -1 1.747465E-05 2.405793E-06
vn -1 7.629449E-06 4.811466E-06
vn -1 1.747465E-05 2.405793E-06
vn -1 2.731985E-05 1.205008E-10
vn -1 0 7.152557E-06
vn -1 3.337884E-06 5.483654E-06
vn -1 6.675769E-06 7.152635E-06
vn -1 8.386242E-06 6.297424E-06
vn -1 3.814575E-06 -7.510218E-06
vn -1 -3.623496E-05 -3.755109E-06
vn -1 -3.623496E-05 -3.755109E-06
vn -1 -7.628449E-05 0
vn -1 1.023355E-05 -3.512128E-06
vn -1 2.860931E-06 -1.668925E-06
vn -1 1.023355E-05 -3.512128E-06
vn -1 1.760617E-05 -5.35533E-06
vn 1 0 0
vn 1 0 0
vn 1 0 0
vn 1 0 0
vn 1 0 0
vn 1 0 0
vn -1 0 0
vn -1 0 0
vn -1 0 0
vn -1 0 0
vn -1 0 0
vn -1 0 0
vn 0 0 -1
vn 0 0 -1
vn 0 0 -1
vn 0 0 -1
vn 0 0 -1
vn 0 0 -1
vn 0 0 1
vn 0 0 1
vn 0 0 1
vn 0 0 1
vn 0 0 1
vn 0 0 1
vn 0 0 1
vn 0 0 1
vn 0 0 -1
vn 0 0 -1
vn 0 0 -1
vn 1 -3.814224E-05 0
vn 1 -3.814224E-05 0
vn 1 -3.814224E-05 0
vn 1 -3.814224E-05 0
vn 1 8.803147E-06 0
vn 1 8.803147E-06 0
vn 1 8.803147E-06 0
vn 1 8.803147E-06 0
vn -7.153176E-07 5.721886E-06 -1
vn -1.430635E-06 1.144377E-05 -1
vn 1.075784E-06 2.347507E-05 -1
vn 3.081026E-06 1.745943E-05 -1
vn 3.081026E-06 1.745943E-05 -1
vn 5.086267E-06 1.144378E-05 -1
vn -1 0 7.629395E-06
vn -1 4.768295E-07 7.390982E-06
vn -1 9.536591E-07 8.106228E-06
vn -1 1.907318E-06 8.583061E-06
vn -1 9.536591E-07 8.106228E-06
vn -1 2.384117E-06 7.867837E-06
vn -1 3.814575E-06 7.152602E-06
vn -1 2.860931E-06 9.059894E-06
vn -1 2.384125E-06 8.821485E-06
vn 1 4.172063E-07 7.361167E-06
vn 1 0 7.569768E-06
vn 1 8.344078E-07 7.986974E-06
vn 1 4.172039E-07 7.778372E-06
vn 1 1.668797E-06 7.569776E-06
vn 1 1.668792E-06 7.986973E-06
vn 0 1 0
vn 0 1 0
vn 0 1 0
vn 0 1 0
vn 0 1 0
vn 0 1 0
vn 0 1 0
vn 0 1 0
vn 0 1 0
vn 0 1 0
vn 0 1 0
vn 0 1 0
g pb_Mesh195378_0
f 3/3/3 2/2/2 1/1/1
f 3/3/3 4/4/4 2/2/2
f 4/4/4 5/5/5 2/2/2
f 5/5/5 6/6/6 2/2/2
f 9/9/9 8/8/8 7/7/7
f 9/9/9 7/7/7 10/10/10
f 11/11/11 9/9/9 10/10/10
f 11/11/11 10/10/10 12/12/12
f 14/14/14 13/13/13 8/8/8
f 14/14/14 8/8/8 9/9/9
f 15/15/15 14/14/14 9/9/9
f 15/15/15 9/9/9 11/11/11
f 18/18/18 17/17/17 16/16/16
f 17/17/17 19/19/19 16/16/16
f 21/21/21 18/18/18 20/20/20
f 18/18/18 16/16/16 20/20/20
f 16/16/16 19/19/19 22/22/22
f 19/19/19 23/23/23 22/22/22
f 20/20/20 16/16/16 24/24/24
f 16/16/16 22/22/22 24/24/24
f 27/27/27 26/26/26 25/25/25
f 27/27/27 25/25/25 28/28/28
f 29/29/29 27/27/27 28/28/28
f 29/29/29 28/28/28 30/30/30
f 33/33/33 32/32/32 31/31/31
f 34/34/34 33/33/33 31/31/31
f 36/36/36 35/35/35 32/32/32
f 33/33/33 36/36/36 32/32/32
f 39/39/39 38/38/38 37/37/37
f 39/39/39 37/37/37 40/40/40
f 41/41/41 39/39/39 40/40/40
f 41/41/41 40/40/40 42/42/42
f 28/28/28 25/25/25 38/38/38
f 28/28/28 38/38/38 39/39/39
f 30/30/30 28/28/28 39/39/39
f 30/30/30 39/39/39 41/41/41
f 45/45/45 44/44/44 43/43/43
f 46/46/46 44/44/44 45/45/45
f 46/46/46 47/47/47 44/44/44
f 48/48/48 47/47/47 46/46/46
f 33/33/33 34/34/34 43/43/43
f 33/33/33 43/43/43 44/44/44
f 36/36/36 33/33/33 44/44/44
f 36/36/36 44/44/44 47/47/47
f 49/49/49 11/11/11 12/12/12
f 49/49/49 12/12/12 50/50/50
f 51/51/51 49/49/49 50/50/50
f 51/51/51 50/50/50 52/52/52
f 53/53/53 15/15/15 11/11/11
f 53/53/53 11/11/11 49/49/49
f 54/54/54 53/53/53 49/49/49
f 54/54/54 49/49/49 51/51/51
f 56/56/56 21/21/21 55/55/55
f 21/21/21 20/20/20 55/55/55
f 58/58/58 56/56/56 57/57/57
f 56/56/56 55/55/55 57/57/57
f 55/55/55 20/20/20 59/59/59
f 20/20/20 24/24/24 59/59/59
f 57/57/57 55/55/55 60/60/60
f 55/55/55 59/59/59 60/60/60
f 61/61/61 29/29/29 30/30/30
f 61/61/61 30/30/30 62/62/62
f 63/63/63 61/61/61 62/62/62
f 63/63/63 62/62/62 64/64/64
f 67/67/67 66/66/66 65/65/65
f 66/66/66 68/68/68 65/65/65
f 70/70/70 67/67/67 69/69/69
f 67/67/67 65/65/65 69/69/69
f 71/71/71 41/41/41 42/42/42
f 71/71/71 42/42/42 72/72/72
f 73/73/73 71/71/71 72/72/72
f 73/73/73 72/72/72 74/74/74
f 62/62/62 30/30/30 41/41/41
f 62/62/62 41/41/41 71/71/71
f 64/64/64 62/62/62 71/71/71
f 64/64/64 71/71/71 73/73/73
f 77/77/77 76/76/76 75/75/75
f 76/76/76 78/78/78 75/75/75
f 80/80/80 77/77/77 79/79/79
f 77/77/77 75/75/75 79/79/79
f 82/82/82 81/81/81 67/67/67
f 81/81/81 66/66/66 67/67/67
f 83/83/83 82/82/82 70/70/70
f 82/82/82 67/67/67 70/70/70
f 84/84/84 60/60/60 59/59/59
f 84/84/84 85/85/85 60/60/60
f 88/88/88 87/87/87 86/86/86
f 88/88/88 89/89/89 87/87/87
f 90/90/90 59/59/59 24/24/24
f 90/90/90 84/84/84 59/59/59
f 93/93/93 92/92/92 91/91/91
f 93/93/93 91/91/91 94/94/94
f 95/95/95 93/93/93 94/94/94
f 95/95/95 94/94/94 96/96/96
f 97/97/97 92/92/92 93/93/93
f 97/97/97 98/98/98 92/92/92
f 99/99/99 93/93/93 95/95/95
f 99/99/99 97/97/97 93/93/93
f 101/101/101 100/100/100 98/98/98
f 101/101/101 98/98/98 97/97/97
f 102/102/102 101/101/101 97/97/97
f 102/102/102 97/97/97 99/99/99
f 105/105/105 104/104/104 103/103/103
f 105/105/105 106/106/106 104/104/104
f 107/107/107 106/106/106 105/105/105
f 107/107/107 108/108/108 106/106/106
f 111/111/111 110/110/110 109/109/109
f 111/111/111 112/112/112 110/110/110
f 24/24/24 112/112/112 111/111/111
f 24/24/24 22/22/22 112/112/112
f 115/115/115 114/114/114 113/113/113
f 116/116/116 115/115/115 113/113/113
f 119/119/119 118/118/118 117/117/117
f 120/120/120 119/119/119 117/117/117
f 122/122/122 121/121/121 114/114/114
f 115/115/115 122/122/122 114/114/114
f 124/124/124 123/123/123 118/118/118
f 119/119/119 124/124/124 118/118/118
f 127/127/127 126/126/126 125/125/125
f 127/127/127 128/128/128 126/126/126
f 131/131/131 130/130/130 129/129/129
f 132/132/132 131/131/131 129/129/129
f 135/135/135 134/134/134 133/133/133
f 134/134/134 136/136/136 133/133/133
f 17/17/17 135/135/135 19/19/19
f 135/135/135 133/133/133 19/19/19
f 133/133/133 136/136/136 137/137/137
f 136/136/136 138/138/138 137/137/137
f 19/19/19 133/133/133 23/23/23
f 133/133/133 137/137/137 23/23/23
f 141/141/141 140/140/140 139/139/139
f 141/141/141 139/139/139 142/142/142
f 13/13/13 141/141/141 142/142/142
f 13/13/13 142/142/142 8/8/8
f 142/142/142 139/139/139 143/143/143
f 142/142/142 143/143/143 144/144/144
f 8/8/8 142/142/142 144/144/144
f 8/8/8 144/144/144 7/7/7
f 147/147/147 146/146/146 145/145/145
f 146/146/146 148/148/148 145/145/145
f 150/150/150 147/147/147 149/149/149
f 147/147/147 145/145/145 149/149/149
f 153/153/153 152/152/152 151/151/151
f 153/153/153 151/151/151 154/154/154
f 26/26/26 153/153/153 154/154/154
f 26/26/26 154/154/154 25/25/25
f 157/157/157 156/156/156 155/155/155
f 157/157/157 155/155/155 158/158/158
f 38/38/38 157/157/157 158/158/158
f 38/38/38 158/158/158 37/37/37
f 154/154/154 151/151/151 156/156/156
f 154/154/154 156/156/156 157/157/157
f 25/25/25 154/154/154 157/157/157
f 25/25/25 157/157/157 38/38/38
f 160/160/160 159/159/159 150/150/150
f 159/159/159 147/147/147 150/150/150
f 159/159/159 161/161/161 147/147/147
f 161/161/161 146/146/146 147/147/147
f 164/164/164 163/163/163 162/162/162
f 163/163/163 165/165/165 162/162/162
f 168/168/168 167/167/167 166/166/166
f 167/167/167 169/169/169 166/166/166
f 48/48/48 170/170/170 47/47/47
f 171/171/171 170/170/170 48/48/48
f 174/174/174 173/173/173 172/172/172
f 175/175/175 173/173/173 174/174/174
f 177/177/177 176/176/176 121/121/121
f 122/122/122 177/177/177 121/121/121
f 180/180/180 179/179/179 178/178/178
f 176/176/176 180/180/180 178/178/178
f 181/181/181 180/180/180 122/122/122
f 182/182/182 181/181/181 122/122/122
f 184/184/184 183/183/183 179/179/179
f 180/180/180 184/184/184 179/179/179
f 108/108/108 185/185/185 106/106/106
f 108/108/108 186/186/186 185/185/185
f 188/188/188 187/187/187 185/185/185
f 188/188/188 185/185/185 186/186/186
f 185/185/185 189/189/189 104/104/104
f 106/106/106 185/185/185 104/104/104
f 187/187/187 190/190/190 189/189/189
f 185/185/185 187/187/187 189/189/189
g pb_Mesh195378_1
f 193/193/193 192/192/192 191/191/191
f 193/193/193 191/191/191 194/194/194
f 192/192/192 196/196/196 195/195/195
f 192/192/192 195/195/195 191/191/191
f 198/198/198 197/197/197 192/192/192
f 198/198/198 192/192/192 193/193/193
f 200/200/200 199/199/199 197/197/197
f 200/200/200 197/197/197 198/198/198
f 197/197/197 201/201/201 196/196/196
f 197/197/197 196/196/196 192/192/192
f 199/199/199 202/202/202 201/201/201
f 199/199/199 201/201/201 197/197/197
