g pb_Mesh181438
v 0.9999998 0 -6.139278E-06
v 4 0 -7.748604E-06
v 0.9999998 0.25 -6.139278E-06
v 4 0.25 -7.748604E-06
v 0.9999998 0.25 -6.139278E-06
v 4 0.25 -7.748604E-06
v 0.9999995 0.25 0.4999939
v 4 0.25 0.4999923
v 0.9999995 0.25 0.4999939
v 4 0.25 0.4999923
v 0.9999995 0.5 0.4999939
v 4 0.5 0.4999923
v 0.9999995 0.5 0.4999939
v 4 0.5 0.4999923
v 0.9999993 0.5 0.999994
v 4 0.5 0.9999924
v 0.9999993 0.5 0.999994
v 4 0.5 0.9999924
v 0.9999993 0.75 0.999994
v 4 0.75 0.9999924
v 0.9999993 0.75 0.999994
v 4 0.75 0.9999924
v 0.9999996 0.75 1.499994
v 4 0.75 1.499992
v 0.9999996 0.75 1.499994
v 4 0.75 1.499992
v 0.9999996 1 1.499994
v 4 1 1.499992
v 0.9999996 1 1.499994
v 4 1 1.499992
v 0.9999999 1 1.999994
v 4 1 1.999992
v 0.9999999 1 1.999994
v 4 1 1.999992
v 0.9999999 1.25 1.999994
v 4 1.25 1.999992
v 0.9999999 1.25 1.999994
v 4 1.25 1.999992
v 1 1.25 2.499994
v 4 1.25 2.499993
v 1 1.25 2.499994
v 4 1.25 2.499993
v 1 1.5 2.499994
v 4 1.5 2.499993
v 1 1.5 2.499994
v 4 1.5 2.499993
v 0.9999999 1.5 2.999994
v 4.000001 1.5 2.999993
v 0.9999999 1.5 2.999994
v 4.000001 1.5 2.999993
v 0.9999999 1.75 2.999994
v 4.000001 1.75 2.999993
v 0.9999999 1.75 2.999994
v 4.000001 1.75 2.999993
v 0.9999997 1.75 3.499994
v 4 1.75 3.499993
v 0.9999997 1.75 3.499994
v 4 1.75 3.499993
v 0.9999997 2 3.499994
v 4 2 3.499993
v 0.9999997 2 3.499994
v 4 2 3.499993
v 0.9999995 2 3.999994
v 4 2 3.999993
v 0.9999995 2 3.999994
v 4 2 3.999993
v 0.9999995 2.25 3.999994
v 4 2.25 3.999993
v 0.9999995 2.25 3.999994
v 4 2.25 3.999993
v 0.9999998 2.25 4.499994
v 4 2.25 4.499993
v 0.9999998 2.25 4.499994
v 4 2.25 4.499993
v 0.9999998 2.5 4.499994
v 4 2.5 4.499993
v 0.9999998 2.5 4.499994
v 4 2.5 4.499993
v 0.9999996 2.5 4.999994
v 4 2.5 4.999993
v 0.9999996 2.5 4.999994
v 4 2.5 4.999993
v 0.9999996 2.75 4.999994
v 4 2.75 4.999993
v 0.9999996 2.75 4.999994
v 4 2.75 4.999993
v 0.9999993 2.75 5.499995
v 4 2.75 5.499993
v 0.9999993 2.75 5.499995
v 4 2.75 5.499993
v 0.9999993 3 5.499995
v 4 3 5.499993
v 0.9999993 3 5.499995
v 4 3 5.499993
v 1 3 5.999995
v 4 3 5.999993
v 1 3 5.999995
v 4 3 5.999993
v 1 3.25 5.999995
v 4 3.25 5.999993
v 1 3.25 5.999995
v 4 3.25 5.999993
v 0.9999999 3.25 6.499995
v 4.000001 3.25 6.499993
v 0.9999999 3.25 6.499995
v 4.000001 3.25 6.499993
v 0.9999999 3.5 6.499995
v 4.000001 3.5 6.499993
v 0.9999999 3.5 6.499995
v 4.000001 3.5 6.499993
v 0.9999997 3.5 6.999995
v 4 3.5 6.999993
v 0.9999997 3.5 6.999995
v 4 3.5 6.999993
v 0.9999997 3.75 6.999995
v 4 3.75 6.999993
v 0.9999997 3.75 6.999995
v 4 3.75 6.999993
v 0.9999999 3.75 7.499995
v 4.000001 3.75 7.499993
v 0.9999999 3.75 7.499995
v 4.000001 3.75 7.499993
v 0.9999999 4 7.499995
v 4.000001 4 7.499993
v 0.9999999 4 7.499995
v 4.000001 4 7.499993
v 0.9999998 4 7.999995
v 4 4 7.999993
v 4 0 -7.748604E-06
v 4 0 0.4999923
v 4 0.25 -7.748604E-06
v 4 0.25 0.4999923
v 4 0 0.9999924
v 4 0.5 0.9999924
v 4 0.5 0.4999923
v 4 0 1.499992
v 4 0.75 1.499992
v 4 0.75 0.9999924
v 4 0 1.999992
v 4 1 1.999992
v 4 1 1.499992
v 4 0 2.499993
v 4 1.25 2.499993
v 4 1.25 1.999992
v 4.000001 0 2.999993
v 4.000001 1.5 2.999993
v 4 1.5 2.499993
v 4 0 3.499993
v 4 1.75 3.499993
v 4.000001 1.75 2.999993
v 4 0 3.999993
v 4 2 3.999993
v 4 2 3.499993
v 4 0 4.499993
v 4 2.25 4.499993
v 4 2.25 3.999993
v 4 0 4.999993
v 4 2.5 4.999993
v 4 2.5 4.499993
v 4 0 5.499993
v 4 2.75 5.499993
v 4 2.75 4.999993
v 4 0 5.999993
v 4 3 5.999993
v 4 3 5.499993
v 4 0 5.999993
v 4.000001 0 6.499993
v 4 3 5.999993
v 4.000001 3.25 6.499993
v 4 3.25 5.999993
v 4.000001 0 6.499993
v 4 0 6.999993
v 4.000001 3.25 6.499993
v 4 3.5 6.999993
v 4.000001 3.5 6.499993
v 4.000001 0 7.499993
v 4.000001 3.75 7.499993
v 4 3.75 6.999993
v 4 0 7.999993
v 4 4 7.999993
v 4.000001 4 7.499993
v 0.9999998 0.25 -6.139278E-06
v 0.9999995 0 0.4999939
v 0.9999998 0 -6.139278E-06
v 0.9999995 0.25 0.4999939
v 0.9999993 0 0.999994
v 0.9999993 0.5 0.999994
v 0.9999995 0.5 0.4999939
v 0.9999996 0 1.499994
v 0.9999996 0.75 1.499994
v 0.9999993 0.75 0.999994
v 0.9999999 0 1.999994
v 0.9999999 1 1.999994
v 0.9999996 1 1.499994
v 1 0 2.499994
v 1 1.25 2.499994
v 0.9999999 1.25 1.999994
v 0.9999999 0 2.999994
v 0.9999999 1.5 2.999994
v 1 1.5 2.499994
v 0.9999997 0 3.499994
v 0.9999997 1.75 3.499994
v 0.9999999 1.75 2.999994
v 0.9999995 0 3.999994
v 0.9999995 2 3.999994
v 0.9999997 2 3.499994
v 0.9999998 0 4.499994
v 0.9999998 2.25 4.499994
v 0.9999995 2.25 3.999994
v 0.9999996 0 4.999994
v 0.9999996 2.5 4.999994
v 0.9999998 2.5 4.499994
v 0.9999993 0 5.499995
v 0.9999993 2.75 5.499995
v 0.9999996 2.75 4.999994
v 1 0 5.999995
v 1 3 5.999995
v 0.9999993 3 5.499995
v 0.9999999 0 6.499995
v 0.9999999 3.25 6.499995
v 1 3.25 5.999995
v 0.9999997 0 6.999995
v 0.9999997 3.5 6.999995
v 0.9999999 3.5 6.499995
v 0.9999999 0 7.499995
v 0.9999999 3.75 7.499995
v 0.9999997 3.75 6.999995
v 0.9999998 0 7.999995
v 0.9999998 4 7.999995
v 0.9999999 4 7.499995
v 4.000003 0 12.00003
v 1.000001 0 12.00006
v 4.000001 4 10.00008
v 0.9999994 4 10.00012
v 4 0 7.999993
v 0.9999998 0 7.999995
v 4.000003 0 12.00003
v 1.000001 0 12.00006
v 4.000001 4 10.00008
v 4.000003 0 12.00003
v 1.000001 0 12.00006
v 0.9999994 4 10.00012
v 0.9999994 4 10.00012
v 4.000001 4 10.00008
vt -0.9999998 0
vt -4 0
vt -0.9999998 0.25
vt -4 0.25
vt -0.9999998 -6.139278E-06
vt -4 -7.748604E-06
vt -0.9999995 0.4999939
vt -4 0.4999923
vt -0.9999993 0.25
vt -4 0.25
vt -0.9999993 0.5
vt -4 0.5
vt -0.9999995 0.4999939
vt -4 0.4999923
vt -0.9999993 0.999994
vt -4 0.9999924
vt -0.9999988 0.5
vt -4 0.5
vt -0.9999988 0.75
vt -4 0.75
vt -0.9999993 0.999994
vt -4 0.9999924
vt -0.9999996 1.499994
vt -4 1.499992
vt -0.9999988 0.75
vt -4 0.75
vt -0.9999988 1
vt -4 1
vt -0.9999996 1.499994
vt -4 1.499992
vt -0.9999999 1.999994
vt -4 1.999992
vt -0.9999987 1
vt -3.999999 1
vt -0.9999987 1.25
vt -3.999999 1.25
vt -0.9999999 1.999994
vt -4 1.999992
vt -1 2.499994
vt -4 2.499993
vt -0.9999987 1.25
vt -3.999999 1.25
vt -0.9999987 1.5
vt -3.999999 1.5
vt -1 2.499994
vt -4 2.499993
vt -0.9999999 2.999994
vt -4.000001 2.999993
vt -0.9999983 1.5
vt -3.999999 1.5
vt -0.9999983 1.75
vt -3.999999 1.75
vt -0.9999999 2.999994
vt -4.000001 2.999993
vt -0.9999997 3.499994
vt -4 3.499993
vt -0.9999977 1.75
vt -3.999999 1.75
vt -0.9999977 2
vt -3.999999 2
vt -0.9999997 3.499994
vt -4 3.499993
vt -0.9999995 3.999994
vt -4 3.999993
vt -0.9999976 2
vt -3.999999 2
vt -0.9999976 2.25
vt -3.999999 2.25
vt -0.9999995 3.999994
vt -4 3.999993
vt -0.9999998 4.499994
vt -4 4.499993
vt -0.9999976 2.25
vt -3.999998 2.25
vt -0.9999976 2.5
vt -3.999998 2.5
vt -0.9999998 4.499994
vt -4 4.499993
vt -0.9999996 4.999994
vt -4 4.999993
vt -0.9999972 2.5
vt -3.999998 2.5
vt -0.9999972 2.75
vt -3.999998 2.75
vt -0.9999996 4.999994
vt -4 4.999993
vt -0.9999993 5.499995
vt -4 5.499993
vt -0.9999958 2.75
vt -3.999997 2.75
vt -0.9999958 3
vt -3.999997 3
vt -0.9999993 5.499995
vt -4 5.499993
vt -1 5.999995
vt -4 5.999993
vt -0.9999963 3
vt -3.999996 3
vt -0.9999963 3.25
vt -3.999996 3.25
vt -1 5.999995
vt -4 5.999993
vt -0.9999999 6.499995
vt -4.000001 6.499993
vt -0.9999958 3.25
vt -3.999997 3.25
vt -0.9999958 3.5
vt -3.999997 3.5
vt -0.9999999 6.499995
vt -4.000001 6.499993
vt -0.9999997 6.999995
vt -4 6.999993
vt -0.9999964 3.5
vt -3.999997 3.5
vt -0.9999964 3.75
vt -3.999997 3.75
vt -0.9999997 6.999995
vt -4 6.999993
vt -0.9999999 7.499995
vt -4.000001 7.499993
vt -0.9999964 3.75
vt -3.999997 3.75
vt -0.9999964 4
vt -3.999997 4
vt -0.9999999 7.499995
vt -4.000001 7.499993
vt -0.9999998 7.999995
vt -4 7.999993
vt 1.15633E-05 0
vt -0.4999885 0
vt 1.15633E-05 0.25
vt -0.4999885 0.25
vt -0.9999924 0
vt -0.9999924 0.5
vt -0.4999923 0.5
vt -1.499996 0
vt -1.499996 0.75
vt -0.9999962 0.75
vt -1.999992 0
vt -1.999992 1
vt -1.499992 1
vt -2.499993 0
vt -2.499993 1.25
vt -1.999992 1.25
vt -2.999996 0
vt -2.999996 1.5
vt -2.499996 1.5
vt -3.499989 0
vt -3.499989 1.75
vt -2.999989 1.75
vt -3.999993 0
vt -3.999993 2
vt -3.499993 2
vt -4.499989 0
vt -4.499989 2.25
vt -3.999989 2.25
vt -4.999997 0
vt -4.999997 2.5
vt -4.499997 2.5
vt -5.499993 0
vt -5.499993 2.75
vt -4.999993 2.75
vt -5.999989 0
vt -5.999989 3
vt -5.499989 3
vt -6 0
vt -6.5 0
vt -6 3
vt -6.5 3.25
vt -6 3.25
vt -6.499989 0
vt -6.99999 0
vt -6.499989 3.25
vt -6.99999 3.5
vt -6.499989 3.5
vt -7.499997 0
vt -7.499997 3.75
vt -6.999997 3.75
vt -7.99999 0
vt -7.99999 4
vt -7.49999 4
vt -6.616116E-06 0.25
vt 0.4999934 0
vt -6.616116E-06 0
vt 0.4999934 0.25
vt 0.9999936 0
vt 0.9999936 0.5
vt 0.4999936 0.5
vt 1.499995 0
vt 1.499995 0.75
vt 0.9999945 0.75
vt 1.999995 0
vt 1.999995 1
vt 1.499995 1
vt 2.499995 0
vt 2.499995 1.25
vt 1.999995 1.25
vt 2.999994 0
vt 2.999994 1.5
vt 2.499994 1.5
vt 3.499994 0
vt 3.499994 1.75
vt 2.999994 1.75
vt 3.999994 0
vt 3.999994 2
vt 3.499994 2
vt 4.499995 0
vt 4.499995 2.25
vt 3.999995 2.25
vt 4.999994 0
vt 4.999994 2.5
vt 4.499994 2.5
vt 5.499994 0
vt 5.499994 2.75
vt 4.999994 2.75
vt 5.999996 0
vt 5.999996 3
vt 5.499996 3
vt 6.499994 0
vt 6.499994 3.25
vt 5.999994 3.25
vt 6.999994 0
vt 6.999994 3.5
vt 6.499994 3.5
vt 7.499995 0
vt 7.499995 3.75
vt 6.999995 3.75
vt 7.999994 0
vt 7.999994 4
vt 7.499994 4
vt 3.999877 -5.366474
vt 0.9998749 -5.366474
vt 3.999896 -0.8943629
vt 0.9998945 -0.8943633
vt 4 7.999993
vt 0.9999998 7.999995
vt 4.000003 12.00003
vt 1.000001 12.00006
vt -10.00009 4
vt -12.00003 0
vt 12.00006 0
vt 10.00012 4
vt -0.9999994 10.00012
vt -4.000001 10.00008
vn -5.364417E-07 0 -1
vn -5.364417E-07 0 -1
vn -5.364417E-07 0 -1
vn -5.364417E-07 0 -1
vn 0 1 0
vn 0 1 0
vn 0 1 0
vn 0 1 0
vn -5.364417E-07 0 -1
vn -5.364417E-07 0 -1
vn -5.364417E-07 0 -1
vn -5.364417E-07 0 -1
vn 0 1 0
vn 0 1 0
vn 0 1 0
vn 0 1 0
vn -5.364417E-07 0 -1
vn -5.364417E-07 0 -1
vn -5.364417E-07 0 -1
vn -5.364417E-07 0 -1
vn 0 1 0
vn 0 1 0
vn 0 1 0
vn 0 1 0
vn -5.165734E-07 0 -1
vn -5.165734E-07 0 -1
vn -5.165734E-07 0 -1
vn -5.165734E-07 0 -1
vn 0 1 0
vn 0 1 0
vn 0 1 0
vn 0 1 0
vn -5.563099E-07 0 -1
vn -5.563099E-07 0 -1
vn -5.563099E-07 0 -1
vn -5.563099E-07 0 -1
vn 0 1 0
vn 0 1 0
vn 0 1 0
vn 0 1 0
vn -5.563099E-07 0 -1
vn -5.563099E-07 0 -1
vn -5.563099E-07 0 -1
vn -5.563099E-07 0 -1
vn 0 1 0
vn 0 1 0
vn 0 1 0
vn 0 1 0
vn -5.563098E-07 0 -1
vn -5.563098E-07 0 -1
vn -5.563098E-07 0 -1
vn -5.563098E-07 0 -1
vn 0 1 0
vn 0 1 0
vn 0 1 0
vn 0 1 0
vn -5.563099E-07 0 -1
vn -5.563099E-07 0 -1
vn -5.563099E-07 0 -1
vn -5.563099E-07 0 -1
vn 0 1 0
vn 0 1 0
vn 0 1 0
vn 0 1 0
vn -4.76837E-07 0 -1
vn -4.76837E-07 0 -1
vn -4.76837E-07 0 -1
vn -4.76837E-07 0 -1
vn 0 1 0
vn 0 1 0
vn 0 1 0
vn 0 1 0
vn -4.768371E-07 0 -1
vn -4.768371E-07 0 -1
vn -4.768371E-07 0 -1
vn -4.768371E-07 0 -1
vn 0 1 0
vn 0 1 0
vn 0 1 0
vn 0 1 0
vn -4.76837E-07 0 -1
vn -4.76837E-07 0 -1
vn -4.76837E-07 0 -1
vn -4.76837E-07 0 -1
vn 0 1 0
vn 0 1 0
vn 0 1 0
vn 0 1 0
vn -6.357826E-07 0 -1
vn -6.357826E-07 0 -1
vn -6.357826E-07 0 -1
vn -6.357826E-07 0 -1
vn 0 1 0
vn 0 1 0
vn 0 1 0
vn 0 1 0
vn -6.357829E-07 0 -1
vn -6.357829E-07 0 -1
vn -6.357829E-07 0 -1
vn -6.357829E-07 0 -1
vn 0 1 0
vn 0 1 0
vn 0 1 0
vn 0 1 0
vn -6.357827E-07 0 -1
vn -6.357827E-07 0 -1
vn -6.357827E-07 0 -1
vn -6.357827E-07 0 -1
vn 0 1 0
vn 0 1 0
vn 0 1 0
vn 0 1 0
vn -4.76837E-07 0 -1
vn -4.76837E-07 0 -1
vn -4.76837E-07 0 -1
vn -4.76837E-07 0 -1
vn 0 1 0
vn 0 1 0
vn 0 1 0
vn 0 1 0
vn -4.76837E-07 0 -1
vn -4.76837E-07 0 -1
vn -4.76837E-07 0 -1
vn -4.76837E-07 0 -1
vn 0 1 0
vn 0 1 0
vn 0 1 0
vn 0 1 0
vn 1 0 9.536742E-07
vn 1 0 9.536742E-07
vn 1 0 9.536742E-07
vn 1 0 9.536742E-07
vn 1 0 0
vn 1 0 0
vn 1 0 0
vn 1 0 -9.536741E-07
vn 1 0 -9.536741E-07
vn 1 0 -9.536741E-07
vn 1 0 0
vn 1 0 0
vn 1 0 0
vn 1 0 0
vn 1 0 0
vn 1 0 0
vn 1 0 -9.536743E-07
vn 1 0 -9.536743E-07
vn 1 0 -9.536743E-07
vn 1 0 9.536743E-07
vn 1 0 9.536743E-07
vn 1 0 9.536743E-07
vn 1 0 0
vn 1 0 0
vn 1 0 0
vn 1 0 9.536743E-07
vn 1 0 9.536743E-07
vn 1 0 9.536743E-07
vn 1 0 -9.536743E-07
vn 1 0 -9.536743E-07
vn 1 0 -9.536743E-07
vn 1 0 0
vn 1 0 0
vn 1 0 0
vn 1 0 9.536743E-07
vn 1 0 9.536743E-07
vn 1 0 9.536743E-07
vn 1 0 -1.907349E-06
vn 1 0 -1.907349E-06
vn 1 0 -1.907349E-06
vn 1 0 -1.907349E-06
vn 1 0 -1.907349E-06
vn 1 0 9.536734E-07
vn 1 0 9.536734E-07
vn 1 0 9.536734E-07
vn 1 0 9.536734E-07
vn 1 0 9.536734E-07
vn 1 0 -9.536743E-07
vn 1 0 -9.536743E-07
vn 1 0 -9.536743E-07
vn 1 0 9.536743E-07
vn 1 0 9.536743E-07
vn 1 0 9.536743E-07
vn -1 0 -4.768371E-07
vn -1 0 -4.768371E-07
vn -1 0 -4.768371E-07
vn -1 0 -4.768371E-07
vn -1 0 -3.576278E-07
vn -1 0 -3.576278E-07
vn -1 0 -3.576278E-07
vn -1 0 4.768371E-07
vn -1 0 4.768371E-07
vn -1 0 4.768371E-07
vn -1 0 5.960463E-07
vn -1 0 5.960463E-07
vn -1 0 5.960463E-07
vn -1 0 4.76837E-07
vn -1 0 4.768371E-07
vn -1 0 4.76837E-07
vn -1 0 -3.576279E-07
vn -1 0 -3.576279E-07
vn -1 0 -3.576279E-07
vn -1 0 -4.768372E-07
vn -1 0 -4.768372E-07
vn -1 0 -4.768372E-07
vn -1 0 -3.576279E-07
vn -1 0 -3.576279E-07
vn -1 0 -3.576279E-07
vn -1 0 4.768372E-07
vn -1 0 4.768372E-07
vn -1 0 4.768372E-07
vn -1 0 -3.576279E-07
vn -1 0 -3.576279E-07
vn -1 0 -3.576279E-07
vn -1 0 -4.768367E-07
vn -1 0 -4.768367E-07
vn -1 0 -4.768367E-07
vn -1 0 1.549721E-06
vn -1 0 1.549721E-06
vn -1 0 1.549721E-06
vn -1 0 -4.768372E-07
vn -1 0 -4.768372E-07
vn -1 0 -4.768372E-07
vn -1 0 -3.576279E-07
vn -1 0 -3.576279E-07
vn -1 0 -3.576279E-07
vn -1 0 4.768372E-07
vn -1 0 4.768372E-07
vn -1 0 4.768372E-07
vn -1 0 -3.576279E-07
vn -1 0 -3.576279E-07
vn -1 0 -3.576279E-07
vn 9.382961E-06 0.4472035 0.8944322
vn 9.525129E-06 0.4472035 0.8944323
vn 9.525129E-06 0.4472035 0.8944323
vn 9.667296E-06 0.4472033 0.8944323
vn 0 -1 0
vn 0 -1 0
vn 0 -1 0
vn 0 -1 0
vn 1 8.941247E-08 -4.172244E-07
vn 1 1.788249E-07 -5.960412E-07
vn -1 -2.235134E-07 4.470677E-08
vn -1 -4.470268E-07 -1.78803E-07
vn 0 1 0
vn 0 1 0
g pb_Mesh181438_0
g pb_Mesh181438_1
f 3/3/3 2/2/2 1/1/1
f 3/3/3 4/4/4 2/2/2
f 7/7/7 6/6/6 5/5/5
f 7/7/7 8/8/8 6/6/6
f 11/11/11 10/10/10 9/9/9
f 11/11/11 12/12/12 10/10/10
f 15/15/15 14/14/14 13/13/13
f 15/15/15 16/16/16 14/14/14
f 19/19/19 18/18/18 17/17/17
f 19/19/19 20/20/20 18/18/18
f 23/23/23 22/22/22 21/21/21
f 23/23/23 24/24/24 22/22/22
f 27/27/27 26/26/26 25/25/25
f 27/27/27 28/28/28 26/26/26
f 31/31/31 30/30/30 29/29/29
f 31/31/31 32/32/32 30/30/30
f 35/35/35 34/34/34 33/33/33
f 35/35/35 36/36/36 34/34/34
f 39/39/39 38/38/38 37/37/37
f 39/39/39 40/40/40 38/38/38
f 43/43/43 42/42/42 41/41/41
f 43/43/43 44/44/44 42/42/42
f 47/47/47 46/46/46 45/45/45
f 47/47/47 48/48/48 46/46/46
f 51/51/51 50/50/50 49/49/49
f 51/51/51 52/52/52 50/50/50
f 55/55/55 54/54/54 53/53/53
f 55/55/55 56/56/56 54/54/54
f 59/59/59 58/58/58 57/57/57
f 59/59/59 60/60/60 58/58/58
f 63/63/63 62/62/62 61/61/61
f 63/63/63 64/64/64 62/62/62
f 67/67/67 66/66/66 65/65/65
f 67/67/67 68/68/68 66/66/66
f 71/71/71 70/70/70 69/69/69
f 71/71/71 72/72/72 70/70/70
f 75/75/75 74/74/74 73/73/73
f 75/75/75 76/76/76 74/74/74
f 79/79/79 78/78/78 77/77/77
f 79/79/79 80/80/80 78/78/78
f 83/83/83 82/82/82 81/81/81
f 83/83/83 84/84/84 82/82/82
f 87/87/87 86/86/86 85/85/85
f 87/87/87 88/88/88 86/86/86
f 91/91/91 90/90/90 89/89/89
f 91/91/91 92/92/92 90/90/90
f 95/95/95 94/94/94 93/93/93
f 95/95/95 96/96/96 94/94/94
f 99/99/99 98/98/98 97/97/97
f 99/99/99 100/100/100 98/98/98
f 103/103/103 102/102/102 101/101/101
f 103/103/103 104/104/104 102/102/102
f 107/107/107 106/106/106 105/105/105
f 107/107/107 108/108/108 106/106/106
f 111/111/111 110/110/110 109/109/109
f 111/111/111 112/112/112 110/110/110
f 115/115/115 114/114/114 113/113/113
f 115/115/115 116/116/116 114/114/114
f 119/119/119 118/118/118 117/117/117
f 119/119/119 120/120/120 118/118/118
f 123/123/123 122/122/122 121/121/121
f 123/123/123 124/124/124 122/122/122
f 127/127/127 126/126/126 125/125/125
f 127/127/127 128/128/128 126/126/126
f 131/131/131 130/130/130 129/129/129
f 131/131/131 132/132/132 130/130/130
f 132/132/132 133/133/133 130/130/130
f 132/132/132 134/134/134 133/133/133
f 132/132/132 135/135/135 134/134/134
f 134/134/134 136/136/136 133/133/133
f 134/134/134 137/137/137 136/136/136
f 134/134/134 138/138/138 137/137/137
f 137/137/137 139/139/139 136/136/136
f 137/137/137 140/140/140 139/139/139
f 137/137/137 141/141/141 140/140/140
f 140/140/140 142/142/142 139/139/139
f 140/140/140 143/143/143 142/142/142
f 140/140/140 144/144/144 143/143/143
f 143/143/143 145/145/145 142/142/142
f 143/143/143 146/146/146 145/145/145
f 143/143/143 147/147/147 146/146/146
f 146/146/146 148/148/148 145/145/145
f 146/146/146 149/149/149 148/148/148
f 146/146/146 150/150/150 149/149/149
f 149/149/149 151/151/151 148/148/148
f 149/149/149 152/152/152 151/151/151
f 149/149/149 153/153/153 152/152/152
f 152/152/152 154/154/154 151/151/151
f 152/152/152 155/155/155 154/154/154
f 152/152/152 156/156/156 155/155/155
f 155/155/155 157/157/157 154/154/154
f 155/155/155 158/158/158 157/157/157
f 155/155/155 159/159/159 158/158/158
f 158/158/158 160/160/160 157/157/157
f 158/158/158 161/161/161 160/160/160
f 158/158/158 162/162/162 161/161/161
f 161/161/161 163/163/163 160/160/160
f 161/161/161 164/164/164 163/163/163
f 161/161/161 165/165/165 164/164/164
f 168/168/168 167/167/167 166/166/166
f 168/168/168 169/169/169 167/167/167
f 168/168/168 170/170/170 169/169/169
f 173/173/173 172/172/172 171/171/171
f 173/173/173 174/174/174 172/172/172
f 173/173/173 175/175/175 174/174/174
f 174/174/174 176/176/176 172/172/172
f 174/174/174 177/177/177 176/176/176
f 174/174/174 178/178/178 177/177/177
f 177/177/177 179/179/179 176/176/176
f 177/177/177 180/180/180 179/179/179
f 177/177/177 181/181/181 180/180/180
f 184/184/184 183/183/183 182/182/182
f 183/183/183 185/185/185 182/182/182
f 183/183/183 186/186/186 185/185/185
f 186/186/186 187/187/187 185/185/185
f 187/187/187 188/188/188 185/185/185
f 186/186/186 189/189/189 187/187/187
f 189/189/189 190/190/190 187/187/187
f 190/190/190 191/191/191 187/187/187
f 189/189/189 192/192/192 190/190/190
f 192/192/192 193/193/193 190/190/190
f 193/193/193 194/194/194 190/190/190
f 192/192/192 195/195/195 193/193/193
f 195/195/195 196/196/196 193/193/193
f 196/196/196 197/197/197 193/193/193
f 195/195/195 198/198/198 196/196/196
f 198/198/198 199/199/199 196/196/196
f 199/199/199 200/200/200 196/196/196
f 198/198/198 201/201/201 199/199/199
f 201/201/201 202/202/202 199/199/199
f 202/202/202 203/203/203 199/199/199
f 201/201/201 204/204/204 202/202/202
f 204/204/204 205/205/205 202/202/202
f 205/205/205 206/206/206 202/202/202
f 204/204/204 207/207/207 205/205/205
f 207/207/207 208/208/208 205/205/205
f 208/208/208 209/209/209 205/205/205
f 207/207/207 210/210/210 208/208/208
f 210/210/210 211/211/211 208/208/208
f 211/211/211 212/212/212 208/208/208
f 210/210/210 213/213/213 211/211/211
f 213/213/213 214/214/214 211/211/211
f 214/214/214 215/215/215 211/211/211
f 213/213/213 216/216/216 214/214/214
f 216/216/216 217/217/217 214/214/214
f 217/217/217 218/218/218 214/214/214
f 216/216/216 219/219/219 217/217/217
f 219/219/219 220/220/220 217/217/217
f 220/220/220 221/221/221 217/217/217
f 219/219/219 222/222/222 220/220/220
f 222/222/222 223/223/223 220/220/220
f 223/223/223 224/224/224 220/220/220
f 222/222/222 225/225/225 223/223/223
f 225/225/225 226/226/226 223/223/223
f 226/226/226 227/227/227 223/223/223
f 225/225/225 228/228/228 226/226/226
f 228/228/228 229/229/229 226/226/226
f 229/229/229 230/230/230 226/226/226
f 233/233/233 232/232/232 231/231/231
f 233/233/233 234/234/234 232/232/232
f 237/237/237 236/236/236 235/235/235
f 237/237/237 238/238/238 236/236/236
f 239/239/239 179/179/179 180/180/180
f 239/239/239 240/240/240 179/179/179
f 241/241/241 229/229/229 228/228/228
f 241/241/241 242/242/242 229/229/229
f 243/243/243 128/128/128 127/127/127
f 243/243/243 244/244/244 128/128/128
