g pb_Mesh-934408
v -0.5 -2.375 0.25
v -0.5 -2.375 0
v -0.5 -2.125 0.5
v -0.5 -1.625 1
v -0.5 -0.5 0
v -0.4974767 -0.5 0.9936446
v -0.5 -2.375 0
v -0.5 -2.375 -0.25
v -0.5 -2.125 -0.5
v -0.5 -1.625 -1
v -0.5 -0.5 0
v -0.5 -0.5 -1
v 0.5000024 -8.25 0.7499965
v 3.397448E-06 -8.25 -4.142492E-06
v 2.458675E-06 -8.25 0.7499959
v 0.5000034 -8.25 -3.516643E-06
v 0.5000044 -8.25 -0.7500035
v 4.336221E-06 -8.25 -0.7500041
v -0.4999976 -8.25 0.7499952
v -0.4999966 -8.25 -4.768341E-06
v -0.5 -2.375 0.25
v -0.5 -2.125 0.5
v 0 -2.125 0.5625
v -0.4999957 -8.25 -0.7500048
v 0 -2.125 -0.5625
v -0.5 -2.125 -0.5
v -0.5 -2.375 -0.25
v -0.5 -2.375 0.25
v 0 -2.125 0.5625
v -0.4999969 -6.75 0.2499952
v 2.771599E-06 -6.75 0.4999959
v 0 -2.125 0.5625
v 0.5 -2.375 0.25
v 2.771599E-06 -6.75 0.4999959
v 0.5000031 -6.75 0.2499965
v -0.5 -2.375 0
v -0.5 -2.375 0.25
v -0.4999966 -6.75 -4.768341E-06
v -0.4999969 -6.75 0.2499952
v -0.5 -2.375 -0.25
v -0.4999963 -6.75 -0.2500048
v 0 -2.125 -0.5625
v -0.5 -2.375 -0.25
v 4.023297E-06 -6.75 -0.5000041
v -0.4999963 -6.75 -0.2500048
v 0.5 -2.375 -0.25
v 0 -2.125 -0.5625
v 0.5000037 -6.75 -0.2500035
v 4.023297E-06 -6.75 -0.5000041
v 0.5000031 -6.75 0.2499965
v 0.5000034 -6.75 -3.516643E-06
v 0.5000024 -7.25 0.7499965
v 0.5000034 -7.25 -3.516643E-06
v 0.5000037 -6.75 -0.2500035
v 0.5000044 -7.25 -0.7500035
v -0.4999966 -6.75 -4.768341E-06
v -0.4999969 -6.75 0.2499952
v -0.4999966 -7.25 -4.768341E-06
v -0.4999976 -7.25 0.7499952
v -0.4999963 -6.75 -0.2500048
v -0.4999957 -7.25 -0.7500048
v -0.4999976 -7.25 0.7499952
v 2.458675E-06 -7.25 0.7499959
v -0.4999976 -8.25 0.7499952
v 2.458675E-06 -8.25 0.7499959
v 0.5000024 -7.25 0.7499965
v 0.5000024 -8.25 0.7499965
v 0.5000024 -8.25 0.7499965
v 0.5000034 -8.25 -3.516643E-06
v 0.5000044 -8.25 -0.7500035
v -0.4999966 -8.25 -4.768341E-06
v -0.4999976 -8.25 0.7499952
v -0.4999957 -8.25 -0.7500048
v 4.336221E-06 -7.25 -0.7500041
v -0.4999957 -7.25 -0.7500048
v 4.336221E-06 -8.25 -0.7500041
v -0.4999957 -8.25 -0.7500048
v 0.5000044 -7.25 -0.7500035
v 0.5000044 -8.25 -0.7500035
v 0.5000037 -6.75 -0.2500035
v 4.023297E-06 -6.75 -0.5000041
v 0.5000044 -7.25 -0.7500035
v 4.023297E-06 -6.75 -0.5000041
v 4.336221E-06 -7.25 -0.7500041
v 0.5000044 -7.25 -0.7500035
v 2.771599E-06 -6.75 0.4999959
v 0.5000024 -7.25 0.7499965
v 2.458675E-06 -7.25 0.7499959
v 2.771599E-06 -6.75 0.4999959
v 0.5000031 -6.75 0.2499965
v 0.5000024 -7.25 0.7499965
v -0.4999957 -7.25 -0.7500048
v 4.023297E-06 -6.75 -0.5000041
v -0.4999963 -6.75 -0.2500048
v -0.4999957 -7.25 -0.7500048
v -0.4999969 -6.75 0.2499952
v 2.771599E-06 -6.75 0.4999959
v -0.4999976 -7.25 0.7499952
v -0.4999976 -7.25 0.7499952
v 0 0.5 -4
v -0.5 -0.5 -4
v 0 -0.5 -4
v -0.5 0.5 -4
v -0.5 0.5 -1
v -0.5 0 0
v -0.5 0 0
v -0.4974767 -0.5 0.9936446
v -0.5 -0.5 0
v -0.4974767 0.5 0.9936446
v -0.4974767 0.5 0.9936446
v 0.0361116 -0.5 1.0013
v -0.4974767 -0.5 0.9936446
v 0.03611199 0.5 1.001297
v 0.06247894 -0.5 0.00164406
v 0 -1.875 0
v 0 -1.375 0.5
v 0.5 -1.875 0
v 0.5 -2.375 0
v 0.5 -2.375 0.125
v 0.5 -2.375 0.25
v 0.5 -2.125 0.5
v 0.5 -1.625 1
v 0.5 -1.375 0.5
v 0.5 -0.5 1
v 0.5 -2.375 -0.25
v 0.5 -2.375 -0.125
v 0 -1.375 -0.5
v 0 -1.875 0
v 0.06247894 -0.5 0.00164406
v 0.5 -0.5 -1
v 0.5 -1.625 -1
v 0.5 -1.375 -0.5
v 0.5 -2.125 -0.5
v 0.5 -2.125 0.5
v 0.5 -2.375 0.25
v 0 -2.125 0.5625
v 0 -2.125 -0.5625
v 0.5 -2.375 -0.25
v 0.5 -2.125 -0.5
v 0.5 -2.375 0.125
v 0.5 -2.375 0.25
v 0 0.75 0
v 0 -1.375 0.5
v 0.04929546 0.25 0.5014703
v 0.06247894 -0.5 0.00164406
v 0.5 0.25 0.5
v 0.5 0.5 1
v 0.5 0.5 -1
v 0.5 0.25 -0.5
v -0.04929415 0.25 -0.5014781
v 0.06247894 -0.5 0.00164406
v 0 0.75 0
v 0 -1.375 -0.5
v 0 0.5 -1
v 0.4324764 -0.25 -0.9889448
v 0.5 0.5 -1
v 0.08884589 -0.5 -0.9980084
v 0.5 -0.5 -1
v 0.5 -0.25 1
v 0.5 -0.5 1
v 0.0361116 -0.5 1.0013
v 0.03611199 0.5 1.001297
v 0.5 0.5 1
v 0.5 -1.375 0.5
v 0.5 0.25 0.5
v 0 -1.375 0.5
v 0.04929546 0.25 0.5014703
v 0.5 0.25 0.5
v 0.4685878 0.75 0.01235563
v 0.04929546 0.25 0.5014703
v 0 0.75 0
v 0.4685878 0.75 0.01235563
v 0.5 0.25 -0.5
v 0 0.75 0
v -0.04929415 0.25 -0.5014781
v 0.5 0.25 -0.5
v 0.5 -1.375 -0.5
v -0.04929415 0.25 -0.5014781
v 0 -1.375 -0.5
v 0.5 -1.375 -0.5
v 0.5 -1.875 0
v 0 -1.375 -0.5
v 0 -1.875 0
v 0.5 -1.875 0
v 0.5 -1.375 0.5
v 0 -1.875 0
v 0 -1.375 0.5
v 0 0.5 -1
v 0.5 0.5 -1
v 0 1.5 0
v 0.5 1.5 0
v 0.5 1.5 0
v -0.5 0.5 -1
v -0.5 1.5 0
v -0.5 1.5 0
v 0.5 0.25 -0.5
v 0.4685878 0.75 0.01235563
v 0.5 1.5 0
v 0.4685878 0.75 0.01235563
v 0.5 0.25 0.5
v 0.5 1.5 0
v -0.5 1.5 0
v 0.03611199 0.5 1.001297
v -0.4974767 0.5 0.9936446
v 0 1.5 0
v -0.5 1.5 0
v 0.5 0.5 1
v 0.03611199 0.5 1.001297
v 0.5 1.5 0
v 0 1.5 0
v 0.5 -1.625 -1
v 0 -1.625 -1
v 0 -2.125 -0.5625
v 0.5 -2.125 -0.5
v 0.08884589 -0.5 -0.9980084
v 0 -1.625 -1
v 0.5 -0.5 -1
v 0.5 -1.625 -1
v -0.5 -0.5 -2
v -0.5 -1.625 -1
v 0 -1.625 -1
v -0.5 -0.5 -2
v 0 -1.625 -1
v -0.009743728 -0.5 -2.000957
v -0.5 -1.625 -1
v 0 -2.125 -0.5625
v 0 -1.625 -1
v 0 -2.125 0.5625
v 0.5 -1.625 1
v 0 -1.625 1
v 0.5 -0.5 1
v 0.5 -1.625 1
v 0 -1.625 1
v 0.0361116 -0.5 1.0013
v 0 -1.625 1
v 0 -2.125 0.5625
v -0.5 -1.625 1
v -0.5 -2.125 0.5
v 0.0361116 -0.5 1.0013
v 0 -1.625 1
v -0.4974767 -0.5 0.9936446
v -0.5 -1.625 1
v -0.5 -0.5 -2
v 0.08884589 -0.5 -0.9980084
v -0.009743728 -0.5 -2.000957
v 0 -1.625 -1
v 0.08884589 -0.5 -0.9980084
v -0.5 -0.5 -1
v -0.009743728 -0.5 -2.000957
v -0.5 -0.5 -2
v -0.5 -0.5 -1
v 0.08884589 -0.5 -0.9980084
v -0.5 -0.5 -2
v -0.009743728 -0.5 -2.000957
v 0.08884589 -0.5 -0.9980084
v 0 0.5 -1
v -0.009743728 -0.5 -2.000957
v 0 0.5 -1.5
v 0 0.5 -1
v -0.5 0.5 -1
v 0 0.5 -1.5
v -0.5 0.5 -1.5
v -0.5 0.5 -1.5
v -0.5 -0.5 -2
v -0.009743728 -0.5 -2.000957
v -0.5 -0.5 -4
v 0 -0.5 -4
v -0.009743728 -0.5 -2.000957
v 0 0.5 -1.5
v 0 -0.5 -4
v 0 0.5 -4
v 0 0.5 -4
v -0.5 0.5 -4
v -0.5 0.5 -4
v -0.5 -0.5 -4
vt 0.2495034 -2.375278
vt -0.0004965039 -2.375278
vt 0.4995033 -2.125278
vt 0.999503 -1.625279
vt -0.0004965039 -0.5002786
vt 0.9931501 -0.5002778
vt 0 -2.375
vt -0.25 -2.375
vt -0.5 -2.125
vt -1 -1.625
vt 0 -0.5
vt -1 -0.5
vt 0.5000024 0.7499965
vt 3.397448E-06 -4.142492E-06
vt 2.458675E-06 0.7499959
vt 0.5000034 -3.516643E-06
vt 0.5000044 -0.7500035
vt 4.336221E-06 -0.7500041
vt -0.4999976 0.7499952
vt -0.4999966 -4.768341E-06
vt -0.4651302 -1.467462
vt -0.4341215 -1.115271
vt 0.06976954 -1.115271
vt -0.4999957 -0.7500048
vt -0.06976954 -1.115271
vt 0.4341215 -1.115271
vt 0.4651302 -1.467462
vt -0.2914997 -2.374999
vt 0.2981241 -2.124999
vt -0.2914996 -6.75
vt 0.2649994 -6.75
vt -0.2957961 -2.11936
vt 0.2938207 -2.369377
vt -0.2629254 -6.744666
vt 0.2938252 -6.744088
vt 0 -2.375
vt 0.25 -2.375
vt -4.768341E-06 -6.75
vt 0.2499952 -6.75
vt -0.25 -2.375
vt -0.2500048 -6.75
vt -0.2957963 -2.119361
vt 0.2938205 -2.369377
vt -0.2629356 -6.744666
vt 0.2938149 -6.744088
vt -0.2914992 -2.375
vt 0.2981246 -2.125
vt -0.2915005 -6.75
vt 0.2649985 -6.75
vt -0.2499959 -6.75
vt 4.112694E-06 -6.75
vt -0.7499959 -7.25
vt 4.112694E-06 -7.25
vt 0.2500041 -6.75
vt 0.7500041 -7.25
vt -4.112694E-06 -6.75
vt 0.2499959 -6.75
vt -4.112694E-06 -7.25
vt 0.7499959 -7.25
vt -0.2500042 -6.75
vt -0.7500042 -7.25
vt -0.4999966 -7.25
vt 3.442146E-06 -7.25
vt -0.4999966 -8.25
vt 3.442146E-06 -8.25
vt 0.5000033 -7.25
vt 0.5000033 -8.25
vt -0.7499958 -8.25
vt 4.15243E-06 -8.25
vt 0.7500042 -8.25
vt -4.132562E-06 -8.25
vt 0.7499959 -8.25
vt -0.7500042 -8.25
vt -3.352739E-06 -7.25
vt 0.4999967 -7.25
vt -3.352739E-06 -8.25
vt 0.4999967 -8.25
vt -0.5000035 -7.25
vt -0.5000035 -8.25
vt -0.3354114 -5.329298
vt 0.2236056 -5.329298
vt -0.1118046 -6.000119
vt -3.427245E-06 -6.260992
vt -3.442146E-06 -6.820009
vt -0.5000035 -6.820009
vt 3.367641E-06 -6.260988
vt 0.5000033 -6.820005
vt 3.352739E-06 -6.820005
vt -0.2236019 -5.329294
vt 0.3354151 -5.329294
vt 0.1118083 -6.000114
vt 0.4999967 -6.820009
vt -0.2236117 -5.329297
vt 0.3354053 -5.329297
vt 0.1117985 -6.000117
vt -0.335409 -5.329292
vt 0.223608 -5.329292
vt -0.1118022 -6.000113
vt -0.4999966 -6.820005
vt 0 0.5
vt 0.5 -0.5
vt 0 -0.5
vt 0.5 0.5
vt -1 0.5
vt 0 0
vt -0.001269717 0
vt 0.9923781 -0.5
vt -0.001269717 -0.5
vt 0.9923781 0.5
vt -0.483171 0.5
vt 0.05047227 -0.5
vt -0.483171 -0.5
vt 0.0504726 0.5
vt 0.001197095 -0.4966474
vt 0 -1.873067
vt -0.4994834 -1.372551
vt 0 -1.875
vt 0 -2.375
vt -0.125 -2.375
vt -0.25 -2.375
vt -0.5 -2.125
vt -1 -1.625
vt -0.5 -1.375
vt -1 -0.5
vt 0.25 -2.375
vt 0.125 -2.375
vt 0.4994859 -1.372562
vt 0 -1.873076
vt -0.004475058 -0.4966634
vt 1 -0.5
vt 1 -1.625
vt 0.5 -1.375
vt 0.5 -2.125
vt 0.4341215 -1.115271
vt 0.4651302 -1.467462
vt -0.06976954 -1.115271
vt 0.06976954 -1.115271
vt -0.4651302 -1.467462
vt -0.4341215 -1.115271
vt -0.1249997 -2.375
vt -0.2499997 -2.375
vt 0 0.7496634
vt -0.4959266 -1.376291
vt -0.5036645 0.2494388
vt -0.009589631 -0.4979252
vt -0.5 0.25
vt -1 0.5
vt 1 0.5
vt 0.5 0.25
vt 0.5032929 0.2484859
vt -0.01076995 -0.5024232
vt 0 0.7490919
vt 0.4946167 -1.376935
vt 0.003364902 0.5027123
vt -0.4291463 -0.247311
vt -0.4966323 0.5027169
vt -0.08548718 -0.4972886
vt -0.4966323 -0.4972794
vt 0.497199 -0.2500017
vt 0.497199 -0.5000017
vt 0.03330877 -0.5000017
vt 0.03330917 0.4999983
vt 0.497199 0.4999983
vt -0.5 -1.375
vt -0.5 0.25
vt 0 -1.375
vt -0.04929546 0.25
vt -0.4983662 -0.1713205
vt -0.468545 0.5271739
vt -0.04765927 -0.1713205
vt 0 0.536869
vt 0.4491718 0.5403715
vt 0.4934146 -0.1748471
vt -0.01926145 0.5231237
vt -0.05569838 -0.1857487
vt 0.4986528 0.25
vt 0.4986528 -1.375
vt -0.05064338 0.25
vt -0.001345427 -1.375
vt 0.5 -0.6187185
vt 0.5 -1.325825
vt 0 -0.6187185
vt 0 -1.325825
vt -0.5 -1.325825
vt -0.5 -0.6187185
vt 0 -1.325825
vt 0 -0.6187185
vt 0 -0.3535534
vt -0.5 -0.3535534
vt 0 1.06066
vt -0.5 1.06066
vt 0 1.5
vt 0.5 -0.3535534
vt 0.5 1.06066
vt 0 1.5
vt 0.5475211 0.267695
vt 0.03459371 0.7680953
vt 0.05003047 1.518696
vt -0.06315237 0.7694443
vt -0.5513248 0.2689731
vt -0.05427987 1.520151
vt -0.001269717 1.5
vt -0.04327221 0.3553398
vt 0.4902617 0.3445231
vt -0.0214918 -1.060084
vt 0.4784569 -1.065147
vt 0.4972032 -0.3545367
vt 0.03331334 -0.3545367
vt 0.4999981 1.059674
vt 0 1.060662
vt -0.5 -0.5644324
vt 0 -0.5644324
vt 0 -1.228817
vt -0.5 -1.269973
vt -0.093679 -0.5021464
vt -0.004843796 -1.627149
vt -0.5048379 -0.5021464
vt -0.5048379 -1.627144
vt 0.5 0.9550229
vt 0.5 -0.5501764
vt 0 -0.5501764
vt 0.5 0.9550229
vt 0 -0.5501764
vt 0.009743728 0.9556586
vt 0.3721042 -0.4108894
vt -0.06976954 -1.115271
vt -0.1240347 -0.454572
vt -0.06976954 -1.115271
vt 0.3721042 -0.4108894
vt -0.1240347 -0.454572
vt 0.5 -0.5
vt 0.5 -1.625
vt 0 -1.625
vt 0.0361116 -0.5
vt 0 -0.5644324
vt 0 -1.228817
vt -0.5 -0.5644324
vt -0.5 -1.269973
vt 0.05047227 -0.4993044
vt 0.01434573 -1.624305
vt -0.483171 -0.4993044
vt -0.4856028 -1.6243
vt -2 -0.5
vt 0.9845297 -0.4839235
vt 1.992312 -0.4839235
vt 0.9952033 -1.612378
vt -0.08884589 -0.9980084
vt 0.5 -1
vt 0.009743728 -2.000957
vt 0.5 -2
vt -0.5 -1
vt 0.08884589 -0.9980084
vt -0.5 -2
vt -0.009743728 -2.000957
vt 0.9845297 -0.5144164
vt 0.9952033 0.4894679
vt 1.992312 -0.5144164
vt 1.492805 0.4851691
vt 0 -1
vt 0.5 -1
vt 0 -1.5
vt 0.5 -1.5
vt -1.5 0.5
vt -0.5 -2
vt -0.009743728 -2.000957
vt -0.5 -4
vt 0 -4
vt 2.000885 -0.5002005
vt 1.499982 0.4998738
vt 3.999953 -0.5002005
vt 3.999953 0.4997253
vt 0 -4
vt 0.5 -4
vt -4 0.5
vt -4 -0.5
vn -1 0 0
vn -1 0 0
vn -1 0 0
vn -0.9999981 0.000752423 0.0008464758
vn -0.9999971 0.001128634 0.001269714
vn -0.9999942 0.002257269 0.002539427
vn -1 0 0
vn -1 0 0
vn -1 0 0
vn -1 0 0
vn -1 0 0
vn -1 0 0
vn 0 -1 0
vn 0 -1 0
vn 0 -1 0
vn 0 -1 0
vn 0 -1 0
vn 0 -1 0
vn 0 -1 0
vn 0 -1 0
vn -0.08804509 -0.7043607 0.7043607
vn -0.08804509 -0.7043607 0.7043607
vn -0.08804509 -0.7043607 0.7043607
vn 0 -1 0
vn -0.08804509 -0.7043607 -0.7043607
vn -0.08804509 -0.7043607 -0.7043607
vn -0.08804509 -0.7043607 -0.7043607
vn -0.5299985 -1.296109E-06 0.8479986
vn -0.4885903 -0.006044165 0.8711799
vn -0.4885903 -0.006044165 0.8711799
vn -0.4471821 -0.01208703 0.8943613
vn 0.525825 -0.0114939 0.8505151
vn 0.4865187 -0.005747149 0.8724715
vn 0.4865187 -0.005747149 0.8724715
vn 0.4472125 -4.021262E-07 0.8944278
vn -1 -7.765634E-07 0
vn -1 -7.390969E-07 -6.556511E-07
vn -1 -7.390969E-07 -6.556511E-07
vn -1 -7.016304E-07 -1.311302E-06
vn -1 -8.44683E-07 0
vn -1 -8.106225E-07 -5.960464E-07
vn -0.5258253 -0.01149315 -0.8505149
vn -0.4865189 -0.005746275 -0.8724713
vn -0.4865189 -0.005746275 -0.8724713
vn -0.4472125 5.970962E-07 -0.8944278
vn 0.5299994 1.129312E-06 -0.8479981
vn 0.4885907 -0.006041825 -0.8711797
vn 0.4885907 -0.006041825 -0.8711797
vn 0.447182 -0.01208478 -0.8943614
vn 1 -1.192093E-07 1.192093E-06
vn 1 -5.960464E-08 1.231829E-06
vn 1 -5.960464E-08 1.231829E-06
vn 1 0 1.271566E-06
vn 1 1.986822E-08 1.231829E-06
vn 1 3.973643E-08 1.271566E-06
vn -1 0 -1.311302E-06
vn -1 -9.934108E-09 -1.291434E-06
vn -1 -9.934108E-09 -1.291434E-06
vn -1 -1.986822E-08 -1.271566E-06
vn -1 -5.960464E-08 -1.192093E-06
vn -1 -2.980232E-08 -1.211961E-06
vn -1.311302E-06 0 1
vn -1.311302E-06 0 1
vn -1.311302E-06 0 1
vn -1.311302E-06 0 1
vn -1.192093E-06 0 1
vn -1.192093E-06 0 1
vn 1 0 1.271566E-06
vn 1 0 1.271566E-06
vn 1 0 1.271566E-06
vn -1 0 -1.271566E-06
vn -1 0 -1.271566E-06
vn -1 0 -1.231829E-06
vn 1.311302E-06 0 -1
vn 1.311302E-06 0 -1
vn 1.311302E-06 0 -1
vn 1.311302E-06 0 -1
vn 1.192093E-06 0 -1
vn 1.192093E-06 0 -1
vn 0.3333341 0.6666667 -0.6666662
vn 0.3333341 0.6666667 -0.6666662
vn 0.3333341 0.6666667 -0.6666662
vn 1.06624E-06 0.4472136 -0.8944272
vn 1.06624E-06 0.4472136 -0.8944272
vn 1.06624E-06 0.4472136 -0.8944272
vn -1.06624E-06 0.4472136 0.8944272
vn -1.06624E-06 0.4472136 0.8944272
vn -1.06624E-06 0.4472136 0.8944272
vn 0.3333325 0.6666666 0.6666671
vn 0.3333325 0.6666666 0.6666671
vn 0.3333325 0.6666666 0.6666671
vn 1.172864E-06 0.4472136 -0.8944272
vn -0.3333324 0.6666667 -0.666667
vn -0.3333324 0.6666667 -0.666667
vn -0.3333324 0.6666667 -0.666667
vn -0.3333342 0.6666667 0.6666663
vn -0.3333342 0.6666667 0.6666663
vn -0.3333342 0.6666667 0.6666663
vn -1.172864E-06 0.4472136 0.8944272
vn 0 0 -1
vn 0 0 -1
vn 0 0 -1
vn 0 0 -1
vn -1 0 0
vn -1 0 0
vn -0.9999968 0 0.002539434
vn -0.9999968 0 0.002539434
vn -0.9999968 0 0.002539434
vn -0.9999968 0 0.002539434
vn -0.01434238 1.790947E-06 0.9998972
vn -0.01434238 1.790947E-06 0.9998972
vn -0.01434573 0 0.9998971
vn -0.01433902 3.581894E-06 0.9998972
vn 0.9979367 -0.04539976 0.04539976
vn 0.9979367 -0.04539976 0.04539976
vn 0.9979367 -0.04539976 0.04539976
vn 1 0 0
vn 1 0 0
vn 1 0 0
vn 1 0 0
vn 1 0 0
vn 1 0 0
vn 1 0 0
vn 1 0 0
vn 1 0 0
vn 1 0 0
vn 0.9979466 -0.04529176 -0.04529176
vn 0.9979466 -0.04529176 -0.04529176
vn 0.9979466 -0.04529176 -0.04529176
vn 1 0 0
vn 1 0 0
vn 1 0 0
vn 1 0 0
vn 0.08804509 -0.7043607 0.7043607
vn 0.08804509 -0.7043607 0.7043607
vn 0.08804509 -0.7043607 0.7043607
vn 0.08804509 -0.7043607 -0.7043607
vn 0.08804509 -0.7043607 -0.7043607
vn 0.08804509 -0.7043607 -0.7043607
vn 1 7.084438E-07 0
vn 1 7.084438E-07 0
vn 0.9840819 0.009567978 0.0406639
vn 0.9840819 0.009567978 0.0406639
vn 0.9914079 -0.02995981 -0.1273292
vn 0.9767558 0.04909577 0.208657
vn 1 0 0
vn 1 0 0
vn 1 0 0
vn 1 0 0
vn 0.9861326 0.03944537 -0.1602773
vn 0.9861326 0.03944537 -0.1602773
vn 0.9880357 0.04919289 -0.1461696
vn 0.9842296 0.02969785 -0.1743851
vn 0.01306333 -0.007204136 -0.999775
vn 0.007095773 0.009488054 -0.9995396
vn 0 -0.01473863 -0.9998914
vn 0.01064366 0.02160139 -0.9993637
vn -0.004839343 0.04287243 -0.9990689
vn 0.002799384 1.191726E-06 0.999996
vn 0.002802595 0 0.9999961
vn 0.002801632 1.78759E-06 0.9999961
vn 0.002797778 1.78759E-06 0.9999961
vn 0.002794888 0 0.9999961
vn 0 0 -1
vn -0.001631134 0.0005018873 -0.9999971
vn -0.001631134 0.0005018873 -0.9999971
vn -0.003262267 0.001003775 -0.9999942
vn -0.002335215 -0.6982794 -0.7158215
vn 0.008151612 -0.7026919 -0.7113425
vn 0.008151612 -0.7026919 -0.7113425
vn 0.01863844 -0.7071044 -0.7068634
vn -0.01839757 -0.716126 0.6977285
vn -0.01014887 -0.7120905 0.7019416
vn -0.01014887 -0.7120905 0.7019416
vn -0.001900167 -0.708055 0.7061548
vn -0.002690854 0 0.9999964
vn -0.001345427 0.0004547924 0.999998
vn -0.001345427 0.0004547924 0.999998
vn 0 0.0009095848 0.9999996
vn 0 0.7071068 0.7071068
vn 0 0.7071068 0.7071068
vn 0 0.7071068 0.7071068
vn 0 0.7071068 0.7071068
vn 0 0.7071068 -0.7071068
vn 0 0.7071068 -0.7071068
vn 0 0.7071068 -0.7071068
vn 0 0.7071068 -0.7071068
vn 0 0.7071068 -0.7071068
vn 0 0.7071068 -0.7071068
vn 0 0.7071068 -0.7071068
vn 0 0.7071068 -0.7071068
vn 1 0 0
vn 0 0.7071068 -0.7071068
vn 0 0.7071068 -0.7071068
vn -1 0 0
vn 0.9941853 -0.03999236 0.09998089
vn 0.9941853 -0.03999236 0.09998089
vn 0.9941853 -0.03999236 0.09998089
vn 0.993154 -0.04338301 -0.1084575
vn 0.993154 -0.04338301 -0.1084575
vn 0.993154 -0.04338301 -0.1084575
vn -0.9999968 0 0.002539434
vn -0.01013579 0.7073456 0.7067952
vn -0.005067896 0.7060974 0.7080762
vn -0.005067896 0.7060974 0.7080762
vn 0 0.7048491 0.7093573
vn 0.001976288 0.7071054 0.7071054
vn 0.0009881442 0.7073351 0.706877
vn 0.0009881442 0.7073351 0.706877
vn 0 0.7075647 0.7066485
vn 0.04402255 -0.6814327 -0.7284687
vn 0 -0.6585046 -0.7525767
vn 0.04402255 -0.6814327 -0.7284687
vn 0.08804509 -0.7043607 -0.7043607
vn -0.004843785 0.002152793 -0.9999859
vn -0.002421892 0.001076397 -0.999993
vn -0.002421892 0.001076397 -0.999993
vn 0 0 -1
vn -0.0007289993 -0.6645445 -0.747248
vn 0 -0.6643639 -0.7474093
vn -0.0007289993 -0.6645445 -0.747248
vn -0.0007289993 -0.6645445 -0.747248
vn -0.0007289993 -0.6645445 -0.747248
vn -0.001457999 -0.6647251 -0.7470866
vn -0.04402255 -0.6814327 -0.7284687
vn -0.04402255 -0.6814327 -0.7284687
vn 0 -0.6585046 -0.7525767
vn 0.04402255 -0.6814327 0.7284687
vn 0.04402255 -0.6814327 0.7284687
vn 0 -0.6585046 0.7525767
vn 0.001401297 -0.0006227985 0.9999976
vn 0 0 1
vn 0.001401297 -0.0006227985 0.9999976
vn 0.002802593 -0.001245597 0.9999953
vn 0 -0.6585046 0.7525767
vn -0.04402255 -0.6814327 0.7284687
vn -0.04402255 -0.6814327 0.7284687
vn -0.08804509 -0.7043607 0.7043607
vn -0.01434573 -0.0006950357 0.9998968
vn -0.007172863 0.002477061 0.9999404
vn -0.007172863 0.002477061 0.9999404
vn 0 0.005649158 0.999984
vn -1 0 0
vn 0.9921571 -0.07818208 -0.09752884
vn 0.9921571 -0.07818208 -0.09752884
vn 0.9921571 -0.07818208 -0.09752884
vn 0 1 0
vn 0 1 0
vn 0 1 0
vn 0 1 0
vn 0 -1 0
vn 0 -1 0
vn 0 -1 0
vn 0 -1 0
vn 0.9913526 0.08788352 -0.09744976
vn 0.9956526 0.03907013 -0.04872488
vn 0.9956526 0.03907013 -0.04872488
vn 0.9999526 -0.009743266 0
vn 0 1 0
vn 0 1 0
vn 0 1 0
vn 0 1 0
vn -1 0 0
vn 0 -1 0
vn 0 -1 0
vn 0 -1 0
vn 0 -1 0
vn 0.9999139 -0.01218444 0.004873776
vn 0.999957 -0.00609222 0.002436888
vn 0.999957 -0.00609222 0.002436888
vn 1 0 0
vn 0 1 0
vn 0 1 0
vn -1 0 0
vn -1 0 0
g pb_Mesh-934408_0
g pb_Mesh-934408_1
f 3/3/3 2/2/2 1/1/1
f 4/4/4 2/2/2 3/3/3
f 2/2/2 4/4/4 5/5/5
f 5/5/5 4/4/4 6/6/6
f 9/9/9 8/8/8 7/7/7
f 7/7/7 10/10/10 9/9/9
f 11/11/11 10/10/10 7/7/7
f 12/12/12 10/10/10 11/11/11
f 15/15/15 14/14/14 13/13/13
f 14/14/14 16/16/16 13/13/13
f 17/17/17 16/16/16 14/14/14
f 18/18/18 17/17/17 14/14/14
f 19/19/19 14/14/14 15/15/15
f 19/19/19 20/20/20 14/14/14
f 23/23/23 22/22/22 21/21/21
f 20/20/20 24/24/24 14/14/14
f 24/24/24 18/18/18 14/14/14
f 27/27/27 26/26/26 25/25/25
f 30/30/30 29/29/29 28/28/28
f 30/30/30 31/31/31 29/29/29
f 34/34/34 33/33/33 32/32/32
f 34/34/34 35/35/35 33/33/33
f 38/38/38 37/37/37 36/36/36
f 38/38/38 39/39/39 37/37/37
f 41/41/41 36/36/36 40/40/40
f 41/41/41 38/38/38 36/36/36
f 44/44/44 43/43/43 42/42/42
f 44/44/44 45/45/45 43/43/43
f 48/48/48 47/47/47 46/46/46
f 48/48/48 49/49/49 47/47/47
f 52/52/52 51/51/51 50/50/50
f 52/52/52 53/53/53 51/51/51
f 53/53/53 54/54/54 51/51/51
f 53/53/53 55/55/55 54/54/54
f 58/58/58 57/57/57 56/56/56
f 58/58/58 59/59/59 57/57/57
f 61/61/61 56/56/56 60/60/60
f 61/61/61 58/58/58 56/56/56
f 64/64/64 63/63/63 62/62/62
f 64/64/64 65/65/65 63/63/63
f 65/65/65 66/66/66 63/63/63
f 65/65/65 67/67/67 66/66/66
f 68/68/68 53/53/53 52/52/52
f 68/68/68 69/69/69 53/53/53
f 69/69/69 55/55/55 53/53/53
f 69/69/69 70/70/70 55/55/55
f 71/71/71 59/59/59 58/58/58
f 71/71/71 72/72/72 59/59/59
f 73/73/73 58/58/58 61/61/61
f 73/73/73 71/71/71 58/58/58
f 76/76/76 75/75/75 74/74/74
f 76/76/76 77/77/77 75/75/75
f 79/79/79 74/74/74 78/78/78
f 79/79/79 76/76/76 74/74/74
f 82/82/82 81/81/81 80/80/80
f 85/85/85 84/84/84 83/83/83
f 88/88/88 87/87/87 86/86/86
f 91/91/91 90/90/90 89/89/89
f 84/84/84 92/92/92 83/83/83
f 95/95/95 94/94/94 93/93/93
f 98/98/98 97/97/97 96/96/96
f 99/99/99 88/88/88 86/86/86
f 102/102/102 101/101/101 100/100/100
f 101/101/101 103/103/103 100/100/100
f 12/12/12 11/11/11 104/104/104
f 11/11/11 105/105/105 104/104/104
f 108/108/108 107/107/107 106/106/106
f 107/107/107 109/109/109 106/106/106
f 112/112/112 111/111/111 110/110/110
f 111/111/111 113/113/113 110/110/110
f 116/116/116 115/115/115 114/114/114
f 119/119/119 118/118/118 117/117/117
f 117/117/117 120/120/120 119/119/119
f 121/121/121 120/120/120 117/117/117
f 122/122/122 121/121/121 117/117/117
f 122/122/122 117/117/117 123/123/123
f 124/124/124 122/122/122 123/123/123
f 126/126/126 125/125/125 117/117/117
f 117/117/117 118/118/118 126/126/126
f 129/129/129 128/128/128 127/127/127
f 132/132/132 131/131/131 130/130/130
f 117/117/117 131/131/131 132/132/132
f 117/117/117 133/133/133 131/131/131
f 125/125/125 133/133/133 117/117/117
f 136/136/136 135/135/135 134/134/134
f 139/139/139 138/138/138 137/137/137
f 50/50/50 118/118/118 140/140/140
f 50/50/50 51/51/51 118/118/118
f 141/141/141 50/50/50 140/140/140
f 126/126/126 54/54/54 125/125/125
f 118/118/118 54/54/54 126/126/126
f 118/118/118 51/51/51 54/54/54
f 144/144/144 143/143/143 142/142/142
f 143/143/143 145/145/145 142/142/142
f 147/147/147 124/124/124 146/146/146
f 124/124/124 123/123/123 146/146/146
f 149/149/149 132/132/132 148/148/148
f 132/132/132 130/130/130 148/148/148
f 152/152/152 151/151/151 150/150/150
f 151/151/151 153/153/153 150/150/150
f 156/156/156 155/155/155 154/154/154
f 155/155/155 157/157/157 154/154/154
f 155/155/155 158/158/158 157/157/157
f 161/161/161 160/160/160 159/159/159
f 162/162/162 161/161/161 159/159/159
f 162/162/162 159/159/159 163/163/163
f 166/166/166 165/165/165 164/164/164
f 166/166/166 167/167/167 165/165/165
f 170/170/170 169/169/169 168/168/168
f 170/170/170 171/171/171 169/169/169
f 174/174/174 173/173/173 172/172/172
f 174/174/174 175/175/175 173/173/173
f 178/178/178 177/177/177 176/176/176
f 178/178/178 179/179/179 177/177/177
f 182/182/182 181/181/181 180/180/180
f 182/182/182 183/183/183 181/181/181
f 186/186/186 185/185/185 184/184/184
f 186/186/186 187/187/187 185/185/185
f 190/190/190 189/189/189 188/188/188
f 190/190/190 191/191/191 189/189/189
f 192/192/192 149/149/149 148/148/148
f 194/194/194 188/188/188 193/193/193
f 194/194/194 190/190/190 188/188/188
f 195/195/195 104/104/104 105/105/105
f 198/198/198 197/197/197 196/196/196
f 201/201/201 200/200/200 199/199/199
f 202/202/202 106/106/106 109/109/109
f 205/205/205 204/204/204 203/203/203
f 205/205/205 206/206/206 204/204/204
f 192/192/192 147/147/147 146/146/146
f 209/209/209 208/208/208 207/207/207
f 209/209/209 210/210/210 208/208/208
f 213/213/213 212/212/212 211/211/211
f 214/214/214 213/213/213 211/211/211
f 217/217/217 216/216/216 215/215/215
f 217/217/217 218/218/218 216/216/216
f 221/221/221 220/220/220 219/219/219
f 224/224/224 223/223/223 222/222/222
f 226/226/226 26/26/26 225/225/225
f 227/227/227 226/226/226 225/225/225
f 229/229/229 228/228/228 134/134/134
f 229/229/229 230/230/230 228/228/228
f 233/233/233 232/232/232 231/231/231
f 234/234/234 233/233/233 231/231/231
f 237/237/237 236/236/236 235/235/235
f 237/237/237 238/238/238 236/236/236
f 241/241/241 240/240/240 239/239/239
f 241/241/241 242/242/242 240/240/240
f 243/243/243 10/10/10 12/12/12
f 246/246/246 245/245/245 244/244/244
f 249/249/249 248/248/248 247/247/247
f 249/249/249 250/250/250 248/248/248
f 253/253/253 252/252/252 251/251/251
f 253/253/253 254/254/254 252/252/252
f 257/257/257 256/256/256 255/255/255
f 257/257/257 258/258/258 256/256/256
f 261/261/261 260/260/260 259/259/259
f 261/261/261 262/262/262 260/260/260
f 263/263/263 12/12/12 104/104/104
f 263/263/263 243/243/243 12/12/12
f 266/266/266 265/265/265 264/264/264
f 266/266/266 267/267/267 265/265/265
f 270/270/270 269/269/269 268/268/268
f 270/270/270 271/271/271 269/269/269
f 272/272/272 262/262/262 261/261/261
f 272/272/272 273/273/273 262/262/262
f 274/274/274 243/243/243 263/263/263
f 274/274/274 275/275/275 243/243/243
