g pb_Mesh200094
v -8 -20 -4
v -4 8 -4
v -12 -20 -4
v -12 8 -4
v -19 -20 -4
v -19 10 -4
v -8.700027 8 10
v -9 -32.5 16
v -8.950027 8 16
v -8.75 -32.5 10
v 5 8 3
v -8.75 -32.5 10
v -8.700027 8 10
v 4 -32.5 3
v -8.050003 8 3
v 5 8 3
v -8.700027 8 10
v -11.85002 10 10
v -13 8 3
v -8.050003 8 3
v -11.85002 10 10
v -15 10 10
v -19 9 3
v -13 8 3
v -15 10 10
v -19 11 10
v 5 8 -0.5
v 4 -32.5 -0.5
v 5 8 3
v 4 -32.5 3
v -12.5 8 -0.5
v -12 8 -4
v -6.025002 8 -0.5
v -4 8 -4
v -13 8 3
v -8.050003 8 3
v -19 10 -4
v -12.5 8 -0.5
v -19 9.5 -0.5
v -12 8 -4
v -19 9.5 -0.5
v -13 8 3
v -19 9 3
v -12.5 8 -0.5
v -16 8 28
v -16 -32.5 28
v -16 -32.5 58
v -15.99993 10.00007 58
v -16 10 28.0001
v -16 10 19.0001
v -16 8.75 19
v -16 8 24
v -16 10 24
v -19 10.0001 58
v -19 10 28.0001
v -18 10 28
v -16 10 28.0001
v -15.99993 10.00007 58
v -19 10 23.5001
v -18 10 24
v -12.47502 10 16
v -12.5 10 15
v -8.950027 8 16
v -11.85002 10 10
v -8.700027 8 10
v -16.5 10 15
v -15 10 10
v -12.5 10 15
v -11.85002 10 10
v -19 10 16
v -16.5 10 19
v -19 10 19.0001
v -16 10 19.0001
v -16 10 24
v -16.5 10 15
v -19 10 16
v -19 11 10
v -15 10 10
v -8.950027 8 16
v -12.5 6 16
v -12.47502 10 16
v -9 -32.5 16
v -12.5 -32.5 16
v -12.5 6 16
v -12.5 -32.5 19
v -12.5 6 19
v -12.5 -32.5 16
v -12.5 -32.5 19
v -16 -32.5 19
v -16 5.5 19
v -12.5 6 19
v -16 5.5 19
v -16 8 28
v -16 -32.5 28
v -16 -32.5 19
v 0 8 -4
v 5 8 -4
v 4 -32.5 -4
v 0 8 -0.5
v 5 8 -0.5
v 5 8 -4
v 4 -32.5 -4
v 5 8 -3
v 5 8 -0.5
v 4 -32.5 -0.5
v 0 8 -4
v 0 8 -3
v 5 8 -3
vt 8 -20
vt 4 8
vt 12 -20
vt 12 8
vt 19 -20
vt 19 10
vt -10.35352 7.989791
vt -16.3608 -32.51024
vt -16.35872 7.989791
vt -10.3556 -32.51024
vt 3.087481 8.002775
vt -12.34178 -32.49723
vt -12.29728 8.002775
vt 2.196987 -32.49747
vt 8.050003 3
vt -5 3
vt 8.700027 10
vt 11.85002 10
vt 13 5.082341
vt 8.050003 5.082341
vt 11.85002 12.36245
vt 15 12.36245
vt 20.22108 4.236094
vt 14.13831 4.236094
vt 16.4399 11.42655
vt 20.54987 11.50173
vt 0.5 8.120981
vt 0.5 -32.39136
vt -3 8.120981
vt -3 -32.39136
vt 12.5 -0.5
vt 12 -4
vt 6.025002 -0.5
vt 4 -4
vt 13 3
vt 8.050003 3
vt 20.76203 -4.716166
vt 13.97877 -1.18242
vt 20.6496 -1.18242
vt 13.49157 -4.664496
vt 20.30328 -1.366806
vt 14.13831 2.167773
vt 20.22108 2.167773
vt 13.64512 -1.309457
vt -27.99998 7.999989
vt -27.99998 -32.50001
vt -57.99998 -32.50001
vt -57.99998 10.00006
vt -28.00008 9.999989
vt -19.0001 10
vt -19 8.75
vt -24 8
vt -24 10
vt 19.00005 58.00003
vt 19.00005 28.00013
vt 18.00005 28.00003
vt 16.00005 28.00013
vt 15.99998 58.00003
vt 19 23.5001
vt 18 24
vt 15.81948 15.89438
vt 15.84103 14.89569
vt 11.76704 15.89208
vt 15.28031 9.886538
vt 11.55137 9.891831
vt 16.5 15
vt 15 10
vt 12.5 15
vt 11.85002 10
vt 19 16
vt 16.5 19
vt 19 19.0001
vt 16 19.0001
vt 16 24
vt 17.12865 13.34003
vt 19.62311 14.35376
vt 19.68963 8.271364
vt 15.63197 8.391397
vt -8.950027 8
vt -12.5 6
vt -12.47502 10
vt -9 -32.5
vt -12.5 -32.5
vt -16 6
vt -19 -32.5
vt -19 6
vt -16 -32.5
vt -12.5 -32.5
vt -16 -32.5
vt -16 5.5
vt -12.5 6
vt -19 5.5
vt -28 8
vt -28 -32.5
vt -19 -32.5
vt 0 8
vt -5 8
vt -4 -32.5
vt 0 -0.5
vt -5 -0.5
vt 4 8.120981
vt 4 -32.39136
vt 3 8.120981
vt 0.5 8.120981
vt 0.5 -32.39136
vt 0 -4
vt 0 -3
vt -5 -3
vn 0 0 -1
vn 0 0 -1
vn 0 0 -1
vn 0 0 -1
vn 0 0 -1
vn 0 0 -1
vn 0.9991323 -0.001232819 0.04163051
vn 0.9991323 -0.001232819 0.04163051
vn 0.9991323 -0.001232819 0.04163051
vn 0.9991323 -0.001232819 0.04163051
vn 0.4681103 -0.006221754 0.8835051
vn 0.4681103 -0.006221754 0.8835051
vn 0.4549957 -0.0005614146 0.8904935
vn 0.4812248 -0.01188209 0.8765167
vn 0.2676731 0.9215842 0.02485629
vn 0 1 0
vn 0.2676731 0.9215842 0.02485629
vn 0.5353462 0.8431686 0.04971258
vn 0 0.961524 -0.2747211
vn 0 0.961524 -0.2747211
vn 0 0.961524 -0.2747211
vn 0 0.961524 -0.2747211
vn 0.1968838 0.9475797 -0.2478736
vn 0.1600444 0.9602666 -0.2286349
vn 0.1968838 0.9475797 -0.2478736
vn 0.2337232 0.9348928 -0.2671122
vn 0.9996954 -0.02468383 0
vn 0.9996954 -0.02468383 0
vn 0.9996954 -0.02468383 0
vn 0.9996954 -0.02468383 0
vn 0 1 0
vn 0 1 0
vn 0 1 0
vn 0 1 0
vn 0 1 0
vn 0 1 0
vn 0.248611 0.9629352 0.08854257
vn 0.248611 0.9629352 0.08854257
vn 0.2227122 0.9650862 0.1378694
vn 0.2745098 0.9607843 0.03921569
vn 0.1937671 0.9753165 0.08582056
vn 0.1937671 0.9753165 0.08582056
vn 0.1627907 0.9767442 0.1395349
vn 0.2247436 0.9738889 0.03210623
vn 1 -5.385068E-07 -1.489977E-06
vn 1 0 0
vn 1 -8.078169E-07 -1.090553E-06
vn 1 -8.077602E-07 -2.234966E-06
vn 1 1.135053E-10 -2.288826E-06
vn 1 0 0
vn 1 0 0
vn 1 0 0
vn 1 0 0
vn 5.085983E-06 1 -3.136538E-06
vn -3.279042E-10 1 -3.306082E-06
vn 3.390693E-06 1 -2.853967E-06
vn 1.135053E-10 1 -2.288826E-06
vn 5.086204E-06 1 -2.62791E-06
vn 0 1 0
vn 0 1 0
vn 0.4934426 0.8696911 -0.01232552
vn 0.5048537 0.8617864 0.02581725
vn 0.4899244 0.8715944 0.0039707
vn 0.5347124 0.8421704 0.06951033
vn 0.5105593 0.8578341 0.04488863
vn 0 1 0
vn 0 1 0
vn 0 1 0
vn 0 1 0
vn 0 1 0
vn 0 1 0
vn 0 1 0
vn 0 1 0
vn 0 1 0
vn 0.153757 0.9759263 0.1183068
vn 0.06561787 0.9842681 0.1640447
vn 0.153757 0.9759263 0.1183068
vn 0.2418962 0.9675846 0.07256885
vn 0 0 1
vn 0 0 1
vn 0 0 1
vn 0 0 1
vn 0 0 1
vn 1 0 0
vn 1 0 0
vn 1 0 0
vn 1 0 0
vn 0 0 1
vn 0 0 1
vn 0 0 1
vn 0 0 1
vn 1 0 0
vn 1 0 0
vn 1 0 0
vn 1 0 0
vn 0 0 -1
vn 0 0 -1
vn 0 0 -1
vn 0 1 0
vn 0 1 0
vn 0.9996953 -0.02468383 0
vn 0.9996953 -0.02468383 0
vn 0.9996953 -0.02468383 0
vn 0.9996953 -0.02468383 0
vn 0.9996954 -0.02468383 0
vn 0 1 0
vn 0 1 0
vn 0 1 0
g pb_Mesh200094_0
g pb_Mesh200094_1
f 3/3/3 2/2/2 1/1/1
f 3/3/3 4/4/4 2/2/2
f 5/5/5 4/4/4 3/3/3
f 5/5/5 6/6/6 4/4/4
f 9/9/9 8/8/8 7/7/7
f 8/8/8 10/10/10 7/7/7
f 13/13/13 12/12/12 11/11/11
f 12/12/12 14/14/14 11/11/11
f 17/17/17 16/16/16 15/15/15
f 17/17/17 15/15/15 18/18/18
f 21/21/21 20/20/20 19/19/19
f 21/21/21 19/19/19 22/22/22
f 25/25/25 24/24/24 23/23/23
f 25/25/25 23/23/23 26/26/26
f 29/29/29 28/28/28 27/27/27
f 29/29/29 30/30/30 28/28/28
f 33/33/33 32/32/32 31/31/31
f 33/33/33 34/34/34 32/32/32
f 36/36/36 31/31/31 35/35/35
f 36/36/36 33/33/33 31/31/31
f 39/39/39 38/38/38 37/37/37
f 38/38/38 40/40/40 37/37/37
f 43/43/43 42/42/42 41/41/41
f 42/42/42 44/44/44 41/41/41
f 47/47/47 46/46/46 45/45/45
f 47/47/47 45/45/45 48/48/48
f 45/45/45 49/49/49 48/48/48
f 52/52/52 51/51/51 50/50/50
f 53/53/53 52/52/52 50/50/50
f 56/56/56 55/55/55 54/54/54
f 58/58/58 57/57/57 56/56/56
f 54/54/54 58/58/58 56/56/56
f 56/56/56 60/60/60 59/59/59
f 56/56/56 59/59/59 55/55/55
f 63/63/63 62/62/62 61/61/61
f 62/62/62 65/65/65 64/64/64
f 62/62/62 63/63/63 65/65/65
f 68/68/68 67/67/67 66/66/66
f 68/68/68 69/69/69 67/67/67
f 71/71/71 66/66/66 70/70/70
f 71/71/71 70/70/70 72/72/72
f 74/74/74 73/73/73 71/71/71
f 60/60/60 72/72/72 59/59/59
f 60/60/60 71/71/71 72/72/72
f 74/74/74 71/71/71 60/60/60
f 77/77/77 76/76/76 75/75/75
f 75/75/75 78/78/78 77/77/77
f 81/81/81 80/80/80 79/79/79
f 80/80/80 82/82/82 79/79/79
f 80/80/80 83/83/83 82/82/82
f 86/86/86 85/85/85 84/84/84
f 85/85/85 87/87/87 84/84/84
f 90/90/90 89/89/89 88/88/88
f 90/90/90 88/88/88 91/91/91
f 92/92/92 51/51/51 52/52/52
f 52/52/52 93/93/93 92/92/92
f 94/94/94 92/92/92 93/93/93
f 94/94/94 95/95/95 92/92/92
f 1/1/1 2/2/2 96/96/96
f 96/96/96 97/97/97 1/1/1
f 98/98/98 1/1/1 97/97/97
f 16/16/16 100/100/100 99/99/99
f 99/99/99 33/33/33 36/36/36
f 16/16/16 99/99/99 36/36/36
f 103/103/103 102/102/102 101/101/101
f 102/102/102 103/103/103 104/104/104
f 102/102/102 104/104/104 105/105/105
f 107/107/107 106/106/106 34/34/34
f 99/99/99 107/107/107 34/34/34
f 99/99/99 34/34/34 33/33/33
f 100/100/100 108/108/108 107/107/107
f 100/100/100 107/107/107 99/99/99
