g pb_Mesh192318
v 0 0 0
v 1.5 0 0
v 0 0.25 0
v 1 0.25 0
v 0 0.25 0
v 1 0.25 0
v 0 0.25 0.5
v 2 0.25 0.5
v 0 0.25 0.5
v 2 0.25 0.5
v 0 0.5 0.5
v 2 0.5 0.5
v 0 0.5 0.5
v 2 0.5 0.5
v 0 0.5 1
v 2 0.5 1
v 0 0.5 1
v 2 0.5 1
v 0 0.75 1
v 2 0.75 1
v 0 0.75 1
v 2 0.75 1
v 0 0.75 1.5
v 2 0.75 1.5
v 2 0 0.5
v 2 0 1
v 2 0.25 0.5
v 2 0.5 1
v 2 0.5 0.5
v 2 0 1.5
v 2 0.75 1.5
v 2 0.75 1
v 0 0.25 0
v 0 0 0.5
v 0 0 0
v 0 0.25 0.5
v 0 0 1
v 0 0.5 1
v 0 0.5 0.5
v 0 0 1.5
v 0 0.75 1.5
v 0 0.75 1
v 2 0 1.5
v 0 0 1.5
v 2 0.75 1.5
v 0 0.75 1.5
v 1.5 0 0
v 2 0.25 0.5
v 1 0.25 0
v 1.5 0 0
v 2 0 0.5
v 2 0.25 0.5
vt 0 0
vt -1.5 0
vt 0 0.25
vt -1 0.25
vt 0 0
vt -1 0
vt 0 0.5
vt -2 0.5
vt 0 0.25
vt -2 0.25
vt 0 0.5
vt -2 0.5
vt 0 0.5
vt -2 0.5
vt 0 1
vt -2 1
vt 0 0.5
vt -2 0.5
vt 0 0.75
vt -2 0.75
vt 0 1
vt -2 1
vt 0 1.5
vt -2 1.5
vt -1.008321 -0.2276122
vt -1.490724 -0.2109693
vt -1.008321 0.02037681
vt -1.490724 0.2850088
vt -1.008321 0.2683658
vt -1.973128 -0.1943263
vt -1.973128 0.5496408
vt -1.490724 0.5329978
vt 0 0.25
vt 0.5 0
vt 0 0
vt 0.5 0.25
vt 1 0
vt 1 0.5
vt 0.5 0.5
vt 1.5 0
vt 1.5 0.75
vt 1 0.75
vt 2 0
vt 0 0
vt 2 0.75
vt 0 0.75
vt -0.3944377 -0.1831914
vt -1.008321 0.02037681
vt -0.2629585 0.1258614
vt -0.3944377 -0.1831914
vt -1.008321 -0.2276122
vt -1.008321 0.02037681
vn 0 0 -1
vn 0 0 -1
vn 0 0 -1
vn 0 0 -1
vn 0 1 0
vn 0 1 0
vn 0 1 0
vn 0 1 0
vn 0 0 -1
vn 0 0 -1
vn 0 0 -1
vn 0 0 -1
vn 0 1 0
vn 0 1 0
vn 0 1 0
vn 0 1 0
vn 0 0 -1
vn 0 0 -1
vn 0 0 -1
vn 0 0 -1
vn 0 1 0
vn 0 1 0
vn 0 1 0
vn 0 1 0
vn 1 0 0
vn 1 0 0
vn 1 0 0
vn 1 0 0
vn 1 0 0
vn 1 0 0
vn 1 0 0
vn 1 0 0
vn -1 0 0
vn -1 0 0
vn -1 0 0
vn -1 0 0
vn -1 0 0
vn -1 0 0
vn -1 0 0
vn -1 0 0
vn -1 0 0
vn -1 0 0
vn 0 0 1
vn 0 0 1
vn 0 0 1
vn 0 0 1
vn 0.3333333 0.6666667 -0.6666667
vn 0.3333333 0.6666667 -0.6666667
vn 0.3333333 0.6666667 -0.6666667
vn 0.7071068 0 -0.7071068
vn 0.7071068 0 -0.7071068
vn 0.7071068 0 -0.7071068
g pb_Mesh192318_0
f 3/3/3 2/2/2 1/1/1
f 3/3/3 4/4/4 2/2/2
f 7/7/7 6/6/6 5/5/5
f 7/7/7 8/8/8 6/6/6
f 11/11/11 10/10/10 9/9/9
f 11/11/11 12/12/12 10/10/10
f 15/15/15 14/14/14 13/13/13
f 15/15/15 16/16/16 14/14/14
f 19/19/19 18/18/18 17/17/17
f 19/19/19 20/20/20 18/18/18
f 23/23/23 22/22/22 21/21/21
f 23/23/23 24/24/24 22/22/22
f 27/27/27 26/26/26 25/25/25
f 27/27/27 28/28/28 26/26/26
f 27/27/27 29/29/29 28/28/28
f 28/28/28 30/30/30 26/26/26
f 28/28/28 31/31/31 30/30/30
f 28/28/28 32/32/32 31/31/31
f 35/35/35 34/34/34 33/33/33
f 34/34/34 36/36/36 33/33/33
f 34/34/34 37/37/37 36/36/36
f 37/37/37 38/38/38 36/36/36
f 38/38/38 39/39/39 36/36/36
f 37/37/37 40/40/40 38/38/38
f 40/40/40 41/41/41 38/38/38
f 41/41/41 42/42/42 38/38/38
f 45/45/45 44/44/44 43/43/43
f 45/45/45 46/46/46 44/44/44
f 49/49/49 48/48/48 47/47/47
f 52/52/52 51/51/51 50/50/50
