g pb_Mesh44830
v -2 0 0
v -6 0 0
v -2 2 0
v -6 2 0
v -6 0 0
v -6 0 -8
v -6 2 0
v -6 2 -8
v -6 0 -8
v -2 0 -6
v -6 2 -8
v -2 2 -6
v -2 0 -6
v -2 0 0
v -2 2 -6
v -2 2 0
v -2 2 0
v -6 2 0
v -2 2 -6
v -6 2 -8
v -2 0 -6
v -6 0 -8
v -2 0 0
v -6 0 0
vt -2 0
vt -6 0
vt -2 2
vt -6 2
vt 0 0
vt -8 0
vt 0 2
vt -8 2
vt 8.944272 0
vt 4.472136 0
vt 8.944272 2
vt 4.472136 2
vt 6 0
vt 0 0
vt 6 2
vt 0 2
vt 2 0
vt 6 0
vt 2 -6
vt 6 -8
vt -2 -6
vt -6 -8
vt -2 0
vt -6 0
vn 0 0 1
vn 0 0 1
vn 0 0 1
vn 0 0 1
vn -1 0 0
vn -1 0 0
vn -1 0 0
vn -1 0 0
vn 0.4472136 0 -0.8944272
vn 0.4472136 0 -0.8944272
vn 0.4472136 0 -0.8944272
vn 0.4472136 0 -0.8944272
vn 1 0 0
vn 1 0 0
vn 1 0 0
vn 1 0 0
vn 0 1 0
vn 0 1 0
vn 0 1 0
vn 0 1 0
vn 0 -1 0
vn 0 -1 0
vn 0 -1 0
vn 0 -1 0
g pb_Mesh44830_0
f 3/3/3 2/2/2 1/1/1
f 3/3/3 4/4/4 2/2/2
f 7/7/7 6/6/6 5/5/5
f 7/7/7 8/8/8 6/6/6
f 11/11/11 10/10/10 9/9/9
f 11/11/11 12/12/12 10/10/10
f 15/15/15 14/14/14 13/13/13
f 15/15/15 16/16/16 14/14/14
f 19/19/19 18/18/18 17/17/17
f 19/19/19 20/20/20 18/18/18
f 23/23/23 22/22/22 21/21/21
f 23/23/23 24/24/24 22/22/22
