g pb_Mesh381380
v -64 0 0
v -64 0 -64
v -64 128 0
v -64 128 -64
v -64 0 -64
v 0 0 -64
v -64 128 -64
v 0 128 -64
v 0 0 -64
v -64 0 -64
v 0 0 0
v -64 0 0
vt 0 0
vt -64 0
vt 0 128
vt -64 128
vt 64 0
vt 0 0
vt 64 128
vt 0 128
vt 0 -64
vt -64 -64
vt 0 0
vt -64 0
vn -1 0 0
vn -1 0 0
vn -1 0 0
vn -1 0 0
vn 0 0 -1
vn 0 0 -1
vn 0 0 -1
vn 0 0 -1
vn 0 -1 0
vn 0 -1 0
vn 0 -1 0
vn 0 -1 0
g pb_Mesh381380_0
f 3/3/3 2/2/2 1/1/1
f 3/3/3 4/4/4 2/2/2
f 7/7/7 6/6/6 5/5/5
f 7/7/7 8/8/8 6/6/6
f 11/11/11 10/10/10 9/9/9
f 11/11/11 12/12/12 10/10/10
