g pb_Mesh241310
v 20 1 -10
v 20 -5 0
v 20 1 2.468142
v 20 -5 -10
v -8 0 2
v -8 0 -0.5
v -8 1 -0.5
v -8 2 2
v -8 0 -10
v -8 1 -10
v -8 2 -10
v -8 2 -0.5
v -8 1 -12
v -2 -5 -12
v 2 1 -12
v -8 0 -12
v -8 2 -12
v 2 2 -12
v 20 1 2.468142
v 20 -4 10.25
v 20 2 10.25
v 20 -5 0
v 20 2 -0.5
v 20 -4 10.25
v 12 0 10
v 12 2 10
v 20 2 10.25
v 12 0 10
v 12 0 11
v 12 2 11
v 12 2 10
v 12 0 11
v 0 0 11
v 0 2 11
v 12 2 11
v 20 2 -0.5
v 20 2 10.25
v 12 2 10
v -2 0 10
v -2 0 2
v -2 2 2
v -2 2 10
v -2 0 2
v -8 0 2
v -8 2 2
v -2 2 2
v -8 2 -0.5
v 2.875 2 -0.5
v -2 2 2
v -8 2 2
v 0 0 11
v 0 0 10
v 0 2 10
v 0 2 11
v 0 0 10
v -2 0 10
v -2 2 10
v 0 2 10
v -2 2 10
v 0 2 10
v 20 2 -6.25
v 20 2 -10
v 20 1 -10
v -8 2 -10
v 2 2 -10
v -2 2 -6.25
v 8 2 -10
v 9 2 -6.25
v 8 2 -10
v 20 2 -10
v 20 2 -6.25
v 9 2 -0.5
v 0 2 11
v 12 2 11
v 2 1 -10
v 2 2 -10
v 2 1 -12
v 2 2 -12
v 2 2 -12
v -8 2 -12
v -8 2 -12
v -8 1 -12
v -8 0 -12
v 2 -5 -10
v 2 -5 -12
v -2 -5 -12
v 2 -5 -10
v 2 -5 -12
v 2 -5 -12
v 2 1 -10
v 8 -5 -10
v 8 1 -10
v 2 -5 -10
v 8 1 -12
v 20 -5 -12
v 20 1 -12
v 8 -5 -12
v 8 2 -10
v 2 2 -10
v 8 1 -10
v 8 -5 -10
v 8 1 -12
v 8 -5 -12
v 20 1 -12
v 20 2 -12
v 20 -5 -10
v 20 -5 -12
v 8 -5 -10
v 20 -5 -10
v 8 -5 -12
v 20 -5 -12
v 20 2 -12
v 8.5 2 -12
v 8 1.5 -12
v 8 2 -10
v 8 2 -11.5
v 8 1.5 -12
v 8 1.5 -12
v 8.5 2 -12
v 8 2 -11.5
v 8 2 -11.5
v 8.5 2 -12
v 20 2 -12
vt 10 1
vt 0 -5
vt -2.468142 1
vt 10 -5
vt 2 0
vt -0.5 0
vt -0.5 1
vt 2 2
vt -10 0
vt -10 1
vt -10 2
vt -0.5 2
vt 8 1
vt 2 -5
vt -2 1
vt 8 0
vt 8 2
vt -2 2
vt -2.468142 1
vt -10.25 -4
vt -10.25 2
vt 0 -5
vt 0.5 2
vt 20.3104 -4
vt 12.30649 0
vt 12.30649 2
vt 20.3104 2
vt -10 0
vt -11 0
vt -11 2
vt -10 2
vt 12 0
vt 0 0
vt 0 2
vt 12 2
vt -20 -0.5
vt -20 10.25
vt -12 10
vt 10 0
vt 2 0
vt 2 2
vt 10 2
vt -2 0
vt -8 0
vt -8 2
vt -2 2
vt 8 -0.5
vt -2.875 -0.5
vt 2 2
vt 8 2
vt 11 0
vt 10 0
vt 10 2
vt 11 2
vt 0 0
vt -2 0
vt -2 2
vt 0 2
vt 2 10
vt 0 10
vt 6.25 2
vt 10 2
vt 10 1
vt 8 -10
vt -2 -10
vt 2 -6.25
vt -8 -10
vt -9 -6.25
vt -8 -10
vt -20 -10
vt -20 -6.25
vt -9 -0.5
vt 0 11
vt -12 11
vt 10 1
vt 10 2
vt 12 1
vt 12 2
vt -2 -12
vt 8 -12
vt -12 2
vt -12 1
vt -12 0
vt 10 -5
vt 12 -5
vt -2 -12
vt 2 -10
vt 2 -12
vt -2 -5
vt -2 1
vt -8 -5
vt -8 1
vt -2 -5
vt -8 1
vt -20 -5
vt -20 1
vt -8 -5
vt -8 2
vt -2 2
vt -10 1
vt -10 -5
vt -12 1
vt -12 -5
vt 12 1
vt 12 2
vt 10 -5
vt 12 -5
vt 8 -10
vt 20 -10
vt 8 -12
vt 20 -12
vt -20 2
vt -8.5 2
vt -8 1.5
vt -10 2
vt -11.5 2
vt -12 1.5
vt -14.14214 -0.4082483
vt -14.49569 0.2041241
vt -13.78858 0.2041241
vt -8 -11.5
vt -8.5 -12
vt -20 -12
vn 1 0 0
vn 1 0 0
vn 1 0 0
vn 1 0 0
vn -1 0 0
vn -1 0 0
vn -1 0 0
vn -1 0 0
vn -1 0 0
vn -1 0 0
vn -1 0 0
vn -1 0 0
vn 0 0 -1
vn 0 0 -1
vn 0 0 -1
vn 0 0 -1
vn 0 0 -1
vn 0 0 -1
vn 1 0 0
vn 1 0 0
vn 1 0 0
vn 1 0 0
vn 1 0 0
vn -0.03123475 0 0.9995121
vn -0.03123475 0 0.9995121
vn -0.03123475 0 0.9995121
vn -0.03123475 0 0.9995121
vn 1 0 0
vn 1 0 0
vn 1 0 0
vn 1 0 0
vn 0 0 1
vn 0 0 1
vn 0 0 1
vn 0 0 1
vn 0 1 0
vn 0 1 0
vn 0 1 0
vn -1 0 0
vn -1 0 0
vn -1 0 0
vn -1 0 0
vn 0 0 1
vn 0 0 1
vn 0 0 1
vn 0 0 1
vn 0 1 0
vn 0 1 0
vn 0 1 0
vn 0 1 0
vn -1 0 0
vn -1 0 0
vn -1 0 0
vn -1 0 0
vn 0 0 1
vn 0 0 1
vn 0 0 1
vn 0 0 1
vn 0 1 0
vn 0 1 0
vn 1 0 0
vn 1 0 0
vn 1 0 0
vn 0 1 0
vn 0 1 0
vn 0 1 0
vn 0 1 0
vn 0 1 0
vn 0 1 0
vn 0 1 0
vn 0 1 0
vn 0 1 0
vn 0 1 0
vn 0 1 0
vn 1 0 0
vn 1 0 0
vn 1 0 0
vn 1 0 0
vn 0 1 0
vn 0 1 0
vn -1 0 0
vn -1 0 0
vn -1 0 0
vn 1 0 0
vn 1 0 0
vn 0 -1 0
vn 0 -1 0
vn 0 -1 0
vn 0 0 -1
vn 0 0 -1
vn 0 0 -1
vn 0 0 -1
vn 0 0 -1
vn 0 0 -1
vn 0 0 -1
vn 0 0 -1
vn 0 0 -1
vn 0 0 -1
vn 0 0 -1
vn -1 0 0
vn -1 0 0
vn -1 0 0
vn -1 0 0
vn 1 0 0
vn 1 0 0
vn 1 0 0
vn 1 0 0
vn 0 -1 0
vn 0 -1 0
vn 0 -1 0
vn 0 -1 0
vn 0 0 -1
vn 0 0 -1
vn 0 0 -1
vn -1 0 0
vn -1 0 0
vn -1 0 0
vn -0.5773503 0.5773503 -0.5773503
vn -0.5773503 0.5773503 -0.5773503
vn -0.5773503 0.5773503 -0.5773503
vn 0 1 0
vn 0 1 0
vn 0 1 0
g pb_Mesh241310_0
f 3/3/3 2/2/2 1/1/1
f 2/2/2 4/4/4 1/1/1
g pb_Mesh241310_1
f 7/7/7 6/6/6 5/5/5
f 7/7/7 5/5/5 8/8/8
f 10/10/10 9/9/9 6/6/6
f 10/10/10 6/6/6 7/7/7
f 11/11/11 10/10/10 7/7/7
f 11/11/11 7/7/7 12/12/12
f 12/12/12 7/7/7 8/8/8
f 15/15/15 14/14/14 13/13/13
f 14/14/14 16/16/16 13/13/13
f 18/18/18 15/15/15 17/17/17
f 15/15/15 13/13/13 17/17/17
f 21/21/21 20/20/20 19/19/19
f 20/20/20 22/22/22 19/19/19
f 21/21/21 19/19/19 23/23/23
f 26/26/26 25/25/25 24/24/24
f 26/26/26 24/24/24 27/27/27
f 30/30/30 29/29/29 28/28/28
f 30/30/30 28/28/28 31/31/31
f 34/34/34 33/33/33 32/32/32
f 34/34/34 32/32/32 35/35/35
f 38/38/38 37/37/37 36/36/36
f 41/41/41 40/40/40 39/39/39
f 41/41/41 39/39/39 42/42/42
f 45/45/45 44/44/44 43/43/43
f 45/45/45 43/43/43 46/46/46
f 49/49/49 48/48/48 47/47/47
f 49/49/49 47/47/47 50/50/50
f 53/53/53 52/52/52 51/51/51
f 53/53/53 51/51/51 54/54/54
f 57/57/57 56/56/56 55/55/55
f 57/57/57 55/55/55 58/58/58
f 60/60/60 48/48/48 59/59/59
f 63/63/63 62/62/62 61/61/61
f 63/63/63 61/61/61 19/19/19
f 19/19/19 61/61/61 23/23/23
f 66/66/66 65/65/65 64/64/64
f 47/47/47 66/66/66 64/64/64
f 47/47/47 48/48/48 66/66/66
f 68/68/68 67/67/67 65/65/65
f 68/68/68 65/65/65 66/66/66
f 71/71/71 70/70/70 69/69/69
f 71/71/71 69/69/69 68/68/68
f 36/36/36 71/71/71 68/68/68
f 36/36/36 68/68/68 72/72/72
f 72/72/72 68/68/68 66/66/66
f 72/72/72 66/66/66 48/48/48
f 74/74/74 60/60/60 73/73/73
f 74/74/74 38/38/38 60/60/60
f 60/60/60 72/72/72 48/48/48
f 38/38/38 72/72/72 60/60/60
f 38/38/38 36/36/36 72/72/72
f 77/77/77 76/76/76 75/75/75
f 77/77/77 78/78/78 76/76/76
f 79/79/79 64/64/64 65/65/65
f 79/79/79 80/80/80 64/64/64
f 81/81/81 10/10/10 11/11/11
f 81/81/81 82/82/82 10/10/10
f 82/82/82 9/9/9 10/10/10
f 82/82/82 83/83/83 9/9/9
f 85/85/85 75/75/75 84/84/84
f 85/85/85 77/77/77 75/75/75
f 88/88/88 87/87/87 86/86/86
f 15/15/15 89/89/89 14/14/14
f 92/92/92 91/91/91 90/90/90
f 91/91/91 93/93/93 90/90/90
f 96/96/96 95/95/95 94/94/94
f 95/95/95 97/97/97 94/94/94
f 90/90/90 99/99/99 98/98/98
f 90/90/90 98/98/98 92/92/92
f 102/102/102 101/101/101 100/100/100
f 102/102/102 103/103/103 101/101/101
f 104/104/104 62/62/62 63/63/63
f 104/104/104 105/105/105 62/62/62
f 107/107/107 63/63/63 106/106/106
f 107/107/107 104/104/104 63/63/63
f 110/110/110 109/109/109 108/108/108
f 110/110/110 111/111/111 109/109/109
f 49/49/49 59/59/59 48/48/48
f 114/114/114 113/113/113 112/112/112
f 96/96/96 114/114/114 112/112/112
f 96/96/96 94/94/94 114/114/114
f 116/116/116 100/100/100 115/115/115
f 100/100/100 116/116/116 102/102/102
f 116/116/116 117/117/117 102/102/102
f 120/120/120 119/119/119 118/118/118
f 123/123/123 122/122/122 121/121/121
f 70/70/70 123/123/123 121/121/121
f 70/70/70 121/121/121 69/69/69
