g pb_Mesh-1493374
v 6.25 0 -0.25
v 5.5 0 -0.25
v 6.25 0.25 -0.25
v 6.25 0 -0.75
v 6.25 0.125 -0.75
v 5.5 0 -0.75
v 6.25 0 -0.75
v 6.25 0 -0.25
v 6.25 0.125 -0.75
v 6.25 0.25 -0.25
v 6.249997 0.374999 -0.2500022
v 5.499997 0.2499994 -0.2500022
v 6.249997 0.2499988 -0.750002
v 5.499997 0.2499992 -0.750002
v 6.5 -0.25 -0.75
v 5.25 -0.25 -0.75
v 6.5 -0.25 -0.25
v 5.25 -0.25 -0.25
v 6.5 -0.25 -0.75
v 5.25 -0.25 -0.75
v 6.25 0 -0.25
v 6.25 0 -0.75
v 6.5 -0.25 -0.25
v 6.5 -0.25 -0.75
v 5.5 0 -0.75
v 5.5 0 -0.25
v 5.25 -0.25 -0.75
v 5.25 -0.25 -0.25
v 5.25 -0.25 -0.25
v 6.5 -0.25 -0.25
v 6.25 0.25 -0.25
v 5.5 0 -0.25
v 6.249997 0.374999 -0.2500022
v 5.499997 0.2499994 -0.2500022
v 6.25 0.125 -0.75
v 6.25 0.25 -0.25
v 6.249997 0.2499988 -0.750002
v 6.249997 0.374999 -0.2500022
v 5.5 0 -0.25
v 5.5 0 -0.75
v 5.499997 0.2499994 -0.2500022
v 5.499997 0.2499992 -0.750002
v 5.5 0 -0.75
v 6.25 0.125 -0.75
v 5.499997 0.2499992 -0.750002
v 6.249997 0.2499988 -0.750002
vt 6.25 0
vt 5.5 0
vt 6.25 0.25
vt -6.25 0
vt -6.25 0.125
vt -5.5 0
vt 0.75 0
vt 0.25 0
vt 0.75 0.125
vt 0.25 0.25
vt -6.226609 -0.400176
vt -5.466264 -0.400176
vt -6.206059 -0.9151542
vt -5.466264 -0.8856332
vt 6.5 -0.75
vt 5.25 -0.75
vt 6.5 -0.25
vt 5.25 -0.25
vt -6.5 -0.25
vt -5.25 -0.25
vt -4.419418 -0.25
vt -4.419418 -0.75
vt -4.772971 -0.25
vt -4.772971 -0.75
vt -3.889088 -0.75
vt -3.889088 -0.25
vt -3.535534 -0.75
vt -3.535534 -0.25
vt 5.25 -0.25
vt 6.5 -0.25
vt 6.249999 0.2500044
vt 5.499999 4.351692E-06
vt 6.249995 0.3750033
vt 5.499996 0.2500038
vt 0.7499642 0.1248569
vt 0.2499642 0.2498569
vt 0.7499662 0.2498558
vt 0.2499664 0.3748559
vt -0.25 -6.294266E-05
vt -0.75 -6.294266E-05
vt -0.2500022 0.2499365
vt -0.750002 0.2499363
vt -5.499999 6.079742E-06
vt -6.249999 0.1250061
vt -5.499996 0.2500053
vt -6.249996 0.2500049
vn 0 0 1
vn 0 0 1
vn 0 0 1
vn 0 0 -1
vn 0 0 -1
vn 0 0 -1
vn 1 0 0
vn 1 0 0
vn 1 0 0
vn 1 0 0
vn -0.1596169 0.9577042 -0.2394265
vn -0.07980819 0.9788522 -0.1197134
vn -0.07980819 0.9788522 -0.1197134
vn 5.165737E-07 1 -3.57628E-07
vn 0 -1 0
vn 0 -1 0
vn 0 -1 0
vn 0 -1 0
vn 0 0 -1
vn 0 0 -1
vn 0.7071068 0.7071068 0
vn 0.7071068 0.7071068 0
vn 0.7071068 0.7071068 0
vn 0.7071068 0.7071068 0
vn -0.7071068 0.7071068 0
vn -0.7071068 0.7071068 0
vn -0.7071068 0.7071068 0
vn -0.7071068 0.7071068 0
vn 0 0 1
vn 0 0 1
vn -5.801516E-06 1.740455E-05 1
vn -3.625946E-06 1.305342E-05 1
vn -3.625946E-06 1.305342E-05 1
vn -1.450376E-06 8.702283E-06 1
vn 1 2.288831E-05 -5.722077E-06
vn 1 2.479566E-05 -5.722081E-06
vn 1 2.479566E-05 -5.722081E-06
vn 1 2.6703E-05 -5.722086E-06
vn -1 -1.144412E-05 0
vn -1 -1.144412E-05 2.04637E-12
vn -1 -1.144412E-05 2.04637E-12
vn -1 -1.144413E-05 4.09274E-12
vn 1.35104E-06 -8.106242E-06 -1
vn 7.152525E-07 -1.192101E-05 -1
vn 7.152525E-07 -1.192101E-05 -1
vn 7.946473E-08 -1.573577E-05 -1
g pb_Mesh-1493374_0
g pb_Mesh-1493374_1
f 3/3/3 2/2/2 1/1/1
f 6/6/6 5/5/5 4/4/4
f 9/9/9 8/8/8 7/7/7
f 9/9/9 10/10/10 8/8/8
f 13/13/13 12/12/12 11/11/11
f 13/13/13 14/14/14 12/12/12
f 17/17/17 16/16/16 15/15/15
f 17/17/17 18/18/18 16/16/16
f 19/19/19 6/6/6 4/4/4
f 19/19/19 20/20/20 6/6/6
f 23/23/23 22/22/22 21/21/21
f 23/23/23 24/24/24 22/22/22
f 27/27/27 26/26/26 25/25/25
f 27/27/27 28/28/28 26/26/26
f 29/29/29 1/1/1 2/2/2
f 29/29/29 30/30/30 1/1/1
f 33/33/33 32/32/32 31/31/31
f 33/33/33 34/34/34 32/32/32
f 37/37/37 36/36/36 35/35/35
f 37/37/37 38/38/38 36/36/36
f 41/41/41 40/40/40 39/39/39
f 41/41/41 42/42/42 40/40/40
f 45/45/45 44/44/44 43/43/43
f 45/45/45 46/46/46 44/44/44
