g pb_Mesh262424
v 0.5 -3.5 0.5
v 0 -3.5 0.5
v 0.5 0 0.5
v 0 0 0.5
v -0.5 -3.5 0
v -0.5 -3.5 -0.5
v -0.5 0 0
v -0.5 0 -0.5
v 0 -3.5 -0.5
v 0.5 -3.5 -0.5
v 0 0 -0.5
v 0.5 0 -0.5
v 0.5 -3.5 -0.5
v 0.5 -3.5 0
v 0.5 0 -0.5
v 0.5 0 0
v 0.5 0 0
v 0 0 0
v 0.5 0 -0.5
v 0 0 -0.5
v 0.5 -3.5 -0.5
v 0 -3.5 -0.5
v 0.5 -3.5 0
v 0 -3.5 0
v 0 -3.5 0
v 0 -3.5 -0.5
v -0.5 -3.5 0
v -0.5 -3.5 -0.5
v 0 0 0
v 0 -3.5 0
v -0.5 0 0
v -0.5 -3.5 0
v 0 -3.5 -0.5
v 0 0 -0.5
v -0.5 -3.5 -0.5
v -0.5 0 -0.5
v 0 0 -0.5
v 0 0 0
v -0.5 0 -0.5
v -0.5 0 0
v 0.5 -3.5 0
v 0.5 -3.5 0.5
v 0 -3.5 0.5
v 0.5 0 0
v 0.5 -3.5 0
v 0.5 0 0.5
v 0.5 -3.5 0.5
v 0 -3.5 0
v 0 0 0
v 0 -3.5 0.5
v 0 0 0.5
v 0.5 0 0
v 0 0 0.5
v 0.5 0 0.5
vt 0 0
vt -1 0
vt 0 4
vt -1 4
vt 0 0
vt -1 0
vt 0 4
vt -1 4
vt 1 0
vt 0 0
vt 1 4
vt 0 4
vt 1 0
vt 0 0
vt 1 4
vt 0 4
vt 0 0
vt 1 0
vt 0 -1
vt 1 -1
vt 0 -1
vt -1 -1
vt 0 0
vt -1 0
vt 0 0
vt 0 -0.5
vt -0.5 0
vt -0.5 -0.5
vt 0 0
vt 0 -3.5
vt -0.5 0
vt -0.5 -3.5
vt 0 -3.5
vt 0 0
vt 0.5 -3.5
vt 0.5 0
vt 0 -0.5
vt 0 0
vt 0.5 -0.5
vt 0.5 0
vt 0.5 0
vt 0.5 0.5
vt 0 0.5
vt 0 0
vt 0 -3.5
vt -0.5 0
vt -0.5 -3.5
vt 0 -3.5
vt 0 0
vt 0.5 -3.5
vt 0.5 0
vt -0.5 0
vt 0 0.5
vt -0.5 0.5
vn 0 0 1
vn 0 0 1
vn 0 0 1
vn 0 0 1
vn -1 0 0
vn -1 0 0
vn -1 0 0
vn -1 0 0
vn 0 0 -1
vn 0 0 -1
vn 0 0 -1
vn 0 0 -1
vn 1 0 0
vn 1 0 0
vn 1 0 0
vn 1 0 0
vn 0 1 0
vn 0 1 0
vn 0 1 0
vn 0 1 0
vn 0 -1 0
vn 0 -1 0
vn 0 -1 0
vn 0 -1 0
vn 0 -1 0
vn 0 -1 0
vn 0 -1 0
vn 0 -1 0
vn 0 0 1
vn 0 0 1
vn 0 0 1
vn 0 0 1
vn 0 0 -1
vn 0 0 -1
vn 0 0 -1
vn 0 0 -1
vn 0 1 0
vn 0 1 0
vn 0 1 0
vn 0 1 0
vn 0 -1 0
vn 0 -1 0
vn 0 -1 0
vn 1 0 0
vn 1 0 0
vn 1 0 0
vn 1 0 0
vn -1 0 0
vn -1 0 0
vn -1 0 0
vn -1 0 0
vn 0 1 0
vn 0 1 0
vn 0 1 0
g pb_Mesh262424_0
f 3/3/3 2/2/2 1/1/1
f 3/3/3 4/4/4 2/2/2
f 7/7/7 6/6/6 5/5/5
f 7/7/7 8/8/8 6/6/6
f 11/11/11 10/10/10 9/9/9
f 11/11/11 12/12/12 10/10/10
f 15/15/15 14/14/14 13/13/13
f 15/15/15 16/16/16 14/14/14
f 19/19/19 18/18/18 17/17/17
f 19/19/19 20/20/20 18/18/18
f 23/23/23 22/22/22 21/21/21
f 23/23/23 24/24/24 22/22/22
f 27/27/27 26/26/26 25/25/25
f 27/27/27 28/28/28 26/26/26
f 31/31/31 30/30/30 29/29/29
f 31/31/31 32/32/32 30/30/30
f 35/35/35 34/34/34 33/33/33
f 35/35/35 36/36/36 34/34/34
f 39/39/39 38/38/38 37/37/37
f 39/39/39 40/40/40 38/38/38
f 42/42/42 25/25/25 41/41/41
f 42/42/42 43/43/43 25/25/25
f 46/46/46 45/45/45 44/44/44
f 46/46/46 47/47/47 45/45/45
f 50/50/50 49/49/49 48/48/48
f 50/50/50 51/51/51 49/49/49
f 53/53/53 52/52/52 38/38/38
f 53/53/53 54/54/54 52/52/52
