g pb_Mesh557204
v 0 -136.75 -7
v -4 -136.75 -3
v -4 32 -3
v 0 32 -7
v -4 -136.75 -3
v -8 -136.75 -3
v -8 32 -3
v -4 32 -3
v 0 -136.75 -12
v 0 32 -12
v -4 32 -16
v -4 -136.75 -16
v -4 32 -16
v -8 32 -16
v -8 -136.75 -16
v -4 -136.75 -16
v -8 -136.75 -3
v -10 -136.75 -3
v -10 32 -3
v -8 32 -3
v -10 -136.75 -3
v -14 -136.75 -3
v -14 32 -3
v -10 32 -3
v -8 -136.75 -16
v -8 32 -16
v -10 32 -16
v -10 -136.75 -16
v -10 32 -16
v -14 32 -12
v -14 -136.75 -12
v -10 -136.75 -16
v -14 -136.75 -3
v -14 -136.75 -7
v -14 32 -7
v -14 32 -3
v -4 32 -7
v -4 32 -3
v -8 32 -3
v -8 32 -7
v 0 32 -7
v -4 32 -3
v -4 32 -7
v -14 32 -7
v -10 32 -7
v -14 32 -3
v -10 32 -7
v -10 32 -3
v -14 32 -3
v -8 32 -7
v -8 32 -3
v -10 32 -3
v -10 32 -7
v -14 -136.75 -7
v -14 -136.75 -12
v -14 32 -12
v -14 32 -7
v 0 -136.75 -7
v 0 32 -7
v 0 32 -12
v 0 -136.75 -12
v -8 32 -16
v -4 32 -16
v -4 32 -12
v -8 32 -12
v -4 32 -12
v -4 32 -7
v -8 32 -7
v -8 32 -12
v -4 32 -16
v 0 32 -12
v -4 32 -12
v 0 32 -12
v 0 32 -7
v -4 32 -7
v -4 32 -12
v -14 32 -12
v -10 32 -16
v -10 32 -12
v -10 32 -12
v -10 32 -7
v -14 32 -7
v -14 32 -12
v -10 32 -16
v -8 32 -16
v -8 32 -12
v -10 32 -12
v -8 32 -12
v -8 32 -7
v -10 32 -7
v -10 32 -12
vt 4.949748 -136.75
vt -0.7071068 -136.75
vt -0.7071068 32
vt 4.949748 32
vt -4 -136.75
vt -8 -136.75
vt -8 32
vt -4 32
vt 8.485281 -136.75
vt 8.485281 32
vt 14.14214 32
vt 14.14214 -136.75
vt 4 32
vt 8 32
vt 8 -136.75
vt 4 -136.75
vt -8 -136.75
vt -10 -136.75
vt -10 32
vt -8 32
vt -10 -136.75
vt -14 -136.75
vt -14 32
vt -10 32
vt 8 -136.75
vt 8 32
vt 10 32
vt 10 -136.75
vt -4.24264 32
vt 1.414214 32
vt 1.414214 -136.75
vt -4.24264 -136.75
vt -3 -136.75
vt -7 -136.75
vt -7 32
vt -3 32
vt 4 -7
vt 4 -3
vt 8 -3
vt 8 -7
vt 0 -7
vt 4 -3
vt 4 -7
vt 14 -7
vt 10 -7
vt 14 -3
vt 10 -7
vt 10 -3
vt 14 -3
vt 8 -7
vt 8 -3
vt 10 -3
vt 10 -7
vt -7 -136.75
vt -12 -136.75
vt -12 32
vt -7 32
vt 7 -136.75
vt 7 32
vt 12 32
vt 12 -136.75
vt 8 -16
vt 4 -16
vt 4 -12
vt 8 -12
vt 4 -12
vt 4 -7
vt 8 -7
vt 8 -12
vt 4 -16
vt 0 -12
vt 4 -12
vt 0 -12
vt 0 -7
vt 4 -7
vt 4 -12
vt 14 -12
vt 10 -16
vt 10 -12
vt 10 -12
vt 10 -7
vt 14 -7
vt 14 -12
vt 10 -16
vt 8 -16
vt 8 -12
vt 10 -12
vt 8 -12
vt 8 -7
vt 10 -7
vt 10 -12
vn 0.7071068 0 0.7071068
vn 0.7071068 0 0.7071068
vn 0.7071068 0 0.7071068
vn 0.7071068 0 0.7071068
vn 0 0 1
vn 0 0 1
vn 0 0 1
vn 0 0 1
vn 0.7071068 0 -0.7071068
vn 0.7071068 0 -0.7071068
vn 0.7071068 0 -0.7071068
vn 0.7071068 0 -0.7071068
vn 0 0 -1
vn 0 0 -1
vn 0 0 -1
vn 0 0 -1
vn 0 0 1
vn 0 0 1
vn 0 0 1
vn 0 0 1
vn 0 0 1
vn 0 0 1
vn 0 0 1
vn 0 0 1
vn 0 0 -1
vn 0 0 -1
vn 0 0 -1
vn 0 0 -1
vn -0.7071068 0 -0.7071068
vn -0.7071068 0 -0.7071068
vn -0.7071068 0 -0.7071068
vn -0.7071068 0 -0.7071068
vn -1 0 0
vn -1 0 0
vn -1 0 0
vn -1 0 0
vn 0 1 0
vn 0 1 0
vn 0 1 0
vn 0 1 0
vn 0 1 0
vn 0 1 0
vn 0 1 0
vn 0 1 0
vn 0 1 0
vn 0 1 0
vn 0 1 0
vn 0 1 0
vn 0 1 0
vn 0 1 0
vn 0 1 0
vn 0 1 0
vn 0 1 0
vn -1 0 0
vn -1 0 0
vn -1 0 0
vn -1 0 0
vn 1 0 0
vn 1 0 0
vn 1 0 0
vn 1 0 0
vn 0 1 0
vn 0 1 0
vn 0 1 0
vn 0 1 0
vn 0 1 0
vn 0 1 0
vn 0 1 0
vn 0 1 0
vn 0 1 0
vn 0 1 0
vn 0 1 0
vn 0 1 0
vn 0 1 0
vn 0 1 0
vn 0 1 0
vn 0 1 0
vn 0 1 0
vn 0 1 0
vn 0 1 0
vn 0 1 0
vn 0 1 0
vn 0 1 0
vn 0 1 0
vn 0 1 0
vn 0 1 0
vn 0 1 0
vn 0 1 0
vn 0 1 0
vn 0 1 0
vn 0 1 0
g pb_Mesh557204_0
g pb_Mesh557204_1
f 3/3/3 2/2/2 1/1/1
f 3/3/3 1/1/1 4/4/4
f 7/7/7 6/6/6 5/5/5
f 7/7/7 5/5/5 8/8/8
f 10/10/10 9/9/9 11/11/11
f 9/9/9 12/12/12 11/11/11
f 13/13/13 16/16/16 14/14/14
f 16/16/16 15/15/15 14/14/14
f 19/19/19 18/18/18 17/17/17
f 19/19/19 17/17/17 20/20/20
f 23/23/23 22/22/22 21/21/21
f 23/23/23 21/21/21 24/24/24
f 26/26/26 25/25/25 27/27/27
f 25/25/25 28/28/28 27/27/27
f 29/29/29 32/32/32 30/30/30
f 32/32/32 31/31/31 30/30/30
f 35/35/35 34/34/34 33/33/33
f 35/35/35 33/33/33 36/36/36
f 38/38/38 37/37/37 40/40/40
f 38/38/38 40/40/40 39/39/39
f 41/41/41 43/43/43 42/42/42
f 45/45/45 44/44/44 46/46/46
f 48/48/48 47/47/47 49/49/49
f 51/51/51 50/50/50 53/53/53
f 51/51/51 53/53/53 52/52/52
f 56/56/56 55/55/55 54/54/54
f 56/56/56 54/54/54 57/57/57
f 59/59/59 58/58/58 60/60/60
f 58/58/58 61/61/61 60/60/60
f 64/64/64 63/63/63 62/62/62
f 64/64/64 62/62/62 65/65/65
f 67/67/67 66/66/66 69/69/69
f 67/67/67 69/69/69 68/68/68
f 71/71/71 70/70/70 72/72/72
f 74/74/74 73/73/73 76/76/76
f 74/74/74 76/76/76 75/75/75
f 79/79/79 78/78/78 77/77/77
f 81/81/81 80/80/80 83/83/83
f 81/81/81 83/83/83 82/82/82
f 86/86/86 85/85/85 84/84/84
f 86/86/86 84/84/84 87/87/87
f 89/89/89 88/88/88 91/91/91
f 89/89/89 91/91/91 90/90/90
