g pb_Mesh322950
v -39 23.75 -7.75
v -39 -0.25 -25.25
v -39 -0.25 -7.75
v -39 23.75 -25.25
v -39 -0.25 -7.75
v -32 -0.25 -25.25
v -32 -0.25 -7.75
v -39 -0.25 -25.25
v -32 23.75 -7.75
v -39 -0.25 -7.75
v -32 -0.25 -7.75
v -39 23.75 -7.75
v -32 23.75 -25.25
v -39 23.75 -7.75
v -32 23.75 -7.75
v -39 23.75 -25.25
v -39 23.75 -25.25
v -32 -0.25 -25.25
v -39 -0.25 -25.25
v -32 23.75 -25.25
vt 7.75 23.75
vt 25.25 -0.25
vt 7.75 -0.25
vt 25.25 23.75
vt 39 -7.75
vt 32 -25.25
vt 32 -7.75
vt 39 -25.25
vt 32 23.75
vt 39 -0.25
vt 32 -0.25
vt 39 23.75
vt -32 -25.25
vt -39 -7.75
vt -32 -7.75
vt -39 -25.25
vt -39 23.75
vt -32 -0.25
vt -39 -0.25
vt -32 23.75
vn 1 0 0
vn 1 0 0
vn 1 0 0
vn 1 0 0
vn 0 1 0
vn 0 1 0
vn 0 1 0
vn 0 1 0
vn 0 0 -1
vn 0 0 -1
vn 0 0 -1
vn 0 0 -1
vn 0 -1 0
vn 0 -1 0
vn 0 -1 0
vn 0 -1 0
vn 0 0 1
vn 0 0 1
vn 0 0 1
vn 0 0 1
g pb_Mesh322950_0
g pb_Mesh322950_1
f 3/3/3 2/2/2 1/1/1
f 2/2/2 4/4/4 1/1/1
g pb_Mesh322950_2
g pb_Mesh322950_3
f 7/7/7 6/6/6 5/5/5
f 6/6/6 8/8/8 5/5/5
f 11/11/11 10/10/10 9/9/9
f 10/10/10 12/12/12 9/9/9
f 15/15/15 14/14/14 13/13/13
f 14/14/14 16/16/16 13/13/13
f 19/19/19 18/18/18 17/17/17
f 18/18/18 20/20/20 17/17/17
