g pb_Mesh301068
v 0 3.25 0
v -4 3.25 0
v 0 4 0
v -4 4 0
v -4 3.25 0
v -4 3.25 -4
v -4 4 0
v -4 4 -4
v -4 3.25 -4
v 0 3.25 -4
v -4 4 -4
v 0 4 -4
v 0 3.25 -4
v 0 3.25 0
v 0 4 -4
v 0 4 0
v 0 4 0
v -4 4 0
v 0 4 -4
v -4 4 -4
v 0.5599976 -9.155273E-05 -4.560001
v -4.559998 -9.155273E-05 -4.560001
v 0.5599976 -9.155273E-05 0.5600014
v -4.559998 -9.155273E-05 0.5600014
v 0 3.25 -4
v -4 3.25 -4
v 0.5599976 2.75 -4.560001
v -4.559998 2.75 -4.560001
v 0 3.25 0
v 0 3.25 -4
v 0.5599976 2.75 0.5600014
v 0.5599976 2.75 -4.560001
v -4 3.25 -4
v -4 3.25 0
v -4.559998 2.75 -4.560001
v -4.559998 2.75 0.5600014
v -4 3.25 0
v 0 3.25 0
v -4.559998 2.75 0.5600014
v 0.5599976 2.75 0.5600014
v 0.5599976 2.75 -4.560001
v -4.559998 2.75 -4.560001
v 0.5599976 -9.155273E-05 -4.560001
v -4.559998 -9.155273E-05 -4.560001
v 0.5599976 2.75 0.5600014
v 0.5599976 2.75 -4.560001
v 0.5599976 -9.155273E-05 0.5600014
v 0.5599976 -9.155273E-05 -4.560001
v -4.559998 2.75 -4.560001
v -4.559998 2.75 0.5600014
v -4.559998 -9.155273E-05 -4.560001
v -4.559998 -9.155273E-05 0.5600014
v -4.559998 2.75 0.5600014
v 0.5599976 2.75 0.5600014
v -4.559998 -9.155273E-05 0.5600014
v 0.5599976 -9.155273E-05 0.5600014
vt 0 3.25
vt -4 3.25
vt 0 4
vt -4 4
vt 0 3.25
vt -4 3.25
vt 0 4
vt -4 4
vt 4 3.25
vt 0 3.25
vt 4 4
vt 0 4
vt 4 3.25
vt 0 3.25
vt 4 4
vt 0 4
vt 0 0
vt 4 0
vt 0 -4
vt 4 -4
vt 0.5599976 -4.560001
vt -4.559998 -4.560001
vt 0.5599976 0.5600014
vt -4.559998 0.5600014
vt 0 -0.8192055
vt 4 -0.8192055
vt -0.5599976 -1.569939
vt 4.559998 -1.569939
vt 2.164557 0
vt 2.164557 -4
vt 1.413825 0.5600014
vt 1.413825 -4.560001
vt 0.8191885 -4
vt 0.8191885 0
vt 1.56992 -4.560001
vt 1.56992 0.5600014
vt 4 -2.164548
vt 0 -2.164548
vt 4.559998 -1.413814
vt -0.5599976 -1.413814
vt -0.5599976 2.75
vt 4.559998 2.75
vt -0.5599976 -9.155273E-05
vt 4.559998 -9.155273E-05
vt -0.5600014 2.75
vt 4.560001 2.75
vt -0.5600014 -9.155273E-05
vt 4.560001 -9.155273E-05
vt -4.560001 2.75
vt 0.5600014 2.75
vt -4.560001 -9.155273E-05
vt 0.5600014 -9.155273E-05
vt -4.559998 2.75
vt 0.5599976 2.75
vt -4.559998 -9.155273E-05
vt 0.5599976 -9.155273E-05
vn 0 0 1
vn 0 0 1
vn 0 0 1
vn 0 0 1
vn -1 0 0
vn -1 0 0
vn -1 0 0
vn -1 0 0
vn 0 0 -1
vn 0 0 -1
vn 0 0 -1
vn 0 0 -1
vn 1 0 0
vn 1 0 0
vn 1 0 0
vn 1 0 0
vn 0 1 0
vn 0 1 0
vn 0 1 0
vn 0 1 0
vn 0 -1 0
vn 0 -1 0
vn 0 -1 0
vn 0 -1 0
vn 0 0.7459385 -0.6660149
vn 0 0.7459385 -0.6660149
vn 0 0.7459385 -0.6660149
vn 0 0.7459385 -0.6660149
vn 0.6660174 0.7459362 0
vn 0.6660174 0.7459362 0
vn 0.6660174 0.7459362 0
vn 0.6660174 0.7459362 0
vn -0.6660174 0.7459362 0
vn -0.6660174 0.7459362 0
vn -0.6660174 0.7459362 0
vn -0.6660174 0.7459362 0
vn 0 0.7459385 0.6660149
vn 0 0.7459385 0.6660149
vn 0 0.7459385 0.6660149
vn 0 0.7459385 0.6660149
vn 0 0 -1
vn 0 0 -1
vn 0 0 -1
vn 0 0 -1
vn 1 0 0
vn 1 0 0
vn 1 0 0
vn 1 0 0
vn -1 0 0
vn -1 0 0
vn -1 0 0
vn -1 0 0
vn 0 0 1
vn 0 0 1
vn 0 0 1
vn 0 0 1
g pb_Mesh301068_0
f 3/3/3 2/2/2 1/1/1
f 3/3/3 4/4/4 2/2/2
f 7/7/7 6/6/6 5/5/5
f 7/7/7 8/8/8 6/6/6
f 11/11/11 10/10/10 9/9/9
f 11/11/11 12/12/12 10/10/10
f 15/15/15 14/14/14 13/13/13
f 15/15/15 16/16/16 14/14/14
f 19/19/19 18/18/18 17/17/17
f 19/19/19 20/20/20 18/18/18
f 23/23/23 22/22/22 21/21/21
f 23/23/23 24/24/24 22/22/22
f 27/27/27 26/26/26 25/25/25
f 27/27/27 28/28/28 26/26/26
f 31/31/31 30/30/30 29/29/29
f 31/31/31 32/32/32 30/30/30
f 35/35/35 34/34/34 33/33/33
f 35/35/35 36/36/36 34/34/34
f 39/39/39 38/38/38 37/37/37
f 39/39/39 40/40/40 38/38/38
f 43/43/43 42/42/42 41/41/41
f 43/43/43 44/44/44 42/42/42
f 47/47/47 46/46/46 45/45/45
f 47/47/47 48/48/48 46/46/46
f 51/51/51 50/50/50 49/49/49
f 51/51/51 52/52/52 50/50/50
f 55/55/55 54/54/54 53/53/53
f 55/55/55 56/56/56 54/54/54
