g pb_Mesh170414
v -11.26408 5.000006 5.705981
v -11.33529 9.399813 5.685977
v -11.55737 -0.7315063 5.623589
v -13.4057 5.000006 5.104345
v -13.03579 12.30916 5.208263
v -13.4057 5.000006 5.104345
v -14.64321 8.490358 4.846506
v -13.03579 12.30916 5.208263
v -14.64321 15.47107 4.846506
v -14.64321 8.490358 4.846506
v -15.75548 11.98071 4.846506
v -13.4057 5.000006 5.104345
v -12.96155 -2.616776 5.229118
v -14.64321 1.509655 4.846506
v -13.4057 5.000006 5.104345
v -14.64321 8.490358 4.846506
v -14.64321 1.509655 4.846506
v -15.25259 5.000006 4.846506
v -14.64321 8.490358 4.846506
v -15.75548 11.98071 4.846506
v -15.25259 5.000006 4.846506
v -16.62502 8.490366 4.947036
v -12.96155 -2.616776 5.229118
v -14.64321 1.509655 4.846506
v -14.64321 -5.471061 4.846506
v -15.94784 -2.145563 4.846506
v -14.64321 1.509655 4.846506
v -15.25259 5.000006 4.846506
v -15.94784 -2.145563 4.846506
v -16.40121 1.514729 4.889734
v -15.25259 5.000006 4.846506
v -16.62502 8.490366 4.947036
v -16.40121 1.514729 4.889734
v -19.11825 5.089056 5.585403
vt 9.301097 5.000007
vt 9.375066 9.399814
vt 9.60574 -0.7315054
vt 11.52562 5.000007
vt 11.14137 12.30916
vt 11.5256 5.000006
vt 12.78673 8.490359
vt 11.57416 12.30916
vt 13.22178 15.47107
vt 13.22178 8.490358
vt 14.30691 11.98071
vt 11.5256 5.000007
vt 11.06425 -2.616775
vt 12.78672 1.509656
vt 12.08272 5.000006
vt 13.34681 8.490358
vt 13.34681 1.509655
vt 13.94338 5.000006
vt 14.64321 8.490358
vt 15.75548 11.98071
vt 15.25259 5.000006
vt 16.62502 8.490366
vt 11.47848 -2.616776
vt 13.20312 1.509655
vt 13.20312 -5.471061
vt 14.47523 -2.145563
vt 14.64321 1.509655
vt 15.25259 5.000006
vt 15.94784 -2.145563
vt 16.40121 1.514729
vt 15.50372 5.025216
vt 16.87964 8.515647
vt 16.65294 1.539868
vt 19.40516 5.117565
vn 0.2704534 1.140268E-07 -0.9627331
vn 0.2704548 8.264083E-08 -0.9627327
vn 0.2704548 8.264083E-08 -0.9627327
vn 0.2704561 5.125482E-08 -0.9627323
vn 0.2414548 0.001570418 -0.9699492
vn 0.2414548 0.001570418 -0.9699492
vn 0.2124536 0.003140755 -0.9771661
vn 0.2195624 0 -0.9755985
vn 0.1097812 0 -0.9877992
vn 0.1097812 0 -0.9877992
vn 0 0 -1
vn 0.2420072 -0.001775058 -0.9698281
vn 0.2420072 -0.001775058 -0.9698281
vn 0.2135581 -0.003550232 -0.9769239
vn 0.2039725 0 -0.9789767
vn 0.1019862 0 -0.9894884
vn 0.1019862 0 -0.9894884
vn 0 0 -1
vn 0 0 -1
vn -0.04465997 -0.003217263 -0.9979911
vn -0.04465997 -0.003217263 -0.9979911
vn -0.08931994 -0.006434527 -0.9959822
vn 0.2218502 0 -0.9750808
vn 0.1109251 0 -0.9875404
vn 0.1109251 0 -0.9875404
vn 0 0 -1
vn 0 0 -1
vn -0.02666175 0.002594114 -0.9992819
vn -0.02666175 0.002594114 -0.9992819
vn -0.05332351 0.005188228 -0.9985638
vn -0.05691672 0.006374968 -0.9983585
vn -0.1524778 0.003187455 -0.9835544
vn -0.1524778 0.003187455 -0.9835544
vn -0.2480388 -5.727714E-08 -0.9687501
g pb_Mesh170414_0
f 3/3/3 2/2/2 1/1/1
f 3/3/3 4/4/4 2/2/2
f 6/6/6 5/5/5 2/2/2
f 6/6/6 7/7/7 5/5/5
f 10/10/10 9/9/9 8/8/8
f 10/10/10 11/11/11 9/9/9
f 13/13/13 12/12/12 3/3/3
f 13/13/13 14/14/14 12/12/12
f 17/17/17 16/16/16 15/15/15
f 17/17/17 18/18/18 16/16/16
f 21/21/21 20/20/20 19/19/19
f 21/21/21 22/22/22 20/20/20
f 25/25/25 24/24/24 23/23/23
f 25/25/25 26/26/26 24/24/24
f 29/29/29 28/28/28 27/27/27
f 29/29/29 30/30/30 28/28/28
f 33/33/33 32/32/32 31/31/31
f 33/33/33 34/34/34 32/32/32
