g pb_Mesh177848
v -1 0 8
v -7 0 8
v -2 0.5 7
v -6 0.5 7
v -7 0 8
v -7 0 -8.5
v -6 0.5 7
v -6 0.5 -8.5
v -7 0 -8.5
v -1 0 -8.5
v -6 0.5 -8.5
v -2 0.5 -8.5
v -1 0 -8.5
v -1 0 8
v -2 0.5 -8.5
v -2 0.5 7
v -2 0.5 7
v -6 0.5 7
v -2 0.5 -8.5
v -6 0.5 -8.5
v -1 0 -8.5
v -7 0 -8.5
v -1 0 8
v -7 0 8
vt 1 7.155417
vt 7 7.155417
vt 2 6.037384
vt 6 6.037384
vt 6.26099 8
vt 6.26099 -8.5
vt 5.142956 7
vt 5.142956 -8.5
vt 7 0
vt 1 0
vt 6 0.5
vt 2 0.5
vt 0.8944272 -8.5
vt 0.8944272 8
vt 2.012461 -8.5
vt 2.012461 7
vt 2 7
vt 6 7
vt 2 -8.5
vt 6 -8.5
vt -1 -8.5
vt -7 -8.5
vt -1 8
vt -7 8
vn 0 0.8944272 0.4472136
vn 0 0.8944272 0.4472136
vn 0 0.8944272 0.4472136
vn 0 0.8944272 0.4472136
vn -0.4472136 0.8944272 0
vn -0.4472136 0.8944272 0
vn -0.4472136 0.8944272 0
vn -0.4472136 0.8944272 0
vn 0 0 -1
vn 0 0 -1
vn 0 0 -1
vn 0 0 -1
vn 0.4472136 0.8944272 0
vn 0.4472136 0.8944272 0
vn 0.4472136 0.8944272 0
vn 0.4472136 0.8944272 0
vn 0 1 0
vn 0 1 0
vn 0 1 0
vn 0 1 0
vn 0 -1 0
vn 0 -1 0
vn 0 -1 0
vn 0 -1 0
g pb_Mesh177848_0
f 3/3/3 2/2/2 1/1/1
f 3/3/3 4/4/4 2/2/2
f 7/7/7 6/6/6 5/5/5
f 7/7/7 8/8/8 6/6/6
f 11/11/11 10/10/10 9/9/9
f 11/11/11 12/12/12 10/10/10
f 15/15/15 14/14/14 13/13/13
f 15/15/15 16/16/16 14/14/14
f 19/19/19 18/18/18 17/17/17
f 19/19/19 20/20/20 18/18/18
f 23/23/23 22/22/22 21/21/21
f 23/23/23 24/24/24 22/22/22
