g pb_Mesh433864
v 1 0 0
v 1 0 2
v 0 0 0
v 0 0 2
v 1 0 2
v 0 0 2
v 1 0 3
v 0 0 3
v 1 0 2
v 1 0 3
v 2 0 2
v 2 0 3
v 2 0 2
v 2 0 3
v 3 0 2
v 3 0 3
v 3 0 3
v 2 0 3
v 3 0 4
v 2 0 4
v 3 0 4
v 2 0 4
v 3 0 5
v 2 0 5
v 2 0 5
v 2 0 4
v 1 0 5
v 1 0 4
v 1 0 5
v 1 0 4
v 0 0 5
v 0 0 4
v 1 0 5
v 0 0 5
v 1 0.0001001358 6
v 0 0.0001001358 6
v 1 0.0001001358 6
v 0 0.0001001358 6
v 1 0.0002002716 7
v 0 0.0002002716 7
v 1 0.0001001358 6
v 1 0.0002002716 7
v 4 0.0002002716 6
v 4 0.0003004074 7
v 4 0.0002002716 6
v 4 0.0003004074 7
v 5 0.0003004074 6
v 5 0.0004005432 7
v 5 0.0004005432 7
v 4 0.0003004074 7
v 5 0.000500679 8
v 4 0.0004005432 8
v 5 0.000500679 8
v 4 0.0004005432 8
v 5 0.0006008148 9
v 4 0.000500679 9
v 4 0.000500679 9
v 4 0.0004005432 8
v 1 0.0006008148 9
v 1 0.000500679 8
v 1 0.0006008148 9
v 1 0.000500679 8
v 0 0.0007009506 9
v 0 0.0006008148 8
v 1 0.0006008148 9
v 0 0.0007009506 9
v 1 0.0007009506 12
v 0 0.0008010864 12
v 1 0.0007009506 12
v 0 0.0008010864 12
v 1 0.0008010864 13
v 0 0.0009012222 13
v 1 0.0007009506 12
v 1 0.0008010864 13
v 2 0.0008010864 12
v 2 0.0009012222 13
v 2 0.0008010864 12
v 2 0.0009012222 13
v 3 0.0009012222 12
v 3 0.001001358 13
v 2 0.0008010864 12
v 3 0.0009012222 12
v 2 0.0009012222 11
v 3 0.001001358 11
v 2 0.0009012222 11
v 3 0.001001358 11
v 2 0.001001358 10
v 3 0.001101494 10
v 3 0.001101494 10
v 3 0.001001358 11
v 4 0.00120163 10
v 4 0.001101494 11
v 4 0.00120163 10
v 4 0.001101494 11
v 5 0.001301765 10
v 5 0.00120163 11
v 5 0.00120163 11
v 4 0.001101494 11
v 5 0.001301765 11
v 4 0.00120163 11
v 5 0.001301765 11
v 4 0.00120163 11
v 5 0.001401901 16
v 4 0.001301765 16
v 5 0.001401901 16
v 4 0.001301765 16
v 5 0.001502037 17
v 4 0.001401901 17
v 4 0.001401901 17
v 4 0.001301765 16
v 3 0.001502037 17
v 3 0.001401901 16
v 3 0.001502037 17
v 3 0.001401901 16
v 2 0.001602173 17
v 2 0.001502037 16
v 2 0.001502037 16
v 3 0.001401901 16
v 2 0.001602173 15
v 3 0.001502037 15
v 2 0.001602173 15
v 3 0.001502037 15
v 2 0.001702309 14
v 3 0.001602173 14
v 2 0.001602173 15
v 2 0.001702309 14
v 1 0.001702309 15
v 1 0.001802444 14
v 1 0.001702309 15
v 1 0.001802444 14
v 0 0.001802444 15
v 0 0.00190258 14
v 1 0.001702309 15
v 0 0.001802444 15
v 1 0.001802444 17
v 0 0.00190258 17
v 0.9999847 0 26.99999
v 1 0 24.99999
v -1.525879E-05 0 26.99999
v 0 0 24.99999
v 1 0 24.99999
v 0 0 24.99999
v 1 0 23.99999
v 0 0 23.99999
v 1 0 24.99999
v 1 0 23.99999
v 2 0 25
v 2 0 24
v 2 0 25
v 2 0 24
v 3 0 25
v 3 0 24
v 3 0 24
v 2 0 24
v 3 0 23
v 2 0 23
v 3 0 23
v 2 0 23
v 3 0 22
v 2 0 22
v 2 0 22
v 2 0 23
v 1 0 21.99999
v 1 0 22.99999
v 1 0 21.99999
v 1 0 22.99999
v 0 0 21.99999
v 0 0 22.99999
v 1 0 21.99999
v 0 0 21.99999
v 1.000015 0.0001001358 20.99999
v 1.525879E-05 0.0001001358 20.99999
v 1.000015 0.0001001358 20.99999
v 1.525879E-05 0.0001001358 20.99999
v 1.000015 0.0002002716 19.99999
v 1.525879E-05 0.0002002716 19.99999
v 1.000015 0.0001001358 20.99999
v 1.000015 0.0002002716 19.99999
v 4.000015 0.0002002716 21
v 4.000015 0.0003004074 20
v 4.000015 0.0002002716 21
v 4.000015 0.0003004074 20
v 5.000015 0.0003004074 21.00001
v 5.000015 0.0004005432 20.00001
v 5.000015 0.0004005432 20.00001
v 4.000015 0.0003004074 20
v 5.000015 0.000500679 19.00001
v 4.000015 0.0004005432 19
v 5.000015 0.000500679 19.00001
v 4.000015 0.0004005432 19
v 5.000015 0.0006008148 18.00001
v 4.000015 0.000500679 18
v 4.000015 0.000500679 18
v 4.000015 0.0004005432 19
v 1.000015 0.0006008148 17.99999
v 1.000015 0.000500679 18.99999
v 1.000015 0.0006008148 17.99999
v 1.000015 0.000500679 18.99999
v 1.525879E-05 0.0007009506 17.99999
v 1.525879E-05 0.0006008148 18.99999
v 1.000015 0.0006008148 17.99999
v 1.525879E-05 0.0007009506 17.99999
v 1.000031 0.0007009506 17
v 3.051758E-05 0.0008010864 17
vt -1 0
vt -1 2
vt 0 0
vt 0 2
vt -1 2
vt 0 2
vt -1 3
vt 0 3
vt -1 2
vt -1 3
vt -2 2
vt -2 3
vt -2 2
vt -2 3
vt -3 2
vt -3 3
vt -3 3
vt -2 3
vt -3 4
vt -2 4
vt -3 4
vt -2 4
vt -3 5
vt -2 5
vt -2 5
vt -2 4
vt -1 5
vt -1 4
vt -1 5
vt -1 4
vt 0 5
vt 0 4
vt -1 5
vt 0 5
vt -1 6
vt 0 6
vt -1 6
vt 0 6
vt -1 7
vt 0 7
vt -1 6
vt -1 7
vt -4 6
vt -4 7
vt -4 6
vt -4 7
vt -5 6
vt -5 7
vt -5 7
vt -4 7
vt -5 8
vt -4 8
vt -5 8
vt -4 8
vt -5 9
vt -4 9
vt -4 9
vt -4 8
vt -1 9
vt -1 8
vt -0.9999999 9
vt -0.9999999 8
vt 7.019025E-08 9
vt 6.016307E-08 8
vt -0.9999999 9
vt 7.019025E-08 9
vt -0.9999999 12
vt 8.021743E-08 12
vt -0.9999999 12
vt 8.021743E-08 12
vt -0.9999999 13
vt 9.024461E-08 13
vt -1 12
vt -1 13
vt -2 12
vt -2 13
vt -2 12
vt -2 13
vt -3 12
vt -3 13
vt -2 12
vt -3 12
vt -2 11
vt -3 11
vt -2 11
vt -3 11
vt -2 10
vt -3 10
vt -3 10
vt -3 11
vt -4 10
vt -4 11
vt -4 10
vt -4 11
vt -5 10
vt -5 11
vt -5 0.00120163
vt -4 0.001101494
vt -5 0.001301765
vt -4 0.00120163
vt -5 11
vt -4 11
vt -5 16
vt -4 16
vt -5 16
vt -4 16
vt -5 17
vt -4 17
vt -4 17
vt -4 16
vt -3 17
vt -3 16
vt -3 17
vt -3 16
vt -2 17
vt -2 16
vt -2 16
vt -3 16
vt -2 15
vt -3 15
vt -2 15
vt -3 15
vt -2 14
vt -3 14
vt -2 15
vt -2 14
vt -0.9999998 15
vt -0.9999998 14
vt -0.9999998 15
vt -0.9999998 14
vt 1.804892E-07 15
vt 1.905164E-07 14
vt -0.9999998 15
vt 1.804892E-07 15
vt -0.9999998 17
vt 1.905164E-07 17
vt -5.000015 0
vt -5 2
vt -6 0
vt -5.999985 2
vt -5 2
vt -6 2
vt -5 3
vt -6 3
vt -5 2.000008
vt -5 3
vt -4 2
vt -4 2.999992
vt -4 2
vt -4 3
vt -3 2
vt -3 3
vt -3 3
vt -4 3
vt -3 4
vt -4 4
vt -3 4
vt -4 4
vt -3 5
vt -4 5
vt -4 4.999992
vt -4 4
vt -5 5
vt -5 4.000008
vt -5 5
vt -5 4
vt -6 5
vt -6 4
vt -5.000015 5
vt -6 5
vt -5 6
vt -5.999985 6
vt -5 6
vt -6 6
vt -5 7
vt -6 7
vt -5 6.000008
vt -5 7
vt -2 6
vt -2 6.999992
vt -2 6.000008
vt -2 7
vt -1 6
vt -1 6.999992
vt -1 7
vt -2 7.000008
vt -1 7.999992
vt -2 8
vt -1 8
vt -2 8.000008
vt -1 8.999992
vt -2 9
vt -2 8.999992
vt -2 8
vt -5 9
vt -5 8.000008
vt -5 9
vt -5 8
vt -6 9
vt -6 8
vt -5.00001 8.999999
vt -6 8.999999
vt -4.999995 9.999991
vt -5.999985 9.999991
vn 0 1 0
vn 0 1 0
vn 0 1 0
vn 0 1 0
vn 0 1 0
vn 0 1 0
vn 0 1 0
vn 0 1 0
vn 0 1 0
vn 0 1 0
vn 0 1 0
vn 0 1 0
vn 0 1 0
vn 0 1 0
vn 0 1 0
vn 0 1 0
vn 0 1 0
vn 0 1 0
vn 0 1 0
vn 0 1 0
vn 0 1 0
vn 0 1 0
vn 0 1 0
vn 0 1 0
vn 0 1 0
vn 0 1 0
vn 0 1 0
vn 0 1 0
vn 0 1 0
vn 0 1 0
vn 0 1 0
vn 0 1 0
vn 0 1 -0.0001001358
vn 0 1 -0.0001001358
vn 0 1 -0.0001001358
vn 0 1 -0.0001001358
vn 0 1 -0.0001001358
vn 0 1 -0.0001001358
vn 0 1 -0.0001001358
vn 0 1 -0.0001001358
vn -3.33786E-05 1 -0.0001001358
vn -3.33786E-05 1 -0.0001001358
vn -3.33786E-05 1 -0.0001001358
vn -3.33786E-05 1 -0.0001001358
vn -0.0001001358 1 -0.0001001358
vn -0.0001001358 1 -0.0001001358
vn -0.0001001358 1 -0.0001001358
vn -0.0001001358 1 -0.0001001358
vn -0.0001001358 1 -0.0001001358
vn -0.0001001358 1 -0.0001001358
vn -0.0001001358 1 -0.0001001358
vn -0.0001001358 1 -0.0001001358
vn -0.0001001358 1 -0.0001001358
vn -0.0001001358 1 -0.0001001358
vn -0.0001001358 1 -0.0001001358
vn -0.0001001358 1 -0.0001001358
vn 3.33786E-05 1 -0.0001001358
vn 3.33786E-05 1 -0.0001001358
vn 3.33786E-05 1 -0.0001001358
vn 3.33786E-05 1 -0.0001001358
vn 0.0001001358 1 -0.0001001358
vn 0.0001001358 1 -0.0001001358
vn 0.0001001358 1 -0.0001001358
vn 0.0001001358 1 -0.0001001358
vn 0.0001001358 1 -3.33786E-05
vn 0.0001001358 1 -3.33786E-05
vn 0.0001001358 1 -3.33786E-05
vn 0.0001001358 1 -3.33786E-05
vn 0.0001001358 1 -0.0001001358
vn 0.0001001358 1 -0.0001001358
vn 0.0001001358 1 -0.0001001358
vn 0.0001001358 1 -0.0001001358
vn -0.0001001358 1 -0.0001001358
vn -0.0001001358 1 -0.0001001358
vn -0.0001001358 1 -0.0001001358
vn -0.0001001358 1 -0.0001001358
vn -0.0001001358 1 -0.0001001358
vn -0.0001001358 1 -0.0001001358
vn -0.0001001358 1 -0.0001001358
vn -0.0001001358 1 -0.0001001358
vn -0.0001001358 1 0.0001001358
vn -0.0001001358 1 0.0001001358
vn -0.0001001358 1 0.0001001358
vn -0.0001001358 1 0.0001001358
vn -0.0001001358 1 0.0001001358
vn -0.0001001358 1 0.0001001358
vn -0.0001001358 1 0.0001001358
vn -0.0001001358 1 0.0001001358
vn -0.0001001358 1 0.0001001358
vn -0.0001001358 1 0.0001001358
vn -0.0001001358 1 0.0001001358
vn -0.0001001358 1 0.0001001358
vn -0.0001001358 1 0.0001001358
vn -0.0001001358 1 0.0001001358
vn -0.0001001358 1 0.0001001358
vn -0.0001001358 1 0.0001001358
vn 0 0 -1
vn 0 0 -1
vn 0 0 -1
vn 0 0 -1
vn -0.0001001358 1 -2.002716E-05
vn -0.0001001358 1 -2.002716E-05
vn -0.0001001358 1 -2.002716E-05
vn -0.0001001358 1 -2.002716E-05
vn -0.0001001358 1 -0.0001001358
vn -0.0001001358 1 -0.0001001358
vn -0.0001001358 1 -0.0001001358
vn -0.0001001358 1 -0.0001001358
vn 0.0001001358 1 -0.0001001358
vn 0.0001001358 1 -0.0001001358
vn 0.0001001358 1 -0.0001001358
vn 0.0001001358 1 -0.0001001358
vn 0.0001001358 1 -0.0001001358
vn 0.0001001358 1 -0.0001001358
vn 0.0001001358 1 -0.0001001358
vn 0.0001001358 1 -0.0001001358
vn 0.0001001358 1 0.0001001358
vn 0.0001001358 1 0.0001001358
vn 0.0001001358 1 0.0001001358
vn 0.0001001358 1 0.0001001358
vn 0.0001001358 1 0.0001001358
vn 0.0001001358 1 0.0001001358
vn 0.0001001358 1 0.0001001358
vn 0.0001001358 1 0.0001001358
vn 0.0001001358 1 0.0001001358
vn 0.0001001358 1 0.0001001358
vn 0.0001001358 1 0.0001001358
vn 0.0001001358 1 0.0001001358
vn 0.0001001358 1 0.0001001358
vn 0.0001001358 1 0.0001001358
vn 0.0001001358 1 0.0001001358
vn 0.0001001358 1 0.0001001358
vn 0.0001001358 1 -5.00679E-05
vn 0.0001001358 1 -5.00679E-05
vn 0.0001001358 1 -5.00679E-05
vn 0.0001001358 1 -5.00679E-05
vn 0 1 0
vn 0 1 0
vn 0 1 0
vn 0 1 0
vn 0 1 0
vn 0 1 0
vn 0 1 0
vn 0 1 0
vn 0 1 0
vn 0 1 0
vn 0 1 0
vn 0 1 0
vn 0 1 0
vn 0 1 0
vn 0 1 0
vn 0 1 0
vn 0 1 0
vn 0 1 0
vn 0 1 0
vn 0 1 0
vn 0 1 0
vn 0 1 0
vn 0 1 0
vn 0 1 0
vn 0 1 0
vn 0 1 0
vn 0 1 0
vn 0 1 0
vn 0 1 0
vn 0 1 0
vn 0 1 0
vn 0 1 0
vn 0 1 0.0001001358
vn 0 1 0.0001001358
vn 0 1 0.0001001358
vn 0 1 0.0001001358
vn 0 1 0.0001001358
vn 0 1 0.0001001358
vn 0 1 0.0001001358
vn 0 1 0.0001001358
vn -3.337886E-05 1 0.0001001358
vn -3.337886E-05 1 0.0001001358
vn -3.337886E-05 1 0.0001001358
vn -3.337886E-05 1 0.0001001358
vn -0.0001001366 1 0.0001001358
vn -0.0001001366 1 0.0001001358
vn -0.0001001366 1 0.0001001358
vn -0.0001001366 1 0.0001001358
vn -0.0001001366 1 0.0001001358
vn -0.0001001366 1 0.0001001358
vn -0.0001001366 1 0.0001001358
vn -0.0001001366 1 0.0001001358
vn -0.0001001366 1 0.0001001358
vn -0.0001001366 1 0.0001001358
vn -0.0001001366 1 0.0001001358
vn -0.0001001366 1 0.0001001358
vn 3.337835E-05 1 0.0001001358
vn 3.337835E-05 1 0.0001001358
vn 3.337835E-05 1 0.0001001358
vn 3.337835E-05 1 0.0001001358
vn 0.0001001358 1 0.0001001358
vn 0.0001001358 1 0.0001001358
vn 0.0001001358 1 0.0001001358
vn 0.0001001358 1 0.0001001358
vn 0.0001001358 1 0.0001001381
vn 0.0001001358 1 0.0001001381
vn 0.0001001358 1 0.0001001381
vn 0.0001001358 1 0.0001001381
g pb_Mesh433864_0
f 3/3/3 2/2/2 1/1/1
f 3/3/3 4/4/4 2/2/2
f 5/5/5 6/6/6 7/7/7
f 6/6/6 8/8/8 7/7/7
f 9/9/9 10/10/10 11/11/11
f 10/10/10 12/12/12 11/11/11
f 13/13/13 14/14/14 15/15/15
f 14/14/14 16/16/16 15/15/15
f 17/17/17 18/18/18 19/19/19
f 18/18/18 20/20/20 19/19/19
f 21/21/21 22/22/22 23/23/23
f 22/22/22 24/24/24 23/23/23
f 25/25/25 26/26/26 27/27/27
f 26/26/26 28/28/28 27/27/27
f 29/29/29 30/30/30 31/31/31
f 30/30/30 32/32/32 31/31/31
f 33/33/33 34/34/34 35/35/35
f 34/34/34 36/36/36 35/35/35
f 37/37/37 38/38/38 39/39/39
f 38/38/38 40/40/40 39/39/39
f 41/41/41 42/42/42 43/43/43
f 42/42/42 44/44/44 43/43/43
f 45/45/45 46/46/46 47/47/47
f 46/46/46 48/48/48 47/47/47
f 49/49/49 50/50/50 51/51/51
f 50/50/50 52/52/52 51/51/51
f 53/53/53 54/54/54 55/55/55
f 54/54/54 56/56/56 55/55/55
f 57/57/57 58/58/58 59/59/59
f 58/58/58 60/60/60 59/59/59
f 61/61/61 62/62/62 63/63/63
f 62/62/62 64/64/64 63/63/63
f 65/65/65 66/66/66 67/67/67
f 66/66/66 68/68/68 67/67/67
f 69/69/69 70/70/70 71/71/71
f 70/70/70 72/72/72 71/71/71
f 73/73/73 74/74/74 75/75/75
f 74/74/74 76/76/76 75/75/75
f 77/77/77 78/78/78 79/79/79
f 78/78/78 80/80/80 79/79/79
f 81/81/81 82/82/82 83/83/83
f 82/82/82 84/84/84 83/83/83
f 85/85/85 86/86/86 87/87/87
f 86/86/86 88/88/88 87/87/87
f 89/89/89 90/90/90 91/91/91
f 90/90/90 92/92/92 91/91/91
f 93/93/93 94/94/94 95/95/95
f 94/94/94 96/96/96 95/95/95
f 97/97/97 98/98/98 99/99/99
f 98/98/98 100/100/100 99/99/99
f 101/101/101 102/102/102 103/103/103
f 102/102/102 104/104/104 103/103/103
f 105/105/105 106/106/106 107/107/107
f 106/106/106 108/108/108 107/107/107
f 109/109/109 110/110/110 111/111/111
f 110/110/110 112/112/112 111/111/111
f 113/113/113 114/114/114 115/115/115
f 114/114/114 116/116/116 115/115/115
f 117/117/117 118/118/118 119/119/119
f 118/118/118 120/120/120 119/119/119
f 121/121/121 122/122/122 123/123/123
f 122/122/122 124/124/124 123/123/123
f 125/125/125 126/126/126 127/127/127
f 126/126/126 128/128/128 127/127/127
f 129/129/129 130/130/130 131/131/131
f 130/130/130 132/132/132 131/131/131
f 133/133/133 134/134/134 135/135/135
f 134/134/134 136/136/136 135/135/135
f 138/138/138 140/140/140 139/139/139
f 137/137/137 138/138/138 139/139/139
f 143/143/143 144/144/144 142/142/142
f 143/143/143 142/142/142 141/141/141
f 147/147/147 148/148/148 146/146/146
f 147/147/147 146/146/146 145/145/145
f 151/151/151 152/152/152 150/150/150
f 151/151/151 150/150/150 149/149/149
f 155/155/155 156/156/156 154/154/154
f 155/155/155 154/154/154 153/153/153
f 159/159/159 160/160/160 158/158/158
f 159/159/159 158/158/158 157/157/157
f 163/163/163 164/164/164 162/162/162
f 163/163/163 162/162/162 161/161/161
f 167/167/167 168/168/168 166/166/166
f 167/167/167 166/166/166 165/165/165
f 171/171/171 172/172/172 170/170/170
f 171/171/171 170/170/170 169/169/169
f 175/175/175 176/176/176 174/174/174
f 175/175/175 174/174/174 173/173/173
f 179/179/179 180/180/180 178/178/178
f 179/179/179 178/178/178 177/177/177
f 183/183/183 184/184/184 182/182/182
f 183/183/183 182/182/182 181/181/181
f 187/187/187 188/188/188 186/186/186
f 187/187/187 186/186/186 185/185/185
f 191/191/191 192/192/192 190/190/190
f 191/191/191 190/190/190 189/189/189
f 195/195/195 196/196/196 194/194/194
f 195/195/195 194/194/194 193/193/193
f 199/199/199 200/200/200 198/198/198
f 199/199/199 198/198/198 197/197/197
f 203/203/203 204/204/204 202/202/202
f 203/203/203 202/202/202 201/201/201
