g pb_Mesh208724
v -32 0 -19.40955
v 0 0 -30
v 0 0 -19.40955
v -32.00001 0 -30
v 0 18 -19.40955
v 0 9 -14
v 0 26.5 -14
v 0 9 -19.40955
v -32 18 -19.40955
v 0 26.5 -14
v -32 26.5 -14
v 0 18 -19.40955
v 0 0 -14
v 0 0 -19.40955
v 0 9 -6
v 0 0 -6
v 0 9 0
v 0 0 0
v 0 26.5 -6
v 0 18 0
v -32 26.5 -6
v 0 26.5 -6
v -32 18 0
v 0 18 0
v -32 9 -19.40955
v 0 18 -19.40955
v -32 18 -19.40955
v 0 9 -19.40955
v -32 0 -19.40955
v 0 0 -19.40955
v 0 -4 -14
v 0 -4 -22
v 0 -8 -14
v 0 -8 -22
v -32 26.5 -10
v 0 26.5 -10
v 0 26.5 -8
v -32 26.5 -8
v 0 26.5 -6
v -32 26.5 -6
v 0 26.5 -8
v 5.340576E-05 9 -7.5
v 0 26.5 -10
v 0 9 -10
v -32 26.5 -14
v 0 26.5 -14
v 0 26.5 -12
v -32 26.5 -12
v 0 26.5 -12
v 5.340576E-05 9 -12.5
v 5.340576E-05 1 -7.5
v 5.340576E-05 1 -12.5
v -21.00001 9 -12.5
v 0 9 -10
v 5.340576E-05 9 -12.5
v -21.00001 9 -10
v 5.340576E-05 9 -7.5
v -21.00001 9 -7.5
v -21.00001 9 -7.5
v 5.340576E-05 1 -7.5
v 5.340576E-05 9 -7.5
v -21.00001 1 -7.5
v -21.00001 1 -12.5
v 5.340576E-05 9 -12.5
v 5.340576E-05 1 -12.5
v -21.00001 9 -12.5
v -61 7.247925E-05 -19.40962
v -61 7.247925E-05 -30.00008
v -61 26.5 -14
v -61 18 -19.40962
v -61 18 0
v -61 26.5 -6
v -61 18 -19.40962
v -61 9 -19.40965
v -61 7.247925E-05 -19.40962
v -61 26.5 -8
v -61 26.5 -10
v -61 26.5 -6
v -61 26.5 -12
v -61 26.5 -14
v 9.918213E-05 -7 -6
v 9.918213E-05 -7 0
v -32.00001 -16 -30
v 0 -8 -30
v -32.00001 -8 -30
v 0 -16 -30
v 0 0 -30
v 0 -4 -22
v 0 0 -19.40955
v 0 -4 -30
v 0 -8 -22
v 0 -8 -30
v -32.00001 0 -30
v 0 -4 -30
v 0 0 -30
v -32.00001 -4 -30
v -32.00001 -32 -30.00009
v 0 -16 -30
v -32.00001 -16 -30
v 0 -32 -30.00009
v -21.00001 1 -12.5
v 5.340576E-05 1 -12.5
v 0 1 -10
v -21.00001 1 -10
v 5.340576E-05 1 -7.5
v -21.00001 1 -7.5
v 0 -32 -46
v 0 -16 -30
v 0 -32 -30.00009
v 0 -16 -46
v -6.866455E-05 -44 -30.00017
v -9.918213E-05 -44 -46
v -32 -44 -30.00018
v -6.866455E-05 -44 -30.00017
v -61 -8 -30.00009
v -61 -16 -30.00009
v -61 7.247925E-05 -30.00008
v -61 -4 -30.00009
v -61 -16 -30.00009
v -61 -32 -30.00018
v -61 -44 -30.00027
vt 32 -19.40955
vt 0 -30
vt 0 -19.40955
vt 32.00001 -30
vt 19.40955 18
vt 14 9
vt 14 26.5
vt 19.40955 9
vt 32 4.764385
vt 0 14.83976
vt 32 14.83976
vt 0 4.764385
vt 14 0
vt 19.40955 0
vt 6 9
vt 6 0
vt 0 9
vt 0 0
vt 6 26.5
vt 0 18
vt -32 25.10975
vt 0 25.10975
vt -32 14.70542
vt 0 14.70542
vt 32 9
vt 0 18
vt 32 18
vt 0 9
vt 32 0
vt 0 0
vt 14 -4
vt 22 -4
vt 14 -8
vt 22 -8
vt 32 -10
vt 0 -10
vt 0 -8
vt 32 -8
vt 0 -6
vt 32 -6
vt 8 26.5
vt 7.5 9
vt 10 26.5
vt 10 9
vt 32 -14
vt 0 -14
vt 0 -12
vt 32 -12
vt 12 26.5
vt 12.5 9
vt 7.5 1
vt 12.5 1
vt -21.00001 -12.5
vt 0 -10
vt 5.340576E-05 -12.5
vt -21.00001 -10
vt 5.340576E-05 -7.5
vt -21.00001 -7.5
vt 21.00001 9
vt -5.340576E-05 1
vt -5.340576E-05 9
vt 21.00001 1
vt -21.00001 1
vt 5.340576E-05 9
vt 5.340576E-05 1
vt -21.00001 9
vt 61 -19.40962
vt 61 -30.00008
vt 61 14.83976
vt 61 4.764348
vt -61 14.70542
vt -61 25.10975
vt 61.00005 18
vt 61.00005 9
vt 61.00006 7.247925E-05
vt 61 -8
vt 61 -10
vt 61 -6
vt 61 -12
vt 61 -14
vt 6 -7
vt 0 -7
vt 32.00001 -16
vt 0 -8
vt 32.00001 -8
vt 0 -16
vt 30 0
vt 22 -4
vt 19.40955 0
vt 30 -4
vt 22 -8
vt 30 -8
vt 32.00001 0
vt 0 -4
vt 0 0
vt 32.00001 -4
vt 32.00001 -32.00017
vt 0 -16.00017
vt 32.00001 -16.00017
vt 0 -32.00017
vt 21.00001 -12.5
vt -5.340576E-05 -12.5
vt 0 -10
vt 21.00001 -10
vt -5.340576E-05 -7.5
vt 21.00001 -7.5
vt -46 -32
vt -30 -16
vt -30.00009 -32
vt -46 -16
vt -30.00017 -44
vt -46 -44
vt 32 -44.00023
vt 6.866455E-05 -44.00023
vt 61.0001 -8
vt 61.0001 -16
vt 61.00008 7.247925E-05
vt 61.00008 -4
vt 61.0001 -16.00017
vt 61.0001 -32.00017
vt 61.0001 -44.00023
vn 0 1 0
vn 0 1 0
vn 0 1 0
vn 0 1 0
vn 1 0 0
vn 1 0 0
vn 1 0 0
vn 1 0 0
vn 0 0.5369081 -0.8436407
vn 0 0.5369081 -0.8436407
vn 0 0.5369081 -0.8436407
vn 0 0.5369081 -0.8436407
vn 1 0 0
vn 1 0 0
vn 1 0 0
vn 1 0 0
vn 1 0 0
vn 1 0 0
vn 1 0 0
vn 1 0 0
vn 0 0.5766832 0.8169679
vn 0 0.5766832 0.8169679
vn 0 0.5766832 0.8169679
vn 0 0.5766832 0.8169679
vn 0 0 -1
vn 0 0 -1
vn 0 0 -1
vn 0 0 -1
vn 0 0 -1
vn 0 0 -1
vn 1 0 0
vn 1 0 0
vn 1 0 0
vn 1 0 0
vn 0 1 0
vn 0 1 0
vn 0 1 0
vn 0 1 0
vn 0 1 0
vn 0 1 0
vn 1 2.034505E-06 1.780192E-05
vn 1 4.069011E-06 3.560384E-05
vn 1 1.525879E-06 -1.068115E-05
vn 1 0 -2.13623E-05
vn 0 1 0
vn 0 1 0
vn 0 1 0
vn 0 1 0
vn 1 1.220703E-06 1.068115E-05
vn 1 2.441406E-06 2.13623E-05
vn 1 0 3.560384E-05
vn 1 0 -3.560384E-05
vn 0 -1 0
vn 0 -1 0
vn 0 -1 0
vn 0 -1 0
vn 0 -1 0
vn 0 -1 0
vn 0 0 -1
vn 0 0 -1
vn 0 0 -1
vn 0 0 -1
vn 0 0 1
vn 0 0 1
vn 0 0 1
vn 0 0 1
vn 2.499285E-06 1 -9.002466E-13
vn 2.499285E-06 1 0
vn 9.987585E-07 0.5369106 -0.8436391
vn 1.997517E-06 0.536913 -0.8436376
vn 0 0.5766832 0.8169679
vn 0 0.5766832 0.8169679
vn 2.893908E-06 1.695421E-06 -1
vn 3.420073E-06 3.390842E-06 -1
vn 2.367735E-06 -3.390869E-06 -1
vn 0 1 0
vn 0 1 0
vn 0 1 0
vn 0 1 0
vn 0 1 0
vn 1 1.416888E-05 0
vn 1 1.416888E-05 0
vn 0 0 -1
vn 0 0 -1
vn 0 0 -1
vn 0 0 -1
vn 1 0 0
vn 1 0 0
vn 1 0 0
vn 1 0 0
vn 1 0 0
vn 1 0 0
vn 0 0 -1
vn 0 0 -1
vn 0 0 -1
vn 0 0 -1
vn 0 5.722046E-06 -1
vn 0 5.722046E-06 -1
vn 0 5.722046E-06 -1
vn 0 5.722046E-06 -1
vn 0 1 0
vn 0 1 0
vn 0 1 0
vn 0 1 0
vn 0 1 0
vn 0 1 0
vn -1 0 0
vn -1 0 0
vn -1 0 0
vn -1 0 0
vn -1 6.993612E-06 9.536843E-07
vn -1 8.265178E-06 1.907369E-06
vn 2.384191E-07 6.99361E-06 -1
vn 4.768382E-07 6.357826E-06 -1
vn 3.156992E-06 0 -1
vn 3.156992E-06 0 -1
vn 2.893909E-06 1.907314E-06 -1
vn 3.156992E-06 3.814628E-06 -1
vn 3.156992E-06 5.722046E-06 -1
vn 3.156992E-06 5.722046E-06 -1
vn 3.156991E-06 7.629395E-06 -1
g pb_Mesh208724_0
f 3/3/3 2/2/2 1/1/1
f 2/2/2 4/4/4 1/1/1
f 7/7/7 6/6/6 5/5/5
f 6/6/6 8/8/8 5/5/5
f 11/11/11 10/10/10 9/9/9
f 10/10/10 12/12/12 9/9/9
f 6/6/6 13/13/13 8/8/8
f 13/13/13 14/14/14 8/8/8
f 17/17/17 16/16/16 15/15/15
f 17/17/17 18/18/18 16/16/16
f 20/20/20 15/15/15 19/19/19
f 20/20/20 17/17/17 15/15/15
f 23/23/23 22/22/22 21/21/21
f 23/23/23 24/24/24 22/22/22
f 27/27/27 26/26/26 25/25/25
f 26/26/26 28/28/28 25/25/25
f 25/25/25 28/28/28 29/29/29
f 28/28/28 30/30/30 29/29/29
f 13/13/13 31/31/31 14/14/14
f 31/31/31 32/32/32 14/14/14
f 31/31/31 33/33/33 32/32/32
f 33/33/33 34/34/34 32/32/32
f 37/37/37 36/36/36 35/35/35
f 37/37/37 35/35/35 38/38/38
f 39/39/39 37/37/37 38/38/38
f 39/39/39 38/38/38 40/40/40
f 19/19/19 15/15/15 41/41/41
f 15/15/15 42/42/42 41/41/41
f 41/41/41 42/42/42 43/43/43
f 42/42/42 44/44/44 43/43/43
f 47/47/47 46/46/46 45/45/45
f 47/47/47 45/45/45 48/48/48
f 36/36/36 47/47/47 48/48/48
f 36/36/36 48/48/48 35/35/35
f 43/43/43 44/44/44 49/49/49
f 44/44/44 50/50/50 49/49/49
f 49/49/49 50/50/50 7/7/7
f 50/50/50 6/6/6 7/7/7
f 15/15/15 16/16/16 42/42/42
f 16/16/16 51/51/51 42/42/42
f 13/13/13 6/6/6 52/52/52
f 6/6/6 50/50/50 52/52/52
f 55/55/55 54/54/54 53/53/53
f 54/54/54 56/56/56 53/53/53
f 54/54/54 57/57/57 56/56/56
f 57/57/57 58/58/58 56/56/56
f 61/61/61 60/60/60 59/59/59
f 60/60/60 62/62/62 59/59/59
f 65/65/65 64/64/64 63/63/63
f 64/64/64 66/66/66 63/63/63
f 1/1/1 4/4/4 67/67/67
f 4/4/4 68/68/68 67/67/67
f 11/11/11 9/9/9 69/69/69
f 9/9/9 70/70/70 69/69/69
f 23/23/23 21/21/21 71/71/71
f 21/21/21 72/72/72 71/71/71
f 27/27/27 25/25/25 73/73/73
f 25/25/25 74/74/74 73/73/73
f 25/25/25 29/29/29 74/74/74
f 29/29/29 75/75/75 74/74/74
f 38/38/38 35/35/35 76/76/76
f 35/35/35 77/77/77 76/76/76
f 40/40/40 38/38/38 78/78/78
f 38/38/38 76/76/76 78/78/78
f 48/48/48 45/45/45 79/79/79
f 45/45/45 80/80/80 79/79/79
f 35/35/35 48/48/48 77/77/77
f 48/48/48 79/79/79 77/77/77
f 16/16/16 18/18/18 81/81/81
f 18/18/18 82/82/82 81/81/81
g pb_Mesh208724_1
f 85/85/85 84/84/84 83/83/83
f 84/84/84 86/86/86 83/83/83
f 89/89/89 88/88/88 87/87/87
f 88/88/88 90/90/90 87/87/87
f 88/88/88 91/91/91 90/90/90
f 91/91/91 92/92/92 90/90/90
f 95/95/95 94/94/94 93/93/93
f 94/94/94 96/96/96 93/93/93
f 94/94/94 84/84/84 96/96/96
f 84/84/84 85/85/85 96/96/96
f 99/99/99 98/98/98 97/97/97
f 98/98/98 100/100/100 97/97/97
f 103/103/103 102/102/102 101/101/101
f 103/103/103 101/101/101 104/104/104
f 105/105/105 103/103/103 104/104/104
f 105/105/105 104/104/104 106/106/106
f 109/109/109 108/108/108 107/107/107
f 108/108/108 110/110/110 107/107/107
f 109/109/109 107/107/107 111/111/111
f 107/107/107 112/112/112 111/111/111
f 97/97/97 100/100/100 113/113/113
f 100/100/100 114/114/114 113/113/113
f 85/85/85 83/83/83 115/115/115
f 83/83/83 116/116/116 115/115/115
f 93/93/93 96/96/96 117/117/117
f 96/96/96 118/118/118 117/117/117
f 96/96/96 85/85/85 118/118/118
f 85/85/85 115/115/115 118/118/118
f 99/99/99 97/97/97 119/119/119
f 97/97/97 120/120/120 119/119/119
f 97/97/97 113/113/113 120/120/120
f 113/113/113 121/121/121 120/120/120
