g pb_Mesh408664
v 5 10 0
v -2 10 0
v 5 12 0
v -2 12 0
v -2 0 -2
v 6.000018 0 -2
v -2 12 -2
v 6.000018 12 -2
v 5 12 0
v -2 12 0
v 6.000018 12 -2
v -2 12 -2
v 5 10 0
v 5 12 0
v 10 10 5
v 10 12 5
v 6.000018 12 -2
v 6.000018 0 -2
v 12.00007 12 4
v 12.00007 0 4
v 10 12 5
v 12.00007 12 4
v 10 10 5
v 10 12 5
v 10 10 6
v 10 12 6
v 10 12 6
v 12.00014 12 6
v 12.00007 12 4
v 12.00007 0 4
v 12.00014 12 6
v 12.00014 0 6
vt 5 10
vt -2 10
vt 5 12
vt -2 12
vt 2 0
vt -6.000018 0
vt 2 12
vt -6.000018 12
vt -5 0
vt 2 0
vt -6.000018 -2
vt 2 -2
vt 3.535534 10
vt 3.535534 12
vt 10.6066 10
vt 10.6066 12
vt -2.828464 12
vt -2.828464 0
vt -11.31378 12
vt -11.31378 0
vt -10 5
vt -12.00007 4
vt 5 10
vt 5 12
vt 6 10
vt 6 12
vt -10 6
vt -12.00014 6
vt -4.000412 12
vt -4.000412 0
vt -6.000412 12
vt -6.000412 0
vn 0 0 1
vn 0 0 1
vn 0 0 1
vn 0 0 1
vn 0 0 -1
vn 0 0 -1
vn 0 0 -1
vn 0 0 -1
vn 0 1 0
vn 0 1 0
vn 0 1 0
vn 0 1 0
vn -0.7071068 0 0.7071068
vn -0.7071068 0 0.7071068
vn -0.7071068 0 0.7071068
vn -0.7071068 0 0.7071068
vn 0.7071038 0 -0.7071098
vn 0.7071038 0 -0.7071098
vn 0.7071038 0 -0.7071098
vn 0.7071038 0 -0.7071098
vn 0 1 0
vn 0 1 0
vn -1 0 0
vn -1 0 0
vn -1 0 0
vn -1 0 0
vn 0 1 0
vn 0 1 0
vn 1 0 -3.433228E-05
vn 1 0 -3.433228E-05
vn 1 0 -3.433228E-05
vn 1 0 -3.433228E-05
g pb_Mesh408664_0
g pb_Mesh408664_1
f 3/3/3 2/2/2 1/1/1
f 3/3/3 4/4/4 2/2/2
f 7/7/7 6/6/6 5/5/5
f 7/7/7 8/8/8 6/6/6
f 11/11/11 10/10/10 9/9/9
f 11/11/11 12/12/12 10/10/10
f 15/15/15 14/14/14 13/13/13
f 15/15/15 16/16/16 14/14/14
f 19/19/19 18/18/18 17/17/17
f 19/19/19 20/20/20 18/18/18
f 22/22/22 9/9/9 21/21/21
f 22/22/22 11/11/11 9/9/9
f 25/25/25 24/24/24 23/23/23
f 25/25/25 26/26/26 24/24/24
f 27/27/27 22/22/22 21/21/21
f 27/27/27 28/28/28 22/22/22
f 31/31/31 30/30/30 29/29/29
f 31/31/31 32/32/32 30/30/30
