g pb_Mesh-728138
v 0.8520451 0.9418812 0
v -0.5983405 0.9377179 0.6400089
v 0.06820488 1.209179 0
v -6.922601 4.680724 0
v -6.926876 0.2635574 0
v -6.926876 0.2635574 -4
v -8.000057 0.2729111 0
v -8.000057 0.2729111 -4
v -0.5983405 0.9377179 -4.490637
v 0.8520451 0.9418812 -4
v -6.922601 4.680724 -4
v 0.8520451 0.9418812 -4
v 0.06820488 1.209179 -4
v -6.922601 4.680724 -4
v 0.8520451 0.9418812 -4
v 0.8520451 0.9418812 0
v 0.06820488 1.209179 -4
v 0.06820488 1.209179 0
v 0.06820488 1.209179 0
v -6.922601 4.680724 0
v 0.06820488 1.209179 -4
v -6.922601 4.680724 -4
v 0.8520451 0.9418812 -4
v -0.5983405 0.9377179 -4.490637
v 0.8520451 0.9418812 0
v -0.5983405 0.9377179 0.6400089
v -0.5983405 0.9377179 0.6400089
v -0.5983405 0.9377179 -4.490637
v -7.006905 3.442131 0
v -7.006905 3.442131 -4
v -6.922601 4.680724 0
v -0.5983405 0.9377179 0.6400089
v -8 4.943688 0
v -7.006905 3.442131 0
v -0.5983405 0.9377179 -4.490637
v -6.922601 4.680724 -4
v -7.006905 3.442131 -4
v -8 4.943688 -4
v -6.922601 4.680724 -4
v -6.922601 4.680724 0
v -8 4.943688 -4
v -8 4.943688 0
v -7.006905 3.442131 0
v -7.006905 3.442131 -4
v -6.926876 0.2635574 0
v -6.926876 0.2635574 -4
v -8 4.943688 0
v -7.006905 3.442131 0
v -8.000057 0.2729111 0
v -6.926876 0.2635574 0
v -7.006905 3.442131 -4
v -8 4.943688 -4
v -6.926876 0.2635574 -4
v -8.000057 0.2729111 -4
v -8 4.943688 -4
v -8 4.943688 0
v -8.000057 0.2729111 -4
v -8.000057 0.2729111 0
vt -0.5024428 -0.6924114
vt 0.8689756 0.1028613
vt 0.3257199 -0.6924113
vt 8.06286 -1.303453
vt -6.92891 0
vt -6.92891 -4
vt -8.002132 0
vt -8.002132 -4
vt 1.998454 -1.464509
vt 0.4673319 -1.459514
vt 7.836484 3.025981
vt 0.4673319 -1.459514
vt 1.21029 -1.098686
vt 7.836484 3.025981
vt -0.5024428 -4
vt -0.5024428 0
vt 0.3257199 -4
vt 0.3257199 0
vt 0.476715 0
vt 8.282033 0
vt 0.476715 -4
vt 8.282033 -4
vt 0.8547451 -4
vt -0.5956464 -4.490637
vt 0.8547451 0
vt -0.5956464 0.6400089
vt -0.8986126 0.6400089
vt -0.8986126 -4.490637
vt -7.779149 0
vt -7.779149 -4
vt -6.905207 4.631901
vt -0.6421779 0.7344094
vt -7.979899 4.905718
vt -6.989299 3.444067
vt 0.2627176 0.9148127
vt 6.605952 4.657867
vt 6.690023 3.419258
vt 7.680368 4.920422
vt 7.835041 -4
vt 7.835041 0
vt 8.944067 -4
vt 8.944067 0
vt 0 3.617401
vt 4 3.617401
vt 0 0.4378201
vt 4 0.4378201
vt -8 4.943688
vt -7.006905 3.442131
vt -8.000057 0.2729111
vt -6.926876 0.2635574
vt 7.006905 3.442131
vt 8 4.943688
vt 6.926876 0.2635574
vt 8.000057 0.2729111
vt -4 4.94359
vt 0 4.94359
vt -4 0.2728131
vt 0 0.2728131
vn 0.2597465 0.7616963 0.5935912
vn 0.2998936 0.7232257 0.6190855
vn 0.2998936 0.7232257 0.6190855
vn 0.3400406 0.684755 0.6445798
vn -0.008715474 -0.999962 0
vn -0.008715474 -0.999962 0
vn -0.008715474 -0.999962 0
vn -0.008715474 -0.999962 0
vn 0.2656781 0.5524579 -0.7900667
vn 0.1328391 0.276229 0.1049667
vn 0.1328391 0.276229 0.1049667
vn 0.1328391 0.276229 0.1049667
vn 0 0 1
vn 0.1328391 0.276229 0.1049667
vn 0.3227599 0.9464809 0
vn 0.3227599 0.9464809 0
vn 0.3227599 0.9464809 0
vn 0.3227599 0.9464809 0
vn 0.4447667 0.8956465 0
vn 0.4447667 0.8956465 0
vn 0.4447667 0.8956465 0
vn 0.4447667 0.8956465 0
vn 0.002870442 -0.9999959 0
vn 0.002870442 -0.9999959 0
vn 0.002870442 -0.9999959 0
vn 0.002870442 -0.9999959 0
vn -0.3639852 -0.9314048 0
vn -0.3639852 -0.9314048 0
vn -0.3639852 -0.9314048 0
vn -0.3639852 -0.9314048 0
vn 0.06803597 0.2787529 0.9579499
vn -0.03245915 0.09540997 0.9725818
vn -0.03245915 0.09540997 0.9725818
vn -0.1329543 -0.08793291 0.9872137
vn -0.07436845 0.005061829 -0.997218
vn -0.03718422 0.002530915 -0.998609
vn -0.03718422 0.002530915 -0.998609
vn 0 0 -1
vn 0.2371123 0.9714822 0
vn 0.2371123 0.9714822 0
vn 0.2371123 0.9714822 0
vn 0.2371123 0.9714822 0
vn 0.9996832 0.02516952 0
vn 0.9996832 0.02516952 0
vn 0.9996832 0.02516952 0
vn 0.9996832 0.02516952 0
vn 0 0 1
vn 0 0 1
vn 0 0 1
vn 0 0 1
vn 0 0 -1
vn 0 0 -1
vn 0 0 -1
vn 0 0 -1
vn -1 1.225074E-05 0
vn -1 1.225074E-05 0
vn -1 1.225074E-05 0
vn -1 1.225074E-05 0
g pb_Mesh-728138_0
f 3/3/3 2/2/2 1/1/1
f 3/3/3 4/4/4 2/2/2
f 7/7/7 6/6/6 5/5/5
f 7/7/7 8/8/8 6/6/6
f 11/11/11 10/10/10 9/9/9
f 14/14/14 13/13/13 12/12/12
f 17/17/17 16/16/16 15/15/15
f 17/17/17 18/18/18 16/16/16
f 21/21/21 20/20/20 19/19/19
f 21/21/21 22/22/22 20/20/20
f 25/25/25 24/24/24 23/23/23
f 25/25/25 26/26/26 24/24/24
f 29/29/29 28/28/28 27/27/27
f 29/29/29 30/30/30 28/28/28
f 33/33/33 32/32/32 31/31/31
f 33/33/33 34/34/34 32/32/32
f 37/37/37 36/36/36 35/35/35
f 37/37/37 38/38/38 36/36/36
f 41/41/41 40/40/40 39/39/39
f 41/41/41 42/42/42 40/40/40
f 45/45/45 44/44/44 43/43/43
f 45/45/45 46/46/46 44/44/44
f 49/49/49 48/48/48 47/47/47
f 49/49/49 50/50/50 48/48/48
f 53/53/53 52/52/52 51/51/51
f 53/53/53 54/54/54 52/52/52
f 57/57/57 56/56/56 55/55/55
f 57/57/57 58/58/58 56/56/56
