g pb_Mesh123392
v 0 16 0
v 0 0 0
v -12 12 0
v -12 0 0
v -32 0 0
v -32 16 0
v -20 0 0
v -20 12 0
v -20 0 -8
v -12 0 0
v -20 0 0
v -12 0 -8
v -20 0 0
v -20 0 -8
v -20 12 -8
v -20 12 0
v -12 12 -8
v -20 12 0
v -12 12 0
v -20 12 -8
v -12 0 -8
v -12 12 0
v -12 0 0
v -12 12 -8
vt 0 16
vt 0 0
vt -12 12
vt -12 0
vt -32 0
vt -32 16
vt -20 0
vt -20 12
vt 20 -8
vt 12 0
vt 20 0
vt 12 -8
vt 0 0
vt -8 0
vt -8 12
vt 0 12
vt -12 -8
vt -20 0
vt -12 0
vt -20 -8
vt -8 0
vt 0 12
vt 0 0
vt -8 12
vn 0 0 1
vn 0 0 1
vn 0 0 1
vn 0 0 1
vn 0 0 1
vn 0 0 1
vn 0 0 1
vn 0 0 1
vn 0 1 0
vn 0 1 0
vn 0 1 0
vn 0 1 0
vn -1 0 0
vn -1 0 0
vn -1 0 0
vn -1 0 0
vn 0 -1 0
vn 0 -1 0
vn 0 -1 0
vn 0 -1 0
vn -1 0 0
vn -1 0 0
vn -1 0 0
vn -1 0 0
g pb_Mesh123392_0
f 3/3/3 2/2/2 1/1/1
f 3/3/3 4/4/4 2/2/2
f 7/7/7 6/6/6 5/5/5
f 7/7/7 8/8/8 6/6/6
f 8/8/8 1/1/1 6/6/6
f 8/8/8 3/3/3 1/1/1
f 11/11/11 10/10/10 9/9/9
f 10/10/10 12/12/12 9/9/9
f 15/15/15 14/14/14 13/13/13
f 15/15/15 13/13/13 16/16/16
f 19/19/19 18/18/18 17/17/17
f 18/18/18 20/20/20 17/17/17
f 23/23/23 22/22/22 21/21/21
f 22/22/22 24/24/24 21/21/21
g pb_Mesh123392_1
