g pb_Mesh375912
v 0 4 -8
v 0 4 -16
v 4 4 -16
v 4 4 0
v 0 4 0
v 4 4.000099 4
v 0 4.000069 4
v -12 4 0
v -12 4 4
v 0 -21 -16.00008
v 4 4 -16
v 0 4 -16
v 4 -21 -16
v -12.00007 -21 -16.00008
v -6 4 -16
v -12 4 -16
v 4 -21 -16
v 4 4 0
v 4 4 -16
v 4 -21 0
v 4 4.000099 4
v 4 -21 4
v 0 -21 4
v -12 4 4
v 0 4.000069 4
v -12 -21 4
v -12 -21 4
v -12 4 0
v -12 4 4
v -12.00005 -21 0
v -12 16 -16
v -4 16 -16
v -4 16 -12
v -12 16 -8
v 0 12 -16
v 0 4 -8
v 0 12 -12
v 0 4 -16
v 0 16 0
v 0 16 -12
v 0 4 0
v -12 16 -16
v -4 12 -16
v -4 16 -16
v -12 4 -16
v -6 4 -16
v 0 4 -16
v 0 12 -16
v 0 16 0
v 0 4 0
v -10 16 0
v -12 4 0
v -12 16 0
v -10 16 0
v -12 16 -2
v 0 16 -12
v 0 16 0
vt 0 -8
vt 0 -16
vt -4 -16
vt -4 0
vt 0 0
vt -4 4.000099
vt 0 4.000099
vt 12 6.866455E-05
vt 12 4.000069
vt 0 -21.00005
vt -4 3.999951
vt 0 3.999951
vt -4 -21.00005
vt 12.00007 -21.00005
vt 6 3.999951
vt 12 3.999951
vt 16 -21
vt 0 4
vt 16 4
vt 0 -21
vt -4 4.000099
vt -4 -21
vt 0 -21
vt -12 4
vt 0 4.000069
vt -12 -21
vt 4 -21
vt 0 4
vt 4 4
vt 0 -21
vt 12 -16
vt 4 -16
vt 4 -12
vt 12 -8
vt 16 12
vt 8 4
vt 12 12
vt 16 4
vt 0 16
vt 12 16
vt 0 4
vt 12 16
vt 4 12
vt 4 16
vt 12 4
vt 6 4
vt 0 4
vt 0 12
vt 0 16
vt 0 4
vt -10 16
vt -12 4
vt -12 16
vt 10 0
vt 12 -2
vt 0 -12
vt 0 0
vn 0 1 0
vn 0 1 0
vn 0 1 0
vn 0 1 0
vn 0 1 0
vn -3.814697E-06 1 -2.098083E-05
vn -7.629395E-06 1 -1.716614E-05
vn -2.861023E-06 1 -8.583069E-06
vn -5.722046E-06 1 0
vn 9.536743E-06 1.525879E-06 -1
vn 9.536743E-06 1.525879E-06 -1
vn 0 3.051758E-06 -1
vn 1.907349E-05 0 -1
vn 0 3.051758E-06 -1
vn 0 3.051758E-06 -1
vn 0 3.051758E-06 -1
vn 1 0 0
vn 1 0 0
vn 1 0 0
vn 1 0 0
vn 1 0 0
vn 1 0 0
vn 0 0 1
vn 0 0 1
vn 0 0 1
vn 0 0 1
vn -1 9.155273E-07 5.722046E-06
vn -1 9.155273E-07 5.722046E-06
vn -1 0 0
vn -1 1.831055E-06 1.144409E-05
vn 0 1 0
vn 0 1 0
vn 0 1 0
vn 0 1 0
vn 1 0 0
vn 1 0 0
vn 1 0 0
vn 1 0 0
vn 1 0 0
vn 1 0 0
vn 1 0 0
vn 0 0 -1
vn 0 0 -1
vn 0 0 -1
vn 0 0 -1
vn 0 0 -1
vn 0 0 -1
vn 0 0 -1
vn 0 0 1
vn 0 0 1
vn 0 0 1
vn 0 0 1
vn 0 0 1
vn 0 1 0
vn 0 1 0
vn 0 1 0
vn 0 1 0
g pb_Mesh375912_0
f 3/3/3 2/2/2 1/1/1
f 4/4/4 3/3/3 1/1/1
f 4/4/4 1/1/1 5/5/5
f 4/4/4 5/5/5 6/6/6
f 5/5/5 7/7/7 6/6/6
f 5/5/5 8/8/8 7/7/7
f 8/8/8 9/9/9 7/7/7
f 12/12/12 11/11/11 10/10/10
f 11/11/11 13/13/13 10/10/10
f 16/16/16 15/15/15 14/14/14
f 14/14/14 15/15/15 10/10/10
f 15/15/15 12/12/12 10/10/10
f 19/19/19 18/18/18 17/17/17
f 18/18/18 20/20/20 17/17/17
f 18/18/18 21/21/21 20/20/20
f 21/21/21 22/22/22 20/20/20
f 25/25/25 24/24/24 23/23/23
f 24/24/24 26/26/26 23/23/23
f 29/29/29 28/28/28 27/27/27
f 28/28/28 30/30/30 27/27/27
f 33/33/33 32/32/32 31/31/31
f 33/33/33 31/31/31 34/34/34
f 37/37/37 36/36/36 35/35/35
f 36/36/36 38/38/38 35/35/35
f 37/37/37 40/40/40 39/39/39
f 41/41/41 37/37/37 39/39/39
f 41/41/41 36/36/36 37/37/37
f 44/44/44 43/43/43 42/42/42
f 43/43/43 45/45/45 42/42/42
f 43/43/43 46/46/46 45/45/45
f 48/48/48 47/47/47 43/43/43
f 47/47/47 46/46/46 43/43/43
f 51/51/51 50/50/50 49/49/49
f 50/50/50 51/51/51 52/52/52
f 51/51/51 53/53/53 52/52/52
f 34/34/34 55/55/55 54/54/54
f 54/54/54 33/33/33 34/34/34
f 57/57/57 56/56/56 33/33/33
f 54/54/54 57/57/57 33/33/33
