g pb_Mesh52728
v 10 -28 8
v 5 -28 8
v 5 14 8
v 10 14 8
v 5 14 -11
v 10 -28 -11
v 10 14 -11
v 5 -28 -11
v 5 14 -11
v 10 14 -11
v 10 14 8
v 5 14 8
v 10 -28 8
v 5 -28 -11
v 5 -28 8
v 10 -28 -11
v 5 -28 8
v 5 -28 -11
v 5 14 -11
v 5 14 8
v 10 14 -11
v 10 -28 8
v 10 14 8
v 10 -28 -11
vt 10 -28
vt 5 -28
vt 5 14
vt 10 14
vt -5 14
vt -10 -28
vt -10 14
vt -5 -28
vt -5 -11
vt -10 -11
vt -10 8
vt -5 8
vt 10 8
vt 5 -11
vt 5 8
vt 10 -11
vt 8 -28
vt -11 -28
vt -11 14
vt 8 14
vt 11 14
vt -8 -28
vt -8 14
vt 11 -28
vn 0 0 1
vn 0 0 1
vn 0 0 1
vn 0 0 1
vn 0 0 -1
vn 0 0 -1
vn 0 0 -1
vn 0 0 -1
vn 0 1 0
vn 0 1 0
vn 0 1 0
vn 0 1 0
vn 0 -1 0
vn 0 -1 0
vn 0 -1 0
vn 0 -1 0
vn -1 0 0
vn -1 0 0
vn -1 0 0
vn -1 0 0
vn 1 0 0
vn 1 0 0
vn 1 0 0
vn 1 0 0
g pb_Mesh52728_0
f 3/3/3 2/2/2 1/1/1
f 3/3/3 1/1/1 4/4/4
f 7/7/7 6/6/6 5/5/5
f 6/6/6 8/8/8 5/5/5
f 11/11/11 10/10/10 9/9/9
f 11/11/11 9/9/9 12/12/12
f 15/15/15 14/14/14 13/13/13
f 14/14/14 16/16/16 13/13/13
f 19/19/19 18/18/18 17/17/17
f 19/19/19 17/17/17 20/20/20
f 23/23/23 22/22/22 21/21/21
f 22/22/22 24/24/24 21/21/21
