g pb_Mesh280298
v 2.000007 2 -8.000002
v 2 2 -2.324581E-06
v 10.0001 2 -8.00001
v 10.0001 2 -1.090757E-05
v 2 8 -7.999995
v 10 8 8.583069E-06
v 2 8 1.66893E-06
v 10 8 -7.999988
v 10.00005 6 -7.999984
v 10.0001 2 -8.00001
v 10.0001 2 -1.090757E-05
v 10.00005 6 1.585488E-05
v 11.00001 8 -7.999983
v 11.00001 6 -7.999983
v 11 6 1.66893E-05
v 11 8 1.66893E-05
v 2 8 -8.99999
v 2.000004 6 -8.99999
v 10 8 -8.999984
v 10.00005 6 -8.999984
v 2.000004 6 -7.999991
v 2.000007 2 -8.000002
v 10.00005 6 -7.999984
v 10.0001 2 -8.00001
v 2 2 -2.324581E-06
v 10.00005 6 1.585488E-05
v 10.0001 2 -1.090757E-05
v 2 6 9.179115E-06
v 2 6 1.000009
v 10 8 1.000016
v 10.00005 6 1.000016
v 2 8 1.000009
v 2 6 9.179115E-06
v 2 2 -2.324581E-06
v 2.000004 6 -7.999991
v 2.000007 2 -8.000002
v 1 8 8.34465E-06
v 1 6 8.34465E-06
v 1.000007 8 -7.999991
v 1.000007 6 -7.999991
v 11 8 1.000017
v 11 6 1.000017
v 10.00005 6 1.585488E-05
v 2 6 9.179115E-06
v 10.00005 6 1.000016
v 2 6 1.000009
v 0.9999992 6 1.000008
v 0.9999992 8 1.000008
v 2 8 1.000009
v 10 8 1.000016
v 1.000008 8 -8.999976
v 1.000008 6 -8.999976
v 10 8 -8.999984
v 2 8 -8.99999
v 2.000004 6 -7.999991
v 10.00005 6 -7.999984
v 2.000004 6 -8.99999
v 10.00005 6 -8.999984
v 11.00001 6 -8.999968
v 11.00001 8 -8.999968
v 11.00001 6 -7.999983
v 11 6 1.66893E-05
v 11.00001 6 -8.999968
v 11.00001 8 -7.999983
v 11.00001 8 -8.999968
v 10 8 -8.999984
v 10.00005 6 -8.999984
v 11.00001 8 -8.999968
v 11.00001 6 -8.999968
v 11 8 1.000017
v 11 8 1.66893E-05
v 11 6 1.000017
v 11 6 1.000017
v 11 8 1.000017
v 1 8 8.34465E-06
v 0.9999992 8 1.000008
v 1.000008 8 -8.999976
v 1.000007 8 -7.999991
v 1.000007 6 -7.999991
v 1.000008 6 -8.999976
v 2.000004 6 -8.99999
v 2 8 -8.99999
v 1.000008 6 -8.999976
v 1.000008 8 -8.999976
v 0.9999992 6 1.000008
v 1 6 8.34465E-06
v 0.9999992 8 1.000008
v 0.9999992 6 1.000008
vt 2.000007 -8.000002
vt 2 -2.324581E-06
vt 10.0001 -8.00001
vt 10.0001 -1.090757E-05
vt -2 -7.999995
vt -10 8.583069E-06
vt -2 1.66893E-06
vt -10 -7.999988
vt 7.999983 5.999886
vt 8.00001 1.999886
vt 9.715463E-06 1.999886
vt -1.704698E-05 5.999886
vt 7.999992 8
vt 7.999992 6
vt -7.510185E-06 6
vt -7.510185E-06 8
vt -1.999992 8
vt -1.999996 6
vt -9.999994 8
vt -10.00004 6
vt -1.999997 5.999978
vt -2 1.999978
vt -10.00005 5.999978
vt -10.00009 1.999978
vt 2 2
vt 10.00005 6
vt 10.0001 2
vt 2 6
vt 2.000001 6
vt 10 8
vt 10.00005 6
vt 2.000001 8
vt 8.225441E-06 6
vt -3.278255E-06 2
vt -7.999992 6
vt -8.000003 2
vt 7.510185E-06 8
vt 7.510185E-06 6
vt -7.999992 8
vt -7.999992 6
vt -1.000006 8
vt -1.000006 6
vt 10.00005 1.585488E-05
vt 2 9.179115E-06
vt 10.00005 1.000016
vt 2 1.000009
vt 1.000008 6
vt 1.000008 8
vt -2 1.000009
vt -10 1.000016
vt -8.999977 8
vt -8.999977 6
vt -10 -8.999984
vt -2 -8.99999
vt 2.000004 -7.999991
vt 10.00005 -7.999984
vt 2.000004 -8.99999
vt 10.00005 -8.999984
vt 8.999978 6
vt 8.999978 8
vt 11.00001 -7.999983
vt 11 1.66893E-05
vt 11.00001 -8.999968
vt -11.00001 -7.999983
vt -11.00001 -8.999968
vt -9.999856 8
vt -9.999906 6
vt -10.99986 8
vt -10.99986 6
vt -11 1.000017
vt -11 1.66893E-05
vt 11 1.000017
vt 11 6
vt 11 8
vt -1 8.34465E-06
vt -0.9999992 1.000008
vt -1.000008 -8.999976
vt -1.000007 -7.999991
vt 1.000007 -7.999991
vt 1.000008 -8.999976
vt -2.000133 6
vt -2.000129 8
vt -1.000136 6
vt -1.000136 8
vt 0.9999992 1.000008
vt 1 8.34465E-06
vt 1 8
vt 1 6
vn 0 -1 0
vn 0 -1 0
vn 0 -1 0
vn 0 -1 0
vn 0 1 0
vn 0 1 0
vn 0 1 0
vn 0 1 0
vn 1 1.192093E-05 1.192093E-07
vn 1 1.144409E-05 -1.192093E-07
vn 1 1.192093E-05 1.192093E-07
vn 1 1.239776E-05 3.576279E-07
vn 1 0 8.34465E-07
vn 1 0 8.34465E-07
vn 1 0 8.34465E-07
vn 1 0 8.34465E-07
vn 8.344649E-07 1.591615E-12 -1
vn 8.344625E-07 1.114125E-11 -1
vn 8.344625E-07 1.114125E-11 -1
vn 8.344601E-07 2.069088E-11 -1
vn 8.3446E-07 2.741814E-06 -1
vn -1.192057E-07 4.649156E-06 -1
vn -1.192057E-07 4.649156E-06 -1
vn -1.072871E-06 6.556499E-06 -1
vn 1.191974E-07 -4.783261E-06 1
vn 1.191974E-07 -4.783261E-06 1
vn 1.07286E-06 -6.690598E-06 1
vn -8.344651E-07 -2.875924E-06 1
vn -8.344623E-07 -1.034544E-11 1
vn -8.344623E-07 -1.034544E-11 1
vn -8.344597E-07 -2.069087E-11 1
vn -8.344649E-07 0 1
vn -1 2.980369E-08 -4.768372E-07
vn -1 -3.427249E-07 -6.631017E-07
vn -1 -3.427249E-07 -6.631017E-07
vn -1 -7.152534E-07 -8.493662E-07
vn -1 0 -8.34465E-07
vn -1 0 -8.34465E-07
vn -1 0 -8.34465E-07
vn -1 0 -8.34465E-07
vn 1 0 9.536743E-07
vn 1 0 9.536743E-07
vn 0 -1 0
vn 0 -1 0
vn 0 -1 0
vn 0 -1 0
vn -1 0 -7.748604E-07
vn -1 0 -7.748604E-07
vn 0 1 0
vn 0 1 0
vn -1 0 -8.344778E-07
vn -1 0 -8.344778E-07
vn 0 1 0
vn 0 1 0
vn 0 -1 0
vn 0 -1 0
vn 0 -1 0
vn 0 -1 0
vn 1 0 9.536893E-07
vn 1 0 9.536893E-07
vn 0 -1 0
vn 0 -1 0
vn 0 -1 0
vn 0 1 0
vn 0 1 0
vn 1.621237E-05 4.019944E-10 -1
vn 1.621277E-05 2.009972E-10 -1
vn 1.621277E-05 2.009972E-10 -1
vn 1.621317E-05 0 -1
vn 0 1 0
vn 0 1 0
vn 0 -1 0
vn -8.344873E-07 -1.034603E-11 1
vn -8.344666E-07 0 1
vn 0 1 0
vn 0 1 0
vn 0 1 0
vn 0 1 0
vn 0 -1 0
vn 0 -1 0
vn -1.430517E-05 -2.728494E-11 -1
vn -1.430519E-05 -1.364247E-11 -1
vn -1.430519E-05 -1.364247E-11 -1
vn -1.430522E-05 0 -1
vn 0 -1 0
vn 0 -1 0
vn -8.344642E-07 0 1
vn -8.344642E-07 0 1
g pb_Mesh280298_0
g pb_Mesh280298_1
f 3/3/3 2/2/2 1/1/1
f 3/3/3 4/4/4 2/2/2
f 7/7/7 6/6/6 5/5/5
f 6/6/6 8/8/8 5/5/5
f 11/11/11 10/10/10 9/9/9
f 12/12/12 11/11/11 9/9/9
f 15/15/15 14/14/14 13/13/13
f 16/16/16 15/15/15 13/13/13
f 19/19/19 18/18/18 17/17/17
f 20/20/20 18/18/18 19/19/19
f 23/23/23 22/22/22 21/21/21
f 24/24/24 22/22/22 23/23/23
f 27/27/27 26/26/26 25/25/25
f 26/26/26 28/28/28 25/25/25
f 31/31/31 30/30/30 29/29/29
f 30/30/30 32/32/32 29/29/29
f 35/35/35 34/34/34 33/33/33
f 35/35/35 36/36/36 34/34/34
f 39/39/39 38/38/38 37/37/37
f 39/39/39 40/40/40 38/38/38
f 41/41/41 15/15/15 16/16/16
f 41/41/41 42/42/42 15/15/15
f 45/45/45 44/44/44 43/43/43
f 45/45/45 46/46/46 44/44/44
f 47/47/47 37/37/37 38/38/38
f 47/47/47 48/48/48 37/37/37
f 49/49/49 6/6/6 7/7/7
f 49/49/49 50/50/50 6/6/6
f 51/51/51 40/40/40 39/39/39
f 51/51/51 52/52/52 40/40/40
f 53/53/53 5/5/5 8/8/8
f 53/53/53 54/54/54 5/5/5
f 57/57/57 56/56/56 55/55/55
f 57/57/57 58/58/58 56/56/56
f 59/59/59 13/13/13 14/14/14
f 59/59/59 60/60/60 13/13/13
f 61/61/61 43/43/43 56/56/56
f 61/61/61 62/62/62 43/43/43
f 63/63/63 56/56/56 58/58/58
f 63/63/63 61/61/61 56/56/56
f 64/64/64 53/53/53 8/8/8
f 64/64/64 65/65/65 53/53/53
f 68/68/68 67/67/67 66/66/66
f 68/68/68 69/69/69 67/67/67
f 70/70/70 6/6/6 50/50/50
f 70/70/70 71/71/71 6/6/6
f 71/71/71 8/8/8 6/6/6
f 71/71/71 64/64/64 8/8/8
f 62/62/62 45/45/45 43/43/43
f 62/62/62 72/72/72 45/45/45
f 73/73/73 30/30/30 31/31/31
f 73/73/73 74/74/74 30/30/30
f 75/75/75 49/49/49 7/7/7
f 75/75/75 76/76/76 49/49/49
f 77/77/77 5/5/5 54/54/54
f 77/77/77 78/78/78 5/5/5
f 79/79/79 57/57/57 55/55/55
f 79/79/79 80/80/80 57/57/57
f 83/83/83 82/82/82 81/81/81
f 83/83/83 84/84/84 82/82/82
f 85/85/85 44/44/44 46/46/46
f 85/85/85 86/86/86 44/44/44
f 78/78/78 7/7/7 5/5/5
f 78/78/78 75/75/75 7/7/7
f 86/86/86 55/55/55 44/44/44
f 86/86/86 79/79/79 55/55/55
f 87/87/87 29/29/29 32/32/32
f 87/87/87 88/88/88 29/29/29
