g pb_Mesh147386
v -2 0.25 0
v -2 0.25 -2.5
v -2 1.75 0
v -2 1.75 -2.5
v 0 0.25 -2.5
v 0 0.25 0
v 0 1.75 -2.5
v 0 1.75 0
v -0.25 2 0
v -1.75 2 0
v -0.25 2 -2.5
v -1.75 2 -2.5
v -0.25 0 -2.5
v -1.75 0 -2.5
v -0.25 0 0
v -1.75 0 0
v -1.75 2 -2.5
v -2 1.75 0
v -2 1.75 -2.5
v -1.75 2 0
v -0.25 2 0
v 0 1.75 -2.5
v 0 1.75 0
v -0.25 2 -2.5
v -0.25 0 -2.5
v 0 0.25 0
v 0 0.25 -2.5
v -0.25 0 0
v -1.75 0 0
v -2 0.25 -2.5
v -2 0.25 0
v -1.75 0 -2.5
v -2 1.75 -2.5
v -1.75 0 -2.5
v -1.75 2 -2.5
v -0.25 0 -2.5
v 0 1.75 -2.5
v 0 0.25 -2.5
v -0.25 2 -2.5
v -2 0.25 -2.5
v -1.75 0 0
v -2 0.25 0
v -2 1.75 0
v 0 1.75 0
v -1.75 2 0
v -0.25 2 0
v 0 0.25 0
v -0.25 0 0
vt 0 0.25
vt -2 0.25
vt 0 1.75
vt -2 1.75
vt 2 0.25
vt 0 0.25
vt 2 1.75
vt 0 1.75
vt 0.25 0
vt 1.75 0
vt 0.25 -2
vt 1.75 -2
vt -0.25 -2
vt -1.75 -2
vt -0.25 0
vt -1.75 0
vt -0.1767767 -2.5
vt 0.1767767 0
vt 0.1767767 -2.5
vt -0.1767767 0
vt 1.59099 0
vt 1.237437 -2.5
vt 1.237437 0
vt 1.59099 -2.5
vt -0.1767767 -2.5
vt 0.1767767 0
vt 0.1767767 -2.5
vt -0.1767767 0
vt -1.237437 0
vt -1.59099 -2.5
vt -1.59099 0
vt -1.237437 -2.5
vt 2 1.75
vt 1.75 0
vt 1.75 2
vt 0.25 0
vt 0 1.75
vt 0 0.25
vt 0.25 2
vt 2 0.25
vt -1.75 0
vt -2 0.25
vt -2 1.75
vt 0 1.75
vt -1.75 2
vt -0.25 2
vt 0 0.25
vt -0.25 0
vn -1 0 0
vn -1 0 0
vn -1 0 0
vn -1 0 0
vn 1 0 0
vn 1 0 0
vn 1 0 0
vn 1 0 0
vn 0 1 0
vn 0 1 0
vn 0 1 0
vn 0 1 0
vn 0 -1 0
vn 0 -1 0
vn 0 -1 0
vn 0 -1 0
vn -0.7071068 0.7071068 0
vn -0.7071068 0.7071068 0
vn -0.7071068 0.7071068 0
vn -0.7071068 0.7071068 0
vn 0.7071068 0.7071068 0
vn 0.7071068 0.7071068 0
vn 0.7071068 0.7071068 0
vn 0.7071068 0.7071068 0
vn 0.7071068 -0.7071068 0
vn 0.7071068 -0.7071068 0
vn 0.7071068 -0.7071068 0
vn 0.7071068 -0.7071068 0
vn -0.7071068 -0.7071068 0
vn -0.7071068 -0.7071068 0
vn -0.7071068 -0.7071068 0
vn -0.7071068 -0.7071068 0
vn 0 0 -1
vn 0 0 -1
vn 0 0 -1
vn 0 0 -1
vn 0 0 -1
vn 0 0 -1
vn 0 0 -1
vn 0 0 -1
vn 0 0 1
vn 0 0 1
vn 0 0 1
vn 0 0 1
vn 0 0 1
vn 0 0 1
vn 0 0 1
vn 0 0 1
g pb_Mesh147386_0
f 3/3/3 2/2/2 1/1/1
f 3/3/3 4/4/4 2/2/2
f 7/7/7 6/6/6 5/5/5
f 7/7/7 8/8/8 6/6/6
f 11/11/11 10/10/10 9/9/9
f 11/11/11 12/12/12 10/10/10
f 15/15/15 14/14/14 13/13/13
f 15/15/15 16/16/16 14/14/14
f 19/19/19 18/18/18 17/17/17
f 18/18/18 20/20/20 17/17/17
f 23/23/23 22/22/22 21/21/21
f 22/22/22 24/24/24 21/21/21
f 27/27/27 26/26/26 25/25/25
f 26/26/26 28/28/28 25/25/25
f 31/31/31 30/30/30 29/29/29
f 30/30/30 32/32/32 29/29/29
f 35/35/35 34/34/34 33/33/33
f 36/36/36 34/34/34 35/35/35
f 37/37/37 36/36/36 35/35/35
f 37/37/37 38/38/38 36/36/36
f 37/37/37 35/35/35 39/39/39
f 34/34/34 40/40/40 33/33/33
f 43/43/43 42/42/42 41/41/41
f 46/46/46 45/45/45 44/44/44
f 48/48/48 47/47/47 44/44/44
f 45/45/45 48/48/48 44/44/44
f 45/45/45 41/41/41 48/48/48
f 43/43/43 41/41/41 45/45/45
