g pb_Mesh223360
v -10 8 0
v -10 8 -4
v -39.5 8 0
v -39.5 8 -4
v -10 8 -11
v -10 0 -11
v -39.5 8 -11
v -39.5 -4 -11
v -10 0 -4
v -10 0 0
v -39.5 -4 -4
v -39.5 -4 0
v -10 0 13
v -10 8 13
v -39.5 -4 13
v -39.5 8 13
v -10 8 -4
v -10 0 -4
v -10 8 -11
v -10 0 -11
v -39.5 8 -4
v -10 8 -4
v -39.5 8 -11
v -10 8 -11
v -10 0 -4
v -39.5 -4 -4
v -10 0 -11
v -39.5 -4 -11
v -10 0 0
v -10 8 0
v -10 0 11
v -10 8 11
v -39.5 -4 0
v -10 0 0
v -39.5 -4 11
v -10 0 11
v -10 8 0
v -39.5 8 0
v -10 8 11
v -39.5 8 11
v -10 0 11
v -10 8 11
v -10 0 13
v -10 8 13
v -39.5 -4 11
v -10 0 11
v -39.5 -4 13
v -10 0 13
v -10 8 11
v -39.5 8 11
v -10 8 13
v -39.5 8 13
v -39.5 -4 11
v -10 0 11
v -39.5 -4 11
v -10 0 11
v -10 0 13
v -39.5 -4 13
v -10 0 13
v -39.5 -4 13
v -44 -4 -11
v -44 8 -11
v -44 -4 13
v -44 8 13
v -10 0 -4
v -10 0 0
v 0 0.0001001358 -4
v 0 0.0001001358 0
v 0 0.0001001358 0
v -10 0 0
v 0 3 0
v -10 3 0
v -39.5 8 -11
v -39.5 -4 -11
v -44 8 -11
v -44 -4 -11
v -39.5 -4 -11
v -39.5 -4 13
v -44 -4 -11
v -44 -4 13
v -39.5 -4 13
v -39.5 8 13
v -44 -4 13
v -44 8 13
v -39.5 8 13
v -39.5 8 -11
v -44 8 13
v -44 8 -11
vt -10 0
vt -10 -4
vt -39.5 0
vt -39.5 -4
vt -10 8
vt -10 0
vt -39.5 8
vt -39.5 -4
vt 9.909321 -4
vt 9.909321 0
vt 39.67927 -4
vt 39.67927 0
vt 10 0
vt 10 8
vt 39.5 -4
vt 39.5 8
vt -4 8
vt -4 0
vt -11 8
vt -11 0
vt -39.5 -4
vt -10 -4
vt -39.5 -11
vt -10 -11
vt 9.909321 -4
vt 39.67927 -4
vt 9.909321 -11
vt 39.67927 -11
vt 0 0
vt 0 8
vt 11 0
vt 11 8
vt 39.67927 0
vt 9.909321 0
vt 39.67927 11
vt 9.909321 11
vt -10 0
vt -39.5 0
vt -10 11
vt -39.5 11
vt 11 0
vt 11 8
vt 13 0
vt 13 8
vt 39.67927 11
vt 9.909321 11
vt 39.67927 13
vt 9.909321 13
vt -10 11
vt -39.5 11
vt -10 13
vt -39.5 13
vt 0 0
vt 0 0
vt 0 0
vt 0 0
vt 0 0
vt 0 0
vt 0 0
vt 0 0
vt 11 -4
vt 11 8
vt -13 -4
vt -13 8
vt 10 -4
vt 10 0
vt -1.002718E-09 -4
vt -1.002718E-09 0
vt 0 0.0001001358
vt 10 0
vt 0 3
vt 10 3
vt -39.5 8
vt -39.5 -4
vt -44 8
vt -44 -4
vt 39.5 -11
vt 39.5 13
vt 44 -11
vt 44 13
vt 39.5 -4
vt 39.5 8
vt 44 -4
vt 44 8
vt -39.5 13
vt -39.5 -11
vt -44 13
vt -44 -11
vn 0 -1 0
vn 0 -1 0
vn 0 -1 0
vn 0 -1 0
vn 0 0 1
vn 0 0 1
vn 0 0 1
vn 0 0 1
vn -0.1343637 0.9909321 0
vn -0.1343637 0.9909321 0
vn -0.1343637 0.9909321 0
vn -0.1343637 0.9909321 0
vn 0 0 -1
vn 0 0 -1
vn 0 0 -1
vn 0 0 -1
vn -1 0 0
vn -1 0 0
vn -1 0 0
vn -1 0 0
vn 0 -1 0
vn 0 -1 0
vn 0 -1 0
vn 0 -1 0
vn -0.1343637 0.9909321 0
vn -0.1343637 0.9909321 0
vn -0.1343637 0.9909321 0
vn -0.1343637 0.9909321 0
vn -1 0 0
vn -1 0 0
vn -1 0 0
vn -1 0 0
vn -0.1343637 0.9909321 0
vn -0.1343637 0.9909321 0
vn -0.1343637 0.9909321 0
vn -0.1343637 0.9909321 0
vn 0 -1 0
vn 0 -1 0
vn 0 -1 0
vn 0 -1 0
vn -1 0 0
vn -1 0 0
vn -1 0 0
vn -1 0 0
vn -0.1343637 0.9909321 0
vn -0.1343637 0.9909321 0
vn -0.1343637 0.9909321 0
vn -0.1343637 0.9909321 0
vn 0 -1 0
vn 0 -1 0
vn 0 -1 0
vn 0 -1 0
vn 0 0 0
vn 0 0 0
vn 0 0 0
vn 0 0 0
vn 0 0 0
vn 0 0 0
vn 0 0 0
vn 0 0 0
vn 1 0 0
vn 1 0 0
vn 1 0 0
vn 1 0 0
vn -1.001358E-05 1 0
vn -1.001358E-05 1 0
vn -1.001358E-05 1 0
vn -1.001358E-05 1 0
vn 0 0 -1
vn 0 0 -1
vn 0 0 -1
vn 0 0 -1
vn 0 0 1
vn 0 0 1
vn 0 0 1
vn 0 0 1
vn 0 1 0
vn 0 1 0
vn 0 1 0
vn 0 1 0
vn 0 0 -1
vn 0 0 -1
vn 0 0 -1
vn 0 0 -1
vn 0 -1 0
vn 0 -1 0
vn 0 -1 0
vn 0 -1 0
g pb_Mesh223360_0
f 3/3/3 2/2/2 1/1/1
f 3/3/3 4/4/4 2/2/2
f 7/7/7 6/6/6 5/5/5
f 7/7/7 8/8/8 6/6/6
f 11/11/11 10/10/10 9/9/9
f 11/11/11 12/12/12 10/10/10
f 15/15/15 14/14/14 13/13/13
f 15/15/15 16/16/16 14/14/14
f 19/19/19 18/18/18 17/17/17
f 19/19/19 20/20/20 18/18/18
f 23/23/23 22/22/22 21/21/21
f 23/23/23 24/24/24 22/22/22
f 27/27/27 26/26/26 25/25/25
f 27/27/27 28/28/28 26/26/26
f 31/31/31 30/30/30 29/29/29
f 31/31/31 32/32/32 30/30/30
f 35/35/35 34/34/34 33/33/33
f 35/35/35 36/36/36 34/34/34
f 39/39/39 38/38/38 37/37/37
f 39/39/39 40/40/40 38/38/38
f 43/43/43 42/42/42 41/41/41
f 43/43/43 44/44/44 42/42/42
f 47/47/47 46/46/46 45/45/45
f 47/47/47 48/48/48 46/46/46
f 51/51/51 50/50/50 49/49/49
f 51/51/51 52/52/52 50/50/50
f 55/55/55 54/54/54 53/53/53
f 55/55/55 56/56/56 54/54/54
f 59/59/59 58/58/58 57/57/57
f 59/59/59 60/60/60 58/58/58
f 61/61/61 62/62/62 63/63/63
f 62/62/62 64/64/64 63/63/63
f 65/65/65 66/66/66 67/67/67
f 66/66/66 68/68/68 67/67/67
f 69/69/69 70/70/70 71/71/71
f 70/70/70 72/72/72 71/71/71
f 75/75/75 74/74/74 73/73/73
f 75/75/75 76/76/76 74/74/74
f 79/79/79 78/78/78 77/77/77
f 79/79/79 80/80/80 78/78/78
f 83/83/83 82/82/82 81/81/81
f 83/83/83 84/84/84 82/82/82
f 87/87/87 86/86/86 85/85/85
f 87/87/87 88/88/88 86/86/86
g pb_Mesh223360_1
