g pb_Mesh191324
v 0 0 0
v -16 0 0
v 0 4 0
v -16 4 0
v -16 0 0
v -16 0 -16
v -16 4 0
v -16 4 -16
v 0 3.5 -16
v 0 4 -15.5
v -0.5 4 -16
v 0 4 0
v 0 4 -15.5
v 0 3.5 -16
v 0 0 0
v 0 0 -16
v -4.5 4 -15.5
v -4.75 4 -16
v -4.5 3.5 -16
v -4.75 4 -16
v -16 4 -16
v -16 0 -16
v -4.5 0 -16
v -4.5 3.5 -16
v -0.5 4 -16
v 0 4 -15.5
v -4.25 4 -16
v 0 4 0
v -4.5 4 -15.5
v -4.75 4 -16
v -16 4 0
v -16 4 -16
v -4.5 4 -15.5
v -4.5 3.5 -16
v -4.25 4 -16
v -4.25 4 -16
v 0 0 -16
v 0 3.5 -16
v -0.5 4 -16
vt 0 0
vt -16 0
vt 0 4
vt -16 4
vt 0 0
vt -16 0
vt 0 4
vt -16 4
vt 2.683318 -2.675384
vt 2.599464 -2.026943
vt 3.176236 -2.18046
vt 0 4
vt 15.5 4
vt 16 3.5
vt 0 0
vt 16 0
vt 7.035729 -1.74372
vt 7.366043 -1.912971
vt 7.119583 -2.39216
vt 7.366043 -1.912971
vt 18.45671 -1.204913
vt 18.45671 -4.912546
vt 7.119583 -5.636339
vt 7.119583 -2.39216
vt 0.5 -16
vt 0 -15.5
vt 4.25 -16
vt 0 0
vt 4.5 -15.5
vt 4.75 -16
vt 16 0
vt 16 -16
vt 7.035729 -1.74372
vt 7.119583 -2.39216
vt 6.873124 -1.944441
vt 6.873124 -1.944441
vt 2.683318 -5.919563
vt 2.683318 -2.675384
vt 3.176236 -2.18046
vn 0 0 1
vn 0 0 1
vn 0 0 1
vn 0 0 1
vn -1 0 0
vn -1 0 0
vn -1 0 0
vn -1 0 0
vn 0.5773503 0.5773503 -0.5773503
vn 0.5773503 0.5773503 -0.5773503
vn 0.5773503 0.5773503 -0.5773503
vn 1 0 0
vn 1 0 0
vn 1 0 0
vn 1 0 0
vn 1 0 0
vn 0.8164966 0.4082483 -0.4082483
vn 0.8164966 0.4082483 -0.4082483
vn 0.8164966 0.4082483 -0.4082483
vn 0 0 -1
vn 0 0 -1
vn 0 0 -1
vn 0 0 -1
vn 0 0 -1
vn 0 1 0
vn 0 1 0
vn 0 1 0
vn 0 1 0
vn 0 1 0
vn 0 1 0
vn 0 1 0
vn 0 1 0
vn -0.8164966 0.4082483 -0.4082483
vn -0.8164966 0.4082483 -0.4082483
vn -0.8164966 0.4082483 -0.4082483
vn 0 0 -1
vn 0 0 -1
vn 0 0 -1
vn 0 0 -1
g pb_Mesh191324_0
g pb_Mesh191324_1
f 3/3/3 2/2/2 1/1/1
f 3/3/3 4/4/4 2/2/2
f 7/7/7 6/6/6 5/5/5
f 7/7/7 8/8/8 6/6/6
f 11/11/11 10/10/10 9/9/9
f 14/14/14 13/13/13 12/12/12
f 15/15/15 14/14/14 12/12/12
f 15/15/15 16/16/16 14/14/14
f 19/19/19 18/18/18 17/17/17
f 22/22/22 21/21/21 20/20/20
f 23/23/23 22/22/22 20/20/20
f 20/20/20 24/24/24 23/23/23
f 27/27/27 26/26/26 25/25/25
f 27/27/27 28/28/28 26/26/26
f 28/28/28 27/27/27 29/29/29
f 28/28/28 29/29/29 30/30/30
f 30/30/30 32/32/32 31/31/31
f 28/28/28 30/30/30 31/31/31
f 35/35/35 34/34/34 33/33/33
f 23/23/23 24/24/24 36/36/36
f 23/23/23 36/36/36 37/37/37
f 37/37/37 36/36/36 38/38/38
f 38/38/38 36/36/36 39/39/39
