g pb_Mesh566162
v -4 16 -16
v 0 16 -16
v 0 16 8
v -4 16 8
v -24 16 -16
v -24 16 8
v -24 0 8
v -24 0 -16
v -24 8 -16
v -24 8 8
v -24 16 -16
v -24 16 8
v 2 8 -16
v 2 0 8
v 2 8 8
v 2 0 -16
v 0 16 -16
v 0 8 8
v 0 16 8
v 0 8 -16
v 0 0 10
v -4 0 10
v -4 8 10
v 0 8 10
v 0 8 8
v -4 8 8
v -4 16 8
v 0 16 8
v -24 0 10
v -24 8 10
v -24 8 8
v -24 16 8
v -24 8 -16
v -4 0 -16
v -4 8 -16
v -24 0 -16
v -24 16 -16
v -4 16 -16
v 0 0 -16
v 0 8 -16
v 0 16 -16
v -24 0 10
v -24 8 10
v 2 8 10
v 2 0 10
v -24 8 8
v -4 8 8
v -24 8 10
v -4 8 10
v 0 8 8
v 0 8 10
v 0 8 -16
v 2 8 8
v 2 8 -16
v 2 8 10
v 2 0 10
v 2 8 10
v 2 8 -16
v 2 0 -16
v -24 -55.5 8
v -24 -55.5 -16
v 2 -55.5 -16
v 2 -55.5 8
v 0 -55.5 10
v -4 -55.5 10
v -24 -55.5 10
v -24 -55.5 -16
v -4 -55.5 -16
v 0 -55.5 -16
v -24 -55.5 10
v 2 -55.5 10
v 2 -55.5 10
v 2 -55.5 -16
vt 4 -16
vt 0 -16
vt 0 8
vt 4 8
vt 24 -16
vt 24 8
vt 8 0
vt -16 0
vt -16 8
vt 8 8
vt -16 16
vt 8 16
vt 16 8
vt -8 0
vt -8 8
vt 16 0
vt 16 16
vt -8 8
vt -8 16
vt 16 8
vt 0 0
vt -4 0
vt -4 8
vt 0 8
vt 0 8
vt -4 8
vt -4 16
vt 0 16
vt -24 0
vt -24 8
vt -24 8
vt -24 16
vt 24 8
vt 4 0
vt 4 8
vt 24 0
vt 24 16
vt 4 16
vt 0 0
vt 0 8
vt 0 16
vt 10 0
vt 10 8
vt -10 8
vt -10 0
vt 24 8
vt 4 8
vt 24 10
vt 4 10
vt 0 8
vt 0 10
vt 0 -16
vt -2 8
vt -2 -16
vt -2 10
vt 2 0
vt 2 8
vt -2 8
vt -2 0
vt 8 -55.5
vt -16 -55.5
vt 16 -55.5
vt -8 -55.5
vt 0 -55.5
vt -4 -55.5
vt -24 -55.5
vt 24 -55.5
vt 4 -55.5
vt 0 -55.5
vt 10 -55.5
vt -10 -55.5
vt 2 -55.5
vt -2 -55.5
vn 0 1 0
vn 0 1 0
vn 0 1 0
vn 0 1 0
vn 0 1 0
vn 0 1 0
vn -1 0 0
vn -1 0 0
vn -1 0 0
vn -1 0 0
vn -1 0 0
vn -1 0 0
vn 1 0 0
vn 1 0 0
vn 1 0 0
vn 1 0 0
vn 1 0 0
vn 1 0 0
vn 1 0 0
vn 1 0 0
vn 0 0 1
vn 0 0 1
vn 0 0 1
vn 0 0 1
vn 0 0 1
vn 0 0 1
vn 0 0 1
vn 0 0 1
vn 0 0 1
vn 0 0 1
vn 0 0 1
vn 0 0 1
vn 0 0 -1
vn 0 0 -1
vn 0 0 -1
vn 0 0 -1
vn 0 0 -1
vn 0 0 -1
vn 0 0 -1
vn 0 0 -1
vn 0 0 -1
vn -1 0 0
vn -1 0 0
vn 1 0 0
vn 1 0 0
vn 0 1 0
vn 0 1 0
vn 0 1 0
vn 0 1 0
vn 0 1 0
vn 0 1 0
vn 0 1 0
vn 0 1 0
vn 0 1 0
vn 0 1 0
vn 0 0 1
vn 0 0 1
vn 0 0 -1
vn 0 0 -1
vn -1 0 0
vn -1 0 0
vn 1 0 0
vn 1 0 0
vn 0 0 1
vn 0 0 1
vn 0 0 1
vn 0 0 -1
vn 0 0 -1
vn 0 0 -1
vn -1 0 0
vn 1 0 0
vn 0 0 1
vn 0 0 -1
g pb_Mesh566162_0
f 3/3/3 2/2/2 1/1/1
f 3/3/3 1/1/1 4/4/4
f 4/4/4 1/1/1 5/5/5
f 4/4/4 5/5/5 6/6/6
f 9/9/9 8/8/8 7/7/7
f 9/9/9 7/7/7 10/10/10
f 11/11/11 9/9/9 10/10/10
f 11/11/11 10/10/10 12/12/12
f 15/15/15 14/14/14 13/13/13
f 14/14/14 16/16/16 13/13/13
f 19/19/19 18/18/18 17/17/17
f 18/18/18 20/20/20 17/17/17
f 23/23/23 22/22/22 21/21/21
f 23/23/23 21/21/21 24/24/24
f 27/27/27 26/26/26 25/25/25
f 27/27/27 25/25/25 28/28/28
f 30/30/30 29/29/29 22/22/22
f 30/30/30 22/22/22 23/23/23
f 32/32/32 31/31/31 26/26/26
f 32/32/32 26/26/26 27/27/27
f 35/35/35 34/34/34 33/33/33
f 34/34/34 36/36/36 33/33/33
f 38/38/38 35/35/35 37/37/37
f 35/35/35 33/33/33 37/37/37
f 40/40/40 39/39/39 35/35/35
f 39/39/39 34/34/34 35/35/35
f 41/41/41 40/40/40 38/38/38
f 40/40/40 35/35/35 38/38/38
f 42/42/42 10/10/10 7/7/7
f 42/42/42 43/43/43 10/10/10
f 44/44/44 14/14/14 15/15/15
f 44/44/44 45/45/45 14/14/14
f 48/48/48 47/47/47 46/46/46
f 48/48/48 49/49/49 47/47/47
f 49/49/49 50/50/50 47/47/47
f 49/49/49 51/51/51 50/50/50
f 53/53/53 52/52/52 50/50/50
f 53/53/53 54/54/54 52/52/52
f 55/55/55 50/50/50 51/51/51
f 55/55/55 53/53/53 50/50/50
f 56/56/56 24/24/24 21/21/21
f 56/56/56 57/57/57 24/24/24
f 58/58/58 39/39/39 40/40/40
f 58/58/58 59/59/59 39/39/39
f 7/7/7 8/8/8 60/60/60
f 8/8/8 61/61/61 60/60/60
f 16/16/16 14/14/14 62/62/62
f 14/14/14 63/63/63 62/62/62
f 21/21/21 22/22/22 64/64/64
f 22/22/22 65/65/65 64/64/64
f 22/22/22 29/29/29 65/65/65
f 29/29/29 66/66/66 65/65/65
f 36/36/36 34/34/34 67/67/67
f 34/34/34 68/68/68 67/67/67
f 34/34/34 39/39/39 68/68/68
f 39/39/39 69/69/69 68/68/68
f 42/42/42 7/7/7 70/70/70
f 7/7/7 60/60/60 70/70/70
f 14/14/14 45/45/45 63/63/63
f 45/45/45 71/71/71 63/63/63
f 56/56/56 21/21/21 72/72/72
f 21/21/21 64/64/64 72/72/72
f 39/39/39 59/59/59 69/69/69
f 59/59/59 73/73/73 69/69/69
