g pb_Mesh302860
v 0 0 0
v -11.65598 0 1.546843E-05
v 0 1 0
v -11.65598 1 1.546843E-05
v -11.65598 0 1.546843E-05
v -11.65598 0 -0.999986
v -11.65598 1 1.546843E-05
v -11.65598 1 -0.999986
v -11.65598 0 -0.999986
v 0 0 -1
v -11.65598 1 -0.999986
v 0 1 -1
v 0 0 -1
v 0 0 0
v 0 1 -1
v 0 1 0
v 0 1 0
v -11.65598 1 1.546843E-05
v 0 1 -1
v -11.65598 1 -0.999986
v 0 0 -1
v -11.65598 0 -0.999986
v 0 0 0
v -11.65598 0 1.546843E-05
vt 0 0
vt -11.65598 0
vt 0 1
vt -11.65598 1
vt 2.658442E-05 0
vt -0.9999749 0
vt 2.658442E-05 1
vt -0.9999749 1
vt 11.65597 0
vt -1.201709E-06 0
vt 11.65597 1
vt -1.201709E-06 1
vt 1 0
vt 0 0
vt 1 1
vt 0 1
vt 0 0
vt 11.65598 1.546843E-05
vt 0 -1
vt 11.65598 -0.999986
vt 0 -1
vt -11.65598 -0.999986
vt 0 0
vt -11.65598 1.546843E-05
vn 1.327082E-06 0 1
vn 1.327082E-06 0 1
vn 1.327082E-06 0 1
vn 1.327082E-06 0 1
vn -1 0 -9.53673E-07
vn -1 0 -9.53673E-07
vn -1 0 -9.53673E-07
vn -1 0 -9.53673E-07
vn -1.201709E-06 0 -1
vn -1.201709E-06 0 -1
vn -1.201709E-06 0 -1
vn -1.201709E-06 0 -1
vn 1 0 0
vn 1 0 0
vn 1 0 0
vn 1 0 0
vn 0 1 0
vn 0 1 0
vn 0 1 0
vn 0 1 0
vn 0 -1 0
vn 0 -1 0
vn 0 -1 0
vn 0 -1 0
g pb_Mesh302860_0
g pb_Mesh302860_1
f 3/3/3 2/2/2 1/1/1
f 3/3/3 4/4/4 2/2/2
f 7/7/7 6/6/6 5/5/5
f 7/7/7 8/8/8 6/6/6
f 11/11/11 10/10/10 9/9/9
f 11/11/11 12/12/12 10/10/10
f 15/15/15 14/14/14 13/13/13
f 15/15/15 16/16/16 14/14/14
f 19/19/19 18/18/18 17/17/17
f 19/19/19 20/20/20 18/18/18
f 23/23/23 22/22/22 21/21/21
f 23/23/23 24/24/24 22/22/22
