g pb_Mesh276956
v -14 0 8
v -14 0 -4
v -14 9 8
v -14 9 -4
v -14 9 -4
v 20 0 -4.000092
v 20 9 -4.000092
v -14 0 -4
v 20 9 -4.000092
v 49 0 -4
v 49 9 -4
v 20 0 -4.000092
v 49 0 8
v 20 0 -4.000092
v 20 0 7.999908
v 49 0 -4
v -14 0 -4
v -14 0 8
v 20 9 -4.000092
v 49 9 -4
v 49 9 8
v 20 9 7.999908
v -14 9 -4
v -14 9 8
vt 8 0
vt -4 0
vt 8 9
vt -4 9
vt 13.99999 9
vt -20.00001 0
vt -20.00001 9
vt 13.99999 0
vt -19.99999 9
vt -48.99999 0
vt -48.99999 9
vt -19.99999 0
vt 49 8
vt 20 -4.000092
vt 20 7.999908
vt 49 -4
vt -14 -4
vt -14 8
vt -20 -4.000092
vt -49 -4
vt -49 8
vt -20 7.999908
vt 14 -4
vt 14 8
vn -1 0 0
vn -1 0 0
vn -1 0 0
vn -1 0 0
vn -2.692728E-06 0 -1
vn -2.692728E-06 0 -1
vn -2.692728E-06 0 -1
vn -2.692728E-06 0 -1
vn 3.156991E-06 0 -1
vn 3.156991E-06 0 -1
vn 3.156991E-06 0 -1
vn 3.156991E-06 0 -1
vn 0 -1 0
vn 0 -1 0
vn 0 -1 0
vn 0 -1 0
vn 0 -1 0
vn 0 -1 0
vn 0 1 0
vn 0 1 0
vn 0 1 0
vn 0 1 0
vn 0 1 0
vn 0 1 0
g pb_Mesh276956_0
f 3/3/3 2/2/2 1/1/1
f 3/3/3 4/4/4 2/2/2
f 7/7/7 6/6/6 5/5/5
f 6/6/6 8/8/8 5/5/5
f 11/11/11 10/10/10 9/9/9
f 10/10/10 12/12/12 9/9/9
f 15/15/15 14/14/14 13/13/13
f 14/14/14 16/16/16 13/13/13
f 18/18/18 17/17/17 15/15/15
f 17/17/17 14/14/14 15/15/15
g pb_Mesh276956_1
f 21/21/21 20/20/20 19/19/19
f 21/21/21 19/19/19 22/22/22
f 22/22/22 19/19/19 23/23/23
f 22/22/22 23/23/23 24/24/24
