g pb_Mesh220804
v 1 0 0
v -45 0 0
v 1 1 0
v -45 1 0
v -45 0 0
v -45 0 -1.924988
v -45 1 0
v -45 1 -1.974998
v -45 0 -1.924988
v 1 0 -2
v -45 1 -1.974998
v 1 1 -2
v 55 0 -2
v 55 0 0
v 55 1 -2
v 55 1 0
v 1 1 0
v -45 1 0
v 1 1 -2
v -45 1 -1.974998
v 1 0 -2
v -45 0 -1.924988
v 1 0 0
v -45 0 0
v 55 0 -2
v 55 0 0
v 1 1 -2
v 1 0 -2
v 55 1 -2
v 55 0 -2
v 55 0 0
v 55 1 0
v 55 1 0
v 55 1 -2
vt 1 0
vt -45 0
vt 1 1
vt -45 1
vt 0 0
vt -1.924988 0
vt 0 1
vt -1.974998 1
vt 44.9968 0.0998148
vt -1.00326 0.0998148
vt 44.99672 1.101065
vt -1.00326 1.098567
vt 2 0
vt 0 0
vt 2 1
vt 0 1
vt -1 0
vt 45 0
vt -1 -2
vt 45 -1.974998
vt 1 -2
vt -45 -1.924988
vt 1 0
vt -45 0
vt 55 -2
vt 55 0
vt -1 1
vt -1 0
vt -55 1
vt -55 0
vt 55 0
vt 55 1
vt -55 0
vt -55 -2
vn 0 0 1
vn 0 0 1
vn 0 0 1
vn 0 0 1
vn -1 0 0
vn -1 0 0
vn -1 0 0
vn -1 0 0
vn -0.001628663 -0.04994819 -0.9987505
vn -0.001086087 -0.0249741 -0.9993752
vn -0.001086087 -0.0249741 -0.9993752
vn -0.0005435114 0 -0.9999999
vn 1 0 0
vn 1 0 0
vn 1 0 0
vn 1 0 0
vn 0 1 0
vn 0 1 0
vn 0 1 0
vn 0 1 0
vn 0 -1 0
vn 0 -1 0
vn 0 -1 0
vn 0 -1 0
vn 0 -1 0
vn 0 -1 0
vn 0 0 -1
vn 0 0 -1
vn 0 0 -1
vn 0 0 -1
vn 0 0 1
vn 0 0 1
vn 0 1 0
vn 0 1 0
g pb_Mesh220804_0
g pb_Mesh220804_1
f 3/3/3 2/2/2 1/1/1
f 3/3/3 4/4/4 2/2/2
f 7/7/7 6/6/6 5/5/5
f 7/7/7 8/8/8 6/6/6
f 11/11/11 10/10/10 9/9/9
f 11/11/11 12/12/12 10/10/10
f 15/15/15 14/14/14 13/13/13
f 15/15/15 16/16/16 14/14/14
f 19/19/19 18/18/18 17/17/17
f 19/19/19 20/20/20 18/18/18
f 23/23/23 22/22/22 21/21/21
f 23/23/23 24/24/24 22/22/22
f 25/25/25 23/23/23 21/21/21
f 25/25/25 26/26/26 23/23/23
f 29/29/29 28/28/28 27/27/27
f 29/29/29 30/30/30 28/28/28
f 31/31/31 3/3/3 1/1/1
f 31/31/31 32/32/32 3/3/3
f 33/33/33 19/19/19 17/17/17
f 33/33/33 34/34/34 19/19/19
