g pb_Mesh436374
v 0.2499991 0 2.5
v 0.7500015 0.75 3.124997
v 1.529022 -0.2508097 4.279861
v 1.529022 0.8078547 4.279861
v 1.529022 -0.2508097 4.279861
v 1.529022 0.8078547 4.279861
v 6.470978 -0.2508097 4.279861
v 6.470978 0.8078547 4.279861
v 6.470978 -0.2508097 4.279861
v 6.470978 0.8078547 4.279861
v 7.499999 0 2.499971
v 7.499999 0.75 2.499971
v 1.249999 0 2.499995
v 3.999999 0 2.499985
v 2 0 3.464102
v 2 0 3.464102
v 3.999999 0 2.499985
v 6 0 3.464102
v 6 0 3.464102
v 3.999999 0 2.499985
v 6.499999 0 2.499975
v 6 1.825338 3.464104
v 2 1.825338 3.464104
v 5.566864 1.825417 2.71389
v 2.433136 1.825417 2.71389
v 6.624999 1.75 2.374974
v 6 1.825338 3.464104
v 5.749999 1.75 2.499978
v 5.566864 1.825417 2.71389
v 2 1.825338 3.464104
v 1.750002 1.75 3.124994
v 2.433136 1.825417 2.71389
v 2.25 1.75 2.749992
v 6.499999 0.875 2.499975
v 6 0.8569031 3.464104
v 6.624999 1.75 2.374974
v 6 1.825338 3.464104
v 5.566864 0.4683557 2.71389
v 5.749999 0.375 2.499978
v 5.566864 1.825417 2.71389
v 5.749999 1.75 2.499978
v 6 0.8569031 3.464104
v 2 0.8569031 3.464104
v 6 1.825338 3.464104
v 2 1.825338 3.464104
v 2.433136 0.4683557 2.71389
v 5.566864 0.4683557 2.71389
v 2.433136 1.825417 2.71389
v 5.566864 1.825417 2.71389
v 2 0.8569031 3.464104
v 1.249999 0.875 2.499995
v 2 1.825338 3.464104
v 1.750002 1.75 3.124994
v 2.249999 0.375 2.499992
v 2.433136 0.4683557 2.71389
v 2.25 1.75 2.749992
v 2.433136 1.825417 2.71389
v 2 0 3.464102
v 1.249999 0 2.499995
v 1.529022 -0.2508097 4.279861
v 0.2499991 0 2.5
v 1.249999 0.875 2.499995
v 2 0.8569031 3.464104
v 0.7500015 0.75 3.124997
v 1.529022 0.8078547 4.279861
v 6.499999 0 2.499975
v 6 0 3.464102
v 7.499999 0 2.499971
v 6.470978 -0.2508097 4.279861
v 6 0.8569031 3.464104
v 6.499999 0.875 2.499975
v 6.470978 0.8078547 4.279861
v 7.499999 0.75 2.499971
v 6 0 3.464102
v 2 0 3.464102
v 6.470978 -0.2508097 4.279861
v 1.529022 -0.2508097 4.279861
v 2 0.8569031 3.464104
v 6 0.8569031 3.464104
v 1.529022 0.8078547 4.279861
v 6.470978 0.8078547 4.279861
v 5.749999 0.375 2.499978
v 5.566864 0.4683557 2.71389
v 2.433136 0.4683557 2.71389
v 2.249999 0.375 2.499992
v 6.499999 0.875 2.499975
v 7.499999 0.75 2.499971
v 6.499999 0 2.499975
v 7.499999 0 2.499971
v 5.749999 1.75 2.499978
v 6.624999 1.75 2.374974
v 5.749999 0.375 2.499978
v 6.499999 0.875 2.499975
v 0.7500015 0.75 3.124997
v 1.249999 0.875 2.499995
v 0.2499991 0 2.5
v 1.249999 0 2.499995
v 1.750002 1.75 3.124994
v 2.25 1.75 2.749992
v 1.249999 0.875 2.499995
v 2.249999 0.375 2.499992
v 2.249999 0.375 2.499992
v 5.749999 0.375 2.499978
v 1.249999 0 2.499995
v 6.499999 0 2.499975
v 1.249999 0 2.499995
v 1.249999 0.875 2.499995
v 2.249999 0.375 2.499992
v 6.499999 0.875 2.499975
v 6.499999 0 2.499975
v 5.749999 0.375 2.499978
vt 2.168974 -0.06218293
vt 2.968517 0.6887205
vt 4.360699 -0.3132947
vt 4.360699 0.744096
vt 1.529022 -0.2508097
vt 1.529022 0.8078547
vt 6.470978 -0.2508097
vt 6.470978 0.8078547
vt -0.4664097 -0.2508097
vt -0.4664097 0.8078547
vt 1.589532 0
vt 1.589532 0.75
vt 1.249999 2.499995
vt 3.999999 2.499985
vt 2 3.464102
vt 2 3.464102
vt 3.999999 2.499985
vt 6 3.464102
vt 6 3.464102
vt 3.999999 2.499985
vt 6.499999 2.499975
vt -6 3.463912
vt -2 3.463912
vt -5.566864 2.713699
vt -2.433136 2.713699
vt -6.643452 2.494379
vt -6.0193 3.586595
vt -5.768503 2.619737
vt -5.58619 2.838858
vt -2.276322 3.588545
vt -2.017262 3.24787
vt -2.70341 2.834871
vt -2.510263 2.866612
vt 0.7660884 1.296508
vt -0.3199789 1.278377
vt 0.9345465 2.173147
vt -0.3199789 2.245001
vt -1.5588 0.4683557
vt -1.840397 0.375
vt -1.5588 1.825417
vt -1.840397 1.75
vt 6 0.8569031
vt 2 0.8569031
vt 6 1.825338
vt 2 1.825338
vt -2.433136 0.4683557
vt -5.566864 0.4683557
vt -2.433136 1.825417
vt -5.566864 1.825417
vt 3.96223 0.8569031
vt 2.740753 0.875
vt 3.96223 1.825338
vt 3.54107 1.75
vt -3.362951 0.3789026
vt -3.644302 0.4729712
vt -3.546021 1.764403
vt -3.644302 1.819748
vt 1.95044 3.488959
vt 1.219024 2.510679
vt 1.435645 4.316712
vt 0.2438041 2.473158
vt -1.341675 2.408093
vt -2.084713 3.377747
vt -0.8306805 3.03669
vt -1.611215 4.188303
vt 6.499999 2.499975
vt 6 3.464102
vt 7.499999 2.499971
vt 6.470978 4.279861
vt -5.96342 3.42012
vt -6.462381 2.455283
vt -6.435913 4.236475
vt -7.466384 2.458618
vt 6 3.311136
vt 2 3.311136
vt 6.470978 4.164582
vt 1.529022 4.164582
vt -2 3.406429
vt -6 3.406429
vt -1.529022 4.22366
vt -6.470978 4.22366
vt -5.749999 2.44126
vt -5.566864 2.674656
vt -2.433136 2.674656
vt -2.249999 2.441273
vt -6.499989 0.875
vt -7.499989 0.75
vt -6.499989 0
vt -7.499989 0
vt -5.338646 1.75
vt -6.222529 1.75
vt -5.338646 0.375
vt -6.081108 0.875
vt -1.058312 2.949635
vt -1.516912 2.28185
vt -0.1881433 2.281855
vt -0.9407192 2.04994
vt -2.423235 2.819107
vt -2.841257 2.354475
vt -1.525133 2.044727
vt -2.086851 1.473975
vt -2.249989 0.3750009
vt -5.749989 0.3750009
vt -1.249989 9.082614E-07
vt -6.499989 9.082615E-07
vt -1.24999 0
vt -1.24999 0.875
vt -2.24999 0.375
vt -6.49999 0.875
vt -6.49999 0
vt -5.74999 0.375
vn -0.8078057 0.04903673 0.5874057
vn -0.8184124 0.02451837 0.5733129
vn -0.8184124 0.02451837 0.5733129
vn -0.8290192 0 0.5592201
vn 0 0 1
vn 0 0 1
vn 0 0 1
vn 0 0 1
vn 0.8657302 0 0.500511
vn 0.8657302 0 0.500511
vn 0.8657302 0 0.500511
vn 0.8657302 0 0.500511
vn 0 -1 0
vn 0 -1 0
vn 0 -1 0
vn 0 -1 0
vn 0 -1 0
vn 0 -1 0
vn 0 -1 0
vn 0 -1 0
vn 0 -1 0
vn 0 1 0.0001048743
vn 0 1 0.0001048743
vn 0 1 0.0001048743
vn 0 1 0.0001048743
vn -0.01073358 0.9971157 -0.07513299
vn 0.1129637 0.9795334 -0.1058342
vn 0.1129637 0.9795334 -0.1058342
vn 0.236661 0.961951 -0.1365354
vn -0.1659502 0.9814787 -0.09570844
vn -0.2874051 0.8566811 -0.3204253
vn -0.2874051 0.8566811 -0.3204253
vn -0.40886 0.7318835 -0.5451422
vn 0.8865325 -0.06113105 0.45861
vn 0.8769344 -0.03056552 0.4781662
vn 0.8769344 -0.03056552 0.4781662
vn 0.8673363 0 0.4977224
vn -0.7596396 0 -0.6503444
vn -0.7596396 0 -0.6503444
vn -0.7596396 0 -0.6503444
vn -0.7596396 0 -0.6503443
vn 0 0 1
vn 0 0 1
vn 0 0 1
vn 0 0 1
vn 0 0 -1
vn 0 0 -1
vn 0 0 -1
vn 0 0 -1
vn -0.7892971 0 0.6140115
vn -0.7990052 0.02155515 0.6003164
vn -0.7990052 0.02155515 0.6003164
vn -0.8087133 0.0431103 0.5866212
vn 0.7267278 0.1228805 -0.6758455
vn 0.26666 0.06144025 -0.828482
vn 0.26666 0.06144025 -0.828482
vn -0.1934078 0 -0.9811184
vn 0.2180317 -0.96109 -0.1696119
vn 0.1090155 -0.9756535 -0.1545741
vn 0.1090155 -0.9756535 -0.1545741
vn -5.655566E-07 -0.990217 -0.1395363
vn -0.1134506 0.9877871 0.1067971
vn -0.1005757 0.9919454 0.05802746
vn -0.1005757 0.9919454 0.05802746
vn -0.08770087 0.9961038 0.009257845
vn 0 -1 0
vn -0.06963433 -0.9831294 -0.1083374
vn -0.06963433 -0.9831294 -0.1083374
vn -0.1392687 -0.9662589 -0.2166748
vn 0.03768073 0.9985562 0.03828444
vn 0.08080959 0.9950313 0.03885468
vn 0.08080959 0.9950313 0.03885468
vn 0.1239385 0.9915064 0.03942493
vn -1.751654E-08 -0.9558427 -0.2938789
vn -8.758272E-09 -0.9558427 -0.2938789
vn -8.758272E-09 -0.9558427 -0.2938789
vn 0 -0.9558427 -0.293879
vn 0 0.9981973 0.06001782
vn 0 0.9981973 0.06001782
vn 0 0.9981973 0.06001782
vn 0 0.9981973 0.06001782
vn -1.580332E-06 0.9165198 -0.3999892
vn -7.90166E-07 0.9165154 -0.3999995
vn 0 0.9165108 -0.4000098
vn -7.90166E-07 0.9165154 -0.3999995
vn -4.053116E-06 0 -1
vn -4.053116E-06 0 -1
vn -4.053116E-06 0 -1
vn -4.053116E-06 0 -1
vn -0.1414251 0 -0.9899489
vn -0.01900567 -0.07756316 -0.986208
vn -0.01900567 -0.07756316 -0.986208
vn 0.1034138 -0.1551263 -0.9824671
vn -0.6163171 0.7043607 -0.3521779
vn -0.3081606 0.3521804 -0.676089
vn -0.3081606 0.3521804 -0.676089
vn -4.053116E-06 0 -1
vn -0.4428196 0.6747692 -0.5904213
vn -0.1768681 0.4264717 -0.7851897
vn -0.1768681 0.4264717 -0.7851897
vn 0.08908334 0.1781742 -0.9799582
vn -3.950936E-06 3.633045E-07 -1
vn -3.92823E-06 9.082613E-08 -1
vn -3.92823E-06 9.082613E-08 -1
vn -3.905523E-06 -1.816523E-07 -1
vn -3.814697E-06 0 -1
vn -3.814697E-06 0 -1
vn -3.814697E-06 0 -1
vn -3.814697E-06 0 -1
vn -3.814697E-06 0 -1
vn -3.814697E-06 0 -1
g pb_Mesh436374_0
f 3/3/3 2/2/2 1/1/1
f 3/3/3 4/4/4 2/2/2
f 7/7/7 6/6/6 5/5/5
f 7/7/7 8/8/8 6/6/6
f 11/11/11 10/10/10 9/9/9
f 11/11/11 12/12/12 10/10/10
f 13/13/13 14/14/14 15/15/15
f 16/16/16 17/17/17 18/18/18
f 19/19/19 20/20/20 21/21/21
f 24/24/24 23/23/23 22/22/22
f 24/24/24 25/25/25 23/23/23
f 28/28/28 27/27/27 26/26/26
f 28/28/28 29/29/29 27/27/27
f 32/32/32 31/31/31 30/30/30
f 32/32/32 33/33/33 31/31/31
f 36/36/36 35/35/35 34/34/34
f 36/36/36 37/37/37 35/35/35
f 40/40/40 39/39/39 38/38/38
f 40/40/40 41/41/41 39/39/39
f 44/44/44 43/43/43 42/42/42
f 44/44/44 45/45/45 43/43/43
f 48/48/48 47/47/47 46/46/46
f 48/48/48 49/49/49 47/47/47
f 52/52/52 51/51/51 50/50/50
f 52/52/52 53/53/53 51/51/51
f 56/56/56 55/55/55 54/54/54
f 56/56/56 57/57/57 55/55/55
f 60/60/60 59/59/59 58/58/58
f 60/60/60 61/61/61 59/59/59
f 64/64/64 63/63/63 62/62/62
f 64/64/64 65/65/65 63/63/63
f 68/68/68 67/67/67 66/66/66
f 68/68/68 69/69/69 67/67/67
f 72/72/72 71/71/71 70/70/70
f 72/72/72 73/73/73 71/71/71
f 76/76/76 75/75/75 74/74/74
f 76/76/76 77/77/77 75/75/75
f 80/80/80 79/79/79 78/78/78
f 80/80/80 81/81/81 79/79/79
f 84/84/84 83/83/83 85/85/85
f 83/83/83 82/82/82 85/85/85
f 86/86/86 87/87/87 88/88/88
f 87/87/87 89/89/89 88/88/88
f 90/90/90 91/91/91 92/92/92
f 91/91/91 93/93/93 92/92/92
f 94/94/94 95/95/95 96/96/96
f 95/95/95 97/97/97 96/96/96
f 98/98/98 99/99/99 100/100/100
f 99/99/99 101/101/101 100/100/100
f 102/102/102 103/103/103 104/104/104
f 103/103/103 105/105/105 104/104/104
f 106/106/106 107/107/107 108/108/108
f 109/109/109 110/110/110 111/111/111
