g pb_Mesh142724
v 1.625 7.375 1.25
v -2.375 7.375 1.25
v 1.5 7.375 -3
v -2.375 7.375 -3
v 1 -6.75 -2.625
v -2.5 -6.75 -2.625
v 1.25 -6.75 1.25
v -2.5 -6.75 1.25
v 1.875 3.5 1.375
v 1.25 -6.75 1.25
v -2.4375 0.3125 1.25
v -2.5 -6.75 1.25
v 1.625 7.375 1.25
v 1.875 3.5 1.375
v -2.375 7.375 1.25
v -2.4375 0.3125 1.25
v -2.5 -6.75 1.25
v -2.5 -6.75 -2.625
v -2.5 3.5 -2.5
v -2.4375 0.3125 1.25
v -2.4375 0.3125 1.25
v -2.5 3.5 -2.5
v -2.375 7.375 -3
v -2.375 7.375 1.25
v -2.5 3.5 -2.5
v -2.5 -6.75 -2.625
v 1 -6.75 -2.625
v 1.625 3.5 -2.625
v -2.375 7.375 -3
v -2.5 3.5 -2.5
v 1.625 3.5 -2.625
v 1.5 7.375 -3
v 1.625 3.5 -2.625
v 1 -6.75 -2.625
v 1.25 -6.75 1.25
v 1.875 3.5 1.375
v 1.5 7.375 -3
v 1.625 3.5 -2.625
v 1.875 3.5 1.375
v 1.625 7.375 1.25
vt -1.625 1.25
vt 2.375 1.25
vt -1.5 -3
vt 2.375 -3
vt 1 -2.625
vt -2.5 -2.625
vt 1.25 1.25
vt -2.5 1.25
vt 1.889277 3.485346
vt 1.263004 -6.762807
vt -2.424294 0.2988794
vt -2.486791 -6.763226
vt 1.637983 7.361431
vt 1.889277 3.485346
vt -2.361798 7.360984
vt -2.424294 0.2988794
vt 1.187802 -6.797563
vt -2.686014 -6.795714
vt -2.561052 3.452318
vt 1.189347 0.2648279
vt 1.189347 0.2648279
vt -2.561052 3.452318
vt -3.057808 7.329246
vt 1.190892 7.327219
vt 2.462002 3.64018
vt 2.460117 -6.585654
vt -1.039485 -6.588691
vt -1.664414 3.643791
vt 2.329474 7.537416
vt 2.462002 3.64018
vt -1.664414 3.643791
vt -1.545085 7.534053
vt 2.516731 3.530427
vt 2.556343 -6.728834
vt -1.326711 -6.728766
vt -1.491072 3.530358
vt 2.898899 7.403099
vt 2.516731 3.530427
vt -1.491072 3.530358
vt -1.350479 7.400596
vn 0 1 0
vn 0 1 0
vn 0 1 0
vn 0 1 0
vn 0 -1 0
vn 0 -1 0
vn 0 -1 0
vn 0 -1 0
vn -0.02090849 -0.01091682 0.9997218
vn -0.01045424 -0.005458411 0.9998609
vn -0.01045424 -0.005458411 0.9998609
vn 0 0 1
vn 0 0.03224129 0.9994801
vn -0.01458197 0.01624969 0.9995273
vn -0.01458197 0.01624969 0.9995273
vn -0.02916394 0.0002580879 0.9995746
vn -0.9998342 0.004423312 0.01209039
vn -1 0 0
vn -0.9998342 0.004423312 0.01209039
vn -0.9996685 0.008846624 0.02418077
vn -0.998997 0.02371027 0.02470976
vn -0.998033 0.03857132 0.04941951
vn -0.998997 0.02371027 0.02470976
vn -0.9999608 0.008849211 0
vn -0.01514454 0.007020555 -0.9997326
vn 0 0.01219422 -0.9999257
vn -0.01514454 0.007020555 -0.9997326
vn -0.03028908 0.001846895 -0.9995395
vn -0.01502201 -0.1116422 -0.9934014
vn -0.03004402 -0.1269602 -0.9914528
vn -0.01502201 -0.1116422 -0.9934014
vn 0 -0.0963242 -0.99535
vn 0.9961691 -0.06036235 -0.06326468
vn 0.996083 -0.06073676 -0.06426342
vn 0.9961691 -0.06036235 -0.06326468
vn 0.9962552 -0.05998793 -0.06226595
vn 0.9976337 0.04478085 -0.04584842
vn 0.9977113 0.02614969 -0.06235696
vn 0.9976337 0.04478085 -0.04584842
vn 0.997556 0.063412 -0.02933988
g pb_Mesh142724_0
f 3/3/3 2/2/2 1/1/1
f 3/3/3 4/4/4 2/2/2
f 7/7/7 6/6/6 5/5/5
f 7/7/7 8/8/8 6/6/6
f 11/11/11 10/10/10 9/9/9
f 11/11/11 12/12/12 10/10/10
f 15/15/15 14/14/14 13/13/13
f 15/15/15 16/16/16 14/14/14
f 19/19/19 18/18/18 17/17/17
f 19/19/19 17/17/17 20/20/20
f 23/23/23 22/22/22 21/21/21
f 23/23/23 21/21/21 24/24/24
f 27/27/27 26/26/26 25/25/25
f 28/28/28 27/27/27 25/25/25
f 31/31/31 30/30/30 29/29/29
f 32/32/32 31/31/31 29/29/29
f 35/35/35 34/34/34 33/33/33
f 36/36/36 35/35/35 33/33/33
f 39/39/39 38/38/38 37/37/37
f 40/40/40 39/39/39 37/37/37
