g pb_Mesh208216
v 20.5 0 0
v -14 0 0
v 20.5 1 0
v -14 1 0
v -14 0 -8
v 20.5 0 -8
v -14 1 -8
v 20.5 1 -8
v -22 0 0
v -22 0 -2
v -22 1 -2
v -22 1 0
v 20.5 1 -2
v 20.5 0 0
v 20.5 1 0
v 20.5 0 -2
v 20.5 1 -4
v 20.5 0 -4
v -14 1 -4
v 20.5 1 -4
v 20.5 1 -2
v -14 1 -2
v 20.5 1 0
v -14 1 0
v 20.5 0 -2
v -14 0 -4
v -14 0 -2
v 20.5 0 -4
v 20.5 0 0
v -14 0 0
v -14 0 -4
v -14 0 -6
v -14 1 -6
v -14 1 -4
v -36 0 -6
v -36 0 -8
v -36 1 -8
v -36 1 -6
v 20.5 1 -6
v 20.5 0 -6
v 20.5 1 -8
v 20.5 0 -8
v -14 1 -8
v 20.5 1 -8
v 20.5 1 -6
v -14 1 -6
v 20.5 0 -6
v -14 0 -8
v -14 0 -6
v 20.5 0 -8
v -28 0 -6
v -28 0 -8
v -28 0 -8
v -28 1 -8
v -14 1 -6
v -14 0 -6
v -28 1 -6
v -28 0 -6
v -28 1 -8
v -28 1 -6
v -30 0 -6
v -30 0 -8
v -30 0 -8
v -30 1 -8
v -28 1 -4
v -28 0 -4
v -30 1 -4
v -30 0 -4
v -30 1 -8
v -30 1 -6
v -28 1 -6
v -28 0 -6
v -28 1 -4
v -28 0 -4
v -30 1 -4
v -28 1 -4
v -28 0 -4
v -30 0 -4
v -36 0 -4
v -36 1 -4
v -32 1 -8
v -32 1 -6
v -32 0 -4
v -32 0 -6
v -32 1 -4
v -30 1 0
v -30 0 0
v -32 1 0
v -32 0 0
v -32 0 -8
v -32 0 -8
v -32 1 -8
v -30 1 -4
v -30 0 -4
v -30 1 -2
v -30 0 -2
v -32 1 -2
v -30 1 -2
v -30 0 -2
v -32 0 -2
v -36 0 -2
v -36 1 -2
v -30 1 0
v -30 0 0
v -32 1 0
v -30 1 0
v -30 0 0
v -32 0 0
v -40 0 -2
v -40 1 -2
v -40 0 0
v -40 1 0
v -34 1 -8
v -34 1 -6
v -34 0 0
v -34 0 -2
v -34 1 -2
v -34 1 0
v -34 1 0
v -34 0 0
v -34 0 -6
v -34 0 -8
v -34 0 -4
v -34 1 -4
v -34 0 -8
v -34 1 -8
v -36 1 -8
v -36 1 -6
v -36 0 0
v -36 0 -2
v -36 1 -2
v -36 1 0
v -36 1 0
v -36 0 0
v -36 0 -6
v -36 0 -8
v -36 0 -4
v -36 1 -4
v -36 0 -8
v -36 1 -8
v -36 0 -2
v -36 1 -2
v -40 0 -2
v -40 1 -2
v -40 0 0
v -40 0 -2
v -40 1 -2
v -40 1 0
v -40 1 0
v -40 0 0
v -20 0 -2
v -20 0 0
v -22 0 -2
v -22 0 0
v -20 1 -4
v -14 0 -4
v -14 1 -4
v -20 0 -4
v -22 1 -2
v -20 0 -2
v -20 1 -2
v -22 0 -2
v -20 0 0
v -20 1 0
v -22 0 0
v -22 1 0
v -20 1 -2
v -20 1 0
v -22 1 -2
v -22 1 0
v -20 1 -4
v -20 1 -2
v -20 0 -2
v -20 1 -4
v -20 0 -4
v -20 0 -4
vt 20.5 0
vt -14 0
vt 20.5 1
vt -14 1
vt 14 0
vt -20.5 0
vt 14 1
vt -20.5 1
vt 0 0
vt -2 0
vt -2 1
vt 0 1
vt 2 1
vt 0 0
vt 0 1
vt 2 0
vt 4 1
vt 4 0
vt 14 -4
vt -20.5 -4
vt -20.5 -2
vt 14 -2
vt -20.5 0
vt 14 0
vt 20.5 -2
vt -14 -4
vt -14 -2
vt 20.5 -4
vt 20.5 0
vt -14 0
vt -4 0
vt -6 0
vt -6 1
vt -4 1
vt -6 0
vt -8 0
vt -8 1
vt -6 1
vt 6 1
vt 6 0
vt 8 1
vt 8 0
vt 14 -8
vt -20.5 -8
vt -20.5 -6
vt 14 -6
vt 20.5 -6
vt -14 -8
vt -14 -6
vt 20.5 -8
vt -28 -6
vt -28 -8
vt 28 0
vt 28 1
vt -14 1
vt -14 0
vt -28 1
vt -28 0
vt 28 -8
vt 28 -6
vt -30 -6
vt -30 -8
vt 30 0
vt 30 1
vt -28 1
vt -28 0
vt -30 1
vt -30 0
vt 30 -8
vt 30 -6
vt 6 1
vt 6 0
vt 4 1
vt 4 0
vt 30 -4
vt 28 -4
vt -28 -4
vt -30 -4
vt -4 0
vt -4 1
vt 32 -8
vt 32 -6
vt -32 -4
vt -32 -6
vt 32 -4
vt -30 1
vt -30 0
vt -32 1
vt -32 0
vt -32 -8
vt 32 0
vt 32 1
vt 4 1
vt 4 0
vt 2 1
vt 2 0
vt 32 -2
vt 30 -2
vt -30 -2
vt -32 -2
vt -2 0
vt -2 1
vt 0 1
vt 0 0
vt 32 0
vt 30 0
vt -30 0
vt -32 0
vt -2 0
vt -2 1
vt 0 0
vt 0 1
vt 34 -8
vt 34 -6
vt -34 0
vt -34 -2
vt 34 -2
vt 34 0
vt -34 1
vt -34 0
vt -34 -6
vt -34 -8
vt -34 -4
vt 34 -4
vt 34 0
vt 34 1
vt 36 -8
vt 36 -6
vt -36 0
vt -36 -2
vt 36 -2
vt 36 0
vt -36 1
vt -36 0
vt -36 -6
vt -36 -8
vt -36 -4
vt 36 -4
vt 36 0
vt 36 1
vt 36 0
vt 36 1
vt 40 0
vt 40 1
vt -40 0
vt -40 -2
vt 40 -2
vt 40 0
vt -40 1
vt -40 0
vt -20 -2
vt -20 0
vt -22 -2
vt -22 0
vt 20 1
vt 14 0
vt 14 1
vt 20 0
vt 22 1
vt 20 0
vt 20 1
vt 22 0
vt -20 0
vt -20 1
vt -22 0
vt -22 1
vt 20 -2
vt 20 0
vt 22 -2
vt 22 0
vt 20 -4
vt -2 1
vt -2 0
vt -4 1
vt -4 0
vt -20 -4
vn 0 0 1
vn 0 0 1
vn 0 0 1
vn 0 0 1
vn 0 0 -1
vn 0 0 -1
vn 0 0 -1
vn 0 0 -1
vn -1 0 0
vn -1 0 0
vn -1 0 0
vn -1 0 0
vn 1 0 0
vn 1 0 0
vn 1 0 0
vn 1 0 0
vn 1 0 0
vn 1 0 0
vn 0 1 0
vn 0 1 0
vn 0 1 0
vn 0 1 0
vn 0 1 0
vn 0 1 0
vn 0 -1 0
vn 0 -1 0
vn 0 -1 0
vn 0 -1 0
vn 0 -1 0
vn 0 -1 0
vn -1 0 0
vn -1 0 0
vn -1 0 0
vn -1 0 0
vn -1 0 0
vn -1 0 0
vn -1 0 0
vn -1 0 0
vn 1 0 0
vn 1 0 0
vn 1 0 0
vn 1 0 0
vn 0 1 0
vn 0 1 0
vn 0 1 0
vn 0 1 0
vn 0 -1 0
vn 0 -1 0
vn 0 -1 0
vn 0 -1 0
vn 0 -1 0
vn 0 -1 0
vn 0 0 -1
vn 0 0 -1
vn 0 0 1
vn 0 0 1
vn 0 0 1
vn 0 0 1
vn 0 1 0
vn 0 1 0
vn 0 -1 0
vn 0 -1 0
vn 0 0 -1
vn 0 0 -1
vn 0 0 1
vn 0 0 1
vn 0 0 1
vn 0 0 1
vn 0 1 0
vn 0 1 0
vn 1 0 0
vn 1 0 0
vn 1 0 0
vn 1 0 0
vn 0 1 0
vn 0 1 0
vn 0 -1 0
vn 0 -1 0
vn -1 0 0
vn -1 0 0
vn 0 1 0
vn 0 1 0
vn 0 -1 0
vn 0 -1 0
vn 0 1 0
vn 0 0 1
vn 0 0 1
vn 0 0 1
vn 0 0 1
vn 0 -1 0
vn 0 0 -1
vn 0 0 -1
vn 1 0 0
vn 1 0 0
vn 1 0 0
vn 1 0 0
vn 0 1 0
vn 0 1 0
vn 0 -1 0
vn 0 -1 0
vn -1 0 0
vn -1 0 0
vn 1 0 0
vn 1 0 0
vn 0 1 0
vn 0 1 0
vn 0 -1 0
vn 0 -1 0
vn -1 0 0
vn -1 0 0
vn -1 0 0
vn -1 0 0
vn 0 1 0
vn 0 1 0
vn 0 -1 0
vn 0 -1 0
vn 0 1 0
vn 0 1 0
vn 0 0 1
vn 0 0 1
vn 0 -1 0
vn 0 -1 0
vn 0 -1 0
vn 0 1 0
vn 0 0 -1
vn 0 0 -1
vn 0 1 0
vn 0 1 0
vn 0 -1 0
vn 0 -1 0
vn 0 1 0
vn 0 1 0
vn 0 0 1
vn 0 0 1
vn 0 -1 0
vn 0 -1 0
vn 0 -1 0
vn 0 1 0
vn 0 0 -1
vn 0 0 -1
vn 0 0 -1
vn 0 0 -1
vn 0 0 -1
vn 0 0 -1
vn 0 -1 0
vn 0 -1 0
vn 0 1 0
vn 0 1 0
vn 0 0 1
vn 0 0 1
vn 0 -1 0
vn 0 -1 0
vn 0 -1 0
vn 0 -1 0
vn 0 0 -1
vn 0 0 -1
vn 0 0 -1
vn 0 0 -1
vn 0 0 -1
vn 0 0 -1
vn 0 0 -1
vn 0 0 -1
vn 0 0 1
vn 0 0 1
vn 0 0 1
vn 0 0 1
vn 0 1 0
vn 0 1 0
vn 0 1 0
vn 0 1 0
vn 0 1 0
vn -1 0 0
vn -1 0 0
vn -1 0 0
vn -1 0 0
vn 0 -1 0
g pb_Mesh208216_0
g pb_Mesh208216_1
f 3/3/3 2/2/2 1/1/1
f 3/3/3 4/4/4 2/2/2
f 7/7/7 6/6/6 5/5/5
f 7/7/7 8/8/8 6/6/6
f 11/11/11 10/10/10 9/9/9
f 11/11/11 9/9/9 12/12/12
f 15/15/15 14/14/14 13/13/13
f 14/14/14 16/16/16 13/13/13
f 13/13/13 16/16/16 17/17/17
f 16/16/16 18/18/18 17/17/17
f 21/21/21 20/20/20 19/19/19
f 21/21/21 19/19/19 22/22/22
f 23/23/23 21/21/21 22/22/22
f 23/23/23 22/22/22 24/24/24
f 27/27/27 26/26/26 25/25/25
f 26/26/26 28/28/28 25/25/25
f 30/30/30 27/27/27 29/29/29
f 27/27/27 25/25/25 29/29/29
f 33/33/33 32/32/32 31/31/31
f 33/33/33 31/31/31 34/34/34
f 37/37/37 36/36/36 35/35/35
f 37/37/37 35/35/35 38/38/38
f 17/17/17 18/18/18 39/39/39
f 18/18/18 40/40/40 39/39/39
f 39/39/39 40/40/40 41/41/41
f 40/40/40 42/42/42 41/41/41
f 45/45/45 44/44/44 43/43/43
f 45/45/45 43/43/43 46/46/46
f 20/20/20 45/45/45 46/46/46
f 20/20/20 46/46/46 19/19/19
f 49/49/49 48/48/48 47/47/47
f 48/48/48 50/50/50 47/47/47
f 26/26/26 49/49/49 28/28/28
f 49/49/49 47/47/47 28/28/28
f 51/51/51 48/48/48 49/49/49
f 51/51/51 52/52/52 48/48/48
f 53/53/53 7/7/7 5/5/5
f 53/53/53 54/54/54 7/7/7
f 57/57/57 56/56/56 55/55/55
f 57/57/57 58/58/58 56/56/56
f 59/59/59 46/46/46 43/43/43
f 59/59/59 60/60/60 46/46/46
f 61/61/61 52/52/52 51/51/51
f 61/61/61 62/62/62 52/52/52
f 63/63/63 54/54/54 53/53/53
f 63/63/63 64/64/64 54/54/54
f 67/67/67 66/66/66 65/65/65
f 67/67/67 68/68/68 66/66/66
f 69/69/69 60/60/60 59/59/59
f 69/69/69 70/70/70 60/60/60
f 73/73/73 72/72/72 71/71/71
f 73/73/73 74/74/74 72/72/72
f 75/75/75 60/60/60 70/70/70
f 75/75/75 76/76/76 60/60/60
f 77/77/77 61/61/61 51/51/51
f 77/77/77 78/78/78 61/61/61
f 79/79/79 38/38/38 35/35/35
f 79/79/79 80/80/80 38/38/38
f 81/81/81 70/70/70 69/69/69
f 81/81/81 82/82/82 70/70/70
f 83/83/83 61/61/61 78/78/78
f 83/83/83 84/84/84 61/61/61
f 82/82/82 75/75/75 70/70/70
f 82/82/82 85/85/85 75/75/75
f 88/88/88 87/87/87 86/86/86
f 88/88/88 89/89/89 87/87/87
f 84/84/84 62/62/62 61/61/61
f 84/84/84 90/90/90 62/62/62
f 91/91/91 64/64/64 63/63/63
f 91/91/91 92/92/92 64/64/64
f 95/95/95 94/94/94 93/93/93
f 95/95/95 96/96/96 94/94/94
f 97/97/97 75/75/75 85/85/85
f 97/97/97 98/98/98 75/75/75
f 99/99/99 83/83/83 78/78/78
f 99/99/99 100/100/100 83/83/83
f 101/101/101 80/80/80 79/79/79
f 101/101/101 102/102/102 80/80/80
f 103/103/103 96/96/96 95/95/95
f 103/103/103 104/104/104 96/96/96
f 105/105/105 98/98/98 97/97/97
f 105/105/105 106/106/106 98/98/98
f 107/107/107 100/100/100 99/99/99
f 107/107/107 108/108/108 100/100/100
f 111/111/111 110/110/110 109/109/109
f 111/111/111 112/112/112 110/110/110
f 113/113/113 82/82/82 81/81/81
f 113/113/113 114/114/114 82/82/82
f 115/115/115 100/100/100 108/108/108
f 115/115/115 116/116/116 100/100/100
f 117/117/117 105/105/105 97/97/97
f 117/117/117 118/118/118 105/105/105
f 119/119/119 89/89/89 88/88/88
f 119/119/119 120/120/120 89/89/89
f 121/121/121 90/90/90 84/84/84
f 121/121/121 122/122/122 90/90/90
f 116/116/116 83/83/83 100/100/100
f 116/116/116 123/123/123 83/83/83
f 124/124/124 97/97/97 85/85/85
f 124/124/124 117/117/117 97/97/97
f 123/123/123 84/84/84 83/83/83
f 123/123/123 121/121/121 84/84/84
f 114/114/114 85/85/85 82/82/82
f 114/114/114 124/124/124 85/85/85
f 125/125/125 92/92/92 91/91/91
f 125/125/125 126/126/126 92/92/92
f 127/127/127 114/114/114 113/113/113
f 127/127/127 128/128/128 114/114/114
f 129/129/129 116/116/116 115/115/115
f 129/129/129 130/130/130 116/116/116
f 131/131/131 118/118/118 117/117/117
f 131/131/131 132/132/132 118/118/118
f 133/133/133 120/120/120 119/119/119
f 133/133/133 134/134/134 120/120/120
f 135/135/135 122/122/122 121/121/121
f 135/135/135 136/136/136 122/122/122
f 130/130/130 123/123/123 116/116/116
f 130/130/130 137/137/137 123/123/123
f 138/138/138 117/117/117 124/124/124
f 138/138/138 131/131/131 117/117/117
f 137/137/137 121/121/121 123/123/123
f 137/137/137 135/135/135 121/121/121
f 128/128/128 124/124/124 114/114/114
f 128/128/128 138/138/138 124/124/124
f 139/139/139 126/126/126 125/125/125
f 139/139/139 140/140/140 126/126/126
f 143/143/143 142/142/142 141/141/141
f 143/143/143 144/144/144 142/142/142
f 145/145/145 130/130/130 129/129/129
f 145/145/145 146/146/146 130/130/130
f 147/147/147 132/132/132 131/131/131
f 147/147/147 148/148/148 132/132/132
f 149/149/149 134/134/134 133/133/133
f 149/149/149 150/150/150 134/134/134
f 152/152/152 151/151/151 30/30/30
f 151/151/151 27/27/27 30/30/30
f 154/154/154 153/153/153 152/152/152
f 153/153/153 151/151/151 152/152/152
f 157/157/157 156/156/156 155/155/155
f 156/156/156 158/158/158 155/155/155
f 161/161/161 160/160/160 159/159/159
f 160/160/160 162/162/162 159/159/159
f 164/164/164 163/163/163 2/2/2
f 164/164/164 2/2/2 4/4/4
f 166/166/166 165/165/165 163/163/163
f 166/166/166 163/163/163 164/164/164
f 24/24/24 22/22/22 167/167/167
f 24/24/24 167/167/167 168/168/168
f 168/168/168 167/167/167 169/169/169
f 168/168/168 169/169/169 170/170/170
f 19/19/19 167/167/167 22/22/22
f 19/19/19 171/171/171 167/167/167
f 174/174/174 173/173/173 172/172/172
f 174/174/174 175/175/175 173/173/173
f 176/176/176 27/27/27 151/151/151
f 176/176/176 26/26/26 27/27/27
