g pb_Mesh302348
v 6.318098E-06 -3 4.768379E-06
v -0.9999937 -4 5.483635E-06
v 0 2 0
v -1 3 0
v -0.9999937 -4 5.483635E-06
v -0.9999944 -4 -0.9999945
v -1 3 0
v -1 3 -1
v -0.9999944 -4 -0.9999945
v 5.602842E-06 -3 -0.9999952
v -1 3 -1
v 0 2 -1
v 5.602842E-06 -3 -0.9999952
v 6.318098E-06 -3 4.768379E-06
v 0 2 -1
v 0 2 0
v 0 2 0
v -1 3 0
v 0 2 -1
v -1 3 -1
v 5.602842E-06 -3 -0.9999952
v -0.9999944 -4 -0.9999945
v 6.318098E-06 -3 4.768379E-06
v -0.9999937 -4 5.483635E-06
vt 6.318099E-06 -3
vt -0.9999937 -4
vt 0 2
vt -1 3
vt 4.768383E-06 -3.999999
vt -0.9999952 -3.999999
vt -7.152557E-07 3.000001
vt -1.000001 3.000001
vt 0.9999945 -3.999999
vt -5.534723E-06 -2.999999
vt 1 3.000001
vt 6.811954E-08 2.000001
vt 0.9999952 -3
vt -4.768383E-06 -3
vt 1 2
vt 0 2
vt 1.414214 0
vt 2.828427 0
vt 1.414214 -1
vt 2.828427 -1
vt -2.121316 -0.9999942
vt -3.53553 -0.9999934
vt -2.121316 5.841265E-06
vt -3.535529 6.55652E-06
vn -2.384197E-07 9.536755E-07 1
vn 2.724786E-07 8.685263E-07 1
vn 2.724786E-07 8.685263E-07 1
vn 7.833771E-07 7.833771E-07 1
vn -1 -9.02584E-07 7.152557E-07
vn -1 -8.514946E-07 3.576279E-07
vn -1 -8.514946E-07 3.576279E-07
vn -1 -8.004052E-07 0
vn 6.811954E-08 -7.833753E-07 -1
vn -4.427779E-07 -8.685254E-07 -1
vn -4.427779E-07 -8.685254E-07 -1
vn -9.536755E-07 -9.536755E-07 -1
vn 1 1.120568E-06 -7.152557E-07
vn 1 1.192094E-06 -3.576279E-07
vn 1 1.192094E-06 -3.576279E-07
vn 1 1.26362E-06 0
vn 0.7071068 0.7071068 0
vn 0.7071068 0.7071068 0
vn 0.7071068 0.7071068 0
vn 0.7071068 0.7071068 0
vn 0.7071068 -0.7071068 -5.057622E-07
vn 0.7071068 -0.7071068 -5.057622E-07
vn 0.7071068 -0.7071068 -5.057622E-07
vn 0.7071068 -0.7071068 -5.057622E-07
g pb_Mesh302348_0
f 3/3/3 2/2/2 1/1/1
f 3/3/3 4/4/4 2/2/2
f 7/7/7 6/6/6 5/5/5
f 7/7/7 8/8/8 6/6/6
f 11/11/11 10/10/10 9/9/9
f 11/11/11 12/12/12 10/10/10
f 15/15/15 14/14/14 13/13/13
f 15/15/15 16/16/16 14/14/14
f 19/19/19 18/18/18 17/17/17
f 19/19/19 20/20/20 18/18/18
f 23/23/23 22/22/22 21/21/21
f 23/23/23 24/24/24 22/22/22
