g pb_Mesh206664
v -4 4 -4
v -4 0 -4
v 4 3.5 -17.5
v 4 -0.5 -17.5
v 3.5 4 -4
v -4 4 -4
v 8.5 3.5 -17.5
v 4 3.5 -17.5
v 4 3.5 -17.5
v 4 -0.5 -17.5
v 4.5 3 -20
v 4.5 -1 -20
v 8.5 3.5 -17.5
v 4 3.5 -17.5
v 8.5 3 -20
v 4.5 3 -20
vt -1.401957 4
vt -1.401957 0
vt -17.09431 3.5
vt -17.09431 -0.5
vt -3.5 -3.849213
vt 4 -3.849213
vt -8.5 -17.35847
vt -4 -17.35847
vt -17.94463 3.5
vt -17.94463 -0.5
vt -20.49414 3
vt -20.49414 -1
vt -8.5 -16.47375
vt -4 -16.47375
vt -8.5 -19.02327
vt -4.5 -19.02327
vn -0.8602915 0 -0.5098024
vn -0.8602915 0 -0.5098024
vn -0.8602915 0 -0.5098024
vn -0.8602915 0 -0.5098024
vn 0 0.9993148 -0.03701166
vn 0 0.9993148 -0.03701166
vn 0 0.9993148 -0.03701166
vn 0 0.9993148 -0.03701166
vn -0.9805807 0 -0.1961161
vn -0.9805807 0 -0.1961161
vn -0.9805807 0 -0.1961161
vn -0.9805807 0 -0.1961161
vn 0 0.9805807 -0.1961161
vn 0 0.9805807 -0.1961161
vn 0 0.9805807 -0.1961161
vn 0 0.9805807 -0.1961161
g pb_Mesh206664_0
f 3/3/3 2/2/2 1/1/1
f 3/3/3 4/4/4 2/2/2
f 7/7/7 6/6/6 5/5/5
f 7/7/7 8/8/8 6/6/6
f 11/11/11 10/10/10 9/9/9
f 11/11/11 12/12/12 10/10/10
f 15/15/15 14/14/14 13/13/13
f 15/15/15 16/16/16 14/14/14
