g pb_Mesh42424
v 1.001355E-05 -10 4.000013
v -2.000021 -10 4.000007
v 1.001356E-05 -9 4.00001
v -2.000021 -9 4.000003
v -2.000021 -10 4.000007
v -2.000001 -8 6.794931E-06
v -2.000021 -9 4.000003
v -2.000001 -7 6.794931E-06
v -2.000001 -8 6.794931E-06
v 0 -8 0
v -2.000001 -7 6.794931E-06
v 0 -7 0
v 0 -8 0
v 1.001355E-05 -10 4.000013
v 0 -7 0
v 1.001356E-05 -9 4.00001
v 1.001356E-05 -9 4.00001
v -2.000021 -9 4.000003
v 0 -7 0
v -2.000001 -7 6.794931E-06
v 0 -8 0
v -2.000001 -8 6.794931E-06
v 1.001355E-05 -10 4.000013
v -2.000021 -10 4.000007
vt 2.241117E-05 -10.00002
vt -2.000008 -10.00002
vt 2.241116E-05 -9.000015
vt -2.000008 -9.000015
vt 4.000017 -10
vt 1.645091E-05 -8
vt 4.000013 -9
vt 1.645091E-05 -7
vt 2.000001 -8
vt 0 -8
vt 2.000001 -7
vt 0 -7
vt 0 -8
vt -4.000013 -10
vt 0 -7
vt -4.00001 -9
vt 3.933679E-06 7.602634
vt 2.000035 7.602627
vt 1.084785E-05 3.130489
vt 2.000012 3.130494
vt 1.358981E-05 3.577699
vt -1.999988 3.577707
vt 2.700081E-05 8.049848
vt -2.000004 8.049843
vn -3.099394E-06 3.814697E-06 1
vn -3.099394E-06 3.814697E-06 1
vn -3.099394E-06 3.814697E-06 1
vn -3.099394E-06 3.814697E-06 1
vn -1 -1.84173E-11 -4.827985E-06
vn -1 -9.20865E-12 -4.827983E-06
vn -1 -9.20865E-12 -4.827983E-06
vn -1 0 -4.82798E-06
vn -3.397463E-06 0 -1
vn -3.397463E-06 0 -1
vn -3.397463E-06 0 -1
vn -3.397463E-06 0 -1
vn 1 0 -2.503379E-06
vn 1 -1.023181E-11 -2.503387E-06
vn 1 -1.023181E-11 -2.503387E-06
vn 1 -2.046363E-11 -2.503394E-06
vn -1.386088E-06 0.8944276 0.4472128
vn 7.998005E-08 0.8944273 0.4472134
vn 7.998005E-08 0.8944273 0.4472134
vn 1.546049E-06 0.8944271 0.4472139
vn -1.519388E-06 -0.8944278 -0.4472124
vn -6.664834E-08 -0.8944275 -0.447213
vn -6.664834E-08 -0.8944275 -0.447213
vn 1.386091E-06 -0.8944272 -0.4472136
g pb_Mesh42424_0
f 3/3/3 2/2/2 1/1/1
f 3/3/3 4/4/4 2/2/2
f 7/7/7 6/6/6 5/5/5
f 7/7/7 8/8/8 6/6/6
f 11/11/11 10/10/10 9/9/9
f 11/11/11 12/12/12 10/10/10
f 15/15/15 14/14/14 13/13/13
f 15/15/15 16/16/16 14/14/14
f 19/19/19 18/18/18 17/17/17
f 19/19/19 20/20/20 18/18/18
f 23/23/23 22/22/22 21/21/21
f 23/23/23 24/24/24 22/22/22
