g pb_Mesh52566
v 1 0 0.9736023
v -1 0 0.9736023
v 0 3 0.9736023
v -1 3 0.9736023
v -1 0 0.9736023
v -1 0 -0.9736023
v -1 3 0.9736023
v -1 3 -0.9736023
v -1 0 -0.9736023
v 1 0 -0.9736023
v -1 3 -0.9736023
v 0 3 -0.9736023
v -0.03956604 1.179289 -0.2081909
v -0.03956604 1.179289 0.2081909
v -0.2534027 1.820787 -0.2081909
v -0.2534027 1.820787 0.2081909
v 0 3 0.9736023
v -1 3 0.9736023
v 0 3 -0.9736023
v -1 3 -0.9736023
v 1 0 -0.9736023
v -1 0 -0.9736023
v 1 0 0.9736023
v -1 0 0.9736023
v 1 0 -0.9736023
v 1 0 0.9736023
v 0.6652679 1.004272 -0.3217697
v 0.6652679 1.004272 0.3217697
v 0 3 -0.9736023
v 0.3347626 1.995741 -0.3217697
v 0 3 0.9736023
v 0.3347626 1.995741 0.3217697
v 0.6652679 1.004272 -0.3217697
v 0.6652679 1.004272 0.3217697
v -0.03956604 1.179289 -0.2081909
v -0.03956604 1.179289 0.2081909
v 0.3347626 1.995741 -0.3217697
v 0.6652679 1.004272 -0.3217697
v -0.2534027 1.820787 -0.2081909
v -0.03956604 1.179289 -0.2081909
v 0.6652679 1.004272 0.3217697
v 0.3347626 1.995741 0.3217697
v -0.03956604 1.179289 0.2081909
v -0.2534027 1.820787 0.2081909
v 0.3347626 1.995741 0.3217697
v 0.3347626 1.995741 -0.3217697
v -0.2534027 1.820787 0.2081909
v -0.2534027 1.820787 -0.2081909
vt 1 0
vt -1 0
vt 0 3
vt -1 3
vt 0.9736023 0
vt -0.9736023 0
vt 0.9736023 3
vt -0.9736023 3
vt 1 0
vt -1 0
vt 1 3
vt 0 3
vt 0.2081909 1.131282
vt -0.2081909 1.131282
vt 0.2081909 1.807482
vt -0.2081909 1.807482
vt 0 0.9736023
vt 1 0.9736023
vt 0 -0.9736023
vt 1 -0.9736023
vt 1 -0.9736023
vt -1 -0.9736023
vt 1 0.9736023
vt -1 0.9736023
vt 0.9736023 -0.3162061
vt -0.9736023 -0.3162061
vt 0.3217697 0.7423819
vt -0.3217697 0.7423819
vt 0.9736023 2.846045
vt 0.3217648 1.787463
vt -0.9736023 2.846038
vt -0.3217567 1.787461
vt -0.4036408 -0.3217697
vt -0.4036408 0.3217697
vt 0.3225973 -0.2081909
vt 0.3225973 0.2081909
vt 0.3853907 2.007343
vt 0.7109105 1.014227
vt -0.2135557 1.832099
vt -0.002944622 1.189534
vt -0.7109101 1.014227
vt -0.3853902 2.007343
vt 0.002944988 1.189534
vt 0.2135561 1.832099
vt 0.8898744 0.3217697
vt 0.8898744 -0.3217697
vt 0.27624 0.2081909
vt 0.27624 -0.2081909
vn 0 0 1
vn 0 0 1
vn 0 0 1
vn 0 0 1
vn -1 0 0
vn -1 0 0
vn -1 0 0
vn -1 0 0
vn 0 0 -1
vn 0 0 -1
vn 0 0 -1
vn 0 0 -1
vn 0.9486817 0.3162329 0
vn 0.9486817 0.3162329 0
vn 0.9486817 0.3162329 0
vn 0.9486817 0.3162329 0
vn 0 1 0
vn 0 1 0
vn 0 1 0
vn 0 1 0
vn 0 -1 0
vn 0 -1 0
vn 0 -1 0
vn 0 -1 0
vn 0.9486905 0.3162062 0
vn 0.9486905 0.3162062 0
vn 0.9486905 0.3162062 0
vn 0.9486905 0.3162062 0
vn 0.9486834 0.3162278 -1.387987E-05
vn 0.9486811 0.3162346 -3.71622E-05
vn 0.9486811 0.3162346 1.373067E-05
vn 0.9486787 0.3162414 -9.551633E-06
vn 0.2409904 0.9705275 0
vn 0.2409904 0.9705275 0
vn 0.2409904 0.9705275 0
vn 0.2409904 0.9705275 0
vn 0.1727491 0.05758582 0.9832811
vn 0.1727481 0.05758459 0.9832813
vn 0.1727481 0.05758459 0.9832813
vn 0.172747 0.05758337 0.9832816
vn 0.1727474 0.05758525 -0.9832814
vn 0.1727485 0.05758474 -0.9832813
vn 0.1727485 0.05758474 -0.9832813
vn 0.1727496 0.05758423 -0.9832811
vn 0.2851103 -0.9584947 0
vn 0.2851103 -0.9584948 0
vn 0.2851103 -0.9584948 0
vn 0.2851103 -0.9584948 0
g pb_Mesh52566_0
g pb_Mesh52566_1
f 3/3/3 2/2/2 1/1/1
f 3/3/3 4/4/4 2/2/2
f 7/7/7 6/6/6 5/5/5
f 7/7/7 8/8/8 6/6/6
f 11/11/11 10/10/10 9/9/9
f 11/11/11 12/12/12 10/10/10
f 15/15/15 14/14/14 13/13/13
f 15/15/15 16/16/16 14/14/14
f 19/19/19 18/18/18 17/17/17
f 19/19/19 20/20/20 18/18/18
f 23/23/23 22/22/22 21/21/21
f 23/23/23 24/24/24 22/22/22
f 27/27/27 26/26/26 25/25/25
f 27/27/27 28/28/28 26/26/26
f 30/30/30 25/25/25 29/29/29
f 30/30/30 27/27/27 25/25/25
f 28/28/28 31/31/31 26/26/26
f 28/28/28 32/32/32 31/31/31
f 32/32/32 29/29/29 31/31/31
f 32/32/32 30/30/30 29/29/29
f 35/35/35 34/34/34 33/33/33
f 35/35/35 36/36/36 34/34/34
f 39/39/39 38/38/38 37/37/37
f 39/39/39 40/40/40 38/38/38
f 43/43/43 42/42/42 41/41/41
f 43/43/43 44/44/44 42/42/42
f 47/47/47 46/46/46 45/45/45
f 47/47/47 48/48/48 46/46/46
