g pb_Mesh235482
v 4.445084 0 -3.477898
v 4.445084 0 2.472176
v -1.505005 0 -3.477898
v -4 5.601578 4
v 4.445084 0 2.472176
v 4.445084 0 8.422256
v -4 5.601578 4
v -4 5.601578 8
v 4.445084 0 14.37234
v -4 5.601578 12
v 4.445084 0 20.32242
v -4 5.601578 12
v -1.505005 0 20.32242
v -1.505005 0 -3.477898
v -4 5.601578 4
v -7.455078 0 -6.054688
v -8 5.601578 2.267731
v -4 5.601578 4
v -4 5.601578 8
v -8 5.601578 2.267731
v -8 7.069759 8
v -4 5.601578 8
v -4 5.601578 12
v -8 7.069759 8
v -8 5.601578 12
v -4 5.601578 12
v -1.505005 0 20.32242
v -8 5.601578 12
v -7.455078 0 20.32242
v -7.455078 0 -6.054688
v -8 5.601578 2.267731
v -13.40517 0 -3.477898
v -12 5.601578 4
v -8 5.601578 2.267731
v -8 7.069759 8
v -12 5.601578 4
v -14.23547 5.601578 8
v -8 7.069759 8
v -8 5.601578 12
v -14.23547 5.601578 8
v -12 5.601578 12
v -12 5.601578 12
v -13.40517 0 20.32242
v -13.40517 0 -3.477898
v -12 5.601578 4
v -19.35524 0 -3.477898
v -19.35524 0 2.472176
v -12 5.601578 4
v -14.23547 5.601578 8
v -19.35524 0 2.472176
v -22.68056 0 8.422256
v -14.23547 5.601578 8
v -12 5.601578 12
v -22.68056 0 8.422256
v -19.35524 0 14.37234
v -12 5.601578 12
v -13.40517 0 20.32242
v -19.35524 0 14.37234
v -19.35524 0 20.32242
vt -4.445084 -3.477898
vt -4.445084 2.472176
vt 1.505005 -3.477898
vt 4 4
vt -3.704288 2.472176
vt -3.704288 8.422256
vt 6.42967 4
vt 6.42967 8
vt -3.704288 14.37234
vt 6.42967 12
vt -3.704288 20.32242
vt 6.42967 12
vt 1.254188 20.32242
vt 1.447962 -3.161709
vt 5.37597 5.67528
vt 7.172513 -6.206825
vt 9.22436 3.628173
vt 4 4
vt 4 8
vt 8 2.267731
vt 8 8
vt 5.68517 8
vt 5.68517 12
vt 9.946104 8
vt 9.440215 12
vt 4 6.827312
vt 1.505005 16.85928
vt 8 6.827312
vt 7.455078 16.85928
vt 7.140686 -3.860831
vt 6.053067 6.126878
vt 12.83985 -0.7684332
vt 9.884381 8.20577
vt 7.333699 3.788682
vt 7.171841 9.703771
vt 11.30932 5.576199
vt 13.53116 9.513368
vt 6.166746 4.601453
vt 6.503236 8.84908
vt 12.57273 4.601453
vt 10.39676 8.54064
vt 12 6.827312
vt 13.40517 16.85928
vt 13.40517 -2.78354
vt 12 6.559725
vt 19.35524 -2.78354
vt 19.35524 1.978609
vt 6.754921 7.237524
vt 8.601462 11.43128
vt 15.98778 5.635692
vt 18.73455 11.874
vt 8.924357 4.053079
vt 7.045984 8.232679
vt 19.05751 4.494295
vt 16.26338 10.71154
vt 7.603767 5.896003
vt 11.61678 15.19711
vt 16.77305 8.547318
vt 16.77305 13.87132
vn 0 1 0
vn 0.2199052 0.8915139 -0.2199058
vn 0.2199052 0.8915139 -0.2199058
vn 0.4398105 0.7830278 -0.4398116
vn 0.5527532 0.8333451 0
vn 0.5527532 0.8333451 0
vn 0.5527532 0.8333451 0
vn 0.5527532 0.8333451 0
vn 0.5527532 0.8333451 0
vn 0.5527532 0.8333451 0
vn 0.2763766 0.8314675 0.2791865
vn 0.2763766 0.8314675 0.2791865
vn 0 0.82959 0.558373
vn 0.2307643 0.8141311 -0.5328587
vn 0.230764 0.8141313 -0.5328586
vn 0.230764 0.8141313 -0.5328586
vn 0.2307636 0.8141314 -0.5328586
vn 0 1 0
vn 0.16751 0.9563741 -0.1168891
vn 0.16751 0.9563741 -0.1168891
vn 0.3350201 0.9127482 -0.2337783
vn 0.344568 0.9387614 0
vn 0.172284 0.9387614 0.172284
vn 0.172284 0.9387614 0.172284
vn 0 0.9387614 0.344568
vn 0 0.8295901 0.558373
vn 0 0.8295901 0.558373
vn 0 0.8295901 0.558373
vn 0 0.82959 0.558373
vn -0.2394311 0.7981259 -0.5528724
vn -0.239431 0.7981259 -0.5528724
vn -0.239431 0.7981259 -0.5528724
vn -0.239431 0.7981259 -0.5528725
vn -0.1068363 0.9631857 -0.2466966
vn -0.167084 0.96434 -0.1868726
vn -0.167084 0.96434 -0.1868726
vn -0.2273317 0.9654942 -0.1270485
vn -0.2158277 0.9166361 0.3364471
vn -0.1079139 0.9583181 0.1682235
vn -0.1079139 0.9583181 0.1682235
vn 0 1 0
vn 0 0.8295901 0.558373
vn 0 0.82959 0.558373
vn 0 0.8003516 -0.5995311
vn -0.302939 0.7979546 -0.2997655
vn -0.302939 0.7979546 -0.2997655
vn -0.605878 0.7955576 0
vn -0.5376022 0.7878542 -0.3004489
vn -0.5376021 0.7878543 -0.3004491
vn -0.5376021 0.7878543 -0.3004491
vn -0.537602 0.7878543 -0.3004493
vn -0.5188894 0.8041511 0.2899909
vn -0.5188894 0.8041511 0.2899911
vn -0.5188894 0.8041511 0.2899911
vn -0.5188895 0.8041509 0.2899914
vn -0.4465132 0.7754048 0.4465126
vn -0.2232566 0.8877023 0.2232563
vn -0.2232566 0.8877023 0.2232563
vn 0 1 0
g pb_Mesh235482_0
f 3/3/3 2/2/2 1/1/1
f 3/3/3 4/4/4 2/2/2
f 7/7/7 6/6/6 5/5/5
f 7/7/7 8/8/8 6/6/6
f 8/8/8 9/9/9 6/6/6
f 8/8/8 10/10/10 9/9/9
f 12/12/12 11/11/11 9/9/9
f 12/12/12 13/13/13 11/11/11
f 16/16/16 15/15/15 14/14/14
f 16/16/16 17/17/17 15/15/15
f 20/20/20 19/19/19 18/18/18
f 20/20/20 21/21/21 19/19/19
f 24/24/24 23/23/23 22/22/22
f 24/24/24 25/25/25 23/23/23
f 28/28/28 27/27/27 26/26/26
f 28/28/28 29/29/29 27/27/27
f 32/32/32 31/31/31 30/30/30
f 32/32/32 33/33/33 31/31/31
f 36/36/36 35/35/35 34/34/34
f 36/36/36 37/37/37 35/35/35
f 40/40/40 39/39/39 38/38/38
f 40/40/40 41/41/41 39/39/39
f 42/42/42 29/29/29 28/28/28
f 42/42/42 43/43/43 29/29/29
f 46/46/46 45/45/45 44/44/44
f 46/46/46 47/47/47 45/45/45
f 50/50/50 49/49/49 48/48/48
f 50/50/50 51/51/51 49/49/49
f 54/54/54 53/53/53 52/52/52
f 54/54/54 55/55/55 53/53/53
f 58/58/58 57/57/57 56/56/56
f 58/58/58 59/59/59 57/57/57
