g pb_Mesh283158
v -2.610573 50.19656 -52.27614
v -2.945473 50.19656 -47.05032
v -11.97793 50.19656 -49.82334
v -10.36518 50.19656 -44.94283
v -2.945473 50.19656 -47.05032
v -0.9799423 50.19656 -42.26186
v -10.36518 50.19656 -44.94283
v -8.817772 50.19656 -40.12818
v -0.9799423 50.19656 -42.26186
v 3.724266 50.19657 -36.26999
v -8.817772 50.19656 -40.12818
v -4.752586 50.19657 -34.24087
v 3.724266 50.19657 -36.26999
v 9.479637 52.85407 -28.18417
v -4.752586 50.19657 -34.24087
v 0.5121231 52.85407 -26.79958
v 9.479637 52.85407 -28.18417
v 1.757628 54.48797 -5.259637
v 0.5121231 52.85407 -26.79958
v -4.082466 52.85408 -11.66425
v 1.757628 54.48797 -5.259637
v -12.08167 53.96928 0.1359901
v -4.082466 52.85408 -11.66425
v -13.69857 53.96928 -0.2684135
v -11.97793 50.19656 -49.82334
v -10.36518 50.19656 -44.94283
v -16.48281 50.19656 -48.8651
v -15.01159 50.19656 -43.71678
v -10.36518 50.19656 -44.94283
v -8.817772 50.19656 -40.12818
v -15.01159 50.19656 -43.71678
v -12.98371 50.19656 -39.47101
v -8.817772 50.19656 -40.12818
v -4.752586 50.19657 -34.24087
v -12.98371 50.19656 -39.47101
v -10.18914 50.19657 -34.14741
v -4.752586 50.19657 -34.24087
v 0.5121231 52.85407 -26.79958
v -10.18914 50.19657 -34.14741
v -6.037209 52.85407 -25.1897
v 0.5121231 52.85407 -26.79958
v -4.082466 52.85408 -11.66425
v -6.037209 52.85407 -25.1897
v -8.626123 52.46954 -14.09833
v -4.082466 52.85408 -11.66425
v -13.69857 53.96928 -0.2684135
v -8.626123 52.46954 -14.09833
v -15.31544 53.96928 -0.672821
v -16.48281 50.19656 -48.8651
v -15.01159 50.19656 -43.71678
v -18.09969 50.19656 -49.2695
v -18.5774 50.19656 -43.08732
v -15.01159 50.19656 -43.71678
v -12.98371 50.19656 -39.47101
v -18.5774 50.19656 -43.08732
v -17.86645 50.19656 -38.22029
v -12.98371 50.19656 -39.47101
v -10.18914 50.19657 -34.14741
v -17.86645 50.19656 -38.22029
v -15.0792 50.19657 -32.54208
v -10.18914 50.19657 -34.14741
v -6.037209 52.85407 -25.1897
v -15.0792 50.19657 -32.54208
v -11.29345 52.85407 -25.80642
v -6.037209 52.85407 -25.1897
v -8.626123 52.46954 -14.09833
v -11.29345 52.85407 -25.80642
v -12.84554 52.85408 -17.19157
v -8.626123 52.46954 -14.09833
v -15.31544 53.96928 -0.672821
v -12.84554 52.85408 -17.19157
v -16.93232 53.96928 -1.077217
v -18.09969 50.19656 -49.2695
v -18.5774 50.19656 -43.08732
v -19.71661 50.19656 -49.67392
v -20.24194 50.19656 -43.17294
v -18.5774 50.19656 -43.08732
v -17.86645 50.19656 -38.22029
v -20.24194 50.19656 -43.17294
v -19.9491 50.19656 -38.27972
v -17.86645 50.19656 -38.22029
v -15.0792 50.19657 -32.54208
v -19.9491 50.19656 -38.27972
v -17.80088 50.19657 -32.70608
v -15.0792 50.19657 -32.54208
v -11.29345 52.85407 -25.80642
v -17.80088 50.19657 -32.70608
v -14.58692 52.85407 -26.16114
v -11.29345 52.85407 -25.80642
v -12.84554 52.85408 -17.19157
v -14.58692 52.85407 -26.16114
v -15.99044 52.85408 -17.98301
v -12.84554 52.85408 -17.19157
v -16.93232 53.96928 -1.077217
v -15.99044 52.85408 -17.98301
v -18.5492 53.96928 -1.481625
v -19.71661 50.19656 -49.67392
v -20.24194 50.19656 -43.17294
v -21.33344 50.19656 -50.07831
v -21.90638 50.19656 -43.25854
v -20.24194 50.19656 -43.17294
v -19.9491 50.19656 -38.27972
v -21.90638 50.19656 -43.25854
v -22.03175 50.19656 -38.33913
v -19.9491 50.19656 -38.27972
v -17.80088 50.19657 -32.70608
v -22.03175 50.19656 -38.33913
v -20.52241 50.19657 -32.87004
v -17.80088 50.19657 -32.70608
v -14.58692 52.85407 -26.16114
v -20.52241 50.19657 -32.87004
v -17.88027 52.85407 -26.51585
v -14.58692 52.85407 -26.16114
v -15.99044 52.85408 -17.98301
v -17.88027 52.85407 -26.51585
v -19.13526 52.85408 -18.77443
v -15.99044 52.85408 -17.98301
v -18.5492 53.96928 -1.481625
v -19.13526 52.85408 -18.77443
v -20.16605 53.96928 -1.886032
v -21.33344 50.19656 -50.07831
v -21.90638 50.19656 -43.25854
v -22.95033 50.19656 -50.48271
v -23.57087 50.19656 -43.34416
v -21.90638 50.19656 -43.25854
v -22.03175 50.19656 -38.33913
v -23.57087 50.19656 -43.34416
v -24.11448 50.19656 -38.39856
v -22.03175 50.19656 -38.33913
v -20.52241 50.19657 -32.87004
v -24.11448 50.19656 -38.39856
v -23.24413 50.19657 -33.03404
v -20.52241 50.19657 -32.87004
v -17.88027 52.85407 -26.51585
v -23.24413 50.19657 -33.03404
v -21.17382 52.85407 -26.87056
v -17.88027 52.85407 -26.51585
v -19.13526 52.85408 -18.77443
v -21.17382 52.85407 -26.87056
v -22.28016 52.85408 -19.56587
v -19.13526 52.85408 -18.77443
v -20.16605 53.96928 -1.886032
v -22.28016 52.85408 -19.56587
v -21.78294 53.96928 -2.290436
vt 0.6966155 0.4160475
vt 0.631196 0.4159966
vt 0.6964962 0.4440827
vt 0.6310771 0.4440318
vt 0.631196 0.4159966
vt 0.5657764 0.4159455
vt 0.6310771 0.4440318
vt 0.5656573 0.4439808
vt 0.5657764 0.4159455
vt 0.5003573 0.4158945
vt 0.5656573 0.4439808
vt 0.500238 0.4439298
vt 0.5003573 0.4158945
vt 0.4349376 0.4158435
vt 0.500238 0.4439298
vt 0.4348186 0.4438788
vt 0.4349376 0.4158435
vt 0.369518 0.4157925
vt 0.4348186 0.4438788
vt 0.3693989 0.4438278
vt 0.369518 0.4157925
vt 0.3040986 0.4157415
vt 0.3693989 0.4438278
vt 0.3039796 0.4437767
vt 0.6964962 0.4440827
vt 0.6310771 0.4440318
vt 0.6963775 0.4721178
vt 0.630958 0.4720667
vt 0.6310771 0.4440318
vt 0.5656573 0.4439808
vt 0.630958 0.4720667
vt 0.5655382 0.4720157
vt 0.5656573 0.4439808
vt 0.500238 0.4439298
vt 0.5655382 0.4720157
vt 0.5001191 0.4719647
vt 0.500238 0.4439298
vt 0.4348186 0.4438788
vt 0.5001191 0.4719647
vt 0.4346997 0.4719138
vt 0.4348186 0.4438788
vt 0.3693989 0.4438278
vt 0.4346997 0.4719138
vt 0.3692799 0.4718627
vt 0.3693989 0.4438278
vt 0.3039796 0.4437767
vt 0.3692799 0.4718627
vt 0.3038607 0.4718118
vt 0.6963775 0.4721178
vt 0.630958 0.4720667
vt 0.6962581 0.5001531
vt 0.6308388 0.500102
vt 0.630958 0.4720667
vt 0.5655382 0.4720157
vt 0.6308388 0.500102
vt 0.5654194 0.5000509
vt 0.5655382 0.4720157
vt 0.5001191 0.4719647
vt 0.5654194 0.5000509
vt 0.5 0.5
vt 0.5001191 0.4719647
vt 0.4346997 0.4719138
vt 0.5 0.5
vt 0.4345806 0.499949
vt 0.4346997 0.4719138
vt 0.3692799 0.4718627
vt 0.4345806 0.499949
vt 0.369161 0.499898
vt 0.3692799 0.4718627
vt 0.3038607 0.4718118
vt 0.369161 0.499898
vt 0.3037416 0.499847
vt 0.6962581 0.5001531
vt 0.6308388 0.500102
vt 0.6961396 0.5281882
vt 0.6307201 0.5281372
vt 0.6308388 0.500102
vt 0.5654194 0.5000509
vt 0.6307201 0.5281372
vt 0.5653003 0.5280863
vt 0.5654194 0.5000509
vt 0.5 0.5
vt 0.5653003 0.5280863
vt 0.499881 0.5280353
vt 0.5 0.5
vt 0.4345806 0.499949
vt 0.499881 0.5280353
vt 0.4344617 0.5279842
vt 0.4345806 0.499949
vt 0.369161 0.499898
vt 0.4344617 0.5279842
vt 0.3690419 0.5279332
vt 0.369161 0.499898
vt 0.3037416 0.499847
vt 0.3690419 0.5279332
vt 0.3036226 0.5278822
vt 0.6961396 0.5281882
vt 0.6307201 0.5281372
vt 0.6960205 0.5562233
vt 0.630601 0.5561722
vt 0.6307201 0.5281372
vt 0.5653003 0.5280863
vt 0.630601 0.5561722
vt 0.5651815 0.5561212
vt 0.5653003 0.5280863
vt 0.499881 0.5280353
vt 0.5651815 0.5561212
vt 0.4997621 0.5560701
vt 0.499881 0.5280353
vt 0.4344617 0.5279842
vt 0.4997621 0.5560701
vt 0.4343427 0.5560193
vt 0.4344617 0.5279842
vt 0.3690419 0.5279332
vt 0.4343427 0.5560193
vt 0.368923 0.5559682
vt 0.3690419 0.5279332
vt 0.3036226 0.5278822
vt 0.368923 0.5559682
vt 0.3035035 0.5559172
vt 0.6960205 0.5562233
vt 0.630601 0.5561722
vt 0.6959013 0.5842584
vt 0.630482 0.5842075
vt 0.630601 0.5561722
vt 0.5651815 0.5561212
vt 0.630482 0.5842075
vt 0.5650623 0.5841564
vt 0.5651815 0.5561212
vt 0.4997621 0.5560701
vt 0.5650623 0.5841564
vt 0.499643 0.5841054
vt 0.4997621 0.5560701
vt 0.4343427 0.5560193
vt 0.499643 0.5841054
vt 0.4342236 0.5840545
vt 0.4343427 0.5560193
vt 0.368923 0.5559682
vt 0.4342236 0.5840545
vt 0.368804 0.5840036
vt 0.368923 0.5559682
vt 0.3035035 0.5559172
vt 0.368804 0.5840036
vt 0.3033846 0.5839525
vn -1.944016E-07 1 -7.424296E-07
vn -1.986811E-07 1 -7.284901E-07
vn -1.986811E-07 1 -7.284901E-07
vn -2.029606E-07 1 -7.145507E-07
vn 2.026512E-07 1 7.134612E-07
vn 2.004937E-07 1 7.210137E-07
vn 2.004937E-07 1 7.210137E-07
vn 1.983363E-07 1 7.285662E-07
vn -2.855881E-07 1 -1.049076E-06
vn -2.758958E-07 1 -1.080584E-06
vn -2.758958E-07 1 -1.080584E-06
vn -2.662035E-07 1 -1.112091E-06
vn -0.06458125 0.9607499 -0.2697945
vn -0.05592352 0.9557836 -0.2879596
vn -0.05592352 0.9557836 -0.2879596
vn -0.0472658 0.9508173 -0.3061247
vn -0.01157487 0.9971189 -0.07496656
vn -0.1082973 0.986948 -0.06860226
vn -0.1082973 0.986948 -0.06860226
vn -0.2050197 0.976777 -0.06223797
vn -0.09921823 0.982106 -0.1600734
vn -0.0395388 0.9893275 -0.1203001
vn -0.0395388 0.9893275 -0.1203001
vn 0.02014062 0.996549 -0.08052676
vn -1.553404E-07 1 -7.302866E-07
vn -1.685742E-07 1 -7.096455E-07
vn -1.685742E-07 1 -7.096455E-07
vn -1.818081E-07 1 -6.890044E-07
vn 1.927234E-07 1 7.303702E-07
vn 1.622625E-07 1 7.829448E-07
vn 1.622625E-07 1 7.829448E-07
vn 1.318017E-07 1 8.355194E-07
vn -1.843466E-07 1 -1.168613E-06
vn -1.043816E-07 1 -1.294461E-06
vn -1.043816E-07 1 -1.294461E-06
vn -2.44166E-08 1 -1.420308E-06
vn -0.005719954 0.9430053 -0.3327285
vn -0.03442732 0.9536968 -0.2947864
vn -0.03442732 0.9536968 -0.2947864
vn -0.06313469 0.9643884 -0.2568443
vn -2.008478E-07 1 -8.170881E-07
vn -0.04567191 0.997866 0.00659981
vn -0.04567191 0.997866 0.00659981
vn -0.09134361 0.9957319 0.01320044
vn -0.0220271 0.9930324 -0.1157649
vn 0.001343871 0.9939158 -0.1072888
vn 0.001343871 0.9939158 -0.1072888
vn 0.02471484 0.9947991 -0.09881275
vn 1.995892E-07 1 -7.979952E-07
vn 4.457894E-08 1 -7.117875E-07
vn 4.457894E-08 1 -7.117875E-07
vn -1.104313E-07 1 -6.255798E-07
vn 1.462712E-07 1 8.286084E-07
vn 1.698987E-07 1 7.920614E-07
vn 1.698987E-07 1 7.920614E-07
vn 1.935263E-07 1 7.555144E-07
vn -3.235867E-07 1 -1.263262E-06
vn -3.517314E-07 1 -1.21021E-06
vn -3.517314E-07 1 -1.21021E-06
vn -3.798761E-07 1 -1.157158E-06
vn -0.08158739 0.9651828 -0.248527
vn -0.01798991 0.9427078 -0.3186159
vn -0.01798991 0.9427078 -0.3186159
vn 0.04560757 0.9202329 -0.3887049
vn -0.003957133 0.9994233 0.03372591
vn 0.03813985 0.9980472 0.02409022
vn 0.03813985 0.9980472 0.02409022
vn 0.08023684 0.996671 0.01445453
vn 0.1255853 0.9909151 -0.04811979
vn 0.07091255 0.9943364 -0.05652546
vn 0.07091255 0.9943364 -0.05652546
vn 0.01623983 0.9977576 -0.06493113
vn 1.514054E-07 1 -6.053473E-07
vn 9.073125E-08 1 -5.948532E-07
vn 9.073125E-08 1 -5.948532E-07
vn 3.00571E-08 1 -5.843592E-07
vn -4.061991E-08 1 7.897174E-07
vn -3.145115E-08 1 7.853197E-07
vn -3.145115E-08 1 7.853197E-07
vn -2.228239E-08 1 7.80922E-07
vn 3.888287E-08 1 -1.362713E-06
vn 6.166229E-08 1 -1.382047E-06
vn 6.166229E-08 1 -1.382047E-06
vn 8.44417E-08 1 -1.401381E-06
vn 0.0227747 0.9255396 -0.3779655
vn 0.0325874 0.9219053 -0.3858206
vn 0.0325874 0.9219053 -0.3858206
vn 0.0424001 0.9182711 -0.3936757
vn 1.403509E-07 1 -1.303128E-06
vn 2.389657E-07 1 -1.322273E-06
vn 2.389657E-07 1 -1.322273E-06
vn 3.375805E-07 1 -1.341419E-06
vn 0.01633449 0.9977576 -0.06490713
vn 0.01628508 0.9977583 -0.06490992
vn 0.01628508 0.9977583 -0.06490992
vn 0.01623568 0.9977589 -0.06491271
vn 1.43856E-07 1 -5.751633E-07
vn 8.625121E-08 1 -5.660579E-07
vn 8.625121E-08 1 -5.660579E-07
vn 2.864644E-08 1 -5.569526E-07
vn -4.022136E-08 1 7.819955E-07
vn -3.116282E-08 1 7.784344E-07
vn -3.116282E-08 1 7.784344E-07
vn -2.210428E-08 1 7.748733E-07
vn 3.948193E-08 1 -1.384053E-06
vn 6.247373E-08 1 -1.401321E-06
vn 6.247373E-08 1 -1.401321E-06
vn 8.546553E-08 1 -1.41859E-06
vn 0.02324851 0.9222528 -0.3858878
vn 0.03320289 0.9187217 -0.3932959
vn 0.03320289 0.9187217 -0.3932959
vn 0.04315728 0.9151906 -0.400704
vn 1.479802E-07 1 -1.373957E-06
vn 2.527099E-07 1 -1.397153E-06
vn 2.527099E-07 1 -1.397153E-06
vn 3.574396E-07 1 -1.420348E-06
vn 0.01633193 0.9977583 -0.06489775
vn 0.01628168 0.9977592 -0.06489611
vn 0.01628168 0.9977592 -0.06489611
vn 0.01623142 0.9977601 -0.06489446
vn 1.370239E-07 1 -5.478477E-07
vn -1.072293E-06 1 -3.730924E-07
vn -1.072293E-06 1 -3.730924E-07
vn -2.28161E-06 1 -1.983372E-07
vn -2.328644E-06 1 7.160936E-07
vn -1.164322E-06 1 3.580468E-07
vn -1.164322E-06 1 3.580468E-07
vn 0 1 0
vn 4.012129E-08 1 -1.406076E-06
vn 6.333192E-08 1 -1.421157E-06
vn 6.333192E-08 1 -1.421157E-06
vn 8.654256E-08 1 -1.436238E-06
vn 0.02374842 0.918751 -0.3941226
vn 0.03384275 0.9153465 -0.4010413
vn 0.03384275 0.9153465 -0.4010413
vn 0.04393707 0.911942 -0.4079599
vn 1.564794E-07 1 -1.452926E-06
vn 2.681363E-07 1 -1.481041E-06
vn 2.681363E-07 1 -1.481041E-06
vn 3.797931E-07 1 -1.509155E-06
vn 0.01632977 0.9977589 -0.06488837
vn 0.01627808 0.9977602 -0.06488227
vn 0.01627808 0.9977602 -0.06488227
vn 0.01622639 0.9977614 -0.06487617
g pb_Mesh283158_0
f 3/3/3 2/2/2 1/1/1
f 3/3/3 4/4/4 2/2/2
f 7/7/7 6/6/6 5/5/5
f 7/7/7 8/8/8 6/6/6
f 11/11/11 10/10/10 9/9/9
f 11/11/11 12/12/12 10/10/10
f 15/15/15 14/14/14 13/13/13
f 15/15/15 16/16/16 14/14/14
f 19/19/19 18/18/18 17/17/17
f 19/19/19 20/20/20 18/18/18
f 23/23/23 22/22/22 21/21/21
f 23/23/23 24/24/24 22/22/22
f 27/27/27 26/26/26 25/25/25
f 27/27/27 28/28/28 26/26/26
f 31/31/31 30/30/30 29/29/29
f 31/31/31 32/32/32 30/30/30
f 35/35/35 34/34/34 33/33/33
f 35/35/35 36/36/36 34/34/34
f 39/39/39 38/38/38 37/37/37
f 39/39/39 40/40/40 38/38/38
f 43/43/43 42/42/42 41/41/41
f 43/43/43 44/44/44 42/42/42
f 47/47/47 46/46/46 45/45/45
f 47/47/47 48/48/48 46/46/46
f 51/51/51 50/50/50 49/49/49
f 51/51/51 52/52/52 50/50/50
f 55/55/55 54/54/54 53/53/53
f 55/55/55 56/56/56 54/54/54
f 59/59/59 58/58/58 57/57/57
f 59/59/59 60/60/60 58/58/58
f 63/63/63 62/62/62 61/61/61
f 63/63/63 64/64/64 62/62/62
f 67/67/67 66/66/66 65/65/65
f 67/67/67 68/68/68 66/66/66
f 71/71/71 70/70/70 69/69/69
f 71/71/71 72/72/72 70/70/70
f 75/75/75 74/74/74 73/73/73
f 75/75/75 76/76/76 74/74/74
f 79/79/79 78/78/78 77/77/77
f 79/79/79 80/80/80 78/78/78
f 83/83/83 82/82/82 81/81/81
f 83/83/83 84/84/84 82/82/82
f 87/87/87 86/86/86 85/85/85
f 87/87/87 88/88/88 86/86/86
f 91/91/91 90/90/90 89/89/89
f 91/91/91 92/92/92 90/90/90
f 95/95/95 94/94/94 93/93/93
f 95/95/95 96/96/96 94/94/94
f 99/99/99 98/98/98 97/97/97
f 99/99/99 100/100/100 98/98/98
f 103/103/103 102/102/102 101/101/101
f 103/103/103 104/104/104 102/102/102
f 107/107/107 106/106/106 105/105/105
f 107/107/107 108/108/108 106/106/106
f 111/111/111 110/110/110 109/109/109
f 111/111/111 112/112/112 110/110/110
f 115/115/115 114/114/114 113/113/113
f 115/115/115 116/116/116 114/114/114
f 119/119/119 118/118/118 117/117/117
f 119/119/119 120/120/120 118/118/118
f 123/123/123 122/122/122 121/121/121
f 123/123/123 124/124/124 122/122/122
f 127/127/127 126/126/126 125/125/125
f 127/127/127 128/128/128 126/126/126
f 131/131/131 130/130/130 129/129/129
f 131/131/131 132/132/132 130/130/130
f 135/135/135 134/134/134 133/133/133
f 135/135/135 136/136/136 134/134/134
f 139/139/139 138/138/138 137/137/137
f 139/139/139 140/140/140 138/138/138
f 143/143/143 142/142/142 141/141/141
f 143/143/143 144/144/144 142/142/142
