g pb_Mesh-12238
v 2 1 2
v -2 1 2
v 2 1 -2
v -2 1 -2
v -2 0.75 2
v -2 1 2
v 2 1 2
v 2 0.75 2
v -2 0.75 -2
v -2 1 -2
v -2 1 2
v -2 0.75 2
v 2 0.75 -2
v 2 1 -2
v -2 1 -2
v -2 0.75 -2
v 2 0.75 2
v 2 1 2
v 2 1 -2
v 2 0.75 -2
v 2 0.75 -2
v 2 0.75 2
v 2.5 0.75 -2.5
v 2.5 0.75 2.5
v -2 0.75 2
v -2 0.75 -2
v -2.5 0.75 2.5
v -2.5 0.75 -2.5
v 2 0.75 2
v -2 0.75 2
v 2.5 0.75 2.5
v -2.5 0.75 2.5
v -2 0.75 -2
v 2 0.75 -2
v -2.5 0.75 -2.5
v 2.5 0.75 -2.5
v 2.5 0.75 -2.5
v 2.5 0.75 2.5
v 2.5 0.5 -2.5
v 2.5 0.5 2.5
v -2.5 0.75 2.5
v -2.5 0.75 -2.5
v -2.5 0.5 2.5
v -2.5 0.5 -2.5
v 2.5 0.75 2.5
v -2.5 0.75 2.5
v 2.5 0.5 2.5
v -2.5 0.5 2.5
v -2.5 0.75 -2.5
v 2.5 0.75 -2.5
v -2.5 0.5 -2.5
v 2.5 0.5 -2.5
v 2.5 0.5 -2.5
v 2.5 0.5 2.5
v 3 0.5 -3
v 3 0.5 3
v -2.5 0.5 2.5
v -2.5 0.5 -2.5
v -3 0.5 3
v -3 0.5 -3
v 2.5 0.5 2.5
v -2.5 0.5 2.5
v 3 0.5 3
v -3 0.5 3
v -2.5 0.5 -2.5
v 2.5 0.5 -2.5
v -3 0.5 -3
v 3 0.5 -3
v 3 0.5 -3
v 3 0.5 3
v 3 0.25 -3
v 3 0.25 3
v -3 0.5 3
v -3 0.5 -3
v -3 0.25 3
v -3 0.25 -3
v 3 0.5 3
v -3 0.5 3
v 3 0.25 3
v -3 0.25 3
v -3 0.5 -3
v 3 0.5 -3
v -3 0.25 -3
v 3 0.25 -3
v 3 0.25 -3
v 3 0.25 3
v 3.5 0.25 -3.5
v 3.5 0.25 3.5
v -3 0.25 3
v -3 0.25 -3
v -3.5 0.25 3.5
v -3.5 0.25 -3.5
v 3 0.25 3
v -3 0.25 3
v 3.5 0.25 3.5
v -3.5 0.25 3.5
v -3 0.25 -3
v 3 0.25 -3
v -3.5 0.25 -3.5
v 3.5 0.25 -3.5
v 3.5 0.25 -3.5
v 3.5 0.25 3.5
v 3.5 0 -3.5
v 3.5 0 3.5
v -3.5 0.25 3.5
v -3.5 0.25 -3.5
v -3.5 0 3.5
v -3.5 0 -3.5
v 3.5 0.25 3.5
v -3.5 0.25 3.5
v 3.5 0 3.5
v -3.5 0 3.5
v -3.5 0.25 -3.5
v 3.5 0.25 -3.5
v -3.5 0 -3.5
v 3.5 0 -3.5
vt -2 2
vt 2 2
vt -2 -2
vt 2 -2
vt -2 0.75
vt -2 1
vt 2 1
vt 2 0.75
vt -2 0.75
vt -2 1
vt 2 1
vt 2 0.75
vt -2 0.75
vt -2 1
vt 2 1
vt 2 0.75
vt -2 0.75
vt -2 1
vt 2 1
vt 2 0.75
vt -2 -2
vt -2 2
vt -2.5 -2.5
vt -2.5 2.5
vt 2 2
vt 2 -2
vt 2.5 2.5
vt 2.5 -2.5
vt -2 2
vt 2 2
vt -2.5 2.5
vt 2.5 2.5
vt 2 -2
vt -2 -2
vt 2.5 -2.5
vt -2.5 -2.5
vt 2.5 0.75
vt -2.5 0.75
vt 2.5 0.5
vt -2.5 0.5
vt 2.5 0.75
vt -2.5 0.75
vt 2.5 0.5
vt -2.5 0.5
vt 2.5 0.75
vt -2.5 0.75
vt 2.5 0.5
vt -2.5 0.5
vt 2.5 0.75
vt -2.5 0.75
vt 2.5 0.5
vt -2.5 0.5
vt -2.5 -2.5
vt -2.5 2.5
vt -3 -3
vt -3 3
vt 2.5 2.5
vt 2.5 -2.5
vt 3 3
vt 3 -3
vt -2.5 2.5
vt 2.5 2.5
vt -3 3
vt 3 3
vt 2.5 -2.5
vt -2.5 -2.5
vt 3 -3
vt -3 -3
vt 3 0.5
vt -3 0.5
vt 3 0.25
vt -3 0.25
vt 3 0.5
vt -3 0.5
vt 3 0.25
vt -3 0.25
vt 3 0.5
vt -3 0.5
vt 3 0.25
vt -3 0.25
vt 3 0.5
vt -3 0.5
vt 3 0.25
vt -3 0.25
vt -3 -3
vt -3 3
vt -3.5 -3.5
vt -3.5 3.5
vt 3 3
vt 3 -3
vt 3.5 3.5
vt 3.5 -3.5
vt -3 3
vt 3 3
vt -3.5 3.5
vt 3.5 3.5
vt 3 -3
vt -3 -3
vt 3.5 -3.5
vt -3.5 -3.5
vt 3.5 0.25
vt -3.5 0.25
vt 3.5 0
vt -3.5 0
vt 3.5 0.25
vt -3.5 0.25
vt 3.5 0
vt -3.5 0
vt 3.5 0.25
vt -3.5 0.25
vt 3.5 0
vt -3.5 0
vt 3.5 0.25
vt -3.5 0.25
vt 3.5 0
vt -3.5 0
vn 0 1 0
vn 0 1 0
vn 0 1 0
vn 0 1 0
vn 0 0 1
vn 0 0 1
vn 0 0 1
vn 0 0 1
vn -1 0 0
vn -1 0 0
vn -1 0 0
vn -1 0 0
vn 0 0 -1
vn 0 0 -1
vn 0 0 -1
vn 0 0 -1
vn 1 0 0
vn 1 0 0
vn 1 0 0
vn 1 0 0
vn 0 1 0
vn 0 1 0
vn 0 1 0
vn 0 1 0
vn 0 1 0
vn 0 1 0
vn 0 1 0
vn 0 1 0
vn 0 1 0
vn 0 1 0
vn 0 1 0
vn 0 1 0
vn 0 1 0
vn 0 1 0
vn 0 1 0
vn 0 1 0
vn 1 0 0
vn 1 0 0
vn 1 0 0
vn 1 0 0
vn -1 0 0
vn -1 0 0
vn -1 0 0
vn -1 0 0
vn 0 0 1
vn 0 0 1
vn 0 0 1
vn 0 0 1
vn 0 0 -1
vn 0 0 -1
vn 0 0 -1
vn 0 0 -1
vn 0 1 0
vn 0 1 0
vn 0 1 0
vn 0 1 0
vn 0 1 0
vn 0 1 0
vn 0 1 0
vn 0 1 0
vn 0 1 0
vn 0 1 0
vn 0 1 0
vn 0 1 0
vn 0 1 0
vn 0 1 0
vn 0 1 0
vn 0 1 0
vn 1 0 0
vn 1 0 0
vn 1 0 0
vn 1 0 0
vn -1 0 0
vn -1 0 0
vn -1 0 0
vn -1 0 0
vn 0 0 1
vn 0 0 1
vn 0 0 1
vn 0 0 1
vn 0 0 -1
vn 0 0 -1
vn 0 0 -1
vn 0 0 -1
vn 0 1 0
vn 0 1 0
vn 0 1 0
vn 0 1 0
vn 0 1 0
vn 0 1 0
vn 0 1 0
vn 0 1 0
vn 0 1 0
vn 0 1 0
vn 0 1 0
vn 0 1 0
vn 0 1 0
vn 0 1 0
vn 0 1 0
vn 0 1 0
vn 1 0 0
vn 1 0 0
vn 1 0 0
vn 1 0 0
vn -1 0 0
vn -1 0 0
vn -1 0 0
vn -1 0 0
vn 0 0 1
vn 0 0 1
vn 0 0 1
vn 0 0 1
vn 0 0 -1
vn 0 0 -1
vn 0 0 -1
vn 0 0 -1
g pb_Mesh-12238_0
f 3/3/3 2/2/2 1/1/1
f 3/3/3 4/4/4 2/2/2
f 6/6/6 5/5/5 8/8/8
f 6/6/6 8/8/8 7/7/7
f 10/10/10 9/9/9 12/12/12
f 10/10/10 12/12/12 11/11/11
f 14/14/14 13/13/13 15/15/15
f 13/13/13 16/16/16 15/15/15
f 18/18/18 17/17/17 19/19/19
f 17/17/17 20/20/20 19/19/19
f 21/21/21 22/22/22 23/23/23
f 22/22/22 24/24/24 23/23/23
f 25/25/25 26/26/26 27/27/27
f 26/26/26 28/28/28 27/27/27
f 29/29/29 30/30/30 31/31/31
f 30/30/30 32/32/32 31/31/31
f 33/33/33 34/34/34 35/35/35
f 34/34/34 36/36/36 35/35/35
f 37/37/37 38/38/38 39/39/39
f 38/38/38 40/40/40 39/39/39
f 41/41/41 42/42/42 43/43/43
f 42/42/42 44/44/44 43/43/43
f 45/45/45 46/46/46 47/47/47
f 46/46/46 48/48/48 47/47/47
f 49/49/49 50/50/50 51/51/51
f 50/50/50 52/52/52 51/51/51
f 53/53/53 54/54/54 55/55/55
f 54/54/54 56/56/56 55/55/55
f 57/57/57 58/58/58 59/59/59
f 58/58/58 60/60/60 59/59/59
f 61/61/61 62/62/62 63/63/63
f 62/62/62 64/64/64 63/63/63
f 65/65/65 66/66/66 67/67/67
f 66/66/66 68/68/68 67/67/67
f 69/69/69 70/70/70 71/71/71
f 70/70/70 72/72/72 71/71/71
f 73/73/73 74/74/74 75/75/75
f 74/74/74 76/76/76 75/75/75
f 77/77/77 78/78/78 79/79/79
f 78/78/78 80/80/80 79/79/79
f 81/81/81 82/82/82 83/83/83
f 82/82/82 84/84/84 83/83/83
f 85/85/85 86/86/86 87/87/87
f 86/86/86 88/88/88 87/87/87
f 89/89/89 90/90/90 91/91/91
f 90/90/90 92/92/92 91/91/91
f 93/93/93 94/94/94 95/95/95
f 94/94/94 96/96/96 95/95/95
f 97/97/97 98/98/98 99/99/99
f 98/98/98 100/100/100 99/99/99
f 101/101/101 102/102/102 103/103/103
f 102/102/102 104/104/104 103/103/103
f 105/105/105 106/106/106 107/107/107
f 106/106/106 108/108/108 107/107/107
f 109/109/109 110/110/110 111/111/111
f 110/110/110 112/112/112 111/111/111
f 113/113/113 114/114/114 115/115/115
f 114/114/114 116/116/116 115/115/115
