g pb_Mesh320858
v 0 0 0
v -4 0 0
v 0 4 0
v -4 4 0
v -4 0 0
v -4 0 -4
v -4 4 0
v -4 4 -4
v -4 0 -4
v 0 0 -4
v -4 4 -4
v 0 4 -4
v 0 0 -4
v 0 0 0
v 0 4 -4
v 0 4 0
v 0 63 0
v -4 63 0
v 0 40.0001 -12
v -4 40.0001 -12
v 0 0 -4
v -4 0 -4
v 0 0 0
v -4 0 0
v 0 16.0001 0
v -4 16.0001 0
v 0 16.0001 -4
v 0 16.0001 0
v -4 16.0001 0
v -4 16.0001 -4
v -4 16.0001 -4
v 0 16.0001 -4
v 0 26 0
v -4 32.0001 0
v 0 32.0001 -12
v 0 26 0
v -4 32.0001 0
v -4 32.0001 -12
v -4 16.0001 -4
v 0 16.0001 -4
v -4 32.0001 -12
v 0 32.0001 -12
v 0 40.0001 -12
v 0 63 0
v -4 63 0
v -4 40.0001 -12
v -4 32.0001 -12
v 0 32.0001 -12
v -4 40.0001 -12
v 0 40.0001 -12
v 0 26 0
v -4 32.0001 0
v 0 26 191
v -4 32.0001 191
v 0 63 191
v 0 26 191
v -4 32.0001 191
v -4 63 191
vt 0 0
vt -4 0
vt 0 4
vt -4 4
vt 0 0
vt -4 0
vt 0 4
vt -4 4
vt 4 0
vt 0 0
vt 4 4
vt 0 4
vt 4 0
vt 0 0
vt 4 4
vt 0 4
vt 0 55.85479
vt 4 55.85479
vt 0 29.91264
vt 4 29.91264
vt 0 -4
vt -4 -4
vt 0 0
vt -4 0
vt 0 16.0001
vt -4 16.0001
vt 4 16.0001
vt 0 16.0001
vt 0 16.0001
vt -4 16.0001
vt 4 16.0001
vt 0 16.0001
vt 0 26
vt -4 32.0001
vt 12 32.0001
vt 0 26
vt 0 32.0001
vt -12 32.0001
vt 4 16.09978
vt 0 16.09978
vt 4 33.98832
vt 0 33.98832
vt 12 40.0001
vt 0 63
vt 0 63
vt -12 40.0001
vt 4 32.0001
vt 0 32.0001
vt 4 40.0001
vt 0 40.0001
vt 0 21.63342
vt 0 28.8446
vt 191 21.63342
vt 191 28.8446
vt -191 63
vt -191 26
vt 191 32.0001
vt 191 63
vn 0 0 1
vn 0 0 1
vn 0 0 1
vn 0 0 1
vn -1 0 0
vn -1 0 0
vn -1 0 0
vn -1 0 0
vn 0 0 -1
vn 0 0 -1
vn 0 0 -1
vn 0 0 -1
vn 1 0 0
vn 1 0 0
vn 1 0 0
vn 1 0 0
vn 0 0.4625676 -0.886584
vn 0 0.4625676 -0.886584
vn 0 0.4625676 -0.886584
vn 0 0.4625676 -0.886584
vn 0 -1 0
vn 0 -1 0
vn 0 -1 0
vn 0 -1 0
vn 0 0 1
vn 0 0 1
vn 1 0 0
vn 1 0 0
vn -1 0 0
vn -1 0 0
vn 0 0 -1
vn 0 0 -1
vn 0 0 1
vn 0 0 1
vn 1 0 0
vn 1 0 0
vn -1 0 0
vn -1 0 0
vn 0 -0.4472136 -0.8944272
vn 0 -0.4472136 -0.8944272
vn 0 -0.4472136 -0.8944272
vn 0 -0.4472136 -0.8944272
vn 1 0 0
vn 1 0 0
vn -1 0 0
vn -1 0 0
vn 0 0 -1
vn 0 0 -1
vn 0 0 -1
vn 0 0 -1
vn -0.8320546 -0.5546939 0
vn -0.8320546 -0.5546939 0
vn -0.8320546 -0.5546939 0
vn -0.8320546 -0.5546939 0
vn 1 0 0
vn 1 0 0
vn -1 0 0
vn -1 0 0
g pb_Mesh320858_0
g pb_Mesh320858_1
f 3/3/3 2/2/2 1/1/1
f 3/3/3 4/4/4 2/2/2
f 7/7/7 6/6/6 5/5/5
f 7/7/7 8/8/8 6/6/6
f 11/11/11 10/10/10 9/9/9
f 11/11/11 12/12/12 10/10/10
f 15/15/15 14/14/14 13/13/13
f 15/15/15 16/16/16 14/14/14
f 19/19/19 18/18/18 17/17/17
f 19/19/19 20/20/20 18/18/18
f 23/23/23 22/22/22 21/21/21
f 23/23/23 24/24/24 22/22/22
f 25/25/25 4/4/4 3/3/3
f 25/25/25 26/26/26 4/4/4
f 27/27/27 16/16/16 15/15/15
f 27/27/27 28/28/28 16/16/16
f 29/29/29 8/8/8 7/7/7
f 29/29/29 30/30/30 8/8/8
f 31/31/31 12/12/12 11/11/11
f 31/31/31 32/32/32 12/12/12
f 33/33/33 26/26/26 25/25/25
f 33/33/33 34/34/34 26/26/26
f 35/35/35 28/28/28 27/27/27
f 35/35/35 36/36/36 28/28/28
f 37/37/37 30/30/30 29/29/29
f 37/37/37 38/38/38 30/30/30
f 41/41/41 40/40/40 39/39/39
f 41/41/41 42/42/42 40/40/40
f 43/43/43 36/36/36 35/35/35
f 43/43/43 44/44/44 36/36/36
f 45/45/45 38/38/38 37/37/37
f 45/45/45 46/46/46 38/38/38
f 49/49/49 48/48/48 47/47/47
f 49/49/49 50/50/50 48/48/48
f 53/53/53 52/52/52 51/51/51
f 53/53/53 54/54/54 52/52/52
f 55/55/55 36/36/36 44/44/44
f 55/55/55 56/56/56 36/36/36
f 57/57/57 45/45/45 37/37/37
f 57/57/57 58/58/58 45/45/45
