g pb_Mesh412182
v -2 -0.9099998 2
v -2 -0.9099998 4
v -4 -0.9099998 2
v -4 0 4
v -2 -0.9099998 4
v -2 -0.9099998 8
v -4 0 4
v -4 0 8
v -4 -0.9099998 2
v -4 0 4
v -8 -0.9099998 2
v -8 0 4
v -4 0 4
v -4 0 8
v -8 0 4
v -8 0 8
vt 2 2
vt 2 4
vt 4 2
vt 4 4
vt 1.443549 4
vt 1.443549 8
vt 3.640842 4
vt 3.640842 8
vt 4 1.443549
vt 4 3.640842
vt 8 1.443549
vt 8 3.640842
vt 4 4
vt 4 8
vt 8 4
vt 8 8
vn 0 1 0
vn 0.191315 0.9204725 -0.191315
vn 0.191315 0.9204725 -0.191315
vn 0.38263 0.8409451 -0.38263
vn 0.4141458 0.9102106 0
vn 0.4141458 0.9102106 0
vn 0.4141458 0.9102106 0
vn 0.4141458 0.9102106 0
vn 0 0.9102106 -0.4141458
vn 0 0.9102106 -0.4141458
vn 0 0.9102106 -0.4141458
vn 0 0.9102106 -0.4141458
vn 0 1 0
vn 0 1 0
vn 0 1 0
vn 0 1 0
g pb_Mesh412182_0
f 3/3/3 2/2/2 1/1/1
f 3/3/3 4/4/4 2/2/2
f 7/7/7 6/6/6 5/5/5
f 7/7/7 8/8/8 6/6/6
f 11/11/11 10/10/10 9/9/9
f 11/11/11 12/12/12 10/10/10
f 15/15/15 14/14/14 13/13/13
f 15/15/15 16/16/16 14/14/14
