g pb_Mesh357608
v 0 2 2
v -2 2 2
v -0.9999985 3 1.999993
v -2 3 2
v -2 2 0
v -2 3 0
v -2 2 2
v -2 3 2
v -2 3 0
v 0 3 0
v 0 3 1
v -2 3 2
v -0.9999985 3 1.999993
v 0 0 0
v -2 0 0
v 0 0 2
v -2 0 2
v 0 2 0
v 0 0 0
v 0 2 2
v 0 0 2
v -2 0 0
v -2 0 2
v 0 0 4
v -2 0 4
v -2 0 4
v -2 2 4
v 0 3 1
v 0 3 0
v 0 2 2
v -0.9999985 3 1.999993
v 0 3 1
v -2.384186E-07 1.5 3.999995
v 0 0 4
v -0.5000003 2 3.999994
v -2 0 4
v -2 2 4
v 0 2 3.749995
v 0 0 4
v -2.384186E-07 1.5 3.999995
v -2 2 4
v -2 2 2
v -0.5000003 2 3.999994
v 0 2 2
v 0 2 3.749995
v 0 2 3.749995
v -2.384186E-07 1.5 3.999995
v -0.5000003 2 3.999994
vt 0 1.999987
vt -2 1.999987
vt -0.9999985 2.999987
vt -2 2.999987
vt 0 2
vt 0 3
vt 2 2
vt 2 3
vt 2 0
vt 0 0
vt 0 1
vt 2 2
vt 0.9999985 1.999993
vt 0 0
vt -2 0
vt 0 2
vt -2 2
vt 0 2
vt 0 0
vt -2 2
vt -2 0
vt 0 0
vt 2 0
vt 0 4
vt -2 4
vt 4 0
vt 4 2
vt -1 3
vt 0 3
vt -1.41421 0.8164917
vt -2.121313 2.041238
vt -0.707105 2.041238
vt -7.296004E-06 1.499993
vt -7.057595E-06 -7.281989E-06
vt -0.5000073 1.999993
vt -2.000007 -7.281983E-06
vt -2.000007 1.999993
vt -3.749995 2
vt -4 -3.728519E-15
vt -3.999995 1.5
vt 2 4
vt 2 2
vt 0.5000003 3.999994
vt 0 2
vt 0 3.749995
vt -1.677045 0.4564367
vt -1.788849 -0.09128583
vt -2.236062 0.4564367
vn 0 6.67572E-06 1
vn 3.337855E-06 3.33786E-06 1
vn 3.337855E-06 3.33786E-06 1
vn 6.67571E-06 0 1
vn -1 0 0
vn -1 0 0
vn -1 0 0
vn -1 0 0
vn 0 1 0
vn 0 1 0
vn 0 1 0
vn 0 1 0
vn 0 1 0
vn 0 -1 0
vn 0 -1 0
vn 0 -1 0
vn 0 -1 0
vn 1 0 0
vn 1 0 0
vn 1 0 0
vn 1 0 0
vn -1 0 0
vn -1 0 0
vn 0 -1 0
vn 0 -1 0
vn -1 0 0
vn -1 0 0
vn 1 0 0
vn 1 0 0
vn 0.5773483 0.5773513 0.5773513
vn 0.5773483 0.5773513 0.5773513
vn 0.5773483 0.5773513 0.5773513
vn 2.702077E-06 3.655752E-06 1
vn 1.351039E-06 3.317992E-06 1
vn 2.22524E-06 2.211995E-06 1
vn 1.986822E-06 1.490116E-06 1
vn 3.973644E-06 0 1
vn 1 5.298346E-08 4.238583E-07
vn 1 7.947519E-08 6.357875E-07
vn 1 1.589504E-07 1.271575E-06
vn 0 1 0
vn 0 1 0
vn 0 1 0
vn 0 1 0
vn 0 1 0
vn 0.4082475 0.4082483 0.816497
vn 0.4082475 0.4082483 0.816497
vn 0.4082475 0.4082483 0.816497
g pb_Mesh357608_0
g pb_Mesh357608_1
f 3/3/3 2/2/2 1/1/1
f 3/3/3 4/4/4 2/2/2
f 7/7/7 6/6/6 5/5/5
f 7/7/7 8/8/8 6/6/6
f 11/11/11 10/10/10 9/9/9
f 12/12/12 11/11/11 9/9/9
f 12/12/12 13/13/13 11/11/11
f 16/16/16 15/15/15 14/14/14
f 16/16/16 17/17/17 15/15/15
f 20/20/20 19/19/19 18/18/18
f 20/20/20 21/21/21 19/19/19
f 23/23/23 5/5/5 22/22/22
f 23/23/23 7/7/7 5/5/5
f 24/24/24 17/17/17 16/16/16
f 24/24/24 25/25/25 17/17/17
f 26/26/26 7/7/7 23/23/23
f 26/26/26 27/27/27 7/7/7
f 18/18/18 29/29/29 28/28/28
f 18/18/18 28/28/28 20/20/20
f 32/32/32 31/31/31 30/30/30
f 35/35/35 34/34/34 33/33/33
f 34/34/34 35/35/35 36/36/36
f 35/35/35 37/37/37 36/36/36
f 21/21/21 20/20/20 38/38/38
f 21/21/21 38/38/38 39/39/39
f 40/40/40 39/39/39 38/38/38
f 43/43/43 42/42/42 41/41/41
f 45/45/45 44/44/44 42/42/42
f 43/43/43 45/45/45 42/42/42
f 48/48/48 47/47/47 46/46/46
