g pb_Mesh318762
v 0 2 0
v -4 2 0
v 0 4 0
v -4 4 0
v -4 2 0
v -4 2 -4
v -4 4 0
v -4 4 -4
v -4 2 -16.0001
v 0 2 -16.0001
v -4 4 -16.0001
v 0 4 -16.0001
v 0 2 -4
v 0 2 0
v 0 4 -4
v 0 4 0
v 0 4 0
v -4 4 0
v 0 4 -4
v -4 4 -4
v 0 2 -4
v -4 2 -4
v 0 2 0
v -4 2 0
v -4 2 -4
v 0 2 -4
v -4 0 -6
v 0 0 -6
v -4 4 -6
v -4 0 -6
v 0 0 -6
v 0 4 -6
v 0 4 -6
v -4 4 -6
v -4 0 -6
v 0 0 -6
v -4 -10 -6
v 0 -10 -6
v 0 0 -10
v -4 0 -10
v 0 -10 -10
v -4 -10 -10
v -4 0 -10
v 0 0 -10
v -4 2 -12
v 0 2 -12
v -4 4 -10
v -4 0 -10
v -4 4 -12
v -4 2 -12
v 0 0 -10
v 0 4 -10
v 0 2 -12
v 0 4 -12
v 0 4 -10
v -4 4 -10
v 0 4 -12
v -4 4 -12
v -4 2 -12
v 0 2 -12
v -4 2 -16.0001
v 0 2 -16.0001
v -4 4 -16.0001
v -4 2 -16.0001
v 0 2 -16.0001
v 0 4 -16.0001
v 0 4 -16.0001
v -4 4 -16.0001
v -4 0 -8
v -4 4 -8
v 0 4 -8
v 0 0 -8
v -4 4 -8
v 0 4 -8
v -4 -10 -8
v -4 -10 -10
v -4 -10 -6
v 0 -10 -6
v 0 -10 -8
v 0 -10 -10
vt 0 2
vt -4 2
vt 0 4
vt -4 4
vt 0 2
vt -4 2
vt 0 4
vt -4 4
vt 4 2
vt 0 2
vt 4 4
vt 0 4
vt 4 2
vt 0 2
vt 4 4
vt 0 4
vt 0 0
vt 4 0
vt 0 -4
vt 4 -4
vt 0 -4
vt -4 -4
vt 0 0
vt -4 0
vt -4 -1.414214
vt 0 -1.414214
vt -4 -4.242641
vt 0 -4.242641
vt -6 4
vt -6 0
vt 6 0
vt 6 4
vt 0 -6
vt 4 -6
vt -4 0
vt 0 0
vt -4 -10
vt 0 -10
vt 0 0
vt 4 0
vt 0 -10
vt 4 -10
vt 4 7.071068
vt 0 7.071068
vt 4 9.899496
vt 0 9.899496
vt -10 4
vt -10 0
vt -12 4
vt -12 2
vt 10 0
vt 10 4
vt 12 2
vt 12 4
vt 0 -10
vt 4 -10
vt 0 -12
vt 4 -12
vt -4 -12
vt 0 -12
vt -4 -16.0001
vt 0 -16.0001
vt -16.0001 4
vt -16.0001 2
vt 16.0001 2
vt 16.0001 4
vt 0 -16.0001
vt 4 -16.0001
vt -8 0
vt -8 4
vt 8 4
vt 8 0
vt 4 -8
vt 0 -8
vt -8 -10
vt -10 -10
vt -6 -10
vt 6 -10
vt 8 -10
vt 10 -10
vn 0 0 1
vn 0 0 1
vn 0 0 1
vn 0 0 1
vn -1 0 0
vn -1 0 0
vn -1 0 0
vn -1 0 0
vn 0 0 -1
vn 0 0 -1
vn 0 0 -1
vn 0 0 -1
vn 1 0 0
vn 1 0 0
vn 1 0 0
vn 1 0 0
vn 0 1 0
vn 0 1 0
vn 0 1 0
vn 0 1 0
vn 0 -1 0
vn 0 -1 0
vn 0 -1 0
vn 0 -1 0
vn 0 -0.7071068 0.7071068
vn 0 -0.7071068 0.7071068
vn 0 -0.7071068 0.7071068
vn 0 -0.7071068 0.7071068
vn -1 0 0
vn -1 0 0
vn 1 0 0
vn 1 0 0
vn 0 1 0
vn 0 1 0
vn 0 0 1
vn 0 0 1
vn 0 0 1
vn 0 0 1
vn 0 0 -1
vn 0 0 -1
vn 0 0 -1
vn 0 0 -1
vn 0 -0.7071068 -0.7071068
vn 0 -0.7071068 -0.7071068
vn 0 -0.7071068 -0.7071068
vn 0 -0.7071068 -0.7071068
vn -1 0 0
vn -1 0 0
vn -1 0 0
vn -1 0 0
vn 1 0 0
vn 1 0 0
vn 1 0 0
vn 1 0 0
vn 0 1 0
vn 0 1 0
vn 0 1 0
vn 0 1 0
vn 0 -1 0
vn 0 -1 0
vn 0 -1 0
vn 0 -1 0
vn -1 0 0
vn -1 0 0
vn 1 0 0
vn 1 0 0
vn 0 1 0
vn 0 1 0
vn -1 0 0
vn -1 0 0
vn 1 0 0
vn 1 0 0
vn 0 1 0
vn 0 1 0
vn -1 0 0
vn -1 0 0
vn -1 0 0
vn 1 0 0
vn 1 0 0
vn 1 0 0
g pb_Mesh318762_0
g pb_Mesh318762_1
f 3/3/3 2/2/2 1/1/1
f 3/3/3 4/4/4 2/2/2
f 7/7/7 6/6/6 5/5/5
f 7/7/7 8/8/8 6/6/6
f 11/11/11 10/10/10 9/9/9
f 11/11/11 12/12/12 10/10/10
f 15/15/15 14/14/14 13/13/13
f 15/15/15 16/16/16 14/14/14
f 19/19/19 18/18/18 17/17/17
f 19/19/19 20/20/20 18/18/18
f 23/23/23 22/22/22 21/21/21
f 23/23/23 24/24/24 22/22/22
f 27/27/27 26/26/26 25/25/25
f 27/27/27 28/28/28 26/26/26
f 29/29/29 6/6/6 8/8/8
f 29/29/29 30/30/30 6/6/6
f 31/31/31 15/15/15 13/13/13
f 31/31/31 32/32/32 15/15/15
f 33/33/33 20/20/20 19/19/19
f 33/33/33 34/34/34 20/20/20
f 37/37/37 36/36/36 35/35/35
f 37/37/37 38/38/38 36/36/36
f 41/41/41 40/40/40 39/39/39
f 41/41/41 42/42/42 40/40/40
f 45/45/45 44/44/44 43/43/43
f 45/45/45 46/46/46 44/44/44
f 49/49/49 48/48/48 47/47/47
f 49/49/49 50/50/50 48/48/48
f 53/53/53 52/52/52 51/51/51
f 53/53/53 54/54/54 52/52/52
f 57/57/57 56/56/56 55/55/55
f 57/57/57 58/58/58 56/56/56
f 61/61/61 60/60/60 59/59/59
f 61/61/61 62/62/62 60/60/60
f 63/63/63 50/50/50 49/49/49
f 63/63/63 64/64/64 50/50/50
f 65/65/65 54/54/54 53/53/53
f 65/65/65 66/66/66 54/54/54
f 67/67/67 58/58/58 57/57/57
f 67/67/67 68/68/68 58/58/58
f 70/70/70 69/69/69 30/30/30
f 70/70/70 30/30/30 29/29/29
f 47/47/47 48/48/48 69/69/69
f 47/47/47 69/69/69 70/70/70
f 32/32/32 31/31/31 71/71/71
f 31/31/31 72/72/72 71/71/71
f 71/71/71 72/72/72 52/52/52
f 72/72/72 51/51/51 52/52/52
f 33/33/33 74/74/74 73/73/73
f 33/33/33 73/73/73 34/34/34
f 74/74/74 55/55/55 56/56/56
f 74/74/74 56/56/56 73/73/73
f 48/48/48 76/76/76 75/75/75
f 48/48/48 75/75/75 69/69/69
f 69/69/69 75/75/75 77/77/77
f 69/69/69 77/77/77 30/30/30
f 31/31/31 78/78/78 72/72/72
f 78/78/78 79/79/79 72/72/72
f 72/72/72 79/79/79 51/51/51
f 79/79/79 80/80/80 51/51/51
