g pb_Mesh-3795860
v -4.976461 -0.3534358 0.1889954
v -4.976461 -0.3534358 -0.1889954
v -4.976461 0.3534334 0.1889954
v -4.976461 0.3534334 -0.1889954
v 0.4847379 -0.5523508 -0.1889954
v 0.4847379 -0.5523508 0.1889954
v 0.4847375 0.5523493 -0.1889954
v 0.4847375 0.5523493 0.1889954
v 0.4847375 0.5523493 0.1889954
v 0.4847379 -0.5523508 0.1889954
v -0.3635535 -0.5523492 0.1889954
v -0.3635538 0.5523505 0.1889954
v -0.3635538 0.5523505 -0.1889954
v -0.3635535 -0.5523492 -0.1889954
v 0.4847375 0.5523493 -0.1889954
v 0.4847379 -0.5523508 -0.1889954
v -0.3635538 0.5523505 -0.1889954
v 0.4847375 0.5523493 -0.1889954
v 0.4847375 0.5523493 0.1889954
v -0.3635538 0.5523505 0.1889954
v 0.4847379 -0.5523508 0.1889954
v -0.3635535 -0.5523492 -0.1889954
v -0.3635535 -0.5523492 0.1889954
v 0.4847379 -0.5523508 -0.1889954
v -0.3635535 -0.5523492 0.1889954
v -0.5895629 -0.3534351 0.1889954
v -0.5895631 0.353434 0.1889954
v -4.976461 -0.3534358 0.1889954
v -0.5895631 0.353434 0.1889954
v -4.976461 0.3534334 0.1889954
v -4.976461 0.3534334 -0.1889954
v -4.976461 -0.3534358 -0.1889954
v -0.5895631 0.353434 -0.1889954
v -0.5895629 -0.3534351 -0.1889954
v -0.5895631 0.353434 -0.1889954
v -0.3635535 -0.5523492 -0.1889954
v -4.976461 0.3534334 -0.1889954
v -0.5895631 0.353434 -0.1889954
v -0.5895631 0.353434 0.1889954
v -4.976461 0.3534334 0.1889954
v -0.5895631 0.353434 -0.1889954
v -0.3635538 0.5523505 -0.1889954
v -0.3635538 0.5523505 0.1889954
v -0.5895631 0.353434 0.1889954
v -0.5895629 -0.3534351 0.1889954
v -4.976461 -0.3534358 -0.1889954
v -4.976461 -0.3534358 0.1889954
v -0.5895629 -0.3534351 -0.1889954
v -0.3635535 -0.5523492 0.1889954
v -0.5895629 -0.3534351 -0.1889954
v -0.5895629 -0.3534351 0.1889954
v -0.3635535 -0.5523492 -0.1889954
vt 1 2.310778
vt 0.6220093 2.310778
vt 1 3.285771
vt 0.6220093 3.285771
vt -0.6220093 2.310778
vt -1 2.310778
vt -0.6220093 3.285771
vt -1 3.285771
vt 4 3.285771
vt 4 2.310778
vt 2 2.310778
vt 2 3.285771
vt -2 3.285771
vt -2 2.310778
vt -4 3.285771
vt -4 2.310778
vt -2 0.6220093
vt -4 0.6220093
vt -4 1
vt -2 1
vt 4 1
vt 2 0.6220093
vt 2 1
vt 4 0.6220093
vt 2 2.310778
vt 1 2.310778
vt 1 3.285771
vt 0 2.310778
vt 1 3.285771
vt 0 3.285771
vt 0 3.285771
vt 0 2.310778
vt -1 3.285771
vt -1 2.310778
vt -1 3.285771
vt -2 2.310778
vt 0 0.6220093
vt -1 0.6220093
vt -1 1
vt 0 1
vt -1 0.6220093
vt -2 0.6220093
vt -2 1
vt -1 1
vt 1 1
vt 0 0.6220093
vt 0 1
vt 1 0.6220093
vt 2 1
vt 1 0.6220093
vt 1 1
vt 2 0.6220093
vn -1 -6.745763E-07 0
vn -1 -6.745763E-07 0
vn -1 -6.745763E-07 0
vn -1 -6.745763E-07 0
vn 1 3.23733E-07 0
vn 1 3.23733E-07 0
vn 1 3.23733E-07 0
vn 1 3.23733E-07 0
vn 0 0 1
vn 0 0 1
vn 0 0 1
vn 0 0 1
vn 0 0 -1
vn 0 0 -1
vn 0 0 -1
vn 0 0 -1
vn 1.335023E-06 1 0
vn 1.335023E-06 1 0
vn 1.335023E-06 1 0
vn 1.335023E-06 1 0
vn -1.897137E-06 -1 0
vn -1.897137E-06 -1 0
vn -1.897137E-06 -1 0
vn -1.897137E-06 -1 0
vn 0 0 1
vn 0 0 1
vn 0 0 1
vn 0 0 1
vn 0 0 1
vn 0 0 1
vn 0 0 -1
vn 0 0 -1
vn 0 0 -1
vn 0 0 -1
vn 0 0 -1
vn 0 0 -1
vn -1.426632E-07 1 0
vn -1.426632E-07 1 0
vn -1.426632E-07 1 0
vn -1.426632E-07 1 0
vn -0.6606808 0.750667 0
vn -0.6606808 0.750667 0
vn -0.6606808 0.750667 0
vn -0.6606808 0.750667 0
vn 1.426632E-07 -1 0
vn 1.426632E-07 -1 0
vn 1.426632E-07 -1 0
vn 1.426632E-07 -1 0
vn -0.6606761 -0.7506711 0
vn -0.6606761 -0.7506711 0
vn -0.6606761 -0.7506711 0
vn -0.6606761 -0.7506711 0
g pb_Mesh-3795860_0
g pb_Mesh-3795860_1
f 3/3/3 2/2/2 1/1/1
f 3/3/3 4/4/4 2/2/2
f 7/7/7 6/6/6 5/5/5
f 7/7/7 8/8/8 6/6/6
f 11/11/11 10/10/10 9/9/9
f 12/12/12 11/11/11 9/9/9
f 15/15/15 14/14/14 13/13/13
f 15/15/15 16/16/16 14/14/14
f 19/19/19 18/18/18 17/17/17
f 19/19/19 17/17/17 20/20/20
f 23/23/23 22/22/22 21/21/21
f 22/22/22 24/24/24 21/21/21
f 12/12/12 26/26/26 25/25/25
f 27/27/27 26/26/26 12/12/12
f 29/29/29 28/28/28 26/26/26
f 30/30/30 28/28/28 29/29/29
f 33/33/33 32/32/32 31/31/31
f 34/34/34 32/32/32 33/33/33
f 13/13/13 34/34/34 35/35/35
f 36/36/36 34/34/34 13/13/13
f 39/39/39 38/38/38 37/37/37
f 39/39/39 37/37/37 40/40/40
f 43/43/43 42/42/42 41/41/41
f 43/43/43 41/41/41 44/44/44
f 47/47/47 46/46/46 45/45/45
f 46/46/46 48/48/48 45/45/45
f 51/51/51 50/50/50 49/49/49
f 50/50/50 52/52/52 49/49/49
