g pb_Mesh110228
v 0 7.5 0
v -4 7.5 0
v 0 7.5 -4
v -4 7.5 -4
v -4 -8 -8
v 0 -8 -8
v -4 7.5 -8
v 0 7.5 -8
v 0 -8 -4
v 0 -8 0
v 0 7.5 0
v 0 7.5 -4
v -4 -8 0
v -4 -8 -4
v -4 7.5 0
v -4 7.5 -4
v 0 -8 0
v -4 -8 0
v 0 7.5 0
v -4 7.5 0
v -4 7.5 -8
v -4 -8 -8
v 0 -8 -8
v 0 7.5 -8
v 0 7.5 -8
v -4 7.5 -8
v -4 -28 -8
v 0 -28 -8
v 0 -28 -4
v 0 -28 0
v -4 -28 0
v -4 -28 -4
v 0 -28 0
v -4 -28 0
v -4 -28 -8
v 0 -28 -8
vt 0 0
vt 4 0
vt 0 -4
vt 4 -4
vt 4 -8
vt 0 -8
vt 4 7.5
vt 0 7.5
vt 4 -8
vt 0 -8
vt 0 7.5
vt 4 7.5
vt 0 -8
vt -4 -8
vt 0 7.5
vt -4 7.5
vt 0 -8
vt -4 -8
vt 0 7.5
vt -4 7.5
vt -8 7.5
vt -8 -8
vt 8 -8
vt 8 7.5
vt 0 -8
vt 4 -8
vt 4 -28
vt 0 -28
vt 4 -28
vt 0 -28
vt 0 -28
vt -4 -28
vt 0 -28
vt -4 -28
vt -8 -28
vt 8 -28
vn 0 1 0
vn 0 1 0
vn 0 1 0
vn 0 1 0
vn 0 0 -1
vn 0 0 -1
vn 0 0 -1
vn 0 0 -1
vn 1 0 0
vn 1 0 0
vn 1 0 0
vn 1 0 0
vn -1 0 0
vn -1 0 0
vn -1 0 0
vn -1 0 0
vn 0 0 1
vn 0 0 1
vn 0 0 1
vn 0 0 1
vn -1 0 0
vn -1 0 0
vn 1 0 0
vn 1 0 0
vn 0 1 0
vn 0 1 0
vn 0 0 -1
vn 0 0 -1
vn 1 0 0
vn 1 0 0
vn -1 0 0
vn -1 0 0
vn 0 0 1
vn 0 0 1
vn -1 0 0
vn 1 0 0
g pb_Mesh110228_0
f 3/3/3 2/2/2 1/1/1
f 3/3/3 4/4/4 2/2/2
f 7/7/7 6/6/6 5/5/5
f 7/7/7 8/8/8 6/6/6
f 11/11/11 10/10/10 9/9/9
f 11/11/11 9/9/9 12/12/12
f 15/15/15 14/14/14 13/13/13
f 15/15/15 16/16/16 14/14/14
f 19/19/19 18/18/18 17/17/17
f 19/19/19 20/20/20 18/18/18
f 21/21/21 14/14/14 16/16/16
f 21/21/21 22/22/22 14/14/14
f 23/23/23 12/12/12 9/9/9
f 23/23/23 24/24/24 12/12/12
f 25/25/25 4/4/4 3/3/3
f 25/25/25 26/26/26 4/4/4
f 5/5/5 6/6/6 27/27/27
f 6/6/6 28/28/28 27/27/27
f 9/9/9 10/10/10 29/29/29
f 10/10/10 30/30/30 29/29/29
f 13/13/13 14/14/14 31/31/31
f 14/14/14 32/32/32 31/31/31
f 17/17/17 18/18/18 33/33/33
f 18/18/18 34/34/34 33/33/33
f 14/14/14 22/22/22 32/32/32
f 22/22/22 35/35/35 32/32/32
f 23/23/23 9/9/9 36/36/36
f 9/9/9 29/29/29 36/36/36
