g pb_Mesh172646
v -5.999935 0 -30.3388
v 6.592859E-05 0 -30.33879
v -4.999935 0.5 -30.3388
v -0.999934 0.5 -30.3388
v -6.000001 0 -2.765656E-05
v -5.999955 0 -16.00001
v -4.999955 0.5 -16.00001
v -5.000001 0.5 -2.288818E-05
v -5.999955 0 -16.00001
v -5.999935 0 -30.3388
v -4.999935 0.5 -30.3388
v -4.999955 0.5 -16.00001
v 6.592859E-05 0 -30.33879
v 4.458427E-05 0 -16
v -0.9999554 0.5 -16.00001
v -0.999934 0.5 -30.3388
v 4.458427E-05 0 -16
v -4.768372E-07 0 -2.861023E-06
v -1 0.5 -6.67572E-06
v -0.9999554 0.5 -16.00001
v -1 0.5 -6.67572E-06
v -5.000001 0.5 -2.288818E-05
v -4.999955 0.5 -16.00001
v -0.9999554 0.5 -16.00001
v -4.999955 0.5 -16.00001
v -4.999935 0.5 -30.3388
v -0.999934 0.5 -30.3388
v -0.9999554 0.5 -16.00001
v 6.592859E-05 0 -30.33879
v -5.999935 0 -30.3388
v -5.999955 0 -16.00001
v 4.458427E-05 0 -16
v -5.999955 0 -16.00001
v -6.000001 0 -2.765656E-05
v -4.768372E-07 0 -2.861023E-06
v 4.458427E-05 0 -16
v -4.999968 0.5 91.00001
v -5.999968 0 91.00001
v -0.9999675 0.5 90.99998
v 3.266339E-05 0 90.99998
v -6.000001 0 -2.765656E-05
v -5.000001 0.5 -2.288818E-05
v -5.999968 0 91.00001
v -4.999968 0.5 91.00001
v -5.000001 0.5 -2.288818E-05
v -1 0.5 -6.67572E-06
v -4.999968 0.5 91.00001
v -0.9999675 0.5 90.99998
v -1 0.5 -6.67572E-06
v -4.768372E-07 0 -2.861023E-06
v -0.9999675 0.5 90.99998
v 3.266339E-05 0 90.99998
v -4.768372E-07 0 -2.861023E-06
v -6.000001 0 -2.765656E-05
v 3.266339E-05 0 90.99998
v -5.999968 0 91.00001
vt 5.999974 -0.0001543111
vt -2.735083E-05 -0.0001543111
vt 4.999974 0.4998457
vt 0.9999725 0.4998457
vt 5.366564 -2.422332E-05
vt 5.366523 -16.00001
vt 4.248489 -16.00001
vt 4.24853 -1.945495E-05
vt 5.366523 -16.00001
vt 5.366505 -30.3388
vt 4.248471 -30.33879
vt 4.248489 -16.00001
vt -5.896833E-05 -30.33879
vt -3.987739E-05 -16
vt 1.117994 -16.00001
vt 1.117975 -30.3388
vt -3.987739E-05 -16
vt 4.264961E-07 -2.861023E-06
vt 1.118034 -6.67572E-06
vt 1.117994 -16.00001
vt 1 -6.67572E-06
vt 5.000001 -2.288818E-05
vt 4.999955 -16.00001
vt 0.9999554 -16.00001
vt 4.999955 -16.00001
vt 4.999935 -30.3388
vt 0.999934 -30.3388
vt 0.9999554 -16.00001
vt 6.592859E-05 -30.33879
vt -5.999935 -30.3388
vt -5.999955 -16.00001
vt 4.458427E-05 -16
vt -5.999955 -16.00001
vt -6.000001 -2.765656E-05
vt -4.768372E-07 -2.861023E-06
vt 4.458427E-05 -16
vt -5.000489 0.5010414
vt -6.000489 0.001041412
vt -1.000488 0.5010414
vt -0.0004880427 0.001041412
vt 5.366564 -2.809042E-05
vt 4.24853 -2.332205E-05
vt 5.366535 91.00001
vt 4.2485 91.00001
vt 5.000001 -2.288818E-05
vt 1 -6.67572E-06
vt 4.999968 91.00001
vt 0.9999675 90.99998
vt 1.118034 -6.67572E-06
vt 4.264961E-07 -2.861023E-06
vt 1.118005 90.99998
vt -2.921503E-05 90.99998
vt -4.768372E-07 -2.861023E-06
vt -6.000001 -2.765656E-05
vt 3.266339E-05 90.99998
vt -5.999968 91.00001
vn 1.271566E-06 5.086264E-06 -1
vn 6.357828E-07 -1.271565E-06 -1
vn 6.357828E-07 -1.271565E-06 -1
vn 0 -7.629395E-06 -1
vn -0.4472136 0.8944272 -1.279489E-06
vn -0.4472136 0.8944272 -1.27949E-06
vn -0.4472136 0.8944272 -1.279489E-06
vn -0.4472136 0.8944272 -1.279489E-06
vn -0.4472136 0.8944272 -6.246287E-07
vn -0.4472136 0.8944272 -6.246286E-07
vn -0.4472136 0.8944272 -6.246287E-07
vn -0.4472136 0.8944272 -6.246289E-07
vn 0.4472136 0.8944272 6.674773E-07
vn 0.4472136 0.8944272 6.657096E-07
vn 0.4472136 0.8944272 6.674773E-07
vn 0.4472136 0.8944272 6.69245E-07
vn 0.4472136 0.8944272 1.259496E-06
vn 0.4472136 0.8944272 1.259496E-06
vn 0.4472136 0.8944272 1.259496E-06
vn 0.4472136 0.8944272 1.259496E-06
vn 0 1 0
vn 0 1 0
vn 0 1 0
vn 0 1 0
vn 0 1 0
vn 0 1 0
vn 0 1 0
vn 0 1 0
vn 0 -1 0
vn 0 -1 0
vn 0 -1 0
vn 0 -1 0
vn 0 -1 0
vn 0 -1 0
vn 0 -1 0
vn 0 -1 0
vn 5.722045E-06 -1.144409E-05 1
vn 4.768371E-06 -1.907348E-06 1
vn 4.768371E-06 -1.907348E-06 1
vn 3.814697E-06 7.629395E-06 1
vn -0.4472136 0.8944272 1.616935E-07
vn -0.4472136 0.8944272 1.616935E-07
vn -0.4472136 0.8944272 1.616935E-07
vn -0.4472136 0.8944272 1.616935E-07
vn 0 1 0
vn 0 1 0
vn 0 1 0
vn 0 1 0
vn 0.4472136 0.8944272 -1.622794E-07
vn 0.4472136 0.8944272 -1.625725E-07
vn 0.4472136 0.8944272 -1.625725E-07
vn 0.4472136 0.8944272 -1.628655E-07
vn 0 -1 0
vn 0 -1 0
vn 0 -1 0
vn 0 -1 0
g pb_Mesh172646_0
f 3/3/3 2/2/2 1/1/1
f 3/3/3 4/4/4 2/2/2
f 7/7/7 6/6/6 5/5/5
f 8/8/8 7/7/7 5/5/5
f 9/9/9 11/11/11 10/10/10
f 9/9/9 12/12/12 11/11/11
f 15/15/15 13/13/13 16/16/16
f 15/15/15 14/14/14 13/13/13
f 17/17/17 20/20/20 19/19/19
f 18/18/18 17/17/17 19/19/19
f 24/24/24 23/23/23 22/22/22
f 21/21/21 24/24/24 22/22/22
f 28/28/28 26/26/26 25/25/25
f 28/28/28 27/27/27 26/26/26
f 30/30/30 29/29/29 32/32/32
f 31/31/31 30/30/30 32/32/32
f 34/34/34 36/36/36 35/35/35
f 34/34/34 33/33/33 36/36/36
f 37/37/37 38/38/38 39/39/39
f 38/38/38 40/40/40 39/39/39
f 43/43/43 42/42/42 41/41/41
f 43/43/43 44/44/44 42/42/42
f 47/47/47 46/46/46 45/45/45
f 47/47/47 48/48/48 46/46/46
f 51/51/51 50/50/50 49/49/49
f 51/51/51 52/52/52 50/50/50
f 55/55/55 54/54/54 53/53/53
f 55/55/55 56/56/56 54/54/54
