g pb_Mesh133484
v 0 -15 -1
v 0 9 -1
v -4 9 -1
v -4 -15 -1
v -48 -15 -1
v -48 9 -1
v -4 9 -1
v -4 -15 -1
v 0 -15 19
v 0 9 19
v -4 -15 19
v -4 9 19
v -48 -15 19
v -48 9 19
v -4 -15 19
v -4 9 19
v 0 -15 -1
v 0 9 -1
v 0 9 1
v 0 -15 1
v 0 9 -1
v -4 9 -1
v 0 9 1
v -4 9 1
v -48 -15 -1
v -48 9 -1
v -48 -15 1
v -48 9 1
v -48 9 -1
v -4 9 -1
v -48 9 1
v -4 9 1
v 0 9 19
v -4 9 19
v -4 9 5
v 0 9 5
v -4 9 1
v 0 9 1
v -4 9 5
v 0 9 5
v -4 9 1
v -48 9 1
v -4 9 5
v -48 9 5
v -4 9 19
v -48 9 19
v -4 9 5
v -48 9 5
v 0 -15 19
v 0 9 19
v 0 9 5
v 0 -15 5
v 0 -15 1
v 0 9 1
v 0 9 5
v 0 -15 5
v -48 9 19
v -48 -15 19
v -48 -15 5
v -48 9 5
v -48 9 1
v -48 -15 1
v -48 -15 5
v -48 9 5
vt 0 0
vt 0 24
vt 4 24
vt 4 0
vt 48 0
vt 48 24
vt 4 24
vt 4 0
vt 48 0
vt 48 24
vt 44 0
vt 44 24
vt 0 0
vt 0 24
vt 44 0
vt 44 24
vt 0 0
vt 0 0
vt 0 0
vt 0 0
vt 144 240
vt 148 240
vt 144 242
vt 148 242
vt 0 0
vt 0 0
vt 0 0
vt 0 0
vt 196 240
vt 152 240
vt 196 242
vt 152 242
vt 144 266
vt 148 266
vt 148 252
vt 144 252
vt 4 0
vt 0 0
vt 4 4
vt 0 4
vt 152 244
vt 196 244
vt 152 248
vt 196 248
vt 152 266
vt 196 266
vt 152 252
vt 196 252
vt 0 0
vt 0 0
vt 0 0
vt 0 0
vt 0 0
vt 0 0
vt 0 0
vt 0 0
vt 0 0
vt 0 0
vt 0 0
vt 0 0
vt 0 0
vt 0 0
vt 0 0
vt 0 0
vn 0 0 -1
vn 0 0 -1
vn 0 0 -1
vn 0 0 -1
vn 0 0 -1
vn 0 0 -1
vn 0 0 -1
vn 0 0 -1
vn 0 0 1
vn 0 0 1
vn 0 0 1
vn 0 0 1
vn 0 0 1
vn 0 0 1
vn 0 0 1
vn 0 0 1
vn 1 0 0
vn 1 0 0
vn 1 0 0
vn 1 0 0
vn 0 1 0
vn 0 1 0
vn 0 1 0
vn 0 1 0
vn -1 0 0
vn -1 0 0
vn -1 0 0
vn -1 0 0
vn 0 1 0
vn 0 1 0
vn 0 1 0
vn 0 1 0
vn 0 1 0
vn 0 1 0
vn 0 1 0
vn 0 1 0
vn 0 1 0
vn 0 1 0
vn 0 1 0
vn 0 1 0
vn 0 1 0
vn 0 1 0
vn 0 1 0
vn 0 1 0
vn 0 1 0
vn 0 1 0
vn 0 1 0
vn 0 1 0
vn 1 0 0
vn 1 0 0
vn 1 0 0
vn 1 0 0
vn 1 0 0
vn 1 0 0
vn 1 0 0
vn 1 0 0
vn -1 0 0
vn -1 0 0
vn -1 0 0
vn -1 0 0
vn -1 0 0
vn -1 0 0
vn -1 0 0
vn -1 0 0
g pb_Mesh133484_0
f 4/4/4 2/2/2 1/1/1
f 4/4/4 3/3/3 2/2/2
f 8/8/8 5/5/5 6/6/6
f 8/8/8 6/6/6 7/7/7
f 20/20/20 17/17/17 18/18/18
f 20/20/20 18/18/18 19/19/19
f 52/52/52 50/50/50 49/49/49
f 52/52/52 51/51/51 50/50/50
f 56/56/56 53/53/53 54/54/54
f 56/56/56 54/54/54 55/55/55
g pb_Mesh133484_1
f 12/12/12 9/9/9 10/10/10
f 12/12/12 11/11/11 9/9/9
f 16/16/16 14/14/14 13/13/13
f 16/16/16 13/13/13 15/15/15
f 28/28/28 26/26/26 25/25/25
f 28/28/28 25/25/25 27/27/27
f 60/60/60 58/58/58 57/57/57
f 60/60/60 59/59/59 58/58/58
f 64/64/64 61/61/61 62/62/62
f 64/64/64 62/62/62 63/63/63
g pb_Mesh133484_2
f 24/24/24 21/21/21 22/22/22
f 24/24/24 23/23/23 21/21/21
f 32/32/32 30/30/30 29/29/29
f 32/32/32 29/29/29 31/31/31
f 36/36/36 34/34/34 33/33/33
f 36/36/36 35/35/35 34/34/34
f 40/40/40 38/38/38 37/37/37
f 40/40/40 37/37/37 39/39/39
f 44/44/44 41/41/41 42/42/42
f 44/44/44 43/43/43 41/41/41
f 48/48/48 46/46/46 45/45/45
f 48/48/48 45/45/45 47/47/47
