g pb_Mesh53736
v -97 -2 7.999997
v -97 -2 -2.861023E-06
v -97 0 -2.861023E-06
v -97 0 7.999997
v -12 -2 8
v -12 -2 0
v -44 -2 8
v -44 -2 0
v -12 -2 0
v -12 0 0
v -44 -2 0
v -44 0 0
v -12 0 8
v -12 -2 8
v -44 0 8
v -44 -2 8
v -12 0 0
v -12 0 8
v -44 0 0
v -44 0 8
v -44 -2 0
v -44 0 0
v -44 -2 -4
v -44 0 -4
v -97 0 -4.000003
v -97 -2 -4.000003
v -52 -2 7.999999
v -52 -2 -1.907349E-06
v -87 -2 7.999997
v -87 -2 -2.861023E-06
v -52 0 -4.000002
v -44 -2 -4
v -44 0 -4
v -52 -2 -4.000002
v -87 0 -13
v -52 -2 -13
v -52 0 -13
v -87 -2 -13
v -52 -2 7.999999
v -52 0 7.999998
v -87 -2 7.999997
v -87 0 7.999997
v -52 0 7.999998
v -52 0 -1.907349E-06
v -87 0 7.999997
v -87 0 -2.861023E-06
v -52 -2 -4.000002
v -87 -2 -4.000003
v -44 -2 -4
v -52 0 -4.000002
v -44 0 -4
v -87 0 -4.000003
v -52 -2 -4.000002
v -52 0 -4.000002
v -52 -2 -13
v -52 0 -13
v -52 0 -13
v -87 0 -13
v -87 0 -4.000003
v -87 -2 -4.000003
v -87 0 -13
v -87 -2 -13
v -87 -2 -13
v -52 -2 -13
v -97 0 7.999997
v -97 -2 7.999997
v -97 0 -4.000003
v -97 0 -2.861023E-06
v -97 -2 -2.861023E-06
v -97 -2 -4.000003
v -87 -2 -4.000003
v -87 0 -4.000003
v -97 -2 -4.000003
v -97 0 -4.000003
v -97 -2 7.999997
v -97 0 7.999997
v -4 -2 8
v -4 -2 0
v -4 -2 0
v -4 0 0
v -4 -2 8
v -4 0 8
v -4 0 0
v -4 0 8
v -4 -2 0
v -4 0 8
v -4 0 0
v -4 -2 8
vt 7.999997 -2
vt -2.861023E-06 -2
vt -2.861023E-06 0
vt 7.999997 0
vt -12 8
vt -12 0
vt -44 8
vt -44 0
vt 12 -2
vt 12 0
vt 44 -2
vt 44 0
vt -12 0
vt -12 -2
vt -44 0
vt -44 -2
vt 12 0
vt 12 8
vt 44 0
vt 44 8
vt 0 -2
vt 0 0
vt 4 -2
vt 4 0
vt -4.000003 0
vt -4.000003 -2
vt -52 7.999999
vt -52 -1.907349E-06
vt -87 7.999997
vt -87 -2.861023E-06
vt 52 0
vt 44 -2
vt 44 0
vt 52 -2
vt 87 0
vt 52 -2
vt 52 0
vt 87 -2
vt -52 -2.000002
vt -52 -1.90735E-06
vt -87 -2
vt -87 0
vt 52 7.999998
vt 52 -1.907349E-06
vt 87 7.999997
vt 87 -2.861023E-06
vt -52 -4.000002
vt -87 -4.000003
vt -44 -4
vt 52 -4.000002
vt 44 -4
vt 87 -4.000003
vt 4.000002 -2
vt 4.000002 0
vt 13 -2
vt 13 0
vt 52 -13
vt 87 -13
vt -4.000003 0
vt -4.000003 -2
vt -13 0
vt -13 -2
vt -87 -13
vt -52 -13
vt -97 0
vt -97 -2
vt 97 -4.000003
vt 97 -2.861023E-06
vt -97 -2.861023E-06
vt -97 -4.000003
vt 87 -2
vt 87 0
vt 97 -2
vt 97 0
vt -97 7.999997
vt 97 7.999997
vt -4 8
vt -4 0
vt 4 -2
vt 4 0
vt -4 -2
vt -4 0
vt 4 0
vt 4 8
vt 0 -2
vt -8 0
vt 0 0
vt -8 -2
vn -1 0 0
vn -1 0 0
vn -1 0 0
vn -1 0 0
vn 0 -1 0
vn 0 -1 0
vn 0 -1 0
vn 0 -1 0
vn 0 0 -1
vn 0 0 -1
vn 0 0 -1
vn 0 0 -1
vn 0 0 1
vn 0 0 1
vn 0 0 1
vn 0 0 1
vn 0 1 0
vn 0 1 0
vn 0 1 0
vn 0 1 0
vn 1 0 0
vn 1 0 0
vn 1 0 0
vn 1 0 0
vn -1 0 0
vn -1 0 0
vn 0 -1 0
vn 0 -1 0
vn 0 -1 0
vn 0 -1 0
vn 2.384186E-07 0 -1
vn 2.384186E-07 0 -1
vn 2.384186E-07 0 -1
vn 2.384186E-07 0 -1
vn 0 0 -1
vn 0 0 -1
vn 0 0 -1
vn 0 0 -1
vn -1.788139E-07 2.384186E-07 1
vn -2.086163E-07 1.192093E-07 1
vn -4.087176E-08 0 1
vn -3.40598E-08 1.192093E-07 1
vn 0 1 0
vn 0 1 0
vn 0 1 0
vn 0 1 0
vn 0 -1 0
vn 0 -1 0
vn 0 -1 0
vn 0 1 0
vn 0 1 0
vn 0 1 0
vn 1 0 0
vn 1 0 0
vn 1 0 0
vn 1 0 0
vn 0 1 0
vn 0 1 0
vn -1 0 0
vn -1 0 0
vn -1 0 0
vn -1 0 0
vn 0 -1 0
vn 0 -1 0
vn 0 0 1
vn 0 0 1
vn 0 1 0
vn 0 1 0
vn 0 -1 0
vn 0 -1 0
vn 0 0 -1
vn 0 0 -1
vn 0 0 -1
vn 0 0 -1
vn 0 -1 0
vn 0 1 0
vn 0 -1 0
vn 0 -1 0
vn 0 0 -1
vn 0 0 -1
vn 0 0 1
vn 0 0 1
vn 0 1 0
vn 0 1 0
vn 1 0 0
vn 1 0 0
vn 1 0 0
vn 1 0 0
g pb_Mesh53736_0
f 3/3/3 2/2/2 1/1/1
f 3/3/3 1/1/1 4/4/4
f 7/7/7 6/6/6 5/5/5
f 7/7/7 8/8/8 6/6/6
f 11/11/11 10/10/10 9/9/9
f 11/11/11 12/12/12 10/10/10
f 15/15/15 14/14/14 13/13/13
f 15/15/15 16/16/16 14/14/14
f 19/19/19 18/18/18 17/17/17
f 19/19/19 20/20/20 18/18/18
f 23/23/23 22/22/22 21/21/21
f 23/23/23 24/24/24 22/22/22
f 25/25/25 2/2/2 3/3/3
f 25/25/25 26/26/26 2/2/2
f 27/27/27 8/8/8 7/7/7
f 27/27/27 28/28/28 8/8/8
f 29/29/29 28/28/28 27/27/27
f 29/29/29 30/30/30 28/28/28
f 33/33/33 32/32/32 31/31/31
f 32/32/32 34/34/34 31/31/31
f 37/37/37 36/36/36 35/35/35
f 36/36/36 38/38/38 35/35/35
f 40/40/40 39/39/39 16/16/16
f 40/40/40 16/16/16 15/15/15
f 42/42/42 41/41/41 39/39/39
f 42/42/42 39/39/39 40/40/40
f 19/19/19 44/44/44 43/43/43
f 20/20/20 19/19/19 43/43/43
f 44/44/44 46/46/46 45/45/45
f 43/43/43 44/44/44 45/45/45
f 30/30/30 47/47/47 28/28/28
f 30/30/30 48/48/48 47/47/47
f 28/28/28 49/49/49 8/8/8
f 28/28/28 47/47/47 49/49/49
f 51/51/51 50/50/50 44/44/44
f 19/19/19 51/51/51 44/44/44
f 50/50/50 52/52/52 46/46/46
f 44/44/44 50/50/50 46/46/46
f 55/55/55 54/54/54 53/53/53
f 55/55/55 56/56/56 54/54/54
f 57/57/57 52/52/52 50/50/50
f 57/57/57 58/58/58 52/52/52
f 61/61/61 60/60/60 59/59/59
f 61/61/61 62/62/62 60/60/60
f 63/63/63 47/47/47 48/48/48
f 63/63/63 64/64/64 47/47/47
f 65/65/65 41/41/41 42/42/42
f 65/65/65 66/66/66 41/41/41
f 67/67/67 46/46/46 52/52/52
f 67/67/67 68/68/68 46/46/46
f 69/69/69 48/48/48 30/30/30
f 69/69/69 70/70/70 48/48/48
f 73/73/73 72/72/72 71/71/71
f 73/73/73 74/74/74 72/72/72
f 75/75/75 30/30/30 29/29/29
f 75/75/75 69/69/69 30/30/30
f 68/68/68 45/45/45 46/46/46
f 68/68/68 76/76/76 45/45/45
f 5/5/5 6/6/6 77/77/77
f 6/6/6 78/78/78 77/77/77
f 80/80/80 79/79/79 10/10/10
f 79/79/79 9/9/9 10/10/10
f 13/13/13 14/14/14 81/81/81
f 13/13/13 81/81/81 82/82/82
f 84/84/84 83/83/83 17/17/17
f 84/84/84 17/17/17 18/18/18
f 87/87/87 86/86/86 85/85/85
f 86/86/86 88/88/88 85/85/85
