g pb_Mesh240398
v 0 1 0
v -1 1 0
v -1 6.5 0
v 0 6.5 0
v -1 8 0
v 0 8 0
v -1 1 0
v -1 1 -1.5
v -1 6.5 -1.5
v -1 6.5 0
v -1 8 -1.5
v -1 8 0
v -1 6.5 -1.5
v 0 1 -1.5
v 0 6.5 -1.5
v -1 1 -1.5
v -1 8 -1.5
v 0 8 -1.5
v 0 6.5 -1.5
v 0 1 0
v 0 6.5 0
v 0 1 -1.5
v 0 8 -1.5
v 0 8 0
v 6.103516E-05 1 7.247925E-05
v -1 1 0
v -1 1 -1.5
v -1.000061 1 -1.5
v 0 1 -1.5
v -1 1 -1.5
v -1.000061 1 -1.5
v 6.103516E-05 1 -1.5
v 0 1 -1.5
v 6.103516E-05 1 -1.5
vt 0 1
vt -1 1
vt -1 6.5
vt 0 6.5
vt -1 8
vt 0 8
vt 0 1
vt -1.5 1
vt -1.5 6.5
vt 0 6.5
vt -1.5 8
vt 0 8
vt 1 6.5
vt 0 1
vt 0 6.5
vt 1 1
vt 1 8
vt 0 8
vt 1.5 6.5
vt 0 1
vt 0 6.5
vt 1.5 1
vt 1.5 8
vt 0 8
vt -6.103516E-05 7.247925E-05
vt 1 0
vt 1 -1.5
vt 0 0
vt 0 0
vt 0 0
vt 0 0
vt 0 0
vt 0 0
vt -6.103516E-05 -1.5
vn 0 0 1
vn 0 0 1
vn 0 0 1
vn 0 0 1
vn 0 0 1
vn 0 0 1
vn -1 0 0
vn -1 0 0
vn -1 0 0
vn -1 0 0
vn -1 0 0
vn -1 0 0
vn 0 0 -1
vn 0 0 -1
vn 0 0 -1
vn 0 0 -1
vn 0 0 -1
vn 0 0 -1
vn 1 0 0
vn 1 0 0
vn 1 0 0
vn 1 0 0
vn 1 0 0
vn 1 0 0
vn 0 1 0
vn 0 1 0
vn 0 1 0
vn 0 0 0
vn 0 0 0
vn 0 0 0
vn 0 0 0
vn 0 0 0
vn 0 0 0
vn 0 1 0
g pb_Mesh240398_0
f 3/3/3 2/2/2 1/1/1
f 3/3/3 1/1/1 4/4/4
f 5/5/5 3/3/3 4/4/4
f 5/5/5 4/4/4 6/6/6
f 9/9/9 8/8/8 7/7/7
f 9/9/9 7/7/7 10/10/10
f 11/11/11 9/9/9 10/10/10
f 11/11/11 10/10/10 12/12/12
f 15/15/15 14/14/14 13/13/13
f 14/14/14 16/16/16 13/13/13
f 18/18/18 15/15/15 17/17/17
f 15/15/15 13/13/13 17/17/17
f 21/21/21 20/20/20 19/19/19
f 20/20/20 22/22/22 19/19/19
f 24/24/24 21/21/21 23/23/23
f 21/21/21 19/19/19 23/23/23
f 25/25/25 26/26/26 25/25/25
f 26/26/26 26/26/26 25/25/25
f 26/26/26 27/27/27 26/26/26
f 27/27/27 27/27/27 26/26/26
f 30/30/30 29/29/29 28/28/28
f 33/33/33 32/32/32 31/31/31
f 34/34/34 25/25/25 34/34/34
f 25/25/25 25/25/25 34/34/34
