g pb_Mesh36108
v -48 4 -16
v -48 -4 -10
v -48 4 -10
v -48 -4 -16
v -6 -4 -10
v -6 -4 -16
v -6 4 -16
v -6 4 -10
v -48 4 -6
v -48 -4 8
v -48 4 8
v -48 -4 -6
v -6 -4 8
v -6 -4 -6
v -6 4 -6
v -6 4 8
v -22 4 16
v -6 -4 16
v -6 4 16
v -22 -4 16
v -48 4 8
v -22 -4 8
v -22 4 8
v -48 -4 8
v -22 -4 -16
v -48 -4 -16
v -48 4 -16
v -22 4 -16
v -6 -4 -16
v -6 4 -16
v -22 12 -10
v -48 12 -16
v -48 12 -10
v -22 12 -16
v -6 12 -10
v -6 12 -16
v -48 -6 -16
v -22 -6 -16
v -22 -6 -10
v -48 -6 -10
v -6 -6 -16
v -6 -6 -10
v -22 12 -6
v -48 12 -6
v -6 12 -6
v -22 12 8
v -48 12 8
v -6 12 8
v -22 -6 -6
v -48 -6 -6
v -6 -6 -6
v -22 -6 8
v -48 -6 8
v -6 -6 8
v -6 -4 12
v -6 4 12
v -6 -4 16
v -6 4 16
v -6 12 12
v -22 12 12
v -6 12 16
v -22 12 16
v -22 4 8
v -22 -4 12
v -22 4 12
v -22 -4 8
v -22 -4 16
v -22 4 16
v -6 -6 12
v -22 -6 12
v -6 -6 16
v -22 -6 16
v -22 4 12
v -22 4 16
v -22 12 12
v -22 12 16
v -6 12 16
v -6 12 12
v -48 -6 -16
v -22 -6 -16
v -6 -6 -10
v -6 -6 -6
v -48 -6 -10
v -48 -6 -16
v -6 -6 -16
v -6 -6 -16
v -48 -6 -6
v -6 -6 8
v -48 -6 8
v -6 -6 12
v -22 -4 12
v -22 -4 8
v -22 -6 12
v -22 -6 8
v -6 -6 16
v -22 -4 16
v -22 -6 16
v -6 -6 16
v -22 -6 16
v -22 -6 8
v -48 -6 8
v -48 12 -16
v -48 12 -10
v -48 12 -6
v -48 12 8
v -6 12 -16
v -22 12 -16
v -48 12 -16
v -6 12 8
v -6 12 -6
v -6 12 -10
v -6 12 -16
v -48 12 8
v -22 12 8
v -22 4 8
v -22 12 8
vt 16 4
vt 10 -4
vt 10 4
vt 16 -4
vt -10 -4
vt -16 -4
vt -16 4
vt -10 4
vt 6 4
vt -8 -4
vt -8 4
vt 6 -4
vt 8 -4
vt -6 -4
vt -6 4
vt 8 4
vt 22 4
vt 6 -4
vt 6 4
vt 22 -4
vt 48 4
vt 22 -4
vt 22 4
vt 48 -4
vt -22 -4
vt -48 -4
vt -48 4
vt -22 4
vt -6 -4
vt -6 4
vt -22 -10
vt -48 -16
vt -48 -10
vt -22 -16
vt -6 -10
vt -6 -16
vt 48 -16
vt 22 -16
vt 22 -10
vt 48 -10
vt 6 -16
vt 6 -10
vt -22 -6
vt -48 -6
vt -6 -6
vt -22 8
vt -48 8
vt -6 8
vt 22 -6
vt 48 -6
vt 6 -6
vt 22 8
vt 48 8
vt 6 8
vt 12 -4
vt 12 4
vt 16 -4
vt 16 4
vt -6 12
vt -22 12
vt -6 16
vt -22 16
vt 8 4
vt 12 -4
vt 12 4
vt 8 -4
vt 16 -4
vt 16 4
vt 6 12
vt 22 12
vt 6 16
vt 22 16
vt -12 4
vt -16 4
vt -12 12
vt -16 12
vt 16 12
vt 12 12
vt -48 -6
vt -22 -6
vt -10 -6
vt -6 -6
vt 10 -6
vt 16 -6
vt -6 -6
vt -16 -6
vt 6 -6
vt 8 -6
vt -8 -6
vt 12 -6
vt -12 -4
vt -8 -4
vt -12 -6
vt -8 -6
vt 16 -6
vt -16 -4
vt -16 -6
vt 6 -6
vt 22 -6
vt 22 -6
vt 48 -6
vt 16 12
vt 10 12
vt 6 12
vt -8 12
vt -6 12
vt -22 12
vt -48 12
vt 8 12
vt -6 12
vt -10 12
vt -16 12
vt 48 12
vt 22 12
vt -8 4
vt -8 12
vn 1 0 0
vn 1 0 0
vn 1 0 0
vn 1 0 0
vn -1 0 0
vn -1 0 0
vn -1 0 0
vn -1 0 0
vn 1 0 0
vn 1 0 0
vn 1 0 0
vn 1 0 0
vn -1 0 0
vn -1 0 0
vn -1 0 0
vn -1 0 0
vn 0 0 -1
vn 0 0 -1
vn 0 0 -1
vn 0 0 -1
vn 0 0 -1
vn 0 0 -1
vn 0 0 -1
vn 0 0 -1
vn 0 0 1
vn 0 0 1
vn 0 0 1
vn 0 0 1
vn 0 0 1
vn 0 0 1
vn 0 -1 0
vn 0 -1 0
vn 0 -1 0
vn 0 -1 0
vn 0 -1 0
vn 0 -1 0
vn 0 1 0
vn 0 1 0
vn 0 1 0
vn 0 1 0
vn 0 1 0
vn 0 1 0
vn 0 -1 0
vn 0 -1 0
vn 0 -1 0
vn 0 -1 0
vn 0 -1 0
vn 0 -1 0
vn 0 1 0
vn 0 1 0
vn 0 1 0
vn 0 1 0
vn 0 1 0
vn 0 1 0
vn -1 0 0
vn -1 0 0
vn -1 0 0
vn -1 0 0
vn 0 -1 0
vn 0 -1 0
vn 0 -1 0
vn 0 -1 0
vn 1 0 0
vn 1 0 0
vn 1 0 0
vn 1 0 0
vn 1 0 0
vn 1 0 0
vn 0 1 0
vn 0 1 0
vn 0 1 0
vn 0 1 0
vn 1 0 0
vn 1 0 0
vn 1 0 0
vn 1 0 0
vn -1 0 0
vn -1 0 0
vn 0 0 1
vn 0 0 1
vn -1 0 0
vn -1 0 0
vn 1 0 0
vn 1 0 0
vn 0 0 1
vn -1 0 0
vn 1 0 0
vn -1 0 0
vn 1 0 0
vn -1 0 0
vn 1 0 0
vn 1 0 0
vn 1 0 0
vn 1 0 0
vn -1 0 0
vn 1 0 0
vn 1 0 0
vn 0 0 -1
vn 0 0 -1
vn 0 0 -1
vn 0 0 -1
vn 1 0 0
vn 1 0 0
vn 1 0 0
vn 1 0 0
vn 0 0 1
vn 0 0 1
vn 0 0 1
vn -1 0 0
vn -1 0 0
vn -1 0 0
vn -1 0 0
vn 0 0 -1
vn 0 0 -1
vn 1 0 0
vn 1 0 0
g pb_Mesh36108_0
f 3/3/3 2/2/2 1/1/1
f 2/2/2 4/4/4 1/1/1
f 7/7/7 6/6/6 5/5/5
f 7/7/7 5/5/5 8/8/8
f 11/11/11 10/10/10 9/9/9
f 10/10/10 12/12/12 9/9/9
f 15/15/15 14/14/14 13/13/13
f 15/15/15 13/13/13 16/16/16
f 8/8/8 5/5/5 14/14/14
f 8/8/8 14/14/14 15/15/15
f 19/19/19 18/18/18 17/17/17
f 18/18/18 20/20/20 17/17/17
f 23/23/23 22/22/22 21/21/21
f 22/22/22 24/24/24 21/21/21
f 27/27/27 26/26/26 25/25/25
f 27/27/27 25/25/25 28/28/28
f 28/28/28 25/25/25 29/29/29
f 28/28/28 29/29/29 30/30/30
f 33/33/33 32/32/32 31/31/31
f 32/32/32 34/34/34 31/31/31
f 31/31/31 34/34/34 35/35/35
f 34/34/34 36/36/36 35/35/35
f 39/39/39 38/38/38 37/37/37
f 39/39/39 37/37/37 40/40/40
f 42/42/42 41/41/41 38/38/38
f 42/42/42 38/38/38 39/39/39
f 44/44/44 33/33/33 43/43/43
f 33/33/33 31/31/31 43/43/43
f 43/43/43 31/31/31 45/45/45
f 31/31/31 35/35/35 45/45/45
f 47/47/47 44/44/44 46/46/46
f 44/44/44 43/43/43 46/46/46
f 46/46/46 43/43/43 48/48/48
f 43/43/43 45/45/45 48/48/48
f 49/49/49 39/39/39 40/40/40
f 49/49/49 40/40/40 50/50/50
f 51/51/51 42/42/42 39/39/39
f 51/51/51 39/39/39 49/49/49
f 52/52/52 49/49/49 50/50/50
f 52/52/52 50/50/50 53/53/53
f 54/54/54 51/51/51 49/49/49
f 54/54/54 49/49/49 52/52/52
f 16/16/16 13/13/13 55/55/55
f 16/16/16 55/55/55 56/56/56
f 56/56/56 55/55/55 57/57/57
f 56/56/56 57/57/57 58/58/58
f 60/60/60 46/46/46 59/59/59
f 46/46/46 48/48/48 59/59/59
f 62/62/62 60/60/60 61/61/61
f 60/60/60 59/59/59 61/61/61
f 65/65/65 64/64/64 63/63/63
f 64/64/64 66/66/66 63/63/63
f 68/68/68 67/67/67 65/65/65
f 67/67/67 64/64/64 65/65/65
f 69/69/69 54/54/54 52/52/52
f 69/69/69 52/52/52 70/70/70
f 71/71/71 69/69/69 70/70/70
f 71/71/71 70/70/70 72/72/72
f 75/75/75 74/74/74 73/73/73
f 75/75/75 76/76/76 74/74/74
f 77/77/77 56/56/56 58/58/58
f 77/77/77 78/78/78 56/56/56
f 79/79/79 25/25/25 26/26/26
f 79/79/79 80/80/80 25/25/25
f 81/81/81 14/14/14 5/5/5
f 81/81/81 82/82/82 14/14/14
f 83/83/83 4/4/4 2/2/2
f 83/83/83 84/84/84 4/4/4
f 80/80/80 29/29/29 25/25/25
f 80/80/80 85/85/85 29/29/29
f 86/86/86 5/5/5 6/6/6
f 86/86/86 81/81/81 5/5/5
f 87/87/87 2/2/2 12/12/12
f 87/87/87 83/83/83 2/2/2
f 82/82/82 13/13/13 14/14/14
f 82/82/82 88/88/88 13/13/13
f 89/89/89 12/12/12 10/10/10
f 89/89/89 87/87/87 12/12/12
f 88/88/88 55/55/55 13/13/13
f 88/88/88 90/90/90 55/55/55
f 93/93/93 92/92/92 91/91/91
f 93/93/93 94/94/94 92/92/92
f 90/90/90 57/57/57 55/55/55
f 90/90/90 95/95/95 57/57/57
f 97/97/97 91/91/91 96/96/96
f 97/97/97 93/93/93 91/91/91
f 98/98/98 20/20/20 18/18/18
f 98/98/98 99/99/99 20/20/20
f 100/100/100 24/24/24 22/22/22
f 100/100/100 101/101/101 24/24/24
f 102/102/102 3/3/3 1/1/1
f 102/102/102 103/103/103 3/3/3
f 104/104/104 11/11/11 9/9/9
f 104/104/104 105/105/105 11/11/11
f 106/106/106 28/28/28 30/30/30
f 106/106/106 107/107/107 28/28/28
f 107/107/107 27/27/27 28/28/28
f 107/107/107 108/108/108 27/27/27
f 103/103/103 9/9/9 3/3/3
f 103/103/103 104/104/104 9/9/9
f 109/109/109 15/15/15 16/16/16
f 109/109/109 110/110/110 15/15/15
f 111/111/111 7/7/7 8/8/8
f 111/111/111 112/112/112 7/7/7
f 113/113/113 23/23/23 21/21/21
f 113/113/113 114/114/114 23/23/23
f 110/110/110 8/8/8 15/15/15
f 110/110/110 111/111/111 8/8/8
f 116/116/116 73/73/73 115/115/115
f 116/116/116 75/75/75 73/73/73
f 78/78/78 16/16/16 56/56/56
f 78/78/78 109/109/109 16/16/16
