g pb_Mesh282828
v 47 0 -8
v 47 0 0
v 35 0 -8
v 35 0 0
v 47 0 8
v 35 0 8
v 24 0 -8
v 24 0 0
v 24 0 8
v 12 0 -8
v 12 0 0
v 12 0 8
v 0 0 -8
v 0 0 0
v 0 0 8
v -12 0 -8
v -12 0 0
v -12 0 8
v -24 0 -8
v -24 0 0
v -24 0 8
v -35 0 -8
v -35 0 0
v -35 0 8
v -47 0 -8
v -47 0 0
v -47 0 8
vt 0.1914062 0.2860034
vt 0.1914062 0.3317461
vt 0.2701961 0.2860034
vt 0.2701961 0.3317461
vt 0.1914062 0.3774889
vt 0.2701961 0.3774889
vt 0.3424202 0.2860034
vt 0.3424202 0.3317461
vt 0.3424202 0.3774889
vt 0.4212101 0.2860034
vt 0.4212101 0.3317461
vt 0.4212101 0.3774889
vt 0.4999999 0.2860034
vt 0.4999999 0.3317461
vt 0.4999999 0.3774889
vt 0.5787898 0.2860034
vt 0.5787898 0.3317461
vt 0.5787898 0.3774889
vt 0.6575797 0.2860034
vt 0.6575797 0.3317461
vt 0.6575797 0.3774889
vt 0.7298038 0.2860034
vt 0.7298038 0.3317461
vt 0.7298038 0.3774889
vt 0.8085937 0.2860034
vt 0.8085937 0.3317461
vt 0.8085937 0.3774889
vn 0 1 0
vn 0 1 0
vn 0 1 0
vn 0 1 0
vn 0 1 0
vn 0 1 0
vn 0 1 0
vn 0 1 0
vn 0 1 0
vn 0 1 0
vn 0 1 0
vn 0 1 0
vn 0 1 0
vn 0 1 0
vn 0 1 0
vn 0 1 0
vn 0 1 0
vn 0 1 0
vn 0 1 0
vn 0 1 0
vn 0 1 0
vn 0 1 0
vn 0 1 0
vn 0 1 0
vn 0 1 0
vn 0 1 0
vn 0 1 0
g pb_Mesh282828_0
f 3/3/3 2/2/2 1/1/1
f 3/3/3 4/4/4 2/2/2
f 4/4/4 5/5/5 2/2/2
f 4/4/4 6/6/6 5/5/5
f 7/7/7 4/4/4 3/3/3
f 7/7/7 8/8/8 4/4/4
f 8/8/8 6/6/6 4/4/4
f 8/8/8 9/9/9 6/6/6
f 10/10/10 8/8/8 7/7/7
f 10/10/10 11/11/11 8/8/8
f 11/11/11 9/9/9 8/8/8
f 11/11/11 12/12/12 9/9/9
f 13/13/13 11/11/11 10/10/10
f 13/13/13 14/14/14 11/11/11
f 14/14/14 12/12/12 11/11/11
f 14/14/14 15/15/15 12/12/12
f 16/16/16 14/14/14 13/13/13
f 16/16/16 17/17/17 14/14/14
f 17/17/17 15/15/15 14/14/14
f 17/17/17 18/18/18 15/15/15
f 19/19/19 17/17/17 16/16/16
f 19/19/19 20/20/20 17/17/17
f 20/20/20 18/18/18 17/17/17
f 20/20/20 21/21/21 18/18/18
f 22/22/22 20/20/20 19/19/19
f 22/22/22 23/23/23 20/20/20
f 23/23/23 21/21/21 20/20/20
f 23/23/23 24/24/24 21/21/21
f 25/25/25 23/23/23 22/22/22
f 25/25/25 26/26/26 23/23/23
f 26/26/26 24/24/24 23/23/23
f 26/26/26 27/27/27 24/24/24
