g pb_Mesh136278
v 0 -15.5 0
v -40 -15.5 0
v 0 8 0
v -40 8 0
v -40 -15.5 0
v -40 -15.5 -20
v -40 8 0
v -40 8 -20
v -40 -15.5 -20
v 0 -15.5 -20
v -40 8 -20
v 0 8 -20
v 0 -15.5 -20
v 0 -15.5 0
v 0 8 -20
v 0 8 0
v 0 8 0
v -40 8 0
v -12 8 -9
v -19 8 -9
v 0 8 -20
v 0 8 0
v -12 8 -16
v -12 8 -9
v -40 8 0
v -40 8 -20
v -19 8 -9
v -19 8 -16
v -40 8 -20
v 0 8 -20
v -19 8 -16
v -12 8 -16
v -12 8 -9
v -19 8 -9
v -12 4 -9
v -19 4 -9
v -12 8 -16
v -12 8 -9
v -12 4 -16
v -12 4 -9
v -19 8 -9
v -19 8 -16
v -19 4 -9
v -19 4 -16
v -19 8 -16
v -12 8 -16
v -19 4 -16
v -12 4 -16
vt 40 0
vt 0 0
vt 40 23.5
vt 0 23.5
vt 20 0
vt 0 0
vt 20 23.5
vt 0 23.5
vt 40 0
vt 0 0
vt 40 23.5
vt 0 23.5
vt 20 0
vt 0 0
vt 20 23.5
vt 0 23.5
vt 0 9
vt 40 9
vt 12 0
vt 19 0
vt 0 0
vt 0 20
vt 12 4
vt 12 11
vt 21 20
vt 21 0
vt 0 11
vt 0 4
vt 40 0
vt 0 0
vt 19 4
vt 12 4
vt 0 4
vt 7 4
vt 0 0
vt 7 0
vt 0 4
vt 7 4
vt 0 0
vt 7 0
vt 0 4
vt 7 4
vt 0 0
vt 7 0
vt 0 4
vt 7 4
vt 0 0
vt 7 0
vn 0 0 0.9999999
vn 0 0 0.9999999
vn 0 0 0.9999999
vn 0 0 0.9999999
vn -0.9999999 0 0
vn -0.9999999 0 0
vn -0.9999999 0 0
vn -0.9999999 0 0
vn 0 0 -0.9999999
vn 0 0 -0.9999999
vn 0 0 -0.9999999
vn 0 0 -0.9999999
vn 0.9999999 0 0
vn 0.9999999 0 0
vn 0.9999999 0 0
vn 0.9999999 0 0
vn 0 1 0
vn 0 1 0
vn 0 1 0
vn 0 1 0
vn 0 1 0
vn 0 1 0
vn 0 1 0
vn 0 1 0
vn 0 1 0
vn 0 0.9999999 0
vn 0 0.9999999 0
vn 0 1 0
vn 0 1 0
vn 0 0.9999999 0
vn 0 0.9999999 0
vn 0 1 0
vn 0 0 -1
vn 0 0 -1
vn 0 0 -1
vn 0 0 -1
vn -1 0 0
vn -1 0 0
vn -1 0 0
vn -1 0 0
vn 1 0 0
vn 1 0 0
vn 1 0 0
vn 1 0 0
vn 0 0 1
vn 0 0 1
vn 0 0 1
vn 0 0 1
g pb_Mesh136278_0
f 3/3/3 2/2/2 1/1/1
f 3/3/3 4/4/4 2/2/2
f 7/7/7 6/6/6 5/5/5
f 7/7/7 8/8/8 6/6/6
f 11/11/11 10/10/10 9/9/9
f 11/11/11 12/12/12 10/10/10
f 15/15/15 14/14/14 13/13/13
f 15/15/15 16/16/16 14/14/14
f 35/35/35 34/34/34 33/33/33
f 35/35/35 36/36/36 34/34/34
f 39/39/39 38/38/38 37/37/37
f 39/39/39 40/40/40 38/38/38
f 43/43/43 42/42/42 41/41/41
f 43/43/43 44/44/44 42/42/42
f 47/47/47 46/46/46 45/45/45
f 47/47/47 48/48/48 46/46/46
g pb_Mesh136278_1
f 19/19/19 18/18/18 17/17/17
f 19/19/19 20/20/20 18/18/18
f 23/23/23 22/22/22 21/21/21
f 23/23/23 24/24/24 22/22/22
f 27/27/27 26/26/26 25/25/25
f 27/27/27 28/28/28 26/26/26
f 31/31/31 30/30/30 29/29/29
f 31/31/31 32/32/32 30/30/30
