g pb_Mesh141964
v -26.0002 -2 0
v -26.0002 -2 -4
v -26.0002 0.0001001358 0
v -26.0002 0.0001001358 -4
v -8.25 -2 0
v -8.25 -2 -4
v -10.0001 -2 0
v -10.0001 -2 -4
v -8.25 2 0
v -8.25 0 0
v -10.0001 2 0
v -10.0001 0 0
v -8.25 0 -4
v -8.25 2 -4
v -10.0001 0 -4
v -10.0001 2 -4
v -8.25 2 -4
v -8.25 2 0
v -10.0001 2 -4
v -10.0001 2 0
v -12 -2 0
v -12 -2 -4
v -12 2 0
v -12 0 0
v -12 0 -4
v -12 2 -4
v -12 2 -4
v -12 2 0
v -12 0 0
v -12 0 -4
v -14 1 0
v -14 1 -4
v -14.0001 2 0
v -14 1 0
v -14 1 -4
v -14.0001 2 -4
v -14.0001 2 -4
v -14.0001 2 0
v -14 1 0
v -14 1 -4
v -16.0001 0 0
v -16.00003 3.329913E-05 -4.000033
v -16.0001 2 0
v -16.0001 0 0
v -16.00003 3.329913E-05 -4.000033
v -16.0001 2 -4
v -16.0001 -2 0
v -16.0001 -2 -4
v -18.0001 -2 0
v -18.0001 -2 -4
v -18.0001 2 0
v -18.0001 0 0
v -20.0001 -2 0
v -20.0001 -2 -4
v -20.0001 2 0
v -20.0001 0 0
v -20.0001 0 0
v -20.00003 3.329913E-05 -4.000033
v -22 1 0
v -22 1 -4
v -22.0001 2 0
v -22 1 0
v -20.00003 3.329913E-05 -4.000033
v -20.0001 2 -4
v -22 1 -4
v -22.0001 2 -4
v -22 1 0
v -22 1 -4
v -24.0001 0 0
v -24.0001 0 -4
v -24.0001 2 0
v -24.0001 0 0
v -22 1 -4
v -22.0001 2 -4
v -24.0001 0 -4
v -24.0001 2 -4
v -22.0001 2 -4
v -22.0001 2 0
v -24.0001 2 -4
v -24.0001 2 0
v -24.0001 -2 0
v -24.0001 -2 -4
v -26.0002 -2 0
v -26.0002 -2 -4
v -26.0001 2 0
v -26.0002 0.0001001358 0
v -26.0001 0 -4
v -26.0001 2 -4
v -26.0001 2 -4
v -26.0001 2 0
v -26.0001 2 -4
v -26.0001 2 0
v -26.0002 0.0001001358 -4
v -26.0002 0.0001001358 0
v -24.0001 0 0
v -24.0001 0 -4
v -24.0001 -2 0
v -24.0001 -2 -4
v -26.0002 -2 0
v -24.0001 -2 0
v -24.0001 -2 -4
v -26.0002 -2 -4
v -20.0001 -2 0
v -18.0001 -2 0
v -18.00005 0 -4.00005
v -20.00003 3.329913E-05 -4.000033
v -18.0001 -2 -4
v -20.0001 -2 -4
v -20.00003 3.329913E-05 -4.000033
v -20.0001 0 0
v -20.0001 -2 -4
v -20.0001 -2 0
v -16.0001 0 0
v -16.00003 3.329913E-05 -4.000033
v -16.0001 -2 0
v -16.0001 -2 -4
v -16.0001 -2 0
v -16.00003 3.329913E-05 -4.000033
v -16.0001 -2 -4
v -12 -2 0
v -10.0001 -2 0
v -10.0001 -2 -4
v -12 -2 -4
v -12 0 -4
v -12 0 0
v -12 -2 -4
v -12 -2 0
v -8.25 0 0
v -8.25 0 -4
v -8.25 -2 0
v -8.25 -2 -4
v -8.25 -2 0
v -8.25 -2 -4
v -16.0001 2 -2
v -16.0001 2 -4
v -16.0001 2 0
v -20.0001 2 -4
v -20.0001 2 -2
v -20.0001 2 0
v -18 1.125 -2
v -18 0 -2.125
v -17.875 2 -2.125
v -16 9.989738E-05 -2
v -17.875 2 -2.125
v -18 0 -2.125
v -16.0001 2 -2
v -20.00003 3.329913E-05 -4.000033
v -20.0001 2 -2
v -20.0001 2 -4
v -20 9.989738E-05 -2
v -16 9.989738E-05 -2
v -16.0001 2 -4
v -16.0001 2 -2
v -16.00003 3.329913E-05 -4.000033
v -20.00003 3.329913E-05 -4.000033
v -18 0 -2.125
v -20 9.989738E-05 -2
v -18.00005 0 -4.00005
v -16 9.989738E-05 -2
v -16.00003 3.329913E-05 -4.000033
v -20.0001 2 0
v -20.0001 2 -2
v -18.25 2 -2
v -18 2 -1.75
v -18.0001 2 0
v -18.25 2 -2
v -18 1.125 -2
v -18 2 -1.75
v -20.0001 2 -2
v -20 9.989738E-05 -2
v -18.25 2 -2
v -18 0 -2.125
v -18 1.125 -2
v -17.875 2 -2.125
v -18 2 -1.75
v -18 1.125 -2
v -17.875 2 -2.125
v -16.0001 2 -2
v -16.0001 2 0
v -18 2 -1.75
v -18.0001 2 0
vt 0 -2
vt -4 -2
vt 0 0.0001001358
vt -4 0.0001001358
vt -8.25 0
vt -8.25 -4
vt -10.0001 0
vt -10.0001 -4
vt -8.25 2
vt -8.25 0
vt -10.0001 2
vt -10.0001 0
vt 8.25 0
vt 8.25 2
vt 10.0001 0
vt 10.0001 2
vt 8.25 -4
vt 8.25 0
vt 10.0001 -4
vt 10.0001 0
vt -12 0
vt -12 -4
vt -12 2
vt -12 0
vt 12 0
vt 12 2
vt 12 -4
vt 12 0
vt -10.73313 0
vt -10.73313 -4
vt -12.96919 0
vt -12.96919 -4
vt -14.0001 2
vt -14 1
vt 14 1
vt 14.0001 2
vt 14.0001 -4
vt 14.0001 0
vt -12.07491 0
vt -12.07491 -4
vt -14.31107 0
vt -14.31099 -4.000033
vt -16.0001 2
vt -16.0001 0
vt 16.0001 3.32926E-05
vt 16.00016 2
vt -16.0001 0
vt -16.0001 -4
vt -18.0001 0
vt -18.0001 -4
vt -18.0001 2
vt -18.0001 0
vt -20.0001 0
vt -20.0001 -4
vt -20.0001 2
vt -20.0001 0
vt -17.88845 0.0001333623
vt -17.88841 -3.9999
vt -20.12443 0.0001333623
vt -20.12443 -3.999867
vt -22.0001 2
vt -22 1
vt 20 -3.250765E-05
vt 20.00007 1.999934
vt 21.99997 0.9999342
vt 22.00007 1.999934
vt -19.2304 0
vt -19.2304 -4
vt -21.46655 0
vt -21.46655 -4
vt -24.0001 2
vt -24.0001 0
vt 22 1
vt 22.0001 2
vt 24.0001 0
vt 24.0001 2
vt 22.0001 -4
vt 22.0001 0
vt 24.0001 -4
vt 24.0001 0
vt -24.0001 0
vt -24.0001 -4
vt -26.0002 0
vt -26.0002 -4
vt -26.0001 2
vt -26.0002 0.0001001358
vt 26.0001 0
vt 26.0001 2
vt 26.0001 -4
vt 26.0001 0
vt -4 1.998711
vt 0 1.998711
vt -4 -0.001189306
vt 0 -0.001189306
vt 0 0
vt 4 0
vt 0 -2
vt 4 -2
vt -26.0002 -2
vt -24.0001 -2
vt 24.0001 -2
vt 26.0002 -2
vt -20.0001 -2
vt -18.0001 -2
vt 18.00002 9.918625E-05
vt 20 0.0001324854
vt 18.00006 -1.999901
vt 20.00006 -1.999901
vt -3.999699 -0.0006342595
vt 0.0003337793 -0.0006675587
vt -3.999666 -2.000668
vt 0.0003337793 -2.000668
vt -0.0002670283 0
vt 3.999766 3.329913E-05
vt -0.0002670283 -2
vt 3.999733 -2
vt -16.0001 -2
vt 16.00007 9.910102E-05
vt 16.00013 -1.999934
vt -12 -2
vt -10.0001 -2
vt 10.0001 -2
vt 12 -2
vt -4 0
vt 0 0
vt -4 -2
vt 0 -2
vt 0 0
vt 4 0
vt 0 -2
vt 4 -2
vt -8.25 -2
vt 8.25 -2
vt 16.0001 -2
vt 16.0001 -4
vt 16.0001 0
vt 20.0001 -4
vt 20.0001 -2
vt 20.0001 0
vt 18.06723 1.123327
vt 18.07239 -0.001838618
vt 17.94749 1.998153
vt 16.06893 -0.001682339
vt 17.94749 1.998153
vt 18.07239 -0.001838618
vt 16.06903 1.998216
vt 4.000033 0.0007008834
vt 2 2.000668
vt 4 2.000668
vt 2 0.0007674805
vt -2 0.0008933941
vt -4 2.000793
vt -2 2.000793
vt -4.000033 0.0008267974
vt 20.00003 -4.000033
vt 18 -2.125
vt 20 -2
vt 18.00005 -4.00005
vt 16 -2
vt 16.00003 -4.000033
vt 18.31324 -3.709403
vt 18.31324 -5.497706
vt 16.79838 -5.105288
vt 16.58199 -4.825693
vt 16.58208 -3.26095
vt 16.79838 -5.105288
vt 16.14382 -5.38836
vt 16.58199 -4.825693
vt 19.94914 1.922653
vt 19.94905 -0.07628027
vt 18.1995 1.923897
vt 17.94671 -0.07884372
vt 17.94957 1.049498
vt 12.19682 0.743731
vt 12.29128 1.127565
vt 12.8644 0.7422845
vt 12.19682 0.743731
vt 10.7801 0.6038966
vt 10.7801 2.557866
vt 12.29128 1.127565
vt 12.29135 2.837302
vn -1 0 0
vn -1 0 0
vn -1 0 0
vn -1 0 0
vn 0 -1 0
vn 0 -1 0
vn 0 -1 0
vn 0 -1 0
vn 0 0 1
vn 0 0 1
vn 0 0 1
vn 0 0 1
vn 0 0 -1
vn 0 0 -1
vn 0 0 -1
vn 0 0 -1
vn 0 1 0
vn 0 1 0
vn 0 1 0
vn 0 1 0
vn 0 -1 0
vn 0 -1 0
vn 0 0 1
vn 0 0 1
vn 0 0 -1
vn 0 0 -1
vn 0 1 0
vn 0 1 0
vn -0.4472136 -0.8944272 0
vn -0.4472136 -0.8944272 0
vn -0.4472136 -0.8944272 0
vn -0.4472136 -0.8944272 0
vn 0 0 1
vn 0 0 1
vn 0 0 -1
vn 0 0 -1
vn 0 1 0
vn 0 1 0
vn 0.4471959 -0.8944361 0
vn 0.4471959 -0.8944361 6.479172E-09
vn 0.4471959 -0.8944361 6.479172E-09
vn 0.4471959 -0.8944361 1.295834E-08
vn 0 0 1
vn 0 0 1
vn 8.2249E-06 8.226393E-06 -1
vn 0 1.645115E-05 -1
vn 0 -1 0
vn 0 -1 0
vn 0 -1 0
vn 0 -1 0
vn 0 0 1
vn 0 0 1
vn 0 -1 0
vn 0 -1 0
vn 0 0 1
vn 0 0 1
vn -0.4472313 -0.8944183 -1.490969E-05
vn -0.4472194 -0.8944243 -7.454847E-06
vn -0.4472194 -0.8944243 -7.454847E-06
vn -0.4472075 -0.8944303 0
vn 0 0 1
vn 0 0 1
vn -8.225849E-06 1.645088E-05 -1
vn -4.112925E-06 8.225441E-06 -1
vn -4.112925E-06 8.225441E-06 -1
vn 0 0 -1
vn 0.4471959 -0.8944361 0
vn 0.4471959 -0.8944361 0
vn 0.4471959 -0.8944361 0
vn 0.4471959 -0.8944361 0
vn 0 0 1
vn 0 0 1
vn 0 0 -1
vn 0 0 -1
vn 0 0 -1
vn 0 0 -1
vn 0 1 0
vn 0 1 0
vn 0 1 0
vn 0 1 0
vn 0 -1 0
vn 0 -1 0
vn 0 -1 0
vn 0 -1 0
vn 0 0 1
vn 0 0 1
vn 0 0 -1
vn 0 0 -1
vn 0 1 0
vn 0 1 0
vn -1 4.959355E-05 0
vn -1 4.959355E-05 0
vn -1 4.959355E-05 0
vn -1 4.959355E-05 0
vn 1 0 0
vn 1 0 0
vn 1 0 0
vn 1 0 0
vn 0 0 1
vn 0 0 1
vn 0 0 -1
vn 0 0 -1
vn 0 0 1
vn 0 0 1
vn -8.345135E-06 -2.479532E-05 -1
vn -4.172568E-06 -2.062297E-05 -1
vn -4.172568E-06 -2.062297E-05 -1
vn 0 -1.645061E-05 -1
vn -1 3.337777E-05 -1.668888E-05
vn -1 1.668888E-05 -8.344442E-06
vn -1 1.668888E-05 -8.344442E-06
vn -1 0 0
vn 1 0 1.668916E-05
vn 1 -1.668902E-05 8.344582E-06
vn 1 -1.668902E-05 8.344582E-06
vn 1 -3.337804E-05 0
vn 0 0 1
vn 8.344852E-06 -1.645089E-05 -1
vn 4.172426E-06 -2.062321E-05 -1
vn 0 0 1
vn 0 0 1
vn 0 0 -1
vn 0 0 -1
vn -1 0 0
vn -1 0 0
vn -1 0 0
vn -1 0 0
vn 1 0 0
vn 1 0 0
vn 1 0 0
vn 1 0 0
vn 0 0 1
vn 0 0 -1
vn 0 1 0
vn 0 1 0
vn 0 1 0
vn 0 1 0
vn 0 1 0
vn 0 1 0
vn -0.8702853 0.05439283 -0.4895355
vn -0.4039536 0.0252471 -0.7437902
vn -0.2471282 0.0168325 -0.8284552
vn 0.06445026 -0.001947663 -0.9979149
vn -0.2471282 0.0168325 -0.8284552
vn -0.4039536 0.0252471 -0.7437902
vn 0.06652252 3.299087E-06 -0.9977849
vn 1 4.148635E-05 -8.106925E-06
vn 1 4.148635E-05 -8.106925E-06
vn 1 3.337916E-05 0
vn 1 4.959354E-05 -1.621385E-05
vn -1 -4.148648E-05 8.106655E-06
vn -1 -4.148648E-05 8.106655E-06
vn -1 -4.959354E-05 0
vn -1 -3.337942E-05 1.621331E-05
vn 3.225859E-05 1 -1.66499E-05
vn 3.225859E-05 1 -1.66499E-05
vn 4.786748E-05 1 -3.329936E-05
vn 1.664971E-05 1 -4.403493E-10
vn -3.329896E-05 1 -1.66485E-05
vn -1.664914E-05 1 -3.329831E-05
vn 0 1 0
vn 0 1 0
vn 0 1 0
vn 0 1 0
vn 0 1 0
vn 0.6931033 0.1980295 -0.6931033
vn 0.6931033 0.1980295 -0.6931033
vn 0.6931033 0.1980295 -0.6931033
vn 0 0 -1
vn -0.03114143 0.02725012 -0.9982847
vn 0.09941184 0.05250183 -0.9745389
vn 0.1491178 0.07875274 -0.9618083
vn 0.3605184 0.1030052 -0.9270472
vn -0.9448347 0.08998425 -0.3149449
vn -0.9448347 0.08998425 -0.3149449
vn -0.9448347 0.08998425 -0.3149449
vn 0 1 0
vn 0 1 0
vn 0 1 0
vn 0 1 0
vn 0 1 0
g pb_Mesh141964_0
f 3/3/3 2/2/2 1/1/1
f 3/3/3 4/4/4 2/2/2
f 7/7/7 6/6/6 5/5/5
f 7/7/7 8/8/8 6/6/6
f 11/11/11 10/10/10 9/9/9
f 11/11/11 12/12/12 10/10/10
f 15/15/15 14/14/14 13/13/13
f 15/15/15 16/16/16 14/14/14
f 19/19/19 18/18/18 17/17/17
f 19/19/19 20/20/20 18/18/18
f 21/21/21 8/8/8 7/7/7
f 21/21/21 22/22/22 8/8/8
f 23/23/23 12/12/12 11/11/11
f 23/23/23 24/24/24 12/12/12
f 25/25/25 16/16/16 15/15/15
f 25/25/25 26/26/26 16/16/16
f 27/27/27 20/20/20 19/19/19
f 27/27/27 28/28/28 20/20/20
f 31/31/31 30/30/30 29/29/29
f 31/31/31 32/32/32 30/30/30
f 33/33/33 24/24/24 23/23/23
f 33/33/33 34/34/34 24/24/24
f 35/35/35 26/26/26 25/25/25
f 35/35/35 36/36/36 26/26/26
f 37/37/37 28/28/28 27/27/27
f 37/37/37 38/38/38 28/28/28
f 41/41/41 40/40/40 39/39/39
f 41/41/41 42/42/42 40/40/40
f 43/43/43 34/34/34 33/33/33
f 43/43/43 44/44/44 34/34/34
f 45/45/45 36/36/36 35/35/35
f 45/45/45 46/46/46 36/36/36
f 49/49/49 48/48/48 47/47/47
f 49/49/49 50/50/50 48/48/48
f 51/51/51 44/44/44 43/43/43
f 51/51/51 52/52/52 44/44/44
f 53/53/53 50/50/50 49/49/49
f 53/53/53 54/54/54 50/50/50
f 55/55/55 52/52/52 51/51/51
f 55/55/55 56/56/56 52/52/52
f 59/59/59 58/58/58 57/57/57
f 59/59/59 60/60/60 58/58/58
f 61/61/61 56/56/56 55/55/55
f 61/61/61 62/62/62 56/56/56
f 65/65/65 64/64/64 63/63/63
f 65/65/65 66/66/66 64/64/64
f 69/69/69 68/68/68 67/67/67
f 69/69/69 70/70/70 68/68/68
f 71/71/71 62/62/62 61/61/61
f 71/71/71 72/72/72 62/62/62
f 75/75/75 74/74/74 73/73/73
f 75/75/75 76/76/76 74/74/74
f 79/79/79 78/78/78 77/77/77
f 79/79/79 80/80/80 78/78/78
f 83/83/83 82/82/82 81/81/81
f 83/83/83 84/84/84 82/82/82
f 85/85/85 72/72/72 71/71/71
f 85/85/85 86/86/86 72/72/72
f 87/87/87 76/76/76 75/75/75
f 87/87/87 88/88/88 76/76/76
f 89/89/89 80/80/80 79/79/79
f 89/89/89 90/90/90 80/80/80
f 93/93/93 92/92/92 91/91/91
f 93/93/93 94/94/94 92/92/92
f 97/97/97 96/96/96 95/95/95
f 97/97/97 98/98/98 96/96/96
f 99/99/99 72/72/72 86/86/86
f 99/99/99 100/100/100 72/72/72
f 101/101/101 87/87/87 75/75/75
f 101/101/101 102/102/102 87/87/87
f 103/103/103 52/52/52 56/56/56
f 103/103/103 104/104/104 52/52/52
f 107/107/107 106/106/106 105/105/105
f 107/107/107 108/108/108 106/106/106
f 111/111/111 110/110/110 109/109/109
f 111/111/111 112/112/112 110/110/110
f 115/115/115 114/114/114 113/113/113
f 115/115/115 116/116/116 114/114/114
f 104/104/104 44/44/44 52/52/52
f 104/104/104 117/117/117 44/44/44
f 119/119/119 105/105/105 118/118/118
f 119/119/119 107/107/107 105/105/105
f 120/120/120 12/12/12 24/24/24
f 120/120/120 121/121/121 12/12/12
f 122/122/122 25/25/25 15/15/15
f 122/122/122 123/123/123 25/25/25
f 126/126/126 125/125/125 124/124/124
f 126/126/126 127/127/127 125/125/125
f 130/130/130 129/129/129 128/128/128
f 130/130/130 131/131/131 129/129/129
f 121/121/121 10/10/10 12/12/12
f 121/121/121 132/132/132 10/10/10
f 133/133/133 15/15/15 13/13/13
f 133/133/133 122/122/122 15/15/15
f 37/37/37 135/135/135 134/134/134
f 38/38/38 37/37/37 134/134/134
f 38/38/38 134/134/134 136/136/136
f 138/138/138 137/137/137 77/77/77
f 78/78/78 138/138/138 77/77/77
f 78/78/78 139/139/139 138/138/138
f 142/142/142 141/141/141 140/140/140
f 145/145/145 144/144/144 143/143/143
f 144/144/144 146/146/146 143/143/143
f 149/149/149 148/148/148 147/147/147
f 148/148/148 150/150/150 147/147/147
f 153/153/153 152/152/152 151/151/151
f 152/152/152 154/154/154 151/151/151
f 157/157/157 156/156/156 155/155/155
f 156/156/156 158/158/158 155/155/155
f 156/156/156 159/159/159 158/158/158
f 159/159/159 160/160/160 158/158/158
f 163/163/163 162/162/162 161/161/161
f 161/161/161 164/164/164 163/163/163
f 161/161/161 165/165/165 164/164/164
f 168/168/168 167/167/167 166/166/166
f 171/171/171 170/170/170 169/169/169
f 172/172/172 170/170/170 171/171/171
f 172/172/172 171/171/171 173/173/173
f 176/176/176 175/175/175 174/174/174
f 179/179/179 178/178/178 177/177/177
f 179/179/179 177/177/177 180/180/180
f 179/179/179 180/180/180 181/181/181
