g pb_Mesh-468274
v -2 3 0
v -5 3 0
v -2 3 -8
v -5 3 -8
v -1.999999 -3 -8.000002
v -5 -6 -8.000003
v -1.999999 -3 1.490116E-06
v -5 -6 3.039837E-06
v -2 0 0
v -5 0 0
v -5 1 0
v -2 1 0
v -5 3 0
v -2 3 0
v -5 1 -8
v -2 0 -8
v -2 1 -8
v -5 0 -8
v -5 3 -8
v -2 3 -8
v 0 1 -8
v 0 0 0
v 0 1 0
v 0 0 -8
v -2 3 -8
v -2 1 0
v -2 3 0
v -2 1 -8
v 0 0 0
v 0 1 0
v -2 1 0
v -2 1 -8
v 0 1 0
v 0 1 -8
v 0 1 -8
v 0 0 -8
v -2 0 -8
v -2 0 0
v 0 0 -8
v 0 0 0
v -7 3.000107 8.940698E-07
v -5 3 -8
v -5 3 0
v -7 3.000107 -8.000002
v -1.999999 -3 -8.000002
v -5 -6 -8.000003
v -2 0 0
v -2 0 -8
v -1.999999 -3 1.490116E-06
v -1.999999 -3 -8.000002
v -5 0 -8
v -5 0 0
v -5 -6 -8.000003
v -5 -6 3.039837E-06
v -5 -6 3.039837E-06
v -1.999999 -3 1.490116E-06
vt 2 0
vt 5 0
vt 2 -8
vt 5 -8
vt -3.535533 -8.000002
vt -7.778174 -8.000003
vt -3.535533 1.490116E-06
vt -7.778174 3.039837E-06
vt -2 0
vt -5 0
vt -5 1
vt -2 1
vt -5 3
vt -2 3
vt 5 1
vt 2 0
vt 2 1
vt 5 0
vt 5 3
vt 2 3
vt 8 1
vt 0 0
vt 0 1
vt 8 0
vt 8 3
vt 0 1
vt 0 3
vt 8 1
vt 0 0
vt 0 1
vt 2 0
vt 2 -8
vt 0 0
vt 0 -8
vt 0 1
vt 0 0
vt -2 -8
vt -2 0
vt 0 -8
vt 0 0
vt 7.00016 8.940698E-07
vt 5.00016 -8
vt 5.00016 0
vt 7.00016 -8.000002
vt 1.999999 -3.000005
vt 5 -6.000005
vt 0 7.947286E-07
vt 8 7.947286E-07
vt -1.490116E-06 -2.999999
vt 8.000002 -2.999999
vt -8 3.973643E-07
vt 0 3.973643E-07
vt -8.000003 -6
vt 3.039837E-06 -6
vt -5 -6
vt -1.999999 -3
vn 0 1 0
vn 0 1 0
vn 0 1 0
vn 0 1 0
vn 0.7071067 -0.7071069 0
vn 0.7071067 -0.7071068 0
vn 0.7071067 -0.7071068 0
vn 0.7071067 -0.7071068 0
vn 0 0 1
vn 0 0 1
vn 0 0 1
vn 0 0 1
vn 0 0 1
vn 0 0 1
vn 0 0 -1
vn 0 0 -1
vn 0 0 -1
vn 0 0 -1
vn 0 0 -1
vn 0 0 -1
vn 1 0 0
vn 1 0 0
vn 1 0 0
vn 1 0 0
vn 1 0 0
vn 1 0 0
vn 1 0 0
vn 1 0 0
vn 0 0 1
vn 0 0 1
vn 0 1 0
vn 0 1 0
vn 0 1 0
vn 0 1 0
vn 0 0 -1
vn 0 0 -1
vn 0 -1 0
vn 0 -1 0
vn 0 -1 0
vn 0 -1 0
vn 5.340576E-05 1 0
vn 5.340576E-05 1 0
vn 5.340576E-05 1 0
vn 5.340576E-05 1 0
vn -7.947283E-08 5.563101E-07 -1
vn -1.589457E-07 4.768372E-07 -1
vn 1 3.973643E-07 0
vn 1 3.973643E-07 0
vn 1 3.973643E-07 0
vn 1 3.973643E-07 0
vn -1 -7.947286E-08 0
vn -1 -7.947286E-08 0
vn -1 -7.947286E-08 0
vn -1 -7.947286E-08 0
vn 9.934102E-09 5.016725E-07 1
vn 1.98682E-08 4.967055E-07 1
g pb_Mesh-468274_0
f 3/3/3 2/2/2 1/1/1
f 3/3/3 4/4/4 2/2/2
f 7/7/7 6/6/6 5/5/5
f 7/7/7 8/8/8 6/6/6
f 11/11/11 10/10/10 9/9/9
f 11/11/11 9/9/9 12/12/12
f 13/13/13 11/11/11 12/12/12
f 13/13/13 12/12/12 14/14/14
f 17/17/17 16/16/16 15/15/15
f 16/16/16 18/18/18 15/15/15
f 20/20/20 17/17/17 19/19/19
f 17/17/17 15/15/15 19/19/19
f 23/23/23 22/22/22 21/21/21
f 22/22/22 24/24/24 21/21/21
f 27/27/27 26/26/26 25/25/25
f 26/26/26 28/28/28 25/25/25
f 29/29/29 12/12/12 9/9/9
f 29/29/29 30/30/30 12/12/12
f 33/33/33 32/32/32 31/31/31
f 33/33/33 34/34/34 32/32/32
f 35/35/35 16/16/16 17/17/17
f 35/35/35 36/36/36 16/16/16
f 39/39/39 38/38/38 37/37/37
f 39/39/39 40/40/40 38/38/38
f 43/43/43 42/42/42 41/41/41
f 42/42/42 44/44/44 41/41/41
f 45/45/45 18/18/18 16/16/16
f 45/45/45 46/46/46 18/18/18
f 49/49/49 48/48/48 47/47/47
f 49/49/49 50/50/50 48/48/48
f 53/53/53 52/52/52 51/51/51
f 53/53/53 54/54/54 52/52/52
f 55/55/55 9/9/9 10/10/10
f 55/55/55 56/56/56 9/9/9
g pb_Mesh-468274_1
