g pb_Mesh152348
v -8 14 16
v -1 14 -14
v -8 14 -14
v -1 14 16
v -1 -1 16
v -1 14 -14
v -1 14 16
v -1 -1 -14
v -8 6 -14
v -8 -1 16
v -8 6 16
v -8 -1 -14
v -1 -1 -14
v -8 -1 -14
v -8 6 -14
v -1 6 -14
v -8 14 -14
v -1 14 -14
vt -8 16
vt -1 -14
vt -8 -14
vt -1 16
vt 16 -1
vt -14 14
vt 16 14
vt -14 -1
vt 14 5.611111
vt -16 -0.6111112
vt -16 5.611111
vt 14 -0.6111112
vt -1 -1
vt -8 -1
vt -8 6
vt -1 6
vt -8 14
vt -1 14
vn 0 -1 0
vn 0 -1 0
vn 0 -1 0
vn 0 -1 0
vn -1 0 0
vn -1 0 0
vn -1 0 0
vn -1 0 0
vn 1 0 0
vn 1 0 0
vn 1 0 0
vn 1 0 0
vn 0 0 1
vn 0 0 1
vn 0 0 1
vn 0 0 1
vn 0 0 1
vn 0 0 1
g pb_Mesh152348_0
f 3/3/3 2/2/2 1/1/1
f 2/2/2 4/4/4 1/1/1
f 7/7/7 6/6/6 5/5/5
f 6/6/6 8/8/8 5/5/5
f 11/11/11 10/10/10 9/9/9
f 10/10/10 12/12/12 9/9/9
f 15/15/15 14/14/14 13/13/13
f 15/15/15 13/13/13 16/16/16
f 17/17/17 15/15/15 16/16/16
f 17/17/17 16/16/16 18/18/18
g pb_Mesh152348_1
