g pb_Mesh436958
v 15 -4.5 -3
v 13 -4.5 -3
v 15 4 -3
v 13 4 -3
v 13 -4.5 -3
v 13 -4.5 -9
v 13 4 -3
v 13 4 -9
v 13 -4.5 -9
v 15 -4.5 -9
v 13 4 -9
v 15 4 -9
v 15 -4.5 -9
v 15 -4.5 -3
v 15 4 -9
v 15 4 -3
v 15 4 -3
v 13 4 -3
v 15 4 -9
v 13 4 -9
vt 15 -4.5
vt 13 -4.5
vt 15 4
vt 13 4
vt -3 -4.5
vt -9 -4.5
vt -3 4
vt -9 4
vt -13 -4.5
vt -15 -4.5
vt -13 4
vt -15 4
vt 9 -4.5
vt 3 -4.5
vt 9 4
vt 3 4
vt -14.03184 -3.000001
vt -12.03184 -3.000001
vt -14.03184 -9.000001
vt -12.03184 -9.000001
vn 0 0 1
vn 0 0 1
vn 0 0 1
vn 0 0 1
vn -1 0 0
vn -1 0 0
vn -1 0 0
vn -1 0 0
vn 0 0 -1
vn 0 0 -1
vn 0 0 -1
vn 0 0 -1
vn 1 0 0
vn 1 0 0
vn 1 0 0
vn 1 0 0
vn 0 1 0
vn 0 1 0
vn 0 1 0
vn 0 1 0
g pb_Mesh436958_0
g pb_Mesh436958_1
f 3/3/3 2/2/2 1/1/1
f 3/3/3 4/4/4 2/2/2
f 7/7/7 6/6/6 5/5/5
f 7/7/7 8/8/8 6/6/6
f 11/11/11 10/10/10 9/9/9
f 11/11/11 12/12/12 10/10/10
f 15/15/15 14/14/14 13/13/13
f 15/15/15 16/16/16 14/14/14
f 19/19/19 18/18/18 17/17/17
f 19/19/19 20/20/20 18/18/18
