g pb_Mesh238800
v 6 0 -10
v 8 0 -10
v -2 8 -2
v 0 8 -2
v 10 0 -10
v 12 0 -8
v 2 7.375 -2
v 4 7 0
v 4 0 -10
v -4 8 -2
v 2 0 -10
v -6 8 -2
v 2 0 -10
v -6 8 -2
v -9 0 -11.5
v -7 8 -3.5
v 4 7 0
v 12 0 -8
v 4 7 1.5
v 12 0 -6
v 6 7 2
v 14 0 -6
v 8 7 4
v 16 0 -4
v 8 7 4
v 16 0 -4
v 8 7 6
v 16 0 -2
v 8 7 8
v 16 0 0
v 10 7 8
v 18 0 0
v 10 7 10
v 18 0 2
v 10 7 12
v 18 0 20
v 10 7 12
v 18 0 20
v 8.5 7 14
v 16 0 22
v 8.5 7 14
v 16 0 22
v 8 7 17
v 16 0 25
v -8 8.5 16.5
v -6 7.5 16.5
v -8 8.5 17
v -6 7.5 17
v 0 8 -2
v 8 0 -10
v 2 7.375 -2
v 10 0 -10
v 2 0 17
v 2 7.5 17
v 4 0 17
v 4 7.5 17
v 4 7 1.5
v 12 0 -6
v 6 7 2
v 14 0 -6
v 6 0 17
v 6 7 17
v 6 0 17
v 6 7 17
v 16 0 25
v 6 7 17
v 8 7 17
v 16 0 25
v 8 7 8
v 16 0 0
v 10 7 8
v 18 0 0
vt -6 -7.071068
vt -8 -7.071068
vt 2 4.242641
vt 0 4.242641
vt -9.08167 -7.607981
vt -10.898 -5.439817
vt 1.270902 1.064672
vt -0.7024102 3.10133
vt -4 -7.071068
vt 4 4.242641
vt -2 -7.071068
vt 6 4.242641
vt -1.985754 -7.373712
vt 6.910423 3.249754
vt 8.935891 -9.365612
vt 7.903299 2.041786
vt 1.599225 0
vt -9.03092 -8
vt 1.599225 1.5
vt -9.03092 -6
vt -2.691212 5.137134
vt -12.8262 -3.481565
vt -4.523527 7.291809
vt -14.65852 -1.32689
vt -1.411081 4
vt -12.04123 -4
vt -1.411081 6
vt -12.04123 -2
vt -1.411081 8
vt -12.04123 0
vt -2.916235 8
vt -13.54638 0
vt -2.916235 10
vt -13.54638 2
vt -2.916235 12
vt -13.54638 20
vt -5.813776 7.963964
vt -16.09969 16.40197
vt -4.472136 10.07347
vt -14.31083 18.58258
vt -2.314269 12.81715
vt -12.53993 20.85989
vt -1.922395 15.83318
vt -12.53993 23.84395
vt 10.95673 16.5
vt 8.720665 16.5
vt 10.95673 17
vt 8.720665 17
vt 2.3862 2.517122
vt -7.63584 -7.05151
vt 0.2908181 2.517122
vt -9.5448 -6.724225
vt 2 0
vt 2 7.5
vt 4 0
vt 4 7.5
vt -2.665676 5.679335
vt -11.80144 -3.582838
vt -4.632582 6.296813
vt -13.76834 -3.370232
vt 6 0
vt 6 7
vt 15.30503 0
vt 15.30503 7
vt 28.11128 0
vt 15.30503 7
vt 16.86677 7
vt 28.11128 0
vt -8 10.63015
vt -16 0
vt -10 10.63015
vt -18 0
vn 0 0.7071068 -0.7071068
vn 0 0.7071068 -0.7071068
vn 0 0.7071068 -0.7071068
vn 0 0.7071068 -0.7071068
vn 0.3861409 0.8377293 -0.3861409
vn 0.4175332 0.8413829 -0.3383111
vn 0.4175332 0.8413829 -0.3383111
vn 0.4489256 0.8450364 -0.2904813
vn 0 0.7071068 -0.7071068
vn 0 0.7071068 -0.7071068
vn 0 0.7071068 -0.7071068
vn 0 0.7071068 -0.7071068
vn 0.08972229 0.7476857 -0.6579635
vn 0.4379342 0.5376233 -0.5910305
vn 0.4379342 0.5376233 -0.5910305
vn 0.7861462 0.3275609 -0.5240974
vn 0.6585046 0.7525767 0
vn 0.6585046 0.7525767 0
vn 0.6585046 0.7525767 0
vn 0.6585046 0.7525767 0
vn 0.3720458 0.8503904 -0.3720458
vn 0.3720458 0.8503904 -0.3720458
vn 0.3720458 0.8503904 -0.3720458
vn 0.3720458 0.8503904 -0.3720458
vn 0.6585046 0.7525767 0
vn 0.6585046 0.7525767 0
vn 0.6585046 0.7525767 0
vn 0.6585046 0.7525767 0
vn 0.6585046 0.7525767 0
vn 0.6585046 0.7525767 0
vn 0.6585046 0.7525767 0
vn 0.6585046 0.7525767 0
vn 0.6585046 0.7525767 0
vn 0.6585046 0.7525767 0
vn 0.6585046 0.7525767 0
vn 0.6585046 0.7525767 0
vn 0.4239992 0.8479983 0.3179994
vn 0.4023041 0.8453878 0.3493043
vn 0.4023041 0.8453878 0.3493043
vn 0.3806091 0.8427773 0.3806091
vn 0.6177807 0.7795804 0.1029634
vn 0.6381426 0.7660786 0.05148172
vn 0.6381426 0.7660786 0.05148172
vn 0.6585046 0.7525767 0
vn 0.4472136 0.8944272 0
vn 0.4472136 0.8944272 0
vn 0.4472136 0.8944272 0
vn 0.4472136 0.8944272 0
vn 0.2493773 0.7980075 -0.5486302
vn 0.1246887 0.7666256 -0.6132165
vn 0.1246887 0.7666256 -0.6132165
vn 0 0.7352437 -0.6778028
vn 0 0 1
vn 0 0 1
vn 0 0 1
vn 0 0 1
vn 0.1466954 0.7963465 -0.5867817
vn 0.07334771 0.7744616 -0.6226431
vn 0.07334771 0.7744616 -0.6226431
vn 0 0.7525767 -0.6585046
vn 0 0 1
vn 0 0 1
vn -0.6246951 0 0.7808688
vn -0.3123475 0.3762884 0.7196867
vn -0.3123475 0.3762884 0.7196867
vn -0.3123475 0.3762884 0.7196867
vn 0 0.7525767 0.6585046
vn -0.3123475 0.3762884 0.7196867
vn 0 0.7525767 -0.6585046
vn 0 0.7525767 -0.6585046
vn 0 0.7525767 -0.6585046
vn 0 0.7525767 -0.6585046
g pb_Mesh238800_0
f 3/3/3 2/2/2 1/1/1
f 3/3/3 4/4/4 2/2/2
f 7/7/7 6/6/6 5/5/5
f 7/7/7 8/8/8 6/6/6
f 9/9/9 3/3/3 1/1/1
f 9/9/9 10/10/10 3/3/3
f 11/11/11 10/10/10 9/9/9
f 11/11/11 12/12/12 10/10/10
f 15/15/15 14/14/14 13/13/13
f 15/15/15 16/16/16 14/14/14
f 19/19/19 18/18/18 17/17/17
f 19/19/19 20/20/20 18/18/18
f 23/23/23 22/22/22 21/21/21
f 23/23/23 24/24/24 22/22/22
f 27/27/27 26/26/26 25/25/25
f 27/27/27 28/28/28 26/26/26
f 29/29/29 28/28/28 27/27/27
f 29/29/29 30/30/30 28/28/28
f 33/33/33 32/32/32 31/31/31
f 33/33/33 34/34/34 32/32/32
f 35/35/35 34/34/34 33/33/33
f 35/35/35 36/36/36 34/34/34
f 39/39/39 38/38/38 37/37/37
f 39/39/39 40/40/40 38/38/38
f 43/43/43 42/42/42 41/41/41
f 43/43/43 44/44/44 42/42/42
f 47/47/47 46/46/46 45/45/45
f 47/47/47 48/48/48 46/46/46
f 51/51/51 50/50/50 49/49/49
f 51/51/51 52/52/52 50/50/50
f 55/55/55 54/54/54 53/53/53
f 55/55/55 56/56/56 54/54/54
f 59/59/59 58/58/58 57/57/57
f 59/59/59 60/60/60 58/58/58
f 61/61/61 56/56/56 55/55/55
f 61/61/61 62/62/62 56/56/56
f 65/65/65 64/64/64 63/63/63
f 68/68/68 67/67/67 66/66/66
f 71/71/71 70/70/70 69/69/69
f 71/71/71 72/72/72 70/70/70
