g pb_Mesh205458
v 0 0 0
v 0 0 4
v -4 0 0
v -4 3 4
v 0 0 4
v 0 0 8
v -4 3 4
v -4 3 8
v 0 0 12
v -4 3 8
v -4 2 12
v 0 0 12
v 0 0 16
v -4 2 12
v -4 0 16
v -4 0 0
v -4 3 4
v -8 1 0
v -8 3 4
v -4 3 4
v -4 3 8
v -8 3 4
v -8 4 8
v -4 3 8
v -4 2 12
v -8 4 8
v -8 3 12
v -4 2 12
v -4 0 16
v -8 3 12
v -8 0 16
v -8 1 0
v -8 3 4
v -12 0 0
v -12 5 4
v -8 3 4
v -8 4 8
v -12 5 4
v -12 4 8
v -8 4 8
v -8 3 12
v -12 4 8
v -12 2 12
v -8 3 12
v -8 0 16
v -12 2 12
v -12 0 16
v -12 0 0
v -12 5 4
v -16 0 0
v -16 0 4
v -12 5 4
v -12 4 8
v -16 0 4
v -16 0 8
v -12 4 8
v -12 2 12
v -16 0 8
v -16 0 12
v -12 2 12
v -12 0 16
v -16 0 12
v -16 0 16
vt 0 0
vt 0 4
vt 4 0
vt 4 4
vt 0 4
vt 0 8
vt 5 4
vt 5 8
vt 0 12
vt 5 8
vt 4.4 12
vt 0 12
vt 0 16
vt 4.472136 12
vt 3.577709 16
vt 3.88057 -0.5707818
vt 4.608177 4.375994
vt 8.003676 -0.5707818
vt 8.488748 3.805212
vt 4 4
vt 4 8
vt 8 4
vt 8 8
vt 4.608177 7.317273
vt 4.365642 11.43324
vt 8.731283 7.317273
vt 8.488748 11.43324
vt 4.365641 10.37342
vt 3.88057 14.81917
vt 8.488747 10.37342
vt 7.76114 15.24258
vt 7.518604 1.270215
vt 7.033533 5.715966
vt 11.64171 1.270215
vt 10.42903 6.986181
vt 8.497058 3.708421
vt 8.944272 7.807201
vt 12.96919 3.708421
vt 12.52198 7.416841
vt 8 6.790998
vt 8 10.9141
vt 12 6.790998
vt 12 11.15664
vt 7.033534 6.849382
vt 7.76114 11.79616
vt 11.15664 6.849382
vt 11.64171 11.22538
vt 12 0
vt 12 6.403124
vt 16 0
vt 16 2.49878
vt 1.568929 -3.812934
vt 5.491252 -5.083911
vt 0.7844644 -10.16782
vt 4.706787 -10.652
vt 5.656855 3.771236
vt 7.071068 8.013877
vt 11.31371 3.771236
vt 11.31371 7.542472
vt 9.838699 8.033264
vt 10.73313 12.41504
vt 14.31083 8.033264
vt 14.31083 11.68475
vn 0 1 0
vn 0.4581862 0.8781574 -0.1374951
vn 0.2399725 0.8614402 -0.4475869
vn 0.3288671 0.9019211 -0.2799726
vn 0.4581862 0.8781574 -0.1374951
vn 0.6 0.8 0
vn 0.3288671 0.9019211 -0.2799726
vn 0.3822495 0.9221771 0.05894623
vn 0.4863867 0.8720129 0.05496934
vn 0.3822495 0.9221771 0.05894623
vn 0.2846082 0.9154214 0.2846082
vn 0.4863867 0.8720129 0.05496934
vn 0.2357023 0.942809 0.2357023
vn 0.2846082 0.9154214 0.2846082
vn 0.05496934 0.8720129 0.4863867
vn 0.2399725 0.8614402 -0.4475869
vn 0.3288671 0.9019211 -0.2799726
vn -0.06118353 0.8718857 -0.4858725
vn 0.1571165 0.9183184 -0.363326
vn 0.3288671 0.9019211 -0.2799726
vn 0.3822495 0.9221771 0.05894623
vn 0.1571165 0.9183184 -0.363326
vn 0.1792092 0.9815821 0.06618635
vn 0.3822495 0.9221771 0.05894623
vn 0.2846082 0.9154214 0.2846082
vn 0.1792092 0.9815821 0.06618635
vn 0.01022907 0.9005818 0.4345662
vn 0.2846082 0.9154214 0.2846082
vn 0.05496934 0.8720129 0.4863867
vn 0.01022907 0.9005818 0.4345662
vn -0.04935816 0.8252257 0.5626423
vn -0.06118353 0.8718857 -0.4858725
vn 0.1571165 0.9183184 -0.363326
vn 0.02068901 0.7037145 -0.7101815
vn -0.2155285 0.9213175 -0.3236072
vn 0.1571165 0.9183184 -0.363326
vn 0.1792092 0.9815821 0.06618635
vn -0.2155285 0.9213175 -0.3236072
vn -0.4100522 0.8716087 0.2686178
vn 0.1792092 0.9815821 0.06618635
vn 0.01022907 0.9005818 0.4345662
vn -0.4100522 0.8716087 0.2686178
vn -0.3316223 0.8564091 0.3957146
vn 0.01022907 0.9005818 0.4345662
vn -0.04935816 0.8252257 0.5626423
vn -0.3316223 0.8564091 0.3957146
vn -0.1058969 0.9352037 0.3379052
vn 0.02068901 0.7037145 -0.7101815
vn -0.2155285 0.9213175 -0.3236072
vn -0.4682929 0.7492687 -0.4682929
vn -0.7626784 0.6456186 0.0387072
vn -0.2155285 0.9213175 -0.3236072
vn -0.4100522 0.8716087 0.2686178
vn -0.7626784 0.6456186 0.0387072
vn -0.645165 0.7592931 0.08506607
vn -0.4100522 0.8716087 0.2686178
vn -0.3316223 0.8564091 0.3957146
vn -0.645165 0.7592931 0.08506607
vn -0.3379052 0.9352037 0.1058969
vn -0.3316223 0.8564091 0.3957146
vn -0.1058969 0.9352037 0.3379052
vn -0.3379052 0.9352037 0.1058969
vn 0 1 0
g pb_Mesh205458_0
f 3/3/3 2/2/2 1/1/1
f 3/3/3 4/4/4 2/2/2
f 7/7/7 6/6/6 5/5/5
f 7/7/7 8/8/8 6/6/6
f 10/10/10 9/9/9 6/6/6
f 10/10/10 11/11/11 9/9/9
f 14/14/14 13/13/13 12/12/12
f 14/14/14 15/15/15 13/13/13
f 18/18/18 17/17/17 16/16/16
f 18/18/18 19/19/19 17/17/17
f 22/22/22 21/21/21 20/20/20
f 22/22/22 23/23/23 21/21/21
f 26/26/26 25/25/25 24/24/24
f 26/26/26 27/27/27 25/25/25
f 30/30/30 29/29/29 28/28/28
f 30/30/30 31/31/31 29/29/29
f 34/34/34 33/33/33 32/32/32
f 34/34/34 35/35/35 33/33/33
f 38/38/38 37/37/37 36/36/36
f 38/38/38 39/39/39 37/37/37
f 42/42/42 41/41/41 40/40/40
f 42/42/42 43/43/43 41/41/41
f 46/46/46 45/45/45 44/44/44
f 46/46/46 47/47/47 45/45/45
f 50/50/50 49/49/49 48/48/48
f 50/50/50 51/51/51 49/49/49
f 54/54/54 53/53/53 52/52/52
f 54/54/54 55/55/55 53/53/53
f 58/58/58 57/57/57 56/56/56
f 58/58/58 59/59/59 57/57/57
f 62/62/62 61/61/61 60/60/60
f 62/62/62 63/63/63 61/61/61
