g pb_Mesh357312
v -2 0 -4
v 0 0 -4
v -2 2 -4
v 0 2 -4
v 0 0 -4
v 0 0 0
v 0 2 -4
v 0 2 0
v 0 0 -4
v -2 0 -4
v 0 0 0
v -2 0 0
v 0 2 0
v 0 0 0
v -1.5 2 0
v -2 0 0
v -2 1.5 0
v -2 1.5 0
v -2 2 -0.5
v -1.5 2 0
v -2 1.5 0
v -2 0 0
v -2 0 -4
v -2 2 -4
v -2 2 -0.5
v -2 2 -0.5
v -2 2 -4
v -1.5 2 0
v 0 2 -4
v 0 2 0
vt 2 0
vt 0 0
vt 2 2
vt 0 2
vt 4 0
vt 0 0
vt 4 2
vt 0 2
vt 0 -4
vt -2 -4
vt 0 0
vt -2 0
vt 0 2
vt 0 0
vt -1.5 2
vt -2 0
vt -2 1.5
vt -1.414214 0.4082483
vt -1.767767 1.020621
vt -1.06066 1.020621
vt 0 1.5
vt 0 0
vt -4 0
vt -4 2
vt -0.5 2
vt 2 -0.5
vt 2 -4
vt 1.5 0
vt 0 -4
vt 0 0
vn 0 0 -1
vn 0 0 -1
vn 0 0 -1
vn 0 0 -1
vn 1 0 0
vn 1 0 0
vn 1 0 0
vn 1 0 0
vn 0 -1 0
vn 0 -1 0
vn 0 -1 0
vn 0 -1 0
vn 0 0 1
vn 0 0 1
vn 0 0 1
vn 0 0 1
vn 0 0 1
vn -0.5773503 0.5773503 0.5773503
vn -0.5773503 0.5773503 0.5773503
vn -0.5773503 0.5773503 0.5773503
vn -1 0 0
vn -1 0 0
vn -1 0 0
vn -1 0 0
vn -1 0 0
vn 0 1 0
vn 0 1 0
vn 0 1 0
vn 0 1 0
vn 0 1 0
g pb_Mesh357312_0
f 3/3/3 2/2/2 1/1/1
f 3/3/3 4/4/4 2/2/2
f 7/7/7 6/6/6 5/5/5
f 7/7/7 8/8/8 6/6/6
f 11/11/11 10/10/10 9/9/9
f 11/11/11 12/12/12 10/10/10
f 15/15/15 14/14/14 13/13/13
f 17/17/17 16/16/16 14/14/14
f 15/15/15 17/17/17 14/14/14
f 20/20/20 19/19/19 18/18/18
f 23/23/23 22/22/22 21/21/21
f 24/24/24 23/23/23 21/21/21
f 24/24/24 21/21/21 25/25/25
f 28/28/28 27/27/27 26/26/26
f 27/27/27 28/28/28 29/29/29
f 28/28/28 30/30/30 29/29/29
