g pb_Mesh323968
v -4 0 -4
v -2 0 -4
v -4 4 -4
v -2 4 -4
v 0.0001068115 0 -4
v 0.0001068115 0 0
v 0 4 -10
v 0.0001068115 4 0
v -8 0 -4
v -8 4 -4
v -8 0 -24.00005
v -8 4 -24.00005
v -14.00011 0 -24.0001
v -14.00011 4 -24.0001
v -8 0 -4
v -8 4 -4
v -8 0 -21
v -8 4 -21
v -36 4 -8
v -36 0 -8
v -36 4 -16
v -36 0 -16
v -2 4 -20
v -2 0 -20
v 0 4 -20
v 0 0 -20
v -2 0 0
v -2 4 0
v 0.0001068115 0 0
v 0.0001068115 4 0
v -2 4 0
v -2 4 -4
v 0.0001068115 4 0
v 0 4 -10
v -2 4 -4
v -2 0 -4
v -2 4 -20
v -2 0 -20
v 0 4 -20
v -2 4 -20
v 0 0 -20
v 0 4 -20
v -8 0 -24.00005
v -8 4 -24.00005
v -14.00011 4 -16
v -14.00011 0 -16
v -14.00011 4 -20.00005
v -14.00011 0 -24.0001
v -14.00011 4 -24.0001
v -14 4 -14
v -14.00011 4 -16
v -8 4 -21
v -8 4 -4
v -14.00011 4 -8
v -16 4 -14
v -16 4 -8
v -14.00011 0 -8
v -14 4 -4
v -14 0 -4
v -14.00011 4 -8
v -12 0 -1.75
v -12 4 0
v -12 0 0
v -12 4 -1.75
v -14 4 -4
v -4 0 0
v -4 3.5 0
v -3.75 4 0
v -4 4 -0.5
v -4 4 -4
v -3.75 4 0
v -12 0 0
v -12 4 0
v -4.25 4 0
v -12 4 -4
v -12 4 0
v -4.25 4 0
v -4 3.5 0
v -4.25 4 0
v -4 4 -0.5
v -3.75 4 0
v -4 3.5 0
v -4 4 -0.5
v -36 0 -16
v -26 0 -16
v -24 2 -16
v -36 4 -16
v -24 4 -16
v -36 4 -16
v -24 4 -16
v -24 4 -14
v -36 4 -8
v -26 4 -8
v -16 0 -16
v -16 2 -16
v -14.00011 4 -24.0001
v -8 4 -24.00005
v -14.00011 4 -20.00005
v -14.00011 4 -8
v -14.00011 0 -8
v -16 4 -8
v -25.00005 0 -8
v -26 4 -8
v -36 0 -8
v -36 4 -8
vt 4 0
vt 2 0
vt 4 4
vt 2 4
vt 4 -2.852175E-09
vt 0 -2.852175E-09
vt 10 4
vt 0 4
vt 8 0
vt 8 4
vt 8.000198 0
vt 8.000198 4
vt 14.00031 0
vt 14.00031 4
vt 4 0
vt 4 4
vt 21 0
vt 21 4
vt -8 4
vt -8 0
vt -16 4
vt -16 0
vt 2 4
vt 2 0
vt 0 4
vt 0 0
vt -2 0
vt -2 4
vt 0.0001068115 0
vt 0.0001068115 4
vt 2 0
vt 2 -4
vt -0.0001068115 0
vt 0 -10
vt -4 4
vt -4 0
vt -20 4
vt -20 0
vt 0 -20
vt 2 -20
vt 20 -2.228262E-09
vt 20 4
vt 24.00005 0
vt 24.00005 4
vt -16 4
vt -16 0
vt -20.00005 4
vt -24.0001 0
vt -24.0001 4
vt 14 -14
vt 14.00011 -16
vt 8 -21
vt 8 -4
vt 14.00011 -8
vt 16 -14
vt 16 -8
vt -8.000374 0
vt -4.000374 4
vt -4.000374 0
vt -8.000374 4
vt -1.75 0
vt 0 4
vt 0 0
vt -1.75 4
vt 14 -4
vt -4 0
vt -4 3.5
vt -3.75 4
vt 4 -0.5
vt 4 -4
vt 3.75 0
vt -12 0
vt -12 4
vt -4.25 4
vt 12 -4
vt 12 0
vt 4.25 0
vt -1.788854 4.655642
vt -1.900658 5.203364
vt -1.341641 5.203364
vt -1.677051 2.282177
vt -1.788854 1.734455
vt -2.236068 2.282177
vt 36 0
vt 26 0
vt 24 2
vt 36 4
vt 24 4
vt 36 -16
vt 24 -16
vt 24 -14
vt 36 -8
vt 26 -8
vt 16 0
vt 16 2
vt 14.00011 -24.0001
vt 8 -24.00005
vt 14.00011 -20.00005
vt -14.00011 4
vt -14.00011 0
vt -16 4
vt -25.00005 0
vt -26 4
vt -36 0
vt -36 4
vn 0 0 -1
vn 0 0 -1
vn 0 0 -1
vn 0 0 -1
vn 1 2.670288E-05 0
vn 1 1.335144E-05 -5.340576E-06
vn 1 1.335144E-05 -5.340576E-06
vn 1 0 -1.068115E-05
vn 0 0 -1
vn 0 0 -1
vn 8.26503E-06 0 -1
vn 8.26503E-06 0 -1
vn 8.26503E-06 0 -1
vn 8.26503E-06 0 -1
vn 1 0 0
vn 1 0 0
vn 1 0 0
vn 1 0 0
vn -1 0 0
vn -1 0 0
vn -1 0 0
vn -1 0 0
vn 0 0 -1
vn 0 0 -1
vn 0 0 -1
vn 0 0 -1
vn 0 0 1
vn 0 0 1
vn 0 0 1
vn 0 0 1
vn 0 1 0
vn 0 1 0
vn 0 1 0
vn 0 1 0
vn -1 0 0
vn -1 0 0
vn -1 0 0
vn -1 0 0
vn 0 1 0
vn 0 1 0
vn 1 8.34465E-06 -3.33786E-06
vn 1 0 0
vn 1 0 0
vn 1 0 0
vn -1 0 0
vn -1 0 0
vn -1 0 0
vn -1 0 0
vn -1 0 0
vn 0 1 0
vn 0 1 0
vn 0 1 0
vn 0 1 0
vn 0 1 0
vn 0 1 0
vn 0 1 0
vn -1 0 2.670288E-05
vn -1 0 2.670288E-05
vn -1 0 2.670288E-05
vn -1 0 2.670288E-05
vn -1 0 0
vn -1 0 0
vn -1 0 0
vn -1 0 0
vn 0 1 0
vn 0 0 1
vn 0 0 1
vn 0 0 1
vn 0 1 0
vn 0 1 0
vn 0 1 0
vn 0 0 1
vn 0 0 1
vn 0 0 1
vn 0 1 0
vn 0 1 0
vn 0 1 0
vn 0.8164966 0.4082483 0.4082483
vn 0.8164966 0.4082483 0.4082483
vn 0.8164966 0.4082483 0.4082483
vn -0.8164966 0.4082483 0.4082483
vn -0.8164966 0.4082483 0.4082483
vn -0.8164966 0.4082483 0.4082483
vn 0 0 -1
vn 0 0 -1
vn 0 0 -1
vn 0 0 -1
vn 0 0 -1
vn 0 1 0
vn 0 1 0
vn 0 1 0
vn 0 1 0
vn 0 1 0
vn 0 0 -1
vn 0 0 -1
vn 0 1 0
vn 0 1 0
vn 0 1 0
vn 0 0 1
vn 0 0 1
vn 0 0 1
vn 0 0 1
vn 0 0 1
vn 0 0 1
vn 0 0 1
g pb_Mesh323968_0
g pb_Mesh323968_1
f 3/3/3 2/2/2 1/1/1
f 3/3/3 4/4/4 2/2/2
f 7/7/7 6/6/6 5/5/5
f 7/7/7 8/8/8 6/6/6
f 9/9/9 3/3/3 1/1/1
f 9/9/9 10/10/10 3/3/3
f 13/13/13 12/12/12 11/11/11
f 13/13/13 14/14/14 12/12/12
f 17/17/17 16/16/16 15/15/15
f 17/17/17 18/18/18 16/16/16
f 21/21/21 20/20/20 19/19/19
f 21/21/21 22/22/22 20/20/20
f 25/25/25 24/24/24 23/23/23
f 25/25/25 26/26/26 24/24/24
f 29/29/29 28/28/28 27/27/27
f 29/29/29 30/30/30 28/28/28
f 33/33/33 32/32/32 31/31/31
f 33/33/33 34/34/34 32/32/32
f 37/37/37 36/36/36 35/35/35
f 37/37/37 38/38/38 36/36/36
f 39/39/39 32/32/32 34/34/34
f 39/39/39 40/40/40 32/32/32
f 41/41/41 7/7/7 5/5/5
f 41/41/41 42/42/42 7/7/7
f 43/43/43 18/18/18 17/17/17
f 43/43/43 44/44/44 18/18/18
f 47/47/47 46/46/46 45/45/45
f 46/46/46 47/47/47 48/48/48
f 47/47/47 49/49/49 48/48/48
f 52/52/52 51/51/51 50/50/50
f 53/53/53 52/52/52 50/50/50
f 54/54/54 53/53/53 50/50/50
f 56/56/56 50/50/50 55/55/55
f 56/56/56 54/54/54 50/50/50
f 59/59/59 58/58/58 57/57/57
f 58/58/58 60/60/60 57/57/57
f 63/63/63 62/62/62 61/61/61
f 62/62/62 64/64/64 61/61/61
f 54/54/54 65/65/65 53/53/53
f 67/67/67 66/66/66 27/27/27
f 28/28/28 67/67/67 27/27/27
f 28/28/28 68/68/68 67/67/67
f 32/32/32 70/70/70 69/69/69
f 31/31/31 32/32/32 69/69/69
f 71/71/71 31/31/31 69/69/69
f 72/72/72 66/66/66 67/67/67
f 73/73/73 72/72/72 67/67/67
f 73/73/73 67/67/67 74/74/74
f 69/69/69 70/70/70 75/75/75
f 76/76/76 69/69/69 75/75/75
f 76/76/76 77/77/77 69/69/69
f 80/80/80 79/79/79 78/78/78
f 83/83/83 82/82/82 81/81/81
f 86/86/86 85/85/85 84/84/84
f 87/87/87 86/86/86 84/84/84
f 87/87/87 88/88/88 86/86/86
f 91/91/91 90/90/90 89/89/89
f 92/92/92 91/91/91 89/89/89
f 92/92/92 93/93/93 91/91/91
f 56/56/56 55/55/55 91/91/91
f 56/56/56 91/91/91 93/93/93
f 95/95/95 94/94/94 86/86/86
f 94/94/94 85/85/85 86/86/86
f 97/97/97 96/96/96 52/52/52
f 52/52/52 96/96/96 98/98/98
f 52/52/52 98/98/98 51/51/51
f 101/101/101 100/100/100 99/99/99
f 101/101/101 102/102/102 100/100/100
f 103/103/103 102/102/102 101/101/101
f 102/102/102 103/103/103 104/104/104
f 103/103/103 105/105/105 104/104/104
