g pb_Mesh434092
v -17 0 -8
v -15 0 -10
v -8.5 7.875 0.125
v -6.5 8 -2
v -10 0 -12
v -8 0 -12
v -2 8 -4
v 0 8 -4
v 16 0 6
v 16 0 8
v 8 8.625 -2
v 8.5 8 0
v 8.5 8 0
v 16 0 8
v 8 8 2
v 16 0 10
v -2 0 0
v -2 7.875 0.125
v -2 0 2
v -2 7.875 2
v 8 8 2
v 16 0 10
v 6 8 4
v 14 0 12
v -2 0 4
v -2 7.875 4
v 4 8 4
v 12 0 12
v 2 8 6
v 10 0 14
v -2 0 6
v -2 7.875 6
v 0 8 6
v 8 0 14
v 0 8.375 8
v 8 0 16
v -2 0 8
v -2 7.875 8
v 0 8.375 8
v 8 0 16
v -2 7.875 10
v 6 0 18
v -2 0 8
v -2 7.875 8
v 6 0 18
v -2 7.875 10
v -2 7.875 0.125
v -2 0 0
v -4 7.875 0.125
v -4 0 0
v -10 0 -10
v -2 8.5 -2
v -12 0 -10
v -4 8.5 -2
v -4 0 0
v -8.5 7.875 0.125
v -17 0 -8
v -4 8.5 -2
v -15 0 -10
v -6.5 8 -2
v 8 0 14
v 0 8 6
v 10 0 14
v 2 8 6
v 2 8 -6
v -6 0 -14
v 4 8 -6
v 12 0 -14
v -2 8.5 -2
v -10 0 -10
v -2 8 -4
v -10 0 -12
v 8 8.625 -2
v 16 0 -12
v 8 8.625 -3.5
v 0 8 -4
v -8 0 -12
v 2 8 -6
v -6 0 -14
v 14 0 -12
v 6 8 -4
v 12 0 -14
v 4 8 -6
v 12 0 12
v 4 8 4
v 14 0 12
v 6 8 4
v 6 8 -4
v 14 0 -12
v 8 8.625 -3.5
v 16 0 -12
vt 15.36354 -4.490458
vt 13.55607 -6.666011
vt 4.310592 4.347727
vt 2.449605 2.101718
vt 10 -8.485282
vt 8 -8.485282
vt 2 2.828427
vt 0 2.828427
vt -6 -10.8807
vt -8 -10.8807
vt 2 0.8832593
vt 0 0.08500516
vt -1.348659 -1.843351
vt -12.23858 6.259713
vt -0.9662032 0.1824149
vt -12.23858 8.234275
vt 0 0
vt 0.125 7.875
vt 2 0
vt 2 7.875
vt -3.577709 -2.556039
vt -14.31083 6.207522
vt -1.788854 -0.3651486
vt -12.52198 8.398413
vt 4 0
vt 4 7.875
vt 0 -1.788139E-07
vt -10.73313 8.763561
vt 1.788854 2.19089
vt -8.944272 10.95445
vt 6 0
vt 6 7.875
vt -5.926578 6.748822
vt -15.07638 -3.656997
vt -7.902104 7.236595
vt -17.05191 -3.457525
vt 8 0
vt 8 7.875
vt 3.099914 2.838188
vt -7.431811 12.17754
vt 4.772798 5.173025
vt -5.573858 14.2727
vt 4.997561 0
vt 4.997561 7.875
vt 17.80381 0
vt 6.559298 7.875
vt -2 7.875992
vt -2 0
vt -4 7.875992
vt -4 0
vt 10 -6.853647
vt 2 4.818971
vt 12 -6.853647
vt 4 4.818971
vt -4 0
vt -8.5 7.875992
vt -17 -0.1269681
vt 4 4.81897
vt 15 -6.853647
vt 6.5 4.45487
vt 8 -9.899496
vt 0 1.414214
vt 10 -9.899496
vt 2 1.414214
vt -2 1.414214
vt 6 -9.899496
vt -4 1.414214
vt -12 -9.899496
vt -3.80781 -0.4665923
vt 7.76114 -8.615789
vt -3.492513 -2.503891
vt 7.76114 -10.57917
vt 2 0.8832593
vt 12 -10.8807
vt 3.5 0.8832593
vt -3.577709 -0.7302966
vt 7.155417 -9.493857
vt -5.366563 -2.921187
vt 5.366563 -11.68475
vt -12.52198 -8.398413
vt -1.788854 0.3651486
vt -10.73313 -10.5893
vt 0 -1.825742
vt 12 -8.485282
vt 4 2.828427
vt 14 -8.485282
vt 6 2.828427
vt -6.18347 3.239066
vt -14.55494 -7.802608
vt -8.157423 4.101696
vt -16.55267 -7.73704
vn -0.3935425 0.830812 -0.3935425
vn -0.4145809 0.8275805 -0.377523
vn -0.4145809 0.8275805 -0.377523
vn -0.4356193 0.8243489 -0.3615035
vn 0 0.7071068 -0.7071068
vn 0 0.7071068 -0.7071068
vn 0 0.7071068 -0.7071068
vn 0 0.7071068 -0.7071068
vn 0.7331718 0.6800435 0
vn 0.7197945 0.6932304 0.02207554
vn 0.7197945 0.6932304 0.02207554
vn 0.7064173 0.7064173 0.04415108
vn 0.6359429 0.7551822 0.1589857
vn 0.6715249 0.7311445 0.07949287
vn 0.6715249 0.7311445 0.07949287
vn 0.7071068 0.7071068 0
vn -1 0 0
vn -1 0 0
vn -1 0 0
vn -1 0 0
vn 0.4082483 0.8164966 0.4082483
vn 0.4082483 0.8164966 0.4082483
vn 0.4082483 0.8164966 0.4082483
vn 0.4082483 0.8164966 0.4082483
vn -1 0 0
vn -1 0 0
vn 0.4082483 0.8164966 0.4082483
vn 0.4082483 0.8164966 0.4082483
vn 0.4082483 0.8164966 0.4082483
vn 0.4082483 0.8164966 0.4082483
vn -1 0 0
vn -1 0 0
vn 0.7593927 0.6394886 -0.1199041
vn 0.7412516 0.6651105 -0.05995206
vn 0.7412516 0.6651105 -0.05995206
vn 0.7231105 0.6907324 0
vn -1 0 0
vn -1 0 0
vn 0.3170578 0.7957528 0.515996
vn 0.3605101 0.8082509 0.4599792
vn 0.3605101 0.8082509 0.4599792
vn 0.4039624 0.8207489 0.4039624
vn -0.7808688 0 0.6246951
vn -0.7411931 -0.3563262 0.3123475
vn -0.7411931 -0.3563262 0.3123475
vn -0.7015173 -0.7126524 0
vn 0 -0.01587102 0.9998741
vn 0 -0.01587102 0.9998741
vn 0 -0.01587102 0.9998741
vn 0 -0.01587102 0.9998741
vn 0 0.6853647 -0.7282
vn 0 0.6853647 -0.7282
vn 0 0.6853647 -0.7282
vn 0 0.6853647 -0.7282
vn -0.2500844 -0.1572915 0.9063243
vn -0.2500844 -0.1572915 0.9063243
vn -0.5001689 -0.298712 0.8127744
vn -0.07761139 0.7307394 -0.6696949
vn -0.07761139 0.7307394 -0.6696949
vn -0.1552228 0.776114 -0.6111898
vn 0 0.7071068 0.7071068
vn 0 0.7071068 0.7071068
vn 0 0.7071068 0.7071068
vn 0 0.7071068 0.7071068
vn 0 0.7071068 -0.7071068
vn 0 0.7071068 -0.7071068
vn 0 0.7071068 -0.7071068
vn 0 0.7071068 -0.7071068
vn -0.6190476 0.7619048 -0.1904762
vn -0.6630772 0.7345058 -0.0952381
vn -0.6630772 0.7345058 -0.0952381
vn -0.7071068 0.7071068 0
vn 0.7331718 0.6800435 0
vn 0.7331718 0.6800435 0
vn 0.7331718 0.6800435 0
vn -0.4082483 0.8164966 -0.4082483
vn -0.4082483 0.8164966 -0.4082483
vn -0.4082483 0.8164966 -0.4082483
vn -0.4082483 0.8164966 -0.4082483
vn 0.4082483 0.8164966 -0.4082483
vn 0.4082483 0.8164966 -0.4082483
vn 0.4082483 0.8164966 -0.4082483
vn 0.4082483 0.8164966 -0.4082483
vn 0 0.7071068 0.7071068
vn 0 0.7071068 0.7071068
vn 0 0.7071068 0.7071068
vn 0 0.7071068 0.7071068
vn -0.03446228 0.6892455 -0.7237078
vn -0.01723114 0.6955861 -0.7179785
vn -0.01723114 0.6955861 -0.7179785
vn 0 0.7019267 -0.7122492
g pb_Mesh434092_0
f 3/3/3 2/2/2 1/1/1
f 3/3/3 4/4/4 2/2/2
f 7/7/7 6/6/6 5/5/5
f 7/7/7 8/8/8 6/6/6
f 11/11/11 10/10/10 9/9/9
f 11/11/11 12/12/12 10/10/10
f 15/15/15 14/14/14 13/13/13
f 15/15/15 16/16/16 14/14/14
f 19/19/19 18/18/18 17/17/17
f 19/19/19 20/20/20 18/18/18
f 23/23/23 22/22/22 21/21/21
f 23/23/23 24/24/24 22/22/22
f 25/25/25 20/20/20 19/19/19
f 25/25/25 26/26/26 20/20/20
f 29/29/29 28/28/28 27/27/27
f 29/29/29 30/30/30 28/28/28
f 31/31/31 26/26/26 25/25/25
f 31/31/31 32/32/32 26/26/26
f 35/35/35 34/34/34 33/33/33
f 35/35/35 36/36/36 34/34/34
f 37/37/37 32/32/32 31/31/31
f 37/37/37 38/38/38 32/32/32
f 41/41/41 40/40/40 39/39/39
f 41/41/41 42/42/42 40/40/40
f 45/45/45 44/44/44 43/43/43
f 45/45/45 46/46/46 44/44/44
f 49/49/49 48/48/48 47/47/47
f 49/49/49 50/50/50 48/48/48
f 53/53/53 52/52/52 51/51/51
f 53/53/53 54/54/54 52/52/52
f 56/56/56 55/55/55 49/49/49
f 56/56/56 57/57/57 55/55/55
f 59/59/59 58/58/58 53/53/53
f 59/59/59 60/60/60 58/58/58
f 63/63/63 62/62/62 61/61/61
f 63/63/63 64/64/64 62/62/62
f 67/67/67 66/66/66 65/65/65
f 67/67/67 68/68/68 66/66/66
f 71/71/71 70/70/70 69/69/69
f 71/71/71 72/72/72 70/70/70
f 74/74/74 73/73/73 9/9/9
f 74/74/74 75/75/75 73/73/73
f 78/78/78 77/77/77 76/76/76
f 78/78/78 79/79/79 77/77/77
f 82/82/82 81/81/81 80/80/80
f 82/82/82 83/83/83 81/81/81
f 86/86/86 85/85/85 84/84/84
f 86/86/86 87/87/87 85/85/85
f 90/90/90 89/89/89 88/88/88
f 90/90/90 91/91/91 89/89/89
