g pb_Mesh411902
v 15 0 10.00007
v 15 0 14.00007
v 15 4 10.00007
v 15 4 14.00007
v -4 0 0
v -4 0 -4
v -4 4 0
v -4 4 -4
v -4 0 -4
v 0 0 -4
v -4 4 -4
v 0 4 -4
v 0 0 -4
v 0 0 0
v 0 4 -4
v 0 4 0
v 0 4 0
v -4 4 0
v 0 4 -4
v -4 4 -4
v 0 0 -4
v -4 0 -4
v 0 0 0
v -4 0 0
v 0 0 10
v -4 0 14
v 0 4 10
v 0 0 10
v -4 0 14
v -4 4 14
v -4 4 14
v 0 4 10
v 12 0 10.00007
v 12 0 14.00007
v 0 4 10
v 0 0 10
v 12 4 10.00007
v 12 0 10.00007
v -4 0 14
v -4 4 14
v 12 0 14.00007
v 12 4 14.00007
v 12 4 14.00007
v 12 4 10.00007
v 12 -11 10.00007
v 12 -11 14.00007
v 15 -11 10.00007
v 15 -11 14.00007
v 15 4 10.00007
v 15 0 10.00007
v 15 0 14.00007
v 15 4 14.00007
v 15 4 14.00007
v 15 4 10.00007
v 12 0 10.00007
v 12 0 14.00007
v 12 -11 10.00007
v 12 -11 14.00007
v 15 -11 10.00007
v 12 -11 10.00007
v 12 -11 14.00007
v 15 -11 14.00007
v 15 -11 14.00007
v 15 -11 10.00007
vt -10.00007 0
vt -14.00007 0
vt -10.00007 4
vt -14.00007 4
vt 0 0
vt -4 0
vt 0 4
vt -4 4
vt 4 0
vt 0 0
vt 4 4
vt 0 4
vt 4 0
vt 0 0
vt 4 4
vt 0 4
vt 0 0
vt 4 0
vt 0 -4
vt 4 -4
vt 0 -4
vt -4 -4
vt 0 0
vt -4 0
vt 0 10
vt -4 14
vt -10 4
vt -10 0
vt 14 0
vt 14 4
vt 4 14
vt 0 10
vt 12 10.00007
vt 12 14.00007
vt -5.722046E-05 4
vt -5.722046E-05 0
vt -12.00006 4
vt -12.00006 0
vt -3.99994 0
vt -3.99994 4
vt 12.00006 0
vt 12.00006 4
vt -12 14.00007
vt -12 10.00007
vt 12 10.00007
vt 12 14.00007
vt 15 10.00007
vt 15 14.00007
vt -15 4
vt -15 0
vt 15 0
vt 15 4
vt -15 14.00007
vt -15 10.00007
vt 10.00007 0
vt 14.00007 0
vt 10.00007 -11
vt 14.00007 -11
vt -15 -11
vt -12 -11
vt 12 -11
vt 15 -11
vt -14.00007 -11
vt -10.00007 -11
vn 1 0 0
vn 1 0 0
vn 1 0 0
vn 1 0 0
vn -1 0 0
vn -1 0 0
vn -1 0 0
vn -1 0 0
vn 0 0 -1
vn 0 0 -1
vn 0 0 -1
vn 0 0 -1
vn 1 0 0
vn 1 0 0
vn 1 0 0
vn 1 0 0
vn 0 1 0
vn 0 1 0
vn 0 1 0
vn 0 1 0
vn 0 -1 0
vn 0 -1 0
vn 0 -1 0
vn 0 -1 0
vn 0 -1 0
vn 0 -1 0
vn 1 0 0
vn 1 0 0
vn -1 0 0
vn -1 0 0
vn 0 1 0
vn 0 1 0
vn 0 -1 0
vn 0 -1 0
vn 5.722046E-06 0 -1
vn 5.722046E-06 0 -1
vn 5.722046E-06 0 -1
vn 5.722046E-06 0 -1
vn -4.291534E-06 0 1
vn -4.291534E-06 0 1
vn -4.291534E-06 0 1
vn -4.291534E-06 0 1
vn 0 1 0
vn 0 1 0
vn 0 -1 0
vn 0 -1 0
vn 0 -1 0
vn 0 -1 0
vn 0 0 -1
vn 0 0 -1
vn 0 0 1
vn 0 0 1
vn 0 1 0
vn 0 1 0
vn -1 0 0
vn -1 0 0
vn -1 0 0
vn -1 0 0
vn 0 0 -1
vn 0 0 -1
vn 0 0 1
vn 0 0 1
vn 1 0 0
vn 1 0 0
g pb_Mesh411902_0
g pb_Mesh411902_1
f 3/3/3 2/2/2 1/1/1
f 3/3/3 4/4/4 2/2/2
f 7/7/7 6/6/6 5/5/5
f 7/7/7 8/8/8 6/6/6
f 11/11/11 10/10/10 9/9/9
f 11/11/11 12/12/12 10/10/10
f 15/15/15 14/14/14 13/13/13
f 15/15/15 16/16/16 14/14/14
f 19/19/19 18/18/18 17/17/17
f 19/19/19 20/20/20 18/18/18
f 23/23/23 22/22/22 21/21/21
f 23/23/23 24/24/24 22/22/22
f 25/25/25 24/24/24 23/23/23
f 25/25/25 26/26/26 24/24/24
f 27/27/27 14/14/14 16/16/16
f 27/27/27 28/28/28 14/14/14
f 29/29/29 7/7/7 5/5/5
f 29/29/29 30/30/30 7/7/7
f 31/31/31 17/17/17 18/18/18
f 31/31/31 32/32/32 17/17/17
f 33/33/33 26/26/26 25/25/25
f 33/33/33 34/34/34 26/26/26
f 37/37/37 36/36/36 35/35/35
f 37/37/37 38/38/38 36/36/36
f 41/41/41 40/40/40 39/39/39
f 41/41/41 42/42/42 40/40/40
f 43/43/43 32/32/32 31/31/31
f 43/43/43 44/44/44 32/32/32
f 47/47/47 46/46/46 45/45/45
f 47/47/47 48/48/48 46/46/46
f 49/49/49 38/38/38 37/37/37
f 49/49/49 50/50/50 38/38/38
f 51/51/51 42/42/42 41/41/41
f 51/51/51 52/52/52 42/42/42
f 53/53/53 44/44/44 43/43/43
f 53/53/53 54/54/54 44/44/44
f 57/57/57 56/56/56 55/55/55
f 57/57/57 58/58/58 56/56/56
f 59/59/59 38/38/38 50/50/50
f 59/59/59 60/60/60 38/38/38
f 61/61/61 51/51/51 41/41/41
f 61/61/61 62/62/62 51/51/51
f 63/63/63 1/1/1 2/2/2
f 63/63/63 64/64/64 1/1/1
