g pb_Mesh571318
v 7.99999 4 -4.768372E-06
v 7.99999 2 -4.768372E-06
v 7.152557E-07 2 -2.384186E-07
v 3.576279E-07 4 -1.192093E-07
v 7.99999 2 -4.768372E-06
v 4.768372E-07 2 -4
v 7.152557E-07 2 -2.384186E-07
v 7.99999 2 -4.000005
v 7.152557E-07 2 -2.384186E-07
v 2.384186E-07 4 -4
v 3.576279E-07 4 -1.192093E-07
v 4.768372E-07 2 -4
v 4.768372E-07 2 -4
v 7.99999 2 -4.000005
v 7.99999 4 -4.000005
v 2.384186E-07 4 -4
v 2.384186E-07 4 -4
v 7.99999 4 -4.000005
v 3.576279E-07 4 -1.192093E-07
v 7.99999 4 -4.768372E-06
v 7.99999 2 -4.000005
v 7.99999 2 -4.768372E-06
v 7.99999 4 -4.000005
v 7.99999 4 -4.768372E-06
vt 7.99999 4
vt 7.99999 2
vt 7.152559E-07 2
vt 3.576279E-07 4
vt 7.99999 -4.768372E-06
vt 4.768372E-07 -4
vt 7.152557E-07 -2.384186E-07
vt 7.99999 -4.000005
vt -2.384186E-07 2
vt -4 4
vt -1.192093E-07 4
vt -4 2
vt -2.861026E-06 2
vt -7.999992 2
vt -7.999992 4
vt -2.622608E-06 4
vt -2.384186E-07 -4
vt -7.99999 -4.000005
vt -3.576279E-07 -1.192093E-07
vt -7.99999 -4.768372E-06
vt 4.000004 2
vt 3.814699E-06 2
vt 4.000004 4
vt 3.814699E-06 4
vn 5.662449E-07 0 1
vn 5.662449E-07 0 1
vn 5.662449E-07 0 1
vn 5.81146E-07 -5.960464E-08 1
vn 0 -1 0
vn 0 -1 0
vn 0 -1 0
vn 0 -1 0
vn -1 -1.490116E-07 4.470349E-08
vn -1 -1.490116E-07 4.470349E-08
vn -1 -1.788139E-07 2.980232E-08
vn -1 -1.192093E-07 5.960465E-08
vn -5.960472E-07 0 -1
vn -5.960472E-07 0 -1
vn -5.960472E-07 0 -1
vn -5.960472E-07 -7.105437E-14 -1
vn 0 1 0
vn 0 1 0
vn 0 1 0
vn 0 1 0
vn 1 0 -1.192093E-07
vn 1 0 -1.192093E-07
vn 1 0 -1.192093E-07
vn 1 0 -1.192093E-07
g pb_Mesh571318_0
f 3/3/3 2/2/2 1/1/1
f 4/4/4 3/3/3 1/1/1
f 7/7/7 6/6/6 5/5/5
f 6/6/6 8/8/8 5/5/5
f 11/11/11 10/10/10 9/9/9
f 10/10/10 12/12/12 9/9/9
f 15/15/15 14/14/14 13/13/13
f 15/15/15 13/13/13 16/16/16
f 19/19/19 18/18/18 17/17/17
f 19/19/19 20/20/20 18/18/18
f 23/23/23 22/22/22 21/21/21
f 23/23/23 24/24/24 22/22/22
