g pb_Mesh247254
v 2 4 -2
v -6 4 -2
v 2.000001 4 -8.000001
v -6 4 -8
v 2.000015 -9 -1.579523E-06
v -5.999985 -9 -1.102686E-06
v -6 2 0.0001066923
v 2 2 0.0001062155
v -6 4 0.0001066923
v 2 4 0.0001062155
v -5.999986 -9 -2.000001
v -5.999986 -9 -8.000001
v -6 2 -8
v -6 2 -2
v -6 2 -2
v -6 2 -8
v -6 4 -8
v -6 4 -2
v -6 2 -8
v 2.000014 -9 -8.000002
v 2.000001 2 -8.000001
v -5.999986 -9 -8.000001
v -6 4 -15.00011
v 2.000001 2 -15.00011
v 2.000001 4 -15.00011
v -6 2 -15.00011
v 2.000001 2 -8.000001
v 2.000015 -9 -2.000002
v 2 2 -2
v 2.000014 -9 -8.000002
v 2.000001 4 -8.000001
v 2 2 -2
v 2 4 -2
v 2.000001 2 -8.000001
v 2.000001 2 -15.00011
v 2.000001 4 -15.00011
v 2.000001 4 -15.00011
v -6 4 -15.00011
v -6 4 -15.00011
v -6 2 -15.00011
v -6 2 -8
v 2.000001 2 -8.000001
v -6 2 -15.00011
v 2.000001 2 -15.00011
v 2 2 0.0001062155
v 2.000015 -9 -1.579523E-06
v -6 4 -2
v -6 2 0.0001066923
v -6 4 0.0001066923
v 2 4 0.0001062155
v 2 2 0.0001062155
v -6 6.0001 -2
v 2 6.0001 -2
v -6 6.0001 0.0001066923
v 2 6.0001 0.0001062155
v -5.999985 -9 -1.102686E-06
v -6 4 -2
v 2 4 -2
v -6 6.0001 -2
v 2 6.0001 -2
v -6 6.0001 0.0001066923
v -6 6.0001 -2
v 2 6.0001 -2
v 2 6.0001 0.0001062155
v 2 6.0001 0.0001062155
v -6 6.0001 0.0001066923
vt -2 -2
vt 6 -2
vt -2.000001 -8.000001
vt 6 -8
vt 2.000015 -9
vt -5.999985 -9
vt -6 2
vt 2 2
vt -6 4
vt 2 4
vt -2.000001 -8.999992
vt -8.000001 -8.999992
vt -8 2.000008
vt -2 2.000008
vt -2 1.999999
vt -8.000001 1.999999
vt -8.000001 3.999999
vt -2 3.999999
vt 6 1.999999
vt -2.000015 -9.000001
vt -2.000002 1.999999
vt 5.999985 -9.000001
vt 5.999998 4
vt -2.000003 2
vt -2.000003 4
vt 5.999999 2
vt 8.000002 1.999997
vt 2.000002 -9.000003
vt 2.000001 1.999997
vt 8.000003 -9.000003
vt 8.000002 4
vt 2.000001 2
vt 2.000001 4
vt 8.000002 2
vt 15.00011 2
vt 15.00011 4
vt -2.000001 -15.00011
vt 6 -15.00011
vt -15.00011 3.999999
vt -15.00011 1.999999
vt -6 -8
vt 2.000001 -8.000001
vt -6 -15.00011
vt 2.000001 -15.00011
vt -0.0001063347 1.999997
vt 1.460319E-06 -9.000003
vt -2.000001 4
vt 0.0001052619 2
vt 0.0001052619 4
vt -0.0001063347 4
vt -0.0001063347 2
vt 6 -2
vt -2 -2
vt 6 0.0001066923
vt -2 0.0001062155
vt -2.533194E-06 -8.999992
vt 6 4
vt -2 4
vt 6 6.0001
vt -2 6.0001
vt 0.0001052619 6.0001
vt -2.000001 6.0001
vt 2 6.0001
vt -0.0001063347 6.0001
vt 2 6.0001
vt -6 6.0001
vn 0 1 0
vn 0 1 0
vn 0 1 0
vn 0 1 0
vn 5.960464E-08 -9.799545E-06 1
vn 5.960464E-08 -9.799545E-06 1
vn 5.960464E-08 -9.799545E-06 1
vn 5.960465E-08 -9.799545E-06 1
vn 5.960465E-08 0 1
vn 5.960465E-08 0 1
vn -1 -1.322139E-06 3.973643E-08
vn -1 -1.343814E-06 0
vn -1 -1.322139E-06 3.973643E-08
vn -1 -1.300465E-06 7.947286E-08
vn -1 1.192093E-07 3.973643E-08
vn -1 2.384186E-07 7.947286E-08
vn -1 1.192093E-07 3.973643E-08
vn -1 0 0
vn -1.192093E-07 8.669751E-08 -1
vn -1.192093E-07 8.669751E-08 -1
vn -1.192093E-07 8.669752E-08 -1
vn -1.192093E-07 8.66975E-08 -1
vn -1.192093E-07 1.421085E-14 -1
vn -1.192093E-07 1.421085E-14 -1
vn -1.192093E-07 0 -1
vn -1.192093E-07 2.84217E-14 -1
vn 1 1.257116E-06 1.192093E-07
vn 1 1.257116E-06 1.192093E-07
vn 1 1.343814E-06 2.78155E-07
vn 1 1.170418E-06 -3.973643E-08
vn 1 0 2.78155E-07
vn 1 0 2.78155E-07
vn 1 0 2.78155E-07
vn 1 0 2.78155E-07
vn 1 0 -6.811855E-08
vn 1 0 -6.811855E-08
vn 0 1 0
vn 0 1 0
vn -1 2.384186E-07 0
vn -1 2.384186E-07 0
vn 0 -1 0
vn 0 -1 0
vn 0 -1 0
vn 0 -1 0
vn 1 1.349233E-06 -8.940538E-08
vn 1 1.354652E-06 -1.192093E-07
vn -1 0 2.384058E-07
vn -1 0 2.384058E-07
vn -1 0 2.384058E-07
vn 1 0 -5.960146E-08
vn 1 0 -5.960146E-08
vn 0 1 0
vn 0 1 0
vn 0 1 0
vn 0 1 0
vn -1 -1.300466E-06 2.384122E-07
vn -5.960464E-08 0 -1
vn -5.960464E-08 0 -1
vn -5.960464E-08 0 -1
vn -5.960464E-08 0 -1
vn -1 0 2.384058E-07
vn -1 0 2.384058E-07
vn 1 0 -5.960146E-08
vn 1 0 -5.960146E-08
vn 5.960465E-08 0 1
vn 5.960465E-08 0 1
g pb_Mesh247254_0
g pb_Mesh247254_1
f 3/3/3 2/2/2 1/1/1
f 3/3/3 4/4/4 2/2/2
f 7/7/7 6/6/6 5/5/5
f 8/8/8 7/7/7 5/5/5
f 9/9/9 7/7/7 8/8/8
f 9/9/9 8/8/8 10/10/10
f 13/13/13 12/12/12 11/11/11
f 13/13/13 11/11/11 14/14/14
f 17/17/17 16/16/16 15/15/15
f 17/17/17 15/15/15 18/18/18
f 21/21/21 20/20/20 19/19/19
f 20/20/20 22/22/22 19/19/19
f 25/25/25 24/24/24 23/23/23
f 24/24/24 26/26/26 23/23/23
f 29/29/29 28/28/28 27/27/27
f 28/28/28 30/30/30 27/27/27
f 33/33/33 32/32/32 31/31/31
f 32/32/32 34/34/34 31/31/31
f 35/35/35 31/31/31 34/34/34
f 35/35/35 36/36/36 31/31/31
f 37/37/37 4/4/4 3/3/3
f 37/37/37 38/38/38 4/4/4
f 39/39/39 16/16/16 17/17/17
f 39/39/39 40/40/40 16/16/16
f 43/43/43 42/42/42 41/41/41
f 43/43/43 44/44/44 42/42/42
f 45/45/45 28/28/28 29/29/29
f 45/45/45 46/46/46 28/28/28
f 48/48/48 47/47/47 14/14/14
f 48/48/48 49/49/49 47/47/47
f 50/50/50 32/32/32 33/33/33
f 50/50/50 51/51/51 32/32/32
f 54/54/54 53/53/53 52/52/52
f 54/54/54 55/55/55 53/53/53
f 56/56/56 14/14/14 11/11/11
f 56/56/56 48/48/48 14/14/14
f 59/59/59 58/58/58 57/57/57
f 59/59/59 60/60/60 58/58/58
f 61/61/61 47/47/47 49/49/49
f 61/61/61 62/62/62 47/47/47
f 63/63/63 50/50/50 33/33/33
f 63/63/63 64/64/64 50/50/50
f 65/65/65 9/9/9 10/10/10
f 65/65/65 66/66/66 9/9/9
