g pb_Mesh220958
v 4 3.013789 0
v 3 3.013789 0
v 4.000036 3.014928 -1
v 3 3.014928 -1
v 4 -3 3
v 3 -3 3
v 3 2.986208 3
v 4 2.986208 3
v 3 -3 0
v 3 -3.000025 -1
v 3 3.014928 -1
v 3 3.013789 0
v 3 3.014928 -1
v 4.000015 -3.000017 -1
v 4.000036 3.014928 -1
v 3 -3.000025 -1
v 3 3.013789 0
v 4 3.013789 0
v 3 2.986208 3
v 4 2.986208 3
v 4 -3 0
v 3 -3 0
v 4 -3 3
v 3 -3 3
v 3 -3 3
v 3 2.986208 3
v 4 3.013789 0
v 4 -3 0
v 4 2.986208 3
v 4 -3 3
v 4.000036 3.014928 -1
v 4 -3 0
v 4 3.013789 0
v 4.000015 -3.000017 -1
v 4.000015 -3.000017 -1
v 3 -3.000025 -1
vt -4 -0.003433916
vt -3 -0.003433916
vt -4.000036 -1.003435
vt -3 -1.003435
vt 4 -3
vt 3 -3
vt 3 2.986208
vt 4 2.986208
vt 0 -3
vt -1 -3.000025
vt -1 3.014928
vt 0 3.013789
vt -3 3.014928
vt -4.000015 -3.000017
vt -4.000036 3.014928
vt -3 -3.000025
vt -3 -0.02770633
vt -4 -0.02770633
vt -3 2.97242
vt -4 2.97242
vt 4 0
vt 3 0
vt 4 3
vt 3 3
vt 3 -3
vt 3 2.986208
vt 0 3.013789
vt 0 -3
vt -3 2.986208
vt -3 -3
vt 1.000143 3.014928
vt 0.0001430512 -3
vt 0.0001430512 3.013789
vt 1.000143 -3.000017
vt 4.000015 -1.00005
vt 3 -1.00005
vn 0 0.9999994 0.001139402
vn 0 0.9999994 0.001139402
vn 0 0.9999994 0.001139402
vn 0 0.9999994 0.001139402
vn 0 0 1
vn 0 0 1
vn 0 0 1
vn 0 0 1
vn -1 0 0
vn -1 0 0
vn -1 0 0
vn -1 0 0
vn 0 0 -1
vn 0 0 -1
vn 0 0 -1
vn 0 0 -1
vn 0 0.9999577 0.00919319
vn 0 0.9999577 0.00919319
vn 0 0.9999577 0.00919319
vn 0 0.9999577 0.00919319
vn 0 -1 0
vn 0 -1 0
vn 0 -1 0
vn 0 -1 0
vn -1 0 0
vn -1 0 0
vn 1 0 0
vn 1 0 0
vn 1 0 0
vn 1 0 0
vn 1 -1.704421E-06 2.551082E-05
vn 1 -1.704421E-06 2.551082E-05
vn 1 0 3.576279E-05
vn 1 -3.408842E-06 1.525885E-05
vn 4.172261E-06 -1 2.086163E-05
vn 8.344523E-06 -1 2.503395E-05
g pb_Mesh220958_0
g pb_Mesh220958_1
f 3/3/3 2/2/2 1/1/1
f 3/3/3 4/4/4 2/2/2
f 7/7/7 6/6/6 5/5/5
f 7/7/7 5/5/5 8/8/8
f 11/11/11 10/10/10 9/9/9
f 11/11/11 9/9/9 12/12/12
f 15/15/15 14/14/14 13/13/13
f 14/14/14 16/16/16 13/13/13
f 19/19/19 18/18/18 17/17/17
f 19/19/19 20/20/20 18/18/18
f 23/23/23 22/22/22 21/21/21
f 23/23/23 24/24/24 22/22/22
f 25/25/25 12/12/12 9/9/9
f 25/25/25 26/26/26 12/12/12
f 29/29/29 28/28/28 27/27/27
f 29/29/29 30/30/30 28/28/28
f 33/33/33 32/32/32 31/31/31
f 32/32/32 34/34/34 31/31/31
f 21/21/21 22/22/22 35/35/35
f 22/22/22 36/36/36 35/35/35
