g pb_Mesh135898
v 0 0 0
v -1 0 0
v 0 1 0
v -1 1 0
v -1 0 0
v -1 0 -1
v -1 1 0
v -1 1 -1
v -0.9999812 -3.847454E-05 -6.500003
v 1.886487E-05 -3.847452E-05 -6.5
v -0.9999812 0.9999616 -6.500009
v 1.886487E-05 0.9999616 -6.500006
v 1 0 -1
v 1 0 0
v 1 1 -1
v 1 1 0
v 0 5 0
v -1 5 0
v 0 5 -1
v -1 5 -1
v 0 0 -1
v -1 0 -1
v 0 0 0
v -1 0 0
v -0.9999812 -3.847454E-05 -6.500003
v 1.886487E-05 -3.847452E-05 -6.5
v -1 1 -1
v -1 0 -1
v -0.9999812 0.9999616 -6.500009
v -0.9999812 -3.847454E-05 -6.500003
v 0 0 -1
v 0 1 -1
v 1.886487E-05 -3.847452E-05 -6.5
v 1.886487E-05 0.9999616 -6.500006
v 0 3 -1
v -1 3 -1
v 1.886487E-05 2.999962 -6.500018
v -0.9999812 2.999962 -6.500021
v 1 0 -1
v 1 0 0
v 0 1 -1
v 0 0 -1
v 1 1 -1
v 1 0 -1
v 1 0 0
v 1 1 0
v 0 2 0
v 0 2 -1
v 1 2 0
v 1 2 -1
v -1 2 0
v -1 2 -1
v 1 2 0
v 0 2 0
v 0 2 -1
v 1 2 -1
v 1 2 -1
v 1 2 0
v -1 2 0
v 1.886487E-05 1.999961 -6.500012
v 0 2 -1
v -1 2 -1
v -0.9999812 1.999961 -6.500015
v -0.9999812 0.9999616 -6.500009
v -0.9999812 1.999961 -6.500015
v 1.886487E-05 1.999961 -6.500012
v 1.886487E-05 2.999962 -6.500018
v 0 3 -1
v -1 3 -1
v -0.9999812 2.999962 -6.500021
v -0.9999812 1.999961 -6.500015
v 1.886487E-05 1.999961 -6.500012
v -0.9999812 2.999962 -6.500021
v 1.886487E-05 2.999962 -6.500018
v 0 3 0
v -1 3 0
v 0 2 0
v 0 3 0
v -1 3 0
v -1 3 -1
v 0 5 0
v -1 5 0
v 0 5 -1
v 0 5 0
v -1 5 0
v -1 5 -1
v -1 3 -1
v 0 3 -1
v -1 5 -1
v 0 5 -1
vt 0 0
vt -1 0
vt 0 1
vt -1 1
vt 0 0
vt -1 0
vt 0 1
vt -1 1
vt 1.000003 -1.281238E-06
vt 2.831222E-06 -1.28122E-06
vt 1.000003 0.9999987
vt 2.831241E-06 0.9999987
vt 1 0
vt 0 0
vt 1 1
vt 0 1
vt 0 0
vt 1 0
vt 0 -1
vt 1 -1
vt 0 -1
vt -1 -1
vt 0 0
vt -1 0
vt -0.9999812 -6.500003
vt 1.886487E-05 -6.5
vt -0.9999966 1
vt -0.9999966 0
vt -6.500006 0.9999616
vt -6.5 -3.847454E-05
vt 1 0
vt 1 1
vt 6.5 -3.847452E-05
vt 6.500006 0.9999616
vt 0 -0.9999791
vt 1 -0.9999791
vt -1.886487E-05 -6.499997
vt 0.9999812 -6.5
vt 1 -1
vt 1 0
vt 0 1
vt 0 0
vt -1 1
vt -1 0
vt 1 0
vt 1 1
vt 0 0
vt 0 -1
vt -1 0
vt -1 -1
vt 0 2
vt -1 2
vt 1 2
vt 0 2
vt 0 2
vt -1 2
vt 1 2
vt 0 2
vt -1 2
vt 6.500012 1.999961
vt 1 2
vt -0.9999966 2
vt -6.500011 1.999961
vt 0.9999998 0.9999987
vt 0.9999998 1.999999
vt -2.681868E-07 1.999999
vt 6.500018 2.999962
vt 1 3
vt -0.9999966 3
vt -6.500018 2.999962
vt 0.9999998 2.000002
vt -2.681868E-07 2.000002
vt 0.9999998 3.000002
vt -2.681704E-07 3.000002
vt 0 3
vt -1 3
vt 0 2
vt 0 3
vt 0 3
vt -1 3
vt 0 5
vt -1 5
vt 1 5
vt 0 5
vt 0 5
vt -1 5
vt 1 3
vt 0 3
vt 1 5
vt 0 5
vn 0 0 1
vn 0 0 1
vn 0 0 1
vn 0 0 1
vn -1 0 0
vn -1 0 0
vn -1 0 0
vn -1 0 0
vn 3.33786E-06 -5.722046E-06 -1
vn 3.099442E-06 -5.960464E-06 -1
vn 3.099442E-06 -5.960464E-06 -1
vn 2.861023E-06 -6.198883E-06 -1
vn 1 0 0
vn 1 0 0
vn 1 0 0
vn 1 0 0
vn 0 1 0
vn 0 1 0
vn 0 1 0
vn 0 1 0
vn 0 -1 0
vn 0 -1 0
vn 0 -1 0
vn 0 -1 0
vn -2.579831E-12 -1 6.995367E-06
vn -5.159662E-12 -1 6.995367E-06
vn -1 0 -3.424552E-06
vn -1 -9.797732E-12 -3.424554E-06
vn -1 -9.797732E-12 -3.424554E-06
vn -1 -1.959546E-11 -3.424556E-06
vn 1 0 3.429976E-06
vn 1 9.721503E-12 3.429974E-06
vn 1 9.721503E-12 3.429974E-06
vn 1 1.944301E-11 3.429973E-06
vn 0 1 -6.979139E-06
vn 1.164769E-11 1 -6.979138E-06
vn 1.164769E-11 1 -6.979138E-06
vn 2.329538E-11 1 -6.979135E-06
vn 0 -1 0
vn 0 -1 0
vn 0 0 -1
vn 0 0 -1
vn 0 0 -1
vn 0 0 -1
vn 0 0 1
vn 0 0 1
vn 0 1 0
vn 0 1 0
vn 0 1 0
vn 0 1 0
vn -1 0 0
vn -1 0 0
vn 0 0 1
vn 0 0 1
vn 0 0 -1
vn 0 0 -1
vn 1 0 0
vn 1 0 0
vn 0 0 1
vn 1 9.813231E-12 3.429971E-06
vn 1 0 3.429969E-06
vn -1 -9.797713E-12 -3.42455E-06
vn -1 -1.959543E-11 -3.424549E-06
vn 2.861023E-06 -5.722046E-06 -1
vn 2.861023E-06 -5.722046E-06 -1
vn 2.861023E-06 -5.722046E-06 -1
vn 1 9.813219E-12 3.429967E-06
vn 1 0 3.429965E-06
vn -1 -1.061418E-11 -3.424547E-06
vn -1 -2.122835E-11 -3.424545E-06
vn 2.861023E-06 -6.198882E-06 -1
vn 3.099442E-06 -5.960464E-06 -1
vn 3.099442E-06 -5.960464E-06 -1
vn 3.33786E-06 -5.722045E-06 -1
vn 0 0 1
vn 0 0 1
vn 1 0 0
vn 1 0 0
vn -1 0 0
vn -1 0 0
vn 0 0 1
vn 0 0 1
vn 1 0 0
vn 1 0 0
vn -1 0 0
vn -1 0 0
vn 0 0 -1
vn 0 0 -1
vn 0 0 -1
vn 0 0 -1
g pb_Mesh135898_0
f 3/3/3 2/2/2 1/1/1
f 3/3/3 4/4/4 2/2/2
f 7/7/7 6/6/6 5/5/5
f 7/7/7 8/8/8 6/6/6
f 11/11/11 10/10/10 9/9/9
f 11/11/11 12/12/12 10/10/10
f 15/15/15 14/14/14 13/13/13
f 15/15/15 16/16/16 14/14/14
f 19/19/19 18/18/18 17/17/17
f 19/19/19 20/20/20 18/18/18
f 23/23/23 22/22/22 21/21/21
f 23/23/23 24/24/24 22/22/22
f 25/25/25 21/21/21 22/22/22
f 25/25/25 26/26/26 21/21/21
f 29/29/29 28/28/28 27/27/27
f 29/29/29 30/30/30 28/28/28
f 33/33/33 32/32/32 31/31/31
f 33/33/33 34/34/34 32/32/32
f 37/37/37 36/36/36 35/35/35
f 37/37/37 38/38/38 36/36/36
f 39/39/39 23/23/23 21/21/21
f 39/39/39 40/40/40 23/23/23
f 43/43/43 42/42/42 41/41/41
f 43/43/43 44/44/44 42/42/42
f 45/45/45 3/3/3 1/1/1
f 45/45/45 46/46/46 3/3/3
f 49/49/49 48/48/48 47/47/47
f 49/49/49 50/50/50 48/48/48
f 51/51/51 8/8/8 7/7/7
f 51/51/51 52/52/52 8/8/8
f 53/53/53 3/3/3 46/46/46
f 53/53/53 54/54/54 3/3/3
f 55/55/55 43/43/43 41/41/41
f 55/55/55 56/56/56 43/43/43
f 57/57/57 16/16/16 15/15/15
f 57/57/57 58/58/58 16/16/16
f 54/54/54 4/4/4 3/3/3
f 54/54/54 59/59/59 4/4/4
f 60/60/60 32/32/32 34/34/34
f 60/60/60 61/61/61 32/32/32
f 62/62/62 29/29/29 27/27/27
f 62/62/62 63/63/63 29/29/29
f 65/65/65 12/12/12 64/64/64
f 65/65/65 66/66/66 12/12/12
f 67/67/67 61/61/61 60/60/60
f 67/67/67 68/68/68 61/61/61
f 69/69/69 63/63/63 62/62/62
f 69/69/69 70/70/70 63/63/63
f 73/73/73 72/72/72 71/71/71
f 73/73/73 74/74/74 72/72/72
f 75/75/75 59/59/59 54/54/54
f 75/75/75 76/76/76 59/59/59
f 68/68/68 77/77/77 61/61/61
f 68/68/68 78/78/78 77/77/77
f 79/79/79 52/52/52 51/51/51
f 79/79/79 80/80/80 52/52/52
f 81/81/81 76/76/76 75/75/75
f 81/81/81 82/82/82 76/76/76
f 83/83/83 78/78/78 68/68/68
f 83/83/83 84/84/84 78/78/78
f 85/85/85 80/80/80 79/79/79
f 85/85/85 86/86/86 80/80/80
f 89/89/89 88/88/88 87/87/87
f 89/89/89 90/90/90 88/88/88
