g pb_Mesh437764
v 3.999991 -8 -10.49999
v 4 0 4.5
v 2.95639E-05 -8 -10.5
v -1.424554E-05 0 4.50001
v 4 8.869171E-05 8.499998
v -1.424554E-05 0 4.50001
v 4 0 4.5
v -1.490116E-05 8.869171E-05 8.499999
v -4 0.0001888275 8.499999
v -4 0.0001001358 4.500014
v -4 8 -10.5
v -1.424554E-05 0 4.50001
v -4 0.0001001358 4.500014
v -1.546741E-05 8 -10.5
v -4 8.000088 -14.5
v -1.546741E-05 8 -10.5
v -4 8 -10.5
v -1.558661E-05 8.000088 -14.5
vt -4.000003 -13.0294
vt -4 3.97059
vt -4.177106E-05 -13.02941
vt 1.424554E-05 3.970596
vt -4 8.499998
vt 1.424554E-05 4.50001
vt -4 4.5
vt 1.490116E-05 8.499999
vt 4 8.499999
vt 4 4.500014
vt 4.000205 -13.02935
vt 1.424554E-05 3.970609
vt 4 3.970614
vt 0.0002198087 -13.0294
vt 4 -14.50018
vt 1.546741E-05 -10.50018
vt 4 -10.50018
vt 1.558661E-05 -14.50018
vn 1.346378E-06 0.8823528 -0.4705885
vn 8.415702E-08 0.8823529 -0.4705883
vn 8.415702E-08 0.8823529 -0.4705883
vn -1.178063E-06 0.8823531 -0.470588
vn -3.039693E-11 1 -2.217296E-05
vn -3.039693E-11 1 -2.217296E-05
vn -5.550743E-11 1 -2.217294E-05
vn -5.286432E-12 1 -2.217299E-05
vn 2.503403E-05 1 -2.2173E-05
vn 2.503402E-05 1 -2.217301E-05
vn 1.126886E-05 0.8823543 0.4705856
vn 1.126886E-05 0.8823543 0.4705856
vn 2.253771E-05 0.8823556 0.4705833
vn 0 0.8823531 0.4705879
vn 0 1 2.193451E-05
vn 0 1 2.193451E-05
vn 0 1 2.193451E-05
vn 0 1 2.193451E-05
g pb_Mesh437764_0
f 3/3/3 2/2/2 1/1/1
f 3/3/3 4/4/4 2/2/2
f 7/7/7 6/6/6 5/5/5
f 6/6/6 8/8/8 5/5/5
f 8/8/8 6/6/6 9/9/9
f 6/6/6 10/10/10 9/9/9
f 13/13/13 12/12/12 11/11/11
f 12/12/12 14/14/14 11/11/11
f 17/17/17 16/16/16 15/15/15
f 16/16/16 18/18/18 15/15/15
