g pb_Mesh283534
v -8 4 -2
v -4 4 -2
v -4 4 2
v -8 4 2
v -18.5 2 2
v -18.5 2 -2
v -18.5 4 2
v -18.5 4 -2
v 6.5 2 -2
v 6.5 2 2
v 6.5 4 -2
v 6.5 4 2
v 0 -2.5 -2
v 0 -2.5 2
v 6.5 -2.5 -2
v 6.5 -2.5 2
v 0 4 -2
v 0 2 -2
v 6.5 4 -2
v 6.5 2 -2
v 0 2 2
v 0 4 2
v 6.5 2 2
v 6.5 4 2
v 0 4 2
v 0 4 -2
v 6.5 4 2
v 6.5 4 -2
v -12 -2.5 2
v -12 -2.5 -2
v -18.5 -2.5 2
v -18.5 -2.5 -2
v -12 4 2
v -12 2 2
v -18.5 4 2
v -18.5 2 2
v -12 2 -2
v -12 4 -2
v -18.5 2 -2
v -18.5 4 -2
v -12 4 -2
v -12 4 2
v -18.5 4 -2
v -18.5 4 2
v 0 2 -2
v 0 2 2
v 0 -2.5 -2
v 0 -2.5 2
v 6.5 -2.5 -2
v 0 -2.5 -2
v 0 -2.5 2
v 6.5 -2.5 2
v 6.5 -2.5 2
v 6.5 -2.5 -2
v -12 2 2
v -12 2 -2
v -12 -2.5 2
v -12 -2.5 -2
v -18.5 -2.5 2
v -12 -2.5 2
v -12 -2.5 -2
v -18.5 -2.5 -2
v -18.5 -2.5 -2
v -18.5 -2.5 2
v -4 2 2
v -4 4 2
v -4 4 -2
v -4 2 -2
v -4 4 -2
v -4 4 2
v 0 2 2
v -4 2 -2
v -4 2 2
v 0 2 -2
v -8 2 2
v -8 4 2
v -8 4 -2
v -8 2 -2
v -8 4 -2
v -8 4 2
v -8 2 2
v -12 2 -2
v -12 2 2
v -8 2 -2
vt 8 -2
vt 4 -2
vt 4 2
vt 8 2
vt 2 2
vt -2 2
vt 2 4
vt -2 4
vt 2 2
vt -2 2
vt 2 4
vt -2 4
vt 0 -2
vt 0 2
vt 6.5 -2
vt 6.5 2
vt 0 4
vt 0 2
vt -6.5 4
vt -6.5 2
vt 0 2
vt 0 4
vt 6.5 2
vt 6.5 4
vt 0 2
vt 0 -2
vt -6.5 2
vt -6.5 -2
vt -12 2
vt -12 -2
vt -18.5 2
vt -18.5 -2
vt -12 4
vt -12 2
vt -18.5 4
vt -18.5 2
vt 12 2
vt 12 4
vt 18.5 2
vt 18.5 4
vt 12 -2
vt 12 2
vt 18.5 -2
vt 18.5 2
vt -2 2
vt 2 2
vt -2 -2.5
vt 2 -2.5
vt -6.5 -2.5
vt 0 -2.5
vt 0 -2.5
vt 6.5 -2.5
vt -2 -2.5
vt 2 -2.5
vt -2 2
vt 2 2
vt -2 -2.5
vt 2 -2.5
vt -18.5 -2.5
vt -12 -2.5
vt 12 -2.5
vt 18.5 -2.5
vt -2 -2.5
vt 2 -2.5
vt -4 2
vt -4 4
vt 4 4
vt 4 2
vt 4 -2
vt 4 2
vt 0 2
vt -4 -2
vt -4 2
vt 0 -2
vt -8 2
vt -8 4
vt 8 4
vt 8 2
vt 8 -2
vt 8 2
vt -8 2
vt -12 -2
vt -12 2
vt -8 -2
vn 0 1 0
vn 0 1 0
vn 0 1 0
vn 0 1 0
vn -1 0 0
vn -1 0 0
vn -1 0 0
vn -1 0 0
vn 1 0 0
vn 1 0 0
vn 1 0 0
vn 1 0 0
vn 0 -1 0
vn 0 -1 0
vn 0 -1 0
vn 0 -1 0
vn 0 0 -1
vn 0 0 -1
vn 0 0 -1
vn 0 0 -1
vn 0 0 1
vn 0 0 1
vn 0 0 1
vn 0 0 1
vn 0 1 0
vn 0 1 0
vn 0 1 0
vn 0 1 0
vn 0 -1 0
vn 0 -1 0
vn 0 -1 0
vn 0 -1 0
vn 0 0 1
vn 0 0 1
vn 0 0 1
vn 0 0 1
vn 0 0 -1
vn 0 0 -1
vn 0 0 -1
vn 0 0 -1
vn 0 1 0
vn 0 1 0
vn 0 1 0
vn 0 1 0
vn -1 0 0
vn -1 0 0
vn -1 0 0
vn -1 0 0
vn 0 0 -1
vn 0 0 -1
vn 0 0 1
vn 0 0 1
vn 1 0 0
vn 1 0 0
vn 1 0 0
vn 1 0 0
vn 1 0 0
vn 1 0 0
vn 0 0 1
vn 0 0 1
vn 0 0 -1
vn 0 0 -1
vn -1 0 0
vn -1 0 0
vn 0 0 1
vn 0 0 1
vn 0 0 -1
vn 0 0 -1
vn 0 1 0
vn 0 1 0
vn 0 -1 0
vn 0 -1 0
vn 0 -1 0
vn 0 -1 0
vn 0 0 1
vn 0 0 1
vn 0 0 -1
vn 0 0 -1
vn 0 1 0
vn 0 1 0
vn 0 -1 0
vn 0 -1 0
vn 0 -1 0
vn 0 -1 0
g pb_Mesh283534_0
f 3/3/3 2/2/2 1/1/1
f 3/3/3 1/1/1 4/4/4
g pb_Mesh283534_1
f 7/7/7 6/6/6 5/5/5
f 7/7/7 8/8/8 6/6/6
f 11/11/11 10/10/10 9/9/9
f 11/11/11 12/12/12 10/10/10
f 15/15/15 14/14/14 13/13/13
f 15/15/15 16/16/16 14/14/14
f 19/19/19 18/18/18 17/17/17
f 19/19/19 20/20/20 18/18/18
f 23/23/23 22/22/22 21/21/21
f 23/23/23 24/24/24 22/22/22
f 27/27/27 26/26/26 25/25/25
f 27/27/27 28/28/28 26/26/26
f 31/31/31 30/30/30 29/29/29
f 31/31/31 32/32/32 30/30/30
f 35/35/35 34/34/34 33/33/33
f 35/35/35 36/36/36 34/34/34
f 39/39/39 38/38/38 37/37/37
f 39/39/39 40/40/40 38/38/38
f 43/43/43 42/42/42 41/41/41
f 43/43/43 44/44/44 42/42/42
f 47/47/47 46/46/46 45/45/45
f 47/47/47 48/48/48 46/46/46
f 49/49/49 18/18/18 20/20/20
f 49/49/49 50/50/50 18/18/18
f 51/51/51 23/23/23 21/21/21
f 51/51/51 52/52/52 23/23/23
f 53/53/53 9/9/9 10/10/10
f 53/53/53 54/54/54 9/9/9
f 57/57/57 56/56/56 55/55/55
f 57/57/57 58/58/58 56/56/56
f 59/59/59 34/34/34 36/36/36
f 59/59/59 60/60/60 34/34/34
f 61/61/61 39/39/39 37/37/37
f 61/61/61 62/62/62 39/39/39
f 63/63/63 5/5/5 6/6/6
f 63/63/63 64/64/64 5/5/5
f 66/66/66 65/65/65 21/21/21
f 66/66/66 21/21/21 22/22/22
f 17/17/17 18/18/18 67/67/67
f 18/18/18 68/68/68 67/67/67
f 25/25/25 26/26/26 69/69/69
f 25/25/25 69/69/69 70/70/70
f 73/73/73 72/72/72 71/71/71
f 72/72/72 74/74/74 71/71/71
f 76/76/76 75/75/75 65/65/65
f 76/76/76 65/65/65 66/66/66
f 33/33/33 34/34/34 75/75/75
f 33/33/33 75/75/75 76/76/76
f 67/67/67 68/68/68 77/77/77
f 68/68/68 78/78/78 77/77/77
f 77/77/77 78/78/78 38/38/38
f 78/78/78 37/37/37 38/38/38
f 80/80/80 79/79/79 41/41/41
f 80/80/80 41/41/41 42/42/42
f 83/83/83 82/82/82 81/81/81
f 82/82/82 84/84/84 81/81/81
f 81/81/81 84/84/84 73/73/73
f 84/84/84 72/72/72 73/73/73
