g pb_Mesh297222
v 4 6 4
v 4 4 4
v 2 4 4
v 0 4 4
v -2 4 4
v -4 4 4
v -4 6 4
v 3 2 0
v 0 2 -3
v 0 2 0
v 3 2 -3
v -3 4 -3
v -4 4 -4
v -4 4 -2
v -2 4 -4
v -3 4 0
v -4 4 0
v -3 2 -3
v -3 2 0
v 0 4 -3
v 0 4 -4
v -3 4 3
v -4 4 2
v -2 4 4
v -4 4 2
v -4 4 4
v -2 4 4
v -3 4 3
v -4 4 2
v 0 4 4
v -3 4 3
v -2 4 4
v 0 4 3
v 0 2 3
v -3 2 3
v 3 2 3
v 2 4 4
v 3 4 3
v 4 4 4
v 4 4 2
v 3 4 0
v 4 4 0
v 0 4 -3
v -3 4 -3
v 0 2 -3
v -3 2 -3
v 3 4 0
v 3 4 -3
v 3 2 0
v 3 2 -3
v 3 4 -3
v 3 2 -3
v -3 4 -3
v -3 4 0
v -3 2 -3
v -3 2 0
v 3 4 3
v 3 2 3
v -3 4 3
v -3 2 3
v -3 4 3
v 0 4 3
v -3 2 3
v 0 2 3
v 3 4 3
v 3 2 3
v -4 4 -2
v -4 4 -4
v -4 6 -4
v -4 6 4
v -4 4 4
v -4 4 2
v -4 6 0
v -4 4 0
v 0 6 0
v 4 6 0
v 4 6 4
v -4 6 4
v -4 6 0
v -4 6 -4
v 0 6 -4
v -4 6 -4
v -2 4 -4
v 0 6 -4
v 0 4 -4
v -4 4 -4
v 4 6 0
v 4 4 2
v 4 6 4
v 4 4 4
v 4 4 0
vt 4 6
vt 4 4
vt 2 4
vt 0 4
vt -2 4
vt -4 4
vt -4 6
vt 3 0
vt 0 -3
vt 0 0
vt 3 -3
vt -3 -3
vt -4 -4
vt -4 -2
vt -2 -4
vt -3 0
vt -4 0
vt -3 -3
vt -3 0
vt 0 -3
vt 0 -4
vt -3 3
vt -4 2
vt -2 4
vt -4 2
vt -4 4
vt -2 4
vt -3 3
vt -4 2
vt 0 4
vt -3 3
vt -2 4
vt 0 3
vt 0 3
vt -3 3
vt 3 3
vt 2 4
vt 3 3
vt 4 4
vt 4 2
vt 3 0
vt 4 0
vt 0 4
vt 3 4
vt 0 2
vt 3 2
vt 0 4
vt 3 4
vt 0 2
vt 3 2
vt -3 4
vt -3 2
vt -3 4
vt 0 4
vt -3 2
vt 0 2
vt -3 4
vt -3 2
vt 3 4
vt 3 2
vt -3 4
vt 0 4
vt -3 2
vt 0 2
vt 3 4
vt 3 2
vt -2 4
vt -4 4
vt -4 6
vt 4 6
vt 4 4
vt 2 4
vt 0 6
vt 0 4
vt 0 0
vt -4 0
vt -4 4
vt 4 4
vt 4 0
vt 4 -4
vt 0 -4
vt 4 6
vt 2 4
vt 0 6
vt 0 4
vt 4 4
vt 0 6
vt -2 4
vt -4 6
vt -4 4
vt 0 4
vn 0 0 1
vn 0 0 1
vn 0 0 1
vn 0 0 1
vn 0 0 1
vn 0 0 1
vn 0 0 1
vn 0 -1 0
vn 0 -1 0
vn 0 -1 0
vn 0 -1 0
vn 0 -1 0
vn 0 -1 0
vn 0 -1 0
vn 0 -1 0
vn 0 -1 0
vn 0 -1 0
vn 0 -1 0
vn 0 -1 0
vn 0 -1 0
vn 0 -1 0
vn 0 -1 0
vn 0 -1 0
vn 0 -0.5 0
vn 0 -0.5 0
vn 0 -1 0
vn 0 -0.5 0
vn 0 0 0
vn 0 -0.5 0
vn 0 -1 0
vn 0 -1 0
vn 0 -1 0
vn 0 -1 0
vn 0 -1 0
vn 0 -1 0
vn 0 -1 0
vn 0 -1 0
vn 0 -1 0
vn 0 -1 0
vn 0 -1 0
vn 0 -1 0
vn 0 -1 0
vn 0 0 -1
vn 0 0 -1
vn 0 0 -1
vn 0 0 -1
vn 1 0 0
vn 1 0 0
vn 1 0 0
vn 1 0 0
vn 0 0 -1
vn 0 0 -1
vn -1 0 0
vn -1 0 0
vn -1 0 0
vn -1 0 0
vn 1 0 0
vn 1 0 0
vn -1 0 0
vn -1 0 0
vn 0 0 1
vn 0 0 1
vn 0 0 1
vn 0 0 1
vn 0 0 1
vn 0 0 1
vn -1 0 0
vn -1 0 0
vn -1 0 0
vn -1 0 0
vn -1 0 0
vn -1 0 0
vn -1 0 0
vn -1 0 0
vn 0 1 0
vn 0 1 0
vn 0 1 0
vn 0 1 0
vn 0 1 0
vn 0 1 0
vn 0 1 0
vn 0 0 -1
vn 0 0 -1
vn 0 0 -1
vn 0 0 -1
vn 0 0 -1
vn 1 0 0
vn 1 0 0
vn 1 0 0
vn 1 0 0
vn 1 0 0
g pb_Mesh297222_0
g pb_Mesh297222_1
f 3/3/3 2/2/2 1/1/1
f 4/4/4 3/3/3 1/1/1
f 7/7/7 6/6/6 5/5/5
f 7/7/7 5/5/5 4/4/4
f 1/1/1 7/7/7 4/4/4
f 10/10/10 9/9/9 8/8/8
f 9/9/9 11/11/11 8/8/8
f 14/14/14 13/13/13 12/12/12
f 13/13/13 15/15/15 12/12/12
f 17/17/17 14/14/14 16/16/16
f 14/14/14 12/12/12 16/16/16
f 19/19/19 18/18/18 10/10/10
f 18/18/18 9/9/9 10/10/10
f 12/12/12 15/15/15 20/20/20
f 15/15/15 21/21/21 20/20/20
f 23/23/23 17/17/17 22/22/22
f 17/17/17 16/16/16 22/22/22
f 26/26/26 25/25/25 24/24/24
f 29/29/29 28/28/28 27/27/27
f 32/32/32 31/31/31 30/30/30
f 31/31/31 33/33/33 30/30/30
f 35/35/35 19/19/19 34/34/34
f 19/19/19 10/10/10 34/34/34
f 34/34/34 10/10/10 36/36/36
f 10/10/10 8/8/8 36/36/36
f 30/30/30 33/33/33 37/37/37
f 33/33/33 38/38/38 37/37/37
f 37/37/37 38/38/38 39/39/39
f 38/38/38 40/40/40 39/39/39
f 38/38/38 41/41/41 40/40/40
f 41/41/41 42/42/42 40/40/40
f 45/45/45 44/44/44 43/43/43
f 45/45/45 46/46/46 44/44/44
f 49/49/49 48/48/48 47/47/47
f 49/49/49 50/50/50 48/48/48
f 52/52/52 43/43/43 51/51/51
f 52/52/52 45/45/45 43/43/43
f 55/55/55 54/54/54 53/53/53
f 55/55/55 56/56/56 54/54/54
f 58/58/58 47/47/47 57/57/57
f 58/58/58 49/49/49 47/47/47
f 56/56/56 59/59/59 54/54/54
f 56/56/56 60/60/60 59/59/59
f 63/63/63 62/62/62 61/61/61
f 63/63/63 64/64/64 62/62/62
f 64/64/64 65/65/65 62/62/62
f 64/64/64 66/66/66 65/65/65
f 69/69/69 68/68/68 67/67/67
f 72/72/72 71/71/71 70/70/70
f 73/73/73 72/72/72 70/70/70
f 73/73/73 74/74/74 72/72/72
f 67/67/67 74/74/74 73/73/73
f 69/69/69 67/67/67 73/73/73
f 77/77/77 76/76/76 75/75/75
f 75/75/75 79/79/79 78/78/78
f 77/77/77 75/75/75 78/78/78
f 75/75/75 81/81/81 80/80/80
f 75/75/75 80/80/80 79/79/79
f 84/84/84 83/83/83 82/82/82
f 84/84/84 85/85/85 83/83/83
f 83/83/83 86/86/86 82/82/82
f 89/89/89 88/88/88 87/87/87
f 89/89/89 90/90/90 88/88/88
f 88/88/88 91/91/91 87/87/87
