g pb_Mesh433010
v 8 -1.25 2
v -8 0.125 2
v -8 4 2
v 8 4.125 2
v -16 0.125 2
v -16 3.875 2
v -8 4 2
v -8 4 -2
v 4 4.125 -2
v 8 4.125 2
v -16 3.875 -2
v -8 4 -2
v -8 4 2
v -16 3.875 2
v -8 4 -2
v 4 3.125 -2
v 4 4.125 -2
v -8 3.125 -2
v -16 3.875 -2
v -16 3.125 -2
v -16 4.25 -25.875
v -8 -1.375 -25.875
v -8 3.875 -25.875
v -16 -1.375 -25.875
v 8 -1.375 -25.875
v 8 4 -25.875
v -8 3.875 -25.875
v -16 4.25 -22
v -16 4.25 -25.875
v -8 4 -22
v -8 4 -22
v -8 3.875 -25.875
v 4 4.125 -22
v 8 4 -25.875
v -8 0.125 -22
v -15.5 0.125 -22
v -16 4.25 -22
v -8 4 -22
v 4 0.125 -22
v 4 4.125 -22
v 8 4 -25.875
v 8 -1.375 -8
v 8 4 -8
v 8 -1.375 -25.875
v 8 -1.25 2
v 8 4.125 2
v 4 4.125 -22
v 8 4 -25.875
v 8 4 -8
v 4 4.125 -8
v 4 4.125 -2
v 8 4 -8
v 8 4.125 2
v 4 0.125 -8
v 4 0.125 -22
v 4 4.125 -22
v 4 4.125 -8
v 4 3.125 -2
v 4 4.125 -2
vt 8 -1.25
vt -8 0.125
vt -8 4
vt 8 4.125
vt -16 0.125
vt -16 3.875
vt 7.957901 2
vt 7.957901 -2
vt -4.042749 -2
vt -8.042533 2
vt 15.93751 -2
vt 7.936531 -2
vt 7.936531 2
vt 15.93751 2
vt 8 4
vt -4 3.125
vt -4 4.125
vt 8 3.125
vt 16 3.875
vt 16 3.125
vt 16 4.25
vt 8 -1.375
vt 8 3.875
vt 16 -1.375
vt -8 -1.375
vt -8 4
vt 8.172668 -25.875
vt 16.18145 -22
vt 16.18145 -25.875
vt 8.17852 -22
vt 7.957901 -21.85693
vt 7.959204 -25.73394
vt -4.042749 -21.85693
vt -8.04123 -25.73528
vt -8 0.125
vt -15.5 0.125
vt -16 4.25
vt -8 4
vt 4 0.125
vt 4 4.125
vt 25.875 4
vt 8 -1.375
vt 8 4
vt 25.875 -1.375
vt -2 -1.25
vt -2 4.125
vt -3.869205 -22
vt -7.871158 -25.875
vt -7.871158 -8
vt -3.869205 -8
vt -3.869205 -2
vt -7.871158 -8
vt -7.867253 2
vt -8 0.125
vt -22 0.125
vt -22 4.125
vt -8 4.125
vt -2 3.125
vt -2 4.125
vn 0 0 1
vn 0 0 1
vn 0 0 1
vn 0 0 1
vn 0 0 1
vn 0 0 1
vn -0.009114062 0.9999424 0.003906012
vn -0.0104161 0.9999458 0
vn -0.009114062 0.9999424 0.003906012
vn -0.007812023 0.999939 0.007812023
vn -0.01562309 0.9998779 0
vn -0.01562309 0.9998779 0
vn -0.01562309 0.9998779 0
vn -0.01562309 0.9998779 0
vn 0 0 -1
vn 0 0 -1
vn 0 0 -1
vn 0 0 -1
vn 0 0 -1
vn 0 0 -1
vn 0 0 -1
vn 0 0 -1
vn 0 0 -1
vn 0 0 -1
vn 0 0 -1
vn 0 0 -1
vn 0.03902106 0.9989481 -0.01611279
vn 0.03902106 0.9989481 -0.01611279
vn 0.04682359 0.9989032 0
vn 0.03121853 0.998993 -0.03222558
vn -0.01041069 0.9994259 -0.03223955
vn -0.009108303 0.9992918 -0.03626408
vn -0.009108303 0.9992918 -0.03626408
vn -0.007805919 0.9991576 -0.04028861
vn 0 0 1
vn 0 0 1
vn 0 0 1
vn 0 0 1
vn 0 0 1
vn 0 0 1
vn 1 0 0
vn 1 0 0
vn 1 0 0
vn 1 0 0
vn 1 0 0
vn 1 0 0
vn 0.03123475 0.9995121 0
vn 0.03123475 0.9995121 0
vn 0.03123475 0.9995121 0
vn 0.03123475 0.9995121 0
vn 0.0218664 0.999678 -0.006249024
vn 0.0218664 0.999678 -0.006249024
vn 0.01249805 0.9998438 -0.01249805
vn -1 0 0
vn -1 0 0
vn -1 0 0
vn -1 0 0
vn -1 0 0
vn -1 0 0
g pb_Mesh433010_0
g pb_Mesh433010_1
f 3/3/3 2/2/2 1/1/1
f 3/3/3 1/1/1 4/4/4
f 6/6/6 5/5/5 2/2/2
f 6/6/6 2/2/2 3/3/3
f 9/9/9 8/8/8 7/7/7
f 10/10/10 9/9/9 7/7/7
f 13/13/13 12/12/12 11/11/11
f 13/13/13 11/11/11 14/14/14
f 17/17/17 16/16/16 15/15/15
f 16/16/16 18/18/18 15/15/15
f 15/15/15 18/18/18 19/19/19
f 18/18/18 20/20/20 19/19/19
f 23/23/23 22/22/22 21/21/21
f 22/22/22 24/24/24 21/21/21
f 26/26/26 25/25/25 23/23/23
f 25/25/25 22/22/22 23/23/23
f 29/29/29 28/28/28 27/27/27
f 28/28/28 30/30/30 27/27/27
f 33/33/33 32/32/32 31/31/31
f 33/33/33 34/34/34 32/32/32
f 37/37/37 36/36/36 35/35/35
f 37/37/37 35/35/35 38/38/38
f 38/38/38 35/35/35 39/39/39
f 38/38/38 39/39/39 40/40/40
f 43/43/43 42/42/42 41/41/41
f 42/42/42 44/44/44 41/41/41
f 46/46/46 45/45/45 43/43/43
f 45/45/45 42/42/42 43/43/43
f 49/49/49 48/48/48 47/47/47
f 49/49/49 47/47/47 50/50/50
f 52/52/52 50/50/50 51/51/51
f 53/53/53 52/52/52 51/51/51
f 56/56/56 55/55/55 54/54/54
f 56/56/56 54/54/54 57/57/57
f 57/57/57 54/54/54 58/58/58
f 57/57/57 58/58/58 59/59/59
