g pb_Mesh300538
v -20 24 0
v -20 24 -16
v -20 0 -16
v -20 0 0
v 0 24 -16
v -16 24 -16
v -16 24 0
v 0 24 0
v -4 0 -16
v 0 0 -16
v 0 0 -13.875
v -4 0 -13.875
v 0 0 -11.875
v -4 0 -11.875
v -4 0 -4
v 0 0 -4
v 0 0 0
v -4 0 0
v -4 0 -7.875
v 0 0 -7.875
v 0 24 0
v 0 0 0
v 0 0 -4
v 0 0 -7.875
v 0 0 -8
v 0 0 -13.875
v 0 0 -16
v 0 24 -16
v 0 0 -11.875
v -8 0 -16
v -4 0 -9.875
v -8 0 0
v 0 24 2
v -16 24 2
v -8 0 2
v -4 0 2
v 0 0 2
v 0 0 2
v 0 24 2
v -20 24 2
v -20 0 2
v -20 0 -18
v -20 24 -18
v 0 24 -18
v 0 0 -18
v 0 0 -18
v -4 0 -18
v -8 0 -18
v 0 24 -18
v -8 24 -18
v -12 24 -18
v -16 24 -18
v -20 24 0
v -20 24 -16
v -16 0 -18
v -16 0 -16
v -20 0 -18
v -20 0 -16
v -16 0 0
v -20 0 0
v -20 24 2
v -20 24 -18
v -16 24 -18
v -16 0 -18
v -20 24 -18
v -20 0 -18
v -16 0 2
v -20 0 2
v -16 0 2
v -16 24 2
v -20 0 2
v -20 24 2
v -12 0 -16
v -12 0 0
v 0 24 2
v -8 0 2
v -12 0 2
v -4 0 2
v 0 0 2
v -12 0 2
v -12 0 -18
v -4 0 -18
v -8 0 -18
v -8 24 -18
v 0 24 -18
v 0 0 -18
v -8 0 -26
v -12 0 -26
v -12 24 -26
v -8 24 -26
v -12 0 -18
v -12 24 -18
v -8 0 -26
v -12 0 -26
v -12 0 -26
v -12 24 -26
v -12 24 -18
v -12 0 -18
v -8 24 -18
v -8 0 -18
v -8 24 -26
v -8 0 -26
v -12 24 -26
v -8 24 -26
vt 0 24
vt 16 24
vt 16 0
vt 0 0
vt 0 -16
vt -16 -16
vt -16 0
vt 0 0
vt 4 -16
vt 0 -16
vt 0 -13.875
vt 4 -13.875
vt 0 -11.875
vt 4 -11.875
vt 4 -4
vt 0 -4
vt 0 0
vt 4 0
vt 4 -7.875
vt 0 -7.875
vt 0 24
vt 0 0
vt -4 0
vt -7.875 0
vt -8 0
vt -13.875 0
vt -16 0
vt -16 24
vt -11.875 0
vt 8 -16
vt 4 -9.875
vt 8 0
vt 0 2
vt -16 2
vt 8 2
vt 4 2
vt 0 2
vt 2 0
vt 2 24
vt -2 24
vt -2 0
vt 18 0
vt 18 24
vt -18 24
vt -18 0
vt 0 -18
vt 4 -18
vt 8 -18
vt 0 -18
vt -8 -18
vt -12 -18
vt -16 -18
vt -20 0
vt -20 -16
vt 16 -18
vt 16 -16
vt 20 -18
vt 20 -16
vt 16 0
vt 20 0
vt -20 2
vt -20 -18
vt -16 24
vt -16 0
vt -20 24
vt -20 0
vt 16 2
vt 20 2
vt 16 0
vt 16 24
vt 20 0
vt 20 24
vt 12 -16
vt 12 0
vt 0 24
vt 8 0
vt 12 0
vt 4 0
vt 0 0
vt 12 2
vt 12 -18
vt -4 0
vt -8 0
vt -8 24
vt 0 24
vt 0 0
vt -8 0
vt -12 0
vt -12 24
vt -8 24
vt -12 0
vt -12 24
vt 8 -26
vt 12 -26
vt -26 0
vt -26 24
vt -18 24
vt -18 0
vt -18 24
vt -18 0
vt -26 24
vt -26 0
vt -12 -26
vt -8 -26
vn 1 0 0
vn 1 0 0
vn 1 0 0
vn 1 0 0
vn 0 -1 0
vn 0 -1 0
vn 0 -1 0
vn 0 -1 0
vn 0 1 0
vn 0 1 0
vn 0 1 0
vn 0 1 0
vn 0 1 0
vn 0 1 0
vn 0 1 0
vn 0 1 0
vn 0 1 0
vn 0 1 0
vn 0 1 0
vn 0 1 0
vn -1 0 0
vn -1 0 0
vn -1 0 0
vn -1 0 0
vn -1 0 0
vn -1 0 0
vn -1 0 0
vn -1 0 0
vn -1 0 0
vn 0 1 0
vn 0 1 0
vn 0 1 0
vn 0 -1 0
vn 0 -1 0
vn 0 1 0
vn 0 1 0
vn 0 1 0
vn -1 0 0
vn -1 0 0
vn 1 0 0
vn 1 0 0
vn 1 0 0
vn 1 0 0
vn -1 0 0
vn -1 0 0
vn 0 1 0
vn 0 1 0
vn 0 1 0
vn 0 -1 0
vn 0 -1 0
vn 0 -1 0
vn 0 -1 0
vn 0 -1 0
vn 0 -1 0
vn 0 1 0
vn 0 1 0
vn 0 1 0
vn 0 1 0
vn 0 1 0
vn 0 1 0
vn 0 -1 0
vn 0 -1 0
vn 0 0 1
vn 0 0 1
vn 0 0 1
vn 0 0 1
vn 0 1 0
vn 0 1 0
vn 0 0 -1
vn 0 0 -1
vn 0 0 -1
vn 0 0 -1
vn 0 1 0
vn 0 1 0
vn 0 0 -1
vn 0 0 -1
vn 0 0 -1
vn 0 0 -1
vn 0 0 -1
vn 0 1 0
vn 0 1 0
vn 0 0 1
vn 0 0 1
vn 0 0 1
vn 0 0 1
vn 0 0 1
vn 0 0 1
vn 0 0 1
vn 0 0 1
vn 0 0 1
vn 0 0 1
vn 0 0 1
vn 0 1 0
vn 0 1 0
vn -1 0 0
vn -1 0 0
vn -1 0 0
vn -1 0 0
vn -1 0 0
vn -1 0 0
vn -1 0 0
vn -1 0 0
vn 0 -1 0
vn 0 -1 0
g pb_Mesh300538_0
f 3/3/3 2/2/2 1/1/1
f 4/4/4 3/3/3 1/1/1
f 7/7/7 6/6/6 5/5/5
f 8/8/8 7/7/7 5/5/5
f 11/11/11 10/10/10 9/9/9
f 11/11/11 9/9/9 12/12/12
f 13/13/13 11/11/11 12/12/12
f 13/13/13 12/12/12 14/14/14
f 17/17/17 16/16/16 15/15/15
f 17/17/17 15/15/15 18/18/18
f 16/16/16 20/20/20 19/19/19
f 16/16/16 19/19/19 15/15/15
f 23/23/23 22/22/22 21/21/21
f 24/24/24 23/23/23 21/21/21
f 25/25/25 24/24/24 21/21/21
f 28/28/28 27/27/27 26/26/26
f 28/28/28 26/26/26 29/29/29
f 28/28/28 29/29/29 25/25/25
f 25/25/25 21/21/21 28/28/28
f 12/12/12 9/9/9 30/30/30
f 14/14/14 12/12/12 30/30/30
f 31/31/31 14/14/14 30/30/30
f 31/31/31 30/30/30 32/32/32
f 32/32/32 19/19/19 31/31/31
f 32/32/32 15/15/15 19/19/19
f 32/32/32 18/18/18 15/15/15
f 33/33/33 7/7/7 8/8/8
f 33/33/33 34/34/34 7/7/7
f 35/35/35 18/18/18 32/32/32
f 35/35/35 36/36/36 18/18/18
f 36/36/36 17/17/17 18/18/18
f 36/36/36 37/37/37 17/17/17
f 38/38/38 21/21/21 22/22/22
f 38/38/38 39/39/39 21/21/21
f 40/40/40 4/4/4 1/1/1
f 40/40/40 41/41/41 4/4/4
f 42/42/42 2/2/2 3/3/3
f 42/42/42 43/43/43 2/2/2
f 44/44/44 27/27/27 28/28/28
f 44/44/44 45/45/45 27/27/27
f 46/46/46 9/9/9 10/10/10
f 46/46/46 47/47/47 9/9/9
f 47/47/47 30/30/30 9/9/9
f 47/47/47 48/48/48 30/30/30
f 50/50/50 49/49/49 5/5/5
f 6/6/6 52/52/52 51/51/51
f 6/6/6 51/51/51 50/50/50
f 5/5/5 6/6/6 50/50/50
f 53/53/53 6/6/6 7/7/7
f 53/53/53 54/54/54 6/6/6
f 57/57/57 56/56/56 55/55/55
f 57/57/57 58/58/58 56/56/56
f 58/58/58 59/59/59 56/56/56
f 58/58/58 60/60/60 59/59/59
f 61/61/61 7/7/7 34/34/34
f 61/61/61 53/53/53 7/7/7
f 54/54/54 52/52/52 6/6/6
f 54/54/54 62/62/62 52/52/52
f 65/65/65 64/64/64 63/63/63
f 65/65/65 66/66/66 64/64/64
f 60/60/60 67/67/67 59/59/59
f 60/60/60 68/68/68 67/67/67
f 71/71/71 70/70/70 69/69/69
f 71/71/71 72/72/72 70/70/70
f 74/74/74 73/73/73 56/56/56
f 74/74/74 56/56/56 59/59/59
f 32/32/32 30/30/30 73/73/73
f 32/32/32 73/73/73 74/74/74
f 76/76/76 70/70/70 75/75/75
f 76/76/76 77/77/77 70/70/70
f 77/77/77 69/69/69 70/70/70
f 75/75/75 78/78/78 76/76/76
f 75/75/75 79/79/79 78/78/78
f 80/80/80 74/74/74 59/59/59
f 80/80/80 59/59/59 67/67/67
f 35/35/35 32/32/32 74/74/74
f 35/35/35 74/74/74 80/80/80
f 30/30/30 48/48/48 81/81/81
f 30/30/30 81/81/81 73/73/73
f 73/73/73 81/81/81 55/55/55
f 73/73/73 55/55/55 56/56/56
f 84/84/84 83/83/83 82/82/82
f 82/82/82 86/86/86 85/85/85
f 84/84/84 82/82/82 85/85/85
f 89/89/89 88/88/88 87/87/87
f 89/89/89 87/87/87 90/90/90
f 63/63/63 64/64/64 91/91/91
f 63/63/63 91/91/91 92/92/92
f 93/93/93 81/81/81 48/48/48
f 93/93/93 94/94/94 81/81/81
f 97/97/97 96/96/96 95/95/95
f 98/98/98 97/97/97 95/95/95
f 101/101/101 100/100/100 99/99/99
f 101/101/101 102/102/102 100/100/100
f 103/103/103 50/50/50 51/51/51
f 103/103/103 104/104/104 50/50/50
