g pb_Mesh131334
v 23 -3 0
v -2 -3 0
v 23 1 0
v -2 1 0
v -2 -3 0
v -1 0 -3
v -2 1 0
v -1 1 -3
v -1 0 -3
v 22 0 -3
v -1 1 -3
v 22 1 -3
v 22 0 -3
v 23 -3 0
v 22 1 -3
v 23 1 0
v 23 1 0
v -2 1 0
v 22 1 -3
v -1 1 -3
v 22 0 -3
v -1 0 -3
v 23 -3 0
v -2 -3 0
vt 25 0
vt 0 0
vt 25 4
vt 0 4
vt 3.162278 0
vt 0 3
vt 3.162278 4
vt 0 4
vt 23 0
vt 0 0
vt 23 1
vt 0 1
vt 3.162278 3
vt 0 0
vt 3.162278 4
vt 0 4
vt 0 3
vt 25 3
vt 1 0
vt 24 0
vt 1 4.242641
vt 24 4.242641
vt 0 0
vt 25 0
vn 0 0 1
vn 0 0 1
vn 0 0 1
vn 0 0 1
vn -0.9486833 0 -0.3162278
vn -0.9486834 0 -0.3162278
vn -0.9486834 0 -0.3162278
vn -0.9486833 0 -0.3162278
vn 0 0 -1
vn 0 0 -1
vn 0 0 -1
vn 0 0 -1
vn 0.9486833 0 -0.3162278
vn 0.9486834 0 -0.3162278
vn 0.9486834 0 -0.3162278
vn 0.9486833 0 -0.3162278
vn 0 1 0
vn 0 1 0
vn 0 1 0
vn 0 1 0
vn 0 -0.7071068 -0.7071068
vn 0 -0.7071067 -0.7071067
vn 0 -0.7071067 -0.7071067
vn 0 -0.7071068 -0.7071068
g pb_Mesh131334_0
f 3/3/3 2/2/2 1/1/1
f 3/3/3 4/4/4 2/2/2
f 7/7/7 6/6/6 5/5/5
f 7/7/7 8/8/8 6/6/6
f 11/11/11 10/10/10 9/9/9
f 11/11/11 12/12/12 10/10/10
f 15/15/15 14/14/14 13/13/13
f 15/15/15 16/16/16 14/14/14
f 23/23/23 22/22/22 21/21/21
f 23/23/23 24/24/24 22/22/22
g pb_Mesh131334_1
f 19/19/19 18/18/18 17/17/17
f 19/19/19 20/20/20 18/18/18
