g pb_Mesh35292
v -18 8 -4
v -18 8 12
v -18 20 -4
v -18 20 12
v -2 8 -4
v -2 20 12
v -2 8 12
v -2 20 -4
v -2 8 -14.99993
v -6.559668 8.082844 -14.99987
v -4.175437 11 -14.99987
v -2 20 -14.99993
v -6.43259 13.27468 -14.99987
v -14.90244 11 -14.99987
v -13.44033 8.082844 -14.99987
v -18 8 -14.99993
v -18 20 -14.99993
v -12.83632 13.08377 -14.99987
v -18 -28 12
v -18 -28 -4
v -18 -32 16
v -18 -32 -8
v -2 -28 12
v -2 -28 -4
v 2 -32 16
v 2 -32 -8
v -2 -28 -4
v -2 -28 12
v -18 8 -14.99993
v -18 20 -14.99993
v -2 20 -14.99993
v -2 8 -14.99993
v -18 -42 16
v -18 -42 -8
v 2 -42 16
v 2 -42 -8
v 2 -32 -8
v 2 -32 16
v -18 -52 -8
v -18 -68 16
v -18 -52 16
v -18 -68 -8
v 2 -68 16
v 2 -68 -8
v 2 -52 -8
v 2 -52 16
v -2 20 12
v -6 20 -4
v -6 20 12
v -2 20 -4
v -18 20 -4
v -18 20 12
v -18 20 12
v -6 8 12
v -6 20 12
v -18 8 12
v -2 8 12
v -2 20 12
v -2 20 -14.99993
v -6.43259 13.27468 -14.99987
v -6 20 -14.99993
v -10 13.91716 -14.99987
v -12.83632 13.08377 -14.99987
v -18 20 -14.99993
v -4 -68 -8
v 2 -68 -8
v 2 -68 16
v -4 -68 16
v -18 -68 -8
v -18 -68 16
v -2 -28 12
v -6 -28 12
v -18 -28 12
v -6 -28 12
v -4 -32 16
v -2 -28 12
v 2 -32 16
v -18 -28 12
v -18 -32 16
v -2 -28 -4
v -6 -28 -4
v -6 8 -4
v -2 8 -4
v -18 -28 -4
v -18 8 -4
v 2 -32 -8
v -4 -32 -8
v -2 -28 -4
v -6 -28 -4
v -18 -32 -8
v -18 -28 -4
v -18 20 -14.99993
v -6 20 -14.99993
v -2 20 -14.99993
v -6 8 -14.99993
v -2 8 -14.99993
v -2 8 -4
v -6 8 -4
v -18 8 -14.99993
v -18 8 -4
v -4 -32 16
v 2 -42 16
v 2 -32 16
v -4 -42 16
v -18 -32 16
v -18 -42 16
v 2 -42 -8
v -4 -42 -8
v -4 -32 -8
v 2 -32 -8
v -18 -42 -8
v -18 -32 -8
v -4 -52 16
v 2 -68 16
v 2 -52 16
v -4 -68 16
v -18 -52 16
v -18 -68 16
v -4 -68 -8
v -18 -68 -8
v -18 -52 -8
v -4 -52 -8
v 2 -52 -8
v 2 -68 -8
v 0 -64 -8
v 0 -68 -8
v -4 -64 -8
vt 4 8
vt -12 8
vt 4 20
vt -12 20
vt -4 8
vt 12 20
vt 12 8
vt -4 20
vt -1.999814 8.000005
vt -6.559482 8.082849
vt -4.175251 11
vt -1.999814 20.00001
vt -6.432404 13.27469
vt -14.90261 11.00001
vt -13.44051 8.08285
vt -18.00018 8.000006
vt -18.00018 20.00001
vt -12.8365 13.08377
vt -12 -28
vt 4 -28
vt -16 -32
vt 8 -32
vt 12 -28
vt -4 -28
vt 24.04163 16
vt 24.04163 -8
vt 18.38478 -4
vt 18.38478 12
vt 14.99993 8
vt 14.99993 20
vt -14.99993 20
vt -14.99993 8
vt -16 -42
vt 8 -42
vt 16 -42
vt -8 -42
vt -8 -32
vt 16 -32
vt 8 -52
vt -16 -68
vt -16 -52
vt 8 -68
vt 16 -68
vt -8 -68
vt -8 -52
vt 16 -52
vt -2 12
vt -6 -4
vt -6 12
vt -2 -4
vt -18 -4
vt -18 12
vt 18 20
vt 6 8
vt 6 20
vt 18 8
vt 2 8
vt 2 20
vt -2 20.00013
vt -6.43259 13.27481
vt -6 20.00013
vt -10 13.91729
vt -12.83632 13.0839
vt -18 20.00013
vt 4 -8
vt -2 -8
vt -2 16
vt 4 16
vt 18 -8
vt 18 16
vt 2 -28
vt 6 -28
vt 18 -28
vt 6 -28.28427
vt 4 -33.94113
vt 2 -28.28427
vt -2 -33.94113
vt 18 -28.28427
vt 18 -33.94112
vt -2 -28
vt -6 -28
vt -6 8
vt -2 8
vt -18 -28
vt -18 8
vt 2 -28.28427
vt -4 -28.28427
vt -2 -22.62742
vt -6 -22.62742
vt -18 -28.28427
vt -18 -22.62742
vt -18 -14.99993
vt -6 -14.99993
vt -2 -14.99993
vt 6 -14.99993
vt 2 -14.99993
vt 2 -4
vt 6 -4
vt 18 -14.99993
vt 18 -4
vt 4 -32
vt -2 -42
vt -2 -32
vt 4 -42
vt 18 -32
vt 18 -42
vt 2 -42
vt -4 -42
vt -4 -32
vt 2 -32
vt -18 -42
vt -18 -32
vt 4 -52
vt -2 -68
vt -2 -52
vt 4 -68
vt 18 -52
vt 18 -68
vt -4 -68
vt -18 -68
vt -18 -52
vt -4 -52
vt 2 -52
vt 2 -68
vt 0 -64
vt 0 -68
vt -4 -64
vn 1 0 0
vn 1 0 0
vn 1 0 0
vn 1 0 0
vn -1 0 0
vn -1 0 0
vn -1 0 0
vn -1 0 0
vn 1.93343E-05 -5.053299E-06 1
vn 1.236564E-05 -1.01066E-05 1
vn 1.460693E-05 -1.66471E-06 1
vn 1.572758E-05 2.556234E-06 1
vn 5.15218E-06 5.112469E-06 1
vn -1.188955E-05 -5.044815E-07 1
vn -1.243601E-05 -6.233033E-06 1
vn -1.545437E-05 -3.116517E-06 1
vn -1.161632E-05 2.359794E-06 1
vn -4.759921E-06 4.719589E-06 1
vn 1 0 0
vn 1 0 0
vn 1 0 0
vn 1 0 0
vn -1 0 0
vn -1 0 0
vn -0.7071068 -0.7071068 0
vn -0.7071068 -0.7071068 0
vn -0.7071068 -0.7071068 0
vn -0.7071068 -0.7071068 0
vn 1 0 0
vn 1 0 0
vn -1 0 0
vn -1 0 0
vn 1 0 0
vn 1 0 0
vn -1 0 0
vn -1 0 0
vn -1 0 0
vn -1 0 0
vn 1 0 0
vn 1 0 0
vn 1 0 0
vn 1 0 0
vn -1 0 0
vn -1 0 0
vn -1 0 0
vn -1 0 0
vn 0 -1 0
vn 0 -1 0
vn 0 -1 0
vn 0 -1 0
vn 0 -1 0
vn 0 -1 0
vn 0 0 -1
vn 0 0 -1
vn 0 0 -1
vn 0 0 -1
vn 0 0 -1
vn 0 0 -1
vn 0 8.50822E-06 1
vn 7.573687E-07 8.459504E-06 1
vn -4.778009E-07 9.213019E-06 1
vn -9.556018E-07 1.003525E-05 1
vn -1.712971E-06 9.966535E-06 1
vn 0 8.273356E-06 1
vn 0 1 0
vn 0 1 0
vn 0 1 0
vn 0 1 0
vn 0 1 0
vn 0 1 0
vn 0 0 -1
vn 0 0 -1
vn 0 0 -1
vn 0 -0.7071068 -0.7071068
vn 0 -0.7071068 -0.7071068
vn 0 -0.7071068 -0.7071068
vn 0 -0.7071068 -0.7071068
vn 0 -0.7071068 -0.7071068
vn 0 -0.7071068 -0.7071068
vn 0 0 1
vn 0 0 1
vn 0 0 1
vn 0 0 1
vn 0 0 1
vn 0 0 1
vn 0 -0.7071068 0.7071068
vn 0 -0.7071068 0.7071068
vn 0 -0.7071068 0.7071068
vn 0 -0.7071068 0.7071068
vn 0 -0.7071068 0.7071068
vn 0 -0.7071068 0.7071068
vn 0 -1 0
vn 0 -1 0
vn 0 -1 0
vn 0 1 0
vn 0 1 0
vn 0 1 0
vn 0 1 0
vn 0 1 0
vn 0 1 0
vn 0 0 -1
vn 0 0 -1
vn 0 0 -1
vn 0 0 -1
vn 0 0 -1
vn 0 0 -1
vn 0 0 1
vn 0 0 1
vn 0 0 1
vn 0 0 1
vn 0 0 1
vn 0 0 1
vn 0 0 -1
vn 0 0 -1
vn 0 0 -1
vn 0 0 -1
vn 0 0 -1
vn 0 0 -1
vn 0 0 1
vn 0 0 1
vn 0 0 1
vn 0 0 1
vn 0 0 1
vn 0 0 1
vn 0 0 1
vn 0 0 1
vn 0 0 1
g pb_Mesh35292_0
g pb_Mesh35292_1
f 3/3/3 2/2/2 1/1/1
f 3/3/3 4/4/4 2/2/2
f 7/7/7 6/6/6 5/5/5
f 6/6/6 8/8/8 5/5/5
f 11/11/11 10/10/10 9/9/9
f 12/12/12 11/11/11 9/9/9
f 12/12/12 13/13/13 11/11/11
f 16/16/16 15/15/15 14/14/14
f 17/17/17 16/16/16 14/14/14
f 18/18/18 17/17/17 14/14/14
f 2/2/2 19/19/19 1/1/1
f 19/19/19 20/20/20 1/1/1
f 19/19/19 21/21/21 20/20/20
f 21/21/21 22/22/22 20/20/20
f 5/5/5 24/24/24 23/23/23
f 5/5/5 23/23/23 7/7/7
f 27/27/27 26/26/26 25/25/25
f 27/27/27 25/25/25 28/28/28
f 29/29/29 3/3/3 1/1/1
f 29/29/29 30/30/30 3/3/3
f 31/31/31 5/5/5 8/8/8
f 31/31/31 32/32/32 5/5/5
f 21/21/21 33/33/33 22/22/22
f 33/33/33 34/34/34 22/22/22
f 37/37/37 36/36/36 35/35/35
f 37/37/37 35/35/35 38/38/38
f 41/41/41 40/40/40 39/39/39
f 40/40/40 42/42/42 39/39/39
f 33/33/33 41/41/41 34/34/34
f 41/41/41 39/39/39 34/34/34
f 45/45/45 44/44/44 43/43/43
f 45/45/45 43/43/43 46/46/46
f 36/36/36 45/45/45 46/46/46
f 36/36/36 46/46/46 35/35/35
f 49/49/49 48/48/48 47/47/47
f 48/48/48 50/50/50 47/47/47
f 52/52/52 51/51/51 49/49/49
f 51/51/51 48/48/48 49/49/49
f 55/55/55 54/54/54 53/53/53
f 54/54/54 56/56/56 53/53/53
f 58/58/58 57/57/57 55/55/55
f 57/57/57 54/54/54 55/55/55
f 61/61/61 60/60/60 59/59/59
f 61/61/61 62/62/62 60/60/60
f 63/63/63 62/62/62 61/61/61
f 64/64/64 63/63/63 61/61/61
f 67/67/67 66/66/66 65/65/65
f 67/67/67 65/65/65 68/68/68
f 68/68/68 65/65/65 69/69/69
f 68/68/68 69/69/69 70/70/70
f 57/57/57 71/71/71 54/54/54
f 71/71/71 72/72/72 54/54/54
f 54/54/54 72/72/72 56/56/56
f 72/72/72 73/73/73 56/56/56
f 76/76/76 75/75/75 74/74/74
f 77/77/77 75/75/75 76/76/76
f 79/79/79 78/78/78 74/74/74
f 79/79/79 74/74/74 75/75/75
f 82/82/82 81/81/81 80/80/80
f 82/82/82 80/80/80 83/83/83
f 85/85/85 84/84/84 81/81/81
f 85/85/85 81/81/81 82/82/82
f 88/88/88 87/87/87 86/86/86
f 89/89/89 87/87/87 88/88/88
f 87/87/87 89/89/89 90/90/90
f 89/89/89 91/91/91 90/90/90
f 51/51/51 92/92/92 48/48/48
f 92/92/92 93/93/93 48/48/48
f 48/48/48 93/93/93 50/50/50
f 93/93/93 94/94/94 50/50/50
f 97/97/97 96/96/96 95/95/95
f 97/97/97 95/95/95 98/98/98
f 98/98/98 95/95/95 99/99/99
f 98/98/98 99/99/99 100/100/100
f 103/103/103 102/102/102 101/101/101
f 102/102/102 104/104/104 101/101/101
f 101/101/101 104/104/104 105/105/105
f 104/104/104 106/106/106 105/105/105
f 109/109/109 108/108/108 107/107/107
f 109/109/109 107/107/107 110/110/110
f 112/112/112 111/111/111 108/108/108
f 112/112/112 108/108/108 109/109/109
f 115/115/115 114/114/114 113/113/113
f 114/114/114 116/116/116 113/113/113
f 113/113/113 116/116/116 117/117/117
f 116/116/116 118/118/118 117/117/117
f 104/104/104 113/113/113 106/106/106
f 113/113/113 117/117/117 106/106/106
f 121/121/121 120/120/120 119/119/119
f 121/121/121 119/119/119 122/122/122
f 108/108/108 122/122/122 123/123/123
f 108/108/108 123/123/123 107/107/107
f 111/111/111 121/121/121 122/122/122
f 111/111/111 122/122/122 108/108/108
f 125/125/125 124/124/124 123/123/123
f 125/125/125 126/126/126 124/124/124
f 127/127/127 123/123/123 122/122/122
f 127/127/127 125/125/125 123/123/123
