g pb_Mesh45798
v -9 -34 0
v -31 -34 0
v -9 5 0
v -31 5 0
v -31 -34 -56
v -13 -34 -56
v -31 5 -56
v -13 5 -56
v -31 -34 0
v -31 -34 -52
v -31 5 -52
v -31 5 0
v -31 -34 -56
v -31 5 -56
v -13 5 -56
v -9 -34 -52
v -9 5 -52
v -13 -34 -56
v -9 5 -52
v -9 -34 0
v -9 5 0
v -9 -34 -52
v -31 5 -52
v -9 5 -52
v -9 5 0
v -31 5 0
v -31 5 -56
v -13 5 -56
v -9 -34 -52
v -31 -34 -56
v -31 -34 -52
v -13 -34 -56
v -9 -34 0
v -31 -34 0
vt -9 -34
vt -31 -34
vt -9 5
vt -31 5
vt 31 -34
vt 13 -34
vt 31 5
vt 13 5
vt 0 -34
vt -52 -34
vt -52 5
vt 0 5
vt -56 -34
vt -56 5
vt 48.79037 5
vt 43.13352 -34
vt 43.13352 5
vt 48.79037 -34
vt 52 5
vt 0 -34
vt 0 5
vt 52 -34
vt 31 -52
vt 9 -52
vt 9 0
vt 31 0
vt 31 -56
vt 13 -56
vt -9 -52
vt -31 -56
vt -31 -52
vt -13 -56
vt -9 0
vt -31 0
vn 0 0 1
vn 0 0 1
vn 0 0 1
vn 0 0 1
vn 0 0 -1
vn 0 0 -1
vn 0 0 -1
vn 0 0 -1
vn -1 0 0
vn -1 0 0
vn -1 0 0
vn -1 0 0
vn -1 0 0
vn -1 0 0
vn 0.7071068 0 -0.7071068
vn 0.7071068 0 -0.7071068
vn 0.7071068 0 -0.7071068
vn 0.7071068 0 -0.7071068
vn 1 0 0
vn 1 0 0
vn 1 0 0
vn 1 0 0
vn 0 1 0
vn 0 1 0
vn 0 1 0
vn 0 1 0
vn 0 1 0
vn 0 1 0
vn 0 -1 0
vn 0 -1 0
vn 0 -1 0
vn 0 -1 0
vn 0 -1 0
vn 0 -1 0
g pb_Mesh45798_0
f 3/3/3 2/2/2 1/1/1
f 3/3/3 4/4/4 2/2/2
f 7/7/7 6/6/6 5/5/5
f 7/7/7 8/8/8 6/6/6
f 11/11/11 10/10/10 9/9/9
f 11/11/11 9/9/9 12/12/12
f 14/14/14 13/13/13 10/10/10
f 14/14/14 10/10/10 11/11/11
f 17/17/17 16/16/16 15/15/15
f 16/16/16 18/18/18 15/15/15
f 21/21/21 20/20/20 19/19/19
f 20/20/20 22/22/22 19/19/19
f 25/25/25 24/24/24 23/23/23
f 25/25/25 23/23/23 26/26/26
f 24/24/24 28/28/28 27/27/27
f 24/24/24 27/27/27 23/23/23
f 31/31/31 30/30/30 29/29/29
f 30/30/30 32/32/32 29/29/29
f 34/34/34 31/31/31 33/33/33
f 31/31/31 29/29/29 33/33/33
