g pb_Mesh45508
v 7 -96 -4
v -4 -96 -4
v 7 -21 -4
v -4 -10 -4
v -4 -96 -4
v -4 -96 -8
v -4 -10 -4
v -4 -10 -8
v -4 -96 -8
v 7 -96 -8
v -4 -10 -8
v 7 -21 -8
v 7 -96 -8
v 7 -96 -4
v 7 -21 -8
v 7 -21 -4
v 7 -21 -4
v -4 -10 -4
v 7 -21 -8
v -4 -10 -8
v 7 -96 -8
v -4 -96 -8
v 7 -96 -4
v -4 -96 -4
vt 7 -96
vt -4 -96
vt 7 -21
vt -4 -10
vt -4 -96
vt -8 -96
vt -4 -10
vt -8 -10
vt 4 -96
vt -7 -96
vt 4 -10
vt -7 -21
vt 8 -96
vt 4 -96
vt 8 -21
vt 4 -21
vt -19.79899 -4
vt -4.242641 -4
vt -19.79899 -8
vt -4.242641 -8
vt 7 -8
vt -4 -8
vt 7 -4
vt -4 -4
vn 0 0 1
vn 0 0 1
vn 0 0 1
vn 0 0 1
vn -1 0 0
vn -1 0 0
vn -1 0 0
vn -1 0 0
vn 0 0 -1
vn 0 0 -1
vn 0 0 -1
vn 0 0 -1
vn 1 0 0
vn 1 0 0
vn 1 0 0
vn 1 0 0
vn 0.7071068 0.7071068 0
vn 0.7071068 0.7071068 0
vn 0.7071068 0.7071068 0
vn 0.7071068 0.7071068 0
vn 0 -1 0
vn 0 -1 0
vn 0 -1 0
vn 0 -1 0
g pb_Mesh45508_0
f 3/3/3 2/2/2 1/1/1
f 3/3/3 4/4/4 2/2/2
f 7/7/7 6/6/6 5/5/5
f 7/7/7 8/8/8 6/6/6
f 11/11/11 10/10/10 9/9/9
f 11/11/11 12/12/12 10/10/10
f 15/15/15 14/14/14 13/13/13
f 15/15/15 16/16/16 14/14/14
f 19/19/19 18/18/18 17/17/17
f 19/19/19 20/20/20 18/18/18
f 23/23/23 22/22/22 21/21/21
f 23/23/23 24/24/24 22/22/22
