g pb_Mesh349836
v 0 -15 0
v -6 -15 0
v 0 1 0
v -6 1 0
v -6 -15 0
v -6 -15 -4
v -6 1 0
v -6 1 -4
v -6 -15 -4
v 0 -15 -4
v -6 1 -4
v 0 1 -4
v 4 -15 -4
v 4 -15 0
v 4 1 -4
v 4 1 0
v 0 1 0
v -6 1 0
v 0 1 -4
v -6 1 -4
v 0 -15 -4
v -6 -15 -4
v 0 -15 0
v -6 -15 0
v 4 -15 -4
v 4 -15 0
v 4 1 -4
v 4 -15 -4
v 0 -15 23
v 0 1 23
v 4 -15 23
v 4 1 23
v 4 1 0
v 4 1 -4
v 0 -15 0
v 0 1 0
v 0 -15 14
v 0 1 14
v 4 -15 14
v 0 -15 14
v 0 1 14
v 4 1 14
v 4 1 14
v 4 -15 14
v 0 -15 23
v 0 1 23
v 4 -15 23
v 0 -15 23
v 0 12 14
v 4 12 14
v 0 12 23
v 4 12 23
v 4 1 23
v 4 -15 23
v 0 1 14
v 4 1 14
v 0 10 14
v 4 10 14
v 0 10 23
v 0 10 14
v 4 10 14
v 4 10 23
v 4 10 23
v 0 10 23
v 0 12 14
v 4 12 14
v -14 10 23
v -14 10 14
v -14 12 23
v -14 12 14
v 4 12 14
v 4 12 23
v 4 12 23
v 0 12 23
v 0 10 23
v 0 10 14
v -14 10 23
v -14 10 14
v -14 12 23
v -14 10 23
v -14 10 14
v -14 12 14
v -14 12 14
v -14 12 23
v -8 1 -4.000099
v -6 -15 -4
v -6 1 -4
v -8 -15 -4.000099
vt 0 -15
vt -6 -15
vt 0 1
vt -6 1
vt 0 -15
vt -4 -15
vt 0 1
vt -4 1
vt 6 -15
vt 0 -15
vt 6 1
vt 0 1
vt 4 -15
vt 0 -15
vt 4 1
vt 0 1
vt 0 0
vt 6 0
vt 0 -4
vt 6 -4
vt 0 -4
vt -6 -4
vt 0 0
vt -6 0
vt 4 -4
vt 4 0
vt -4 1
vt -4 -15
vt 0 -15
vt 0 1
vt 4 -15
vt 4 1
vt -4 0
vt -4 -4
vt 0 -15
vt 0 1
vt 14 -15
vt 14 1
vt 4 14
vt 0 14
vt 0 14
vt -4 14
vt -14 1
vt -14 -15
vt 23 -15
vt 23 1
vt 4 23
vt 0 23
vt 0 14
vt -4 14
vt 0 23
vt -4 23
vt -23 1
vt -23 -15
vt 0 1
vt -4 1
vt 0 10
vt -4 10
vt 23 10
vt 14 10
vt -14 10
vt -23 10
vt 4 10
vt 0 10
vt 0 12
vt -4 12
vt 23 10
vt 14 10
vt 23 12
vt 14 12
vt -14 12
vt -23 12
vt 4 12
vt 0 12
vt 0 23
vt 0 14
vt -14 23
vt -14 14
vt -14 12
vt -14 10
vt 14 10
vt 14 12
vt 14 14
vt 14 23
vt 8.000198 1
vt 6.000198 -15
vt 6.000198 1
vt 8.000198 -15
vn 0 0 1
vn 0 0 1
vn 0 0 1
vn 0 0 1
vn -1 0 0
vn -1 0 0
vn -1 0 0
vn -1 0 0
vn 0 0 -1
vn 0 0 -1
vn 0 0 -1
vn 0 0 -1
vn 1 0 0
vn 1 0 0
vn 1 0 0
vn 1 0 0
vn 0 1 0
vn 0 1 0
vn 0 1 0
vn 0 1 0
vn 0 -1 0
vn 0 -1 0
vn 0 -1 0
vn 0 -1 0
vn 0 -1 0
vn 0 -1 0
vn 0 0 -1
vn 0 0 -1
vn 0 0 1
vn 0 0 1
vn 0 0 1
vn 0 0 1
vn 0 1 0
vn 0 1 0
vn -1 0 0
vn -1 0 0
vn -1 0 0
vn -1 0 0
vn 0 -1 0
vn 0 -1 0
vn 0 1 0
vn 0 1 0
vn 1 0 0
vn 1 0 0
vn -1 0 0
vn -1 0 0
vn 0 -1 0
vn 0 -1 0
vn 0 1 0
vn 0 1 0
vn 0 1 0
vn 0 1 0
vn 1 0 0
vn 1 0 0
vn 0 0 -1
vn 0 0 -1
vn 0 0 -1
vn 0 0 -1
vn -1 0 0
vn -1 0 0
vn 1 0 0
vn 1 0 0
vn 0 0 1
vn 0 0 1
vn 0 0 -1
vn 0 0 -1
vn -1 0 0
vn -1 0 0
vn -1 0 0
vn -1 0 0
vn 1 0 0
vn 1 0 0
vn 0 0 1
vn 0 0 1
vn 0 -1 0
vn 0 -1 0
vn 0 -1 0
vn 0 -1 0
vn 0 0 1
vn 0 0 1
vn 0 0 -1
vn 0 0 -1
vn 0 1 0
vn 0 1 0
vn 4.959106E-05 0 -1
vn 4.959106E-05 0 -1
vn 4.959106E-05 0 -1
vn 4.959106E-05 0 -1
g pb_Mesh349836_0
f 3/3/3 2/2/2 1/1/1
f 3/3/3 4/4/4 2/2/2
f 7/7/7 6/6/6 5/5/5
f 7/7/7 8/8/8 6/6/6
f 11/11/11 10/10/10 9/9/9
f 11/11/11 12/12/12 10/10/10
f 15/15/15 14/14/14 13/13/13
f 15/15/15 16/16/16 14/14/14
f 19/19/19 18/18/18 17/17/17
f 19/19/19 20/20/20 18/18/18
f 23/23/23 22/22/22 21/21/21
f 23/23/23 24/24/24 22/22/22
f 25/25/25 23/23/23 21/21/21
f 25/25/25 26/26/26 23/23/23
f 27/27/27 10/10/10 12/12/12
f 27/27/27 28/28/28 10/10/10
f 31/31/31 30/30/30 29/29/29
f 31/31/31 32/32/32 30/30/30
f 33/33/33 19/19/19 17/17/17
f 33/33/33 34/34/34 19/19/19
f 37/37/37 36/36/36 35/35/35
f 37/37/37 38/38/38 36/36/36
f 39/39/39 23/23/23 26/26/26
f 39/39/39 40/40/40 23/23/23
f 41/41/41 33/33/33 17/17/17
f 41/41/41 42/42/42 33/33/33
f 43/43/43 14/14/14 16/16/16
f 43/43/43 44/44/44 14/14/14
f 45/45/45 38/38/38 37/37/37
f 45/45/45 46/46/46 38/38/38
f 47/47/47 40/40/40 39/39/39
f 47/47/47 48/48/48 40/40/40
f 51/51/51 50/50/50 49/49/49
f 51/51/51 52/52/52 50/50/50
f 53/53/53 44/44/44 43/43/43
f 53/53/53 54/54/54 44/44/44
f 57/57/57 56/56/56 55/55/55
f 57/57/57 58/58/58 56/56/56
f 59/59/59 38/38/38 46/46/46
f 59/59/59 60/60/60 38/38/38
f 61/61/61 53/53/53 43/43/43
f 61/61/61 62/62/62 53/53/53
f 63/63/63 30/30/30 32/32/32
f 63/63/63 64/64/64 30/30/30
f 65/65/65 58/58/58 57/57/57
f 65/65/65 66/66/66 58/58/58
f 69/69/69 68/68/68 67/67/67
f 69/69/69 70/70/70 68/68/68
f 71/71/71 62/62/62 61/61/61
f 71/71/71 72/72/72 62/62/62
f 73/73/73 64/64/64 63/63/63
f 73/73/73 74/74/74 64/64/64
f 77/77/77 76/76/76 75/75/75
f 77/77/77 78/78/78 76/76/76
f 79/79/79 64/64/64 74/74/74
f 79/79/79 80/80/80 64/64/64
f 81/81/81 65/65/65 57/57/57
f 81/81/81 82/82/82 65/65/65
f 83/83/83 51/51/51 49/49/49
f 83/83/83 84/84/84 51/51/51
f 87/87/87 86/86/86 85/85/85
f 86/86/86 88/88/88 85/85/85
