g pb_Mesh199130
v 0 -1 0
v -1 -1 4
v -4 -1 0
v -5 0 4
v -1 -1 4
v 0 -1 8
v -5 0 4
v -4 0 8
v 0 -1 8
v 0 -1 12
v -4 0 8
v -4 0 12
v 0 -1 20
v 0 -1 24
v -4 0 20
v -4 0 24
v 0 -1 24
v -1 -1 28
v -4 0 24
v -5 0 28
v -4 -1 0
v -5 0 4
v -8 -1 0
v -8 0 4
v -5 0 4
v -4 0 8
v -8 0 4
v -8 0.5 8
v -4 0 8
v -4 0 12
v -8 0.5 8
v -8 0.5 12
v -4 0 20
v -4 0 24
v -8 0 20
v -8 0.5 24
v -4 0 24
v -5 0 28
v -8 0.5 24
v -8 0 28
v -5 0 28
v -6 0.5 32.25
v -8 0 28
v -8 0.5 32.25
v -8 -1 0
v -8 0 4
v -12 0 0.5
v -12 0.5 4
v -8 0 4
v -8 0.5 8
v -12 0.5 4
v -12 0 8
v -8 0.5 8
v -8 0.5 12
v -12 0 8
v -12 0 12
v -8 0 20
v -8 0.5 24
v -12 0 20
v -12 0 24
v -8 0.5 24
v -8 0 28
v -12 0 24
v -12 0 28
v -12 0 28
v -12 0.5 32.25
v -12 0 0.5
v -12 0.5 4
v -16 0 0
v -16 0 4
v -12 0.5 4
v -12 0 8
v -16 0 4
v -16 0 8
v -12 0 8
v -12 0 12
v -16 0 8
v -16 0 12
v -12 0 20
v -12 0 24
v -16 0 20
v -16 0 24
v -12 0 28
v -16 0 28
v -12 0.5 32.25
v -16 0 28
v -16 0.5 37.75
v -16 0 0
v -16 0 4
v -20 0 0
v -20 0 4
v -16 0 8
v -20 0 4
v -20 0.5 8
v -16 0 8
v -16 0 12
v -20 0.5 8
v -20 0 12
v -20 0 20
v -20 0 24
v -20 0 28
v -16 0 28
v -16 0.5 37.75
v -20 0 28
v -20 0 37.25
v -24 0 0
v -24 0 4
v -20 0 4
v -20 0.5 8
v -24 0 4
v -24 0 8
v -20 0.5 8
v -20 0 12
v -24 0 8
v -24 0 12
v -24 0 20
v -24 0 24
v -24 0 28
v -20 0 37.25
v -24 0 37.25
v -1 -1 28
v -6 0.5 32.25
v -5 0 28
v -1 -1 28
v -2 -1 31.75
v -6 0.5 32.25
v -12 -1 -3.5
v -8 -1 0
v -12 0 0.5
v -8 -2.25 -4
v -20 -1.25 -4
v -16 0 0
v -20 0 0
v -16 -1.25 -4
v -16 -1.25 -4
v -12 0 0.5
v -16 0 0
v -12 -1 -3.5
v -24 -1.25 -4
v -24 0 0
v -20 0 41.75
v -24 0 41.75
v -16 0.5 43.25
v -20 0 37.25
v -16 0.5 37.75
v -20 0 41.75
v -12 0.5 43.25
v -16 0.5 37.75
v -12 0.5 32.25
v -16 0.5 43.25
v -8 0.5 36.25
v -8 0.5 32.25
v -20 0 46.25
v -24 0 46.25
v -11 -1 47.75
v -16 0.5 43.25
v -12 0.5 43.25
v -16 -1 47.75
v -7 -1 40.75
v -12 0.5 43.25
v -8 0.5 36.25
v -11 -1 47.75
v -2 -1 40.75
v -6 -1 36.25
v -2 -1 36.25
v -6 -1 40.75
v -6 0.5 32.25
v -2 -1 31.75
v -6 -1 36.25
v -2 -1 31.75
v -8 0.5 36.25
v -6 -1 36.25
v -7 -1 40.75
v -7 -1 40.75
v -6 0.5 32.25
v -6 0.5 32.25
v -6 -1 36.25
v -8 0.5 36.25
v -20 0 46.25
v -16 0.5 43.25
v -16 -1 47.75
v -20 0 46.25
vt 0 0
vt 1 4
vt 4 0
vt 5 4
vt 0.7276069 3.919273
vt -0.2425356 7.926619
vt 4.850713 3.919273
vt 3.88057 7.926619
vt -0.2425356 8
vt -0.2425356 12
vt 3.88057 8
vt 3.88057 12
vt -0.2425356 20
vt -0.2425356 24
vt 3.88057 20
vt 3.88057 24
vt -0.2425356 24.01472
vt 0.7276069 28.02207
vt 3.88057 24.01472
vt 4.850713 28.02207
vt 4 -0.2425356
vt 5 3.88057
vt 8 -0.2425356
vt 8 3.88057
vt 5 4
vt 4 8
vt 8 4
vt 8 8
vt 3.969111 8
vt 3.969111 12
vt 8.00024 8
vt 8.00024 12
vt 4 20
vt 4 24
vt 8 20
vt 8 24
vt 3.969112 24.00385
vt 4.96139 28.00577
vt 8.00024 24.00385
vt 7.938223 28.0173
vt 5 27.80822
vt 6 32.08753
vt 8 27.80822
vt 8 32.08753
vt 7.601503 -0.6373714
vt 7.8152 3.480192
vt 11.7228 -0.1226759
vt 11.82965 3.393278
vt 7.938223 3.84744
vt 8.00024 7.878092
vt 11.96935 3.84744
vt 11.90734 7.755951
vt 7.876205 8
vt 7.876205 12
vt 11.90733 8
vt 11.90733 12
vt 8 19.84556
vt 8 23.87669
vt 12 19.84556
vt 12 23.81467
vt 7.876206 23.63428
vt 7.938223 27.66493
vt 11.90734 23.63428
vt 11.90734 27.60386
vt 12 27.80822
vt 12 32.08753
vt 11.99809 0.4646813
vt 12.00701 4.000204
vt 15.99745 -0.04039335
vt 15.99745 3.919417
vt 11.84532 3.725299
vt 11.90734 7.755951
vt 15.87645 3.725299
vt 15.87645 7.694881
vt 12 8
vt 12 12
vt 16 8
vt 16 12
vt 12 20
vt 12 24
vt 16 20
vt 16 24
vt 12 28
vt 16 28
vt 12 32.08753
vt 16 27.80822
vt 16 37.54985
vt 16 0
vt 16 4
vt 20 0
vt 20 4
vt 16 8
vt 20 4
vt 20 8
vt 15.87645 8
vt 15.87645 12
vt 19.90757 8
vt 19.84556 12
vt 20 20
vt 20 24
vt 20 28
vt 16 27.96325
vt 16 37.72607
vt 20 27.96325
vt 20 37.20111
vt 24 0
vt 24 4
vt 20 3.969112
vt 20 8.00024
vt 24 3.969112
vt 24 7.938223
vt 19.78354 7.57274
vt 19.84556 11.60339
vt 23.81467 7.57274
vt 23.81467 11.54232
vt 24 20
vt 24 24
vt 24 28
vt 20 37.25
vt 24 37.25
vt 0.7276069 27.88543
vt 5.942123 32.14234
vt 4.850712 27.88543
vt 0.5706356 27.9949
vt 1.502941 31.7623
vt 5.774671 32.26462
vt 11.5091 -4.24024
vt 7.601503 -0.6373714
vt 11.7228 -0.1226759
vt 7.334383 -4.812878
vt 20 -4.190763
vt 16 0
vt 20 0
vt 16 -4.190763
vt 15.93902 -4.37663
vt 11.99086 0.3376595
vt 15.98781 -0.1861505
vt 11.95182 -3.77836
vt 24 -4.190763
vt 24 0
vt 20 41.75
vt 24 41.75
vt 15.81443 43.25
vt 19.84556 37.25
vt 15.81443 37.75
vt 19.84556 41.75
vt 12 43.25
vt 16 37.75
vt 12 32.25
vt 16 43.25
vt 8 36.25
vt 8 32.25
vt 20 46.25
vt 24 46.25
vt 11 45.61586
vt 16 40.87244
vt 12 40.87244
vt 16 45.61586
vt 6.066642 40.57241
vt 11.2574 43.13288
vt 7.569473 35.96355
vt 9.754571 47.74173
vt 2 40.75
vt 6 36.25
vt 2 36.25
vt 6 40.75
vt 5.722535 31.09303
vt 1.454028 30.56402
vt 5.139484 35.32505
vt 2 31.75
vt 6.7 36.51353
vt 4.2 36.51353
vt 5 41.05336
vt 7 40.75
vt 6 32.25
vt 5.1 31.80941
vt 4.2 35.98553
vt 6.7 35.98553
vt 19.84556 46.25
vt 15.93846 41.52956
vt 15.75241 46.26932
vt 19.84556 44.6894
vn 0 1 0
vn 0.11931 0.97724 -0.0894825
vn 0.11931 0.97724 -0.0894825
vn 0.23862 0.95448 -0.178965
vn 0.242091 0.968364 -0.06052275
vn 0.242091 0.968364 -0.06052275
vn 0.242091 0.968364 -0.06052275
vn 0.242091 0.968364 -0.06052275
vn 0.2425356 0.9701425 0
vn 0.2425356 0.9701425 0
vn 0.2425356 0.9701425 0
vn 0.2425356 0.9701425 0
vn 0.2425356 0.9701425 0
vn 0.2425356 0.9701425 0
vn 0.2425356 0.9701425 0
vn 0.2425356 0.9701425 0
vn 0.242091 0.968364 0.06052275
vn 0.242091 0.968364 0.06052275
vn 0.242091 0.968364 0.06052275
vn 0.242091 0.968364 0.06052275
vn 0 0.9701425 -0.2425356
vn 0 0.9701425 -0.2425356
vn 0 0.9701425 -0.2425356
vn 0 0.9701425 -0.2425356
vn 0 1 0
vn 0.06154574 0.992366 -0.06154574
vn 0.06154574 0.992366 -0.06154574
vn 0.1230915 0.9847319 -0.1230915
vn 0.1240347 0.9922779 0
vn 0.1240347 0.9922779 0
vn 0.1240347 0.9922779 0
vn 0.1240347 0.9922779 0
vn 0 1 0
vn 0.06154574 0.992366 -0.06154574
vn 0.06154574 0.992366 -0.06154574
vn 0.1230915 0.9847319 -0.1230915
vn 0.1239752 0.9918012 0.03099379
vn 0.06198758 0.9920396 0.07751426
vn 0.06198758 0.9920396 0.07751426
vn 0 0.9922779 0.1240347
vn 0 0.9931507 -0.1168412
vn 0 0.9931506 -0.1168412
vn 0 0.9931506 -0.1168412
vn 0 0.9931506 -0.1168412
vn 0.2075955 0.9490077 -0.2372519
vn 0.1652012 0.965732 -0.1888014
vn 0.1652012 0.965732 -0.1888014
vn 0.122807 0.9824561 -0.1403509
vn 0.1230915 0.9847319 -0.1230915
vn 0 0.9847319 0
vn 0 0.9847319 0
vn -0.1230915 0.9847319 0.1230915
vn -0.1240347 0.9922779 0
vn -0.1240347 0.9922779 0
vn -0.1240347 0.9922779 0
vn -0.1240347 0.9922779 0
vn 0 0.9922779 -0.1240347
vn -0.06201737 0.9922779 -0.06201737
vn -0.06201737 0.9922779 -0.06201737
vn -0.1240347 0.9922779 0
vn -0.1230915 0.9847319 0.1230915
vn -0.06154574 0.992366 0.06154574
vn -0.06154574 0.992366 0.06154574
vn 0 1 0
vn 0 0.9931506 -0.1168412
vn 0 0.9931506 -0.1168412
vn 0.01767491 0.9897949 -0.1413993
vn -0.05317991 0.9910364 -0.07069963
vn -0.05317991 0.9910364 -0.07069963
vn -0.1240347 0.9922779 0
vn -0.1230915 0.9847319 0.1230915
vn -0.06154574 0.992366 0.06154574
vn -0.06154574 0.992366 0.06154574
vn 0 1 0
vn 0 1 0
vn 0 1 0
vn 0 1 0
vn 0 1 0
vn 0 1 0
vn 0 1 0
vn 0 1 0
vn 0 1 0
vn 0 1 0
vn 0 1 0
vn -0.03512316 0.9946856 -0.08396474
vn -0.03512316 0.9946856 -0.08396474
vn -0.07024632 0.9962206 -0.05108824
vn 0 1 0
vn 0 1 0
vn 0 1 0
vn 0 1 0
vn 0.06154574 0.992366 -0.06154574
vn 0.06154574 0.992366 -0.06154574
vn 0.1230915 0.9847319 -0.1230915
vn 0.1240347 0.9922779 0
vn 0.06201737 0.9922779 0.06201737
vn 0.06201737 0.9922779 0.06201737
vn 0 0.9922779 0.1240347
vn 0 1 0
vn 0 1 0
vn 0 1 0
vn 0 0.9986877 -0.05121475
vn -0.06201737 0.9954828 -0.02560738
vn -0.06201737 0.9954828 -0.02560738
vn -0.1240347 0.9922779 0
vn 0 1 0
vn 0 1 0
vn 0 0.9922779 -0.1240347
vn -0.06201737 0.9922779 -0.06201737
vn -0.06201737 0.9922779 -0.06201737
vn -0.1240347 0.9922779 0
vn -0.1230915 0.9847319 0.1230915
vn -0.06154574 0.992366 0.06154574
vn -0.06154574 0.992366 0.06154574
vn 0 1 0
vn 0 1 0
vn 0 1 0
vn 0 1 0
vn 0 1 0
vn 0 1 0
vn 0.2421417 0.9685667 -0.05697451
vn 0.2421417 0.9685667 -0.05697451
vn 0.2421417 0.9685667 -0.05697451
vn 0.36 0.928 0.096
vn 0.36 0.928 0.096
vn 0.36 0.928 0.096
vn 0.2300635 0.9362758 -0.2629297
vn 0.2300635 0.9362758 -0.2629297
vn 0.2075955 0.9490077 -0.2372519
vn 0.2525316 0.923544 -0.2886075
vn 0 0.95448 -0.298275
vn 0 0.95448 -0.298275
vn 0 0.95448 -0.298275
vn 0 0.95448 -0.298275
vn 0.003477728 0.9617571 -0.2702461
vn 0.003477728 0.9617571 -0.2702461
vn 0.03725849 0.9538172 -0.2980679
vn -0.03030303 0.969697 -0.2424242
vn 0 0.95448 -0.298275
vn 0 0.95448 -0.298275
vn 0 1 0
vn 0 1 0
vn -0.1240347 0.9922779 0
vn -0.1240347 0.9922779 0
vn -0.1240347 0.9922779 0
vn -0.1240347 0.9922779 0
vn 0 1 0
vn 0 1 0
vn 0 1 0
vn 0 1 0
vn 0 1 0
vn 0 1 0
vn 0 1 0
vn 0 1 0
vn 0 0.9486833 0.3162278
vn 0 0.9486833 0.3162278
vn 0 0.9486833 0.3162278
vn 0 0.9486833 0.3162278
vn 0.378087 0.9002071 0.2160497
vn 0.378087 0.9002071 0.2160497
vn 0.378087 0.9002071 0.2160497
vn 0.378087 0.9002071 0.2160497
vn 0 1 0
vn 0 1 0
vn 0 1 0
vn 0 1 0
vn 0.3673895 0.8708491 0.3265684
vn 0.3673895 0.8708491 0.3265684
vn 0.3673895 0.8708491 0.3265684
vn 0 1 0
vn 0.5947368 0.7929823 0.1321637
vn 0.5947368 0.7929823 0.1321637
vn 0.5947368 0.7929823 0.1321637
vn 0 1 0
vn 0 1 0
vn 0.5746958 0.766261 0.2873479
vn 0.5746958 0.766261 0.2873479
vn 0.5746958 0.766261 0.2873479
vn -0.1240347 0.9922779 0
vn 0.1177603 0.9420824 0.3140275
vn 0.1177603 0.9420824 0.3140275
vn 0.1177603 0.9420824 0.3140275
g pb_Mesh199130_0
f 3/3/3 2/2/2 1/1/1
f 3/3/3 4/4/4 2/2/2
f 7/7/7 6/6/6 5/5/5
f 7/7/7 8/8/8 6/6/6
f 11/11/11 10/10/10 9/9/9
f 11/11/11 12/12/12 10/10/10
f 15/15/15 14/14/14 13/13/13
f 15/15/15 16/16/16 14/14/14
f 19/19/19 18/18/18 17/17/17
f 19/19/19 20/20/20 18/18/18
f 23/23/23 22/22/22 21/21/21
f 23/23/23 24/24/24 22/22/22
f 27/27/27 26/26/26 25/25/25
f 27/27/27 28/28/28 26/26/26
f 31/31/31 30/30/30 29/29/29
f 31/31/31 32/32/32 30/30/30
f 35/35/35 34/34/34 33/33/33
f 35/35/35 36/36/36 34/34/34
f 39/39/39 38/38/38 37/37/37
f 39/39/39 40/40/40 38/38/38
f 43/43/43 42/42/42 41/41/41
f 43/43/43 44/44/44 42/42/42
f 47/47/47 46/46/46 45/45/45
f 47/47/47 48/48/48 46/46/46
f 51/51/51 50/50/50 49/49/49
f 51/51/51 52/52/52 50/50/50
f 55/55/55 54/54/54 53/53/53
f 55/55/55 56/56/56 54/54/54
f 59/59/59 58/58/58 57/57/57
f 59/59/59 60/60/60 58/58/58
f 63/63/63 62/62/62 61/61/61
f 63/63/63 64/64/64 62/62/62
f 65/65/65 44/44/44 43/43/43
f 65/65/65 66/66/66 44/44/44
f 69/69/69 68/68/68 67/67/67
f 69/69/69 70/70/70 68/68/68
f 73/73/73 72/72/72 71/71/71
f 73/73/73 74/74/74 72/72/72
f 77/77/77 76/76/76 75/75/75
f 77/77/77 78/78/78 76/76/76
f 81/81/81 80/80/80 79/79/79
f 81/81/81 82/82/82 80/80/80
f 82/82/82 83/83/83 80/80/80
f 82/82/82 84/84/84 83/83/83
f 86/86/86 85/85/85 65/65/65
f 86/86/86 87/87/87 85/85/85
f 90/90/90 89/89/89 88/88/88
f 90/90/90 91/91/91 89/89/89
f 93/93/93 92/92/92 89/89/89
f 93/93/93 94/94/94 92/92/92
f 97/97/97 96/96/96 95/95/95
f 97/97/97 98/98/98 96/96/96
f 99/99/99 82/82/82 81/81/81
f 99/99/99 100/100/100 82/82/82
f 100/100/100 84/84/84 82/82/82
f 100/100/100 101/101/101 84/84/84
f 104/104/104 103/103/103 102/102/102
f 104/104/104 105/105/105 103/103/103
f 106/106/106 91/91/91 90/90/90
f 106/106/106 107/107/107 91/91/91
f 110/110/110 109/109/109 108/108/108
f 110/110/110 111/111/111 109/109/109
f 114/114/114 113/113/113 112/112/112
f 114/114/114 115/115/115 113/113/113
f 116/116/116 100/100/100 99/99/99
f 116/116/116 117/117/117 100/100/100
f 117/117/117 101/101/101 100/100/100
f 117/117/117 118/118/118 101/101/101
f 118/118/118 119/119/119 101/101/101
f 118/118/118 120/120/120 119/119/119
f 123/123/123 122/122/122 121/121/121
f 126/126/126 125/125/125 124/124/124
f 129/129/129 128/128/128 127/127/127
f 128/128/128 130/130/130 127/127/127
f 133/133/133 132/132/132 131/131/131
f 132/132/132 134/134/134 131/131/131
f 137/137/137 136/136/136 135/135/135
f 136/136/136 138/138/138 135/135/135
f 140/140/140 133/133/133 139/139/139
f 133/133/133 131/131/131 139/139/139
f 119/119/119 120/120/120 141/141/141
f 120/120/120 142/142/142 141/141/141
f 145/145/145 144/144/144 143/143/143
f 144/144/144 146/146/146 143/143/143
f 149/149/149 148/148/148 147/147/147
f 148/148/148 150/150/150 147/147/147
f 152/152/152 149/149/149 151/151/151
f 149/149/149 147/147/147 151/151/151
f 141/141/141 142/142/142 153/153/153
f 142/142/142 154/154/154 153/153/153
f 157/157/157 156/156/156 155/155/155
f 156/156/156 158/158/158 155/155/155
f 161/161/161 160/160/160 159/159/159
f 160/160/160 162/162/162 159/159/159
f 165/165/165 164/164/164 163/163/163
f 164/164/164 166/166/166 163/163/163
f 169/169/169 168/168/168 167/167/167
f 164/164/164 165/165/165 170/170/170
f 173/173/173 172/172/172 171/171/171
f 174/174/174 166/166/166 164/164/164
f 151/151/151 175/175/175 152/152/152
f 178/178/178 177/177/177 176/176/176
f 179/179/179 143/143/143 146/146/146
f 182/182/182 181/181/181 180/180/180
