g pb_Mesh133708
v 0 0 -1
v -8 0 -1
v 0 4 -1
v -8 4 -1
v -8 0 -8
v 0 0 -8
v -8 4 -8
v 0 4 -8
v 0 0 -8
v 0 0 -1
v 0 4 -8
v 0 4 -1
v 0 4 -1
v -8 4 -1
v 0 4 -8
v -8 4 -8
v 0 0 -8
v -8 0 -8
v 0 0 -1
v -8 0 -1
v -8 4 -1
v -8 4 -8
v -8 3 -3
v -8 3 -6
v -8 4 -8
v -8 0 -8
v -8 3 -6
v -8 0 -6
v -8 0 -1
v -8 4 -1
v -8 0 -3
v -8 3 -3
v -8 3 -3
v -8 3 -6
v -9 3 -3
v -9 3 -6
v -8 3 -6
v -8 0 -6
v -9 3 -6
v -9 0 -6
v -8 0 -3
v -8 3 -3
v -9 0 -3
v -9 3 -3
v -8 3 -3
v -8 0 -3
v -8 3 -7
v -8 0 -7
vt 0 0
vt 8 0
vt 0 4
vt 8 4
vt -8 0
vt 0 0
vt -8 4
vt 0 4
vt -8 0
vt -1 0
vt -8 4
vt -1 4
vt 0 -1
vt -8 -1
vt 0 -8
vt -8 -8
vt 0 -8
vt 8 -8
vt 0 -1
vt 8 -1
vt 1 4
vt 8 4
vt 3 3
vt 6 3
vt 8 4
vt 8 0
vt 6 3
vt 6 0
vt 1 0
vt 1 4
vt 3 0
vt 3 3
vt -8 -3
vt -8 -6
vt -9 -3
vt -9 -6
vt -8 3
vt -8 0
vt -9 3
vt -9 0
vt 8 0
vt 8 3
vt 9 0
vt 9 3
vt 3 3
vt 3 0
vt 7 3
vt 7 0
vn 0 0 -1
vn 0 0 -1
vn 0 0 -1
vn 0 0 -1
vn 0 0 1
vn 0 0 1
vn 0 0 1
vn 0 0 1
vn -1 0 0
vn -1 0 0
vn -1 0 0
vn -1 0 0
vn 0 -1 0
vn 0 -1 0
vn 0 -1 0
vn 0 -1 0
vn 0 1 0
vn 0 1 0
vn 0 1 0
vn 0 1 0
vn 1 0 0
vn 1 0 0
vn 1 0 0
vn 1 0 0
vn 1 0 0
vn 1 0 0
vn 1 0 0
vn 1 0 0
vn 1 0 0
vn 1 0 0
vn 1 0 0
vn 1 0 0
vn 0 -1 0
vn 0 -1 0
vn 0 -1 0
vn 0 -1 0
vn 0 0 1
vn 0 0 1
vn 0 0 1
vn 0 0 1
vn 0 0 -1
vn 0 0 -1
vn 0 0 -1
vn 0 0 -1
vn 1 0 0
vn 1 0 0
vn 1 0 0
vn 1 0 0
g pb_Mesh133708_0
f 2/2/2 4/4/4 3/3/3
f 1/1/1 2/2/2 3/3/3
f 6/6/6 8/8/8 7/7/7
f 5/5/5 6/6/6 7/7/7
f 10/10/10 12/12/12 11/11/11
f 9/9/9 10/10/10 11/11/11
f 14/14/14 16/16/16 15/15/15
f 13/13/13 14/14/14 15/15/15
f 18/18/18 20/20/20 19/19/19
f 17/17/17 18/18/18 19/19/19
f 23/23/23 22/22/22 21/21/21
f 23/23/23 24/24/24 22/22/22
f 27/27/27 26/26/26 25/25/25
f 27/27/27 28/28/28 26/26/26
f 31/31/31 30/30/30 29/29/29
f 31/31/31 32/32/32 30/30/30
f 35/35/35 34/34/34 33/33/33
f 35/35/35 36/36/36 34/34/34
f 39/39/39 38/38/38 37/37/37
f 39/39/39 40/40/40 38/38/38
f 43/43/43 42/42/42 41/41/41
f 43/43/43 44/44/44 42/42/42
f 45/45/45 46/46/46 47/47/47
f 46/46/46 48/48/48 47/47/47
