g pb_Mesh241120
v 0 0 -8
v -8 0 -8
v 0 0 0
v -8 0 0
v 0 8 0
v 0 0 0
v -2 8 0
v -4 8 0
v -8 0 0
v -6 8 0
v -8 8 0
v -8 8 0
v -8 0 0
v -8 8 -2
v -8 8 -4
v -8 0 -8
v -8 8 -6
v -8 8 -8
v -6 8 -8
v -8 8 -8
v -8 0 -8
v -4 8 -8
v 0 0 -8
v -2 8 -8
v 0 8 -8
v 0 8 -6
v 0 8 -8
v 0 0 -8
v 0 8 -4
v 0 0 0
v 0 8 -2
v 0 8 0
v -4 8 -4
v -2 8 -4
v -2 8 -2
v -4 8 -2
v 0 8 -4
v 0 8 -2
v -2 8.5 -2
v 0 8.5 -2
v 0 8.5 0
v -2 8.5 0
v -2 8 0
v -4 8 0
v -8 8 -4
v -6 8 -4
v -6 8 -2
v -8 8 -2
v -6 8 0
v -8 8.500051 -8
v -6 8.500051 -8
v -6 8.49995 -6.5
v -8 8.500051 -6
v -6.5 8.49995 -6
v -6 8 -8
v -4 8 -8
v -4 8 -6
v -6 8 -6
v -8 8 -6
v -2 8 -8
v -2 8 -6
v -2 8.5 -8
v 0 8.5 -8
v 0 8.5 -6
v -2 8.5 -6
v 0 8 -6
v -2 8.5 -8
v 0 8.5 -8
v 0 8.5 -8
v 0 8.5 -6
v -2 8 -6
v -2 8 -8
v -2 8.5 -6
v -2 8.5 -8
v 0 8 -6
v -2 8 -6
v 0 8.5 -6
v -2 8.5 -6
v -8 8.500051 -8
v -6 8.500051 -8
v -8 8.500051 -6
v -8 8.500051 -8
v -6 8 -6
v -8 8 -6
v -6.5 8.49995 -6
v -8 8.500051 -6
v -8 8.500051 0
v -8 8.500051 -2
v -6 8.500051 0
v -8 8.500051 0
v -2 8 -2
v 0 8 -2
v -2 8.5 -2
v 0 8.5 -2
v 0 8.5 -2
v 0 8.5 0
v -2 8 0
v -2 8 -2
v -2 8.5 0
v -2 8.5 -2
v 0 8.5 0
v -2 8.5 0
v -6 8.49995 -6.5
v -6 8.500051 -8
v -6 8 -8
v -6 8 -6
v -6 8 -6
v -6.5 8.49995 -6
v -6 8.49995 -6.5
v -6.25 8.49995 -2
v -6 8.49995 -1.75
v -6 8.500051 0
v -8 8.500051 0
v -8 8.500051 -2
v -6.25 8.49995 -2
v -8 8.500051 -2
v -8 8 -2
v -6 8 -2
v -6 8.25 -2
v -6 8.25 -2
v -6 8.49995 -1.75
v -6.25 8.49995 -2
v -6 8.500051 0
v -6 8.49995 -1.75
v -6 8.25 -2
v -6 8 0
v -6 8 -2
vt 0 -8
vt -8 -8
vt 0 0
vt -8 0
vt 0 8
vt 0 0
vt -2 8
vt -4 8
vt -8 0
vt -6 8
vt -8 8
vt 0 8
vt 0 0
vt -2 8
vt -4 8
vt -8 0
vt -6 8
vt -8 8
vt 6 8
vt 8 8
vt 8 0
vt 4 8
vt 0 0
vt 2 8
vt 0 8
vt 6 8
vt 8 8
vt 8 0
vt 4 8
vt 0 0
vt 2 8
vt 0 8
vt 4 -4
vt 2 -4
vt 2 -2
vt 4 -2
vt 0 -4
vt 0 -2
vt 2 -2
vt 0 -2
vt 0 0
vt 2 0
vt 2 0
vt 4 0
vt 8 -4
vt 6 -4
vt 6 -2
vt 8 -2
vt 6 0
vt 8.000267 -8.000267
vt 6.000267 -8.000267
vt 6.000267 -6.500267
vt 8.000267 -6.000267
vt 6.500267 -6.000267
vt 6 -8
vt 4 -8
vt 4 -6
vt 6 -6
vt 8 -6
vt 2 -8
vt 2 -6
vt 2 -8
vt 0 -8
vt 0 -6
vt 2 -6
vt 0 -6
vt 2 8.5
vt 0 8.5
vt 8 8.5
vt 6 8.5
vt -6 8
vt -8 8
vt -6 8.5
vt -8 8.5
vt 0 8
vt -2 8
vt 0 8.5
vt -2 8.5
vt 8 8.500051
vt 6 8.500051
vt -6 8.500051
vt -8 8.500051
vt -6 8
vt -8 8
vt -6.5 8.49995
vt -8 8.500051
vt 0 8.500051
vt -2 8.500051
vt -6 8.500051
vt -8 8.500051
vt 2 8
vt 0 8
vt 2 8.5
vt 0 8.5
vt 2 8.5
vt 0 8.5
vt 0 8
vt -2 8
vt 0 8.5
vt -2 8.5
vt 0 8.5
vt -2 8.5
vt 6.5 8.49995
vt 8 8.500051
vt 8 8
vt 6 8
vt 0 11.43106
vt -0.3535534 12.04339
vt 0.3535534 12.04339
vt 6.250255 -1.999745
vt 6.000255 -1.749745
vt 6.000255 0.0002551225
vt 8.000256 0.0002551207
vt 8.000256 -1.999745
vt 6.25 8.49995
vt 8 8.500051
vt 8 8
vt 6 8
vt 6 8.25
vt 10.07611 -0.7139726
vt 10.25284 -0.4077965
vt 10.42963 -0.7139726
vt 0 8.500051
vt 1.75 8.49995
vt 2 8.25
vt 0 8
vt 2 8
vn 0 -1 0
vn 0 -1 0
vn 0 -1 0
vn 0 -1 0
vn 0 0 1
vn 0 0 1
vn 0 0 1
vn 0 0 1
vn 0 0 1
vn 0 0 1
vn 0 0 1
vn -1 0 0
vn -1 0 0
vn -1 0 0
vn -1 0 0
vn -1 0 0
vn -1 0 0
vn -1 0 0
vn 0 0 -1
vn 0 0 -1
vn 0 0 -1
vn 0 0 -1
vn 0 0 -1
vn 0 0 -1
vn 0 0 -1
vn 1 0 0
vn 1 0 0
vn 1 0 0
vn 1 0 0
vn 1 0 0
vn 1 0 0
vn 1 0 0
vn 0 1 0
vn 0 1 0
vn 0 1 0
vn 0 1 0
vn 0 1 0
vn 0 1 0
vn 0 1 0
vn 0 1 0
vn 0 1 0
vn 0 1 0
vn 0 1 0
vn 0 1 0
vn 0 1 0
vn 0 1 0
vn 0 1 0
vn 0 1 0
vn 0 1 0
vn 2.503395E-05 1 3.33786E-05
vn 0 1 6.67572E-05
vn 3.89417E-05 1 4.45048E-05
vn 5.841255E-05 1 3.33786E-05
vn 6.67572E-05 1 6.67572E-05
vn 0 1 0
vn 0 1 0
vn 0 1 0
vn 0 1 0
vn 0 1 0
vn 0 1 0
vn 0 1 0
vn 0 1 0
vn 0 1 0
vn 0 1 0
vn 0 1 0
vn 0 1 0
vn 0 0 -1
vn 0 0 -1
vn 1 0 0
vn 1 0 0
vn -1 0 0
vn -1 0 0
vn -1 0 0
vn -1 0 0
vn 0 0 1
vn 0 0 1
vn 0 0 1
vn 0 0 1
vn 0 0 -1
vn 0 0 -1
vn -1 0 0
vn -1 0 0
vn 0 0 1
vn 0 0 1
vn 0 0 1
vn 0 0 1
vn -1 0 0
vn -1 0 0
vn 0 0 1
vn 0 0 1
vn 0 0 -1
vn 0 0 -1
vn 0 0 -1
vn 0 0 -1
vn 1 0 0
vn 1 0 0
vn -1 0 0
vn -1 0 0
vn -1 0 0
vn -1 0 0
vn 0 0 1
vn 0 0 1
vn 1 0 0
vn 1 0 0
vn 1 0 0
vn 1 0 0
vn 0.5773312 0.5773884 0.5773312
vn 0.5773312 0.5773884 0.5773312
vn 0.5773312 0.5773884 0.5773312
vn 3.814697E-05 1 -3.576279E-05
vn 5.722046E-05 1 -5.722046E-05
vn 2.861023E-05 1 -5.364418E-05
vn 2.861023E-05 1 -2.503395E-05
vn 5.722046E-05 1 0
vn 0 0 -1
vn 0 0 -1
vn 0 0 -1
vn 0 0 -1
vn 0 0 -1
vn 0.5773121 0.5774266 -0.5773121
vn 0.5773121 0.5774266 -0.5773121
vn 0.5773121 0.5774266 -0.5773121
vn 1 0 0
vn 1 0 0
vn 1 0 0
vn 1 0 0
vn 1 0 0
g pb_Mesh241120_0
g pb_Mesh241120_1
f 3/3/3 2/2/2 1/1/1
f 3/3/3 4/4/4 2/2/2
f 7/7/7 6/6/6 5/5/5
f 7/7/7 8/8/8 6/6/6
f 6/6/6 8/8/8 9/9/9
f 9/9/9 8/8/8 10/10/10
f 10/10/10 11/11/11 9/9/9
f 14/14/14 13/13/13 12/12/12
f 14/14/14 15/15/15 13/13/13
f 13/13/13 15/15/15 16/16/16
f 16/16/16 15/15/15 17/17/17
f 17/17/17 18/18/18 16/16/16
f 21/21/21 20/20/20 19/19/19
f 19/19/19 22/22/22 21/21/21
f 21/21/21 22/22/22 23/23/23
f 23/23/23 22/22/22 24/24/24
f 25/25/25 23/23/23 24/24/24
f 28/28/28 27/27/27 26/26/26
f 26/26/26 29/29/29 28/28/28
f 28/28/28 29/29/29 30/30/30
f 30/30/30 29/29/29 31/31/31
f 32/32/32 30/30/30 31/31/31
f 35/35/35 34/34/34 33/33/33
f 35/35/35 33/33/33 36/36/36
f 38/38/38 37/37/37 34/34/34
f 38/38/38 34/34/34 35/35/35
f 41/41/41 40/40/40 39/39/39
f 41/41/41 39/39/39 42/42/42
f 43/43/43 35/35/35 36/36/36
f 43/43/43 36/36/36 44/44/44
f 47/47/47 46/46/46 45/45/45
f 47/47/47 45/45/45 48/48/48
f 36/36/36 33/33/33 46/46/46
f 36/36/36 46/46/46 47/47/47
f 44/44/44 36/36/36 47/47/47
f 44/44/44 47/47/47 49/49/49
f 52/52/52 51/51/51 50/50/50
f 53/53/53 52/52/52 50/50/50
f 53/53/53 54/54/54 52/52/52
f 57/57/57 56/56/56 55/55/55
f 57/57/57 55/55/55 58/58/58
f 33/33/33 57/57/57 58/58/58
f 33/33/33 58/58/58 46/46/46
f 46/46/46 58/58/58 59/59/59
f 46/46/46 59/59/59 45/45/45
f 61/61/61 60/60/60 56/56/56
f 61/61/61 56/56/56 57/57/57
f 64/64/64 63/63/63 62/62/62
f 64/64/64 62/62/62 65/65/65
f 37/37/37 66/66/66 61/61/61
f 37/37/37 61/61/61 34/34/34
f 34/34/34 61/61/61 57/57/57
f 34/34/34 57/57/57 33/33/33
f 67/67/67 25/25/25 24/24/24
f 67/67/67 68/68/68 25/25/25
f 69/69/69 26/26/26 27/27/27
f 69/69/69 70/70/70 26/26/26
f 73/73/73 72/72/72 71/71/71
f 73/73/73 74/74/74 72/72/72
f 77/77/77 76/76/76 75/75/75
f 77/77/77 78/78/78 76/76/76
f 79/79/79 19/19/19 20/20/20
f 79/79/79 80/80/80 19/19/19
f 81/81/81 18/18/18 17/17/17
f 81/81/81 82/82/82 18/18/18
f 85/85/85 84/84/84 83/83/83
f 85/85/85 86/86/86 84/84/84
f 87/87/87 14/14/14 12/12/12
f 87/87/87 88/88/88 14/14/14
f 89/89/89 11/11/11 10/10/10
f 89/89/89 90/90/90 11/11/11
f 93/93/93 92/92/92 91/91/91
f 93/93/93 94/94/94 92/92/92
f 95/95/95 32/32/32 31/31/31
f 95/95/95 96/96/96 32/32/32
f 99/99/99 98/98/98 97/97/97
f 99/99/99 100/100/100 98/98/98
f 101/101/101 7/7/7 5/5/5
f 101/101/101 102/102/102 7/7/7
f 105/105/105 104/104/104 103/103/103
f 105/105/105 103/103/103 106/106/106
f 109/109/109 108/108/108 107/107/107
f 112/112/112 111/111/111 110/110/110
f 110/110/110 114/114/114 113/113/113
f 112/112/112 110/110/110 113/113/113
f 117/117/117 116/116/116 115/115/115
f 118/118/118 117/117/117 115/115/115
f 115/115/115 119/119/119 118/118/118
f 122/122/122 121/121/121 120/120/120
f 125/125/125 124/124/124 123/123/123
f 126/126/126 125/125/125 123/123/123
f 126/126/126 127/127/127 125/125/125
