g pb_Mesh386546
v -8 0 32
v -12 0 0
v -7.875 0 0
v -12 0 32
v -4 0 32
v -4.125 0 0
v 0 0 32
v 0 0 0
v -20 0 32
v -24.125 0 0
v -20 0 0
v -24 0 32
v -27.875 0 0
v -28 0 32
v -32 0 0
v -32 0 32
v 0 0 76
v -4 0 76
v -8 0 76
v -12 0 76
v -20 0 76
v -24 0 76
v -28 0 76
v -32 0 76
v -33 -22 22
v -33 -22 61
v -33 42 67
v 0 -22 22
v 0 42 67
v 0 -22 61
v -32 -4 63
v -32 -4 32
v -32 0 75.94576
v -32 0 32
v -32 -4 32
v 0 -4 32
v -32 0 32
v 0 0 32
v 0 -4 32
v 0 -4 63
v 0 0 32
v 0 0 75.94576
v -12 -7 0
v -20 -7 0
v -12 0 0
v -20 0 0
v -20 -7 0
v -20 -7 -80
v -20 0 0
v -20 0 -80
v -20 -7 -80
v -12 -7 -80
v -20 0 -80
v -12 0 -80
v -12 -7 -80
v -12 -7 0
v -12 0 -80
v -12 0 0
v -12 0.25 0
v -20 0.25 0
v -12 0.25 -80
v -20 0.25 -80
v -16 0 0
v -16 -4 -5.003098
v -12 0 0
v -12 -4 -5
v -16 -4 -5.003098
v -20 0 0
v -20 -4 -5
v -12 0.25 0
v -12 0.25 32
v -20 0.25 32
v -20 0.25 0
v -12 0.25 76
v -20 0.25 76
v -12 0 32
v -12 0 76
v -12 0.25 32
v -12 0.25 76
v -12 0 76
v -20 0 76
v -12 0.25 76
v -20 0.25 76
v -12 0 -80
v -12 0 0
v -12 0.25 -80
v -12 0.25 0
v -20 0 76
v -20 0 32
v -20 0.25 76
v -20 0.25 32
v -20 0 0
v -20 0.25 0
v -20 0 -80
v -20 0.25 -80
v -20 0 -80
v -12 0 -80
v -20 0.25 -80
v -12 0.25 -80
v -33 42.25 67
v -33 -22 22
v -33 42 67
v -33 -21.75 22
v -12 0.2500992 104
v -20 0.2500992 104
v -37.0031 -4 37.0031
v -37.0031 -4 -5.003098
v -32 0 32
v -32 0 0
v 5.003098 -4 -5.003098
v 5.003098 -4 37.0031
v 0 0 0
v 0 0 32
v -7.015093 -2 -2.500532
v -7.875 0 0
v -12 0 0
v -12 -4 -5
v -6.155185 -4 -5.001065
v -4.125 0 0
v -2.483359 -2 -2.501016
v 0 0 0
v -0.8417172 -4 -5.002033
v 5.003098 -4 -5.003098
v -2.483359 -2 -2.501016
v -7 -2 -4.5
v -6.25 -4 -7
v -2.5 -2 -4.5
v -0.75 -4 -7
v -24.98491 -2 -2.500532
v -20 0 0
v -24.125 0 0
v -25.84481 -4 -5.001065
v -20 -4 -5
v -37.0031 -4 -5.003098
v -31.06308 -4 -5.000581
v -32 0 0
v -29.46904 -2 -2.50029
v -27.875 0 0
v -31 -4 -7
v -25.75 -4 -7
v -29.5 -2 -4.5
v -25 -2 -4.5
v -24.98491 -2 -2.500532
v -7.015093 -2 -2.500532
v -6.155185 -4 -5.001065
v -7 -2 -4.5
v -6.25 -4 -7
v -2.483359 -2 -2.501016
v -7.015093 -2 -2.500532
v -2.5 -2 -4.5
v -7 -2 -4.5
v -0.8417172 -4 -5.002033
v -2.483359 -2 -2.501016
v -0.75 -4 -7
v -2.5 -2 -4.5
v -29.46904 -2 -2.50029
v -31.06308 -4 -5.000581
v -29.5 -2 -4.5
v -31 -4 -7
v -25.84481 -4 -5.001065
v -24.98491 -2 -2.500532
v -25.75 -4 -7
v -25 -2 -4.5
v -24.98491 -2 -2.500532
v -29.46904 -2 -2.50029
v -25 -2 -4.5
v -29.5 -2 -4.5
vt 8 32
vt 12 0
vt 7.875 0
vt 12 32
vt 4 32
vt 4.125 0
vt 0 32
vt 0 0
vt 20 32
vt 24.125 0
vt 20 0
vt 24 32
vt 27.875 0
vt 28 32
vt 32 0
vt 32 32
vt 0 76
vt 4 76
vt 8 76
vt 12 76
vt 20 76
vt 24 76
vt 28 76
vt 32 76
vt 109 0
vt 70 0
vt 64 64
vt -109 0
vt -64 64
vt -70 0
vt 33 0
vt -24 0
vt 33 4
vt -24 4
vt 32 0
vt 0 0
vt 32 4
vt 0 4
vt 24 0
vt -33 0
vt 24 4
vt -33 4
vt 0 -7
vt -8 -7
vt 0 0
vt -8 0
vt 71 -7
vt -9 -7
vt 71 0
vt -9 0
vt 8 -7
vt 0 -7
vt 8 0
vt 0 0
vt 9 -7
vt -71 -7
vt 9 0
vt -71 0
vt 0 71
vt 8 71
vt 0 -9
vt 8 -9
vt 16 -22.496
vt 16 -28.90155
vt 8 -22.496
vt 5.498451 -28.90155
vt 16 -28.90155
vt 24 -22.496
vt 26.50155 -28.90155
vt 12 0
vt 12 32
vt 20 32
vt 20 0
vt 12 76
vt 20 76
vt -32 0
vt -76 0
vt -32 0.25
vt -76 0.25
vt -12 0
vt -20 0
vt -12 0.25
vt -20 0.25
vt 80 0
vt 0 0
vt 80 0.25
vt 0 0.25
vt 76 0
vt 32 0
vt 76 0.25
vt 32 0.25
vt 0 0
vt 0 0.25
vt -80 0
vt -80 0.25
vt 20 0
vt 12 0
vt 20 0.25
vt 12 0.25
vt -67 42.25
vt -22 -22
vt -67 42
vt -22 -21.75
vt 12 104
vt 20 104
vt 28.90155 5.003098
vt 28.90155 -37.0031
vt 22.496 0
vt 22.496 -32
vt -3.907707 -37.0031
vt -3.907707 5.003098
vt 2.497837 -32
vt 2.497837 0
vt 3.569272 -25.69877
vt 5.25 -22.496
vt 8 -22.496
vt 5.498451 -28.90155
vt 1.888544 -28.90155
vt 2.75 -22.496
vt 0.6784049 -25.69877
vt 0 -22.496
vt -1.39319 -28.90155
vt -5.003098 -28.90155
vt 0.6784049 -25.69877
vt 3.569272 -25.69877
vt 1.888544 -28.90155
vt 0.6784049 -25.69877
vt -1.39319 -28.90155
vt 28.43073 -25.69877
vt 24 -22.496
vt 26.75 -22.496
vt 30.11146 -28.90155
vt 26.50155 -28.90155
vt 37.0031 -28.90155
vt 33.39319 -28.90155
vt 32 -22.496
vt 31.32159 -25.69877
vt 29.25 -22.496
vt 33.39319 -28.90155
vt 30.11146 -28.90155
vt 31.32159 -25.69877
vt 28.43073 -25.69877
vt 28.43073 -25.69877
vt -2.44751 0.8828502
vt -4.954462 -1.28678
vt -4.447034 0.8828502
vt -6.952624 -1.244179
vt 2.483359 -2.501016
vt 7.015093 -2.500532
vt 2.5 -4.5
vt 7 -4.5
vt 4.958172 -2.531667
vt 2.384506 -0.01645054
vt 6.958243 -2.531667
vt 4.380624 0.04921719
vt -2.956184 -19.64219
vt -5.480852 -22.17566
vt -4.956134 -19.64219
vt -7.479055 -22.11794
vt 3.770944 -15.03299
vt 1.313961 -12.80693
vt 5.772126 -15.03299
vt 3.310468 -12.85515
vt 24.98491 -2.500532
vt 29.46904 -2.50029
vt 25 -4.5
vt 29.5 -4.5
vn 0 1 0
vn 0 1 0
vn 0 1 0
vn 0 1 0
vn 0 1 0
vn 0 1 0
vn 0 1 0
vn 0 1 0
vn 0 1 0
vn 0 1 0
vn 0 1 0
vn 0 1 0
vn 0 1 0
vn 0 1 0
vn 0 1 0
vn 0 1 0
vn 0 1 0
vn 0 1 0
vn 0 1 0
vn 0 1 0
vn 0 1 0
vn 0 1 0
vn 0 1 0
vn 0 1 0
vn 1 0 0
vn 1 0 0
vn 1 0 0
vn -1 0 0
vn -1 0 0
vn -1 0 0
vn -1 0 0
vn -1 0 0
vn -1 0 0
vn -1 0 0
vn 0 0 -1
vn 0 0 -1
vn 0 0 -1
vn 0 0 -1
vn 1 0 0
vn 1 0 0
vn 1 0 0
vn 1 0 0
vn 0 0 1
vn 0 0 1
vn 0 0 1
vn 0 0 1
vn -1 0 0
vn -1 0 0
vn -1 0 0
vn -1 0 0
vn 0 0 -1
vn 0 0 -1
vn 0 0 -1
vn 0 0 -1
vn 1 0 0
vn 1 0 0
vn 1 0 0
vn 1 0 0
vn 0 1 0
vn 0 1 0
vn 0 1 0
vn 0 1 0
vn 0 0.7810575 -0.6244591
vn 0.0002418768 0.7809631 -0.624577
vn 0.0002418768 0.7809631 -0.624577
vn 0.0004837535 0.7808688 -0.624695
vn -0.0002418768 0.7809631 -0.624577
vn -0.0002418768 0.7809631 -0.624577
vn -0.0004837535 0.7808688 -0.624695
vn 0 1 0
vn 0 1 0
vn 0 1 0
vn 0 1 0
vn 0 1 0
vn 0 1 0
vn 1 0 0
vn 1 0 0
vn 1 0 0
vn 1 0 0
vn 0 0 1
vn 0 0 1
vn 0 0 1
vn 0 0 1
vn 1 0 0
vn 1 0 0
vn 1 0 0
vn 1 0 0
vn -1 0 0
vn -1 0 0
vn -1 0 0
vn -1 0 0
vn -1 0 0
vn -1 0 0
vn -1 0 0
vn -1 0 0
vn 0 0 -1
vn 0 0 -1
vn 0 0 -1
vn 0 0 -1
vn 1 0 0
vn 1 0 0
vn 1 0 0
vn 1 0 0
vn 0 1 -3.542219E-06
vn 0 1 -3.542219E-06
vn -0.6244591 0.7810575 0
vn -0.6244591 0.7810575 0
vn -0.6244591 0.7810575 0
vn -0.6244591 0.7810575 0
vn 0.6244591 0.7810575 0
vn 0.6244591 0.7810575 0
vn 0.6244591 0.7810575 0
vn 0.6244591 0.7810575 0
vn -6.017024E-05 0.7809057 -0.624649
vn 0 0.7809337 -0.6246139
vn -3.335875E-05 0.7809013 -0.6246545
vn -9.025536E-05 0.7808917 -0.6246665
vn -0.0001137932 0.7809146 -0.6246378
vn 0 0.7809926 -0.6245402
vn 0 0.7809926 -0.6245402
vn -3.792443E-05 0.7809958 -0.6245363
vn -5.688665E-05 0.7809973 -0.6245344
vn -0.0001137733 0.781002 -0.6245286
vn -6.670381E-05 0.7809713 -0.6245669
vn 0 0.7808688 -0.6246951
vn 0 0.7808688 -0.6246951
vn 0 0.7808688 -0.6246951
vn 0 0.7808688 -0.6246951
vn 6.017024E-05 0.7809057 -0.624649
vn 3.335875E-05 0.7809013 -0.6246545
vn 0 0.7809337 -0.6246139
vn 0.0001137932 0.7809146 -0.6246378
vn 9.025536E-05 0.7808917 -0.6246665
vn 0.0002646476 0.7809284 -0.6246206
vn 0.0001323238 0.7809163 -0.6246357
vn 8.821587E-05 0.7809123 -0.6246408
vn 0 0.7809042 -0.6246508
vn 0 0.7809042 -0.6246508
vn 0 0.7808688 -0.6246951
vn 0 0.7808688 -0.6246951
vn 0 0.7808688 -0.6246951
vn 0 0.7808688 -0.6246951
vn -1.685489E-05 0.7809242 -0.6246258
vn -0.9217898 -0.3876276 -0.00695807
vn -0.9190789 -0.3927989 0.01825384
vn -0.9190789 -0.3927989 0.01825384
vn -0.9163681 -0.3979702 0.04346576
vn 0 1 0
vn 0 1 0
vn 0 1 0
vn 0 1 0
vn 0.7943238 0.6063993 0.03646366
vn 0.771506 0.6346462 0.01511544
vn 0.771506 0.6346462 0.01511544
vn 0.7486882 0.6628931 -0.006232769
vn -0.7893365 0.6138393 0.01222074
vn -0.7869965 0.6166378 -0.006267226
vn -0.7869965 0.6166378 -0.006267226
vn -0.7846565 0.6194363 -0.02475519
vn 0.8974398 -0.4390785 0.04256773
vn 0.9183133 -0.3912059 0.01773917
vn 0.9183133 -0.3912059 0.01773917
vn 0.9391869 -0.3433333 -0.00708939
vn 0 1 0
vn 0 1 0
vn 0 1 0
vn 0 1 0
g pb_Mesh386546_0
f 3/3/3 2/2/2 1/1/1
f 2/2/2 4/4/4 1/1/1
f 6/6/6 3/3/3 5/5/5
f 3/3/3 1/1/1 5/5/5
f 8/8/8 6/6/6 7/7/7
f 6/6/6 5/5/5 7/7/7
f 11/11/11 10/10/10 9/9/9
f 10/10/10 12/12/12 9/9/9
f 10/10/10 13/13/13 12/12/12
f 13/13/13 14/14/14 12/12/12
f 13/13/13 15/15/15 14/14/14
f 15/15/15 16/16/16 14/14/14
f 7/7/7 5/5/5 17/17/17
f 5/5/5 18/18/18 17/17/17
f 5/5/5 1/1/1 18/18/18
f 1/1/1 19/19/19 18/18/18
f 1/1/1 4/4/4 19/19/19
f 4/4/4 20/20/20 19/19/19
f 9/9/9 12/12/12 21/21/21
f 12/12/12 22/22/22 21/21/21
f 12/12/12 14/14/14 22/22/22
f 14/14/14 23/23/23 22/22/22
f 14/14/14 16/16/16 23/23/23
f 16/16/16 24/24/24 23/23/23
g pb_Mesh386546_1
f 27/27/27 26/26/26 25/25/25
f 30/30/30 29/29/29 28/28/28
f 33/33/33 32/32/32 31/31/31
f 33/33/33 34/34/34 32/32/32
f 37/37/37 36/36/36 35/35/35
f 37/37/37 38/38/38 36/36/36
f 41/41/41 40/40/40 39/39/39
f 41/41/41 42/42/42 40/40/40
f 45/45/45 44/44/44 43/43/43
f 45/45/45 46/46/46 44/44/44
f 49/49/49 48/48/48 47/47/47
f 49/49/49 50/50/50 48/48/48
f 53/53/53 52/52/52 51/51/51
f 53/53/53 54/54/54 52/52/52
f 57/57/57 56/56/56 55/55/55
f 57/57/57 58/58/58 56/56/56
f 61/61/61 60/60/60 59/59/59
f 61/61/61 62/62/62 60/60/60
f 65/65/65 64/64/64 63/63/63
f 65/65/65 66/66/66 64/64/64
f 69/69/69 68/68/68 67/67/67
f 68/68/68 63/63/63 67/67/67
f 72/72/72 71/71/71 70/70/70
f 72/72/72 70/70/70 73/73/73
f 75/75/75 74/74/74 71/71/71
f 75/75/75 71/71/71 72/72/72
f 78/78/78 77/77/77 76/76/76
f 78/78/78 79/79/79 77/77/77
f 82/82/82 81/81/81 80/80/80
f 82/82/82 83/83/83 81/81/81
f 86/86/86 85/85/85 84/84/84
f 86/86/86 87/87/87 85/85/85
f 90/90/90 89/89/89 88/88/88
f 90/90/90 91/91/91 89/89/89
f 87/87/87 76/76/76 85/85/85
f 87/87/87 78/78/78 76/76/76
f 91/91/91 92/92/92 89/89/89
f 91/91/91 93/93/93 92/92/92
f 93/93/93 94/94/94 92/92/92
f 93/93/93 95/95/95 94/94/94
f 98/98/98 97/97/97 96/96/96
f 98/98/98 99/99/99 97/97/97
f 102/102/102 101/101/101 100/100/100
f 101/101/101 103/103/103 100/100/100
f 74/74/74 75/75/75 104/104/104
f 75/75/75 105/105/105 104/104/104
g pb_Mesh386546_2
f 108/108/108 107/107/107 106/106/106
f 108/108/108 109/109/109 107/107/107
f 112/112/112 111/111/111 110/110/110
f 112/112/112 113/113/113 111/111/111
f 116/116/116 115/115/115 114/114/114
f 117/117/117 116/116/116 114/114/114
f 114/114/114 118/118/118 117/117/117
f 121/121/121 120/120/120 119/119/119
f 121/121/121 122/122/122 120/120/120
f 121/121/121 123/123/123 122/122/122
f 119/119/119 114/114/114 115/115/115
f 119/119/119 124/124/124 114/114/114
f 127/127/127 126/126/126 125/125/125
f 127/127/127 128/128/128 126/126/126
f 131/131/131 130/130/130 129/129/129
f 129/129/129 133/133/133 132/132/132
f 129/129/129 130/130/130 133/133/133
f 136/136/136 135/135/135 134/134/134
f 137/137/137 135/135/135 136/136/136
f 138/138/138 137/137/137 136/136/136
f 141/141/141 140/140/140 139/139/139
f 142/142/142 140/140/140 141/141/141
f 138/138/138 143/143/143 137/137/137
f 131/131/131 143/143/143 138/138/138
f 146/146/146 145/145/145 144/144/144
f 146/146/146 147/147/147 145/145/145
f 150/150/150 149/149/149 148/148/148
f 150/150/150 151/151/151 149/149/149
f 154/154/154 153/153/153 152/152/152
f 154/154/154 155/155/155 153/153/153
f 158/158/158 157/157/157 156/156/156
f 158/158/158 159/159/159 157/157/157
f 162/162/162 161/161/161 160/160/160
f 162/162/162 163/163/163 161/161/161
f 166/166/166 165/165/165 164/164/164
f 166/166/166 167/167/167 165/165/165
