g pb_Mesh41326
v 2 -15 0
v 0 -15 0
v 2 0 0
v 0 0 0
v 0 -15 -4
v 0 -15 -12
v 0 0 -4
v 0 -3.99995 -12
v 0 -15 -14.00002
v 2 -15 -14
v 0 -3.999982 -14.00004
v 2 -4 -14
v 2 -15 -12
v 2 -15 -4
v 2 -4 -12
v 2 0 -4
v 2 0 -4
v 0 0 -4
v 2 -4 -12
v 0 -3.99995 -12
v 2 -15 -12
v 0 -15 -12
v 2 -15 -4
v 0 -15 -4
v 2 -15 0
v 0 -15 0
v 2 0 0
v 2 -15 0
v 0 -15 0
v 0 0 0
v 0 0 -4
v 2 0 -4
v 0 0 0
v 2 0 0
v 0 -15 -14.00002
v 2 -15 -14
v 0 -3.999982 -14.00004
v 0 -15 -14.00002
v 2 -15 -14
v 2 -4 -14
v 2 -4 -12
v 0 -3.99995 -12
v 2 -4 -14
v 0 -3.999982 -14.00004
vt 2 -15
vt 0 -15
vt 2 0
vt 0 0
vt -4 -15
vt -12 -15
vt -4 0
vt -12 -3.99995
vt 0.000173569 -14.99998
vt -1.999826 -14.99998
vt 0.0001735692 -3.999967
vt -1.999826 -3.999984
vt 12 -15
vt 4 -15
vt 12 -4
vt 4 0
vt -2 -3.577709
vt 0 -3.577709
vt -2 -12.52198
vt 0 -12.52196
vt 2 -12
vt 0 -12
vt 2 -4
vt 0 -4
vt 2 0
vt 0 0
vt 0 0
vt 0 -15
vt 0 -15
vt 0 0
vt 0 -4
vt -2 -4
vt 0 0
vt -2 0
vt 0 -14.00002
vt 2 -14
vt -14.00004 -3.999982
vt -14.00002 -15
vt 14 -15
vt 14 -4
vt -2.0001 -12
vt -0.0001001346 -12
vt -2.0001 -14
vt -0.0001001354 -14.00004
vn 0 0 1
vn 0 0 1
vn 0 0 1
vn 0 0 1
vn -1 0 0
vn -1 0 0
vn -1 0 0
vn -1 0 0
vn 1.239777E-05 -1.127068E-06 -1
vn 1.549721E-05 -5.635339E-07 -1
vn 1.549721E-05 -5.635339E-07 -1
vn 1.859665E-05 0 -1
vn 1 0 0
vn 1 0 0
vn 1 0 0
vn 1 0 0
vn 0 0.8944272 -0.4472136
vn 1.119555E-05 0.8944283 -0.4472114
vn 1.119555E-05 0.8944283 -0.4472114
vn 2.23911E-05 0.8944294 -0.4472091
vn 0 -1 0
vn 0 -1 0
vn 0 -1 0
vn 0 -1 0
vn 0 -1 0
vn 0 -1 0
vn 1 0 0
vn 1 0 0
vn -1 0 0
vn -1 0 0
vn 0 1 0
vn 0 1 0
vn 0 1 0
vn 0 1 0
vn 0 -1 0
vn 0 -1 0
vn -1 0 0
vn -1 0 0
vn 1 0 0
vn 1 0 0
vn 2.503395E-05 1 0
vn 1.692787E-05 1 -8.106081E-06
vn 1.692787E-05 1 -8.106081E-06
vn 8.821789E-06 1 -1.621216E-05
g pb_Mesh41326_0
f 3/3/3 2/2/2 1/1/1
f 3/3/3 4/4/4 2/2/2
f 7/7/7 6/6/6 5/5/5
f 7/7/7 8/8/8 6/6/6
f 11/11/11 10/10/10 9/9/9
f 11/11/11 12/12/12 10/10/10
f 15/15/15 14/14/14 13/13/13
f 15/15/15 16/16/16 14/14/14
f 19/19/19 18/18/18 17/17/17
f 19/19/19 20/20/20 18/18/18
f 23/23/23 22/22/22 21/21/21
f 23/23/23 24/24/24 22/22/22
f 25/25/25 24/24/24 23/23/23
f 25/25/25 26/26/26 24/24/24
f 27/27/27 14/14/14 16/16/16
f 27/27/27 28/28/28 14/14/14
f 29/29/29 7/7/7 5/5/5
f 29/29/29 30/30/30 7/7/7
f 33/33/33 32/32/32 31/31/31
f 33/33/33 34/34/34 32/32/32
f 35/35/35 21/21/21 22/22/22
f 35/35/35 36/36/36 21/21/21
f 37/37/37 6/6/6 8/8/8
f 37/37/37 38/38/38 6/6/6
f 39/39/39 15/15/15 13/13/13
f 39/39/39 40/40/40 15/15/15
f 43/43/43 42/42/42 41/41/41
f 43/43/43 44/44/44 42/42/42
