g pb_Mesh241298
v -4 0 -0.25
v -4 0 -16
v -4 1 -0.25
v -4 1 -16
v -4 1 -16
v -4 0 -16
v -2 1 -16
v 0 0 -16
v 0 1 -16
v 0 0 -3
v 0 0 -16
v -4 0 -16
v -2 0 -3
v -3 0 -0.25
v -4 0 -0.25
v -3 1 -0.25
v -4 0 -0.25
v -4 1 -0.25
v -3 0 -0.25
v 0 0 -3
v -2 0 -3
v -2 1 -3
v 0 1 -3
v -2 0 -0.25
v -2 1 -3
v -2 0.5 -0.25
v -2 1 -0.75
v -2 0 -3
v -2 0 -0.25
v -2 0.5 -0.25
v -2 0 -0.25
v -2.5 1 -0.25
v -2.5 1 -0.25
v -2 1 -0.75
v -2 0.5 -0.25
v -2.5 1 -0.25
v -3 1 -0.25
v -2 1 -3
v -2 1 -0.75
v 0 1 -9.5
v 0 1 -16
v 0 0 -16
v 0 0 -3
v 0 1 -3
v -4 1 -16
v -2 1 -16
v -2 1 -9.5
v -4 1 -0.25
v 0 1 -16
v 0 1 -9.5
v 0 1 -3
vt -0.25 0
vt -16 0
vt -0.25 1
vt -16 1
vt 4 1
vt 4 0
vt 2 1
vt 0 0
vt 0 1
vt 0 -3
vt 0 -16
vt -4 -16
vt -2 -3
vt -3 -0.25
vt -4 -0.25
vt -3 1
vt -4 0
vt -4 1
vt -3 0
vt 0 0
vt -2 0
vt -2 1
vt 0 1
vt -2 -0.25
vt 3 1
vt 0.25 0.5
vt 0.75 1
vt 3 0
vt 0.25 0
vt -2 0.5
vt -2 0
vt -2.5 1
vt -1.59099 1.939179
vt -0.8838835 1.939179
vt -1.237437 1.326807
vt 2.5 -0.25
vt 3 -0.25
vt 2 -3
vt 2 -0.75
vt 9.5 1
vt 16 1
vt 16 0
vt 3 0
vt 3 1
vt 4 -16
vt 2 -16
vt 2 -9.5
vt 4 -0.25
vt 0 -16
vt 0 -9.5
vt 0 -3
vn -1 0 0
vn -1 0 0
vn -1 0 0
vn -1 0 0
vn 0 0 -1
vn 0 0 -1
vn 0 0 -1
vn 0 0 -1
vn 0 0 -1
vn 0 -1 0
vn 0 -1 0
vn 0 -1 0
vn 0 -1 0
vn 0 -1 0
vn 0 -1 0
vn 0 0 1
vn 0 0 1
vn 0 0 1
vn 0 0 1
vn 0 0 1
vn 0 0 1
vn 0 0 1
vn 0 0 1
vn 0 -1 0
vn 1 0 0
vn 1 0 0
vn 1 0 0
vn 1 0 0
vn 1 0 0
vn 0 0 1
vn 0 0 1
vn 0 0 1
vn 0.5773503 0.5773503 0.5773503
vn 0.5773503 0.5773503 0.5773503
vn 0.5773503 0.5773503 0.5773503
vn 0 1 0
vn 0 1 0
vn 0 1 0
vn 0 1 0
vn 1 0 0
vn 1 0 0
vn 1 0 0
vn 1 0 0
vn 1 0 0
vn 0 1 0
vn 0 1 0
vn 0 1 0
vn 0 1 0
vn 0 1 0
vn 0 1 0
vn 0 1 0
g pb_Mesh241298_0
f 3/3/3 2/2/2 1/1/1
f 3/3/3 4/4/4 2/2/2
f 7/7/7 6/6/6 5/5/5
f 6/6/6 7/7/7 8/8/8
f 7/7/7 9/9/9 8/8/8
f 12/12/12 11/11/11 10/10/10
f 13/13/13 12/12/12 10/10/10
f 14/14/14 12/12/12 13/13/13
f 15/15/15 12/12/12 14/14/14
f 18/18/18 17/17/17 16/16/16
f 17/17/17 19/19/19 16/16/16
f 22/22/22 21/21/21 20/20/20
f 22/22/22 20/20/20 23/23/23
f 13/13/13 24/24/24 14/14/14
f 27/27/27 26/26/26 25/25/25
f 26/26/26 28/28/28 25/25/25
f 26/26/26 29/29/29 28/28/28
f 19/19/19 31/31/31 30/30/30
f 30/30/30 32/32/32 19/19/19
f 32/32/32 16/16/16 19/19/19
f 35/35/35 34/34/34 33/33/33
f 38/38/38 37/37/37 36/36/36
f 36/36/36 39/39/39 38/38/38
f 42/42/42 41/41/41 40/40/40
f 42/42/42 40/40/40 43/43/43
f 44/44/44 43/43/43 40/40/40
f 47/47/47 46/46/46 45/45/45
f 48/48/48 47/47/47 45/45/45
f 38/38/38 47/47/47 48/48/48
f 48/48/48 37/37/37 38/38/38
f 50/50/50 49/49/49 46/46/46
f 50/50/50 46/46/46 47/47/47
f 51/51/51 50/50/50 47/47/47
f 51/51/51 47/47/47 38/38/38
