g pb_Mesh142174
v 0 -9 6.25
v -4.5 -9 8
v 0 1 7.75
v -4.5 1 9.5
v -4.5 -9 8
v -8.5 -9 -2
v -4.5 1 9.5
v -8.5 1 -2
v -8.5 -9 -2
v 12.5 -9 -0.75
v -8.5 1 -2
v 12.5 1 -1
v 12.5 -9 -0.75
v 0 -9 6.25
v 12.5 1 -1
v 0 1 7.75
v 0 1 7.75
v -4.5 1 9.5
v 12.5 1 -1
v -8.5 1 -2
v 12.5 -9 -0.75
v -8.5 -9 -2
v 0 -9 6.25
v -4.5 -9 8
vt -2.265289 -8.106819
vt -7.093591 -8.106819
vt -2.808959 1.990429
vt -7.63726 1.990429
vt 5.756556 -8.588408
vt -5.013774 -8.588408
vt 7.149271 1.427098
vt -5.013774 1.396111
vt 8.60382 -9
vt -12.43335 -9
vt 8.60382 1
vt -12.4185 1
vt 11.27278 -9.116779
vt -3.053771 -9.116779
vt 11.39493 0.8855993
vt -3.786676 0.8523018
vt 0 7.75
vt 4.5 9.5
vt -12.5 -1
vt 8.5 -2
vt 12.5 -0.75
vt -8.5 -2
vt 0 6.25
vt -4.5 8
vn 0.3589555 -0.1384543 0.9230284
vn 0.3589555 -0.1384543 0.9230284
vn 0.3589555 -0.1384543 0.9230284
vn 0.3589555 -0.1384543 0.9230284
vn -0.9270393 -0.05562236 0.3708157
vn -0.935768 -0.02781118 0.3496682
vn -0.935768 -0.02781118 0.3496682
vn -0.9444968 0 0.3285206
vn 0.05941864 0 -0.9982332
vn 0.05348448 -0.01248196 -0.998395
vn 0.05348448 -0.01248196 -0.998395
vn 0.04755033 -0.02496392 -0.9985569
vn 0.4884872 0.02180746 0.8722985
vn 0.5288341 -0.05007995 0.8427071
vn 0.5288341 -0.05007995 0.8427071
vn 0.569181 -0.1219674 0.8131157
vn 0 1 0
vn 0 1 0
vn 0 1 0
vn 0 1 0
vn 0 -1 0
vn 0 -1 0
vn 0 -1 0
vn 0 -1 0
g pb_Mesh142174_0
f 3/3/3 2/2/2 1/1/1
f 3/3/3 4/4/4 2/2/2
f 7/7/7 6/6/6 5/5/5
f 7/7/7 8/8/8 6/6/6
f 11/11/11 10/10/10 9/9/9
f 11/11/11 12/12/12 10/10/10
f 15/15/15 14/14/14 13/13/13
f 15/15/15 16/16/16 14/14/14
f 19/19/19 18/18/18 17/17/17
f 19/19/19 20/20/20 18/18/18
f 23/23/23 22/22/22 21/21/21
f 23/23/23 24/24/24 22/22/22
