g pb_Mesh353014
v 0 0.4000001 2.1
v 0 0.5 3.699999
v -2.01 0.4000001 2.1
v -2 0.5 3.699999
v -2.01 0.2 1.1
v 0 0.4000001 2.1
v -2.01 0.4000001 2.1
v 0 0.2 1.1
v -1.599999 -1.7 -1.299999
v 0 0.2 1.1
v -2.01 0.2 1.1
v -0.09999943 -1.7 -1.299999
v -1.599999 -1.9 -2.200001
v -0.09999943 -1.7 -1.299999
v -1.599999 -1.7 -1.299999
v -0.1999998 -1.9 -2.200001
v -2.3 -3.9 -4.5
v -0.1999998 -1.9 -2.200001
v -1.599999 -1.9 -2.200001
v -0.3000002 -3.9 -4.600002
v -3 -3.9 -6.799999
v -0.3000002 -3.9 -4.600002
v -2.3 -3.9 -4.5
v -0.5999994 -3.9 -6.799999
v -6.740482 -5.4 -9.900002
v -0.5999994 -3.9 -6.799999
v -3 -3.9 -6.799999
v 0.1000004 -5.7 -9.900002
vt 0 2.120862
vt 0 3.723982
vt 2.01 2.120862
vt 2 3.723982
vt 2.01 1.117862
vt 0 2.137666
vt 2.01 2.137666
vt 0 1.117862
vt 1.599999 -2.074454
vt 0 0.9865913
vt 2.01 0.9865913
vt 0.09999943 -2.074454
vt 1.599999 -2.55978
vt 0.09999943 -1.637824
vt 1.599999 -1.637824
vt 0.1999998 -2.55978
vt 2.3 -5.954822
vt 0.1999998 -2.906872
vt 1.599999 -2.906872
vt 0.3000002 -6.030284
vt 3 -6.799999
vt 0.3000002 -4.600002
vt 2.3 -4.5
vt 0.5999994 -6.799999
vt 6.740482 -11.26361
vt 0.5999994 -7.81977
vt 3 -7.81977
vt -0.1000004 -11.39427
vn 0 0.9980526 -0.06237829
vn 0 0.9980526 -0.06237829
vn 0 0.9980526 -0.06237829
vn 0 0.9980526 -0.06237829
vn 0 0.9805807 -0.1961162
vn 0 0.9805807 -0.1961162
vn 0 0.9805807 -0.1961162
vn 0 0.9805807 -0.1961162
vn 0 0.7840458 -0.620703
vn 0 0.7840458 -0.620703
vn 0 0.7840458 -0.620703
vn 0 0.7840458 -0.620703
vn 0 0.9761871 -0.2169302
vn 0 0.9761871 -0.2169302
vn 0 0.9761871 -0.2169302
vn 0 0.9761871 -0.2169302
vn -0.01597715 0.7615445 -0.647625
vn -0.01597715 0.7615445 -0.647625
vn 0 0.7546055 -0.6561788
vn -0.0319543 0.7684836 -0.6390711
vn 0 1 0
vn 0 1 0
vn 0 1 0
vn 0 1 0
vn 0.01903089 0.8840151 -0.4654453
vn 0.01903089 0.8840151 -0.4654453
vn 0 0.9001594 -0.4355607
vn 0.03806179 0.8678707 -0.4953299
g pb_Mesh353014_0
f 3/3/3 2/2/2 1/1/1
f 3/3/3 4/4/4 2/2/2
f 7/7/7 6/6/6 5/5/5
f 6/6/6 8/8/8 5/5/5
f 11/11/11 10/10/10 9/9/9
f 10/10/10 12/12/12 9/9/9
f 15/15/15 14/14/14 13/13/13
f 14/14/14 16/16/16 13/13/13
f 19/19/19 18/18/18 17/17/17
f 18/18/18 20/20/20 17/17/17
f 23/23/23 22/22/22 21/21/21
f 22/22/22 24/24/24 21/21/21
f 27/27/27 26/26/26 25/25/25
f 26/26/26 28/28/28 25/25/25
