g pb_Mesh159404
v 0 0 0
v -4 0 0
v 0 4 0
v -4 4 0
v -4 0 0
v -4 -5 -10
v -4 4 0
v -4 -1 -10
v -4 -21 -82
v 0 -21 -82
v -4 -17 -82
v 0 -17 -82
v 0 -5 -10
v 0 0 0
v 0 -1 -10
v 0 4 0
v 0 4 0
v -4 4 0
v 0 -1 -10
v -4 -1 -10
v 0 -5 -10
v -4 -5 -10
v 0 0 0
v -4 0 0
v -4 -5 -10
v 0 -5 -10
v -4 -21 -43
v 0 -21 -43
v -4 -17 -43
v -4 -21 -43
v 0 -21 -43
v 0 -17 -43
v 0 -1 -10
v -4 -1 -10
v 0 -17 -43
v -4 -17 -43
v -4 -21 -43
v 0 -21 -43
v -4 -21 -54
v 0 -21 -54
v -11 -17 -43
v -11 -21 -43
v -11 -17 -54
v -11 -21 -54
v 0 -21 -54
v 0 -17 -54
v 0 -17 -43
v -4 -17 -43
v 0 -17 -54
v -4 -17 -54
v -4 -21 -82
v 0 -21 -82
v -4 -17 -54
v -4 -21 -54
v -4 -17 -82
v -4 -21 -82
v 0 -21 -82
v 0 -17 -82
v 0 -17 -82
v -4 -17 -82
v -4 -17 -43
v -4 -21 -43
v -11 -17 -43
v -11 -21 -43
v -11 -17 -54
v -11 -17 -43
v -11 -21 -43
v -11 -21 -54
v -4 -21 -54
v -4 -17 -54
v -11 -21 -54
v -11 -17 -54
vt 0 0
vt -4 0
vt 0 4
vt -4 4
vt 0 0
vt -10 -5
vt 0 4
vt -10 -1
vt 4 -21
vt 0 -21
vt 4 -17
vt 0 -17
vt 10 -5
vt 0 0
vt 10 -1
vt 0 4
vt 0 1.788854
vt 4 1.788854
vt 0 -9.391485
vt 4 -9.391485
vt 0 -11.18034
vt -4 -11.18034
vt 0 0
vt -4 0
vt -4 -11.17951
vt 0 -11.17951
vt -4 -47.85375
vt 0 -47.85375
vt -43 -17
vt -43 -21
vt 43 -21
vt 43 -17
vt 0 -9.434415
vt 4 -9.434415
vt 0 -46.10866
vt 4 -46.10866
vt -4 -43
vt 0 -43
vt -4 -54
vt 0 -54
vt -43 -17
vt -43 -21
vt -54 -17
vt -54 -21
vt 54 -21
vt 54 -17
vt 0 -43
vt 4 -43
vt 0 -54
vt 4 -54
vt -4 -82
vt 0 -82
vt -54 -17
vt -54 -21
vt -82 -17
vt -82 -21
vt 82 -21
vt 82 -17
vt 0 -82
vt 4 -82
vt -4 -17
vt -4 -21
vt -11 -17
vt -11 -21
vt 11 -54
vt 11 -43
vt -11 -43
vt -11 -54
vt 4 -21
vt 4 -17
vt 11 -21
vt 11 -17
vn 0 0 1
vn 0 0 1
vn 0 0 1
vn 0 0 1
vn -1 0 0
vn -1 0 0
vn -1 0 0
vn -1 0 0
vn 0 0 -1
vn 0 0 -1
vn 0 0 -1
vn 0 0 -1
vn 1 0 0
vn 1 0 0
vn 1 0 0
vn 1 0 0
vn 0 0.8944272 -0.4472136
vn 0 0.8944272 -0.4472136
vn 0 0.8944272 -0.4472136
vn 0 0.8944272 -0.4472136
vn 0 -0.8944272 0.4472136
vn 0 -0.8944272 0.4472136
vn 0 -0.8944272 0.4472136
vn 0 -0.8944272 0.4472136
vn 0 -0.8998141 0.4362735
vn 0 -0.8998141 0.4362735
vn 0 -0.8998141 0.4362735
vn 0 -0.8998141 0.4362735
vn -1 0 0
vn -1 0 0
vn 1 0 0
vn 1 0 0
vn 0 0.8998141 -0.4362735
vn 0 0.8998141 -0.4362735
vn 0 0.8998141 -0.4362735
vn 0 0.8998141 -0.4362735
vn 0 -1 0
vn 0 -1 0
vn 0 -1 0
vn 0 -1 0
vn -1 0 0
vn -1 0 0
vn -1 0 0
vn -1 0 0
vn 1 0 0
vn 1 0 0
vn 0 1 0
vn 0 1 0
vn 0 1 0
vn 0 1 0
vn 0 -1 0
vn 0 -1 0
vn -1 0 0
vn -1 0 0
vn -1 0 0
vn -1 0 0
vn 1 0 0
vn 1 0 0
vn 0 1 0
vn 0 1 0
vn 0 0 1
vn 0 0 1
vn 0 0 1
vn 0 0 1
vn 0 1 0
vn 0 1 0
vn 0 -1 0
vn 0 -1 0
vn 0 0 -1
vn 0 0 -1
vn 0 0 -1
vn 0 0 -1
g pb_Mesh159404_0
g pb_Mesh159404_1
f 3/3/3 2/2/2 1/1/1
f 3/3/3 4/4/4 2/2/2
f 7/7/7 6/6/6 5/5/5
f 7/7/7 8/8/8 6/6/6
f 11/11/11 10/10/10 9/9/9
f 11/11/11 12/12/12 10/10/10
f 15/15/15 14/14/14 13/13/13
f 15/15/15 16/16/16 14/14/14
f 19/19/19 18/18/18 17/17/17
f 19/19/19 20/20/20 18/18/18
f 23/23/23 22/22/22 21/21/21
f 23/23/23 24/24/24 22/22/22
f 27/27/27 26/26/26 25/25/25
f 27/27/27 28/28/28 26/26/26
f 29/29/29 6/6/6 8/8/8
f 29/29/29 30/30/30 6/6/6
f 31/31/31 15/15/15 13/13/13
f 31/31/31 32/32/32 15/15/15
f 35/35/35 34/34/34 33/33/33
f 35/35/35 36/36/36 34/34/34
f 39/39/39 38/38/38 37/37/37
f 39/39/39 40/40/40 38/38/38
f 43/43/43 42/42/42 41/41/41
f 43/43/43 44/44/44 42/42/42
f 45/45/45 32/32/32 31/31/31
f 45/45/45 46/46/46 32/32/32
f 49/49/49 48/48/48 47/47/47
f 49/49/49 50/50/50 48/48/48
f 51/51/51 40/40/40 39/39/39
f 51/51/51 52/52/52 40/40/40
f 55/55/55 54/54/54 53/53/53
f 55/55/55 56/56/56 54/54/54
f 57/57/57 46/46/46 45/45/45
f 57/57/57 58/58/58 46/46/46
f 59/59/59 50/50/50 49/49/49
f 59/59/59 60/60/60 50/50/50
f 63/63/63 62/62/62 61/61/61
f 63/63/63 64/64/64 62/62/62
f 65/65/65 48/48/48 50/50/50
f 65/65/65 66/66/66 48/48/48
f 67/67/67 39/39/39 37/37/37
f 67/67/67 68/68/68 39/39/39
f 71/71/71 70/70/70 69/69/69
f 71/71/71 72/72/72 70/70/70
