g pb_Mesh46488
v -4 -12 8
v -20 -4 8
v -4 -8 8
v -20 0 8
v -28 -4 8
v -28 -4 4
v -28 0 8
v -28 0 4
v -20 -4 4
v -4 -12 4
v -20 0 4
v -4 -8 4
v -4 -12 4
v -4 -12 8
v -4 -8 4
v -4 -8 8
v -4 -8 8
v -20 0 8
v -4 -8 4
v -20 0 4
v -4 -22 4
v -20 -22 4
v -4 -22 8
v -20 -22 8
v -4 -22 4
v -20 -22 4
v -4 -22 8
v -4 -22 4
v -28 -22 4
v -28 -22 8
v -20 -22 8
v -4 -22 8
v -28 0 8
v -28 -4 8
v -28 -22 4
v -28 -4 4
v -28 -22 8
v -28 -22 8
v -28 -22 4
v -28 0 4
v -20 0 4
v -20 0 8
v -28 0 4
v -28 0 8
vt -4 -12
vt -20 -4
vt -4 -8
vt -20 0
vt 8 -4
vt 4 -4
vt 8 0
vt 4 0
vt 20 -4
vt 4 -12
vt 20 0
vt 4 -8
vt -4 -12
vt -8 -12
vt -4 -8
vt -8 -8
vt 0 8
vt 17.88854 8
vt 0 4
vt 17.88854 4
vt -4 4
vt -20 4
vt -4 8
vt -20 8
vt 4 -22
vt 20 -22
vt -8 -22
vt -4 -22
vt 4 -22
vt 8 -22
vt -20 -22
vt -4 -22
vt -28 0
vt -28 -4
vt 28 -22
vt 28 -4
vt -28 -22
vt -28 8
vt -28 4
vt 28 0
vt 20 4
vt 20 8
vt 28 4
vt 28 8
vn 0 0 1
vn 0 0 1
vn 0 0 1
vn 0 0 1
vn -1 0 0
vn -1 0 0
vn -1 0 0
vn -1 0 0
vn 0 0 -1
vn 0 0 -1
vn 0 0 -1
vn 0 0 -1
vn 1 0 0
vn 1 0 0
vn 1 0 0
vn 1 0 0
vn 0.4472136 0.8944272 0
vn 0.4472136 0.8944272 0
vn 0.4472136 0.8944272 0
vn 0.4472136 0.8944272 0
vn 0 -1 0
vn 0 -1 0
vn 0 -1 0
vn 0 -1 0
vn 0 0 -1
vn 0 0 -1
vn 1 0 0
vn 1 0 0
vn -1 0 0
vn -1 0 0
vn 0 0 1
vn 0 0 1
vn 0 0 1
vn 0 0 1
vn 0 0 -1
vn 0 0 -1
vn 0 0 1
vn 0 -1 0
vn 0 -1 0
vn 0 0 -1
vn 0 1 0
vn 0 1 0
vn 0 1 0
vn 0 1 0
g pb_Mesh46488_0
f 3/3/3 2/2/2 1/1/1
f 3/3/3 4/4/4 2/2/2
f 7/7/7 6/6/6 5/5/5
f 7/7/7 8/8/8 6/6/6
f 11/11/11 10/10/10 9/9/9
f 11/11/11 12/12/12 10/10/10
f 15/15/15 14/14/14 13/13/13
f 15/15/15 16/16/16 14/14/14
f 19/19/19 18/18/18 17/17/17
f 19/19/19 20/20/20 18/18/18
f 23/23/23 22/22/22 21/21/21
f 23/23/23 24/24/24 22/22/22
f 25/25/25 9/9/9 10/10/10
f 25/25/25 26/26/26 9/9/9
f 27/27/27 13/13/13 14/14/14
f 27/27/27 28/28/28 13/13/13
f 29/29/29 5/5/5 6/6/6
f 29/29/29 30/30/30 5/5/5
f 31/31/31 1/1/1 2/2/2
f 31/31/31 32/32/32 1/1/1
f 33/33/33 2/2/2 4/4/4
f 33/33/33 34/34/34 2/2/2
f 35/35/35 9/9/9 26/26/26
f 35/35/35 36/36/36 9/9/9
f 34/34/34 31/31/31 2/2/2
f 34/34/34 37/37/37 31/31/31
f 38/38/38 22/22/22 24/24/24
f 38/38/38 39/39/39 22/22/22
f 36/36/36 11/11/11 9/9/9
f 36/36/36 40/40/40 11/11/11
f 43/43/43 42/42/42 41/41/41
f 43/43/43 44/44/44 42/42/42
