g pb_Mesh45882
v -4 -32 4
v -20 -32 4
v -4 -6 4
v -12 -6 4
v -28 -34 4
v -28 -34 0
v -28 0 4
v -28 0 0
v -20 -32 0
v -4 -32 0
v -12 -6 0
v -4 -6 0
v -4 -32 0
v -4 -32 4
v -4 -6 0
v -4 -6 4
v -4 -6 4
v -12 -6 4
v -4 -6 0
v -12 -6 0
v -4 -32 0
v -20 -32 0
v -4 -32 4
v -20 -32 4
v -20 -32 4
v -20 -32 0
v -24 -34 4
v -24 -34 0
v -24 0 4
v -24 -34 4
v -24 -34 0
v -24 0 0
v -12 -6 0
v -12 -6 4
v -24 0 0
v -24 0 4
v -24 -34 4
v -24 -34 0
v -28 -34 4
v -28 -34 0
v -28 0 4
v -28 -34 4
v -28 -34 0
v -28 0 0
v -24 0 0
v -24 0 4
v -28 0 0
v -28 0 4
vt -4 -32
vt -20 -32
vt -4 -6
vt -12 -6
vt 4 -34
vt 0 -34
vt 4 0
vt 0 0
vt 20 -32
vt 4 -32
vt 12 -6
vt 4 -6
vt 0 -32
vt -4 -32
vt 0 -6
vt -4 -6
vt 4 4
vt 12 4
vt 4 0
vt 12 0
vt -4 0
vt -20 0
vt -4 4
vt -20 4
vt -32.19938 4
vt -32.19938 0
vt -36.67151 4
vt -36.67151 0
vt -24 0
vt -24 -34
vt 24 -34
vt 24 0
vt 8.049845 0
vt 8.049845 4
vt 21.46625 0
vt 21.46625 4
vt -24 4
vt -24 0
vt -28 4
vt -28 0
vt -28 0
vt -28 -34
vt 28 -34
vt 28 0
vt 24 0
vt 24 4
vt 28 0
vt 28 4
vn 0 0 1
vn 0 0 1
vn 0 0 1
vn 0 0 1
vn -1 0 0
vn -1 0 0
vn -1 0 0
vn -1 0 0
vn 0 0 -1
vn 0 0 -1
vn 0 0 -1
vn 0 0 -1
vn 1 0 0
vn 1 0 0
vn 1 0 0
vn 1 0 0
vn 0 1 0
vn 0 1 0
vn 0 1 0
vn 0 1 0
vn 0 -1 0
vn 0 -1 0
vn 0 -1 0
vn 0 -1 0
vn 0.4472136 -0.8944272 0
vn 0.4472136 -0.8944272 0
vn 0.4472136 -0.8944272 0
vn 0.4472136 -0.8944272 0
vn 0 0 1
vn 0 0 1
vn 0 0 -1
vn 0 0 -1
vn 0.4472136 0.8944272 0
vn 0.4472136 0.8944272 0
vn 0.4472136 0.8944272 0
vn 0.4472136 0.8944272 0
vn 0 -1 0
vn 0 -1 0
vn 0 -1 0
vn 0 -1 0
vn 0 0 1
vn 0 0 1
vn 0 0 -1
vn 0 0 -1
vn 0 1 0
vn 0 1 0
vn 0 1 0
vn 0 1 0
g pb_Mesh45882_0
f 3/3/3 2/2/2 1/1/1
f 3/3/3 4/4/4 2/2/2
f 7/7/7 6/6/6 5/5/5
f 7/7/7 8/8/8 6/6/6
f 11/11/11 10/10/10 9/9/9
f 11/11/11 12/12/12 10/10/10
f 15/15/15 14/14/14 13/13/13
f 15/15/15 16/16/16 14/14/14
f 19/19/19 18/18/18 17/17/17
f 19/19/19 20/20/20 18/18/18
f 23/23/23 22/22/22 21/21/21
f 23/23/23 24/24/24 22/22/22
f 27/27/27 26/26/26 25/25/25
f 27/27/27 28/28/28 26/26/26
f 29/29/29 2/2/2 4/4/4
f 29/29/29 30/30/30 2/2/2
f 31/31/31 11/11/11 9/9/9
f 31/31/31 32/32/32 11/11/11
f 35/35/35 34/34/34 33/33/33
f 35/35/35 36/36/36 34/34/34
f 39/39/39 38/38/38 37/37/37
f 39/39/39 40/40/40 38/38/38
f 41/41/41 30/30/30 29/29/29
f 41/41/41 42/42/42 30/30/30
f 43/43/43 32/32/32 31/31/31
f 43/43/43 44/44/44 32/32/32
f 47/47/47 46/46/46 45/45/45
f 47/47/47 48/48/48 46/46/46
