g pb_Mesh220504
v 3 1 -10
v 6 1 -10
v 6 1 0
v 3 1 0
v -4 -3 0
v -4 -3 -10
v -4 -2 -10
v -4 -2 0
v -4 1 -10
v -4 1 0
v -4 -3 -13
v -4 -2 -13
v 6 -2 -13
v 6 -3 -10
v 6 -2 -10
v 6 -3 -13
v 6 -3 0
v 6 -2 0
v 6 1 -10
v 6 1 0
v 3 -2 -13
v 6 -3 -13
v 6 -2 -13
v 3 -3 -13
v -4 1 -10
v -1 1 -10
v -1 1 0
v -4 1 0
v -1 -2 -13
v -1 -3 -13
v -4 -2 -13
v -4 -3 -13
v -1 1 -13
v 3 1 -13
v 3 1 -11
v -1 1 -11
v -1 -1 -13
v 3 -1 -13
v -1 1 -13
v 3 1 -13
vt -3 -10
vt -6 -10
vt -6 0
vt -3 0
vt 0 -3
vt -10 -3
vt -10 -2
vt 0 -2
vt -10 1
vt 0 1
vt -13 -3
vt -13 -2
vt 13 -2
vt 10 -3
vt 10 -2
vt 13 -3
vt 0 -3
vt 0 -2
vt 10 1
vt 0 1
vt -3 -2
vt -6 -3
vt -6 -2
vt -3 -3
vt 4 -10
vt 1 -10
vt 1 0
vt 4 0
vt 1 -2
vt 1 -3
vt 4 -2
vt 4 -3
vt 1 -13
vt -3 -13
vt -3 -11
vt 1 -11
vt 1 -1
vt -3 -1
vt 1 1
vt -3 1
vn 0 1 0
vn 0 1 0
vn 0 1 0
vn 0 1 0
vn -1 0 0
vn -1 0 0
vn -1 0 0
vn -1 0 0
vn -1 0 0
vn -1 0 0
vn -1 0 0
vn -1 0 0
vn 1 0 0
vn 1 0 0
vn 1 0 0
vn 1 0 0
vn 1 0 0
vn 1 0 0
vn 1 0 0
vn 1 0 0
vn 0 0 -1
vn 0 0 -1
vn 0 0 -1
vn 0 0 -1
vn 0 1 0
vn 0 1 0
vn 0 1 0
vn 0 1 0
vn 0 0 -1
vn 0 0 -1
vn 0 0 -1
vn 0 0 -1
vn 0 1 0
vn 0 1 0
vn 0 1 0
vn 0 1 0
vn 0 0 -1
vn 0 0 -1
vn 0 0 -1
vn 0 0 -1
g pb_Mesh220504_0
g pb_Mesh220504_1
f 3/3/3 2/2/2 1/1/1
f 3/3/3 1/1/1 4/4/4
f 7/7/7 6/6/6 5/5/5
f 7/7/7 5/5/5 8/8/8
f 9/9/9 7/7/7 8/8/8
f 9/9/9 8/8/8 10/10/10
f 12/12/12 11/11/11 6/6/6
f 12/12/12 6/6/6 7/7/7
f 15/15/15 14/14/14 13/13/13
f 14/14/14 16/16/16 13/13/13
f 18/18/18 17/17/17 15/15/15
f 17/17/17 14/14/14 15/15/15
f 20/20/20 18/18/18 19/19/19
f 18/18/18 15/15/15 19/19/19
f 23/23/23 22/22/22 21/21/21
f 22/22/22 24/24/24 21/21/21
f 27/27/27 26/26/26 25/25/25
f 27/27/27 25/25/25 28/28/28
f 4/4/4 1/1/1 26/26/26
f 4/4/4 26/26/26 27/27/27
f 21/21/21 24/24/24 29/29/29
f 24/24/24 30/30/30 29/29/29
f 29/29/29 30/30/30 31/31/31
f 30/30/30 32/32/32 31/31/31
f 35/35/35 34/34/34 33/33/33
f 35/35/35 33/33/33 36/36/36
f 1/1/1 35/35/35 36/36/36
f 1/1/1 36/36/36 26/26/26
f 38/38/38 21/21/21 37/37/37
f 21/21/21 29/29/29 37/37/37
f 40/40/40 38/38/38 39/39/39
f 38/38/38 37/37/37 39/39/39
