g pb_Mesh173484
v -1.388161 -4 6.006882
v -1.989441 -5 8.160583
v -4.21312 -4 6.146828
v -1.388161 -4 6.006882
v -4.21312 -4 6.146828
v -3.611839 -4 3.993118
v -1.388161 -4 6.006882
v -3.611839 -4 3.993118
v -1.528107 -4 3.181923
v -1.388161 -4 6.006882
v -1.528107 -4 3.181923
v 0.6955795 -5 5.195686
v -1.388161 -4 6.006882
v 0.6955795 -5 5.195686
v -1.989441 -5 8.160583
v -3.611839 -4 3.993118
v -4.21312 -4 6.146828
v -5.69558 -5 4.804314
v -4.21312 -4 6.146828
v -1.989441 -5 8.160583
v -4.21312 -6 6.146828
v -1.989441 -5 8.160583
v 0.6955795 -5 5.195686
v -1.388161 -7 6.006882
v 0.6955795 -5 5.195686
v -1.528107 -4 3.181923
v -1.528107 -6 3.181923
v -1.528107 -4 3.181923
v -3.611839 -4 3.993118
v -3.010559 -5 1.839409
v -3.611839 -7 3.993118
v -5.69558 -5 4.804314
v -4.21312 -6 6.146828
v -3.611839 -7 3.993118
v -4.21312 -6 6.146828
v -1.388161 -7 6.006882
v -3.611839 -7 3.993118
v -1.388161 -7 6.006882
v -1.528107 -6 3.181923
v -3.611839 -7 3.993118
v -1.528107 -6 3.181923
v -3.010559 -5 1.839409
v -3.611839 -7 3.993118
v -3.010559 -5 1.839409
v -5.69558 -5 4.804314
v -4.21312 -6 6.146828
v -5.69558 -5 4.804314
v -4.21312 -4 6.146828
v -1.388161 -7 6.006882
v -4.21312 -6 6.146828
v -1.989441 -5 8.160583
v -1.528107 -6 3.181923
v -1.388161 -7 6.006882
v 0.6955795 -5 5.195686
v -3.010559 -5 1.839409
v -1.528107 -6 3.181923
v -1.528107 -4 3.181923
v -5.69558 -5 4.804314
v -3.010559 -5 1.839409
v -3.611839 -4 3.993118
vt 1.52462 2.466887
vt 2.466887 0
vt 0 1.52462
vt -1.52462 0
vt 0 2.466887
vt 1.52462 0
vt -1.52462 0
vt 1.52462 0
vt 0 -2.466887
vt -1.52462 2.466887
vt 0 1.52462
vt -2.466887 0
vt 0 2.466887
vt 1.52462 0
vt -1.52462 0
vt -1.52462 2.466887
vt 0 1.52462
vt -2.466887 0
vt 0 1.52462
vt 2.466887 0
vt 0 -1.52462
vt -1.52462 0
vt 1.52462 0
vt 0 -2.466887
vt -2.466887 0
vt 0 1.52462
vt 0 -1.52462
vt 0 1.52462
vt 1.52462 2.466887
vt 2.466887 0
vt -1.52462 -2.466887
vt -2.466887 0
vt 0 -1.52462
vt -1.52462 0
vt 0 2.466887
vt 1.52462 0
vt -1.52462 0
vt 1.52462 0
vt 0 -2.466887
vt 1.52462 -2.466887
vt 0 -1.52462
vt 2.466887 0
vt 0 -2.466887
vt -1.52462 0
vt 1.52462 0
vt 0 -1.52462
vt -2.466887 0
vt 0 1.52462
vt 1.52462 -2.466887
vt 0 -1.52462
vt 2.466887 0
vt 0 -1.52462
vt -1.52462 -2.466887
vt -2.466887 0
vt 2.466887 0
vt 0 -1.52462
vt 0 1.52462
vt 1.52462 0
vt -1.52462 0
vt 0 2.466887
vn 0.02109774 0.9045335 0.4258803
vn 0.02109774 0.9045335 0.4258803
vn 0.02109774 0.9045335 0.4258803
vn 0 1 0
vn 0 1 0
vn 0 1 0
vn 0 1 0
vn 0 1 0
vn 0 1 0
vn 0.4258785 0.9045344 -0.02109765
vn 0.4258785 0.9045344 -0.02109765
vn 0.4258785 0.9045344 -0.02109765
vn 0.5241252 0.7071072 0.4746495
vn 0.5241252 0.7071072 0.4746495
vn 0.5241252 0.7071072 0.4746495
vn -0.4699765 0.8728724 -0.1312097
vn -0.4699765 0.8728724 -0.1312097
vn -0.4699765 0.8728724 -0.1312097
vn -0.6712535 0 0.7412279
vn -0.6712535 0 0.7412279
vn -0.6712535 0 0.7412279
vn 0.662972 -0.4472141 0.6003897
vn 0.662972 -0.4472141 0.6003897
vn 0.662972 -0.4472141 0.6003897
vn 0.6712536 0 -0.7412278
vn 0.6712536 0 -0.7412278
vn 0.6712536 0 -0.7412278
vn -0.1770175 0.8728719 -0.454708
vn -0.1770175 0.8728719 -0.454708
vn -0.1770175 0.8728719 -0.454708
vn -0.6492304 -0.7427819 0.1636305
vn -0.6492304 -0.7427819 0.1636305
vn -0.6492304 -0.7427819 0.1636305
vn -0.3001944 -0.8944271 0.3314867
vn -0.3001944 -0.8944271 0.3314867
vn -0.3001944 -0.8944271 0.3314867
vn 0.3001949 -0.8944268 -0.3314872
vn 0.3001949 -0.8944268 -0.3314872
vn 0.3001949 -0.8944268 -0.3314872
vn 0.09866346 -0.7427816 -0.6622244
vn 0.09866346 -0.7427816 -0.6622244
vn 0.09866346 -0.7427816 -0.6622244
vn -0.6629725 -0.447215 -0.6003884
vn -0.6629725 -0.447215 -0.6003884
vn -0.6629725 -0.447215 -0.6003884
vn -0.6712544 0 0.7412271
vn -0.6712544 0 0.7412271
vn -0.6712544 0 0.7412271
vn -0.2324183 -0.7442074 0.6262085
vn -0.2324183 -0.7442074 0.6262085
vn -0.2324183 -0.7442074 0.6262085
vn 0.6001695 -0.7442087 -0.2931724
vn 0.6001695 -0.7442087 -0.2931724
vn 0.6001695 -0.7442087 -0.2931724
vn 0.6712562 0 -0.7412254
vn 0.6712562 0 -0.7412254
vn 0.6712562 0 -0.7412254
vn -0.5241251 0.7071082 -0.4746482
vn -0.5241251 0.7071082 -0.4746482
vn -0.5241251 0.7071082 -0.4746482
g pb_Mesh173484_0
f 3/3/3 2/2/2 1/1/1
f 6/6/6 5/5/5 4/4/4
f 9/9/9 8/8/8 7/7/7
f 12/12/12 11/11/11 10/10/10
f 15/15/15 14/14/14 13/13/13
f 18/18/18 17/17/17 16/16/16
f 21/21/21 20/20/20 19/19/19
f 24/24/24 23/23/23 22/22/22
f 27/27/27 26/26/26 25/25/25
f 30/30/30 29/29/29 28/28/28
f 33/33/33 32/32/32 31/31/31
f 36/36/36 35/35/35 34/34/34
f 39/39/39 38/38/38 37/37/37
f 42/42/42 41/41/41 40/40/40
f 45/45/45 44/44/44 43/43/43
f 48/48/48 47/47/47 46/46/46
f 51/51/51 50/50/50 49/49/49
f 54/54/54 53/53/53 52/52/52
f 57/57/57 56/56/56 55/55/55
f 60/60/60 59/59/59 58/58/58
