g pb_Mesh1073268
v 4.610752 0 -4.754853
v 4.300007 0 -3.324557
v 2.610752 0 -4.754853
v 2.651367 0.6809082 -2.803711
v 10 -2 0
v 4.854553 0 2.064739
v 3.011841 1 0
v 3.04999 0.5552979 2.890238
v 4.854553 0 2.064739
v 2 0 4
v 3.04999 0.5552979 2.890238
v 4.521978 0 4.372644
v 2 0 4
v 4.854553 0 2.064739
v 2.610752 0 -4.754853
v 2.651367 0.6809082 -2.803711
v 0.5697021 0 -3.870522
v 0 0.4036741 -3.011839
v 1.351563 0.9032869 0.2984333
v 1.371445 0.7414198 1.371449
v 0.4675446 1.12478 0.4377022
v 0 0.9032869 1.371449
v 3.04999 0.5552979 2.890238
v 2 0 4
v 0 0.4036741 3.011839
v 0.2866135 0 7
v -2.902915 0 -3.851131
v -4.875192 0 -2.193745
v -4.354805 0 -3.638172
v -2.164551 0.6540527 -2.080078
v -3.011841 0.4036741 0
v -1.920944 0.4036741 1.92094
v -4.999996 0 1
v -4.789825 0 2.05179
v -1.920944 0.4036741 1.92094
v -2 0 4
v -4.789825 0 2.05179
v -3.391449 0 3.404402
v 3.011841 1 0
v 3.04999 0.5552979 2.890238
v 1.351563 0.9032869 0.2984333
v 1.371445 0.7414198 1.371449
v 3.04999 0.5552979 2.890238
v 0 0.4036741 3.011839
v 1.371445 0.7414198 1.371449
v 0 0.9032869 1.371449
v -1.920944 0.4036741 1.92094
v -3.011841 0.4036741 0
v -1.371445 0.7414198 1.371449
v -1.371445 0.9032869 0
v 0 0.4036741 -3.011839
v 2.651367 0.6809082 -2.803711
v 0 0.9032869 -1.371449
v 1.371445 0.7414198 -1.371449
v 4.300007 0 -3.324557
v 2.466393 0.4036741 -0.9604702
v 2.651367 0.6809082 -2.803711
v 5.877108 0 -1.510062
v 5.877108 0 -1.510062
v 3.011841 1 0
v 2.466393 0.4036741 -0.9604702
v 10 -2 0
v 0 0.9032869 -1.371449
v 1.371445 0.7414198 -1.371449
v 0.5172882 1.12478 -0.5663509
v 1.371445 0.9032869 -0.6857243
v 0.5172882 1.12478 -0.5663509
v 1.371445 0.9032869 -0.6857243
v 0.4675446 1.12478 0.4377022
v 1.351563 0.9032869 0.2984333
v -4.875192 0 -2.193745
v -2.466393 0.4036741 -0.9604702
v -5 0 -1.5
v -2.164551 0.6540527 -2.080078
v -5 0 -1.5
v -3.011841 0.4036741 0
v -4.999996 0 1
v -2.466393 0.4036741 -0.9604702
v -2.466393 0.4036741 -0.9604702
v -1.371445 0.9032869 -0.6857243
v -1.371445 0.9032869 0
v -3.011841 0.4036741 0
v -2.466393 0.4036741 -0.9604702
v -2.164551 0.6540527 -2.080078
v -1.371445 0.7414198 -1.371449
v -1.371445 0.9032869 -0.6857243
v 1.371445 0.7414198 -1.371449
v 2.651367 0.6809082 -2.803711
v 2.466393 0.4036741 -0.9604702
v 1.371445 0.9032869 -0.6857243
v 1.351563 0.9032869 0.2984333
v 1.371445 0.9032869 -0.6857243
v 2.466393 0.4036741 -0.9604702
v 3.011841 1 0
v -1.025894 -1 -8.5
v 0.5697021 0 -3.870522
v 0 0.4036741 -3.011839
v -0.9604721 0.4036741 -2.46639
v -2.902915 0 -3.851131
v -1.025894 -1 -8.5
v -0.9604721 0.4036741 -2.46639
v -2.164551 0.6540527 -2.080078
v -0.68573 1.12478 0.5172844
v 0.4675446 1.12478 0.4377022
v 0 0.9032869 1.371449
v -0.6857224 0.9032869 1.371449
v -1.371445 0.9032869 0
v -0.68573 1.12478 0.5172844
v -0.6857224 0.9032869 1.371449
v -1.371445 0.7414198 1.371449
v -2 1.907349E-06 4.5
v -0.9604721 0.4036741 2.46639
v 0 0.4036741 3.011839
v 0.2866135 0 7
v -2 0 4
v -1.920944 0.4036741 1.92094
v -0.9604721 0.4036741 2.46639
v -2 1.907349E-06 4.5
v -0.6857224 0.9032869 1.371449
v 0 0.9032869 1.371449
v -0.9604721 0.4036741 2.46639
v 0 0.4036741 3.011839
v -1.920944 0.4036741 1.92094
v -1.371445 0.7414198 1.371449
v -0.9604721 0.4036741 2.46639
v -0.6857224 0.9032869 1.371449
v -0.9604721 0.4036741 -2.46639
v -1.371445 0.7414198 -1.371449
v -2.164551 0.6540527 -2.080078
v -0.6857224 0.9032869 -1.371449
v -0.9604721 0.4036741 -2.46639
v 0 0.4036741 -3.011839
v 0 0.9032869 -1.371449
v -0.6857224 0.9032869 -1.371449
v -1.371445 0.7414198 -1.371449
v -0.6857224 0.9032869 -1.371449
v -0.4967194 1.12478 -0.4569263
v -1.371445 0.9032869 -0.6857243
v -0.6857224 0.9032869 -1.371449
v 0 0.9032869 -1.371449
v 0.5172882 1.12478 -0.5663509
v -0.4967194 1.12478 -0.4569263
v -1.371445 0.9032869 -0.6857243
v -0.4967194 1.12478 -0.4569263
v -0.68573 1.12478 0.5172844
v -1.371445 0.9032869 0
v -0.4967194 1.12478 -0.4569263
v 0.5172882 1.12478 -0.5663509
v 0.4675446 1.12478 0.4377022
v -0.68573 1.12478 0.5172844
vt -4.610752 -4.754853
vt -4.300007 -3.324557
vt -2.610752 -4.754853
vt -2.651367 -2.803711
vt -9.977999 -0.1950748
vt -4.460865 1.878571
vt -2.373107 -0.1950748
vt -2.58359 2.71919
vt 2.859541 -2.261527
vt -0.5891848 -2.261527
vt 0.9026504 -1.615901
vt 1.289178 -3.140832
vt -0.5891848 -2.261527
vt 2.859541 -2.261527
vt -2.581924 -4.624175
vt -2.722999 -2.562055
vt -0.5634114 -3.689544
vt -0.05982331 -2.72055
vt -1.065363 0.1245466
vt -1.127246 1.208119
vt -0.1542304 0.2651857
vt 0.2383128 1.236761
vt -3.065699 2.418557
vt -1.999044 3.6452
vt -0.01247968 2.552965
vt -0.2864765 6.336778
vt 2.902915 -3.851131
vt 4.875192 -2.193745
vt 4.354805 -3.638172
vt 2.164551 -2.080078
vt 2.911998 -0.07664543
vt 1.834456 1.851818
vt 4.938785 0.9272709
vt 4.731187 1.977851
vt 1.851546 1.767921
vt 1.98278 3.883215
vt 4.748584 1.901052
vt 3.362248 3.26424
vt -3.040947 -0.13832
vt -3.065511 2.786075
vt -1.378491 0.1636402
vt -1.393425 1.248871
vt -3.071002 2.778445
vt -0.01731588 2.901787
vt -1.401986 1.237905
vt -0.03874711 1.200976
vt 1.6411 1.662394
vt 2.656743 -0.2993748
vt 1.006237 1.101223
vt 0.9471598 -0.2722686
vt -0.03245274 -2.765076
vt -2.697526 -2.547568
vt -0.07261833 -1.05076
vt -1.426611 -1.129657
vt -3.883184 -3.597875
vt -2.053932 -1.196243
vt -2.101903 -3.068757
vt -5.307409 -1.931052
vt -5.876281 -1.224912
vt -2.994644 0.5600845
vt -2.459275 -0.5752571
vt -10.03214 -0.9768614
vt 0.1058771 -0.9998134
vt -1.275087 -0.9998134
vt -0.3818834 -0.1472186
vt -1.256114 -0.299385
vt -0.2163326 -0.5815633
vt -1.098738 -0.700946
vt -0.1682027 0.4225685
vt -1.079501 0.2831974
vt 4.818789 -2.172759
vt 2.376631 -0.9390255
vt 4.942153 -1.478756
vt 2.040306 -2.052715
vt 4.900019 -1.5
vt 2.871292 -3.020688E-07
vt 4.900015 0.9999997
vt 2.336751 -0.9604705
vt 2.076273 -0.9604702
vt 0.8727264 -0.6857243
vt 0.8727264 0
vt 2.572504 0
vt 2.295035 -1.097936
vt 1.941512 -2.230341
vt 1.150876 -1.513612
vt 1.111648 -0.8591799
vt -1.157733 -1.526919
vt -2.415783 -2.979692
vt -2.30146 -1.110055
vt -1.119533 -0.8772136
vt -0.8519782 0.2867636
vt -0.8700505 -0.6974289
vt -2.073595 -0.9721845
vt -2.320802 -0.01822796
vt 0.7503704 -8.499443
vt -0.5524242 -3.674433
vt 0.09866215 -2.779483
vt 1.030005 -2.322288
vt 2.900322 -3.723792
vt 1.067237 -8.496107
vt 0.9425551 -2.30228
vt 2.134977 -1.857934
vt 0.7046988 0.2368218
vt -0.44841 0.1548734
vt 0.01531259 1.116383
vt 0.7009364 1.119156
vt 0.8015825 -0.3215244
vt 0.0908896 0.2092886
vt 0.192857 1.085792
vt 0.8761053 1.047205
vt 1.99241 4.421696
vt 0.9216939 2.364341
vt -0.03513353 2.916159
vt -0.2855259 6.922992
vt 1.988451 3.890596
vt 1.866534 1.774744
vt 0.9116077 2.329846
vt 1.988451 4.381901
vt 0.6857224 0.8727267
vt 0 0.8727267
vt 0.9604721 2.076267
vt 0 2.572499
vt 1.787319 1.504077
vt 1.177556 0.9157295
vt 0.8497987 2.088095
vt 0.4730451 0.9125179
vt 1.002819 -2.315963
vt 1.452201 -1.184626
vt 2.228547 -1.916811
vt 0.7915844 -1.122995
vt 0.87762 -2.200907
vt -0.06879959 -2.770391
vt -0.1539503 -1.05772
vt 0.5217394 -1.024126
vt 1.164428 -1.156008
vt 0.45986 -1.156008
vt 0.2250268 -0.2254246
vt 1.127241 -0.4529762
vt 0.6857224 -1.082716
vt 0 -1.082716
vt -0.5172882 -0.2477064
vt 0.4967194 -0.1422016
vt 1.121657 -0.6305544
vt 0.2193843 -0.4015203
vt 0.4031346 0.5736963
vt 1.121657 0.05446255
vt 0.4967194 -0.4569263
vt -0.5172882 -0.5663509
vt -0.4675446 0.4377022
vt 0.68573 0.5172844
vn 0 1 0
vn 0.1363444 0.9532986 -0.1610299
vn 0.1363444 0.9532986 -0.1610299
vn 0.2726889 0.9065971 -0.3220599
vn 0.3927886 0.9149565 0.09258313
vn 0.3706142 0.9210331 0.1153162
vn 0.3706142 0.9210331 0.1153162
vn 0.3484397 0.9271097 0.1380492
vn 0.2413213 0.7550697 0.3559543
vn 0.2413213 0.7550697 0.3559543
vn 0.4826426 0.5101393 0.7119087
vn 0 1 0
vn 0.2413213 0.7550697 0.3559543
vn 0.2413213 0.7550697 0.3559543
vn -0.1402215 0.9357347 -0.3236331
vn -0.09867686 0.9120574 -0.3895866
vn -0.09867686 0.9120574 -0.3895866
vn -0.05713225 0.8883801 -0.4555402
vn 0.2612581 0.9551722 0.1392493
vn 0.1868519 0.9539434 0.2107726
vn 0.1868519 0.9539434 0.2107726
vn 0.1124458 0.9527146 0.2822959
vn -0.02796947 0.9042823 0.4260179
vn 0.06346133 0.9441226 0.2572407
vn 0.06346133 0.9441226 0.2572407
vn 0.1548921 0.9839628 0.08846337
vn -0.1082138 0.9708579 -0.1287735
vn -0.1082138 0.9708579 -0.1287735
vn 0 1 0
vn -0.2164275 0.9417158 -0.257547
vn -0.1553868 0.9839045 0.08824372
vn -0.1467176 0.9869729 0.05791441
vn -0.1467176 0.9869729 0.05791441
vn -0.1380484 0.9900413 0.0275851
vn -0.1287009 0.9744075 0.184299
vn -0.06435045 0.9872037 0.09214948
vn -0.06435045 0.9872037 0.09214948
vn 0 1 0
vn -0.03015136 0.9878599 0.1523935
vn -0.02794931 0.988137 0.1509877
vn -0.02794931 0.988137 0.1509877
vn -0.02574726 0.988414 0.1495819
vn -0.04229007 0.9849743 0.1674432
vn 0.03495161 0.9677747 0.2284797
vn 0.03495161 0.9677747 0.2284797
vn 0.1121933 0.9505752 0.2895162
vn -0.3573804 0.9116405 0.2029553
vn -0.3234478 0.931108 0.1575741
vn -0.3234478 0.931108 0.1575741
vn -0.2895152 0.9505755 0.112193
vn -0.07692664 0.9537802 -0.2904923
vn 0.02002808 0.9724675 -0.1139137
vn 0.02002808 0.9724675 -0.1139137
vn 0.1169828 0.991155 0.06266487
vn 0.2628183 0.9398097 0.04337004
vn 0.2628183 0.9398097 0.04337004
vn 0.42279 0.8889469 0.176131
vn 0.1028466 0.9906724 -0.08939091
vn 0.2024313 0.8779424 -0.1972919
vn 0.2024313 0.8779424 -0.1972919
vn 0.01418912 0.8458556 -0.5332232
vn 0.3906734 0.9100294 0.1386395
vn 0.1106833 0.9377818 -0.3291117
vn 0.1628975 0.9441249 -0.2767362
vn 0.1628975 0.9441249 -0.2767362
vn 0.2151117 0.9504679 -0.2243606
vn 0.2526287 0.9674824 0.01251594
vn 0.2481978 0.9686519 0.008720292
vn 0.2481978 0.9686519 0.008720292
vn 0.2437669 0.9698214 0.00492464
vn -0.1947321 0.97382 0.06159577
vn -0.1947321 0.97382 0.06159577
vn -0.1516173 0.9880629 -0.02727676
vn -0.2378468 0.9595771 0.1504683
vn -0.1696281 0.983453 -0.03983126
vn -0.1696281 0.983453 -0.03983126
vn -0.1989793 0.9800037 3.036184E-07
vn -0.1402769 0.9869024 -0.07966283
vn -0.3512819 0.9267757 -0.08162005
vn -0.4151172 0.9097679 0
vn -0.3512819 0.9267757 -0.08162005
vn -0.2874466 0.9437834 -0.1632401
vn -0.3000359 0.933525 -0.03219057
vn -0.2396121 0.9592247 0.1499136
vn -0.3000359 0.933525 -0.03219057
vn -0.3604597 0.9078252 -0.2142947
vn 0.2965626 0.9329298 -0.02342606
vn 0.2326656 0.9580343 0.1674426
vn 0.2965626 0.9329298 -0.02342606
vn 0.3604597 0.9078252 -0.2142947
vn 0.141052 0.8916188 -0.2289415
vn 0.4168507 0.908936 0.008421324
vn 0.141052 0.8916188 -0.2289415
vn -0.1347468 0.8743018 -0.4663043
vn 0.05380341 0.9483975 -0.2526233
vn 0.2345057 0.9303763 -0.2817926
vn 0.05380341 0.9483975 -0.2526233
vn -0.1268989 0.9664186 -0.2234541
vn 0.01592129 0.9492795 -0.2990636
vn -0.04116606 0.9732627 -0.2259759
vn 0.01592129 0.9492795 -0.2990636
vn 0.07300863 0.9252964 -0.3721512
vn 0.008231295 0.9694855 0.2447886
vn 0.01646259 0.9709859 0.2385695
vn 0.008231295 0.9694855 0.2447886
vn 0 0.9679851 0.2510076
vn -0.3384498 0.9159917 0.1692244
vn -0.4486609 0.8650894 0.2243298
vn -0.3384498 0.9159917 0.1692244
vn -0.2282387 0.966894 0.114119
vn -0.1022848 0.9858601 0.1299555
vn -0.08602993 0.9847081 0.1514886
vn -0.1022848 0.9858601 0.1299555
vn -0.1185396 0.9870121 0.1084225
vn -0.2337189 0.954559 0.09283547
vn -0.105444 0.9769374 0.1856745
vn -0.2337189 0.954559 0.09283547
vn -0.3619938 0.9321805 -3.555986E-06
vn 0 0.909767 0.4151193
vn -0.08162029 0.926775 0.3512834
vn -0.08162029 0.926775 0.3512834
vn -0.1632406 0.943783 0.2874475
vn -0.2029559 0.9116399 0.3573816
vn -0.2086256 0.9097323 0.3589212
vn -0.2086256 0.9097323 0.3589212
vn -0.2142952 0.9078247 0.3604608
vn -0.04764698 0.9341553 -0.3060334
vn -0.04764698 0.9341553 -0.3060334
vn 0.1190012 0.9604859 -0.251606
vn -0.2142952 0.9078247 -0.3604608
vn -0.08162029 0.926775 -0.3512834
vn -0.1632406 0.943783 -0.2874475
vn -0.08162029 0.926775 -0.3512834
vn 0 0.909767 -0.4151193
vn -0.2044851 0.956618 -0.2054195
vn -0.2257744 0.9564546 -0.1849881
vn -0.2044851 0.956618 -0.2054195
vn -0.1831957 0.9567814 -0.2258509
vn -0.01243476 0.9684709 -0.2478583
vn 0 0.9641775 -0.2652577
vn -0.01243476 0.9684709 -0.2478583
vn -0.02486951 0.9727642 -0.2304589
vn -0.2707047 0.9613781 -0.02270318
vn -0.2340364 0.971167 -0.04540637
vn -0.2707047 0.9613781 -0.02270318
vn -0.3073729 0.9515892 0
vn 0 1 0
vn 0 1 0
vn 0 1 0
vn 0 1 0
g pb_Mesh1073268_0
f 3/3/3 2/2/2 1/1/1
f 3/3/3 4/4/4 2/2/2
f 7/7/7 6/6/6 5/5/5
f 7/7/7 8/8/8 6/6/6
f 11/11/11 10/10/10 9/9/9
f 14/14/14 13/13/13 12/12/12
f 17/17/17 16/16/16 15/15/15
f 17/17/17 18/18/18 16/16/16
f 21/21/21 20/20/20 19/19/19
f 21/21/21 22/22/22 20/20/20
f 25/25/25 24/24/24 23/23/23
f 25/25/25 26/26/26 24/24/24
f 29/29/29 28/28/28 27/27/27
f 27/27/27 28/28/28 30/30/30
f 33/33/33 32/32/32 31/31/31
f 33/33/33 34/34/34 32/32/32
f 37/37/37 36/36/36 35/35/35
f 37/37/37 38/38/38 36/36/36
f 41/41/41 40/40/40 39/39/39
f 41/41/41 42/42/42 40/40/40
f 45/45/45 44/44/44 43/43/43
f 45/45/45 46/46/46 44/44/44
f 49/49/49 48/48/48 47/47/47
f 49/49/49 50/50/50 48/48/48
f 53/53/53 52/52/52 51/51/51
f 53/53/53 54/54/54 52/52/52
f 57/57/57 56/56/56 55/55/55
f 56/56/56 58/58/58 55/55/55
f 61/61/61 60/60/60 59/59/59
f 60/60/60 62/62/62 59/59/59
f 65/65/65 64/64/64 63/63/63
f 65/65/65 66/66/66 64/64/64
f 69/69/69 68/68/68 67/67/67
f 69/69/69 70/70/70 68/68/68
f 73/73/73 72/72/72 71/71/71
f 72/72/72 74/74/74 71/71/71
f 77/77/77 76/76/76 75/75/75
f 76/76/76 78/78/78 75/75/75
f 81/81/81 80/80/80 79/79/79
f 81/81/81 79/79/79 82/82/82
f 85/85/85 84/84/84 83/83/83
f 86/86/86 85/85/85 83/83/83
f 89/89/89 88/88/88 87/87/87
f 89/89/89 87/87/87 90/90/90
f 93/93/93 92/92/92 91/91/91
f 94/94/94 93/93/93 91/91/91
f 97/97/97 96/96/96 95/95/95
f 98/98/98 97/97/97 95/95/95
f 101/101/101 100/100/100 99/99/99
f 102/102/102 101/101/101 99/99/99
f 105/105/105 104/104/104 103/103/103
f 105/105/105 103/103/103 106/106/106
f 109/109/109 108/108/108 107/107/107
f 109/109/109 107/107/107 110/110/110
f 113/113/113 112/112/112 111/111/111
f 114/114/114 113/113/113 111/111/111
f 117/117/117 116/116/116 115/115/115
f 118/118/118 117/117/117 115/115/115
f 121/121/121 120/120/120 119/119/119
f 121/121/121 122/122/122 120/120/120
f 125/125/125 124/124/124 123/123/123
f 125/125/125 126/126/126 124/124/124
f 129/129/129 128/128/128 127/127/127
f 128/128/128 130/130/130 127/127/127
f 133/133/133 132/132/132 131/131/131
f 134/134/134 133/133/133 131/131/131
f 137/137/137 136/136/136 135/135/135
f 137/137/137 135/135/135 138/138/138
f 141/141/141 140/140/140 139/139/139
f 141/141/141 139/139/139 142/142/142
f 145/145/145 144/144/144 143/143/143
f 145/145/145 143/143/143 146/146/146
f 149/149/149 148/148/148 147/147/147
f 149/149/149 147/147/147 150/150/150
