g pb_Mesh-4574098
v 22 -21 22
v 0 3 0
v 22 -3 22
v 0 18 0
v 0 3 0
v 0 3 -4
v 0 18 0
v 0 18 -4
v 0 3 -4
v 22 -21 17
v 0 18 -4
v 22 -3 17
v 22 -21 17
v 22 -21 22
v 22 -3 17
v 22 -3 22
v 22 -3 22
v 0 18 0
v 22 -3 17
v 0 18 -4
v 22 -21 17
v 0 3 -4
v 22 -21 22
v 0 3 0
vt -0.7071058 -29
vt -31.81981 -8
vt -0.7071058 -11
vt -31.81981 10
vt -22 -8
vt -26 -8
vt -22 10
vt -26 10
vt 34.64823 -8
vt 3.535533 -29
vt 34.64823 10
vt 3.535533 -11
vt 3.999999 -29
vt -1.430511E-06 -29
vt 3.999999 -11
vt -1.430511E-06 -11
vt -6.871878 1.430511E-06
vt 23.54193 -22
vt -6.871878 -3.999999
vt 23.54193 -26
vt 19.30044 -3.999999
vt -11.11337 -26
vt 19.30044 1.430511E-06
vt -11.11337 -22
vn -0.7071068 0 0.7071068
vn -0.7071068 0 0.7071068
vn -0.7071068 0 0.7071068
vn -0.7071068 0 0.7071068
vn -1 0 0
vn -1 0 0
vn -1 0 0
vn -1 0 0
vn 0.6904758 0 -0.7233555
vn 0.6904758 0 -0.7233555
vn 0.6904758 0 -0.7233555
vn 0.6904758 0 -0.7233556
vn 1 0 0
vn 1 0 0
vn 1 0 0
vn 1 0 0
vn 0.6904757 0.7233556 0
vn 0.6904757 0.7233555 0
vn 0.6904757 0.7233555 0
vn 0.6904758 0.7233555 0
vn -0.7371541 -0.6757246 0
vn -0.7371541 -0.6757246 0
vn -0.7371541 -0.6757246 0
vn -0.7371542 -0.6757246 0
g pb_Mesh-4574098_0
f 3/3/3 2/2/2 1/1/1
f 3/3/3 4/4/4 2/2/2
f 7/7/7 6/6/6 5/5/5
f 7/7/7 8/8/8 6/6/6
f 11/11/11 10/10/10 9/9/9
f 11/11/11 12/12/12 10/10/10
f 15/15/15 14/14/14 13/13/13
f 15/15/15 16/16/16 14/14/14
f 19/19/19 18/18/18 17/17/17
f 19/19/19 20/20/20 18/18/18
f 23/23/23 22/22/22 21/21/21
f 23/23/23 24/24/24 22/22/22
