g pb_Mesh46210
v -2.336502E-05 -8 8.000001
v -4.000024 -8 7.99999
v -2.336502E-05 -7 8.000001
v -4.000024 -7 7.99999
v -4.000024 -8 7.99999
v -3.999996 -12 -1.835823E-05
v -4.000024 -7 7.99999
v -3.999996 -11 -1.454353E-05
v -3.999996 -12 -1.835823E-05
v 1.186134E-05 -12 -6.675698E-06
v -3.999996 -11 -1.454353E-05
v 4.23193E-06 -11 -2.861023E-06
v 1.186134E-05 -12 -6.675698E-06
v -2.336502E-05 -8 8.000001
v 4.23193E-06 -11 -2.861023E-06
v -2.336502E-05 -7 8.000001
v -2.336502E-05 -7 8.000001
v -4.000024 -7 7.99999
v 4.23193E-06 -11 -2.861023E-06
v -3.999996 -11 -1.454353E-05
v 1.186134E-05 -12 -6.675698E-06
v -3.999996 -12 -1.835823E-05
v -2.336502E-05 -8 8.000001
v -4.000024 -8 7.99999
vt -4.768362E-07 -8
vt -4.000001 -8
vt -4.768362E-07 -7
vt -4.000001 -7
vt 8.000004 -8
vt -4.529979E-06 -12
vt 8.000004 -7
vt -7.152817E-07 -11
vt 3.999996 -12
vt -1.186132E-05 -12
vt 3.999996 -11
vt -4.231922E-06 -11
vt 6.675705E-06 -12
vt -8.000001 -8
vt 2.861025E-06 -11
vt -8.000001 -7
vt 1.335145E-05 4.024925
vt 4.000014 4.024912
vt -1.996755E-05 -4.919351
vt 3.99998 -4.919363
vt 2.938508E-05 -5.366565
vt -3.999979 -5.366578
vt -1.168252E-05 3.577714
vt -4.000012 3.577701
vn -2.861023E-06 0 1
vn -2.861023E-06 0 1
vn -2.861023E-06 0 1
vn -2.861023E-06 0 1
vn -1 0 -3.457066E-06
vn -1 6.593846E-12 -3.45707E-06
vn -1 6.593846E-12 -3.45707E-06
vn -1 1.318769E-11 -3.457074E-06
vn 2.920627E-06 3.814697E-06 -1
vn 2.920627E-06 3.814697E-06 -1
vn 2.920627E-06 3.814697E-06 -1
vn 2.920627E-06 3.814698E-06 -1
vn 1 7.629405E-06 5.885919E-07
vn 1 3.814702E-06 2.019105E-06
vn 1 3.814702E-06 2.019105E-06
vn 1 0 3.449617E-06
vn 1.279488E-06 0.8944273 -0.4472134
vn 1.279488E-06 0.8944273 -0.4472134
vn 1.279488E-06 0.8944273 -0.4472134
vn 1.279488E-06 0.8944273 -0.4472134
vn -1.306143E-06 -0.8944274 0.4472133
vn -1.292815E-06 -0.8944274 0.4472133
vn -1.292815E-06 -0.8944274 0.4472133
vn -1.279487E-06 -0.8944274 0.4472133
g pb_Mesh46210_0
f 3/3/3 2/2/2 1/1/1
f 3/3/3 4/4/4 2/2/2
f 7/7/7 6/6/6 5/5/5
f 7/7/7 8/8/8 6/6/6
f 11/11/11 10/10/10 9/9/9
f 11/11/11 12/12/12 10/10/10
f 15/15/15 14/14/14 13/13/13
f 15/15/15 16/16/16 14/14/14
f 19/19/19 18/18/18 17/17/17
f 19/19/19 20/20/20 18/18/18
f 23/23/23 22/22/22 21/21/21
f 23/23/23 24/24/24 22/22/22
