g pb_Mesh44150
v -590 34 99
v -598 34 101
v -590 34 101
v -598 34 99
v -587 34 109
v -590 34 109
v -587 34 101
v -587 34 99
v -590 18 109
v -587 34 109
v -590 34 109
v -587 18 109
v -598 18 109
v -598 34 109
v -603.9999 18 101
v -603.9999 34 109
v -603.9999 34 101
v -603.9999 18 109
v -598 18 99
v -598 34 101
v -598 34 99
v -598 18 101
v -587 18 99
v -590 34 99
v -587 34 99
v -590 18 99
v -587 18 101
v -587 34 99
v -587 34 101
v -587 18 99
v -585 18 109
v -585 34 101
v -585 34 109
v -585 18 101
v -590 18 101
v -587 18 99
v -587 18 101
v -590 18 99
v -590 18 109
v -587 18 109
v -598 18 101
v -598 18 99
v -598 18 109
v -585 34 101
v -585 34 109
v -585 34 109
v -585 18 109
v -585 18 109
v -585 18 101
v -587 18 101
v -587 34 101
v -585 18 101
v -585 34 101
v -598 34 83
v -598 18 83
v -598 18 83
v -590 18 83
v -598 34 83
v -590 34 83
v -590 18 99
v -590 34 83
v -590 34 99
v -590 18 83
v -598 34 109
v -598 34 101
v -603.9999 34 109
v -603.9999 34 101
v -598 34 101
v -598 18 101
v -603.9999 34 101
v -603.9999 18 101
v -603.9999 18 101
v -603.9999 18 109
v -603.9999 18 109
v -603.9999 34 109
v -590 25.00609 83
v -598 34 83
v -590 34 83
v -598 25.00609 83
vt -590 99
vt -598 101
vt -590 101
vt -598 99
vt -587 109
vt -590 109
vt -587 101
vt -587 99
vt 590 18
vt 587 34
vt 590 34
vt 587 18
vt 598 18
vt 598 34
vt -101 18
vt -109 34
vt -101 34
vt -109 18
vt -99 18
vt -101 34
vt -99 34
vt -101 18
vt -587 18
vt -590 34
vt -587 34
vt -590 18
vt 101 18
vt 99 34
vt 101 34
vt 99 18
vt 109 18
vt 101 34
vt 109 34
vt 101 18
vt 590 101
vt 587 99
vt 587 101
vt 590 99
vt 590 109
vt 587 109
vt 598 101
vt 598 99
vt 598 109
vt -585 101
vt -585 109
vt 585 34
vt 585 18
vt 585 109
vt 585 101
vt -587 18
vt -587 34
vt -585 18
vt -585 34
vt -83 34
vt -83 18
vt 598 83
vt 590 83
vt -598 83
vt -590 83
vt 99 18
vt 83 34
vt 99 34
vt 83 18
vt -598 109
vt -598 101
vt -603.9999 109
vt -603.9999 101
vt -598 34
vt -598 18
vt -603.9999 34
vt -603.9999 18
vt 603.9999 101
vt 603.9999 109
vt 603.9999 18
vt 603.9999 34
vt -590 25.00609
vt -598 34
vt -590 34
vt -598 25.00609
vn 0 -1 0
vn 0 -1 0
vn 0 -1 0
vn 0 -1 0
vn 0 -1 0
vn 0 -1 0
vn 0 -1 0
vn 0 -1 0
vn 0 0 -1
vn 0 0 -1
vn 0 0 -1
vn 0 0 -1
vn 0 0 -1
vn 0 0 -1
vn 1 0 0
vn 1 0 0
vn 1 0 0
vn 1 0 0
vn 1 0 0
vn 1 0 0
vn 1 0 0
vn 1 0 0
vn 0 0 1
vn 0 0 1
vn 0 0 1
vn 0 0 1
vn -1 0 0
vn -1 0 0
vn -1 0 0
vn -1 0 0
vn -1 0 0
vn -1 0 0
vn -1 0 0
vn -1 0 0
vn 0 1 0
vn 0 1 0
vn 0 1 0
vn 0 1 0
vn 0 1 0
vn 0 1 0
vn 0 1 0
vn 0 1 0
vn 0 1 0
vn 0 -1 0
vn 0 -1 0
vn 0 0 -1
vn 0 0 -1
vn 0 1 0
vn 0 1 0
vn 0 0 1
vn 0 0 1
vn 0 0 1
vn 0 0 1
vn 1 0 0
vn 1 0 0
vn 0 1 0
vn 0 1 0
vn 0 -1 0
vn 0 -1 0
vn -1 0 0
vn -1 0 0
vn -1 0 0
vn -1 0 0
vn 0 -1 0
vn 0 -1 0
vn 0 -1 0
vn 0 -1 0
vn 0 0 1
vn 0 0 1
vn 0 0 1
vn 0 0 1
vn 0 1 0
vn 0 1 0
vn 0 0 -1
vn 0 0 -1
vn 0 0 1
vn 0 0 1
vn 0 0 1
vn 0 0 1
g pb_Mesh44150_0
f 3/3/3 2/2/2 1/1/1
f 2/2/2 4/4/4 1/1/1
f 6/6/6 3/3/3 5/5/5
f 3/3/3 7/7/7 5/5/5
f 3/3/3 1/1/1 7/7/7
f 1/1/1 8/8/8 7/7/7
f 11/11/11 10/10/10 9/9/9
f 10/10/10 12/12/12 9/9/9
f 14/14/14 11/11/11 13/13/13
f 11/11/11 9/9/9 13/13/13
f 17/17/17 16/16/16 15/15/15
f 16/16/16 18/18/18 15/15/15
f 21/21/21 20/20/20 19/19/19
f 20/20/20 22/22/22 19/19/19
f 25/25/25 24/24/24 23/23/23
f 24/24/24 26/26/26 23/23/23
f 29/29/29 28/28/28 27/27/27
f 28/28/28 30/30/30 27/27/27
f 33/33/33 32/32/32 31/31/31
f 32/32/32 34/34/34 31/31/31
f 37/37/37 36/36/36 35/35/35
f 36/36/36 38/38/38 35/35/35
f 40/40/40 37/37/37 39/39/39
f 37/37/37 35/35/35 39/39/39
f 35/35/35 38/38/38 41/41/41
f 38/38/38 42/42/42 41/41/41
f 39/39/39 35/35/35 43/43/43
f 35/35/35 41/41/41 43/43/43
f 44/44/44 5/5/5 7/7/7
f 44/44/44 45/45/45 5/5/5
f 46/46/46 12/12/12 10/10/10
f 46/46/46 47/47/47 12/12/12
f 48/48/48 37/37/37 40/40/40
f 48/48/48 49/49/49 37/37/37
f 52/52/52 51/51/51 50/50/50
f 52/52/52 53/53/53 51/51/51
f 21/21/21 19/19/19 54/54/54
f 19/19/19 55/55/55 54/54/54
f 42/42/42 38/38/38 56/56/56
f 38/38/38 57/57/57 56/56/56
f 4/4/4 58/58/58 1/1/1
f 58/58/58 59/59/59 1/1/1
f 62/62/62 61/61/61 60/60/60
f 61/61/61 63/63/63 60/60/60
f 66/66/66 65/65/65 64/64/64
f 66/66/66 67/67/67 65/65/65
f 70/70/70 69/69/69 68/68/68
f 70/70/70 71/71/71 69/69/69
f 72/72/72 43/43/43 41/41/41
f 72/72/72 73/73/73 43/43/43
f 74/74/74 14/14/14 13/13/13
f 74/74/74 75/75/75 14/14/14
f 78/78/78 77/77/77 76/76/76
f 77/77/77 79/79/79 76/76/76
g pb_Mesh44150_1
g pb_Mesh44150_2
