g pb_Mesh206068
v -3 0 0
v -2.999992 0 4
v -3 0.25 0
v -2.999992 0.25 4
v -3 0.25 0
v -2.999992 0.25 4
v -3.5 0.25 0
v -3.499992 0.25 4
v -3.5 0.25 0
v -3.499992 0.25 4
v -3.5 0.5 0
v -3.499992 0.5 4
v -3.5 0.5 0
v -3.499992 0.5 4
v -4 0.5 0
v -3.999992 0.5 4
v -4 0.5 0
v -3.999992 0.5 4
v -4 0.75 0
v -3.999992 0.75 4
v -4 0.75 0
v -3.999992 0.75 4
v -4.5 0.75 0
v -4.499992 0.75 4
v -4.5 0.75 0
v -4.499992 0.75 4
v -4.5 1 0
v -4.499992 1 4
v -4.5 1 0
v -4.499992 1 4
v -5 1 0
v -4.999992 1 4
v -5 1 0
v -4.999992 1 4
v -5 1.25 0
v -4.999992 1.25 4
v -5 1.25 0
v -4.999992 1.25 4
v -5.5 1.25 0
v -5.499992 1.25 4
v -5.5 1.25 0
v -5.499992 1.25 4
v -5.5 1.5 0
v -5.499992 1.5 4
v -5.5 1.5 0
v -5.499992 1.5 4
v -6 1.5 0
v -5.999992 1.5 4
v -6 1.5 0
v -5.999992 1.5 4
v -6 1.75 0
v -5.999992 1.75 4
v -6 1.75 0
v -5.999992 1.75 4
v -6.5 1.75 0
v -6.499992 1.75 4
v -6.5 1.75 0
v -6.499992 1.75 4
v -6.5 2 0
v -6.499992 2 4
v -6.5 2 0
v -6.499992 2 4
v -7 2 1.525879E-05
v -6.999992 2 4.000015
v -2.999992 0 4
v -3.499992 0 4
v -2.999992 0.25 4
v -3.499992 0.25 4
v -3.999992 0 4
v -3.999992 0.5 4
v -3.499992 0.5 4
v -4.499992 0 4
v -4.499992 0.75 4
v -3.999992 0.75 4
v -4.999992 0 4
v -4.999992 1 4
v -4.499992 1 4
v -5.499992 0 4
v -5.499992 1.25 4
v -4.999992 1.25 4
v -5.999992 0 4
v -5.999992 1.5 4
v -5.499992 1.5 4
v -6.499992 0 4
v -6.499992 1.75 4
v -5.999992 1.75 4
v -6.999992 0 4.000015
v -6.999992 2 4.000015
v -6.499992 2 4
v -3 0.25 0
v -3.5 0 0
v -3 0 0
v -3.5 0.25 0
v -4 0 0
v -4 0.5 0
v -3.5 0.5 0
v -4.5 0 0
v -4.5 0.75 0
v -4 0.75 0
v -5 0 0
v -5 1 0
v -4.5 1 0
v -5.5 0 0
v -5.5 1.25 0
v -5 1.25 0
v -6 0 0
v -6 1.5 0
v -5.5 1.5 0
v -6.5 0 0
v -6.5 1.75 0
v -6 1.75 0
v -7 0 1.525879E-05
v -7 2 1.525879E-05
v -6.5 2 0
v -6.999992 0 4.000015
v -7 0 1.525879E-05
v -6.999992 2 4.000015
v -7 2 1.525879E-05
v -7 0 6
v -12 0 6
v -7 2 6
v -12 2 6
v -12 0 6
v -12 0 -2
v -12 2 6
v -12 2 -2
v -12 0 -2
v -7 0 -2
v -12 2 -2
v -7 2 -2
v -7 0 -2
v -7 0 6
v -7 2 -2
v -7 2 6
v -7 2 6
v -12 2 6
v -7 2 -2
v -12 2 -2
v -7 0 -2
v -12 0 -2
v -7 0 6
v -12 0 6
vt 0 0
vt -4 0
vt 0 0.25
vt -4 0.25
vt 0 0
vt -4 0
vt 0 0.5
vt -4 0.5
vt 0 0.25
vt -4 0.25
vt 0 0.5
vt -4 0.5
vt 0 0.5
vt -4 0.5
vt 0 1
vt -4 1
vt 0 0.5
vt -4 0.5
vt 0 0.75
vt -4 0.75
vt 0 1
vt -4 1
vt 0 1.5
vt -4 1.5
vt 0 0.75
vt -4 0.75
vt 0 1
vt -4 1
vt 0 1.5
vt -4 1.5
vt 0 2
vt -4 2
vt 0 1
vt -4 1
vt 0 1.25
vt -4 1.25
vt 0 2
vt -4 2
vt 0 2.5
vt -4 2.5
vt 0 1.25
vt -4 1.25
vt 0 1.5
vt -4 1.5
vt 0 2.5
vt -4 2.5
vt 0 3
vt -4 3
vt 0 1.5
vt -4 1.5
vt 0 1.75
vt -4 1.75
vt 0 3
vt -4 3
vt 0 3.5
vt -4 3.5
vt 0 1.75
vt -4 1.75
vt 0 2
vt -4 2
vt 0 3.5
vt -4 3.5
vt 0 4
vt -4 4
vt 0 0
vt 0.5 0
vt 0 0.25
vt 0.5 0.25
vt 1 0
vt 1 0.5
vt 0.5 0.5
vt 1.5 0
vt 1.5 0.75
vt 1 0.75
vt 2 0
vt 2 1
vt 1.5 1
vt 2.5 0
vt 2.5 1.25
vt 2 1.25
vt 3 0
vt 3 1.5
vt 2.5 1.5
vt 3.5 0
vt 3.5 1.75
vt 3 1.75
vt 4 0
vt 4 2
vt 3.5 2
vt 0 0.25
vt 0.5 0
vt 0 0
vt 0.5 0.25
vt 1 0
vt 1 0.5
vt 0.5 0.5
vt 1.5 0
vt 1.5 0.75
vt 1 0.75
vt 2 0
vt 2 1
vt 1.5 1
vt 2.5 0
vt 2.5 1.25
vt 2 1.25
vt 3 0
vt 3 1.5
vt 2.5 1.5
vt 3.5 0
vt 3.5 1.75
vt 3 1.75
vt 4 0
vt 4 2
vt 3.5 2
vt 4 0
vt 0 0
vt 4 2
vt 0 2
vt 4 -2
vt -4 -2
vt 4 0
vt -4 0
vt 4 -2
vt -4 -2
vt 4 0
vt -4 0
vt 4 -2
vt -4 -2
vt 4 0
vt -4 0
vt 4 -2
vt -4 -2
vt 4 0
vt -4 0
vt -4 4
vt 4 4
vt -4 -4
vt 4 -4
vt 4 -4
vt -4 -4
vt 4 4
vt -4 4
vn 1 0 -1.907349E-06
vn 1 0 -1.907349E-06
vn 1 0 -1.907349E-06
vn 1 0 -1.907349E-06
vn 0 1 0
vn 0 1 0
vn 0 1 0
vn 0 1 0
vn 1 0 -1.907349E-06
vn 1 0 -1.907349E-06
vn 1 0 -1.907349E-06
vn 1 0 -1.907349E-06
vn 0 1 0
vn 0 1 0
vn 0 1 0
vn 0 1 0
vn 1 0 -1.907349E-06
vn 1 0 -1.907349E-06
vn 1 0 -1.907349E-06
vn 1 0 -1.907349E-06
vn 0 1 0
vn 0 1 0
vn 0 1 0
vn 0 1 0
vn 1 0 -1.907349E-06
vn 1 0 -1.907349E-06
vn 1 0 -1.907349E-06
vn 1 0 -1.907349E-06
vn 0 1 0
vn 0 1 0
vn 0 1 0
vn 0 1 0
vn 1 0 -1.907349E-06
vn 1 0 -1.907349E-06
vn 1 0 -1.907349E-06
vn 1 0 -1.907349E-06
vn 0 1 0
vn 0 1 0
vn 0 1 0
vn 0 1 0
vn 1 0 -1.907349E-06
vn 1 0 -1.907349E-06
vn 1 0 -1.907349E-06
vn 1 0 -1.907349E-06
vn 0 1 0
vn 0 1 0
vn 0 1 0
vn 0 1 0
vn 1 0 -1.907349E-06
vn 1 0 -1.907349E-06
vn 1 0 -1.907349E-06
vn 1 0 -1.907349E-06
vn 0 1 0
vn 0 1 0
vn 0 1 0
vn 0 1 0
vn 1 0 -1.907349E-06
vn 1 0 -1.907349E-06
vn 1 0 -1.907349E-06
vn 1 0 -1.907349E-06
vn 0 1 0
vn 0 1 0
vn 0 1 0
vn 0 1 0
vn 0 0 1
vn 0 0 1
vn 0 0 1
vn 0 0 1
vn 0 0 1
vn 0 0 1
vn 0 0 1
vn 0 0 1
vn 0 0 1
vn 0 0 1
vn 0 0 1
vn 0 0 1
vn 0 0 1
vn 0 0 1
vn 0 0 1
vn 0 0 1
vn 0 0 1
vn 0 0 1
vn 0 0 1
vn 0 0 1
vn 0 0 1
vn 0 0 1
vn 3.051758E-05 0 1
vn 3.051758E-05 0 1
vn 3.051758E-05 0 1
vn 0 0 -1
vn 0 0 -1
vn 0 0 -1
vn 0 0 -1
vn 0 0 -1
vn 0 0 -1
vn 0 0 -1
vn 0 0 -1
vn 0 0 -1
vn 0 0 -1
vn 0 0 -1
vn 0 0 -1
vn 0 0 -1
vn 0 0 -1
vn 0 0 -1
vn 0 0 -1
vn 0 0 -1
vn 0 0 -1
vn 0 0 -1
vn 0 0 -1
vn 0 0 -1
vn 0 0 -1
vn -3.051758E-05 0 -1
vn -3.051758E-05 0 -1
vn -3.051758E-05 0 -1
vn -1 0 1.907349E-06
vn -1 0 1.907349E-06
vn -1 0 1.907349E-06
vn -1 0 1.907349E-06
vn 0 0 1
vn 0 0 1
vn 0 0 1
vn 0 0 1
vn -1 0 0
vn -1 0 0
vn -1 0 0
vn -1 0 0
vn 0 0 -1
vn 0 0 -1
vn 0 0 -1
vn 0 0 -1
vn 1 0 0
vn 1 0 0
vn 1 0 0
vn 1 0 0
vn 0 1 0
vn 0 1 0
vn 0 1 0
vn 0 1 0
vn 0 -1 0
vn 0 -1 0
vn 0 -1 0
vn 0 -1 0
g pb_Mesh206068_0
g pb_Mesh206068_1
f 3/3/3 2/2/2 1/1/1
f 3/3/3 4/4/4 2/2/2
f 7/7/7 6/6/6 5/5/5
f 7/7/7 8/8/8 6/6/6
f 11/11/11 10/10/10 9/9/9
f 11/11/11 12/12/12 10/10/10
f 15/15/15 14/14/14 13/13/13
f 15/15/15 16/16/16 14/14/14
f 19/19/19 18/18/18 17/17/17
f 19/19/19 20/20/20 18/18/18
f 23/23/23 22/22/22 21/21/21
f 23/23/23 24/24/24 22/22/22
f 27/27/27 26/26/26 25/25/25
f 27/27/27 28/28/28 26/26/26
f 31/31/31 30/30/30 29/29/29
f 31/31/31 32/32/32 30/30/30
f 35/35/35 34/34/34 33/33/33
f 35/35/35 36/36/36 34/34/34
f 39/39/39 38/38/38 37/37/37
f 39/39/39 40/40/40 38/38/38
f 43/43/43 42/42/42 41/41/41
f 43/43/43 44/44/44 42/42/42
f 47/47/47 46/46/46 45/45/45
f 47/47/47 48/48/48 46/46/46
f 51/51/51 50/50/50 49/49/49
f 51/51/51 52/52/52 50/50/50
f 55/55/55 54/54/54 53/53/53
f 55/55/55 56/56/56 54/54/54
f 59/59/59 58/58/58 57/57/57
f 59/59/59 60/60/60 58/58/58
f 63/63/63 62/62/62 61/61/61
f 63/63/63 64/64/64 62/62/62
f 67/67/67 66/66/66 65/65/65
f 67/67/67 68/68/68 66/66/66
f 68/68/68 69/69/69 66/66/66
f 68/68/68 70/70/70 69/69/69
f 68/68/68 71/71/71 70/70/70
f 70/70/70 72/72/72 69/69/69
f 70/70/70 73/73/73 72/72/72
f 70/70/70 74/74/74 73/73/73
f 73/73/73 75/75/75 72/72/72
f 73/73/73 76/76/76 75/75/75
f 73/73/73 77/77/77 76/76/76
f 76/76/76 78/78/78 75/75/75
f 76/76/76 79/79/79 78/78/78
f 76/76/76 80/80/80 79/79/79
f 79/79/79 81/81/81 78/78/78
f 79/79/79 82/82/82 81/81/81
f 79/79/79 83/83/83 82/82/82
f 82/82/82 84/84/84 81/81/81
f 82/82/82 85/85/85 84/84/84
f 82/82/82 86/86/86 85/85/85
f 85/85/85 87/87/87 84/84/84
f 85/85/85 88/88/88 87/87/87
f 85/85/85 89/89/89 88/88/88
f 92/92/92 91/91/91 90/90/90
f 91/91/91 93/93/93 90/90/90
f 91/91/91 94/94/94 93/93/93
f 94/94/94 95/95/95 93/93/93
f 95/95/95 96/96/96 93/93/93
f 94/94/94 97/97/97 95/95/95
f 97/97/97 98/98/98 95/95/95
f 98/98/98 99/99/99 95/95/95
f 97/97/97 100/100/100 98/98/98
f 100/100/100 101/101/101 98/98/98
f 101/101/101 102/102/102 98/98/98
f 100/100/100 103/103/103 101/101/101
f 103/103/103 104/104/104 101/101/101
f 104/104/104 105/105/105 101/101/101
f 103/103/103 106/106/106 104/104/104
f 106/106/106 107/107/107 104/104/104
f 107/107/107 108/108/108 104/104/104
f 106/106/106 109/109/109 107/107/107
f 109/109/109 110/110/110 107/107/107
f 110/110/110 111/111/111 107/107/107
f 109/109/109 112/112/112 110/110/110
f 112/112/112 113/113/113 110/110/110
f 113/113/113 114/114/114 110/110/110
f 117/117/117 116/116/116 115/115/115
f 117/117/117 118/118/118 116/116/116
f 121/121/121 120/120/120 119/119/119
f 121/121/121 122/122/122 120/120/120
f 125/125/125 124/124/124 123/123/123
f 125/125/125 126/126/126 124/124/124
f 129/129/129 128/128/128 127/127/127
f 129/129/129 130/130/130 128/128/128
f 133/133/133 132/132/132 131/131/131
f 133/133/133 134/134/134 132/132/132
f 137/137/137 136/136/136 135/135/135
f 137/137/137 138/138/138 136/136/136
f 141/141/141 140/140/140 139/139/139
f 141/141/141 142/142/142 140/140/140
