g pb_Mesh134908
v 6.025414 1.039941 -7.815384
v 10.11146 1.039908 -0.7394158
v 4.62204 1.039941 -5.016983
v 7.21652 1.039908 -0.7106034
v 4.62204 1.039941 -5.016983
v 6.025414 1.039941 -7.815384
v -0.5408173 1.039927 -5.23191
v -2.173576 1.039927 -7.902978
v -0.5408173 1.039927 -5.23191
v -2.173576 1.039927 -7.902978
v -3.051512 1.039914 -0.6948279
v -6.200188 1.039914 -0.7120177
v -3.051512 1.039914 -0.6948279
v -6.200188 1.039914 -0.7120177
v 0.2005247 1.039901 4.015215
v -1.870582 1.039901 6.410717
v 0.2005247 1.039901 4.015215
v -1.870582 1.039901 6.410717
v 3.901253 1.039888 4.056126
v 6.088062 1.039888 6.367057
v 3.901253 1.039888 4.056126
v 6.088062 1.039888 6.367057
v 7.21652 1.039908 -0.7106034
v 10.11146 1.039908 -0.7394158
vt 4.086044 4.768372E-07
vt 0 7.075969
vt 5.489418 2.798401
vt 2.894937 7.104781
vt 1.403374 2.885995
vt 4.768372E-07 0.08759403
vt 6.566231 2.671068
vt 8.19899 0
vt -2.384186E-07 2.671068
vt 1.632759 0
vt 2.510695 7.20815
vt 5.65937 7.19096
vt 3.252037 0.0171895
vt 6.400712 -2.384186E-07
vt 0 4.727233
vt 2.071107 7.122735
vt 5.887537 0
vt 7.958644 2.395502
vt 2.18681 0.04091024
vt 0 2.351842
vt 6.210206 4.795542
vt 4.023396 7.106473
vt 2.894938 0.02881265
vt 0 2.384186E-07
vn 4.30957E-06 0.9999999 2.161212E-06
vn 2.743471E-06 1 4.170994E-06
vn 2.743471E-06 1 4.170994E-06
vn 7.558766E-08 1 7.594698E-06
vn -2.510554E-06 1 -1.259021E-06
vn -1.982482E-06 1 8.314372E-08
vn -1.982482E-06 1 8.314372E-08
vn -1.624494E-06 0.9999999 9.930137E-07
vn -2.481599E-06 1 1.516941E-06
vn -9.572517E-07 1 1.702603E-06
vn -9.572517E-07 1 1.702603E-06
vn -9.925098E-09 1 1.817985E-06
vn -1.525615E-08 1 2.794589E-06
vn 7.816645E-07 1 1.715552E-06
vn 7.816645E-07 1 1.715552E-06
vn 1.250313E-06 1 1.080997E-06
vn 3.541724E-06 1 3.062109E-06
vn 2.269789E-06 1 -5.580049E-08
vn 2.269789E-06 1 -5.580049E-08
vn 1.654037E-06 1 -1.565198E-06
vn -2.528598E-06 1 2.392786E-06
vn -1.171711E-06 1 2.609127E-06
vn -1.171711E-06 1 2.609127E-06
vn 2.787138E-08 1 2.800388E-06
g pb_Mesh134908_0
f 3/3/3 2/2/2 1/1/1
f 3/3/3 4/4/4 2/2/2
f 5/5/5 6/6/6 7/7/7
f 6/6/6 8/8/8 7/7/7
f 9/9/9 10/10/10 11/11/11
f 10/10/10 12/12/12 11/11/11
f 13/13/13 14/14/14 15/15/15
f 14/14/14 16/16/16 15/15/15
f 17/17/17 18/18/18 19/19/19
f 18/18/18 20/20/20 19/19/19
f 21/21/21 22/22/22 23/23/23
f 22/22/22 24/24/24 23/23/23
