g pb_Mesh566334
v 16 -4 -4.000004
v 16 -6 -4.000004
v 16 -4 -5.722046E-06
v 16 -6 -5.722046E-06
v 4 0 0
v 4 -2 0
v -4 4 0
v -4 2 0
v 4 -2 0
v -4 2 -4
v -4 2 0
v 4 -2 -4
v -4 2 0
v -4 4 -4
v -4 4 0
v -4 2 -4
v -4 2 -4
v 4 -2 -4
v -4 4 -4
v 4 0 -4
v -4 4 -4
v 4 0 -4
v -4 4 0
v 4 0 0
v 12 -4 -4
v 12 -6 -4
v 12 -4 0
v 12 -4 -4
v 12 -6 -4
v 12 -6 0
v 12 -6 0
v 12 -4 0
v 16 -4 -4.000004
v 16 -6 -4.000004
v 12 -4 0
v 12 -4 -4
v 16 -4 -5.722046E-06
v 16 -4 -4.000004
v 12 -6 -4
v 12 -6 0
v 16 -6 -4.000004
v 16 -6 -5.722046E-06
v 16 -6 -5.722046E-06
v 16 -4 -5.722046E-06
vt 4.000004 -4
vt 4.000004 -6
vt 5.722046E-06 -4
vt 5.722046E-06 -6
vt 4 0
vt 4 -2
vt -4 4
vt -4 2
vt 4.472136 0
vt -4.472136 -4
vt -4.472136 0
vt 4.472136 -4
vt 0 2
vt -4 4
vt 0 4
vt -4 2
vt 4 2
vt -4 -2
vt 4 4
vt -4 0
vt 5.366563 -4
vt -3.577709 -4
vt 5.366563 0
vt -3.577709 0
vt -12 -4
vt -12 -6
vt -12.52198 0
vt -12.52198 -4
vt 13.41641 -4
vt 13.41641 0
vt 12 -6
vt 12 -4
vt -16 -4
vt -16 -6
vt -12 0
vt -12 -4
vt -16 -5.722046E-06
vt -16 -4.000004
vt 12 -4
vt 12 0
vt 16 -4.000004
vt 16 -5.722046E-06
vt 16 -6
vt 16 -4
vn 1 0 0
vn 1 0 0
vn 1 0 0
vn 1 0 0
vn 0 0 1
vn 0 0 1
vn 0 0 1
vn 0 0 1
vn -0.4472136 -0.8944272 0
vn -0.4472136 -0.8944272 0
vn -0.4472136 -0.8944272 0
vn -0.4472136 -0.8944272 0
vn -1 0 0
vn -1 0 0
vn -1 0 0
vn -1 0 0
vn 0 0 -1
vn 0 0 -1
vn 0 0 -1
vn 0 0 -1
vn 0.4472136 0.8944272 0
vn 0.4472136 0.8944272 0
vn 0.4472136 0.8944272 0
vn 0.4472136 0.8944272 0
vn 0 0 -1
vn 0 0 -1
vn 0.4472136 0.8944272 0
vn 0.4472136 0.8944272 0
vn -0.4472136 -0.8944272 0
vn -0.4472136 -0.8944272 0
vn 0 0 1
vn 0 0 1
vn -9.536743E-07 0 -1
vn -9.536743E-07 0 -1
vn 0 1 0
vn 0 1 0
vn 0 1 0
vn 0 1 0
vn 0 -1 0
vn 0 -1 0
vn 0 -1 0
vn 0 -1 0
vn 1.430511E-06 0 1
vn 1.430511E-06 0 1
g pb_Mesh566334_0
f 3/3/3 2/2/2 1/1/1
f 3/3/3 4/4/4 2/2/2
f 7/7/7 6/6/6 5/5/5
f 8/8/8 6/6/6 7/7/7
f 11/11/11 10/10/10 9/9/9
f 10/10/10 12/12/12 9/9/9
f 15/15/15 14/14/14 13/13/13
f 14/14/14 16/16/16 13/13/13
f 19/19/19 18/18/18 17/17/17
f 20/20/20 18/18/18 19/19/19
f 23/23/23 22/22/22 21/21/21
f 23/23/23 24/24/24 22/22/22
f 25/25/25 18/18/18 20/20/20
f 25/25/25 26/26/26 18/18/18
f 27/27/27 22/22/22 24/24/24
f 27/27/27 28/28/28 22/22/22
f 29/29/29 9/9/9 12/12/12
f 29/29/29 30/30/30 9/9/9
f 31/31/31 5/5/5 6/6/6
f 31/31/31 32/32/32 5/5/5
f 33/33/33 26/26/26 25/25/25
f 33/33/33 34/34/34 26/26/26
f 37/37/37 36/36/36 35/35/35
f 37/37/37 38/38/38 36/36/36
f 41/41/41 40/40/40 39/39/39
f 41/41/41 42/42/42 40/40/40
f 43/43/43 32/32/32 31/31/31
f 43/43/43 44/44/44 32/32/32
