g pb_Mesh401722
v -4 5 0
v 0 5 0
v 4.577637E-05 5 0
v -4 5 0
v -4 0 0
v 0 5 0
v 0 5 -4
v -4 0 -4
v -4 5 -4
v 0 5 -4
v 0 5 -4
v -4 5 -4
v 24 5 0
v 24 5 -4
v 24 8 -4
v 24 8 0
v 24 0 0
v 24 0 -4
v 4.577637E-05 5 0
v 0 0 20
v 0 5 20
v 4.577637E-05 5 0
v 0 5 0
v 0 0 20
v 4.577637E-05 8 0
v 0 8 20
v 4.577637E-05 5 0
v 24 0 20
v 24 5 20
v 24 8 20
v 0 5 -28
v 0 5 -4
v 0 5 -4
v 0 5 -28
v 0 0 -28
v 0 5 -4
v 0 8 -28
v 0 5 -4
v 0 8 -4
v 0 5 -28
v 24 0 -28
v 24 5 -28
v 24 8 -28
v 0 -2 -4
v 0 -8 0
v 0 -2 0
v 0 -8 -4
v 24 -8 0
v 24 -8 -4
v 24 -2 -4
v 24 -2 0
v 0 -8 20
v 0 -2 20
v 0 0 20
v 24 -8 20
v 24 -2 20
v 24 -7.99995 -28
v 24 -2 -28
v 0 -2 -28
v 0 -8 -28
v 0 0 -28
v 0 5 -4
v -4 5 0
v 4.577637E-05 5 0
v -4 5 -4
v 0 -8 -4
v 24 -8 -4
v 24 -8 0
v 0 -8 0
v 24 8 0
v 24 8 -4
v 4.577637E-05 8 0
v 0 8 -4
v 24 8 20
v 0 8 20
v 24 -8 20
v 0 -8 20
v 0 8 -28
v 24 8 -28
v 0 -8 -28
v 24 -7.99995 -28
v 24 -8 -4
v 0 -8 -4
v 24 5 -28
v 0 5 -28
v 0 8 -28
v 24 8 -28
v 24 0 -28
v 0 0 -28
v 0 5 20
v 24 0 20
v 24 5 20
v 0 0 20
v 0 8 20
v 24 8 20
v 24 -7.99995 -28
v 0 -8 -28
v 0 -2 -28
v 24 -2 -28
v 0 -2 20
v 24 -8 20
v 24 -2 20
v 0 -8 20
v 0 0 -4
v 4.577637E-05 5 0
v 0 5 0
v 0 0 -4
v 4.577637E-05 5 -4
v 4.577637E-05 5 0
v 0 0 -4
v 4.577637E-05 5 -4
v 4.577637E-05 5 0
v 0 0 -4
v 4.577637E-05 5 -4
v 4.577637E-05 5 0
vt 0 0
vt 0 0
vt 0 0
vt 0 0
vt 0 0
vt 0 0
vt 0 5
vt -4 0
vt -4 5
vt 0 5
vt 0 5
vt -4 5
vt 0 5
vt -4 5
vt -4 8
vt 0 8
vt 0 0
vt -4 0
vt 1.047738E-10 5
vt -20 0
vt -20 5
vt 1.047738E-10 5
vt 0 5
vt -20 0
vt 1.047738E-10 8
vt -20 8
vt 1.047738E-10 5
vt 20 0
vt 20 5
vt 20 8
vt 0 0
vt 0 0
vt 0 0
vt 0 0
vt 0 0
vt 0 0
vt 28 8
vt 4 5
vt 4 8
vt 28 5
vt -28 0
vt -28 5
vt -28 8
vt 4 -2
vt 0 -8
vt 0 -2
vt 4 -8
vt 0 -8
vt -4 -8
vt -4 -2
vt 0 -2
vt -20 -8
vt -20 -2
vt -20 0
vt 20 -8
vt 20 -2
vt -28 -7.99995
vt -28 -2
vt 28 -2
vt 28 -8
vt 28 0
vt 0 -4
vt -4 0
vt 4.577637E-05 0
vt -4 -4
vt 0 -4
vt -24 -4
vt -24 0
vt 0 0
vt 24 0
vt 24 -4
vt 4.577637E-05 0
vt 0 -4
vt 24 20
vt 0 20
vt -24 20
vt 0 20
vt 0 -28
vt 24 -28
vt 1.653036E-05 -27.99998
vt -23.99998 -27.99998
vt -23.99998 -3.999984
vt 1.653036E-05 -3.999984
vt 24 5
vt 0 5
vt 0 8
vt 24 8
vt 24 0
vt 0 0
vt 0 5
vt -24 0
vt -24 5
vt 0 0
vt 0 8
vt -24 8
vt 24 -7.99995
vt 0 -8
vt 0 -2
vt 24 -2
vt 0 -2
vt -24 -8
vt -24 -2
vt 0 -8
vt 0 -2.49878
vt -4.577637E-05 3.904344
vt 0 3.904344
vt 0 -2.49878
vt -4.577637E-05 1.405564
vt -4.577637E-05 3.904344
vt 0 -2.49878
vt -4.577637E-05 1.405564
vt -4.577637E-05 3.904344
vt 0 -2.49878
vt -4.577637E-05 1.405564
vt -4.577637E-05 3.904344
vn 0 0 -0.5
vn 0 0 -0.5
vn 0 0 0
vn 0 0 -0.5
vn 0 0 -1
vn 0 0 -0.5
vn 0 0 0.5
vn 0 0 1
vn 0 0 0.5
vn 0 0 0
vn 0 0 0.5
vn 0 0 0.5
vn -1 0 0
vn -1 0 0
vn -1 0 0
vn -1 0 0
vn -1 0 0
vn -1 0 0
vn 0.5 -0.4850712 -0.1212667
vn 0.5 -0.4850712 -0.1212667
vn 1 0 2.288818E-06
vn 0.5 -0.4850712 -0.1212667
vn 0 -0.9701425 -0.2425356
vn 0.5 -0.4850712 -0.1212667
vn 1 0 2.288818E-06
vn 1 0 2.288818E-06
vn 1 0 2.288818E-06
vn -1 0 0
vn -1 0 0
vn -1 0 0
vn 0.5 0 0
vn 0.5 0 0
vn 0 0 0
vn 0.5 0 0
vn 1 0 0
vn 0.5 0 0
vn 1 0 0
vn 1 0 0
vn 1 0 0
vn 1 0 0
vn -1 0 0
vn -1 0 0
vn -1 0 0
vn 1 0 0
vn 1 0 0
vn 1 0 0
vn 1 0 0
vn -1 0 0
vn -1 0 0
vn -1 0 0
vn -1 0 0
vn 1 0 0
vn 1 0 0
vn 1 0 0
vn -1 0 0
vn -1 0 0
vn -1 0 0
vn -1 0 0
vn 1 0 0
vn 1 0 0
vn 1 0 0
vn 0 -1 0
vn 0 -1 0
vn 0 -1 0
vn 0 -1 0
vn 0 1 0
vn 0 1 0
vn 0 1 0
vn 0 1 0
vn 0 -1 0
vn 0 -1 0
vn 0 -1 0
vn 0 -1 0
vn 0 -1 0
vn 0 -1 0
vn 0 1 0
vn 0 1 0
vn 0 -1 0
vn 0 -1 0
vn -1.033147E-06 1 1.033147E-06
vn -2.066294E-06 1 2.066294E-06
vn -1.033147E-06 1 1.033147E-06
vn 0 1 0
vn 0 0 1
vn 0 0 1
vn 0 0 1
vn 0 0 1
vn 0 0 1
vn 0 0 1
vn 0 0 -1
vn 0 0 -1
vn 0 0 -1
vn 0 0 -1
vn 0 0 -1
vn 0 0 -1
vn 0 0 1
vn 0 0 1
vn 0 0 1
vn 0 0 1
vn 0 0 -1
vn 0 0 -1
vn 0 0 -1
vn 0 0 -1
vn -0.5 0.3123521 -0.3904344
vn -0.5 0.3123521 -0.3904344
vn 0 0.6246951 -0.7808688
vn -0.5 0.3123521 -0.3904344
vn -1 9.155274E-06 0
vn -0.5 0.3123521 -0.3904344
vn -0.5 0.3123521 -0.3904344
vn -1 9.155274E-06 0
vn -0.5 0.3123521 -0.3904344
vn -0.5 0.3123521 -0.3904344
vn -1 9.155274E-06 0
vn -0.5 0.3123521 -0.3904344
g pb_Mesh401722_0
g pb_Mesh401722_1
f 3/3/3 2/2/2 1/1/1
f 6/6/6 5/5/5 4/4/4
f 9/9/9 8/8/8 7/7/7
f 12/12/12 11/11/11 10/10/10
f 15/15/15 14/14/14 13/13/13
f 15/15/15 13/13/13 16/16/16
f 14/14/14 18/18/18 17/17/17
f 14/14/14 17/17/17 13/13/13
f 21/21/21 20/20/20 19/19/19
f 24/24/24 23/23/23 22/22/22
f 26/26/26 21/21/21 25/25/25
f 21/21/21 27/27/27 25/25/25
f 13/13/13 17/17/17 28/28/28
f 13/13/13 28/28/28 29/29/29
f 16/16/16 13/13/13 29/29/29
f 16/16/16 29/29/29 30/30/30
f 33/33/33 32/32/32 31/31/31
f 36/36/36 35/35/35 34/34/34
f 39/39/39 38/38/38 37/37/37
f 38/38/38 40/40/40 37/37/37
f 42/42/42 41/41/41 18/18/18
f 42/42/42 18/18/18 14/14/14
f 43/43/43 42/42/42 14/14/14
f 43/43/43 14/14/14 15/15/15
f 46/46/46 45/45/45 44/44/44
f 45/45/45 47/47/47 44/44/44
f 27/27/27 46/46/46 38/38/38
f 46/46/46 44/44/44 38/38/38
f 50/50/50 49/49/49 48/48/48
f 50/50/50 48/48/48 51/51/51
f 18/18/18 50/50/50 51/51/51
f 18/18/18 51/51/51 17/17/17
f 53/53/53 52/52/52 46/46/46
f 52/52/52 45/45/45 46/46/46
f 54/54/54 53/53/53 27/27/27
f 53/53/53 46/46/46 27/27/27
f 51/51/51 48/48/48 55/55/55
f 51/51/51 55/55/55 56/56/56
f 17/17/17 51/51/51 56/56/56
f 17/17/17 56/56/56 28/28/28
f 58/58/58 57/57/57 49/49/49
f 58/58/58 49/49/49 50/50/50
f 41/41/41 58/58/58 50/50/50
f 41/41/41 50/50/50 18/18/18
f 44/44/44 47/47/47 59/59/59
f 47/47/47 60/60/60 59/59/59
f 38/38/38 44/44/44 61/61/61
f 44/44/44 59/59/59 61/61/61
f 38/38/38 39/39/39 27/27/27
f 39/39/39 25/25/25 27/27/27
f 64/64/64 63/63/63 62/62/62
f 63/63/63 65/65/65 62/62/62
f 68/68/68 67/67/67 66/66/66
f 68/68/68 66/66/66 69/69/69
f 72/72/72 71/71/71 70/70/70
f 73/73/73 71/71/71 72/72/72
f 72/72/72 70/70/70 74/74/74
f 75/75/75 72/72/72 74/74/74
f 76/76/76 68/68/68 69/69/69
f 76/76/76 69/69/69 77/77/77
f 73/73/73 78/78/78 71/71/71
f 78/78/78 79/79/79 71/71/71
f 82/82/82 81/81/81 80/80/80
f 82/82/82 80/80/80 83/83/83
f 86/86/86 85/85/85 84/84/84
f 86/86/86 84/84/84 87/87/87
f 85/85/85 89/89/89 88/88/88
f 85/85/85 88/88/88 84/84/84
f 92/92/92 91/91/91 90/90/90
f 91/91/91 93/93/93 90/90/90
f 95/95/95 92/92/92 94/94/94
f 92/92/92 90/90/90 94/94/94
f 98/98/98 97/97/97 96/96/96
f 98/98/98 96/96/96 99/99/99
f 89/89/89 98/98/98 99/99/99
f 89/89/89 99/99/99 88/88/88
f 102/102/102 101/101/101 100/100/100
f 101/101/101 103/103/103 100/100/100
f 91/91/91 102/102/102 93/93/93
f 102/102/102 100/100/100 93/93/93
f 106/106/106 105/105/105 104/104/104
f 109/109/109 108/108/108 107/107/107
f 106/106/106 105/105/105 104/104/104
f 112/112/112 111/111/111 110/110/110
f 106/106/106 105/105/105 104/104/104
f 115/115/115 114/114/114 113/113/113
