g pb_Mesh118500
v -4 16 -4
v 0 16 -4
v 0 16 4
v -4 16 4
v -16 18 -4
v -10 18 -4
v -10 18 4
v -16 18 4
v -10 16 -4
v -10 16 4
v -10 16 -8
v -4 16 -8
v -36 16 -8
v -36 16 -14
v -36 18 -8
v -36 18 -14
v -16 16 -4
v -10 16 -4
v -16 18 -4
v -10 18 -4
v -10 16 -4
v -10 16 4
v -10 18 -4
v -10 18 4
v -30 16 -14
v -30 18 -14
v -34 16 -14
v -34 18 -14
v -30 16 -17
v -30 16 -14
v -34 16 -17
v -34 16 -14
v -30 -18 -14
v -30 -18 -17
v -34 -18 -14
v -34 -18 -17
v -30 18 -8
v -30 16 -8
v -34 18 -8
v -34 16 -8
v -30 -18 -8
v -34 -18 -8
v -30 18 -14
v -30 18 -8
v -34 18 -14
v -34 18 -8
v -36 16 -14
v -36 18 -14
v -36 -18 -14
v -36 -18 -17
v -36 18 -8
v -36 16 -8
v -36 -18 -8
v -36 18 -14
v -36 18 -8
v -23 18 -8
v -20 18 -8
v -20 18 -4
v -23 18 -4
v -18.5 18 4
v -23 18 4
v -23 16 -14
v -20 16 -14
v -20 16 -8
v -23 16 -8
v -20 16 -17
v -16 16 -17
v -16 16 -14
v -23 16 -17
v -23 18 -8
v -20 16 -8
v -20 18 -8
v -23 16 -8
v -26.5 18 -8
v -26.5 18 -4
v -30 18 -4
v -26.5 18 4
v -30 18 4
v -26.5 18 -14
v -26.5 16 -17
v -26.5 16 -14
v -30 18 -14
v -26.5 16 -14
v -26.5 18 -14
v -30 16 -14
v 0 16 -4
v 0 14 4
v 0 16 4
v 0 14 -4
v -4 16 -4
v 0 14 -4
v 0 16 -4
v -4 14 -4
v -4 16 -8
v -4 14 -4
v -4 16 -4
v -4 14 -8
v -10 16 -8
v -4 14 -8
v -4 16 -8
v -10 14 -8
v -36 14 -8
v -36 14 -14
v -16 16 -17
v -16 14 -14
v -16 16 -14
v -16 14 -17
v -30 14 -8
v -34 14 -8
v -36 14 -8
v -34 16 -18
v -30 16 -18
v -34 -18 -18
v -30 -18 -18
v -20 16 -18
v -16 16 -18
v -23 16 -18
v -26.5 16 -18
v -23 16 -18
v -23 16 -17
v -26.5 16 -17
v -30 16 -18
v -30 16 -17
v -34 14 -17
v -34 14 -18
v -34 16 -18
v -34 16 -17
v -16 16 -18
v -16 14 -18
v -23 14 -22
v -20 16.0001 -22
v -23 16.0001 -22
v -20 14 -22
v -23 16.00005 -20
v -20 16.00005 -20
v -20 16 -18
v -23 16 -18
v -23 16.0001 -22
v -20 16.0001 -22
v -26.5 16.00005 -20
v -26.5 16 -18
v -34 16 -20
v -31 16 -20
v -30 -18 -20
v -34 -18 -22
v -34 -18 -20
v -30 -18 -22
v -31 16 -20
v -26.5 16.00005 -20
v -34 14 -20
v -34 16 -20
v 0 12 -4
v 0 -18 4
v 0 12 4
v 0 -18 -4
v -4 12 -4
v 0 -18 -4
v 0 12 -4
v -4 -18 -4
v -4 12 -8
v -4 -18 -4
v -4 12 -4
v -4 -18 -8
v -10 12 -8
v -4 -18 -8
v -4 12 -8
v -10 -18 -8
v -36 -18 -8
v -36 -18 -14
v -36 12 -14
v -36 12 -8
v -36 -18 -17
v -36 12 -17
v -36 14 -17
v -16 12 -17
v -16 -18 -14
v -16 12 -14
v -16 -18 -17
v -30 -18 -8
v -34 -18 -8
v -34 12 -8
v -30 12 -8
v -34 12 -22
v -30 -18 -22
v -30 12 -22
v -34 -18 -22
v -34 14 -22
v -31 14 -22
v -36 12 -17
v -34 -18 -17
v -34 12 -17
v -36 -18 -17
v -36 14 -17
v -34 14 -17
v -36 -18 -8
v -36 12 -8
v -20 12 -22.00005
v -16 -18 -22
v -16 12 -22
v -20 -18 -22
v -23 12 -22.00005
v -23 -18 -22
v -26.5 12 -22
v -23 -18 -22
v -23 12 -22.00005
v -26.5 -18 -22
v -26.5 14 -22
v -23 14 -22
v -30 12 -22
v -30 -18 -22
v -31 14 -22
v -34 -18 -17
v -34 -18 -18
v -34 12 -18
v -34 12 -17
v -16 12 -18
v -16 -18 -18
v -16 12 -22
v -16 -18 -22
v -34 -18 -20
v -34 12 -20
v -34 -18 -22
v -34 12 -22
v -34 14 -22
v -23 12 -22.00005
v -20 14 -22
v -23 14 -22
v -20 12 -22.00005
v -13 16 -8
v -16 16 -4
v -16 16 -8
v -16 16 -14
v -14 14 -14
v -14 16 -14
v -16 14 -14
v -14 12 -14
v -16 12 -14
v -16 -18 -14
v -10 -18 -14
v -10 12 -14
v -16 16 -11
v -10 16 -10
v -10 14 -8
v -10 16 -8
v -10 14 -10
v -10 12 -10
v -10 12 -14
v -10 -18 -14
v -10 -18 -8
v -10 12 -8
v -14 16 -10
v -10 16 -10
v -14 16 -14
v -16 18 -4
v -16 18 -7.25
v -16 17.25 -8
v -16 16 -4
v -16 16 -8
v -16.75 18 -8
v -16 18 -7.25
v -16.75 18 -8
v -16 16 -8
v -16 17.25 -8
v -16 17.25 -8
v -16 18 -7.25
v -16.75 18 -8
v -23.75 18 -14
v -23 18 -13.25
v -23 17.5 -13.75
v -23 17 -14
v -23 16 -14
v -23 16 -8
v -23 18 -13.25
v -23 18 -8
v -23.75 18 -14
v -23.25 17.5 -14
v -23 16 -14
v -23 17 -14
v -23 17 -14
v -23 17.5 -13.75
v -23.25 17.5 -14
v -23.75 18 -14
v -23.25 17.5 -14
v -23 18 -13.25
v -23 17.5 -13.75
v -31 16 -22
v -33.5 16 -22
v -34 15.5 -22
v -34 16 -21.5
v -33.5 16 -22
v -31 16 -22
v -34 16 -21.5
v -34 15.5 -22
v -34 15.5 -22
v -33.5 16 -22
v -34 16 -21.5
v -35.5 16 -17
v -36 16 -14
v -36 16 -16.5
v -36 15.5 -17
v -36 16 -16.5
v -35.5 16 -17
v -36 15.5 -17
v -34 16 -17
v -35.5 16 -17
v -36 16 -16.5
v -36 15.5 -17
vt 4 -4
vt 0 -4
vt 0 4
vt 4 4
vt 16 -4
vt 10 -4
vt 10 4
vt 16 4
vt 10 -4
vt 10 4
vt 10 -8
vt 4 -8
vt -8 16
vt -14 16
vt -8 18
vt -14 18
vt 16 16
vt 10 16
vt 16 18
vt 10 18
vt 4 16
vt -4 16
vt 4 18
vt -4 18
vt 30 16
vt 30 18
vt 34 16
vt 34 18
vt 30 -17
vt 30 -14
vt 34 -17
vt 34 -14
vt -30 -14
vt -30 -17
vt -34 -14
vt -34 -17
vt -30 18
vt -30 16
vt -34 18
vt -34 16
vt -30 -8
vt -34 -8
vt 30 -14
vt 30 -8
vt 34 -14
vt 34 -8
vt 36 16
vt 36 18
vt -36 -14
vt -36 -17
vt -36 18
vt -36 16
vt -36 -8
vt 36 -14
vt 36 -8
vt 23 -8
vt 20 -8
vt 20 -4
vt 23 -4
vt 18.5 4
vt 23 4
vt 23 -14
vt 20 -14
vt 20 -8
vt 23 -8
vt 20 -17
vt 16 -17
vt 16 -14
vt 23 -17
vt 24.19251 16.99134
vt 21.26506 14.89744
vt 21.26506 16.8513
vt 24.19251 15.03748
vt 26.5 -8
vt 26.5 -4
vt 30 -4
vt 26.5 4
vt 30 4
vt 26.5 -14
vt 26.5 -17
vt 26.5 -14
vt 33.02378 16.821
vt 29.75584 14.56861
vt 29.75584 16.50325
vt 33.02378 14.88635
vt 4 16
vt -4 14
vt -4 16
vt 4 14
vt 4 16
vt 0 14
vt 0 16
vt 4 14
vt 8 16
vt 4 14
vt 4 16
vt 8 14
vt 10 16
vt 4 14
vt 4 16
vt 10 14
vt -8 14
vt -14 14
vt 17 16
vt 14 14
vt 14 16
vt 17 14
vt -30 14
vt -34 14
vt -36 14
vt 34 -18
vt 30 -18
vt -34 -18
vt -30 -18
vt 20 -18
vt 16 -18
vt 23 -18
vt 26.49994 -18.00013
vt 22.99994 -18.00013
vt 22.99994 -17.00013
vt 26.49994 -17.00013
vt 29.99994 -18.00013
vt 29.99994 -17.00013
vt -14.92329 11.87477
vt -15.92148 11.87116
vt -15.92148 13.86754
vt -14.92329 13.87116
vt 18 16
vt 18 14
vt 23 14
vt 20 16.0001
vt 23 16.0001
vt 20 14
vt 23 -20.0004
vt 20 -20.0004
vt 20 -18.0004
vt 23 -18.0004
vt 23 -22.0004
vt 20 -22.0004
vt 26.5 -20.0004
vt 26.5 -18.0004
vt 34 -20
vt 31 -20
vt -30 -20
vt -34 -22
vt -34 -20
vt -30 -22
vt 30.99994 -20.00013
vt 26.49994 -20.00013
vt -17.91785 11.86393
vt -17.91785 13.86032
vt 4 12
vt -4 -18
vt -4 12
vt 4 -18
vt 4 12
vt 0 -18
vt 0 12
vt 4 -18
vt 8 12
vt 4 -18
vt 4 12
vt 8 -18
vt 10 12
vt 4 -18
vt 4 12
vt 10 -18
vt -8 -18
vt -14 -18
vt -14 12
vt -8 12
vt -17 -18
vt -17 12
vt -17 14
vt 17 12
vt 14 -18
vt 14 12
vt 17 -18
vt -30 -18
vt -34 -18
vt -34 12
vt -30 12
vt 34 12
vt 30 -18
vt 30 12
vt 34 -18
vt 34 14
vt 31 14
vt 32.83153 8.307344
vt 30.85708 -21.26883
vt 30.85708 8.357483
vt 32.83153 -21.31897
vt 32.83153 10.28243
vt 30.85708 10.33257
vt -36 -18
vt -36 12
vt 20.00013 12.00002
vt 16.00013 -17.99998
vt 16.00013 12.00002
vt 20.00013 -17.99998
vt 23.00013 12.00002
vt 23.00013 -17.99998
vt 26.49993 11.99988
vt 22.99993 -18.00012
vt 22.99993 11.99988
vt 26.49993 -18.00012
vt 26.49993 13.99988
vt 22.99993 13.99988
vt 29.99993 11.99988
vt 29.99993 -18.00012
vt 30.99993 13.99988
vt -14.92329 -20.06745
vt -15.92148 -20.07107
vt -15.92148 9.874766
vt -14.92329 9.878381
vt 18 12
vt 18 -18
vt 22 12
vt 22 -18
vt -17.91785 -20.0783
vt -17.91785 9.867537
vt -19.91423 -20.08553
vt -19.91423 9.860309
vt -19.91423 11.8567
vt 23 11.9995
vt 20 13.9995
vt 23 13.9995
vt 20 11.9995
vt 13 -8
vt 16 -4
vt 16 -8
vt 16 16
vt 14 14
vt 14 16
vt 16 14
vt 14 12
vt 16 12
vt 16 -18
vt 10 -18
vt 10 12
vt 16 -11
vt 10 16
vt 8 14
vt 8 16
vt 10 14
vt 10 12
vt 14 12
vt 14 -18
vt 8 -18
vt 8 12
vt 14 -10
vt 10 -10
vt 14 -14
vt 4 18
vt 7.25 18
vt 8 17.25
vt 4 16
vt 8 16
vt 16.75 -8
vt 16 -7.25
vt 18.09366 16.69959
vt 17.3618 14.71072
vt 17.3618 15.93188
vt 17.3618 15.93188
vt 17.19785 16.82087
vt 18.09366 16.69959
vt 23.75 -14
vt 23 -13.25
vt 13.75 17.5
vt 14 17
vt 14 16
vt 8 16
vt 13.25 18
vt 8 18
vt 27.18816 16.25359
vt 26.72131 15.72454
vt 26.48788 14.25086
vt 26.48788 15.21818
vt 26.48788 15.21818
vt 26.39837 15.76103
vt 26.72131 15.72454
vt 27.18816 16.25359
vt 26.72131 15.72454
vt 26.21934 16.36306
vt 26.39837 15.76103
vt 31 16
vt 33.5 16
vt 34 15.5
vt 34 -21.5
vt 33.5 -22
vt 31 -22
vt -19.41514 13.85489
vt -19.91423 13.35399
vt -19.91423 13.35399
vt -19.94432 13.88307
vt -19.41514 13.85489
vt 35.5 -17
vt 36 -14
vt 36 -16.5
vt -17 15.5
vt -16.5 16
vt 32.33792 12.27005
vt 32.83153 11.76375
vt 30.85708 12.30766
vt 32.33792 12.27005
vt 32.9112 12.33519
vt 32.83153 11.76375
vn 0 1 0
vn 0 1 0
vn 0 1 0
vn 0 1 0
vn 0 1 0
vn 0 1 0
vn 0 1 0
vn 0 1 0
vn 0 1 0
vn 0 1 0
vn 0 1 0
vn 0 1 0
vn -1 0 0
vn -1 0 0
vn -1 0 0
vn -1 0 0
vn 0 0 -1
vn 0 0 -1
vn 0 0 -1
vn 0 0 -1
vn 1 0 0
vn 1 0 0
vn 1 0 0
vn 1 0 0
vn 0 0 -1
vn 0 0 -1
vn 0 0 -1
vn 0 0 -1
vn 0 1 0
vn 0 1 0
vn 0 1 0
vn 0 1 0
vn 0 -1 0
vn 0 -1 0
vn 0 -1 0
vn 0 -1 0
vn 0 0 1
vn 0 0 1
vn 0 0 1
vn 0 0 1
vn 0 -1 0
vn 0 -1 0
vn 0 1 0
vn 0 1 0
vn 0 1 0
vn 0 1 0
vn 0 0 -1
vn 0 0 -1
vn 0 -1 0
vn 0 -1 0
vn 0 0 1
vn 0 0 1
vn 0 -1 0
vn 0 1 0
vn 0 1 0
vn 0 1 0
vn 0 1 0
vn 0 1 0
vn 0 1 0
vn 0 1 0
vn 0 1 0
vn 0 1 0
vn 0 1 0
vn 0 1 0
vn 0 1 0
vn 0 1 0
vn 0 1 0
vn 0 1 0
vn 0 1 0
vn 0 0 -1
vn 0 0 -1
vn 0 0 -1
vn 0 0 -1
vn 0 1 0
vn 0 1 0
vn 0 1 0
vn 0 1 0
vn 0 1 0
vn 0 1 0
vn 0 1 0
vn 0 1 0
vn 0 0 -1
vn 0 0 -1
vn 0 0 -1
vn 0 0 -1
vn 1 0 0
vn 1 0 0
vn 1 0 0
vn 1 0 0
vn 0 0 -1
vn 0 0 -1
vn 0 0 -1
vn 0 0 -1
vn 1 0 0
vn 1 0 0
vn 1 0 0
vn 1 0 0
vn 0 0 -1
vn 0 0 -1
vn 0 0 -1
vn 0 0 -1
vn -1 0 0
vn -1 0 0
vn 1 0 0
vn 1 0 0
vn 1 0 0
vn 1 0 0
vn 0 0 1
vn 0 0 1
vn 0 0 1
vn 0 1 0
vn 0 1 0
vn 0 -1 0
vn 0 -1 0
vn 0 1 0
vn 0 1 0
vn 0 1 0
vn 0 1 0
vn 0 1 0
vn 0 1 0
vn 0 1 0
vn 0 1 0
vn 0 1 0
vn -1 0 0
vn -1 0 0
vn -1 0 0
vn -1 0 0
vn 1 0 0
vn 1 0 0
vn 0 0 -1
vn 0 0 -1
vn 0 0 -1
vn 0 0 -1
vn 0 1 2.479553E-05
vn 0 1 2.479553E-05
vn 0 1 2.479553E-05
vn 0 1 2.479553E-05
vn 0 1 2.479553E-05
vn 0 1 2.479553E-05
vn 0 1 2.479553E-05
vn 0 1 2.479553E-05
vn 0 1 0
vn 0 1 0
vn 0 -1 0
vn 0 -1 0
vn 0 -1 0
vn 0 -1 0
vn -5.510118E-06 1 1.239777E-05
vn -1.102024E-05 1 2.479553E-05
vn -1 0 0
vn -1 0 0
vn 1 0 0
vn 1 0 0
vn 1 0 0
vn 1 0 0
vn 0 0 -1
vn 0 0 -1
vn 0 0 -1
vn 0 0 -1
vn 1 0 0
vn 1 0 0
vn 1 0 0
vn 1 0 0
vn 0 0 -1
vn 0 0 -1
vn 0 0 -1
vn 0 0 -1
vn -1 0 0
vn -1 0 0
vn -1 0 0
vn -1 0 0
vn -1 0 0
vn -1 0 0
vn -1 0 0
vn 1 0 0
vn 1 0 0
vn 1 0 0
vn 1 0 0
vn 0 0 1
vn 0 0 1
vn 0 0 1
vn 0 0 1
vn 0 0 -1
vn 0 0 -1
vn 0 0 -1
vn 0 0 -1
vn 0 0 -1
vn 0 0 -1
vn 0 0 -1
vn 0 0 -1
vn 0 0 -1
vn 0 0 -1
vn 0 0 -1
vn 0 0 -1
vn 0 0 1
vn 0 0 1
vn 5.722046E-06 -7.629395E-07 -1
vn 5.722046E-06 -7.629395E-07 -1
vn 1.144409E-05 0 -1
vn 0 -1.525879E-06 -1
vn 0 -1.525879E-06 -1
vn 0 -1.525879E-06 -1
vn -6.539481E-06 -7.629395E-07 -1
vn -6.539481E-06 -7.629395E-07 -1
vn -1.307896E-05 -1.525879E-06 -1
vn 0 0 -1
vn -6.539481E-06 1.144409E-05 -1
vn 0 2.288818E-05 -1
vn 0 0 -1
vn 0 0 -1
vn 0 0 -1
vn -1 0 0
vn -1 0 0
vn -1 0 0
vn -1 0 0
vn 1 0 0
vn 1 0 0
vn 1 0 0
vn 1 0 0
vn -1 0 0
vn -1 0 0
vn -1 0 0
vn -1 0 0
vn -1 0 0
vn 0 2.288818E-05 -1
vn 0 2.288818E-05 -1
vn 0 2.288818E-05 -1
vn 0 2.288818E-05 -1
vn 0 1 0
vn 0 1 0
vn 0 1 0
vn 0 0 -1
vn 0 0 -1
vn 0 0 -1
vn 0 0 -1
vn 0 0 -1
vn 0 0 -1
vn 0 0 -1
vn 0 0 -1
vn 0 0 -1
vn 0 1 0
vn 1 0 0
vn 1 0 0
vn 1 0 0
vn 1 0 0
vn 1 0 0
vn 1 0 0
vn 1 0 0
vn 1 0 0
vn 1 0 0
vn 0 1 0
vn 0 1 0
vn 0 1 0
vn 1 0 0
vn 1 0 0
vn 1 0 0
vn 1 0 0
vn 1 0 0
vn 0 1 0
vn 0 1 0
vn 0 0 -1
vn 0 0 -1
vn 0 0 -1
vn 0.5773503 0.5773503 -0.5773503
vn 0.5773503 0.5773503 -0.5773503
vn 0.5773503 0.5773503 -0.5773503
vn 0 1 0
vn 0 1 0
vn 1 0 0
vn 1 0 0
vn 1 0 0
vn 1 0 0
vn 1 0 0
vn 1 0 0
vn 0 0 -1
vn 0 0 -1
vn 0 0 -1
vn 0 0 -1
vn 0.6666667 0.3333333 -0.6666667
vn 0.6666667 0.3333333 -0.6666667
vn 0.6666667 0.3333333 -0.6666667
vn 0.5773503 0.5773503 -0.5773503
vn 0.5773503 0.5773503 -0.5773503
vn 0.5773503 0.5773503 -0.5773503
vn 0.5773503 0.5773503 -0.5773503
vn 0 0 -1
vn 0 0 -1
vn 0 0 -1
vn 0 1 0
vn 0 1 0
vn 0 1 0
vn -1 0 0
vn -1 0 0
vn -0.5773503 0.5773503 -0.5773503
vn -0.5773503 0.5773503 -0.5773503
vn -0.5773503 0.5773503 -0.5773503
vn 0 1 0
vn 0 1 0
vn 0 1 0
vn -1 0 0
vn -1 0 0
vn 0 0 -1
vn 0 0 -1
vn 0 0 -1
vn -0.5773503 0.5773503 -0.5773503
vn -0.5773503 0.5773503 -0.5773503
vn -0.5773503 0.5773503 -0.5773503
g pb_Mesh118500_0
g pb_Mesh118500_1
f 3/3/3 2/2/2 1/1/1
f 3/3/3 1/1/1 4/4/4
f 7/7/7 6/6/6 5/5/5
f 7/7/7 5/5/5 8/8/8
f 4/4/4 1/1/1 9/9/9
f 4/4/4 9/9/9 10/10/10
f 1/1/1 12/12/12 11/11/11
f 1/1/1 11/11/11 9/9/9
f 15/15/15 14/14/14 13/13/13
f 15/15/15 16/16/16 14/14/14
f 19/19/19 18/18/18 17/17/17
f 19/19/19 20/20/20 18/18/18
f 23/23/23 22/22/22 21/21/21
f 23/23/23 24/24/24 22/22/22
f 27/27/27 26/26/26 25/25/25
f 27/27/27 28/28/28 26/26/26
f 31/31/31 30/30/30 29/29/29
f 31/31/31 32/32/32 30/30/30
f 35/35/35 34/34/34 33/33/33
f 35/35/35 36/36/36 34/34/34
f 39/39/39 38/38/38 37/37/37
f 39/39/39 40/40/40 38/38/38
f 42/42/42 33/33/33 41/41/41
f 42/42/42 35/35/35 33/33/33
f 45/45/45 44/44/44 43/43/43
f 45/45/45 46/46/46 44/44/44
f 47/47/47 28/28/28 27/27/27
f 47/47/47 48/48/48 28/28/28
f 49/49/49 36/36/36 35/35/35
f 49/49/49 50/50/50 36/36/36
f 51/51/51 40/40/40 39/39/39
f 51/51/51 52/52/52 40/40/40
f 53/53/53 35/35/35 42/42/42
f 53/53/53 49/49/49 35/35/35
f 54/54/54 46/46/46 45/45/45
f 54/54/54 55/55/55 46/46/46
f 58/58/58 57/57/57 56/56/56
f 58/58/58 56/56/56 59/59/59
f 60/60/60 58/58/58 59/59/59
f 60/60/60 59/59/59 61/61/61
f 8/8/8 5/5/5 58/58/58
f 8/8/8 58/58/58 60/60/60
f 64/64/64 63/63/63 62/62/62
f 64/64/64 62/62/62 65/65/65
f 68/68/68 67/67/67 66/66/66
f 68/68/68 66/66/66 63/63/63
f 63/63/63 66/66/66 69/69/69
f 63/63/63 69/69/69 62/62/62
f 72/72/72 71/71/71 70/70/70
f 71/71/71 73/73/73 70/70/70
f 75/75/75 74/74/74 44/44/44
f 75/75/75 44/44/44 76/76/76
f 59/59/59 56/56/56 74/74/74
f 59/59/59 74/74/74 75/75/75
f 77/77/77 75/75/75 76/76/76
f 77/77/77 76/76/76 78/78/78
f 61/61/61 59/59/59 75/75/75
f 61/61/61 75/75/75 77/77/77
f 74/74/74 79/79/79 43/43/43
f 74/74/74 43/43/43 44/44/44
f 62/62/62 69/69/69 80/80/80
f 62/62/62 80/80/80 81/81/81
f 81/81/81 80/80/80 29/29/29
f 81/81/81 29/29/29 30/30/30
f 84/84/84 83/83/83 82/82/82
f 83/83/83 85/85/85 82/82/82
f 88/88/88 87/87/87 86/86/86
f 87/87/87 89/89/89 86/86/86
f 92/92/92 91/91/91 90/90/90
f 91/91/91 93/93/93 90/90/90
f 96/96/96 95/95/95 94/94/94
f 95/95/95 97/97/97 94/94/94
f 100/100/100 99/99/99 98/98/98
f 99/99/99 101/101/101 98/98/98
f 14/14/14 103/103/103 102/102/102
f 14/14/14 102/102/102 13/13/13
f 106/106/106 105/105/105 104/104/104
f 105/105/105 107/107/107 104/104/104
f 40/40/40 109/109/109 108/108/108
f 40/40/40 108/108/108 38/38/38
f 52/52/52 110/110/110 109/109/109
f 52/52/52 109/109/109 40/40/40
f 29/29/29 112/112/112 111/111/111
f 29/29/29 111/111/111 31/31/31
f 36/36/36 113/113/113 34/34/34
f 113/113/113 114/114/114 34/34/34
f 67/67/67 116/116/116 115/115/115
f 67/67/67 115/115/115 66/66/66
f 66/66/66 115/115/115 117/117/117
f 66/66/66 117/117/117 69/69/69
f 120/120/120 119/119/119 118/118/118
f 120/120/120 118/118/118 121/121/121
f 121/121/121 118/118/118 122/122/122
f 121/121/121 122/122/122 123/123/123
f 126/126/126 125/125/125 124/124/124
f 126/126/126 124/124/124 127/127/127
f 104/104/104 107/107/107 128/128/128
f 107/107/107 129/129/129 128/128/128
f 132/132/132 131/131/131 130/130/130
f 131/131/131 133/133/133 130/130/130
f 136/136/136 135/135/135 134/134/134
f 136/136/136 134/134/134 137/137/137
f 135/135/135 139/139/139 138/138/138
f 135/135/135 138/138/138 134/134/134
f 137/137/137 134/134/134 140/140/140
f 137/137/137 140/140/140 141/141/141
f 112/112/112 143/143/143 142/142/142
f 112/112/112 142/142/142 111/111/111
f 146/146/146 145/145/145 144/144/144
f 145/145/145 147/147/147 144/144/144
f 113/113/113 146/146/146 114/114/114
f 146/146/146 144/144/144 114/114/114
f 118/118/118 149/149/149 148/148/148
f 118/118/118 148/148/148 122/122/122
f 151/151/151 150/150/150 125/125/125
f 151/151/151 125/125/125 126/126/126
f 154/154/154 153/153/153 152/152/152
f 153/153/153 155/155/155 152/152/152
f 87/87/87 154/154/154 89/89/89
f 154/154/154 152/152/152 89/89/89
f 158/158/158 157/157/157 156/156/156
f 157/157/157 159/159/159 156/156/156
f 91/91/91 158/158/158 93/93/93
f 158/158/158 156/156/156 93/93/93
f 162/162/162 161/161/161 160/160/160
f 161/161/161 163/163/163 160/160/160
f 95/95/95 162/162/162 97/97/97
f 162/162/162 160/160/160 97/97/97
f 166/166/166 165/165/165 164/164/164
f 165/165/165 167/167/167 164/164/164
f 99/99/99 166/166/166 101/101/101
f 166/166/166 164/164/164 101/101/101
f 170/170/170 169/169/169 168/168/168
f 170/170/170 168/168/168 171/171/171
f 103/103/103 170/170/170 171/171/171
f 103/103/103 171/171/171 102/102/102
f 173/173/173 172/172/172 169/169/169
f 173/173/173 169/169/169 170/170/170
f 174/174/174 173/173/173 170/170/170
f 174/174/174 170/170/170 103/103/103
f 177/177/177 176/176/176 175/175/175
f 176/176/176 178/178/178 175/175/175
f 105/105/105 177/177/177 107/107/107
f 177/177/177 175/175/175 107/107/107
f 181/181/181 180/180/180 179/179/179
f 181/181/181 179/179/179 182/182/182
f 109/109/109 181/181/181 182/182/182
f 109/109/109 182/182/182 108/108/108
f 185/185/185 184/184/184 183/183/183
f 184/184/184 186/186/186 183/183/183
f 188/188/188 185/185/185 187/187/187
f 185/185/185 183/183/183 187/187/187
f 191/191/191 190/190/190 189/189/189
f 190/190/190 192/192/192 189/189/189
f 194/194/194 191/191/191 193/193/193
f 191/191/191 189/189/189 193/193/193
f 196/196/196 195/195/195 180/180/180
f 196/196/196 180/180/180 181/181/181
f 110/110/110 196/196/196 181/181/181
f 110/110/110 181/181/181 109/109/109
f 199/199/199 198/198/198 197/197/197
f 198/198/198 200/200/200 197/197/197
f 197/197/197 200/200/200 201/201/201
f 200/200/200 202/202/202 201/201/201
f 205/205/205 204/204/204 203/203/203
f 204/204/204 206/206/206 203/203/203
f 208/208/208 205/205/205 207/207/207
f 205/205/205 203/203/203 207/207/207
f 203/203/203 206/206/206 209/209/209
f 206/206/206 210/210/210 209/209/209
f 207/207/207 203/203/203 211/211/211
f 203/203/203 209/209/209 211/211/211
f 214/214/214 213/213/213 212/212/212
f 214/214/214 212/212/212 215/215/215
f 125/125/125 214/214/214 215/215/215
f 125/125/125 215/215/215 124/124/124
f 175/175/175 178/178/178 216/216/216
f 178/178/178 217/217/217 216/216/216
f 107/107/107 175/175/175 129/129/129
f 175/175/175 216/216/216 129/129/129
f 216/216/216 217/217/217 218/218/218
f 217/217/217 219/219/219 218/218/218
f 221/221/221 220/220/220 213/213/213
f 221/221/221 213/213/213 214/214/214
f 150/150/150 221/221/221 214/214/214
f 150/150/150 214/214/214 125/125/125
f 223/223/223 222/222/222 220/220/220
f 223/223/223 220/220/220 221/221/221
f 224/224/224 223/223/223 221/221/221
f 224/224/224 221/221/221 150/150/150
f 227/227/227 226/226/226 225/225/225
f 226/226/226 228/228/228 225/225/225
f 9/9/9 11/11/11 229/229/229
f 229/229/229 231/231/231 230/230/230
f 9/9/9 229/229/229 230/230/230
f 234/234/234 233/233/233 232/232/232
f 233/233/233 235/235/235 232/232/232
f 238/238/238 237/237/237 236/236/236
f 238/238/238 236/236/236 239/239/239
f 240/240/240 239/239/239 236/236/236
f 233/233/233 236/236/236 235/235/235
f 236/236/236 237/237/237 235/235/235
f 241/241/241 68/68/68 63/63/63
f 64/64/64 241/241/241 63/63/63
f 64/64/64 231/231/231 241/241/241
f 244/244/244 243/243/243 242/242/242
f 243/243/243 245/245/245 242/242/242
f 248/248/248 247/247/247 246/246/246
f 248/248/248 246/246/246 249/249/249
f 250/250/250 249/249/249 246/246/246
f 243/243/243 250/250/250 245/245/245
f 250/250/250 246/246/246 245/245/245
f 11/11/11 252/252/252 251/251/251
f 11/11/11 251/251/251 229/229/229
f 251/251/251 253/253/253 68/68/68
f 251/251/251 68/68/68 241/241/241
f 229/229/229 251/251/251 241/241/241
f 229/229/229 241/241/241 231/231/231
f 256/256/256 255/255/255 254/254/254
f 257/257/257 256/256/256 254/254/254
f 257/257/257 258/258/258 256/256/256
f 5/5/5 260/260/260 259/259/259
f 259/259/259 57/57/57 58/58/58
f 5/5/5 259/259/259 58/58/58
f 71/71/71 72/72/72 261/261/261
f 262/262/262 71/71/71 261/261/261
f 261/261/261 263/263/263 262/262/262
f 266/266/266 265/265/265 264/264/264
f 56/56/56 268/268/268 267/267/267
f 267/267/267 79/79/79 74/74/74
f 56/56/56 267/267/267 74/74/74
f 271/271/271 270/270/270 269/269/269
f 271/271/271 269/269/269 272/272/272
f 272/272/272 269/269/269 273/273/273
f 274/274/274 272/272/272 273/273/273
f 83/83/83 84/84/84 275/275/275
f 83/83/83 275/275/275 276/276/276
f 277/277/277 83/83/83 276/276/276
f 277/277/277 276/276/276 278/278/278
f 281/281/281 280/280/280 279/279/279
f 284/284/284 283/283/283 282/282/282
f 284/284/284 285/285/285 283/283/283
f 288/288/288 287/287/287 286/286/286
f 188/188/188 288/288/288 286/286/286
f 188/188/188 187/187/187 288/288/288
f 291/291/291 290/290/290 289/289/289
f 143/143/143 291/291/291 289/289/289
f 143/143/143 289/289/289 142/142/142
f 292/292/292 150/150/150 151/151/151
f 293/293/293 224/224/224 150/150/150
f 292/292/292 293/293/293 150/150/150
f 296/296/296 295/295/295 294/294/294
f 32/32/32 31/31/31 297/297/297
f 297/297/297 299/299/299 298/298/298
f 32/32/32 297/297/297 298/298/298
f 300/300/300 174/174/174 103/103/103
f 14/14/14 300/300/300 103/103/103
f 14/14/14 301/301/301 300/300/300
f 194/194/194 303/303/303 302/302/302
f 194/194/194 193/193/193 303/303/303
f 304/304/304 194/194/194 302/302/302
f 307/307/307 306/306/306 305/305/305
