g pb_Mesh267566
v 14 -2 15
v 14 -2 -15
v 14 2 15
v 14 2 -15
v 14 -2 -17
v 16 -2 -17
v 14 2 -17
v 16 2 -17
v 16 -2 -15
v 16 -2 15
v 16 2 -15
v 16 2 15
v 16 2 15
v 14 2 15
v 16 2 -15
v 14 2 -15
v 16 -2 -15
v 14 -2 -15
v 16 -2 15
v 14 -2 15
v 14 -2 -17
v 16 -2 -17
v -18 2 -15
v -18 -2 -15
v -18 2 -17
v -18 -2 -17
v 16 -2 -17
v 16 2 -17
v 16 2 -17
v 14 2 -17
v 14 2 -15
v 14 -2 -15
v -16 2 -15
v -16 -2 -15
v -16 2 -17
v -16 2 -15
v -16 -2 -15
v -16 -2 -17
v -16 -2 -17
v -16 2 -17
v -16 2 17
v -16 -2 17
v -18 2 17
v -18 -2 17
v -18 2 -17
v -18 2 -15
v -18 -2 -15
v -18 -2 -17
v -18 -2 -17
v -18 2 -17
v -16 2 -15
v -16 -2 -15
v -16 2 15
v -16 -2 15
v -18 2 15
v -16 2 15
v -16 -2 15
v -18 -2 15
v -18 -2 15
v -18 2 15
v 16 2 17
v 16 -2 17
v -18 2 17
v -16 2 17
v -16 -2 17
v -18 -2 17
v -18 -2 17
v -18 2 17
v -16 2 15
v -16 -2 15
v 14 2 15
v 14 -2 15
v 14 2 17
v 14 -2 17
v 14 -2 17
v 14 2 17
v 16 2 17
v 16 -2 17
v 16 -2 17
v 16 2 17
vt 15 -2
vt -15 -2
vt 15 2
vt -15 2
vt -14 -2
vt -16 -2
vt -14 2
vt -16 2
vt 15 -2
vt -15 -2
vt 15 2
vt -15 2
vt -16 15
vt -14 15
vt -16 -15
vt -14 -15
vt 16 -15
vt 14 -15
vt 16 15
vt 14 15
vt 14 -17
vt 16 -17
vt -15 2
vt -15 -2
vt -17 2
vt -17 -2
vt 17 -2
vt 17 2
vt -16 -17
vt -14 -17
vt 14 2
vt 14 -2
vt -16 2
vt -16 -2
vt 16 -17
vt 16 -15
vt -16 -15
vt -16 -17
vt 16 -2
vt 16 2
vt -16 2
vt -16 -2
vt -18 2
vt -18 -2
vt 18 -17
vt 18 -15
vt -18 -15
vt -18 -17
vt 18 -2
vt 18 2
vt 15 2
vt 15 -2
vt -15 2
vt -15 -2
vt 18 15
vt 16 15
vt -16 15
vt -18 15
vt 15 -2
vt 15 2
vt -17 2
vt -17 -2
vt 18 17
vt 16 17
vt -16 17
vt -18 17
vt 17 -2
vt 17 2
vt 16 2
vt 16 -2
vt -14 2
vt -14 -2
vt -14 17
vt 14 17
vt 14 -2
vt 14 2
vt -16 17
vt 16 17
vt 16 -2
vt 16 2
vn -1 0 0
vn -1 0 0
vn -1 0 0
vn -1 0 0
vn 0 0 -1
vn 0 0 -1
vn 0 0 -1
vn 0 0 -1
vn 1 0 0
vn 1 0 0
vn 1 0 0
vn 1 0 0
vn 0 1 0
vn 0 1 0
vn 0 1 0
vn 0 1 0
vn 0 -1 0
vn 0 -1 0
vn 0 -1 0
vn 0 -1 0
vn 0 -1 0
vn 0 -1 0
vn -1 0 0
vn -1 0 0
vn -1 0 0
vn -1 0 0
vn 1 0 0
vn 1 0 0
vn 0 1 0
vn 0 1 0
vn 0 0 1
vn 0 0 1
vn 0 0 1
vn 0 0 1
vn 0 1 0
vn 0 1 0
vn 0 -1 0
vn 0 -1 0
vn 0 0 -1
vn 0 0 -1
vn 0 0 1
vn 0 0 1
vn 0 0 1
vn 0 0 1
vn 0 1 0
vn 0 1 0
vn 0 -1 0
vn 0 -1 0
vn 0 0 -1
vn 0 0 -1
vn 1 0 0
vn 1 0 0
vn 1 0 0
vn 1 0 0
vn 0 1 0
vn 0 1 0
vn 0 -1 0
vn 0 -1 0
vn -1 0 0
vn -1 0 0
vn 1 0 0
vn 1 0 0
vn 0 1 0
vn 0 1 0
vn 0 -1 0
vn 0 -1 0
vn -1 0 0
vn -1 0 0
vn 0 0 -1
vn 0 0 -1
vn 0 0 -1
vn 0 0 -1
vn 0 1 0
vn 0 -1 0
vn 0 0 1
vn 0 0 1
vn 0 1 0
vn 0 -1 0
vn 0 0 1
vn 0 0 1
g pb_Mesh267566_0
f 3/3/3 2/2/2 1/1/1
f 3/3/3 4/4/4 2/2/2
f 7/7/7 6/6/6 5/5/5
f 7/7/7 8/8/8 6/6/6
f 11/11/11 10/10/10 9/9/9
f 11/11/11 12/12/12 10/10/10
f 15/15/15 14/14/14 13/13/13
f 15/15/15 16/16/16 14/14/14
f 19/19/19 18/18/18 17/17/17
f 19/19/19 20/20/20 18/18/18
f 21/21/21 17/17/17 18/18/18
f 21/21/21 22/22/22 17/17/17
f 25/25/25 24/24/24 23/23/23
f 25/25/25 26/26/26 24/24/24
f 27/27/27 11/11/11 9/9/9
f 27/27/27 28/28/28 11/11/11
f 29/29/29 16/16/16 15/15/15
f 29/29/29 30/30/30 16/16/16
f 33/33/33 32/32/32 31/31/31
f 33/33/33 34/34/34 32/32/32
f 35/35/35 16/16/16 30/30/30
f 35/35/35 36/36/36 16/16/16
f 37/37/37 21/21/21 18/18/18
f 37/37/37 38/38/38 21/21/21
f 39/39/39 7/7/7 5/5/5
f 39/39/39 40/40/40 7/7/7
f 43/43/43 42/42/42 41/41/41
f 43/43/43 44/44/44 42/42/42
f 45/45/45 36/36/36 35/35/35
f 45/45/45 46/46/46 36/36/36
f 47/47/47 38/38/38 37/37/37
f 47/47/47 48/48/48 38/38/38
f 49/49/49 40/40/40 39/39/39
f 49/49/49 50/50/50 40/40/40
f 53/53/53 52/52/52 51/51/51
f 53/53/53 54/54/54 52/52/52
f 55/55/55 36/36/36 46/46/46
f 55/55/55 56/56/56 36/36/36
f 57/57/57 47/47/47 37/37/37
f 57/57/57 58/58/58 47/47/47
f 59/59/59 23/23/23 24/24/24
f 59/59/59 60/60/60 23/23/23
f 61/61/61 10/10/10 12/12/12
f 61/61/61 62/62/62 10/10/10
f 63/63/63 56/56/56 55/55/55
f 63/63/63 64/64/64 56/56/56
f 65/65/65 58/58/58 57/57/57
f 65/65/65 66/66/66 58/58/58
f 67/67/67 60/60/60 59/59/59
f 67/67/67 68/68/68 60/60/60
f 71/71/71 70/70/70 69/69/69
f 71/71/71 72/72/72 70/70/70
f 73/73/73 56/56/56 64/64/64
f 73/73/73 14/14/14 56/56/56
f 20/20/20 65/65/65 57/57/57
f 20/20/20 74/74/74 65/65/65
f 75/75/75 41/41/41 42/42/42
f 75/75/75 76/76/76 41/41/41
f 77/77/77 14/14/14 73/73/73
f 77/77/77 13/13/13 14/14/14
f 19/19/19 74/74/74 20/20/20
f 19/19/19 78/78/78 74/74/74
f 79/79/79 76/76/76 75/75/75
f 79/79/79 80/80/80 76/76/76
g pb_Mesh267566_1
