g pb_Mesh386530
v -13.2473 0 4.18436
v -1.745912 0 2.916735
v -3.290772 0 5.115741
v -1.412539 0 0.06873822
v -0.534425 0 3.565725
v 1.343808 0 -1.481278
v -2.412658 0 8.612728
v 0.9468543 0 4.90953
v 0.7483776 0 8.104934
v 2.62661 0 3.05793
v 3.909413 0 7.597139
v 4.196961 0 3.807448
v 5.623538 0 6.451811
v 4.340735 0 1.912603
v 7.337662 0 5.306483
v 5.248061 0 1.160507
v 7.200188 0 2.481399
v 4.20326 0 -0.9124816
v 7.062713 0 -0.343685
v 4.168892 0 -1.618753
v 11.83477 0 -4.115621
v 2.721981 0 -2.256287
v 2.618876 0 -4.3751
v 1.677181 0 -4.329275
v 5.100274 0 -11.57528
v 1.206333 0 -4.306362
v 0.3969566 0 -6.390807
v -2.057808 0 -5.917381
v -0.9239359 0 -4.438681
v -1.179694 0 -2.420395
v -3.703195 0 -3.359511
v -3.936041 0 -0.8703783
v -2.176091 0 -1.074012
v -2.412658 0 8.612728
v -0.534425 0 3.565725
v -3.290772 0 5.115741
v -1.745912 0 2.916735
v 1.343808 0 -1.481278
v -1.412539 0 0.06873822
v -13.2473 0 4.18436
v 3.909413 0 7.597139
v 0.9468543 0 4.90953
v 0.7483776 0 8.104934
v 2.62661 0 3.05793
v 5.623538 0 6.451811
v 7.337662 0 5.306483
v 4.196961 0 3.807448
v 4.340735 0 1.912603
v 7.200188 0 2.481399
v 7.062713 0 -0.343685
v 5.248061 0 1.160507
v 4.20326 0 -0.9124816
v 4.168892 0 -1.618753
v 11.83477 0 -4.115621
v 2.618876 0 -4.3751
v 2.721981 0 -2.256287
v 1.677181 0 -4.329275
v 5.100274 0 -11.57528
v 1.206333 0 -4.306362
v 0.3969566 0 -6.390807
v -1.179694 0 -2.420395
v -0.9239359 0 -4.43868
v -3.703195 0 -3.359511
v -2.057808 0 -5.917381
v -3.936041 0 -0.8703783
v -2.176091 0 -1.074012
vt 13.2473 4.18436
vt 1.745912 2.916735
vt 3.290772 5.115741
vt 1.412539 0.06873822
vt 0.534425 3.565725
vt -1.343808 -1.481278
vt 2.412658 8.612728
vt -0.9468543 4.90953
vt -0.7483776 8.104934
vt -2.62661 3.05793
vt -3.909413 7.597139
vt -4.196961 3.807448
vt -5.623538 6.451811
vt -4.340735 1.912603
vt -7.337662 5.306483
vt -5.248061 1.160507
vt -7.200188 2.481399
vt -4.20326 -0.9124816
vt -7.062713 -0.343685
vt -4.168892 -1.618753
vt -11.83477 -4.115621
vt -2.721981 -2.256287
vt -2.618876 -4.3751
vt -1.677181 -4.329275
vt -5.100274 -11.57528
vt -1.206333 -4.306362
vt -0.3969566 -6.390807
vt 2.057808 -5.917381
vt 0.9239359 -4.438681
vt 1.179694 -2.420395
vt 3.703195 -3.359511
vt 3.936041 -0.8703783
vt 2.176091 -1.074012
vt -2.412658 8.612728
vt -0.534425 3.565725
vt -3.290772 5.115741
vt -1.745912 2.916735
vt 1.343808 -1.481278
vt -1.412539 0.06873822
vt -13.2473 4.18436
vt 3.909413 7.597139
vt 0.9468543 4.90953
vt 0.7483776 8.104934
vt 2.62661 3.05793
vt 5.623538 6.451811
vt 7.337662 5.306483
vt 4.196961 3.807448
vt 4.340735 1.912603
vt 7.200188 2.481399
vt 7.062713 -0.343685
vt 5.248061 1.160507
vt 4.20326 -0.9124816
vt 4.168892 -1.618753
vt 11.83477 -4.115621
vt 2.618876 -4.3751
vt 2.721981 -2.256287
vt 1.677181 -4.329275
vt 5.100274 -11.57528
vt 1.206333 -4.306362
vt 0.3969566 -6.390807
vt -1.179694 -2.420395
vt -0.9239359 -4.43868
vt -3.703195 -3.359511
vt -2.057808 -5.917381
vt -3.936041 -0.8703783
vt -2.176091 -1.074012
vn 0 1 0
vn 0 1 0
vn 0 1 0
vn 0 1 0
vn 0 1 0
vn 0 1 0
vn 0 1 0
vn 0 1 0
vn 0 1 0
vn 0 1 0
vn 0 1 0
vn 0 1 0
vn 0 1 0
vn 0 1 0
vn 0 1 0
vn 0 1 0
vn 0 1 0
vn 0 1 0
vn 0 1 0
vn 0 1 0
vn 0 1 0
vn 0 1 0
vn 0 1 0
vn 0 1 0
vn 0 1 0
vn 0 1 0
vn 0 1 0
vn 0 1 0
vn 0 1 0
vn 0 1 0
vn 0 1 0
vn 0 1 0
vn 0 1 0
vn 0 -1 0
vn 0 -1 0
vn 0 -1 0
vn 0 -1 0
vn 0 -1 0
vn 0 -1 0
vn 0 -1 0
vn 0 -1 0
vn 0 -1 0
vn 0 -1 0
vn 0 -1 0
vn 0 -1 0
vn 0 -1 0
vn 0 -1 0
vn 0 -1 0
vn 0 -1 0
vn 0 -1 0
vn 0 -1 0
vn 0 -1 0
vn 0 -1 0
vn 0 -1 0
vn 0 -1 0
vn 0 -1 0
vn 0 -1 0
vn 0 -1 0
vn 0 -1 0
vn 0 -1 0
vn 0 -1 0
vn 0 -1 0
vn 0 -1 0
vn 0 -1 0
vn 0 -1 0
vn 0 -1 0
g pb_Mesh386530_0
f 3/3/3 2/2/2 1/1/1
f 2/2/2 4/4/4 1/1/1
f 5/5/5 4/4/4 2/2/2
f 5/5/5 6/6/6 4/4/4
f 3/3/3 5/5/5 2/2/2
f 7/7/7 5/5/5 3/3/3
f 7/7/7 8/8/8 5/5/5
f 7/7/7 9/9/9 8/8/8
f 10/10/10 6/6/6 5/5/5
f 8/8/8 10/10/10 5/5/5
f 11/11/11 10/10/10 8/8/8
f 11/11/11 8/8/8 9/9/9
f 11/11/11 12/12/12 10/10/10
f 13/13/13 12/12/12 11/11/11
f 10/10/10 14/14/14 6/6/6
f 12/12/12 14/14/14 10/10/10
f 15/15/15 14/14/14 12/12/12
f 13/13/13 15/15/15 12/12/12
f 17/17/17 16/16/16 14/14/14
f 15/15/15 17/17/17 14/14/14
f 14/14/14 18/18/18 6/6/6
f 14/14/14 16/16/16 18/18/18
f 16/16/16 19/19/19 18/18/18
f 17/17/17 19/19/19 16/16/16
f 18/18/18 21/21/21 20/20/20
f 19/19/19 21/21/21 18/18/18
f 18/18/18 20/20/20 22/22/22
f 18/18/18 22/22/22 6/6/6
f 20/20/20 23/23/23 22/22/22
f 20/20/20 21/21/21 23/23/23
f 23/23/23 25/25/25 24/24/24
f 22/22/22 23/23/23 24/24/24
f 6/6/6 24/24/24 26/26/26
f 22/22/22 24/24/24 6/6/6
f 26/26/26 25/25/25 27/27/27
f 24/24/24 25/25/25 26/26/26
f 26/26/26 27/27/27 28/28/28
f 29/29/29 26/26/26 28/28/28
f 30/30/30 26/26/26 29/29/29
f 30/30/30 6/6/6 26/26/26
f 29/29/29 28/28/28 31/31/31
f 30/30/30 29/29/29 31/31/31
f 33/33/33 31/31/31 32/32/32
f 33/33/33 30/30/30 31/31/31
f 4/4/4 30/30/30 33/33/33
f 6/6/6 30/30/30 4/4/4
f 4/4/4 33/33/33 32/32/32
f 1/1/1 4/4/4 32/32/32
f 36/36/36 35/35/35 34/34/34
f 37/37/37 35/35/35 36/36/36
f 39/39/39 38/38/38 35/35/35
f 37/37/37 39/39/39 35/35/35
f 40/40/40 39/39/39 37/37/37
f 40/40/40 37/37/37 36/36/36
f 43/43/43 42/42/42 41/41/41
f 42/42/42 44/44/44 41/41/41
f 35/35/35 44/44/44 42/42/42
f 35/35/35 38/38/38 44/44/44
f 42/42/42 43/43/43 34/34/34
f 35/35/35 42/42/42 34/34/34
f 47/47/47 46/46/46 45/45/45
f 47/47/47 48/48/48 46/46/46
f 44/44/44 48/48/48 47/47/47
f 38/38/38 48/48/48 44/44/44
f 41/41/41 47/47/47 45/45/45
f 44/44/44 47/47/47 41/41/41
f 51/51/51 50/50/50 49/49/49
f 52/52/52 50/50/50 51/51/51
f 52/52/52 51/51/51 48/48/48
f 38/38/38 52/52/52 48/48/48
f 48/48/48 49/49/49 46/46/46
f 48/48/48 51/51/51 49/49/49
f 55/55/55 54/54/54 53/53/53
f 56/56/56 55/55/55 53/53/53
f 38/38/38 56/56/56 52/52/52
f 56/56/56 53/53/53 52/52/52
f 52/52/52 54/54/54 50/50/50
f 53/53/53 54/54/54 52/52/52
f 59/59/59 58/58/58 57/57/57
f 60/60/60 58/58/58 59/59/59
f 38/38/38 57/57/57 56/56/56
f 59/59/59 57/57/57 38/38/38
f 57/57/57 55/55/55 56/56/56
f 57/57/57 58/58/58 55/55/55
f 63/63/63 62/62/62 61/61/61
f 63/63/63 64/64/64 62/62/62
f 59/59/59 38/38/38 61/61/61
f 62/62/62 59/59/59 61/61/61
f 64/64/64 59/59/59 62/62/62
f 64/64/64 60/60/60 59/59/59
f 65/65/65 39/39/39 40/40/40
f 65/65/65 66/66/66 39/39/39
f 39/39/39 61/61/61 38/38/38
f 66/66/66 61/61/61 39/39/39
f 63/63/63 61/61/61 66/66/66
f 65/65/65 63/63/63 66/66/66
