g pb_Mesh145234
v -6.875 0 -5
v 3.125 0 0
v -8 0 0
v -10 0 7
v -6.625 0 14.125
v 0.75 0 8
v 11.5 0 3.5
v 11 0 12.125
v 14.375 0 -5.875
v 0 0 -9.375
v -15.375 -0.375 -10.125
v -12.8125 -0.28125 -9.9375
v -6.875 0 -5
v -8 -0.1875 -9.75
v -4 -0.09375 -9.5625
v 0 0 -9.375
v 3.125 0 0
v -8.5625 -0.15625 -13.4375
v -4.328125 -0.078125 -12.65625
v -8 -0.1875 -9.75
v -4 -0.09375 -9.5625
v -9.125 -0.125 -17.125
v -4.65625 -0.0625 -15.75
v -8.5625 -0.15625 -13.4375
v -4.328125 -0.078125 -12.65625
v -4.65625 -0.0625 -15.75
v -0.1875 0 -14.375
v -4.328125 -0.078125 -12.65625
v -0.09375 0 -11.875
v -0.09375 0 -11.875
v -4 -0.09375 -9.5625
v 0 0 -9.375
v -12.84375 -0.203125 -14.25
v -8.5625 -0.15625 -13.4375
v -12.8125 -0.28125 -9.9375
v -8 -0.1875 -9.75
v -15.375 -0.375 -10.125
v -14.125 -0.25 -15.125
v -12.84375 -0.203125 -14.25
v -12.8125 -0.28125 -9.9375
v -14.125 -0.25 -15.125
v -16.625 -0.125 -20
v -12.875 -0.125 -18.5625
v -12.84375 -0.203125 -14.25
v -12.875 -0.125 -18.5625
v -9.125 -0.125 -17.125
v -12.84375 -0.203125 -14.25
v -8.5625 -0.15625 -13.4375
v -16.625 -0.125 -20
v -15.5625 0.625 -24.9375
v -11.25 0.25 -25.75
v -12.875 -0.125 -18.5625
v -15.5625 0.625 -24.9375
v -16.875 1.375 -29.875
v -9.5 -5.25 -26.5
v -15.5625 0.625 -24.9375
v -9.5 -5.25 -26.5
v -11.25 0.25 -25.75
v -9.5 -5.25 -26.5
v -6.75 0 -23.75
v -11.25 0.25 -25.75
v -4.5 -3.75 -27.875
v -11.25 0.25 -25.75
v -9.125 -0.125 -17.125
v -6.75 0 -23.75
v -9.125 -0.125 -17.125
v -6.75 0 -23.75
v -4.65625 -0.0625 -15.75
v -3.53125 -0.03125 -18.875
v -6.75 0 -23.75
v -4.5 -3.75 -27.875
v -2.40625 0 -22
v -6.75 0 -23.75
v -2.40625 0 -22
v -3.53125 -0.03125 -18.875
v -2.40625 0 -22
v -0.375 0 -19.375
v -0.28125 0 -16.875
v -4.65625 -0.0625 -15.75
v -3.53125 -0.03125 -18.875
v -0.28125 0 -16.875
v -0.1875 0 -14.375
v 28.25 0 3.625
v 19.25 0 18.75
v 40.125 0 -5.875
v 28.25 0 47.125
v 19.5 0 46.625
v 40.125 0 47.25
vt 6.875 -5
vt -3.125 0
vt 8 0
vt 10 7
vt 6.625 14.125
vt -0.75 8
vt -11.5 3.5
vt -11 12.125
vt -14.375 -5.875
vt 0 -9.375
vt 15.37938 -10.12517
vt 12.81555 -9.937551
vt 6.873701 -4.999606
vt 8.002133 -9.750051
vt 4.001067 -9.562508
vt 0 -9.374963
vt -3.124409 -0.0001702978
vt 8.519778 -13.46415
vt 4.306602 -12.65143
vt 7.956629 -9.786877
vt 3.978315 -9.566372
vt 9.082928 -17.14143
vt 4.634888 -15.7365
vt 8.519778 -13.46415
vt 4.306602 -12.65143
vt 4.634888 -15.7365
vt 0.1868493 -14.33156
vt 4.306602 -12.65143
vt 0.09342465 -11.83871
vt 0.09342465 -11.83871
vt 3.978315 -9.566372
vt 0 -9.345868
vt 12.78227 -14.30588
vt 8.519778 -13.46415
vt 12.74462 -10.01271
vt 7.956629 -9.786877
vt 15.29043 -10.22379
vt 14.05517 -15.19024
vt 12.78227 -14.30588
vt 12.74462 -10.01271
vt 14.05517 -15.19024
vt 16.5569 -20.05667
vt 12.81991 -18.59905
vt 12.78227 -14.30588
vt 12.81991 -18.59905
vt 9.082928 -17.14143
vt 12.78227 -14.30588
vt 8.519778 -13.46415
vt 16.5569 -20.05667
vt 15.56052 -24.91299
vt 11.23177 -25.72412
vt 12.81991 -18.59905
vt 15.56052 -24.91299
vt 16.93089 -29.78488
vt 9.030025 -26.89206
vt 15.56052 -24.91299
vt 9.030025 -26.89206
vt 11.23177 -25.72412
vt 9.030025 -26.89206
vt 6.726575 -23.72046
vt 11.23177 -25.72412
vt 4.172235 -28.11226
vt 11.23177 -25.72412
vt 9.082928 -17.14143
vt 6.726575 -23.72046
vt 9.082928 -17.14143
vt 6.726575 -23.72046
vt 4.634888 -15.7365
vt 3.516394 -18.84196
vt 6.726575 -23.72046
vt 4.172235 -28.11226
vt 2.397899 -21.94741
vt 6.726575 -23.72046
vt 2.397899 -21.94741
vt 3.516394 -18.84196
vt 2.397899 -21.94741
vt 0.3736986 -19.31725
vt 0.2802739 -16.82441
vt 4.634888 -15.7365
vt 3.516394 -18.84196
vt 0.2802739 -16.82441
vt 0.1868493 -14.33156
vt -28.25 3.625
vt -19.25 18.75
vt -40.125 -5.875
vt -28.25 47.125
vt -19.5 46.625
vt -40.125 47.25
vn 0 1 0
vn 0 1 0
vn 0 1 0
vn 0 1 0
vn 0 1 0
vn 0 1 0
vn 0 1 0
vn 0 1 0
vn 0 1 0
vn 0 1 0
vn -0.03551901 0.9992681 -0.0142076
vn -0.02680727 0.999243 -0.02468232
vn -0.01944751 0.9993669 -0.02358301
vn -0.01995352 0.9991962 -0.03471612
vn -0.0218115 0.9991744 -0.03427522
vn -0.01090575 0.9995872 -0.01713761
vn 0 1 0
vn -0.02058759 0.9997206 0.01161269
vn -0.02218635 0.9997045 0.009592142
vn -0.02218635 0.9997045 0.009592142
vn -0.02378512 0.9996884 0.007571595
vn -0.01740705 0.9997866 0.01112808
vn -0.01858577 0.9997829 0.009136852
vn -0.01858577 0.9997829 0.009136852
vn -0.01976449 0.9997792 0.007145624
vn -0.01606182 0.9998482 0.006753264
vn -0.01731867 0.9998377 0.003724923
vn -0.01731867 0.9998377 0.003724923
vn -0.01857552 0.9998272 0.0006965819
vn -0.02161839 0.9997516 0.004012917
vn -0.02161839 0.9997516 0.004012917
vn -0.02347229 0.9997241 0.000880211
vn -0.01440289 0.9997303 0.01821543
vn -0.01716338 0.9997327 0.01486349
vn -0.01716338 0.9997327 0.01486349
vn -0.01992386 0.9997352 0.01151157
vn -0.04183923 0.9989864 0.01595036
vn -0.04578108 0.9988599 0.01352623
vn -0.04183923 0.9989864 0.01595036
vn -0.03789738 0.9991127 0.01837449
vn -0.0306799 0.9990191 0.02517164
vn -0.0122269 0.9994164 0.03189627
vn -0.0306799 0.9990191 0.02517164
vn -0.04913291 0.9986219 0.01844701
vn -0.006962471 0.9998108 0.01816297
vn -0.009946134 0.9998363 0.01430436
vn -0.009946134 0.9998363 0.01430436
vn -0.0129298 0.9998618 0.01044575
vn 0.04969621 0.988192 0.1109025
vn 0.1177731 0.9777033 0.1738555
vn 0.04969621 0.988192 0.1109025
vn -0.01838063 0.9986807 0.04794946
vn 0.2532005 0.4012747 -0.5263749
vn 0.6845201 0.725453 -0.07176563
vn 0.2532005 0.4012747 -0.5263749
vn 0.2532005 0.4012747 -0.5263749
vn 0.2532005 0.4012747 -0.5263749
vn -0.1781191 0.07709631 -0.9809841
vn 0.01600233 0.4125309 -0.8035614
vn 0.01600233 0.4125309 -0.8035614
vn 0.4048758 0.2488064 -0.8798699
vn -0.3728712 0.5762554 -0.7272529
vn 0.0111251 0.9986481 0.04067852
vn 0.0111251 0.9986481 0.04067852
vn 0.04063083 0.9986156 0.03340757
vn -0.01782109 0.9997634 0.01247477
vn -0.01066971 0.9998596 0.01060386
vn -0.01066971 0.9998596 0.01060386
vn -0.003518316 0.9999557 0.008732963
vn 0.1152746 0.889742 -0.286128
vn 0.2340674 0.7795282 -0.5809889
vn 0.1152746 0.889742 -0.286128
vn 0.1152746 0.889742 -0.286128
vn 0.1152746 0.889742 -0.286128
vn -0.009330658 0.9999447 0.003596758
vn -0.008819275 0.9999378 0.006824438
vn -0.009330658 0.9999447 0.003596758
vn -0.009842043 0.9999515 0.0003690766
vn -0.01352796 0.9999011 0.002941333
vn -0.01290806 0.9999024 0.005352122
vn -0.01352796 0.9999011 0.002941333
vn -0.01414786 0.9998997 0.0005305446
vn 0 1 0
vn 0 1 0
vn 0 1 0
vn 0 1 0
vn 0 1 0
vn 0 1 0
g pb_Mesh145234_0
f 3/3/3 2/2/2 1/1/1
f 3/3/3 4/4/4 2/2/2
f 5/5/5 2/2/2 4/4/4
f 5/5/5 6/6/6 2/2/2
f 2/2/2 6/6/6 7/7/7
f 6/6/6 8/8/8 7/7/7
f 10/10/10 2/2/2 9/9/9
f 2/2/2 7/7/7 9/9/9
f 13/13/13 12/12/12 11/11/11
f 13/13/13 14/14/14 12/12/12
f 13/13/13 15/15/15 14/14/14
f 13/13/13 16/16/16 15/15/15
f 13/13/13 17/17/17 16/16/16
f 20/20/20 19/19/19 18/18/18
f 21/21/21 19/19/19 20/20/20
f 24/24/24 23/23/23 22/22/22
f 25/25/25 23/23/23 24/24/24
f 28/28/28 27/27/27 26/26/26
f 29/29/29 27/27/27 28/28/28
f 31/31/31 30/30/30 25/25/25
f 32/32/32 30/30/30 31/31/31
f 35/35/35 34/34/34 33/33/33
f 36/36/36 34/34/34 35/35/35
f 39/39/39 38/38/38 37/37/37
f 40/40/40 39/39/39 37/37/37
f 43/43/43 42/42/42 41/41/41
f 44/44/44 43/43/43 41/41/41
f 47/47/47 46/46/46 45/45/45
f 48/48/48 46/46/46 47/47/47
f 51/51/51 50/50/50 49/49/49
f 52/52/52 51/51/51 49/49/49
f 55/55/55 54/54/54 53/53/53
f 58/58/58 57/57/57 56/56/56
f 61/61/61 60/60/60 59/59/59
f 60/60/60 62/62/62 59/59/59
f 52/52/52 64/64/64 63/63/63
f 64/64/64 65/65/65 63/63/63
f 68/68/68 67/67/67 66/66/66
f 68/68/68 69/69/69 67/67/67
f 72/72/72 71/71/71 70/70/70
f 69/69/69 74/74/74 73/73/73
f 77/77/77 76/76/76 75/75/75
f 78/78/78 77/77/77 75/75/75
f 81/81/81 80/80/80 79/79/79
f 82/82/82 81/81/81 79/79/79
f 7/7/7 8/8/8 83/83/83
f 8/8/8 84/84/84 83/83/83
f 9/9/9 7/7/7 85/85/85
f 7/7/7 83/83/83 85/85/85
f 83/83/83 84/84/84 86/86/86
f 84/84/84 87/87/87 86/86/86
f 85/85/85 83/83/83 88/88/88
f 83/83/83 86/86/86 88/88/88
