g pb_Mesh169576
v -15.99993 32 66.00002
v 7.033348E-05 0 66.00001
v 7.033348E-05 32 66.00001
v -15.99993 0 66.00002
v 7.033348E-05 32 66.00001
v -16 32 1.728535E-05
v -15.99993 32 66.00002
v 1.66893E-06 32 1.192093E-07
v -16 0 0
v 0 0 0
v 7.033348E-05 0 66.00001
v -15.99993 0 66.00002
v 1.66893E-06 32 1.192093E-07
v -4.768372E-07 35 -1.788139E-06
v 7.033348E-05 35 66
v 7.033348E-05 32 66.00001
v -9.75 14.9999 8.672476E-06
v -12.00001 15 -7.999989
v -12 15 1.108646E-05
v -9.75001 14.9999 -7.999991
v -12.00001 14.9999 -9.999989
v -15.00001 15 -7.999986
v -12.00001 15 -7.999989
v -15.00001 14.9999 -9.999986
v -9.75001 14.9999 -7.999991
v -12.00001 14.9999 -9.999989
v -12.00001 15 -7.999989
v -9.750011 14.9998 -9.999991
v -9.750009 15 -7.9999
v -12.00001 11 -7.999989
v -12.00001 15 -7.999989
v -9.750009 11 -7.9999
v 0 0 0
v -16 0 0
v -5.000034 2 5.722046E-06
v -11.00003 2 1.144409E-05
v -15.00001 11 -7.999986
v -15.00001 15 -7.999986
v -12.00001 11 -7.999989
v -12.00001 15 -7.999989
v 1.66893E-06 32 1.192093E-07
v -4.999998 21 5.483627E-06
v -16 32 1.728535E-05
v -11 21 1.192093E-05
v -15 11 1.430511E-05
v -15 15 1.430511E-05
v -12 11 1.108646E-05
v -12 15 1.108646E-05
v -5 21 3.576279E-06
v -15 11 1.430511E-05
v -15 15 1.430511E-05
v -15.00001 11 -7.999986
v -15.00001 15 -7.999986
v -12 11 1.108646E-05
v -15 11 1.430511E-05
v -12.00001 11 -7.999989
v -15.00001 11 -7.999986
v -15 15 1.430511E-05
v -12 15 1.108646E-05
v -15.00001 15 -7.999986
v -12.00001 15 -7.999989
v -12 15 1.108646E-05
v -12 11 1.108646E-05
v -12.00001 15 -7.999989
v -12.00001 11 -7.999989
v -15.00001 11 -7.999986
v -15.00001 15 -7.999986
v -15.00001 11 -7.999986
v -15.00001 15 -7.999986
v -15.00001 15 -7.999986
v -15.00001 11 -7.999986
v -12.00001 11 -7.999989
v -15.00001 11 -7.999986
v -12.00001 11 -7.999989
v -15.00001 11 -7.999986
v -15.00001 11 -7.999986
v -12.00001 11 -7.999989
v -15.00001 15 -7.999986
v -12.00001 15 -7.999989
v -15.00001 15 -7.999986
v -12.00001 15 -7.999989
v -12.00001 15 -7.999989
v -15.00001 15 -7.999986
v -12.00001 15 -7.999989
v -12.00001 11 -7.999989
v -12.00001 15 -7.999989
v -12.00001 11 -7.999989
v -12.00001 11 -7.999989
v -12.00001 15 -7.999989
vt 15.99999 32
vt -7.390969E-06 0
vt -7.390969E-06 32
vt 15.99999 0
vt 7.033348E-05 66.00001
vt -16 1.728535E-05
vt -15.99993 66.00002
vt 1.66893E-06 1.192093E-07
vt 11.99998 16.50001
vt 3.999982 16.50001
vt 3.999947 49.50001
vt 11.99995 49.50002
vt 1.192111E-07 32
vt -1.78814E-06 35
vt 66 35
vt 66.00001 32
vt -9.750661 8.673264E-06
vt -12.00067 -7.999989
vt -12.00066 1.108725E-05
vt -9.75067 -7.999991
vt -12.00001 -9.999245
vt -15.00001 -7.999242
vt -12.00001 -7.999245
vt -15.00001 -9.999242
vt -9.75067 -7.999248
vt -12.00067 -9.999245
vt -12.00067 -7.999245
vt -9.750672 -9.999248
vt -9.750325 15
vt -12.00033 11
vt -12.00033 15
vt -9.750325 11
vt 0 0
vt -16 0
vt -5.000034 2
vt -11.00003 2
vt -15 11
vt -15 15
vt -12 11
vt -12 15
vt 1.66893E-06 32
vt -4.999998 21
vt -16 32
vt -11 21
vt -15 11
vt -15 15
vt -12 11
vt -12 15
vt -5 21
vt 3.576279E-06 11
vt 3.576279E-06 15
vt 8.000004 11
vt 8.000004 15
vt 12 1.108646E-05
vt 15 1.430511E-05
vt 12.00001 -7.999989
vt 15.00001 -7.999986
vt -15 1.430511E-05
vt -12 1.108646E-05
vt -15.00001 -7.999986
vt -12.00001 -7.999989
vt -3.218651E-06 15
vt -3.218651E-06 11
vt -8.000004 15
vt -8.000004 11
vt 0 0
vt 0 0
vt 0 0
vt 0 0
vt 0 0
vt 0 0
vt 0 0
vt 0 0
vt 0 0
vt 0 0
vt 0 0
vt 0 0
vt 0 0
vt 0 0
vt 0 0
vt 0 0
vt 0 0
vt 0 0
vt 0 0
vt 0 0
vt 0 0
vt 0 0
vt 0 0
vt 0 0
vn -9.536743E-07 0 -1
vn -9.536743E-07 0 -1
vn -9.536743E-07 0 -1
vn -9.536743E-07 0 -1
vn 0 -1 0
vn 0 -1 0
vn 0 -1 0
vn 0 -1 0
vn 0 1 0
vn 0 1 0
vn 0 1 0
vn 0 1 0
vn -1 -3.576262E-07 1.056628E-06
vn -1 -7.152551E-07 1.072884E-06
vn -1 -3.576262E-07 1.056628E-06
vn -1 2.645802E-12 1.040372E-06
vn -4.408095E-05 -1 5.254858E-11
vn -4.408095E-05 -1 5.254858E-11
vn -4.408095E-05 -1 5.254858E-11
vn -4.408095E-05 -1 5.254858E-11
vn 5.123487E-11 -1 4.959107E-05
vn 5.123487E-11 -1 4.959107E-05
vn 5.517602E-11 -1 4.959108E-05
vn 4.729372E-11 -1 4.959106E-05
vn -4.408089E-05 -1 4.959111E-05
vn -4.408089E-05 -1 4.959111E-05
vn -4.408089E-05 -1 4.959112E-05
vn -4.408088E-05 -1 4.959111E-05
vn -3.963045E-05 0 1
vn -3.963045E-05 0 1
vn -3.963045E-05 0 1
vn -3.963045E-05 0 1
vn 0 -2.861023E-06 1
vn 4.768372E-07 -5.483619E-06 1
vn 4.768372E-07 -5.483619E-06 1
vn 9.536743E-07 -8.106215E-06 1
vn 1.11262E-06 0 1
vn 1.11262E-06 0 1
vn 1.11262E-06 0 1
vn 1.11262E-06 0 1
vn 1.081079E-06 -3.725347E-09 1
vn 1.11525E-06 4.410404E-09 1
vn 1.072884E-06 0 1
vn 1.072884E-06 0 1
vn -2.691522E-06 -2.700833E-07 1
vn 2.980238E-06 0 1
vn -5.668871E-07 -8.017196E-07 1
vn 1.072884E-06 -3.178918E-07 1
vn 1.351035E-06 -1.254967E-08 1
vn 1 0 -1.192093E-06
vn 1 0 -1.192093E-06
vn 1 0 -1.192093E-06
vn 1 0 -1.192093E-06
vn 0 1 0
vn 0 1 0
vn 0 1 0
vn 0 1 0
vn 0 -1 0
vn 0 -1 0
vn 0 -1 0
vn 0 -1 0
vn -1 0 1.192093E-06
vn -1 0 1.192093E-06
vn -1 0 1.192093E-06
vn -1 0 1.192093E-06
vn 0 0 0
vn 0 0 0
vn 0 0 0
vn 0 0 0
vn 0 0 0
vn 0 0 0
vn 0 0 0
vn 0 0 0
vn 0 0 0
vn 0 0 0
vn 0 0 0
vn 0 0 0
vn 0 0 0
vn 0 0 0
vn 0 0 0
vn 0 0 0
vn 0 0 0
vn 0 0 0
vn 0 0 0
vn 0 0 0
vn 0 0 0
vn 0 0 0
vn 0 0 0
vn 0 0 0
g pb_Mesh169576_0
f 3/3/3 2/2/2 1/1/1
f 2/2/2 4/4/4 1/1/1
f 7/7/7 6/6/6 5/5/5
f 6/6/6 8/8/8 5/5/5
f 11/11/11 10/10/10 9/9/9
f 11/11/11 9/9/9 12/12/12
f 15/15/15 14/14/14 13/13/13
f 15/15/15 13/13/13 16/16/16
g pb_Mesh169576_1
f 19/19/19 18/18/18 17/17/17
f 18/18/18 20/20/20 17/17/17
f 23/23/23 22/22/22 21/21/21
f 22/22/22 24/24/24 21/21/21
f 27/27/27 26/26/26 25/25/25
f 26/26/26 28/28/28 25/25/25
f 31/31/31 30/30/30 29/29/29
f 30/30/30 32/32/32 29/29/29
g pb_Mesh169576_2
f 35/35/35 34/34/34 33/33/33
f 35/35/35 36/36/36 34/34/34
f 39/39/39 38/38/38 37/37/37
f 39/39/39 40/40/40 38/38/38
f 42/42/42 33/33/33 41/41/41
f 42/42/42 35/35/35 33/33/33
f 44/44/44 41/41/41 43/43/43
f 44/44/44 42/42/42 41/41/41
f 45/45/45 43/43/43 34/34/34
f 45/45/45 46/46/46 43/43/43
f 47/47/47 34/34/34 36/36/36
f 47/47/47 45/45/45 34/34/34
f 46/46/46 44/44/44 43/43/43
f 46/46/46 48/48/48 44/44/44
f 48/48/48 36/36/36 44/44/44
f 48/48/48 47/47/47 36/36/36
f 44/44/44 36/36/36 49/49/49
f 36/36/36 35/35/35 49/49/49
f 52/52/52 51/51/51 50/50/50
f 52/52/52 53/53/53 51/51/51
f 56/56/56 55/55/55 54/54/54
f 56/56/56 57/57/57 55/55/55
f 60/60/60 59/59/59 58/58/58
f 60/60/60 61/61/61 59/59/59
f 64/64/64 63/63/63 62/62/62
f 64/64/64 65/65/65 63/63/63
f 68/68/68 67/67/67 66/66/66
f 71/71/71 70/70/70 69/69/69
f 74/74/74 73/73/73 72/72/72
f 77/77/77 76/76/76 75/75/75
f 80/80/80 79/79/79 78/78/78
f 83/83/83 82/82/82 81/81/81
f 86/86/86 85/85/85 84/84/84
f 89/89/89 88/88/88 87/87/87
