g pb_Mesh6224686
v -32 -16 -22.25
v -32 -16 -36
v -32 13 -36
v -32 13 -22.25
v 0 13 -36
v 0 -16 -22.25
v 0 13 -22.25
v 0 -16 -36
v -32 13 -36
v 0 13 -36
v 0 13 -22.25
v -32 13 -22.25
v 0 -19 -22.25
v -32 -19 -36
v -32 -19 -22.25
v 0 -19 -36
v -32 -16 -21
v -32 -16 -21.75
v -32 13 -21.75
v -32 13 -21
v 0 13 -21.75
v 0 -16 -21
v 0 13 -21
v 0 -16 -21.75
v 0 13 -21.75
v -32 13 -21.75
v 0 13 -21
v -32 13 -21
v 0 -19 -21.75
v -32 -19 -21.75
v 0 -19 -21
v -32 -19 -21
v -32 -19 -36
v -32 -19 -22.25
v -32 -19 -21.75
v -32 -19 -21
v 0 -16 -22.25
v 0 -16 -36
v 0 -19 -22.25
v 0 -19 -36
v 0 -16 -21.75
v 0 -19 -21.75
v 0 -16 -21
v 0 -19 -21
vt -22.25 -16
vt -36 -16
vt -36 13
vt -22.25 13
vt -36 13
vt -22.25 -16
vt -22.25 13
vt -36 -16
vt 32 -36
vt 0 -36
vt 0 -22.25
vt 32 -22.25
vt 0 -22.25
vt -32 -36
vt -32 -22.25
vt 0 -36
vt -21 -16
vt -21.75 -16
vt -21.75 13
vt -21 13
vt -21.75 13
vt -21 -16
vt -21 13
vt -21.75 -16
vt 0 -21.75
vt 32 -21.75
vt 0 -21
vt 32 -21
vt 0 -21.75
vt -32 -21.75
vt 0 -21
vt -32 -21
vt -36 -19
vt -22.25 -19
vt -21.75 -19
vt -21 -19
vt 22.25 -16
vt 36 -16
vt 22.25 -19
vt 36 -19
vt 21.75 -16
vt 21.75 -19
vt 21 -16
vt 21 -19
vn -1 0 0
vn -1 0 0
vn -1 0 0
vn -1 0 0
vn 1 0 0
vn 1 0 0
vn 1 0 0
vn 1 0 0
vn 0 1 0
vn 0 1 0
vn 0 1 0
vn 0 1 0
vn 0 -1 0
vn 0 -1 0
vn 0 -1 0
vn 0 -1 0
vn -1 0 0
vn -1 0 0
vn -1 0 0
vn -1 0 0
vn 1 0 0
vn 1 0 0
vn 1 0 0
vn 1 0 0
vn 0 1 0
vn 0 1 0
vn 0 1 0
vn 0 1 0
vn 0 -1 0
vn 0 -1 0
vn 0 -1 0
vn 0 -1 0
vn -1 0 0
vn -1 0 0
vn -1 0 0
vn -1 0 0
vn 1 0 0
vn 1 0 0
vn 1 0 0
vn 1 0 0
vn 1 0 0
vn 1 0 0
vn 1 0 0
vn 1 0 0
g pb_Mesh6224686_0
g pb_Mesh6224686_1
f 3/3/3 2/2/2 1/1/1
f 3/3/3 1/1/1 4/4/4
f 7/7/7 6/6/6 5/5/5
f 6/6/6 8/8/8 5/5/5
f 11/11/11 10/10/10 9/9/9
f 11/11/11 9/9/9 12/12/12
f 15/15/15 14/14/14 13/13/13
f 14/14/14 16/16/16 13/13/13
f 19/19/19 18/18/18 17/17/17
f 19/19/19 17/17/17 20/20/20
f 4/4/4 1/1/1 18/18/18
f 4/4/4 18/18/18 19/19/19
f 23/23/23 22/22/22 21/21/21
f 22/22/22 24/24/24 21/21/21
f 21/21/21 24/24/24 7/7/7
f 24/24/24 6/6/6 7/7/7
f 25/25/25 11/11/11 12/12/12
f 25/25/25 12/12/12 26/26/26
f 27/27/27 25/25/25 26/26/26
f 27/27/27 26/26/26 28/28/28
f 30/30/30 15/15/15 29/29/29
f 15/15/15 13/13/13 29/29/29
f 32/32/32 30/30/30 31/31/31
f 30/30/30 29/29/29 31/31/31
f 33/33/33 1/1/1 2/2/2
f 33/33/33 34/34/34 1/1/1
f 35/35/35 17/17/17 18/18/18
f 35/35/35 36/36/36 17/17/17
f 39/39/39 38/38/38 37/37/37
f 39/39/39 40/40/40 38/38/38
f 34/34/34 18/18/18 1/1/1
f 34/34/34 35/35/35 18/18/18
f 42/42/42 37/37/37 41/41/41
f 42/42/42 39/39/39 37/37/37
f 44/44/44 41/41/41 43/43/43
f 44/44/44 42/42/42 41/41/41
