g pb_Mesh1671256
v -1.854811 0 -0.1238632
v -2 0 0
v -1.854811 19 -0.1238632
v -2 19 0
v -2 0 0
v -2 0 -2
v -2 19 0
v -2 19 -2
v -2 0 -2
v -1.854811 0 -1.876137
v -2 19 -2
v -1.854811 19 -1.876137
v -1.854811 0 -1.876137
v -1.854811 0 -0.1238632
v -1.854811 19 -1.876137
v -1.854811 19 -0.1238632
v -1.854811 0 -1.876137
v -2 0 -2
v -1.854811 0 -0.1238632
v -2 0 0
v -1.854811 19 -0.1238632
v -2 19 0
v -1.854811 19 -1.876137
v -2 19 -2
vt -1.330692 0
vt -1.521537 0
vt -1.330692 19
vt -1.521537 19
vt 0 0
vt -2 0
vt 0 19
vt -2 19
vt 2.819584 0
vt 2.628738 0
vt 2.819584 19
vt 2.628738 19
vt 1.876137 0
vt 0.1238632 0
vt 1.876137 19
vt 0.1238632 19
vt -1.854811 -1.876137
vt -2 -2
vt -1.854811 -0.1238632
vt -2 0
vt 1.854811 -0.1238632
vt 2 0
vt 1.854811 -1.876137
vt 2 -2
vn 0.6490232 0 0.7607687
vn 0.6490232 0 0.7607687
vn 0.6490232 0 0.7607687
vn 0.6490232 0 0.7607687
vn -1 0 0
vn -1 0 0
vn -1 0 0
vn -1 0 0
vn 0.6490234 0 -0.7607685
vn 0.6490234 0 -0.7607685
vn 0.6490234 0 -0.7607685
vn 0.6490234 0 -0.7607685
vn 1 0 0
vn 1 0 0
vn 1 0 0
vn 1 0 0
vn 0 -1 0
vn 0 -1 0
vn 0 -1 0
vn 0 -0.9999999 0
vn 0 1 0
vn 0 1 0
vn 0 1 0
vn 0 0.9999999 0
g pb_Mesh1671256_0
f 3/3/3 2/2/2 1/1/1
f 3/3/3 4/4/4 2/2/2
f 7/7/7 6/6/6 5/5/5
f 7/7/7 8/8/8 6/6/6
f 11/11/11 10/10/10 9/9/9
f 11/11/11 12/12/12 10/10/10
f 15/15/15 14/14/14 13/13/13
f 15/15/15 16/16/16 14/14/14
f 19/19/19 18/18/18 17/17/17
f 19/19/19 20/20/20 18/18/18
g pb_Mesh1671256_1
f 23/23/23 22/22/22 21/21/21
f 23/23/23 24/24/24 22/22/22
