g pb_Mesh1887270
v -1.248817 0 -0.2488098
v -13.75118 0 -0.2488098
v -2.751183 2 -1.751175
v -12.24882 2 -1.751175
v -13.75118 0 -0.2488098
v -13.75118 0 -8
v -12.24882 2 -1.751175
v -12.24882 2 -6.497635
v -13.75118 0 -8
v -1.248817 0 -8
v -12.24882 2 -6.497635
v -2.751183 2 -6.497635
v -1.248817 0 -8
v -1.248817 0 -0.2488098
v -2.751183 2 -6.497635
v -2.751183 2 -1.751175
v -2.751183 2 -1.751175
v -12.24882 2 -1.751175
v -2.751183 2 -6.497635
v -12.24882 2 -6.497635
vt -1.248817 0.1494364
vt -13.75118 0.1494364
vt -2.751183 2.650856
vt -12.24882 2.650856
vt -0.2488098 -8.259028
vt -8 -8.259028
vt -1.751175 -5.757608
vt -6.497635 -5.757608
vt 13.75118 -4.80484
vt 1.248817 -4.80484
vt 12.24882 -2.30342
vt 2.751183 -2.30342
vt 8 0.750046
vt 0.2488098 0.750046
vt 6.497635 3.251466
vt 1.751175 3.251466
vt 2.751183 -1.751175
vt 12.24882 -1.751175
vt 2.751183 -6.497635
vt 12.24882 -6.497635
vn 0 0.600605 0.7995459
vn 0 0.600605 0.7995459
vn 0 0.600605 0.7995459
vn 0 0.600605 0.7995459
vn -0.7995459 0.600605 0
vn -0.7995459 0.600605 0
vn -0.7995459 0.600605 0
vn -0.7995459 0.600605 0
vn 0 0.600605 -0.7995459
vn 0 0.600605 -0.7995459
vn 0 0.600605 -0.7995459
vn 0 0.600605 -0.7995459
vn 0.7995459 0.600605 0
vn 0.7995459 0.600605 0
vn 0.7995459 0.600605 0
vn 0.7995459 0.600605 0
vn 0 1 0
vn 0 1 0
vn 0 1 0
vn 0 1 0
g pb_Mesh1887270_0
g pb_Mesh1887270_1
f 3/3/3 2/2/2 1/1/1
f 3/3/3 4/4/4 2/2/2
f 7/7/7 6/6/6 5/5/5
f 7/7/7 8/8/8 6/6/6
f 11/11/11 10/10/10 9/9/9
f 11/11/11 12/12/12 10/10/10
f 15/15/15 14/14/14 13/13/13
f 15/15/15 16/16/16 14/14/14
f 19/19/19 18/18/18 17/17/17
f 19/19/19 20/20/20 18/18/18
