g pb_Mesh408898
v 26.5 -7.500011 -3.999977
v 23.49429 -9.50001 -3.999979
v 20 -4.000016 -5.499989
v 28 -4.13184 -5.499985
v 28 -4.13184 -5.499985
v 20 -4.000016 -5.499989
v 20 2.999984 -5.500009
v 29.7875 2.999984 -5.500001
v 20 2.999984 -5.500009
v 20 9.999984 -5.50003
v 29.93906 9.999984 -5.50002
v 15 -8.938774 -4.999974
v 20 -4.000016 -5.499989
v 23.49429 -9.50001 -3.999979
v 12 -3.755367 -5.999989
v 12 -3.755367 -5.999989
v 20 2.999984 -5.500009
v 20 -4.000016 -5.499989
v 12 2.841697 -6.000009
v 20 9.999984 -5.50003
v 12 9.438769 -6.000028
vt 25.78092 -6.000433
vt 22.79936 -8.036268
vt 19.14336 -2.437724
vt 27.07907 -2.378141
vt 28 -4.131824
vt 20 -4
vt 20 3
vt 29.7875 3
vt 20 3
vt 20 10
vt 29.93906 10
vt 14.40184 -7.442209
vt 19.32322 -2.400249
vt 22.95401 -8.015173
vt 11.31444 -2.227196
vt 11.60236 -3.755347
vt 19.61797 3.000003
vt 19.61797 -3.999997
vt 11.60236 2.841716
vt 19.61797 10
vt 11.60236 9.438789
vn -0.05881881 0.2955727 0.9445429
vn -0.1243 0.1868043 0.9745018
vn -0.05881881 0.2955727 0.9445429
vn 0.006662351 0.404341 0.914584
vn -5.504369E-07 2.65872E-06 1
vn -3.700886E-07 2.861023E-06 1
vn -5.504369E-07 2.65872E-06 1
vn -7.307852E-07 2.456418E-06 1
vn -7.307852E-07 2.997262E-06 1
vn -8.691412E-07 2.803811E-06 1
vn -1.007497E-06 2.610359E-06 1
vn -0.07910243 0.1793105 0.98009
vn -0.07910243 0.1793105 0.98009
vn -0.1013967 0.2012919 0.9742691
vn -0.05680817 0.1573291 0.985911
vn -0.0623783 2.906585E-06 0.9980526
vn -0.0623783 2.906585E-06 0.9980526
vn -0.06237826 2.855451E-06 0.9980526
vn -0.06237835 2.957718E-06 0.9980526
vn -0.06237829 2.9385E-06 0.9980526
vn -0.06237825 2.885574E-06 0.9980526
g pb_Mesh408898_0
g pb_Mesh408898_1
g pb_Mesh408898_2
f 3/3/3 2/2/2 1/1/1
f 3/3/3 1/1/1 4/4/4
f 7/7/7 6/6/6 5/5/5
f 7/7/7 5/5/5 8/8/8
f 10/10/10 9/9/9 8/8/8
f 10/10/10 8/8/8 11/11/11
f 14/14/14 13/13/13 12/12/12
f 13/13/13 15/15/15 12/12/12
f 18/18/18 17/17/17 16/16/16
f 17/17/17 19/19/19 16/16/16
f 17/17/17 20/20/20 19/19/19
f 20/20/20 21/21/21 19/19/19
