g pb_Mesh471080
v 115 -8 4
v 44 -8 4
v 115 12 4
v 44 12 4
v 115 -8 -4
v 115 -8 4
v 115 12 -4
v 115 12 4
v 115 12 4
v 44 12 4
v 115 12 -4
v 44 12 -4
v 115 -8 -4
v 44 -8 -4
v 115 -8 4
v 44 -8 4
v 44 -8 -4
v 115 -8 -4
v 71 -6 -4
v 79 -6 -4
v 115 12 -4
v 79 7 -4
v 115 12 -4
v 44 12 -4
v 71 7 -4
v 71 -6 -4
v 79 -6 -4
v 71 -6 4
v 79 -6 4
v 71 7 -4
v 71 -6 -4
v 71 7 4
v 71 -6 4
v 79 -6 -4
v 79 7 -4
v 79 -6 4
v 79 7 4
v 79 7 -4
v 71 7 -4
v 79 7 4
v 71 7 4
v 44 12 4
v 44 -8 4
v -11 12 4
v -11 -8 4
v -11 -8 -4
v -11 0 -4
v -11 -8 4
v -11 12 4
v -11 12 -4
v 71 -6 -4
v 44 0 -4
v 44 -8 4
v 16.5 -8 -4
v -11 -8 4
v -11 -8 -4
v 44 -8 -4
v 17 12 -4
v 17 0 -4
v 44 12 4
v 17 12 -4
v -11 12 -4
v -11 12 4
v 2 0 -4
v 2 4 -4
v -11 12 -4
v -2 4 -4
v -11 0 -4
v -2 0 -4
v 2 0 -4
v 2 4 -4
v 2 0 4
v 2 4 4
v 2 0 4
v 2 4 -4
v -2 4 -4
v 2 4 4
v -2 4 4
v 2 4 4
v -2 4 -4
v -2 0 -4
v -2 4 4
v -2 0 4
v -2 4 4
v -2 0 -4
v 2 0 -4
v -2 0 4
v 2 0 4
vt 115 -8
vt 44 -8
vt 115 12
vt 44 12
vt 4 -8
vt -4 -8
vt 4 12
vt -4 12
vt -115 4
vt -44 4
vt -115 -4
vt -44 -4
vt 115 -4
vt 44 -4
vt 115 4
vt 44 4
vt -44 -8
vt -115 -8
vt -71 -6
vt -79 -6
vt -115 12
vt -79 7
vt -115 12
vt -44 12
vt -71 7
vt -71 -4
vt -79 -4
vt -71 4
vt -79 4
vt 4 7
vt 4 -6
vt -4 7
vt -4 -6
vt -4 -6
vt -4 7
vt 4 -6
vt 4 7
vt 79 -4
vt 71 -4
vt 79 4
vt 71 4
vt 44 12
vt 44 -8
vt -11 12
vt -11 -8
vt -4 -8
vt -4 0
vt 4 -8
vt 4 12
vt -4 12
vt -71 -6
vt -44 0
vt 44 4
vt 16.5 -4
vt -11 4
vt -11 -4
vt 44 -4
vt -17 12
vt -17 0
vt -44 4
vt -17 -4
vt 11 -4
vt 11 4
vt -2 0
vt -2 4
vt 11 12
vt 2 4
vt 11 0
vt 2 0
vt -4 0
vt -4 4
vt 4 0
vt 4 4
vt 4 0
vt 2 -4
vt -2 -4
vt 2 4
vt -2 4
vt 2 4
vt 4 4
vt 4 0
vt -4 4
vt -4 0
vt -4 4
vt 2 -4
vt -2 -4
vt 2 4
vt -2 4
vn 0 0 0.9999999
vn 0 0 0.9999999
vn 0 0 0.9999999
vn 0 0 0.9999999
vn 1 0 0
vn 1 0 0
vn 1 0 0
vn 1 0 0
vn 0 1 0
vn 0 1 0
vn 0 1 0
vn 0 1 0
vn 0 -1 0
vn 0 -1 0
vn 0 -1 0
vn 0 -1 0
vn 0 0 -1
vn 0 0 -1
vn 0 0 -1
vn 0 0 -1
vn 0 0 -1
vn 0 0 -1
vn 0 0 -0.9999999
vn 0 0 -1
vn 0 0 -1
vn 0 1 0
vn 0 1 0
vn 0 1 0
vn 0 1 0
vn 1 0 0
vn 1 0 0
vn 1 0 0
vn 1 0 0
vn -1 0 0
vn -1 0 0
vn -1 0 0
vn -1 0 0
vn 0 -1 0
vn 0 -1 0
vn 0 -1 0
vn 0 -1 0
vn 0 0 1
vn 0 0 1
vn 0 0 1
vn 0 0 1
vn -1 0 0
vn -1 0 0
vn -1 0 0
vn -1 0 0
vn -1 0 0
vn 0 0 -0.9999999
vn 0 0 -1
vn 0 -0.9999999 0
vn 0 -0.9999999 0
vn 0 -0.9999999 0
vn 0 -0.9999999 0
vn 0 -0.9999999 0
vn 0 0 -1
vn 0 0 -1
vn 0 0.9999999 0
vn 0 0.9999999 0
vn 0 1 0
vn 0 0.9999999 0
vn 0 0 -1
vn 0 0 -1
vn 0 0 -1
vn 0 0 -1
vn 0 0 -1
vn 0 0 -1
vn -1 0 0
vn -1 0 0
vn -1 0 0
vn -1 0 0
vn -1 0 0
vn 0 -1 0
vn 0 -1 0
vn 0 -1 0
vn 0 -1 0
vn 0 -1 0
vn 1 0 0
vn 1 0 0
vn 1 0 0
vn 1 0 0
vn 1 0 0
vn 0 1 0
vn 0 1 0
vn 0 1 0
vn 0 1 0
g pb_Mesh471080_0
f 3/3/3 2/2/2 1/1/1
f 3/3/3 4/4/4 2/2/2
f 7/7/7 6/6/6 5/5/5
f 7/7/7 8/8/8 6/6/6
f 11/11/11 10/10/10 9/9/9
f 11/11/11 12/12/12 10/10/10
f 15/15/15 14/14/14 13/13/13
f 15/15/15 16/16/16 14/14/14
f 19/19/19 18/18/18 17/17/17
f 19/19/19 20/20/20 18/18/18
f 20/20/20 21/21/21 18/18/18
f 20/20/20 22/22/22 21/21/21
f 22/22/22 24/24/24 23/23/23
f 22/22/22 25/25/25 24/24/24
f 28/28/28 27/27/27 26/26/26
f 28/28/28 29/29/29 27/27/27
f 32/32/32 31/31/31 30/30/30
f 32/32/32 33/33/33 31/31/31
f 36/36/36 35/35/35 34/34/34
f 36/36/36 37/37/37 35/35/35
f 40/40/40 39/39/39 38/38/38
f 40/40/40 41/41/41 39/39/39
f 44/44/44 43/43/43 42/42/42
f 44/44/44 45/45/45 43/43/43
f 48/48/48 47/47/47 46/46/46
f 50/50/50 47/47/47 49/49/49
f 48/48/48 49/49/49 47/47/47
f 52/52/52 25/25/25 51/51/51
f 25/25/25 52/52/52 24/24/24
f 17/17/17 52/52/52 51/51/51
f 55/55/55 54/54/54 53/53/53
f 56/56/56 54/54/54 55/55/55
f 57/57/57 53/53/53 54/54/54
f 24/24/24 52/52/52 58/58/58
f 59/59/59 58/58/58 52/52/52
f 61/61/61 60/60/60 12/12/12
f 63/63/63 61/61/61 62/62/62
f 60/60/60 61/61/61 63/63/63
f 64/64/64 58/58/58 59/59/59
f 64/64/64 65/65/65 58/58/58
f 65/65/65 66/66/66 58/58/58
f 65/65/65 67/67/67 66/66/66
f 67/67/67 68/68/68 66/66/66
f 67/67/67 69/69/69 68/68/68
f 72/72/72 71/71/71 70/70/70
f 74/74/74 73/73/73 71/71/71
f 77/77/77 76/76/76 75/75/75
f 79/79/79 78/78/78 76/76/76
f 82/82/82 81/81/81 80/80/80
f 84/84/84 83/83/83 81/81/81
f 87/87/87 86/86/86 85/85/85
f 87/87/87 88/88/88 86/86/86
