g pb_Mesh197702
v -19 2 -5.584955E-05
v -19 4 -5.584955E-05
v -4.000078 2 26.99999
v -4.000078 4 26.99999
v -4.000078 2 26.99999
v -4.000078 4 26.99999
v 27.99992 2 27.00008
v 27.99992 4 27.00008
v 27.99992 2 27.00008
v 27.99992 4 27.00008
v 42 2 0.0001220703
v 42 4 0.0001220703
v 42 2 0.0001220703
v 42 4 0.0001220703
v 28.00008 2 -26.99992
v 28.00008 4 -26.99992
v 28.00008 2 -26.99992
v 28.00008 4 -26.99992
v -3.999922 2 -27.00001
v -3.999922 4 -27.00001
v -3.999922 2 -27.00001
v -3.999922 4 -27.00001
v -19 2 -5.584955E-05
v -19 4 -5.584955E-05
v -1 4 -2.920628E-06
v -4.000078 4 26.99999
v -19 4 -5.584955E-05
v 4.999965 4 12.00002
v 27.99992 4 27.00008
v 18.99997 4 12.00006
v 42 4 0.0001220703
v 25 4 7.247925E-05
v 28.00008 4 -26.99992
v 19.00003 4 -11.99994
v -3.999922 4 -27.00001
v 5.000035 4 -11.99998
vt -9.227219 2
vt -9.227219 4
vt 21.65967 2
vt 21.65967 4
vt -3.999999 2
vt -3.999999 4
vt 28 2
vt 28 4
vt -11.08049 2
vt -11.08049 4
vt 19.33332 2
vt 19.33332 4
vt -19.33332 2
vt -19.33332 4
vt 11.08049 2
vt 11.08049 4
vt -28 2
vt -28 4
vt 4 2
vt 4 4
vt -21.65967 2
vt -21.65967 4
vt 9.227218 2
vt 9.227218 4
vt 1 -2.920628E-06
vt 4.000078 26.99999
vt 19 -5.584955E-05
vt -4.999965 12.00002
vt -27.99992 27.00008
vt -18.99997 12.00006
vt -42 0.0001220703
vt -25 7.247925E-05
vt -28.00008 -26.99992
vt -19.00003 -11.99994
vt 3.999922 -27.00001
vt -5.000035 -11.99998
vn -0.8741587 0 0.4856405
vn -0.8741587 0 0.4856405
vn -0.8741587 0 0.4856405
vn -0.8741587 0 0.4856405
vn -2.920628E-06 0 1
vn -2.920628E-06 0 1
vn -2.920628E-06 0 1
vn -2.920628E-06 0 1
vn 0.8877532 0 0.4603197
vn 0.8877532 0 0.4603197
vn 0.8877532 0 0.4603197
vn 0.8877532 0 0.4603197
vn 0.8877559 0 -0.4603146
vn 0.8877559 0 -0.4603146
vn 0.8877559 0 -0.4603146
vn 0.8877559 0 -0.4603146
vn 2.920628E-06 0 -1
vn 2.920628E-06 0 -1
vn 2.920628E-06 0 -1
vn 2.920628E-06 0 -1
vn -0.8741559 0 -0.4856455
vn -0.8741559 0 -0.4856455
vn -0.8741559 0 -0.4856455
vn -0.8741559 0 -0.4856455
vn 0 1 0
vn 0 1 0
vn 0 1 0
vn 0 1 0
vn 0 1 0
vn 0 1 0
vn 0 1 0
vn 0 1 0
vn 0 1 0
vn 0 1 0
vn 0 1 0
vn 0 1 0
g pb_Mesh197702_0
g pb_Mesh197702_1
f 3/3/3 2/2/2 1/1/1
f 3/3/3 4/4/4 2/2/2
f 7/7/7 6/6/6 5/5/5
f 7/7/7 8/8/8 6/6/6
f 11/11/11 10/10/10 9/9/9
f 11/11/11 12/12/12 10/10/10
f 15/15/15 14/14/14 13/13/13
f 15/15/15 16/16/16 14/14/14
f 19/19/19 18/18/18 17/17/17
f 19/19/19 20/20/20 18/18/18
f 23/23/23 22/22/22 21/21/21
f 23/23/23 24/24/24 22/22/22
f 27/27/27 26/26/26 25/25/25
f 26/26/26 28/28/28 25/25/25
f 26/26/26 29/29/29 28/28/28
f 29/29/29 30/30/30 28/28/28
f 29/29/29 31/31/31 30/30/30
f 31/31/31 32/32/32 30/30/30
f 31/31/31 33/33/33 32/32/32
f 33/33/33 34/34/34 32/32/32
f 33/33/33 35/35/35 34/34/34
f 35/35/35 36/36/36 34/34/34
f 35/35/35 27/27/27 36/36/36
f 27/27/27 25/25/25 36/36/36
