g pb_Mesh298112
v 3 8 3
v -11 8 3
v 3 14 3
v -11 14 3
v -11 8 3
v -11 8 -10
v -11 14 3
v -11 14 -10
v -11 8 -10
v 3 8 -10
v -11 14 -10
v 3 14 -10
v 3 14 -10
v 3 8 -10
v 3 8 -8
v 3 8 -2.25
v 3 8 0
v 3 8 3
v 3 14 3
v 3 14 3
v -11 14 3
v 3 14 -10
v -11 14 -10
v 3 8 -8
v 3 8 -10
v -11 8 -10
v 3 8 -2.25
v -11 8 3
v 3 8 0
v 3 8 3
v 3 4 -8
v 3 8 -2.25
v 3 8 -8
v 3 4 -2.25
vt 3 8
vt -11 8
vt 3 14
vt -11 14
vt 3 8
vt -10 8
vt 3 14
vt -10 14
vt 11 8
vt -3 8
vt 11 14
vt -3 14
vt 10 14
vt 10 8
vt 8 8
vt 2.25 8
vt 0 8
vt -3 8
vt -3 14
vt -3 3
vt 11 3
vt -3 -10
vt 11 -10
vt 3 -8
vt 3 -10
vt -11 -10
vt 3 -2.25
vt -11 3
vt 3 0
vt 3 3
vt 8 4
vt 2.25 8
vt 8 8
vt 2.25 4
vn 0 0 1
vn 0 0 1
vn 0 0 1
vn 0 0 1
vn -1 0 0
vn -1 0 0
vn -1 0 0
vn -1 0 0
vn 0 0 -1
vn 0 0 -1
vn 0 0 -1
vn 0 0 -1
vn 1 0 0
vn 1 0 0
vn 1 0 0
vn 1 0 0
vn 1 0 0
vn 1 0 0
vn 1 0 0
vn 0 1 0
vn 0 1 0
vn 0 1 0
vn 0 1 0
vn 0 -1 0
vn 0 -1 0
vn 0 -1 0
vn 0 -1 0
vn 0 -1 0
vn 0 -1 0
vn 0 -1 0
vn 1 0 0
vn 1 0 0
vn 1 0 0
vn 1 0 0
g pb_Mesh298112_0
g pb_Mesh298112_1
f 3/3/3 2/2/2 1/1/1
f 3/3/3 4/4/4 2/2/2
f 7/7/7 6/6/6 5/5/5
f 7/7/7 8/8/8 6/6/6
f 11/11/11 10/10/10 9/9/9
f 11/11/11 12/12/12 10/10/10
f 15/15/15 14/14/14 13/13/13
f 16/16/16 15/15/15 13/13/13
f 19/19/19 18/18/18 17/17/17
f 19/19/19 17/17/17 16/16/16
f 13/13/13 19/19/19 16/16/16
f 22/22/22 21/21/21 20/20/20
f 22/22/22 23/23/23 21/21/21
f 26/26/26 25/25/25 24/24/24
f 26/26/26 24/24/24 27/27/27
f 28/28/28 26/26/26 27/27/27
f 29/29/29 28/28/28 27/27/27
f 28/28/28 29/29/29 30/30/30
f 33/33/33 32/32/32 31/31/31
f 32/32/32 34/34/34 31/31/31
