g pb_Mesh55138
v -0.0001136065 -1 41
v -8.000113 -1 40.99998
v -0.0001136065 0 41
v -8.000113 0 40.99998
v -8.000113 -1 40.99998
v -8.000004 -1 0.9999774
v -8.000113 0 40.99998
v -8.000004 0 0.9999774
v -8.000004 -1 0.9999774
v -3.933907E-06 -1 0.9999993
v -8.000004 0 0.9999774
v -3.933907E-06 0 0.9999993
v -3.933907E-06 -1 0.9999993
v -0.0001136065 -1 41
v -3.933907E-06 0 0.9999993
v -0.0001136065 0 41
v -0.0001136065 0 41
v -8.000113 0 40.99998
v -3.933907E-06 0 0.9999993
v -8.000004 0 0.9999774
v -3.933907E-06 -1 0.9999993
v -8.000004 -1 0.9999774
v -0.0001136065 -1 41
v -8.000113 -1 40.99998
vt -1.585484E-05 -1
vt -8.000016 -1
vt -1.585484E-05 0
vt -8.000016 0
vt 41 -1
vt 0.9999993 -1
vt 41 0
vt 0.9999993 0
vt 8.000001 -1
vt 1.192095E-06 -1
vt 8.000001 0
vt 1.192095E-06 0
vt -0.9999993 -1
vt -41 -1
vt -0.9999993 0
vt -41 0
vt 0.0001136065 41
vt 8.000113 40.99998
vt 3.933907E-06 0.9999993
vt 8.000004 0.9999774
vt -3.933907E-06 0.9999993
vt -8.000004 0.9999774
vt -0.0001136065 41
vt -8.000113 40.99998
vn -2.384186E-06 0 1
vn -2.384186E-06 0 1
vn -2.384186E-06 0 1
vn -2.384186E-06 0 1
vn -1 0 -2.741813E-06
vn -1 0 -2.741813E-06
vn -1 0 -2.741813E-06
vn -1 0 -2.741813E-06
vn 2.741814E-06 0 -1
vn 2.741814E-06 0 -1
vn 2.741814E-06 0 -1
vn 2.741814E-06 0 -1
vn 1 0 2.741814E-06
vn 1 0 2.741814E-06
vn 1 0 2.741814E-06
vn 1 0 2.741814E-06
vn 0 1 0
vn 0 1 0
vn 0 1 0
vn 0 1 0
vn 0 -1 0
vn 0 -1 0
vn 0 -1 0
vn 0 -1 0
g pb_Mesh55138_0
f 3/3/3 2/2/2 1/1/1
f 3/3/3 4/4/4 2/2/2
f 7/7/7 6/6/6 5/5/5
f 7/7/7 8/8/8 6/6/6
f 11/11/11 10/10/10 9/9/9
f 11/11/11 12/12/12 10/10/10
f 15/15/15 14/14/14 13/13/13
f 15/15/15 16/16/16 14/14/14
f 19/19/19 18/18/18 17/17/17
f 19/19/19 20/20/20 18/18/18
f 23/23/23 22/22/22 21/21/21
f 23/23/23 24/24/24 22/22/22
