g pb_Mesh165464
v 3.5 -4 0
v 4 -4 2.5
v -2.5 -4 0
v -2.5 -2.5 2.5
v 4 -4 2.5
v 4 -4 5
v -2.5 -2.5 2.5
v -2 -2.5 5
v 4 -4 5
v 4 -4 7.5
v -2 -2.5 5
v -1.5 -2.5 7.5
v 4 -4 7.5
v 4 -4 10
v -1.5 -2.5 7.5
v -1 -2.5 10
v -2.5 -4 0
v -2.5 -2.5 2.5
v -5 -4 0
v -5 -2.5 2.5
v -2.5 -2.5 2.5
v -2 -2.5 5
v -5 -2.5 2.5
v -5 -1.5 5
v -2 -2.5 5
v -1.5 -2.5 7.5
v -5 -1.5 5
v -5 -1.5 7.5
v -1.5 -2.5 7.5
v -1 -2.5 10
v -5 -1.5 7.5
v -5 -1.5 10
v -7.5 -4 0
v -7.5 -2.5 2.5
v -5 -2.5 2.5
v -5 -1.5 5
v -7.5 -2.5 2.5
v -7.5 -1 5
v -5 -1.5 5
v -5 -1.5 7.5
v -7.5 -1 5
v -7.5 -1 7.5
v -5 -1.5 10
v -7.5 -1 7.5
v -7.5 -0.5 10
v -7.5 -2.5 2.5
v -10 -4 0
v -10 -2 2.5
v -7.5 -2.5 2.5
v -7.5 -1 5
v -10 -2 2.5
v -10 -1 5
v -7.5 -1 5
v -7.5 -1 7.5
v -10 -1 5
v -10 0.5 7.5
v -7.5 -1 7.5
v -7.5 -0.5 10
v -10 0.5 7.5
v -10 0.5 10
vt -3.5 0
vt -4 2.5
vt 2.5 0
vt 2.5 2.5
vt -4.797003 2.5
vt -4.797003 5
vt 1.873829 2.5
vt 1.386634 5
vt -4.850712 5
vt -4.850712 7.5
vt 1.333946 5
vt 0.8488747 7.5
vt -4.911525 7.5
vt -4.911525 10
vt 0.7893522 7.5
vt 0.3069703 10
vt 2.5 -2.057983
vt 2.5 0.857493
vt 5 -2.057983
vt 5 0.857493
vt 2.5 2.5
vt 2 5
vt 5 2.5
vt 5 5
vt 1.106797 4.800409
vt 0.6324555 7.305404
vt 4.269074 4.800409
vt 4.269074 7.295424
vt 0.755483 7.334221
vt 0.2747211 9.837992
vt 4.395538 7.334221
vt 4.395538 9.830456
vt 7.5 -2.057983
vt 7.5 0.857493
vt 5 1.392715
vt 5 4.085298
vt 7.5 1.392715
vt 7.5 4.270993
vt 4.608729 5
vt 4.608729 7.5
vt 7.158239 5
vt 7.158239 7.5
vt 4.608729 10
vt 7.158239 7.5
vt 7.256297 10
vt 7.5 0.857493
vt 10 -2.057983
vt 10 1.114741
vt 6.864065 0.1657486
vt 7.158239 3.066345
vt 9.413574 0.1657486
vt 9.609691 2.817723
vt 7.5 5
vt 7.5 7.5
vt 10 5
vt 10 7.5
vt 5.916701 6.594895
vt 6.173949 9.131393
vt 8.832177 6.594895
vt 8.832177 9.058922
vn 0 1 0
vn 0.09705943 0.9205909 -0.2523545
vn 0.09705943 0.9205909 -0.2523545
vn 0.1941189 0.8411817 -0.504709
vn 0.2248595 0.9743912 0
vn 0.2335552 0.9716972 -0.02422508
vn 0.2335552 0.9716972 -0.02422508
vn 0.2422508 0.9690031 -0.04845016
vn 0.2425356 0.9701425 0
vn 0.2526447 0.9667866 -0.02627539
vn 0.2526447 0.9667866 -0.02627539
vn 0.2627538 0.9634308 -0.05255077
vn 0.2631174 0.9647638 0
vn 0.274996 0.9605061 -0.02868745
vn 0.274996 0.9605061 -0.02868745
vn 0.2868745 0.9562485 -0.05737491
vn 0 0.8574929 -0.5144957
vn 0 0.8574929 -0.5144957
vn 0 0.8574929 -0.5144957
vn 0 0.8574929 -0.5144957
vn 0 1 0
vn 0.1478281 0.9434843 -0.1773937
vn 0.1478281 0.9434843 -0.1773937
vn 0.2956562 0.8869686 -0.3547874
vn 0.3155972 0.9467916 -0.06311944
vn 0.2951592 0.9541578 -0.03155972
vn 0.2951592 0.9541578 -0.03155972
vn 0.2747211 0.961524 0
vn 0.2743074 0.9600759 -0.05486148
vn 0.2584215 0.9651092 -0.02743074
vn 0.2584215 0.9651092 -0.02743074
vn 0.2425356 0.9701425 0
vn 0 0.8574929 -0.5144957
vn 0 0.8574929 -0.5144957
vn 0 0.9284767 -0.3713907
vn 0.08451543 0.8868155 -0.4392416
vn 0.08451543 0.8868155 -0.4392416
vn 0.1690309 0.8451543 -0.5070925
vn 0.1961161 0.9805807 0
vn 0.1961161 0.9805807 0
vn 0.1961161 0.9805807 0
vn 0.1961161 0.9805807 0
vn 0.2806323 0.9467258 -0.09128709
vn 0.2806323 0.9467258 -0.09128709
vn 0.3651484 0.9128709 -0.1825742
vn 0.07715168 0.8145049 -0.5658545
vn 0.07715168 0.8145049 -0.5658545
vn 0.1543034 0.7715168 -0.6172134
vn 0.1690309 0.8451543 -0.5070925
vn 0.08451543 0.8868155 -0.4392416
vn 0.08451543 0.8868155 -0.4392416
vn 0 0.9284767 -0.3713907
vn 0 1 0
vn 0.2287479 0.8812464 -0.2287479
vn 0.2287479 0.8812464 -0.2287479
vn 0.4574957 0.7624929 -0.4574957
vn 0.5070925 0.8451543 -0.1690309
vn 0.4392416 0.8868155 -0.08451543
vn 0.4392416 0.8868155 -0.08451543
vn 0.3713907 0.9284767 0
g pb_Mesh165464_0
f 3/3/3 2/2/2 1/1/1
f 3/3/3 4/4/4 2/2/2
f 7/7/7 6/6/6 5/5/5
f 7/7/7 8/8/8 6/6/6
f 11/11/11 10/10/10 9/9/9
f 11/11/11 12/12/12 10/10/10
f 15/15/15 14/14/14 13/13/13
f 15/15/15 16/16/16 14/14/14
f 19/19/19 18/18/18 17/17/17
f 19/19/19 20/20/20 18/18/18
f 23/23/23 22/22/22 21/21/21
f 23/23/23 24/24/24 22/22/22
f 27/27/27 26/26/26 25/25/25
f 27/27/27 28/28/28 26/26/26
f 31/31/31 30/30/30 29/29/29
f 31/31/31 32/32/32 30/30/30
f 33/33/33 20/20/20 19/19/19
f 33/33/33 34/34/34 20/20/20
f 37/37/37 36/36/36 35/35/35
f 37/37/37 38/38/38 36/36/36
f 41/41/41 40/40/40 39/39/39
f 41/41/41 42/42/42 40/40/40
f 44/44/44 43/43/43 40/40/40
f 44/44/44 45/45/45 43/43/43
f 47/47/47 46/46/46 33/33/33
f 47/47/47 48/48/48 46/46/46
f 51/51/51 50/50/50 49/49/49
f 51/51/51 52/52/52 50/50/50
f 55/55/55 54/54/54 53/53/53
f 55/55/55 56/56/56 54/54/54
f 59/59/59 58/58/58 57/57/57
f 59/59/59 60/60/60 58/58/58
