g pb_Mesh199792
v -9 0 0
v -9 0 -4
v -9 13 0
v -9 13 -4
v -9 0 -4
v 6 0 -4
v -9 13 -4
v 6 13 -4
v 37.99718 -0.8986211 -3.949931
v 37.99719 -0.8986211 0.0500663
v 38 13 -4
v 38 13 0
v 6 13 0
v -9 13 0
v 6 13 -4
v -9 13 -4
v 16 0 0
v 6 0 -4
v 6 0 0
v 16 0 -4
v 22 0 0
v 22 0 -4
v 16 0 0
v 6 0 0
v 16 13 0
v 6 13 0
v 22 0 0
v 22 13 0
v 16 13 -4
v 22 13 -4
v 22 13 0
v 16 13 0
v 6 0 -8
v 16 0 -8
v 22 0 -4
v 22 0 0
v 37.99718 -0.8986211 -3.949931
v 37.99719 -0.8986211 0.0500663
v 22 13 -4
v 22 0 -4
v 38 13 -4
v 37.99718 -0.8986211 -3.949931
v 22 0 0
v 22 13 0
v 37.99719 -0.8986211 0.0500663
v 38 13 0
v 38 13 0
v 38 13 -4
v 16 6.5 -4
v 16 0 -4
v 22 0 -4
v 16 13 -4
v 12 13 -4
v 12 9 -8
v 6 6.5 -8
v 6 0 -8
v 16 0 -8
v 16 9 -8
v 16 9 -6
v 16 9 -8
v 16 0 -8
v 16 0 -4
v 16 6.5 -4
v 6 6.5 -8
v 6 12.5 -8
v 6 13 -7.5
v 6 13 -4
v 6 0 -4
v 6 0 -8
v 6.5 13 -8
v 6 12.5 -8
v 12 13 -8
v 6 12.5 -8
v 6.5 13 -8
v 6 13 -7.5
v 6 13 -7.5
v 6.5 13 -8
v 12 13 -6
v 12 13 -8
vt 0 0
vt -4 0
vt 0 13
vt -4 13
vt 9 0
vt -6 0
vt 9 13
vt -6 13
vt 3.949859 -0.8909243
vt -0.05013878 -0.8909243
vt 3.999928 13.0077
vt -7.24793E-05 13.0077
vt -6 0
vt 9 0
vt -6 -4
vt 9 -4
vt 16 0
vt 6 -4
vt 6 0
vt 16 -4
vt 22 0
vt 22 -4
vt 16 0
vt 6 0
vt 16 13
vt 6 13
vt 22 0
vt 22 13
vt -16 -4
vt -22 -4
vt -22 0
vt -16 0
vt 6 -8
vt 16 -8
vt 21.96537 -4
vt 21.96537 0
vt 37.98778 -3.949931
vt 37.98779 0.0500663
vt -22 13
vt -22 0
vt -38 13
vt -37.99718 -0.8986211
vt 21.99989 0
vt 21.99989 13
vt 37.99716 -0.8986211
vt 37.99981 13
vt -38 0
vt -38 -4
vt -16 6.5
vt -16 0
vt -22 0
vt -16 13
vt -12 -4
vt -12 9
vt -6 6.5
vt -6 0
vt -16 0
vt -16 9
vt 6 9
vt 8 9
vt 8 0
vt 4 0
vt 4 6.5
vt -8 6.5
vt -8 12.5
vt -7.5 13
vt -4 13
vt -4 0
vt -8 0
vt -6.5 13
vt -6 12.5
vt -12 13
vt -9.899495 9.38971
vt -10.25305 10.00208
vt -9.545941 10.00208
vt -6 -7.5
vt -6.5 -8
vt -12 -6
vt -12 -8
vn -1 0 0
vn -1 0 0
vn -1 0 0
vn -1 0 0
vn 0 0 -1
vn 0 0 -1
vn 0 0 -1
vn 0 0 -1
vn 1 -0.0002025627 -1.90735E-06
vn 1 -0.0002022848 -9.53675E-07
vn 1 -0.0002022848 -9.53675E-07
vn 1 -0.0002020069 0
vn 0 1 0
vn 0 1 0
vn 0 1 0
vn 0 1 0
vn 0 -1 0
vn 0 -1 0
vn 0 -1 0
vn 0 -1 0
vn 0 -1 0
vn 0 -1 0
vn 0 0 1
vn 0 0 1
vn 0 0 1
vn 0 0 1
vn 0 0 1
vn 0 0 1
vn 0 1 0
vn 0 1 0
vn 0 1 0
vn 0 1 0
vn 0 -1 0
vn 0 -1 0
vn -0.05608529 -0.998426 0
vn -0.05608527 -0.998426 5.348711E-08
vn -0.05608527 -0.998426 5.348711E-08
vn -0.05608526 -0.998426 1.069742E-07
vn 0 0 -1
vn 0.001463714 -0.001801494 -0.9999946
vn 0.001463714 -0.001801494 -0.9999946
vn 0.002927427 -0.003602987 -0.9999892
vn -0.003129678 0 0.9999951
vn -0.001564839 0.001801113 0.9999943
vn -0.001564839 0.001801113 0.9999943
vn 0 0.003602226 0.9999935
vn 0 1 0
vn 0 1 0
vn 0 0 -1
vn 0 0 -1
vn 0 0 -1
vn 0 0 -1
vn 0 1 0
vn 0 0 -1
vn 0 0 -1
vn 0 0 -1
vn 0 0 -1
vn 0 0 -1
vn 1 0 0
vn 1 0 0
vn 1 0 0
vn 1 0 0
vn 1 0 0
vn -1 0 0
vn -1 0 0
vn -1 0 0
vn -1 0 0
vn -1 0 0
vn -1 0 0
vn 0 0 -1
vn 0 0 -1
vn 0 0 -1
vn -0.5773503 0.5773503 -0.5773503
vn -0.5773503 0.5773503 -0.5773503
vn -0.5773503 0.5773503 -0.5773503
vn 0 1 0
vn 0 1 0
vn 0 1 0
vn 0 1 0
g pb_Mesh199792_0
g pb_Mesh199792_1
f 3/3/3 2/2/2 1/1/1
f 3/3/3 4/4/4 2/2/2
f 7/7/7 6/6/6 5/5/5
f 7/7/7 8/8/8 6/6/6
f 11/11/11 10/10/10 9/9/9
f 11/11/11 12/12/12 10/10/10
f 15/15/15 14/14/14 13/13/13
f 15/15/15 16/16/16 14/14/14
f 19/19/19 18/18/18 17/17/17
f 18/18/18 20/20/20 17/17/17
f 17/17/17 20/20/20 21/21/21
f 20/20/20 22/22/22 21/21/21
f 25/25/25 24/24/24 23/23/23
f 25/25/25 26/26/26 24/24/24
f 28/28/28 23/23/23 27/27/27
f 28/28/28 25/25/25 23/23/23
f 31/31/31 30/30/30 29/29/29
f 31/31/31 29/29/29 32/32/32
f 33/33/33 20/20/20 18/18/18
f 33/33/33 34/34/34 20/20/20
f 37/37/37 36/36/36 35/35/35
f 37/37/37 38/38/38 36/36/36
f 41/41/41 40/40/40 39/39/39
f 41/41/41 42/42/42 40/40/40
f 45/45/45 44/44/44 43/43/43
f 45/45/45 46/46/46 44/44/44
f 47/47/47 30/30/30 31/31/31
f 47/47/47 48/48/48 30/30/30
f 51/51/51 50/50/50 49/49/49
f 51/51/51 49/49/49 39/39/39
f 49/49/49 52/52/52 39/39/39
f 32/32/32 29/29/29 53/53/53
f 13/13/13 53/53/53 15/15/15
f 32/32/32 53/53/53 13/13/13
f 56/56/56 55/55/55 54/54/54
f 56/56/56 54/54/54 57/57/57
f 58/58/58 57/57/57 54/54/54
f 61/61/61 60/60/60 59/59/59
f 61/61/61 59/59/59 62/62/62
f 63/63/63 62/62/62 59/59/59
f 66/66/66 65/65/65 64/64/64
f 64/64/64 67/67/67 66/66/66
f 67/67/67 64/64/64 68/68/68
f 64/64/64 69/69/69 68/68/68
f 55/55/55 71/71/71 70/70/70
f 55/55/55 70/70/70 54/54/54
f 54/54/54 70/70/70 72/72/72
f 75/75/75 74/74/74 73/73/73
f 15/15/15 77/77/77 76/76/76
f 53/53/53 77/77/77 15/15/15
f 53/53/53 78/78/78 77/77/77
f 78/78/78 79/79/79 77/77/77
