g pb_Mesh325832
v -1 -21 1.781136E-06
v -2.000001 -20.99999 1.661926E-06
v -2 0 0
v -1 0 0
v -3.000001 -21 1.542717E-06
v -3 0 0
v -3 2 0
v -2 2 0
v -1 2 0
v -3.000001 -21 1.542717E-06
v -3.000001 -21 -0.9999985
v -3 0 -1
v -3 0 0
v -3.000001 -21 -1.999998
v -3 0 -2
v -3 2 -2
v -3 2 -1
v -3 2 0
v -3 0 -4
v -2.000001 -20.99999 -3.999998
v -2 0 -4
v -3.000001 -21 -3.999999
v -2 0 -3
v -1.000001 -21 -2.999998
v -1 0 -3
v -2.000001 -20.99999 -2.999998
v -2 2 -2
v -1 0 -2
v -1 2 -2
v -2 0 -2
v -3 2 -2
v -3 0 -2
v -1 0 -2
v -1.000001 -21 -0.9999982
v -1 0 -1
v -1.000001 -21 -1.999998
v 0 0 -1
v -4.830945E-07 -21 1.900345E-06
v 0 0 0
v -6.619084E-07 -21 -0.9999981
v -1 2 -1
v -1 0 0
v -1 2 0
v -1 2 -2
v -2 5.000099 -1
v -1 5.000099 -1
v -1 5.000099 0
v -2 5.000099 0
v -3 10 -1
v -2 10 -1
v -2 10 0
v -3 10 0
v -3 7 -2
v -2 7 -2
v -2 7 -1
v -3 7 -1
v -2 2 -2
v -1 2 -2
v -1 2 -1
v -2 2 -1
v -1.000001 -21 -0.9999982
v -2.000001 -20.99999 -1.999998
v -2 -20.99999 -0.9999983
v -1.000001 -21 -1.999998
v -2 -20.99999 -0.9999983
v -3.000001 -21 -1.999998
v -3.000001 -21 -0.9999985
v -2.000001 -20.99999 -1.999998
v -2.000001 -20.99999 1.661926E-06
v -3.000001 -21 1.542717E-06
v -1 -21 1.781136E-06
v -2.000001 -20.99999 1.661926E-06
v -3 5.000099 -2
v -2 5.000099 -2
v -2 2 -2
v -2 2 -1
v -2 5.000099 -2
v -2 5.000099 -1
v -3 5.000099 -1
v -3 5.000099 -2
v -1 5.000099 0
v -2 5.000099 0
v -3 5.000099 0
v -3 5.000099 0
v -2 2 -1
v -1 2 -1
v -2 5.000099 -1
v -1 5.000099 -1
v -1 5.000099 -1
v -1 5.000099 0
v -2 5.000099 0
v -2 7 -1
v -2 7 0
v -3 7 0
v -3 7 -1
v -2 7 0
v -3 7 0
v -3 7 -2
v -2 7 -2
v -2 7 -2
v -3 7 -2
v -3 7 -1
v -2 7 -1
v -3 10 -1
v -2 10 -1
v -2 10 -1
v -2 10 0
v -3 10 0
v -3 10 -1
v -2 10 0
v -3 10 0
v -4.830945E-07 -21 1.900345E-06
v 0 0 0
v -1 0 0
v -1 0 -1
v 0 0 0
v 0 0 -1
v -1 0 -1
v -1.000001 -21 -0.9999982
v 0 0 -1
v -6.619084E-07 -21 -0.9999981
v -1.000001 -21 -0.9999982
v -1 -21 1.781136E-06
v -6.619084E-07 -21 -0.9999981
v -4.830945E-07 -21 1.900345E-06
v -1.000001 -21 -2.999998
v -1 0 -3
v -1 0 -2
v -2 0 -2
v -1 0 -3
v -2 0 -3
v -3 0 -2
v -3 0 -3
v -2.000001 -20.99999 -2.999998
v -1.000001 -21 -2.999998
v -3 0 -3
v -3.000001 -21 -2.999999
v -3.000001 -21 -2.999999
v -2.000001 -20.99999 -2.999998
v -2.000001 -20.99999 -2.999998
v -2 0 -3
v -2.000001 -20.99999 -3.999998
v -2 0 -4
v -2 0 -4
v -3 0 -4
v -3 0 -4
v -3.000001 -21 -3.999999
v -3.000001 -21 -3.999999
v -2.000001 -20.99999 -3.999998
vt -1 -21
vt -2.000001 -20.99999
vt -2 -1.886822E-14
vt -1 -9.434108E-15
vt -3.000001 -21
vt -3 -2.627235E-14
vt -3 2
vt -2 2
vt -1 2
vt 1.542717E-06 -21
vt -0.9999985 -21
vt -1 -1.021794E-07
vt 0 -1.021794E-07
vt -1.999998 -21
vt -2 -1.021794E-07
vt -2 2
vt -1 2
vt 0 2
vt 3 3.178915E-07
vt 2.000001 -20.99999
vt 2 3.178915E-07
vt 3.000001 -21
vt 2 2.384186E-07
vt 1.000001 -21
vt 1 2.384186E-07
vt 2.000001 -20.99999
vt 2 2
vt 1 0
vt 1 2
vt 2 0
vt 3 2
vt 3 0
vt 2 -3.405979E-08
vt 0.9999982 -21
vt 1 -3.405979E-08
vt 1.999998 -21
vt 1 0
vt -1.900345E-06 -21
vt 0 0
vt 0.9999981 -21
vt 1 2
vt 0 0
vt 0 2
vt 2 2
vt 2 -1
vt 1 -1
vt 1 0
vt 2 0
vt 3 -1
vt 2 -1
vt 2 0
vt 3 0
vt 3 -2
vt 2 -2
vt 2 -1
vt 3 -1
vt 2 -2
vt 1 -2
vt 1 -1
vt 2 -1
vt -0.9998405 -0.9999982
vt -1.99984 -1.999998
vt -1.99984 -0.9999983
vt -0.9998406 -1.999998
vt -2.000041 -0.9999983
vt -3.000041 -1.999998
vt -3.000041 -0.9999985
vt -2.000041 -1.999998
vt -2.000041 1.661926E-06
vt -3.000041 1.542717E-06
vt -0.9998403 1.781174E-06
vt -1.99984 1.661965E-06
vt 3 5.000099
vt 2 5.000099
vt 2 2
vt 1 2
vt 2 5.000099
vt 1 5.000099
vt -1 5.000099
vt -2 5.000099
vt -1 5.000099
vt -2 5.000099
vt 0 5.000099
vt -3 5.000099
vt 2 2
vt 1 2
vt 2 5.000099
vt 1 5.000099
vt 1 5.000099
vt 0 5.000099
vt 0 5.000099
vt 1 7
vt 0 7
vt 0 7
vt -1 7
vt -2 7
vt -3 7
vt 3 7
vt 2 7
vt 2 7
vt -2 7
vt 3 7
vt 2 7
vt 3 10
vt 2 10
vt 1 10
vt 0 10
vt 0 10
vt -1 10
vt -2 10
vt -3 10
vt -4.830943E-07 -21
vt 0 0
vt 1 0
vt 1 -1
vt 0 0
vt 0 -1
vt 1 8.514949E-08
vt 1.000001 -21
vt 0 8.514949E-08
vt 6.619084E-07 -21
vt -1.000041 -0.9999982
vt -1.000041 1.781145E-06
vt -4.071623E-05 -0.9999981
vt -4.053742E-05 1.900355E-06
vt 2.999998 -21
vt 3 -3.973643E-08
vt 1 -2
vt 2 -2
vt 1 -3
vt 2 -3
vt 3 -2
vt 3 -3
vt -1.99984 -2.999998
vt -0.9998406 -2.999998
vt -3 -1.021794E-07
vt -2.999999 -21
vt -3.000041 -2.999999
vt -2.000041 -2.999998
vt 2.999999 -20.99999
vt 3 -6.811963E-08
vt 3.999999 -20.99999
vt 4 -6.811962E-08
vt 2 -4
vt 3 -4
vt -4 -1.021794E-07
vt -3.999999 -21
vt -3.000041 -3.999999
vt -2.000041 -3.999998
vn -5.960439E-08 8.197768E-08 1
vn -1.192088E-07 7.913938E-08 1
vn -5.960439E-08 8.197768E-08 1
vn 0 8.481599E-08 1
vn -1.192094E-07 7.346274E-08 1
vn -5.960472E-08 7.630106E-08 1
vn 0 0 1
vn 0 0 1
vn 0 0 1
vn -1 3.40598E-08 0
vn -1 3.40598E-08 0
vn -1 3.40598E-08 0
vn -1 3.40598E-08 0
vn -1 3.40598E-08 0
vn -1 3.40598E-08 0
vn -1 0 0
vn -1 0 0
vn -1 0 0
vn 1.192094E-07 -7.379625E-08 -1
vn 1.192094E-07 -7.379625E-08 -1
vn 0 -7.947288E-08 -1
vn 2.384187E-07 -6.811962E-08 -1
vn -3.03165E-13 -7.947287E-08 -1
vn -3.03165E-13 -7.947287E-08 -1
vn 0 -7.947285E-08 -1
vn -6.0633E-13 -7.947288E-08 -1
vn 0 0 -1
vn 0 0 -1
vn 0 0 -1
vn 0 0 -1
vn 0 0 -1
vn 0 0 -1
vn 1 -3.689811E-08 -5.960464E-08
vn 1 -3.689811E-08 -5.960464E-08
vn 1 -3.405979E-08 0
vn 1 -3.973644E-08 -1.192093E-07
vn 1 -2.726198E-08 -8.940697E-08
vn 1 -2.726198E-08 -8.940697E-08
vn 1 -2.30045E-08 0
vn 1 -3.151947E-08 -1.788139E-07
vn 1 0 0
vn 1 0 0
vn 1 0 0
vn 1 0 0
vn 0 1 0
vn 0 1 0
vn 0 1 0
vn 0 1 0
vn 0 1 0
vn 0 1 0
vn 0 1 0
vn 0 1 0
vn 0 1 0
vn 0 1 0
vn 0 1 0
vn 0 1 0
vn 0 1 0
vn 0 1 0
vn 0 1 0
vn 0 1 0
vn -7.629396E-06 -1 1.364242E-12
vn -7.629396E-06 -1 1.364242E-12
vn -7.629396E-06 -1 1.81899E-12
vn -7.629395E-06 -1 9.094948E-13
vn 1.907348E-06 -1 -2.273737E-13
vn 1.907348E-06 -1 -2.273737E-13
vn 1.907348E-06 -1 0
vn 1.907349E-06 -1 -4.547474E-13
vn 1.907348E-06 -1 2.273736E-13
vn 1.907349E-06 -1 0
vn -7.629395E-06 -1 4.336809E-19
vn -7.629393E-06 -1 -1.818989E-12
vn 0 0 -1
vn 0 0 -1
vn 1 0 0
vn 1 0 0
vn 1 0 0
vn 1 0 0
vn -1 0 0
vn -1 0 0
vn 0 0 1
vn 0 0 1
vn -1 0 0
vn 0 0 1
vn 0 0 -1
vn 0 0 -1
vn 0 0 -1
vn 0 0 -1
vn 1 0 0
vn 1 0 0
vn 1 0 0
vn 1 0 0
vn 1 0 0
vn -1 0 0
vn -1 0 0
vn 0 0 1
vn 0 0 1
vn 0 0 -1
vn 0 0 -1
vn 1 0 0
vn -1 0 0
vn 0 0 -1
vn 0 0 -1
vn 0 0 -1
vn 0 0 -1
vn 1 0 0
vn 1 0 0
vn -1 0 0
vn -1 0 0
vn 0 0 1
vn 0 0 1
vn -5.960472E-08 8.765431E-08 1
vn 0 9.049263E-08 1
vn 0 1 0
vn 0 1 0
vn 0 1 0
vn 0 1 0
vn 0 -8.514949E-08 -1
vn 5.960473E-08 -8.798781E-08 -1
vn 5.960473E-08 -8.798781E-08 -1
vn 1.192095E-07 -9.082613E-08 -1
vn 1.907349E-06 -1 -4.547474E-13
vn 1.907349E-06 -1 -3.979039E-13
vn 1.907349E-06 -1 -3.979039E-13
vn 1.907349E-06 -1 -3.410605E-13
vn 1 -3.973643E-08 0
vn 1 -3.973643E-08 0
vn 0 1 0
vn 0 1 0
vn 0 1 0
vn 0 1 0
vn 0 1 0
vn 0 1 0
vn -7.629395E-06 -1 0
vn -7.629395E-06 -1 0
vn -1 3.40598E-08 0
vn -1 3.405981E-08 0
vn 1.907349E-06 -1 0
vn 1.907349E-06 -1 0
vn 1 -3.405983E-08 -2.384186E-07
vn 1 -3.973645E-08 -1.192093E-07
vn 1 -3.973645E-08 -1.192093E-07
vn 1 -4.541307E-08 0
vn 0 1 0
vn 0 1 0
vn -1 3.973645E-08 1.192093E-07
vn -1 4.541309E-08 2.384186E-07
vn 1.907349E-06 -1 -4.547474E-13
vn 1.907349E-06 -1 -4.547474E-13
g pb_Mesh325832_0
f 3/3/3 2/2/2 1/1/1
f 3/3/3 1/1/1 4/4/4
f 6/6/6 5/5/5 2/2/2
f 6/6/6 2/2/2 3/3/3
f 7/7/7 6/6/6 3/3/3
f 7/7/7 3/3/3 8/8/8
f 8/8/8 3/3/3 4/4/4
f 8/8/8 4/4/4 9/9/9
f 12/12/12 11/11/11 10/10/10
f 12/12/12 10/10/10 13/13/13
f 15/15/15 14/14/14 11/11/11
f 15/15/15 11/11/11 12/12/12
f 16/16/16 15/15/15 12/12/12
f 16/16/16 12/12/12 17/17/17
f 17/17/17 12/12/12 13/13/13
f 17/17/17 13/13/13 18/18/18
f 21/21/21 20/20/20 19/19/19
f 20/20/20 22/22/22 19/19/19
f 25/25/25 24/24/24 23/23/23
f 24/24/24 26/26/26 23/23/23
f 29/29/29 28/28/28 27/27/27
f 28/28/28 30/30/30 27/27/27
f 27/27/27 30/30/30 31/31/31
f 30/30/30 32/32/32 31/31/31
f 35/35/35 34/34/34 33/33/33
f 34/34/34 36/36/36 33/33/33
f 39/39/39 38/38/38 37/37/37
f 38/38/38 40/40/40 37/37/37
f 43/43/43 42/42/42 41/41/41
f 42/42/42 35/35/35 41/41/41
f 41/41/41 35/35/35 44/44/44
f 35/35/35 33/33/33 44/44/44
f 47/47/47 46/46/46 45/45/45
f 47/47/47 45/45/45 48/48/48
f 51/51/51 50/50/50 49/49/49
f 51/51/51 49/49/49 52/52/52
f 55/55/55 54/54/54 53/53/53
f 55/55/55 53/53/53 56/56/56
f 59/59/59 58/58/58 57/57/57
f 59/59/59 57/57/57 60/60/60
f 63/63/63 62/62/62 61/61/61
f 62/62/62 64/64/64 61/61/61
f 67/67/67 66/66/66 65/65/65
f 66/66/66 68/68/68 65/65/65
f 70/70/70 67/67/67 69/69/69
f 67/67/67 65/65/65 69/69/69
f 72/72/72 63/63/63 71/71/71
f 63/63/63 61/61/61 71/71/71
f 73/73/73 27/27/27 31/31/31
f 73/73/73 74/74/74 27/27/27
f 77/77/77 76/76/76 75/75/75
f 77/77/77 78/78/78 76/76/76
f 79/79/79 16/16/16 17/17/17
f 79/79/79 80/80/80 16/16/16
f 81/81/81 8/8/8 9/9/9
f 81/81/81 82/82/82 8/8/8
f 83/83/83 17/17/17 18/18/18
f 83/83/83 79/79/79 17/17/17
f 82/82/82 7/7/7 8/8/8
f 82/82/82 84/84/84 7/7/7
f 87/87/87 86/86/86 85/85/85
f 87/87/87 88/88/88 86/86/86
f 89/89/89 43/43/43 41/41/41
f 89/89/89 90/90/90 43/43/43
f 92/92/92 91/91/91 78/78/78
f 92/92/92 93/93/93 91/91/91
f 94/94/94 79/79/79 83/83/83
f 94/94/94 95/95/95 79/79/79
f 96/96/96 84/84/84 82/82/82
f 96/96/96 97/97/97 84/84/84
f 98/98/98 74/74/74 73/73/73
f 98/98/98 99/99/99 74/74/74
f 100/100/100 78/78/78 77/77/77
f 100/100/100 92/92/92 78/78/78
f 95/95/95 80/80/80 79/79/79
f 95/95/95 101/101/101 80/80/80
f 104/104/104 103/103/103 102/102/102
f 104/104/104 105/105/105 103/103/103
f 106/106/106 93/93/93 92/92/92
f 106/106/106 107/107/107 93/93/93
f 108/108/108 95/95/95 94/94/94
f 108/108/108 109/109/109 95/95/95
f 110/110/110 97/97/97 96/96/96
f 110/110/110 111/111/111 97/97/97
f 112/112/112 4/4/4 1/1/1
f 112/112/112 113/113/113 4/4/4
f 116/116/116 115/115/115 114/114/114
f 116/116/116 117/117/117 115/115/115
f 120/120/120 119/119/119 118/118/118
f 120/120/120 121/121/121 119/119/119
f 124/124/124 123/123/123 122/122/122
f 124/124/124 125/125/125 123/123/123
f 126/126/126 33/33/33 36/36/36
f 126/126/126 127/127/127 33/33/33
f 130/130/130 129/129/129 128/128/128
f 130/130/130 131/131/131 129/129/129
f 131/131/131 132/132/132 129/129/129
f 131/131/131 133/133/133 132/132/132
f 134/134/134 64/64/64 62/62/62
f 134/134/134 135/135/135 64/64/64
f 136/136/136 14/14/14 15/15/15
f 136/136/136 137/137/137 14/14/14
f 138/138/138 68/68/68 66/66/66
f 138/138/138 139/139/139 68/68/68
f 142/142/142 141/141/141 140/140/140
f 142/142/142 143/143/143 141/141/141
f 144/144/144 133/133/133 131/131/131
f 144/144/144 145/145/145 133/133/133
f 146/146/146 137/137/137 136/136/136
f 146/146/146 147/147/147 137/137/137
f 148/148/148 139/139/139 138/138/138
f 148/148/148 149/149/149 139/139/139
g pb_Mesh325832_1
