g pb_Mesh260886
v 0 -1 3
v -2 -1 3
v 0 2 3
v -2 2 3
v -2 -1 1
v -2 -1 -4
v -2 2 1
v -2 2 -4
v -2 -1 -4
v 0 -1 -4
v -2 2 -4
v 0 2 -4
v 0 -1 -4
v 0 -1 1
v 0 2 -4
v 0 2 1
v 0 2 1
v -2 2 1
v 0 2 -4
v -2 2 -4
v 0 -1 -4
v -2 -1 -4
v 0 -1 1
v -2 -1 1
v 0 -1 3
v -2 -1 3
v 0 2 3
v 0 -1 3
v -2 -1 3
v -2 2 3
v -2 5.0001 1
v 0 5.0001 1
v -2 5.0001 3
v 0 5.0001 3
v -2 2 1
v 0 2 1
v -2 5.0001 1
v 0 5.0001 1
v -17 2 3
v -17 2 1
v -17 5 3
v -17 5 1
v 0 5.0001 1
v 0 5.0001 3
v 0 5.0001 3
v -2 5.0001 3
v -17 5 3
v -17 2 3
v -17 2 1
v -17 5 1
v -2 5.0001 1
v -2 5.0001 3
v -17 5 1
v -17 5 3
vt 0 -1
vt -2 -1
vt 0 2
vt -2 2
vt 1 -1
vt -4 -1
vt 1 2
vt -4 2
vt 2 -1
vt 0 -1
vt 2 2
vt 0 2
vt 4 -1
vt -1 -1
vt 4 2
vt -1 2
vt 0 1
vt 2 1
vt 0 -4
vt 2 -4
vt 0 -4
vt -2 -4
vt 0 1
vt -2 1
vt 0 3
vt -2 3
vt -3 2
vt -3 -1
vt 3 -1
vt 3 2
vt 2 1
vt 0 1
vt 2 3
vt 0 3
vt 2 2
vt 0 2
vt 2 5.0001
vt 0 5.0001
vt 3 2
vt 1 2
vt 3 5
vt 1 5
vt -1 5.0001
vt -3 5.0001
vt 0 5.0001
vt -2 5.0001
vt -17 5
vt -17 2
vt 17 2
vt 17 5
vt 1.999967 1
vt 1.999967 3
vt 16.99997 1
vt 16.99997 3
vn 0 0 1
vn 0 0 1
vn 0 0 1
vn 0 0 1
vn -1 0 0
vn -1 0 0
vn -1 0 0
vn -1 0 0
vn 0 0 -1
vn 0 0 -1
vn 0 0 -1
vn 0 0 -1
vn 1 0 0
vn 1 0 0
vn 1 0 0
vn 1 0 0
vn 0 1 0
vn 0 1 0
vn 0 1 0
vn 0 1 0
vn 0 -1 0
vn 0 -1 0
vn 0 -1 0
vn 0 -1 0
vn 0 -1 0
vn 0 -1 0
vn 1 0 0
vn 1 0 0
vn -1 0 0
vn -1 0 0
vn 0 1 0
vn 0 1 0
vn 0 1 0
vn 0 1 0
vn 0 0 -1
vn 0 0 -1
vn 0 0 -1
vn 0 0 -1
vn -1 0 0
vn -1 0 0
vn -1 0 0
vn -1 0 0
vn 1 0 0
vn 1 0 0
vn 0 0 1
vn 0 0 1
vn 0 0 1
vn 0 0 1
vn 0 0 -1
vn 0 0 -1
vn -6.67572E-06 1 0
vn -6.67572E-06 1 0
vn -6.67572E-06 1 0
vn -6.67572E-06 1 0
g pb_Mesh260886_0
f 3/3/3 2/2/2 1/1/1
f 3/3/3 4/4/4 2/2/2
f 7/7/7 6/6/6 5/5/5
f 7/7/7 8/8/8 6/6/6
f 11/11/11 10/10/10 9/9/9
f 11/11/11 12/12/12 10/10/10
f 15/15/15 14/14/14 13/13/13
f 15/15/15 16/16/16 14/14/14
f 19/19/19 18/18/18 17/17/17
f 19/19/19 20/20/20 18/18/18
f 23/23/23 22/22/22 21/21/21
f 23/23/23 24/24/24 22/22/22
f 25/25/25 24/24/24 23/23/23
f 25/25/25 26/26/26 24/24/24
f 27/27/27 14/14/14 16/16/16
f 27/27/27 28/28/28 14/14/14
f 29/29/29 7/7/7 5/5/5
f 29/29/29 30/30/30 7/7/7
f 33/33/33 32/32/32 31/31/31
f 33/33/33 34/34/34 32/32/32
f 37/37/37 36/36/36 35/35/35
f 37/37/37 38/38/38 36/36/36
f 41/41/41 40/40/40 39/39/39
f 41/41/41 42/42/42 40/40/40
f 43/43/43 27/27/27 16/16/16
f 43/43/43 44/44/44 27/27/27
f 45/45/45 4/4/4 3/3/3
f 45/45/45 46/46/46 4/4/4
f 47/47/47 4/4/4 46/46/46
f 47/47/47 48/48/48 4/4/4
f 49/49/49 37/37/37 35/35/35
f 49/49/49 50/50/50 37/37/37
f 53/53/53 52/52/52 51/51/51
f 53/53/53 54/54/54 52/52/52
g pb_Mesh260886_1
