g pb_Mesh46398
v -20 0 0
v -20 0 -12
v -20 12 -12
v -20 12 0
v -20 0 -24
v -20 12 -24
v 0 4 -24
v 0 0 -12
v 0 8 -12
v 0 0 -24
v 0 0 0
v 0 12 0
v 0 0 0
v -10 0 0
v -10 12 0
v 0 12 0
v -20 0 0
v -20 12 0
v -20 12 -24
v -20 0 -24
v -10 18 -24
v -10 0 -24
v 0 4 -24
v 0 0 -24
v -10 12 0
v -10 13 -12
v 0 12 0
v 0 8 -12
v -20 12 -12
v -10 12 0
v -20 12 0
v -10 13 -12
v -10 13 -12
v -10 18 -24
v 0 8 -12
v 0 4 -24
v -20 12 -24
v -10 13 -12
v -20 12 -12
v -10 18 -24
v -10 0 -12
v -20 0 -24
v -20 0 -12
v -10 0 -24
v 0 0 -12
v 0 0 -24
v -10 0 0
v -20 0 0
v 0 0 0
vt 0 0
vt -12 0
vt -12 12
vt 0 12
vt -24 0
vt -24 12
vt 24 4
vt 12 0
vt 12 8
vt 24 0
vt 0 0
vt 0 12
vt 0 0
vt -10 0
vt -10 12
vt 0 12
vt -20 0
vt -20 12
vt 20 12
vt 20 0
vt 10 18
vt 10 0
vt 0 4
vt 0 0
vt 10 -0.9965459
vt 10 -13.03814
vt 0 -0.9965459
vt 0 -12.62291
vt 20 -12
vt 10 0
vt 20 0
vt 10 -12
vt 14.75805 -13.74329
vt 16.99412 -26.54954
vt 3.577709 -13.74329
vt 1.788854 -23.73841
vt 18.7067 -24
vt 8.656823 -12
vt 18.7067 -12
vt 8.159305 -24
vt -10 -12
vt -20 -24
vt -20 -12
vt -10 -24
vt 0 -12
vt 0 -24
vt -10 0
vt -20 0
vt 0 0
vn -1 0 0
vn -1 0 0
vn -1 0 0
vn -1 0 0
vn -1 0 0
vn -1 0 0
vn 1 0 0
vn 1 0 0
vn 1 0 0
vn 1 0 0
vn 1 0 0
vn 1 0 0
vn 0 0 1
vn 0 0 1
vn 0 0 1
vn 0 0 1
vn 0 0 1
vn 0 0 1
vn 0 0 -1
vn 0 0 -1
vn 0 0 -1
vn 0 0 -1
vn 0 0 -1
vn 0 0 -1
vn 0 0.9965458 0.08304549
vn 0.2142857 0.9268444 -0.1013344
vn 0.2142857 0.9268444 -0.1013344
vn 0.4285714 0.8571429 -0.2857143
vn -0.0495817 0.9958169 0.04131808
vn -0.0495817 0.9958169 0.04131808
vn 0 1 0
vn -0.09916339 0.991634 0.08263616
vn 0.4190582 0.8381163 0.3492151
vn 0.6089679 0.7043716 0.07950309
vn 0.6089679 0.7043716 0.07950309
vn 0.7988777 0.5706269 -0.190209
vn -0.2920018 0.9012685 0.1682291
vn -0.2920018 0.9012685 0.1682291
vn -0.09950373 0.9950372 0
vn -0.4844998 0.8074998 0.3364582
vn 0 -1 0
vn 0 -1 0
vn 0 -1 0
vn 0 -1 0
vn 0 -1 0
vn 0 -1 0
vn 0 -1 0
vn 0 -1 0
vn 0 -1 0
g pb_Mesh46398_0
f 3/3/3 2/2/2 1/1/1
f 3/3/3 1/1/1 4/4/4
f 6/6/6 5/5/5 2/2/2
f 6/6/6 2/2/2 3/3/3
f 9/9/9 8/8/8 7/7/7
f 8/8/8 10/10/10 7/7/7
f 12/12/12 11/11/11 9/9/9
f 11/11/11 8/8/8 9/9/9
f 15/15/15 14/14/14 13/13/13
f 15/15/15 13/13/13 16/16/16
f 18/18/18 17/17/17 14/14/14
f 18/18/18 14/14/14 15/15/15
f 21/21/21 20/20/20 19/19/19
f 21/21/21 22/22/22 20/20/20
f 23/23/23 22/22/22 21/21/21
f 23/23/23 24/24/24 22/22/22
f 27/27/27 26/26/26 25/25/25
f 27/27/27 28/28/28 26/26/26
f 31/31/31 30/30/30 29/29/29
f 30/30/30 32/32/32 29/29/29
f 35/35/35 34/34/34 33/33/33
f 35/35/35 36/36/36 34/34/34
f 39/39/39 38/38/38 37/37/37
f 38/38/38 40/40/40 37/37/37
f 43/43/43 42/42/42 41/41/41
f 42/42/42 44/44/44 41/41/41
f 41/41/41 44/44/44 45/45/45
f 44/44/44 46/46/46 45/45/45
f 48/48/48 43/43/43 47/47/47
f 43/43/43 41/41/41 47/47/47
f 47/47/47 41/41/41 49/49/49
f 41/41/41 45/45/45 49/49/49
