g pb_Mesh-1320072
v 1.999999 4.5 4
v 0.9999995 4.5 0.5000066
v 0.9999993 4.5 4
v 2 4.5 0.5000067
v 0.9999995 0 0.5000085
v 2 0 0.5000086
v 1.999999 0 4
v 0.9999993 0 4
v 0.9999996 0 -1.000001
v 2 0 -1.000001
v 0.9999997 0 -3.000001
v 2 0 -6.000001
v -2 0 -3
v -1.788139E-07 0 -7.000003
v -5.364418E-07 0 -1.000001
v -4 0 -1
v -6.258492E-07 0 0.5000066
v -5.000046 0 0.5000051
v 7 0 -3.500001
v 6.999999 0 0.5000057
v 2 0 -6.000001
v 4 0 -3
v 7 0 -3.500001
v 2 0 -6.000001
v 7 0 -3.500001
v -6.258491E-07 4.5 0.5000046
v -8.34465E-07 4.5 3.999999
v 0.9999993 4.5 4
v 0.9999995 4.5 0.5000066
v 0.9999993 4.5 4
v 0.9999993 4.5 4
v 0.9999995 4.5 0.5000066
v 0.9999995 4.5 0.5000066
v -8.34465E-07 0 3.999999
v 0.9999995 0 0.5000085
v 0.9999995 0 0.5000085
v 0.9999993 0 4
v 0.9999993 0 4
v 0.9999995 0 0.5000085
v 0.9999993 0 4
v 0.9999996 0 -1.000001
v 0.9999996 0 -1.000001
v 0.9999995 0 0.5000085
v 0.9999995 0 0.5000085
v 0.9999996 0 -1.000001
v 0.9999995 0 0.5000085
v 0.9999997 0 -3.000001
v 0.9999997 0 -3.000001
v 0.9999996 0 -1.000001
v 0.9999996 0 -1.000001
v 0.9999997 0 -3.000001
v 0.9999996 0 -1.000001
v -6.258491E-07 4.5 0.5000046
v -8.34465E-07 3 3.999999
v -8.34465E-07 4.5 3.999999
v -6.258492E-07 3 0.5000066
v -8.34465E-07 0 3.999999
v -6.258492E-07 0 0.5000066
v 1.999999 3 4
v 2 3 0.5000086
v 2 4.5 0.5000067
v 1.999999 4.5 4
v 1.999999 0 4
v 2 0 0.5000086
v 0.9999993 3 4
v 1.999999 0 4
v 1.999999 3 4
v 0.9999993 0 4
v 0.9999993 4.5 4
v 1.999999 4.5 4
v 0.9999993 4.5 4
v 0.9999993 3 4
v 0.9999993 4.5 4
v 0.9999993 4.5 4
v 0.9999993 3 4
v 0.9999993 3 4
v 0.9999993 3 4
v 0.9999993 0 4
v 0.9999993 3 4
v 0.9999993 3 4
v 0.9999993 0 4
v 0.9999993 0 4
v -8.34465E-07 4.5 3.999999
v -8.34465E-07 3 3.999999
v -8.34465E-07 0 3.999999
v -3.000001 0 0.5000045
v -6.258492E-07 0 0.5000066
v -6.258492E-07 3 0.5000066
v -3.000001 0 0.5000045
v -4.999947 0 0.5000051
v -6.258492E-07 0 0.5000066
v 6.999999 0 0.5000057
v 2 3 0.5000086
v 2 0 0.5000086
v 5.999901 1 0.9999993
vt -1.999999 4
vt -0.9999995 0.5000066
vt -0.9999993 4
vt -2 0.5000067
vt -0.9999995 0.5000085
vt -2 0.5000086
vt -1.999999 4
vt -0.9999993 4
vt -0.9999996 -1.000001
vt -2 -1.000001
vt -0.9999997 -3.000001
vt -2 -6.000001
vt 2 -3
vt 1.788139E-07 -7.000003
vt 5.364418E-07 -1.000001
vt 4 -1
vt 6.258492E-07 0.5000066
vt 5.000046 0.5000051
vt -7 -3.500001
vt -6.999999 0.5000057
vt -2 -6.000001
vt -4 -3
vt -7 -3.500001
vt -2 -6.000001
vt -7 -3.500001
vt 6.258491E-07 0.5000046
vt 8.34465E-07 3.999999
vt -0.9999993 4
vt -0.9999995 0.5000066
vt -0.9999993 4
vt -0.9999993 4
vt -0.9999995 0.5000066
vt -0.9999995 0.5000066
vt 8.34465E-07 3.999999
vt -0.9999995 0.5000085
vt -0.9999995 0.5000085
vt -0.9999993 4
vt -0.9999993 4
vt -0.9999995 0.5000085
vt -0.9999993 4
vt -0.9999996 -1.000001
vt -0.9999996 -1.000001
vt -0.9999995 0.5000085
vt -0.9999995 0.5000085
vt -0.9999996 -1.000001
vt -0.9999995 0.5000085
vt -0.9999997 -3.000001
vt -0.9999997 -3.000001
vt -0.9999996 -1.000001
vt -0.9999996 -1.000001
vt -0.9999997 -3.000001
vt -0.9999996 -1.000001
vt 0.5000046 4.5
vt 3.999999 3
vt 3.999999 4.5
vt 0.5000066 3
vt 3.999999 -2.72439E-22
vt 0.5000066 -2.72439E-22
vt 3.999999 3
vt 0.5000085 3
vt 0.5000066 4.5
vt 3.999999 4.5
vt 3.999999 -2.393413E-14
vt 0.5000085 -2.393413E-14
vt 0.9999998 3
vt 2 -1.66209E-15
vt 2 3
vt 0.9999998 -1.66209E-15
vt 0.9999998 4.5
vt 2 4.5
vt 0.9999998 4.5
vt 0.9999998 3
vt 0.9999998 4.5
vt 0.9999998 4.5
vt 0.9999998 3
vt 0.9999998 3
vt 0.9999998 3
vt 0.9999998 -1.66209E-15
vt 0.9999998 3
vt 0.9999998 3
vt 0.9999998 -1.66209E-15
vt 0.9999998 -1.66209E-15
vt -3.576273E-07 4.5
vt -3.576273E-07 3
vt -3.576273E-07 -1.66209E-15
vt 3.000001 0
vt 2.78151E-07 0
vt 2.78151E-07 3
vt 3.000001 0
vt 4.999947 0
vt 2.78151E-07 0
vt -6.999998 0
vt -1.999999 3
vt -1.999999 0
vt -5.9999 1
vn 0 -1 0
vn 0 -1 0
vn 0 -1 0
vn 0 -1 0
vn 0 1 0
vn 0 1 0
vn 0 1 0
vn 0 1 0
vn 0 1 0
vn 0 1 0
vn 0 1 0
vn 0 1 0
vn 0 1 0
vn 0 1 0
vn 0 1 0
vn 0 1 0
vn 0 1 0
vn 0 1 0
vn 0 1 0
vn 0 1 0
vn 0 0 0
vn 0 -1 0
vn 0 0 0
vn 0 0 0
vn 0 0 0
vn 0 -1 0
vn 0 -1 0
vn 0 0 0
vn 0 0 0
vn 0 0 0
vn 0 0 0
vn 0 0 0
vn 0 0 0
vn 0 1 0
vn 0 0 0
vn 0 0 0
vn 0 0 0
vn 0 0 0
vn 0 0 0
vn 0 0 0
vn 0 0 0
vn 0 0 0
vn 0 0 0
vn 0 0 0
vn 0 0 0
vn 0 0 0
vn 0 0 0
vn 0 0 0
vn 0 0 0
vn 0 0 0
vn 0 0 0
vn 0 0 0
vn 1 -5.162878E-21 5.960463E-08
vn 1 -5.162878E-21 5.960463E-08
vn 1 0 5.960463E-08
vn 1 -1.032576E-20 5.960463E-08
vn 1 0 5.960463E-08
vn 1 0 5.960463E-08
vn -1 -4.330938E-14 -6.811975E-08
vn -1 -8.661876E-14 -6.811977E-08
vn -1 -4.330938E-14 -6.811975E-08
vn -1 0 -6.811973E-08
vn -1 0 -6.811977E-08
vn -1 0 -6.811977E-08
vn 0 0 -1
vn 0 0 -1
vn 0 0 -1
vn 0 0 -1
vn 0 0 -1
vn 0 0 -1
vn 0 0 0
vn 0 0 0
vn 0 0 0
vn 0 0 0
vn 0 0 0
vn 0 0 0
vn 0 0 0
vn 0 0 0
vn 0 0 0
vn 0 0 0
vn 0 0 0
vn 0 0 0
vn 2.384185E-07 0 -1
vn 2.384185E-07 0 -1
vn 2.384185E-07 0 -1
vn 3.476937E-07 0 -0.5
vn 3.476937E-07 0 -0.5
vn 6.953874E-07 0 -1
vn 3.476937E-07 0 -0.5
vn 0 0 0
vn 3.476937E-07 0 -0.5
vn 0.2121407 0.3535685 -0.7828171
vn 0.2121407 0.3535685 -0.7828171
vn -5.841256E-07 0 -1
vn 0.4242819 0.707137 -0.5656343
g pb_Mesh-1320072_0
f 3/3/3 2/2/2 1/1/1
f 2/2/2 4/4/4 1/1/1
f 7/7/7 6/6/6 5/5/5
f 7/7/7 5/5/5 8/8/8
f 6/6/6 10/10/10 9/9/9
f 6/6/6 9/9/9 5/5/5
f 10/10/10 12/12/12 11/11/11
f 10/10/10 11/11/11 9/9/9
f 15/15/15 14/14/14 13/13/13
f 15/15/15 13/13/13 16/16/16
f 17/17/17 15/15/15 16/16/16
f 17/17/17 16/16/16 18/18/18
f 20/20/20 19/19/19 10/10/10
f 20/20/20 10/10/10 6/6/6
f 23/23/23 22/22/22 21/21/21
f 25/25/25 24/24/24 10/10/10
f 27/27/27 26/26/26 3/3/3
f 26/26/26 2/2/2 3/3/3
f 30/30/30 29/29/29 28/28/28
f 33/33/33 32/32/32 31/31/31
f 8/8/8 5/5/5 17/17/17
f 8/8/8 17/17/17 34/34/34
f 37/37/37 36/36/36 35/35/35
f 40/40/40 39/39/39 38/38/38
f 5/5/5 9/9/9 15/15/15
f 5/5/5 15/15/15 17/17/17
f 43/43/43 42/42/42 41/41/41
f 46/46/46 45/45/45 44/44/44
f 9/9/9 11/11/11 14/14/14
f 9/9/9 14/14/14 15/15/15
f 49/49/49 48/48/48 47/47/47
f 52/52/52 51/51/51 50/50/50
f 55/55/55 54/54/54 53/53/53
f 54/54/54 56/56/56 53/53/53
f 54/54/54 57/57/57 56/56/56
f 57/57/57 58/58/58 56/56/56
f 61/61/61 60/60/60 59/59/59
f 61/61/61 59/59/59 62/62/62
f 60/60/60 64/64/64 63/63/63
f 60/60/60 63/63/63 59/59/59
f 67/67/67 66/66/66 65/65/65
f 66/66/66 68/68/68 65/65/65
f 70/70/70 67/67/67 69/69/69
f 67/67/67 65/65/65 69/69/69
f 73/73/73 72/72/72 71/71/71
f 76/76/76 75/75/75 74/74/74
f 79/79/79 78/78/78 77/77/77
f 82/82/82 81/81/81 80/80/80
f 69/69/69 65/65/65 83/83/83
f 65/65/65 84/84/84 83/83/83
f 65/65/65 68/68/68 84/84/84
f 68/68/68 85/85/85 84/84/84
f 88/88/88 87/87/87 86/86/86
f 91/91/91 90/90/90 89/89/89
f 94/94/94 93/93/93 92/92/92
f 93/93/93 95/95/95 92/92/92
