g pb_Mesh325548
v -2 -3.843754 0
v -3 -3.843754 0
v -3 -0.9374847 0
v -2 -0.9374847 0
v -1 -3.843754 0
v -1 -0.9374847 0
v -3 -3.843754 -1
v -3 -3.843754 -2
v -3 -0.9374847 -2
v -3 -0.9374847 -1
v -3 -3.843754 0
v -3 -0.9374847 0
v -2 -0.9374847 -2
v -1 -3.843754 -2
v -1 -0.9374847 -2
v -2 -3.843754 -2
v -3 -0.9374847 -2
v -3 -3.843754 -2
v -1 -0.9374847 -1
v -1 -3.843754 0
v -1 -0.9374847 0
v -1 -3.843754 -1
v -1 -0.9374847 -2
v -1 -3.843754 -2
v -2 0.1250114 -1
v -1 0.1250114 -1
v -1 0.1250114 0
v -2 0.1250114 0
v -3 1.874992 -1
v -2 1.874992 -1
v -2 1.874992 0
v -3 1.874992 0
v -3 1.124966 -2
v -2 1.124966 -2
v -2 1.124966 -1
v -3 1.124966 -1
v -2 -0.9374847 -2
v -1 -0.9374847 -2
v -1 -0.9374847 -1
v -2 -0.9374847 -1
v -3 0.1250114 -2
v -2 0.1250114 -2
v -2 -0.9374847 -2
v -2 -0.9374847 -1
v -2 0.1250114 -2
v -2 0.1250114 -1
v -3 0.1250114 -1
v -3 0.1250114 -2
v -1 0.1250114 0
v -2 0.1250114 0
v -3 0.1250114 0
v -3 0.1250114 0
v -2 -0.9374847 -1
v -1 -0.9374847 -1
v -2 0.1250114 -1
v -1 0.1250114 -1
v -1 0.1250114 -1
v -1 0.1250114 0
v -2 0.1250114 0
v -2 1.124966 -1
v -2 1.124966 0
v -3 1.124966 0
v -3 1.124966 -1
v -2 1.124966 0
v -3 1.124966 0
v -3 1.124966 -2
v -2 1.124966 -2
v -2 1.124966 -2
v -3 1.124966 -2
v -3 1.124966 -1
v -2 1.124966 -1
v -3 1.874992 -1
v -2 1.874992 -1
v -2 1.874992 -1
v -2 1.874992 0
v -3 1.874992 0
v -3 1.874992 -1
v -2 1.874992 0
v -3 1.874992 0
vt -2 -3.843754
vt -3 -3.843754
vt -3 -0.9374847
vt -2 -0.9374847
vt -1 -3.843754
vt -1 -0.9374847
vt -1 -3.843754
vt -2 -3.843754
vt -2 -0.9374847
vt -1 -0.9374847
vt 0 -3.843754
vt 0 -0.9374847
vt 2 -0.9374847
vt 1 -3.843754
vt 1 -0.9374847
vt 2 -3.843754
vt 3 -0.9374847
vt 3 -3.843754
vt 1 -0.9374847
vt 0 -3.843754
vt 0 -0.9374847
vt 1 -3.843754
vt 2 -0.9374847
vt 2 -3.843754
vt 2 -1
vt 1 -1
vt 1 0
vt 2 0
vt 3 -1
vt 2 -1
vt 2 0
vt 3 0
vt 3 -2
vt 2 -2
vt 2 -1
vt 3 -1
vt 2 -2
vt 1 -2
vt 1 -1
vt 2 -1
vt 3 0.1250114
vt 2 0.1250114
vt 2 -0.9374847
vt 1 -0.9374847
vt 2 0.1250114
vt 1 0.1250114
vt -1 0.1250114
vt -2 0.1250114
vt -1 0.1250114
vt -2 0.1250114
vt 0 0.1250114
vt -3 0.1250114
vt 2 -0.9374847
vt 1 -0.9374847
vt 2 0.1250114
vt 1 0.1250114
vt 1 0.1250114
vt 0 0.1250114
vt 0 0.1250114
vt 1 1.124966
vt 0 1.124966
vt 0 1.124966
vt -1 1.124966
vt -2 1.124966
vt -3 1.124966
vt 3 1.124966
vt 2 1.124966
vt 2 1.124966
vt -2 1.124966
vt 3 1.124966
vt 2 1.124966
vt 3 1.874992
vt 2 1.874992
vt 1 1.874992
vt 0 1.874992
vt 0 1.874992
vt -1 1.874992
vt -2 1.874992
vt -3 1.874992
vn 0 0 1
vn 0 0 1
vn 0 0 1
vn 0 0 1
vn 0 0 1
vn 0 0 1
vn -1 0 0
vn -1 0 0
vn -1 0 0
vn -1 0 0
vn -1 0 0
vn -1 0 0
vn 0 0 -1
vn 0 0 -1
vn 0 0 -1
vn 0 0 -1
vn 0 0 -1
vn 0 0 -1
vn 1 0 0
vn 1 0 0
vn 1 0 0
vn 1 0 0
vn 1 0 0
vn 1 0 0
vn 0 1 0
vn 0 1 0
vn 0 1 0
vn 0 1 0
vn 0 1 0
vn 0 1 0
vn 0 1 0
vn 0 1 0
vn 0 1 0
vn 0 1 0
vn 0 1 0
vn 0 1 0
vn 0 1 0
vn 0 1 0
vn 0 1 0
vn 0 1 0
vn 0 0 -1
vn 0 0 -1
vn 1 0 0
vn 1 0 0
vn 1 0 0
vn 1 0 0
vn -1 0 0
vn -1 0 0
vn 0 0 1
vn 0 0 1
vn -1 0 0
vn 0 0 1
vn 0 0 -1
vn 0 0 -1
vn 0 0 -1
vn 0 0 -1
vn 1 0 0
vn 1 0 0
vn 1 0 0
vn 1 0 0
vn 1 0 0
vn -1 0 0
vn -1 0 0
vn 0 0 1
vn 0 0 1
vn 0 0 -1
vn 0 0 -1
vn 1 0 0
vn -1 0 0
vn 0 0 -1
vn 0 0 -1
vn 0 0 -1
vn 0 0 -1
vn 1 0 0
vn 1 0 0
vn -1 0 0
vn -1 0 0
vn 0 0 1
vn 0 0 1
g pb_Mesh325548_0
f 3/3/3 2/2/2 1/1/1
f 3/3/3 1/1/1 4/4/4
f 4/4/4 1/1/1 5/5/5
f 4/4/4 5/5/5 6/6/6
f 9/9/9 8/8/8 7/7/7
f 9/9/9 7/7/7 10/10/10
f 10/10/10 7/7/7 11/11/11
f 10/10/10 11/11/11 12/12/12
f 15/15/15 14/14/14 13/13/13
f 14/14/14 16/16/16 13/13/13
f 13/13/13 16/16/16 17/17/17
f 16/16/16 18/18/18 17/17/17
f 21/21/21 20/20/20 19/19/19
f 20/20/20 22/22/22 19/19/19
f 19/19/19 22/22/22 23/23/23
f 22/22/22 24/24/24 23/23/23
f 27/27/27 26/26/26 25/25/25
f 27/27/27 25/25/25 28/28/28
f 31/31/31 30/30/30 29/29/29
f 31/31/31 29/29/29 32/32/32
f 35/35/35 34/34/34 33/33/33
f 35/35/35 33/33/33 36/36/36
f 39/39/39 38/38/38 37/37/37
f 39/39/39 37/37/37 40/40/40
f 41/41/41 13/13/13 17/17/17
f 41/41/41 42/42/42 13/13/13
f 45/45/45 44/44/44 43/43/43
f 45/45/45 46/46/46 44/44/44
f 47/47/47 9/9/9 10/10/10
f 47/47/47 48/48/48 9/9/9
f 49/49/49 4/4/4 6/6/6
f 49/49/49 50/50/50 4/4/4
f 51/51/51 10/10/10 12/12/12
f 51/51/51 47/47/47 10/10/10
f 50/50/50 3/3/3 4/4/4
f 50/50/50 52/52/52 3/3/3
f 55/55/55 54/54/54 53/53/53
f 55/55/55 56/56/56 54/54/54
f 57/57/57 21/21/21 19/19/19
f 57/57/57 58/58/58 21/21/21
f 60/60/60 59/59/59 46/46/46
f 60/60/60 61/61/61 59/59/59
f 62/62/62 47/47/47 51/51/51
f 62/62/62 63/63/63 47/47/47
f 64/64/64 52/52/52 50/50/50
f 64/64/64 65/65/65 52/52/52
f 66/66/66 42/42/42 41/41/41
f 66/66/66 67/67/67 42/42/42
f 68/68/68 46/46/46 45/45/45
f 68/68/68 60/60/60 46/46/46
f 63/63/63 48/48/48 47/47/47
f 63/63/63 69/69/69 48/48/48
f 72/72/72 71/71/71 70/70/70
f 72/72/72 73/73/73 71/71/71
f 74/74/74 61/61/61 60/60/60
f 74/74/74 75/75/75 61/61/61
f 76/76/76 63/63/63 62/62/62
f 76/76/76 77/77/77 63/63/63
f 78/78/78 65/65/65 64/64/64
f 78/78/78 79/79/79 65/65/65
g pb_Mesh325548_1
