g pb_Mesh146164
v -12 -10 0
v -12 2 0
v -4 -10 0
v -4 2 0
v -12 -10 -8
v -12 2 -8
v -12 -10 0
v -12 2 0
v -12 4 -4
v -6 4 -6
v -8 4 0.125
v -12 4 0
v -12 4 -8
v -6 4 -7.875
v -4 4 0
v -4 2 0
v -8 4 0.125
v -12 2 0
v -12 4 0
v -12 4 0
v -12 4 -4
v -12 4 -8
v -12 4 -8
v -6 2 -8
v -6 4 -7.875
v -12 2 -8
v -6 2 -8
v -6 4 -6
v -6 4 -7.875
v -6 2 -6
v -4.25 4 -6
v -4 4 -5.75
v -4 4 0
v -4 4 0
v -4 4 -5.75
v -4 3.75 -6
v -4 2 0
v -4 2 -6
v -4 4 -5.75
v -4.25 4 -6
v -4 3.75 -6
v -4.25 4 -6
v -6 4 -6
v -6 2 -6
v -4 3.75 -6
v -4 2 -6
v -6 2 -8
v -12 2 -8
v -4 0 -8
v -12 -10 -8
v -4 -10 -8
v -4 2 -8
v 16 0 -6
v 16 -10 0
v 16 -4 0
v 16 -10 -4
v 16 2 -6
v 16 2 0
v 16 2 0
v 16 -4 0
v 6 2 0
v 16 -10 0
v 10 2 -8
v 10 0 -6
v 10 2 -6
v 10 0 -8
v 16 0 -7
v 16 -1 -8
v 16 -10 -8
v 10 0 -8
v 6 -10 -8
v 16 -10 -8
v 15 0 -8
v 16 -1 -8
v 15 0 -8
v 16 -1 -8
v 16 0 -7
v 14.25 2 -6
v 14 1 -6
v 16 0 -6
v 14 0 -6
v 16 2 -6
v 14.25 2 -6
v 14 2 -5.5
v 14 1 -6
v 14 1 -6.25
v 14 2 -5.75
v 13.5 2 -6.25
v 10 0 -6
v 10 0 -8
v 12 0 -6
v 15 0 -8
v 14 0 -6
v 16 0 -7
v 16 0 -6
v 6 2 0
v 10 2 -6
v 12 2 -6
v 13.5 2 -6
v 14 2 -5.5
v 14.25 2 -6
v 16 2 -6
v 16 2 0
v 13.5 2 -6.25
v 12 2 -6.25
v 12 0 -6.25
v 14 1 -6.25
v 14 0 -6.25
v 12 2 -6
v 10 2 -6
v 10 0 -6
v 12 0 -6
v 13.5 2 -6.25
v 12 2 -6.25
v 12 2 -6
v 12 0 -6
v 12 2 -6.25
v 12 0 -6.25
v 12 0 -6
v 14 0 -6
v 12 0 -6.25
v 14 0 -6.25
v 14 0 -6
v 14 1 -6
v 14 0 -6.25
v 14 1 -6.25
v 14 2 -5.5
v 14 2 -5.75
v 14 2 -5.75
v 4 2 -8
v 10 2 -8
v 4 0 -8
v -4 2 0
v -4 2 -6
v 4 2 -6
v 4 2 -8
v 10 2 -8
vt -12 -10
vt -12 2
vt -4 -10
vt -4 2
vt -8 -10
vt -8 2
vt 0 -10
vt 0 2
vt 12 -4
vt 6 -6
vt 8 0.125
vt 12 0
vt 12 -8
vt 6 -7.875
vt -4 3.999132
vt -4 1.999566
vt -8 4.001736
vt -12 1.999566
vt -12 3.999132
vt 0 4
vt -4 4
vt -8 4
vt 12.16403 3.508991
vt 6.165329 1.50509
vt 6.162725 3.508991
vt 12.16403 1.512884
vt 8 2
vt 6 4
vt 7.875 4
vt 6 2
vt 4.25 -6
vt 4 -5.75
vt 4 0
vt 0 4
vt 5.75 4
vt 6 3.75
vt 0 2
vt 6 2
vt 6.894291 2.551552
vt 7.247844 2.551552
vt 7.071068 2.245366
vt 4.25 4
vt 6 4
vt 6 2
vt 4 3.75
vt 4 2
vt 6 2
vt 12 2
vt 4 0
vt 12 -10
vt 4 -10
vt 4 2
vt 6 0
vt 0 -10
vt 0 -4
vt 4 -10
vt 6 2
vt 0 2
vt 16 2
vt 16 -4
vt 6 2
vt 16 -10
vt 8 2
vt 6 0
vt 6 2
vt 8 0
vt 7 0
vt 8 -1
vt 8 -10
vt -10 0
vt -6 -10
vt -16 -10
vt -15 0
vt -16 -1
vt -4.949748 -9.38971
vt -5.656854 -10.61446
vt -6.363961 -9.38971
vt -14.25 2
vt -14 1
vt -16 0
vt -14 0
vt -16 2
vt -11.73936 4.147575
vt -11.18034 4.147575
vt -11.62755 3.12288
vt -5.480078 -3.830162
vt -5.833632 -2.769502
vt -5.126524 -2.769502
vt -10 -6
vt -10 -8
vt -12 -6
vt -15 -8
vt -14 -6
vt -16 -7
vt -16 -6
vt -6 0
vt -10 -6
vt -12 -6
vt -13.5 -6
vt -14 -5.5
vt -14.25 -6
vt -16 -6
vt -16 0
vt -13.5 2
vt -12 2
vt -12 0
vt -14 1
vt -14 0
vt -12 2
vt -10 2
vt -10 0
vt -12 0
vt -13.5 -6.25
vt -12 -6.25
vt -6 2
vt -6 0
vt -6.25 2
vt -6.25 0
vt 12 -6
vt 14 -6
vt 12 -6.25
vt 14 -6.25
vt 6 0
vt 6 1
vt 6.25 0
vt 6.25 1
vt 5.5 2
vt 5.75 2
vt -14 -5.75
vt -4 2
vt -10 2
vt -4 0
vt 4 0
vt 4 -6
vt -4 -6
vt -4 -8
vt -10 -8
vn 0 0 1
vn 0 0 1
vn 0 0 1
vn 0 0 1
vn -1 0 0
vn -1 0 0
vn -1 0 0
vn -1 0 0
vn 0 1 0
vn 0 1 0
vn 0 1 0
vn 0 1 0
vn 0 1 0
vn 0 1 0
vn 0.03123475 0 0.9995121
vn 0.01561738 -0.03118914 0.9987823
vn 0 -0.02079276 0.9990256
vn -0.01561738 -0.03118914 0.9987823
vn -0.03123475 0 0.9995121
vn -1 0 0
vn -1 0 0
vn -1 0 0
vn 0.01039413 0.0311824 -0.9989184
vn 0.01039413 0.0311824 -0.9989184
vn 0.02078827 0.06236481 -0.9978369
vn 0 0 -1
vn 1 0 0
vn 1 0 0
vn 1 0 0
vn 1 0 0
vn 0 1 0
vn 0 1 0
vn 0 1 0
vn 1 0 0
vn 1 0 0
vn 1 0 0
vn 1 0 0
vn 1 0 0
vn 0.5773503 0.5773503 -0.5773503
vn 0.5773503 0.5773503 -0.5773503
vn 0.5773503 0.5773503 -0.5773503
vn 0 0 -1
vn 0 0 -1
vn 0 0 -1
vn 0 0 -1
vn 0 0 -1
vn 0 0 -1
vn 0 0 -1
vn 0 0 -1
vn 0 0 -1
vn 0 0 -1
vn 0 0 -1
vn 1 0 0
vn 1 0 0
vn 1 0 0
vn 1 0 0
vn 1 0 0
vn 1 0 0
vn 0 0 1
vn 0 0 1
vn 0 0 1
vn 0 0 1
vn 1 0 0
vn 1 0 0
vn 1 0 0
vn 1 0 0
vn 1 0 0
vn 1 0 0
vn 1 0 0
vn 0 0 -1
vn 0 0 -1
vn 0 0 -1
vn 0 0 -1
vn 0 0 -1
vn 0.5773503 0.5773503 -0.5773503
vn 0.5773503 0.5773503 -0.5773503
vn 0.5773503 0.5773503 -0.5773503
vn 0 0 -1
vn 0 0 -1
vn 0 0 -1
vn 0 0 -1
vn 0 0 -1
vn -0.8728716 0.2182179 -0.4364358
vn -0.8728716 0.2182179 -0.4364358
vn -0.8728716 0.2182179 -0.4364358
vn 0.6666667 0.3333333 -0.6666667
vn 0.6666667 0.3333333 -0.6666667
vn 0.6666667 0.3333333 -0.6666667
vn 0 1 0
vn 0 1 0
vn 0 1 0
vn 0 1 0
vn 0 1 0
vn 0 1 0
vn 0 1 0
vn 0 1 0
vn 0 1 0
vn 0 1 0
vn 0 1 0
vn 0 1 0
vn 0 1 0
vn 0 1 0
vn 0 1 0
vn 0 0 -1
vn 0 0 -1
vn 0 0 -1
vn 0 0 -1
vn 0 0 -1
vn 0 0 -1
vn 0 0 -1
vn 0 0 -1
vn 0 0 -1
vn 0 1 0
vn 0 1 0
vn -1 0 0
vn -1 0 0
vn -1 0 0
vn -1 0 0
vn 0 -1 0
vn 0 -1 0
vn 0 -1 0
vn 0 -1 0
vn 1 0 0
vn 1 0 0
vn 1 0 0
vn 1 0 0
vn 1 0 0
vn 1 0 0
vn 0 1 0
vn 0 0 -1
vn 0 0 -1
vn 0 0 -1
vn 0 1 0
vn 0 1 0
vn 0 1 0
vn 0 1 0
vn 0 1 0
g pb_Mesh146164_0
f 3/3/3 2/2/2 1/1/1
f 2/2/2 3/3/3 4/4/4
f 7/7/7 6/6/6 5/5/5
f 6/6/6 7/7/7 8/8/8
f 11/11/11 10/10/10 9/9/9
f 11/11/11 9/9/9 12/12/12
f 10/10/10 14/14/14 13/13/13
f 10/10/10 13/13/13 9/9/9
f 17/17/17 16/16/16 15/15/15
f 16/16/16 17/17/17 18/18/18
f 17/17/17 19/19/19 18/18/18
f 21/21/21 8/8/8 20/20/20
f 8/8/8 21/21/21 6/6/6
f 21/21/21 22/22/22 6/6/6
f 25/25/25 24/24/24 23/23/23
f 24/24/24 26/26/26 23/23/23
f 29/29/29 28/28/28 27/27/27
f 28/28/28 30/30/30 27/27/27
f 33/33/33 32/32/32 31/31/31
f 33/33/33 31/31/31 10/10/10
f 11/11/11 33/33/33 10/10/10
f 36/36/36 35/35/35 34/34/34
f 37/37/37 36/36/36 34/34/34
f 37/37/37 38/38/38 36/36/36
f 41/41/41 40/40/40 39/39/39
f 44/44/44 43/43/43 42/42/42
f 44/44/44 42/42/42 45/45/45
f 45/45/45 46/46/46 44/44/44
f 49/49/49 48/48/48 47/47/47
f 49/49/49 50/50/50 48/48/48
f 49/49/49 51/51/51 50/50/50
f 52/52/52 49/49/49 47/47/47
f 55/55/55 54/54/54 53/53/53
f 54/54/54 56/56/56 53/53/53
f 58/58/58 55/55/55 57/57/57
f 55/55/55 53/53/53 57/57/57
f 61/61/61 60/60/60 59/59/59
f 62/62/62 60/60/60 61/61/61
f 61/61/61 3/3/3 62/62/62
f 61/61/61 4/4/4 3/3/3
f 65/65/65 64/64/64 63/63/63
f 64/64/64 66/66/66 63/63/63
f 69/69/69 68/68/68 67/67/67
f 67/67/67 53/53/53 69/69/69
f 69/69/69 53/53/53 56/56/56
f 72/72/72 71/71/71 70/70/70
f 72/72/72 70/70/70 73/73/73
f 74/74/74 72/72/72 73/73/73
f 77/77/77 76/76/76 75/75/75
f 80/80/80 79/79/79 78/78/78
f 80/80/80 81/81/81 79/79/79
f 82/82/82 80/80/80 78/78/78
f 85/85/85 84/84/84 83/83/83
f 88/88/88 87/87/87 86/86/86
f 91/91/91 90/90/90 89/89/89
f 90/90/90 91/91/91 92/92/92
f 91/91/91 93/93/93 92/92/92
f 93/93/93 94/94/94 92/92/92
f 93/93/93 95/95/95 94/94/94
f 98/98/98 97/97/97 96/96/96
f 100/100/100 99/99/99 98/98/98
f 100/100/100 102/102/102 101/101/101
f 100/100/100 103/103/103 102/102/102
f 98/98/98 103/103/103 100/100/100
f 96/96/96 103/103/103 98/98/98
f 106/106/106 105/105/105 104/104/104
f 106/106/106 104/104/104 107/107/107
f 107/107/107 108/108/108 106/106/106
f 111/111/111 110/110/110 109/109/109
f 111/111/111 109/109/109 112/112/112
f 113/113/113 98/98/98 99/99/99
f 113/113/113 114/114/114 98/98/98
f 117/117/117 116/116/116 115/115/115
f 117/117/117 118/118/118 116/116/116
f 121/121/121 120/120/120 119/119/119
f 121/121/121 122/122/122 120/120/120
f 125/125/125 124/124/124 123/123/123
f 125/125/125 126/126/126 124/124/124
f 126/126/126 127/127/127 124/124/124
f 126/126/126 128/128/128 127/127/127
f 129/129/129 99/99/99 100/100/100
f 129/129/129 113/113/113 99/99/99
f 131/131/131 70/70/70 130/130/130
f 70/70/70 132/132/132 130/130/130
f 51/51/51 49/49/49 132/132/132
f 51/51/51 132/132/132 71/71/71
f 70/70/70 71/71/71 132/132/132
f 135/135/135 134/134/134 133/133/133
f 96/96/96 135/135/135 133/133/133
f 96/96/96 97/97/97 135/135/135
f 97/97/97 137/137/137 136/136/136
f 97/97/97 136/136/136 135/135/135
