g pb_Mesh371506
v -10 8.000099 0
v -8 8 -8
v -8 8 0
v -10 8.000099 -8
v -10 8.000198 -10
v -8 8 -8
v -10 8.000099 -8
v -8.000097 8.000023 -10
v -8 8 -8
v -8.000097 8.000023 -10
v -7.05719E-05 3.999947 -10
v 0 4 -8
v -7.05719E-05 3.999947 -10
v 2 3.999859 -10
v 4 3.999916 -8
v 0 4 -8
v 4 -10 -8
v 4 4 0
v 4 3.999916 -8
v 4 -10 0
v 2 -10 -10
v 4 3.999916 -8
v 2 3.999859 -10
v 4 -10 -8
v -4.768372E-05 -10 -10
v 2 3.999859 -10
v -7.05719E-05 3.999947 -10
v 2 -10 -10
v -8.000074 -10 -10
v -8.000097 8.000023 -10
v -10 -10 -10
v -10 8.000198 -10
v -4 4 0
v -8 4 0
v -8 8 0
v -4 8 0
v 0 4 -4
v 0 4 -8
v 4 3.999916 -8
v 4 4 0
v 0 4 0
v -8 8 -8
v -4 8 -8
v -4 8 -4
v -8 8 0
v -4 8 0
v 0 4 -8
v -4 8 -8
v -8 8 -8
v 0 7.5 -8
v -0.5 8 -8
v 0 8 -7.5
v 0 7.5 -8
v 0 4 -4
v 0 4 -8
v 0 8 -4
v 0 8 -7.5
v -0.5 8 -8
v 0 7.5 -8
v -0.5 8 -8
v 0 8 -7.5
v 0 8 -4
vt 10.0004 0
vt 8.000397 -8
vt 8.000397 0
vt 10.0004 -8
vt 10.0004 -10.0004
vt 8.000397 -8.000397
vt 10.0004 -8.000397
vt 8.000494 -10.0004
vt 10.73315 -7.999959
vt 10.73325 -9.999959
vt 1.788916 -9.999959
vt 1.788877 -7.999959
vt 0.0002460394 -9.99971
vt -1.999825 -9.99971
vt -3.999825 -7.99971
vt 0.0001754699 -7.99971
vt 8 -10
vt 0 4
vt 8 3.999916
vt 0 -10
vt 5.656854 -10
vt 2.828427 3.999916
vt 5.656854 3.999859
vt 2.828427 -10
vt 4.768372E-05 -10
vt -2 3.999859
vt 7.05719E-05 3.999947
vt -2 -10
vt 8.000074 -10
vt 8.000097 8.000023
vt 10 -10
vt 10 8.000198
vt -4 4
vt -8 4
vt -8 8
vt -4 8
vt 4.196167E-05 -3.999979
vt 4.196167E-05 -7.999979
vt -3.999958 -7.999979
vt -3.999958 2.098106E-05
vt 4.196167E-05 2.098083E-05
vt 8 -8
vt 4 -8
vt 4 -4
vt 8 0
vt 4 0
vt 0 4
vt 4 8
vt 8 8
vt 0 7.5
vt 0.5 8
vt 7.043031 6.727579
vt 7.512566 6.198866
vt 3.756283 3.335857
vt 7.512566 2.888937
vt 3.756283 7.118634
vt 7.043031 6.727579
vt 7.684428 6.82434
vt 7.512566 6.198866
vt 0.5 -8
vt 0 -7.5
vt 0 -4
vn 4.959106E-05 1 0
vn 4.959106E-05 1 0
vn 4.959106E-05 1 0
vn 4.959106E-05 1 0
vn 6.866669E-05 1 3.051544E-05
vn 6.866669E-05 1 3.051544E-05
vn 4.959106E-05 1 4.959106E-05
vn 8.774231E-05 1 1.143982E-05
vn 0.4472164 0.8944257 -2.558992E-05
vn 0.4472193 0.8944244 -1.15157E-05
vn 0.4472164 0.8944257 -2.558992E-05
vn 0.4472136 0.8944272 -3.966414E-05
vn 3.242416E-05 1 -4.959066E-05
vn 4.386747E-05 1 -7.247771E-05
vn 3.242416E-05 1 -4.959066E-05
vn 2.098083E-05 1 -2.670362E-05
vn 1 0 0
vn 1 0 0
vn 1 0 0
vn 1 0 0
vn 0.7071068 0 -0.7071068
vn 0.7071068 0 -0.7071068
vn 0.7071068 0 -0.7071068
vn 0.7071068 0 -0.7071068
vn 0 0 -1
vn 0 0 -1
vn 0 0 -1
vn 0 0 -1
vn 0 0 -1
vn 0 0 -1
vn 0 0 -1
vn 0 0 -1
vn 0 0 1
vn 0 0 1
vn 0 0 1
vn 0 0 1
vn 1.049042E-05 1 -3.496806E-06
vn 2.098083E-05 1 0
vn 1.573563E-05 1 -5.245209E-06
vn 5.245209E-06 1 -5.245209E-06
vn 0 1 0
vn 0 1 0
vn 0 1 0
vn 0 1 0
vn 0 1 0
vn 0 1 0
vn 0 0 -1
vn 0 0 -1
vn 0 0 -1
vn 0 0 -1
vn 0 0 -1
vn 1 0 0
vn 1 0 0
vn 1 0 0
vn 1 0 0
vn 1 0 0
vn 0.5773503 0.5773503 -0.5773503
vn 0.5773503 0.5773503 -0.5773503
vn 0.5773503 0.5773503 -0.5773503
vn 0 1 0
vn 0 1 0
vn 0 1 0
g pb_Mesh371506_0
g pb_Mesh371506_1
f 3/3/3 2/2/2 1/1/1
f 2/2/2 4/4/4 1/1/1
f 7/7/7 6/6/6 5/5/5
f 6/6/6 8/8/8 5/5/5
f 11/11/11 10/10/10 9/9/9
f 11/11/11 9/9/9 12/12/12
f 15/15/15 14/14/14 13/13/13
f 15/15/15 13/13/13 16/16/16
f 19/19/19 18/18/18 17/17/17
f 18/18/18 20/20/20 17/17/17
f 23/23/23 22/22/22 21/21/21
f 22/22/22 24/24/24 21/21/21
f 27/27/27 26/26/26 25/25/25
f 26/26/26 28/28/28 25/25/25
f 30/30/30 27/27/27 29/29/29
f 27/27/27 25/25/25 29/29/29
f 32/32/32 30/30/30 31/31/31
f 30/30/30 29/29/29 31/31/31
f 35/35/35 34/34/34 33/33/33
f 35/35/35 33/33/33 36/36/36
f 39/39/39 38/38/38 37/37/37
f 40/40/40 39/39/39 37/37/37
f 41/41/41 40/40/40 37/37/37
f 44/44/44 43/43/43 42/42/42
f 45/45/45 44/44/44 42/42/42
f 45/45/45 46/46/46 44/44/44
f 49/49/49 48/48/48 47/47/47
f 47/47/47 48/48/48 50/50/50
f 51/51/51 50/50/50 48/48/48
f 54/54/54 53/53/53 52/52/52
f 54/54/54 55/55/55 53/53/53
f 56/56/56 54/54/54 52/52/52
f 59/59/59 58/58/58 57/57/57
f 61/61/61 60/60/60 43/43/43
f 44/44/44 61/61/61 43/43/43
f 44/44/44 62/62/62 61/61/61
