g pb_Mesh254166
v 0 -2 0
v -2 -2 0
v 0 2 0
v -2 2 0
v -4 -2 0
v -4 -2 -2
v -4 2 0
v -4 2 -2
v 0 -2 -2
v 0 -2 0
v 0 2 -2
v 0 2 0
v 0 2 0
v -2 2 0
v 0 2 -2
v -2 2 -2
v 0 -2 -2
v -2 -2 -2
v 0 -2 0
v -2 -2 0
v -4 -2 0
v -4 -2 -2
v -4 2 0
v -4 -2 0
v -2 -2 -4
v -2 2 -4
v -4 -2 -4
v -4 2 -4
v -4 2 -2
v -4 2 0
v -2 -2 -2
v -2 2 -2
v -2 -2 -4
v -2 2 -4
v -4 -2 -4
v -2 -2 -4
v -2 2 -4
v -4 2 -4
v -4 2 -4
v -4 -2 -4
v -0.5 2 -2
v 0 -2 -2
v 0 2 -2
v -0.5 -2 -2
vt 0 -2
vt -2 -2
vt 0 2
vt -2 2
vt 0 -2
vt -2 -2
vt 0 2
vt -2 2
vt 2 -2
vt 0 -2
vt 2 2
vt 0 2
vt 0 0
vt 2 0
vt 0 -2
vt 2 -2
vt 0 -2
vt -2 -2
vt 0 0
vt -2 0
vt -4 0
vt -4 -2
vt -4 2
vt -4 -2
vt 2 -2
vt 2 2
vt 4 -2
vt 4 2
vt 4 -2
vt 4 0
vt 2 -2
vt 2 2
vt 4 -2
vt 4 2
vt -4 -4
vt -2 -4
vt 2 -4
vt 4 -4
vt -4 2
vt -4 -2
vt 0.5 2
vt 0 -2
vt 0 2
vt 0.5 -2
vn 0 0 1
vn 0 0 1
vn 0 0 1
vn 0 0 1
vn -1 0 0
vn -1 0 0
vn -1 0 0
vn -1 0 0
vn 1 0 0
vn 1 0 0
vn 1 0 0
vn 1 0 0
vn 0 1 0
vn 0 1 0
vn 0 1 0
vn 0 1 0
vn 0 -1 0
vn 0 -1 0
vn 0 -1 0
vn 0 -1 0
vn 0 -1 0
vn 0 -1 0
vn 0 0 1
vn 0 0 1
vn 0 0 -1
vn 0 0 -1
vn 0 0 -1
vn 0 0 -1
vn 0 1 0
vn 0 1 0
vn 1 0 0
vn 1 0 0
vn 1 0 0
vn 1 0 0
vn 0 -1 0
vn 0 -1 0
vn 0 1 0
vn 0 1 0
vn -1 0 0
vn -1 0 0
vn 0 0 -1
vn 0 0 -1
vn 0 0 -1
vn 0 0 -1
g pb_Mesh254166_0
f 3/3/3 2/2/2 1/1/1
f 3/3/3 4/4/4 2/2/2
f 7/7/7 6/6/6 5/5/5
f 7/7/7 8/8/8 6/6/6
f 11/11/11 10/10/10 9/9/9
f 11/11/11 12/12/12 10/10/10
f 15/15/15 14/14/14 13/13/13
f 15/15/15 16/16/16 14/14/14
f 19/19/19 18/18/18 17/17/17
f 19/19/19 20/20/20 18/18/18
f 21/21/21 18/18/18 20/20/20
f 21/21/21 22/22/22 18/18/18
f 23/23/23 2/2/2 4/4/4
f 23/23/23 24/24/24 2/2/2
f 27/27/27 26/26/26 25/25/25
f 27/27/27 28/28/28 26/26/26
f 29/29/29 14/14/14 16/16/16
f 29/29/29 30/30/30 14/14/14
f 33/33/33 32/32/32 31/31/31
f 33/33/33 34/34/34 32/32/32
f 35/35/35 18/18/18 22/22/22
f 35/35/35 36/36/36 18/18/18
f 37/37/37 29/29/29 16/16/16
f 37/37/37 38/38/38 29/29/29
f 39/39/39 6/6/6 8/8/8
f 39/39/39 40/40/40 6/6/6
f 43/43/43 42/42/42 41/41/41
f 42/42/42 44/44/44 41/41/41
