g pb_Mesh369542
v -14 4 -4.000099
v -12 0 -4
v -12 4 -4
v -14 0 -4.000099
v -14 4 -6
v -14 0 -4.000099
v -14 4 -4.000099
v -14 0 -6
v -16 4 -6
v -14 0 -6
v -14 4 -6
v -16 0 -6
v -20 4 -6
v -20 0 -6
v -20 4 -6
v -16 4 -6
v -16 4 -4
v -20 4 -4
v -14 4 -6
v -14 4 -4.000099
v -16 10 -4
v -20 4 -4
v -16 4 -4
v -20 10 -4
v -16 4.000071 -2
v -16 10 -4
v -16 4 -4
v -16 10 -2
v -14 4.0001 -2
v -16 4 -4
v -14 4 -4.000099
v -16 4.000071 -2
v -12 4 -4
v -12 4.0002 -2
v 0 4 -4
v 0 0 -2
v 0 4 -2
v 0 0 -4
v 0 0 6
v 0 4 6
v 2 1.764297E-05 -4
v 0 0 -2
v 0 0 -4
v 2.00005 1.764297E-05 -2
v 0 5.292892E-05 -6
v 2 6.771088E-05 -6.00005
v -14 0 -6
v -12 0 -4
v -14 0 -4.000099
v -12 0 -6
v -12 4 -4
v -10 0 -4
v -10 4 -4
v -12 0 -4
v 0 0 -4
v 0 4 -4
v -10 0 -4
v -10 3.528595E-05 -6
v -20 0 -10
v -16 0 -6
v -20 0 -6
v -16 0 -10
v -14 7.05719E-05 -10
v -12 0.0001001358 -10
v -10 0.0001354218 -10
v -10 -73 -10
v -10 3.528595E-05 -6
v -10 0.0001354218 -10
v -10 -73 -6
v 0 -73 -6
v -10 3.528595E-05 -6
v -10 -73 -6
v 0 5.292892E-05 -6
v 2 -73 -6.000099
v 0 5.292892E-05 -6
v 0 -73 -6
v 2 6.771088E-05 -6.00005
v 2 -73 -4
v 2 6.771088E-05 -6.00005
v 2 -73 -6.000099
v 2 1.764297E-05 -4
v 2.000099 -73 -2
v 2 1.764297E-05 -4
v 2 -73 -4
v 2.00005 1.764297E-05 -2
v 2.000198 -73 10
v 2.000198 3.528595E-05 10
v -16 -73 -10
v -14 7.05719E-05 -10
v -16 0 -10
v -14 -73 -10
v -12 0.0001001358 -10
v -12 -73 -10
v -10 0.0001354218 -10
v -10 -73 -10
v -20 -73 -10
v -20 0 -10
v -2 8 6
v -2 4 -2
v -2 4 6
v -2 8 -2
v -1.999901 4 6
v -2 8 6
v -2 4 6
v -1.999901 8 6
v -1.999901 4 10
v -1.999901 8 6
v -1.999901 4 6
v -1.999901 8 10
v -1.999802 8 10
v -1.999901 8 6
vt 14.0002 4
vt 12.0002 0
vt 12.0002 4
vt 14.0002 0
vt 6 4
vt 4.000099 0
vt 4.000099 4
vt 6 0
vt 16 4
vt 14 0
vt 14 4
vt 16 0
vt 20 4
vt 20 0
vt 20 -6
vt 16 -6
vt 16 -4
vt 20 -4
vt 14 -6
vt 14 -4.000099
vt 16 10
vt 20 4
vt 16 4
vt 20 10
vt 2 4.000071
vt 4 10
vt 4 4
vt 2 10
vt 14 -1.9998
vt 16 -3.9998
vt 14 -3.999899
vt 16 -1.9998
vt 12 -3.9998
vt 12 -1.9998
vt 4 4
vt 2 0
vt 2 4
vt 4 0
vt -6 0
vt -6 4
vt -2 -4
vt 0 -2
vt 0 -4
vt -2.00005 -2
vt -4.669118E-10 -6
vt -2 -6.00005
vt 14 -6
vt 12 -4
vt 14 -4.000099
vt 12 -6
vt 12 4
vt 10 0
vt 10 4
vt 12 0
vt 0 0
vt 0 4
vt 10 -4
vt 10 -6
vt 20 -10
vt 16 -6
vt 20 -6
vt 16 -10
vt 14 -10
vt 12 -10
vt 10 -10
vt 10 -73
vt 6 3.528595E-05
vt 10 0.0001354218
vt 6 -73
vt 0 -73
vt 10 3.528595E-05
vt 10 -73
vt 0 5.292892E-05
vt -2.000298 -73
vt -0.0002975464 5.292892E-05
vt -0.0002975464 -73
vt -2.000298 6.771088E-05
vt 4 -73
vt 6.00005 6.771088E-05
vt 6.000099 -73
vt 4 1.764297E-05
vt 1.999901 -73
vt 3.999901 1.764297E-05
vt 3.999901 -73
vt 1.999901 1.764297E-05
vt -10.00002 -73
vt -10.00002 3.392721E-05
vt 16 -73
vt 14 7.05719E-05
vt 16 0
vt 14 -73
vt 12 0.0001001358
vt 12 -73
vt 10 0.0001354218
vt 10 -73
vt 20 -73
vt 20 0
vt -6 8
vt 2 4
vt -6 4
vt 2 8
vt 1.999901 4
vt 2 8
vt 2 4
vt 1.999901 8
vt -10 4
vt -6 8
vt -6 4
vt -10 8
vt -1.999802 10
vt -1.999901 6
vn 4.959106E-05 0 -1
vn 4.959106E-05 0 -1
vn 4.959106E-05 0 -1
vn 4.959106E-05 0 -1
vn 1 0 0
vn 1 0 0
vn 1 0 0
vn 1 0 0
vn 0 0 -1
vn 0 0 -1
vn 0 0 -1
vn 0 0 -1
vn 0 0 -1
vn 0 0 -1
vn 0 1 0
vn 0 1 0
vn 0 1 0
vn 0 1 0
vn 0 1 0
vn 0 1 0
vn 0 0 -1
vn 0 0 -1
vn 0 0 -1
vn 0 0 -1
vn 1 0 0
vn 1 0 0
vn 1 0 0
vn 1 0 0
vn -7.392217E-06 1 -4.267569E-05
vn -7.392217E-06 1 -4.267569E-05
vn -2.482797E-09 1 -5.006542E-05
vn -1.478195E-05 1 -3.528595E-05
vn -2.503271E-05 1 -7.510062E-05
vn -5.00679E-05 1 -0.0001001358
vn 1 0 0
vn 1 0 0
vn 1 0 0
vn 1 0 0
vn 1 0 0
vn 1 0 0
vn -8.821378E-06 1 1.09364E-10
vn -8.821378E-06 1 1.09364E-10
vn -8.821487E-06 1 0
vn -8.821269E-06 1 2.18728E-10
vn -8.105922E-06 1 2.57489E-05
vn -7.390355E-06 1 2.503333E-05
vn 0 1 0
vn 0 1 0
vn 0 1 0
vn 0 1 0
vn 0 0 -1
vn 0 0 -1
vn 0 0 -1
vn 0 0 -1
vn 0 0 -1
vn 0 0 -1
vn 0 1 1.764297E-05
vn -8.821488E-07 1 2.205372E-05
vn 0 1 0
vn 0 1 0
vn 0 1 0
vn 0 1 0
vn -3.528595E-05 1 1.764297E-05
vn -1.478195E-05 1 2.503395E-05
vn -1.764297E-05 1 2.503395E-05
vn 1 0 0
vn 1 0 0
vn 1 0 0
vn 1 0 0
vn 0 0 -1
vn 0 0 -1
vn 0 0 -1
vn 0 0 -1
vn -3.71933E-05 3.396645E-07 -1
vn -3.71933E-05 3.396645E-07 -1
vn -4.959106E-05 0 -1
vn -2.479554E-05 6.79329E-07 -1
vn 1 0 0
vn 1 0 0
vn 1 0 0
vn 1 0 0
vn 1 3.396648E-07 -3.71933E-05
vn 1 3.396648E-07 -3.71933E-05
vn 1 0 -4.959106E-05
vn 1 6.793295E-07 -2.479553E-05
vn 1 3.396648E-07 -1.033147E-05
vn 1 0 -1.239777E-05
vn 0 0 -1
vn 0 0 -1
vn 0 0 -1
vn 0 0 -1
vn 0 0 -1
vn 0 0 -1
vn 0 0 -1
vn 0 0 -1
vn 0 0 -1
vn 0 0 -1
vn 1 0 0
vn 1 0 0
vn 1 0 0
vn 1 0 0
vn 0 0 -1
vn 0 0 -1
vn 0 0 -1
vn 0 0 -1
vn 1 0 0
vn 1 0 0
vn 1 0 0
vn 1 0 0
vn 0 -1 0
vn 0 -1 0
g pb_Mesh369542_0
g pb_Mesh369542_1
f 3/3/3 2/2/2 1/1/1
f 2/2/2 4/4/4 1/1/1
f 7/7/7 6/6/6 5/5/5
f 6/6/6 8/8/8 5/5/5
f 11/11/11 10/10/10 9/9/9
f 10/10/10 12/12/12 9/9/9
f 9/9/9 12/12/12 13/13/13
f 12/12/12 14/14/14 13/13/13
f 17/17/17 16/16/16 15/15/15
f 17/17/17 15/15/15 18/18/18
f 20/20/20 19/19/19 16/16/16
f 20/20/20 16/16/16 17/17/17
f 23/23/23 22/22/22 21/21/21
f 22/22/22 24/24/24 21/21/21
f 27/27/27 26/26/26 25/25/25
f 26/26/26 28/28/28 25/25/25
f 31/31/31 30/30/30 29/29/29
f 30/30/30 32/32/32 29/29/29
f 31/31/31 29/29/29 33/33/33
f 29/29/29 34/34/34 33/33/33
f 37/37/37 36/36/36 35/35/35
f 36/36/36 38/38/38 35/35/35
f 40/40/40 39/39/39 37/37/37
f 39/39/39 36/36/36 37/37/37
f 43/43/43 42/42/42 41/41/41
f 42/42/42 44/44/44 41/41/41
f 43/43/43 41/41/41 45/45/45
f 41/41/41 46/46/46 45/45/45
f 49/49/49 48/48/48 47/47/47
f 48/48/48 50/50/50 47/47/47
f 53/53/53 52/52/52 51/51/51
f 52/52/52 54/54/54 51/51/51
f 56/56/56 55/55/55 53/53/53
f 55/55/55 52/52/52 53/53/53
f 43/43/43 58/58/58 57/57/57
f 43/43/43 45/45/45 58/58/58
f 57/57/57 58/58/58 50/50/50
f 57/57/57 50/50/50 48/48/48
f 61/61/61 60/60/60 59/59/59
f 60/60/60 62/62/62 59/59/59
f 60/60/60 47/47/47 62/62/62
f 47/47/47 63/63/63 62/62/62
f 47/47/47 50/50/50 63/63/63
f 50/50/50 64/64/64 63/63/63
f 50/50/50 58/58/58 64/64/64
f 58/58/58 65/65/65 64/64/64
f 68/68/68 67/67/67 66/66/66
f 67/67/67 69/69/69 66/66/66
f 72/72/72 71/71/71 70/70/70
f 71/71/71 73/73/73 70/70/70
f 76/76/76 75/75/75 74/74/74
f 75/75/75 77/77/77 74/74/74
f 80/80/80 79/79/79 78/78/78
f 79/79/79 81/81/81 78/78/78
f 84/84/84 83/83/83 82/82/82
f 83/83/83 85/85/85 82/82/82
f 82/82/82 85/85/85 86/86/86
f 85/85/85 87/87/87 86/86/86
f 90/90/90 89/89/89 88/88/88
f 89/89/89 91/91/91 88/88/88
f 89/89/89 92/92/92 91/91/91
f 92/92/92 93/93/93 91/91/91
f 92/92/92 94/94/94 93/93/93
f 94/94/94 95/95/95 93/93/93
f 97/97/97 90/90/90 96/96/96
f 90/90/90 88/88/88 96/96/96
f 100/100/100 99/99/99 98/98/98
f 99/99/99 101/101/101 98/98/98
f 104/104/104 103/103/103 102/102/102
f 103/103/103 105/105/105 102/102/102
f 108/108/108 107/107/107 106/106/106
f 107/107/107 109/109/109 106/106/106
f 110/110/110 111/111/111 110/110/110
f 111/111/111 111/111/111 110/110/110
