g pb_Mesh566212
v 3 -8 0
v -8 -8 0
v 3 0 0
v -8 0 0
v -8 -8 0
v -8 -8 -8
v -8 0 0
v -8 0 -8
v -8 -8 -8
v 3 -8 -8
v -8 0 -8
v 3 0 -8
v 3 -8 -8
v 3 -8 0
v 3 0 -8
v 3 0 0
v 3 0 0
v -8 0 0
v 3 0 -8
v -8 0 -8
v 3 -8 -8
v -8 -8 -8
v 5 -8 -10
v -8 -8 -10
v 3 -8 0
v 5 -8 2
v -8 -8 0
v -8 -8 2
v 5 -8 -10
v -8 -8 -10
v 5 -24 -10
v -8 -24 -10
v 5 -8 2
v 5 -8 -10
v 5 -24 2
v 5 -24 -10
v -8 -8 -10
v -8 -8 2
v -8 -24 -10
v -8 -24 2
v -8 -8 2
v 5 -8 2
v -8 -24 2
v 5 -24 2
v -8 -72 -10
v 5 -72 -10
v 5 -72 -10
v 5 -71.5 2
v -8 -71.5 2
v -8 -72 -10
v 5 -71.5 2
v -8 -71.5 2
vt 3 -8
vt -8 -8
vt 3 0
vt -8 0
vt 0 -8
vt -8 -8
vt 0 0
vt -8 0
vt 8 -8
vt -3 -8
vt 8 0
vt -3 0
vt 8 -8
vt 0 -8
vt 8 0
vt 0 0
vt -3 0
vt 8 0
vt -3 -8
vt 8 -8
vt -3 -8
vt 8 -8
vt -5 -10
vt 8 -10
vt -3 0
vt -5 2
vt 8 0
vt 8 2
vt -5 -8
vt 8 -8
vt -5 -24
vt 8 -24
vt -2 -8
vt 10 -8
vt -2 -24
vt 10 -24
vt -10 -8
vt 2 -8
vt -10 -24
vt 2 -24
vt -8 -8
vt 5 -8
vt -8 -24
vt 5 -24
vt 8 -72
vt -5 -72
vt 10 -72
vt -2 -71.5
vt 2 -71.5
vt -10 -72
vt 5 -71.5
vt -8 -71.5
vn 0 0 1
vn 0 0 1
vn 0 0 1
vn 0 0 1
vn -1 0 0
vn -1 0 0
vn -1 0 0
vn -1 0 0
vn 0 0 -1
vn 0 0 -1
vn 0 0 -1
vn 0 0 -1
vn 1 0 0
vn 1 0 0
vn 1 0 0
vn 1 0 0
vn 0 1 0
vn 0 1 0
vn 0 1 0
vn 0 1 0
vn 0 1 0
vn 0 1 0
vn 0 1 0
vn 0 1 0
vn 0 1 0
vn 0 1 0
vn 0 1 0
vn 0 1 0
vn 0 0 -1
vn 0 0 -1
vn 0 0 -1
vn 0 0 -1
vn 1 0 0
vn 1 0 0
vn 1 0 0
vn 1 0 0
vn -1 0 0
vn -1 0 0
vn -1 0 0
vn -1 0 0
vn 0 0 1
vn 0 0 1
vn 0 0 1
vn 0 0 1
vn 0 0 -1
vn 0 0 -1
vn 1 0 0
vn 1 0 0
vn -1 0 0
vn -1 0 0
vn 0 0 1
vn 0 0 1
g pb_Mesh566212_0
f 3/3/3 2/2/2 1/1/1
f 3/3/3 4/4/4 2/2/2
f 7/7/7 6/6/6 5/5/5
f 7/7/7 8/8/8 6/6/6
f 11/11/11 10/10/10 9/9/9
f 11/11/11 12/12/12 10/10/10
f 15/15/15 14/14/14 13/13/13
f 15/15/15 16/16/16 14/14/14
f 19/19/19 18/18/18 17/17/17
f 19/19/19 20/20/20 18/18/18
f 23/23/23 22/22/22 21/21/21
f 23/23/23 24/24/24 22/22/22
f 26/26/26 21/21/21 25/25/25
f 26/26/26 23/23/23 21/21/21
f 28/28/28 25/25/25 27/27/27
f 28/28/28 26/26/26 25/25/25
f 31/31/31 30/30/30 29/29/29
f 31/31/31 32/32/32 30/30/30
f 35/35/35 34/34/34 33/33/33
f 35/35/35 36/36/36 34/34/34
f 39/39/39 38/38/38 37/37/37
f 39/39/39 40/40/40 38/38/38
f 43/43/43 42/42/42 41/41/41
f 43/43/43 44/44/44 42/42/42
f 32/32/32 31/31/31 45/45/45
f 31/31/31 46/46/46 45/45/45
f 36/36/36 35/35/35 47/47/47
f 35/35/35 48/48/48 47/47/47
f 40/40/40 39/39/39 49/49/49
f 39/39/39 50/50/50 49/49/49
f 44/44/44 43/43/43 51/51/51
f 43/43/43 52/52/52 51/51/51
