g pb_Mesh434676
v -11 2 -11
v -21 2 -11
v -11 2 -21
v -21 2 -21
v -10 2 -10
v -22 2 -10
v -22 2 -22
v -28 -7.09996 -4
v -28.20001 -7.09996 -28.2
v -28.20001 -2.550007 -28.2
v -28 2 -4
v -28.20001 1.999947 -28.2
v -28.20001 -2.550007 -28.2
v -16.10001 -7.09996 -28.1
v -17.75 0 -28.125
v -28.20001 -7.09996 -28.2
v -28.20001 1.999947 -28.2
v -17.75 0 -28.125
v -17.75 2 -28.125
v -28.20001 -2.550007 -28.2
v -25.10001 1.999973 -25.1
v -22 2 -22
v -22 2 -10
v -28.20001 1.999947 -28.2
v -28 2 -4
v -17.75 2 -28.125
v -17.75 2 -26.125
v -16 2 -22
v -16 2 -22
v -10 2 -22
v -4 -2.54998 -4
v -4 -7.09996 -4
v -28 -7.09996 -4
v -28 2 -4
v -4 2 -4
v -7 2 -7
v -28 2 -4
v -4 2 -4
v -10 2 -16
v -4 -7.09996 -28
v -4 -2.125 -20
v -4 -4.82497 -28
v -4 -7.09996 -16
v -4 0 -18
v -4 -2.54998 -4
v -4 -7.09996 -4
v -6 2 -18
v -8.5 2 -23.5
v -9.75 0 -28.125
v -17.75 0 -28.125
v -16.10001 -7.09996 -28.1
v -4 -7.09996 -28
v -4 -4.82497 -28
v -4 -2.54998 -28
v -4 2 -28
v -9.75 2 -28.125
v -9.75 0 -28.125
v -4 -0.2749901 -28
v -4 -2.54998 -28
v -9.75 2 -28.125
v -7 2 -25
v -9.75 2 -26.125
v -5.5 2 -26.5
v -4 2 -28
v -17.75 2 -26.125
v -6 2 -20
v -6 0 -20
v -6 2 -18
v -6 2 -20
v -6 0 -18
v -4 2 -28
v -4 1 -20
v -4 2 -21
v -4 -0.2749901 -28
v -4 -0.5 -20
v -5 2 -20
v -4 2 -21
v -5 2 -20
v -4 2 -21
v -4 1 -20
v -4 2 -4
v -4 2 -17.5
v -4 1.5 -18
v -4.5 2 -18
v -4 2 -17.5
v -4 2 -17.5
v -4.5 2 -18
v -4 1.5 -18
v -4.5 2 -18
v -6 2 -18
v -6 0 -18
v -4 1.5 -18
v -4 0 -18
v -4 -2.54998 -28
v -4 0 -19.75
v -6 0 -18
v -6 0 -20
v -4.375 0 -20
v -4 0 -19.75
v -4 0 -18
v -4.375 0 -20
v -4 -0.5 -20
v -4 0 -19.75
v -4 1 -20
v -4 -0.5 -20
v -4.375 0 -20
v -5 2 -20
v -6 0 -20
v -6 2 -20
vt 11 -11
vt 21 -11
vt 11 -21
vt 21 -21
vt 10 -10
vt 22 -10
vt 22 -22
vt -4.231275 -7.09996
vt -28.4321 -7.09996
vt -28.4321 -2.550007
vt -4.231275 2
vt -28.4321 1.999947
vt 28.41364 -2.500918
vt 16.31323 -7.050878
vt 17.96336 0.04909312
vt 28.41364 -7.050864
vt 28.40166 1.999947
vt 17.95138 0
vt 17.95138 2
vt 28.40166 -2.550007
vt 25.1 -25.09999
vt 21.99999 -22
vt 21.99999 -9.999996
vt 28.2 -28.19999
vt 27.99999 -3.999997
vt 17.74999 -28.12499
vt 17.74999 -26.12499
vt 15.99999 -21.99999
vt 16 -22
vt 10 -22
vt -4 -2.54998
vt -4 -7.09996
vt -28 -7.09996
vt -28 2
vt -4 2
vt 7 -7
vt 28 -4
vt 4 -4
vt 10 -16
vt 28 -7.09996
vt 20 -2.125
vt 28 -4.82497
vt 16 -7.09996
vt 18 0
vt 4 -2.54998
vt 4 -7.09996
vt 6 -18
vt 8.5 -23.5
vt 9.977139 0.1715596
vt 17.97688 0.1711639
vt 16.32674 -6.928735
vt 4.226317 -6.928748
vt 4.226317 -4.6538
vt 4.226317 -2.378853
vt 4.607607 2
vt 10.35897 2
vt 10.35897 -7.632965E-08
vt 4.607607 -0.2749902
vt 4.607607 -2.54998
vt 9.75 -28.125
vt 7 -25
vt 9.75 -26.125
vt 5.5 -26.5
vt 4 -28
vt 17.75 -26.125
vt 6 -20
vt 20 0
vt 18 2
vt 20 2
vt 18 0
vt 28 2
vt 20 1
vt 21 2
vt 28 -0.2749901
vt 20 -0.5
vt 5 -20
vt 4 -21
vt 10.6066 11.8392
vt 12.02081 11.8392
vt 11.31371 10.61446
vt 4 2
vt 17.5 2
vt 18 1.5
vt 4.5 -18
vt 4 -17.5
vt 15.2028 -3.878359
vt 15.9099 -3.878359
vt 15.55635 -4.490731
vt 4.5 2
vt 6 2
vt 6 0
vt 4 1.5
vt 4 0
vt 28 -2.54998
vt 19.75 0
vt 6 -18
vt 6 -20
vt 4.375 -20
vt 4 -19.75
vt 4 -18
vt 14.73422 -5.459823
vt 14.4222 -6.001366
vt 14.28353 -5.459823
vt -4 1
vt -4 -0.5
vt -4.375 0
vt -5 2
vt -6 0
vt -6 2
vn 0 1 0
vn 0 1 0
vn 0 1 0
vn 0 1 0
vn 0 1 0
vn 0 1 0
vn 0 1 0
vn -0.9999658 0 0.008264686
vn -0.9999658 0 0.008264686
vn -0.9999658 0 0.008264686
vn -0.9999658 0 0.008264686
vn -0.9999658 0 0.008264686
vn 0.007934287 -0.000877001 -0.9999677
vn 0.007934287 -0.000877001 -0.9999677
vn 0.007604525 -0.001754002 -0.9999695
vn 0.00826405 0 -0.9999658
vn 0.007176548 0 -0.9999743
vn 0.007176548 0 -0.9999743
vn 0.007176548 0 -0.9999743
vn 0.007176548 0 -0.9999743
vn -5.51379E-06 1 -1.206882E-06
vn -8.613815E-06 1 0
vn -5.040503E-06 1 -7.335955E-07
vn -6.460366E-06 1 -2.153455E-06
vn -3.963778E-06 1 -1.810323E-06
vn -4.359156E-06 1 -1.764277E-06
vn -3.633042E-06 1 0
vn 0 1 0
vn 0 1 0
vn 0 1 0
vn 0 0 1
vn 0 0 1
vn 0 0 1
vn 0 0 1
vn 0 0 1
vn 0 1 0
vn 0 1 0
vn 0 1 0
vn 0 1 0
vn 1 0 0
vn 1 0 0
vn 1 0 0
vn 1 0 0
vn 1 0 0
vn 1 0 0
vn 1 0 0
vn 0 1 0
vn 0 1 0
vn 0.01293289 -0.003608267 -0.9998569
vn 0 -0.00352134 -0.9999938
vn 0.004131779 -0.007216534 -0.9999501
vn 0.01499878 -0.005455864 -0.999835
vn 0.021734 0 -0.9997638
vn 0.021734 0 -0.9997638
vn 0.021734 0 -0.9997638
vn 0.021734 0 -0.9997638
vn 0.02173399 0 -0.9997638
vn 0.021734 0 -0.9997638
vn 0.021734 0 -0.9997638
vn 0 1 0
vn 0 1 0
vn 0 1 0
vn 0 1 0
vn 0 1 0
vn 0 1 0
vn 0 1 0
vn 1 0 0
vn 1 0 0
vn 1 0 0
vn 1 0 0
vn 1 0 0
vn 1 0 0
vn 1 0 0
vn 1 0 0
vn 1 0 0
vn 0 1 0
vn 0 1 0
vn 0.5773503 0.5773503 0.5773503
vn 0.5773503 0.5773503 0.5773503
vn 0.5773503 0.5773503 0.5773503
vn 1 0 0
vn 1 0 0
vn 1 0 0
vn 0 1 0
vn 0 1 0
vn 0.5773503 0.5773503 -0.5773503
vn 0.5773503 0.5773503 -0.5773503
vn 0.5773503 0.5773503 -0.5773503
vn 0 0 -1
vn 0 0 -1
vn 0 0 -1
vn 0 0 -1
vn 0 0 -1
vn 1 0 0
vn 1 0 0
vn 0 1 0
vn 0 1 0
vn 0 1 0
vn 0 1 0
vn 0 1 0
vn 0.5121475 0.3841107 -0.7682213
vn 0.5121475 0.3841107 -0.7682213
vn 0.5121475 0.3841107 -0.7682213
vn 0 0 1
vn 0 0 1
vn 0 0 1
vn 0 0 1
vn 0 0 1
vn 0 0 1
g pb_Mesh434676_0
f 3/3/3 2/2/2 1/1/1
f 3/3/3 4/4/4 2/2/2
f 1/1/1 6/6/6 5/5/5
f 1/1/1 2/2/2 6/6/6
f 2/2/2 7/7/7 6/6/6
f 2/2/2 4/4/4 7/7/7
f 10/10/10 9/9/9 8/8/8
f 11/11/11 10/10/10 8/8/8
f 11/11/11 12/12/12 10/10/10
f 15/15/15 14/14/14 13/13/13
f 14/14/14 16/16/16 13/13/13
f 19/19/19 18/18/18 17/17/17
f 18/18/18 20/20/20 17/17/17
f 23/23/23 22/22/22 21/21/21
f 25/25/25 21/21/21 24/24/24
f 23/23/23 21/21/21 25/25/25
f 21/21/21 26/26/26 24/24/24
f 27/27/27 26/26/26 21/21/21
f 22/22/22 27/27/27 21/21/21
f 28/28/28 27/27/27 22/22/22
f 4/4/4 29/29/29 7/7/7
f 3/3/3 29/29/29 4/4/4
f 3/3/3 30/30/30 29/29/29
f 33/33/33 32/32/32 31/31/31
f 34/34/34 33/33/33 31/31/31
f 34/34/34 31/31/31 35/35/35
f 36/36/36 5/5/5 6/6/6
f 37/37/37 36/36/36 6/6/6
f 38/38/38 36/36/36 37/37/37
f 39/39/39 30/30/30 3/3/3
f 39/39/39 3/3/3 1/1/1
f 5/5/5 39/39/39 1/1/1
f 42/42/42 41/41/41 40/40/40
f 41/41/41 43/43/43 40/40/40
f 44/44/44 43/43/43 41/41/41
f 45/45/45 43/43/43 44/44/44
f 45/45/45 46/46/46 43/43/43
f 47/47/47 39/39/39 5/5/5
f 36/36/36 47/47/47 5/5/5
f 47/47/47 48/48/48 30/30/30
f 47/47/47 30/30/30 39/39/39
f 51/51/51 50/50/50 49/49/49
f 52/52/52 51/51/51 49/49/49
f 52/52/52 49/49/49 53/53/53
f 49/49/49 54/54/54 53/53/53
f 57/57/57 56/56/56 55/55/55
f 58/58/58 57/57/57 55/55/55
f 59/59/59 57/57/57 58/58/58
f 62/62/62 61/61/61 60/60/60
f 61/61/61 63/63/63 60/60/60
f 63/63/63 64/64/64 60/60/60
f 65/65/65 29/29/29 62/62/62
f 29/29/29 30/30/30 62/62/62
f 48/48/48 62/62/62 30/30/30
f 48/48/48 61/61/61 62/62/62
f 47/47/47 66/66/66 48/48/48
f 66/66/66 61/61/61 48/48/48
f 66/66/66 63/63/63 61/61/61
f 69/69/69 68/68/68 67/67/67
f 68/68/68 70/70/70 67/67/67
f 73/73/73 72/72/72 71/71/71
f 72/72/72 74/74/74 71/71/71
f 72/72/72 75/75/75 74/74/74
f 76/76/76 63/63/63 66/66/66
f 77/77/77 64/64/64 63/63/63
f 76/76/76 77/77/77 63/63/63
f 80/80/80 79/79/79 78/78/78
f 83/83/83 82/82/82 81/81/81
f 44/44/44 83/83/83 81/81/81
f 44/44/44 81/81/81 45/45/45
f 84/84/84 47/47/47 36/36/36
f 36/36/36 85/85/85 84/84/84
f 36/36/36 38/38/38 85/85/85
f 88/88/88 87/87/87 86/86/86
f 91/91/91 90/90/90 89/89/89
f 91/91/91 89/89/89 92/92/92
f 92/92/92 93/93/93 91/91/91
f 94/94/94 41/41/41 42/42/42
f 41/41/41 94/94/94 74/74/74
f 75/75/75 41/41/41 74/74/74
f 75/75/75 95/95/95 41/41/41
f 95/95/95 44/44/44 41/41/41
f 98/98/98 97/97/97 96/96/96
f 96/96/96 99/99/99 98/98/98
f 96/96/96 100/100/100 99/99/99
f 103/103/103 102/102/102 101/101/101
f 106/106/106 105/105/105 104/104/104
f 104/104/104 107/107/107 106/106/106
f 109/109/109 108/108/108 106/106/106
f 107/107/107 109/109/109 106/106/106
