g pb_Mesh177494
v 1 0 0
v -5 0 0
v 1 8 1
v -5 7 1
v -5 0 0
v -5 0 -6
v -5 7 1
v -5 7 -6
v -5 0 -6
v 1 0 -6
v -5 7 -6
v 1 8 -6
v 1 0 -6
v 1 0 0
v 1 8 -6
v 1 8 1
v 1 8 1
v -5 7 1
v 1 8 -6
v -5 7 -6
v 1 0 -6
v -5 0 -6
v 1 0 0
v -5 0 0
vt 1 0
vt -5 0
vt 1 8.062258
vt -5 7.06998
vt 0 0
vt -6 0
vt 1 7
vt -6 7
vt 5 0
vt -1 0
vt 5 7
vt -1 8
vt 6 0
vt 0 0
vt 6 8
vt -1 8
vt -2.301586 1
vt 3.781177 1
vt -2.301586 -6
vt 3.781177 -6
vt 1 -6
vt -5 -6
vt 1 0
vt -5 0
vn 0 -0.1240347 0.9922779
vn 0.01178184 -0.1327084 0.9909762
vn 0.01178184 -0.1327084 0.9909762
vn 0.02356368 -0.1413821 0.9896746
vn -1 0 0
vn -1 0 0
vn -1 0 0
vn -1 0 0
vn 0 0 -1
vn 0 0 -1
vn 0 0 -1
vn 0 0 -1
vn 1 0 0
vn 1 0 0
vn 1 0 0
vn 1 0 0
vn -0.164399 0.9863939 0
vn -0.164399 0.9863939 0
vn -0.164399 0.9863939 0
vn -0.164399 0.9863939 0
vn 0 -1 0
vn 0 -1 0
vn 0 -1 0
vn 0 -1 0
g pb_Mesh177494_0
g pb_Mesh177494_1
f 3/3/3 2/2/2 1/1/1
f 3/3/3 4/4/4 2/2/2
f 7/7/7 6/6/6 5/5/5
f 7/7/7 8/8/8 6/6/6
f 11/11/11 10/10/10 9/9/9
f 11/11/11 12/12/12 10/10/10
f 15/15/15 14/14/14 13/13/13
f 15/15/15 16/16/16 14/14/14
f 19/19/19 18/18/18 17/17/17
f 19/19/19 20/20/20 18/18/18
f 23/23/23 22/22/22 21/21/21
f 23/23/23 24/24/24 22/22/22
