g pb_Mesh374732
v -4 -2.88303 0
v -4 -2.88303 -2
v -4 -1 0
v -4 -1 -2
v 0 -1.073044 -2
v 0 -1.073044 0
v 0 1 -2
v 0 1 0
v -1.145309 -0.1199627 -0.1906242
v -2.46946 -0.5193653 -0.201561
v -2.312973 0.4023933 -0.201561
v -1.245907 0.8800373 -0.1906242
v 0 -1.073044 0
v -1.145309 -0.1199627 -0.1906242
v -1.245907 0.8800373 -0.1906242
v 0 1 0
v -1.245907 0.8800373 -1.809376
v 0 -1.073044 -2
v 0 1 -2
v -1.145309 -0.1199627 -1.809376
v -2.312973 0.4023933 -1.798439
v -1.145309 -0.1199627 -1.809376
v -1.245907 0.8800373 -1.809376
v -2.46946 -0.5193653 -1.798439
v -2.312973 0.4023933 -1.798439
v -1.245907 0.8800373 -1.809376
v -2.312973 0.4023933 -0.201561
v -1.245907 0.8800373 -0.1906242
v -1.245907 0.8800373 -1.809376
v 0 1 -2
v -1.245907 0.8800373 -0.1906242
v 0 1 0
v -2.46946 -0.5193653 -0.201561
v -1.145309 -0.1199627 -0.1906242
v -1.145309 -0.1199627 -1.809376
v -2.46946 -0.5193653 -1.798439
v -1.145309 -0.1199627 -0.1906242
v 0 -1.073044 0
v 0 -1.073044 -2
v -1.145309 -0.1199627 -1.809376
v -3.391212 -1.354692 -0.1687508
v -4 -2.88303 0
v -4 -1 0
v -3.212376 -0.2540951 -0.1687508
v -2.46946 -0.5193653 -0.201561
v -3.391212 -1.354692 -0.1687508
v -3.212376 -0.2540951 -0.1687508
v -2.312973 0.4023933 -0.201561
v -3.212376 -0.2540951 -1.831249
v -2.46946 -0.5193653 -1.798439
v -2.312973 0.4023933 -1.798439
v -3.391212 -1.354692 -1.831249
v -4 -1 -2
v -3.391212 -1.354692 -1.831249
v -3.212376 -0.2540951 -1.831249
v -4 -2.88303 -2
v -4 -1 -2
v -3.212376 -0.2540951 -1.831249
v -3.212376 -0.2540951 -0.1687508
v -4 -1 0
v -3.212376 -0.2540951 -1.831249
v -2.312973 0.4023933 -1.798439
v -2.312973 0.4023933 -0.201561
v -3.212376 -0.2540951 -0.1687508
v -3.391212 -1.354692 -0.1687508
v -4 -2.88303 -2
v -4 -2.88303 0
v -3.391212 -1.354692 -1.831249
v -2.46946 -0.5193653 -0.201561
v -3.391212 -1.354692 -1.831249
v -3.391212 -1.354692 -0.1687508
v -2.46946 -0.5193653 -1.798439
vt 0 -2.88303
vt -2 -2.88303
vt 0 -1
vt -2 -1
vt 2 -1.073044
vt 0 -1.073044
vt 2 1
vt 0 1
vt -1.146925 -0.1196956
vt -2.471121 -0.5190986
vt -2.31464 0.402661
vt -1.247519 0.880302
vt 0 -1.07287
vt -1.160938 -0.1196353
vt -1.259916 0.8805264
vt 0 0.9998385
vt 0.9579244 0.8800373
vt -0.3024809 -1.073044
vt -0.3024809 1
vt 0.8584842 -0.1199627
vt 2.295224 0.4041898
vt 1.127509 -0.1181665
vt 1.228102 0.881834
vt 2.451703 -0.5175669
vt 1.946721 -1.798439
vt 0.7776303 -1.809376
vt 1.946721 -0.201561
vt 0.7776303 -0.1906242
vt 1.155827 -1.809376
vt -0.0958422 -2
vt 1.155827 -0.1906242
vt -0.0958422 0
vt -2.514232 -0.201561
vt -1.131157 -0.1906242
vt -1.131157 -1.809376
vt -2.514232 -1.798439
vt -0.8036243 -0.1906242
vt 0.6863748 0
vt 0.6863748 -2
vt -0.8036243 -1.809376
vt -3.222911 -1.354692
vt -3.854654 -2.88303
vt -3.854654 -1
vt -3.050572 -0.2540951
vt -2.458905 -0.5214161
vt -3.381224 -1.356762
vt -3.202543 -0.2561397
vt -2.302554 0.4003657
vt 3.285781 -0.24211
vt 2.542143 -0.5073868
vt 2.385792 0.4143949
vt 3.464463 -1.342732
vt 4.368558 -0.9610672
vt 3.736974 -1.316042
vt 3.563609 -0.2145692
vt 4.368558 -2.842601
vt 3.591915 -2
vt 2.507145 -1.831249
vt 2.507145 -0.1687508
vt 3.591915 0
vt 2.744504 -1.831249
vt 1.630995 -1.798439
vt 1.630995 -0.201561
vt 2.744504 -0.1687508
vt 0.1687508 -2.513459
vt 2 -4.158584
vt 0 -4.158584
vt 1.831249 -2.513459
vt -2.17861 -0.201561
vt -3.422555 -1.831249
vt -3.422555 -0.1687508
vt -2.17861 -1.798439
vn -1 0 0
vn -1 0 0
vn -1 0 0
vn -1 0 0
vn 1 0 0
vn 1 0 0
vn 1 0 0
vn 1 0 0
vn -0.009256055 0.0002456198 0.9999562
vn -0.008704873 0.001477822 0.999961
vn -0.009256055 0.0002456198 0.9999562
vn -0.009807236 -0.0009865823 0.9999514
vn -0.1649661 -0.008987961 0.986119
vn -0.1786918 -0.01797592 0.9837409
vn -0.1649661 -0.008987961 0.986119
vn -0.1512404 0 0.988497
vn -0.1649661 -0.008987961 -0.986119
vn -0.1649661 -0.008987961 -0.986119
vn -0.1512404 0 -0.988497
vn -0.1786918 -0.01797592 -0.9837409
vn -0.009256055 0.0002456198 -0.9999562
vn -0.009256055 0.0002456198 -0.9999562
vn -0.009807236 -0.0009865823 -0.9999514
vn -0.008704873 0.001477822 -0.999961
vn -0.5018181 0.8649732 0
vn -0.2555656 0.9667917 0
vn -0.5018182 0.8649731 0
vn -0.2555656 0.9667917 0
vn -0.2555656 0.9667917 0
vn -0.0958422 0.9953966 0
vn -0.2555656 0.9667917 0
vn -0.0958422 0.9953966 0
vn 0.2887788 -0.9573959 0
vn 0.2887788 -0.9573959 0
vn 0.2887788 -0.9573959 0
vn 0.2887788 -0.9573959 0
vn -0.6396522 -0.7686645 0
vn -0.6396522 -0.7686645 0
vn -0.6396522 -0.7686645 0
vn -0.6396522 -0.7686645 0
vn 0.256198 -0.01992758 0.9661485
vn 0.2671193 0 0.9636635
vn 0.256198 -0.01992758 0.9661485
vn 0.2452766 -0.03985516 0.9686335
vn 0.04165388 -0.006919777 0.9991081
vn 0.04170493 -0.006776663 0.999107
vn 0.04165388 -0.006919777 0.9991081
vn 0.04160283 -0.007062892 0.9991093
vn 0.04165388 -0.006919777 -0.9991081
vn 0.04165388 -0.006919777 -0.9991081
vn 0.04160283 -0.007062892 -0.9991093
vn 0.04170493 -0.006776663 -0.999107
vn 0.256198 -0.01992758 -0.9661485
vn 0.256198 -0.01992758 -0.9661485
vn 0.2452766 -0.03985516 -0.9686335
vn 0.2671193 0 -0.9636635
vn -0.6876156 0.7260749 0
vn -0.6398949 0.7684624 0
vn -0.6398948 0.7684624 0
vn -0.6876156 0.7260749 0
vn -0.6398949 0.7684624 0
vn -0.5018181 0.8649732 0
vn -0.5018182 0.8649731 0
vn -0.6398948 0.7684624 0
vn 0.9290097 -0.3700554 0
vn 0.9290097 -0.3700554 0
vn 0.9290097 -0.3700554 0
vn 0.9290097 -0.3700554 0
vn 0.6715144 -0.7409915 0
vn 0.6715144 -0.7409915 0
vn 0.6715143 -0.7409915 0
vn 0.6715144 -0.7409915 0
g pb_Mesh374732_0
f 3/3/3 2/2/2 1/1/1
f 3/3/3 4/4/4 2/2/2
f 7/7/7 6/6/6 5/5/5
f 7/7/7 8/8/8 6/6/6
f 11/11/11 10/10/10 9/9/9
f 11/11/11 9/9/9 12/12/12
f 15/15/15 14/14/14 13/13/13
f 15/15/15 13/13/13 16/16/16
f 19/19/19 18/18/18 17/17/17
f 18/18/18 20/20/20 17/17/17
f 23/23/23 22/22/22 21/21/21
f 22/22/22 24/24/24 21/21/21
f 27/27/27 26/26/26 25/25/25
f 27/27/27 28/28/28 26/26/26
f 31/31/31 30/30/30 29/29/29
f 31/31/31 32/32/32 30/30/30
f 35/35/35 34/34/34 33/33/33
f 36/36/36 35/35/35 33/33/33
f 39/39/39 38/38/38 37/37/37
f 40/40/40 39/39/39 37/37/37
f 43/43/43 42/42/42 41/41/41
f 43/43/43 41/41/41 44/44/44
f 47/47/47 46/46/46 45/45/45
f 47/47/47 45/45/45 48/48/48
f 51/51/51 50/50/50 49/49/49
f 50/50/50 52/52/52 49/49/49
f 55/55/55 54/54/54 53/53/53
f 54/54/54 56/56/56 53/53/53
f 59/59/59 58/58/58 57/57/57
f 59/59/59 57/57/57 60/60/60
f 63/63/63 62/62/62 61/61/61
f 63/63/63 61/61/61 64/64/64
f 67/67/67 66/66/66 65/65/65
f 66/66/66 68/68/68 65/65/65
f 71/71/71 70/70/70 69/69/69
f 70/70/70 72/72/72 69/69/69
