g pb_Mesh431310
v 0 0 1.875
v -0.75 0 2.625
v 0 1 1.875
v -0.75 1 2.625
v -0.75 0 2.625
v -0.75 0 -10.75
v -0.75 1 2.625
v -0.75 1 -10.75
v -0.75 0 -10.75
v 0 0 -10.75
v -0.75 1 -10.75
v 0 1 -10.75
v 0 0 -10.75
v 0 0 1.875
v 0 1 -10.75
v 0 1 1.875
v 0 1 1.875
v -0.75 1 2.625
v 0 1 -10.75
v -0.75 1 -10.75
v 0 0 -10.75
v -0.75 0 -10.75
v 0 0 1.875
v -0.75 0 2.625
vt -1.325825 0
vt -2.386485 0
vt -1.325825 1
vt -2.386485 1
vt 2.625 0
vt -10.75 0
vt 2.625 1
vt -10.75 1
vt 0.75 0
vt 0 0
vt 0.75 1
vt 0 1
vt 10.75 0
vt -1.875 0
vt 10.75 1
vt -1.875 1
vt 0 1.875
vt 0.75 2.625
vt 0 -10.75
vt 0.75 -10.75
vt 0 -10.75
vt -0.75 -10.75
vt 0 1.875
vt -0.75 2.625
vn 0.7071068 0 0.7071068
vn 0.7071068 0 0.7071068
vn 0.7071068 0 0.7071068
vn 0.7071068 0 0.7071068
vn -1 0 0
vn -1 0 0
vn -1 0 0
vn -1 0 0
vn 0 0 -1
vn 0 0 -1
vn 0 0 -1
vn 0 0 -1
vn 1 0 0
vn 1 0 0
vn 1 0 0
vn 1 0 0
vn 0 1 0
vn 0 1 0
vn 0 1 0
vn 0 1 0
vn 0 -1 0
vn 0 -1 0
vn 0 -1 0
vn 0 -1 0
g pb_Mesh431310_0
f 3/3/3 2/2/2 1/1/1
f 3/3/3 4/4/4 2/2/2
f 7/7/7 6/6/6 5/5/5
f 7/7/7 8/8/8 6/6/6
f 11/11/11 10/10/10 9/9/9
f 11/11/11 12/12/12 10/10/10
f 15/15/15 14/14/14 13/13/13
f 15/15/15 16/16/16 14/14/14
f 19/19/19 18/18/18 17/17/17
f 19/19/19 20/20/20 18/18/18
f 23/23/23 22/22/22 21/21/21
f 23/23/23 24/24/24 22/22/22
