g pb_Mesh187254
v 1.99995 18 -5
v 1.99995 18 0
v 1.99995 24 -5
v 1.99995 24 0
v 1.99995 18 0
v -2.00005 18 0
v 1.99995 24 0
v -2.00005 24 0
v -2.00005 18 0
v -2.00005 18 -5
v -2.00005 24 0
v -2.00005 24 -5
v -2.00005 18 -5
v 1.99995 18 -5
v -2.00005 24 -5
v 1.99995 24 -5
v 1.99995 24 0
v -2.00005 24 0
v 1.99995 24 -5
v -2.00005 24 -5
v 1.99995 18 -5
v -2.00005 18 -5
v 1.99995 18 0
v -2.00005 18 0
v 1.99995 24.0001 -5
v 1.99995 24 0
vt 5 18
vt 0 18
vt 5 24
vt 0 24
vt 1.99995 18
vt -2.00005 18
vt 1.99995 24
vt -2.00005 24
vt 0 18
vt -5 18
vt 0 24
vt -5 24
vt 2.00005 18
vt -1.99995 18
vt 2.00005 24
vt -1.99995 24
vt -1.99995 0
vt 2.00005 0
vt -1.99995 -5
vt 2.00005 -5
vt 1.99995 -5
vt -2.00005 -5
vt 1.99995 0
vt -2.00005 0
vt -5 24.0001
vt 0 24
vn 1 0 0
vn 1 0 0
vn 1 0 0
vn 1 0 0
vn 0 0 1
vn 0 0 1
vn 0 0 1
vn 0 0 1
vn -1 0 0
vn -1 0 0
vn -1 0 0
vn -1 0 0
vn 0 0 -1
vn 0 0 -1
vn 0 0 -1
vn 0 0 -1
vn 0 1 0
vn 0 1 0
vn 0 1 0
vn 0 1 0
vn 0 -1 0
vn 0 -1 0
vn 0 -1 0
vn 0 -1 0
vn -1 0 0
vn -1 0 0
g pb_Mesh187254_0
f 3/3/3 2/2/2 1/1/1
f 3/3/3 4/4/4 2/2/2
g pb_Mesh187254_1
f 7/7/7 6/6/6 5/5/5
f 7/7/7 8/8/8 6/6/6
f 11/11/11 10/10/10 9/9/9
f 11/11/11 12/12/12 10/10/10
f 15/15/15 14/14/14 13/13/13
f 15/15/15 16/16/16 14/14/14
f 19/19/19 18/18/18 17/17/17
f 19/19/19 20/20/20 18/18/18
f 23/23/23 22/22/22 21/21/21
f 23/23/23 24/24/24 22/22/22
f 25/25/25 26/26/26 25/25/25
f 26/26/26 26/26/26 25/25/25
