g pb_Mesh263180
v 3.25 -4 4.999999
v 1.5 -4 5
v 3 1 5
v 0.9999999 1 5
v -31 -4 4.999999
v -31 -4 2.999999
v -31 2 4.999998
v -31 2 2.999998
v 1.5 -4 -11
v 2.062501 -4 -11
v 1.000001 1.184814 -11
v 3 1 -11
v 7 -4 2.999999
v 7 -4 4.999999
v 7 1 2.999999
v 7 1 4.999999
v 3 4 5
v 0.9999999 4 5
v 3 4 3
v 0.9999999 4 3
v 2.062501 -4 -9.000001
v 1.812501 1 -9.000001
v 2.062501 -4 -11
v 3 1 -11
v 1.812501 1 -9.000001
v 1.000001 1.184814 -9.000001
v 3 1 -11
v 1.000001 1.184814 -11
v -29 2 4.999998
v -29 -4 4.999999
v -31 2 4.999998
v -31 -4 4.999999
v -29 -4 -11
v -29 2 -11
v -31 -4 -11
v -31 2 -11
v -29 2 2.999998
v -29 2 4.999998
v -31 2 2.999998
v -31 2 4.999998
v -29 4 -9.000001
v -31 4 -9.000001
v -29 4 -11
v -31 4 -11
v -31 2 -9.000001
v -31 -4 -9.000001
v -31 2 -11
v -31 -4 -11
v 0.3125009 -4 -9.000001
v -16 -4 -9
v -16 1.184814 -9.000002
v 1.000001 1.184814 -9.000001
v -16 -4 -9
v -29 -4 -9.000001
v -29 2 -9.000001
v -16 1.184814 -9.000002
v -16 1.184814 -11
v 1.000001 1.184814 -11
v 1.000001 1.184814 -9.000001
v -16 1.184814 -9.000002
v -16 4 -11
v -16 4 -9
v -16 1.184814 -11
v 1.5 -4 -11
v -16 -4 -11
v -29 2 -11
v -16 -4 -11
v -16 1.184814 -11
v -29 -4 -11
v -14 -4 4.999999
v -14 1 4.999999
v -29 2 2.999998
v -14 -4 2.999998
v -14 1 2.999998
v -29 -4 2.999999
v -29 4 2.999999
v -14 4 2.999998
v -14 4 4.999999
v -29 4 4.999999
v 1.5 -4 3
v 0.3125007 -4 -3.000001
v 1.000001 1 -1.000001
v 0.9999999 1 3
v 0.3125007 -4 -3.000001
v 0.3125009 -4 -9.000001
v 1.000001 1.184814 -9.000001
v 1.000001 1 -1.000001
v 3.000001 1 -1.000001
v 3.25 -4 2.999999
v 3 1 3
v 3.000001 -4 -1.000001
v 1.812501 1 -9.000001
v 3.000001 -4 -1.000001
v 3.000001 1 -1.000001
v 2.062501 -4 -9.000001
v 1.000001 4 -1.000001
v 3.000001 4 -1.000001
v 1.000001 1.184814 -9.000001
v 1.812501 1 -9.000001
v 3.000001 1 -1.000001
v 1.000001 1 -1.000001
v -29 2 -3.000001
v -29 -4 2.999999
v -29 2 2.999998
v -29 -4 -3.000001
v -29 2 -9.000001
v -29 -4 -9.000001
v -31 4 -3.000001
v -29 4 -3.000001
v -29 4 2.999999
v -31 4 2.999999
v -31 -4 -3.000001
v -31 2 -3.000001
v -31 4 -9.000001
v -31 4 -11
v -29 4 -3.000001
v -29 4 2.999999
v -31 4 2.999999
v -31 4 -3.000001
v -29 2 2.999998
v -31 2 2.999998
v -29 4 2.999999
v -31 4 2.999999
v -29 2 -9.000001
v -16 4 -9
v -29 4 -9.000001
v -29 4 -9.000001
v -31 4 -11
v -29 4 -11
v -16 4 -11
v -16 1.184814 -11
v -16 1.184814 -9.000002
v -16 4 -11
v -16 4 -9
v -12 1 2.999999
v -12 -4 2.999999
v -8.749999 1 2.999999
v -6 1 2.999999
v 1.5 -4 3
v -4.0625 1 2.999999
v 0.9999999 1 3
v -14 1 -2.500002
v -14 -4 -2.500002
v -12 1 -2.500001
v -12 -4 -2.500001
v -12 4 2.999999
v -12 4 4.999999
v 1.5 -4 5
v -4 2 4.999999
v -6 2 4.999999
v -12 -4 4.999999
v -8.75 1 4.999999
v -12 1 4.999999
v -12 -4 4.999999
v -14 -4 4.999999
v -14 1 4.999999
v -14 1 2.999998
v -14 -4 2.999998
v -14 1 -2.500002
v -14 -4 -2.500002
v -12 3 2.999999
v -14 3 2.999998
v -12 3 -2.500001
v -14 3 -2.500002
v -12 -4 2.999999
v -12 1 2.999999
v -12 -4 -2.500001
v -12 1 -2.500001
v -29 3 2.999999
v -14 3 2.999998
v -12 3 -2.500001
v -12 3 2.999999
v -29 2 4.999998
v -29 2 2.999998
v -29 3 4.999999
v -29 3 2.999999
v -29 2 4.999998
v -14 3 4.999999
v -29 3 4.999999
v -12 3 4.999999
v -14 3 2.999998
v -14 3 -2.500002
v -14 3 -2.500002
v -12 3 -2.500001
v 3 3 5
v 0.9999999 3 5
v 1.000001 1 -1.000001
v 3.000001 1 -1.000001
v 1.000001 3 -1.000001
v 3.000001 3 -1.000001
v 3.000001 1 -1.000001
v 3 1 3
v 3.000001 3 -1.000001
v 3 3 3
v 0.9999999 1 3
v 1.000001 1 -1.000001
v 0.9999999 3 3
v 1.000001 3 -1.000001
v 7 3 2.999999
v 7 3 4.999999
v -29 4 2.999999
v -14 4 2.999998
v -12 3 2.999999
v -12 4 2.999999
v -29 4 4.999999
v -29 4 2.999999
v -14 4 4.999999
v -29 4 4.999999
v -12 4 4.999999
v 3 4 5
v 0.9999999 4 5
v 1.000001 4 -1.000001
v 3.000001 4 -1.000001
v 3.000001 4 -1.000001
v 3 4 3
v 0.9999999 4 3
v 1.000001 4 -1.000001
v 3 3 5
v 3 4 5
v 3 3 3
v 3 1 3
v 7 3 2.999999
v 7 1 2.999999
v 7 1 4.999999
v 7 3 4.999999
v 3 3 5
v 3 3 3
v 7 3 4.999999
v 7 3 2.999999
v 3.25 -4 2.999999
v 7 -4 2.999999
v 7 -4 4.999999
v -6 3 4.999999
v -8.75 3 4.999999
v -6 4 4.999999
v -8.75 4 4.999999
v -4 3 4.999999
v -4 4 4.999999
v -8.75 4 4.999999
v -8.749999 4 2.999999
v -6 4 4.999999
v -6 4 2.999999
v -4 4 4.999999
v -4 4 2.999999
v -4.0625 3 2.999999
v 0.9999999 1 3
v 0.9999999 3 3
v -4.0625 1 2.999999
v -4 4 2.999999
v 0.9999999 4 3
v -8.749999 1 2.999999
v -8.749999 3 2.999999
v -6 1 2.999999
v -6 3 2.999999
v -12 1 2.999999
v -8.749999 4 2.999999
v -6 4 2.999999
v -4 3 3.000098
v -4 4 4.999999
v -4 3 4.999999
v -4 4 3.000098
v -4 2 3.000098
v -4 2 4.999999
vt 2.217939 -3.999999
vt 0.4679384 -3.999999
vt 1.967939 1.000001
vt -0.03206158 1.000001
vt 4.999999 -4
vt 2.999999 -4
vt 4.999998 2
vt 2.999998 2
vt -1.500019 -3.999996
vt -2.06252 -3.999996
vt -1.00002 1.184818
vt -3.000019 1.000004
vt -2.999999 -4
vt -4.999999 -4
vt -2.999999 1
vt -4.999999 1
vt -3 5
vt -0.9999999 5
vt -3 3
vt -0.9999999 3
vt 9.000001 -4.098006
vt 9.000001 0.9082404
vt 11 -4.098006
vt 11 0.8489395
vt -1.545558 -9.10276
vt -0.7123035 -9.10276
vt -2.70348 -11.12003
vt -0.7123035 -11.08564
vt -30.03206 2
vt -30.03206 -4
vt -32.03206 2
vt -32.03206 -4
vt 29 -4
vt 29 2
vt 31 -4
vt 31 2
vt 29 2.999998
vt 29 4.999998
vt 31 2.999998
vt 31 4.999998
vt 29 -9.000001
vt 31 -9.000001
vt 29 -11
vt 31 -11
vt -9.000001 2
vt -9.000001 -4
vt -11 2
vt -11 -4
vt 0.3125014 -3.999997
vt -16 -3.999997
vt -16 1.184818
vt 1.000001 1.184818
vt -16 -4
vt -29 -4
vt -29 2
vt -16 1.184814
vt 16 -11
vt -1.000001 -11
vt -1.000001 -9.000001
vt 16 -9.000002
vt 16 -11
vt 16 -9
vt 16 1.184816
vt -1.5 -3.999998
vt 16 -3.999998
vt 29 2.000004
vt 16 -3.999996
vt 16 1.184819
vt 29 -3.999996
vt -15.03206 -4
vt -15.03206 0.9999997
vt 29 2
vt 14 -4
vt 14 1
vt 29 -4
vt 29 2.999999
vt 14 2.999998
vt 14 4.999999
vt 29 4.999999
vt 3.234141 -3.942678
vt -2.882244 -3.942678
vt -0.7868223 1.065501
vt 3.137066 1.021134
vt -3.000001 -3.924215
vt -9.000001 -3.924215
vt -9.000001 1.305982
vt -1.000001 1.122771
vt 1.000001 0.8489394
vt -2.999998 -4.157307
vt -2.999999 0.8489394
vt 1.000001 -4.144823
vt 8.636331 1
vt 0.5486768 -4
vt 0.5486768 1
vt 8.599624 -4
vt -1.000001 -1.000001
vt -3.000001 -1.000001
vt -0.7123036 -8.949813
vt -1.545558 -8.949813
vt -2.70348 -0.9454787
vt -0.7532949 -0.9600756
vt 3.000001 2
vt -2.999999 -4
vt -2.999998 2
vt 3.000001 -4
vt 9.000001 2
vt 9.000001 -4
vt 31 -3.000001
vt 29 -3.000001
vt 29 2.999999
vt 31 2.999999
vt -3.000001 -4
vt -3.000001 2
vt -9.000001 4
vt -11 4
vt 3.000001 4
vt -2.999999 4
vt 2.999999 4
vt -3.000001 4
vt -29 2.000002
vt -31 2.000002
vt -29 4.000002
vt -31 4.000002
vt -29 1.999994
vt -16 3.999994
vt -29 3.999994
vt 9.000001 4
vt 31 4
vt 29 4
vt 16 4
vt 11 1.18482
vt 9.000002 1.18482
vt 11 4.000005
vt 9 4.000005
vt 12 0.9999998
vt 12 -4
vt 8.749999 0.9999998
vt 5.999999 0.9999998
vt -1.5 -4
vt 4.062499 0.9999998
vt -1 0.9999998
vt 14 1
vt 14 -4
vt 12 1
vt 12 -4
vt 12 2.999999
vt 12 4.999999
vt 0.4679416 -4
vt -5.032058 2
vt -7.032058 2
vt -13.03206 -4
vt -9.782058 1
vt -13.03206 1
vt -13.03206 -4
vt -15.03206 -4
vt -15.03206 1
vt 2.999998 1
vt 2.999998 -4
vt -2.500002 1
vt -2.500002 -4
vt 12 2.999999
vt 14 2.999998
vt 12 -2.500001
vt 14 -2.500002
vt -2.999999 -4
vt -2.999999 1
vt 2.500001 -4
vt 2.500001 1
vt 29 3.000004
vt 14 3.000004
vt 2.500001 3
vt -2.999999 3
vt 4.999998 2
vt 2.999998 2
vt 4.999999 3
vt 2.999999 3
vt -30.03206 2
vt -15.03206 3
vt -30.03206 3
vt -13.03206 3
vt 2.999998 3
vt -2.500002 3
vt 14 3
vt 12 3
vt 1.96794 3
vt -0.03206003 3
vt -1.000001 1
vt -3.000001 1
vt -1.000001 3
vt -3.000001 3
vt 1.000001 1
vt -2.999999 1
vt 1.000001 3
vt -2.999999 3
vt 3 1
vt -1.000001 1
vt 3 3
vt -1.000001 3
vt -2.999999 3
vt -4.999999 3
vt 29 4
vt 14 4
vt 12 3
vt 12 4
vt 4.999999 4
vt 2.999999 4
vt -15.03206 4
vt -30.03206 4
vt -13.03206 4
vt 1.96794 4
vt -0.03206003 4
vt -1.000001 4
vt -3.000001 4
vt 1.000001 4
vt -2.999999 4
vt 3 4
vt -1.000001 4
vt -4.999999 3
vt -4.999999 4
vt -3 3
vt -3 1
vt -7 3
vt -7 1
vt 5.967941 1
vt 5.967941 3
vt -3 5
vt -3 3
vt -7 4.999999
vt -7 2.999999
vt -3.25 -4
vt -7 -4
vt 5.967942 -3.999999
vt -7.032057 3
vt -9.782058 3
vt -7.032057 4
vt -9.782058 4
vt -5.032058 3
vt -5.032058 4
vt 8.75 4.999999
vt 8.749999 2.999999
vt 6 4.999999
vt 6 2.999999
vt 4 4.999999
vt 4 2.999999
vt 4.062499 3
vt -1 1
vt -1 3
vt 4.062499 1
vt 3.999999 4
vt -1 4
vt 8.749999 1
vt 8.749999 3
vt 5.999999 1
vt 5.999999 3
vt 12 1
vt 8.749999 4
vt 5.999999 4
vt 3.000098 3
vt 4.999999 4
vt 4.999999 3
vt 3.000098 4
vt 3.000098 2
vt 4.999999 2
vn 5.449565E-07 -6.811955E-08 1
vn 3.916875E-07 -2.213885E-08 1
vn 3.916875E-07 -2.213885E-08 1
vn 2.384186E-07 2.384186E-08 1
vn -1 0 0
vn -1 0 0
vn -1 0 0
vn -1 0 0
vn -1.695419E-06 -3.474344E-07 -1
vn -6.046889E-07 -1.239161E-07 -1
vn -6.046889E-07 -1.239161E-07 -1
vn 4.860413E-07 9.960219E-08 -1
vn 1 0 0
vn 1 0 0
vn 1 0 0
vn 1 0 0
vn 0 1 0
vn 0 1 0
vn 0 1 0
vn 0 1 0
vn 0.9987524 0.04993762 0
vn 0.9238227 -0.0546149 0.2520151
vn 0.9238227 -0.0546149 0.2520151
vn 0.848893 -0.1591674 0.5040302
vn 0.2198997 0.9667454 0.1305654
vn 0.1559575 0.9812515 0.06528272
vn 0.1559575 0.9812515 0.06528272
vn 0.09201524 0.9957576 0
vn 0 1.589457E-07 1
vn 0 1.589457E-07 1
vn 0 1.589457E-07 1
vn 0 1.589457E-07 1
vn 0 0 -1
vn 0 0 -1
vn 0 0 -1
vn 0 0 -1
vn 0 1 0
vn 0 1 0
vn 0 1 0
vn 0 1 0
vn 0 1 0
vn 0 1 0
vn 0 1 0
vn 0 1 0
vn -1 0 0
vn -1 0 0
vn -1 0 0
vn -1 0 0
vn 1.182151E-09 1.876553E-07 1
vn 5.846279E-08 3.678721E-07 1
vn 1.182151E-09 1.876553E-07 1
vn -5.609849E-08 7.438591E-09 1
vn 1.1534E-08 1.83936E-07 1
vn -7.335957E-08 0 1
vn 1.1534E-08 1.83936E-07 1
vn 9.642756E-08 3.678721E-07 1
vn 0 1 0
vn 0 1 0
vn 0 1 0
vn 0 1 0
vn 0 1 0
vn 0 1 0
vn 2.804924E-08 -2.731991E-07 -1
vn 2.804924E-08 -2.731991E-07 -1
vn 0 -3.678721E-07 -1
vn -1.1534E-08 -1.83936E-07 -1
vn -1.1534E-08 -1.83936E-07 -1
vn -9.642756E-08 -3.678721E-07 -1
vn 7.335957E-08 0 -1
vn 0 7.947286E-08 1
vn -3.178915E-08 0 1
vn -7.947285E-09 -9.934108E-08 -1
vn -7.947285E-09 -9.934108E-08 -1
vn 3.178914E-08 0 -1
vn -4.768371E-08 -1.986822E-07 -1
vn 0 1 0
vn 0 1 0
vn 0 1 0
vn 0 1 0
vn -0.9872034 -0.02118688 0.09691659
vn -0.9793696 0.05712996 0.1938334
vn -0.9872034 -0.02118688 0.09691659
vn -0.9950372 -0.09950373 -2.075809E-07
vn -0.9910823 0.1332208 0.001559265
vn -0.9913231 0.1314482 -2.954373E-08
vn -0.9910823 0.1332208 0.001559265
vn -0.9908416 0.1349933 0.003118559
vn 0.9984025 0.02496883 -0.03118905
vn 0.9984025 0.02496883 -0.03118905
vn 0.9987524 0.04993767 1.190605E-07
vn 0.9980526 0 -0.06237823
vn 0.9905715 0.02479953 -0.1315382
vn 0.9905715 0.02479953 -0.1315382
vn 0.9891619 0 -0.1468287
vn 0.991981 0.04959905 -0.1162478
vn 0 1 0
vn 0 1 0
vn 0.1108391 0.9871489 -0.004904859
vn 0.2216783 0.9745645 -0.03290536
vn 0.1108391 0.9871489 -0.004904859
vn -1.376608E-09 0.9997333 0.02309565
vn 1 0 0
vn 1 0 0
vn 1 0 0
vn 1 0 0
vn 1 0 0
vn 1 0 0
vn 0 1 0
vn 0 1 0
vn 0 1 0
vn 0 1 0
vn -1 0 0
vn -1 0 0
vn -1 0 0
vn -1 0 0
vn 1 0 0
vn 1 0 0
vn -1 0 0
vn -1 0 0
vn 0 -5.960464E-07 1
vn 0 -5.960464E-07 1
vn 0 -5.960464E-07 1
vn 0 -5.960464E-07 1
vn -2.124253E-08 -3.387607E-07 1
vn -2.124253E-08 -3.387607E-07 1
vn -7.335957E-08 0 1
vn 1 0 0
vn 0 0 -1
vn 0 0 -1
vn 7.335957E-08 6.775215E-07 -1
vn 1 3.387607E-07 0
vn 1 3.387607E-07 0
vn 1 3.387607E-07 0
vn 1 3.387607E-07 0
vn 1.467191E-07 0 -1
vn 2.64292E-08 2.697261E-08 -1
vn -1.333811E-08 1.040372E-07 -1
vn -2.247717E-08 -6.839483E-08 -1
vn 1.295113E-07 -1.28334E-07 -1
vn 1.412851E-07 -1.289227E-07 -1
vn 2.825702E-07 2.825702E-08 -1
vn 1.192093E-07 0 -1
vn 1.192093E-07 0 -1
vn 1.192093E-07 0 -1
vn 1.192093E-07 0 -1
vn 0 1 0
vn 0 1 0
vn -1.32635E-07 1.050628E-07 1
vn -1.459706E-07 1.046122E-07 1
vn 5.550484E-08 2.396801E-08 1
vn 6.598464E-09 -5.550485E-08 1
vn 6.28796E-08 -1.362392E-07 1
vn -1.467191E-07 0 1
vn 0 0 1
vn 0 0 1
vn 0 0 1
vn -1 0 0
vn -1 0 0
vn -1 0 0
vn -1 0 0
vn 0 1 0
vn 0 1 0
vn 0 1 0
vn 0 1 0
vn 1 0 0
vn 1 0 0
vn 1 0 0
vn 1 0 0
vn 3.178914E-08 5.960464E-07 -1
vn -4.768371E-08 0 -1
vn 1 0 0
vn 1 0 0
vn -1 0 0
vn -1 0 0
vn -1 0 0
vn -1 0 0
vn 0 -4.768372E-07 1
vn 0 -4.768372E-07 1
vn 3.178915E-08 -9.536743E-07 1
vn 0 0 1
vn -1 0 0
vn -1 0 0
vn 1.192093E-07 0 -1
vn 1.192093E-07 0 -1
vn 2.384186E-07 0 1
vn 2.384186E-07 0 1
vn 5.960464E-08 0 -1
vn 5.960464E-08 0 -1
vn 5.960464E-08 0 -1
vn 5.960464E-08 0 -1
vn 1 0 1.192093E-07
vn 1 0 1.192093E-07
vn 1 0 1.192093E-07
vn 1 0 1.192093E-07
vn -1 0 -2.086162E-07
vn -1 0 -2.086162E-07
vn -1 0 -2.086162E-07
vn -1 0 -2.086162E-07
vn 1 0 0
vn 1 0 0
vn -4.768371E-08 0 -1
vn -4.768371E-08 0 -1
vn 1.192093E-07 0 -1
vn 1.192093E-07 0 -1
vn -1 0 0
vn -1 0 0
vn 3.178915E-08 0 1
vn 3.178915E-08 0 1
vn 0 0 1
vn 2.384186E-07 0 1
vn 2.384186E-07 0 1
vn 5.960464E-08 0 -1
vn 5.960464E-08 0 -1
vn 1 0 1.192093E-07
vn 1 0 1.192093E-07
vn -1 0 -2.086162E-07
vn -1 0 -2.086162E-07
vn 1 0 1.192093E-07
vn 1 0 1.192093E-07
vn -1.192093E-07 0 -1
vn -1.192093E-07 0 -1
vn -1.192093E-07 0 -1
vn -1.192093E-07 0 -1
vn 1.192093E-07 0 1
vn 1.192093E-07 0 1
vn 0 1 0
vn 0 1 0
vn 0 1 0
vn 0 1 0
vn -2.78155E-08 6.854534E-08 -1
vn 6.357829E-08 0 -1
vn 5.960464E-08 -4.768372E-08 1
vn 1.733953E-07 0 1
vn 6.66905E-08 0 1
vn 1.733953E-07 0 1
vn 6.66905E-08 0 1
vn -2.861023E-07 0 1
vn -2.861023E-07 0 1
vn 0 1 0
vn 0 1 0
vn 0 1 0
vn 0 1 0
vn 0 1 0
vn 0 1 0
vn 2.825702E-07 0 -1
vn 2.825702E-07 0 -1
vn 2.825702E-07 0 -1
vn 2.825702E-07 0 -1
vn 2.843363E-07 -8.830319E-09 -1
vn 2.861023E-07 0 -1
vn 4.00143E-08 0 -1
vn -6.669053E-08 0 -1
vn -1.733954E-07 0 -1
vn -1.733954E-07 0 -1
vn 1.467191E-07 0 -1
vn -6.669053E-08 0 -1
vn -1.733954E-07 0 -1
vn -1 0 0
vn -1 0 0
vn -1 0 0
vn -1 0 0
vn -1 0 0
vn -1 0 0
g pb_Mesh263180_0
g pb_Mesh263180_1
f 3/3/3 2/2/2 1/1/1
f 3/3/3 4/4/4 2/2/2
f 7/7/7 6/6/6 5/5/5
f 7/7/7 8/8/8 6/6/6
f 11/11/11 10/10/10 9/9/9
f 11/11/11 12/12/12 10/10/10
f 15/15/15 14/14/14 13/13/13
f 15/15/15 16/16/16 14/14/14
f 19/19/19 18/18/18 17/17/17
f 19/19/19 20/20/20 18/18/18
f 23/23/23 22/22/22 21/21/21
f 23/23/23 24/24/24 22/22/22
f 27/27/27 26/26/26 25/25/25
f 27/27/27 28/28/28 26/26/26
f 31/31/31 30/30/30 29/29/29
f 31/31/31 32/32/32 30/30/30
f 35/35/35 34/34/34 33/33/33
f 35/35/35 36/36/36 34/34/34
f 39/39/39 38/38/38 37/37/37
f 39/39/39 40/40/40 38/38/38
f 43/43/43 42/42/42 41/41/41
f 43/43/43 44/44/44 42/42/42
f 47/47/47 46/46/46 45/45/45
f 47/47/47 48/48/48 46/46/46
f 51/51/51 50/50/50 49/49/49
f 51/51/51 49/49/49 52/52/52
f 55/55/55 54/54/54 53/53/53
f 55/55/55 53/53/53 56/56/56
f 59/59/59 58/58/58 57/57/57
f 59/59/59 57/57/57 60/60/60
f 62/62/62 61/61/61 43/43/43
f 62/62/62 43/43/43 41/41/41
f 11/11/11 64/64/64 63/63/63
f 64/64/64 65/65/65 63/63/63
f 68/68/68 67/67/67 66/66/66
f 67/67/67 69/69/69 66/66/66
f 29/29/29 30/30/30 70/70/70
f 29/29/29 70/70/70 71/71/71
f 74/74/74 73/73/73 72/72/72
f 73/73/73 75/75/75 72/72/72
f 78/78/78 77/77/77 76/76/76
f 78/78/78 76/76/76 79/79/79
f 82/82/82 81/81/81 80/80/80
f 82/82/82 80/80/80 83/83/83
f 86/86/86 85/85/85 84/84/84
f 86/86/86 84/84/84 87/87/87
f 90/90/90 89/89/89 88/88/88
f 89/89/89 91/91/91 88/88/88
f 94/94/94 93/93/93 92/92/92
f 93/93/93 95/95/95 92/92/92
f 19/19/19 97/97/97 96/96/96
f 19/19/19 96/96/96 20/20/20
f 100/100/100 99/99/99 98/98/98
f 100/100/100 98/98/98 101/101/101
f 104/104/104 103/103/103 102/102/102
f 103/103/103 105/105/105 102/102/102
f 102/102/102 105/105/105 106/106/106
f 105/105/105 107/107/107 106/106/106
f 110/110/110 109/109/109 108/108/108
f 110/110/110 108/108/108 111/111/111
f 109/109/109 41/41/41 42/42/42
f 109/109/109 42/42/42 108/108/108
f 113/113/113 112/112/112 6/6/6
f 113/113/113 6/6/6 8/8/8
f 45/45/45 46/46/46 112/112/112
f 45/45/45 112/112/112 113/113/113
f 114/114/114 47/47/47 45/45/45
f 114/114/114 115/115/115 47/47/47
f 116/116/116 104/104/104 102/102/102
f 116/116/116 117/117/117 104/104/104
f 118/118/118 113/113/113 8/8/8
f 118/118/118 119/119/119 113/113/113
f 122/122/122 121/121/121 120/120/120
f 122/122/122 123/123/123 121/121/121
f 125/125/125 124/124/124 51/51/51
f 125/125/125 126/126/126 124/124/124
f 127/127/127 102/102/102 106/106/106
f 127/127/127 116/116/116 102/102/102
f 119/119/119 45/45/45 113/113/113
f 119/119/119 114/114/114 45/45/45
f 128/128/128 34/34/34 36/36/36
f 128/128/128 129/129/129 34/34/34
f 129/129/129 68/68/68 34/34/34
f 129/129/129 130/130/130 68/68/68
f 133/133/133 132/132/132 131/131/131
f 133/133/133 134/134/134 132/132/132
f 137/137/137 136/136/136 135/135/135
f 137/137/137 138/138/138 136/136/136
f 136/136/136 138/138/138 139/139/139
f 139/139/139 138/138/138 140/140/140
f 140/140/140 141/141/141 139/139/139
f 144/144/144 143/143/143 142/142/142
f 145/145/145 143/143/143 144/144/144
f 146/146/146 77/77/77 78/78/78
f 147/147/147 146/146/146 78/78/78
f 4/4/4 149/149/149 148/148/148
f 149/149/149 150/150/150 148/148/148
f 148/148/148 150/150/150 151/151/151
f 151/151/151 150/150/150 152/152/152
f 152/152/152 153/153/153 151/151/151
f 153/153/153 155/155/155 154/154/154
f 156/156/156 155/155/155 153/153/153
f 159/159/159 158/158/158 157/157/157
f 159/159/159 160/160/160 158/158/158
f 163/163/163 162/162/162 161/161/161
f 163/163/163 164/164/164 162/162/162
f 167/167/167 166/166/166 165/165/165
f 167/167/167 168/168/168 166/166/166
f 169/169/169 74/74/74 72/72/72
f 169/169/169 170/170/170 74/74/74
f 171/171/171 166/166/166 168/168/168
f 171/171/171 172/172/172 166/166/166
f 175/175/175 174/174/174 173/173/173
f 175/175/175 176/176/176 174/174/174
f 178/178/178 177/177/177 156/156/156
f 178/178/178 179/179/179 177/177/177
f 180/180/180 156/156/156 153/153/153
f 180/180/180 178/178/178 156/156/156
f 181/181/181 159/159/159 157/157/157
f 181/181/181 182/182/182 159/159/159
f 183/183/183 144/144/144 142/142/142
f 183/183/183 184/184/184 144/144/144
f 185/185/185 4/4/4 3/3/3
f 185/185/185 186/186/186 4/4/4
f 189/189/189 188/188/188 187/187/187
f 189/189/189 190/190/190 188/188/188
f 193/193/193 192/192/192 191/191/191
f 193/193/193 194/194/194 192/192/192
f 197/197/197 196/196/196 195/195/195
f 197/197/197 198/198/198 196/196/196
f 199/199/199 16/16/16 15/15/15
f 199/199/199 200/200/200 16/16/16
f 201/201/201 170/170/170 169/169/169
f 201/201/201 202/202/202 170/170/170
f 202/202/202 203/203/203 170/170/170
f 202/202/202 204/204/204 203/203/203
f 205/205/205 176/176/176 175/175/175
f 205/205/205 206/206/206 176/176/176
f 207/207/207 179/179/179 178/178/178
f 207/207/207 208/208/208 179/179/179
f 209/209/209 178/178/178 180/180/180
f 209/209/209 207/207/207 178/178/178
f 210/210/210 186/186/186 185/185/185
f 210/210/210 211/211/211 186/186/186
f 212/212/212 190/190/190 189/189/189
f 212/212/212 213/213/213 190/190/190
f 214/214/214 194/194/194 193/193/193
f 214/214/214 215/215/215 194/194/194
f 216/216/216 198/198/198 197/197/197
f 216/216/216 217/217/217 198/198/198
f 215/215/215 218/218/218 194/194/194
f 215/215/215 219/219/219 218/218/218
f 222/222/222 221/221/221 220/220/220
f 222/222/222 223/223/223 221/221/221
f 224/224/224 185/185/185 3/3/3
f 224/224/224 225/225/225 185/185/185
f 228/228/228 227/227/227 226/226/226
f 228/228/228 229/229/229 227/227/227
f 223/223/223 230/230/230 221/221/221
f 223/223/223 231/231/231 230/230/230
f 232/232/232 3/3/3 1/1/1
f 232/232/232 224/224/224 3/3/3
f 180/180/180 153/153/153 152/152/152
f 234/234/234 150/150/150 233/233/233
f 234/234/234 152/152/152 150/150/150
f 180/180/180 152/152/152 234/234/234
f 209/209/209 180/180/180 234/234/234
f 236/236/236 233/233/233 235/235/235
f 236/236/236 234/234/234 233/233/233
f 209/209/209 234/234/234 236/236/236
f 237/237/237 149/149/149 4/4/4
f 237/237/237 4/4/4 186/186/186
f 238/238/238 237/237/237 186/186/186
f 238/238/238 186/186/186 211/211/211
f 239/239/239 146/146/146 147/147/147
f 239/239/239 240/240/240 146/146/146
f 241/241/241 240/240/240 239/239/239
f 241/241/241 242/242/242 240/240/240
f 20/20/20 244/244/244 243/243/243
f 18/18/18 20/20/20 243/243/243
f 247/247/247 246/246/246 245/245/245
f 246/246/246 248/248/248 245/245/245
f 250/250/250 247/247/247 249/249/249
f 247/247/247 245/245/245 249/249/249
f 252/252/252 251/251/251 203/203/203
f 253/253/253 251/251/251 252/252/252
f 254/254/254 253/253/253 252/252/252
f 251/251/251 255/255/255 203/203/203
f 256/256/256 252/252/252 204/204/204
f 254/254/254 252/252/252 256/256/256
f 257/257/257 254/254/254 256/256/256
f 252/252/252 203/203/203 204/204/204
f 260/260/260 259/259/259 258/258/258
f 259/259/259 261/261/261 258/258/258
f 263/263/263 260/260/260 262/262/262
f 260/260/260 258/258/258 262/262/262
