g pb_Mesh-570954
v 1.75 0 2
v -2 0 2
v -0.25 0 0
v -0.25 0.0001220703 -1
v 1.75 0 2
v -0.25 0 0
v 1.75 0.0001220703 1
v 1 0.0002441406 -1
v 3 0.0002441406 1
v 1 0.0003662109 -2.25
v 3 0.0003662109 -0.25
v 6 0.0004882813 -2.25
v 6 0.0004882813 -0.25
v -2 0.0001220703 0.75
v -0.25 0 0
v -2 0 2
v -0.25 0.0001220703 -1.25
v -3 0.0002441406 0.75
v -1 0.0002441406 -1.25
v -3 0.0003662109 -0.75
v -1 0.0003662109 -2.75
v -4.25 0.0004882813 -0.75
v -2.25 0.0004882813 -2.75
v -4.25 0.0006103516 -3.375
v -2.25 0.0006103516 -5.375
v -7 0.0007324219 -3.375
v -5 0.0007324219 -5.375
v -7 0.0008544922 -8
v -5 0.0007324219 -5.375
v -5 0.0009155273 -6
v -4 0.0009765625 -8
v -5 0.0009155273 -6
v -7 0.0008544922 -8
v -4 0.001098633 -6.25
v -5 0.0009155273 -6
v -4 0.0009765625 -8
v -4 0.001098633 -6.25
v -5 0.001037598 -4.25
v -5 0.0009155273 -6
v -2 0.001220703 -6.25
v -5 0.001037598 -4.25
v -4 0.001098633 -6.25
v -3.75 0.001159668 -4.25
v -2 0.001342773 -4
v -3.75 0.001281738 -2
v 1 0.001464844 -4
v -3.75 0.001281738 -2
v -2 0.001342773 -4
v 3 0.001403809 -2
v 1 0.001586914 -6
v 3 0.001525879 -4
v 3 0.001708984 -6
v 3 0.001525879 -4
v 1 0.001586914 -6
v 5 0.001647949 -4
v 3 0.001831055 -8
v 5 0.00177002 -6
v 6 0.001953125 -8
v 6 0.00189209 -6
vt -1.75 2
vt 2 2
vt 0.25 0
vt 0.25 -1
vt -1.75 2
vt 0.25 -3.72529E-09
vt -1.75 1
vt -1 -1
vt -3 1
vt -1 -2.25
vt -3 -0.25
vt -6 -2.25
vt -6 -0.25
vt 2 0.75
vt 0.25 2.724784E-09
vt 2 2
vt 0.25 -1.25
vt 3 0.75
vt 1 -1.25
vt 3 -0.75
vt 1 -2.75
vt 4.25 -0.75
vt 2.25 -2.75
vt 4.25 -3.375
vt 2.25 -5.375
vt 7 -3.375
vt 5 -5.375
vt 7 -8
vt 5 -5.375
vt 5 -6
vt 4 -8
vt 5 -6
vt 7 -8
vt 4 -6.25
vt 5 -6
vt 4 -8
vt 4 -6.25
vt 5 -4.25
vt 5 -6
vt 2 -6.25
vt 5 -4.25
vt 4 -6.25
vt 3.75 -4.25
vt 2 -4
vt 3.75 -2
vt -1 -4
vt 3.75 -2
vt 2 -4
vt -3 -2
vt -1 -6
vt -3 -4
vt -3 -6
vt -3 -4
vt -1 -6
vt -5 -4
vt -3 -8
vt -5 -6
vt -6 -8
vt -6 -6
vn 0 1 0
vn 0 1 0
vn 0 1 0
vn -0.0001220703 1 0.0001220703
vn -0.0001220703 1 0.0001220703
vn -0.0001220703 1 0.0001220703
vn -0.0001220703 1 0.0001220703
vn -9.765625E-05 1 9.765625E-05
vn -9.765625E-05 1 9.765625E-05
vn -9.765625E-05 1 9.765625E-05
vn -9.765625E-05 1 9.765625E-05
vn -3.255209E-05 1 1.220703E-05
vn -4.069011E-05 1 0
vn 0.0001116071 1 9.765625E-05
vn 0.0001116071 1 9.765625E-05
vn 0.0001116071 1 9.765625E-05
vn 0.0001116071 1 9.765625E-05
vn 0.0001424154 1 0.000134786
vn 0.0001627604 1 0.0001627604
vn 8.138021E-05 1 8.138021E-05
vn 8.138021E-05 1 8.138021E-05
vn 9.765625E-05 1 9.765625E-05
vn 9.765625E-05 1 9.765625E-05
vn 4.650298E-05 1 4.650298E-05
vn 4.650298E-05 1 4.650298E-05
vn 4.438921E-05 1 4.438921E-05
vn 4.438921E-05 1 4.438921E-05
vn -0.0001485464 0.9999999 0.0001596812
vn -0.0001485464 0.9999999 0.0001596812
vn -0.0003234863 0.9999999 0.0002929687
vn -4.069011E-05 1 1.017253E-05
vn -4.069011E-05 1 1.017253E-05
vn -4.069011E-05 1 1.017253E-05
vn -0.0002005441 1 -6.975447E-05
vn -0.0002005441 1 -6.975447E-05
vn -0.0002005441 1 -6.975447E-05
vn -0.0002005441 1 -6.975447E-05
vn -0.0002005441 1 -6.975447E-05
vn -0.0002005441 1 -6.975447E-05
vn -7.93457E-05 1 -2.746582E-05
vn -7.93457E-05 1 -2.746582E-05
vn -6.103516E-05 1 0
vn -9.765625E-05 1 -5.493164E-05
vn -9.68812E-05 1 -5.425347E-05
vn -9.68812E-05 1 -5.425347E-05
vn -2.93873E-05 1 2.17579E-05
vn -2.93873E-05 1 2.17579E-05
vn -4.069011E-05 1 -5.086263E-06
vn -1.808449E-05 1 4.860207E-05
vn -3.051758E-05 1 6.103516E-05
vn -3.051758E-05 1 6.103516E-05
vn -6.103516E-05 1 9.155273E-05
vn -3.051758E-05 1 6.103516E-05
vn -3.051758E-05 1 6.103516E-05
vn -6.103516E-05 1 9.155273E-05
vn -3.051758E-05 1 6.103516E-05
vn -3.051758E-05 1 6.103516E-05
vn -8.138021E-05 1 5.086263E-05
vn -0.0001220703 1 3.051758E-05
g pb_Mesh-570954_0
f 3/3/3 2/2/2 1/1/1
f 6/6/6 5/5/5 4/4/4
f 5/5/5 7/7/7 4/4/4
f 4/4/4 7/7/7 8/8/8
f 7/7/7 9/9/9 8/8/8
f 8/8/8 9/9/9 10/10/10
f 9/9/9 11/11/11 10/10/10
f 10/10/10 11/11/11 12/12/12
f 11/11/11 13/13/13 12/12/12
f 16/16/16 15/15/15 14/14/14
f 15/15/15 17/17/17 14/14/14
f 14/14/14 17/17/17 18/18/18
f 17/17/17 19/19/19 18/18/18
f 18/18/18 19/19/19 20/20/20
f 19/19/19 21/21/21 20/20/20
f 20/20/20 21/21/21 22/22/22
f 21/21/21 23/23/23 22/22/22
f 22/22/22 23/23/23 24/24/24
f 23/23/23 25/25/25 24/24/24
f 24/24/24 25/25/25 26/26/26
f 25/25/25 27/27/27 26/26/26
f 26/26/26 29/29/29 28/28/28
f 29/29/29 30/30/30 28/28/28
f 33/33/33 32/32/32 31/31/31
f 36/36/36 35/35/35 34/34/34
f 39/39/39 38/38/38 37/37/37
f 42/42/42 41/41/41 40/40/40
f 41/41/41 43/43/43 40/40/40
f 40/40/40 43/43/43 44/44/44
f 43/43/43 45/45/45 44/44/44
f 48/48/48 47/47/47 46/46/46
f 47/47/47 49/49/49 46/46/46
f 46/46/46 49/49/49 50/50/50
f 49/49/49 51/51/51 50/50/50
f 54/54/54 53/53/53 52/52/52
f 53/53/53 55/55/55 52/52/52
f 52/52/52 55/55/55 56/56/56
f 55/55/55 57/57/57 56/56/56
f 56/56/56 57/57/57 58/58/58
f 57/57/57 59/59/59 58/58/58
