g pb_Mesh314774
v 0 4 0
v -15 4 0
v 0 4 -16
v -15 4 -16
v 0 -0.9999938 0
v -15 -0.9999938 0
v 0 4 0
v -15 4 0
v -22 -0.9999938 0
v -22 -0.9999938 -16
v -22 4 0
v -22 4 -16
v -15 -0.9999938 -16
v 0 -0.9999938 -16
v -15 4 -16
v 0 4 -16
v 0 -0.9999938 -16
v 0 -0.9999938 0
v 0 4 -16
v 0 4 0
v -15 -0.9999938 0
v -15 -0.9999938 -16
v -22 -0.9999938 0
v -22 -0.9999938 -16
v -15 4 2
v -15 -0.9999938 2
v -22 4 2
v -22 -0.9999938 2
v -15 -0.9999938 -20
v -15 4 -20
v -22 -0.9999938 -20
v -22 4 -20
v -15 4 -16
v -15 4 0
v -22 4 -16
v -22 4 0
v -15 -0.9999938 -16
v -15 4 -16
v -15 -0.9999938 -20
v -15 4 -20
v -22 -0.9999938 -20
v -15 -0.9999938 -20
v -15 4 -20
v -22 4 -20
v -22 4 -20
v -22 -0.9999938 -20
v -15 4 0
v -15 -0.9999938 0
v -15 4 2
v -15 -0.9999938 2
v -22 4 2
v -15 4 2
v -15 -0.9999938 2
v -22 -0.9999938 2
v -22 -0.9999938 2
v -22 4 2
vt 0 0
vt 15 0
vt 0 -16
vt 15 -16
vt 0 -0.9999938
vt -15 -0.9999938
vt 0 4
vt -15 4
vt 0 -0.9999938
vt -16 -0.9999938
vt 0 4
vt -16 4
vt 15 -0.9999938
vt 0 -0.9999938
vt 15 4
vt 0 4
vt 16 -0.9999938
vt 0 -0.9999938
vt 16 4
vt 0 4
vt -15 0
vt -15 -16
vt -22 0
vt -22 -16
vt -15 4
vt -15 -0.9999938
vt -22 4
vt -22 -0.9999938
vt 15 -0.9999938
vt 15 4
vt 22 -0.9999938
vt 22 4
vt 15 -16
vt 15 0
vt 22 -16
vt 22 0
vt 16 -0.9999938
vt 16 4
vt 20 -0.9999938
vt 20 4
vt -22 -20
vt -15 -20
vt 15 -20
vt 22 -20
vt -20 4
vt -20 -0.9999938
vt 0 4
vt 0 -0.9999938
vt -2 4
vt -2 -0.9999938
vt 22 2
vt 15 2
vt -15 2
vt -22 2
vt 2 -0.9999938
vt 2 4
vn 0 1 0
vn 0 1 0
vn 0 1 0
vn 0 1 0
vn 0 0 1
vn 0 0 1
vn 0 0 1
vn 0 0 1
vn -1 0 0
vn -1 0 0
vn -1 0 0
vn -1 0 0
vn 0 0 -1
vn 0 0 -1
vn 0 0 -1
vn 0 0 -1
vn 1 0 0
vn 1 0 0
vn 1 0 0
vn 1 0 0
vn 0 -1 0
vn 0 -1 0
vn 0 -1 0
vn 0 -1 0
vn 0 0 1
vn 0 0 1
vn 0 0 1
vn 0 0 1
vn 0 0 -1
vn 0 0 -1
vn 0 0 -1
vn 0 0 -1
vn 0 1 0
vn 0 1 0
vn 0 1 0
vn 0 1 0
vn 1 0 0
vn 1 0 0
vn 1 0 0
vn 1 0 0
vn 0 -1 0
vn 0 -1 0
vn 0 1 0
vn 0 1 0
vn -1 0 0
vn -1 0 0
vn 1 0 0
vn 1 0 0
vn 1 0 0
vn 1 0 0
vn 0 1 0
vn 0 1 0
vn 0 -1 0
vn 0 -1 0
vn -1 0 0
vn -1 0 0
g pb_Mesh314774_0
f 3/3/3 2/2/2 1/1/1
f 3/3/3 4/4/4 2/2/2
g pb_Mesh314774_1
f 7/7/7 6/6/6 5/5/5
f 7/7/7 8/8/8 6/6/6
f 11/11/11 10/10/10 9/9/9
f 11/11/11 12/12/12 10/10/10
f 15/15/15 14/14/14 13/13/13
f 15/15/15 16/16/16 14/14/14
f 19/19/19 18/18/18 17/17/17
f 19/19/19 20/20/20 18/18/18
f 23/23/23 22/22/22 21/21/21
f 23/23/23 24/24/24 22/22/22
f 27/27/27 26/26/26 25/25/25
f 27/27/27 28/28/28 26/26/26
f 31/31/31 30/30/30 29/29/29
f 31/31/31 32/32/32 30/30/30
f 35/35/35 34/34/34 33/33/33
f 35/35/35 36/36/36 34/34/34
f 39/39/39 38/38/38 37/37/37
f 39/39/39 40/40/40 38/38/38
f 41/41/41 22/22/22 24/24/24
f 41/41/41 42/42/42 22/22/22
f 43/43/43 35/35/35 33/33/33
f 43/43/43 44/44/44 35/35/35
f 45/45/45 10/10/10 12/12/12
f 45/45/45 46/46/46 10/10/10
f 49/49/49 48/48/48 47/47/47
f 49/49/49 50/50/50 48/48/48
f 51/51/51 34/34/34 36/36/36
f 51/51/51 52/52/52 34/34/34
f 53/53/53 23/23/23 21/21/21
f 53/53/53 54/54/54 23/23/23
f 55/55/55 11/11/11 9/9/9
f 55/55/55 56/56/56 11/11/11
