g pb_Mesh390468
v 45 0 29
v -4 0 0
v 45 4 29
v -4 4 0
v -4 0 0
v -4 0 -36
v -4 4 0
v -4 4 -36
v -4 0 -36
v 45 0 -7
v -4 4 -36
v 45 4 -7
v 45 0 -7
v 45 0 29
v 45 4 -7
v 45 4 29
v 45 4 29
v -4 4 0
v 45 4 -7
v -4 4 -36
v 45 0 -7
v -4 0 -36
v 45 0 29
v -4 0 0
vt 53.49626 0
vt -3.442307 0
vt 53.49626 4
vt -3.442307 4
vt 0 0
vt -36 0
vt 0 4
vt -36 4
vt 21.77786 0
vt -35.16071 0
vt 21.77786 4
vt -35.16071 4
vt 7 0
vt -29 0
vt 7 4
vt -29 4
vt -45 29
vt 4 0
vt -45 -7
vt 4 -36
vt 45 -7
vt -4 -36
vt 45 29
vt -4 0
vn -0.5093209 0 0.8605767
vn -0.5093209 0 0.8605767
vn -0.5093209 0 0.8605767
vn -0.5093209 0 0.8605767
vn -1 0 0
vn -1 0 0
vn -1 0 0
vn -1 0 0
vn 0.5093209 0 -0.8605767
vn 0.5093209 0 -0.8605767
vn 0.5093209 0 -0.8605767
vn 0.5093209 0 -0.8605767
vn 1 0 0
vn 1 0 0
vn 1 0 0
vn 1 0 0
vn 0 1 0
vn 0 1 0
vn 0 1 0
vn 0 1 0
vn 0 -1 0
vn 0 -1 0
vn 0 -1 0
vn 0 -1 0
g pb_Mesh390468_0
g pb_Mesh390468_1
f 3/3/3 2/2/2 1/1/1
f 3/3/3 4/4/4 2/2/2
f 7/7/7 6/6/6 5/5/5
f 7/7/7 8/8/8 6/6/6
f 11/11/11 10/10/10 9/9/9
f 11/11/11 12/12/12 10/10/10
f 15/15/15 14/14/14 13/13/13
f 15/15/15 16/16/16 14/14/14
f 19/19/19 18/18/18 17/17/17
f 19/19/19 20/20/20 18/18/18
f 23/23/23 22/22/22 21/21/21
f 23/23/23 24/24/24 22/22/22
