g pb_Mesh301778
v 0 0 0
v -21.00002 -2.527239E-05 7.748633E-06
v 0 1 0
v -21.00002 0.9999747 8.583098E-06
v -21.00002 -2.527239E-05 7.748633E-06
v -21.00002 -2.437832E-05 -0.9999923
v -21.00002 0.9999747 8.583098E-06
v -21.00002 0.9999756 -0.9999914
v -21.00002 -2.437832E-05 -0.9999923
v 0 0 -1
v -21.00002 0.9999756 -0.9999914
v 0 1 -1
v 0 0 -1
v 0 0 0
v 0 1 -1
v 0 1 0
v 0 1 0
v -21.00002 0.9999747 8.583098E-06
v 0 1 -1
v -21.00002 0.9999756 -0.9999914
v 0 0 -1
v -21.00002 -2.437832E-05 -0.9999923
v 0 0 0
v -21.00002 -2.527239E-05 7.748633E-06
vt 0 0
vt -21.00002 -2.527239E-05
vt 0 1
vt -21.00002 0.9999747
vt 4.780303E-05 1.478193E-05
vt -0.9999522 1.567601E-05
vt 4.86375E-05 1.000015
vt -0.9999514 1.000016
vt 21.00002 -2.521278E-05
vt -3.689818E-07 -8.344637E-07
vt 21.00002 0.9999748
vt -3.689818E-07 0.9999992
vt 1 0
vt 0 0
vt 1 1
vt 0 1
vt -1.203445E-06 0
vt 21.00002 8.583098E-06
vt -1.203445E-06 -1
vt 21.00002 -0.9999914
vt 0 -1
vt -21.00002 -0.9999923
vt 0 0
vt -21.00002 7.748633E-06
vn 3.689822E-07 0 1
vn 3.888509E-07 -4.172321E-07 1
vn 3.888509E-07 -4.172321E-07 1
vn 4.087195E-07 -8.344643E-07 1
vn -1 -1.907347E-06 -1.90735E-06
vn -1 -2.861022E-06 -9.536769E-07
vn -1 -2.861022E-06 -9.536769E-07
vn -1 -3.814697E-06 -3.410605E-12
vn -3.689818E-07 8.344637E-07 -1
vn -3.888495E-07 4.172318E-07 -1
vn -3.888495E-07 4.172318E-07 -1
vn -4.087171E-07 0 -1
vn 1 0 0
vn 1 0 0
vn 1 0 0
vn 1 0 0
vn -1.203445E-06 1 0
vn -1.182157E-06 1 4.470348E-07
vn -1.182157E-06 1 4.470348E-07
vn -1.16087E-06 1 8.940697E-07
vn 1.160871E-06 -1 0
vn 1.182158E-06 -1 -4.470337E-07
vn 1.182158E-06 -1 -4.470337E-07
vn 1.203446E-06 -1 -8.940674E-07
g pb_Mesh301778_0
g pb_Mesh301778_1
f 3/3/3 2/2/2 1/1/1
f 3/3/3 4/4/4 2/2/2
f 7/7/7 6/6/6 5/5/5
f 7/7/7 8/8/8 6/6/6
f 11/11/11 10/10/10 9/9/9
f 11/11/11 12/12/12 10/10/10
f 15/15/15 14/14/14 13/13/13
f 15/15/15 16/16/16 14/14/14
f 19/19/19 18/18/18 17/17/17
f 19/19/19 20/20/20 18/18/18
f 23/23/23 22/22/22 21/21/21
f 23/23/23 24/24/24 22/22/22
