g pb_Mesh111080
v 0 19 -36
v 0 28.5 -36
v 0 28.5 0
v 0 19 0
v 0 19 0
v -32 14 0
v -32 0 0
v 0 0 0
v -32 14 -36
v 0 19 -36
v 0 0 -36
v -32 0 -36
v 14.25 12.5 -22
v 14.25 12.5 -14
v 14.25 3 -14
v 14.25 3 -22
v 0 0 0
v -32 0 0
v -32 0 -36
v 0 0 -36
v -32 2 -16
v -32 2 -20
v -32 0 -36
v -32 0 0
v -32 8 -16
v -32 14 0
v -32 8 -20
v -32 14 -36
v -36 2 -16
v -36 2 -20
v -32 2 -20
v -32 2 -16
v -10 17.5 -6
v -26 15 -6
v -32 14 0
v 0 19 0
v -10 17.5 -30
v -10 17.5 -6
v 0 19 0
v 0 19 -36
v -26 15 -6
v -26 15 -30
v -32 14 -36
v -32 14 0
v -26 15 -30
v -10 17.5 -30
v 0 19 -36
v -32 14 -36
v 0 19 -36
v 0 19 0
v 0 12.5 -22
v 0 12.5 -14
v 0 0 0
v 0 3 -14
v 0 0 -36
v 0 3 -22
v 0 12.5 -22
v 0 12.5 -14
v 14.25 12.5 -22
v 14.25 12.5 -14
v 0 12.5 -14
v 0 3 -14
v 14.25 12.5 -14
v 14.25 3 -14
v 0 3 -14
v 0 3 -22
v 14.25 3 -14
v 14.25 3 -22
v 0 3 -22
v 0 12.5 -22
v 14.25 3 -22
v 14.25 12.5 -22
v -36 2 -20
v -32 8 -20
v -32 2 -20
v -36 8 -20
vt -36 19
vt -36 28.5
vt 0 28.5
vt 0 19
vt 0 19
vt 32 14
vt 32 0
vt 0 0
vt -32 14
vt 0 19
vt 0 0
vt -32 0
vt -22 12.5
vt -14 12.5
vt -14 3
vt -22 3
vt 0 0
vt 32 0
vt 32 -36
vt 0 -36
vt 16 2
vt 20 2
vt 36 0
vt 0 0
vt 16 8
vt 0 14
vt 20 8
vt 36 14
vt 36 -16
vt 36 -20
vt 32 -20
vt 32 -16
vt -7.178525 -6.193508
vt -23.37266 -6.193508
vt -29.45511 -0.1931897
vt 2.933161 -0.1931897
vt -7.293406 -30
vt -7.293406 -6
vt 2.818469 0
vt 2.818469 -36
vt -23.18026 -6
vt -23.18026 -30
vt -29.26302 -36
vt -29.26302 0
vt -23.37266 -29.80459
vt -7.178525 -29.80459
vt 2.933161 -35.8049
vt -29.45511 -35.8049
vt -36 19
vt 0 19
vt -22 12.5
vt -14 12.5
vt 0 0
vt -14 3
vt -36 0
vt -22 3
vt 0 -22
vt 0 -14
vt 14.25 -22
vt 14.25 -14
vt -9.369433E-07 12.5
vt -9.369433E-07 3
vt -14.25 12.5
vt -14.25 3
vt 0 -14
vt 0 -22
vt -14.25 -14
vt -14.25 -22
vt 0 3
vt 0 12.5
vt 14.25 3
vt 14.25 12.5
vt -36 2
vt -32 8
vt -32 2
vt -36 8
vn -1 0 0
vn -1 0 0
vn -1 0 0
vn -1 0 0
vn 0 0 -1
vn 0 0 -1
vn 0 0 -1
vn 0 0 -1
vn 0 0 1
vn 0 0 1
vn 0 0 1
vn 0 0 1
vn -1 0 1.192093E-07
vn -1 0 1.192093E-07
vn -1 0 1.192093E-07
vn -1 0 1.192093E-07
vn 0 1 0
vn 0 1 0
vn 0 1 0
vn 0 1 0
vn 1 0 0
vn 1 0 0
vn 1 0 0
vn 1 0 0
vn 1 0 0
vn 1 0 0
vn 1 0 0
vn 1 0 0
vn 0 1 0
vn 0 1 0
vn 0 1 0
vn 0 1 0
vn 0.1543687 -0.9879597 -0.01029125
vn 0.1543687 -0.9879597 -0.01029125
vn 0.1543687 -0.9879597 -0.01029125
vn 0.1543687 -0.9879597 -0.01029125
vn 0.1483404 -0.9889364 0
vn 0.1483404 -0.9889364 0
vn 0.1483404 -0.9889364 0
vn 0.1483404 -0.9889364 0
vn 0.164399 -0.9863939 0
vn 0.164399 -0.9863939 0
vn 0.164399 -0.9863939 0
vn 0.164399 -0.9863939 0
vn 0.1543687 -0.9879597 0.01029125
vn 0.1543687 -0.9879597 0.01029125
vn 0.1543687 -0.9879597 0.01029125
vn 0.1543687 -0.9879597 0.01029125
vn -1 0 0
vn -1 0 0
vn -1 0 0
vn -1 0 0
vn -1 0 0
vn -1 0 0
vn -1 0 0
vn -1 0 0
vn 0 -1 0
vn 0 -1 0
vn 0 -1 0
vn 0 -1 0
vn -6.692452E-08 0 -1
vn -6.692452E-08 0 -1
vn -6.692452E-08 0 -1
vn -6.692452E-08 0 -1
vn 0 1 0
vn 0 1 0
vn 0 1 0
vn 0 1 0
vn 0 0 1
vn 0 0 1
vn 0 0 1
vn 0 0 1
vn 0 0 1
vn 0 0 1
vn 0 0 1
vn 0 0 1
g pb_Mesh111080_0
f 3/3/3 2/2/2 1/1/1
f 3/3/3 1/1/1 4/4/4
g pb_Mesh111080_1
f 7/7/7 6/6/6 5/5/5
f 8/8/8 7/7/7 5/5/5
f 11/11/11 10/10/10 9/9/9
f 12/12/12 11/11/11 9/9/9
f 15/15/15 14/14/14 13/13/13
f 16/16/16 15/15/15 13/13/13
f 19/19/19 18/18/18 17/17/17
f 20/20/20 19/19/19 17/17/17
f 23/23/23 22/22/22 21/21/21
f 24/24/24 23/23/23 21/21/21
f 24/24/24 21/21/21 25/25/25
f 26/26/26 24/24/24 25/25/25
f 28/28/28 27/27/27 22/22/22
f 23/23/23 28/28/28 22/22/22
f 26/26/26 25/25/25 27/27/27
f 28/28/28 26/26/26 27/27/27
f 31/31/31 30/30/30 29/29/29
f 32/32/32 31/31/31 29/29/29
f 35/35/35 34/34/34 33/33/33
f 36/36/36 35/35/35 33/33/33
f 39/39/39 38/38/38 37/37/37
f 40/40/40 39/39/39 37/37/37
f 43/43/43 42/42/42 41/41/41
f 44/44/44 43/43/43 41/41/41
f 47/47/47 46/46/46 45/45/45
f 48/48/48 47/47/47 45/45/45
f 51/51/51 50/50/50 49/49/49
f 51/51/51 52/52/52 50/50/50
f 52/52/52 53/53/53 50/50/50
f 52/52/52 54/54/54 53/53/53
f 54/54/54 55/55/55 53/53/53
f 54/54/54 56/56/56 55/55/55
f 56/56/56 49/49/49 55/55/55
f 56/56/56 51/51/51 49/49/49
f 59/59/59 58/58/58 57/57/57
f 59/59/59 60/60/60 58/58/58
f 63/63/63 62/62/62 61/61/61
f 63/63/63 64/64/64 62/62/62
f 67/67/67 66/66/66 65/65/65
f 67/67/67 68/68/68 66/66/66
f 71/71/71 70/70/70 69/69/69
f 71/71/71 72/72/72 70/70/70
f 75/75/75 74/74/74 73/73/73
f 74/74/74 76/76/76 73/73/73
