g pb_Mesh233610
v -4 4 12.0001
v -8 3.999901 12.0001
v -8 3.999901 8.000099
v -4 4 8.000099
v -8 3.999901 4
v -4 4 4
v -8 3.999901 0
v -4 4 0
v -4 4 4
v -4 4 0
v -4 0 0
v -4 0 4
v 0 4 0
v 0 4 4
v 0 0 4
v 0 0 0
v 0 4 0
v -4 4 0
v -4 4 4
v 0 4 4
v 0 0 4
v -4 0 4
v -4 0 0
v 0 0 0
v 0 4 8.000099
v 0 0 8.000099
v -4 0 8.000099
v -4 4 8.000099
v -4 4 4
v -4 0 4
v -4 4 8.000099
v 0 4 8.000099
v -4 4 12.0001
v 0 4 12.0001
v -4 8.000099 30.0001
v 0 8.000099 30.0001
v 0 8.000099 12.0001
v -4 8.000099 12.0001
v 4 8.000099 30.0001
v 4 8.000099 12.0001
v -8.000099 8.000099 12.0001
v -8.000099 8.000099 30.0001
v 0 8.000099 12.0001
v 4 8.000099 12.0001
v 4 4 12.0001
v 0 4 12.0001
v -4 8.000099 12.0001
v -4 4 12.0001
v -8.000099 4 12.0001
v -8.000099 6.00005 12.0001
v -8.000099 8.000099 12.0001
v -4 0 16.5001
v 0 0 16.5001
v 0 0 21.0001
v -4 0 21.0001
v 0 0 25.5001
v -4 0 25.5001
v -4 0 8.000099
v -2 0 8.000099
v 0 0 8.000099
v -4 0 10.0001
v -2 0 10.0001
v -2 0 12.0001
v -4 0 12.0001
v 0 0 10.0001
v 0 0 12.0001
v 0 0 10.0001
v 0 4 12.0001
v 0 0 12.0001
v -4 4 8.000099
v -4 0 10.0001
v -4 4 12.0001
v -4 0 12.0001
v -4 0 8.000099
v 2 0 12.0001
v 0 0 12.0001
v 4 0 12.0001
v 2 0 16.5001
v 2 0 21.0001
v 4 0 16.5001
v 4 0 21.0001
v 2 0 25.5001
v 4 0 25.5001
v -4 0 12.0001
v -6.00005 0 12.0001
v -8.000099 0 12.0001
v -8.000099 2 12.0001
v -8.000099 0 16.5001
v -6.00005 0 16.5001
v -8.000099 0 21.0001
v -6.00005 0 21.0001
v -8.000099 0 25.5001
v -6.00005 0 25.5001
v 0 0 14.2501
v -4 0 14.2501
v 2 0 12.0001
v 2 0 14.2501
v 4 0 12.0001
v 4 0 14.2501
v -8.000099 0 12.0001
v -6.00005 0 12.0001
v -6.00005 0 14.2501
v -8.000099 0 14.2501
v 0 0 27.7501
v -4 0 27.7501
v 0 0 30.0001
v -4 0 30.0001
v 2 0 27.7501
v 2 0 30.0001
v 4 0 27.7501
v 4 0 30.0001
v -6.00005 0 27.7501
v -8.000099 0 27.7501
v -6.00005 0 30.0001
v -8.000099 0 30.0001
v 4 6.00005 30.0001
v 4 4 30.0001
v 4 4 12.0001
v 4 8.000099 12.0001
v 4 8.000099 30.0001
v 4 2 30.0001
v 4 0 30.0001
v 4 0 27.7501
v 4 0 25.5001
v 4 0 21.0001
v 4 0 14.2501
v 4 0 12.0001
v 4 0 16.5001
v -7.000074 6.00005 30.0001
v -8.000099 6.00005 30.0001
v -8.000099 4 30.0001
v -7.000074 4 30.0001
v -8 4 12.5
v -8.000099 6.00005 12.0001
v -8.000099 4 12.0001
v -8 6 12.5
v -8 2 12.5
v -8.000099 2 12.0001
v -8.000099 6.00005 16.5001
v -8.000099 4 17.6251
v -8.000099 6.00005 17.6251
v -8.000099 4 16.5001
v -8.000099 2 17.6251
v -8.000099 2 16.5001
v -8 4 18.5
v -8.000099 6.00005 17.6251
v -8.000099 4 17.6251
v -8 6 18.5
v -8 2 18.5
v -8.000099 2 17.6251
v -8 6 22.5
v -8.000099 4 23.2501
v -8.000099 6.00005 23.2501
v -8 4 22.5
v -8.000099 2 23.2501
v -8 2 22.5
v -8.000099 8.000099 30.0001
v -8.000099 8.000099 12.0001
v -8.000099 6.00005 21.0001
v -8.000099 6.00005 18.7501
v -8.000099 6.00005 14.2501
v -8.000099 6.00005 12.0001
v -8.000099 6.00005 23.2501
v -8.000099 6.00005 25.5001
v -8.000099 6.00005 27.7501
v -8.000099 6.00005 30.0001
v -8.000099 2 12.0001
v -8.000099 0 14.2501
v -8.000099 2 14.2501
v -8.000099 0 16.5001
v -8.000099 2 18.7501
v -8.000099 0 21.0001
v -8.000099 2 21.0001
v -8.000099 2 23.2501
v -8.000099 0 25.5001
v -8.000099 2 25.5001
v -8.000099 0 27.7501
v -8.000099 2 27.7501
v -8.000099 0 30.0001
v -8.000099 2 30.0001
v -8.000099 0 12.0001
v -8 4 24.75
v -8.000099 6.00005 23.2501
v -8.000099 4 23.2501
v -8 6 24.75
v -8 2 24.75
v -8.000099 2 23.2501
v -8 6 28.75
v -8.000099 4 30.0001
v -8.000099 6.00005 30.0001
v -8 4 28.75
v -8.000099 2 30.0001
v -8 2 28.75
v 0 0 30
v 4 8.000099 30.0001
v 0 8.000099 30.0001
v 4 0 30
v -4 0 30
v -4 8.000099 30.0001
v -8 0 30
v -8.000099 8.000099 30.0001
vt 3.999901 12.0001
vt 7.999901 12.0001
vt 7.999901 8.000099
vt 3.999901 8.000099
vt 7.999901 4
vt 3.999901 4
vt 7.999901 0
vt 3.999901 0
vt 0 4
vt -4 4
vt -4 0
vt 0 0
vt 4 4
vt 0 4
vt 0 0
vt 4 0
vt 0 -4
vt 4 -4
vt 4 0
vt 0 0
vt 0 0
vt -4 0
vt -4 -4
vt 0 -4
vt -4.000099 4
vt -4.000099 0
vt 4.000099 0
vt 4.000099 4
vt 0 4
vt 0 0
vt 4 4.000099
vt 0 4.000099
vt 4 8.000099
vt 0 8.000099
vt 4 26.0001
vt 0 26.0001
vt 0 8.000099
vt 4 8.000099
vt -4 26.0001
vt -4 8.000099
vt 8.000099 8.000099
vt 8.000099 26.0001
vt 0 8.000099
vt -4 8.000099
vt -4 4
vt 0 4
vt 4 8.000099
vt 4 4
vt 8.000099 4
vt 8.000099 6.00005
vt 8.000099 8.000099
vt -4 12.5001
vt 0 12.5001
vt 0 17.0001
vt -4 17.0001
vt 0 21.5001
vt -4 21.5001
vt -4 4.000099
vt -2 4.000099
vt 0 4.000099
vt -4 6.000099
vt -2 6.000099
vt -2 8.000099
vt -4 8.000099
vt 0 6.000099
vt 0 8.000099
vt -6.000099 0
vt -8.000099 4
vt -8.000099 0
vt 4.000099 4
vt 6.000099 0
vt 8.000099 4
vt 8.000099 0
vt 4.000099 0
vt -2 0
vt 0 0
vt -4 0
vt 2 12.5001
vt 2 17.0001
vt 4 12.5001
vt 4 17.0001
vt 2 21.5001
vt 4 21.5001
vt 4 0
vt 6.00005 0
vt 8.000099 0
vt 8.000099 2
vt -8.000099 12.5001
vt -6.00005 12.5001
vt -8.000099 17.0001
vt -6.00005 17.0001
vt -8.000099 21.5001
vt -6.00005 21.5001
vt 0 10.2501
vt -4 10.2501
vt 2 8.000099
vt 2 10.2501
vt 4 8.000099
vt 4 10.2501
vt -8.000099 8.000099
vt -6.00005 8.000099
vt -6.00005 10.2501
vt -8.000099 10.2501
vt 0 23.7501
vt -4 23.7501
vt 0 26.0001
vt -4 26.0001
vt 2 23.7501
vt 2 26.0001
vt 4 23.7501
vt 4 26.0001
vt -6.00005 23.7501
vt -8.000099 23.7501
vt -6.00005 26.0001
vt -8.000099 26.0001
vt -26.0001 6.00005
vt -26.0001 4
vt -8.000099 4
vt -8.000099 8.000099
vt -26.0001 8.000099
vt -26.0001 2
vt -26.0001 0
vt -23.7501 0
vt -21.5001 0
vt -17.0001 0
vt -10.2501 0
vt -8.000099 0
vt -12.5001 0
vt 6.513329 6.00005
vt 7.513353 6.00005
vt 7.513353 4
vt 6.513329 4
vt -13.52244 4
vt -13.02254 6.00005
vt -13.02254 4
vt -13.52244 6
vt -13.52244 2
vt -13.02254 2
vt -21.52413 6.00005
vt -22.64913 4
vt -22.64913 6.00005
vt -21.52413 4
vt -22.64913 2
vt -21.52413 2
vt -19.52312 4
vt -18.64822 6.00005
vt -18.64822 4
vt -19.52312 6
vt -19.52312 2
vt -18.64822 2
vt -23.52509 6
vt -24.27519 4
vt -24.27519 6.00005
vt -23.52509 4
vt -24.27519 2
vt -23.52509 2
vt -35.02413 8.000099
vt -17.02413 8.000099
vt -26.02413 6.00005
vt -23.77413 6.00005
vt -19.27413 6.00005
vt -17.02413 6.00005
vt -28.27413 6.00005
vt -30.52413 6.00005
vt -32.77413 6.00005
vt -35.02413 6.00005
vt -17.02413 2
vt -19.27413 0
vt -19.27413 2
vt -21.52413 0
vt -23.77413 2
vt -26.02413 0
vt -26.02413 2
vt -28.27413 2
vt -30.52413 0
vt -30.52413 2
vt -32.77413 0
vt -32.77413 2
vt -35.02413 0
vt -35.02413 2
vt -17.02413 0
vt -25.7735 4
vt -24.2736 6.00005
vt -24.2736 4
vt -25.7735 6
vt -25.7735 2
vt -24.2736 2
vt -28.75064 6
vt -30.00073 4
vt -30.00073 6.00005
vt -28.75064 4
vt -30.00073 2
vt -28.75064 2
vt 0 0.0003719284
vt -4 8.000471
vt 0 8.000471
vt -4 0.0003719284
vt 4 0.0003719284
vt 4 8.000471
vt 8 0.0003719284
vt 8.000099 8.000471
vn -2.479553E-05 1 0
vn -2.479553E-05 1 0
vn -2.479553E-05 1 0
vn -2.479553E-05 1 0
vn -2.479553E-05 1 0
vn -2.479553E-05 1 0
vn -2.479553E-05 1 0
vn -2.479553E-05 1 0
vn 1 0 0
vn 1 0 0
vn 1 0 0
vn 1 0 0
vn -1 0 0
vn -1 0 0
vn -1 0 0
vn -1 0 0
vn 0 -1 0
vn 0 -1 0
vn 0 -1 0
vn 0 -1 0
vn 0 1 0
vn 0 1 0
vn 0 1 0
vn 0 1 0
vn -1 0 0
vn -1 0 0
vn 1 0 0
vn 1 0 0
vn 1 0 0
vn 1 0 0
vn 0 -1 0
vn 0 -1 0
vn 0 -1 0
vn 0 -1 0
vn 0 -1 0
vn 0 -1 0
vn 0 -1 0
vn 0 -1 0
vn 0 -1 0
vn 0 -1 0
vn 0 -1 0
vn 0 -1 0
vn 0 0 1
vn 0 0 1
vn 0 0 1
vn 0 0 1
vn 0 0 1
vn 0 0 1
vn 0 0 1
vn 0 0 1
vn 0 0 1
vn 0 1 0
vn 0 1 0
vn 0 1 0
vn 0 1 0
vn 0 1 0
vn 0 1 0
vn 0 1 0
vn 0 1 0
vn 0 1 0
vn 0 1 0
vn 0 1 0
vn 0 1 0
vn 0 1 0
vn 0 1 0
vn 0 1 0
vn -1 0 0
vn -1 0 0
vn -1 0 0
vn 1 0 0
vn 1 0 0
vn 1 0 0
vn 1 0 0
vn 1 0 0
vn 0 0 1
vn 0 0 1
vn 0 0 1
vn 0 1 0
vn 0 1 0
vn 0 1 0
vn 0 1 0
vn 0 1 0
vn 0 1 0
vn 0 0 1
vn 0 0 1
vn 0 0 1
vn 0 0 1
vn 0 1 0
vn 0 1 0
vn 0 1 0
vn 0 1 0
vn 0 1 0
vn 0 1 0
vn 0 1 0
vn 0 1 0
vn 0 1 0
vn 0 1 0
vn 0 1 0
vn 0 1 0
vn 0 1 0
vn 0 1 0
vn 0 1 0
vn 0 1 0
vn 0 1 0
vn 0 1 0
vn 0 1 0
vn 0 1 0
vn 0 1 0
vn 0 1 0
vn 0 1 0
vn 0 1 0
vn 0 1 0
vn 0 1 0
vn 0 1 0
vn 0 1 0
vn -1 0 0
vn -1 0 0
vn -1 0 0
vn -1 0 0
vn -1 0 0
vn -1 0 0
vn -1 0 0
vn -1 0 0
vn -1 0 0
vn -1 0 0
vn -1 0 0
vn -1 0 0
vn -1 0 0
vn 0 0 -1
vn 0 0 -1
vn 0 0 -1
vn 0 0 -1
vn 1 0 -0.0001984036
vn 1 0 -0.0001984036
vn 1 0 -0.0001984036
vn 1 0 -0.0001984036
vn 1 0 -0.0001984036
vn 1 0 -0.0001984036
vn 1 0 0
vn 1 0 0
vn 1 0 0
vn 1 0 0
vn 1 0 0
vn 1 0 0
vn 1 0 -0.0001133639
vn 1 0 -0.0001133639
vn 1 0 -0.0001133639
vn 1 0 -0.0001133639
vn 1 0 -0.0001133639
vn 1 0 -0.0001133639
vn 1 0 0.0001322254
vn 1 0 0.0001322254
vn 1 0 0.0001322254
vn 1 0 0.0001322254
vn 1 0 0.0001322254
vn 1 0 0.0001322254
vn 1 0 0
vn 1 0 0
vn 1 0 0
vn 1 0 0
vn 1 0 0
vn 1 0 0
vn 1 0 0
vn 1 0 0
vn 1 0 0
vn 1 0 0
vn 1 0 0
vn 1 0 0
vn 1 0 0
vn 1 0 0
vn 1 0 0
vn 1 0 0
vn 1 0 0
vn 1 0 0
vn 1 0 0
vn 1 0 0
vn 1 0 0
vn 1 0 0
vn 1 0 0
vn 1 0 0
vn 1 0 0
vn 1 0 -6.612579E-05
vn 1 0 -6.612579E-05
vn 1 0 -6.612579E-05
vn 1 0 -6.612579E-05
vn 1 0 -6.612579E-05
vn 1 0 -6.612579E-05
vn 1 0 7.933941E-05
vn 1 0 7.933941E-05
vn 1 0 7.933941E-05
vn 1 0 7.933941E-05
vn 1 0 7.933941E-05
vn 1 0 7.933941E-05
vn 0 1.239761E-05 -1
vn 0 1.239761E-05 -1
vn 0 1.239761E-05 -1
vn 0 1.239761E-05 -1
vn 0 1.239761E-05 -1
vn 0 1.239761E-05 -1
vn 0 1.239761E-05 -1
vn 0 1.239761E-05 -1
g pb_Mesh233610_0
f 3/3/3 2/2/2 1/1/1
f 3/3/3 1/1/1 4/4/4
f 5/5/5 3/3/3 4/4/4
f 5/5/5 4/4/4 6/6/6
f 7/7/7 5/5/5 6/6/6
f 7/7/7 6/6/6 8/8/8
g pb_Mesh233610_1
f 11/11/11 10/10/10 9/9/9
f 12/12/12 11/11/11 9/9/9
f 15/15/15 14/14/14 13/13/13
f 16/16/16 15/15/15 13/13/13
f 19/19/19 18/18/18 17/17/17
f 20/20/20 19/19/19 17/17/17
f 23/23/23 22/22/22 21/21/21
f 24/24/24 23/23/23 21/21/21
f 15/15/15 26/26/26 25/25/25
f 14/14/14 15/15/15 25/25/25
f 29/29/29 28/28/28 27/27/27
f 30/30/30 29/29/29 27/27/27
f 20/20/20 32/32/32 31/31/31
f 19/19/19 20/20/20 31/31/31
f 32/32/32 34/34/34 33/33/33
f 31/31/31 32/32/32 33/33/33
f 37/37/37 36/36/36 35/35/35
f 38/38/38 37/37/37 35/35/35
f 37/37/37 40/40/40 39/39/39
f 36/36/36 37/37/37 39/39/39
f 35/35/35 42/42/42 41/41/41
f 38/38/38 35/35/35 41/41/41
f 45/45/45 44/44/44 43/43/43
f 46/46/46 45/45/45 43/43/43
f 46/46/46 43/43/43 47/47/47
f 48/48/48 46/46/46 47/47/47
f 50/50/50 49/49/49 48/48/48
f 47/47/47 50/50/50 48/48/48
f 47/47/47 51/51/51 50/50/50
f 54/54/54 53/53/53 52/52/52
f 54/54/54 52/52/52 55/55/55
f 56/56/56 54/54/54 55/55/55
f 56/56/56 55/55/55 57/57/57
f 59/59/59 22/22/22 58/58/58
f 22/22/22 59/59/59 21/21/21
f 59/59/59 60/60/60 21/21/21
f 63/63/63 62/62/62 61/61/61
f 63/63/63 61/61/61 64/64/64
f 62/62/62 59/59/59 58/58/58
f 62/62/62 58/58/58 61/61/61
f 65/65/65 60/60/60 59/59/59
f 65/65/65 59/59/59 62/62/62
f 66/66/66 65/65/65 62/62/62
f 66/66/66 62/62/62 63/63/63
f 25/25/25 26/26/26 67/67/67
f 67/67/67 69/69/69 68/68/68
f 25/25/25 67/67/67 68/68/68
f 72/72/72 71/71/71 70/70/70
f 72/72/72 73/73/73 71/71/71
f 71/71/71 74/74/74 70/70/70
f 46/46/46 76/76/76 75/75/75
f 75/75/75 77/77/77 45/45/45
f 46/46/46 75/75/75 45/45/45
f 79/79/79 78/78/78 53/53/53
f 79/79/79 53/53/53 54/54/54
f 81/81/81 80/80/80 78/78/78
f 81/81/81 78/78/78 79/79/79
f 82/82/82 79/79/79 54/54/54
f 82/82/82 54/54/54 56/56/56
f 83/83/83 81/81/81 79/79/79
f 83/83/83 79/79/79 82/82/82
f 85/85/85 84/84/84 48/48/48
f 87/87/87 86/86/86 85/85/85
f 48/48/48 87/87/87 85/85/85
f 48/48/48 49/49/49 87/87/87
f 90/90/90 89/89/89 88/88/88
f 90/90/90 91/91/91 89/89/89
f 91/91/91 52/52/52 89/89/89
f 91/91/91 55/55/55 52/52/52
f 92/92/92 91/91/91 90/90/90
f 92/92/92 93/93/93 91/91/91
f 93/93/93 55/55/55 91/91/91
f 93/93/93 57/57/57 55/55/55
f 94/94/94 66/66/66 63/63/63
f 63/63/63 64/64/64 95/95/95
f 94/94/94 63/63/63 95/95/95
f 53/53/53 94/94/94 95/95/95
f 53/53/53 95/95/95 52/52/52
f 97/97/97 96/96/96 66/66/66
f 97/97/97 66/66/66 94/94/94
f 78/78/78 97/97/97 94/94/94
f 78/78/78 94/94/94 53/53/53
f 99/99/99 98/98/98 96/96/96
f 99/99/99 96/96/96 97/97/97
f 80/80/80 99/99/99 97/97/97
f 80/80/80 97/97/97 78/78/78
f 102/102/102 101/101/101 100/100/100
f 102/102/102 100/100/100 103/103/103
f 89/89/89 102/102/102 103/103/103
f 89/89/89 103/103/103 88/88/88
f 95/95/95 64/64/64 101/101/101
f 95/95/95 101/101/101 102/102/102
f 52/52/52 95/95/95 102/102/102
f 52/52/52 102/102/102 89/89/89
f 104/104/104 56/56/56 57/57/57
f 104/104/104 57/57/57 105/105/105
f 106/106/106 104/104/104 105/105/105
f 106/106/106 105/105/105 107/107/107
f 108/108/108 82/82/82 56/56/56
f 108/108/108 56/56/56 104/104/104
f 109/109/109 108/108/108 104/104/104
f 109/109/109 104/104/104 106/106/106
f 110/110/110 83/83/83 82/82/82
f 110/110/110 82/82/82 108/108/108
f 111/111/111 110/110/110 108/108/108
f 111/111/111 108/108/108 109/109/109
f 112/112/112 93/93/93 92/92/92
f 112/112/112 92/92/92 113/113/113
f 114/114/114 112/112/112 113/113/113
f 114/114/114 113/113/113 115/115/115
f 105/105/105 57/57/57 93/93/93
f 105/105/105 93/93/93 112/112/112
f 107/107/107 105/105/105 112/112/112
f 107/107/107 112/112/112 114/114/114
f 118/118/118 117/117/117 116/116/116
f 119/119/119 118/118/118 116/116/116
f 119/119/119 116/116/116 120/120/120
f 123/123/123 122/122/122 121/121/121
f 123/123/123 121/121/121 117/117/117
f 124/124/124 123/123/123 117/117/117
f 125/125/125 124/124/124 117/117/117
f 118/118/118 127/127/127 126/126/126
f 118/118/118 126/126/126 128/128/128
f 118/118/118 128/128/128 125/125/125
f 125/125/125 117/117/117 118/118/118
f 131/131/131 130/130/130 129/129/129
f 132/132/132 131/131/131 129/129/129
f 135/135/135 134/134/134 133/133/133
f 134/134/134 136/136/136 133/133/133
f 138/138/138 135/135/135 137/137/137
f 135/135/135 133/133/133 137/137/137
f 141/141/141 140/140/140 139/139/139
f 140/140/140 142/142/142 139/139/139
f 140/140/140 143/143/143 142/142/142
f 143/143/143 144/144/144 142/142/142
f 147/147/147 146/146/146 145/145/145
f 146/146/146 148/148/148 145/145/145
f 150/150/150 147/147/147 149/149/149
f 147/147/147 145/145/145 149/149/149
f 153/153/153 152/152/152 151/151/151
f 152/152/152 154/154/154 151/151/151
f 152/152/152 155/155/155 154/154/154
f 155/155/155 156/156/156 154/154/154
f 159/159/159 158/158/158 157/157/157
f 159/159/159 160/160/160 158/158/158
f 160/160/160 141/141/141 158/158/158
f 141/141/141 139/139/139 158/158/158
f 139/139/139 161/161/161 158/158/158
f 161/161/161 162/162/162 158/158/158
f 157/157/157 163/163/163 159/159/159
f 157/157/157 164/164/164 163/163/163
f 157/157/157 165/165/165 164/164/164
f 157/157/157 166/166/166 165/165/165
f 169/169/169 168/168/168 167/167/167
f 170/170/170 168/168/168 169/169/169
f 144/144/144 170/170/170 169/169/169
f 170/170/170 144/144/144 143/143/143
f 143/143/143 171/171/171 170/170/170
f 170/170/170 171/171/171 172/172/172
f 173/173/173 172/172/172 171/171/171
f 172/172/172 173/173/173 174/174/174
f 172/172/172 174/174/174 175/175/175
f 176/176/176 175/175/175 174/174/174
f 177/177/177 175/175/175 176/176/176
f 178/178/178 177/177/177 176/176/176
f 179/179/179 177/177/177 178/178/178
f 180/180/180 179/179/179 178/178/178
f 168/168/168 181/181/181 167/167/167
f 184/184/184 183/183/183 182/182/182
f 183/183/183 185/185/185 182/182/182
f 187/187/187 184/184/184 186/186/186
f 184/184/184 182/182/182 186/186/186
f 190/190/190 189/189/189 188/188/188
f 189/189/189 191/191/191 188/188/188
f 189/189/189 192/192/192 191/191/191
f 192/192/192 193/193/193 191/191/191
f 196/196/196 195/195/195 194/194/194
f 195/195/195 197/197/197 194/194/194
f 199/199/199 196/196/196 198/198/198
f 196/196/196 194/194/194 198/198/198
f 201/201/201 199/199/199 200/200/200
f 199/199/199 198/198/198 200/200/200
g pb_Mesh233610_2
