g pb_Mesh321110
v 6 0 -7
v -62 0 -7
v 6 4 -7
v -62 4 -7
v -62 0 -7
v -62 -0.9999938 -16
v -62 4 -7
v -62 4 -16
v -62 -0.9999938 -16
v 6 -0.9999938 -16
v -62 4 -16
v 6 4 -16
v 6 -0.9999938 -16
v 6 0 -7
v 6 4 -16
v 6 4 -7
v 6 4 -7
v -62 4 -7
v 6 4 -16
v -62 4 -16
vt 6 0
vt -62 0
vt 6 4
vt -62 4
vt -7 0
vt -16 -0.9999938
vt -7 4
vt -16 4
vt 62 -0.9999938
vt -6 -0.9999938
vt 62 4
vt -6 4
vt 16 -0.9999938
vt 7 0
vt 16 4
vt 7 4
vt -6 -7
vt 62 -7
vt -6 -16
vt 62 -16
vn 0 0 1
vn 0 0 1
vn 0 0 1
vn 0 0 1
vn -1 0 0
vn -1 0 0
vn -1 0 0
vn -1 0 0
vn 0 0 -1
vn 0 0 -1
vn 0 0 -1
vn 0 0 -1
vn 1 0 0
vn 1 0 0
vn 1 0 0
vn 1 0 0
vn 0 1 0
vn 0 1 0
vn 0 1 0
vn 0 1 0
g pb_Mesh321110_0
g pb_Mesh321110_1
f 3/3/3 2/2/2 1/1/1
f 3/3/3 4/4/4 2/2/2
f 7/7/7 6/6/6 5/5/5
f 7/7/7 8/8/8 6/6/6
f 11/11/11 10/10/10 9/9/9
f 11/11/11 12/12/12 10/10/10
f 15/15/15 14/14/14 13/13/13
f 15/15/15 16/16/16 14/14/14
f 19/19/19 18/18/18 17/17/17
f 19/19/19 20/20/20 18/18/18
