g pb_Mesh316904
v -5.364325E-06 -2 -1.072747E-06
v 3.999994 -2 1.060976E-05
v 0 1 0
v 4 1 0
v 0 1 0
v 4 1 0
v 0 1 1
v 4 1 1
v 0 1 1
v 4 1 1
v 0 2 1
v 4 2 1
v 0 2 1
v 4 2 1
v 0 2 2
v 4 2 2
v 0 2 2
v 4 2 2
v 0 3 2
v 4 3 2
v 0 3 2
v 4 3 2
v 0 3 3
v 4 3 3
v 0 3 3
v 4 3 3
v 0 4 3
v 4 4 3
v 0 4 3
v 4 4 3
v 0 4 4
v 4 4 4
v 3.999994 -2 1.060976E-05
v 3.99999 -2 1.00001
v 4 1 0
v 4 1 1
v 3.999988 -2 2.00001
v 4 2 2
v 4 2 2
v 4 2 1
v 4 1 1
v 3.999985 -2 3.00001
v 4 3 3
v 4 3 3
v 4 3 2
v 3.999982 -2 4.00001
v 4 4 4
v 4 4 4
v 4 4 3
v 0 1 0
v -8.284951E-06 -2 0.9999986
v -5.364325E-06 -2 -1.072747E-06
v 0 1 1
v -1.120558E-05 -2 1.999998
v 0 2 2
v 0 2 1
v -1.41262E-05 -2 2.999998
v 0 3 3
v 0 3 2
v -1.704683E-05 -2 3.999998
v 0 4 4
v 0 4 3
vt 5.364328E-06 -2
vt -3.999994 -2
vt 0 1
vt -4 1
vt 0 0
vt -4 0
vt 0 1
vt -4 1
vt 0 1
vt -4 1
vt 0 2
vt -4 2
vt 0 1
vt -4 1
vt 0 2
vt -4 2
vt 0 2
vt -4 2
vt 0 3
vt -4 3
vt 0 2
vt -4 2
vt 0 3
vt -4 3
vt 0 3
vt -4 3
vt 0 4
vt -4 4
vt 0 3
vt -4 3
vt 0 4
vt -4 4
vt 1.78799E-06 -1.999991
vt -0.999998 -1.999991
vt 1.239777E-05 1.000009
vt -0.9999876 1.000009
vt -1.999999 -1.999987
vt -1.999989 2.000013
vt -2 2
vt -1 2
vt -1 1
vt -2.999998 -1.999988
vt -2.999989 3.000012
vt -3 3
vt -2 3
vt -3.999998 -1.999988
vt -3.999989 4.000012
vt -4 4
vt -3 4
vt 0 1
vt 0.9999986 -2
vt -1.072731E-06 -2
vt 1 1
vt 1.999998 -2
vt 2 2
vt 1 2
vt 2.999998 -2
vt 3 3
vt 2 3
vt 3.999998 -2
vt 4 4
vt 3 4
vn 2.920627E-06 3.575772E-07 -1
vn 1.460314E-06 -1.589505E-06 -1
vn 1.460314E-06 -1.589505E-06 -1
vn 0 -3.536586E-06 -1
vn 0 1 0
vn 0 1 0
vn 0 1 0
vn 0 1 0
vn 0 0 -1
vn 0 0 -1
vn 0 0 -1
vn 0 0 -1
vn 0 1 0
vn 0 1 0
vn 0 1 0
vn 0 1 0
vn 0 0 -1
vn 0 0 -1
vn 0 0 -1
vn 0 0 -1
vn 0 1 0
vn 0 1 0
vn 0 1 0
vn 0 1 0
vn 0 0 -1
vn 0 0 -1
vn 0 0 -1
vn 0 0 -1
vn 0 1 0
vn 0 1 0
vn 0 1 0
vn 0 1 0
vn 1 -2.145756E-06 3.099442E-06
vn 1 -2.662335E-06 1.549721E-06
vn 1 -2.662335E-06 1.549721E-06
vn 1 -3.178914E-06 0
vn 1 -3.139169E-06 2.980229E-06
vn 1 -3.099434E-06 3.099434E-06
vn 1 0 0
vn 1 0 0
vn 1 0 0
vn 1 -3.075593E-06 2.956388E-06
vn 1 -3.051752E-06 3.051752E-06
vn 1 0 0
vn 1 0 0
vn 1 -3.035858E-06 2.940494E-06
vn 1 -3.019964E-06 3.019964E-06
vn 1 0 0
vn 1 0 0
vn -1 2.27488E-06 -1.460314E-06
vn -1 2.27488E-06 -1.460314E-06
vn -1 1.788109E-06 -2.920627E-06
vn -1 2.76165E-06 0
vn -1 2.781524E-06 -2.861012E-06
vn -1 2.801396E-06 -2.801396E-06
vn -1 0 0
vn -1 2.813319E-06 -2.872935E-06
vn -1 2.825242E-06 -2.825242E-06
vn -1 0 0
vn -1 2.833191E-06 -2.880883E-06
vn -1 2.841139E-06 -2.841139E-06
vn -1 0 0
g pb_Mesh316904_0
g pb_Mesh316904_1
f 3/3/3 2/2/2 1/1/1
f 3/3/3 4/4/4 2/2/2
f 7/7/7 6/6/6 5/5/5
f 7/7/7 8/8/8 6/6/6
f 11/11/11 10/10/10 9/9/9
f 11/11/11 12/12/12 10/10/10
f 15/15/15 14/14/14 13/13/13
f 15/15/15 16/16/16 14/14/14
f 19/19/19 18/18/18 17/17/17
f 19/19/19 20/20/20 18/18/18
f 23/23/23 22/22/22 21/21/21
f 23/23/23 24/24/24 22/22/22
f 27/27/27 26/26/26 25/25/25
f 27/27/27 28/28/28 26/26/26
f 31/31/31 30/30/30 29/29/29
f 31/31/31 32/32/32 30/30/30
f 35/35/35 34/34/34 33/33/33
f 35/35/35 36/36/36 34/34/34
f 36/36/36 37/37/37 34/34/34
f 36/36/36 38/38/38 37/37/37
f 41/41/41 40/40/40 39/39/39
f 38/38/38 42/42/42 37/37/37
f 38/38/38 43/43/43 42/42/42
f 39/39/39 45/45/45 44/44/44
f 43/43/43 46/46/46 42/42/42
f 43/43/43 47/47/47 46/46/46
f 44/44/44 49/49/49 48/48/48
f 52/52/52 51/51/51 50/50/50
f 51/51/51 53/53/53 50/50/50
f 51/51/51 54/54/54 53/53/53
f 54/54/54 55/55/55 53/53/53
f 55/55/55 56/56/56 53/53/53
f 54/54/54 57/57/57 55/55/55
f 57/57/57 58/58/58 55/55/55
f 58/58/58 59/59/59 55/55/55
f 57/57/57 60/60/60 58/58/58
f 60/60/60 61/61/61 58/58/58
f 61/61/61 62/62/62 58/58/58
