g pb_Mesh246852
v 0.25 -4.75 45.5
v -10.75 -4.75 45.5
v 0.25 0 45.5
v -10.75 0 45.5
v -10.75 -4.75 45.5
v -10.75 -4.75 43.5
v -10.75 0 45.5
v -10.75 0 43.5
v -10.75 -4.75 43.5
v 0.25 -4.75 43.5
v -10.75 0 43.5
v 0.25 0 43.5
v 2.25 -4.75 41.75
v 2.25 -4.75 45.5
v 2.25 0 41.75
v 2.25 0 45.5
v 0.25 0 45.5
v -10.75 0 45.5
v 0.25 0 43.5
v -10.75 0 43.5
v 0 0 -3
v 0 -4.75 -3
v 0.75 0 -3
v 0.75 -4.75 -3
v 2.25 -4.75 45.5
v 2.25 0 45.5
v 2.25 0 45.5
v 2.25 0 41.75
v 0.25 0 43.5
v 0.25 -4.75 43.5
v 0 0 28.625
v 0 -4.75 28.625
v 2.125 0 27.75
v 0 0 28.625
v 2.25 -4.75 41.75
v 2.25 0 41.75
v 2.125 -4.75 27.75
v 2.125 0 27.75
v 2.125 0 26.625
v 0 0 26.625
v 2.125 -4.75 27.75
v 2.125 0 27.75
v 2.125 -4.75 26.625
v 2.125 0 26.625
v -22.125 0 28.875
v -22.125 0 26.875
v -20.125 0 28.75
v 0 -4.75 26.625
v 0 0 26.625
v -22.125 -4.5 26.875
v -22.125 0 26.875
v -25.625 -4.5 27.875
v -25.625 -4.5 25.875
v -25.625 0 25.875
v -25.625 0 27.875
v -22.125 -4.5 24.875
v -22.125 0 24.875
v -25.625 -4.5 24.875
v -25.625 0 24.875
v -22.125 0 28.875
v -22.125 -4.5 28.875
v -25.625 0 28.875
v -25.625 -4.5 28.875
v -25.625 0 25.875
v -25.625 0 27.875
v -22.125 0 28.875
v -22.125 -4.5 28.875
v -22.125 0 28.875
v -22.125 -4.5 28.875
v -22.125 -4.5 28.875
v -22.125 0 28.875
v -22.125 0 28.875
v -25.625 0 28.875
v -22.125 0 28.875
v -22.125 0 28.875
v -25.625 0 28.875
v -25.625 -4.5 28.875
v -25.625 0 28.875
v -22.125 -4.5 26.875
v -22.125 0 26.875
v -22.125 -4.5 24.875
v -22.125 0 24.875
v -22.125 0 24.875
v -25.625 0 24.875
v -25.625 0 24.875
v -25.625 -4.5 24.875
v 0 -4.75 28.625
v -20.125 -4.5 28.75
v 0 0 28.625
v -20.125 0 28.75
v -20.125 -4.5 28.75
v -22.125 -4.5 28.875
v -20.125 0 28.75
v -22.125 0 28.875
v 0 0 26.625
v 0 -4.75 26.625
v 0 0 18.5
v 0 -4.75 18.5
v 2.125 0 18.5
v 0 0 18.5
v 2.125 -4.75 18.5
v 2.125 0 18.5
v 0 0 11
v 0 -4.75 11
v 0 0 5
v 0 -4.75 5
v 2.125 0 11
v 0 0 11
v 2.125 0 1
v 0 0 5
v 2.125 -4.75 11
v 2.125 0 11
v 2.125 -4.75 1
v 2.125 0 1
v -1.75 -0.07000017 4
v -1.75 -4.57 4
v -1.75 0 0
v -1.75 -4.75 0
v 1.75 0 0
v 0 0 0
v 2.125 -4.75 1
v 2.125 0 1
v 1.75 -4.75 0
v 1.75 0 0
v 0 0 5
v 0 -4.75 5
v -1.75 -0.07000017 4
v -1.75 -4.57 4
v 0 0 5
v -1.75 0 0
v -1.75 -0.07000017 4
v -1.75 -4.75 -3
v -1.75 0 -3
v -1.75 0 0
v -1.75 -4.75 0
v -3.75 0 0
v -3.75 -4.75 0
v -3.75 -4.75 -3
v -3.75 0 -3
v -11.75 0 -2
v -11.75 -4.75 0
v -11.75 0 0
v -11.75 -4.75 -2
v -3.75 -4.75 -2
v -3.75 -4.75 -3
v -3.75 0 -3
v -3.75 0 -2
v 0 0 -2
v 2.125 0 -2
v 0 0 -3
v 0.75 0 -3
v 2.125 0 -2
v 1.75 -4.75 0
v 1.75 0 0
v 2.125 -4.75 -2
v 0.75 0 -3
v 2.125 -4.75 -2
v 2.125 0 -2
v 0.75 -4.75 -3
v -1.75 0 -3
v -1.75 0 -2
v -1.75 0 0
v -3.75 0 -3
v -3.75 0 -2
v -3.75 0 0
v -3.75 -4.75 -2
v -3.75 0 -2
v -11.75 -4.75 -2
v -11.75 0 -2
v -11.75 0 0
v -11.75 -4.75 0
v -11.75 0 -2
v -11.75 0 0
v -11.75 0 -2
v -11.75 0 -5
v -11.75 -4.75 -5
v -11.75 -4.75 -2
v -11.75 0 -5
v -19.75 0 -5
v -19.75 -4.75 -5
v -11.75 -4.75 -5
v 2.125 -4.75 18.5
v 0 0 18.5
v 0 -4.75 18.5
v 2.125 0 18.5
vt 0.25 -4.75
vt -10.75 -4.75
vt 0.25 0
vt -10.75 0
vt 45.5 -4.75
vt 43.5 -4.75
vt 45.5 0
vt 43.5 0
vt 10.75 -4.75
vt -0.25 -4.75
vt 10.75 0
vt -0.25 0
vt -41.75 -4.75
vt -45.5 -4.75
vt -41.75 0
vt -45.5 0
vt -0.25 45.5
vt 10.75 45.5
vt -0.25 43.5
vt 10.75 43.5
vt 0 0
vt 0 -4.75
vt -0.75 0
vt -0.75 -4.75
vt 2.25 -4.75
vt 2.25 0
vt -2.25 45.5
vt -2.25 41.75
vt 43.49806 0
vt 43.49806 -4.75
vt 28.62096 0
vt 28.62096 -4.75
vt -2.125 27.75
vt 0 28.625
vt -41.76842 -4.75
vt -41.76842 0
vt -27.76787 -4.75
vt -27.76787 0
vt -2.125 26.625
vt 0 26.625
vt -27.75 -4.75
vt -27.75 0
vt -26.625 -4.75
vt -26.625 0
vt 22.125 28.875
vt 22.125 26.875
vt 20.125 28.75
vt 0.3008283 -4.75
vt 0.3008283 0
vt 22.42724 -4.5
vt 22.42724 0
vt 27.875 -4.5
vt 25.875 -4.5
vt 25.875 0
vt 27.875 0
vt 22.125 -4.5
vt 22.125 0
vt 25.625 -4.5
vt 25.625 0
vt -22.125 0
vt -22.125 -4.5
vt -25.625 0
vt -25.625 -4.5
vt 25.625 25.875
vt 25.625 27.875
vt 0 0
vt 0 0
vt 0 0
vt 0 0
vt 0 0
vt 0 0
vt 22.125 28.875
vt 25.625 28.875
vt 22.125 28.875
vt 22.125 28.875
vt 25.625 28.875
vt 28.875 -4.5
vt 28.875 0
vt -26.875 -4.5
vt -26.875 0
vt -24.875 -4.5
vt -24.875 0
vt 22.125 24.875
vt 25.625 24.875
vt 24.875 0
vt 24.875 -4.5
vt -0.1777916 -4.75
vt -20.30318 -4.5
vt -0.1777916 0
vt -20.30318 0
vt -21.87918 -4.5
vt -23.88309 -4.5
vt -21.87918 0
vt -23.88309 0
vt 26.625 0
vt 26.625 -4.75
vt 18.5 0
vt 18.5 -4.75
vt -2.125 18.5
vt 0 18.5
vt -18.5 -4.75
vt -18.5 0
vt 11 0
vt 11 -4.75
vt 5 0
vt 5 -4.75
vt -2.125 11
vt 0 11
vt -2.125 1
vt 0 5
vt -11 -4.75
vt -11 0
vt -1 -4.75
vt -1 0
vt 4 -0.07000017
vt 4 -4.57
vt 0 0
vt 0 -4.75
vt -1.75 0
vt 0 0
vt -1.682467 -4.75
vt -1.682467 0
vt -0.614466 -4.75
vt -0.614466 0
vt 2.480695 0
vt 2.480695 -4.75
vt 0.4651303 -0.07000017
vt 0.4651303 -4.57
vt 0 5
vt 1.75 0
vt 1.75 4
vt 1.75 -4.75
vt 1.75 0
vt -1.75 0
vt -1.75 -4.75
vt -3.75 0
vt -3.75 -4.75
vt 3.75 -4.75
vt 3.75 0
vt 2 0
vt 0 -4.75
vt 0 0
vt 2 -4.75
vt -2 -4.75
vt -3 -4.75
vt -3 0
vt -2 0
vt 0 -2
vt -2.125 -2
vt 0 -3
vt -0.75 -3
vt 1.073667 0
vt -0.6463894 -4.75
vt -0.6463894 0
vt 1.073667 -4.75
vt 2.510829 0
vt 1.073667 -4.75
vt 1.073667 0
vt 2.510829 -4.75
vt 1.75 -3
vt 1.75 -2
vt 1.75 0
vt 3.75 -3
vt 3.75 -2
vt 3.75 0
vt 3.75 -4.75
vt 3.75 0
vt 11.75 -4.75
vt 11.75 0
vt -11.75 0
vt -11.75 -4.75
vt 11.75 -2
vt 11.75 0
vt 2 0
vt 5 0
vt 5 -4.75
vt 2 -4.75
vt 11.75 0
vt 19.75 0
vt 19.75 -4.75
vt 11.75 -4.75
vt -2.125 -4.75
vt 0 0
vt 0 -4.75
vt -2.125 0
vn 0 0 1
vn 0 0 1
vn 0 0 1
vn 0 0 1
vn -1 0 0
vn -1 0 0
vn -1 0 0
vn -1 0 0
vn 0 0 -1
vn 0 0 -1
vn 0 0 -1
vn 0 0 -1
vn 1 0 0
vn 1 0 0
vn 1 0 0
vn 1 0 0
vn 0 1 0
vn 0 1 0
vn 0 1 0
vn 0 1 0
vn 0 0 -1
vn 0 0 -1
vn 0 0 -1
vn 0 0 -1
vn 0 0 1
vn 0 0 1
vn 0 1 0
vn 0 1 0
vn -0.9998588 0 0.01680435
vn -0.9998588 0 0.01680435
vn -0.9998588 0 0.01680435
vn -0.9998588 0 0.01680435
vn 0 1 0
vn 0 1 0
vn 0.9999602 0 -0.008928216
vn 0.9999602 0 -0.008928216
vn 0.9999602 0 -0.008928216
vn 0.9999602 0 -0.008928216
vn 0 1 0
vn 0 1 0
vn 1 0 0
vn 1 0 0
vn 1 0 0
vn 1 0 0
vn 0 1 0
vn 0 1 0
vn 0 1 0
vn -0.01129871 0 -0.9999362
vn -0.01129871 0 -0.9999362
vn -0.01129871 0 -0.9999362
vn -0.01129871 0 -0.9999362
vn -1 0 0
vn -1 0 0
vn -1 0 0
vn -1 0 0
vn 0 0 -1
vn 0 0 -1
vn 0 0 -1
vn 0 0 -1
vn 0 0 1
vn 0 0 1
vn 0 0 1
vn 0 0 1
vn 0 1 0
vn 0 1 0
vn 0 0 0
vn 0 0 0
vn 0 0 0
vn 0 0 0
vn 0 0 0
vn 0 0 0
vn 0 0.5 0
vn 0 0.5 0
vn 0 0.5 0
vn 0 0 0
vn 0 0.5 0
vn -1 0 0
vn -1 0 0
vn 1 0 0
vn 1 0 0
vn 1 0 0
vn 1 0 0
vn 0 1 0
vn 0 1 0
vn -1 0 0
vn -1 0 0
vn 0.00621106 0 0.9999807
vn 0.00621106 0 0.9999807
vn 0.00621106 0 0.9999807
vn 0.00621106 0 0.9999807
vn 0.06237829 0 0.9980526
vn 0.06237829 0 0.9980526
vn 0.06237829 0 0.9980526
vn 0.06237829 0 0.9980526
vn -1 0 0
vn -1 0 0
vn -1 0 0
vn -1 0 0
vn 0 1 0
vn 0 1 0
vn 1 0 0
vn 1 0 0
vn -1 0 0
vn -1 0 0
vn -1 0 0
vn -1 0 0
vn 0 1 0
vn 0 1 0
vn 0 1 0
vn 0 1 0
vn 1 0 0
vn 1 0 0
vn 1 0 0
vn 1 0 0
vn -1 0 0
vn -1 0 0
vn -1 0 0
vn -1 0 0
vn 0 1 0
vn 0 1 0
vn 0.9363292 0 -0.3511234
vn 0.9363292 0 -0.3511234
vn 0.9363292 0 -0.3511234
vn 0.9363292 0 -0.3511234
vn -0.496139 0 0.8682432
vn -0.496139 0 0.8682432
vn -0.496139 0 0.8682432
vn -0.496139 0 0.8682432
vn -0.02496506 0.9992999 0.008737771
vn -0.02496506 0.9992999 0.008737771
vn -0.04993011 0.9985998 0.01747554
vn 0 0 -1
vn 0 0 -1
vn 0 0 1
vn 0 0 1
vn 0 0 1
vn 0 0 1
vn 0 0 -1
vn 0 0 -1
vn 1 0 0
vn 1 0 0
vn 1 0 0
vn 1 0 0
vn -1 0 0
vn -1 0 0
vn -1 0 0
vn -1 0 0
vn 0 1 0
vn 0 1 0
vn 0 1 0
vn 0 1 0
vn 0.9828721 0 0.1842885
vn 0.9828721 0 0.1842885
vn 0.9828721 0 0.1842885
vn 0.9828721 0 0.1842885
vn 0.5881717 0 -0.8087361
vn 0.5881717 0 -0.8087361
vn 0.5881717 0 -0.8087361
vn 0.5881717 0 -0.8087361
vn 0 1 0
vn 0 1 0
vn 0 1 0
vn 0 1 0
vn 0 1 0
vn 0 1 0
vn 0 0 -1
vn 0 0 -1
vn 0 0 -1
vn 0 0 -1
vn 0 0 1
vn 0 0 1
vn 0 1 0
vn 0 1 0
vn 1 0 0
vn 1 0 0
vn 1 0 0
vn 1 0 0
vn 0 0 -1
vn 0 0 -1
vn 0 0 -1
vn 0 0 -1
vn 0 0 -1
vn 0 0 -1
vn 0 0 -1
vn 0 0 -1
g pb_Mesh246852_0
g pb_Mesh246852_1
f 3/3/3 2/2/2 1/1/1
f 3/3/3 4/4/4 2/2/2
f 7/7/7 6/6/6 5/5/5
f 7/7/7 8/8/8 6/6/6
f 11/11/11 10/10/10 9/9/9
f 11/11/11 12/12/12 10/10/10
f 15/15/15 14/14/14 13/13/13
f 15/15/15 16/16/16 14/14/14
f 19/19/19 18/18/18 17/17/17
f 19/19/19 20/20/20 18/18/18
f 23/23/23 22/22/22 21/21/21
f 23/23/23 24/24/24 22/22/22
f 25/25/25 3/3/3 1/1/1
f 25/25/25 26/26/26 3/3/3
f 27/27/27 19/19/19 17/17/17
f 27/27/27 28/28/28 19/19/19
f 31/31/31 30/30/30 29/29/29
f 31/31/31 32/32/32 30/30/30
f 33/33/33 19/19/19 28/28/28
f 33/33/33 34/34/34 19/19/19
f 37/37/37 36/36/36 35/35/35
f 37/37/37 38/38/38 36/36/36
f 39/39/39 34/34/34 33/33/33
f 39/39/39 40/40/40 34/34/34
f 43/43/43 42/42/42 41/41/41
f 43/43/43 44/44/44 42/42/42
f 47/47/47 46/46/46 45/45/45
f 46/46/46 47/47/47 40/40/40
f 47/47/47 34/34/34 40/40/40
f 50/50/50 49/49/49 48/48/48
f 50/50/50 51/51/51 49/49/49
f 54/54/54 53/53/53 52/52/52
f 54/54/54 52/52/52 55/55/55
f 58/58/58 57/57/57 56/56/56
f 58/58/58 59/59/59 57/57/57
f 62/62/62 61/61/61 60/60/60
f 62/62/62 63/63/63 61/61/61
f 64/64/64 45/45/45 46/46/46
f 64/64/64 65/65/65 45/45/45
f 68/68/68 67/67/67 66/66/66
f 71/71/71 70/70/70 69/69/69
f 73/73/73 72/72/72 65/65/65
f 76/76/76 75/75/75 74/74/74
f 77/77/77 55/55/55 52/52/52
f 77/77/77 78/78/78 55/55/55
f 81/81/81 80/80/80 79/79/79
f 81/81/81 82/82/82 80/80/80
f 83/83/83 64/64/64 46/46/46
f 83/83/83 84/84/84 64/64/64
f 85/85/85 53/53/53 54/54/54
f 85/85/85 86/86/86 53/53/53
f 89/89/89 88/88/88 87/87/87
f 89/89/89 90/90/90 88/88/88
f 93/93/93 92/92/92 91/91/91
f 93/93/93 94/94/94 92/92/92
f 97/97/97 96/96/96 95/95/95
f 97/97/97 98/98/98 96/96/96
f 99/99/99 40/40/40 39/39/39
f 99/99/99 100/100/100 40/40/40
f 101/101/101 44/44/44 43/43/43
f 101/101/101 102/102/102 44/44/44
f 105/105/105 104/104/104 103/103/103
f 105/105/105 106/106/106 104/104/104
f 109/109/109 108/108/108 107/107/107
f 109/109/109 110/110/110 108/108/108
f 113/113/113 112/112/112 111/111/111
f 113/113/113 114/114/114 112/112/112
f 117/117/117 116/116/116 115/115/115
f 117/117/117 118/118/118 116/116/116
f 119/119/119 110/110/110 109/109/109
f 119/119/119 120/120/120 110/110/110
f 123/123/123 122/122/122 121/121/121
f 123/123/123 124/124/124 122/122/122
f 127/127/127 126/126/126 125/125/125
f 127/127/127 128/128/128 126/126/126
f 130/130/130 129/129/129 120/120/120
f 130/130/130 131/131/131 129/129/129
f 132/132/132 21/21/21 22/22/22
f 132/132/132 133/133/133 21/21/21
f 136/136/136 135/135/135 134/134/134
f 136/136/136 137/137/137 135/135/135
f 138/138/138 133/133/133 132/132/132
f 138/138/138 139/139/139 133/133/133
f 142/142/142 141/141/141 140/140/140
f 141/141/141 143/143/143 140/140/140
f 146/146/146 145/145/145 144/144/144
f 146/146/146 144/144/144 147/147/147
f 119/119/119 149/149/149 148/148/148
f 119/119/119 148/148/148 120/120/120
f 149/149/149 151/151/151 150/150/150
f 149/149/149 150/150/150 148/148/148
f 154/154/154 153/153/153 152/152/152
f 153/153/153 155/155/155 152/152/152
f 158/158/158 157/157/157 156/156/156
f 157/157/157 159/159/159 156/156/156
f 148/148/148 150/150/150 160/160/160
f 148/148/148 160/160/160 161/161/161
f 120/120/120 148/148/148 161/161/161
f 120/120/120 161/161/161 162/162/162
f 161/161/161 160/160/160 163/163/163
f 161/161/161 163/163/163 164/164/164
f 162/162/162 161/161/161 164/164/164
f 162/162/162 164/164/164 165/165/165
f 168/168/168 167/167/167 166/166/166
f 168/168/168 169/169/169 167/167/167
f 170/170/170 137/137/137 136/136/136
f 170/170/170 171/171/171 137/137/137
f 172/172/172 165/165/165 164/164/164
f 172/172/172 173/173/173 165/165/165
f 176/176/176 175/175/175 174/174/174
f 176/176/176 174/174/174 177/177/177
f 180/180/180 179/179/179 178/178/178
f 180/180/180 178/178/178 181/181/181
f 184/184/184 183/183/183 182/182/182
f 183/183/183 185/185/185 182/182/182
