g pb_Mesh213684
v 4 -43 12
v -8 -43 12
v 4 8 12
v -8 8 12
v -12 -43 12
v -12 -43 4
v -12 8 12
v -12 8 4
v 4 -43 4
v 4 -43 12
v 4 8 4
v 4 8 12
v 4 8 12
v -8 8 12
v 4 8 4
v -8 8 4
v 4 -43 4
v -8 -43 4
v 4 -43 12
v -8 -43 12
v -8 -43 -4
v 4 -43 -4
v -12 8 -4
v -12 -43 -4
v 12 -43 4
v 12 8 4
v 12 -43 -4
v 12 8 -4
v 4 8 -4
v -8 8 -4
v 4 -43 4
v 4 8 4
v 12 -43 4
v 12 8 4
v 12 -43 -4
v 12 -43 4
v 12 8 4
v 12 8 -4
v -12 -43 12
v -12 -43 4
v -12 8 12
v -12 -43 12
v -12 8 -4
v -12 8 4
v -12 8 12
v -12 -43 -4
v -12 -43 -8
v -8 -43 -8
v 4 8 -8
v -8 8 -8
v -12 8 -8
v -12 8 -8
v -12 -43 -8
v -8 -43 -8
v 4 -43 -8
v -8 8 -8
v 4 8 -8
v 4 8 -4
v 4 -43 -4
v 12 8 -4
v 12 -43 -4
v -12 -43 -8
v -12 8 -8
v -8 -43 -4
v 4 -43 -4
v -8 -43 -8
v 4 -43 -8
v 4 -43 -4
v 4 8 -4
v 4 -43 -8
v 4 8 -8
vt 4 -43
vt -8 -43
vt 4 8
vt -8 8
vt 12 -43
vt 4 -43
vt 12 8
vt 4 8
vt -4 -43
vt -12 -43
vt -4 8
vt -12 8
vt -4 12
vt 8 12
vt -4 4
vt 8 4
vt 4 4
vt -8 4
vt 4 12
vt -8 12
vt -8 -4
vt 4 -4
vt -4 8
vt -4 -43
vt -4 -43
vt -4 8
vt 4 -43
vt 4 8
vt -4 -4
vt 8 -4
vt 4 -43
vt 4 8
vt 12 -43
vt 12 8
vt 12 -4
vt 12 4
vt -12 4
vt -12 -4
vt -12 12
vt -12 4
vt -12 8
vt -12 -43
vt 12 -4
vt 12 4
vt 12 12
vt -12 -4
vt -12 -8
vt -8 -8
vt -4 -8
vt 8 -8
vt 12 -8
vt -8 8
vt -8 -43
vt 8 -43
vt -4 -43
vt 8 8
vt -4 8
vt -4 8
vt -4 -43
vt -12 8
vt -12 -43
vt 12 -43
vt 12 8
vt -8 -4
vt 4 -4
vt -8 -8
vt 4 -8
vt 4 -43
vt 4 8
vt 8 -43
vt 8 8
vn 0 0 1
vn 0 0 1
vn 0 0 1
vn 0 0 1
vn -1 0 0
vn -1 0 0
vn -1 0 0
vn -1 0 0
vn 1 0 0
vn 1 0 0
vn 1 0 0
vn 1 0 0
vn 0 1 0
vn 0 1 0
vn 0 1 0
vn 0 1 0
vn 0 -1 0
vn 0 -1 0
vn 0 -1 0
vn 0 -1 0
vn 0 -1 0
vn 0 -1 0
vn -1 0 0
vn -1 0 0
vn 1 0 0
vn 1 0 0
vn 1 0 0
vn 1 0 0
vn 0 1 0
vn 0 1 0
vn 0 0 1
vn 0 0 1
vn 0 0 1
vn 0 0 1
vn 0 -1 0
vn 0 -1 0
vn 0 1 0
vn 0 1 0
vn 0 -1 0
vn 0 -1 0
vn 0 0 1
vn 0 0 1
vn 0 1 0
vn 0 1 0
vn 0 1 0
vn 0 -1 0
vn 0 -1 0
vn 0 -1 0
vn 0 1 0
vn 0 1 0
vn 0 1 0
vn -1 0 0
vn -1 0 0
vn 0 0 -1
vn 0 0 -1
vn 0 0 -1
vn 0 0 -1
vn 0 0 -1
vn 0 0 -1
vn 0 0 -1
vn 0 0 -1
vn 0 0 -1
vn 0 0 -1
vn 0 -1 0
vn 0 -1 0
vn 0 -1 0
vn 0 -1 0
vn 1 0 0
vn 1 0 0
vn 1 0 0
vn 1 0 0
g pb_Mesh213684_0
f 3/3/3 2/2/2 1/1/1
f 3/3/3 4/4/4 2/2/2
f 7/7/7 6/6/6 5/5/5
f 7/7/7 8/8/8 6/6/6
f 11/11/11 10/10/10 9/9/9
f 11/11/11 12/12/12 10/10/10
f 15/15/15 14/14/14 13/13/13
f 15/15/15 16/16/16 14/14/14
f 19/19/19 18/18/18 17/17/17
f 19/19/19 20/20/20 18/18/18
f 21/21/21 17/17/17 18/18/18
f 21/21/21 22/22/22 17/17/17
f 23/23/23 6/6/6 8/8/8
f 23/23/23 24/24/24 6/6/6
f 27/27/27 26/26/26 25/25/25
f 27/27/27 28/28/28 26/26/26
f 29/29/29 16/16/16 15/15/15
f 29/29/29 30/30/30 16/16/16
f 33/33/33 32/32/32 31/31/31
f 33/33/33 34/34/34 32/32/32
f 35/35/35 17/17/17 22/22/22
f 35/35/35 36/36/36 17/17/17
f 37/37/37 29/29/29 15/15/15
f 37/37/37 38/38/38 29/29/29
f 39/39/39 18/18/18 20/20/20
f 39/39/39 40/40/40 18/18/18
f 41/41/41 2/2/2 4/4/4
f 41/41/41 42/42/42 2/2/2
f 43/43/43 16/16/16 30/30/30
f 43/43/43 44/44/44 16/16/16
f 44/44/44 14/14/14 16/16/16
f 44/44/44 45/45/45 14/14/14
f 40/40/40 21/21/21 18/18/18
f 40/40/40 46/46/46 21/21/21
f 47/47/47 21/21/21 46/46/46
f 47/47/47 48/48/48 21/21/21
f 49/49/49 30/30/30 29/29/29
f 49/49/49 50/50/50 30/30/30
f 50/50/50 43/43/43 30/30/30
f 50/50/50 51/51/51 43/43/43
f 52/52/52 24/24/24 23/23/23
f 52/52/52 53/53/53 24/24/24
g pb_Mesh213684_1
f 56/56/56 55/55/55 54/54/54
f 56/56/56 57/57/57 55/55/55
f 60/60/60 59/59/59 58/58/58
f 60/60/60 61/61/61 59/59/59
f 62/62/62 56/56/56 54/54/54
f 62/62/62 63/63/63 56/56/56
f 66/66/66 65/65/65 64/64/64
f 66/66/66 67/67/67 65/65/65
f 70/70/70 69/69/69 68/68/68
f 70/70/70 71/71/71 69/69/69
