g pb_Mesh187810
v 8 2 0.5
v -4 2 0.5
v 8 4 0.5
v -4 4 0.5
v -4 2 -2
v 8 2 -2
v -4 4 -2
v 8 4 -2
v 8 4 0.5
v -4 4 0.5
v 8 4 -2
v -4 4 -2
v 8 2 -2
v -4 2 -2
v 8 2 0.5
v -4 2 0.5
vt 8 2
vt -4 2
vt 8 4
vt -4 4
vt 4 2
vt -8 2
vt 4 4
vt -8 4
vt -8 0.5
vt 4 0.5
vt -8 -2
vt 4 -2
vt 8 -2
vt -4 -2
vt 8 0.5
vt -4 0.5
vn 0 0 1
vn 0 0 1
vn 0 0 1
vn 0 0 1
vn 0 0 -1
vn 0 0 -1
vn 0 0 -1
vn 0 0 -1
vn 0 1 0
vn 0 1 0
vn 0 1 0
vn 0 1 0
vn 0 -1 0
vn 0 -1 0
vn 0 -1 0
vn 0 -1 0
g pb_Mesh187810_0
g pb_Mesh187810_1
f 3/3/3 2/2/2 1/1/1
f 3/3/3 4/4/4 2/2/2
f 7/7/7 6/6/6 5/5/5
f 7/7/7 8/8/8 6/6/6
f 11/11/11 10/10/10 9/9/9
f 11/11/11 12/12/12 10/10/10
f 15/15/15 14/14/14 13/13/13
f 15/15/15 16/16/16 14/14/14
