g pb_Mesh261200
v 0 12 -13
v -4 12 -13
v 0 12 -28
v -4 12 -28
v 0 12 -28
v -4 12 -28
v 0 12 -35
v -4 12 -35
v 0 -3.5 -13
v -4 -3.5 -13
v -4 6 -13
v 0 6 -13
v -4 12 -13
v 0 12 -13
v -4 -3.5 -13
v -4 -3.5 -28
v -4 6 -28
v -4 6 -13
v -4 12 -28
v -4 12 -13
v -4 5.999996 -35
v 0 -3.5 -35
v 0 5.999996 -35
v -4 -3.5 -35
v 0 6 -28
v 0 -3.5 -13
v 0 6 -13
v 0 -3.5 -28
v 0 12 -28
v 0 12 -13
v -4 5.999996 -35
v -4 12 -35
v -4 -3.5 -35
v 0 5.999996 -35
v 0 -3.5 -35
v 0 12 -35
v 0 5.999996 -37
v 0 12 -37
v 0 12 -35
v -4 12 -35
v 0 12 -37
v -4 12 -37
v -4 12 -37
v -4 5.999996 -37
v -4 5.999996 -35
v 0 5.999996 -35
v -4 5.999996 -37
v 0 5.999996 -37
vt 0 -13
vt 4 -13
vt 0 -28
vt 4 -28
vt 0 -27.99999
vt 4 -27.99999
vt 0 -34.99999
vt 4 -34.99999
vt 0 -3.5
vt -4 -3.5
vt -4 6
vt 0 6
vt -4 12
vt 0 12
vt -13 -3.5
vt -28 -3.5
vt -28 6
vt -13 6
vt -28 12
vt -13 12
vt 4 5.999996
vt 0 -3.5
vt 0 5.999996
vt 4 -3.5
vt 28 6
vt 13 -3.5
vt 13 6
vt 28 -3.5
vt 28 12
vt 13 12
vt -35 5.999996
vt -35 12
vt -35 -3.5
vt 35 5.999996
vt 35 -3.5
vt 35 12
vt 37 5.999996
vt 37 12
vt 0 -35
vt 4 -35
vt 0 -37
vt 4 -37
vt -37 12
vt -37 5.999996
vt -4 -35
vt 0 -35
vt -4 -37
vt 0 -37
vn 0 1 0
vn 0 1 0
vn 0 1 0
vn 0 1 0
vn 0 1 -5.449568E-07
vn 0 1 -5.449568E-07
vn 0 1 -5.449568E-07
vn 0 1 -5.449568E-07
vn 0 0 1
vn 0 0 1
vn 0 0 1
vn 0 0 1
vn 0 0 1
vn 0 0 1
vn -1 0 0
vn -1 0 0
vn -1 0 0
vn -1 0 0
vn -1 0 0
vn -1 0 0
vn 0 0 -1
vn 0 0 -1
vn 0 0 -1
vn 0 0 -1
vn 1 0 0
vn 1 0 0
vn 1 0 0
vn 1 0 0
vn 1 0 0
vn 1 0 0
vn -1 0 0
vn -1 0 0
vn -1 0 0
vn 1 0 0
vn 1 0 0
vn 1 0 0
vn 1 0 0
vn 1 0 0
vn 0 1 0
vn 0 1 0
vn 0 1 0
vn 0 1 0
vn -1 0 0
vn -1 0 0
vn 0 -1 0
vn 0 -1 0
vn 0 -1 0
vn 0 -1 0
g pb_Mesh261200_0
f 3/3/3 2/2/2 1/1/1
f 3/3/3 4/4/4 2/2/2
f 7/7/7 6/6/6 5/5/5
f 7/7/7 8/8/8 6/6/6
f 11/11/11 10/10/10 9/9/9
f 11/11/11 9/9/9 12/12/12
f 13/13/13 11/11/11 12/12/12
f 13/13/13 12/12/12 14/14/14
f 17/17/17 16/16/16 15/15/15
f 17/17/17 15/15/15 18/18/18
f 19/19/19 17/17/17 18/18/18
f 19/19/19 18/18/18 20/20/20
f 23/23/23 22/22/22 21/21/21
f 22/22/22 24/24/24 21/21/21
f 27/27/27 26/26/26 25/25/25
f 26/26/26 28/28/28 25/25/25
f 30/30/30 27/27/27 29/29/29
f 27/27/27 25/25/25 29/29/29
f 32/32/32 31/31/31 17/17/17
f 32/32/32 17/17/17 19/19/19
f 31/31/31 33/33/33 16/16/16
f 31/31/31 16/16/16 17/17/17
f 25/25/25 28/28/28 34/34/34
f 28/28/28 35/35/35 34/34/34
f 29/29/29 25/25/25 36/36/36
f 25/25/25 34/34/34 36/36/36
f 37/37/37 36/36/36 34/34/34
f 37/37/37 38/38/38 36/36/36
f 41/41/41 40/40/40 39/39/39
f 41/41/41 42/42/42 40/40/40
f 43/43/43 31/31/31 32/32/32
f 43/43/43 44/44/44 31/31/31
f 47/47/47 46/46/46 45/45/45
f 47/47/47 48/48/48 46/46/46
