g pb_Mesh261402
v 1.341085E-06 -4.470409E-07 3.457065E-06
v -5.999997 -4.470412E-07 7.212157E-06
v 1.341087E-06 3 6.943936E-06
v -3.72531E-06 2.831214E-06 -1.999997
v -3.725308E-06 3.000001 -1.999993
v -5.999998 2.831214E-06 -1.999993
v -3.72531E-06 2.831214E-06 -1.999997
v 1.341085E-06 -4.470409E-07 3.457065E-06
v -3.725308E-06 3.000001 -1.999993
v 1.341087E-06 3 6.943936E-06
v 1.341087E-06 3 6.943936E-06
v -5.999997 -4.470412E-07 7.212157E-06
v -3.725308E-06 3.000001 -1.999993
v -5.999998 2.831214E-06 -1.999993
v -3.725305E-06 -0.2500973 -1.999989
v -5.999996 -0.2500973 -1.999985
v 1.34109E-06 -0.2501006 1.108634E-05
v -5.999995 -0.2501006 1.484143E-05
v -3.725305E-06 -0.2500973 -1.999989
v -5.999996 -0.2500973 -1.999985
v 1.34109E-06 -0.2501006 1.108634E-05
v -3.725305E-06 -0.2500973 -1.999989
v -5.999998 2.831214E-06 -1.999993
v -5.999997 -4.470412E-07 7.212157E-06
v -5.999996 -0.2500973 -1.999985
v -5.999995 -0.2501006 1.484143E-05
v -5.999995 -0.2501006 1.484143E-05
v 1.34109E-06 -0.2501006 1.108634E-05
vt 1.341083E-06 -4.470369E-07
vt -5.999997 -4.470372E-07
vt 1.341083E-06 3
vt 2.493482E-06 5.265039E-07
vt 2.493482E-06 2.999999
vt 5.999997 5.265036E-07
vt 1.999997 2.831214E-06
vt -3.457068E-06 -4.470409E-07
vt 1.999993 3.000001
vt -6.943939E-06 3
vt -1.341642 2.187487E-06
vt 5.36656 2.455708E-06
vt -1.341638 -1.999998
vt 5.36656 -1.999998
vt -3.725305E-06 -1.999989
vt -5.999996 -1.999985
vt 1.34109E-06 1.149629E-05
vt -5.999995 1.525138E-05
vt 2.493482E-06 -0.2500363
vt 5.999995 -0.2500363
vt -1.108635E-05 -0.2501006
vt 1.999989 -0.2500973
vt -1.999997 4.85891E-05
vt 2.9207E-06 4.531084E-05
vt -1.99999 -0.2500516
vt 1.054998E-05 -0.2500548
vt -5.999995 -0.2501006
vt 1.341083E-06 -0.2501006
vn 6.258489E-07 -1.162291E-06 1
vn 6.258489E-07 -1.162291E-06 1
vn 6.258489E-07 -1.162291E-06 1
vn -6.159152E-07 1.152357E-06 -1
vn -6.159152E-07 1.152357E-06 -1
vn -6.159152E-07 1.152357E-06 -1
vn 1 2.237027E-12 -2.533198E-06
vn 1 2.268556E-12 -2.533197E-06
vn 1 2.268556E-12 -2.533197E-06
vn 1 2.300086E-12 -2.533197E-06
vn -0.4472137 0.8944271 1.772625E-06
vn -0.4472137 0.8944271 1.779288E-06
vn -0.4472137 0.8944271 1.779288E-06
vn -0.4472137 0.8944271 1.785952E-06
vn -1.009564E-12 -1 -1.639128E-06
vn -1.009564E-12 -1 -1.639128E-06
vn -1.009564E-12 -1 -1.639128E-06
vn -1.009563E-12 -1 -1.639128E-06
vn -6.159154E-07 -3.050536E-05 -1
vn -6.159154E-07 -3.050536E-05 -1
vn 1 -5.818377E-11 -2.533197E-06
vn 1 -5.818436E-11 -2.533197E-06
vn -1 -7.626318E-06 7.152432E-07
vn -1 -7.626318E-06 7.152432E-07
vn -1 -7.626318E-06 7.152432E-07
vn -1 -7.626318E-06 7.152432E-07
vn 6.258489E-07 3.050489E-05 1
vn 6.258489E-07 3.050489E-05 1
g pb_Mesh261402_0
f 3/3/3 2/2/2 1/1/1
f 6/6/6 5/5/5 4/4/4
f 9/9/9 8/8/8 7/7/7
f 9/9/9 10/10/10 8/8/8
f 13/13/13 12/12/12 11/11/11
f 13/13/13 14/14/14 12/12/12
f 17/17/17 16/16/16 15/15/15
f 17/17/17 18/18/18 16/16/16
f 19/19/19 6/6/6 4/4/4
f 19/19/19 20/20/20 6/6/6
f 21/21/21 7/7/7 8/8/8
f 21/21/21 22/22/22 7/7/7
f 25/25/25 24/24/24 23/23/23
f 25/25/25 26/26/26 24/24/24
f 27/27/27 1/1/1 2/2/2
f 27/27/27 28/28/28 1/1/1
