g pb_Mesh-100576
v 8.717207E-07 0 8.939261E-08
v -1 0 0
v 8.717207E-07 1 8.939261E-08
v -1 1 0
v -1 0 0
v -1 0 -1
v -1 1 0
v -1 1 -1
v -1 0 -2
v 0 0 -2
v -1 1 -2
v 0 1 -2
v 1.236802E-06 0 -0.9999994
v 8.717207E-07 0 8.939261E-08
v 1.236802E-06 1 -0.9999994
v 8.717207E-07 1 8.939261E-08
v 0 0 -1
v -1 0 -1
v 8.717207E-07 0 8.939261E-08
v -1 0 0
v -1 0 -2
v 0 0 -2
v -1 1 -2
v -1 0 -2
v 0 0 -2
v 0 1 -2
v 0 3 -1
v -1 3 -1
v 0 3 -2
v -1 3 -2
v 0 0 -1
v 8.717207E-07 0 8.939261E-08
v 1.236802E-06 0 -0.9999994
v 0 1 -1
v 0 0 -1
v 1.236802E-06 1 -0.9999994
v 0 0 -1
v 1.236802E-06 0 -0.9999994
v 1.236802E-06 1 -0.9999994
v 0 2 -1
v 1.236802E-06 2 -0.9999994
v 8.717207E-07 2 8.939261E-08
v -2 1 0
v -2 1 -1
v -2 2 0
v -2 2 -1
v 0 1 -1
v 1.236802E-06 1 -0.9999994
v 0 2 -1
v 1.236802E-06 1 -0.9999994
v 1.236802E-06 2 -0.9999994
v 0 2 -1
v 1.236802E-06 2 -0.9999994
v 8.717207E-07 2 8.939261E-08
v 8.717207E-07 2 8.939261E-08
v -1 2 0
v 0 2 -2
v -2 1 -2
v -2 2 -2
v -1 2 -2
v 0 2 -2
v 0 3 -2
v 0 3 -1
v -1 2 -1
v -1 2 -2
v -1 3 -1
v -1 3 -2
v -1 3 -2
v 0 3 -2
v 0 3 0
v -1 3 0
v 0 3 0
v -1 2 0
v -1 3 0
v 0 5 0
v -1 5 0
v 0 5 -1
v 0 5 0
v -1 3 -1
v 0 3 -1
v -1 5 -1
v 0 5 -1
v -1 1 -1
v -1 1 -2
v -2 1 -1
v -2 1 -2
v -1 2 -1
v -1 2 0
v -2 2 -1
v -2 2 0
v -2 1 -2
v -2 2 -2
v -1 2 -2
v -2 2 -2
v -1 1 0
v -2 1 0
v -2 2 0
v -2 1 0
v 0 5 0
v -1 5 0
v 0 5 -1
v -1 5 -1
v -1 3 0
v -1 3 -1
v -1 5 0
v -1 5 -1
vt 8.717207E-07 0
vt -1 0
vt 8.717207E-07 1
vt -1 1
vt 0 0
vt -1 0
vt 0 1
vt -1 1
vt 1 0
vt 0 0
vt 1 1
vt 0 1
vt 0.9999994 0
vt -8.939229E-08 0
vt 0.9999994 1
vt -8.939229E-08 1
vt 0 -1
vt -1 -1
vt 8.717207E-07 8.939261E-08
vt -1 0
vt -1 -2
vt 0 -2
vt -2 1
vt -2 0
vt 2 0
vt 2 1
vt 0 -1
vt 1 -1
vt 0 -2
vt 1 -2
vt 0 0
vt 0 0
vt 0 0
vt 0 0
vt 0 0
vt 0 0
vt 0 0
vt 0 0
vt 0 0
vt 0 0
vt 0 0
vt 0 0
vt 0 1
vt -1 1
vt 0 2
vt -1 2
vt 0 0
vt 0 0
vt 0 0
vt 0 0
vt 0 0
vt 0 0
vt 0.9999994 2
vt -8.939229E-08 2
vt 8.717207E-07 2
vt -1 2
vt 2 2
vt -2 1
vt -2 2
vt 1 2
vt 0 2
vt 2 3
vt 1 3
vt -1 2
vt -2 2
vt -1 3
vt -2 3
vt 1 3
vt 0 3
vt 0 3
vt -1 3
vt 0 3
vt 0 2
vt 0 3
vt 0 5
vt -1 5
vt 1 5
vt 0 5
vt 1 3
vt 0 3
vt 1 5
vt 0 5
vt -1 -1
vt -1 -2
vt -2 -1
vt -2 -2
vt 1 -1
vt 1 0
vt 2 -1
vt 2 0
vt 2 1
vt 2 2
vt 1 -2
vt 2 -2
vt -1 0
vt -2 0
vt -2 2
vt -2 1
vt 0 0
vt 1 0
vt 0 -1
vt 1 -1
vt 0 3
vt -1 3
vt 0 5
vt -1 5
vn -8.939254E-08 0 1
vn -8.939254E-08 0 1
vn -8.939254E-08 0 1
vn -8.939254E-08 0 1
vn -1 0 0
vn -1 0 0
vn -1 0 0
vn -1 0 0
vn 0 0 -1
vn 0 0 -1
vn 0 0 -1
vn 0 0 -1
vn 1 0 3.650817E-07
vn 1 0 3.650817E-07
vn 1 0 3.650817E-07
vn 1 0 3.650817E-07
vn 0 -1 0
vn 0 -1 0
vn 0 -1 0
vn 0 -1 0
vn 0 -1 0
vn 0 -1 0
vn -1 0 0
vn -1 0 0
vn 1 0 0
vn 1 0 0
vn 0 1 0
vn 0 1 0
vn 0 1 0
vn 0 1 0
vn 0 0 0
vn 0 0 0
vn 0 0 0
vn 0 0 0
vn 0 0 0
vn 0 0 0
vn 0 0 0
vn 0 0 0
vn 0 0 0
vn 0 0 0
vn 0 0 0
vn 0 0 0
vn -1 0 0
vn -1 0 0
vn -1 0 0
vn -1 0 0
vn 0 0 0
vn 0 0 0
vn 0 0 0
vn 0 0 0
vn 0 0 0
vn 0 0 0
vn 1 0 3.650817E-07
vn 1 0 3.650817E-07
vn -8.939254E-08 0 1
vn -8.939254E-08 0 1
vn 1 0 0
vn -1 0 0
vn -1 0 0
vn 0 0 -1
vn 0 0 -1
vn 1 0 0
vn 1 0 0
vn -1 0 0
vn -1 0 0
vn -1 0 0
vn -1 0 0
vn 0 0 -1
vn 0 0 -1
vn -4.469627E-08 4.469627E-08 1
vn 0 0 1
vn 1 8.717207E-07 0
vn -1 0 0
vn -1 0 0
vn 0 0 1
vn 0 0 1
vn 1 0 0
vn 1 0 0
vn 0 0 -1
vn 0 0 -1
vn 0 0 -1
vn 0 0 -1
vn 0 -1 0
vn 0 -1 0
vn 0 -1 0
vn 0 -1 0
vn 0 1 0
vn 0 1 0
vn 0 1 0
vn 0 1 0
vn 0 0 -1
vn 0 0 -1
vn 0 1 0
vn 0 1 0
vn 0 -1 0
vn 0 -1 0
vn 0 0 1
vn 0 0 1
vn 0 1 0
vn 0 1 0
vn 0 1 0
vn 0 1 0
vn -1 0 0
vn -1 0 0
vn -1 0 0
vn -1 0 0
g pb_Mesh-100576_0
f 3/3/3 2/2/2 1/1/1
f 3/3/3 4/4/4 2/2/2
f 7/7/7 6/6/6 5/5/5
f 7/7/7 8/8/8 6/6/6
f 11/11/11 10/10/10 9/9/9
f 11/11/11 12/12/12 10/10/10
f 15/15/15 14/14/14 13/13/13
f 15/15/15 16/16/16 14/14/14
f 19/19/19 18/18/18 17/17/17
f 19/19/19 20/20/20 18/18/18
f 21/21/21 17/17/17 18/18/18
f 21/21/21 22/22/22 17/17/17
f 23/23/23 6/6/6 8/8/8
f 23/23/23 24/24/24 6/6/6
f 25/25/25 15/15/15 13/13/13
f 25/25/25 26/26/26 15/15/15
f 29/29/29 28/28/28 27/27/27
f 29/29/29 30/30/30 28/28/28
f 33/33/33 32/32/32 31/31/31
f 36/36/36 35/35/35 34/34/34
f 39/39/39 38/38/38 37/37/37
f 42/42/42 41/41/41 40/40/40
f 45/45/45 44/44/44 43/43/43
f 45/45/45 46/46/46 44/44/44
f 49/49/49 48/48/48 47/47/47
f 52/52/52 51/51/51 50/50/50
f 53/53/53 16/16/16 15/15/15
f 53/53/53 54/54/54 16/16/16
f 55/55/55 4/4/4 3/3/3
f 55/55/55 56/56/56 4/4/4
f 57/57/57 15/15/15 26/26/26
f 57/57/57 53/53/53 15/15/15
f 46/46/46 58/58/58 44/44/44
f 46/46/46 59/59/59 58/58/58
f 60/60/60 12/12/12 11/11/11
f 60/60/60 61/61/61 12/12/12
f 62/62/62 53/53/53 57/57/57
f 62/62/62 63/63/63 53/53/53
f 66/66/66 65/65/65 64/64/64
f 66/66/66 67/67/67 65/65/65
f 68/68/68 61/61/61 60/60/60
f 68/68/68 69/69/69 61/61/61
f 70/70/70 56/56/56 55/55/55
f 70/70/70 71/71/71 56/56/56
f 63/63/63 54/54/54 53/53/53
f 63/63/63 72/72/72 54/54/54
f 74/74/74 64/64/64 73/73/73
f 74/74/74 66/66/66 64/64/64
f 75/75/75 71/71/71 70/70/70
f 75/75/75 76/76/76 71/71/71
f 77/77/77 72/72/72 63/63/63
f 77/77/77 78/78/78 72/72/72
f 81/81/81 80/80/80 79/79/79
f 81/81/81 82/82/82 80/80/80
f 85/85/85 84/84/84 83/83/83
f 85/85/85 86/86/86 84/84/84
f 89/89/89 88/88/88 87/87/87
f 89/89/89 90/90/90 88/88/88
f 91/91/91 60/60/60 11/11/11
f 91/91/91 92/92/92 60/60/60
f 94/94/94 87/87/87 93/93/93
f 94/94/94 89/89/89 87/87/87
f 96/96/96 83/83/83 95/95/95
f 96/96/96 85/85/85 83/83/83
f 97/97/97 4/4/4 56/56/56
f 97/97/97 98/98/98 4/4/4
g pb_Mesh-100576_1
f 101/101/101 100/100/100 99/99/99
f 101/101/101 102/102/102 100/100/100
f 105/105/105 104/104/104 103/103/103
f 105/105/105 106/106/106 104/104/104
