g pb_Mesh-69560
v 1.603365E-05 0 -11
v 0 1 -8.5
v -2.117107 0 -11.99703
v -1.5 1 -6.5
v 0 1 -8.5
v 0 1.5 -4
v -1.5 1 -6.5
v -2 1.5 -4
v 0 1.5 -4
v 0 2 -2
v -2 1.5 -4
v -2 2 -2
v 0 2 -2
v 0 3 0
v -2 2 -2
v -2 2 0
v -2.117107 0 -11.99703
v -1.5 1 -6.5
v -3.528523 0 -11.29133
v -3.5 1 -5.5
v -1.5 1 -6.5
v -2 1.5 -4
v -3.5 1 -5.5
v -4 1 -4
v -2 1.5 -4
v -2 2 -2
v -4 1 -4
v -4.5 1 -2
v -2 2 -2
v -2 2 0
v -4.5 1 -2
v -5.5 1.5 0
v -3.528523 0 -11.29133
v -3.5 1 -5.5
v -5.645648 0 -9.174208
v -5 0.5 -5.5
v -3.5 1 -5.5
v -4 1 -4
v -5 0.5 -5.5
v -6 0.5 -4
v -4 1 -4
v -4.5 1 -2
v -6 0.5 -4
v -6.5 0.5 -2
v -4.5 1 -2
v -5.5 1.5 0
v -6.5 0.5 -2
v -7.5 1 0
v -5.645648 0 -9.174208
v -5 0.5 -5.5
v -7.057066 0 -7.057087
v -8 0 -5.5
v -5 0.5 -5.5
v -6 0.5 -4
v -8 0 -5.5
v -8.5 0 -4
v -6 0.5 -4
v -6.5 0.5 -2
v -8.5 0 -4
v -9.879903 0 -2.822845
v -6.5 0.5 -2
v -7.5 1 0
v -9.879903 0 -2.822845
v -13.40844 0 -1.889428E-05
vt 0 -3.445985
vt 0.1851344 -0.7597737
vt 2.080531 -4.517282
vt 1.659209 1
vt 0.07327433 -3.559122
vt 0 0.9679778
vt 1.55708 -1.547078
vt 1.978407 0.9999998
vt 0 -1.061553
vt 0 1
vt 2 -1.061553
vt 2 1
vt 0 -1.236068
vt 0 1
vt 2 -1.236068
vt 2 0.5527865
vt 0.7006367 -5.592011
vt 0 -0.0146184
vt 2.106847 -4.875989
vt 1.992624 1
vt 0 -1.56025
vt 0.4417261 1
vt 1.987767 -0.53615
vt 2.484709 0.9404593
vt 0.1212678 -1.057983
vt 0 1
vt 2.182821 -1.057983
vt 2.667892 0.9142509
vt 0 -1
vt 0 1
vt 2.692582 -1
vt 3.435364 1
vt 0.1974545 -4.873782
vt 0 1
vt 2.284003 -2.726519
vt 1.563007 0.960134
vt 0 -0.5248852
vt 0.4743416 0.9834251
vt 1.581139 -0.5248852
vt 2.529822 1
vt 0 -1.003673
vt 0.4850714 1
vt 2.061553 -1.003673
vt 2.546624 1
vt 0 -1.128242
vt 0.8488746 1
vt 2.061553 -1.128242
vt 2.910428 1
vt 0.7171235 -2.694915
vt 0 1
vt 2.110477 -0.5658627
vt 3.041343 0.9983959
vt 0 -0.5089822
vt 0.9863939 1
vt 3.041381 -0.5089822
vt 3.534578 0.9910445
vt 0 -1.002403
vt 0.4902902 1
vt 2.54951 -1.002403
vt 3.902616 0.1865928
vt 0 -1.081261
vt 0.9583068 1
vt 3.408461 -1.937539
vt 6.92642 0.8506309
vn 0.1722861 0.9145936 -0.3658362
vn -0.08217373 0.9788113 -0.1875526
vn -0.05091457 0.9747826 -0.2172706
vn -0.1176142 0.9778617 -0.1730707
vn -0.08217373 0.9788113 -0.1875526
vn -0.03654555 0.9794592 -0.1983031
vn -0.1176142 0.9778617 -0.1730707
vn -0.1033945 0.9728269 -0.2071652
vn -0.03654555 0.9794592 -0.1983031
vn 0 0.937885 -0.3469463
vn -0.1033945 0.9728269 -0.2071652
vn -0.2310945 0.9593109 -0.1622281
vn 0 0.937885 -0.3469463
vn -0.2357023 0.942809 -0.2357023
vn -0.2310945 0.9593109 -0.1622281
vn -0.3562758 0.9311919 -0.07713164
vn -0.05091457 0.9747826 -0.2172706
vn -0.1176142 0.9778617 -0.1730707
vn -0.1258768 0.9776831 -0.1681985
vn -0.2050104 0.9692093 -0.1363965
vn -0.1176142 0.9778617 -0.1730707
vn -0.1033945 0.9728269 -0.2071652
vn -0.2050104 0.9692093 -0.1363965
vn -0.266623 0.9575428 -0.109654
vn -0.1033945 0.9728269 -0.2071652
vn -0.2310945 0.9593109 -0.1622281
vn -0.266623 0.9575428 -0.109654
vn -0.2766732 0.9469257 -0.1636571
vn -0.2310945 0.9593109 -0.1622281
vn -0.3562758 0.9311919 -0.07713164
vn -0.2766732 0.9469257 -0.1636571
vn -0.1815961 0.9288127 -0.3230012
vn -0.1258768 0.9776831 -0.1681985
vn -0.2050104 0.9692093 -0.1363965
vn -0.2004611 0.9731321 -0.1132662
vn -0.2298931 0.9675854 -0.1045351
vn -0.2050104 0.9692093 -0.1363965
vn -0.266623 0.9575428 -0.109654
vn -0.2298931 0.9675854 -0.1045351
vn -0.2145458 0.9726343 -0.08917744
vn -0.266623 0.9575428 -0.109654
vn -0.2766732 0.9469257 -0.1636571
vn -0.2145458 0.9726343 -0.08917744
vn -0.1765474 0.9648862 -0.1944882
vn -0.2766732 0.9469257 -0.1636571
vn -0.1815961 0.9288127 -0.3230012
vn -0.1765474 0.9648862 -0.1944882
vn -0.1740744 0.9403467 -0.2923118
vn -0.2004611 0.9731321 -0.1132662
vn -0.2298931 0.9675854 -0.1045351
vn -0.161088 0.9816139 -0.1023952
vn -0.1716152 0.9807552 -0.09309995
vn -0.2298931 0.9675854 -0.1045351
vn -0.2145458 0.9726343 -0.08917744
vn -0.1716152 0.9807552 -0.09309995
vn -0.1753536 0.9813981 -0.07815953
vn -0.2145458 0.9726343 -0.08917744
vn -0.1765474 0.9648862 -0.1944882
vn -0.1753536 0.9813981 -0.07815953
vn -0.1163651 0.9754274 -0.1870838
vn -0.1765474 0.9648862 -0.1944882
vn -0.1740744 0.9403467 -0.2923118
vn -0.1163651 0.9754274 -0.1870838
vn -0.1633592 0.9652027 -0.2041996
g pb_Mesh-69560_0
f 3/3/3 2/2/2 1/1/1
f 3/3/3 4/4/4 2/2/2
f 7/7/7 6/6/6 5/5/5
f 7/7/7 8/8/8 6/6/6
f 11/11/11 10/10/10 9/9/9
f 11/11/11 12/12/12 10/10/10
f 15/15/15 14/14/14 13/13/13
f 15/15/15 16/16/16 14/14/14
f 19/19/19 18/18/18 17/17/17
f 19/19/19 20/20/20 18/18/18
f 23/23/23 22/22/22 21/21/21
f 23/23/23 24/24/24 22/22/22
f 27/27/27 26/26/26 25/25/25
f 27/27/27 28/28/28 26/26/26
f 31/31/31 30/30/30 29/29/29
f 31/31/31 32/32/32 30/30/30
f 35/35/35 34/34/34 33/33/33
f 35/35/35 36/36/36 34/34/34
f 39/39/39 38/38/38 37/37/37
f 39/39/39 40/40/40 38/38/38
f 43/43/43 42/42/42 41/41/41
f 43/43/43 44/44/44 42/42/42
f 47/47/47 46/46/46 45/45/45
f 47/47/47 48/48/48 46/46/46
f 51/51/51 50/50/50 49/49/49
f 51/51/51 52/52/52 50/50/50
f 55/55/55 54/54/54 53/53/53
f 55/55/55 56/56/56 54/54/54
f 59/59/59 58/58/58 57/57/57
f 59/59/59 60/60/60 58/58/58
f 63/63/63 62/62/62 61/61/61
f 63/63/63 64/64/64 62/62/62
g pb_Mesh-69560_1
