g pb_Mesh327300
v -4.768372E-07 1.907349E-06 1.5
v -30.5 1.907349E-06 1.5
v -4.768372E-07 1.000002 1.5
v -30.5 1.000002 1.5
v -30.5 1.907349E-06 1.5
v -30.5 0 -2
v -30.5 1.000002 1.5
v -30.5 1 -2
v -30.5 0 -2
v 0 0 -2
v -30.5 1 -2
v 0 1 -2
v 0 0 -2
v -4.768372E-07 1.907349E-06 1.5
v 0 1 -2
v -4.768372E-07 1.000002 1.5
v -4.768372E-07 1.000002 1.5
v -30.5 1.000002 1.5
v 0 1 -2
v -30.5 1 -2
v 0 0 -2
v -30.5 0 -2
v -4.768372E-07 1.907349E-06 1.5
v -30.5 1.907349E-06 1.5
vt -4.768372E-07 1.907349E-06
vt -30.5 1.907349E-06
vt -4.768372E-07 1.000002
vt -30.5 1.000002
vt 1.5 1.907349E-06
vt -2 0
vt 1.5 1.000002
vt -2 1
vt 30.5 0
vt 0 0
vt 30.5 1
vt 0 1
vt 2 0
vt -1.5 1.907349E-06
vt 2 1
vt -1.5 1.000002
vt 4.768372E-07 1.500001
vt 30.5 1.500001
vt 0 -1.999999
vt 30.5 -1.999999
vt 0 -2
vt -30.5 -2
vt -4.768372E-07 1.5
vt -30.5 1.5
vn 0 0 1
vn 0 0 1
vn 0 0 1
vn 0 0 1
vn -1 0 0
vn -1 0 0
vn -1 0 0
vn -1 0 0
vn 0 0 -1
vn 0 0 -1
vn 0 0 -1
vn 0 0 -1
vn 1 0 1.362392E-07
vn 1 0 1.362392E-07
vn 1 0 1.362392E-07
vn 1 0 1.362392E-07
vn 0 1 -5.449568E-07
vn 0 1 -5.449568E-07
vn 0 1 -5.449568E-07
vn 0 1 -5.449568E-07
vn 0 -1 5.449568E-07
vn 0 -1 5.449568E-07
vn 0 -1 5.449568E-07
vn 0 -1 5.449568E-07
g pb_Mesh327300_0
f 3/3/3 2/2/2 1/1/1
f 3/3/3 4/4/4 2/2/2
f 7/7/7 6/6/6 5/5/5
f 7/7/7 8/8/8 6/6/6
f 11/11/11 10/10/10 9/9/9
f 11/11/11 12/12/12 10/10/10
f 15/15/15 14/14/14 13/13/13
f 15/15/15 16/16/16 14/14/14
f 19/19/19 18/18/18 17/17/17
f 19/19/19 20/20/20 18/18/18
f 23/23/23 22/22/22 21/21/21
f 23/23/23 24/24/24 22/22/22
