g pb_Mesh42824
v 0 0 0
v -8 0 0
v 0 2 0
v -8 2 0
v -8 0 0
v -8.000071 0 -8.000022
v -8 2 0
v -8.000071 2 -8.000022
v -8.000071 0 -8.000022
v -6.842613E-05 0 -6
v -8.000071 2 -8.000022
v -6.842613E-05 2 -6
v -6.842613E-05 0 -6
v 0 0 0
v -6.842613E-05 2 -6
v 0 2 0
v 0 2 0
v -8 2 0
v -6.842613E-05 2 -6
v -8.000071 2 -8.000022
v -6.842613E-05 0 -6
v -8.000071 0 -8.000022
v 0 0 0
v -8 0 0
vt 0 0
vt -8 0
vt 0 2
vt -8 2
vt -7.05717E-05 0
vt -8.000093 0
vt -7.05717E-05 2
vt -8.000093 2
vt 9.701513 0
vt 1.455295 0
vt 9.701513 2
vt 1.455295 2
vt 6 0
vt 0 0
vt 6 2
vt 0 2
vt 0 0
vt 8 0
vt 6.842613E-05 -6
vt 8.000071 -8.000022
vt -6.842613E-05 -6
vt -8.000071 -8.000022
vt 0 0
vt -8 0
vn 0 0 1
vn 0 0 1
vn 0 0 1
vn 0 0 1
vn -1 0 8.821463E-06
vn -1 0 8.821463E-06
vn -1 0 8.821463E-06
vn -1 0 8.821463E-06
vn 0.2425381 0 -0.9701419
vn 0.2425381 0 -0.9701419
vn 0.2425381 0 -0.9701419
vn 0.2425381 0 -0.9701419
vn 1 0 -1.140436E-05
vn 1 0 -1.140436E-05
vn 1 0 -1.140436E-05
vn 1 0 -1.140436E-05
vn 0 1 0
vn 0 1 0
vn 0 1 0
vn 0 1 0
vn 0 -1 0
vn 0 -1 0
vn 0 -1 0
vn 0 -1 0
g pb_Mesh42824_0
f 3/3/3 2/2/2 1/1/1
f 3/3/3 4/4/4 2/2/2
f 7/7/7 6/6/6 5/5/5
f 7/7/7 8/8/8 6/6/6
f 11/11/11 10/10/10 9/9/9
f 11/11/11 12/12/12 10/10/10
f 15/15/15 14/14/14 13/13/13
f 15/15/15 16/16/16 14/14/14
f 19/19/19 18/18/18 17/17/17
f 19/19/19 20/20/20 18/18/18
f 23/23/23 22/22/22 21/21/21
f 23/23/23 24/24/24 22/22/22
