g pb_Mesh574790
v 90 160 106
v 86 160 106
v 90 164 106
v 86 164 106
v 86 160 106
v 86 160 90
v 86 164 106
v 86 164 98
v 86 160 90
v 90 160 90
v 86 164 98
v 90 164 98
v 90 160 90
v 90 160 106
v 90 164 98
v 90 164 106
v 90 164 106
v 86 164 106
v 90 164 98
v 86 164 98
v 90 156 90
v 86 156 90
v 90 156 106
v 86 156 106
v 90 160 83
v 86 160 83
v 90 156 83
v 86 156 83
v 90 156 106
v 90 156 90
v 86 156 90
v 86 156 106
v 86 156 106
v 90 156 106
v 90 160 90
v 86 160 90
v 90 160 83
v 86 160 83
v 90 156 83
v 90 160 83
v 86 160 83
v 86 156 83
v 86 156 83
v 90 156 83
vt -4 8
vt -8 8
vt -4 12
vt -8 12
vt 3.099439E-06 8
vt -16 8
vt 3.099439E-06 12
vt -7.999997 12
vt 7.999996 -10.73313
vt 3.999996 -10.73313
vt 8 -1.788855
vt 4 -1.788854
vt 16 8
vt -3.099439E-06 8
vt 7.999997 12
vt -3.099439E-06 12
vt 4 1.668928E-06
vt 8 2.384161E-07
vt 3.999997 -7.999999
vt 7.999997 -8
vt -3.999994 -16
vt -7.999994 -16
vt -4 1.668928E-06
vt -8 2.384161E-07
vt 4.000002 8
vt 8.000002 8
vt 4.000002 4
vt 8.000002 4
vt -3.099439E-06 4
vt 16 4
vt -16 4
vt 3.099439E-06 4
vt -8 4
vt -4 4
vt 3.999994 -16
vt 7.999994 -16
vt 3.999991 -23
vt 7.999991 -23
vt 23 4
vt 23 8
vt -23 8
vt -23 4
vt -7.999991 -23
vt -3.999991 -23
vn 0 0 1
vn 0 0 1
vn 0 0 1
vn 0 0 1
vn -1 0 0
vn -1 0 0
vn -1 0 0
vn -1 0 0
vn 0 0.8944272 -0.4472136
vn 0 0.8944272 -0.4472136
vn 0 0.8944272 -0.4472136
vn 0 0.8944272 -0.4472136
vn 1 0 0
vn 1 0 0
vn 1 0 0
vn 1 0 0
vn 0 1 0
vn 0 1 0
vn 0 1 0
vn 0 1 0
vn 0 -1 0
vn 0 -1 0
vn 0 -1 0
vn 0 -1 0
vn 0 0 -1
vn 0 0 -1
vn 0 0 -1
vn 0 0 -1
vn 1 0 0
vn 1 0 0
vn -1 0 0
vn -1 0 0
vn 0 0 1
vn 0 0 1
vn 0 1 0
vn 0 1 0
vn 0 1 0
vn 0 1 0
vn 1 0 0
vn 1 0 0
vn -1 0 0
vn -1 0 0
vn 0 -1 0
vn 0 -1 0
g pb_Mesh574790_0
f 3/3/3 2/2/2 1/1/1
f 3/3/3 4/4/4 2/2/2
f 7/7/7 6/6/6 5/5/5
f 7/7/7 8/8/8 6/6/6
f 11/11/11 10/10/10 9/9/9
f 11/11/11 12/12/12 10/10/10
f 15/15/15 14/14/14 13/13/13
f 15/15/15 16/16/16 14/14/14
f 19/19/19 18/18/18 17/17/17
f 19/19/19 20/20/20 18/18/18
f 23/23/23 22/22/22 21/21/21
f 23/23/23 24/24/24 22/22/22
f 27/27/27 26/26/26 25/25/25
f 27/27/27 28/28/28 26/26/26
f 29/29/29 13/13/13 14/14/14
f 29/29/29 30/30/30 13/13/13
f 31/31/31 5/5/5 6/6/6
f 31/31/31 32/32/32 5/5/5
f 33/33/33 1/1/1 2/2/2
f 33/33/33 34/34/34 1/1/1
f 37/37/37 36/36/36 35/35/35
f 37/37/37 38/38/38 36/36/36
f 39/39/39 13/13/13 30/30/30
f 39/39/39 40/40/40 13/13/13
f 41/41/41 31/31/31 6/6/6
f 41/41/41 42/42/42 31/31/31
f 43/43/43 21/21/21 22/22/22
f 43/43/43 44/44/44 21/21/21
