g pb_Mesh192396
v -16 9 0
v -12 9 0
v -12 9 4
v -16 9 4
v -12 8 0
v -8 8 0
v -8 8 4
v -12 8 4
v -8 8 8
v -12 8 8
v -16 8 4
v -16 8 8
v -24 8 0
v -20 8 0
v -20 8 4
v -24 8 4
v -20 8 8
v -24 8 8
v -20 9 -4
v -16 9 -4
v -20 9 0
v -20 8 -4
v -16 8 -4
v -20 9 -4
v -16 9 -4
v -12 8 0
v -12 8 4
v -12 9 0
v -12 9 4
v -20 8 4
v -20 8 0
v -20 9 4
v -20 9 0
v -12 8 4
v -16 8 4
v -12 9 4
v -16 9 4
v -12 8 -4
v -12 9 -4
v -12 8 -4
v -12 9 -4
v -20 8 -4
v -20 9 -4
v -20 8 4
v -20 9 4
v -12 9 -4
v -20 9 4
v -8 4 -4
v -8 0 0
v -8 4 0
v -8 0 -4
v -8 4 4
v -8 0 8
v -8 4 8
v -8 0 4
v -8 8 4
v -8 8 8
v -8 8 0
v -16 4 -8
v -12 0 -8
v -12 4 -8
v -16 0 -8
v -20 4 -8
v -20 0 -8
v -16 8 -8
v -12 8 -8
v -12 8 -6
v -16 8 -4
v -12 8 -4
v -10 8 -6
v -10 8 -4
v -8 8 -4
v -8 4 -6
v -8 4 -8
v -8 0 -8
v -8 6 -6
v -8 6 -4
v -8 8 -4
v -10 4 -8
v -8 0 -8
v -8 4 -8
v -12 6 -8
v -10 6 -8
v -16 8 -8
v -12 8 -8
v -8 4 -7.5
v -10 4 -8
v -8 4 -8
v -10 4 -7.5
v -10 4.25 -7.5
v -10 4 -8
v -10 4 -7.5
v -10 4.25 -8
v -8 8 8
v -8 4 8
v -12 8 8
v -16 8 8
v -8 0 8
v -20 8 8
v -24 0 8
v -24 4 8
v -24 8 8
v -24 0 0
v -24 0 -4
v -24 4 -4
v -24 4 0
v -24 0 8
v -24 0 4
v -24 4 4
v -24 4 8
v -24 8 4
v -24 8 8
v -24 8 0
v -22 8 -8
v -20 8 -8
v -20 8 -6
v -22 8 -6
v -20 8 -4
v -22 8 -4
v -24 8 -6
v -24 8 -4
v -20 8 -8
v -20 6 -8
v -22 4 -8
v -24 4 -8
v -24 0 -8
v -22 6 -8
v -22 8 -8
v -24 6 -8
v -24 6 -4
v -24 8 -4
v -24 4 -6
v -24 0 -8
v -24 4 -8
v -24 6 -6
v -24 6 -8
v -24 8 -6
vt 16 0
vt 12 0
vt 12 4
vt 16 4
vt 12 0
vt 8 0
vt 8 4
vt 12 4
vt 8 8
vt 12 8
vt 16 4
vt 16 8
vt 24 0
vt 20 0
vt 20 4
vt 24 4
vt 20 8
vt 24 8
vt 20 -4
vt 16 -4
vt 20 0
vt 20 8
vt 16 8
vt 20 9
vt 16 9
vt 0 8
vt -4 8
vt 0 9
vt -4 9
vt 4 8
vt 0 8
vt 4 9
vt 0 9
vt -12 8
vt -16 8
vt -12 9
vt -16 9
vt 12 8
vt 12 9
vt 4 8
vt 4 9
vt -4 8
vt -4 9
vt -20 8
vt -20 9
vt 12 -4
vt 20 4
vt 4 4
vt 0 0
vt 0 4
vt 4 0
vt -4 4
vt -8 0
vt -8 4
vt -4 0
vt -4 8
vt -8 8
vt 0 8
vt 16 4
vt 12 0
vt 12 4
vt 16 0
vt 20 4
vt 20 0
vt 16 -8
vt 12 -8
vt 12 -6
vt 16 -4
vt 12 -4
vt 10 -6
vt 10 -4
vt 8 -4
vt 6 4
vt 8 4
vt 8 0
vt 6 6
vt 4 6
vt 4 8
vt 10 4
vt 8 0
vt 8 4
vt 12 6
vt 10 6
vt 16 8
vt 12 8
vt 8 -7.5
vt 10 -8
vt 8 -8
vt 10 -7.5
vt 7.5 4.25
vt 8 4
vt 7.5 4
vt 8 4.25
vt -8 8
vt -8 4
vt -12 8
vt -16 8
vt -8 0
vt -20 8
vt -24 0
vt -24 4
vt -24 8
vt 0 0
vt -4 0
vt -4 4
vt 0 4
vt 8 0
vt 4 0
vt 4 4
vt 8 4
vt 4 8
vt 8 8
vt 0 8
vt 22 -8
vt 20 -8
vt 20 -6
vt 22 -6
vt 20 -4
vt 22 -4
vt 24 -6
vt 24 -4
vt 20 8
vt 20 6
vt 22 4
vt 24 4
vt 24 0
vt 22 6
vt 22 8
vt 24 6
vt -4 6
vt -4 8
vt -6 4
vt -8 0
vt -8 4
vt -6 6
vt -8 6
vt -6 8
vn 0 1 0
vn 0 1 0
vn 0 1 0
vn 0 1 0
vn 0 1 0
vn 0 1 0
vn 0 1 0
vn 0 1 0
vn 0 1 0
vn 0 1 0
vn 0 1 0
vn 0 1 0
vn 0 1 0
vn 0 1 0
vn 0 1 0
vn 0 1 0
vn 0 1 0
vn 0 1 0
vn 0 1 0
vn 0 1 0
vn 0 1 0
vn 0 0 -1
vn 0 0 -1
vn 0 0 -1
vn 0 0 -1
vn 1 0 0
vn 1 0 0
vn 1 0 0
vn 1 0 0
vn -1 0 0
vn -1 0 0
vn -1 0 0
vn -1 0 0
vn 0 0 1
vn 0 0 1
vn 0 0 1
vn 0 0 1
vn 0 0 -1
vn 0 0 -1
vn 1 0 0
vn 1 0 0
vn -1 0 0
vn -1 0 0
vn 0 0 1
vn 0 0 1
vn 0 1 0
vn 0 1 0
vn 1 0 0
vn 1 0 0
vn 1 0 0
vn 1 0 0
vn 1 0 0
vn 1 0 0
vn 1 0 0
vn 1 0 0
vn 1 0 0
vn 1 0 0
vn 1 0 0
vn 0 0 -1
vn 0 0 -1
vn 0 0 -1
vn 0 0 -1
vn 0 0 -1
vn 0 0 -1
vn 0 1 0
vn 0 1 0
vn 0 1 0
vn 0 1 0
vn 0 1 0
vn 0 1 0
vn 0 1 0
vn 0 1 0
vn 1 0 0
vn 1 0 0
vn 1 0 0
vn 1 0 0
vn 1 0 0
vn 1 0 0
vn 0 0 -1
vn 0 0 -1
vn 0 0 -1
vn 0 0 -1
vn 0 0 -1
vn 0 0 -1
vn 0 0 -1
vn 0 1 0
vn 0 1 0
vn 0 1 0
vn 0 1 0
vn 1 0 0
vn 1 0 0
vn 1 0 0
vn 1 0 0
vn 0 0 1
vn 0 0 1
vn 0 0 1
vn 0 0 1
vn 0 0 1
vn 0 0 1
vn 0 0 1
vn 0 0 1
vn 0 0 1
vn -1 0 0
vn -1 0 0
vn -1 0 0
vn -1 0 0
vn -1 0 0
vn -1 0 0
vn -1 0 0
vn -1 0 0
vn -1 0 0
vn -1 0 0
vn -1 0 0
vn 0 1 0
vn 0 1 0
vn 0 1 0
vn 0 1 0
vn 0 1 0
vn 0 1 0
vn 0 1 0
vn 0 1 0
vn 0 0 -1
vn 0 0 -1
vn 0 0 -1
vn 0 0 -1
vn 0 0 -1
vn 0 0 -1
vn 0 0 -1
vn 0 0 -1
vn -1 0 0
vn -1 0 0
vn -1 0 0
vn -1 0 0
vn -1 0 0
vn -1 0 0
vn -1 0 0
vn -1 0 0
g pb_Mesh192396_0
g pb_Mesh192396_1
f 3/3/3 2/2/2 1/1/1
f 3/3/3 1/1/1 4/4/4
f 7/7/7 6/6/6 5/5/5
f 7/7/7 5/5/5 8/8/8
f 9/9/9 7/7/7 8/8/8
f 9/9/9 8/8/8 10/10/10
f 10/10/10 8/8/8 11/11/11
f 10/10/10 11/11/11 12/12/12
f 15/15/15 14/14/14 13/13/13
f 15/15/15 13/13/13 16/16/16
f 12/12/12 11/11/11 15/15/15
f 12/12/12 15/15/15 17/17/17
f 17/17/17 15/15/15 16/16/16
f 17/17/17 16/16/16 18/18/18
f 1/1/1 20/20/20 19/19/19
f 1/1/1 19/19/19 21/21/21
f 24/24/24 23/23/23 22/22/22
f 24/24/24 25/25/25 23/23/23
f 28/28/28 27/27/27 26/26/26
f 28/28/28 29/29/29 27/27/27
f 32/32/32 31/31/31 30/30/30
f 32/32/32 33/33/33 31/31/31
f 36/36/36 35/35/35 34/34/34
f 36/36/36 37/37/37 35/35/35
f 25/25/25 38/38/38 23/23/23
f 25/25/25 39/39/39 38/38/38
f 41/41/41 26/26/26 40/40/40
f 41/41/41 28/28/28 26/26/26
f 33/33/33 42/42/42 31/31/31
f 33/33/33 43/43/43 42/42/42
f 37/37/37 44/44/44 35/35/35
f 37/37/37 45/45/45 44/44/44
f 1/1/1 46/46/46 20/20/20
f 1/1/1 2/2/2 46/46/46
f 47/47/47 1/1/1 21/21/21
f 47/47/47 4/4/4 1/1/1
f 50/50/50 49/49/49 48/48/48
f 49/49/49 51/51/51 48/48/48
f 54/54/54 53/53/53 52/52/52
f 53/53/53 55/55/55 52/52/52
f 57/57/57 54/54/54 56/56/56
f 54/54/54 52/52/52 56/56/56
f 52/52/52 55/55/55 50/50/50
f 55/55/55 49/49/49 50/50/50
f 56/56/56 52/52/52 58/58/58
f 52/52/52 50/50/50 58/58/58
f 61/61/61 60/60/60 59/59/59
f 60/60/60 62/62/62 59/59/59
f 59/59/59 62/62/62 63/63/63
f 62/62/62 64/64/64 63/63/63
f 67/67/67 66/66/66 65/65/65
f 68/68/68 67/67/67 65/65/65
f 68/68/68 69/69/69 67/67/67
f 71/71/71 70/70/70 67/67/67
f 71/71/71 67/67/67 69/69/69
f 6/6/6 72/72/72 71/71/71
f 71/71/71 69/69/69 5/5/5
f 6/6/6 71/71/71 5/5/5
f 75/75/75 74/74/74 73/73/73
f 75/75/75 73/73/73 51/51/51
f 48/48/48 51/51/51 73/73/73
f 77/77/77 48/48/48 76/76/76
f 48/48/48 73/73/73 76/76/76
f 77/77/77 78/78/78 58/58/58
f 50/50/50 77/77/77 58/58/58
f 50/50/50 48/48/48 77/77/77
f 60/60/60 61/61/61 79/79/79
f 60/60/60 79/79/79 80/80/80
f 81/81/81 80/80/80 79/79/79
f 83/83/83 79/79/79 82/82/82
f 79/79/79 61/61/61 82/82/82
f 85/85/85 82/82/82 84/84/84
f 82/82/82 59/59/59 84/84/84
f 82/82/82 61/61/61 59/59/59
f 88/88/88 87/87/87 86/86/86
f 87/87/87 89/89/89 86/86/86
f 92/92/92 91/91/91 90/90/90
f 91/91/91 93/93/93 90/90/90
f 96/96/96 95/95/95 94/94/94
f 96/96/96 97/97/97 95/95/95
f 95/95/95 97/97/97 98/98/98
f 99/99/99 98/98/98 97/97/97
f 98/98/98 99/99/99 100/100/100
f 99/99/99 101/101/101 100/100/100
f 99/99/99 102/102/102 101/101/101
f 105/105/105 104/104/104 103/103/103
f 105/105/105 103/103/103 106/106/106
f 109/109/109 108/108/108 107/107/107
f 109/109/109 107/107/107 110/110/110
f 111/111/111 109/109/109 110/110/110
f 111/111/111 110/110/110 112/112/112
f 106/106/106 103/103/103 108/108/108
f 106/106/106 108/108/108 109/109/109
f 113/113/113 106/106/106 109/109/109
f 113/113/113 109/109/109 111/111/111
f 116/116/116 115/115/115 114/114/114
f 116/116/116 114/114/114 117/117/117
f 118/118/118 116/116/116 117/117/117
f 118/118/118 117/117/117 119/119/119
f 119/119/119 117/117/117 120/120/120
f 119/119/119 120/120/120 121/121/121
f 65/65/65 115/115/115 116/116/116
f 68/68/68 65/65/65 116/116/116
f 68/68/68 116/116/116 118/118/118
f 14/14/14 118/118/118 119/119/119
f 119/119/119 121/121/121 13/13/13
f 14/14/14 119/119/119 13/13/13
f 123/123/123 122/122/122 84/84/84
f 59/59/59 123/123/123 84/84/84
f 59/59/59 63/63/63 123/123/123
f 126/126/126 125/125/125 124/124/124
f 126/126/126 124/124/124 64/64/64
f 63/63/63 64/64/64 124/124/124
f 123/123/123 63/63/63 127/127/127
f 63/63/63 124/124/124 127/127/127
f 122/122/122 123/123/123 128/128/128
f 123/123/123 127/127/127 128/128/128
f 127/127/127 124/124/124 129/129/129
f 124/124/124 125/125/125 129/129/129
f 130/130/130 105/105/105 106/106/106
f 113/113/113 130/130/130 106/106/106
f 113/113/113 131/131/131 130/130/130
f 132/132/132 104/104/104 105/105/105
f 104/104/104 132/132/132 133/133/133
f 132/132/132 134/134/134 133/133/133
f 135/135/135 132/132/132 105/105/105
f 135/135/135 105/105/105 130/130/130
f 136/136/136 134/134/134 132/132/132
f 136/136/136 132/132/132 135/135/135
f 137/137/137 135/135/135 130/130/130
f 137/137/137 130/130/130 131/131/131
