g pb_Mesh290102
v -3.344916 0 70
v -4.655083 0 70
v -3.344916 2 70
v -4.655083 2 70
v -8 0 11.5
v -8 0 -10.5
v -8 2 11.5
v -8 2 -10.5
v -8 0 -10.5
v 0 0 -10.5
v -8 2 -10.5
v 0 2 -10.5
v 0 0 -10.5
v 0 0 11.5
v 0 2 -10.5
v 0 2 11.5
v 0 2 11.5
v -8 2 11.5
v 0 2 -10.5
v -8 2 -10.5
v 0 0 -10.5
v -8 0 -10.5
v 0 0 11.5
v -8 0 11.5
v -3.344916 0 70
v -4.655083 0 70
v 0 2 11.5
v 0 0 11.5
v -3.344916 2 70
v -3.344916 0 70
v -8 0 11.5
v -8 2 11.5
v -4.655083 0 70
v -4.655083 2 70
v -4.655083 2 70
v -3.344916 2 70
vt -3.344916 0
vt -4.655083 0
vt -3.344916 2
vt -4.655083 2
vt 11.5 0
vt -10.5 0
vt 11.5 2
vt -10.5 2
vt 8 0
vt 0 0
vt 8 2
vt 0 2
vt 10.5 0
vt -11.5 0
vt 10.5 2
vt -11.5 2
vt 0 11.5
vt 8 11.5
vt 0 -10.5
vt 8 -10.5
vt 0 -10.5
vt -8 -10.5
vt 0 11.5
vt -8 11.5
vt -3.344916 70
vt -4.655083 70
vt -11.48125 2
vt -11.48125 0
vt -70.0768 2
vt -70.0768 0
vt 11.02457 0
vt 11.02457 2
vt 69.62012 0
vt 69.62012 2
vt 4.655083 70
vt 3.344916 70
vn 0 0 1
vn 0 0 1
vn 0 0 1
vn 0 0 1
vn -1 0 0
vn -1 0 0
vn -1 0 0
vn -1 0 0
vn 0 0 -1
vn 0 0 -1
vn 0 0 -1
vn 0 0 -1
vn 1 0 0
vn 1 0 0
vn 1 0 0
vn 1 0 0
vn 0 1 0
vn 0 1 0
vn 0 1 0
vn 0 1 0
vn 0 -1 0
vn 0 -1 0
vn 0 -1 0
vn 0 -1 0
vn 0 -1 0
vn 0 -1 0
vn 0.9983693 0 0.05708482
vn 0.9983693 0 0.05708482
vn 0.9983693 0 0.05708482
vn 0.9983693 0 0.05708482
vn -0.9983693 0 0.05708484
vn -0.9983693 0 0.05708484
vn -0.9983693 0 0.05708484
vn -0.9983693 0 0.05708484
vn 0 1 0
vn 0 1 0
g pb_Mesh290102_0
f 3/3/3 2/2/2 1/1/1
f 3/3/3 4/4/4 2/2/2
f 7/7/7 6/6/6 5/5/5
f 7/7/7 8/8/8 6/6/6
f 11/11/11 10/10/10 9/9/9
f 11/11/11 12/12/12 10/10/10
f 15/15/15 14/14/14 13/13/13
f 15/15/15 16/16/16 14/14/14
f 19/19/19 18/18/18 17/17/17
f 19/19/19 20/20/20 18/18/18
f 23/23/23 22/22/22 21/21/21
f 23/23/23 24/24/24 22/22/22
f 25/25/25 24/24/24 23/23/23
f 25/25/25 26/26/26 24/24/24
f 29/29/29 28/28/28 27/27/27
f 29/29/29 30/30/30 28/28/28
f 33/33/33 32/32/32 31/31/31
f 33/33/33 34/34/34 32/32/32
f 35/35/35 17/17/17 18/18/18
f 35/35/35 36/36/36 17/17/17
