g pb_Mesh403224
v -6 32 -16
v 0 32 -16
v 0 16 -16
v -6 16 -16
v 0 32 8
v -6 32 8
v -6 16 8
v 0 16 8
v -10 32 8
v -10 16 8
v -16 32 -16
v -10 32 -16
v -10 16 -16
v -16 16 -16
v -16 32 8
v -16 16 8
v -10 32 -40
v -10 16 -40
v -10 16 -16
v -10 32 -16
v -6 16 -40
v -6 32 -40
v -6 32 -16
v -6 16 -16
v -6 32 -40
v -10 32 -40
v -10 32 -16
v -6 32 -16
v -10 0 -40
v -6 0 -40
v -6 0 -16
v -10 0 -16
v 0 32 -8
v -6 32 -8
v 0 32 -16
v 0 0 -16
v 0 0 -8
v -6 0 -8
v -10 32 -8
v -16 32 -16
v -16 32 -8
v -16 0 -16
v -10 0 -8
v -16 0 -8
v 0 16 -8
v 0 16 -16
v 0 32 -16
v 0 32 -8
v -16 32 -16
v -16 16 -8
v -16 32 -8
v -16 16 -16
v -16 32 -8
v -16 16 -8
v -20 32 -8
v -20 16 -8
v -20 16 8
v -20 32 8
v 0 16 -8
v 0 32 -8
v 4 16 -8
v 4 32 -8
v 4 32 8
v 4 16 8
v 0 32 -4
v -6 32 -4
v 0 32 0
v -6 32 0
v 0 0 -4
v -6 0 -4
v 0 0 0
v -6 0 0
v -10 32 -4
v -16 32 -4
v -10 32 0
v -16 32 0
v -10 0 -4
v -16 0 -4
v -10 0 0
v -16 0 0
v 4 16 0
v 4 16 -4
v 4 32 -4
v 4 32 0
v 4 16 -8
v 4 32 -8
v -20 32 -4
v -20 16 0
v -20 32 0
v -20 16 -4
v -20 32 -8
v -20 16 -8
v -20 -12 -8
v -16 -12 -8
v -16 -12 -4
v -20 -12 -4
v -20 0 -4
v -20 0 0
v -20 32 -4
v -20 32 0
v -20 32 -8
v 4 0 -4
v 4 0 0
v 4 0 -8
v 4 32 -4
v 4 32 -8
v 4 32 0
v -20 0 -8
v -16 0 -8
v -20 -12 -8
v -16 -12 -8
v -16 0 -8
v -16 0 -4
v -16 -12 -8
v -16 -12 -4
v -20 0 -4
v -20 0 -8
v -20 -12 -4
v -20 -12 -8
v -16 0 -4
v -20 0 -4
v -16 -12 -4
v -20 -12 -4
v 0 0 -16
v -6 0 -16
v -6 8 -16
v 0 8 -16
v -10 0 -16
v -16 0 -16
v -16 8 -16
v -10 8 -16
v -10 8 -16
v -10 8 -40
v -10 0 -16
v -10 0 -40
v -6 0 -16
v -6 0 -40
v -6 8 -40
v -6 8 -16
v -16 8 -16
v -16 0 -8
v -16 8 -8
v -16 0 -16
v 0 0 -8
v 0 0 -16
v 0 8 -16
v 0 8 -8
v -16 8 -8
v -20 8 -8
v 4 0 -8
v 0 0 -8
v 0 8 -8
v 4 8 -8
v -20 8 -4
v -20 0 0
v -20 8 0
v -20 8 -8
v 4 0 0
v 4 0 -4
v 4 8 -4
v 4 8 0
v 4 0 -8
v 4 8 -8
v 0 0 4
v -6 0 4
v 0 32 8
v -6 32 4
v -6 32 8
v 0 32 4
v 4 16 8
v 4 16 4
v 4 32 4
v 4 32 8
v -10 0 4
v -10 32 4
v -10 32 8
v -16 0 4
v -20 32 4
v -20 16 8
v -20 32 8
v -20 16 4
v -16 32 4
v -16 32 8
v -20 0 4
v -20 32 4
v -20 32 8
v 4 0 4
v 4 32 4
v 4 32 8
v 4 8 4
v 4 0 4
v -20 0 4
v -20 8 4
vt -6 32
vt 0 32
vt 0 16
vt -6 16
vt 0 32
vt 6 32
vt 6 16
vt 0 16
vt 10 32
vt 10 16
vt -16 32
vt -10 32
vt -10 16
vt -16 16
vt 16 32
vt 16 16
vt 40 32
vt 40 16
vt 16 16
vt 16 32
vt -40 16
vt -40 32
vt -16 32
vt -16 16
vt -6 -40
vt -10 -40
vt -10 -16
vt -6 -16
vt 10 -40
vt 6 -40
vt 6 -16
vt 10 -16
vt 0 -8
vt -6 -8
vt 0 -16
vt 0 -16
vt 0 -8
vt 6 -8
vt -10 -8
vt -16 -16
vt -16 -8
vt 16 -16
vt 10 -8
vt 16 -8
vt -8 16
vt -16 16
vt -16 32
vt -8 32
vt 16 32
vt 8 16
vt 8 32
vt 16 16
vt -16 32
vt -16 16
vt -20 32
vt -20 16
vt 20 16
vt 20 32
vt 0 16
vt 0 32
vt 4 16
vt 4 32
vt -4 32
vt -4 16
vt 0 -4
vt -6 -4
vt 0 0
vt -6 0
vt 0 -4
vt 6 -4
vt 0 0
vt 6 0
vt -10 -4
vt -16 -4
vt -10 0
vt -16 0
vt 10 -4
vt 16 -4
vt 10 0
vt 16 0
vt 0 16
vt -4 16
vt -4 32
vt 0 32
vt -8 16
vt -8 32
vt 4 32
vt 0 16
vt 0 32
vt 4 16
vt 8 32
vt 8 16
vt 20 -8
vt 16 -8
vt 16 -4
vt 20 -4
vt 20 -4
vt 20 0
vt -20 -4
vt -20 0
vt -20 -8
vt -4 -4
vt -4 0
vt -4 -8
vt 4 -4
vt 4 -8
vt 4 0
vt -20 0
vt -16 0
vt -20 -12
vt -16 -12
vt -8 0
vt -4 0
vt -8 -12
vt -4 -12
vt 4 0
vt 8 0
vt 4 -12
vt 8 -12
vt 16 0
vt 20 0
vt 16 -12
vt 20 -12
vt 0 0
vt -6 0
vt -6 8
vt 0 8
vt -10 0
vt -16 0
vt -16 8
vt -10 8
vt 16 8
vt 40 8
vt 16 0
vt 40 0
vt -16 0
vt -40 0
vt -40 8
vt -16 8
vt 16 8
vt 8 0
vt 8 8
vt 16 0
vt -8 0
vt -16 0
vt -16 8
vt -8 8
vt -16 8
vt -20 8
vt 4 0
vt 0 0
vt 0 8
vt 4 8
vt 4 8
vt 0 0
vt 0 8
vt 8 8
vt 0 0
vt -4 0
vt -4 8
vt 0 8
vt -8 0
vt -8 8
vt 0 4
vt 6 4
vt 0 8
vt -6 4
vt -6 8
vt 0 4
vt 8 16
vt 4 16
vt 4 32
vt 8 32
vt 10 4
vt -10 4
vt -10 8
vt 16 4
vt -4 32
vt -8 16
vt -8 32
vt -4 16
vt -16 4
vt -16 8
vt 20 4
vt -20 4
vt -20 8
vt -4 4
vt 4 4
vt 4 8
vt 4 8
vt 4 0
vt -4 0
vt -4 8
vn 0 0 1
vn 0 0 1
vn 0 0 1
vn 0 0 1
vn 0 0 -1
vn 0 0 -1
vn 0 0 -1
vn 0 0 -1
vn 0 0 -1
vn 0 0 -1
vn 0 0 1
vn 0 0 1
vn 0 0 1
vn 0 0 1
vn 0 0 -1
vn 0 0 -1
vn 1 0 0
vn 1 0 0
vn 1 0 0
vn 1 0 0
vn -1 0 0
vn -1 0 0
vn -1 0 0
vn -1 0 0
vn 0 -1 0
vn 0 -1 0
vn 0 -1 0
vn 0 -1 0
vn 0 1 0
vn 0 1 0
vn 0 1 0
vn 0 1 0
vn 0 -1 0
vn 0 -1 0
vn 0 -1 0
vn 0 1 0
vn 0 1 0
vn 0 1 0
vn 0 -1 0
vn 0 -1 0
vn 0 -1 0
vn 0 1 0
vn 0 1 0
vn 0 1 0
vn -1 0 0
vn -1 0 0
vn -1 0 0
vn -1 0 0
vn 1 0 0
vn 1 0 0
vn 1 0 0
vn 1 0 0
vn 0 0 1
vn 0 0 1
vn 0 0 1
vn 0 0 1
vn 0 0 -1
vn 0 0 -1
vn 0 0 1
vn 0 0 1
vn 0 0 1
vn 0 0 1
vn 0 0 -1
vn 0 0 -1
vn 0 -1 0
vn 0 -1 0
vn 0 -1 0
vn 0 -1 0
vn 0 1 0
vn 0 1 0
vn 0 1 0
vn 0 1 0
vn 0 -1 0
vn 0 -1 0
vn 0 -1 0
vn 0 -1 0
vn 0 1 0
vn 0 1 0
vn 0 1 0
vn 0 1 0
vn -1 0 0
vn -1 0 0
vn -1 0 0
vn -1 0 0
vn -1 0 0
vn -1 0 0
vn 1 0 0
vn 1 0 0
vn 1 0 0
vn 1 0 0
vn 1 0 0
vn 1 0 0
vn 0 1 0
vn 0 1 0
vn 0 1 0
vn 0 1 0
vn 0 1 0
vn 0 1 0
vn 0 -1 0
vn 0 -1 0
vn 0 -1 0
vn 0 1 0
vn 0 1 0
vn 0 1 0
vn 0 -1 0
vn 0 -1 0
vn 0 -1 0
vn 0 0 1
vn 0 0 1
vn 0 0 1
vn 0 0 1
vn -1 0 0
vn -1 0 0
vn -1 0 0
vn -1 0 0
vn 1 0 0
vn 1 0 0
vn 1 0 0
vn 1 0 0
vn 0 0 -1
vn 0 0 -1
vn 0 0 -1
vn 0 0 -1
vn 0 0 1
vn 0 0 1
vn 0 0 1
vn 0 0 1
vn 0 0 1
vn 0 0 1
vn 0 0 1
vn 0 0 1
vn 1 0 0
vn 1 0 0
vn 1 0 0
vn 1 0 0
vn -1 0 0
vn -1 0 0
vn -1 0 0
vn -1 0 0
vn 1 0 0
vn 1 0 0
vn 1 0 0
vn 1 0 0
vn -1 0 0
vn -1 0 0
vn -1 0 0
vn -1 0 0
vn 0 0 1
vn 0 0 1
vn 0 0 1
vn 0 0 1
vn 0 0 1
vn 0 0 1
vn 1 0 0
vn 1 0 0
vn 1 0 0
vn 1 0 0
vn -1 0 0
vn -1 0 0
vn -1 0 0
vn -1 0 0
vn -1 0 0
vn -1 0 0
vn 0 1 0
vn 0 1 0
vn 0 -1 0
vn 0 -1 0
vn 0 -1 0
vn 0 -1 0
vn -1 0 0
vn -1 0 0
vn -1 0 0
vn -1 0 0
vn 0 1 0
vn 0 -1 0
vn 0 -1 0
vn 0 1 0
vn 1 0 0
vn 1 0 0
vn 1 0 0
vn 1 0 0
vn 0 -1 0
vn 0 -1 0
vn 0 1 0
vn 0 -1 0
vn 0 -1 0
vn 0 1 0
vn 0 -1 0
vn 0 -1 0
vn -1 0 0
vn -1 0 0
vn 1 0 0
vn 1 0 0
g pb_Mesh403224_0
g pb_Mesh403224_1
f 3/3/3 2/2/2 1/1/1
f 4/4/4 3/3/3 1/1/1
f 7/7/7 6/6/6 5/5/5
f 8/8/8 7/7/7 5/5/5
f 10/10/10 9/9/9 6/6/6
f 7/7/7 10/10/10 6/6/6
f 13/13/13 12/12/12 11/11/11
f 14/14/14 13/13/13 11/11/11
f 16/16/16 15/15/15 9/9/9
f 10/10/10 16/16/16 9/9/9
f 19/19/19 18/18/18 17/17/17
f 20/20/20 19/19/19 17/17/17
f 23/23/23 22/22/22 21/21/21
f 24/24/24 23/23/23 21/21/21
f 27/27/27 26/26/26 25/25/25
f 28/28/28 27/27/27 25/25/25
f 31/31/31 30/30/30 29/29/29
f 32/32/32 31/31/31 29/29/29
f 34/34/34 28/28/28 33/33/33
f 28/28/28 35/35/35 33/33/33
f 37/37/37 36/36/36 31/31/31
f 37/37/37 31/31/31 38/38/38
f 41/41/41 40/40/40 39/39/39
f 40/40/40 27/27/27 39/39/39
f 39/39/39 27/27/27 34/34/34
f 27/27/27 28/28/28 34/34/34
f 43/43/43 32/32/32 42/42/42
f 43/43/43 42/42/42 44/44/44
f 38/38/38 31/31/31 32/32/32
f 38/38/38 32/32/32 43/43/43
f 47/47/47 46/46/46 45/45/45
f 47/47/47 45/45/45 48/48/48
f 51/51/51 50/50/50 49/49/49
f 50/50/50 52/52/52 49/49/49
f 55/55/55 54/54/54 53/53/53
f 55/55/55 56/56/56 54/54/54
f 57/57/57 15/15/15 16/16/16
f 57/57/57 58/58/58 15/15/15
f 61/61/61 60/60/60 59/59/59
f 61/61/61 62/62/62 60/60/60
f 63/63/63 8/8/8 5/5/5
f 63/63/63 64/64/64 8/8/8
f 66/66/66 34/34/34 65/65/65
f 34/34/34 33/33/33 65/65/65
f 68/68/68 66/66/66 67/67/67
f 66/66/66 65/65/65 67/67/67
f 69/69/69 37/37/37 38/38/38
f 69/69/69 38/38/38 70/70/70
f 71/71/71 69/69/69 70/70/70
f 71/71/71 70/70/70 72/72/72
f 74/74/74 41/41/41 73/73/73
f 41/41/41 39/39/39 73/73/73
f 76/76/76 74/74/74 75/75/75
f 74/74/74 73/73/73 75/75/75
f 73/73/73 39/39/39 66/66/66
f 39/39/39 34/34/34 66/66/66
f 75/75/75 73/73/73 68/68/68
f 73/73/73 66/66/66 68/68/68
f 77/77/77 43/43/43 44/44/44
f 77/77/77 44/44/44 78/78/78
f 79/79/79 77/77/77 78/78/78
f 79/79/79 78/78/78 80/80/80
f 70/70/70 38/38/38 43/43/43
f 70/70/70 43/43/43 77/77/77
f 72/72/72 70/70/70 77/77/77
f 72/72/72 77/77/77 79/79/79
f 83/83/83 82/82/82 81/81/81
f 83/83/83 81/81/81 84/84/84
f 86/86/86 85/85/85 82/82/82
f 86/86/86 82/82/82 83/83/83
f 89/89/89 88/88/88 87/87/87
f 88/88/88 90/90/90 87/87/87
f 87/87/87 90/90/90 91/91/91
f 90/90/90 92/92/92 91/91/91
f 95/95/95 94/94/94 93/93/93
f 95/95/95 93/93/93 96/96/96
f 80/80/80 78/78/78 97/97/97
f 80/80/80 97/97/97 98/98/98
f 100/100/100 99/99/99 76/76/76
f 99/99/99 74/74/74 76/76/76
f 99/99/99 101/101/101 74/74/74
f 101/101/101 41/41/41 74/74/74
f 103/103/103 102/102/102 69/69/69
f 103/103/103 69/69/69 71/71/71
f 102/102/102 104/104/104 37/37/37
f 102/102/102 37/37/37 69/69/69
f 65/65/65 33/33/33 105/105/105
f 33/33/33 106/106/106 105/105/105
f 67/67/67 65/65/65 107/107/107
f 65/65/65 105/105/105 107/107/107
f 110/110/110 109/109/109 108/108/108
f 110/110/110 111/111/111 109/109/109
f 114/114/114 113/113/113 112/112/112
f 114/114/114 115/115/115 113/113/113
f 118/118/118 117/117/117 116/116/116
f 118/118/118 119/119/119 117/117/117
f 122/122/122 121/121/121 120/120/120
f 122/122/122 123/123/123 121/121/121
f 126/126/126 125/125/125 124/124/124
f 126/126/126 124/124/124 127/127/127
f 4/4/4 126/126/126 127/127/127
f 4/4/4 127/127/127 3/3/3
f 130/130/130 129/129/129 128/128/128
f 130/130/130 128/128/128 131/131/131
f 14/14/14 130/130/130 131/131/131
f 14/14/14 131/131/131 13/13/13
f 19/19/19 132/132/132 18/18/18
f 132/132/132 133/133/133 18/18/18
f 132/132/132 134/134/134 133/133/133
f 134/134/134 135/135/135 133/133/133
f 138/138/138 137/137/137 136/136/136
f 138/138/138 136/136/136 139/139/139
f 21/21/21 138/138/138 139/139/139
f 21/21/21 139/139/139 24/24/24
f 142/142/142 141/141/141 140/140/140
f 141/141/141 143/143/143 140/140/140
f 50/50/50 142/142/142 52/52/52
f 142/142/142 140/140/140 52/52/52
f 146/146/146 145/145/145 144/144/144
f 146/146/146 144/144/144 147/147/147
f 46/46/46 146/146/146 147/147/147
f 46/46/46 147/147/147 45/45/45
f 56/56/56 149/149/149 148/148/148
f 56/56/56 148/148/148 54/54/54
f 149/149/149 108/108/108 109/109/109
f 149/149/149 109/109/109 148/148/148
f 152/152/152 151/151/151 150/150/150
f 152/152/152 150/150/150 153/153/153
f 59/59/59 152/152/152 153/153/153
f 59/59/59 153/153/153 61/61/61
f 156/156/156 155/155/155 154/154/154
f 155/155/155 116/116/116 154/154/154
f 88/88/88 156/156/156 90/90/90
f 156/156/156 154/154/154 90/90/90
f 154/154/154 116/116/116 157/157/157
f 116/116/116 117/117/117 157/157/157
f 90/90/90 154/154/154 92/92/92
f 154/154/154 157/157/157 92/92/92
f 160/160/160 159/159/159 158/158/158
f 160/160/160 158/158/158 161/161/161
f 82/82/82 160/160/160 161/161/161
f 82/82/82 161/161/161 81/81/81
f 163/163/163 162/162/162 159/159/159
f 163/163/163 159/159/159 160/160/160
f 85/85/85 163/163/163 160/160/160
f 85/85/85 160/160/160 82/82/82
f 164/164/164 71/71/71 72/72/72
f 164/164/164 72/72/72 165/165/165
f 168/168/168 167/167/167 166/166/166
f 167/167/167 169/169/169 166/166/166
f 167/167/167 68/68/68 169/169/169
f 68/68/68 67/67/67 169/169/169
f 172/172/172 171/171/171 170/170/170
f 172/172/172 170/170/170 173/173/173
f 84/84/84 81/81/81 171/171/171
f 84/84/84 171/171/171 172/172/172
f 165/165/165 72/72/72 79/79/79
f 165/165/165 79/79/79 174/174/174
f 176/176/176 175/175/175 168/168/168
f 175/175/175 167/167/167 168/168/168
f 175/175/175 75/75/75 167/167/167
f 75/75/75 68/68/68 167/167/167
f 174/174/174 79/79/79 80/80/80
f 174/174/174 80/80/80 177/177/177
f 180/180/180 179/179/179 178/178/178
f 179/179/179 181/181/181 178/178/178
f 178/178/178 181/181/181 89/89/89
f 181/181/181 88/88/88 89/89/89
f 183/183/183 182/182/182 176/176/176
f 182/182/182 175/175/175 176/176/176
f 182/182/182 76/76/76 175/175/175
f 76/76/76 75/75/75 175/175/175
f 177/177/177 80/80/80 98/98/98
f 177/177/177 98/98/98 184/184/184
f 186/186/186 185/185/185 183/183/183
f 185/185/185 182/182/182 183/183/183
f 185/185/185 100/100/100 182/182/182
f 100/100/100 76/76/76 182/182/182
f 187/187/187 103/103/103 71/71/71
f 187/187/187 71/71/71 164/164/164
f 169/169/169 67/67/67 188/188/188
f 67/67/67 107/107/107 188/188/188
f 166/166/166 169/169/169 189/189/189
f 169/169/169 188/188/188 189/189/189
f 81/81/81 161/161/161 190/190/190
f 81/81/81 190/190/190 171/171/171
f 161/161/161 158/158/158 191/191/191
f 161/161/161 191/191/191 190/190/190
f 193/193/193 192/192/192 156/156/156
f 192/192/192 155/155/155 156/156/156
f 181/181/181 193/193/193 88/88/88
f 193/193/193 156/156/156 88/88/88
