g pb_Mesh404060
v 0 0 31.5
v -4 0 31.5
v -4 0 15.5
v 0 0 15.5
v -4 28.5 23.5
v 0 28.5 23.5
v 0 28.5 7.5
v -4 28.5 7.5
v -4 28.5 23.5
v 0 16.5 31.5
v 0 28.5 23.5
v -4 16.5 31.5
v -16 16.5 15.5
v -4 0 15.5
v -4 16.5 15.5
v -16 0 15.5
v -16 28.5 7.5
v -4 16.5 15.5
v -4 28.5 7.5
v -16 16.5 15.5
v -4 16.5 15.5
v -4 0 31.5
v -4 16.5 31.5
v -4 0 15.5
v -4 28.5 7.5
v -4 28.5 23.5
v 0 16.5 31.5
v 0 16.5 15.5
v 0 28.5 7.5
v 0 28.5 23.5
v 0 0 31.5
v 0 0 15.5
v 0 0 67
v -4 0 67
v -4 0 67
v -4 16.5 67
v 0 16.5 67
v 0 0 67
v -4 16.5 67
v 0 16.5 67
v 0 16.5 31.5
v -4 16.5 31.5
v 0 28.5 1.75
v -4 28.5 -41.5
v -4 28.5 1.75
v 0 28.5 -41.5
v -16 28.5 -41.5
v -16 28.5 1.75
v -16 28.5 7.5
v -4 0 -41.5
v 0 0 -41.5
v 0 0 9.5
v -4 0 9.5
v -16 -4.5 -41.5
v -4 -4.5 -41.5
v -4 -4.5 5.75
v -16 -4.5 5.75
v -16 0 9.5
v -16 0 15.5
v -16 16.5 5.75
v -16 0 15.5
v -16 16.5 15.5
v -16 0 9.5
v -16 16.5 -41.5
v -16 0 -41.5
v -16 28.5 1.75
v -16 28.5 7.5
v -16 28.5 -41.5
v 0 0 9.5
v 0 16.5 5.75
v 0 0 -41.5
v 0 16.5 -41.5
v 0 28.5 1.75
v 0 28.5 -41.5
v -4 0 -41.5
v -4 0 9.5
v -4 -4.5 -41.5
v -4 -4.5 5.75
v -16 -4.5 5.75
v -16 -4.5 -41.5
v -4 0 9.5
v -16 0 9.5
v -4 -4.5 5.75
v -16 -4.5 5.75
v 0 0 67
v 0 16.5 67
v 0 0 67
v 0 16.5 67
v 0 16.5 67
v 0 0 67
v 0 16.5 67
v -4 16.5 67
v 0 16.5 67
v -4 16.5 67
v -4 16.5 67
v 0 16.5 67
v -4 16.5 67
v -4 0 67
v -4 16.5 67
v -4 0 67
v -4 0 67
v -4 16.5 67
v -4 0 67
v 0 0 67
v -4 0 67
v 0 0 67
v 0 0 67
v -4 0 67
vt 0 31.5
vt 4 31.5
vt 4 15.5
vt 0 15.5
vt -4 23.5
vt 0 23.5
vt 0 7.5
vt -4 7.5
vt 4 10.67798
vt 0 -3.744224
vt 0 10.67798
vt 4 -3.744224
vt 16 11.30036
vt 4 -4.491654
vt 4 11.30036
vt 16 -4.491654
vt 16 25.10374
vt 4 11.30036
vt 4 25.10374
vt 16 11.30036
vt -15.5 16.5
vt -31.5 0
vt -31.5 16.5
vt -15.5 0
vt -7.5 28.5
vt -23.5 28.5
vt 31.5 16.5
vt 15.5 16.5
vt 7.5 28.5
vt 23.5 28.5
vt 31.5 0
vt 15.5 0
vt 0 67
vt 4 67
vt -67 0
vt -67 16.5
vt 67 16.5
vt 67 0
vt -4 67
vt 0 67
vt 0 31.5
vt -4 31.5
vt 0 1.75
vt -4 -41.5
vt -4 1.75
vt 0 -41.5
vt -16 -41.5
vt -16 1.75
vt -16 7.5
vt 4 -41.5
vt 0 -41.5
vt 0 9.5
vt 4 9.5
vt 16 -41.5
vt 4 -41.5
vt 4 5.75
vt 16 5.75
vt 16 9.5
vt 16 15.5
vt -5.75 16.5
vt -15.5 0
vt -15.5 16.5
vt -9.5 0
vt 41.5 16.5
vt 41.5 0
vt -1.75 28.5
vt -7.5 28.5
vt 41.5 28.5
vt 9.5 0
vt 5.75 16.5
vt -41.5 0
vt -41.5 16.5
vt 1.75 28.5
vt -41.5 28.5
vt -41.5 0
vt 9.5 0
vt -41.5 -4.5
vt 5.75 -4.5
vt -5.75 -4.5
vt 41.5 -4.5
vt 4 6.081751
vt 16 6.081751
vt 4 0.2240643
vt 16 0.2240643
vt 0 0
vt 0 0
vt 0 0
vt 0 0
vt 0 0
vt 0 0
vt 0 0
vt 0 0
vt 0 0
vt 0 0
vt 0 0
vt 0 0
vt 0 0
vt 0 0
vt 0 0
vt 0 0
vt 0 0
vt 0 0
vt 0 0
vt 0 0
vt 0 0
vt 0 0
vt 0 0
vt 0 0
vn 0 1 0
vn 0 1 0
vn 0 1 0
vn 0 1 0
vn 0 -1 0
vn 0 -1 0
vn 0 -1 0
vn 0 -1 0
vn 0 -0.5547002 -0.8320503
vn 0 -0.5547002 -0.8320503
vn 0 -0.5547002 -0.8320503
vn 0 -0.5547002 -0.8320503
vn 0 0 -1
vn 0 0 -1
vn 0 0 -1
vn 0 0 -1
vn 0 -0.5547002 -0.8320503
vn 0 -0.5547002 -0.8320503
vn 0 -0.5547002 -0.8320503
vn 0 -0.5547002 -0.8320503
vn 1 0 0
vn 1 0 0
vn 1 0 0
vn 1 0 0
vn 1 0 0
vn 1 0 0
vn -1 0 0
vn -1 0 0
vn -1 0 0
vn -1 0 0
vn -1 0 0
vn -1 0 0
vn 0 1 0
vn 0 1 0
vn 1 0 0
vn 1 0 0
vn -1 0 0
vn -1 0 0
vn 0 -1 0
vn 0 -1 0
vn 0 -1 0
vn 0 -1 0
vn 0 -1 0
vn 0 -1 0
vn 0 -1 0
vn 0 -1 0
vn 0 -1 0
vn 0 -1 0
vn 0 -1 0
vn 0 1 0
vn 0 1 0
vn 0 1 0
vn 0 1 0
vn 0 1 0
vn 0 1 0
vn 0 1 0
vn 0 1 0
vn 0 1 0
vn 0 1 0
vn 1 0 0
vn 1 0 0
vn 1 0 0
vn 1 0 0
vn 1 0 0
vn 1 0 0
vn 1 0 0
vn 1 0 0
vn 1 0 0
vn -1 0 0
vn -1 0 0
vn -1 0 0
vn -1 0 0
vn -1 0 0
vn -1 0 0
vn -1 0 0
vn -1 0 0
vn -1 0 0
vn -1 0 0
vn 1 0 0
vn 1 0 0
vn 0 0.6401844 -0.7682213
vn 0 0.6401844 -0.7682213
vn 0 0.6401844 -0.7682213
vn 0 0.6401844 -0.7682213
vn 0 0 0
vn 0 0 0
vn 0 0 0
vn 0 0 0
vn 0 0 0
vn 0 0 0
vn 0 0 0
vn 0 0 0
vn 0 0 0
vn 0 0 0
vn 0 0 0
vn 0 0 0
vn 0 0 0
vn 0 0 0
vn 0 0 0
vn 0 0 0
vn 0 0 0
vn 0 0 0
vn 0 0 0
vn 0 0 0
vn 0 0 0
vn 0 0 0
vn 0 0 0
vn 0 0 0
g pb_Mesh404060_0
f 3/3/3 2/2/2 1/1/1
f 4/4/4 3/3/3 1/1/1
f 7/7/7 6/6/6 5/5/5
f 8/8/8 7/7/7 5/5/5
f 11/11/11 10/10/10 9/9/9
f 10/10/10 12/12/12 9/9/9
f 15/15/15 14/14/14 13/13/13
f 14/14/14 16/16/16 13/13/13
f 19/19/19 18/18/18 17/17/17
f 18/18/18 20/20/20 17/17/17
f 23/23/23 22/22/22 21/21/21
f 22/22/22 24/24/24 21/21/21
f 26/26/26 23/23/23 25/25/25
f 23/23/23 21/21/21 25/25/25
f 29/29/29 28/28/28 27/27/27
f 29/29/29 27/27/27 30/30/30
f 28/28/28 32/32/32 31/31/31
f 28/28/28 31/31/31 27/27/27
f 2/2/2 34/34/34 33/33/33
f 1/1/1 2/2/2 33/33/33
f 23/23/23 36/36/36 35/35/35
f 22/22/22 23/23/23 35/35/35
f 31/31/31 38/38/38 37/37/37
f 27/27/27 31/31/31 37/37/37
f 41/41/41 40/40/40 39/39/39
f 42/42/42 41/41/41 39/39/39
f 45/45/45 44/44/44 43/43/43
f 44/44/44 46/46/46 43/43/43
f 8/8/8 45/45/45 7/7/7
f 45/45/45 43/43/43 7/7/7
f 48/48/48 47/47/47 45/45/45
f 47/47/47 44/44/44 45/45/45
f 49/49/49 48/48/48 8/8/8
f 48/48/48 45/45/45 8/8/8
f 52/52/52 51/51/51 50/50/50
f 52/52/52 50/50/50 53/53/53
f 4/4/4 52/52/52 53/53/53
f 4/4/4 53/53/53 3/3/3
f 56/56/56 55/55/55 54/54/54
f 56/56/56 54/54/54 57/57/57
f 3/3/3 53/53/53 58/58/58
f 3/3/3 58/58/58 59/59/59
f 62/62/62 61/61/61 60/60/60
f 61/61/61 63/63/63 60/60/60
f 60/60/60 63/63/63 64/64/64
f 63/63/63 65/65/65 64/64/64
f 67/67/67 60/60/60 66/66/66
f 62/62/62 60/60/60 67/67/67
f 64/64/64 68/68/68 66/66/66
f 64/64/64 66/66/66 60/60/60
f 70/70/70 69/69/69 32/32/32
f 70/70/70 32/32/32 28/28/28
f 72/72/72 71/71/71 69/69/69
f 72/72/72 69/69/69 70/70/70
f 29/29/29 70/70/70 28/28/28
f 73/73/73 70/70/70 29/29/29
f 70/70/70 73/73/73 72/72/72
f 73/73/73 74/74/74 72/72/72
f 77/77/77 76/76/76 75/75/75
f 77/77/77 78/78/78 76/76/76
f 79/79/79 65/65/65 63/63/63
f 79/79/79 80/80/80 65/65/65
f 83/83/83 82/82/82 81/81/81
f 83/83/83 84/84/84 82/82/82
g pb_Mesh404060_1
f 87/87/87 86/86/86 85/85/85
f 90/90/90 89/89/89 88/88/88
f 93/93/93 92/92/92 91/91/91
f 96/96/96 95/95/95 94/94/94
f 99/99/99 98/98/98 97/97/97
f 102/102/102 101/101/101 100/100/100
f 105/105/105 104/104/104 103/103/103
f 108/108/108 107/107/107 106/106/106
