g pb_Mesh358926
v -4 -8 18
v -14 -8 18
v -14 -4 18
v -4 -4 18
v -14 -2 18
v -4 -2 18
v -14 -8 18
v -14 -8 14
v -14 -4 14
v -14 -4 18
v -14 -4 14
v -4 -8 14
v -4 -4 14
v -14 -8 14
v -4 -8 14
v -4 -8 4
v -4 -4 4
v -4 -4 14
v 0 -4 4
v 0 -8 14
v 0 -4 14
v 0 -8 4
v 0 -2 4
v 0 -2 14
v -4 -8 4
v -14 -8 4
v -14 -4 4
v -4 -4 4
v -14 -4 0
v -4 -8 0
v -4 -4 0
v -14 -8 0
v -14 -2 0
v -4 -2 0
v -14 -4 4
v -14 -8 14
v -14 -4 14
v -14 -8 4
v -18 -8 14
v -18 -8 4
v -18 -4 4
v -18 -4 14
v -18 -2 4
v -18 -2 14
v -14 -8 18
v -14 -4 18
v -2 -2 4
v 0 -2 4
v 0 -2 14
v -2 -1.99995 14
v -2 -2 0
v 0 -4 0
v 0 -2 0
v -2 -4 0
v 0 -8 0
v -2 -8 0
v 0 -8 18
v -2 -8 18
v -2 -4 18
v 0 -4 18
v -2 -2 18
v 0 -2 18
v -18 -2 4
v -16 -2 4
v -16 -2 14
v -18 -2 14
v -16 -4 18
v -16 -2 18
v -18 -4 18
v -18 -2 18
v -16 -8 18
v -18 -8 18
v -16 -4 0
v -16 -8 0
v -18 -4 0
v -18 -8 0
v -16 -2 0
v -18 -2 0
v -14 -1.99995 16
v -4 -2 16
v -4 -2 18
v -14 -2 18
v 0 -4 16
v 0 -8 18
v 0 -4 18
v 0 -8 16
v 0 -2 16
v 0 -2 18
v -18 -8 18
v -18 -8 16
v -18 -4 16
v -18 -4 18
v -18 -2 16
v -18 -2 18
v -2 -1.99995 16
v -2 -2 18
v -2 -1.99995 14
v 0 -2 16
v 0 -2 18
v -16 -1.99995 16
v -18 -2 16
v -16 -2 18
v -18 -2 18
v -14 -1.99995 16
v -14 -2 18
v -14 -2 0
v -4 -2 0
v -4 -1.99995 2
v -14 -1.99995 2
v -18 -4 2
v -18 -2 2
v -18 -4 0
v -18 -2 0
v -18 -8 2
v -18 -8 0
v 0 -4 2
v 0 -8 2
v 0 -4 0
v 0 -8 0
v 0 -2 2
v 0 -2 0
v -2 -2 0
v 0 -2 0
v 0 -2 2
v -2 -1.99995 2
v 0 -2 4
v -2 -2 4
v -4 -2 0
v -4 -1.99995 2
v -16 -2 0
v -16 -1.99995 2
v -18 -2 0
v -18 -2 2
v -16 -2 4
v -18 -2 4
v -4 -2 4
v -4 -2 14
v -14 -2 4
v -4 -2 4
v -4 -2 14
v -4 -2 4
v -14 -1.99995 2
v -14 -2 4
v -4 -1.99995 2
v -4 -2 16
v -2 -1.99995 16
v -2 -1.99995 2
v -14 -1.99995 16
v -16 -2 14
v -14 -2 14
v -16 -1.99995 16
v -16 -1.99995 2
vt -4 -8
vt -14 -8
vt -14 -4
vt -4 -4
vt -14 -2
vt -4 -2
vt 18 -8
vt 14 -8
vt 14 -4
vt 18 -4
vt 14 -4
vt 4 -8
vt 4 -4
vt 14 -8
vt 14 -8
vt 4 -8
vt 4 -4
vt 14 -4
vt -4 -4
vt -14 -8
vt -14 -4
vt -4 -8
vt -4 -2
vt -14 -2
vt -4 -8
vt -14 -8
vt -14 -4
vt -4 -4
vt 14 -4
vt 4 -8
vt 4 -4
vt 14 -8
vt 14 -2
vt 4 -2
vt -4 -4
vt -14 -8
vt -14 -4
vt -4 -8
vt 14 -8
vt 4 -8
vt 4 -4
vt 14 -4
vt 4 -2
vt 14 -2
vt -18 -8
vt -18 -4
vt 2 4
vt 0 4
vt 0 14
vt 2 14
vt 2 -2
vt 0 -4
vt 0 -2
vt 2 -4
vt 0 -8
vt 2 -8
vt 0 -8
vt -2 -8
vt -2 -4
vt 0 -4
vt -2 -2
vt 0 -2
vt 18 4
vt 16 4
vt 16 14
vt 18 14
vt -16 -4
vt -16 -2
vt -18 -4
vt -18 -2
vt -16 -8
vt -18 -8
vt 16 -4
vt 16 -8
vt 18 -4
vt 18 -8
vt 16 -2
vt 18 -2
vt 13.99999 16
vt 3.99999 16
vt 3.99999 18
vt 13.99999 18
vt -16 -4
vt -18 -8
vt -18 -4
vt -16 -8
vt -16 -2
vt -18 -2
vt 18 -8
vt 16 -8
vt 16 -4
vt 18 -4
vt 16 -2
vt 18 -2
vt 1.999983 16.00002
vt 1.999983 18.00002
vt 1.999983 14.00002
vt -1.66893E-05 16.00002
vt -1.66893E-05 18.00002
vt 16.00002 16.00002
vt 18.00002 16.00002
vt 16.00002 18.00002
vt 18.00002 18.00002
vt 14.00002 16.00002
vt 14.00002 18.00002
vt 14 -5.00679E-05
vt 4 -5.00679E-05
vt 4 1.99995
vt 14 1.99995
vt 2 -4
vt 2 -2
vt 0 -4
vt 0 -2
vt 2 -8
vt 0 -8
vt -2 -4
vt -2 -8
vt 0 -4
vt 0 -8
vt -2 -2
vt 0 -2
vt 1.999983 -1.668944E-05
vt -1.66893E-05 -1.66893E-05
vt -1.66893E-05 1.999983
vt 1.999983 1.999983
vt -1.66893E-05 3.999984
vt 1.999983 3.999984
vt 3.999983 -1.668958E-05
vt 3.999983 1.999983
vt 16.00002 -1.668819E-05
vt 16.00002 1.999983
vt 18.00002 -1.668805E-05
vt 18.00002 1.999983
vt 16.00002 3.999984
vt 18.00002 3.999984
vt 4 -2
vt 14 -2
vt -14 -2
vt -4 -2
vt 4 14
vt 4 4
vt 14 2.00005
vt 14 4.000051
vt 4 2.00005
vt 4.00005 16
vt 2.00005 16
vt 2 2.00005
vt 14 15.99995
vt 16 13.99995
vt 14 13.99995
vt 16 15.99995
vt 16 2.00005
vn 0 0 1
vn 0 0 1
vn 0 0 1
vn 0 0 1
vn 0 0 1
vn 0 0 1
vn -1 0 0
vn -1 0 0
vn -1 0 0
vn -1 0 0
vn 0 0 -1
vn 0 0 -1
vn 0 0 -1
vn 0 0 -1
vn -1 0 0
vn -1 0 0
vn -1 0 0
vn -1 0 0
vn 1 0 0
vn 1 0 0
vn 1 0 0
vn 1 0 0
vn 1 0 0
vn 1 0 0
vn 0 0 1
vn 0 0 1
vn 0 0 1
vn 0 0 1
vn 0 0 -1
vn 0 0 -1
vn 0 0 -1
vn 0 0 -1
vn 0 0 -1
vn 0 0 -1
vn 1 0 0
vn 1 0 0
vn 1 0 0
vn 1 0 0
vn -1 0 0
vn -1 0 0
vn -1 0 0
vn -1 0 0
vn -1 0 0
vn -1 0 0
vn 1 0 0
vn 1 0 0
vn 1.251698E-05 1 -2.503395E-06
vn 0 1 0
vn 1.251698E-05 1 -2.503395E-06
vn 2.503395E-05 1 -5.00679E-06
vn 0 0 -1
vn 0 0 -1
vn 0 0 -1
vn 0 0 -1
vn 0 0 -1
vn 0 0 -1
vn 0 0 1
vn 0 0 1
vn 0 0 1
vn 0 0 1
vn 0 0 1
vn 0 0 1
vn 0 1 0
vn 0 1 0
vn 0 1 0
vn 0 1 0
vn 0 0 1
vn 0 0 1
vn 0 0 1
vn 0 0 1
vn 0 0 1
vn 0 0 1
vn 0 0 -1
vn 0 0 -1
vn 0 0 -1
vn 0 0 -1
vn 0 0 -1
vn 0 0 -1
vn 2.503395E-06 1 1.251698E-05
vn 5.00679E-06 1 0
vn 2.503395E-06 1 1.251698E-05
vn 0 1 2.503395E-05
vn 1 0 0
vn 1 0 0
vn 1 0 0
vn 1 0 0
vn 1 0 0
vn 1 0 0
vn -1 0 0
vn -1 0 0
vn -1 0 0
vn -1 0 0
vn -1 0 0
vn -1 0 0
vn -2.503395E-05 1 2.503395E-05
vn -1.251698E-05 1 1.251698E-05
vn 2.503395E-05 1 0
vn 2.503395E-05 1 0
vn 1.251698E-05 1 1.251698E-05
vn -1.251698E-05 1 -1.251698E-05
vn -2.503395E-05 1 0
vn -1.251698E-05 1 1.251698E-05
vn 0 1 0
vn 0 1 2.503395E-05
vn 0 1 2.503395E-05
vn 0 1 -2.503395E-05
vn 0 1 -2.503395E-05
vn 0 1 -2.503395E-05
vn 0 1 -2.503395E-05
vn -1 0 0
vn -1 0 0
vn -1 0 0
vn -1 0 0
vn -1 0 0
vn -1 0 0
vn 1 0 0
vn 1 0 0
vn 1 0 0
vn 1 0 0
vn 1 0 0
vn 1 0 0
vn 1.251698E-05 1 -1.251698E-05
vn 0 1 0
vn 1.251698E-05 1 -1.251698E-05
vn 2.503395E-05 1 -2.503395E-05
vn 1.251698E-05 1 1.251697E-05
vn 0 1 2.503395E-05
vn 0 1 -2.503395E-05
vn 0 1 -2.503395E-05
vn 0 1 -2.503395E-05
vn 0 1 -2.503395E-05
vn -1.251698E-05 1 -1.251698E-05
vn -2.503395E-05 1 0
vn -1.251698E-05 1 1.251697E-05
vn 0 1 0
vn -1 0 0
vn -1 0 0
vn 0 0 1
vn 0 0 1
vn -1.251698E-05 1 -2.503395E-06
vn 0 1 0
vn 0 1 2.503395E-05
vn 0 1 2.503395E-05
vn 0 1 2.503395E-05
vn -2.503395E-05 1 0
vn -2.503395E-05 1 0
vn 0 1 2.503395E-05
vn 0 1 -2.503395E-05
vn 0 1 -2.503395E-05
vn 0 1 -2.503395E-05
vn 0 1 -2.503395E-05
vn 0 1 2.503395E-05
g pb_Mesh358926_0
g pb_Mesh358926_1
f 3/3/3 2/2/2 1/1/1
f 3/3/3 1/1/1 4/4/4
f 5/5/5 3/3/3 4/4/4
f 5/5/5 4/4/4 6/6/6
f 9/9/9 8/8/8 7/7/7
f 9/9/9 7/7/7 10/10/10
f 13/13/13 12/12/12 11/11/11
f 12/12/12 14/14/14 11/11/11
f 17/17/17 16/16/16 15/15/15
f 17/17/17 15/15/15 18/18/18
f 21/21/21 20/20/20 19/19/19
f 20/20/20 22/22/22 19/19/19
f 24/24/24 21/21/21 23/23/23
f 21/21/21 19/19/19 23/23/23
f 27/27/27 26/26/26 25/25/25
f 27/27/27 25/25/25 28/28/28
f 31/31/31 30/30/30 29/29/29
f 30/30/30 32/32/32 29/29/29
f 34/34/34 31/31/31 33/33/33
f 31/31/31 29/29/29 33/33/33
f 37/37/37 36/36/36 35/35/35
f 36/36/36 38/38/38 35/35/35
f 41/41/41 40/40/40 39/39/39
f 41/41/41 39/39/39 42/42/42
f 43/43/43 41/41/41 42/42/42
f 43/43/43 42/42/42 44/44/44
f 46/46/46 45/45/45 37/37/37
f 45/45/45 36/36/36 37/37/37
f 49/49/49 48/48/48 47/47/47
f 49/49/49 47/47/47 50/50/50
f 53/53/53 52/52/52 51/51/51
f 52/52/52 54/54/54 51/51/51
f 51/51/51 54/54/54 34/34/34
f 54/54/54 31/31/31 34/34/34
f 52/52/52 55/55/55 54/54/54
f 55/55/55 56/56/56 54/54/54
f 54/54/54 56/56/56 31/31/31
f 56/56/56 30/30/30 31/31/31
f 59/59/59 58/58/58 57/57/57
f 59/59/59 57/57/57 60/60/60
f 4/4/4 1/1/1 58/58/58
f 4/4/4 58/58/58 59/59/59
f 61/61/61 59/59/59 60/60/60
f 61/61/61 60/60/60 62/62/62
f 6/6/6 4/4/4 59/59/59
f 6/6/6 59/59/59 61/61/61
f 65/65/65 64/64/64 63/63/63
f 65/65/65 63/63/63 66/66/66
f 68/68/68 67/67/67 3/3/3
f 68/68/68 3/3/3 5/5/5
f 70/70/70 69/69/69 67/67/67
f 70/70/70 67/67/67 68/68/68
f 67/67/67 71/71/71 2/2/2
f 67/67/67 2/2/2 3/3/3
f 69/69/69 72/72/72 71/71/71
f 69/69/69 71/71/71 67/67/67
f 29/29/29 32/32/32 73/73/73
f 32/32/32 74/74/74 73/73/73
f 73/73/73 74/74/74 75/75/75
f 74/74/74 76/76/76 75/75/75
f 33/33/33 29/29/29 77/77/77
f 29/29/29 73/73/73 77/77/77
f 77/77/77 73/73/73 78/78/78
f 73/73/73 75/75/75 78/78/78
f 81/81/81 80/80/80 79/79/79
f 81/81/81 79/79/79 82/82/82
f 85/85/85 84/84/84 83/83/83
f 84/84/84 86/86/86 83/83/83
f 83/83/83 86/86/86 21/21/21
f 86/86/86 20/20/20 21/21/21
f 88/88/88 85/85/85 87/87/87
f 85/85/85 83/83/83 87/87/87
f 87/87/87 83/83/83 24/24/24
f 83/83/83 21/21/21 24/24/24
f 91/91/91 90/90/90 89/89/89
f 91/91/91 89/89/89 92/92/92
f 42/42/42 39/39/39 90/90/90
f 42/42/42 90/90/90 91/91/91
f 93/93/93 91/91/91 92/92/92
f 93/93/93 92/92/92 94/94/94
f 44/44/44 42/42/42 91/91/91
f 44/44/44 91/91/91 93/93/93
f 96/96/96 95/95/95 80/80/80
f 96/96/96 80/80/80 81/81/81
f 98/98/98 49/49/49 97/97/97
f 98/98/98 97/97/97 95/95/95
f 99/99/99 98/98/98 95/95/95
f 99/99/99 95/95/95 96/96/96
f 100/100/100 65/65/65 66/66/66
f 100/100/100 66/66/66 101/101/101
f 102/102/102 100/100/100 101/101/101
f 102/102/102 101/101/101 103/103/103
f 105/105/105 104/104/104 100/100/100
f 105/105/105 100/100/100 102/102/102
f 108/108/108 107/107/107 106/106/106
f 108/108/108 106/106/106 109/109/109
f 111/111/111 110/110/110 41/41/41
f 111/111/111 41/41/41 43/43/43
f 113/113/113 112/112/112 110/110/110
f 113/113/113 110/110/110 111/111/111
f 110/110/110 114/114/114 40/40/40
f 110/110/110 40/40/40 41/41/41
f 112/112/112 115/115/115 114/114/114
f 112/112/112 114/114/114 110/110/110
f 19/19/19 22/22/22 116/116/116
f 22/22/22 117/117/117 116/116/116
f 116/116/116 117/117/117 118/118/118
f 117/117/117 119/119/119 118/118/118
f 23/23/23 19/19/19 120/120/120
f 19/19/19 116/116/116 120/120/120
f 120/120/120 116/116/116 121/121/121
f 116/116/116 118/118/118 121/121/121
f 124/124/124 123/123/123 122/122/122
f 124/124/124 122/122/122 125/125/125
f 126/126/126 124/124/124 125/125/125
f 126/126/126 125/125/125 127/127/127
f 125/125/125 122/122/122 128/128/128
f 125/125/125 128/128/128 129/129/129
f 109/109/109 106/106/106 130/130/130
f 109/109/109 130/130/130 131/131/131
f 131/131/131 130/130/130 132/132/132
f 131/131/131 132/132/132 133/133/133
f 134/134/134 131/131/131 133/133/133
f 134/134/134 133/133/133 135/135/135
f 136/136/136 17/17/17 18/18/18
f 136/136/136 18/18/18 137/137/137
f 138/138/138 27/27/27 28/28/28
f 138/138/138 28/28/28 139/139/139
f 141/141/141 140/140/140 47/47/47
f 140/140/140 50/50/50 47/47/47
f 143/143/143 141/141/141 142/142/142
f 141/141/141 144/144/144 142/142/142
f 140/140/140 145/145/145 50/50/50
f 145/145/145 146/146/146 50/50/50
f 141/141/141 47/47/47 144/144/144
f 47/47/47 147/147/147 144/144/144
f 150/150/150 149/149/149 148/148/148
f 149/149/149 151/151/151 148/148/148
f 64/64/64 143/143/143 152/152/152
f 143/143/143 142/142/142 152/152/152
