g pb_Mesh348468
v -30 44 -30
v -2 44 -30
v -2 27 -30
v -30 27 -30
v -2 44 -30
v -2 44 -2
v -2 27 -2
v -2 27 -30
v -2 44 -2
v -2 44 -30
v -17.99916 44 -2
v -30 44 -30
v -30 44 -2
v 2 23 -34
v -34 23 -34
v -30 27 -30
v -2 27 -30
v -34 23 -34
v -34 23 2
v -30 27 -2
v -30 27 -30
v -43 12 -20.375
v -43 12 -12.125
v -43 20 -12.125
v -43 20 -20.375
v -30 44 -2
v -30 44 -30
v -30 37 -12.25
v -30 37 -20.25
v -30 27 -30
v -30 29 -20.25
v -30 27 -2
v -30 29 -12.25
v -34 12 -34
v -34 23 -34
v -19.25 12 -34
v -19.25 17 -34
v 2 23 -34
v -13.75 17 -34
v 2 12 -34
v -13.75 12 -34
v -43.5 37 -12.25
v -30 29 -12.25
v -30 37 -12.25
v -43.5 29 -12.25
v -43.5 29 -20.25
v -30 37 -20.25
v -30 29 -20.25
v -43.5 37 -20.25
v -43.5 29 -12.25
v -30 29 -20.25
v -30 29 -12.25
v -43.5 29 -20.25
v -43.5 37 -20.25
v -30 37 -12.25
v -30 37 -20.25
v -43.5 37 -12.25
v -34 12 2
v -34 12 -34
v -34 -36 2
v -34 -36 -34
v -34 12 -34
v 2 12 -34
v -34 -36 -34
v 2 -36 -34
v 2 12 -34
v 2 12 2
v 2 -36 -34
v 2 -36 2
v -30 44 -2
v -30 27 -2
v -20 37 -2
v -20 29 -2
v -2 27 -2
v -12 29 -2
v -2 44 -2
v -12 37 -2
v -12 37 -2
v -20 37 -2
v -12 37 5
v -20 37 5
v -20 37 -2
v -20 29 -2
v -20 37 5
v -20 29 5
v -20 29 -2
v -12 29 -2
v -20 29 5
v -12 29 5
v -12 29 -2
v -12 37 -2
v -12 29 5
v -12 37 5
v -34 12 2
v -34 23 2
v -34 12 -12.125
v -34 20 -12.125
v -34 23 -34
v -34 20 -20.375
v -34 12 -34
v -34 12 -20.375
v -34 12 -20.375
v -34 12 -12.125
v -43 12 -20.375
v -43 12 -12.125
v -34 12 -12.125
v -34 20 -12.125
v -43 12 -12.125
v -43 20 -12.125
v -34 20 -12.125
v -34 20 -20.375
v -43 20 -12.125
v -43 20 -20.375
v -34 20 -20.375
v -34 12 -20.375
v -43 20 -20.375
v -43 12 -20.375
v -34 23 2
v -20.25 21.5 2
v -20.25 23 2
v -34 12 2
v -34 -36 2
v -20.25 -36 2
v -20.25 0.0625 2
v -34 12 2
v -20.25 21.5 2
v -17.99916 44 -2
v -30 27 -2
v -34 23 2
v -20.25 23 2
v -2 27 -2
v -9.125 23 2
v 2 23 2
v -9.125 23 2
v 2 17.49837 1.999965
v 2 23 2
v -14 21.25 2
v -20.25 23 2
v 2 11.99674 1.999929
v -14 12 2
v -20.25 11.99674 1.999929
v -20.25 -36 1.99983
v 2 -36 1.99983
v -14 12 2
v -14 21.25 2
v -14 12 5
v -14 21.25 5
v -14 21.25 2
v -20.25 21.5 2
v -14 21.25 5
v -20 21.5 5
v -20.25 21.5 2
v -20.25 11.99674 1.999929
v -20 21.5 5
v -20 12 5
v -20.25 11.99674 1.999929
v -14 12 2
v -20 12 5
v -14 12 5
v -19.25 12 -34
v -19.25 12 -39
v -19.25 17 -39
v -19.25 17 -34
v -13.75 17 -39
v -19.25 17 -34
v -13.75 17 -34
v -19.25 17 -39
v -13.75 12 -39
v -13.75 17 -34
v -13.75 12 -34
v -13.75 17 -39
v -13.75 12 -39
v -19.25 17 -39
v -13.75 17 -39
v -19.25 12 -39
v -20 21.5 5
v -14 12 5
v -14 21.25 5
v -20 12 5
v 2 -36 2
v -34 -36 -34
v 2 -36 -34
v -34 -36 2
vt -4.000122 4.57143
vt -28.00012 4.57143
vt -28.00012 -7.42857
vt -4.000122 -7.42857
vt 12 4.57143
vt -12 4.57143
vt -12 -7.42857
vt 12 -7.42857
vt -28.00012 12
vt -28.00012 -12
vt -8.000061 8.285715
vt -4.000122 -12
vt -4.000122 12
vt -32.00012 -16
vt -0.0001220703 -16
vt -4.000122 -12
vt -28.00012 -12
vt -0.0001220703 -16
vt -0.0001220703 16
vt -4.000122 12
vt -4.000122 -12
vt -16 -35.42857
vt 16 -35.42857
vt 16 -7.42857
vt -16 -7.42857
vt 2 44
vt 30 44
vt 12.25 37
vt 20.25 37
vt 30 27
vt 20.25 29
vt 2 27
vt 12.25 29
vt -34 12
vt -34 23
vt -19.25 12
vt -19.25 17
vt 2 23
vt -13.75 17
vt 2 12
vt -13.75 12
vt 43.5 37
vt 30 29
vt 30 37
vt 43.5 29
vt -43.5 29
vt -30 37
vt -30 29
vt -43.5 37
vt 43.5 -12.25
vt 30 -20.25
vt 30 -12.25
vt 43.5 -20.25
vt -43.5 -20.25
vt -30 -12.25
vt -30 -20.25
vt -43.5 -12.25
vt -2 12
vt 34 12
vt -2 -36
vt 34 -36
vt -34 12
vt 2 12
vt -34 -36
vt 2 -36
vt -34 12
vt 2 12
vt -34 -36
vt 2 -36
vt 30 44
vt 30 27
vt 20 37
vt 20 29
vt 2 27
vt 12 29
vt 2 44
vt 12 37
vt -12 -2
vt -20 -2
vt -12 5
vt -20 5
vt 2 37
vt 2 29
vt -5 37
vt -5 29
vt 20 -2
vt 12 -2
vt 20 5
vt 12 5
vt -2 29
vt -2 37
vt 5 29
vt 5 37
vt -2 12
vt -2 23
vt 12.125 12
vt 12.125 20
vt 34 23
vt 20.375 20
vt 34 12
vt 20.375 12
vt 34 -20.375
vt 34 -12.125
vt 43 -20.375
vt 43 -12.125
vt 34 12
vt 34 20
vt 43 12
vt 43 20
vt -34 -12.125
vt -34 -20.375
vt -43 -12.125
vt -43 -20.375
vt -34 20
vt -34 12
vt -43 20
vt -43 12
vt 4.829617 -14.39485
vt 5.924732 -28.183
vt 4.425381 -28.1389
vt 15.82486 -14.71824
vt 34 -36
vt 20.25 -36
vt 20.25 0.0625
vt 34 12
vt 20.25 21.5
vt 17.99916 44
vt -21.15524 27.32009
vt -16.25626 32.21907
vt -13.93111 18.66708
vt -16.42039 -0.2766743
vt -12.04985 7.702299
vt -10.1686 -3.262486
vt 9.125 23.00001
vt -2 17.49838
vt -2 23.00001
vt 14 21.25001
vt 20.25 23.00001
vt -2 11.99675
vt 14 12.00001
vt 20.25 11.99674
vt 20.25 -36
vt -1.999999 -36
vt 2 12
vt 2 21.25
vt 5 12
vt 5 21.25
vt -14.83813 2
vt -21.09313 2
vt -14.83813 5
vt -20.84333 5
vt -0.3114204 21.50001
vt -0.3113501 11.99675
vt -3.321819 21.50001
vt -3.321819 12.00001
vt 20.24374 2.012456
vt 13.99374 2.012527
vt 19.99374 5.012529
vt 13.99374 5.012526
vt -34 12
vt -39 12
vt -39 17
vt -34 17
vt -13.75 -39
vt -19.25 -34
vt -13.75 -34
vt -19.25 -39
vt -39 12
vt -34 17
vt -34 12
vt -39 17
vt -13.75 12
vt -19.25 17
vt -13.75 17
vt -19.25 12
vt 20 21.5
vt 14 12
vt 14 21.25
vt 20 12
vt -2 2
vt 34 -34
vt -2 -34
vt 34 2
vn 0 0 1
vn 0 0 1
vn 0 0 1
vn 0 0 1
vn -1 0 0
vn -1 0 0
vn -1 0 0
vn -1 0 0
vn 0 -1 0
vn 0 -1 0
vn 0 -1 0
vn 0 -1 0
vn 0 -1 0
vn 0 -0.7071068 0.7071068
vn 0 -0.7071068 0.7071068
vn 0 -0.7071068 0.7071068
vn 0 -0.7071068 0.7071068
vn 0.7071068 -0.7071068 0
vn 0.7071068 -0.7071068 0
vn 0.7071068 -0.7071068 0
vn 0.7071068 -0.7071068 0
vn 1 0 0
vn 1 0 0
vn 1 0 0
vn 1 0 0
vn 1 0 0
vn 1 0 0
vn 1 0 0
vn 1 0 0
vn 1 0 0
vn 1 0 0
vn 1 0 0
vn 1 0 0
vn 0 0 1
vn 0 0 1
vn 0 0 1
vn 0 0 1
vn 0 0 1
vn 0 0 1
vn 0 0 1
vn 0 0 1
vn 0 0 -1
vn 0 0 -1
vn 0 0 -1
vn 0 0 -1
vn 0 0 1
vn 0 0 1
vn 0 0 1
vn 0 0 1
vn 0 1 0
vn 0 1 0
vn 0 1 0
vn 0 1 0
vn 0 -1 0
vn 0 -1 0
vn 0 -1 0
vn 0 -1 0
vn 1 0 0
vn 1 0 0
vn 1 0 0
vn 1 0 0
vn 0 0 1
vn 0 0 1
vn 0 0 1
vn 0 0 1
vn -1 0 0
vn -1 0 0
vn -1 0 0
vn -1 0 0
vn 0 0 -1
vn 0 0 -1
vn 0 0 -1
vn 0 0 -1
vn 0 0 -1
vn 0 0 -1
vn 0 0 -1
vn 0 0 -1
vn 0 -1 0
vn 0 -1 0
vn 0 -1 0
vn 0 -1 0
vn 1 0 0
vn 1 0 0
vn 1 0 0
vn 1 0 0
vn 0 1 0
vn 0 1 0
vn 0 1 0
vn 0 1 0
vn -1 0 0
vn -1 0 0
vn -1 0 0
vn -1 0 0
vn 1 0 0
vn 1 0 0
vn 1 0 0
vn 1 0 0
vn 1 0 0
vn 1 0 0
vn 1 0 0
vn 1 0 0
vn 0 1 0
vn 0 1 0
vn 0 1 0
vn 0 1 0
vn 0 0 -1
vn 0 0 -1
vn 0 0 -1
vn 0 0 -1
vn 0 -1 0
vn 0 -1 0
vn 0 -1 0
vn 0 -1 0
vn 0 0 1
vn 0 0 1
vn 0 0 1
vn 0 0 1
vn 0 0 -1
vn 0 0 -1
vn 0 0 -1
vn 0 0 -1
vn 0 0 -1
vn 0 0 -1
vn 0 0 -1
vn 0 0 -1
vn 0 0 -1
vn 0 0 -1
vn 0 -0.7071068 -0.7071068
vn 0 -0.7071068 -0.7071068
vn 0 -0.7071068 -0.7071068
vn 0 -0.7071068 -0.7071068
vn 0 -0.7071068 -0.7071068
vn 0 -0.7071068 -0.7071068
vn -6.670067E-07 5.064953E-06 -1
vn -6.670067E-07 5.064953E-06 -1
vn 0 6.413725E-06 -1
vn -1.334013E-06 3.71618E-06 -1
vn 0 0 -1
vn -2.556122E-06 3.206863E-06 -1
vn -4.410744E-06 0 -1
vn 1.129043E-05 2.066435E-06 -1
vn 5.645213E-06 2.801488E-06 -1
vn -2.205161E-06 2.801488E-06 -1
vn -1 0 0
vn -1 0 0
vn -1 0 0
vn -1 0 0
vn -0.03996804 -0.999201 0
vn -0.04079917 -0.999164 0.001734596
vn -0.04079917 -0.999164 0.001734596
vn -0.04163029 -0.9991271 0.003469191
vn 0.9965457 6.167018E-07 -0.08304548
vn 0.9965458 3.083509E-07 -0.08304451
vn 0.9965458 3.083509E-07 -0.08304451
vn 0.9965459 0 -0.08304354
vn -0.0005216859 0.9999993 -0.001043372
vn -0.000260843 0.9999996 -0.0005216859
vn -0.000260843 0.9999996 -0.0005216859
vn 0 1 0
vn -1 0 0
vn -1 0 0
vn -1 0 0
vn -1 0 0
vn 0 -1 0
vn 0 -1 0
vn 0 -1 0
vn 0 -1 0
vn -1 0 0
vn -1 0 0
vn -1 0 0
vn -1 0 0
vn 0 0 1
vn 0 0 1
vn 0 0 1
vn 0 0 1
vn 0 0 -1
vn 0 0 -1
vn 0 0 -1
vn 0 0 -1
vn 0 1 0
vn 0 1 0
vn 0 1 0
vn 0 1 0
g pb_Mesh348468_0
f 3/3/3 2/2/2 1/1/1
f 4/4/4 3/3/3 1/1/1
f 7/7/7 6/6/6 5/5/5
f 8/8/8 7/7/7 5/5/5
f 11/11/11 10/10/10 9/9/9
f 10/10/10 11/11/11 12/12/12
f 11/11/11 13/13/13 12/12/12
f 16/16/16 15/15/15 14/14/14
f 17/17/17 16/16/16 14/14/14
f 20/20/20 19/19/19 18/18/18
f 21/21/21 20/20/20 18/18/18
f 24/24/24 23/23/23 22/22/22
f 25/25/25 24/24/24 22/22/22
f 28/28/28 27/27/27 26/26/26
f 28/28/28 29/29/29 27/27/27
f 29/29/29 30/30/30 27/27/27
f 29/29/29 31/31/31 30/30/30
f 31/31/31 32/32/32 30/30/30
f 31/31/31 33/33/33 32/32/32
f 33/33/33 26/26/26 32/32/32
f 33/33/33 28/28/28 26/26/26
f 36/36/36 35/35/35 34/34/34
f 36/36/36 37/37/37 35/35/35
f 37/37/37 38/38/38 35/35/35
f 37/37/37 39/39/39 38/38/38
f 39/39/39 40/40/40 38/38/38
f 39/39/39 41/41/41 40/40/40
f 44/44/44 43/43/43 42/42/42
f 43/43/43 45/45/45 42/42/42
f 48/48/48 47/47/47 46/46/46
f 47/47/47 49/49/49 46/46/46
f 52/52/52 51/51/51 50/50/50
f 51/51/51 53/53/53 50/50/50
f 56/56/56 55/55/55 54/54/54
f 55/55/55 57/57/57 54/54/54
f 60/60/60 59/59/59 58/58/58
f 60/60/60 61/61/61 59/59/59
f 64/64/64 63/63/63 62/62/62
f 64/64/64 65/65/65 63/63/63
f 68/68/68 67/67/67 66/66/66
f 68/68/68 69/69/69 67/67/67
f 72/72/72 71/71/71 70/70/70
f 72/72/72 73/73/73 71/71/71
f 73/73/73 74/74/74 71/71/71
f 73/73/73 75/75/75 74/74/74
f 75/75/75 76/76/76 74/74/74
f 75/75/75 77/77/77 76/76/76
f 80/80/80 79/79/79 78/78/78
f 80/80/80 81/81/81 79/79/79
f 84/84/84 83/83/83 82/82/82
f 84/84/84 85/85/85 83/83/83
f 88/88/88 87/87/87 86/86/86
f 88/88/88 89/89/89 87/87/87
f 92/92/92 91/91/91 90/90/90
f 92/92/92 93/93/93 91/91/91
f 96/96/96 95/95/95 94/94/94
f 96/96/96 97/97/97 95/95/95
f 97/97/97 98/98/98 95/95/95
f 97/97/97 99/99/99 98/98/98
f 99/99/99 100/100/100 98/98/98
f 99/99/99 101/101/101 100/100/100
f 104/104/104 103/103/103 102/102/102
f 104/104/104 105/105/105 103/103/103
f 108/108/108 107/107/107 106/106/106
f 108/108/108 109/109/109 107/107/107
f 112/112/112 111/111/111 110/110/110
f 112/112/112 113/113/113 111/111/111
f 116/116/116 115/115/115 114/114/114
f 116/116/116 117/117/117 115/115/115
f 120/120/120 119/119/119 118/118/118
f 119/119/119 121/121/121 118/118/118
f 124/124/124 123/123/123 122/122/122
f 124/124/124 122/122/122 125/125/125
f 126/126/126 124/124/124 125/125/125
f 127/127/127 72/72/72 70/70/70
f 77/77/77 72/72/72 127/127/127
f 76/76/76 77/77/77 127/127/127
f 130/130/130 129/129/129 128/128/128
f 131/131/131 130/130/130 128/128/128
f 131/131/131 132/132/132 130/130/130
f 133/133/133 132/132/132 131/131/131
f 136/136/136 135/135/135 134/134/134
f 135/135/135 137/137/137 134/134/134
f 134/134/134 137/137/137 138/138/138
f 137/137/137 126/126/126 138/138/138
f 135/135/135 139/139/139 137/137/137
f 139/139/139 140/140/140 137/137/137
f 142/142/142 141/141/141 140/140/140
f 142/142/142 140/140/140 143/143/143
f 139/139/139 143/143/143 140/140/140
f 146/146/146 145/145/145 144/144/144
f 146/146/146 147/147/147 145/145/145
f 150/150/150 149/149/149 148/148/148
f 150/150/150 151/151/151 149/149/149
f 154/154/154 153/153/153 152/152/152
f 154/154/154 155/155/155 153/153/153
f 158/158/158 157/157/157 156/156/156
f 158/158/158 159/159/159 157/157/157
f 162/162/162 161/161/161 160/160/160
f 162/162/162 160/160/160 163/163/163
f 166/166/166 165/165/165 164/164/164
f 165/165/165 167/167/167 164/164/164
f 170/170/170 169/169/169 168/168/168
f 169/169/169 171/171/171 168/168/168
f 174/174/174 173/173/173 172/172/172
f 173/173/173 175/175/175 172/172/172
g pb_Mesh348468_1
f 178/178/178 177/177/177 176/176/176
f 177/177/177 179/179/179 176/176/176
f 182/182/182 181/181/181 180/180/180
f 181/181/181 183/183/183 180/180/180
