g pb_Mesh428654
v -4 0 -4
v 0 0 -4
v -4 4 -4
v 0 4 -4
v 0 4 0
v -4 4 0
v 0 4 -4
v -4 4 -4
v -4 8 0
v -4 4 -4
v -4 4 0
v -4 8 -4
v -4 8 0
v -4 8 -4
v -4 8 0
v -4 8 0
v -4 8 -4
v -4 8 -4
v -4 10 0
v -4 10 -4
v -3.9999 8 14
v -3.9999 10 14
v -8 10 14
v -4 10 0
v -3.9999 10 14
v -8 10 0
v -4 10 -4
v -8 10 -4
v -8 10 -4
v -4 8 -4
v -4 10 -4
v -8 8 -4
v -8 4 -4.000071
v -8 0 -4.000099
vt 4 0
vt 0 0
vt 4 4
vt 0 4
vt 0 0
vt 4 0
vt 0 -4
vt 4 -4
vt 0 8
vt 4 4
vt 0 4
vt 4 8
vt 0 0
vt 0 0
vt 0 0
vt 0 0
vt 0 0
vt 0 0
vt 0 10
vt 4 10
vt -13.99997 8
vt -13.99997 10
vt 8 14
vt 4 0
vt 3.9999 14
vt 8 0
vt 4 -4
vt 8 -4
vt 8 10
vt 4 8
vt 4 10
vt 8 8
vt 8 4
vt 8.000071 0
vn 0 0 -1
vn 0 0 -1
vn 0 0 -1
vn 0 0 -1
vn 0 1 0
vn 0 1 0
vn 0 1 0
vn 0 1 0
vn 1 0 0
vn 1 0 0
vn 1 0 0
vn 1 0 0
vn 0 0 0
vn 0 0 0
vn 0 0 0
vn 0 0 0
vn 0 0 0
vn 0 0 0
vn 1 0 0
vn 1 0 0
vn 1 0 -7.152557E-06
vn 1 0 -7.152557E-06
vn 0 1 0
vn 0 1 0
vn 0 1 0
vn 0 1 0
vn 0 1 0
vn 0 1 0
vn 0 0 -1
vn 0 0 -1
vn 0 0 -1
vn 0 0 -1
vn 1.764297E-05 1.764297E-05 -1
vn 2.479553E-05 7.152557E-06 -1
g pb_Mesh428654_0
f 3/3/3 2/2/2 1/1/1
f 3/3/3 4/4/4 2/2/2
f 7/7/7 6/6/6 5/5/5
f 7/7/7 8/8/8 6/6/6
f 11/11/11 10/10/10 9/9/9
f 10/10/10 12/12/12 9/9/9
f 15/15/15 14/14/14 13/13/13
f 18/18/18 17/17/17 16/16/16
f 9/9/9 12/12/12 19/19/19
f 12/12/12 20/20/20 19/19/19
f 9/9/9 19/19/19 21/21/21
f 19/19/19 22/22/22 21/21/21
f 25/25/25 24/24/24 23/23/23
f 24/24/24 26/26/26 23/23/23
f 24/24/24 27/27/27 26/26/26
f 27/27/27 28/28/28 26/26/26
f 31/31/31 30/30/30 29/29/29
f 30/30/30 32/32/32 29/29/29
f 30/30/30 3/3/3 32/32/32
f 3/3/3 33/33/33 32/32/32
f 3/3/3 1/1/1 33/33/33
f 1/1/1 34/34/34 33/33/33
