g pb_Mesh-94514
v 0 0 0
v -1 0 0
v 0 1 0
v -1 1 0
v -1 0 0
v -1 0 -1
v -1 1 0
v -1 1 -1
v -1 0 -2
v 0 0 -2
v -1 1 -2
v 0 1 -2
v 1 0 -1
v 1 0 0
v 1 1 -1
v 1 1 0
v 0 5 0
v -1 5 0
v 0 5 -1
v -1 5 -1
v 0 0 -1
v -1 0 -1
v 0 0 0
v -1 0 0
v -1 0 -2
v 0 0 -2
v -1 1 -2
v -1 0 -2
v 0 0 -1
v 0 1 -1
v 0 0 -2
v 0 1 -2
v 3.812714E-06 3.000006 -0.9999844
v -0.9999962 3.000006 -0.9999877
v 6.852551E-06 3.000011 -1.999984
v -0.9999931 3.000011 -1.999988
v 1 0 -1
v 1 0 0
v 0 1 -1
v 0 0 -1
v 1 1 -1
v 1 0 -1
v 0 0 1.5
v 0 1 1.5
v 1 0 1.5
v 1 1 1.5
v 0 2 0
v 0 2 -1
v 1 2 0
v 1 2 -1
v -1 2 0
v -1 2 -1
v 1 2 1.5
v 0 2 1.5
v 0 2 -1
v 1 2 -1
v 1 2 -1
v 1 2 0
v 0 2 0
v -1 2 0
v 0 2 -2
v 0 2 -1
v -1 2 -2
v -1 2 -2
v 0 2 -2
v 6.852551E-06 3.000011 -1.999984
v 3.812714E-06 3.000006 -0.9999844
v -1 2 -1
v -1 2 -2
v -0.9999962 3.000006 -0.9999877
v -0.9999931 3.000011 -1.999988
v -1 2 -2
v 0 2 -2
v -0.9999931 3.000011 -1.999988
v 6.852551E-06 3.000011 -1.999984
v 0 3 0
v -1 3 0
v 0 2 0
v 0 3 0
v -1 3 0
v 0 5 0
v -1 5 0
v 0 5 -1
v 0 5 0
v -1 5 0
v -1 5 -1
v -0.9999962 3.000006 -0.9999877
v 3.812714E-06 3.000006 -0.9999844
v -1 5 -1
v 0 5 -1
v 1 1 1.5
v 1 0 1.5
v 1 2 1.5
v 0 1 0
v 0 2 0
v 0 1 1.5
v 0 2 1.5
v 0 2 1.5
v 1 2 1.5
v 0 0 0
v 0 0 1.5
v 1 0 1.5
v 0 0 1.5
vt 0 0
vt -1 0
vt 0 1
vt -1 1
vt 0 0
vt -1 0
vt 0 1
vt -1 1
vt 1 0
vt 0 0
vt 1 1
vt 0 1
vt 1 0
vt 0 0
vt 1 1
vt 0 1
vt 0 0
vt 1 0
vt 0 -1
vt 1 -1
vt 0 -1
vt -1 -1
vt 0 0
vt -1 0
vt -1 -2
vt 0 -2
vt -2 1
vt -2 0
vt 1 0
vt 1 1
vt 2 0
vt 2 1
vt -4.528022E-06 -1
vt 0.9999955 -1.000003
vt -7.56786E-06 -2
vt 0.9999924 -2.000003
vt 1 -1
vt 1 0
vt 0 1
vt 0 0
vt -1 1
vt -1 0
vt 0 0
vt 0 1
vt 1 0
vt 1 1
vt 0 0
vt 0 -1
vt -1 0
vt -1 -1
vt 0 2
vt -1 2
vt 1 2
vt 0 2
vt 0 2
vt -1 2
vt 1 2
vt 0 2
vt 0 2
vt -1 2
vt 2 2
vt 1 2
vt -2 2
vt 1 2
vt 0 2
vt 1.999984 3.000011
vt 0.9999844 3.000006
vt -1 1.999996
vt -2 1.999996
vt -0.9999877 3.000002
vt -1.999988 3.000007
vt 1 1.999975
vt 0 1.999975
vt 0.9999931 2.999986
vt -6.852551E-06 2.999986
vt 0 3
vt -1 3
vt 0 2
vt 0 3
vt 0 3
vt 0 5
vt -1 5
vt 1 5
vt 0 5
vt 3.814745E-06 5
vt -0.9999962 5
vt 0.9999994 3.000012
vt -5.941118E-07 3.000012
vt 1.000003 5.000006
vt 3.218652E-06 5.000006
vt -1.5 1
vt -1.5 0
vt -1.5 2
vt 0 1
vt 0 2
vt 1.5 1
vt 1.5 2
vt 0 1.5
vt -1 1.5
vt 0 0
vt 1.5 0
vt 1 1.5
vt 0 1.5
vn 0 0 1
vn 0 0 1
vn 0 0 1
vn 0 0 1
vn -1 0 0
vn -1 0 0
vn -1 0 0
vn -1 0 0
vn 0 0 -1
vn 0 0 -1
vn 0 0 -1
vn 0 0 -1
vn 1 0 0
vn 1 0 0
vn 1 0 0
vn 1 0 0
vn 0 1 0
vn 0 1 0
vn 0 1 0
vn 0 1 0
vn 0 -1 0
vn 0 -1 0
vn 0 -1 0
vn 0 -1 0
vn 0 -1 0
vn 0 -1 0
vn -1 0 0
vn -1 0 0
vn 1 0 0
vn 1 0 0
vn 1 0 0
vn 1 0 0
vn -2.384355E-07 1 5.245208E-06
vn -2.384355E-07 1 5.245208E-06
vn -2.384355E-07 1 5.245208E-06
vn -2.384355E-07 1 5.245208E-06
vn 0 -1 0
vn 0 -1 0
vn 0 0 -1
vn 0 0 -1
vn 0 0 -1
vn 0 0 -1
vn 0 0 1
vn 0 0 1
vn 0 0 1
vn 0 0 1
vn 0 1 0
vn 0 1 0
vn 0 1 0
vn 0 1 0
vn -1 0 0
vn -1 0 0
vn 0 0 1
vn 0 0 1
vn 0 0 -1
vn 0 0 -1
vn 1 0 0
vn 1 0 0
vn 0 0 1
vn 0 0 1
vn 1 0 0
vn 1 0 0
vn -1 0 0
vn 0 0 -1
vn 0 0 -1
vn 1 -5.332606E-06 1.519908E-06
vn 1 -3.812738E-06 3.039817E-06
vn -1 3.814675E-06 0
vn -1 5.334586E-06 -1.5199E-06
vn -1 5.334586E-06 -1.5199E-06
vn -1 6.854497E-06 -3.039801E-06
vn 0 1.239763E-05 -1
vn 1.609323E-06 1.400693E-05 -1
vn 1.609323E-06 1.400693E-05 -1
vn 3.218647E-06 1.561622E-05 -1
vn 0 0 1
vn 0 0 1
vn 1 -1.906346E-06 1.906387E-06
vn 1 0 3.812773E-06
vn -1 1.907361E-06 -1.907361E-06
vn 0 0 1
vn 0 0 1
vn 1 9.531962E-07 1.906392E-06
vn 1 0 0
vn -1 -9.53677E-07 -1.907372E-06
vn -1 -1.907354E-06 0
vn 3.218652E-06 -6.169092E-06 -1
vn 1.609326E-06 -6.973761E-06 -1
vn 1.609326E-06 -6.973761E-06 -1
vn 0 -7.778429E-06 -1
vn 1 0 0
vn 1 0 0
vn 1 0 0
vn -1 0 0
vn -1 0 0
vn -1 0 0
vn -1 0 0
vn 0 1 0
vn 0 1 0
vn -1 0 0
vn -1 0 0
vn 0 -1 0
vn 0 -1 0
g pb_Mesh-94514_0
f 3/3/3 2/2/2 1/1/1
f 3/3/3 4/4/4 2/2/2
f 7/7/7 6/6/6 5/5/5
f 7/7/7 8/8/8 6/6/6
f 11/11/11 10/10/10 9/9/9
f 11/11/11 12/12/12 10/10/10
f 15/15/15 14/14/14 13/13/13
f 15/15/15 16/16/16 14/14/14
f 19/19/19 18/18/18 17/17/17
f 19/19/19 20/20/20 18/18/18
f 23/23/23 22/22/22 21/21/21
f 23/23/23 24/24/24 22/22/22
f 25/25/25 21/21/21 22/22/22
f 25/25/25 26/26/26 21/21/21
f 27/27/27 6/6/6 8/8/8
f 27/27/27 28/28/28 6/6/6
f 31/31/31 30/30/30 29/29/29
f 31/31/31 32/32/32 30/30/30
f 35/35/35 34/34/34 33/33/33
f 35/35/35 36/36/36 34/34/34
f 37/37/37 23/23/23 21/21/21
f 37/37/37 38/38/38 23/23/23
f 41/41/41 40/40/40 39/39/39
f 41/41/41 42/42/42 40/40/40
f 45/45/45 44/44/44 43/43/43
f 45/45/45 46/46/46 44/44/44
f 49/49/49 48/48/48 47/47/47
f 49/49/49 50/50/50 48/48/48
f 51/51/51 8/8/8 7/7/7
f 51/51/51 52/52/52 8/8/8
f 53/53/53 44/44/44 46/46/46
f 53/53/53 54/54/54 44/44/44
f 55/55/55 41/41/41 39/39/39
f 55/55/55 56/56/56 41/41/41
f 57/57/57 16/16/16 15/15/15
f 57/57/57 58/58/58 16/16/16
f 59/59/59 4/4/4 3/3/3
f 59/59/59 60/60/60 4/4/4
f 61/61/61 30/30/30 32/32/32
f 61/61/61 62/62/62 30/30/30
f 52/52/52 27/27/27 8/8/8
f 52/52/52 63/63/63 27/27/27
f 64/64/64 12/12/12 11/11/11
f 64/64/64 65/65/65 12/12/12
f 66/66/66 62/62/62 61/61/61
f 66/66/66 67/67/67 62/62/62
f 70/70/70 69/69/69 68/68/68
f 70/70/70 71/71/71 69/69/69
f 74/74/74 73/73/73 72/72/72
f 74/74/74 75/75/75 73/73/73
f 76/76/76 60/60/60 59/59/59
f 76/76/76 77/77/77 60/60/60
f 67/67/67 78/78/78 62/62/62
f 67/67/67 79/79/79 78/78/78
f 80/80/80 52/52/52 51/51/51
f 80/80/80 70/70/70 52/52/52
f 81/81/81 77/77/77 76/76/76
f 81/81/81 82/82/82 77/77/77
f 83/83/83 79/79/79 67/67/67
f 83/83/83 84/84/84 79/79/79
f 85/85/85 70/70/70 80/80/80
f 85/85/85 86/86/86 70/70/70
f 89/89/89 88/88/88 87/87/87
f 89/89/89 90/90/90 88/88/88
f 91/91/91 14/14/14 16/16/16
f 91/91/91 92/92/92 14/14/14
f 93/93/93 16/16/16 58/58/58
f 93/93/93 91/91/91 16/16/16
f 96/96/96 95/95/95 94/94/94
f 96/96/96 97/97/97 95/95/95
f 98/98/98 49/49/49 47/47/47
f 98/98/98 99/99/99 49/49/49
f 101/101/101 94/94/94 100/100/100
f 101/101/101 96/96/96 94/94/94
f 102/102/102 23/23/23 38/38/38
f 102/102/102 103/103/103 23/23/23
