g pb_Mesh-109432
v 1.000004 3.87434E-07 0
v -5.999996 -3.226096E-06 0
v 1.000003 2 0
v -5.999997 1.999997 0
v -5.999996 -3.226096E-06 -1
v 1.000004 3.87434E-07 -1
v -5.999997 1.499997 -1
v 1.000003 1.5 -1
v 1.000003 2 -0.5
v -5.999997 1.999997 -0.5
v 1.000003 1.5 -1
v -5.999997 1.499997 -1
v 1.000004 3.87434E-07 -1
v -5.999996 -3.226096E-06 -1
v 1.000004 3.87434E-07 0
v -5.999996 -3.226096E-06 0
v 1.000003 2 0
v -5.999997 1.999997 0
v 1.000003 2 -0.5
v -5.999997 1.999997 -0.5
v 1.000003 2 0
v 1.000003 2 -0.5
v 1.000003 1.5 -1
v 1.000004 3.87434E-07 -1
v 1.000004 3.87434E-07 0
v -5.999997 1.999997 0
v -5.999997 1.499997 -1
v -5.999997 1.999997 -0.5
v -5.999996 -3.226096E-06 0
v -5.999996 -3.226096E-06 -1
vt 1.000004 3.87434E-07
vt -5.999996 -3.226096E-06
vt 1.000003 2
vt -5.999997 1.999997
vt 5.999996 -3.226096E-06
vt -1.000004 3.87434E-07
vt 5.999997 1.499997
vt -1.000003 1.5
vt -1.000003 1.060661
vt 5.999997 1.060656
vt -1.000003 0.3535544
vt 5.999997 0.3535492
vt 1.000004 -1
vt -5.999996 -1
vt 1.000004 0
vt -5.999996 0
vt -1.000004 0
vt 5.999996 0
vt -1.000004 -0.5
vt 5.999996 -0.5
vt -1.584662E-08 2
vt 0.5 2
vt 1 1.5
vt 1 -1.527913E-07
vt -1.584663E-08 -1.527913E-07
vt -7.606341E-07 2
vt -1.000001 1.5
vt -0.5000008 2
vt -7.60634E-07 -1.835606E-07
vt -1.000001 -1.835607E-07
vn 0 0 1
vn 0 0 1
vn 0 0 1
vn 0 0 1
vn 0 0 -1
vn 0 0 -1
vn 0 0 -1
vn 0 0 -1
vn -3.733006E-07 0.7071067 -0.7071069
vn -3.672797E-07 0.7071067 -0.7071068
vn -3.672797E-07 0.7071067 -0.7071068
vn -3.612587E-07 0.7071068 -0.7071068
vn 5.162186E-07 -1 0
vn 5.162186E-07 -1 0
vn 5.162186E-07 -1 0
vn 5.162186E-07 -1 0
vn -5.279268E-07 1 0
vn -5.279268E-07 1 0
vn -5.279268E-07 1 0
vn -5.279268E-07 1 0
vn 1 5.066394E-07 -1.490116E-08
vn 1 4.76837E-07 0
vn 1 5.231963E-07 -9.934108E-09
vn 1 5.5631E-07 0
vn 1 5.463759E-07 -1.490116E-08
vn -1 -3.708734E-07 1.059638E-07
vn -1 -3.178914E-07 1.589457E-07
vn -1 0 0
vn -1 -4.768372E-07 0
vn -1 -5.563101E-07 1.589457E-07
g pb_Mesh-109432_0
f 3/3/3 2/2/2 1/1/1
f 3/3/3 4/4/4 2/2/2
f 7/7/7 6/6/6 5/5/5
f 7/7/7 8/8/8 6/6/6
f 11/11/11 10/10/10 9/9/9
f 11/11/11 12/12/12 10/10/10
f 15/15/15 14/14/14 13/13/13
f 15/15/15 16/16/16 14/14/14
f 19/19/19 18/18/18 17/17/17
f 19/19/19 20/20/20 18/18/18
f 23/23/23 22/22/22 21/21/21
f 23/23/23 25/25/25 24/24/24
f 23/23/23 21/21/21 25/25/25
g pb_Mesh-109432_1
f 28/28/28 27/27/27 26/26/26
f 26/26/26 30/30/30 29/29/29
f 26/26/26 27/27/27 30/30/30
