g pb_Mesh302294
v -3.486872E-06 -3 5.95935E-08
v -1.000003 -4 -2.861034E-06
v 0 2 0
v -1 3 0
v -1.000003 -4 -2.861034E-06
v -1.000004 -4 -1.000003
v -1 3 0
v -1 3 -1
v -1.000004 -4 -1.000003
v -4.380941E-06 -3 -0.9999999
v -1 3 -1
v 0 2 -1
v -4.380941E-06 -3 -0.9999999
v -3.486872E-06 -3 5.95935E-08
v 0 2 -1
v 0 2 0
v 0 2 0
v -1 3 0
v 0 2 -1
v -1 3 -1
v -4.380941E-06 -3 -0.9999999
v -1.000004 -4 -1.000003
v -3.486872E-06 -3 5.95935E-08
v -1.000003 -4 -2.861034E-06
vt -3.486871E-06 -3
vt -1.000003 -4
vt 0 2
vt -1 3
vt -3.814712E-06 -4
vt -1.000004 -4
vt -9.536743E-07 3
vt -1.000001 3
vt 1.000007 -4
vt 6.892853E-06 -3
vt 1.000003 3
vt 2.511912E-06 2
vt 0.9999999 -3
vt -5.959038E-08 -3
vt 1 2
vt 0 2
vt 1.414214 0
vt 2.828427 0
vt 1.414214 -1
vt 2.828427 -1
vt -2.121323 -0.9999986
vt -3.535537 -1.000002
vt -2.121323 1.400697E-06
vt -3.535536 -1.519931E-06
vn -2.932548E-06 1.192075E-08 1
vn -1.670634E-06 -1.983991E-07 1
vn -1.670634E-06 -1.983991E-07 1
vn -4.08719E-07 -4.08719E-07 1
vn -1 4.938667E-07 9.536743E-07
vn -1 5.619864E-07 4.768372E-07
vn -1 5.619864E-07 4.768372E-07
vn -1 6.301062E-07 0
vn 2.511912E-06 4.08716E-07 -1
vn 1.249995E-06 1.983975E-07 -1
vn 1.249995E-06 1.983975E-07 -1
vn -1.192092E-08 -1.192092E-08 -1
vn 1 -8.761883E-07 -8.940697E-07
vn 1 -7.867814E-07 -4.470348E-07
vn 1 -7.867814E-07 -4.470348E-07
vn 1 -6.973744E-07 0
vn 0.7071068 0.7071068 0
vn 0.7071068 0.7071068 0
vn 0.7071068 0.7071068 0
vn 0.7071068 0.7071068 0
vn 0.7071068 -0.7071068 -6.322027E-07
vn 0.7071068 -0.7071068 -6.532762E-07
vn 0.7071068 -0.7071068 -6.532762E-07
vn 0.7071068 -0.7071068 -6.743496E-07
g pb_Mesh302294_0
f 3/3/3 2/2/2 1/1/1
f 3/3/3 4/4/4 2/2/2
f 7/7/7 6/6/6 5/5/5
f 7/7/7 8/8/8 6/6/6
f 11/11/11 10/10/10 9/9/9
f 11/11/11 12/12/12 10/10/10
f 15/15/15 14/14/14 13/13/13
f 15/15/15 16/16/16 14/14/14
f 19/19/19 18/18/18 17/17/17
f 19/19/19 20/20/20 18/18/18
f 23/23/23 22/22/22 21/21/21
f 23/23/23 24/24/24 22/22/22
