g pb_Mesh436302
v -3.75 0 0
v 8 0 0
v -3.75 0.125 0
v 8 0.125 0
v -3.75 0.125 0
v 8 0.125 0
v -2.75 0.125 1
v 7 0.125 1
v -2.75 0.125 1
v 7 0.125 1
v -2.75 0.25 1
v 7 0.25 1
v -2.75 0.25 1
v 7 0.25 1
v -1.75 0.25 2
v 6 0.25 2
v -1.75 0.375 2
v 6 0.375 2
v -1.75 0.375 10
v 6 0.375 10
v -2.75 0.125 1
v -2.75 0.25 1
v -2.75 0.125 11
v -2.75 0.25 11
v -3.75 0 0
v -3.75 0.125 0
v -3.75 0 12
v -3.75 0.125 12
v -3.75 0.125 0
v -2.75 0.125 1
v -3.75 0.125 12
v -2.75 0.125 11
v -2.75 0.25 1
v -1.75 0.25 2
v -2.75 0.25 11
v -1.75 0.25 10
v 7 0.125 1
v 8 0.125 0
v 7 0.125 11
v 8 0.125 12
v 6 0.25 2
v 7 0.25 1
v 6 0.25 10
v 7 0.25 11
v 7 0.25 1
v 7 0.125 1
v 7 0.25 11
v 7 0.125 11
v 8 0.125 0
v 8 0 0
v 8 0.125 12
v 8 0 12
v -1.75 0.25 10
v -2.75 0.25 11
v 6 0.25 10
v 7 0.25 11
v -2.75 0.25 11
v -2.75 0.125 11
v 7 0.25 11
v 7 0.125 11
v -2.75 0.125 11
v -3.75 0.125 12
v 7 0.125 11
v 8 0.125 12
v -3.75 0.125 12
v -3.75 0 12
v 8 0.125 12
v 8 0 12
v -1.75 0.25 2
v 6 0.25 2
v -1.75 0.375 2
v 6 0.375 2
v -1.75 0.25 10
v -1.75 0.25 2
v -1.75 0.375 10
v -1.75 0.375 2
v 6 0.25 2
v 6 0.25 10
v 6 0.375 2
v 6 0.375 10
v 6 0.25 10
v -1.75 0.25 10
v 6 0.375 10
v -1.75 0.375 10
vt 3.75 0
vt -8 0
vt 3.75 0.125
vt -8 0.125
vt 3.75 0
vt -8 0
vt 2.75 1
vt -7 1
vt 2.75 0.125
vt -7 0.125
vt 2.75 0.25
vt -7 0.25
vt 2.75 1
vt -7 1
vt 1.75 2
vt -6 2
vt 1.75 2
vt -6 2
vt 1.75 10
vt -6 10
vt 1 0.125
vt 1 0.25
vt 11 0.125
vt 11 0.25
vt 0 0
vt 0 0.125
vt 12 0
vt 12 0.125
vt 3.75 0
vt 2.75 1
vt 3.75 12
vt 2.75 11
vt 2.75 1
vt 1.75 2
vt 2.75 11
vt 1.75 10
vt -7 1
vt -8 0
vt -7 11
vt -8 12
vt -6 2
vt -7 1
vt -6 10
vt -7 11
vt -1 0.25
vt -1 0.125
vt -11 0.25
vt -11 0.125
vt 0 0.125
vt 0 0
vt -12 0.125
vt -12 0
vt 1.75 10
vt 2.75 11
vt -6 10
vt -7 11
vt -2.75 0.25
vt -2.75 0.125
vt 7 0.25
vt 7 0.125
vt 2.75 11
vt 3.75 12
vt -7 11
vt -8 12
vt -3.75 0.125
vt -3.75 0
vt 8 0.125
vt 8 0
vt 1.75 0.25
vt -6 0.25
vt 1.75 0.375
vt -6 0.375
vt 10 0.25
vt 2 0.25
vt 10 0.375
vt 2 0.375
vt -2 0.25
vt -10 0.25
vt -2 0.375
vt -10 0.375
vt 6 0.25
vt -1.75 0.25
vt 6 0.375
vt -1.75 0.375
vn 0 0 -1
vn 0 0 -1
vn 0 0 -1
vn 0 0 -1
vn 0 1 0
vn 0 1 0
vn 0 1 0
vn 0 1 0
vn 0 0 -1
vn 0 0 -1
vn 0 0 -1
vn 0 0 -1
vn 0 1 0
vn 0 1 0
vn 0 1 0
vn 0 1 0
vn 0 1 0
vn 0 1 0
vn 0 1 0
vn 0 1 0
vn -1 0 0
vn -1 0 0
vn -1 0 0
vn -1 0 0
vn -1 0 0
vn -1 0 0
vn -1 0 0
vn -1 0 0
vn 0 1 0
vn 0 1 0
vn 0 1 0
vn 0 1 0
vn 0 1 0
vn 0 1 0
vn 0 1 0
vn 0 1 0
vn 0 1 0
vn 0 1 0
vn 0 1 0
vn 0 1 0
vn 0 1 0
vn 0 1 0
vn 0 1 0
vn 0 1 0
vn 1 0 0
vn 1 0 0
vn 1 0 0
vn 1 0 0
vn 1 0 0
vn 1 0 0
vn 1 0 0
vn 1 0 0
vn 0 1 0
vn 0 1 0
vn 0 1 0
vn 0 1 0
vn 0 0 1
vn 0 0 1
vn 0 0 1
vn 0 0 1
vn 0 1 0
vn 0 1 0
vn 0 1 0
vn 0 1 0
vn 0 0 1
vn 0 0 1
vn 0 0 1
vn 0 0 1
vn 0 0 -1
vn 0 0 -1
vn 0 0 -1
vn 0 0 -1
vn -1 0 0
vn -1 0 0
vn -1 0 0
vn -1 0 0
vn 1 0 0
vn 1 0 0
vn 1 0 0
vn 1 0 0
vn 0 0 1
vn 0 0 1
vn 0 0 1
vn 0 0 1
g pb_Mesh436302_0
f 3/3/3 2/2/2 1/1/1
f 3/3/3 4/4/4 2/2/2
f 7/7/7 6/6/6 5/5/5
f 7/7/7 8/8/8 6/6/6
f 11/11/11 10/10/10 9/9/9
f 11/11/11 12/12/12 10/10/10
f 15/15/15 14/14/14 13/13/13
f 15/15/15 16/16/16 14/14/14
f 19/19/19 18/18/18 17/17/17
f 19/19/19 20/20/20 18/18/18
f 23/23/23 22/22/22 21/21/21
f 23/23/23 24/24/24 22/22/22
f 27/27/27 26/26/26 25/25/25
f 27/27/27 28/28/28 26/26/26
f 31/31/31 30/30/30 29/29/29
f 31/31/31 32/32/32 30/30/30
f 35/35/35 34/34/34 33/33/33
f 35/35/35 36/36/36 34/34/34
f 39/39/39 38/38/38 37/37/37
f 39/39/39 40/40/40 38/38/38
f 43/43/43 42/42/42 41/41/41
f 43/43/43 44/44/44 42/42/42
f 47/47/47 46/46/46 45/45/45
f 47/47/47 48/48/48 46/46/46
f 51/51/51 50/50/50 49/49/49
f 51/51/51 52/52/52 50/50/50
f 53/53/53 54/54/54 55/55/55
f 54/54/54 56/56/56 55/55/55
f 57/57/57 58/58/58 59/59/59
f 58/58/58 60/60/60 59/59/59
f 61/61/61 62/62/62 63/63/63
f 62/62/62 64/64/64 63/63/63
f 65/65/65 66/66/66 67/67/67
f 66/66/66 68/68/68 67/67/67
f 71/71/71 70/70/70 69/69/69
f 71/71/71 72/72/72 70/70/70
f 75/75/75 74/74/74 73/73/73
f 75/75/75 76/76/76 74/74/74
f 79/79/79 78/78/78 77/77/77
f 79/79/79 80/80/80 78/78/78
f 83/83/83 82/82/82 81/81/81
f 83/83/83 84/84/84 82/82/82
