g pb_Mesh305300
v 7.154013E-07 20 -1.19198E-06
v -3.999998 20 5.722158E-06
v 0 32 0
v -4 32 0
v -3.999998 20 5.722158E-06
v -4.000005 20 -4.000008
v -4 32 0
v -4.000005 28 -3.999989
v -4.000005 20 -4.000008
v 1.430656E-06 20 -4
v -4.000005 28 -3.999989
v 3.099441E-06 28 -3.999996
v 1.430656E-06 20 -4
v 7.154013E-07 20 -1.19198E-06
v 3.099441E-06 28 -3.999996
v 0 32 0
v 0 32 0
v -4 32 0
v 3.099441E-06 28 -3.999996
v -4.000005 28 -3.999989
v 1.430656E-06 20 -4
v -4.000005 20 -4.000008
v 7.154013E-07 20 -1.19198E-06
v -3.999998 20 5.722158E-06
vt 7.154033E-07 20
vt -3.999998 20
vt 0 32
vt -4 32
vt -9.535361E-07 20
vt -4.000015 20
vt -6.675697E-06 32
vt -3.999996 28
vt 4.000013 19.99999
vt 6.675563E-06 19.99999
vt 4.000013 27.99999
vt 5.00677E-06 27.99999
vt 4 20
vt 1.19198E-06 20
vt 3.999996 28
vt 0 32
vt 0 22.62743
vt 4 22.62743
vt -3.099441E-06 16.97058
vt 4.000005 16.97058
vt 1.430656E-06 -4
vt -4.000005 -4.000008
vt 7.154013E-07 -1.19198E-06
vt -3.999998 5.722158E-06
vn 1.728535E-06 -9.933157E-08 1
vn 8.642675E-07 1.887575E-07 1
vn 8.642675E-07 1.887575E-07 1
vn 0 4.768465E-07 1
vn -1 -1.589449E-07 1.668924E-06
vn -1 -1.092764E-07 1.519919E-06
vn -1 -1.092764E-07 1.519919E-06
vn -1 -5.960791E-08 1.370914E-06
vn 2.026555E-06 2.384186E-06 -1
vn 1.490118E-07 1.445413E-06 -1
vn 1.490118E-07 1.445413E-06 -1
vn -1.728531E-06 5.066399E-07 -1
vn 1 -2.085982E-07 1.788137E-07
vn 1 -7.449076E-08 4.470289E-07
vn 1 -7.449076E-08 4.470289E-07
vn 1 5.96167E-08 7.152442E-07
vn 0 0.7071064 -0.7071071
vn -6.111289E-07 0.7071061 -0.7071074
vn -6.111289E-07 0.7071061 -0.7071074
vn -1.222258E-06 0.7071058 -0.7071077
vn 0 -1 0
vn 0 -1 0
vn 0 -1 0
vn 0 -1 0
g pb_Mesh305300_0
g pb_Mesh305300_1
f 3/3/3 2/2/2 1/1/1
f 3/3/3 4/4/4 2/2/2
f 7/7/7 6/6/6 5/5/5
f 7/7/7 8/8/8 6/6/6
f 11/11/11 10/10/10 9/9/9
f 11/11/11 12/12/12 10/10/10
f 15/15/15 14/14/14 13/13/13
f 15/15/15 16/16/16 14/14/14
f 19/19/19 18/18/18 17/17/17
f 19/19/19 20/20/20 18/18/18
f 23/23/23 22/22/22 21/21/21
f 23/23/23 24/24/24 22/22/22
