g pb_Mesh238044
v -44 2 14
v -40 2 14
v -44 -7.5 14
v -40 -7.5 14
v -44 2 8
v -44 2 14
v -44 -7.5 8
v -44 -7.5 14
v -44 2 2
v -44 -7.5 2
v -8 2 0
v -40 2 0
v -8 -7.5 0
v -40 -7.5 0
v -40.00011 2 44.00009
v -8 2 44.00009
v -40 -7.5 44
v -8 -7.5 44
v -4 2 44.00009
v -4 2 40
v -4 -7.5 44
v -4 -7.5 40
v -4 2 44.00009
v -4 -7.5 44
v -44.00011 2 44.00009
v -44 -7.5 44
v -44.00011 2 40
v -44.00011 2 44.00009
v -44 -7.5 40
v -44 -7.5 44
v -4 2 40
v 4.000092 2 40
v -4 -7.5 40
v 4 -7.5 40
v 4.000092 2 40
v 5.5 2 28
v 4 -7.5 40
v 5.5 -7.5 30
v 5.5 2 28
v 17 2 28
v 5.5 -7.5 30
v 18.5 -7.5 30
v 17 2 28
v 17 2 22.125
v 18.5 -7.5 30
v 18.5 -7.5 22
v -40 2 2
v -40 -7.5 2
v -40 2 0
v -40 -7.5 0
v 4 2 22.125
v 5.5 -7.5 22
v 12 -7.5 22
v 12 2 22
v 12 2 20
v 12 -7.5 20
v 17 -7.5 20
v 17 2 20
v 12 2 22
v 12 -7.5 22
v 12 2 20
v 12 -7.5 20
v 18.5 -7.5 22
v 17 2 22.125
v 17 -7.5 20
v 17 2 20
v -40 2 2
v -44 4 2
v -44 2 2
v -40 4 2
v -40 4 14
v -44 4 30
v -44 4 8.5
v -40 4 30
v -44 4 8.5
v -44 2 14
v -44 4 8
v -44 2 8
v -40 2 14
v -40 4 14
v -40 2 8
v -40 4 8
v -40 4 8
v -44 4 8
v -44 4 2
v -44 2 2
v -40 4 2
v -44 4 2
v -40 2 8
v -40 4 8
v -8 2 8
v -8 4 8
v -8 4 8
v -8 4 2
v -8 2 44.00009
v -8 4 44.00009
v -4 2 44.00009
v -4 4 44.00009
v -2.5 4 2
v -2 4 2.5
v -2 4 4
v -8 4 2
v -8 2 2
v -2.5 4 2
v -2 3.5 2
v -8 2 40
v -8 2 28
v -8 4 28
v -8 4 40
v -8 4 28
v -4 4 28
v -4 4 40
v -8 4 40
v 4.000092 4 28
v 4.000092 2 40
v 4.000092 4 40
v 5.5 2 28
v -8 2 20
v -8 4 20
v -8 2 8
v -8 4 8
v -4 4 20
v -8 4 20
v 4.000092 3 8
v 4.000092 2 8
v 4 2 22.125
v 4 4 22.125
v 4 4 8.5
v -4 2 40
v -4 4 40
v 4.000092 2 40
v 4.000092 4 40
v 4.000092 4 40
v 4.000092 4 28
v -44.00011 2 40
v -44.00011 4 40
v -44.00011 2 44.00009
v -44.00011 4 44.00009
v -8 4 44.00009
v -4 4 44.00009
v -4 4 40
v -4 2 40
v -4 4 44.00009
v -4 2 44.00009
v -8 2 40
v -8 4 40
v -40.00011 2 40
v -40.00011 4 40
v -40.00011 4 40
v -40.00011 4 44.00009
v -40.00011 4 44.00009
v -40.00011 2 44.00009
v -44.00011 2 40
v -44.00011 4 40
v -44.00011 4 40
v -44.00011 4 44.00009
v -44.00011 4 44.00009
v -44.00011 2 44.00009
v -40 4.0001 40
v -44 4.000071 40.00008
v -44 4.000071 40.00008
v -44 0.0001001358 30
v -44 4 30
v -44 0.0001001358 40.00009
v -40 -7.5 2
v -44 -7.5 2
v -2 -8 2
v -8 -7.5 2
v -2 2 8
v -2 3.5 2
v -2 -8 8
v -2 -8 2
v 4 2 22.125
v 4.000092 2 8
v 5.5 -7.5 22
v 4 -7.5 8
v 17 4 24
v 17 4 22.125
v 17 2 22.125
v 17 2 28
v 17 4 28
v 4 4 22.125
v 4.000092 4 24
v 10.50005 4 24
v 10.50005 4 28
v 12 4 22.125
v 0 2 8
v 0 -8 8
v 2.290466 2 8
v 4 -7.5 8
v 4.000092 2 8
v 0 4 8
v 0 4 5
v 0 3.5 4
v 0 2 8
v 0 -8 4
v 0 -8 8
v -2 4 4
v -2 2 8
v -2 2 4
v -2 2 4
v -2 -8 4
v 0 -8 4
v 0 3.5 4
v -2 -8 4
v 0 4 8
v 1.818634 4 8
v 2 4 8.290405
v 2.5 4 8
v 3.250046 4 8
v 4 4 8.5
v -1 4 4
v 0 4 5
v -1 4 4
v -2 4 4
v 0 3.5 4
v 0 4 5
v -1 4 4
v -2.5 4 2
v -2 3.5 2
v -2 4 2.5
v -2 4 4
v -2 4 2.5
v 2.290466 2 8
v 2.5 4 8
v 2 4 8.290405
v 1.818634 4 8
v 2.290466 2 8
v 2 4 8.290405
v 1.818634 4 8
v 0 4 8
v 3.250046 4 8
v 4.000092 3 8
v 4 4 8.5
v 3.250046 4 8
v 2.5 4 8
v 4.000092 3 8
v -40 4 2
v -40 2 2
v -40 4 0
v -40 2 0
v -8 -7.5 2
v -8 2 2
v -8 -7.5 0
v -8 2 0
v -40 4 0
v -8 3 0
v -9 4 0
v -40 2 0
v -8 2 0
v -40 4 0
v -9 4 0
v -8 4 0.875
v -8 4 0.875
v -8 3 0
v -8 4 2
v -8 4 0.875
v -9 4 0
v -8 3 0
v 4 4 22.125
v 12 2 22
v 12 4 22.125
v 4 2 22.125
v 12 4 20
v 17 2 20
v 17 4 20
v 12 2 20
v 17 2 20
v 17 4 20
v 17 4 22.125
v 17 4 20
v 12 4 20
v 12 4 22.125
v 12 2 22
v 12 4 20
v 12 2 20
v 17 2 28
v 13.75002 4 28
v 17 4 28
v 10.50005 4 28
v 5.5 2 28
v 4.000092 4 28
v 13.75002 4 24
v 17 4 24
v 13.75002 4 28
v 17 4 28
v -45.5 4 8.5
v -46 4 30
v -46 4 9
v -44 4 8.5
v -45.5 4 8.5
v -46 3.25 8.5
v -44 0 8.5
v -46 0 8.5
v -45.5 4 8.5
v -46 4 9
v -46 3.25 8.5
vt -44 2
vt -40 2
vt -44 -7.5
vt -40 -7.5
vt 8 2
vt 14 2
vt 8 -7.5
vt 14 -7.5
vt 2 2
vt 2 -7.5
vt 8 2
vt 40 2
vt 8 -7.5
vt 40 -7.5
vt -40.00011 2.000424
vt -8 2.000424
vt -40 -7.499576
vt -8 -7.499576
vt -44.00009 2
vt -40 2
vt -44 -7.5
vt -40 -7.5
vt -4 2.000424
vt -4 -7.499576
vt -44.00011 2.000424
vt -44 -7.499576
vt 40 2.000495
vt 44.00009 2.000495
vt 40 -7.499506
vt 44 -7.499506
vt -4 2
vt 4.000092 2
vt -4 -7.5
vt 4 -7.5
vt -39.19503 2.000085
vt -27.10166 2.000085
vt -39.19504 -7.499915
vt -29.08621 -7.499912
vt 5.5 -3.811194
vt 17 -3.811194
vt 5.5 -13.51944
vt 18.5 -13.51944
vt -28 -0.6758378
vt -22.125 -0.6758378
vt -30 -10.29353
vt -22 -10.29353
vt 2 2
vt 2 -7.5
vt 0 2
vt 0 -7.5
vt -4 2.29092
vt -5.5 -7.209902
vt -12 -7.209902
vt -12 2.289276
vt -12 2
vt -12 -7.5
vt -17 -7.5
vt -17 2
vt 22 2
vt 22 -7.5
vt 20 2
vt 20 -7.5
vt -28.7 -7.646181
vt -27.9 1.938996
vt -26.2 -7.646181
vt -26.2 1.769398
vt 40 2
vt 44 4
vt 44 2
vt 40 4
vt 40 14
vt 44 30
vt 44 8.5
vt 40 30
vt 8.5 4
vt 14 2
vt 8 4
vt 8 2
vt -14 2
vt -14 4
vt -8 2
vt -8 4
vt 40 8
vt 44 8
vt 2 4
vt 2 2
vt 40 2
vt 44 2
vt -40 2
vt -40 4
vt -8 2
vt -8 4
vt 8 8
vt 8 2
vt -8 2
vt -8 4
vt -4 2
vt -4 4
vt 2.5 2
vt 2 2.5
vt 2 4
vt 8 4
vt 8 2
vt 2.5 4
vt 2 3.5
vt 40 2
vt 28 2
vt 28 4
vt 40 4
vt 8 28
vt 4 28
vt 4 40
vt 8 40
vt -28 4
vt -40 2
vt -40 4
vt -28 2
vt 20 2
vt 20 4
vt 8 2
vt 8 4
vt 4 20
vt 8 20
vt -7.999982 2.999911
vt -7.999982 1.999911
vt -22.12498 1.999911
vt -22.12498 3.999911
vt -8.499982 3.999911
vt -4 2
vt -4 4
vt 4.000092 2
vt 4.000092 4
vt -4.000092 40
vt -4.000092 28
vt 40 2
vt 40 4
vt 44.00009 2
vt 44.00009 4
vt 8 44.00009
vt 4 44.00009
vt -40 4
vt -40 2
vt -44.00009 4
vt -44.00009 2
vt 8 2
vt 8 4
vt 40.00011 2
vt 40.00011 4
vt 40.00011 40
vt 40.00011 44.00009
vt -40.00011 4
vt -40.00011 2
vt 44.00011 2
vt 44.00011 4
vt 44.00011 40
vt 44.00011 44.00009
vt -44.00011 4
vt -44.00011 2
vt 40 40.00004
vt 44 40.00012
vt 40.00008 4.000071
vt 30 0.0001001358
vt 30 4
vt 40.00009 0.0001001358
vt 40 -7.5
vt 44 -7.5
vt 2 -8
vt 8 -7.5
vt -8 2
vt -2 3.5
vt -8 -8
vt -2 -8
vt -22.12497 1.351654
vt -7.999974 1.351654
vt -21.99996 -8.266038
vt -7.999974 -8.032081
vt -24 4
vt -22.125 4
vt -22.125 2
vt -28 2
vt -28 4
vt -4 22.125
vt -4.000092 24
vt -10.50005 24
vt -10.50005 28
vt -12 22.125
vt 0 2
vt 0 -8
vt -2.290466 2
vt -4 -7.5
vt -4.000092 2
vt -8 4
vt -5 4
vt -4 3.5
vt -8 2
vt -4 -8
vt -8 -8
vt 4 4
vt 8 2
vt 4 2
vt 2 2
vt 2 -8
vt 0 -8
vt 0 3.5
vt 4 -8
vt 0 8
vt -1.818634 8
vt -2 8.290405
vt -2.5 8
vt -3.250046 8
vt -4 8.5
vt 1 4
vt 0 5
vt 1 4
vt 2 4
vt 1.565248 4.929503
vt 1.788854 6.024948
vt 2.683281 4.929503
vt 0.3535534 5.103104
vt 0 4.490731
vt -0.3535534 5.103104
vt -4 4
vt -2.5 4
vt 2.037312 2.421185
vt 1.856122 4.423952
vt 2.43434 4.423952
vt -7.748778 4.451064
vt -7.998713 2.411417
vt -8.091165 4.451064
vt -1.818634 4
vt 0 4
vt -7.14194 5.557499
vt -7.766004 4.474396
vt -8.043289 5.557499
vt -3.250046 4
vt -2.5 4
vt -4.000092 3
vt 2 4
vt 2 2
vt 0 4
vt 0 2
vt -2 -7.5
vt -2 2
vt 0 -7.5
vt 0 2
vt 40 4
vt 8 3
vt 9 4
vt 40 2
vt 8 2
vt 40 0
vt 9 0
vt 8 0.875
vt -0.875 4
vt 0 3
vt -2 4
vt 5.444422 6.600164
vt 6.77319 6.600164
vt 6.020614 5.402822
vt -4 5.37233
vt -12 3.368427
vt -12 5.37233
vt -4 3.376225
vt -12 4
vt -17 2
vt -17 4
vt -12 2
vt -20 2
vt -20 4
vt -17 22.125
vt -17 20
vt -12 20
vt 22.125 4
vt 22 2
vt 20 4
vt 20 2
vt 17 2
vt 13.75002 4
vt 17 4
vt 10.50005 4
vt 5.5 2
vt 4.000092 4
vt -13.75002 24
vt -17 24
vt -13.75002 28
vt -17 28
vt 45.5 8.5
vt 46 30
vt 46 9
vt 44 4
vt 45.5 4
vt 46 3.25
vt 44 0
vt 46 0
vt 38.18377 -7.537784
vt 38.89087 -7.537784
vt 38.53732 -8.36694
vn 0 0 1
vn 0 0 1
vn 0 0 1
vn 0 0 1
vn -1 0 0
vn -1 0 0
vn -1 0 0
vn -1 0 0
vn -1 0 0
vn -1 0 0
vn 0 0 -1
vn 0 0 -1
vn 0 0 -1
vn 0 0 -1
vn 0 -9.63713E-06 1
vn 0 -9.63713E-06 1
vn 0 -9.63713E-06 1
vn 0 -9.63713E-06 1
vn 1 0 0
vn 1 0 0
vn 1 0 0
vn 1 0 0
vn 0 -9.63713E-06 1
vn 0 -9.63713E-06 1
vn 0 -9.63713E-06 1
vn 0 -9.63713E-06 1
vn -1 -1.124332E-05 0
vn -1 -1.124332E-05 0
vn -1 -1.124332E-05 0
vn -1 -1.124332E-05 0
vn 0 0 1
vn 0 0 1
vn 0 0 1
vn 0 0 1
vn 0.9922788 -9.56272E-06 0.1240273
vn 0.9903666 0.01560239 0.1361477
vn 0.9903666 0.01560239 0.1361477
vn 0.9884544 0.03121435 0.1482682
vn 0 0.2060105 0.9785498
vn 0 0.2060105 0.9785498
vn 0 0.2060105 0.9785498
vn 0 0.2060105 0.9785498
vn 0.987763 0.1559626 0
vn 0.987763 0.1559626 0
vn 0.987763 0.1559626 0
vn 0.987763 0.1559626 0
vn -1 0 0
vn -1 0 0
vn -1 0 0
vn -1 0 0
vn -0.007811546 0.006578378 -0.9998957
vn 0 0.01315676 -0.9999135
vn -0.007811546 0.006578378 -0.9998957
vn -0.01562309 0 -0.9998779
vn 0 0 -1
vn 0 0 -1
vn 0 0 -1
vn 0 0 -1
vn -1 0 0
vn -1 0 0
vn -1 0 0
vn -1 0 0
vn 0.7928909 0.1330179 -0.5946681
vn 0.8964455 0.06650894 -0.2973341
vn 0.8964455 0.06650894 -0.2973341
vn 1 0 0
vn 0 0 -1
vn 0 0 -1
vn 0 0 -1
vn 0 0 -1
vn 0 1 0
vn 0 1 0
vn 0 1 0
vn 0 1 0
vn -1 0 0
vn -1 0 0
vn -1 0 0
vn -1 0 0
vn 1 0 0
vn 1 0 0
vn 1 0 0
vn 1 0 0
vn 0 1 0
vn 0 1 0
vn -1 0 0
vn -1 0 0
vn 0 1 0
vn 0 1 0
vn 0 0 1
vn 0 0 1
vn 0 0 1
vn 0 0 1
vn 0 1 0
vn 0 1 0
vn 0 0 1
vn 0 0 1
vn 0 0 1
vn 0 0 1
vn 0 1 0
vn 0 1 0
vn 0 1 0
vn 0 0 -1
vn 0 0 -1
vn 0 0 -1
vn 0 0 -1
vn -1 0 0
vn -1 0 0
vn -1 0 0
vn -1 0 0
vn 0 1 0
vn 0 1 0
vn 0 1 0
vn 0 1 0
vn 0.8980238 0.2984996 0.04974994
vn 0.8980238 0.2984996 0.04974994
vn 1 0 0
vn 0.7960476 0.5969992 0.09949987
vn -1 0 0
vn -1 0 0
vn -1 0 0
vn -1 0 0
vn 0 1 0
vn 0 1 0
vn 1 3.051758E-05 4.321073E-06
vn 1 0 6.481609E-06
vn 1 0 6.481609E-06
vn 1 4.577637E-05 3.240805E-06
vn 1 9.155273E-05 0
vn 0 0 1
vn 0 0 1
vn 0 0 1
vn 0 0 1
vn 0 1 0
vn 0 1 0
vn -1 0 0
vn -1 0 0
vn -1 0 0
vn -1 0 0
vn 0 1 0
vn 0 1 0
vn 1 0 0
vn 1 0 0
vn 1 0 0
vn 1 0 0
vn 0 0 -1
vn 0 0 -1
vn 0 0 -1
vn 0 0 -1
vn 0 1 0
vn 0 1 0
vn 0 0 1
vn 0 0 1
vn 0 0 -1
vn 0 0 -1
vn 0 1 0
vn 0 1 0
vn 0 0 1
vn 0 0 1
vn -3.695555E-06 1 -8.535359E-06
vn -7.39111E-06 1 -7.057136E-06
vn -1 0 0
vn -1 0 0
vn -1 0 0
vn -1 0 0
vn 0 0 -1
vn 0 0 -1
vn 0 0 -1
vn 0 0 -1
vn 1 0 0
vn 1 0 0
vn 1 0 0
vn 1 0 0
vn 0.987763 0.1559625 6.402294E-06
vn 0.9910361 0.07797646 -0.05326336
vn 0.9910361 0.07797646 -0.05326336
vn 0.9943091 -9.582286E-06 -0.1065331
vn 1 0 0
vn 1 0 0
vn 1 0 0
vn 1 0 0
vn 1 0 0
vn 0 1 0
vn 0 1 0
vn 0 1 0
vn 0 1 0
vn 0 1 0
vn 0 0 -1
vn 0 0 -1
vn 0 0 -1
vn 0 0 -1
vn 0 0 -1
vn 1 0 0
vn 1 0 0
vn 1 0 0
vn 1 0 0
vn 1 0 0
vn 1 0 0
vn -1 0 0
vn -1 0 0
vn -1 0 0
vn 0 0 -1
vn 0 0 -1
vn 0 0 -1
vn 0 0 -1
vn -1 0 0
vn 0 1 0
vn 0 1 0
vn 0 1 0
vn 0 1 0
vn 0 1 0
vn 0 1 0
vn 0 1 0
vn 0 1 0
vn 0 0 -1
vn 0 0 -1
vn 0.4082483 0.8164966 -0.4082483
vn 0.4082483 0.8164966 -0.4082483
vn 0.4082483 0.8164966 -0.4082483
vn 0.5773503 0.5773503 -0.5773503
vn 0.5773503 0.5773503 -0.5773503
vn 0.5773503 0.5773503 -0.5773503
vn 1 0 0
vn 1 0 0
vn -0.5015486 0.05254567 -0.8635322
vn -0.5015486 0.05254567 -0.8635322
vn -0.5015486 0.05254567 -0.8635322
vn 0.8316916 0.1962095 -0.5194139
vn 0.8316916 0.1962095 -0.5194139
vn 0.8316916 0.1962095 -0.5194139
vn 0 0 -1
vn 0 0 -1
vn 0.5121614 0.3841445 -0.7681952
vn 0.5121614 0.3841445 -0.7681952
vn 0.5121614 0.3841445 -0.7681952
vn 0 0 -1
vn 0 0 -1
vn 0 0 -1
vn -1 0 0
vn -1 0 0
vn -1 0 0
vn -1 0 0
vn 1 0 0
vn 1 0 0
vn 1 0 0
vn 1 0 0
vn 0 0 -1
vn 0 0 -1
vn 0 0 -1
vn 0 0 -1
vn 0 0 -1
vn 0 1 0
vn 0 1 0
vn 0 1 0
vn 1 0 0
vn 1 0 0
vn 1 0 0
vn 0.5499719 0.5499719 -0.6285393
vn 0.5499719 0.5499719 -0.6285393
vn 0.5499719 0.5499719 -0.6285393
vn -0.007811546 0.03118914 -0.9989653
vn -0.007811546 0.03118914 -0.9989653
vn 0 0.06237829 -0.9980526
vn -0.01562309 0 -0.9998779
vn 0 0 -1
vn 0 0 -1
vn 0 0 -1
vn 0 0 -1
vn 1 0 0
vn 1 0 0
vn 0 1 0
vn 0 1 0
vn 0 1 0
vn -1 0 0
vn -1 0 0
vn -1 0 0
vn -1 0 0
vn 0 0 1
vn 0 0 1
vn 0 0 1
vn 0 0 1
vn 0 0 1
vn 0 0 1
vn 0 1 0
vn 0 1 0
vn 0 1 0
vn 0 1 0
vn 0 1 0
vn 0 1 0
vn 0 1 0
vn 0 0 -1
vn 0 0 -1
vn 0 0 -1
vn 0 0 -1
vn 0 0 -1
vn -0.6396021 0.4264014 -0.6396021
vn -0.6396021 0.4264014 -0.6396021
vn -0.6396021 0.4264014 -0.6396021
g pb_Mesh238044_0
f 3/3/3 2/2/2 1/1/1
f 3/3/3 4/4/4 2/2/2
f 7/7/7 6/6/6 5/5/5
f 7/7/7 8/8/8 6/6/6
f 10/10/10 5/5/5 9/9/9
f 10/10/10 7/7/7 5/5/5
f 13/13/13 12/12/12 11/11/11
f 13/13/13 14/14/14 12/12/12
f 17/17/17 16/16/16 15/15/15
f 17/17/17 18/18/18 16/16/16
f 21/21/21 20/20/20 19/19/19
f 21/21/21 22/22/22 20/20/20
f 18/18/18 23/23/23 16/16/16
f 18/18/18 24/24/24 23/23/23
f 26/26/26 15/15/15 25/25/25
f 26/26/26 17/17/17 15/15/15
f 29/29/29 28/28/28 27/27/27
f 29/29/29 30/30/30 28/28/28
f 33/33/33 32/32/32 31/31/31
f 33/33/33 34/34/34 32/32/32
f 37/37/37 36/36/36 35/35/35
f 37/37/37 38/38/38 36/36/36
f 41/41/41 40/40/40 39/39/39
f 41/41/41 42/42/42 40/40/40
f 45/45/45 44/44/44 43/43/43
f 45/45/45 46/46/46 44/44/44
f 49/49/49 48/48/48 47/47/47
f 49/49/49 50/50/50 48/48/48
f 53/53/53 52/52/52 51/51/51
f 54/54/54 53/53/53 51/51/51
f 57/57/57 56/56/56 55/55/55
f 58/58/58 57/57/57 55/55/55
f 61/61/61 60/60/60 59/59/59
f 61/61/61 62/62/62 60/60/60
f 65/65/65 64/64/64 63/63/63
f 65/65/65 66/66/66 64/64/64
g pb_Mesh238044_1
f 69/69/69 68/68/68 67/67/67
f 68/68/68 70/70/70 67/67/67
f 73/73/73 72/72/72 71/71/71
f 72/72/72 74/74/74 71/71/71
f 77/77/77 76/76/76 75/75/75
f 77/77/77 78/78/78 76/76/76
f 81/81/81 80/80/80 79/79/79
f 81/81/81 82/82/82 80/80/80
f 83/83/83 73/73/73 71/71/71
f 83/83/83 84/84/84 73/73/73
f 85/85/85 78/78/78 77/77/77
f 85/85/85 86/86/86 78/78/78
f 87/87/87 84/84/84 83/83/83
f 87/87/87 88/88/88 84/84/84
f 91/91/91 90/90/90 89/89/89
f 91/91/91 92/92/92 90/90/90
f 93/93/93 87/87/87 83/83/83
f 93/93/93 94/94/94 87/87/87
f 97/97/97 96/96/96 95/95/95
f 97/97/97 98/98/98 96/96/96
f 100/100/100 99/99/99 94/94/94
f 101/101/101 100/100/100 94/94/94
f 101/101/101 94/94/94 93/93/93
f 104/104/104 103/103/103 102/102/102
f 104/104/104 105/105/105 103/103/103
f 108/108/108 107/107/107 106/106/106
f 108/108/108 106/106/106 109/109/109
f 112/112/112 111/111/111 110/110/110
f 112/112/112 110/110/110 113/113/113
f 116/116/116 115/115/115 114/114/114
f 115/115/115 117/117/117 114/114/114
f 119/119/119 118/118/118 107/107/107
f 119/119/119 107/107/107 108/108/108
f 121/121/121 120/120/120 118/118/118
f 121/121/121 118/118/118 119/119/119
f 122/122/122 101/101/101 93/93/93
f 122/122/122 93/93/93 123/123/123
f 111/111/111 122/122/122 123/123/123
f 111/111/111 123/123/123 110/110/110
f 126/126/126 125/125/125 124/124/124
f 127/127/127 126/126/126 124/124/124
f 127/127/127 124/124/124 128/128/128
f 131/131/131 130/130/130 129/129/129
f 131/131/131 132/132/132 130/130/130
f 133/133/133 111/111/111 112/112/112
f 133/133/133 134/134/134 111/111/111
f 137/137/137 136/136/136 135/135/135
f 137/137/137 138/138/138 136/136/136
f 139/139/139 112/112/112 113/113/113
f 139/139/139 140/140/140 112/112/112
f 143/143/143 142/142/142 141/141/141
f 143/143/143 144/144/144 142/142/142
f 147/147/147 146/146/146 145/145/145
f 147/147/147 148/148/148 146/146/146
f 149/149/149 139/139/139 113/113/113
f 149/149/149 150/150/150 139/139/139
f 151/151/151 95/95/95 96/96/96
f 151/151/151 152/152/152 95/95/95
f 153/153/153 148/148/148 147/147/147
f 153/153/153 154/154/154 148/148/148
f 155/155/155 150/150/150 149/149/149
f 155/155/155 156/156/156 150/150/150
f 157/157/157 152/152/152 151/151/151
f 157/157/157 158/158/158 152/152/152
f 74/74/74 72/72/72 159/159/159
f 72/72/72 160/160/160 159/159/159
f 163/163/163 162/162/162 161/161/161
f 162/162/162 164/164/164 161/161/161
f 165/165/165 69/69/69 67/67/67
f 165/165/165 166/166/166 69/69/69
f 167/167/167 103/103/103 105/105/105
f 167/167/167 168/168/168 103/103/103
f 171/171/171 170/170/170 169/169/169
f 171/171/171 172/172/172 170/170/170
f 175/175/175 174/174/174 173/173/173
f 175/175/175 176/176/176 174/174/174
f 179/179/179 178/178/178 177/177/177
f 179/179/179 177/177/177 180/180/180
f 181/181/181 180/180/180 177/177/177
f 183/183/183 182/182/182 122/122/122
f 111/111/111 183/183/183 122/122/122
f 111/111/111 134/134/134 183/183/183
f 185/185/185 184/184/184 183/183/183
f 185/185/185 183/183/183 134/134/134
f 184/184/184 186/186/186 182/182/182
f 184/184/184 182/182/182 183/183/183
f 189/189/189 188/188/188 187/187/187
f 189/189/189 190/190/190 188/188/188
f 191/191/191 190/190/190 189/189/189
f 194/194/194 193/193/193 192/192/192
f 195/195/195 194/194/194 192/192/192
f 197/197/197 196/196/196 194/194/194
f 195/195/195 197/197/197 194/194/194
f 200/200/200 199/199/199 198/198/198
f 203/203/203 202/202/202 201/201/201
f 204/204/204 203/203/203 201/201/201
f 200/200/200 205/205/205 199/199/199
f 208/208/208 207/207/207 206/206/206
f 210/210/210 209/209/209 208/208/208
f 208/208/208 211/211/211 210/210/210
f 208/208/208 182/182/182 211/211/211
f 206/206/206 182/182/182 208/208/208
f 122/122/122 182/182/182 206/206/206
f 206/206/206 213/213/213 212/212/212
f 206/206/206 212/212/212 101/101/101
f 101/101/101 122/122/122 206/206/206
f 201/201/201 215/215/215 214/214/214
f 201/201/201 214/214/214 204/204/204
f 218/218/218 217/217/217 216/216/216
f 221/221/221 220/220/220 219/219/219
f 170/170/170 223/223/223 222/222/222
f 170/170/170 222/222/222 169/169/169
f 226/226/226 225/225/225 224/224/224
f 229/229/229 228/228/228 227/227/227
f 187/187/187 231/231/231 230/230/230
f 187/187/187 230/230/230 189/189/189
f 234/234/234 233/233/233 232/232/232
f 189/189/189 236/236/236 235/235/235
f 189/189/189 235/235/235 237/237/237
f 237/237/237 191/191/191 189/189/189
f 240/240/240 239/239/239 238/238/238
f 240/240/240 241/241/241 239/239/239
f 244/244/244 243/243/243 242/242/242
f 244/244/244 245/245/245 243/243/243
f 248/248/248 247/247/247 246/246/246
f 247/247/247 249/249/249 246/246/246
f 247/247/247 250/250/250 249/249/249
f 253/253/253 252/252/252 251/251/251
f 87/87/87 253/253/253 251/251/251
f 87/87/87 94/94/94 253/253/253
f 243/243/243 255/255/255 254/254/254
f 243/243/243 245/245/245 255/255/255
f 256/256/256 243/243/243 254/254/254
f 259/259/259 258/258/258 257/257/257
f 262/262/262 261/261/261 260/260/260
f 261/261/261 263/263/263 260/260/260
f 266/266/266 265/265/265 264/264/264
f 265/265/265 267/267/267 264/264/264
f 268/268/268 178/178/178 179/179/179
f 268/268/268 269/269/269 178/178/178
f 271/271/271 186/186/186 270/270/270
f 271/271/271 272/272/272 186/186/186
f 275/275/275 274/274/274 273/273/273
f 275/275/275 276/276/276 274/274/274
f 279/279/279 278/278/278 277/277/277
f 278/278/278 280/280/280 277/277/277
f 280/280/280 281/281/281 277/277/277
f 282/282/282 281/281/281 280/280/280
f 283/283/283 186/186/186 184/184/184
f 186/186/186 283/283/283 270/270/270
f 283/283/283 284/284/284 270/270/270
f 285/285/285 283/283/283 184/184/184
f 285/285/285 184/184/184 185/185/185
f 286/286/286 284/284/284 283/283/283
f 286/286/286 283/283/283 285/285/285
f 72/72/72 73/73/73 287/287/287
f 287/287/287 289/289/289 288/288/288
f 72/72/72 287/287/287 288/288/288
f 292/292/292 291/291/291 290/290/290
f 293/293/293 292/292/292 290/290/290
f 293/293/293 294/294/294 292/292/292
f 297/297/297 296/296/296 295/295/295
