g pb_Mesh297802
v 3.57628E-07 -2 9.999998
v -1.999998 -2 10
v 3.57628E-07 0 9.999998
v -1.999998 0 10
v -1.999998 -2 10
v -1.999999 -2 -2
v -1.999998 0 10
v -1.999999 0 -2
v -1.999999 -2 -2
v 0 -2 -2
v -1.999999 0 -2
v 0 0 -2
v 0 -2 -2
v 3.57628E-07 -2 9.999998
v 0 0 -2
v 3.57628E-07 0 9.999998
v 3.57628E-07 0 9.999998
v -1.999998 0 10
v 0 0 -2
v -1.999999 0 -2
v 0 -2 -2
v -1.999999 -2 -2
v 3.57628E-07 -2 9.999998
v -1.999998 -2 10
vt -9.179123E-06 -2
vt -2.000007 -2
vt -9.179123E-06 0
vt -2.000007 0
vt 10 -2
vt -2 -2
vt 10 0
vt -2 0
vt 1.999999 -2
vt -1.192094E-07 -2
vt 1.999999 0
vt -1.192094E-07 0
vt 2 -2
vt -9.999998 -2
vt 2 0
vt -9.999998 0
vt -3.57628E-07 9.999998
vt 1.999998 10
vt 0 -2
vt 1.999999 -2
vt 0 -2
vt -1.999999 -2
vt 3.57628E-07 9.999998
vt -1.999998 10
vn 9.536752E-07 0 1
vn 9.536752E-07 0 1
vn 9.536752E-07 0 1
vn 9.536752E-07 0 1
vn -1 0 9.934107E-08
vn -1 0 9.934107E-08
vn -1 0 9.934107E-08
vn -1 0 9.934107E-08
vn -5.960468E-08 0 -1
vn -5.960468E-08 0 -1
vn -5.960468E-08 0 -1
vn -5.960468E-08 0 -1
vn 1 0 -2.980234E-08
vn 1 0 -2.980234E-08
vn 1 0 -2.980234E-08
vn 1 0 -2.980234E-08
vn 0 1 0
vn 0 1 0
vn 0 1 0
vn 0 1 0
vn 0 -1 0
vn 0 -1 0
vn 0 -1 0
vn 0 -1 0
g pb_Mesh297802_0
g pb_Mesh297802_1
f 3/3/3 2/2/2 1/1/1
f 3/3/3 4/4/4 2/2/2
f 7/7/7 6/6/6 5/5/5
f 7/7/7 8/8/8 6/6/6
f 11/11/11 10/10/10 9/9/9
f 11/11/11 12/12/12 10/10/10
f 15/15/15 14/14/14 13/13/13
f 15/15/15 16/16/16 14/14/14
f 19/19/19 18/18/18 17/17/17
f 19/19/19 20/20/20 18/18/18
f 23/23/23 22/22/22 21/21/21
f 23/23/23 24/24/24 22/22/22
