g pb_Mesh297152
v -4.457199 2.409527 2.922104
v -2.352938 1.242885 0.4949265
v -6.782634 3.339374 -7.336937
v -9.405421 5.317266 14.54725
v -4.82705 2.696754 6.307495
v -5.630502 3.203834 9.453339
v -2.907714 1.673723 5.573013
v -9.092992 5.308397 20.10445
v -3.277564 1.96095 8.958405
v 1.728079 -1.225146 -11.60932
v -2.352938 1.242885 0.4949265
v -0.06375253 -0.06737232 -3.624947
v 1.728079 -1.225146 -11.60932
v -2.352938 1.242885 0.4949265
v -4.82705 2.696754 6.307495
v -0.06375253 -0.06737232 -3.624947
v -1.052131 0.5833216 1.213585
v -0.06375253 -0.06737232 -3.624947
v -1.421981 0.8705482 4.598976
v -4.88447 2.975111 15.25008
v 6.306449 -3.845658 -19.84908
v 0.8034526 -0.5070801 -3.145844
v 0 0 0
v 0.2486768 -0.07624054 1.932243
v 0.06375217 0.06737232 3.624939
v 10.6999 -6.322558 -26.39613
v 0.8034526 -0.5070801 -3.145844
v 8.289536 -4.801316 -16.95861
v 10.6999 -6.322558 -26.39613
v 0.8034526 -0.5070801 -3.145844
v 0 0 0
v 8.289536 -4.801316 -16.95861
v 5.011974 -2.840366 -8.000198
v 8.289536 -4.801316 -16.95861
v 7.765296 -3.987165 2.495239
vt -1 6
vt 1 4
vt -13.49548 0.9999999
vt -1 14
vt 1 8
vt 2 10
vt 4 7
vt 4 17
vt 6 9
vt -1 -4
vt 1 4
vt 2 1
vt -1 -4
vt 1 4
vt 1 8
vt 2 1
vt 4 4
vt 2 1
vt 6 6
vt 8 13
vt 1 -10
vt 4 1
vt 5 3
vt 7 4
vt 8 5
vt 4 -15
vt 4 1
vt 7 -9
vt 4 -15
vt 4 1
vt 5 3
vt 7 -9
vt 8 -3
vt 7 -9
vt 21.4823 2
vn -0.4628751 -0.8860818 0.02460913
vn -0.4628751 -0.8860818 0.02460913
vn -0.4628751 -0.8860818 0.02460913
vn -0.4628755 -0.8860816 0.02460897
vn -0.4628762 -0.8860813 0.02460857
vn -0.4628755 -0.8860816 0.024609
vn -0.4628755 -0.8860816 0.02460902
vn -0.4628753 -0.8860818 0.02460915
vn -0.4628751 -0.8860818 0.02460924
vn -0.4628755 -0.8860817 0.02460906
vn -0.4628755 -0.8860817 0.02460906
vn -0.4628758 -0.8860815 0.02460892
vn -0.4628755 -0.8860817 0.02460906
vn -0.4628769 -0.886081 0.02460816
vn -0.4628761 -0.8860813 0.02460867
vn -0.4628761 -0.8860813 0.02460867
vn -0.4628752 -0.8860818 0.02460917
vn -0.4628761 -0.8860813 0.02460867
vn -0.4628749 -0.8860819 0.02460923
vn -0.4628751 -0.8860819 0.02460914
vn -0.4628752 -0.8860818 0.02460917
vn -0.4628749 -0.886082 0.02460929
vn -0.4628755 -0.8860816 0.02460892
vn -0.4628752 -0.8860818 0.0246092
vn -0.4628752 -0.8860818 0.0246091
vn -0.4628755 -0.8860816 0.024609
vn -0.4628755 -0.8860816 0.024609
vn -0.4628758 -0.8860815 0.02460887
vn -0.4628755 -0.8860816 0.024609
vn -0.4628758 -0.8860815 0.02460881
vn -0.4628755 -0.8860816 0.02460903
vn -0.4628755 -0.8860816 0.02460903
vn -0.4628751 -0.8860818 0.02460925
vn -0.4628755 -0.8860816 0.02460903
vn -0.462875 -0.8860819 0.02460934
g pb_Mesh297152_0
f 3/3/3 2/2/2 1/1/1
f 2/2/2 4/4/4 1/1/1
f 2/2/2 5/5/5 4/4/4
f 5/5/5 6/6/6 4/4/4
f 5/5/5 7/7/7 6/6/6
f 7/7/7 8/8/8 6/6/6
f 7/7/7 9/9/9 8/8/8
f 10/10/10 2/2/2 3/3/3
f 13/13/13 12/12/12 11/11/11
f 16/16/16 15/15/15 14/14/14
f 18/18/18 17/17/17 5/5/5
f 17/17/17 7/7/7 5/5/5
f 17/17/17 19/19/19 7/7/7
f 19/19/19 9/9/9 7/7/7
f 19/19/19 20/20/20 9/9/9
f 21/21/21 18/18/18 10/10/10
f 21/21/21 22/22/22 18/18/18
f 22/22/22 17/17/17 18/18/18
f 22/22/22 23/23/23 17/17/17
f 23/23/23 19/19/19 17/17/17
f 23/23/23 24/24/24 19/19/19
f 24/24/24 20/20/20 19/19/19
f 24/24/24 25/25/25 20/20/20
f 26/26/26 22/22/22 21/21/21
f 29/29/29 28/28/28 27/27/27
f 32/32/32 31/31/31 30/30/30
f 34/34/34 33/33/33 23/23/23
f 33/33/33 24/24/24 23/23/23
f 33/33/33 35/35/35 24/24/24
f 35/35/35 25/25/25 24/24/24
