g pb_Mesh-812102
v -10 -6.674192E-13 -0.5000017
v -3.425838 3 -0.500002
v -3.425838 3 2.425834
v -8.764399 -7.354881E-13 7.764397
v -10 -6.674192E-13 -0.5000017
v -8.764399 1.321814E-14 -8.7644
v -3.425838 3 -3.425838
v -3.425838 3 -0.500002
v 2.425834 3 -3.425838
v 7.764398 6.004386E-13 -8.7644
v 10 5.563508E-13 -0.5000017
v 2.425834 3 -0.500002
v 2.425836 2.659752 2.425836
v 2.425834 3 -0.500002
v 10 5.563508E-13 -0.5000017
v 7.764398 -1.482676E-13 7.764397
v -0.500002 3 2.425834
v 2.425836 2.659752 2.425836
v -0.5000007 -8.669432E-13 10
v 7.764398 -1.482676E-13 7.764397
v -3.425838 3 2.425834
v -0.500002 3 2.425834
v -0.5000007 -8.669432E-13 10
v -8.764399 -7.354881E-13 7.764397
v -0.5000007 7.167948E-13 -10
v -3.425838 3 -3.425838
v -8.764399 1.321814E-14 -8.7644
v -0.500002 3 -3.425838
v -0.500002 3 -3.425838
v -0.5000007 7.167948E-13 -10
v 2.425834 3 -3.425838
v 7.764398 6.004386E-13 -8.7644
v -3.425838 3 -0.500002
v -0.500002 3 -0.500002
v -0.500002 3 2.425834
v -3.425838 3 2.425834
v -0.500002 3 -0.500002
v 2.425834 3 -0.500002
v 2.425836 2.659752 2.425836
v -0.500002 3 2.425834
v -3.425838 3 -3.425838
v -0.500002 3 -3.425838
v 2.425834 3 -3.425838
v 2.425834 3 -0.500002
v -0.5000007 5.329217E-15 -0.5000063
v -8.764399 1.321814E-14 -8.7644
v -10 -6.674192E-13 -0.5000017
v -0.5000007 7.167948E-13 -10
v 10 5.563508E-13 -0.5000017
v 7.764398 6.004386E-13 -8.7644
v -0.5000007 -8.669432E-13 10
v -8.764399 -7.354881E-13 7.764397
v 7.764398 -1.482676E-13 7.764397
vt 9.097533 -0.5000017
vt 1.87122 -0.500002
vt 1.87122 2.425834
vt 7.97344 7.764397
vt 8.983946 -0.211163
vt 7.873888 -8.493359
vt 1.760187 -3.143301
vt 1.760187 -0.2237513
vt -1.005011 -3.000349
vt -7.100832 -8.370774
vt -9.145374 -0.05704854
vt -1.005011 -0.09187245
vt -1.275913 2.049946
vt -1.150616 -0.8929429
vt -9.297273 -0.8929425
vt -7.218771 7.412066
vt 0.8431907 1.187558
vt -2.102364 1.18756
vt 0.4966538 9.32684
vt -7.712424 6.896949
vt 3.425838 1.150616
vt 0.500002 1.150616
vt 0.5000007 9.297273
vt 8.764399 7.218771
vt 0.4986705 -8.972581
vt 3.198041 -1.658653
vt 8.741082 -7.597942
vt 0.2799883 -1.752121
vt 0.500002 -1.87122
vt 0.5000007 -9.097533
vt -2.425834 -1.87122
vt -7.764398 -7.973441
vt 3.425838 -0.500002
vt 0.500002 -0.500002
vt 0.500002 2.425834
vt 3.425838 2.425834
vt 0.500002 -0.8431914
vt -2.425834 -0.8431914
vt -2.425836 2.102363
vt 0.500002 2.063059
vt 3.425838 -3.425838
vt 0.500002 -3.425838
vt -2.425834 -3.425838
vt -2.425834 -0.500002
vt -0.5000007 -0.5000063
vt -8.764399 -8.7644
vt -10 -0.5000017
vt -0.5000007 -10
vt 10 -0.5000017
vt 7.764398 -8.7644
vt -0.5000007 10
vt -8.764399 7.764397
vt 7.764398 7.764397
vn -0.4266975 0.9031087 0.03276084
vn -0.4151494 0.9097533 0
vn -0.4266975 0.9031087 0.03276084
vn -0.4382455 0.896464 0.06552168
vn -0.4266975 0.9031086 -0.03276084
vn -0.4382456 0.896464 -0.06552169
vn -0.4266975 0.9031086 -0.03276084
vn -0.4151494 0.9097533 0
vn 0.3851753 0.9194191 -0.05438625
vn 0.4021015 0.9091111 -0.1087725
vn 0.3851753 0.9194191 -0.05438625
vn 0.3682492 0.9297271 0
vn 0.3647102 0.9254063 0.1028847
vn 0.3661156 0.9243403 0.1074919
vn 0.3647102 0.9254063 0.1028847
vn 0.3633049 0.9264724 0.09827763
vn 0.1074919 0.9243403 0.3661156
vn 0.1028848 0.9254063 0.3647103
vn 0.1028848 0.9254063 0.3647103
vn 0.09827768 0.9264724 0.3633049
vn -0.05438628 0.9194191 0.3851753
vn 0 0.9297271 0.3682492
vn -0.05438628 0.9194191 0.3851753
vn -0.1087726 0.9091111 0.4021015
vn -0.03276082 0.9031087 -0.4266975
vn -0.03276082 0.9031087 -0.4266975
vn -0.06552164 0.896464 -0.4382456
vn 0 0.9097533 -0.4151494
vn 0 0.9097533 -0.4151494
vn 0.03276081 0.9031087 -0.4266974
vn 0.03276081 0.9031087 -0.4266974
vn 0.06552162 0.896464 -0.4382455
vn 0 1 0
vn 0 1 0
vn 0 1 0
vn 0 1 0
vn 0.05775608 0.9933061 0.05775608
vn 0 0.9933061 0.1155122
vn 0.05775608 0.9933061 0.05775608
vn 0.1155122 0.9933061 0
vn 0 1 0
vn 0 1 0
vn 0 1 0
vn 0 1 0
vn 7.237607E-14 -1 -7.333068E-14
vn 7.237607E-14 -1 -7.333068E-14
vn 7.081559E-14 -1 -7.17702E-14
vn 7.393655E-14 -1 -7.489116E-14
vn 1.931842E-14 -1 -3.824079E-14
vn -1.384143E-14 -1 -1.590425E-15
vn 2.828045E-14 -1 -4.458934E-14
vn -1.425468E-14 -1 -6.105186E-15
vn 5.848323E-14 -1 -7.706855E-14
g pb_Mesh-812102_0
f 3/3/3 2/2/2 1/1/1
f 3/3/3 1/1/1 4/4/4
f 7/7/7 6/6/6 5/5/5
f 8/8/8 7/7/7 5/5/5
f 11/11/11 10/10/10 9/9/9
f 11/11/11 9/9/9 12/12/12
f 15/15/15 14/14/14 13/13/13
f 16/16/16 15/15/15 13/13/13
f 19/19/19 18/18/18 17/17/17
f 20/20/20 18/18/18 19/19/19
f 23/23/23 22/22/22 21/21/21
f 24/24/24 23/23/23 21/21/21
f 27/27/27 26/26/26 25/25/25
f 26/26/26 28/28/28 25/25/25
f 31/31/31 30/30/30 29/29/29
f 31/31/31 32/32/32 30/30/30
f 35/35/35 34/34/34 33/33/33
f 35/35/35 33/33/33 36/36/36
f 39/39/39 38/38/38 37/37/37
f 39/39/39 37/37/37 40/40/40
f 34/34/34 42/42/42 41/41/41
f 34/34/34 41/41/41 33/33/33
f 44/44/44 43/43/43 42/42/42
f 44/44/44 42/42/42 34/34/34
f 47/47/47 46/46/46 45/45/45
f 46/46/46 48/48/48 45/45/45
f 45/45/45 48/48/48 49/49/49
f 48/48/48 50/50/50 49/49/49
f 52/52/52 47/47/47 51/51/51
f 47/47/47 45/45/45 51/51/51
f 51/51/51 45/45/45 53/53/53
f 45/45/45 49/49/49 53/53/53
