g pb_Mesh1865366
v -1.341076E-07 -28 8.939901E-08
v -4 -28 8.939875E-08
v 0 16 0
v -4 19.5 0
v -4 -28 8.939875E-08
v -4.000003 -28 -4
v -4 19.5 0
v -4 19.5 -4
v -4.000003 -28 -4
v -2.279875E-06 -28 -4
v -4 19.5 -4
v 0 16 -4
v -2.279875E-06 -28 -4
v -1.341076E-07 -28 8.939901E-08
v 0 16 -4
v 0 16 0
v 0 16 0
v -4 19.5 0
v 0 16 -4
v -4 19.5 -4
v -2.279875E-06 -28 -4
v -4.000003 -28 -4
v -1.341076E-07 -28 8.939901E-08
v -4 -28 8.939875E-08
vt -1.341076E-07 -28
vt -4 -28
vt 0 16
vt -4 19.5
vt -2.294787E-06 -28
vt -4.000003 -28
vt -2.384186E-06 19.5
vt -4.000002 19.5
vt 4.000003 -28
vt 2.279875E-06 -28
vt 4 19.5
vt 0 16
vt 4 -28
vt -8.939894E-08 -28
vt 4 16
vt 0 16
vt 10.53607 0
vt 15.85115 0
vt 10.53607 -4
vt 15.85115 -4
vt -2.279875E-06 -4
vt -4.000003 -4
vt -1.341076E-07 8.939901E-08
vt -4 8.939875E-08
vn -6.394884E-14 2.031796E-09 1
vn 8.233775E-10 1.956937E-09 1
vn 8.233775E-10 1.956937E-09 1
vn 1.646819E-09 1.882079E-09 1
vn -1 1.003868E-08 5.960464E-07
vn -1 3.513537E-08 2.980232E-07
vn -1 3.513537E-08 2.980232E-07
vn -1 6.023206E-08 0
vn 0 1.003868E-08 -1
vn 4.741278E-09 1.043794E-08 -1
vn 4.741278E-09 1.043794E-08 -1
vn 9.482557E-09 1.083721E-08 -1
vn 1 -5.181533E-08 -5.364417E-07
vn 1 -2.743162E-08 -2.682209E-07
vn 1 -2.743162E-08 -2.682209E-07
vn 1 -3.0479E-09 0
vn 0.6585046 0.7525767 0
vn 0.6585046 0.7525767 0
vn 0.6585046 0.7525767 0
vn 0.6585046 0.7525767 0
vn 0 -1 0
vn 0 -1 0
vn 0 -1 0
vn 0 -1 0
g pb_Mesh1865366_0
g pb_Mesh1865366_1
f 3/3/3 2/2/2 1/1/1
f 3/3/3 4/4/4 2/2/2
f 7/7/7 6/6/6 5/5/5
f 7/7/7 8/8/8 6/6/6
f 11/11/11 10/10/10 9/9/9
f 11/11/11 12/12/12 10/10/10
f 15/15/15 14/14/14 13/13/13
f 15/15/15 16/16/16 14/14/14
f 19/19/19 18/18/18 17/17/17
f 19/19/19 20/20/20 18/18/18
f 23/23/23 22/22/22 21/21/21
f 23/23/23 24/24/24 22/22/22
