g pb_Mesh202374
v 0 3 0
v -1 3 0
v 0 4 0
v -1 4 0
v -1 3 -4
v 0 3 -4
v -1 4 -4
v 0 4 -4
v 0 3 -4
v 0 3 0
v 0 4 -4
v 0 4 0
v 0 -25.75 0
v -1 -25.75 0
v 0 -25.75 -4
v 0 -25.75 0
v -1 -25.75 -4
v 0 -25.75 -4
v -1 -26 2
v -1 3 0
v -1 -25.75 0
v -1 3 2
v -1 3 -6
v -1 -25.75 -4
v -1 3 -4
v -1 -26 -6
v -5.5 3 2
v -1 3 0
v -1 3 2
v -5.5 3 0
v -5.5 3 0
v -5.5 4 0
v -5.5 3 -4
v -1 3 -6
v -1 3 -4
v -5.5 3 -6
v -5.5 4 -4
v -5.5 3 -4
v -5.5 4 -6
v -1 3 -6
v -5.5 3 -6
v -1 4 -6
v -1 4 -4
v -5.5 4 -6
v -5.5 4 -4
v -1 4 -6
v -1 4 2
v -5.5 4 0
v -5.5 4 2
v -1 4 0
v -5.5 4 2
v -5.5 3 0
v -5.5 3 2
v -5.5 4 0
v -5.5 4 -4
v -5.5 3 -6
v -5.5 3 -4
v -5.5 4 -6
vt 0 3
vt -1 3
vt 0 4
vt -1 4
vt 1 3
vt 0 3
vt 1 4
vt 0 4
vt 4 3
vt 0 3
vt 4 4
vt 0 4
vt 0 -25.75
vt -1 -25.75
vt 4 -25.75
vt 0 -25.75
vt 1 -25.75
vt 0 -25.75
vt -2 -26
vt 0 3
vt 0 -25.75
vt -2 3
vt 6 3
vt 4 -25.75
vt 4 3
vt 6 -26
vt 5.5 2
vt 1 0
vt 1 2
vt 5.5 0
vt -5.5 3
vt -5.5 4
vt 5.5 -4
vt 1 -6
vt 1 -4
vt 5.5 -6
vt 5.5 4
vt 5.5 3
vt -5.5 4
vt -1 3
vt -5.5 3
vt -1 4
vt -1 -4
vt -5.5 -6
vt -5.5 -4
vt -1 -6
vt -1 2
vt -5.5 0
vt -5.5 2
vt -1 0
vt -2 4
vt 0 3
vt -2 3
vt 0 4
vt 4 4
vt 6 3
vt 4 3
vt 6 4
vn 0 0 1
vn 0 0 1
vn 0 0 1
vn 0 0 1
vn 0 0 -1
vn 0 0 -1
vn 0 0 -1
vn 0 0 -1
vn 1 0 0
vn 1 0 0
vn 1 0 0
vn 1 0 0
vn 0 0 1
vn 0 0 1
vn 1 0 0
vn 1 0 0
vn 0 0 -1
vn 0 0 -1
vn 1 0 0
vn 1 0 0
vn 1 0 0
vn 1 0 0
vn 1 0 0
vn 1 0 0
vn 1 0 0
vn 1 0 0
vn 0 1 0
vn 0 1 0
vn 0 1 0
vn 0 1 0
vn 0 0 1
vn 0 0 1
vn 0 1 0
vn 0 1 0
vn 0 1 0
vn 0 1 0
vn 0 0 -1
vn 0 0 -1
vn 0 0 1
vn 0 0 1
vn 0 0 1
vn 0 0 1
vn 0 -1 0
vn 0 -1 0
vn 0 -1 0
vn 0 -1 0
vn 0 -1 0
vn 0 -1 0
vn 0 -1 0
vn 0 -1 0
vn 1 0 0
vn 1 0 0
vn 1 0 0
vn 1 0 0
vn 1 0 0
vn 1 0 0
vn 1 0 0
vn 1 0 0
g pb_Mesh202374_0
f 3/3/3 2/2/2 1/1/1
f 3/3/3 4/4/4 2/2/2
f 7/7/7 6/6/6 5/5/5
f 7/7/7 8/8/8 6/6/6
f 11/11/11 10/10/10 9/9/9
f 11/11/11 12/12/12 10/10/10
f 1/1/1 2/2/2 13/13/13
f 2/2/2 14/14/14 13/13/13
f 9/9/9 10/10/10 15/15/15
f 10/10/10 16/16/16 15/15/15
f 5/5/5 6/6/6 17/17/17
f 6/6/6 18/18/18 17/17/17
f 21/21/21 20/20/20 19/19/19
f 20/20/20 22/22/22 19/19/19
f 25/25/25 24/24/24 23/23/23
f 24/24/24 26/26/26 23/23/23
f 29/29/29 28/28/28 27/27/27
f 28/28/28 30/30/30 27/27/27
f 2/2/2 4/4/4 31/31/31
f 4/4/4 32/32/32 31/31/31
f 35/35/35 34/34/34 33/33/33
f 34/34/34 36/36/36 33/33/33
f 7/7/7 5/5/5 37/37/37
f 5/5/5 38/38/38 37/37/37
f 41/41/41 40/40/40 39/39/39
f 40/40/40 42/42/42 39/39/39
f 45/45/45 44/44/44 43/43/43
f 44/44/44 46/46/46 43/43/43
f 49/49/49 48/48/48 47/47/47
f 48/48/48 50/50/50 47/47/47
g pb_Mesh202374_1
f 53/53/53 52/52/52 51/51/51
f 52/52/52 54/54/54 51/51/51
f 57/57/57 56/56/56 55/55/55
f 56/56/56 58/58/58 55/55/55
