g pb_Mesh323266
v -1 0.25 -3
v -3.75 0.25 -4
v 0 0.25 -0.25
v -3.75 0.25 -0.25
v -1 8 -3
v -1 0.25 -3
v 0.2499997 6.75 -3.000006
v 0.2499997 0.25 -3.000006
v -3.75 8 -3
v -3.75 0.25 -4
v -3.75 6.75 -4.250006
v -3.75 0.25 -4.250006
v -1 0.25 -3
v -1 8 -3
v -1 0.25 -4.250006
v -1 6.75 -4.250006
v 0.2499998 6.75 -0.7500064
v 0.2499998 0.25 -0.2500064
v 0.2499998 6.75 -0.2500064
v 0.2499998 0.25 -0.7500064
v 0.2499997 6.75 -1.500006
v 0.2499997 0.25 -1.500006
v -1 8 -1.5
v 0.2499997 6.75 -1.500006
v 0.2499998 6.75 -0.7500064
v -1 8 -0.75
v 0.2499998 6.75 -0.2500064
v -1 8 -0.25
v 0.2499997 6.75 -2.250006
v 0.2499997 0.25 -2.250006
v 0.2499997 6.75 -3.000006
v 0.2499997 0.25 -3.000006
v -1 8 -3
v 0.2499997 6.75 -3.000006
v 0.2499997 6.75 -2.250006
v -1 8 -2.25
v -1 8 -2.25
v -3.75 8 -0.25
v -3.75 0.25 -0.25
v -3.75 8 -0.75
v -3.75 8 -1.5
v -3.75 8 -2.25
v 0.2499998 0.25 -0.2500064
v 0.2499998 0.25 -0.7500064
v 0.2499997 0.25 -1.500006
v 0.2499997 0.25 -2.250006
v 0.2499997 0.25 -3.000006
v -1.75 6.75 -4.250006
v -1 0.25 -4.250006
v -1 6.75 -4.250006
v -1.75 0.25 -4.250006
v -2.5 6.75 -4.250006
v -2.5 0.25 -4.250006
v -1.75 8 -3
v -1 6.75 -4.250006
v -1 8 -3
v -1.75 6.75 -4.250006
v -2.5 8 -3
v -2.5 6.75 -4.250006
v -2.5 8 -1.5
v -1.75 8 -1.5
v -1.75 8 -0.75
v -2.5 8 -0.75
v -1 8 -1.5
v -1 8 -0.75
v -1.75 8 -0.25
v -2.25 8 -0.2500062
v -1 8 -0.25
v -2.5 8 -3
v -1.75 8 -3
v -1.75 8 -2.25
v -2.5 8 -2.25
v -1 8 -3
v -1 8 -2.25
v -3.25 6.75 -4.250006
v -3.25 0.25 -4.250006
v -3.75 6.75 -4.250006
v -3.75 0.25 -4.250006
v -3.25 8 -3
v -3.25 6.75 -4.250006
v -3.75 8 -3
v -3.75 6.75 -4.250006
v -3.75 8 -1.5
v -3.25 8 -1.5
v -3.25 8 -0.75
v -3.75 8 -0.75
v -3 8 -0.2500062
v -3.75 8 -0.25
v -3.75 8 -3
v -3.25 8 -3
v -3.25 8 -2.25
v -3.75 8 -2.25
v -2.5 0.25 -4.250006
v -1.75 0.25 -4.250006
v -1 0.25 -4.250006
v -3.25 0.25 -4.250006
v -3.75 0.25 -4.250006
v 0 0.25 -0.25
v -1 8 -0.25
v 0.2499998 0.25 -0.2500064
v 0.2499998 6.75 -0.2500064
v -1.75 8 -0.25
v -1 8 -0.25
v -3.75 0.25 -0.25
v -2.25 8 -0.2500062
v -3 8 -0.2500062
v -3.75 8 -0.25
v -3.75 8 -0.25
v -3.75 34.25 -0.2500061
v -3 34.25 -0.2500062
v -3 8 -0.2500062
v -2.25 8 -0.2500062
v -2.25 34.25 -0.2500062
vt -1 -3
vt -3.75 -4
vt 0 -0.25
vt -3.75 -0.25
vt 0.9999846 8
vt 0.9999846 0.25
vt -0.2500151 6.75
vt -0.2500151 0.25
vt -3.000002 8
vt -4.000001 0.2500002
vt -4.250008 6.75
vt -4.250008 0.2500002
vt 3 0.25
vt 3 8
vt 4.250007 0.25
vt 4.250007 6.75
vt 0.7500064 6.75
vt 0.2500064 0.25
vt 0.2500064 6.75
vt 0.7500064 0.25
vt 1.500006 6.75
vt 1.500006 0.25
vt 6.363961 -1.5
vt 4.596195 -1.500006
vt 4.596195 -0.7500064
vt 6.363961 -0.75
vt 4.596195 -0.2500064
vt 6.363961 -0.25
vt 2.250006 6.75
vt 2.250006 0.25
vt 3.000006 6.75
vt 3.000006 0.25
vt 6.363962 -3
vt 4.596195 -3.000006
vt 4.596195 -2.250006
vt 6.363962 -2.25
vt 6.363961 -2.25
vt -0.25 8
vt -0.25 0.25
vt -0.75 8
vt -1.5 8
vt -2.25 8
vt 0.2499998 -0.2500064
vt 0.2499998 -0.7500064
vt 0.2499997 -1.500006
vt 0.2499997 -2.250006
vt 0.2499997 -3.000006
vt 1.75 6.75
vt 1 0.25
vt 1 6.75
vt 1.75 0.25
vt 2.5 6.75
vt 2.5 0.25
vt 1.75 3.535515
vt 1 1.767743
vt 1 3.535515
vt 1.75 1.767743
vt 2.5 3.535515
vt 2.5 1.767743
vt 2.5 -1.5
vt 1.75 -1.5
vt 1.75 -0.75
vt 2.5 -0.75
vt 1 -1.5
vt 1 -0.75
vt 1.75 -0.25
vt 2.25 -0.2500062
vt 1 -0.25
vt 2.5 -3
vt 1.75 -3
vt 1.75 -2.25
vt 2.5 -2.25
vt 1 -3
vt 1 -2.25
vt 3.25 6.75
vt 3.25 0.25
vt 3.75 6.75
vt 3.75 0.25
vt 3.25 3.535515
vt 3.25 1.767743
vt 3.75 3.535515
vt 3.75 1.767743
vt 3.75 -1.5
vt 3.25 -1.5
vt 3.25 -0.75
vt 3.75 -0.75
vt 3 -0.2500062
vt 3.75 -0.25
vt 3.75 -3
vt 3.25 -3
vt 3.25 -2.25
vt 3.75 -2.25
vt -2.5 -4.250006
vt -1.75 -4.250006
vt -1 -4.250006
vt -3.25 -4.250006
vt -3.75 -4.250006
vt 6.377702E-06 0.2500008
vt -0.9999936 8.000001
vt 0.2500062 0.2500008
vt 0.2500062 6.750001
vt -1.75 8
vt -1 8
vt -3.75 0.2500001
vt -2.25 8
vt -3 8
vt -3.75 8
vt -3.75 8
vt -3.75 34.25
vt -3 34.25
vt -3 8
vt -2.25 8
vt -2.25 34.25
vn 0 -1 0
vn 0 -1 0
vn 0 -1 0
vn 0 -1 0
vn -5.149843E-06 0 -1
vn -5.149843E-06 0 -1
vn -5.149843E-06 0 -1
vn -5.149842E-06 0 -1
vn -1 -5.651371E-08 4.379813E-07
vn -1 -2.825686E-08 1.172641E-06
vn -1 -2.825686E-08 1.172641E-06
vn -1 0 1.907301E-06
vn 1 0 -3.814679E-07
vn 1 0 -3.814679E-07
vn 1 0 -3.814679E-07
vn 1 0 -3.814679E-07
vn 1 0 -5.960464E-08
vn 1 0 -5.960464E-08
vn 1 0 -5.960464E-08
vn 1 0 -5.960464E-08
vn 1 0 -5.960464E-08
vn 1 0 -5.960464E-08
vn 0.7071068 0.7071067 0
vn 0.7071068 0.7071067 0
vn 0.7071068 0.7071067 0
vn 0.7071068 0.7071067 0
vn 0.7071068 0.7071067 0
vn 0.7071068 0.7071067 0
vn 1 0 -5.960464E-08
vn 1 0 -5.960464E-08
vn 1 0 -5.960464E-08
vn 1 0 -5.960464E-08
vn 0.7071068 0.7071067 -5.619581E-08
vn 0.7071069 0.7071067 -1.123916E-07
vn 0.7071068 0.7071067 -5.619581E-08
vn 0.7071068 0.7071067 0
vn 0.7071068 0.7071067 0
vn -1 0 0
vn -1 0 0
vn -1 0 0
vn -1 0 0
vn -1 0 0
vn 0 -1 0
vn 0 -1 0
vn 0 -1 0
vn 0 -1 0
vn 0 -1 0
vn 0 0 -1
vn 0 0 -1
vn 0 0 -1
vn 0 0 -1
vn 0 0 -1
vn 0 0 -1
vn 0 0.7071086 -0.707105
vn 0 0.7071086 -0.707105
vn 0 0.7071086 -0.707105
vn 0 0.7071086 -0.707105
vn 0 0.7071086 -0.707105
vn 0 0.7071086 -0.707105
vn 0 1 0
vn 0 1 0
vn 0 1 0
vn 0 1 0
vn 0 1 0
vn 0 1 0
vn 0 1 0
vn 0 1 0
vn 0 1 0
vn 0 1 0
vn 0 1 0
vn 0 1 0
vn 0 1 0
vn 0 1 0
vn 0 1 0
vn 0 0 -1
vn 0 0 -1
vn 0 0 -1
vn 0 0 -1
vn 0 0.7071086 -0.707105
vn 0 0.7071086 -0.707105
vn 0 0.7071085 -0.707105
vn 0 0.7071085 -0.707105
vn 0 1 0
vn 0 1 0
vn 0 1 0
vn 0 1 0
vn 0 1 0
vn 0 1 0
vn 0 1 0
vn 0 1 0
vn 0 1 0
vn 0 1 0
vn 0 -1 0
vn 0 -1 0
vn 0 -1 0
vn 0 -1 0
vn 0 -1 0
vn 2.551081E-05 3.291717E-06 1
vn 1.530648E-05 1.645858E-06 1
vn 1.530648E-05 1.645858E-06 1
vn 5.102159E-06 0 1
vn -4.152455E-06 1.071601E-06 1
vn 0 0 1
vn -1.038112E-06 1.002704E-06 1
vn -6.208814E-06 2.005407E-06 1
vn 4.152459E-06 3.980052E-07 1
vn 8.26518E-06 0 1
vn 4.172326E-06 1.169386E-07 1
vn 7.947286E-08 2.338773E-07 1
vn 4.172326E-06 1.169386E-07 1
vn 8.26518E-06 0 1
vn 3.973643E-08 0 1
vn 3.973643E-08 0 1
g pb_Mesh323266_0
f 3/3/3 2/2/2 1/1/1
f 3/3/3 4/4/4 2/2/2
f 7/7/7 6/6/6 5/5/5
f 7/7/7 8/8/8 6/6/6
f 11/11/11 10/10/10 9/9/9
f 11/11/11 12/12/12 10/10/10
f 15/15/15 14/14/14 13/13/13
f 15/15/15 16/16/16 14/14/14
f 19/19/19 18/18/18 17/17/17
f 18/18/18 20/20/20 17/17/17
f 17/17/17 20/20/20 21/21/21
f 20/20/20 22/22/22 21/21/21
f 25/25/25 24/24/24 23/23/23
f 25/25/25 23/23/23 26/26/26
f 27/27/27 25/25/25 26/26/26
f 27/27/27 26/26/26 28/28/28
f 21/21/21 22/22/22 29/29/29
f 22/22/22 30/30/30 29/29/29
f 29/29/29 30/30/30 31/31/31
f 30/30/30 32/32/32 31/31/31
f 35/35/35 34/34/34 33/33/33
f 35/35/35 33/33/33 36/36/36
f 24/24/24 35/35/35 37/37/37
f 24/24/24 37/37/37 23/23/23
f 40/40/40 39/39/39 38/38/38
f 40/40/40 41/41/41 39/39/39
f 41/41/41 42/42/42 39/39/39
f 39/39/39 42/42/42 10/10/10
f 42/42/42 9/9/9 10/10/10
f 44/44/44 43/43/43 3/3/3
f 45/45/45 44/44/44 3/3/3
f 3/3/3 1/1/1 45/45/45
f 1/1/1 46/46/46 45/45/45
f 1/1/1 47/47/47 46/46/46
f 50/50/50 49/49/49 48/48/48
f 49/49/49 51/51/51 48/48/48
f 48/48/48 51/51/51 52/52/52
f 51/51/51 53/53/53 52/52/52
f 56/56/56 55/55/55 54/54/54
f 55/55/55 57/57/57 54/54/54
f 54/54/54 57/57/57 58/58/58
f 57/57/57 59/59/59 58/58/58
f 62/62/62 61/61/61 60/60/60
f 62/62/62 60/60/60 63/63/63
f 65/65/65 64/64/64 61/61/61
f 65/65/65 61/61/61 62/62/62
f 66/66/66 62/62/62 63/63/63
f 66/66/66 63/63/63 67/67/67
f 68/68/68 65/65/65 62/62/62
f 68/68/68 62/62/62 66/66/66
f 71/71/71 70/70/70 69/69/69
f 71/71/71 69/69/69 72/72/72
f 74/74/74 73/73/73 70/70/70
f 74/74/74 70/70/70 71/71/71
f 61/61/61 71/71/71 72/72/72
f 61/61/61 72/72/72 60/60/60
f 64/64/64 74/74/74 71/71/71
f 64/64/64 71/71/71 61/61/61
f 52/52/52 53/53/53 75/75/75
f 53/53/53 76/76/76 75/75/75
f 75/75/75 76/76/76 77/77/77
f 76/76/76 78/78/78 77/77/77
f 58/58/58 59/59/59 79/79/79
f 59/59/59 80/80/80 79/79/79
f 79/79/79 80/80/80 81/81/81
f 80/80/80 82/82/82 81/81/81
f 85/85/85 84/84/84 83/83/83
f 85/85/85 83/83/83 86/86/86
f 63/63/63 60/60/60 84/84/84
f 63/63/63 84/84/84 85/85/85
f 87/87/87 85/85/85 86/86/86
f 87/87/87 86/86/86 88/88/88
f 67/67/67 63/63/63 85/85/85
f 67/67/67 85/85/85 87/87/87
f 91/91/91 90/90/90 89/89/89
f 91/91/91 89/89/89 92/92/92
f 72/72/72 69/69/69 90/90/90
f 72/72/72 90/90/90 91/91/91
f 84/84/84 91/91/91 92/92/92
f 84/84/84 92/92/92 83/83/83
f 60/60/60 72/72/72 91/91/91
f 60/60/60 91/91/91 84/84/84
f 93/93/93 1/1/1 2/2/2
f 93/93/93 94/94/94 1/1/1
f 94/94/94 95/95/95 1/1/1
f 96/96/96 93/93/93 2/2/2
f 2/2/2 97/97/97 96/96/96
g pb_Mesh323266_1
f 100/100/100 99/99/99 98/98/98
f 100/100/100 101/101/101 99/99/99
f 103/103/103 102/102/102 98/98/98
f 98/98/98 102/102/102 104/104/104
f 104/104/104 102/102/102 105/105/105
f 104/104/104 105/105/105 106/106/106
f 106/106/106 107/107/107 104/104/104
f 110/110/110 109/109/109 108/108/108
f 110/110/110 108/108/108 111/111/111
f 111/111/111 112/112/112 110/110/110
f 112/112/112 113/113/113 110/110/110
