g pb_Mesh278136
v -605 73 103
v -605 62 107
v -605 73 107
v -605 62 103
v -592 62 116
v -592 73 116
v -596 62 116
v -596 73 116
v -592 73 107
v -592 73 103
v -596 73 107
v -596 73 103
v -592 73 94
v -592 62 94
v -596 73 94
v -596 62 94
v -605 62 116
v -605 73 116
v -605 73 107
v -605 73 103
v -605 73 94
v -605 62 94
v -583 73 107
v -506 62 107
v -506 73 107
v -583 62 107
v -583 62 116
v -583 73 116
v -506 73 107
v -583 73 103
v -583 73 107
v -506 73 103
v -506 62 103
v -583 62 103
v -583 73 103
v -506 73 103
v -583 62 94
v -583 73 94
v -596 73 94
v -592 73 94
v -583 73 103
v -583 62 103
v -583 73 94
v -583 62 94
v -583 73 94
v -605 73 94
v -605 62 94
v -605 73 94
v -583 62 107
v -583 73 107
v -583 62 116
v -583 73 116
v -583 73 116
v -592 73 116
v -596 73 116
v -605 73 116
v -605 73 116
v -605 62 116
v -590 62 101
v -590 62 109
v -590 42 101
v -590 42 109
v -598 62 101
v -590 62 101
v -598 42 101
v -590 42 101
v -590 62 109
v -598 62 109
v -590 42 109
v -598 42 109
v -598 62 109
v -598 62 101
v -598 42 109
v -598 42 101
v -605 62 94
v -605.8005 62 94
v -605.8005 73 94
v -605 73 94
v -590.0001 38 108.9999
v -590.0001 40 101.0001
v -590.0001 40 108.9999
v -590.0001 38 101.0001
v -590.0001 38 101.0001
v -597.9999 40 101.0001
v -590.0001 40 101.0001
v -597.9999 38 101.0001
v -597.9999 38 108.9999
v -590.0001 40 108.9999
v -597.9999 40 108.9999
v -590.0001 38 108.9999
v -597.9999 38 101.0001
v -597.9999 40 108.9999
v -597.9999 40 101.0001
v -597.9999 38 108.9999
v -605 73 94
v -605 73 92.68243
v -605 62 92.68243
v -605 62 94
v -605 73 116
v -605.7844 72.9999 116
v -605.7844 72.9999 107
v -605 73 107
v -605.7844 72.9999 103
v -605 73 103
v -605.7844 72.9999 94
v -605 73 94
v -583 60 94.00007
v -583 62 103
v -583 62 94
v -583 60 103
v -592 62 94
v -592 60 94.0001
v -583 60 94.00007
v -583 62 94
v -598 62 101
v -598 62 109
v -605 62 103
v -605 62 107
v -583 62 103
v -506 62 103
v -506 62 107
v -583 62 107
v -590 62 101
v -590 62 109
v -583 62 94
v -592 62 94
v -596 62 94
v -605 62 94
v -596 62 116
v -592 62 116
v -583 62 116
v -605 62 116
v -590.0001 40 108.9999
v -590 42 101
v -590 42 109
v -590.0001 40 101.0001
v -590.0001 40 101.0001
v -598 42 101
v -590 42 101
v -597.9999 40 101.0001
v -597.9999 40 108.9999
v -590 42 109
v -598 42 109
v -590.0001 40 108.9999
v -597.9999 40 101.0001
v -598 42 109
v -598 42 101
v -597.9999 40 108.9999
vt -103 73
vt -107 62
vt -107 73
vt -103 62
vt 592 62
vt 592 73
vt 596 62
vt 596 73
vt -592 107
vt -592 103
vt -596 107
vt -596 103
vt -592 73
vt -592 62
vt -596 73
vt -596 62
vt 605 62
vt 605 73
vt -605 107
vt -605 103
vt -605 73
vt -605 62
vt 583 73
vt 506 62
vt 506 73
vt 583 62
vt 583 62
vt 583 73
vt -506 107
vt -583 103
vt -583 107
vt -506 103
vt -506 62
vt -583 62
vt -583 73
vt -506 73
vt -583 62
vt -583 73
vt -596 94
vt -592 94
vt 103 73
vt 103 62
vt 94 73
vt 94 62
vt -583 94
vt -605 94
vt -94 62
vt -94 73
vt 107 62
vt 107 73
vt 116 62
vt 116 73
vt -583 116
vt -592 116
vt -596 116
vt -605 116
vt -116 73
vt -116 62
vt 101 62
vt 109 62
vt 101 42
vt 109 42
vt -598 62
vt -590 62
vt -598 42
vt -590 42
vt 590 62
vt 598 62
vt 590 42
vt 598 42
vt -109 62
vt -101 62
vt -109 42
vt -101 42
vt -605 62
vt -605.8005 62
vt -605.8005 73
vt -605 73
vt 108.9999 37.98199
vt 101.0001 39.98199
vt 108.9999 39.98199
vt 101.0001 37.98199
vt -590.0001 37.99653
vt -597.9999 39.99653
vt -590.0001 39.99653
vt -597.9999 37.99653
vt 597.9999 38.00374
vt 590.0001 40.00374
vt 597.9999 40.00374
vt 590.0001 38.00374
vt -101.0001 38.01825
vt -108.9999 40.01825
vt -101.0001 40.01825
vt -108.9999 38.01825
vt -94 73
vt -92.68243 73
vt -92.68243 62
vt -94 62
vt 604.9908 116
vt 605.7752 116
vt 605.7752 107
vt 604.9908 107
vt 605.7752 103
vt 604.9908 103
vt 605.7752 94
vt 604.9908 94
vt -94.00007 60
vt -103 62
vt -94 62
vt -103 60
vt 592.0003 61.99534
vt 592.0003 59.99534
vt 583.0003 59.99534
vt 583.0003 61.99534
vt 598 101
vt 598 109
vt 605 103
vt 605 107
vt 583 103
vt 506 103
vt 506 107
vt 583 107
vt 590 101
vt 590 109
vt 583 94
vt 592 94
vt 596 94
vt 605 94
vt 596 116
vt 592 116
vt 583 116
vt 605 116
vt 108.9999 39.98199
vt 101 41.98199
vt 109 41.98199
vt 101.0001 39.98199
vt -590.0001 39.99653
vt -598 41.99653
vt -590 41.99653
vt -597.9999 39.99653
vt 597.9999 40.00374
vt 590 42.00374
vt 598 42.00374
vt 590.0001 40.00374
vt -101.0001 40.01825
vt -109 42.01825
vt -101 42.01825
vt -108.9999 40.01825
vn 1 0 0
vn 1 0 0
vn 1 0 0
vn 1 0 0
vn 0 0 -1
vn 0 0 -1
vn 0 0 -1
vn 0 0 -1
vn 0 -1 0
vn 0 -1 0
vn 0 -1 0
vn 0 -1 0
vn 0 0 1
vn 0 0 1
vn 0 0 1
vn 0 0 1
vn 0 0 -1
vn 0 0 -1
vn 0 -1 0
vn 0 -1 0
vn 0 0 1
vn 0 0 1
vn 0 0 -1
vn 0 0 -1
vn 0 0 -1
vn 0 0 -1
vn 0 0 -1
vn 0 0 -1
vn 0 -1 0
vn 0 -1 0
vn 0 -1 0
vn 0 -1 0
vn 0 0 1
vn 0 0 1
vn 0 0 1
vn 0 0 1
vn 0 0 1
vn 0 0 1
vn 0 -1 0
vn 0 -1 0
vn -1 0 0
vn -1 0 0
vn -1 0 0
vn -1 0 0
vn 0 -1 0
vn 0 -1 0
vn 1 0 0
vn 1 0 0
vn -1 0 0
vn -1 0 0
vn -1 0 0
vn -1 0 0
vn 0 -1 0
vn 0 -1 0
vn 0 -1 0
vn 0 -1 0
vn 1 0 0
vn 1 0 0
vn -1 0 0
vn -1 0 0
vn -1 0 0
vn -1 0 0
vn 0 0 1
vn 0 0 1
vn 0 0 1
vn 0 0 1
vn 0 0 -1
vn 0 0 -1
vn 0 0 -1
vn 0 0 -1
vn 1 0 0
vn 1 0 0
vn 1 0 0
vn 1 0 0
vn 0 0 1
vn 0 0 1
vn 0 0 1
vn 0 0 1
vn -1 3.051758E-05 0
vn -1 3.051758E-05 0
vn -1 3.051758E-05 0
vn -1 3.051758E-05 0
vn 0 3.433228E-05 1
vn 0 3.433228E-05 1
vn 0 3.433228E-05 1
vn 0 3.433228E-05 1
vn 0 3.433228E-05 -1
vn 0 3.433228E-05 -1
vn 0 3.433228E-05 -1
vn 0 3.433228E-05 -1
vn 1 3.051758E-05 0
vn 1 3.051758E-05 0
vn 1 3.051758E-05 0
vn 1 3.051758E-05 0
vn 1 0 0
vn 1 0 0
vn 1 0 0
vn 1 0 0
vn -0.0001264395 1 0
vn -0.0001264395 1 0
vn -0.0001264395 1 0
vn -0.0001264395 1 0
vn -0.0001264395 1 0
vn -0.0001264395 1 0
vn -0.0001264395 1 0
vn -0.0001264395 1 0
vn 1 0 0
vn 1 0 0
vn 1 0 0
vn 1 0 0
vn -1.695421E-06 -4.196167E-05 -1
vn -3.390842E-06 -4.959106E-05 -1
vn -1.695421E-06 -4.196167E-05 -1
vn 0 -3.433228E-05 -1
vn 0 1 0
vn 0 1 0
vn 0 1 0
vn 0 1 0
vn 0 1 0
vn 0 1 0
vn 0 1 0
vn 0 1 0
vn 0 1 0
vn 0 1 0
vn 0 1 0
vn 0 1 0
vn 0 1 0
vn 0 1 0
vn 0 1 0
vn 0 1 0
vn 0 1 0
vn 0 1 0
vn -1 3.051758E-05 0
vn -1 3.051758E-05 0
vn -1 3.051758E-05 0
vn -1 3.051758E-05 0
vn 0 3.433228E-05 1
vn 0 3.433228E-05 1
vn 0 3.433228E-05 1
vn 0 3.433228E-05 1
vn 0 3.433228E-05 -1
vn 0 3.433228E-05 -1
vn 0 3.433228E-05 -1
vn 0 3.433228E-05 -1
vn 1 3.051758E-05 0
vn 1 3.051758E-05 0
vn 1 3.051758E-05 0
vn 1 3.051758E-05 0
g pb_Mesh278136_0
f 3/3/3 2/2/2 1/1/1
f 2/2/2 4/4/4 1/1/1
f 7/7/7 6/6/6 5/5/5
f 7/7/7 8/8/8 6/6/6
f 11/11/11 10/10/10 9/9/9
f 11/11/11 12/12/12 10/10/10
f 15/15/15 14/14/14 13/13/13
f 15/15/15 16/16/16 14/14/14
f 17/17/17 8/8/8 7/7/7
f 17/17/17 18/18/18 8/8/8
f 19/19/19 12/12/12 11/11/11
f 19/19/19 20/20/20 12/12/12
f 21/21/21 16/16/16 15/15/15
f 21/21/21 22/22/22 16/16/16
f 25/25/25 24/24/24 23/23/23
f 24/24/24 26/26/26 23/23/23
f 28/28/28 27/27/27 6/6/6
f 27/27/27 5/5/5 6/6/6
f 31/31/31 30/30/30 29/29/29
f 30/30/30 32/32/32 29/29/29
f 9/9/9 10/10/10 31/31/31
f 10/10/10 30/30/30 31/31/31
f 35/35/35 34/34/34 33/33/33
f 35/35/35 33/33/33 36/36/36
f 13/13/13 14/14/14 37/37/37
f 13/13/13 37/37/37 38/38/38
f 39/39/39 10/10/10 12/12/12
f 39/39/39 40/40/40 10/10/10
f 43/43/43 42/42/42 41/41/41
f 43/43/43 44/44/44 42/42/42
f 40/40/40 30/30/30 10/10/10
f 40/40/40 45/45/45 30/30/30
f 46/46/46 12/12/12 20/20/20
f 46/46/46 39/39/39 12/12/12
f 47/47/47 1/1/1 4/4/4
f 47/47/47 48/48/48 1/1/1
f 51/51/51 50/50/50 49/49/49
f 51/51/51 52/52/52 50/50/50
f 53/53/53 9/9/9 31/31/31
f 53/53/53 54/54/54 9/9/9
f 54/54/54 11/11/11 9/9/9
f 54/54/54 55/55/55 11/11/11
f 55/55/55 19/19/19 11/11/11
f 55/55/55 56/56/56 19/19/19
f 57/57/57 2/2/2 3/3/3
f 57/57/57 58/58/58 2/2/2
f 61/61/61 60/60/60 59/59/59
f 61/61/61 62/62/62 60/60/60
f 65/65/65 64/64/64 63/63/63
f 65/65/65 66/66/66 64/64/64
f 69/69/69 68/68/68 67/67/67
f 69/69/69 70/70/70 68/68/68
f 73/73/73 72/72/72 71/71/71
f 73/73/73 74/74/74 72/72/72
f 77/77/77 76/76/76 75/75/75
f 77/77/77 75/75/75 78/78/78
f 81/81/81 80/80/80 79/79/79
f 80/80/80 82/82/82 79/79/79
f 85/85/85 84/84/84 83/83/83
f 84/84/84 86/86/86 83/83/83
f 89/89/89 88/88/88 87/87/87
f 88/88/88 90/90/90 87/87/87
f 93/93/93 92/92/92 91/91/91
f 92/92/92 94/94/94 91/91/91
g pb_Mesh278136_1
f 97/97/97 96/96/96 95/95/95
f 97/97/97 95/95/95 98/98/98
f 101/101/101 100/100/100 99/99/99
f 101/101/101 99/99/99 102/102/102
f 103/103/103 101/101/101 102/102/102
f 103/103/103 102/102/102 104/104/104
f 105/105/105 103/103/103 104/104/104
f 105/105/105 104/104/104 106/106/106
f 109/109/109 108/108/108 107/107/107
f 108/108/108 110/110/110 107/107/107
f 113/113/113 112/112/112 111/111/111
f 113/113/113 111/111/111 114/114/114
g pb_Mesh278136_2
f 117/117/117 116/116/116 115/115/115
f 117/117/117 118/118/118 116/116/116
f 121/121/121 120/120/120 119/119/119
f 121/121/121 119/119/119 122/122/122
f 122/122/122 119/119/119 123/123/123
f 122/122/122 123/123/123 124/124/124
f 125/125/125 123/123/123 119/119/119
f 125/125/125 126/126/126 123/123/123
f 126/126/126 115/115/115 123/123/123
f 126/126/126 127/127/127 115/115/115
f 127/127/127 117/117/117 115/115/115
f 127/127/127 128/128/128 117/117/117
f 129/129/129 124/124/124 116/116/116
f 129/129/129 130/130/130 124/124/124
f 130/130/130 122/122/122 124/124/124
f 130/130/130 131/131/131 122/122/122
f 132/132/132 116/116/116 118/118/118
f 132/132/132 129/129/129 116/116/116
f 135/135/135 134/134/134 133/133/133
f 134/134/134 136/136/136 133/133/133
f 139/139/139 138/138/138 137/137/137
f 138/138/138 140/140/140 137/137/137
f 143/143/143 142/142/142 141/141/141
f 142/142/142 144/144/144 141/141/141
f 147/147/147 146/146/146 145/145/145
f 146/146/146 148/148/148 145/145/145
