g pb_Mesh372230
v 11.00007 -32 12
v 11.00003 9.918213E-05 4
v 11 -32 4
v 11.00007 9.918213E-05 12
v 16 -32 12
v 11.00007 9.918213E-05 12
v 11.00007 -32 12
v 16 9.918213E-05 12
v 16 -32 8
v 16 9.918213E-05 12
v 16 -32 12
v 16 9.918213E-05 8
v 15.99997 7 11.99995
v 11.00007 7 11.9999
v 15.99997 7 11.99995
v 15.99997 7 8
v 11.00007 7 4
v 11.00007 7 11.9999
v -20 7 4
v 11.00003 9.918213E-05 4
v 11.00007 7 4
v -20 4.959106E-05 4
v 11.00014 15 11.99983
v 11.00014 15 3.999929
v 15.99997 15 11.99988
v 11.00007 7 11.9999
v 15.99997 7 11.99995
v 11.00014 15 11.99983
v 11.00014 15 3.999929
v -20 7 4
v 11.00007 7 4
v -20 15 3.999901
v 11.00009 -39 3.999962
v 11.00007 -32 12
v 11 -32 4
v 11.00014 -39 11.99993
v 11.00014 -39 11.99993
v 16 -32 12
v 11.00007 -32 12
v 16 -39 11.9999
v 7.000069 -39 -7.05719E-05
v 11 -32 4
v 7 -32 0
v 11.00009 -39 3.999962
v 11.00003 9.918213E-05 4
v 7 0 0
v 7 -2 0
v 11 -32 4
v 7 -32 0
v -20 0 0
v -1 -2 0
v -1 0 0
v -20 -2.75 0
v -20 -32 0
v 7 -32 0
v 7 -2 0
v 7 0 0
v 11.00003 9.918213E-05 4
v 7 0 2
v 7 0 4
v -1 0 2
v -3.25 0 4
v -20 0 0
v -1 0 0
v -20 4.959106E-05 4
vt -12.00009 -31.99999
vt -4.000094 0.0001109838
vt -4.000094 -31.99999
vt -12.00009 0.0001109838
vt -16 -32
vt -11.00007 9.918213E-05
vt -11.00007 -32
vt -16 9.918213E-05
vt 8 -32
vt 12 9.918213E-05
vt 12 -32
vt 8 9.918213E-05
vt -15.99997 6.999915
vt -11.00007 6.999915
vt 11.99995 6.999921
vt 8 6.999921
vt -4 7
vt -11.9999 7
vt 20 7
vt -11.00003 9.918213E-05
vt -11.00007 7
vt 20 4.959106E-05
vt -11.99983 15.00009
vt -3.999929 15.00009
vt -16.00008 14.99989
vt -11.00019 6.999891
vt -16.00008 6.999891
vt -11.00026 14.99989
vt -11.00014 14.99996
vt 20 6.999965
vt -11.00007 6.999965
vt 20 14.99996
vt -4.000056 -39.00014
vt -12.00009 -32.00014
vt -4.000094 -32.00014
vt -12.00003 -39.00014
vt -11.00014 -38.99988
vt -16 -31.99988
vt -11.00007 -31.99988
vt -16 -38.99988
vt -4.949746 -39.00007
vt -10.6066 -32.00007
vt -4.949748 -32.00007
vt -10.60664 -39.00007
vt -10.60664 0.0001008597
vt -4.949759 1.677585E-06
vt -4.949759 -1.999998
vt -10.60661 -32
vt -4.949759 -32
vt 20 0
vt 1 -2
vt 1 0
vt 20 -2.75
vt 20 -32
vt -7 -32
vt -7 -2
vt -7 0
vt -11.00003 4
vt -7 2
vt -7 4
vt 1 2
vt 3.25 4
vt 20 -1.497053E-10
vt 1 -7.485266E-12
vt 20 4
vn 1 -5.364402E-07 -6.437302E-06
vn 1 -5.364402E-07 -6.437302E-06
vn 1 -1.07288E-06 -8.583069E-06
vn 1 0 -4.291534E-06
vn 0 0 -1
vn 0 0 -1
vn 0 0 -1
vn 0 0 -1
vn -1 0 0
vn -1 0 0
vn -1 0 0
vn -1 0 0
vn 4.959209E-06 -1.062681E-05 -1
vn 9.918417E-06 -1.416908E-05 -1
vn -1 -4.90468E-06 0
vn -1 -4.90468E-06 0
vn 1 -2.45234E-06 -2.145767E-06
vn 1 0 0
vn 0 0 -1
vn 0 0 -1
vn 0 0 -1
vn 0 0 -1
vn 1 -8.583069E-06 0
vn 1 -8.583069E-06 0
vn 9.537002E-06 -8.821527E-06 -1
vn 9.537002E-06 -8.821527E-06 -1
vn 9.918417E-06 -9.059906E-06 -1
vn 9.155588E-06 -8.583147E-06 -1
vn 4.614533E-07 -1.060963E-05 -1
vn 4.614533E-07 -1.060963E-05 -1
vn 0 -8.821487E-06 -1
vn 9.229066E-07 -1.239777E-05 -1
vn 1 1.144414E-05 -7.152568E-06
vn 1 1.144414E-05 -7.152568E-06
vn 1 1.307901E-05 -8.583069E-06
vn 1 9.809278E-06 -5.722068E-06
vn -3.051842E-06 1.198905E-05 -1
vn -3.051842E-06 1.198905E-05 -1
vn 0 9.809221E-06 -1
vn -6.103683E-06 1.416888E-05 -1
vn 0.7071072 1.358333E-05 -0.7071064
vn 0.7071072 1.358333E-05 -0.7071064
vn 0.7071068 1.406501E-05 -0.7071068
vn 0.7071076 1.310165E-05 -0.7071059
vn 0.7071038 -3.793189E-07 -0.7071097
vn 0.7071037 0 -0.7071098
vn 0.7071049 -2.528793E-07 -0.7071087
vn 0.7071053 -3.793189E-07 -0.7071082
vn 0.7071068 0 -0.7071068
vn 0 0 -1
vn 0 0 -1
vn 0 0 -1
vn 0 0 -1
vn 0 0 -1
vn 0 0 -1
vn 0 0 -1
vn -2.479532E-05 1 0
vn -2.479532E-05 1 0
vn -2.479532E-05 1 0
vn -2.479532E-05 1 0
vn 0 1 0
vn 0 1 0
vn 6.52514E-07 1 -6.198883E-06
vn 0 1 0
vn 2.132844E-06 1 -4.533511E-06
g pb_Mesh372230_0
f 3/3/3 2/2/2 1/1/1
f 2/2/2 4/4/4 1/1/1
f 7/7/7 6/6/6 5/5/5
f 6/6/6 8/8/8 5/5/5
f 11/11/11 10/10/10 9/9/9
f 10/10/10 12/12/12 9/9/9
f 8/8/8 6/6/6 13/13/13
f 6/6/6 14/14/14 13/13/13
f 10/10/10 15/15/15 12/12/12
f 15/15/15 16/16/16 12/12/12
f 18/18/18 4/4/4 17/17/17
f 4/4/4 2/2/2 17/17/17
f 21/21/21 20/20/20 19/19/19
f 20/20/20 22/22/22 19/19/19
f 18/18/18 17/17/17 23/23/23
f 17/17/17 24/24/24 23/23/23
f 27/27/27 26/26/26 25/25/25
f 26/26/26 28/28/28 25/25/25
f 31/31/31 30/30/30 29/29/29
f 30/30/30 32/32/32 29/29/29
f 35/35/35 34/34/34 33/33/33
f 34/34/34 36/36/36 33/33/33
f 39/39/39 38/38/38 37/37/37
f 38/38/38 40/40/40 37/37/37
f 43/43/43 42/42/42 41/41/41
f 42/42/42 44/44/44 41/41/41
f 47/47/47 46/46/46 45/45/45
f 48/48/48 47/47/47 45/45/45
f 48/48/48 49/49/49 47/47/47
f 52/52/52 51/51/51 50/50/50
f 51/51/51 53/53/53 50/50/50
f 54/54/54 53/53/53 51/51/51
f 54/54/54 51/51/51 55/55/55
f 56/56/56 55/55/55 51/51/51
f 59/59/59 58/58/58 57/57/57
f 58/58/58 59/59/59 60/60/60
f 60/60/60 59/59/59 61/61/61
f 60/60/60 61/61/61 62/62/62
f 61/61/61 64/64/64 63/63/63
f 65/65/65 61/61/61 63/63/63
f 65/65/65 62/62/62 61/61/61
