g pb_Mesh-945514
v 0.6249999 1.974433E-07 0
v -5.999996 -3.226096E-06 0
v 0.9999989 2 0
v -5.999997 1.999997 0
v -5.999996 -3.226096E-06 -1
v -0.8750001 -5.625158E-07 -1
v -5.999997 1.499997 -1
v 0.9999991 1.5 -1
v 0.9999989 2 -0.5
v -5.999997 1.999997 -0.5
v 0.9999991 1.5 -1
v -5.999997 1.499997 -1
v -0.8750001 -5.625158E-07 -1
v -5.999996 -3.226096E-06 -1
v 0.6249999 1.974433E-07 0
v -5.999996 -3.226096E-06 0
v 0.9999989 2 0
v -5.999997 1.999997 0
v 0.9999989 2 -0.5
v -5.999997 1.999997 -0.5
v -5.999997 1.999997 0
v -5.999997 1.499997 -1
v -5.999997 1.999997 -0.5
v -5.999996 -3.226096E-06 0
v -5.999996 -3.226096E-06 -1
v 0.9999989 2 0
v 0.9999989 2 -0.5
v 0.6249999 1.974433E-07 0
v 0.9999991 1.5 -1
v -0.8750001 -5.625158E-07 -1
v 0.6249999 1.974433E-07 0
v 0.9999991 1.5 -1
v 0.6249999 1.974433E-07 0
v 0.9999989 2 -0.5
vt 0.6249999 1.974433E-07
vt -5.999996 -3.226096E-06
vt 0.9999989 2
vt -5.999997 1.999997
vt 5.999996 -3.226096E-06
vt 0.8750001 -5.625158E-07
vt 5.999997 1.499997
vt -0.9999991 1.5
vt -0.9999991 1.060661
vt 5.999997 1.060656
vt -0.9999996 0.3535542
vt 5.999997 0.3535491
vt -0.8750001 -1
vt -5.999996 -1
vt 0.6249999 2.500036E-15
vt -5.999996 2.114857E-15
vt -0.9999999 0
vt 5.999996 0
vt -0.9999999 -0.5
vt 5.999996 -0.5
vt -7.606341E-07 2
vt -1.000001 1.5
vt -0.5000008 2
vt -7.60634E-07 -1.835606E-07
vt -1.000001 -1.835607E-07
vt 0 2.150033
vt 0.5 2.150033
vt 0 0.1151802
vt -0.2773489 2.022846
vt 1.282744 0.1975428
vt -0.5200312 0.1975437
vt -0.2773489 2.022846
vt -0.5200312 0.1975437
vt -0.5546989 2.196685
vn 0 0 1
vn 0 0 1
vn 0 0 1
vn 0 0 1
vn 0 0 -1
vn 0 0 -1
vn 0 0 -1
vn 0 0 -1
vn -3.733008E-07 0.7071067 -0.7071069
vn -3.672799E-07 0.7071067 -0.7071068
vn -3.672799E-07 0.7071067 -0.7071068
vn -3.612589E-07 0.7071068 -0.7071068
vn 5.197234E-07 -1 -1.962601E-08
vn 5.182422E-07 -1 -9.813007E-09
vn 5.182422E-07 -1 -9.813007E-09
vn 5.16761E-07 -1 0
vn -5.279271E-07 1 0
vn -5.279271E-07 1 0
vn -5.279271E-07 1 0
vn -5.279271E-07 1 0
vn -1 -3.708734E-07 1.059638E-07
vn -1 -3.178914E-07 1.589457E-07
vn -1 0 0
vn -1 -4.768372E-07 0
vn -1 -5.563101E-07 1.589457E-07
vn 0.9828722 -0.184288 0
vn 0.9828722 -0.184288 0
vn 0.9828722 -0.184288 0
vn 0.7170373 -0.3582685 -0.2685143
vn 0.4558426 -0.5698026 -0.6837634
vn 0.7170373 -0.3582685 -0.2685143
vn 0.7170373 -0.3582685 -0.2685143
vn 0.7170373 -0.3582685 -0.2685143
vn 0.978232 -0.1467343 0.1467348
g pb_Mesh-945514_0
f 3/3/3 2/2/2 1/1/1
f 3/3/3 4/4/4 2/2/2
f 7/7/7 6/6/6 5/5/5
f 7/7/7 8/8/8 6/6/6
f 11/11/11 10/10/10 9/9/9
f 11/11/11 12/12/12 10/10/10
f 15/15/15 14/14/14 13/13/13
f 15/15/15 16/16/16 14/14/14
f 19/19/19 18/18/18 17/17/17
f 19/19/19 20/20/20 18/18/18
f 23/23/23 22/22/22 21/21/21
f 21/21/21 25/25/25 24/24/24
f 21/21/21 22/22/22 25/25/25
f 28/28/28 27/27/27 26/26/26
f 31/31/31 30/30/30 29/29/29
f 34/34/34 33/33/33 32/32/32
g pb_Mesh-945514_1
