g pb_Mesh374018
v 0 0 0
v 3 0 0
v 0 0.25 0
v 3 0.25 0
v 0 0.25 0
v 3 0.25 0
v 2.923141 0.25 0.7803613
v -0.01921475 0.25 0.1950903
v -0.01921475 0.25 0.1950903
v 2.923141 0.25 0.7803613
v -0.01921475 0.5 0.1950903
v 2.923141 0.5 0.7803613
v -0.01921475 0.5 0.1950903
v 2.923141 0.5 0.7803613
v 2.695518 0.5 1.530734
v -0.0761205 0.5 0.3826835
v -0.0761205 0.5 0.3826835
v 2.695518 0.5 1.530734
v -0.0761205 0.75 0.3826835
v 2.695518 0.75 1.530734
v -0.0761205 0.75 0.3826835
v 2.695518 0.75 1.530734
v 2.325878 0.75 2.222281
v -0.1685304 0.75 0.5555702
v -0.1685304 0.75 0.5555702
v 2.325878 0.75 2.222281
v -0.1685304 1 0.5555702
v 2.325878 1 2.222281
v -0.1685304 1 0.5555702
v 2.325878 1 2.222281
v 1.828427 1 2.828427
v -0.2928932 1 0.7071068
v -0.2928932 1 0.7071068
v 1.828427 1 2.828427
v -0.2928932 1.25 0.7071068
v 1.828427 1.25 2.828427
v -0.2928932 1.25 0.7071068
v 1.828427 1.25 2.828427
v 1.222281 1.25 3.325879
v -0.4444298 1.25 0.8314697
v -0.4444298 1.25 0.8314697
v 1.222281 1.25 3.325879
v -0.4444298 1.5 0.8314697
v 1.222281 1.5 3.325879
v -0.4444298 1.5 0.8314697
v 1.222281 1.5 3.325879
v 0.5307337 1.5 3.695518
v -0.6173166 1.5 0.9238795
v -0.6173166 1.5 0.9238795
v 0.5307337 1.5 3.695518
v -0.6173166 1.75 0.9238795
v 0.5307337 1.75 3.695518
v -0.6173166 1.75 0.9238795
v 0.5307337 1.75 3.695518
v -0.2196391 1.75 3.923141
v -0.8049098 1.75 0.9807853
v -0.8049098 1.75 0.9807853
v -0.2196391 1.75 3.923141
v -0.8049098 2 0.9807853
v -0.2196391 2 3.923141
v -0.8049098 2 0.9807853
v -0.2196391 2 3.923141
v -1 2 4
v -1 2 1
v -1 2 1
v -1 2 4
v -1 2.25 1
v -1 2.25 4
v -1 2.25 1
v -1 2.25 4
v -1.780361 2.25 3.923141
v -1.19509 2.25 0.9807853
v -1.19509 2.25 0.9807853
v -1.780361 2.25 3.923141
v -1.19509 2.5 0.9807853
v -1.780361 2.5 3.923141
v -1.19509 2.5 0.9807853
v -1.780361 2.5 3.923141
v -2.530734 2.5 3.695518
v -1.382684 2.5 0.9238795
v -1.382684 2.5 0.9238795
v -2.530734 2.5 3.695518
v -1.382684 2.75 0.9238795
v -2.530734 2.75 3.695518
v -1.382684 2.75 0.9238795
v -2.530734 2.75 3.695518
v -3.222281 2.75 3.325878
v -1.55557 2.75 0.8314695
v -1.55557 2.75 0.8314695
v -3.222281 2.75 3.325878
v -1.55557 3 0.8314695
v -3.222281 3 3.325878
v -1.55557 3 0.8314695
v -3.222281 3 3.325878
v -3.828427 3 2.828427
v -1.707107 3 0.7071068
v -1.707107 3 0.7071068
v -3.828427 3 2.828427
v -1.707107 3.25 0.7071068
v -3.828427 3.25 2.828427
v -1.707107 3.25 0.7071068
v -3.828427 3.25 2.828427
v -4.325879 3.25 2.222281
v -1.83147 3.25 0.5555702
v -1.83147 3.25 0.5555702
v -4.325879 3.25 2.222281
v -1.83147 3.5 0.5555702
v -4.325879 3.5 2.222281
v -1.83147 3.5 0.5555702
v -4.325879 3.5 2.222281
v -4.695518 3.5 1.530733
v -1.92388 3.5 0.3826833
v -1.92388 3.5 0.3826833
v -4.695518 3.5 1.530733
v -1.92388 3.75 0.3826833
v -4.695518 3.75 1.530733
v -1.92388 3.75 0.3826833
v -4.695518 3.75 1.530733
v -4.923141 3.75 0.7803612
v -1.980785 3.75 0.1950903
v -1.980785 3.75 0.1950903
v -4.923141 3.75 0.7803612
v -1.980785 4 0.1950903
v -4.923141 4 0.7803612
v -1.980785 4 0.1950903
v -4.923141 4 0.7803612
v -5 4 -3.496911E-07
v -2 4 -8.742278E-08
v -2 4 -8.742278E-08
v -5 4 -3.496911E-07
v -2 4.25 -8.742278E-08
v -5 4.25 -3.496911E-07
v -2 4.25 -8.742278E-08
v -5 4.25 -3.496911E-07
v -4.923141 4.25 -0.780362
v -1.980785 4.25 -0.1950905
v -1.980785 4.25 -0.1950905
v -4.923141 4.25 -0.780362
v -1.980785 4.5 -0.1950905
v -4.923141 4.5 -0.780362
v -1.980785 4.5 -0.1950905
v -4.923141 4.5 -0.780362
v -4.695518 4.5 -1.530734
v -1.92388 4.5 -0.3826834
v -1.92388 4.5 -0.3826834
v -4.695518 4.5 -1.530734
v -1.92388 4.75 -0.3826834
v -4.695518 4.75 -1.530734
v -1.92388 4.75 -0.3826834
v -4.695518 4.75 -1.530734
v -4.325878 4.75 -2.222281
v -1.83147 4.75 -0.5555703
v -1.83147 4.75 -0.5555703
v -4.325878 4.75 -2.222281
v -1.83147 5 -0.5555703
v -4.325878 5 -2.222281
v -1.83147 5 -0.5555703
v -4.325878 5 -2.222281
v -3.828427 5 -2.828428
v -1.707107 5 -0.7071069
v -1.707107 5 -0.7071069
v -3.828427 5 -2.828428
v -1.707107 5.25 -0.7071069
v -3.828427 5.25 -2.828428
v -1.707107 5.25 -0.7071069
v -3.828427 5.25 -2.828428
v -3.22228 5.25 -3.325879
v -1.55557 5.25 -0.8314698
v -1.55557 5.25 -0.8314698
v -3.22228 5.25 -3.325879
v -1.55557 5.5 -0.8314698
v -3.22228 5.5 -3.325879
v -1.55557 5.5 -0.8314698
v -3.22228 5.5 -3.325879
v -2.530733 5.5 -3.695519
v -1.382683 5.5 -0.9238797
v -1.382683 5.5 -0.9238797
v -2.530733 5.5 -3.695519
v -1.382683 5.75 -0.9238797
v -2.530733 5.75 -3.695519
v -1.382683 5.75 -0.9238797
v -2.530733 5.75 -3.695519
v -1.780362 5.75 -3.923141
v -1.19509 5.75 -0.9807853
v -1.19509 5.75 -0.9807853
v -1.780362 5.75 -3.923141
v -1.19509 6 -0.9807853
v -1.780362 6 -3.923141
v -1.19509 6 -0.9807853
v -1.780362 6 -3.923141
v -0.9999999 6 -4
v -1 6 -1
v -1 6 -1
v -0.9999999 6 -4
v -1 6.25 -1
v -0.9999999 6.25 -4
v -1 6.25 -1
v -0.9999999 6.25 -4
v -0.2196383 6.25 -3.923141
v -0.8049096 6.25 -0.9807853
v -0.8049096 6.25 -0.9807853
v -0.2196383 6.25 -3.923141
v -0.8049096 6.5 -0.9807853
v -0.2196383 6.5 -3.923141
v -0.8049096 6.5 -0.9807853
v -0.2196383 6.5 -3.923141
v 0.5307344 6.5 -3.695518
v -0.6173164 6.5 -0.9238794
v -0.6173164 6.5 -0.9238794
v 0.5307344 6.5 -3.695518
v -0.6173164 6.75 -0.9238794
v 0.5307344 6.75 -3.695518
v -0.6173164 6.75 -0.9238794
v 0.5307344 6.75 -3.695518
v 1.222282 6.75 -3.325878
v -0.4444296 6.75 -0.8314695
v -0.4444296 6.75 -0.8314695
v 1.222282 6.75 -3.325878
v -0.4444296 7 -0.8314695
v 1.222282 7 -3.325878
v -0.4444296 7 -0.8314695
v 1.222282 7 -3.325878
v 1.828428 7 -2.828426
v -0.292893 7 -0.7071065
v -0.292893 7 -0.7071065
v 1.828428 7 -2.828426
v -0.292893 7.25 -0.7071065
v 1.828428 7.25 -2.828426
v -0.292893 7.25 -0.7071065
v 1.828428 7.25 -2.828426
v 2.325878 7.25 -2.222281
v -0.1685304 7.25 -0.5555703
v -0.1685304 7.25 -0.5555703
v 2.325878 7.25 -2.222281
v -0.1685304 7.5 -0.5555703
v 2.325878 7.5 -2.222281
v -0.1685304 7.5 -0.5555703
v 2.325878 7.5 -2.222281
v 2.695518 7.5 -1.530734
v -0.07612044 7.5 -0.3826834
v -0.07612044 7.5 -0.3826834
v 2.695518 7.5 -1.530734
v -0.07612044 7.75 -0.3826834
v 2.695518 7.75 -1.530734
v -0.07612044 7.75 -0.3826834
v 2.695518 7.75 -1.530734
v 2.923141 7.75 -0.7803609
v -0.01921469 7.75 -0.1950902
v -0.01921469 7.75 -0.1950902
v 2.923141 7.75 -0.7803609
v -0.01921469 8 -0.1950902
v 2.923141 8 -0.7803609
v -0.01921469 8 -0.1950902
v 2.923141 8 -0.7803609
v 3 8 6.993822E-07
v 0 8 1.748456E-07
vt 0 0
vt -3 0
vt 0 0.25
vt -3 0.25
vt 0.03106773 0.147963
vt -2.954486 -0.1460887
vt -2.954486 0.6380484
vt 0.03106773 0.3439973
vt -0.0192147 0.25
vt -3.019215 0.25
vt -0.0192147 0.5
vt -3.019215 0.5
vt 0.15095 0.6426477
vt -2.834604 0.3485959
vt -2.834604 1.132733
vt 0.15095 0.8386821
vt -0.07612046 0.5
vt -3.076121 0.5
vt -0.07612046 0.75
vt -3.076121 0.75
vt 0.3515307 1.122782
vt -2.634023 0.8287302
vt -2.634024 1.612867
vt 0.3515307 1.318817
vt -0.1685304 0.75
vt -3.16853 0.75
vt -0.1685304 1
vt -3.16853 1
vt 0.6204852 1.565298
vt -2.365069 1.271247
vt -2.365069 2.055384
vt 0.6204852 1.761332
vt -0.2928932 1
vt -3.292893 1
vt -0.2928932 1.25
vt -3.292893 1.25
vt 0.9449791 1.947159
vt -2.040575 1.653107
vt -2.040575 2.437245
vt 0.9449791 2.143193
vt -0.4444298 1.25
vt -3.44443 1.25
vt -0.4444298 1.5
vt -3.44443 1.5
vt 1.312542 2.24716
vt -1.673012 1.953108
vt -1.673012 2.737245
vt 1.312542 2.443194
vt -0.6173165 1.5
vt -3.617316 1.5
vt -0.6173165 1.75
vt -3.617316 1.75
vt 1.711548 2.447741
vt -1.274006 2.153689
vt -1.274006 2.937826
vt 1.711548 2.643775
vt -0.8049098 1.75
vt -3.80491 1.75
vt -0.8049098 2
vt -3.80491 2
vt 2.13128 2.536576
vt -0.8542742 2.242525
vt -0.8542742 3.026661
vt 2.13128 2.73261
vt -1 2
vt -4 2
vt -1 2.25
vt -4 2.25
vt 2.911641 2.248175
vt -0.0739131 1.954123
vt -0.0739131 2.73826
vt 2.911641 2.44421
vt -1.19509 2.25
vt -4.19509 2.25
vt -1.19509 2.5
vt -4.19509 2.5
vt 3.437372 2.203245
vt 0.4518183 1.909194
vt 0.4518183 2.693332
vt 3.437372 2.39928
vt -1.382684 2.5
vt -4.382684 2.5
vt -1.382684 2.75
vt -4.382684 2.75
vt 3.917507 2.083793
vt 0.931953 1.789742
vt 0.9319531 2.573879
vt 3.917507 2.279827
vt -1.55557 2.75
vt -4.555571 2.75
vt -1.55557 3
vt -4.555571 3
vt 4.328976 1.889792
vt 1.343422 1.595741
vt 1.343422 2.379877
vt 4.328976 2.085826
vt -1.707107 3
vt -4.707107 3
vt -1.707107 3.25
vt -4.707107 3.25
vt 4.653471 1.622665
vt 1.667917 1.328613
vt 1.667916 2.11275
vt 4.653471 1.818699
vt -1.83147 3.25
vt -4.83147 3.25
vt -1.83147 3.5
vt -4.83147 3.5
vt 4.878519 1.286148
vt 1.892964 0.9920963
vt 1.892964 1.776234
vt 4.878519 1.482183
vt -1.92388 3.5
vt -4.92388 3.5
vt -1.92388 3.75
vt -4.92388 3.75
vt 4.997971 0.8871418
vt 2.012416 0.5930908
vt 2.012416 1.377227
vt 4.997971 1.083176
vt -1.980785 3.75
vt -4.980786 3.75
vt -1.980785 4
vt -4.980786 4
vt 5.011853 0.4363639
vt 2.026299 0.1423123
vt 2.026299 0.9264497
vt 5.011853 0.6323982
vt -2 4
vt -5 4
vt -2 4.25
vt -5 4.25
vt 5.011853 -0.6323988
vt 2.026299 -0.9264505
vt 2.026299 -0.142313
vt 5.011853 -0.4363644
vt -1.980785 4.25
vt -4.980785 4.25
vt -1.980785 4.5
vt -4.980785 4.5
vt 4.997971 -1.083177
vt 2.012416 -1.377228
vt 2.012416 -0.5930911
vt 4.997971 -0.8871424
vt -1.92388 4.5
vt -4.92388 4.5
vt -1.92388 4.75
vt -4.92388 4.75
vt 4.878518 -1.482183
vt 1.892964 -1.776234
vt 1.892964 -0.9920969
vt 4.878518 -1.286148
vt -1.83147 4.75
vt -4.83147 4.75
vt -1.83147 5
vt -4.83147 5
vt 4.65347 -1.818699
vt 1.667916 -2.112751
vt 1.667916 -1.328614
vt 4.65347 -1.622665
vt -1.707107 5
vt -4.707107 5
vt -1.707107 5.25
vt -4.707107 5.25
vt 4.328976 -2.085827
vt 1.343422 -2.379879
vt 1.343422 -1.595741
vt 4.328976 -1.889793
vt -1.55557 5.25
vt -4.55557 5.25
vt -1.55557 5.5
vt -4.55557 5.5
vt 3.917506 -2.279828
vt 0.931952 -2.57388
vt 0.9319519 -1.789742
vt 3.917506 -2.083794
vt -1.382683 5.5
vt -4.382683 5.5
vt -1.382683 5.75
vt -4.382683 5.75
vt 3.437371 -2.39928
vt 0.4518172 -2.693331
vt 0.4518172 -1.909196
vt 3.437371 -2.203246
vt -1.19509 5.75
vt -4.19509 5.75
vt -1.19509 6
vt -4.19509 6
vt 2.911641 -2.444209
vt -0.07391298 -2.738261
vt -0.07391298 -1.954123
vt 2.911641 -2.248175
vt -1 6
vt -4 6
vt -1 6.25
vt -4 6.25
vt 2.131279 -2.732611
vt -0.8542745 -3.026662
vt -0.8542745 -2.242525
vt 2.131279 -2.536576
vt -0.8049096 6.25
vt -3.80491 6.25
vt -0.8049096 6.5
vt -3.80491 6.5
vt 1.711548 -2.643775
vt -1.274006 -2.937826
vt -1.274006 -2.153689
vt 1.711548 -2.447741
vt -0.6173164 6.5
vt -3.617316 6.5
vt -0.6173164 6.75
vt -3.617316 6.75
vt 1.312542 -2.443193
vt -1.673012 -2.737246
vt -1.673012 -1.953108
vt 1.312542 -2.247159
vt -0.4444296 6.75
vt -3.44443 6.75
vt -0.4444296 7
vt -3.44443 7
vt 0.9449786 -2.143192
vt -2.040576 -2.437244
vt -2.040576 -1.653107
vt 0.9449785 -1.947158
vt -0.292893 7
vt -3.292893 7
vt -0.292893 7.25
vt -3.292893 7.25
vt 0.6204849 -1.761332
vt -2.365069 -2.055383
vt -2.365069 -1.271247
vt 0.6204847 -1.565298
vt -0.1685304 7.25
vt -3.168531 7.25
vt -0.1685304 7.5
vt -3.168531 7.5
vt 0.3515307 -1.318816
vt -2.634024 -1.612868
vt -2.634024 -0.8287305
vt 0.3515308 -1.122782
vt -0.07612049 7.5
vt -3.076121 7.5
vt -0.07612049 7.75
vt -3.076121 7.75
vt 0.1509498 -0.8386818
vt -2.834605 -1.132733
vt -2.834604 -0.3485957
vt 0.15095 -0.6426474
vt -0.01921471 7.75
vt -3.019215 7.75
vt -0.01921471 8
vt -3.019215 8
vt 0.03106761 -0.343997
vt -2.954487 -0.6380482
vt -2.954486 0.1460893
vt 0.03106773 -0.1479627
vn 0 0 -1
vn 0 0 -1
vn 0 0 -1
vn 0 0 -1
vn 0 0.9999999 0
vn 0 1 0
vn 0 0.9999999 0
vn 0 1 0
vn 0.1950904 0 -0.9807853
vn 0.1950904 0 -0.9807853
vn 0.1950904 0 -0.9807853
vn 0.1950904 0 -0.9807853
vn 0 0.9999999 0
vn 0 1 0
vn 0 0.9999999 0
vn 0 1 0
vn 0.3826835 0 -0.9238796
vn 0.3826835 0 -0.9238796
vn 0.3826835 0 -0.9238796
vn 0.3826835 0 -0.9238796
vn 0 1 0
vn 0 1 0
vn 0 1 0
vn 0 1 0
vn 0.5555702 0 -0.8314697
vn 0.5555702 0 -0.8314697
vn 0.5555702 0 -0.8314697
vn 0.5555702 0 -0.8314697
vn 0 1 0
vn 0 1 0
vn 0 1 0
vn 0 1 0
vn 0.7071068 0 -0.7071068
vn 0.7071068 0 -0.7071068
vn 0.7071068 0 -0.7071068
vn 0.7071068 0 -0.7071068
vn 0 1 0
vn 0 1 0
vn 0 1 0
vn 0 1 0
vn 0.8314697 0 -0.5555702
vn 0.8314697 0 -0.5555702
vn 0.8314697 0 -0.5555702
vn 0.8314697 0 -0.5555702
vn 0 1 0
vn 0 1 0
vn 0 1 0
vn 0 1 0
vn 0.9238796 0 -0.3826835
vn 0.9238796 0 -0.3826835
vn 0.9238796 0 -0.3826835
vn 0.9238796 0 -0.3826835
vn 0 1 0
vn 0 1 0
vn 0 1 0
vn 0 1 0
vn 0.9807853 0 -0.1950902
vn 0.9807853 0 -0.1950902
vn 0.9807853 0 -0.1950902
vn 0.9807853 0 -0.1950902
vn 0 1 0
vn 0 1 0
vn 0 1 0
vn 0 0.9999999 0
vn 1 0 3.973643E-08
vn 1 0 3.973643E-08
vn 1 0 3.973643E-08
vn 1 0 3.973643E-08
vn 0 1 0
vn 0 1 0
vn 0 1 0
vn 0 1 0
vn 0.9807853 0 0.1950904
vn 0.9807853 0 0.1950904
vn 0.9807853 0 0.1950904
vn 0.9807853 0 0.1950904
vn 0 1 0
vn 0 1 0
vn 0 1 0
vn 0 1 0
vn 0.9238796 0 0.3826836
vn 0.9238796 0 0.3826836
vn 0.9238796 0 0.3826836
vn 0.9238796 0 0.3826836
vn 0 1 0
vn 0 1 0
vn 0 1 0
vn 0 1 0
vn 0.8314695 0 0.5555704
vn 0.8314695 0 0.5555704
vn 0.8314695 0 0.5555704
vn 0.8314695 0 0.5555704
vn 0 1 0
vn 0 1 0
vn 0 1 0
vn 0 1 0
vn 0.7071068 0 0.7071068
vn 0.7071068 0 0.7071068
vn 0.7071068 0 0.7071068
vn 0.7071068 0 0.7071068
vn 0 1 0
vn 0 1 0
vn 0 1 0
vn 0 1 0
vn 0.5555702 0 0.8314697
vn 0.5555702 0 0.8314697
vn 0.5555702 0 0.8314697
vn 0.5555702 0 0.8314697
vn 0 1 0
vn 0 1 0
vn 0 1 0
vn 0 1 0
vn 0.3826833 0 0.9238796
vn 0.3826833 0 0.9238796
vn 0.3826833 0 0.9238796
vn 0.3826833 0 0.9238796
vn 0 1 0
vn 0 1 0
vn 0 1 0
vn 0 1 0
vn 0.1950903 0 0.9807853
vn 0.1950903 0 0.9807853
vn 0.1950903 0 0.9807853
vn 0.1950903 0 0.9807853
vn 0 1 0
vn 0 1 0
vn 0 1 0
vn 0 1 0
vn -8.742278E-08 0 1
vn -8.742278E-08 0 1
vn -8.742278E-08 0 1
vn -8.742278E-08 0 1
vn 0 1 0
vn 0 1 0
vn 0 1 0
vn 0 1 0
vn -0.1950905 0 0.9807853
vn -0.1950905 0 0.9807853
vn -0.1950905 0 0.9807853
vn -0.1950905 0 0.9807853
vn 0 1 0
vn 0 1 0
vn 0 1 0
vn 0 1 0
vn -0.3826835 0 0.9238796
vn -0.3826835 0 0.9238796
vn -0.3826835 0 0.9238796
vn -0.3826835 0 0.9238796
vn 0 1 0
vn 0 1 0
vn 0 1 0
vn 0 1 0
vn -0.5555703 0 0.8314695
vn -0.5555703 0 0.8314695
vn -0.5555703 0 0.8314695
vn -0.5555703 0 0.8314695
vn 0 1 0
vn 0 1 0
vn 0 1 0
vn 0 1 0
vn -0.7071069 0 0.7071067
vn -0.7071069 0 0.7071067
vn -0.7071069 0 0.7071067
vn -0.7071069 0 0.7071067
vn 0 1 0
vn 0 1 0
vn 0 1 0
vn 0 1 0
vn -0.8314698 0 0.55557
vn -0.8314698 0 0.55557
vn -0.8314698 0 0.55557
vn -0.8314698 0 0.55557
vn 0 1 0
vn 0 1 0
vn 0 1 0
vn 0 1 0
vn -0.9238796 0 0.3826831
vn -0.9238796 0 0.3826831
vn -0.9238796 0 0.3826831
vn -0.9238796 0 0.3826831
vn 0 1 0
vn 0 0.9999999 0
vn 0 1 0
vn 0 1 0
vn -0.9807853 0 0.1950904
vn -0.9807853 0 0.1950904
vn -0.9807853 0 0.1950904
vn -0.9807853 0 0.1950904
vn 0 1 0
vn 0 1 0
vn 0 1 0
vn 0 1 0
vn -1 0 -1.986822E-08
vn -1 0 -1.986822E-08
vn -1 0 -1.986822E-08
vn -1 0 -1.986822E-08
vn 0 1 0
vn 0 1 0
vn 0 1 0
vn 0 1 0
vn -0.9807853 0 -0.1950904
vn -0.9807853 0 -0.1950904
vn -0.9807853 0 -0.1950904
vn -0.9807853 0 -0.1950904
vn 0 1 0
vn 0 1 0
vn 0 1 0
vn 0 1 0
vn -0.9238795 0 -0.3826836
vn -0.9238795 0 -0.3826836
vn -0.9238795 0 -0.3826836
vn -0.9238795 0 -0.3826836
vn 0 1 0
vn 0 1 0
vn 0 1 0
vn 0 1 0
vn -0.8314695 0 -0.5555705
vn -0.8314695 0 -0.5555705
vn -0.8314695 0 -0.5555705
vn -0.8314695 0 -0.5555705
vn 0 1 0
vn 0 1 0
vn 0 1 0
vn 0 1 0
vn -0.7071065 0 -0.707107
vn -0.7071065 0 -0.707107
vn -0.7071065 0 -0.707107
vn -0.7071065 0 -0.707107
vn 0 1 0
vn 0 1 0
vn 0 1 0
vn 0 1 0
vn -0.5555703 0 -0.8314697
vn -0.5555703 0 -0.8314697
vn -0.5555703 0 -0.8314697
vn -0.5555703 0 -0.8314697
vn 0 1 0
vn 0 1 0
vn 0 1 0
vn 0 1 0
vn -0.3826835 0 -0.9238796
vn -0.3826835 0 -0.9238796
vn -0.3826835 0 -0.9238796
vn -0.3826835 0 -0.9238796
vn 0 1 0
vn 0 1 0
vn 0 1 0
vn 0 1 0
vn -0.1950902 0 -0.9807853
vn -0.1950902 0 -0.9807853
vn -0.1950902 0 -0.9807853
vn -0.1950902 0 -0.9807853
vn 0 1 0
vn 0 1 0
vn 0 1 0
vn 0 1 0
g pb_Mesh374018_0
f 3/3/3 2/2/2 1/1/1
f 3/3/3 4/4/4 2/2/2
f 7/7/7 6/6/6 5/5/5
f 8/8/8 7/7/7 5/5/5
f 11/11/11 10/10/10 9/9/9
f 11/11/11 12/12/12 10/10/10
f 15/15/15 14/14/14 13/13/13
f 16/16/16 15/15/15 13/13/13
f 19/19/19 18/18/18 17/17/17
f 19/19/19 20/20/20 18/18/18
f 23/23/23 22/22/22 21/21/21
f 24/24/24 23/23/23 21/21/21
f 27/27/27 26/26/26 25/25/25
f 27/27/27 28/28/28 26/26/26
f 31/31/31 30/30/30 29/29/29
f 32/32/32 31/31/31 29/29/29
f 35/35/35 34/34/34 33/33/33
f 35/35/35 36/36/36 34/34/34
f 39/39/39 38/38/38 37/37/37
f 40/40/40 39/39/39 37/37/37
f 43/43/43 42/42/42 41/41/41
f 43/43/43 44/44/44 42/42/42
f 47/47/47 46/46/46 45/45/45
f 48/48/48 47/47/47 45/45/45
f 51/51/51 50/50/50 49/49/49
f 51/51/51 52/52/52 50/50/50
f 55/55/55 54/54/54 53/53/53
f 56/56/56 55/55/55 53/53/53
f 59/59/59 58/58/58 57/57/57
f 59/59/59 60/60/60 58/58/58
f 63/63/63 62/62/62 61/61/61
f 64/64/64 63/63/63 61/61/61
f 67/67/67 66/66/66 65/65/65
f 67/67/67 68/68/68 66/66/66
f 71/71/71 70/70/70 69/69/69
f 72/72/72 71/71/71 69/69/69
f 75/75/75 74/74/74 73/73/73
f 75/75/75 76/76/76 74/74/74
f 79/79/79 78/78/78 77/77/77
f 80/80/80 79/79/79 77/77/77
f 83/83/83 82/82/82 81/81/81
f 83/83/83 84/84/84 82/82/82
f 87/87/87 86/86/86 85/85/85
f 88/88/88 87/87/87 85/85/85
f 91/91/91 90/90/90 89/89/89
f 91/91/91 92/92/92 90/90/90
f 95/95/95 94/94/94 93/93/93
f 96/96/96 95/95/95 93/93/93
f 99/99/99 98/98/98 97/97/97
f 99/99/99 100/100/100 98/98/98
f 103/103/103 102/102/102 101/101/101
f 104/104/104 103/103/103 101/101/101
f 107/107/107 106/106/106 105/105/105
f 107/107/107 108/108/108 106/106/106
f 111/111/111 110/110/110 109/109/109
f 112/112/112 111/111/111 109/109/109
f 115/115/115 114/114/114 113/113/113
f 115/115/115 116/116/116 114/114/114
f 119/119/119 118/118/118 117/117/117
f 120/120/120 119/119/119 117/117/117
f 123/123/123 122/122/122 121/121/121
f 123/123/123 124/124/124 122/122/122
f 127/127/127 126/126/126 125/125/125
f 128/128/128 127/127/127 125/125/125
f 131/131/131 130/130/130 129/129/129
f 131/131/131 132/132/132 130/130/130
f 135/135/135 134/134/134 133/133/133
f 136/136/136 135/135/135 133/133/133
f 139/139/139 138/138/138 137/137/137
f 139/139/139 140/140/140 138/138/138
f 143/143/143 142/142/142 141/141/141
f 144/144/144 143/143/143 141/141/141
f 147/147/147 146/146/146 145/145/145
f 147/147/147 148/148/148 146/146/146
f 151/151/151 150/150/150 149/149/149
f 152/152/152 151/151/151 149/149/149
f 155/155/155 154/154/154 153/153/153
f 155/155/155 156/156/156 154/154/154
f 159/159/159 158/158/158 157/157/157
f 160/160/160 159/159/159 157/157/157
f 163/163/163 162/162/162 161/161/161
f 163/163/163 164/164/164 162/162/162
f 167/167/167 166/166/166 165/165/165
f 168/168/168 167/167/167 165/165/165
f 171/171/171 170/170/170 169/169/169
f 171/171/171 172/172/172 170/170/170
f 175/175/175 174/174/174 173/173/173
f 176/176/176 175/175/175 173/173/173
f 179/179/179 178/178/178 177/177/177
f 179/179/179 180/180/180 178/178/178
f 183/183/183 182/182/182 181/181/181
f 184/184/184 183/183/183 181/181/181
f 187/187/187 186/186/186 185/185/185
f 187/187/187 188/188/188 186/186/186
f 191/191/191 190/190/190 189/189/189
f 192/192/192 191/191/191 189/189/189
f 195/195/195 194/194/194 193/193/193
f 195/195/195 196/196/196 194/194/194
f 199/199/199 198/198/198 197/197/197
f 200/200/200 199/199/199 197/197/197
f 203/203/203 202/202/202 201/201/201
f 203/203/203 204/204/204 202/202/202
f 207/207/207 206/206/206 205/205/205
f 208/208/208 207/207/207 205/205/205
f 211/211/211 210/210/210 209/209/209
f 211/211/211 212/212/212 210/210/210
f 215/215/215 214/214/214 213/213/213
f 216/216/216 215/215/215 213/213/213
f 219/219/219 218/218/218 217/217/217
f 219/219/219 220/220/220 218/218/218
f 223/223/223 222/222/222 221/221/221
f 224/224/224 223/223/223 221/221/221
f 227/227/227 226/226/226 225/225/225
f 227/227/227 228/228/228 226/226/226
f 231/231/231 230/230/230 229/229/229
f 232/232/232 231/231/231 229/229/229
f 235/235/235 234/234/234 233/233/233
f 235/235/235 236/236/236 234/234/234
f 239/239/239 238/238/238 237/237/237
f 240/240/240 239/239/239 237/237/237
f 243/243/243 242/242/242 241/241/241
f 243/243/243 244/244/244 242/242/242
f 247/247/247 246/246/246 245/245/245
f 248/248/248 247/247/247 245/245/245
f 251/251/251 250/250/250 249/249/249
f 251/251/251 252/252/252 250/250/250
f 255/255/255 254/254/254 253/253/253
f 256/256/256 255/255/255 253/253/253
