g pb_Mesh564324
v 0 0 0
v -8 0 0
v 0 2 0
v -8 2 0
v -8 0 0
v -8 0 -8
v -8 2 0
v -8 2 -8
v -8 0 -28
v 0 0 -28
v -8 2 -28
v 0 2 -28
v 0 0 -8
v 0 0 0
v 0 2 -8
v 0 2 0
v 0 2 0
v -8 2 0
v 0 2 -8
v -8 2 -8
v 0 0 -8
v -8 0 -8
v 0 0 0
v -8 0 0
v -8 0 -24
v 0 0 -24
v -8 2 -24
v -8 0 -24
v 0 0 -24
v 0 2 -24
v 0 2 -24
v -8 2 -24
v -8 0 -28
v 0 0 -28
v -32 2 -24
v -32 0 -24
v -32 2 -28
v -32 0 -28
v 0 0 -28
v 0 2 -28
v 0 2 -28
v -8 2 -28
v -8 2 -24
v -8 0 -24
v -32 2 -24
v -32 0 -24
v -32 2 -28
v -32 2 -24
v -32 0 -24
v -32 0 -28
v -8 0 -40
v -8 2 -40
v -32 0 -40
v -32 2 -40
v -8 0 -28
v -8 2 -28
v -8 0 -32
v -8 2 -32
v -32 0 -32
v -8 0 -32
v -8 2 -32
v -32 2 -32
v -48 2 -28
v -48 0 -28
v -48 2 -32
v -48 0 -32
v -8 0 -40
v -8 2 -40
v -32 0 -40
v -8 0 -40
v -8 2 -40
v -32 2 -40
v -48 2 -40
v -48 0 -40
v -32 2 -28
v -32 0 -28
v -44 2 -28
v -44 0 -28
v -44 2 -32
v -44 2 -28
v -44 0 -28
v -44 0 -32
v -44 2 -40
v -44 0 -40
v -44 0 -40
v -44 2 -40
v -44 2 -24
v -44 0 -24
v -48 2 -24
v -48 0 -24
v -48 2 -32
v -48 2 -28
v -48 0 -28
v -48 0 -32
v -48 2 -40
v -48 0 -40
v -48 0 -40
v -48 2 -40
v -44 2 -28
v -44 0 -28
v -44 2 -24
v -44 0 -24
v -48 2 -24
v -44 2 -24
v -44 0 -24
v -48 0 -24
v -48 0 -24
v -48 2 -24
vt 0 0
vt -8 0
vt 0 2
vt -8 2
vt 0 0
vt -8 0
vt 0 2
vt -8 2
vt 8 0
vt 0 0
vt 8 2
vt 0 2
vt 8 0
vt 0 0
vt 8 2
vt 0 2
vt 0 0
vt 8 0
vt 0 -8
vt 8 -8
vt 0 -8
vt -8 -8
vt 0 0
vt -8 0
vt -8 -24
vt 0 -24
vt -24 2
vt -24 0
vt 24 0
vt 24 2
vt 0 -24
vt 8 -24
vt -8 -28
vt 0 -28
vt -24 2
vt -24 0
vt -28 2
vt -28 0
vt 28 0
vt 28 2
vt 0 -28
vt 8 -28
vt -8 2
vt -8 0
vt -32 2
vt -32 0
vt 32 -28
vt 32 -24
vt -32 -24
vt -32 -28
vt 8 0
vt 8 2
vt 32 0
vt 32 2
vt 28 0
vt 28 2
vt 32 0
vt 32 2
vt -32 -32
vt -8 -32
vt 8 -32
vt 32 -32
vt -28 2
vt -28 0
vt -32 2
vt -32 0
vt 40 0
vt 40 2
vt -32 -40
vt -8 -40
vt 8 -40
vt 32 -40
vt -40 2
vt -40 0
vt -32 2
vt -32 0
vt -44 2
vt -44 0
vt 44 -32
vt 44 -28
vt -44 -28
vt -44 -32
vt 44 -40
vt -44 -40
vt 44 0
vt 44 2
vt -44 2
vt -44 0
vt -48 2
vt -48 0
vt 48 -32
vt 48 -28
vt -48 -28
vt -48 -32
vt 48 -40
vt -48 -40
vt 48 0
vt 48 2
vt 28 2
vt 28 0
vt 24 2
vt 24 0
vt 48 -24
vt 44 -24
vt -44 -24
vt -48 -24
vt -24 0
vt -24 2
vn 0 0 1
vn 0 0 1
vn 0 0 1
vn 0 0 1
vn -1 0 0
vn -1 0 0
vn -1 0 0
vn -1 0 0
vn 0 0 -1
vn 0 0 -1
vn 0 0 -1
vn 0 0 -1
vn 1 0 0
vn 1 0 0
vn 1 0 0
vn 1 0 0
vn 0 1 0
vn 0 1 0
vn 0 1 0
vn 0 1 0
vn 0 -1 0
vn 0 -1 0
vn 0 -1 0
vn 0 -1 0
vn 0 -1 0
vn 0 -1 0
vn -1 0 0
vn -1 0 0
vn 1 0 0
vn 1 0 0
vn 0 1 0
vn 0 1 0
vn 0 -1 0
vn 0 -1 0
vn -1 0 0
vn -1 0 0
vn -1 0 0
vn -1 0 0
vn 1 0 0
vn 1 0 0
vn 0 1 0
vn 0 1 0
vn 0 0 1
vn 0 0 1
vn 0 0 1
vn 0 0 1
vn 0 1 0
vn 0 1 0
vn 0 -1 0
vn 0 -1 0
vn 0 0 -1
vn 0 0 -1
vn 0 0 -1
vn 0 0 -1
vn 1 0 0
vn 1 0 0
vn 1 0 0
vn 1 0 0
vn 0 -1 0
vn 0 -1 0
vn 0 1 0
vn 0 1 0
vn -1 0 0
vn -1 0 0
vn -1 0 0
vn -1 0 0
vn 1 0 0
vn 1 0 0
vn 0 -1 0
vn 0 -1 0
vn 0 1 0
vn 0 1 0
vn -1 0 0
vn -1 0 0
vn 0 0 1
vn 0 0 1
vn 0 0 1
vn 0 0 1
vn 0 1 0
vn 0 1 0
vn 0 -1 0
vn 0 -1 0
vn 0 1 0
vn 0 -1 0
vn 0 0 -1
vn 0 0 -1
vn 0 0 1
vn 0 0 1
vn 0 0 1
vn 0 0 1
vn 0 1 0
vn 0 1 0
vn 0 -1 0
vn 0 -1 0
vn 0 1 0
vn 0 -1 0
vn 0 0 -1
vn 0 0 -1
vn 1 0 0
vn 1 0 0
vn 1 0 0
vn 1 0 0
vn 0 1 0
vn 0 1 0
vn 0 -1 0
vn 0 -1 0
vn -1 0 0
vn -1 0 0
g pb_Mesh564324_0
f 3/3/3 2/2/2 1/1/1
f 3/3/3 4/4/4 2/2/2
f 7/7/7 6/6/6 5/5/5
f 7/7/7 8/8/8 6/6/6
f 11/11/11 10/10/10 9/9/9
f 11/11/11 12/12/12 10/10/10
f 15/15/15 14/14/14 13/13/13
f 15/15/15 16/16/16 14/14/14
f 19/19/19 18/18/18 17/17/17
f 19/19/19 20/20/20 18/18/18
f 23/23/23 22/22/22 21/21/21
f 23/23/23 24/24/24 22/22/22
f 25/25/25 21/21/21 22/22/22
f 25/25/25 26/26/26 21/21/21
f 27/27/27 6/6/6 8/8/8
f 27/27/27 28/28/28 6/6/6
f 29/29/29 15/15/15 13/13/13
f 29/29/29 30/30/30 15/15/15
f 31/31/31 20/20/20 19/19/19
f 31/31/31 32/32/32 20/20/20
f 33/33/33 26/26/26 25/25/25
f 33/33/33 34/34/34 26/26/26
f 37/37/37 36/36/36 35/35/35
f 37/37/37 38/38/38 36/36/36
f 39/39/39 30/30/30 29/29/29
f 39/39/39 40/40/40 30/30/30
f 41/41/41 32/32/32 31/31/31
f 41/41/41 42/42/42 32/32/32
f 45/45/45 44/44/44 43/43/43
f 45/45/45 46/46/46 44/44/44
f 47/47/47 32/32/32 42/42/42
f 47/47/47 48/48/48 32/32/32
f 49/49/49 33/33/33 25/25/25
f 49/49/49 50/50/50 33/33/33
f 53/53/53 52/52/52 51/51/51
f 53/53/53 54/54/54 52/52/52
f 57/57/57 56/56/56 55/55/55
f 57/57/57 58/58/58 56/56/56
f 59/59/59 33/33/33 50/50/50
f 59/59/59 60/60/60 33/33/33
f 61/61/61 47/47/47 42/42/42
f 61/61/61 62/62/62 47/47/47
f 65/65/65 64/64/64 63/63/63
f 65/65/65 66/66/66 64/64/64
f 67/67/67 58/58/58 57/57/57
f 67/67/67 68/68/68 58/58/58
f 69/69/69 60/60/60 59/59/59
f 69/69/69 70/70/70 60/60/60
f 71/71/71 62/62/62 61/61/61
f 71/71/71 72/72/72 62/62/62
f 73/73/73 66/66/66 65/65/65
f 73/73/73 74/74/74 66/66/66
f 77/77/77 76/76/76 75/75/75
f 77/77/77 78/78/78 76/76/76
f 79/79/79 47/47/47 62/62/62
f 79/79/79 80/80/80 47/47/47
f 81/81/81 59/59/59 50/50/50
f 81/81/81 82/82/82 59/59/59
f 83/83/83 62/62/62 72/72/72
f 83/83/83 79/79/79 62/62/62
f 82/82/82 69/69/69 59/59/59
f 82/82/82 84/84/84 69/69/69
f 85/85/85 54/54/54 53/53/53
f 85/85/85 86/86/86 54/54/54
f 89/89/89 88/88/88 87/87/87
f 89/89/89 90/90/90 88/88/88
f 91/91/91 80/80/80 79/79/79
f 91/91/91 92/92/92 80/80/80
f 93/93/93 82/82/82 81/81/81
f 93/93/93 94/94/94 82/82/82
f 95/95/95 79/79/79 83/83/83
f 95/95/95 91/91/91 79/79/79
f 94/94/94 84/84/84 82/82/82
f 94/94/94 96/96/96 84/84/84
f 97/97/97 86/86/86 85/85/85
f 97/97/97 98/98/98 86/86/86
f 101/101/101 100/100/100 99/99/99
f 101/101/101 102/102/102 100/100/100
f 103/103/103 80/80/80 92/92/92
f 103/103/103 104/104/104 80/80/80
f 105/105/105 93/93/93 81/81/81
f 105/105/105 106/106/106 93/93/93
f 107/107/107 63/63/63 64/64/64
f 107/107/107 108/108/108 63/63/63
