g pb_Mesh349864
v 9 10 1.99995
v -7 10 1.99995
v -7 10 17.99995
v 9 10 17.99995
v 9 -3 1.99995
v -7 -3 1.99995
v -7 -2 1.99995
v 9 -2 1.99995
v -7 -2 1.99995
v -7 -3 17.99995
v -7 -2 17.99995
v -7 -3 1.99995
v -7 10 1.99995
v -7 10 17.99995
v -7 -2 17.99995
v 9 -3 17.99995
v 9 -2 17.99995
v -7 -3 17.99995
v -7 10 17.99995
v 9 10 17.99995
v 9 -3 17.99995
v 9 -3 1.99995
v 9 -2 1.99995
v 9 -2 17.99995
v 9 10 1.99995
v 9 10 17.99995
v -7 -2 1.99995
v -7 10 1.99995
v 0 -2 2.00005
v 0 2 2.00005
v 9 10 1.99995
v 9 -2 1.99995
v 2 2 2.00005
v 2 -2 2.00005
v -7 10 1.99995
v 9 10 1.99995
v 0 2 2.00005
v 2 2 2.00005
v 2 -2 2.00005
v 0 -2 2.00005
v 2 -2 -2.00005
v 0 -2 -2.00005
v 2 2 2.00005
v 2 -2 2.00005
v 2 2 -2.00005
v 2 -2 -2.00005
v -7 -3 17.99995
v 9 -3 1.99995
v 9 -3 17.99995
v -7 -3 1.99995
vt 9 1.99995
vt -7 1.99995
vt -7 17.99995
vt 9 17.99995
vt 9 -3
vt -7 -3
vt -7 -2
vt 9 -2
vt -1.99995 -2
vt -17.99995 -3
vt -17.99995 -2
vt -1.99995 -3
vt -1.99995 10
vt -17.99995 10
vt 7 -2
vt -9 -3
vt -9 -2
vt 7 -3
vt 7 10
vt -9 10
vt 17.99995 -3
vt 1.99995 -3
vt 1.99995 -2
vt 17.99995 -2
vt 1.99995 10
vt 17.99995 10
vt -6.999972 -2
vt -6.999972 10
vt 2.833845E-05 -2
vt 2.833845E-05 2
vt 8.999971 10
vt 8.999971 -2
vt 1.999972 2
vt 1.999972 -2
vt -7 9.999975
vt 9 9.999975
vt 0 1.999975
vt 2 1.999975
vt -2 2.00005
vt 0 2.00005
vt -2 -2.00005
vt 0 -2.00005
vt 2.00005 2
vt 2.00005 -2
vt -2.00005 2
vt -2.00005 -2
vt 7 17.99995
vt -9 1.99995
vt -9 17.99995
vt 7 1.99995
vn 0 -1 0
vn 0 -1 0
vn 0 -1 0
vn 0 -1 0
vn 0 0 1
vn 0 0 1
vn 0 0 1
vn 0 0 1
vn 1 0 0
vn 1 0 0
vn 1 0 0
vn 1 0 0
vn 1 0 0
vn 1 0 0
vn 0 0 -1
vn 0 0 -1
vn 0 0 -1
vn 0 0 -1
vn 0 0 -1
vn 0 0 -1
vn -1 0 0
vn -1 0 0
vn -1 0 0
vn -1 0 0
vn -1 0 0
vn -1 0 0
vn -1.416888E-05 0 1
vn -1.416888E-05 0 1
vn -1.416888E-05 0 1
vn -1.416888E-05 0 1
vn 1.416888E-05 0 1
vn 1.416888E-05 0 1
vn 1.416888E-05 0 1
vn 1.416888E-05 0 1
vn 0 1.239777E-05 1
vn 0 1.239777E-05 1
vn 0 1.239777E-05 1
vn 0 1.239777E-05 1
vn 0 1 0
vn 0 1 0
vn 0 1 0
vn 0 1 0
vn -1 0 0
vn -1 0 0
vn -1 0 0
vn -1 0 0
vn 0 1 0
vn 0 1 0
vn 0 1 0
vn 0 1 0
g pb_Mesh349864_0
f 3/3/3 2/2/2 1/1/1
f 4/4/4 3/3/3 1/1/1
f 7/7/7 6/6/6 5/5/5
f 7/7/7 5/5/5 8/8/8
f 11/11/11 10/10/10 9/9/9
f 10/10/10 12/12/12 9/9/9
f 14/14/14 11/11/11 13/13/13
f 11/11/11 9/9/9 13/13/13
f 17/17/17 16/16/16 15/15/15
f 16/16/16 18/18/18 15/15/15
f 20/20/20 17/17/17 19/19/19
f 17/17/17 15/15/15 19/19/19
f 23/23/23 22/22/22 21/21/21
f 23/23/23 21/21/21 24/24/24
f 25/25/25 23/23/23 24/24/24
f 25/25/25 24/24/24 26/26/26
f 29/29/29 28/28/28 27/27/27
f 29/29/29 30/30/30 28/28/28
f 33/33/33 32/32/32 31/31/31
f 33/33/33 34/34/34 32/32/32
f 37/37/37 36/36/36 35/35/35
f 37/37/37 38/38/38 36/36/36
f 41/41/41 40/40/40 39/39/39
f 41/41/41 42/42/42 40/40/40
f 45/45/45 44/44/44 43/43/43
f 45/45/45 46/46/46 44/44/44
f 49/49/49 48/48/48 47/47/47
f 48/48/48 50/50/50 47/47/47
