g pb_Mesh183058
v 0 14 0
v -10.00001 13.99993 4.768386E-07
v -10.00001 -7.247925E-05 4.768386E-07
v 0 0 0
v -10.00001 13.99993 -10
v 0 14 -10
v 0 0 -10
v -10.00001 -7.247925E-05 -10
v 0 14 -10
v -10.00001 13.99993 -10
v -10.00001 13.99993 4.768386E-07
v 0 14 0
v 0 0 0
v -10.00001 -7.247925E-05 4.768386E-07
v -10.00001 -7.247925E-05 -10
v 0 0 -10
v -29 9.918213E-05 9.536743E-07
v -29 9.918213E-05 -10
vt 0 14
vt 10.00001 13.99993
vt 10.00001 -7.247925E-05
vt 0 0
vt -10.00002 13.99993
vt -4.768367E-06 14
vt -4.768367E-06 0
vt -10.00002 -7.247925E-05
vt 0.0001014708 -10
vt -9.999909 -10
vt -9.99991 4.768483E-07
vt 0.0001014708 9.677008E-12
vt 0 0
vt 10.00001 4.768386E-07
vt 10.00001 -10
vt 0 -10
vt 29 9.536743E-07
vt 29 -10
vn -4.768381E-08 0 -1
vn -4.768381E-08 0 -1
vn -4.768381E-08 0 -1
vn -4.768381E-08 0 -1
vn -4.768366E-07 0 1
vn -4.768366E-07 0 1
vn -4.768366E-07 0 1
vn -4.768366E-07 0 1
vn 7.247917E-06 -1 3.456074E-13
vn 7.247917E-06 -1 6.912149E-13
vn 7.247917E-06 -1 3.456074E-13
vn 7.247917E-06 -1 0
vn -7.247917E-06 1 -3.456074E-13
vn -7.247917E-06 1 -6.912148E-13
vn -7.247917E-06 1 -3.456074E-13
vn -7.247917E-06 1 0
vn 9.034815E-06 1 0
vn 9.034814E-06 1 0
g pb_Mesh183058_0
g pb_Mesh183058_1
f 3/3/3 2/2/2 1/1/1
f 4/4/4 3/3/3 1/1/1
f 7/7/7 6/6/6 5/5/5
f 8/8/8 7/7/7 5/5/5
f 11/11/11 10/10/10 9/9/9
f 12/12/12 11/11/11 9/9/9
f 15/15/15 14/14/14 13/13/13
f 16/16/16 15/15/15 13/13/13
f 14/14/14 15/15/15 17/17/17
f 15/15/15 18/18/18 17/17/17
