g pb_Mesh325486
v -18 8 -8
v -14 -5 -8
v -14 8 -8
v -18 -5 -8
v -18 51 -8
v -14 51 -8
v -14 51 -44
v -14 8 -44
v -18 8 -44
v -18 51 -44
v -7 8 -8
v -4 -5 -8
v -4 8 -8
v -7 -5 -8
v -7 51 -8
v -4 51 -8
v -4 -5 -40
v -7 -5 -40
v -7 8 -40
v -4 8 -40
v -7 -5 -44
v -14 -5 -44
v -7 8 -44
v -7 51 -40
v -4 51 -40
v -7 51 -44
v -25 8 -8
v -25 -5 -8
v -28 8 -12
v -25 -5 -12
v -25 8 -12
v -28 -5 -12
v -28 51 -12
v -25 51 -12
v -25 51 -8
v -18 -5 -44
v -25 -5 -44
v -25 8 -44
v -25 -5 -42
v -28 -5 -42
v -28 8 -42
v -25 8 -42
v -25 51 -44
v -28 51 -42
v -25 51 -42
v -28 8 -14
v -28 -5 -12
v -28 8 -12
v -28 -5 -14
v -28 51 -14
v -28 51 -12
v -1 -5 -12
v -1 -5 -14
v -1 8 -14
v -1 8 -12
v -1 51 -14
v -1 51 -12
v -14 51 -12
v -18 51 -14
v -18 51 -12
v -14 51 -14
v -18 -5 -14
v -14 -5 -14
v -14 -5 -12
v -18 -5 -12
v -7 51 -12
v -7 51 -14
v -4 51 -12
v -4 51 -14
v -7 -5 -14
v -7 -5 -12
v -4 -5 -14
v -4 -5 -12
v -25 51 -12
v -28 51 -14
v -28 51 -12
v -25 51 -14
v -28 -5 -14
v -25 -5 -14
v -25 -5 -12
v -28 -5 -12
v -30 8 -28
v -30 -5 -23
v -30 8 -23
v -30 -5 -28
v -30 51 -28
v -30 51 -23
v 1 -5 -23
v 1 -5 -28
v 1 8 -28
v 1 8 -23
v 1 51 -28
v 1 51 -23
v -14 51 -23
v -18 51 -28
v -18 51 -23
v -14 51 -28
v -18 -5 -28
v -14 -5 -28
v -14 -5 -23
v -18 -5 -23
v -7 51 -23
v -7 51 -28
v -4 51 -23
v -4 51 -28
v -7 -5 -28
v -7 -5 -23
v -4 -5 -28
v -4 -5 -23
v -25 51 -23
v -28 51 -28
v -28 51 -23
v -25 51 -28
v -28 -5 -28
v -25 -5 -28
v -25 -5 -23
v -28 -5 -23
v -14 -5 -8
v -7 -5 -8
v -25 8 -12
v -25 -5 -12
v -25 8 -8
v -25 -5 -8
v -25 -5 -8
v -18 -5 -8
v -4 -5 -8
v -18 51 -8
v -25 51 -8
v -4 -5 -12
v -4 8 -12
v -4 -5 -8
v -4 8 -8
v -25 51 -12
v -25 51 -8
v -4 51 -12
v -4 51 -8
v -4 51 -8
v -7 51 -8
v -14 51 -8
v -28 -5 -14
v -28 8 -14
v -30 -5 -14
v -30 8 -14
v -28 51 -14
v -30 51 -14
v -30 51 -23
v -30 51 -28
v -28 51 -38
v -28 8 -38
v -30 51 -38
v -30 8 -38
v -28 -5 -38
v -30 -5 -38
v -30 -5 -28
v -30 -5 -23
v -1 -5 -12
v -1 -5 -14
v -4 8 -12
v -4 -5 -12
v -1 8 -12
v -1 -5 -12
v -1 51 -14
v -1 51 -12
v -1 51 -28
v -1 51 -23
v -1 -5 -23
v -1 -5 -28
v -4 8 -38
v -4 51 -38
v -1 8 -38
v -1 51 -38
v -4 -5 -38
v -1 -5 -38
v -4 51 -12
v -1 51 -12
v -4 51 -38
v -4 8 -38
v -4 51 -40
v -4 8 -40
v -18 -5 -38
v -25 -5 -38
v -18 -5 -40
v -25 -5 -40
v -25 51 -38
v -18 51 -38
v -25 51 -40
v -18 51 -40
v -14 51 -38
v -14 51 -40
v -7 51 -38
v -7 51 -40
v -7 -5 -38
v -14 -5 -38
v -7 -5 -40
v -14 -5 -40
v -4 51 -38
v -4 51 -40
v -4 -5 -38
v -4 -5 -40
v -28 8 -38
v -28 51 -38
v -28 8 -40
v -28 51 -40
v -4 -5 -38
v -4 -5 -40
v -28 -5 -38
v -28 -5 -40
v -28 -5 -38
v -28 -5 -40
v -28 51 -38
v -28 51 -40
v -7 51 -40
v -7 8 -40
v -7 51 -42
v -7 8 -42
v -18 -5 -42
v -25 -5 -42
v -25 51 -42
v -18 51 -42
v -14 51 -42
v -7 51 -42
v -7 -5 -42
v -14 -5 -42
v -7 -5 -40
v -7 -5 -42
v -28 8 -42
v -28 51 -42
v -28 -5 -42
v -28 -5 -42
v -28 51 -42
v -7 51 -44
v -7 8 -44
v -18 -5 -44
v -25 -5 -44
v -25 51 -44
v -18 51 -44
v -14 51 -44
v -25 8 -42
v -25 51 -42
v -25 8 -44
v -25 51 -44
v -7 51 -44
v -7 -5 -44
v -14 -5 -44
v -7 -5 -44
v -25 -5 -42
v -25 -5 -44
v -14 8 -44
v -14 -5 -44
v -14 8 -88
v -14 -4.5 -88
v -18 -5 -44
v -18 8 -44
v -18 -4.5 -88
v -18 8 -88
v -18 8 -44
v -14 8 -44
v -18 8 -88
v -14 8 -88
v -30 8 -35
v -30 -5 -35
v -30 8 -38
v -30 -5 -38
v -30 51 -35
v -30 51 -38
v 1 -5 -35
v 1 8 -35
v -1 -5 -35
v -1 -5 -38
v -1 8 -38
v -1 8 -35
v 1 51 -35
v -1 51 -38
v -1 51 -35
v -14 51 -35
v -18 51 -35
v -14 -5 -35
v -18 -5 -35
v -7 51 -35
v -4 51 -35
v -7 -5 -35
v -4 -5 -35
v -25 51 -35
v -28 51 -35
v -25 -5 -35
v -28 -5 -35
v -30 51 -35
v -30 51 -38
v -30 -5 -38
v -30 -5 -35
v -1 -5 -35
v -1 -5 -38
v -1 51 -35
v -1 51 -38
v -30 8 -16
v -30 -5 -14
v -30 8 -14
v -30 -5 -16
v -30 51 -16
v -30 51 -14
v 1 -5 -14
v 1 -5 -16
v 1 8 -16
v 1 8 -14
v 1 51 -16
v 1 51 -14
v -14 51 -16
v -18 51 -16
v -14 -5 -16
v -18 -5 -16
v -7 51 -16
v -4 51 -16
v -7 -5 -16
v -4 -5 -16
v -25 51 -16
v -28 51 -16
v -25 -5 -16
v -28 -5 -16
v -30 -5 -16
v -30 -5 -14
v -30 51 -14
v -30 51 -16
v -1 51 -16
v -1 -5 -16
v 1 -5 -23
v 1 -5 -28
v -1 8 -35
v -1 51 -35
v 1 8 -35
v 1 51 -35
v 1 51 -28
v 1 51 -23
v 1 -5 -35
v -1 -5 -35
v 1 -5 -35
v -1 51 -14
v -1 8 -14
v 1 51 -14
v 1 8 -14
v 1 51 -35
v 1 51 -16
v 1 -5 -16
v 1 51 -14
v 1 -5 -14
v -1 -5 -14
v 1 -5 -14
vt 18 8
vt 14 -5
vt 14 8
vt 18 -5
vt 18 51
vt 14 51
vt -14 51
vt -14 8
vt -18 8
vt -18 51
vt 7 8
vt 4 -5
vt 4 8
vt 7 -5
vt 7 51
vt 4 51
vt -4 -5
vt -7 -5
vt -7 8
vt -4 8
vt -7 -5
vt -14 -5
vt -7 8
vt -7 51
vt -4 51
vt -7 51
vt 25 8
vt 25 -5
vt 28 8
vt 25 -5
vt 25 8
vt 28 -5
vt 28 51
vt 25 51
vt 25 51
vt -18 -5
vt -25 -5
vt -25 8
vt -25 -5
vt -28 -5
vt -28 8
vt -25 8
vt -25 51
vt -28 51
vt -25 51
vt 14 8
vt 12 -5
vt 12 8
vt 14 -5
vt 14 51
vt 12 51
vt -12 -5
vt -14 -5
vt -14 8
vt -12 8
vt -14 51
vt -12 51
vt -14 -12
vt -18 -14
vt -18 -12
vt -14 -14
vt 18 -14
vt 14 -14
vt 14 -12
vt 18 -12
vt -7 -12
vt -7 -14
vt -4 -12
vt -4 -14
vt 7 -14
vt 7 -12
vt 4 -14
vt 4 -12
vt -25 -12
vt -28 -14
vt -28 -12
vt -25 -14
vt 28 -14
vt 25 -14
vt 25 -12
vt 28 -12
vt 28 8
vt 23 -5
vt 23 8
vt 28 -5
vt 28 51
vt 23 51
vt -23 -5
vt -28 -5
vt -28 8
vt -23 8
vt -28 51
vt -23 51
vt -14 -23
vt -18 -28
vt -18 -23
vt -14 -28
vt 18 -28
vt 14 -28
vt 14 -23
vt 18 -23
vt -7 -23
vt -7 -28
vt -4 -23
vt -4 -28
vt 7 -28
vt 7 -23
vt 4 -28
vt 4 -23
vt -25 -23
vt -28 -28
vt -28 -23
vt -25 -28
vt 28 -28
vt 25 -28
vt 25 -23
vt 28 -23
vt 14 -8
vt 7 -8
vt 12 8
vt 12 -5
vt 8 8
vt 8 -5
vt 25 -8
vt 18 -8
vt 4 -8
vt -18 -8
vt -25 -8
vt -12 -5
vt -12 8
vt -8 -5
vt -8 8
vt 12 51
vt 8 51
vt -12 51
vt -8 51
vt -4 -8
vt -7 -8
vt -14 -8
vt 28 -5
vt 28 8
vt 30 -5
vt 30 8
vt 28 51
vt 30 51
vt -30 -23
vt -30 -28
vt -28 51
vt -28 8
vt -30 51
vt -30 8
vt -28 -5
vt -30 -5
vt 30 -28
vt 30 -23
vt 1 -12
vt 1 -14
vt 4 8
vt 4 -5
vt 1 8
vt 1 -5
vt -1 -14
vt -1 -12
vt -1 -28
vt -1 -23
vt 1 -23
vt 1 -28
vt -4 8
vt -4 51
vt -1 8
vt -1 51
vt -4 -5
vt -1 -5
vt 4 51
vt 1 51
vt -38 51
vt -38 8
vt -40 51
vt -40 8
vt 18 -38
vt 25 -38
vt 18 -40
vt 25 -40
vt -25 -38
vt -18 -38
vt -25 -40
vt -18 -40
vt -14 -38
vt -14 -40
vt -7 -38
vt -7 -40
vt 7 -38
vt 14 -38
vt 7 -40
vt 14 -40
vt -4 -38
vt -4 -40
vt 4 -38
vt 4 -40
vt 38 8
vt 38 51
vt 40 8
vt 40 51
vt -38 -5
vt -40 -5
vt 28 -38
vt 28 -40
vt 38 -5
vt 40 -5
vt -28 -38
vt -28 -40
vt -40 51
vt -40 8
vt -42 51
vt -42 8
vt 18 -42
vt 25 -42
vt -25 -42
vt -18 -42
vt -14 -42
vt -7 -42
vt 7 -42
vt 14 -42
vt -40 -5
vt -42 -5
vt 42 8
vt 42 51
vt 28 -42
vt 42 -5
vt -28 -42
vt -44 51
vt -44 8
vt 18 -44
vt 25 -44
vt -25 -44
vt -18 -44
vt -14 -44
vt 42 8
vt 42 51
vt 44 8
vt 44 51
vt -7 -44
vt 7 -44
vt 14 -44
vt -44 -5
vt 42 -5
vt 44 -5
vt -44 8
vt -44 -5
vt -88 8
vt -88 -4.5
vt 44 -5
vt 44 8
vt 88 -4.5
vt 88 8
vt -18 -44
vt -14 -44
vt -18 -88
vt -14 -88
vt 35 8
vt 35 -5
vt 38 8
vt 38 -5
vt 35 51
vt 38 51
vt -35 -5
vt -35 8
vt -35 -5
vt -38 -5
vt -38 8
vt -35 8
vt -35 51
vt -38 51
vt -35 51
vt -14 -35
vt -18 -35
vt 14 -35
vt 18 -35
vt -7 -35
vt -4 -35
vt 7 -35
vt 4 -35
vt -25 -35
vt -28 -35
vt 25 -35
vt 28 -35
vt -30 -35
vt -30 -38
vt 30 -38
vt 30 -35
vt 1 -35
vt 1 -38
vt -1 -35
vt -1 -38
vt 16 8
vt 14 -5
vt 14 8
vt 16 -5
vt 16 51
vt 14 51
vt -14 -5
vt -16 -5
vt -16 8
vt -14 8
vt -16 51
vt -14 51
vt -14 -16
vt -18 -16
vt 14 -16
vt 18 -16
vt -7 -16
vt -4 -16
vt 7 -16
vt 4 -16
vt -25 -16
vt -28 -16
vt 25 -16
vt 28 -16
vt 30 -16
vt 30 -14
vt -30 -14
vt -30 -16
vt -1 -16
vt 1 -16
vt -1 -23
vt -1 -28
vt -1 8
vt -1 51
vt 1 8
vt 1 51
vt 1 -28
vt 1 -23
vt -1 -35
vt -1 -5
vt 1 -5
vt 1 51
vt 1 8
vt -1 51
vt -1 8
vt 1 -35
vt 1 -16
vt -1 -16
vt 1 -14
vt -1 -14
vt 1 -5
vt -1 -5
vn 0 0 -1
vn 0 0 -1
vn 0 0 -1
vn 0 0 -1
vn 0 0 -1
vn 0 0 -1
vn 0 0 1
vn 0 0 1
vn 0 0 1
vn 0 0 1
vn 0 0 -1
vn 0 0 -1
vn 0 0 -1
vn 0 0 -1
vn 0 0 -1
vn 0 0 -1
vn 0 0 1
vn 0 0 1
vn 0 0 1
vn 0 0 1
vn 0 0 1
vn 0 0 1
vn 0 0 1
vn 0 0 1
vn 0 0 1
vn 0 0 1
vn 0 0 -1
vn 0 0 -1
vn 0 0 -1
vn 0 0 -1
vn 0 0 -1
vn 0 0 -1
vn 0 0 -1
vn 0 0 -1
vn 0 0 -1
vn 0 0 1
vn 0 0 1
vn 0 0 1
vn 0 0 1
vn 0 0 1
vn 0 0 1
vn 0 0 1
vn 0 0 1
vn 0 0 1
vn 0 0 1
vn 1 0 0
vn 1 0 0
vn 1 0 0
vn 1 0 0
vn 1 0 0
vn 1 0 0
vn -1 0 0
vn -1 0 0
vn -1 0 0
vn -1 0 0
vn -1 0 0
vn -1 0 0
vn 0 -1 0
vn 0 -1 0
vn 0 -1 0
vn 0 -1 0
vn 0 1 0
vn 0 1 0
vn 0 1 0
vn 0 1 0
vn 0 -1 0
vn 0 -1 0
vn 0 -1 0
vn 0 -1 0
vn 0 1 0
vn 0 1 0
vn 0 1 0
vn 0 1 0
vn 0 -1 0
vn 0 -1 0
vn 0 -1 0
vn 0 -1 0
vn 0 1 0
vn 0 1 0
vn 0 1 0
vn 0 1 0
vn 1 0 0
vn 1 0 0
vn 1 0 0
vn 1 0 0
vn 1 0 0
vn 1 0 0
vn -1 0 0
vn -1 0 0
vn -1 0 0
vn -1 0 0
vn -1 0 0
vn -1 0 0
vn 0 -1 0
vn 0 -1 0
vn 0 -1 0
vn 0 -1 0
vn 0 1 0
vn 0 1 0
vn 0 1 0
vn 0 1 0
vn 0 -1 0
vn 0 -1 0
vn 0 -1 0
vn 0 -1 0
vn 0 1 0
vn 0 1 0
vn 0 1 0
vn 0 1 0
vn 0 -1 0
vn 0 -1 0
vn 0 -1 0
vn 0 -1 0
vn 0 1 0
vn 0 1 0
vn 0 1 0
vn 0 1 0
vn 0 1 0
vn 0 1 0
vn 1 0 0
vn 1 0 0
vn 1 0 0
vn 1 0 0
vn 0 1 0
vn 0 1 0
vn 0 1 0
vn 0 -1 0
vn 0 -1 0
vn -1 0 0
vn -1 0 0
vn -1 0 0
vn -1 0 0
vn 1 0 0
vn 1 0 0
vn -1 0 0
vn -1 0 0
vn 0 -1 0
vn 0 -1 0
vn 0 -1 0
vn 0 0 -1
vn 0 0 -1
vn 0 0 -1
vn 0 0 -1
vn 0 0 -1
vn 0 0 -1
vn 0 -1 0
vn 0 -1 0
vn 0 0 1
vn 0 0 1
vn 0 0 1
vn 0 0 1
vn 0 0 1
vn 0 0 1
vn 0 1 0
vn 0 1 0
vn 0 1 0
vn 0 1 0
vn 0 0 -1
vn 0 0 -1
vn 0 0 -1
vn 0 0 -1
vn 0 -1 0
vn 0 -1 0
vn 0 -1 0
vn 0 -1 0
vn 0 1 0
vn 0 1 0
vn 0 0 1
vn 0 0 1
vn 0 0 1
vn 0 0 1
vn 0 0 1
vn 0 0 1
vn 0 0 -1
vn 0 0 -1
vn -1 0 0
vn -1 0 0
vn -1 0 0
vn -1 0 0
vn 0 1 0
vn 0 1 0
vn 0 1 0
vn 0 1 0
vn 0 -1 0
vn 0 -1 0
vn 0 -1 0
vn 0 -1 0
vn 0 -1 0
vn 0 -1 0
vn 0 -1 0
vn 0 -1 0
vn 0 1 0
vn 0 1 0
vn 0 1 0
vn 0 1 0
vn 0 -1 0
vn 0 -1 0
vn 0 1 0
vn 0 1 0
vn 1 0 0
vn 1 0 0
vn 1 0 0
vn 1 0 0
vn -1 0 0
vn -1 0 0
vn 0 1 0
vn 0 1 0
vn 1 0 0
vn 1 0 0
vn 0 -1 0
vn 0 -1 0
vn -1 0 0
vn -1 0 0
vn -1 0 0
vn -1 0 0
vn 0 1 0
vn 0 1 0
vn 0 -1 0
vn 0 -1 0
vn 0 -1 0
vn 0 -1 0
vn 0 1 0
vn 0 1 0
vn -1 0 0
vn -1 0 0
vn 1 0 0
vn 1 0 0
vn 0 1 0
vn 1 0 0
vn 0 -1 0
vn -1 0 0
vn -1 0 0
vn 0 1 0
vn 0 1 0
vn 0 -1 0
vn 0 -1 0
vn 0 -1 0
vn 1 0 0
vn 1 0 0
vn 1 0 0
vn 1 0 0
vn 0 -1 0
vn 0 1 0
vn 0 1 0
vn -1 0 0
vn 1 0 0
vn 1 0 0
vn -1 0 0
vn -1 0 0
vn -1 0 0
vn -1 0 0
vn 1 0 0
vn 1 0 0
vn 1 0 0
vn 1 0 0
vn 0 -1 0
vn 0 -1 0
vn 0 -1 0
vn 0 -1 0
vn 1 0 0
vn 1 0 0
vn 1 0 0
vn 1 0 0
vn 1 0 0
vn 1 0 0
vn -1 0 0
vn -1 0 0
vn -1 0 0
vn -1 0 0
vn -1 0 0
vn -1 0 0
vn -1 0 0
vn -1 0 0
vn -1 0 0
vn 0 -1 0
vn 0 -1 0
vn 0 1 0
vn 0 1 0
vn 0 -1 0
vn 0 -1 0
vn 0 1 0
vn 0 1 0
vn 0 -1 0
vn 0 -1 0
vn 0 1 0
vn 0 1 0
vn 0 -1 0
vn 0 -1 0
vn 0 1 0
vn 0 1 0
vn 0 1 0
vn 0 1 0
vn 0 -1 0
vn 0 -1 0
vn 1 0 0
vn 1 0 0
vn 1 0 0
vn 1 0 0
vn 1 0 0
vn 1 0 0
vn -1 0 0
vn -1 0 0
vn -1 0 0
vn -1 0 0
vn -1 0 0
vn -1 0 0
vn 0 -1 0
vn 0 -1 0
vn 0 1 0
vn 0 1 0
vn 0 -1 0
vn 0 -1 0
vn 0 1 0
vn 0 1 0
vn 0 -1 0
vn 0 -1 0
vn 0 1 0
vn 0 1 0
vn 0 1 0
vn 0 1 0
vn 0 -1 0
vn 0 -1 0
vn 0 -1 0
vn 0 1 0
vn 0 1 0
vn 0 1 0
vn 0 0 1
vn 0 0 1
vn 0 0 1
vn 0 0 1
vn 0 -1 0
vn 0 -1 0
vn 0 1 0
vn 0 0 1
vn 0 0 1
vn 0 0 -1
vn 0 0 -1
vn 0 0 -1
vn 0 0 -1
vn 0 -1 0
vn 0 -1 0
vn 0 1 0
vn 0 -1 0
vn 0 1 0
vn 0 0 -1
vn 0 0 -1
g pb_Mesh325486_0
g pb_Mesh325486_1
f 3/3/3 2/2/2 1/1/1
f 2/2/2 4/4/4 1/1/1
f 6/6/6 1/1/1 5/5/5
f 6/6/6 3/3/3 1/1/1
f 9/9/9 8/8/8 7/7/7
f 10/10/10 9/9/9 7/7/7
f 13/13/13 12/12/12 11/11/11
f 12/12/12 14/14/14 11/11/11
f 11/11/11 14/14/14 3/3/3
f 14/14/14 2/2/2 3/3/3
f 16/16/16 13/13/13 15/15/15
f 13/13/13 11/11/11 15/15/15
f 15/15/15 11/11/11 6/6/6
f 11/11/11 3/3/3 6/6/6
f 19/19/19 18/18/18 17/17/17
f 19/19/19 17/17/17 20/20/20
f 8/8/8 22/22/22 21/21/21
f 8/8/8 21/21/21 23/23/23
f 24/24/24 19/19/19 20/20/20
f 24/24/24 20/20/20 25/25/25
f 7/7/7 8/8/8 23/23/23
f 7/7/7 23/23/23 26/26/26
f 1/1/1 4/4/4 27/27/27
f 4/4/4 28/28/28 27/27/27
f 31/31/31 30/30/30 29/29/29
f 30/30/30 32/32/32 29/29/29
f 34/34/34 31/31/31 33/33/33
f 31/31/31 29/29/29 33/33/33
f 5/5/5 1/1/1 35/35/35
f 1/1/1 27/27/27 35/35/35
f 38/38/38 37/37/37 36/36/36
f 38/38/38 36/36/36 9/9/9
f 41/41/41 40/40/40 39/39/39
f 41/41/41 39/39/39 42/42/42
f 43/43/43 38/38/38 9/9/9
f 43/43/43 9/9/9 10/10/10
f 44/44/44 41/41/41 42/42/42
f 44/44/44 42/42/42 45/45/45
f 48/48/48 47/47/47 46/46/46
f 47/47/47 49/49/49 46/46/46
f 51/51/51 48/48/48 50/50/50
f 48/48/48 46/46/46 50/50/50
f 54/54/54 53/53/53 52/52/52
f 54/54/54 52/52/52 55/55/55
f 56/56/56 54/54/54 55/55/55
f 56/56/56 55/55/55 57/57/57
f 60/60/60 59/59/59 58/58/58
f 59/59/59 61/61/61 58/58/58
f 64/64/64 63/63/63 62/62/62
f 64/64/64 62/62/62 65/65/65
f 58/58/58 61/61/61 66/66/66
f 61/61/61 67/67/67 66/66/66
f 66/66/66 67/67/67 68/68/68
f 67/67/67 69/69/69 68/68/68
f 71/71/71 70/70/70 63/63/63
f 71/71/71 63/63/63 64/64/64
f 73/73/73 72/72/72 70/70/70
f 73/73/73 70/70/70 71/71/71
f 76/76/76 75/75/75 74/74/74
f 75/75/75 77/77/77 74/74/74
f 74/74/74 77/77/77 60/60/60
f 77/77/77 59/59/59 60/60/60
f 80/80/80 79/79/79 78/78/78
f 80/80/80 78/78/78 81/81/81
f 65/65/65 62/62/62 79/79/79
f 65/65/65 79/79/79 80/80/80
f 84/84/84 83/83/83 82/82/82
f 83/83/83 85/85/85 82/82/82
f 87/87/87 84/84/84 86/86/86
f 84/84/84 82/82/82 86/86/86
f 90/90/90 89/89/89 88/88/88
f 90/90/90 88/88/88 91/91/91
f 92/92/92 90/90/90 91/91/91
f 92/92/92 91/91/91 93/93/93
f 96/96/96 95/95/95 94/94/94
f 95/95/95 97/97/97 94/94/94
f 100/100/100 99/99/99 98/98/98
f 100/100/100 98/98/98 101/101/101
f 94/94/94 97/97/97 102/102/102
f 97/97/97 103/103/103 102/102/102
f 102/102/102 103/103/103 104/104/104
f 103/103/103 105/105/105 104/104/104
f 107/107/107 106/106/106 99/99/99
f 107/107/107 99/99/99 100/100/100
f 109/109/109 108/108/108 106/106/106
f 109/109/109 106/106/106 107/107/107
f 112/112/112 111/111/111 110/110/110
f 111/111/111 113/113/113 110/110/110
f 110/110/110 113/113/113 96/96/96
f 113/113/113 95/95/95 96/96/96
f 116/116/116 115/115/115 114/114/114
f 116/116/116 114/114/114 117/117/117
f 101/101/101 98/98/98 115/115/115
f 101/101/101 115/115/115 116/116/116
f 118/118/118 71/71/71 64/64/64
f 118/118/118 119/119/119 71/71/71
f 122/122/122 121/121/121 120/120/120
f 122/122/122 123/123/123 121/121/121
f 124/124/124 65/65/65 80/80/80
f 124/124/124 125/125/125 65/65/65
f 125/125/125 64/64/64 65/65/65
f 125/125/125 118/118/118 64/64/64
f 119/119/119 73/73/73 71/71/71
f 119/119/119 126/126/126 73/73/73
f 127/127/127 74/74/74 60/60/60
f 127/127/127 128/128/128 74/74/74
f 131/131/131 130/130/130 129/129/129
f 131/131/131 132/132/132 130/130/130
f 134/134/134 120/120/120 133/133/133
f 134/134/134 122/122/122 120/120/120
f 132/132/132 135/135/135 130/130/130
f 132/132/132 136/136/136 135/135/135
f 137/137/137 66/66/66 68/68/68
f 137/137/137 138/138/138 66/66/66
f 138/138/138 58/58/58 66/66/66
f 138/138/138 139/139/139 58/58/58
f 139/139/139 60/60/60 58/58/58
f 139/139/139 127/127/127 60/60/60
f 142/142/142 141/141/141 140/140/140
f 142/142/142 143/143/143 141/141/141
f 143/143/143 144/144/144 141/141/141
f 143/143/143 145/145/145 144/144/144
f 146/146/146 111/111/111 112/112/112
f 146/146/146 147/147/147 111/111/111
f 150/150/150 149/149/149 148/148/148
f 150/150/150 151/151/151 149/149/149
f 151/151/151 152/152/152 149/149/149
f 151/151/151 153/153/153 152/152/152
f 154/154/154 117/117/117 114/114/114
f 154/154/154 155/155/155 117/117/117
f 156/156/156 72/72/72 73/73/73
f 156/156/156 157/157/157 72/72/72
f 160/160/160 159/159/159 158/158/158
f 160/160/160 161/161/161 159/159/159
f 162/162/162 68/68/68 69/69/69
f 162/162/162 163/163/163 68/68/68
f 164/164/164 104/104/104 105/105/105
f 164/164/164 165/165/165 104/104/104
f 166/166/166 108/108/108 109/109/109
f 166/166/166 167/167/167 108/108/108
f 170/170/170 169/169/169 168/168/168
f 170/170/170 171/171/171 169/169/169
f 173/173/173 168/168/168 172/172/172
f 173/173/173 170/170/170 168/168/168
f 175/175/175 158/158/158 174/174/174
f 175/175/175 160/160/160 158/158/158
f 178/178/178 177/177/177 176/176/176
f 178/178/178 179/179/179 177/177/177
f 182/182/182 181/181/181 180/180/180
f 182/182/182 183/183/183 181/181/181
f 186/186/186 185/185/185 184/184/184
f 186/186/186 187/187/187 185/185/185
f 187/187/187 188/188/188 185/185/185
f 187/187/187 189/189/189 188/188/188
f 189/189/189 190/190/190 188/188/188
f 189/189/189 191/191/191 190/190/190
f 194/194/194 193/193/193 192/192/192
f 194/194/194 195/195/195 193/193/193
f 191/191/191 196/196/196 190/190/190
f 191/191/191 197/197/197 196/196/196
f 199/199/199 192/192/192 198/198/198
f 199/199/199 194/194/194 192/192/192
f 202/202/202 201/201/201 200/200/200
f 202/202/202 203/203/203 201/201/201
f 179/179/179 204/204/204 177/177/177
f 179/179/179 205/205/205 204/204/204
f 195/195/195 180/180/180 193/193/193
f 195/195/195 182/182/182 180/180/180
f 183/183/183 206/206/206 181/181/181
f 183/183/183 207/207/207 206/206/206
f 209/209/209 200/200/200 208/208/208
f 209/209/209 202/202/202 200/200/200
f 211/211/211 184/184/184 210/210/210
f 211/211/211 186/186/186 184/184/184
f 214/214/214 213/213/213 212/212/212
f 214/214/214 215/215/215 213/213/213
f 216/216/216 183/183/183 182/182/182
f 216/216/216 217/217/217 183/183/183
f 218/218/218 187/187/187 186/186/186
f 218/218/218 219/219/219 187/187/187
f 219/219/219 189/189/189 187/187/187
f 219/219/219 220/220/220 189/189/189
f 220/220/220 191/191/191 189/189/189
f 220/220/220 221/221/221 191/191/191
f 222/222/222 195/195/195 194/194/194
f 222/222/222 223/223/223 195/195/195
f 223/223/223 182/182/182 195/195/195
f 223/223/223 216/216/216 182/182/182
f 215/215/215 224/224/224 213/213/213
f 215/215/215 225/225/225 224/224/224
f 226/226/226 203/203/203 202/202/202
f 226/226/226 227/227/227 203/203/203
f 217/217/217 207/207/207 183/183/183
f 217/217/217 228/228/228 207/207/207
f 229/229/229 202/202/202 209/209/209
f 229/229/229 226/226/226 202/202/202
f 230/230/230 186/186/186 211/211/211
f 230/230/230 218/218/218 186/186/186
f 231/231/231 215/215/215 214/214/214
f 231/231/231 232/232/232 215/215/215
f 233/233/233 217/217/217 216/216/216
f 233/233/233 234/234/234 217/217/217
f 235/235/235 219/219/219 218/218/218
f 235/235/235 236/236/236 219/219/219
f 236/236/236 220/220/220 219/219/219
f 236/236/236 237/237/237 220/220/220
f 240/240/240 239/239/239 238/238/238
f 240/240/240 241/241/241 239/239/239
f 237/237/237 221/221/221 220/220/220
f 237/237/237 242/242/242 221/221/221
f 243/243/243 223/223/223 222/222/222
f 243/243/243 244/244/244 223/223/223
f 244/244/244 216/216/216 223/223/223
f 244/244/244 233/233/233 216/216/216
f 232/232/232 225/225/225 215/215/215
f 232/232/232 245/245/245 225/225/225
f 247/247/247 238/238/238 246/246/246
f 247/247/247 240/240/240 238/238/238
f 250/250/250 249/249/249 248/248/248
f 250/250/250 251/251/251 249/249/249
f 254/254/254 253/253/253 252/252/252
f 254/254/254 255/255/255 253/253/253
f 258/258/258 257/257/257 256/256/256
f 258/258/258 259/259/259 257/257/257
f 82/82/82 85/85/85 260/260/260
f 85/85/85 261/261/261 260/260/260
f 260/260/260 261/261/261 262/262/262
f 261/261/261 263/263/263 262/262/262
f 86/86/86 82/82/82 264/264/264
f 82/82/82 260/260/260 264/264/264
f 264/264/264 260/260/260 265/265/265
f 260/260/260 262/262/262 265/265/265
f 267/267/267 266/266/266 89/89/89
f 267/267/267 89/89/89 90/90/90
f 270/270/270 269/269/269 268/268/268
f 270/270/270 268/268/268 271/271/271
f 272/272/272 267/267/267 90/90/90
f 272/272/272 90/90/90 92/92/92
f 273/273/273 270/270/270 271/271/271
f 273/273/273 271/271/271 274/274/274
f 276/276/276 185/185/185 275/275/275
f 185/185/185 188/188/188 275/275/275
f 95/95/95 276/276/276 97/97/97
f 276/276/276 275/275/275 97/97/97
f 277/277/277 193/193/193 180/180/180
f 277/277/277 180/180/180 278/278/278
f 99/99/99 277/277/277 278/278/278
f 99/99/99 278/278/278 98/98/98
f 275/275/275 188/188/188 279/279/279
f 188/188/188 190/190/190 279/279/279
f 97/97/97 275/275/275 103/103/103
f 275/275/275 279/279/279 103/103/103
f 279/279/279 190/190/190 280/280/280
f 190/190/190 196/196/196 280/280/280
f 103/103/103 279/279/279 105/105/105
f 279/279/279 280/280/280 105/105/105
f 281/281/281 192/192/192 193/193/193
f 281/281/281 193/193/193 277/277/277
f 106/106/106 281/281/281 277/277/277
f 106/106/106 277/277/277 99/99/99
f 282/282/282 198/198/198 192/192/192
f 282/282/282 192/192/192 281/281/281
f 108/108/108 282/282/282 281/281/281
f 108/108/108 281/281/281 106/106/106
f 284/284/284 210/210/210 283/283/283
f 210/210/210 184/184/184 283/283/283
f 111/111/111 284/284/284 113/113/113
f 284/284/284 283/283/283 113/113/113
f 283/283/283 184/184/184 276/276/276
f 184/184/184 185/185/185 276/276/276
f 113/113/113 283/283/283 95/95/95
f 283/283/283 276/276/276 95/95/95
f 285/285/285 181/181/181 206/206/206
f 285/285/285 206/206/206 286/286/286
f 115/115/115 285/285/285 286/286/286
f 115/115/115 286/286/286 114/114/114
f 180/180/180 181/181/181 285/285/285
f 278/278/278 180/180/180 285/285/285
f 115/115/115 278/278/278 285/285/285
f 115/115/115 98/98/98 278/278/278
f 147/147/147 287/287/287 111/111/111
f 287/287/287 284/284/284 111/111/111
f 287/287/287 288/288/288 284/284/284
f 288/288/288 210/210/210 284/284/284
f 286/286/286 206/206/206 289/289/289
f 286/286/286 289/289/289 290/290/290
f 114/114/114 286/286/286 290/290/290
f 114/114/114 290/290/290 154/154/154
f 167/167/167 291/291/291 282/282/282
f 167/167/167 282/282/282 108/108/108
f 291/291/291 292/292/292 198/198/198
f 291/291/291 198/198/198 282/282/282
f 280/280/280 196/196/196 293/293/293
f 196/196/196 294/294/294 293/293/293
f 105/105/105 280/280/280 164/164/164
f 280/280/280 293/293/293 164/164/164
f 297/297/297 296/296/296 295/295/295
f 296/296/296 298/298/298 295/295/295
f 295/295/295 298/298/298 84/84/84
f 298/298/298 83/83/83 84/84/84
f 300/300/300 297/297/297 299/299/299
f 297/297/297 295/295/295 299/299/299
f 299/299/299 295/295/295 87/87/87
f 295/295/295 84/84/84 87/87/87
f 303/303/303 302/302/302 301/301/301
f 303/303/303 301/301/301 304/304/304
f 91/91/91 88/88/88 302/302/302
f 91/91/91 302/302/302 303/303/303
f 305/305/305 303/303/303 304/304/304
f 305/305/305 304/304/304 306/306/306
f 93/93/93 91/91/91 303/303/303
f 93/93/93 303/303/303 305/305/305
f 308/308/308 96/96/96 307/307/307
f 96/96/96 94/94/94 307/307/307
f 59/59/59 308/308/308 61/61/61
f 308/308/308 307/307/307 61/61/61
f 309/309/309 100/100/100 101/101/101
f 309/309/309 101/101/101 310/310/310
f 63/63/63 309/309/309 310/310/310
f 63/63/63 310/310/310 62/62/62
f 307/307/307 94/94/94 311/311/311
f 94/94/94 102/102/102 311/311/311
f 61/61/61 307/307/307 67/67/67
f 307/307/307 311/311/311 67/67/67
f 311/311/311 102/102/102 312/312/312
f 102/102/102 104/104/104 312/312/312
f 67/67/67 311/311/311 69/69/69
f 311/311/311 312/312/312 69/69/69
f 313/313/313 107/107/107 100/100/100
f 313/313/313 100/100/100 309/309/309
f 70/70/70 313/313/313 309/309/309
f 70/70/70 309/309/309 63/63/63
f 314/314/314 109/109/109 107/107/107
f 314/314/314 107/107/107 313/313/313
f 72/72/72 314/314/314 313/313/313
f 72/72/72 313/313/313 70/70/70
f 316/316/316 112/112/112 315/315/315
f 112/112/112 110/110/110 315/315/315
f 75/75/75 316/316/316 77/77/77
f 316/316/316 315/315/315 77/77/77
f 315/315/315 110/110/110 308/308/308
f 110/110/110 96/96/96 308/308/308
f 77/77/77 315/315/315 59/59/59
f 315/315/315 308/308/308 59/59/59
f 317/317/317 116/116/116 117/117/117
f 317/317/317 117/117/117 318/318/318
f 79/79/79 317/317/317 318/318/318
f 79/79/79 318/318/318 78/78/78
f 310/310/310 101/101/101 116/116/116
f 310/310/310 116/116/116 317/317/317
f 62/62/62 310/310/310 317/317/317
f 62/62/62 317/317/317 79/79/79
f 319/319/319 117/117/117 155/155/155
f 319/319/319 318/318/318 117/117/117
f 320/320/320 318/318/318 319/319/319
f 320/320/320 78/78/78 318/318/318
f 316/316/316 75/75/75 321/321/321
f 322/322/322 316/316/316 321/321/321
f 112/112/112 316/316/316 322/322/322
f 146/146/146 112/112/112 322/322/322
f 165/165/165 323/323/323 312/312/312
f 104/104/104 165/165/165 312/312/312
f 323/323/323 162/162/162 69/69/69
f 312/312/312 323/323/323 69/69/69
f 72/72/72 324/324/324 314/314/314
f 72/72/72 157/157/157 324/324/324
f 314/314/314 166/166/166 109/109/109
f 314/314/314 324/324/324 166/166/166
f 325/325/325 167/167/167 166/166/166
f 325/325/325 326/326/326 167/167/167
f 329/329/329 328/328/328 327/327/327
f 329/329/329 330/330/330 328/328/328
f 331/331/331 165/165/165 164/164/164
f 331/331/331 332/332/332 165/165/165
f 326/326/326 291/291/291 167/167/167
f 326/326/326 333/333/333 291/291/291
f 335/335/335 327/327/327 334/334/334
f 335/335/335 329/329/329 327/327/327
f 338/338/338 337/337/337 336/336/336
f 338/338/338 339/339/339 337/337/337
f 340/340/340 164/164/164 293/293/293
f 340/340/340 331/331/331 164/164/164
f 332/332/332 323/323/323 165/165/165
f 332/332/332 341/341/341 323/323/323
f 342/342/342 166/166/166 324/324/324
f 342/342/342 325/325/325 166/166/166
f 341/341/341 162/162/162 323/323/323
f 341/341/341 343/343/343 162/162/162
f 344/344/344 324/324/324 157/157/157
f 344/344/344 342/342/342 324/324/324
f 339/339/339 345/345/345 337/337/337
f 339/339/339 346/346/346 345/345/345
