g pb_Mesh221352
v 0.2640381 0 0
v -1 0 0
v -0.05157471 0.2543964 0
v -1 0.4705908 0
v -1.860687 0 0
v -1.860687 0 -1
v -1.860687 0.002092838 0
v -1.860687 0.007029533 -1
v -1 0 -1
v 0 0 -1
v -1 -0.01171041 -1
v 0 0 -1
v 0 -0.0004665852 -1
v -1 -0.01171041 -1
v 0 0 -1
v 0.2640381 0 0
v 0 -0.0004665852 -1
v 0.2640381 0 0
v -0.05157471 0.2543964 0
v 0 -0.0004665852 -1
v -0.05157471 0.2543964 0
v -1 0.4705908 0
v 0 -0.0004665852 -1
v -1 -0.01171041 -1
v 0 0 -1
v -1 0 -1
v 0.2640381 0 0
v -1 0 0
v -1.860687 0 0
v -1.860687 0 -1
v -1.860687 0.002092838 0
v -1.860687 0 0
v -1 -0.01171041 -1
v -1.860687 0 -1
v -1 -0.01171041 -1
v -1.860687 0.007029533 -1
v -1.860687 0 -1
v -1 -0.01171041 -1
v -1 0.4705908 0
v -1.860687 0.007029533 -1
v -1.860687 0.002092838 0
vt 0.2640381 0
vt -1 0
vt -0.05157471 0.2543964
vt -1 0.4705908
vt 0 0
vt -1 0
vt 0 0.002092838
vt -1 0.007029533
vt -1 0
vt 0 0
vt -1 -0.01171041
vt 0 0
vt 0 -0.0004665852
vt -1 -0.01171041
vt -0.9668648 0
vt 0.06740605 0
vt -0.9668648 -0.0004665852
vt 0.06740605 0
vt -0.01316646 0.2543964
vt -0.9668648 -0.0004665852
vt 0.1068244 0.05456193
vt 1.079579 0.05456193
vt -0.0001036985 -0.973145
vt 0.9723871 -1.026932
vt 0 -1
vt -1 -1
vt 0.2640381 0
vt -1 0
vt -1.860687 0
vt -1.860687 -1
vt -1.860687 0.002092838
vt -1.860687 0
vt -1 -0.01171041
vt -1.860687 0
vt -1 -0.01171041
vt -1.860687 0.007029533
vt -1.860687 0
vt 0.9995081 -0.9152927
vt 1.010007 0.1948894
vt 1.860399 -0.9152927
vt 1.860292 -0.0166832
vn 0 0 1
vn 0 0 1
vn 0 0 1
vn 0 0 1
vn -1 0 0
vn -1 0 0
vn -1 0 0
vn -1 0 0
vn 0 0 1
vn 0 0 1
vn 0 0 1
vn 0 0 1
vn 0 0 1
vn 0 0 1
vn -0.9668648 0 0.2552891
vn -0.1738924 0.3840258 0.04573502
vn -0.1738924 0.3840258 0.04573502
vn -0.1738924 0.3840258 0.04573502
vn 0.61908 0.7680516 -0.1638191
vn -0.1738924 0.3840258 0.04573502
vn 0.216258 0.9487041 -0.2306362
vn 0.1030655 0.9246854 -0.3325144
vn 0.1030655 0.9246854 -0.3325144
vn -0.01012693 0.9006667 -0.4343927
vn 0 -1 0
vn 0 -1 0
vn 0 -1 0
vn 0 -1 0
vn 0 -1 0
vn 0 -1 0
vn 0 0 1
vn 0 0 1
vn 0 0 0
vn 0 0 0
vn 0 0 0
vn 0 0 -1
vn 0 0 0
vn 0.01960766 0.9005397 -0.4343314
vn -0.2292393 0.8894209 -0.2149978
vn -0.2292393 0.8894209 -0.2149978
vn -0.4780863 0.8783022 0.00433591
g pb_Mesh221352_0
f 3/3/3 2/2/2 1/1/1
f 3/3/3 4/4/4 2/2/2
f 7/7/7 6/6/6 5/5/5
f 7/7/7 8/8/8 6/6/6
f 11/11/11 10/10/10 9/9/9
f 14/14/14 13/13/13 12/12/12
f 17/17/17 16/16/16 15/15/15
f 20/20/20 19/19/19 18/18/18
f 23/23/23 22/22/22 21/21/21
f 23/23/23 24/24/24 22/22/22
f 27/27/27 26/26/26 25/25/25
f 27/27/27 28/28/28 26/26/26
f 29/29/29 26/26/26 28/28/28
f 29/29/29 30/30/30 26/26/26
f 31/31/31 2/2/2 4/4/4
f 31/31/31 32/32/32 2/2/2
f 34/34/34 33/33/33 9/9/9
f 37/37/37 36/36/36 35/35/35
f 40/40/40 39/39/39 38/38/38
f 40/40/40 41/41/41 39/39/39
