g power switch glow mesh
v 0.15 1.1 0.4
v -0.15 1.1 0.4
v -0.15 2 0.3999999
v 0.15 2 0.3999999
v 0.4 2 0.1499999
v 0.4 2 -0.1500001
v 0.4 1.1 -0.1499999
v 0.4 1.1 0.15
v 0.15 1.1 -0.4
v 0.15 2 -0.4000001
v -0.15 2 -0.4000001
v -0.15 1.1 -0.4
v -0.4 1.1 0.15
v -0.4 1.1 -0.1499999
v -0.4 2 -0.1500001
v -0.4 2 0.1499999
vt 0.6875004 3.536564E-07
vt 0.3125001 3.536564E-07
vt 0.3125001 0.9999999
vt 0.6875004 0.9999999
vt 1 0.9999999
vt 1 0.9999999
vt 1 1.768282E-07
vt 1 1.768282E-07
vt 0.6875004 0
vt 0.6875004 0.9999999
vt 0.3125001 0.9999999
vt 0.3125001 0
vt 0 1.768282E-07
vt 0 1.768282E-07
vt 0 0.9999999
vt 0 0.9999999
vn 0 0 1
vn 0 0 1
vn 0 0 1
vn 0 0 1
vn 1 0 0
vn 1 0 0
vn 1 0 0
vn 1 0 0
vn 0 0 -1
vn 0 0 -1
vn 0 0 -1
vn 0 0 -1
vn -1 0 0
vn -1 0 0
vn -1 0 0
vn -1 0 0
g power switch glow mesh_0
f 3/3/3 2/2/2 1/1/1
f 4/4/4 3/3/3 1/1/1
f 7/7/7 6/6/6 5/5/5
f 8/8/8 7/7/7 5/5/5
f 11/11/11 10/10/10 9/9/9
f 12/12/12 11/11/11 9/9/9
f 15/15/15 14/14/14 13/13/13
f 16/16/16 15/15/15 13/13/13
