g Prebatch Mesh (Room -  Basement) (2018 Tile with Moss UV 1-to-1 (no moss))
v 4.999986 -6.000009 -55.26812
v 4.375327 -6.000008 -55
v 4.999984 -5.964905 -55
v 4.999992 -6.500006 -56
v 4.646436 -7.353559 -56
v 4.999988 -7.35356 -55.82323
v 9.000009 -0.5000139 -55.99994
v 8.646453 -1.353567 -55.99995
v 9.000004 -1.353568 -55.82317
v 8.999998 -0.4747673 -54.99994
v 8.999997 -1.378188 -55.10196
v 8.621453 -1.236035 -54.99995
v 5.499999 -4.000006 -55.99999
v 6.353551 -4.000009 -55.92804
v 6.353553 -3.646455 -55.99998
v 4.999986 -6.000009 -55.26812
v 4.999981 -6.761652 -55
v 4.375327 -6.000008 -55
v 5.971747 -4.00001 -54.99998
v 6.339003 -3.409022 -54.99998
v 6.433565 -4.000011 -55.2198
v 6.339003 -3.409022 -54.99998
v 6.999991 -3.083814 -54.99997
v 6.433565 -4.000011 -55.2198
v 6.433565 -4.000011 -55.2198
v 6.999991 -3.083814 -54.99997
v 6.999993 -4.000012 -55.36681
v 4.749993 -6.000006 -56
v 4.999992 -6.250006 -56
v 4.999991 -6.000007 -55.82283
v 4.749993 -6.000006 -56
v 4.999991 -6.000007 -55.82283
v 4.999994 -5.750006 -56
v 2.999995 -2.000001 -55.00001
v 3 0 -55
v 5 -5.602837E-06 -54.99998
v 4.999994 -2.000007 -54.99998
v 2.999989 -4.000002 -55.00001
v 6.999994 -2.000012 -54.99997
v 7 -1.120567E-05 -54.99996
v 5.971747 -4.00001 -54.99998
v 6.339003 -3.409022 -54.99998
v 6.999991 -3.083814 -54.99997
v 4.999989 -4.000008 -54.99999
v 4.375327 -6.000008 -55
v 2.999983 -6.000004 -55.00002
v 4.999984 -5.964905 -55
v 3 0 -55
v 3.00001 3.099442E-06 -56
v 5.00001 -2.503395E-06 -55.99998
v 5 -5.602837E-06 -54.99998
v 7 -1.120567E-05 -54.99996
v 7.00001 -8.106232E-06 -55.99996
v 2.999995 -2.000001 -55.00001
v 3.00001 3.099442E-06 -56
v 3 0 -55
v 3.000004 -1.999998 -56.00001
v 2.999999 -3.999999 -56.00001
v 2.999989 -4.000002 -55.00001
v 2.999993 -6.000001 -56.00002
v 2.999983 -6.000004 -55.00002
v 4.999984 -5.964905 -55
v 4.999989 -4.000008 -54.99999
v 4.999999 -4.000005 -55.99999
v 4.999994 -5.750006 -56
v 4.999991 -6.000007 -55.82283
v 4.999986 -6.000009 -55.26812
v 7.00001 -8.106232E-06 -55.99996
v 9.00001 -1.370907E-05 -55.99994
v 9 -1.680851E-05 -54.99994
v 7 -1.120567E-05 -54.99996
v 8.000005 -2.000012 -55.99996
v 8.999999 -2.000016 -55.49995
v 9.000004 -1.353568 -55.82317
v 8.646453 -1.353567 -55.99995
v 4.320137 -8.000009 -55.00001
v 2.999978 -8.000005 -55.00002
v 2.999983 -6.000004 -55.00002
v 4.375327 -6.000008 -55
v 4.999979 -7.50001 -55
v 4.999981 -6.761652 -55
v 4.749979 -8.00001 -55.15807
v 4.320137 -8.000009 -55.00001
v 4.999979 -7.50001 -55
v 4.99998 -7.75001 -55.125
v 4.999981 -6.761652 -55
v 4.999986 -6.000009 -55.26812
v 4.999991 -6.000007 -55.82283
v 4.999992 -6.250006 -56
v 4.999992 -6.500006 -56
v 4.999988 -7.35356 -55.82323
v 4.999979 -7.50001 -55
v 4.999985 -7.750009 -55.625
v 4.99998 -7.75001 -55.125
v 2.999983 -6.000004 -55.00002
v 2.999978 -8.000005 -55.00002
v 2.999988 -8.000002 -56.00002
v 2.999993 -6.000001 -56.00002
v 9.00001 -1.370907E-05 -55.99994
v 7.00001 -8.106232E-06 -55.99996
v 7.000005 -2.000009 -55.99997
v 8.000005 -2.000012 -55.99996
v 8.646453 -1.353567 -55.99995
v 9.000009 -0.5000139 -55.99994
v 8.999999 -2.000016 -55.49995
v 8.000005 -2.000012 -55.99996
v 7.000005 -2.000009 -55.99997
v 6.999994 -2.000012 -54.99997
v 8.999997 -2.000017 -55.24995
v 7.612092 -2.000014 -54.99996
v 6.353553 -3.646455 -55.99998
v 7.000002 -3.00001 -55.99997
v 7.000005 -2.000009 -55.99997
v 5.499999 -4.000006 -55.99999
v 4.999999 -4.000005 -55.99999
v 5.000004 -2.000004 -55.99998
v 7.00001 -8.106232E-06 -55.99996
v 5.00001 -2.503395E-06 -55.99998
v 3.00001 3.099442E-06 -56
v 3.000004 -1.999998 -56.00001
v 2.999999 -3.999999 -56.00001
v 2.999993 -6.000001 -56.00002
v 4.749993 -6.000006 -56
v 4.999994 -5.750006 -56
v 4.646436 -7.353559 -56
v 3.999988 -8.000005 -56.00002
v 4.749984 -8.000008 -55.62501
v 4.999988 -7.35356 -55.82323
v 4.999985 -7.750009 -55.625
v 7.612092 -2.000014 -54.99996
v 6.999994 -2.000012 -54.99997
v 7 -1.120567E-05 -54.99996
v 9 -1.680851E-05 -54.99994
v 8.621453 -1.236035 -54.99995
v 8.999998 -0.4747673 -54.99994
v 8.999997 -1.378188 -55.10196
v 8.999997 -2.000017 -55.24995
v 7.612092 -2.000014 -54.99996
v 8.621453 -1.236035 -54.99995
v 8.999998 -0.4747673 -54.99994
v 9 -1.680851E-05 -54.99994
v 9.00001 -1.370907E-05 -55.99994
v 9.000009 -0.5000139 -55.99994
v 8.999997 -1.378188 -55.10196
v 9.000004 -1.353568 -55.82317
v 8.999999 -2.000016 -55.49995
v 8.999997 -2.000017 -55.24995
v 6.353551 -4.000009 -55.92804
v 5.499999 -4.000006 -55.99999
v 4.999999 -4.000005 -55.99999
v 4.999989 -4.000008 -54.99999
v 6.999995 -4.000011 -55.60481
v 6.999993 -4.000012 -55.36681
v 6.433565 -4.000011 -55.2198
v 5.971747 -4.00001 -54.99998
v 6.999991 -3.083814 -54.99997
v 6.999994 -2.000012 -54.99997
v 7.000005 -2.000009 -55.99997
v 7.000002 -3.00001 -55.99997
v 6.999995 -4.000011 -55.60481
v 6.999993 -4.000012 -55.36681
v 6.353551 -4.000009 -55.92804
v 6.999995 -4.000011 -55.60481
v 7.000002 -3.00001 -55.99997
v 6.353553 -3.646455 -55.99998
v 4.999985 -7.750009 -55.625
v 4.749984 -8.000008 -55.62501
v 4.749979 -8.00001 -55.15807
v 4.99998 -7.75001 -55.125
v 4.749984 -8.000008 -55.62501
v 3.999988 -8.000005 -56.00002
v 2.999988 -8.000002 -56.00002
v 2.999978 -8.000005 -55.00002
v 4.749979 -8.00001 -55.15807
v 4.320137 -8.000009 -55.00001
v 4.749993 -6.000006 -56
v 2.999993 -6.000001 -56.00002
v 2.999988 -8.000002 -56.00002
v 3.999988 -8.000005 -56.00002
v 4.646436 -7.353559 -56
v 4.999992 -6.500006 -56
v 4.999992 -6.250006 -56
vt 0.4742972 0.625
vt 0.5078125 0.585959
vt 0.5078125 0.625
vt 0.6015625 0.375
vt 0.5482154 0.375
vt 0.5482154 0.3970971
vt 0.4765625 0.375
vt 0.4232154 0.375
vt 0.4232154 0.3970971
vt 0.4781406 0.375
vt 0.4216768 0.375
vt 0.4305613 0.351341
vt 0.2578125 0.65625
vt 0.2578125 0.7095971
vt 0.2799096 0.7095971
vt 0.6328125 0.625
vt 0.5852099 0.625
vt 0.6328125 0.585959
vt 0.2578125 0.6857349
vt 0.2947493 0.7086883
vt 0.2578125 0.7145984
vt 0.2947493 0.7086883
vt 0.315075 0.75
vt 0.2578125 0.7145984
vt 0.2578125 0.7145984
vt 0.315075 0.75
vt 0.2578125 0.75
vt 0.6328125 0.375
vt 0.6171875 0.375
vt 0.6328125 0.3971453
vt 0.6328125 0.375
vt 0.6328125 0.3971453
vt 0.6484375 0.375
vt 0.3828125 0.5
vt 0.5078125 0.5
vt 0.5078125 0.625
vt 0.3828125 0.625
vt 0.2578125 0.5
vt 0.3828125 0.75
vt 0.5078125 0.75
vt 0.2578125 0.6857349
vt 0.2947493 0.7086883
vt 0.315075 0.75
vt 0.2578125 0.625
vt 0.1328125 0.585959
vt 0.1328125 0.5
vt 0.1350065 0.625
vt 0.5078125 0.5
vt 0.3828125 0.5
vt 0.3828125 0.625
vt 0.5078125 0.625
vt 0.5078125 0.75
vt 0.3828125 0.75
vt 0.3828125 0.5
vt 0.5078125 0.375
vt 0.5078125 0.5
vt 0.3828125 0.375
vt 0.2578125 0.375
vt 0.2578125 0.5
vt 0.1328125 0.375
vt 0.1328125 0.5
vt 0.1350065 0.5
vt 0.2578125 0.5
vt 0.2578125 0.375
vt 0.1484375 0.375
vt 0.1328125 0.3971453
vt 0.1328125 0.4664847
vt 0.3828125 0.25
vt 0.3828125 0.375
vt 0.5078125 0.375
vt 0.5078125 0.25
vt 0.3828125 0.375
vt 0.3828125 0.4375
vt 0.4232154 0.3970971
vt 0.4232154 0.375
vt 0.5078125 0.5825099
vt 0.5078125 0.5
vt 0.6328125 0.5
vt 0.6328125 0.585959
vt 0.5390625 0.625
vt 0.5852099 0.625
vt 0.5078125 0.609375
vt 0.5078125 0.5825099
vt 0.5390625 0.625
vt 0.5234375 0.625
vt 0.5852099 0.5
vt 0.6328125 0.4664847
vt 0.6328125 0.3971453
vt 0.6171875 0.375
vt 0.6015625 0.375
vt 0.5482154 0.3970971
vt 0.5390625 0.5
vt 0.5234375 0.421875
vt 0.5234375 0.484375
vt 0.6328125 0.5
vt 0.5078125 0.5
vt 0.5078125 0.375
vt 0.6328125 0.375
vt 0.5078125 0.375
vt 0.5078125 0.25
vt 0.3828125 0.25
vt 0.3828125 0.3125
vt 0.4232154 0.3529029
vt 0.4765625 0.375
vt 0.4453125 0.375
vt 0.3828125 0.3125
vt 0.3828125 0.25
vt 0.5078125 0.25
vt 0.4765625 0.375
vt 0.5078125 0.288256
vt 0.2799096 0.7095971
vt 0.3203125 0.75
vt 0.3828125 0.75
vt 0.2578125 0.65625
vt 0.2578125 0.625
vt 0.3828125 0.625
vt 0.5078125 0.75
vt 0.5078125 0.625
vt 0.5078125 0.5
vt 0.3828125 0.5
vt 0.2578125 0.5
vt 0.1328125 0.5
vt 0.1328125 0.609375
vt 0.1484375 0.625
vt 0.5482154 0.375
vt 0.5078125 0.375
vt 0.5078125 0.421875
vt 0.5482154 0.3970971
vt 0.5234375 0.421875
vt 0.3828125 0.288256
vt 0.3828125 0.25
vt 0.5078125 0.25
vt 0.5078125 0.375
vt 0.4305613 0.351341
vt 0.4781406 0.375
vt 0.4216768 0.375
vt 0.3828125 0.375
vt 0.3828125 0.288256
vt 0.4305613 0.351341
vt 0.4781406 0.5
vt 0.5078125 0.5
vt 0.5078125 0.375
vt 0.4765625 0.375
vt 0.4216768 0.487248
vt 0.4232154 0.3970971
vt 0.3828125 0.4375
vt 0.3828125 0.46875
vt 0.391805 0.7095971
vt 0.3828125 0.65625
vt 0.3828125 0.625
vt 0.5078125 0.625
vt 0.4322079 0.75
vt 0.4619576 0.75
vt 0.4803353 0.7145984
vt 0.5078125 0.6857349
vt 0.315075 0.5
vt 0.3828125 0.5
vt 0.3828125 0.375
vt 0.3203125 0.375
vt 0.2578125 0.4243954
vt 0.2578125 0.4541451
vt 0.2578125 0.7095971
vt 0.2578125 0.75
vt 0.3203125 0.75
vt 0.2799096 0.7095971
vt 0.5234375 0.421875
vt 0.5078125 0.421875
vt 0.5078125 0.4802417
vt 0.5234375 0.484375
vt 0.4296875 0.609375
vt 0.3828125 0.5625
vt 0.3828125 0.5
vt 0.5078125 0.5
vt 0.4880542 0.609375
vt 0.5078125 0.5825099
vt 0.6328125 0.609375
vt 0.6328125 0.5
vt 0.5078125 0.5
vt 0.5078125 0.5625
vt 0.5482154 0.6029029
vt 0.6015625 0.625
vt 0.6171875 0.625
vn 0.05598597 -0.9962998 0.03260767
vn 0.05598597 -0.9962998 0.03260767
vn 0.05598597 -0.9962998 0.03260767
vn 0.6786011 -0.2810858 -0.3392932
vn 0.6786011 -0.2810858 -0.3392932
vn 0.6786011 -0.2810858 -0.3392932
vn 0.678601 -0.2810857 -0.3392934
vn 0.678601 -0.2810857 -0.3392934
vn 0.678601 -0.2810857 -0.3392934
vn 0.4050491 -0.2014173 0.4459191
vn 0.4050491 -0.2014173 0.4459191
vn 0.4050491 -0.2014173 0.4459191
vn 0.1542672 -0.3724245 -0.4575753
vn 0.1542672 -0.3724245 -0.4575753
vn 0.1542672 -0.3724245 -0.4575753
vn 0.5745248 0.4711925 0.3346315
vn 0.5745248 0.4711925 0.3346315
vn 0.5745248 0.4711925 0.3346315
vn 0.6337687 -0.3938439 0.3328793
vn 0.6337687 -0.3938439 0.3328793
vn 0.6337687 -0.3938439 0.3328793
vn 0.2690125 -0.5467806 0.3964423
vn 0.2690125 -0.5467806 0.3964423
vn 0.2690125 -0.5467806 0.3964423
vn 0.3755438 -0.5793173 0.3617191
vn 0.3755438 -0.5793173 0.3617191
vn 0.3755438 -0.5793173 0.3617191
vn 0.6327352 0.6327301 -0.2232088
vn 0.6327352 0.6327301 -0.2232088
vn 0.6327352 0.6327301 -0.2232088
vn 0.6327317 -0.6327323 -0.2232125
vn 0.6327317 -0.6327323 -0.2232125
vn 0.6327317 -0.6327323 -0.2232125
vn -4.902482E-06 -1.549721E-06 0.5
vn -4.902482E-06 -1.549721E-06 0.5
vn -4.902482E-06 -1.549721E-06 0.5
vn -4.902482E-06 -1.549721E-06 0.5
vn -4.902482E-06 -1.549721E-06 0.5
vn -4.902482E-06 -1.549721E-06 0.5
vn -4.902482E-06 -1.549721E-06 0.5
vn -4.902482E-06 -1.549721E-06 0.5
vn -4.902482E-06 -1.549721E-06 0.5
vn -4.902482E-06 -1.549721E-06 0.5
vn -4.902482E-06 -1.549721E-06 0.5
vn -4.902482E-06 -1.549721E-06 0.5
vn -4.902482E-06 -1.549721E-06 0.5
vn -4.902482E-06 -1.549721E-06 0.5
vn 2.741814E-06 1.000001 2.920629E-06
vn 2.741814E-06 1.000001 2.920629E-06
vn 2.741814E-06 1.000001 2.920629E-06
vn 2.741814E-06 1.000001 2.920629E-06
vn 2.741814E-06 1.000001 2.920629E-06
vn 2.741814E-06 1.000001 2.920629E-06
vn -1 2.801418E-06 -9.715557E-06
vn -1 2.801418E-06 -9.715557E-06
vn -1 2.801418E-06 -9.715557E-06
vn -1 2.801418E-06 -9.715557E-06
vn -1 2.801418E-06 -9.715557E-06
vn -1 2.801418E-06 -9.715557E-06
vn -1 2.801418E-06 -9.715557E-06
vn -1 2.801418E-06 -9.715557E-06
vn 1 -2.801418E-06 9.715557E-06
vn 1 -2.801418E-06 9.715557E-06
vn 1 -2.801418E-06 9.715557E-06
vn 1 -2.801418E-06 9.715557E-06
vn 1 -2.801418E-06 9.715557E-06
vn 1 -2.801418E-06 9.715557E-06
vn 2.741814E-06 1.000001 2.920629E-06
vn 2.741814E-06 1.000001 2.920629E-06
vn 2.741814E-06 1.000001 2.920629E-06
vn 2.741814E-06 1.000001 2.920629E-06
vn 0.5773514 -0.5773513 -0.2886712
vn 0.5773514 -0.5773513 -0.2886712
vn 0.5773514 -0.5773513 -0.2886712
vn 0.5773514 -0.5773513 -0.2886712
vn -4.902482E-06 -1.549721E-06 0.5
vn -4.902482E-06 -1.549721E-06 0.5
vn -4.902482E-06 -1.549721E-06 0.5
vn -4.902482E-06 -1.549721E-06 0.5
vn -4.902482E-06 -1.549721E-06 0.5
vn -4.902482E-06 -1.549721E-06 0.5
vn 0.4613846 -0.6273459 0.3136746
vn 0.4613846 -0.6273459 0.3136746
vn 0.4613846 -0.6273459 0.3136746
vn 0.4613846 -0.6273459 0.3136746
vn 1 -2.801418E-06 9.715557E-06
vn 1 -2.801418E-06 9.715557E-06
vn 1 -2.801418E-06 9.715557E-06
vn 1 -2.801418E-06 9.715557E-06
vn 1 -2.801418E-06 9.715557E-06
vn 1 -2.801418E-06 9.715557E-06
vn 1 -2.801418E-06 9.715557E-06
vn 1 -2.801418E-06 9.715557E-06
vn 1 -2.801418E-06 9.715557E-06
vn -1 2.801418E-06 -9.715557E-06
vn -1 2.801418E-06 -9.715557E-06
vn -1 2.801418E-06 -9.715557E-06
vn -1 2.801418E-06 -9.715557E-06
vn 4.902482E-06 1.549721E-06 -0.5
vn 4.902482E-06 1.549721E-06 -0.5
vn 4.902482E-06 1.549721E-06 -0.5
vn 4.902482E-06 1.549721E-06 -0.5
vn 4.902482E-06 1.549721E-06 -0.5
vn 4.902482E-06 1.549721E-06 -0.5
vn -2.741814E-06 -1.000001 -2.920629E-06
vn -2.741814E-06 -1.000001 -2.920629E-06
vn -2.741814E-06 -1.000001 -2.920629E-06
vn -2.741814E-06 -1.000001 -2.920629E-06
vn -2.741814E-06 -1.000001 -2.920629E-06
vn -2.741814E-06 -1.000001 -2.920629E-06
vn 4.902482E-06 1.549721E-06 -0.5
vn 4.902482E-06 1.549721E-06 -0.5
vn 4.902482E-06 1.549721E-06 -0.5
vn 4.902482E-06 1.549721E-06 -0.5
vn 4.902482E-06 1.549721E-06 -0.5
vn 4.902482E-06 1.549721E-06 -0.5
vn 4.902482E-06 1.549721E-06 -0.5
vn 4.902482E-06 1.549721E-06 -0.5
vn 4.902482E-06 1.549721E-06 -0.5
vn 4.902482E-06 1.549721E-06 -0.5
vn 4.902482E-06 1.549721E-06 -0.5
vn 4.902482E-06 1.549721E-06 -0.5
vn 4.902482E-06 1.549721E-06 -0.5
vn 4.902482E-06 1.549721E-06 -0.5
vn 0.5773515 -0.5773513 -0.2886712
vn 0.5773515 -0.5773513 -0.2886712
vn 0.5773515 -0.5773513 -0.2886712
vn 0.5773515 -0.5773513 -0.2886712
vn 0.5773515 -0.5773513 -0.2886712
vn -4.902482E-06 -1.549721E-06 0.5
vn -4.902482E-06 -1.549721E-06 0.5
vn -4.902482E-06 -1.549721E-06 0.5
vn -4.902482E-06 -1.549721E-06 0.5
vn -4.902482E-06 -1.549721E-06 0.5
vn -4.902482E-06 -1.549721E-06 0.5
vn 0.3093296 -0.4086905 0.4293286
vn 0.3093296 -0.4086905 0.4293286
vn 0.3093296 -0.4086905 0.4293286
vn 0.3093296 -0.4086905 0.4293286
vn 1 -2.801418E-06 9.715557E-06
vn 1 -2.801418E-06 9.715557E-06
vn 1 -2.801418E-06 9.715557E-06
vn 1 -2.801418E-06 9.715557E-06
vn 1 -2.801418E-06 9.715557E-06
vn 1 -2.801418E-06 9.715557E-06
vn 1 -2.801418E-06 9.715557E-06
vn 1 -2.801418E-06 9.715557E-06
vn -2.741814E-06 -1.000001 -2.920629E-06
vn -2.741814E-06 -1.000001 -2.920629E-06
vn -2.741814E-06 -1.000001 -2.920629E-06
vn -2.741814E-06 -1.000001 -2.920629E-06
vn -2.741814E-06 -1.000001 -2.920629E-06
vn -2.741814E-06 -1.000001 -2.920629E-06
vn -2.741814E-06 -1.000001 -2.920629E-06
vn -2.741814E-06 -1.000001 -2.920629E-06
vn 1 -2.801418E-06 9.715557E-06
vn 1 -2.801418E-06 9.715557E-06
vn 1 -2.801418E-06 9.715557E-06
vn 1 -2.801418E-06 9.715557E-06
vn 1 -2.801418E-06 9.715557E-06
vn 1 -2.801418E-06 9.715557E-06
vn 0.5709926 -0.4663292 -0.3378226
vn 0.5709926 -0.4663292 -0.3378226
vn 0.5709926 -0.4663292 -0.3378226
vn 0.5709926 -0.4663292 -0.3378226
vn 0.7071047 -0.7071092 4.768372E-06
vn 0.7071047 -0.7071092 4.768372E-06
vn 0.7071047 -0.7071092 4.768372E-06
vn 0.7071047 -0.7071092 4.768372E-06
vn -2.741814E-06 -1.000001 -2.920629E-06
vn -2.741814E-06 -1.000001 -2.920629E-06
vn -2.741814E-06 -1.000001 -2.920629E-06
vn -2.741814E-06 -1.000001 -2.920629E-06
vn -2.741814E-06 -1.000001 -2.920629E-06
vn -2.741814E-06 -1.000001 -2.920629E-06
vn 4.902482E-06 1.549721E-06 -0.5
vn 4.902482E-06 1.549721E-06 -0.5
vn 4.902482E-06 1.549721E-06 -0.5
vn 4.902482E-06 1.549721E-06 -0.5
vn 4.902482E-06 1.549721E-06 -0.5
vn 4.902482E-06 1.549721E-06 -0.5
vn 4.902482E-06 1.549721E-06 -0.5
g Prebatch Mesh (Room -  Basement) (2018 Tile with Moss UV 1-to-1 (no moss))_0
f 3/3/3 2/2/2 1/1/1
f 6/6/6 5/5/5 4/4/4
f 9/9/9 8/8/8 7/7/7
f 12/12/12 11/11/11 10/10/10
f 15/15/15 14/14/14 13/13/13
f 18/18/18 17/17/17 16/16/16
f 21/21/21 20/20/20 19/19/19
f 24/24/24 23/23/23 22/22/22
f 27/27/27 26/26/26 25/25/25
f 30/30/30 29/29/29 28/28/28
f 33/33/33 32/32/32 31/31/31
f 36/36/36 35/35/35 34/34/34
f 37/37/37 36/36/36 34/34/34
f 34/34/34 38/38/38 37/37/37
f 37/37/37 39/39/39 36/36/36
f 39/39/39 40/40/40 36/36/36
f 41/41/41 39/39/39 37/37/37
f 41/41/41 42/42/42 39/39/39
f 42/42/42 43/43/43 39/39/39
f 37/37/37 44/44/44 41/41/41
f 38/38/38 44/44/44 37/37/37
f 45/45/45 44/44/44 38/38/38
f 38/38/38 46/46/46 45/45/45
f 45/45/45 47/47/47 44/44/44
f 50/50/50 49/49/49 48/48/48
f 51/51/51 50/50/50 48/48/48
f 51/51/51 52/52/52 50/50/50
f 52/52/52 53/53/53 50/50/50
f 56/56/56 55/55/55 54/54/54
f 55/55/55 57/57/57 54/54/54
f 57/57/57 58/58/58 54/54/54
f 58/58/58 59/59/59 54/54/54
f 58/58/58 60/60/60 59/59/59
f 60/60/60 61/61/61 59/59/59
f 64/64/64 63/63/63 62/62/62
f 62/62/62 65/65/65 64/64/64
f 62/62/62 66/66/66 65/65/65
f 62/62/62 67/67/67 66/66/66
f 70/70/70 69/69/69 68/68/68
f 71/71/71 70/70/70 68/68/68
f 74/74/74 73/73/73 72/72/72
f 75/75/75 74/74/74 72/72/72
f 78/78/78 77/77/77 76/76/76
f 76/76/76 79/79/79 78/78/78
f 76/76/76 80/80/80 79/79/79
f 80/80/80 81/81/81 79/79/79
f 84/84/84 83/83/83 82/82/82
f 85/85/85 84/84/84 82/82/82
f 88/88/88 87/87/87 86/86/86
f 86/86/86 89/89/89 88/88/88
f 86/86/86 90/90/90 89/89/89
f 86/86/86 91/91/91 90/90/90
f 86/86/86 92/92/92 91/91/91
f 92/92/92 93/93/93 91/91/91
f 92/92/92 94/94/94 93/93/93
f 97/97/97 96/96/96 95/95/95
f 98/98/98 97/97/97 95/95/95
f 101/101/101 100/100/100 99/99/99
f 99/99/99 102/102/102 101/101/101
f 99/99/99 103/103/103 102/102/102
f 99/99/99 104/104/104 103/103/103
f 107/107/107 106/106/106 105/105/105
f 105/105/105 108/108/108 107/107/107
f 105/105/105 109/109/109 108/108/108
f 109/109/109 110/110/110 108/108/108
f 113/113/113 112/112/112 111/111/111
f 113/113/113 111/111/111 114/114/114
f 113/113/113 114/114/114 115/115/115
f 115/115/115 116/116/116 113/113/113
f 117/117/117 113/113/113 116/116/116
f 118/118/118 117/117/117 116/116/116
f 118/118/118 116/116/116 119/119/119
f 116/116/116 120/120/120 119/119/119
f 116/116/116 115/115/115 120/120/120
f 115/115/115 121/121/121 120/120/120
f 122/122/122 121/121/121 115/115/115
f 115/115/115 123/123/123 122/122/122
f 115/115/115 124/124/124 123/123/123
f 127/127/127 126/126/126 125/125/125
f 125/125/125 128/128/128 127/127/127
f 128/128/128 129/129/129 127/127/127
f 132/132/132 131/131/131 130/130/130
f 130/130/130 133/133/133 132/132/132
f 130/130/130 134/134/134 133/133/133
f 134/134/134 135/135/135 133/133/133
f 138/138/138 137/137/137 136/136/136
f 139/139/139 138/138/138 136/136/136
f 142/142/142 141/141/141 140/140/140
f 140/140/140 143/143/143 142/142/142
f 140/140/140 144/144/144 143/143/143
f 144/144/144 145/145/145 143/143/143
f 144/144/144 146/146/146 145/145/145
f 144/144/144 147/147/147 146/146/146
f 150/150/150 149/149/149 148/148/148
f 148/148/148 151/151/151 150/150/150
f 148/148/148 152/152/152 151/151/151
f 152/152/152 153/153/153 151/151/151
f 153/153/153 154/154/154 151/151/151
f 154/154/154 155/155/155 151/151/151
f 158/158/158 157/157/157 156/156/156
f 156/156/156 159/159/159 158/158/158
f 156/156/156 160/160/160 159/159/159
f 156/156/156 161/161/161 160/160/160
f 164/164/164 163/163/163 162/162/162
f 165/165/165 164/164/164 162/162/162
f 168/168/168 167/167/167 166/166/166
f 169/169/169 168/168/168 166/166/166
f 172/172/172 171/171/171 170/170/170
f 170/170/170 173/173/173 172/172/172
f 170/170/170 174/174/174 173/173/173
f 174/174/174 175/175/175 173/173/173
f 178/178/178 177/177/177 176/176/176
f 176/176/176 179/179/179 178/178/178
f 176/176/176 180/180/180 179/179/179
f 176/176/176 181/181/181 180/180/180
f 176/176/176 182/182/182 181/181/181
