g Prebatch Mesh (root) (2018 Tile with Moss UV 1-to-1 Upnormal)
v 1.420006 21.35 68.72501
v 2.000006 20.77 68.72501
v 2.000004 21.35 69.30501
v 1.420006 21.35 68.72501
v 2.000007 21.35 68.37962
v 2.000006 20.77 68.72501
v 1.999994 21.11 72.72501
v 1.999993 21.35 72.965
v 1.759995 21.35 72.72501
v 2.000002 21.35 70.125
v 2 20.75 70.72501
v 1.4 21.35 70.72501
v 2 20.75 70.72501
v 2 20.35 70.72501
v 1.002999 20.35 70.72501
v 1.002999 21.35 70.72501
v 1.4 21.35 70.72501
v 1.002994 21.35 72.72501
v 1.002994 20.35 72.72501
v 1.999994 20.35 72.72501
v 1.999994 21.11 72.72501
v 1.759995 21.35 72.72501
v 2 19.35 70.72501
v 2 20.35 70.72501
v 2 20.75 70.72501
v 2.000002 21.35 70.125
v 2.000004 21.35 69.30501
v 2.000006 19.35 68.72501
v 2.000006 20.77 68.72501
v 2.000007 21.35 68.37962
v 2.000011 19.35 66.72501
v 2.000011 21.35 66.72501
v 2 20.35 70.72501
v 1.999994 19.35 72.72501
v 1.999994 20.35 72.72501
v 1.999989 19.35 74.72501
v 1.999989 20.35 74.72501
v 1.999993 21.35 72.965
v 1.999994 21.11 72.72501
v 1.999989 21.35 74.72501
v 2.000011 21.35 66.72501
v 2.000007 21.35 68.37962
v 1.420006 21.35 68.72501
v 1.144409E-05 21.35 66.725
v 5.722046E-06 21.35 68.725
v 1.002999 21.35 70.72501
v 0 21.35 70.725
v -5.722046E-06 21.35 72.725
v 1.4 21.35 70.72501
v 2.000002 21.35 70.125
v 2.000004 21.35 69.30501
v 1.002994 21.35 72.72501
v -1.144409E-05 21.35 74.725
v 1.002988 21.35 74.72501
v 1.999989 21.35 74.72501
v 1.759995 21.35 72.72501
v 1.999993 21.35 72.965
v 1.002994 20.35 72.72501
v 1.002999 20.35 70.72501
v 2 20.35 70.72501
v 1.999994 20.35 72.72501
v 1.002999 21.35 70.72501
v 1.002999 20.35 70.72501
v 1.002994 20.35 72.72501
v 1.002994 21.35 72.72501
v 1.85717 20.30939 71.14941
v 1.870399 20.61317 70.68458
v 1.987574 20.32739 70.68816
v 1.639743 20.57588 71.14489
v 1.778485 20.30918 71.65198
v 1.561842 20.99858 70.67822
v 1.604534 20.53589 71.67445
v 1.812085 20.32765 72.20469
v 1.360219 20.90825 71.15826
v 0.9801474 21.27164 70.6725
v 0.9790506 21.05944 71.1615
v 1.358894 20.84779 71.70999
v 0.9738932 20.98681 71.70924
v 1.606717 20.54354 72.21897
v 1.973356 20.33322 72.73177
v 1.69922 20.58713 72.75891
v 1.350546 20.8217 72.23648
v 0.9679928 21.06014 72.25362
v 1.417646 20.86529 72.75844
v 0.9804659 21.32713 72.74464
vt 0.7387399 0.2507755
vt 0.6408179 0.2507755
vt 0.702898 0.3224593
vt 0.7387399 0.2507755
vt 0.702898 0.2080877
vt 0.6408179 0.2507755
vt 0.3093258 0.31406
vt 0.2943259 0.32906
vt 0.3093258 0.32906
vt 0.4718259 0.32906
vt 0.4343258 0.29156
vt 0.4343258 0.32906
vt 0.6250937 0.2125937
vt 0.6250937 0.1875937
vt 0.6874062 0.1875937
vt 0.6874063 0.2500937
vt 0.6625937 0.2500937
vt 0.8125936 0.1241172
vt 0.8125937 0.1866172
vt 0.8749062 0.1866172
vt 0.8749062 0.1391172
vt 0.8599062 0.1241172
vt 0.625 0.125
vt 0.625 0.1875
vt 0.625 0.2125
vt 0.6625 0.25
vt 0.71375 0.25
vt 0.75 0.125
vt 0.75 0.21375
vt 0.78625 0.25
vt 0.875 0.125
vt 0.875 0.25
vt 0.625 0.1875
vt 0.5 0.125
vt 0.5 0.1875
vt 0.375 0.125
vt 0.375 0.1875
vt 0.485 0.25
vt 0.5 0.235
vt 0.375 0.25
vt 0.875 0.375
vt 0.78625 0.375
vt 0.75 0.33875
vt 0.875 0.25
vt 0.75 0.25
vt 0.625 0.3125
vt 0.625 0.25
vt 0.5 0.25
vt 0.625 0.3373872
vt 0.6625 0.375
vt 0.71375 0.375
vt 0.5 0.3125
vt 0.375 0.25
vt 0.375 0.3125
vt 0.375 0.375
vt 0.5 0.3599549
vt 0.485 0.375
vt 0.625 0.1876875
vt 0.75 0.1876875
vt 0.75 0.25
vt 0.625 0.25
vt 0.7490234 0.25
vt 0.7490234 0.1875
vt 0.6240234 0.1875
vt 0.6240234 0.25
vt 0.2419166 0.4244316
vt 0.2302195 0.435978
vt 0.2409087 0.4375441
vt 0.2329649 0.422513
vt 0.2429281 0.4112577
vt 0.2177794 0.4338285
vt 0.2356308 0.4089592
vt 0.246204 0.3972297
vt 0.2223345 0.4202093
vt 0.2047299 0.4310347
vt 0.2108148 0.4176794
vt 0.2262985 0.4063298
vt 0.2150514 0.4036502
vt 0.238083 0.3951209
vt 0.25111 0.3837065
vt 0.2411248 0.3806895
vt 0.2280921 0.3919307
vt 0.2165759 0.3893878
vt 0.229015 0.3777472
vt 0.2154602 0.3756326
vn 0.5773519 0.5773503 -0.5773486
vn 0.5773519 0.5773503 -0.5773486
vn 0.5773519 0.5773503 -0.5773486
vn 0.4554893 0.4554918 0.76489
vn 0.4554893 0.4554918 0.76489
vn 0.4554893 0.4554918 0.76489
vn 0.5773523 0.5773494 -0.577349
vn 0.5773523 0.5773494 -0.577349
vn 0.5773523 0.5773494 -0.577349
vn 0.5773486 0.5773503 0.5773519
vn 0.5773486 0.5773503 0.5773519
vn 0.5773486 0.5773503 0.5773519
vn -2.920628E-06 0 1
vn -2.920628E-06 0 1
vn -2.920628E-06 0 1
vn -2.920628E-06 0 1
vn -2.920628E-06 0 1
vn 2.920628E-06 0 -1
vn 2.920628E-06 0 -1
vn 2.920628E-06 0 -1
vn 2.920628E-06 0 -1
vn 2.920628E-06 0 -1
vn 1 0 2.920628E-06
vn 1 0 2.920628E-06
vn 1 0 2.920628E-06
vn 1 0 2.920628E-06
vn 1 0 2.920628E-06
vn 1 0 2.920628E-06
vn 1 0 2.920628E-06
vn 1 0 2.920628E-06
vn 1 0 2.920628E-06
vn 1 0 2.920628E-06
vn 1 0 2.920628E-06
vn 1 0 2.920628E-06
vn 1 0 2.920628E-06
vn 1 0 2.920628E-06
vn 1 0 2.920628E-06
vn 1 0 2.920628E-06
vn 1 0 2.920628E-06
vn 1 0 2.920628E-06
vn 0 1 0
vn 0 1 0
vn 0 1 0
vn 0 1 0
vn 0 1 0
vn 0 1 0
vn 0 1 0
vn 0 1 0
vn 0 1 0
vn 0 1 0
vn 0 1 0
vn 0 1 0
vn 0 1 0
vn 0 1 0
vn 0 1 0
vn 0 1 0
vn 0 1 0
vn 0 1 0
vn 0 1 0
vn 0 1 0
vn 0 1 0
vn 1 0 2.920628E-06
vn 1 0 2.920628E-06
vn 1 0 2.920628E-06
vn 1 0 2.920628E-06
vn 0.7985085 0.55353 0.2366191
vn 0.7617259 0.5306972 0.3716642
vn 0.8010649 0.4903812 0.3432509
vn 0.77232 0.5870078 0.2427831
vn 0.7719973 0.6343282 0.04059196
vn 0.5774798 0.718021 0.3885394
vn 0.7702461 0.6363886 0.04160005
vn 0.7190623 0.6844532 -0.1203045
vn 0.5610381 0.7893242 0.2494065
vn 0.3774075 0.8585846 0.3469813
vn 0.3682123 0.8986045 0.2385994
vn 0.6032418 0.7962451 0.04575002
vn 0.398094 0.9164649 0.04016459
vn 0.7295903 0.6772192 -0.09524804
vn 0.6779644 0.7090635 -0.1938895
vn 0.6923308 0.6991056 -0.1786885
vn 0.6443843 0.7557487 -0.1166733
vn 0.551214 0.8168252 -0.1701754
vn 0.6683742 0.7114058 -0.2172042
vn 0.6241444 0.7319061 -0.2734177
g Prebatch Mesh (root) (2018 Tile with Moss UV 1-to-1 Upnormal)_0
f 3/3/3 2/2/2 1/1/1
f 6/6/6 5/5/5 4/4/4
f 9/9/9 8/8/8 7/7/7
f 12/12/12 11/11/11 10/10/10
f 15/15/15 14/14/14 13/13/13
f 13/13/13 16/16/16 15/15/15
f 13/13/13 17/17/17 16/16/16
f 20/20/20 19/19/19 18/18/18
f 18/18/18 21/21/21 20/20/20
f 18/18/18 22/22/22 21/21/21
f 25/25/25 24/24/24 23/23/23
f 26/26/26 25/25/25 23/23/23
f 27/27/27 26/26/26 23/23/23
f 27/27/27 23/23/23 28/28/28
f 28/28/28 29/29/29 27/27/27
f 30/30/30 29/29/29 28/28/28
f 30/30/30 28/28/28 31/31/31
f 31/31/31 32/32/32 30/30/30
f 34/34/34 23/23/23 33/33/33
f 35/35/35 34/34/34 33/33/33
f 36/36/36 34/34/34 35/35/35
f 37/37/37 36/36/36 35/35/35
f 38/38/38 37/37/37 35/35/35
f 35/35/35 39/39/39 38/38/38
f 38/38/38 40/40/40 37/37/37
f 43/43/43 42/42/42 41/41/41
f 43/43/43 41/41/41 44/44/44
f 44/44/44 45/45/45 43/43/43
f 46/46/46 43/43/43 45/45/45
f 45/45/45 47/47/47 46/46/46
f 46/46/46 47/47/47 48/48/48
f 46/46/46 49/49/49 43/43/43
f 49/49/49 50/50/50 43/43/43
f 50/50/50 51/51/51 43/43/43
f 52/52/52 46/46/46 48/48/48
f 52/52/52 48/48/48 53/53/53
f 54/54/54 52/52/52 53/53/53
f 52/52/52 54/54/54 55/55/55
f 55/55/55 56/56/56 52/52/52
f 55/55/55 57/57/57 56/56/56
f 60/60/60 59/59/59 58/58/58
f 61/61/61 60/60/60 58/58/58
f 64/64/64 63/63/63 62/62/62
f 65/65/65 64/64/64 62/62/62
f 68/68/68 67/67/67 66/66/66
f 67/67/67 69/69/69 66/66/66
f 66/66/66 69/69/69 70/70/70
f 67/67/67 71/71/71 69/69/69
f 69/69/69 72/72/72 70/70/70
f 70/70/70 72/72/72 73/73/73
f 71/71/71 74/74/74 69/69/69
f 69/69/69 74/74/74 72/72/72
f 71/71/71 75/75/75 74/74/74
f 75/75/75 76/76/76 74/74/74
f 74/74/74 76/76/76 77/77/77
f 74/74/74 77/77/77 72/72/72
f 76/76/76 78/78/78 77/77/77
f 72/72/72 79/79/79 73/73/73
f 72/72/72 77/77/77 79/79/79
f 73/73/73 79/79/79 80/80/80
f 79/79/79 81/81/81 80/80/80
f 77/77/77 78/78/78 82/82/82
f 77/77/77 82/82/82 79/79/79
f 79/79/79 82/82/82 81/81/81
f 78/78/78 83/83/83 82/82/82
f 82/82/82 84/84/84 81/81/81
f 82/82/82 83/83/83 84/84/84
f 83/83/83 85/85/85 84/84/84
