g Prebatch Mesh (root) (2018 Tile with Moss UV 1-to-1 Upnormal)
v 11.42 7.999993 -192
v 12 7.419992 -192
v 12 7.999994 -191.42
v 11.42 7.999993 -192
v 12 7.999991 -192.3454
v 12 7.419992 -192
v 12 7.760005 -188
v 12 8.000006 -187.76
v 11.76 8.000005 -188
v 12 7.999997 -190.6
v 12 7.399999 -190
v 11.4 7.999999 -190
v 12 7.399999 -190
v 12 6.999999 -190
v 11.003 6.999999 -190
v 11.003 7.999999 -190
v 11.4 7.999999 -190
v 11.003 8.000006 -188
v 11.003 7.000005 -188
v 12 7.000005 -188
v 12 7.760005 -188
v 11.76 8.000005 -188
v 12 5.999999 -190
v 12 6.999999 -190
v 12 7.399999 -190
v 12 7.999997 -190.6
v 12 7.999994 -191.42
v 12 5.999992 -192
v 12 7.419992 -192
v 12 7.999991 -192.3454
v 12 5.999987 -194
v 12 7.999987 -194
v 12 6.999999 -190
v 12 6.000004 -188
v 12 7.000005 -188
v 12 6.00001 -186
v 12 7.00001 -186
v 12 8.000006 -187.76
v 12 7.760005 -188
v 12 8.00001 -186
v 12 7.999987 -194
v 12 7.999991 -192.3454
v 11.42 7.999993 -192
v 10 7.999988 -194
v 10 7.999994 -192
v 11.003 7.999999 -190
v 10 8 -190
v 10 8.000006 -188
v 11.4 7.999999 -190
v 12 7.999997 -190.6
v 12 7.999994 -191.42
v 11.003 8.000006 -188
v 10 8.000011 -186
v 11.003 8.000011 -186
v 12 8.00001 -186
v 11.76 8.000005 -188
v 12 8.000006 -187.76
v 11.003 7.000005 -188
v 11.003 6.999999 -190
v 12 6.999999 -190
v 12 7.000005 -188
v 11.003 7.999999 -190
v 11.003 6.999999 -190
v 11.003 7.000005 -188
v 11.003 8.000006 -188
v 11.85717 6.959394 -189.5756
v 11.8704 7.263168 -190.0404
v 11.98757 6.977387 -190.0368
v 11.63974 7.225881 -189.5801
v 11.77849 6.959182 -189.073
v 11.56184 7.648576 -190.0468
v 11.60454 7.185893 -189.0506
v 11.81209 6.977652 -188.5203
v 11.36022 7.558252 -189.5667
v 10.98015 7.921644 -190.0525
v 10.97905 7.709444 -189.5635
v 11.3589 7.497791 -189.015
v 10.9739 7.636809 -189.0158
v 11.60672 7.193547 -188.506
v 11.97336 6.983226 -187.9932
v 11.69923 7.237134 -187.9661
v 11.35055 7.471703 -188.4885
v 10.968 7.710145 -188.4714
v 11.41765 7.515293 -187.9666
v 10.98047 7.977131 -187.9804
v 54.00344 6.678288 -178.7704
v 54.00344 6.338184 -177.9959
v 53.41986 7.233455 -177.9959
v 56 5.18 -180
v 56 5.34444 -179.8356
v 55.75454 5.425466 -180
v 57.48833 4.900464 -180
v 58 4.110112 -180
v 58 4.216707 -179.1372
v 54.04514 6.257438 -177.9231
v 54.00356 6.571028 -178.4152
v 54.44088 6.445945 -177.9157
v 54.8479 6.014787 -177.9094
v 54.89329 6.233939 -177.9083
v 55.20493 6.010499 -178.3804
v 54.25466 6.014787 -179.9198
v 54.89571 5.985735 -179.4317
v 54.30194 6.186581 -179.9187
v 53.06759 7.520348 -177.9959
v 52.00349 8.000274 -177.9959
v 52.39492 8.000274 -178.7513
v 52.33215 8.000274 -179.32
v 52.0035 8.000274 -179.9959
v 52.7809 7.5661 -179.9959
v 53.41986 7.233455 -177.9959
v 54.00344 6.338184 -177.9959
v 54 6 -178
v 53.06759 7.520348 -177.9959
v 52.00349 8.000274 -177.9959
v 52.00344 8.000274 -177.9959
v 52 6 -178
v 54 4 -178
v 52 4 -178
v 54 6 -178
v 53.41986 7.233455 -177.9959
v 53.06759 7.520348 -177.9959
v 52.39492 8.000274 -178.7513
v 54.00344 6.678288 -178.7704
v 52.33215 8.000274 -179.32
v 54.00344 6.551863 -179.9959
v 52.7809 7.5661 -179.9959
v 54.00344 6.551863 -179.9959
v 54 6 -180
v 54 6 -178
v 54.00344 6.338184 -177.9959
v 54.00344 6.678288 -178.7704
v 58 4.216707 -179.1372
v 58 4.129632 -178
v 56.29902 5.4 -178
v 56.75879 5.4 -180
v 57.48833 4.900464 -180
v 56 4 -178
v 58 4 -178
v 58 4 -180
v 56 4 -180
v 58 4.110112 -180
v 58 4 -180
v 58 4 -178
v 58 4.129632 -178
v 58 4.216707 -179.1372
v 52 6 -178
v 52 4 -178
v 52 4 -180
v 52 6 -180
v 54 4 -180
v 52 4 -180
v 52 4 -178
v 54 4 -178
v 56 4 -180
v 54 4 -180
v 54 4 -178
v 56 4 -178
v 52.00344 8.000274 -177.9959
v 52 6 -178
v 52 6 -180
v 52.00345 8.000274 -179.9959
v 56.29902 5.4 -178
v 58 4.129632 -178
v 58 4 -178
v 56 5.4 -178
v 56 4 -178
v 54 4 -178
v 54 6 -178
v 55.02788 6 -178
v 55.72388 5.730962 -178
v 56 5.48 -178
v 56.29902 5.4 -178
v 56 5.4 -178
v 56 5.4 -180
v 56.75879 5.4 -180
v 56 5.631949 -178.4687
v 55.70491 5.821786 -178.2269
v 55.26477 6 -178.3652
v 54.53473 6 -180
v 56 5.34444 -179.8356
v 55.75454 5.425466 -180
v 56 5.18 -180
v 56 4 -180
v 56 4 -178
v 56 5.48 -178
v 56 5.34444 -179.8356
v 56 5.631949 -178.4687
v 56.75879 5.4 -180
v 56 5.4 -180
v 56 4 -180
v 58 4 -180
v 57.48833 4.900464 -180
v 58 4.110112 -180
v 56 4 -180
v 56 5.18 -180
v 55.75454 5.425466 -180
v 54.53473 6 -180
v 54 4 -180
v 54 6 -180
v 52 4 -180
v 52 6 -180
v 52.00345 8.000274 -179.9959
v 52.0035 8.000274 -179.9959
v 52.7809 7.5661 -179.9959
v 54.00344 6.551863 -179.9959
v 55.26477 6 -178.3652
v 55.02788 6 -178
v 54 6 -178
v 54 6 -180
v 54.53473 6 -180
v 55.70491 5.821786 -178.2269
v 55.72388 5.730962 -178
v 55.02788 6 -178
v 55.26477 6 -178.3652
v 56 5.631949 -178.4687
v 56 5.48 -178
v 55.72388 5.730962 -178
v 55.70491 5.821786 -178.2269
v 55.20493 6.010499 -178.3804
v 54.89329 6.233939 -177.9083
v 54.44088 6.445945 -177.9157
v 54.00356 6.571028 -178.4152
v 54.89571 5.985735 -179.4317
v 54.05068 6.304325 -179.9228
v 54.30194 6.186581 -179.9187
v 54.04514 6.257438 -177.9231
v 54.04514 6.014787 -177.9231
v 54.0792 6.014787 -179.9228
v 54.05068 6.304325 -179.9228
v 54.00356 6.571028 -178.4152
v 54.8479 6.014787 -177.9094
v 54.04514 6.014787 -177.9231
v 54.04514 6.257438 -177.9231
v 54.44088 6.445945 -177.9157
v 54.89329 6.233939 -177.9083
v 54.0792 6.014787 -179.9228
v 54.25466 6.014787 -179.9198
v 54.30194 6.186581 -179.9187
v 54.05068 6.304325 -179.9228
v 52.39492 8.000274 -178.7513
v 52.00349 8.000274 -177.9959
v 52.00344 8.000274 -177.9959
v 52.00345 8.000274 -179.9959
v 52.33215 8.000274 -179.32
v 52.0035 8.000274 -179.9959
vt 0.7387399 0.2507755
vt 0.6408179 0.2507755
vt 0.702898 0.3224593
vt 0.7387399 0.2507755
vt 0.702898 0.2080877
vt 0.6408179 0.2507755
vt 0.3093258 0.31406
vt 0.2943259 0.32906
vt 0.3093258 0.32906
vt 0.4718259 0.32906
vt 0.4343258 0.29156
vt 0.4343258 0.32906
vt 0.6250937 0.2125937
vt 0.6250937 0.1875937
vt 0.6874062 0.1875937
vt 0.6874063 0.2500937
vt 0.6625937 0.2500937
vt 0.8125936 0.1241172
vt 0.8125937 0.1866172
vt 0.8749062 0.1866172
vt 0.8749062 0.1391172
vt 0.8599062 0.1241172
vt 0.625 0.125
vt 0.625 0.1875
vt 0.625 0.2125
vt 0.6625 0.25
vt 0.71375 0.25
vt 0.75 0.125
vt 0.75 0.21375
vt 0.78625 0.25
vt 0.875 0.125
vt 0.875 0.25
vt 0.625 0.1875
vt 0.5 0.125
vt 0.5 0.1875
vt 0.375 0.125
vt 0.375 0.1875
vt 0.485 0.25
vt 0.5 0.235
vt 0.375 0.25
vt 0.875 0.375
vt 0.78625 0.375
vt 0.75 0.33875
vt 0.875 0.25
vt 0.75 0.25
vt 0.625 0.3125
vt 0.625 0.25
vt 0.5 0.25
vt 0.625 0.3373872
vt 0.6625 0.375
vt 0.71375 0.375
vt 0.5 0.3125
vt 0.375 0.25
vt 0.375 0.3125
vt 0.375 0.375
vt 0.5 0.3599549
vt 0.485 0.375
vt 0.625 0.1876875
vt 0.75 0.1876875
vt 0.75 0.25
vt 0.625 0.25
vt 0.7490234 0.25
vt 0.7490234 0.1875
vt 0.6240234 0.1875
vt 0.6240234 0.25
vt 0.2419166 0.4244316
vt 0.2302195 0.435978
vt 0.2409087 0.4375441
vt 0.2329649 0.422513
vt 0.2429281 0.4112577
vt 0.2177794 0.4338285
vt 0.2356308 0.4089592
vt 0.246204 0.3972297
vt 0.2223345 0.4202093
vt 0.2047299 0.4310347
vt 0.2108148 0.4176794
vt 0.2262985 0.4063298
vt 0.2150514 0.4036502
vt 0.238083 0.3951209
vt 0.25111 0.3837065
vt 0.2411248 0.3806895
vt 0.2280921 0.3919307
vt 0.2165759 0.3893878
vt 0.229015 0.3777472
vt 0.2154602 0.3756326
vt 0.3934453 0.6808547
vt 0.3688389 0.6891873
vt 0.3712354 0.6617957
vt 0.3429707 0.6973504
vt 0.3480019 0.6977906
vt 0.351138 0.6904972
vt 0.3704697 0.6719949
vt 0.3683541 0.6961764
vt 0.3422401 0.6906054
vt 0.3655849 0.7007204
vt 0.380753 0.7007656
vt 0.3642992 0.7128087
vt 0.3653269 0.6988505
vt 0.3658793 0.6921423
vt 0.3797274 0.7002426
vt 0.3678301 0.7073765
vt 0.3652253 0.7269121
vt 0.3729597 0.709283
vt 0.3704295 0.6710066
vt 0.3732779 0.6384495
vt 0.3953426 0.6524475
vt 0.3463649 0.7078875
vt 0.3679243 0.6996413
vt 0.3658434 0.7234266
vt 0.5377944 0.8277703
vt 0.5013909 0.7719238
vt 0.5016057 0.750828
vt 0.559769 0.8456666
vt 0.6247057 0.8756042
vt 0.6247088 0.8756042
vt 0.6249237 0.750828
vt 0.5 0.625
vt 0.625 0.625
vt 0.5 0.75
vt 0.3082948 0.676431
vt 0.3092377 0.6656529
vt 0.3341509 0.6470939
vt 0.3304287 0.6963593
vt 0.3517185 0.6466957
vt 0.3679244 0.6996398
vt 0.371197 0.6622348
vt 0.4461617 0.6237164
vt 0.377179 0.6242299
vt 0.377179 0.3742298
vt 0.419452 0.3737164
vt 0.4619649 0.4705268
vt 0.34166 0.6972357
vt 0.3068675 0.6941918
vt 0.3114207 0.6421489
vt 0.3713818 0.6615696
vt 0.369429 0.6838905
vt 0.25 0.625
vt 0.125 0.625
vt 0.125 0.75
vt 0.25 0.75
vt 0.3909429 0.6242299
vt 0.377179 0.6242299
vt 0.377179 0.3742298
vt 0.393383 0.3742298
vt 0.4042673 0.5163748
vt 0.25 0.625
vt 0.125 0.625
vt 0.125 0.75
vt 0.25 0.75
vt 0.25 0.625
vt 0.375 0.625
vt 0.375 0.5
vt 0.25 0.5
vt 0.25 0.625
vt 0.375 0.625
vt 0.375 0.5
vt 0.25 0.5
vt 0.2500171 0.6247433
vt 0.125 0.625
vt 0.125 0.75
vt 0.2500171 0.7497433
vt 0.3548183 0.7151744
vt 0.2469646 0.6346244
vt 0.2469646 0.6264048
vt 0.3737784 0.7151744
vt 0.3737784 0.6264048
vt 0.5005921 0.6264048
vt 0.5005921 0.7532185
vt 0.4354175 0.7532185
vt 0.391286 0.7361597
vt 0.3737784 0.720247
vt 0.3672589 0.7086943
vt 0.3680594 0.6995454
vt 0.4292511 0.704899
vt 0.42722 0.728115
vt 0.3823984 0.7007999
vt 0.3757924 0.6911241
vt 0.3812021 0.6780282
vt 0.4331734 0.6600677
vt 0.42422 0.7044588
vt 0.4299082 0.6973887
vt 0.371218 0.6634422
vt 0.3680594 0.6995454
vt 0.3068675 0.6941918
vt 0.3108292 0.6489099
vt 0.3666269 0.6579708
vt 0.3255749 0.6455153
vt 0.3256657 0.4651744
vt 0.3737784 0.4651744
vt 0.3737784 0.3764048
vt 0.2469646 0.3764048
vt 0.2794079 0.4335004
vt 0.2469646 0.3833866
vt 0.1237784 0.3764048
vt 0.1237784 0.4512249
vt 0.1393426 0.4667891
vt 0.2166864 0.5032185
vt 0.2505921 0.3764048
vt 0.2505921 0.5032185
vt 0.375941 0.3764048
vt 0.375941 0.5032185
vt 0.3757225 0.6300496
vt 0.3757193 0.6300496
vt 0.3278916 0.60252
vt 0.2503737 0.5382105
vt 0.1731066 0.3986576
vt 0.1873432 0.3767081
vt 0.2491155 0.3767081
vt 0.2491155 0.4969017
vt 0.2169798 0.4969017
vt 0.3757924 0.6911241
vt 0.3687984 0.6910974
vt 0.3706615 0.6698025
vt 0.3812021 0.6780282
vt 0.3823984 0.7007999
vt 0.3680594 0.6995454
vt 0.3687984 0.6910974
vt 0.3757924 0.6911241
vt 0.3152821 0.7320761
vt 0.3016702 0.7212772
vt 0.3031074 0.7074551
vt 0.3195613 0.695412
vt 0.3482747 0.7254291
vt 0.3655612 0.7008892
vt 0.3647629 0.7085659
vt 0.3663948 0.6914629
vt 0.3657453 0.6988871
vt 0.4269283 0.7042398
vt 0.4277033 0.6953812
vt 0.3822911 0.6831856
vt 0.3662421 0.7255272
vt 0.3683909 0.7009659
vt 0.3758151 0.7016155
vt 0.3805233 0.7142282
vt 0.3728258 0.7275025
vt 0.3682998 0.7020081
vt 0.3678301 0.7073765
vt 0.3729597 0.709283
vt 0.3772347 0.7019105
vt 0.6023653 0.6300496
vt 0.6257193 0.6300496
vt 0.6257225 0.6300496
vt 0.6257225 0.6300496
vt 0.6063453 0.6300496
vt 0.6257193 0.6300496
vn 0.5773509 0.5773481 -0.5773518
vn 0.5773509 0.5773481 -0.5773518
vn 0.5773509 0.5773481 -0.5773518
vn 0.4554916 0.4554938 0.7648875
vn 0.4554916 0.4554938 0.7648875
vn 0.4554916 0.4554938 0.7648875
vn 0.5773513 0.5773473 -0.5773522
vn 0.5773513 0.5773473 -0.5773522
vn 0.5773513 0.5773473 -0.5773522
vn 0.5773505 0.5773516 0.5773487
vn 0.5773505 0.5773516 0.5773487
vn 0.5773505 0.5773516 0.5773487
vn -3.576279E-07 2.981889E-06 1
vn -3.576279E-07 2.981889E-06 1
vn -3.576279E-07 2.981889E-06 1
vn -3.576279E-07 2.981889E-06 1
vn -3.576279E-07 2.981889E-06 1
vn 3.576279E-07 -2.981889E-06 -1
vn 3.576279E-07 -2.981889E-06 -1
vn 3.576279E-07 -2.981889E-06 -1
vn 3.576279E-07 -2.981889E-06 -1
vn 3.576279E-07 -2.981889E-06 -1
vn 1 -7.270326E-07 3.576279E-07
vn 1 -7.270326E-07 3.576279E-07
vn 1 -7.270326E-07 3.576279E-07
vn 1 -7.270326E-07 3.576279E-07
vn 1 -7.270326E-07 3.576279E-07
vn 1 -7.270326E-07 3.576279E-07
vn 1 -7.270326E-07 3.576279E-07
vn 1 -7.270326E-07 3.576279E-07
vn 1 -7.270326E-07 3.576279E-07
vn 1 -7.270326E-07 3.576279E-07
vn 1 -7.270326E-07 3.576279E-07
vn 1 -7.270326E-07 3.576279E-07
vn 1 -7.270326E-07 3.576279E-07
vn 1 -7.270326E-07 3.576279E-07
vn 1 -7.270326E-07 3.576279E-07
vn 1 -7.270326E-07 3.576279E-07
vn 1 -7.270326E-07 3.576279E-07
vn 1 -7.270326E-07 3.576279E-07
vn 7.270338E-07 1 -2.981889E-06
vn 7.270338E-07 1 -2.981889E-06
vn 7.270338E-07 1 -2.981889E-06
vn 7.270338E-07 1 -2.981889E-06
vn 7.270338E-07 1 -2.981889E-06
vn 7.270338E-07 1 -2.981889E-06
vn 7.270338E-07 1 -2.981889E-06
vn 7.270338E-07 1 -2.981889E-06
vn 7.270338E-07 1 -2.981889E-06
vn 7.270338E-07 1 -2.981889E-06
vn 7.270338E-07 1 -2.981889E-06
vn 7.270338E-07 1 -2.981889E-06
vn 7.270338E-07 1 -2.981889E-06
vn 7.270338E-07 1 -2.981889E-06
vn 7.270338E-07 1 -2.981889E-06
vn 7.270338E-07 1 -2.981889E-06
vn 7.270338E-07 1 -2.981889E-06
vn 7.270338E-07 1 -2.981889E-06
vn 7.270338E-07 1 -2.981889E-06
vn 7.270338E-07 1 -2.981889E-06
vn 7.270338E-07 1 -2.981889E-06
vn 1 -7.270326E-07 3.576279E-07
vn 1 -7.270326E-07 3.576279E-07
vn 1 -7.270326E-07 3.576279E-07
vn 1 -7.270326E-07 3.576279E-07
vn 0.7985095 0.5535302 0.2366154
vn 0.7617272 0.5306978 0.3716607
vn 0.8010662 0.4903817 0.3432474
vn 0.7723211 0.5870079 0.2427794
vn 0.7719979 0.6343278 0.04058808
vn 0.5774814 0.7180218 0.3885357
vn 0.7702467 0.6363882 0.04159617
vn 0.7190625 0.6844524 -0.1203083
vn 0.5610393 0.7893245 0.2494027
vn 0.377409 0.8585854 0.3469778
vn 0.3682136 0.898605 0.2385958
vn 0.6032425 0.7962448 0.04574609
vn 0.3980948 0.9164647 0.04016083
vn 0.7295905 0.6772184 -0.09525198
vn 0.6779645 0.7090624 -0.1938933
vn 0.6923308 0.6991045 -0.1786923
vn 0.6443845 0.7557479 -0.1166772
vn 0.5512142 0.8168242 -0.1701792
vn 0.6683741 0.7114047 -0.2172081
vn 0.6241443 0.7319048 -0.2734215
vn 0.8146397 0.5310216 0.2331912
vn 0.8146397 0.5310216 0.2331912
vn 0.8146397 0.5310216 0.2331912
vn 0.5773502 0.5773504 -0.5773501
vn 0.5773502 0.5773504 -0.5773501
vn 0.5773502 0.5773504 -0.5773501
vn 0.8375575 0.5422272 -0.06698633
vn 0.8375575 0.5422272 -0.06698633
vn 0.8375575 0.5422272 -0.06698633
vn -0.375112 0.7670649 0.520483
vn -0.375112 0.7670649 0.520483
vn -0.375112 0.7670649 0.520483
vn 0.7852023 -0.165671 0.5966662
vn 0.7852023 -0.165671 0.5966662
vn 0.7852023 -0.165671 0.5966662
vn 0.5935926 -0.1582383 -0.7890553
vn 0.5935926 -0.1582383 -0.7890553
vn 0.5935926 -0.1582383 -0.7890553
vn 0.4021125 0.8915676 0.2083574
vn 0.4021125 0.8915676 0.2083574
vn 0.4021125 0.8915676 0.2083574
vn 0.4744493 0.8495147 -0.2307001
vn 0.4744493 0.8495147 -0.2307001
vn 0.4744493 0.8495147 -0.2307001
vn -0.001210947 -0.002913378 0.9999951
vn -0.001210947 -0.002913378 0.9999951
vn -0.001210947 -0.002913378 0.9999951
vn -0.001210947 -0.002913378 0.9999951
vn -0.001210947 -0.002913378 0.9999951
vn -0.001210947 -0.002913378 0.9999951
vn -0.001210947 -0.002913378 0.9999951
vn -3.74507E-07 0 1
vn -3.74507E-07 0 1
vn -3.74507E-07 0 1
vn 0.6338682 0.7697983 -0.07497916
vn 0.6338682 0.7697983 -0.07497916
vn 0.6338682 0.7697983 -0.07497916
vn 0.6338682 0.7697983 -0.07497916
vn 0.6338682 0.7697983 -0.07497916
vn 0.6338682 0.7697983 -0.07497916
vn 0.6338682 0.7697983 -0.07497916
vn 0.999982 -0.006003747 -0.0003203324
vn 0.999982 -0.006003747 -0.0003203324
vn 0.999982 -0.006003747 -0.0003203324
vn 0.999982 -0.006003747 -0.0003203324
vn 0.999982 -0.006003747 -0.0003203324
vn 0.60917 0.7815819 0.134319
vn 0.60917 0.7815819 0.134319
vn 0.60917 0.7815819 0.134319
vn 0.60917 0.7815819 0.134319
vn 0.60917 0.7815819 0.134319
vn 0 -1 0
vn 0 -1 0
vn 0 -1 0
vn 0 -1 0
vn 1 0 3.74507E-07
vn 1 0 3.74507E-07
vn 1 0 3.74507E-07
vn 1 0 3.74507E-07
vn 1 0 3.74507E-07
vn -1 0 -3.74507E-07
vn -1 0 -3.74507E-07
vn -1 0 -3.74507E-07
vn -1 0 -3.74507E-07
vn 0 -1 0
vn 0 -1 0
vn 0 -1 0
vn 0 -1 0
vn 0 -1 0
vn 0 -1 0
vn 0 -1 0
vn 0 -1 0
vn -0.9999986 0.001722574 -3.745065E-07
vn -0.9999986 0.001722574 -3.745065E-07
vn -0.9999986 0.001722574 -3.745065E-07
vn -0.9999986 0.001722574 -3.745065E-07
vn -3.74507E-07 0 1
vn -3.74507E-07 0 1
vn -3.74507E-07 0 1
vn -3.74507E-07 0 1
vn -3.74507E-07 0 1
vn -3.74507E-07 0 1
vn -3.74507E-07 0 1
vn -3.74507E-07 0 1
vn -3.74507E-07 0 1
vn -3.74507E-07 0 1
vn 0 1 0
vn 0 1 0
vn 0 1 0
vn 0 1 0
vn 0.4185952 0.8887261 -0.1869332
vn 0.4185952 0.8887261 -0.1869332
vn 0.4185952 0.8887261 -0.1869332
vn 0.4185952 0.8887261 -0.1869332
vn 0.4185952 0.8887261 -0.1869332
vn 0.4185952 0.8887261 -0.1869332
vn 1 0 3.74507E-07
vn 1 0 3.74507E-07
vn 1 0 3.74507E-07
vn 1 0 3.74507E-07
vn 1 0 3.74507E-07
vn 1 0 3.74507E-07
vn 3.74507E-07 0 -1
vn 3.74507E-07 0 -1
vn 3.74507E-07 0 -1
vn 3.74507E-07 0 -1
vn 3.74507E-07 0 -1
vn 3.74507E-07 0 -1
vn 3.74507E-07 0 -1
vn 3.74507E-07 0 -1
vn 3.74507E-07 0 -1
vn 3.74507E-07 0 -1
vn 3.74507E-07 0 -1
vn 3.74507E-07 0 -1
vn 3.74507E-07 0 -1
vn 3.74507E-07 0 -1
vn 0.001108857 0.003061264 -0.9999948
vn 0.001108857 0.003061264 -0.9999948
vn 0.001108857 0.003061264 -0.9999948
vn 0.001108857 0.003061264 -0.9999948
vn 0 1 0
vn 0 1 0
vn 0 1 0
vn 0 1 0
vn 0 1 0
vn 0.3262419 0.9089772 0.259474
vn 0.3262419 0.9089772 0.259474
vn 0.3262419 0.9089772 0.259474
vn 0.3262419 0.9089772 0.259474
vn 0.6540338 0.7195888 0.2333062
vn 0.6540338 0.7195888 0.2333062
vn 0.6540338 0.7195888 0.2333062
vn 0.6540338 0.7195888 0.2333062
vn 0.4217823 0.8950037 -0.1451481
vn 0.4217823 0.8950037 -0.1451481
vn 0.4217823 0.8950037 -0.1451481
vn 0.4217823 0.8950037 -0.1451481
vn 0.4217823 0.8950037 -0.1451481
vn 0.4217823 0.8950037 -0.1451481
vn 0.4217823 0.8950037 -0.1451481
vn -0.9963116 -0.0853464 -0.008895277
vn -0.9963116 -0.0853464 -0.008895277
vn -0.9963116 -0.0853464 -0.008895277
vn -0.9963116 -0.0853464 -0.008895277
vn -0.9963116 -0.0853464 -0.008895277
vn -0.01732906 -0.001266168 0.9998491
vn -0.01732906 -0.001266168 0.9998491
vn -0.01732906 -0.001266168 0.9998491
vn -0.01732906 -0.001266168 0.9998491
vn -0.01732906 -0.001266168 0.9998491
vn 0.01710093 0.001725778 -0.9998523
vn 0.01710093 0.001725778 -0.9998523
vn 0.01710093 0.001725778 -0.9998523
vn 0.01710093 0.001725778 -0.9998523
vn 0 1 0
vn 0 1 0
vn 0 1 0
vn 0 1 0
vn 0 1 0
vn 0 1 0
g Prebatch Mesh (root) (2018 Tile with Moss UV 1-to-1 Upnormal)_0
f 3/3/3 2/2/2 1/1/1
f 6/6/6 5/5/5 4/4/4
f 9/9/9 8/8/8 7/7/7
f 12/12/12 11/11/11 10/10/10
f 15/15/15 14/14/14 13/13/13
f 13/13/13 16/16/16 15/15/15
f 13/13/13 17/17/17 16/16/16
f 20/20/20 19/19/19 18/18/18
f 18/18/18 21/21/21 20/20/20
f 18/18/18 22/22/22 21/21/21
f 25/25/25 24/24/24 23/23/23
f 26/26/26 25/25/25 23/23/23
f 27/27/27 26/26/26 23/23/23
f 27/27/27 23/23/23 28/28/28
f 28/28/28 29/29/29 27/27/27
f 30/30/30 29/29/29 28/28/28
f 30/30/30 28/28/28 31/31/31
f 31/31/31 32/32/32 30/30/30
f 34/34/34 23/23/23 33/33/33
f 35/35/35 34/34/34 33/33/33
f 36/36/36 34/34/34 35/35/35
f 37/37/37 36/36/36 35/35/35
f 38/38/38 37/37/37 35/35/35
f 35/35/35 39/39/39 38/38/38
f 38/38/38 40/40/40 37/37/37
f 43/43/43 42/42/42 41/41/41
f 43/43/43 41/41/41 44/44/44
f 44/44/44 45/45/45 43/43/43
f 46/46/46 43/43/43 45/45/45
f 45/45/45 47/47/47 46/46/46
f 46/46/46 47/47/47 48/48/48
f 46/46/46 49/49/49 43/43/43
f 49/49/49 50/50/50 43/43/43
f 50/50/50 51/51/51 43/43/43
f 52/52/52 46/46/46 48/48/48
f 52/52/52 48/48/48 53/53/53
f 54/54/54 52/52/52 53/53/53
f 52/52/52 54/54/54 55/55/55
f 55/55/55 56/56/56 52/52/52
f 55/55/55 57/57/57 56/56/56
f 60/60/60 59/59/59 58/58/58
f 61/61/61 60/60/60 58/58/58
f 64/64/64 63/63/63 62/62/62
f 65/65/65 64/64/64 62/62/62
f 68/68/68 67/67/67 66/66/66
f 67/67/67 69/69/69 66/66/66
f 66/66/66 69/69/69 70/70/70
f 67/67/67 71/71/71 69/69/69
f 69/69/69 72/72/72 70/70/70
f 70/70/70 72/72/72 73/73/73
f 71/71/71 74/74/74 69/69/69
f 69/69/69 74/74/74 72/72/72
f 71/71/71 75/75/75 74/74/74
f 75/75/75 76/76/76 74/74/74
f 74/74/74 76/76/76 77/77/77
f 74/74/74 77/77/77 72/72/72
f 76/76/76 78/78/78 77/77/77
f 72/72/72 79/79/79 73/73/73
f 72/72/72 77/77/77 79/79/79
f 73/73/73 79/79/79 80/80/80
f 79/79/79 81/81/81 80/80/80
f 77/77/77 78/78/78 82/82/82
f 77/77/77 82/82/82 79/79/79
f 79/79/79 82/82/82 81/81/81
f 78/78/78 83/83/83 82/82/82
f 82/82/82 84/84/84 81/81/81
f 82/82/82 83/83/83 84/84/84
f 83/83/83 85/85/85 84/84/84
f 88/88/88 87/87/87 86/86/86
f 91/91/91 90/90/90 89/89/89
f 94/94/94 93/93/93 92/92/92
f 97/97/97 96/96/96 95/95/95
f 100/100/100 99/99/99 98/98/98
f 103/103/103 102/102/102 101/101/101
f 106/106/106 105/105/105 104/104/104
f 109/109/109 108/108/108 107/107/107
f 112/112/112 111/111/111 110/110/110
f 112/112/112 110/110/110 113/113/113
f 112/112/112 113/113/113 114/114/114
f 112/112/112 114/114/114 115/115/115
f 115/115/115 116/116/116 112/112/112
f 116/116/116 118/118/118 117/117/117
f 119/119/119 116/116/116 117/117/117
f 122/122/122 121/121/121 120/120/120
f 120/120/120 123/123/123 122/122/122
f 123/123/123 124/124/124 122/122/122
f 123/123/123 125/125/125 124/124/124
f 125/125/125 126/126/126 124/124/124
f 129/129/129 128/128/128 127/127/127
f 127/127/127 130/130/130 129/129/129
f 127/127/127 131/131/131 130/130/130
f 134/134/134 133/133/133 132/132/132
f 132/132/132 135/135/135 134/134/134
f 132/132/132 136/136/136 135/135/135
f 139/139/139 138/138/138 137/137/137
f 140/140/140 139/139/139 137/137/137
f 143/143/143 142/142/142 141/141/141
f 141/141/141 144/144/144 143/143/143
f 141/141/141 145/145/145 144/144/144
f 148/148/148 147/147/147 146/146/146
f 149/149/149 148/148/148 146/146/146
f 152/152/152 151/151/151 150/150/150
f 153/153/153 152/152/152 150/150/150
f 156/156/156 155/155/155 154/154/154
f 157/157/157 156/156/156 154/154/154
f 160/160/160 159/159/159 158/158/158
f 161/161/161 160/160/160 158/158/158
f 164/164/164 163/163/163 162/162/162
f 164/164/164 162/162/162 165/165/165
f 165/165/165 166/166/166 164/164/164
f 168/168/168 167/167/167 166/166/166
f 166/166/166 169/169/169 168/168/168
f 166/166/166 170/170/170 169/169/169
f 166/166/166 171/171/171 170/170/170
f 174/174/174 173/173/173 172/172/172
f 175/175/175 174/174/174 172/172/172
f 178/178/178 177/177/177 176/176/176
f 176/176/176 179/179/179 178/178/178
f 176/176/176 180/180/180 179/179/179
f 180/180/180 181/181/181 179/179/179
f 184/184/184 183/183/183 182/182/182
f 182/182/182 185/185/185 184/184/184
f 182/182/182 186/186/186 185/185/185
f 186/186/186 187/187/187 185/185/185
f 190/190/190 189/189/189 188/188/188
f 188/188/188 191/191/191 190/190/190
f 188/188/188 192/192/192 191/191/191
f 192/192/192 193/193/193 191/191/191
f 196/196/196 195/195/195 194/194/194
f 197/197/197 196/196/196 194/194/194
f 197/197/197 194/194/194 198/198/198
f 198/198/198 199/199/199 197/197/197
f 198/198/198 200/200/200 199/199/199
f 200/200/200 201/201/201 199/199/199
f 199/199/199 201/201/201 202/202/202
f 202/202/202 203/203/203 199/199/199
f 203/203/203 204/204/204 199/199/199
f 204/204/204 205/205/205 199/199/199
f 208/208/208 207/207/207 206/206/206
f 206/206/206 209/209/209 208/208/208
f 206/206/206 210/210/210 209/209/209
f 213/213/213 212/212/212 211/211/211
f 214/214/214 213/213/213 211/211/211
f 217/217/217 216/216/216 215/215/215
f 218/218/218 217/217/217 215/215/215
f 221/221/221 220/220/220 219/219/219
f 219/219/219 222/222/222 221/221/221
f 219/219/219 223/223/223 222/222/222
f 223/223/223 224/224/224 222/222/222
f 223/223/223 225/225/225 224/224/224
f 228/228/228 227/227/227 226/226/226
f 226/226/226 229/229/229 228/228/228
f 226/226/226 230/230/230 229/229/229
f 233/233/233 232/232/232 231/231/231
f 231/231/231 234/234/234 233/233/233
f 231/231/231 235/235/235 234/234/234
f 238/238/238 237/237/237 236/236/236
f 239/239/239 238/238/238 236/236/236
f 242/242/242 241/241/241 240/240/240
f 240/240/240 243/243/243 242/242/242
f 240/240/240 244/244/244 243/243/243
f 244/244/244 245/245/245 243/243/243
