g quarry_bullseye
v 0.055397 1.329945 0.3133063
v -1.057812 0.6872337 0.3133065
v -1.057812 0.6872339 -0.3133054
v 0.05539659 1.329946 -0.3133057
v -1.057812 0.6872337 0.3133065
v -1.057812 -0.5981891 0.3133064
v -1.057812 -0.5981889 -0.3133055
v -1.057812 0.6872339 -0.3133054
v -1.057812 -0.5981891 0.3133064
v 0.05539733 -1.240901 0.3133064
v 0.05539721 -1.240901 -0.3133051
v -1.057812 -0.5981889 -0.3133055
v 0.05539733 -1.240901 0.3133064
v 1.168606 -0.5981891 0.3133063
v 1.168606 -0.5981886 -0.3133056
v 0.05539721 -1.240901 -0.3133051
v 0.05539721 -1.240901 -0.3133051
v 1.168606 -0.5981886 -0.3133056
v 1.168606 0.6872337 -0.3133058
v 0.05539659 1.329946 -0.3133057
v -1.057812 -0.5981889 -0.3133055
v -1.057812 0.6872339 -0.3133054
v 1.168606 -0.5981891 0.3133063
v 1.168606 0.6872334 0.3133062
v 1.168606 0.6872337 -0.3133058
v 1.168606 -0.5981886 -0.3133056
v 1.168606 0.6872334 0.3133062
v 0.055397 1.329945 0.3133063
v 0.05539659 1.329946 -0.3133057
v 1.168606 0.6872337 -0.3133058
v 0.7459037 0.4431863 0.3133063
v 0.4801018 0.2897255 0.3133063
v 0.05539702 0.534929 0.3133063
v 0.05539702 0.8418508 0.3133063
v -0.3693078 0.2897255 0.3133064
v -0.6351098 0.4431863 0.3133065
v 0.4801019 -0.2006812 0.3133063
v 0.2596543 -0.07340598 0.3133064
v 0.2596542 0.1624501 0.3133063
v 0.4801018 0.2897255 0.3133063
v 0.05539722 -0.7528064 0.3133064
v 0.05539715 -0.4458847 0.3133064
v 0.4801019 -0.2006812 0.3133063
v 0.7459038 -0.354142 0.3133063
v -0.6351095 -0.354142 0.3133064
v 0.05539715 -0.4458847 0.3133064
v -0.3693076 -0.2006812 0.3133064
v -0.6351098 0.4431863 0.3133065
v -0.3693078 0.2897255 0.3133064
v -0.3693076 -0.2006812 0.3133064
v -0.6351095 -0.354142 0.3133064
v 0.7459038 -0.354142 0.3133063
v 0.4801019 -0.2006812 0.3133063
v 0.4801018 0.2897255 0.3133063
v 0.7459037 0.4431863 0.3133063
v 0.2596542 0.1624501 0.3133063
v 0.2596543 -0.07340598 0.3133064
v 0.05539709 -0.1913338 0.3133064
v 0.05539703 0.2803781 0.3133064
v -0.1488601 -0.07340598 0.3133064
v -0.1488602 0.1624501 0.3133064
v -0.3693076 -0.2006812 0.3133064
v -0.1488601 -0.07340598 0.3133064
v 0.05539709 -0.1913338 0.3133064
v 0.05539715 -0.4458847 0.3133064
v 0.05539715 -0.4458847 0.3133064
v 0.2596543 -0.07340598 0.3133064
v 0.4801019 -0.2006812 0.3133063
v 0.05539702 0.534929 0.3133063
v 0.05539703 0.2803781 0.3133064
v -0.1488602 0.1624501 0.3133064
v -0.3693078 0.2897255 0.3133064
v 0.4801018 0.2897255 0.3133063
v 0.05539703 0.2803781 0.3133064
v 0.2596542 0.1624501 0.3133063
v -0.3693078 0.2897255 0.3133064
v -0.1488602 0.1624501 0.3133064
v -0.1488601 -0.07340598 0.3133064
v -0.3693076 -0.2006812 0.3133064
v 1.168606 0.6872334 0.3133062
v 1.033343 0.6091392 0.3133062
v 0.05539701 1.173757 0.3133063
v 0.055397 1.329945 0.3133063
v -1.057812 -0.5981891 0.3133064
v -0.9225486 -0.520095 0.3133064
v 0.05539729 -1.084713 0.3133064
v 0.05539733 -1.240901 0.3133064
v 0.055397 1.329945 0.3133063
v 0.05539701 1.173757 0.3133063
v -0.922549 0.6091394 0.3133065
v -1.057812 0.6872337 0.3133065
v 1.168606 -0.5981891 0.3133063
v 1.033343 -0.520095 0.3133063
v 1.033343 0.6091392 0.3133062
v 1.168606 0.6872334 0.3133062
v -1.057812 0.6872337 0.3133065
v -0.922549 0.6091394 0.3133065
v -0.9225486 -0.520095 0.3133064
v -1.057812 -0.5981891 0.3133064
v 0.05539733 -1.240901 0.3133064
v 0.05539729 -1.084713 0.3133064
v 1.033343 -0.520095 0.3133063
v 1.168606 -0.5981891 0.3133063
v -0.922549 0.6091394 0.3133065
v -0.6351098 0.4431863 0.3133065
v -0.6351095 -0.354142 0.3133064
v -0.9225486 -0.520095 0.3133064
v 0.05539701 1.173757 0.3133063
v 0.05539722 -0.7528064 0.3133064
v 0.05539702 0.8418508 0.3133063
v 0.05539729 -1.084713 0.3133064
v 1.033343 0.6091392 0.3133062
v 0.7459038 -0.354142 0.3133063
v 0.7459037 0.4431863 0.3133063
v 1.033343 -0.520095 0.3133063
vt 0.9253379 0.595626
vt 0.9428681 0.6056584
vt 0.9435421 0.5961832
vt 0.9337388 0.5914091
vt 0.9428681 0.6056584
vt 0.9605117 0.595826
vt 0.952782 0.5904045
vt 0.9435421 0.5961832
vt 0.9605117 0.595826
vt 0.9607878 0.5758608
vt 0.9524605 0.5799846
vt 0.952782 0.5904045
vt 0.9607878 0.5758608
vt 0.9430537 0.5661752
vt 0.9424499 0.5757294
vt 0.9524605 0.5799846
vt 0.9524605 0.5799846
vt 0.9424499 0.5757294
vt 0.9329653 0.5810031
vt 0.9337388 0.5914091
vt 0.952782 0.5904045
vt 0.9435421 0.5961832
vt 0.9430537 0.5661752
vt 0.9253615 0.5755784
vt 0.9329653 0.5810031
vt 0.9424499 0.5757294
vt 0.9253615 0.5755784
vt 0.9253379 0.595626
vt 0.9337388 0.5914091
vt 0.9329653 0.5810031
vt 0.9363955 0.3560579
vt 0.9376903 0.353817
vt 0.9352211 0.3495367
vt 0.9326329 0.3495358
vt 0.9376932 0.3452582
vt 0.9363999 0.3430163
vt 0.9467589 0.472491
vt 0.9464213 0.4719063
vt 0.9458921 0.4719063
vt 0.9455545 0.472491
vt 0.9476921 0.349541
vt 0.9451039 0.3495401
vt 0.9426317 0.3538187
vt 0.943925 0.3560606
vt 0.9439296 0.3430189
vt 0.9451039 0.3495401
vt 0.9426347 0.3452599
vt 0.9363999 0.3430163
vt 0.9376932 0.3452582
vt 0.9426347 0.3452599
vt 0.9439296 0.3430189
vt 0.943925 0.3560606
vt 0.9426317 0.3538187
vt 0.9376903 0.353817
vt 0.9363955 0.3560579
vt 0.9444353 0.3430128
vt 0.9466065 0.3430128
vt 0.9476921 0.3411324
vt 0.9433497 0.3411324
vt 0.9466065 0.3392521
vt 0.9444353 0.3392521
vt 0.9467589 0.470405
vt 0.9464213 0.4709897
vt 0.9466859 0.471448
vt 0.947361 0.471448
vt 0.947361 0.471448
vt 0.9464213 0.4719063
vt 0.9467589 0.472491
vt 0.9449523 0.471448
vt 0.9456275 0.471448
vt 0.9458921 0.4709897
vt 0.9455545 0.470405
vt 0.9455545 0.472491
vt 0.9456275 0.471448
vt 0.9458921 0.4719063
vt 0.9455545 0.470405
vt 0.9458921 0.4709897
vt 0.9464213 0.4709897
vt 0.9467589 0.470405
vt 0.9253615 0.5755784
vt 0.9225798 0.5739577
vt 0.9225798 0.597268
vt 0.9253379 0.595626
vt 0.9605117 0.595826
vt 0.9632772 0.5974404
vt 0.9635524 0.5741913
vt 0.9607878 0.5758608
vt 0.9253379 0.595626
vt 0.9225798 0.597268
vt 0.9428825 0.6088547
vt 0.9428681 0.6056584
vt 0.9430537 0.5661752
vt 0.9430517 0.5630203
vt 0.9225798 0.5739577
vt 0.9253615 0.5755784
vt 0.9428681 0.6056584
vt 0.9428825 0.6088547
vt 0.9632772 0.5974404
vt 0.9605117 0.595826
vt 0.9607878 0.5758608
vt 0.9635524 0.5741913
vt 0.9430517 0.5630203
vt 0.9430537 0.5661752
vt 0.9611782 0.4843998
vt 0.9551998 0.4809481
vt 0.9408379 0.4892399
vt 0.940838 0.4961432
vt 0.9611782 0.4609129
vt 0.9264761 0.4809481
vt 0.9551998 0.4643645
vt 0.9204977 0.4843998
vt 0.9408379 0.4491694
vt 0.9264761 0.4643645
vt 0.9408379 0.4560727
vt 0.9204977 0.4609129
vn -0.5000002 0.8660253 0
vn -0.5000002 0.8660253 0
vn -0.5000002 0.8660253 0
vn -0.5000002 0.8660253 0
vn -1 0 0
vn -1 0 0
vn -1 0 0
vn -1 0 0
vn -0.5000001 -0.8660253 0
vn -0.5000001 -0.8660253 0
vn -0.5000001 -0.8660253 0
vn -0.5000001 -0.8660253 0
vn 0.5000002 -0.8660253 0
vn 0.5000002 -0.8660253 0
vn 0.5000002 -0.8660253 0
vn 0.5000002 -0.8660253 0
vn 0 0 -1
vn 0 0 -1
vn 0 0 -1
vn 0 0 -1
vn 0 0 -1
vn 0 0 -1
vn 1 0 0
vn 1 0 0
vn 1 0 0
vn 1 0 0
vn 0.5000003 0.8660253 0
vn 0.5000003 0.8660253 0
vn 0.5000003 0.8660253 0
vn 0.5000003 0.8660253 0
vn 0 0 1
vn 0 0 1
vn 0 0 1
vn 0 0 1
vn 0 0 1
vn 0 0 1
vn 0 0 1
vn 0 0 1
vn 0 0 1
vn 0 0 1
vn 0 0 1
vn 0 0 1
vn 0 0 1
vn 0 0 1
vn 0 0 1
vn 0 0 1
vn 0 0 1
vn 0 0 1
vn 0 0 1
vn 0 0 1
vn 0 0 1
vn 0 0 1
vn 0 0 1
vn 0 0 1
vn 0 0 1
vn 0 0 1
vn 0 0 1
vn 0 0 1
vn 0 0 1
vn 0 0 1
vn 0 0 1
vn 0 0 1
vn 0 0 1
vn 0 0 1
vn 0 0 1
vn 0 0 1
vn 0 0 1
vn 0 0 1
vn 0 0 1
vn 0 0 1
vn 0 0 1
vn 0 0 1
vn 0 0 1
vn 0 0 1
vn 0 0 1
vn 0 0 1
vn 0 0 1
vn 0 0 1
vn 0 0 1
vn 0 0 1
vn 0 0 1
vn 0 0 1
vn 0 0 1
vn 0 0 1
vn 0 0 1
vn 0 0 1
vn 0 0 1
vn 0 0 1
vn 0 0 1
vn 0 0 1
vn 0 0 1
vn 0 0 1
vn 0 0 1
vn 0 0 1
vn 0 0 1
vn 0 0 1
vn 0 0 1
vn 0 0 1
vn 0 0 1
vn 0 0 1
vn 0 0 1
vn 0 0 1
vn 0 0 1
vn 0 0 1
vn 0 0 1
vn 0 0 1
vn 0 0 1
vn 0 0 1
vn 0 0 1
vn 0 0 1
vn 0 0 1
vn 0 0 1
vn 0 0 1
vn 0 0 1
vn 0 0 1
g quarry_bullseye_0
f 3/3/3 2/2/2 1/1/1
f 4/4/4 3/3/3 1/1/1
f 7/7/7 6/6/6 5/5/5
f 8/8/8 7/7/7 5/5/5
f 11/11/11 10/10/10 9/9/9
f 12/12/12 11/11/11 9/9/9
f 15/15/15 14/14/14 13/13/13
f 16/16/16 15/15/15 13/13/13
f 19/19/19 18/18/18 17/17/17
f 17/17/17 20/20/20 19/19/19
f 17/17/17 21/21/21 20/20/20
f 21/21/21 22/22/22 20/20/20
f 25/25/25 24/24/24 23/23/23
f 26/26/26 25/25/25 23/23/23
f 29/29/29 28/28/28 27/27/27
f 30/30/30 29/29/29 27/27/27
f 33/33/33 32/32/32 31/31/31
f 34/34/34 33/33/33 31/31/31
f 35/35/35 33/33/33 34/34/34
f 36/36/36 35/35/35 34/34/34
f 39/39/39 38/38/38 37/37/37
f 40/40/40 39/39/39 37/37/37
f 43/43/43 42/42/42 41/41/41
f 44/44/44 43/43/43 41/41/41
f 41/41/41 46/46/46 45/45/45
f 46/46/46 47/47/47 45/45/45
f 50/50/50 49/49/49 48/48/48
f 51/51/51 50/50/50 48/48/48
f 54/54/54 53/53/53 52/52/52
f 55/55/55 54/54/54 52/52/52
f 58/58/58 57/57/57 56/56/56
f 56/56/56 59/59/59 58/58/58
f 59/59/59 60/60/60 58/58/58
f 59/59/59 61/61/61 60/60/60
f 64/64/64 63/63/63 62/62/62
f 65/65/65 64/64/64 62/62/62
f 67/67/67 64/64/64 66/66/66
f 68/68/68 67/67/67 66/66/66
f 71/71/71 70/70/70 69/69/69
f 72/72/72 71/71/71 69/69/69
f 69/69/69 74/74/74 73/73/73
f 74/74/74 75/75/75 73/73/73
f 78/78/78 77/77/77 76/76/76
f 79/79/79 78/78/78 76/76/76
f 82/82/82 81/81/81 80/80/80
f 83/83/83 82/82/82 80/80/80
f 86/86/86 85/85/85 84/84/84
f 87/87/87 86/86/86 84/84/84
f 90/90/90 89/89/89 88/88/88
f 91/91/91 90/90/90 88/88/88
f 94/94/94 93/93/93 92/92/92
f 95/95/95 94/94/94 92/92/92
f 98/98/98 97/97/97 96/96/96
f 99/99/99 98/98/98 96/96/96
f 102/102/102 101/101/101 100/100/100
f 103/103/103 102/102/102 100/100/100
f 106/106/106 105/105/105 104/104/104
f 107/107/107 106/106/106 104/104/104
f 104/104/104 105/105/105 108/108/108
f 109/109/109 106/106/106 107/107/107
f 105/105/105 110/110/110 108/108/108
f 111/111/111 109/109/109 107/107/107
f 108/108/108 110/110/110 112/112/112
f 113/113/113 109/109/109 111/111/111
f 110/110/110 114/114/114 112/112/112
f 115/115/115 113/113/113 111/111/111
f 112/112/112 114/114/114 115/115/115
f 114/114/114 113/113/113 115/115/115
