g radial_uv_ring
v 0.1999355 -5.144629E-08 -1.005144
v 0.3083679 -3.846387E-08 -0.7444658
v 0.1572045 -3.846387E-08 -0.7903206
v 0.3921879 -5.144629E-08 -0.9468251
v 0.2811211 -7.611185E-08 -1.413291
v 0.5514391 -7.611185E-08 -1.331291
v 0.3240561 -8.915622E-08 -1.62914
v 0.6356592 -8.915622E-08 -1.534616
v -1.098746E-07 -5.144629E-08 -1.024836
v 0.1572045 -3.846387E-08 -0.7903206
v -9.355043E-08 -3.846387E-08 -0.805804
v 0.1999355 -5.144629E-08 -1.005144
v -1.408893E-07 -7.611185E-08 -1.440979
v 0.2811211 -7.611185E-08 -1.413291
v -1.572914E-07 -8.915622E-08 -1.661057
v 0.3240561 -8.915622E-08 -1.62914
v 0.3921879 -5.144629E-08 -0.9468251
v 0.4476808 -3.846387E-08 -0.6700014
v 0.3083679 -3.846387E-08 -0.7444658
v 0.5693686 -4.510733E-08 -0.85212
v 0.5514391 -7.611185E-08 -1.331291
v 0.8005657 -5.772937E-08 -1.198131
v 0.6356592 -8.915622E-08 -1.534616
v 0.9228343 -6.440453E-08 -1.381118
v 0.5693686 -4.510733E-08 -0.85212
v 0.5697895 -3.846387E-08 -0.5697894
v 0.4476808 -3.846387E-08 -0.6700014
v 0.7246687 -4.510733E-08 -0.7246685
v 0.8005657 -5.772937E-08 -1.198131
v 1.018927 -5.772937E-08 -1.018926
v 0.9228343 -6.440453E-08 -1.381118
v 1.174545 -6.440453E-08 -1.174544
v 0.7246687 -4.510733E-08 -0.7246685
v 0.6700016 -3.846387E-08 -0.4476806
v 0.5697895 -3.846387E-08 -0.5697894
v 0.8521203 -4.510733E-08 -0.5693683
v 1.018927 -5.772937E-08 -1.018926
v 1.198131 -5.772936E-08 -0.800565
v 1.174545 -6.440453E-08 -1.174544
v 1.381119 -6.440453E-08 -0.9228334
v 0.8521203 -4.510733E-08 -0.5693683
v 0.7444659 -3.846387E-08 -0.3083677
v 0.6700016 -3.846387E-08 -0.4476806
v 0.9468253 -3.876837E-08 -0.3921876
v 1.198131 -5.772936E-08 -0.800565
v 1.331292 -3.934689E-08 -0.5514387
v 1.381119 -6.440453E-08 -0.9228334
v 1.534617 -3.965285E-08 -0.6356587
v 0.9468253 -3.876837E-08 -0.3921876
v 0.7903208 -1.490116E-08 -0.1572044
v 0.7444659 -3.846387E-08 -0.3083677
v 1.005144 -2.124012E-08 -0.1999354
v 1.331292 -3.934689E-08 -0.5514387
v 1.413292 -3.328363E-08 -0.2811208
v 1.534617 -3.965285E-08 -0.6356587
v 1.629141 -3.965285E-08 -0.3240558
v 1.005144 -2.124012E-08 -0.1999354
v 0.8058041 -1.490116E-08 1.969848E-07
v 0.7903208 -1.490116E-08 -0.1572044
v 1.024836 -1.490116E-08 2.552942E-07
v 1.413292 -3.328363E-08 -0.2811208
v 1.44098 -1.490116E-08 3.660773E-07
v 1.629141 -3.965285E-08 -0.3240558
v 1.661057 -1.490116E-08 4.246649E-07
v 1.024836 -1.490116E-08 2.552942E-07
v 0.7903208 -1.490116E-08 0.1572048
v 0.8058041 -1.490116E-08 1.969848E-07
v 1.005144 -8.562202E-09 0.1999359
v 1.44098 -1.490116E-08 3.660773E-07
v 1.413292 3.481312E-09 0.2811216
v 1.661057 -1.490116E-08 4.246649E-07
v 1.629141 9.850526E-09 0.3240566
v 1.005144 -8.562202E-09 0.1999359
v 0.744466 8.661543E-09 0.3083681
v 0.7903208 -1.490116E-08 0.1572048
v 0.9468254 8.966044E-09 0.3921881
v 1.413292 3.481312E-09 0.2811216
v 1.331292 9.544571E-09 0.5514394
v 1.629141 9.850526E-09 0.3240566
v 1.534617 9.850526E-09 0.6356595
v 0.9468254 8.966044E-09 0.3921881
v 0.6700016 8.661543E-09 0.447681
v 0.744466 8.661543E-09 0.3083681
v 0.8521203 1.530501E-08 0.5693689
v 1.331292 9.544571E-09 0.5514394
v 1.198131 2.792704E-08 0.800566
v 1.534617 9.850526E-09 0.6356595
v 1.381119 3.460221E-08 0.9228347
v 0.8521203 1.530501E-08 0.5693689
v 0.5697895 8.661543E-09 0.5697899
v 0.6700016 8.661543E-09 0.447681
v 0.7246687 1.530501E-08 0.7246691
v 1.198131 2.792704E-08 0.800566
v 1.018927 2.792704E-08 1.018927
v 1.381119 3.460221E-08 0.9228347
v 1.174545 3.460221E-08 1.174546
v 0.7246687 1.530501E-08 0.7246691
v 0.4476807 8.661543E-09 0.670002
v 0.5697895 8.661543E-09 0.5697899
v 0.5693684 1.530501E-08 0.8521208
v 1.018927 2.792704E-08 1.018927
v 0.8005653 2.792704E-08 1.198132
v 1.174545 3.460221E-08 1.174546
v 0.9228339 3.460221E-08 1.381119
v 0.5693684 1.530501E-08 0.8521208
v 0.3083677 8.661543E-09 0.7444663
v 0.4476807 8.661543E-09 0.670002
v 0.3921876 2.164396E-08 0.9468259
v 0.8005653 2.792704E-08 1.198132
v 0.5514387 4.630952E-08 1.331293
v 0.9228339 3.460221E-08 1.381119
v 0.6356587 5.93539E-08 1.534618
v 0.3921876 2.164396E-08 0.9468259
v 0.1572043 8.661543E-09 0.7903212
v 0.3083677 8.661543E-09 0.7444663
v 0.1999353 2.164396E-08 1.005145
v 0.5514387 4.630952E-08 1.331293
v 0.2811207 4.630952E-08 1.413293
v 0.6356587 5.93539E-08 1.534618
v 0.3240556 5.93539E-08 1.629142
v 0.1999353 2.164396E-08 1.005145
v -2.856691E-07 8.661543E-09 0.8058044
v 0.1572043 8.661543E-09 0.7903212
v -3.542146E-07 2.164396E-08 1.024837
v 0.2811207 4.630952E-08 1.413293
v -4.844456E-07 4.630952E-08 1.440981
v 0.3240556 5.93539E-08 1.629142
v -5.533183E-07 5.93539E-08 1.661058
v -3.542146E-07 2.164396E-08 1.024837
v -0.1572051 8.661543E-09 0.790321
v -2.856691E-07 8.661543E-09 0.8058044
v -0.1999362 2.164396E-08 1.005145
v -4.844456E-07 4.630952E-08 1.440981
v -0.281122 4.630952E-08 1.413292
v -5.533183E-07 5.93539E-08 1.661058
v -0.3240572 5.93539E-08 1.629141
v -0.1999362 2.164396E-08 1.005145
v -0.3083684 8.661543E-09 0.7444661
v -0.1572051 8.661543E-09 0.790321
v -0.3921886 2.164396E-08 0.9468256
v -0.281122 4.630952E-08 1.413292
v -0.5514401 4.630952E-08 1.331292
v -0.3240572 5.93539E-08 1.629141
v -0.6356604 5.93539E-08 1.534617
v -0.3921886 2.164396E-08 0.9468256
v -0.4476815 8.661543E-09 0.6700017
v -0.3083684 8.661543E-09 0.7444661
v -0.5693694 1.530501E-08 0.8521203
v -0.5514401 4.630952E-08 1.331292
v -0.8005666 2.792704E-08 1.198131
v -0.6356604 5.93539E-08 1.534617
v -0.9228353 3.460221E-08 1.381119
v -0.5693694 1.530501E-08 0.8521203
v -0.5697902 8.661543E-09 0.5697895
v -0.4476815 8.661543E-09 0.6700017
v -0.7246695 1.530501E-08 0.7246686
v -0.8005666 2.792704E-08 1.198131
v -1.018928 2.792704E-08 1.018927
v -0.9228353 3.460221E-08 1.381119
v -1.174546 3.460221E-08 1.174545
v -0.7246695 1.530501E-08 0.7246686
v -0.6700022 8.661543E-09 0.4476806
v -0.5697902 8.661543E-09 0.5697895
v -0.8521209 1.530501E-08 0.5693684
v -1.018928 2.792704E-08 1.018927
v -1.198132 2.792704E-08 0.8005654
v -1.174546 3.460221E-08 1.174545
v -1.38112 3.460221E-08 0.9228339
v -0.8521209 1.530501E-08 0.5693684
v -0.7444664 8.661543E-09 0.3083676
v -0.6700022 8.661543E-09 0.4476806
v -0.9468259 8.966044E-09 0.3921875
v -1.198132 2.792704E-08 0.8005654
v -1.331293 9.544571E-09 0.5514385
v -1.38112 3.460221E-08 0.9228339
v -1.534618 9.850526E-09 0.6356584
v -0.9468259 8.966044E-09 0.3921875
v -0.7903211 -1.490116E-08 0.1572042
v -0.7444664 8.661543E-09 0.3083676
v -1.005145 -8.562201E-09 0.1999351
v -1.331293 9.544571E-09 0.5514385
v -1.413292 3.481312E-09 0.2811204
v -1.534618 9.850526E-09 0.6356584
v -1.629141 9.850526E-09 0.3240552
v -1.005145 -8.562201E-09 0.1999351
v -0.8058043 -1.490116E-08 -4.754306E-07
v -0.7903211 -1.490116E-08 0.1572042
v -1.024836 -1.490116E-08 -6.506077E-07
v -1.413292 3.481312E-09 0.2811204
v -1.44098 -1.490116E-08 -9.8343E-07
v -1.629141 9.850526E-09 0.3240552
v -1.661058 -1.490116E-08 -1.159443E-06
v -1.024836 -1.490116E-08 -6.506077E-07
v -0.7903209 -1.490116E-08 -0.1572052
v -0.8058043 -1.490116E-08 -4.754306E-07
v -1.005144 -2.124012E-08 -0.1999364
v -1.44098 -1.490116E-08 -9.8343E-07
v -1.413292 -3.328363E-08 -0.2811224
v -1.661058 -1.490116E-08 -1.159443E-06
v -1.629141 -3.965285E-08 -0.3240576
v -1.005144 -2.124012E-08 -0.1999364
v -0.7444658 -3.846387E-08 -0.3083685
v -0.7903209 -1.490116E-08 -0.1572052
v -0.9468251 -3.876837E-08 -0.3921887
v -1.413292 -3.328363E-08 -0.2811224
v -1.331291 -3.934689E-08 -0.5514402
v -1.629141 -3.965285E-08 -0.3240576
v -1.534617 -3.965285E-08 -0.6356605
v -0.9468251 -3.876837E-08 -0.3921887
v -0.6700013 -3.846387E-08 -0.4476815
v -0.7444658 -3.846387E-08 -0.3083685
v -0.8521197 -4.510733E-08 -0.5693694
v -1.331291 -3.934689E-08 -0.5514402
v -1.19813 -5.772937E-08 -0.8005666
v -1.534617 -3.965285E-08 -0.6356605
v -1.381118 -6.440453E-08 -0.9228352
v -0.8521197 -4.510733E-08 -0.5693694
v -0.5697891 -3.846387E-08 -0.5697901
v -0.6700013 -3.846387E-08 -0.4476815
v -0.724668 -4.510733E-08 -0.7246694
v -1.19813 -5.772937E-08 -0.8005666
v -1.018926 -5.772937E-08 -1.018927
v -1.381118 -6.440453E-08 -0.9228352
v -1.174544 -6.440453E-08 -1.174546
v -0.724668 -4.510733E-08 -0.7246694
v -0.4476801 -3.846387E-08 -0.6700021
v -0.5697891 -3.846387E-08 -0.5697901
v -0.5693676 -4.510733E-08 -0.8521208
v -1.018926 -5.772937E-08 -1.018927
v -0.8005642 -5.772937E-08 -1.198132
v -1.174544 -6.440453E-08 -1.174546
v -0.9228325 -6.440453E-08 -1.38112
v -0.5693676 -4.510733E-08 -0.8521208
v -0.3083669 -3.846387E-08 -0.7444662
v -0.4476801 -3.846387E-08 -0.6700021
v -0.3921866 -5.144629E-08 -0.9468257
v -0.8005642 -5.772937E-08 -1.198132
v -0.5514374 -7.611185E-08 -1.331292
v -0.9228325 -6.440453E-08 -1.38112
v -0.6356572 -8.915622E-08 -1.534617
v -0.3921866 -5.144629E-08 -0.9468257
v -0.1572035 -3.846387E-08 -0.7903209
v -0.3083669 -3.846387E-08 -0.7444662
v -0.1999343 -5.144629E-08 -1.005144
v -0.5514374 -7.611185E-08 -1.331292
v -0.2811193 -7.611185E-08 -1.413292
v -0.6356572 -8.915622E-08 -1.534617
v -0.324054 -8.915622E-08 -1.629141
v -0.1999343 -5.144629E-08 -1.005144
v -9.355043E-08 -3.846387E-08 -0.805804
v -0.1572035 -3.846387E-08 -0.7903209
v -1.098746E-07 -5.144629E-08 -1.024836
v -0.2811193 -7.611185E-08 -1.413292
v -1.408893E-07 -7.611185E-08 -1.440979
v -0.324054 -8.915622E-08 -1.629141
v -1.572914E-07 -8.915622E-08 -1.661057
vt 0.6874999 0.7578125
vt 0.6562499 1
vt 0.6874999 1
vt 0.6562499 0.7578125
vt 0.6874999 0.2421875
vt 0.6562499 0.2421875
vt 0.6874999 0
vt 0.6562499 0
vt 0.7187499 0.7578125
vt 0.6874999 1
vt 0.7187499 1
vt 0.6874999 0.7578125
vt 0.7187499 0.2421875
vt 0.6874999 0.2421875
vt 0.7187499 0
vt 0.6874999 0
vt 0.6562499 0.7578125
vt 0.6249999 1
vt 0.6562499 1
vt 0.6249999 0.7578125
vt 0.6562499 0.2421875
vt 0.6249999 0.2421875
vt 0.6562499 0
vt 0.6249999 0
vt 0.6249999 0.7578125
vt 0.5937499 1
vt 0.6249999 1
vt 0.5937499 0.7578125
vt 0.6249999 0.2421875
vt 0.5937499 0.2421875
vt 0.6249999 0
vt 0.5937499 0
vt 0.5937499 0.7578125
vt 0.5624999 1
vt 0.5937499 1
vt 0.5624999 0.7578125
vt 0.5937499 0.2421875
vt 0.5624999 0.2421875
vt 0.5937499 0
vt 0.5624999 0
vt 0.5624999 0.7578125
vt 0.5312499 1
vt 0.5624999 1
vt 0.5312499 0.7578125
vt 0.5624999 0.2421875
vt 0.5312499 0.2421875
vt 0.5624999 0
vt 0.5312499 0
vt 0.5312499 0.7578125
vt 0.4999999 1
vt 0.5312499 1
vt 0.4999999 0.7578125
vt 0.5312499 0.2421875
vt 0.4999999 0.2421875
vt 0.5312499 0
vt 0.4999999 0
vt 0.4999999 0.7578125
vt 0.46875 1
vt 0.4999999 1
vt 0.46875 0.7578125
vt 0.4999999 0.2421875
vt 0.46875 0.2421875
vt 0.4999999 0
vt 0.46875 0
vt 0.46875 0.7578125
vt 0.4375 1
vt 0.46875 1
vt 0.4375 0.7578125
vt 0.46875 0.2421875
vt 0.4375 0.2421875
vt 0.46875 0
vt 0.4375 0
vt 0.4375 0.7578125
vt 0.40625 1
vt 0.4375 1
vt 0.40625 0.7578125
vt 0.4375 0.2421875
vt 0.40625 0.2421875
vt 0.4375 0
vt 0.40625 0
vt 0.40625 0.7578125
vt 0.375 1
vt 0.40625 1
vt 0.375 0.7578125
vt 0.40625 0.2421875
vt 0.375 0.2421875
vt 0.40625 0
vt 0.375 0
vt 0.375 0.7578125
vt 0.3437501 1
vt 0.375 1
vt 0.3437501 0.7578125
vt 0.375 0.2421875
vt 0.3437501 0.2421875
vt 0.375 0
vt 0.3437501 0
vt 0.3437501 0.7578125
vt 0.3125001 1
vt 0.3437501 1
vt 0.3125001 0.7578125
vt 0.3437501 0.2421875
vt 0.3125001 0.2421875
vt 0.3437501 0
vt 0.3125001 0
vt 0.3125001 0.7578125
vt 0.2812501 1
vt 0.3125001 1
vt 0.2812501 0.7578125
vt 0.3125001 0.2421875
vt 0.2812501 0.2421875
vt 0.3125001 0
vt 0.2812501 0
vt 0.2812501 0.7578125
vt 0.2500001 1
vt 0.2812501 1
vt 0.2500001 0.7578125
vt 0.2812501 0.2421875
vt 0.2500001 0.2421875
vt 0.2812501 0
vt 0.2500001 0
vt 0.2500001 0.7578125
vt 0.2187501 1
vt 0.2500001 1
vt 0.2187501 0.7578125
vt 0.2500001 0.2421875
vt 0.2187501 0.2421875
vt 0.2500001 0
vt 0.2187501 0
vt 0.2187501 0.7578125
vt 0.1875 1
vt 0.2187501 1
vt 0.1875 0.7578125
vt 0.2187501 0.2421875
vt 0.1875 0.2421875
vt 0.2187501 0
vt 0.1875 0
vt 0.1875 0.7578125
vt 0.15625 1
vt 0.1875 1
vt 0.15625 0.7578125
vt 0.1875 0.2421875
vt 0.15625 0.2421875
vt 0.1875 0
vt 0.15625 0
vt 0.15625 0.7578125
vt 0.125 1
vt 0.15625 1
vt 0.125 0.7578125
vt 0.15625 0.2421875
vt 0.125 0.2421875
vt 0.15625 0
vt 0.125 0
vt 0.125 0.7578125
vt 0.09375001 1
vt 0.125 1
vt 0.09375002 0.7578125
vt 0.125 0.2421875
vt 0.09375003 0.2421875
vt 0.125 0
vt 0.09375004 0
vt 0.09375002 0.7578125
vt 0.06249999 1
vt 0.09375001 1
vt 0.06250001 0.7578125
vt 0.09375003 0.2421875
vt 0.06250002 0.2421875
vt 0.09375004 0
vt 0.06250005 0
vt 0.06250001 0.7578125
vt 0.03125003 1
vt 0.06249999 1
vt 0.03125002 0.7578125
vt 0.06250002 0.2421875
vt 0.03125001 0.2421875
vt 0.06250005 0
vt 0.03125 0
vt 0.03125002 0.7578125
vt 2.980232E-08 1
vt 0.03125003 1
vt 2.235174E-08 0.7578125
vt 0.03125001 0.2421875
vt 1.490116E-08 0.2421875
vt 0.03125 0
vt 0 0
vt 1 0.7578125
vt 0.9687499 1
vt 1 1
vt 0.9687499 0.7578125
vt 0.9999999 0.2421875
vt 0.9687499 0.2421875
vt 0.9999999 0
vt 0.9687499 0
vt 0.9687499 0.7578125
vt 0.9374999 1
vt 0.9687499 1
vt 0.9374999 0.7578125
vt 0.9687499 0.2421875
vt 0.9374999 0.2421875
vt 0.9687499 0
vt 0.9374999 0
vt 0.9374999 0.7578125
vt 0.9062498 1
vt 0.9374999 1
vt 0.9062498 0.7578125
vt 0.9374999 0.2421875
vt 0.9062498 0.2421875
vt 0.9374999 0
vt 0.9062498 0
vt 0.9062498 0.7578125
vt 0.8749998 1
vt 0.9062498 1
vt 0.8749998 0.7578125
vt 0.9062498 0.2421875
vt 0.8749998 0.2421875
vt 0.9062498 0
vt 0.8749998 0
vt 0.8749998 0.7578125
vt 0.8437498 1
vt 0.8749998 1
vt 0.8437498 0.7578125
vt 0.8749998 0.2421875
vt 0.8437498 0.2421875
vt 0.8749998 0
vt 0.8437498 0
vt 0.8437498 0.7578125
vt 0.8124998 1
vt 0.8437498 1
vt 0.8124998 0.7578125
vt 0.8437498 0.2421875
vt 0.8124998 0.2421875
vt 0.8437498 0
vt 0.8124998 0
vt 0.8124998 0.7578125
vt 0.7812498 1
vt 0.8124998 1
vt 0.7812498 0.7578125
vt 0.8124998 0.2421875
vt 0.7812498 0.2421875
vt 0.8124998 0
vt 0.7812498 0
vt 0.7812498 0.7578125
vt 0.7499998 1
vt 0.7812498 1
vt 0.7499998 0.7578125
vt 0.7812498 0.2421875
vt 0.7499998 0.2421875
vt 0.7812498 0
vt 0.7499998 0
vt 0.7499998 0.7578125
vt 0.7187499 1
vt 0.7499998 1
vt 0.7187499 0.7578125
vt 0.7499998 0.2421875
vt 0.7187499 0.2421875
vt 0.7499998 0
vt 0.7187499 0
vn 0 1 0
vn 0 1 0
vn 0 1 0
vn 0 1 0
vn 0 1 0
vn 0 1 0
vn 0 1 0
vn 0 1 0
vn 0 1 0
vn 0 1 0
vn 0 1 0
vn 0 1 0
vn 0 1 0
vn 0 1 0
vn 0 1 0
vn 0 1 0
vn 0 1 0
vn 0 1 0
vn 0 1 0
vn 0 1 0
vn 0 1 0
vn 0 1 0
vn 0 1 0
vn 0 1 0
vn 0 1 0
vn 0 1 0
vn 0 1 0
vn 0 1 0
vn 0 1 0
vn 0 1 0
vn 0 1 0
vn 0 1 0
vn 0 1 0
vn 0 1 0
vn 0 1 0
vn 0 1 0
vn 0 1 0
vn 0 1 0
vn 0 1 0
vn 0 1 0
vn 0 1 0
vn 0 1 0
vn 0 1 0
vn 0 1 0
vn 0 1 0
vn 0 1 0
vn 0 1 0
vn 0 1 0
vn 0 1 0
vn 0 1 0
vn 0 1 0
vn 0 1 0
vn 0 1 0
vn 0 1 0
vn 0 1 0
vn 0 1 0
vn 0 1 0
vn 0 1 0
vn 0 1 0
vn 0 1 0
vn 0 1 0
vn 0 1 0
vn 0 1 0
vn 0 1 0
vn 0 1 0
vn 0 1 0
vn 0 1 0
vn 0 1 0
vn 0 1 0
vn 0 1 0
vn 0 1 0
vn 0 1 0
vn 0 1 0
vn 0 1 0
vn 0 1 0
vn 0 1 0
vn 0 1 0
vn 0 1 0
vn 0 1 0
vn 0 1 0
vn 0 1 0
vn 0 1 0
vn 0 1 0
vn 0 1 0
vn 0 1 0
vn 0 1 0
vn 0 1 0
vn 0 1 0
vn 0 1 0
vn 0 1 0
vn 0 1 0
vn 0 1 0
vn 0 1 0
vn 0 1 0
vn 0 1 0
vn 0 1 0
vn 0 1 0
vn 0 1 0
vn 0 1 0
vn 0 1 0
vn 0 1 0
vn 0 1 0
vn 0 1 0
vn 0 1 0
vn 0 1 0
vn 0 1 0
vn 0 1 0
vn 0 1 0
vn 0 1 0
vn 0 1 0
vn 0 1 0
vn 0 1 0
vn 0 1 0
vn 0 1 0
vn 0 1 0
vn 0 1 0
vn 0 1 0
vn 0 1 0
vn 0 1 0
vn 0 1 0
vn 0 1 0
vn 0 1 0
vn 0 1 0
vn 0 1 0
vn 0 1 0
vn 0 1 0
vn 0 1 0
vn 0 1 0
vn 0 1 0
vn 0 1 0
vn 0 1 0
vn 0 1 0
vn 0 1 0
vn 0 1 0
vn 0 1 0
vn 0 1 0
vn 0 1 0
vn 0 1 0
vn 0 1 0
vn 0 1 0
vn 0 1 0
vn 0 1 0
vn 0 1 0
vn 0 1 0
vn 0 1 0
vn 0 1 0
vn 0 1 0
vn 0 1 0
vn 0 1 0
vn 0 1 0
vn 0 1 0
vn 0 1 0
vn 0 1 0
vn 0 1 0
vn 0 1 0
vn 0 1 0
vn 0 1 0
vn 0 1 0
vn 0 1 0
vn 0 1 0
vn 0 1 0
vn 0 1 0
vn 0 1 0
vn 0 1 0
vn 0 1 0
vn 0 1 0
vn 0 1 0
vn 0 1 0
vn 0 1 0
vn 0 1 0
vn 0 1 0
vn 0 1 0
vn 0 1 0
vn 0 1 0
vn 0 1 0
vn 0 1 0
vn 0 1 0
vn 0 1 0
vn 0 1 0
vn 0 1 0
vn 0 1 0
vn 0 1 0
vn 0 1 0
vn 0 1 0
vn 0 1 0
vn 0 1 0
vn 0 1 0
vn 0 1 0
vn 0 1 0
vn 0 1 0
vn 0 1 0
vn 0 1 0
vn 0 1 0
vn 0 1 0
vn 0 1 0
vn 0 1 0
vn 0 1 0
vn 0 1 0
vn 0 1 0
vn 0 1 0
vn 0 1 0
vn 0 1 0
vn 0 1 0
vn 0 1 0
vn 0 1 0
vn 0 1 0
vn 0 1 0
vn 0 1 0
vn 0 1 0
vn 0 1 0
vn 0 1 0
vn 0 1 0
vn 0 1 0
vn 0 1 0
vn 0 1 0
vn 0 1 0
vn 0 1 0
vn 0 1 0
vn 0 1 0
vn 0 1 0
vn 0 1 0
vn 0 1 0
vn 0 1 0
vn 0 1 0
vn 0 1 0
vn 0 1 0
vn 0 1 0
vn 0 1 0
vn 0 1 0
vn 0 1 0
vn 0 1 0
vn 0 1 0
vn 0 1 0
vn 0 1 0
vn 0 1 0
vn 0 1 0
vn 0 1 0
vn 0 1 0
vn 0 1 0
vn 0 1 0
vn 0 1 0
vn 0 1 0
vn 0 1 0
vn 0 1 0
vn 0 1 0
vn 0 1 0
vn 0 1 0
vn 0 1 0
vn 0 1 0
vn 0 1 0
vn 0 1 0
vn 0 1 0
vn 0 1 0
vn 0 1 0
vn 0 1 0
vn 0 1 0
g radial_uv_ring_0
f 3/3/3 2/2/2 1/1/1
f 2/2/2 4/4/4 1/1/1
f 1/1/1 4/4/4 5/5/5
f 4/4/4 6/6/6 5/5/5
f 5/5/5 6/6/6 7/7/7
f 6/6/6 8/8/8 7/7/7
f 11/11/11 10/10/10 9/9/9
f 10/10/10 12/12/12 9/9/9
f 9/9/9 12/12/12 13/13/13
f 12/12/12 14/14/14 13/13/13
f 13/13/13 14/14/14 15/15/15
f 14/14/14 16/16/16 15/15/15
f 19/19/19 18/18/18 17/17/17
f 18/18/18 20/20/20 17/17/17
f 17/17/17 20/20/20 21/21/21
f 20/20/20 22/22/22 21/21/21
f 21/21/21 22/22/22 23/23/23
f 22/22/22 24/24/24 23/23/23
f 27/27/27 26/26/26 25/25/25
f 26/26/26 28/28/28 25/25/25
f 25/25/25 28/28/28 29/29/29
f 28/28/28 30/30/30 29/29/29
f 29/29/29 30/30/30 31/31/31
f 30/30/30 32/32/32 31/31/31
f 35/35/35 34/34/34 33/33/33
f 34/34/34 36/36/36 33/33/33
f 33/33/33 36/36/36 37/37/37
f 36/36/36 38/38/38 37/37/37
f 37/37/37 38/38/38 39/39/39
f 38/38/38 40/40/40 39/39/39
f 43/43/43 42/42/42 41/41/41
f 42/42/42 44/44/44 41/41/41
f 41/41/41 44/44/44 45/45/45
f 44/44/44 46/46/46 45/45/45
f 45/45/45 46/46/46 47/47/47
f 46/46/46 48/48/48 47/47/47
f 51/51/51 50/50/50 49/49/49
f 50/50/50 52/52/52 49/49/49
f 49/49/49 52/52/52 53/53/53
f 52/52/52 54/54/54 53/53/53
f 53/53/53 54/54/54 55/55/55
f 54/54/54 56/56/56 55/55/55
f 59/59/59 58/58/58 57/57/57
f 58/58/58 60/60/60 57/57/57
f 57/57/57 60/60/60 61/61/61
f 60/60/60 62/62/62 61/61/61
f 61/61/61 62/62/62 63/63/63
f 62/62/62 64/64/64 63/63/63
f 67/67/67 66/66/66 65/65/65
f 66/66/66 68/68/68 65/65/65
f 65/65/65 68/68/68 69/69/69
f 68/68/68 70/70/70 69/69/69
f 69/69/69 70/70/70 71/71/71
f 70/70/70 72/72/72 71/71/71
f 75/75/75 74/74/74 73/73/73
f 74/74/74 76/76/76 73/73/73
f 73/73/73 76/76/76 77/77/77
f 76/76/76 78/78/78 77/77/77
f 77/77/77 78/78/78 79/79/79
f 78/78/78 80/80/80 79/79/79
f 83/83/83 82/82/82 81/81/81
f 82/82/82 84/84/84 81/81/81
f 81/81/81 84/84/84 85/85/85
f 84/84/84 86/86/86 85/85/85
f 85/85/85 86/86/86 87/87/87
f 86/86/86 88/88/88 87/87/87
f 91/91/91 90/90/90 89/89/89
f 90/90/90 92/92/92 89/89/89
f 89/89/89 92/92/92 93/93/93
f 92/92/92 94/94/94 93/93/93
f 93/93/93 94/94/94 95/95/95
f 94/94/94 96/96/96 95/95/95
f 99/99/99 98/98/98 97/97/97
f 98/98/98 100/100/100 97/97/97
f 97/97/97 100/100/100 101/101/101
f 100/100/100 102/102/102 101/101/101
f 101/101/101 102/102/102 103/103/103
f 102/102/102 104/104/104 103/103/103
f 107/107/107 106/106/106 105/105/105
f 106/106/106 108/108/108 105/105/105
f 105/105/105 108/108/108 109/109/109
f 108/108/108 110/110/110 109/109/109
f 109/109/109 110/110/110 111/111/111
f 110/110/110 112/112/112 111/111/111
f 115/115/115 114/114/114 113/113/113
f 114/114/114 116/116/116 113/113/113
f 113/113/113 116/116/116 117/117/117
f 116/116/116 118/118/118 117/117/117
f 117/117/117 118/118/118 119/119/119
f 118/118/118 120/120/120 119/119/119
f 123/123/123 122/122/122 121/121/121
f 122/122/122 124/124/124 121/121/121
f 121/121/121 124/124/124 125/125/125
f 124/124/124 126/126/126 125/125/125
f 125/125/125 126/126/126 127/127/127
f 126/126/126 128/128/128 127/127/127
f 131/131/131 130/130/130 129/129/129
f 130/130/130 132/132/132 129/129/129
f 129/129/129 132/132/132 133/133/133
f 132/132/132 134/134/134 133/133/133
f 133/133/133 134/134/134 135/135/135
f 134/134/134 136/136/136 135/135/135
f 139/139/139 138/138/138 137/137/137
f 138/138/138 140/140/140 137/137/137
f 137/137/137 140/140/140 141/141/141
f 140/140/140 142/142/142 141/141/141
f 141/141/141 142/142/142 143/143/143
f 142/142/142 144/144/144 143/143/143
f 147/147/147 146/146/146 145/145/145
f 146/146/146 148/148/148 145/145/145
f 145/145/145 148/148/148 149/149/149
f 148/148/148 150/150/150 149/149/149
f 149/149/149 150/150/150 151/151/151
f 150/150/150 152/152/152 151/151/151
f 155/155/155 154/154/154 153/153/153
f 154/154/154 156/156/156 153/153/153
f 153/153/153 156/156/156 157/157/157
f 156/156/156 158/158/158 157/157/157
f 157/157/157 158/158/158 159/159/159
f 158/158/158 160/160/160 159/159/159
f 163/163/163 162/162/162 161/161/161
f 162/162/162 164/164/164 161/161/161
f 161/161/161 164/164/164 165/165/165
f 164/164/164 166/166/166 165/165/165
f 165/165/165 166/166/166 167/167/167
f 166/166/166 168/168/168 167/167/167
f 171/171/171 170/170/170 169/169/169
f 170/170/170 172/172/172 169/169/169
f 169/169/169 172/172/172 173/173/173
f 172/172/172 174/174/174 173/173/173
f 173/173/173 174/174/174 175/175/175
f 174/174/174 176/176/176 175/175/175
f 179/179/179 178/178/178 177/177/177
f 178/178/178 180/180/180 177/177/177
f 177/177/177 180/180/180 181/181/181
f 180/180/180 182/182/182 181/181/181
f 181/181/181 182/182/182 183/183/183
f 182/182/182 184/184/184 183/183/183
f 187/187/187 186/186/186 185/185/185
f 186/186/186 188/188/188 185/185/185
f 185/185/185 188/188/188 189/189/189
f 188/188/188 190/190/190 189/189/189
f 189/189/189 190/190/190 191/191/191
f 190/190/190 192/192/192 191/191/191
f 195/195/195 194/194/194 193/193/193
f 194/194/194 196/196/196 193/193/193
f 193/193/193 196/196/196 197/197/197
f 196/196/196 198/198/198 197/197/197
f 197/197/197 198/198/198 199/199/199
f 198/198/198 200/200/200 199/199/199
f 203/203/203 202/202/202 201/201/201
f 202/202/202 204/204/204 201/201/201
f 201/201/201 204/204/204 205/205/205
f 204/204/204 206/206/206 205/205/205
f 205/205/205 206/206/206 207/207/207
f 206/206/206 208/208/208 207/207/207
f 211/211/211 210/210/210 209/209/209
f 210/210/210 212/212/212 209/209/209
f 209/209/209 212/212/212 213/213/213
f 212/212/212 214/214/214 213/213/213
f 213/213/213 214/214/214 215/215/215
f 214/214/214 216/216/216 215/215/215
f 219/219/219 218/218/218 217/217/217
f 218/218/218 220/220/220 217/217/217
f 217/217/217 220/220/220 221/221/221
f 220/220/220 222/222/222 221/221/221
f 221/221/221 222/222/222 223/223/223
f 222/222/222 224/224/224 223/223/223
f 227/227/227 226/226/226 225/225/225
f 226/226/226 228/228/228 225/225/225
f 225/225/225 228/228/228 229/229/229
f 228/228/228 230/230/230 229/229/229
f 229/229/229 230/230/230 231/231/231
f 230/230/230 232/232/232 231/231/231
f 235/235/235 234/234/234 233/233/233
f 234/234/234 236/236/236 233/233/233
f 233/233/233 236/236/236 237/237/237
f 236/236/236 238/238/238 237/237/237
f 237/237/237 238/238/238 239/239/239
f 238/238/238 240/240/240 239/239/239
f 243/243/243 242/242/242 241/241/241
f 242/242/242 244/244/244 241/241/241
f 241/241/241 244/244/244 245/245/245
f 244/244/244 246/246/246 245/245/245
f 245/245/245 246/246/246 247/247/247
f 246/246/246 248/248/248 247/247/247
f 251/251/251 250/250/250 249/249/249
f 250/250/250 252/252/252 249/249/249
f 249/249/249 252/252/252 253/253/253
f 252/252/252 254/254/254 253/253/253
f 253/253/253 254/254/254 255/255/255
f 254/254/254 256/256/256 255/255/255
