g rapier
v 0 1.04491 -0.3376667
v 0.3255786 1.04491 0
v 0 1.20295 -1.28127
v -0.3255786 1.04491 0
v 0.3255786 1.674963 0
v 0 1.674963 -0.3143699
v 0 1.516924 -1.28127
v -0.3255786 1.674963 0
v 0.3255786 1.674963 0
v 0 13.47059 -0.2648236
v 0 1.674963 -0.3143699
v 0.159253 13.47059 0
v 0 15.69379 0
v 0.3255786 1.04491 0
v 0 1.516924 -1.28127
v 0 1.20295 -1.28127
v 0.3255786 1.674963 0
v 0 1.516924 1.28127
v 0 1.20295 1.28127
v -0.3255786 1.674963 0
v 0 1.674963 -0.3143699
v 0 13.47059 -0.2648236
v -0.159253 13.47059 0
v 0 15.69379 0
v -0.3255786 1.04491 0
v 0 1.20295 -1.28127
v 0 1.516924 -1.28127
v -0.3255786 1.674963 0
v 0 1.516924 1.28127
v 0 1.20295 1.28127
v 0 1.04491 0.3376667
v 0 1.20295 1.28127
v 0.3255786 1.04491 0
v -0.3255786 1.04491 0
v 0.3255786 1.674963 0
v 0 1.516924 1.28127
v 0 1.674963 0.3143699
v -0.3255786 1.674963 0
v 0.3255786 1.674963 0
v 0 1.674963 0.3143699
v 0 13.47059 0.2648236
v 0.159253 13.47059 0
v 0 15.69379 0
v -0.3255786 1.674963 0
v 0 13.47059 0.2648236
v 0 1.674963 0.3143699
v -0.159253 13.47059 0
v 0 15.69379 0
v 0 -0.000896444 -0.2434402
v 0.3255786 1.04491 0
v 0 1.04491 -0.3376667
v -0.3255786 1.04491 0
v 0.2373087 -0.0008963909 0
v 0 -0.000896444 0.2434402
v 0 1.04491 0.3376667
v -0.2373087 -0.0008963909 0
v 0 -1.119837 -0.3376667
v 0 -1.119837 0.3376667
v 0.3754667 -1.119837 0
v -0.3754667 -1.119837 0
v 0 -1.503028 0
vt 0 0
vt 0 0
vt 0 0
vt 0 0
vt 0 0
vt 0 0
vt 0 0
vt 0 0
vt 0 0
vt 0 0
vt 0 0
vt 0 0
vt 0 0
vt 0 0
vt 0 0
vt 0 0
vt 0 0
vt 0 0
vt 0 0
vt 0 0
vt 0 0
vt 0 0
vt 0 0
vt 0 0
vt 0 0
vt 0 0
vt 0 0
vt 0 0
vt 0 0
vt 0 0
vt 0 0
vt 0 0
vt 0 0
vt 0 0
vt 0 0
vt 0 0
vt 0 0
vt 0 0
vt 0 0
vt 0 0
vt 0 0
vt 0 0
vt 0 0
vt 0 0
vt 0 0
vt 0 0
vt 0 0
vt 0 0
vt 0 0
vt 0 0
vt 0 0
vt 0 0
vt 0 0
vt 0 0
vt 0 0
vt 0 0
vt 0 0
vt 0 0
vt 0 0
vt 0 0
vt 0 0
vn 0 -0.9862649 -0.165171
vn 0.168834 -0.9721081 -0.1627912
vn 0 -0.9862649 -0.165171
vn -0.168834 -0.9721081 -0.1627912
vn 0.1538783 0.9751524 -0.1593717
vn 0 0.9869062 -0.1612951
vn 0 0.9869062 -0.1612951
vn -0.1538783 0.9751524 -0.1593717
vn 0.7667986 0.006744775 -0.6418524
vn 0.8122946 0.03317419 -0.5823032
vn 0.7667986 0.006744775 -0.6418524
vn 0.8132108 0.03372356 -0.5809913
vn 0.8553734 0.06125288 -0.5143777
vn 1 0 0
vn 0.9692035 0 -0.2462608
vn 0.9692035 0 -0.2462608
vn 1 0 0
vn 0.9692035 0 0.2462608
vn 0.9692035 0 0.2462608
vn -0.7667986 0.006744775 -0.6418524
vn -0.7667986 0.006744775 -0.6418524
vn -0.8122946 0.03317419 -0.5823032
vn -0.8132108 0.03372356 -0.5809913
vn -0.8553734 0.06125288 -0.5143777
vn -1 0 0
vn -0.9692035 0 -0.2462608
vn -0.9692035 0 -0.2462608
vn -1 0 0
vn -0.9692035 0 0.2462608
vn -0.9692035 0 0.2462608
vn 0 -0.9862649 0.165171
vn 0 -0.9862649 0.165171
vn 0.168834 -0.9721081 0.1627912
vn -0.168834 -0.9721081 0.1627912
vn 0.1538783 0.9751524 0.1593717
vn 0 0.9869062 0.1612951
vn 0 0.9869062 0.1612951
vn -0.1538783 0.9751524 0.1593717
vn 0.7667986 0.006744775 0.6418524
vn 0.7667986 0.006744775 0.6418524
vn 0.8122946 0.03317419 0.5823032
vn 0.8132108 0.03372356 0.5809913
vn 0.8553734 0.06125288 0.5143777
vn -0.7667986 0.006744775 0.6418524
vn -0.8122946 0.03317419 0.5823032
vn -0.7667986 0.006744775 0.6418524
vn -0.8132108 0.03372356 0.5809913
vn -0.8553734 0.06125288 0.5143777
vn 0 0.007843494 -0.9999692
vn 0.9963368 -0.0855154 0
vn 0 -0.08825988 -0.9960975
vn -0.9963368 -0.0855154 0
vn 0.9999611 0.008820045 0
vn 0 0.007843494 0.9999692
vn 0 -0.08825988 0.9960975
vn -0.9999611 0.008820045 0
vn 0 -0.2690571 -0.9631243
vn 0 -0.2690571 0.9631243
vn 0.9616069 -0.2744309 0
vn -0.9616069 -0.2744309 0
vn 0 -1 0
g rapier_0
f 3/3/3 2/2/2 1/1/1
f 4/4/4 3/3/3 1/1/1
f 7/7/7 6/6/6 5/5/5
f 6/6/6 7/7/7 8/8/8
f 11/11/11 10/10/10 9/9/9
f 10/10/10 12/12/12 9/9/9
f 10/10/10 13/13/13 12/12/12
f 16/16/16 15/15/15 14/14/14
f 15/15/15 17/17/17 14/14/14
f 17/17/17 18/18/18 14/14/14
f 18/18/18 19/19/19 14/14/14
f 22/22/22 21/21/21 20/20/20
f 23/23/23 22/22/22 20/20/20
f 24/24/24 22/22/22 23/23/23
f 27/27/27 26/26/26 25/25/25
f 28/28/28 27/27/27 25/25/25
f 29/29/29 28/28/28 25/25/25
f 30/30/30 29/29/29 25/25/25
f 33/33/33 32/32/32 31/31/31
f 32/32/32 34/34/34 31/31/31
f 37/37/37 36/36/36 35/35/35
f 36/36/36 37/37/37 38/38/38
f 41/41/41 40/40/40 39/39/39
f 42/42/42 41/41/41 39/39/39
f 43/43/43 41/41/41 42/42/42
f 46/46/46 45/45/45 44/44/44
f 45/45/45 47/47/47 44/44/44
f 45/45/45 48/48/48 47/47/47
f 51/51/51 50/50/50 49/49/49
f 52/52/52 51/51/51 49/49/49
f 50/50/50 53/53/53 49/49/49
f 53/53/53 50/50/50 54/54/54
f 50/50/50 55/55/55 54/54/54
f 55/55/55 52/52/52 54/54/54
f 56/56/56 52/52/52 49/49/49
f 52/52/52 56/56/56 54/54/54
f 49/49/49 53/53/53 57/57/57
f 56/56/56 49/49/49 57/57/57
f 53/53/53 54/54/54 58/58/58
f 54/54/54 56/56/56 58/58/58
f 53/53/53 59/59/59 57/57/57
f 59/59/59 53/53/53 58/58/58
f 60/60/60 56/56/56 57/57/57
f 56/56/56 60/60/60 58/58/58
f 59/59/59 61/61/61 57/57/57
f 61/61/61 59/59/59 58/58/58
f 61/61/61 60/60/60 57/57/57
f 60/60/60 61/61/61 58/58/58
