g rock
v -0.1999997 -0.00513795 -0.3499997
v -0.4065743 0.1217424 -0.4065742
v -0.3499998 -0.00513798 -0.1999997
v 0.3500003 -0.005137503 -0.1999998
v 0.4065747 0.121743 -0.4065743
v 0.2000003 -0.005137682 -0.3499997
v 0.2000003 -0.005137235 0.3500003
v 0.4065747 0.1217435 0.4065746
v 0.3500003 -0.005137235 0.2000002
v -0.3499997 -0.005137712 0.2000003
v -0.4065742 0.1217429 0.4065747
v -0.1999997 -0.005137503 0.3500003
v -0.2500003 0.8235899 -0.1000002
v -0.3118694 0.701752 -0.3118693
v -0.1000003 0.8235899 -0.2500003
v 0.09999962 0.8235901 -0.2500003
v 0.3118689 0.7017525 -0.3118694
v 0.2499997 0.8235903 -0.1000003
v 0.2499997 0.8235905 0.09999972
v 0.311869 0.701753 0.3118689
v 0.09999967 0.8235905 0.2499997
v -0.1000003 0.8235902 0.2499998
v -0.3118693 0.7017524 0.311869
v -0.2500003 0.82359 0.09999976
v 0.3118689 0.7017525 -0.3118694
v 0.4676324 0.3300095 -0.4676324
v 0.4676324 0.3300101 0.4676324
v 0.311869 0.701753 0.3118689
v 0.2499997 0.8235903 -0.1000003
v 0.2499997 0.8235905 0.09999972
v -0.2500003 0.8235899 -0.1000002
v -0.1000003 0.8235899 -0.2500003
v 0.09999962 0.8235901 -0.2500003
v 0.2499997 0.8235903 -0.1000003
v 0.2499997 0.8235905 0.09999972
v -0.2500003 0.82359 0.09999976
v 0.09999967 0.8235905 0.2499997
v -0.1000003 0.8235902 0.2499998
v 0.4065747 0.121743 -0.4065743
v 0.3500003 -0.005137503 -0.1999998
v 0.3500003 -0.005137235 0.2000002
v 0.4065747 0.1217435 0.4065746
v 0.4676324 0.3300095 -0.4676324
v 0.4676324 0.3300101 0.4676324
v 0.3500003 -0.005137503 -0.1999998
v 0.2000003 -0.005137682 -0.3499997
v -0.1999997 -0.00513795 -0.3499997
v -0.3499998 -0.00513798 -0.1999997
v 0.3500003 -0.005137235 0.2000002
v -0.3499997 -0.005137712 0.2000003
v 0.2000003 -0.005137235 0.3500003
v -0.1999997 -0.005137503 0.3500003
v 0.311869 0.701753 0.3118689
v 0.4676324 0.3300101 0.4676324
v -0.4676323 0.3300094 0.4676325
v 0.09999967 0.8235905 0.2499997
v -0.1000003 0.8235902 0.2499998
v -0.3118693 0.7017524 0.311869
v -0.4676323 0.3300094 0.4676325
v 0.4676324 0.3300101 0.4676324
v 0.4065747 0.1217435 0.4065746
v 0.2000003 -0.005137235 0.3500003
v -0.1999997 -0.005137503 0.3500003
v -0.4065742 0.1217429 0.4065747
v 0.4065747 0.121743 -0.4065743
v 0.4676324 0.3300095 -0.4676324
v -0.4676324 0.3300088 -0.4676323
v 0.2000003 -0.005137682 -0.3499997
v -0.1999997 -0.00513795 -0.3499997
v -0.4065743 0.1217424 -0.4065742
v -0.4676324 0.3300088 -0.4676323
v 0.4676324 0.3300095 -0.4676324
v 0.3118689 0.7017525 -0.3118694
v 0.09999962 0.8235901 -0.2500003
v -0.1000003 0.8235899 -0.2500003
v -0.3118694 0.701752 -0.3118693
v -0.4676323 0.3300094 0.4676325
v -0.4676324 0.3300088 -0.4676323
v -0.3118694 0.701752 -0.3118693
v -0.3118693 0.7017524 0.311869
v -0.2500003 0.8235899 -0.1000002
v -0.2500003 0.82359 0.09999976
v -0.3499997 -0.005137712 0.2000003
v -0.3499998 -0.00513798 -0.1999997
v -0.4065743 0.1217424 -0.4065742
v -0.4065742 0.1217429 0.4065747
v -0.4676324 0.3300088 -0.4676323
v -0.4676323 0.3300094 0.4676325
vn -0.3983634 -0.8262038 -0.3983638
vn -0.3983634 -0.8262038 -0.3983638
vn -0.3983634 -0.8262038 -0.3983638
vn 0.3983647 -0.8262032 -0.398364
vn 0.3983647 -0.8262032 -0.398364
vn 0.3983647 -0.8262032 -0.398364
vn 0.3983649 -0.8262027 0.3983648
vn 0.3983649 -0.8262027 0.3983648
vn 0.3983649 -0.8262027 0.3983648
vn -0.3983635 -0.8262033 0.3983647
vn -0.3983635 -0.8262033 0.3983647
vn -0.3983635 -0.8262033 0.3983647
vn -0.3766795 0.846301 -0.3766793
vn -0.3766795 0.846301 -0.3766793
vn -0.3766795 0.846301 -0.3766793
vn 0.3766781 0.8463016 -0.3766792
vn 0.3766781 0.8463016 -0.3766792
vn 0.3766781 0.8463016 -0.3766792
vn 0.3766781 0.8463019 0.3766786
vn 0.3766781 0.8463019 0.3766786
vn 0.3766781 0.8463019 0.3766786
vn -0.3766797 0.8463012 0.3766785
vn -0.3766797 0.8463012 0.3766785
vn -0.3766797 0.8463012 0.3766785
vn 0.9179631 0.3966658 0
vn 0.9179631 0.3966658 0
vn 0.9179631 0.3966658 0
vn 0.9179631 0.3966658 0
vn 0.9179631 0.3966658 0
vn 0.9179631 0.3966658 0
vn 0 1 0
vn 0 1 0
vn 0 1 0
vn 0 1 0
vn 0 1 0
vn 0 1 0
vn 0 1 0
vn 0 1 0
vn 0.9471918 -0.3206675 0
vn 0.9471918 -0.3206675 0
vn 0.9471918 -0.3206675 0
vn 0.9471918 -0.3206675 0
vn 0.9471918 -0.3206675 0
vn 0.9471918 -0.3206675 0
vn 0 -1 0
vn 0 -1 0
vn 0 -1 0
vn 0 -1 0
vn 0 -1 0
vn 0 -1 0
vn 0 -1 0
vn 0 -1 0
vn 0 0.3966658 0.917963
vn 0 0.3966658 0.917963
vn 0 0.3966658 0.917963
vn 0 0.3966658 0.917963
vn 0 0.3966658 0.917963
vn 0 0.3966658 0.917963
vn 0 -0.3206676 0.9471918
vn 0 -0.3206676 0.9471918
vn 0 -0.3206676 0.9471918
vn 0 -0.3206676 0.9471918
vn 0 -0.3206676 0.9471918
vn 0 -0.3206676 0.9471918
vn 0 -0.3206691 -0.9471914
vn 0 -0.3206691 -0.9471914
vn 0 -0.3206691 -0.9471914
vn 0 -0.3206691 -0.9471914
vn 0 -0.3206691 -0.9471914
vn 0 -0.3206691 -0.9471914
vn 0 0.3966647 -0.9179636
vn 0 0.3966647 -0.9179636
vn 0 0.3966647 -0.9179636
vn 0 0.3966647 -0.9179636
vn 0 0.3966647 -0.9179636
vn 0 0.3966647 -0.9179636
vn -0.9179636 0.3966646 0
vn -0.9179636 0.3966646 0
vn -0.9179636 0.3966646 0
vn -0.9179636 0.3966646 0
vn -0.9179636 0.3966646 0
vn -0.9179636 0.3966646 0
vn -0.9471914 -0.3206691 0
vn -0.9471914 -0.3206691 0
vn -0.9471914 -0.3206691 0
vn -0.9471914 -0.3206691 0
vn -0.9471914 -0.3206691 0
vn -0.9471914 -0.3206691 0
g rock_0
f 3/3/3 2/2/2 1/1/1
f 6/6/6 5/5/5 4/4/4
f 9/9/9 8/8/8 7/7/7
f 12/12/12 11/11/11 10/10/10
f 15/15/15 14/14/14 13/13/13
f 18/18/18 17/17/17 16/16/16
f 21/21/21 20/20/20 19/19/19
f 24/24/24 23/23/23 22/22/22
f 27/27/27 26/26/26 25/25/25
f 25/25/25 28/28/28 27/27/27
f 25/25/25 29/29/29 28/28/28
f 29/29/29 30/30/30 28/28/28
f 33/33/33 32/32/32 31/31/31
f 31/31/31 34/34/34 33/33/33
f 31/31/31 35/35/35 34/34/34
f 31/31/31 36/36/36 35/35/35
f 36/36/36 37/37/37 35/35/35
f 36/36/36 38/38/38 37/37/37
f 41/41/41 40/40/40 39/39/39
f 39/39/39 42/42/42 41/41/41
f 39/39/39 43/43/43 42/42/42
f 43/43/43 44/44/44 42/42/42
f 47/47/47 46/46/46 45/45/45
f 45/45/45 48/48/48 47/47/47
f 45/45/45 49/49/49 48/48/48
f 49/49/49 50/50/50 48/48/48
f 49/49/49 51/51/51 50/50/50
f 51/51/51 52/52/52 50/50/50
f 55/55/55 54/54/54 53/53/53
f 53/53/53 56/56/56 55/55/55
f 56/56/56 57/57/57 55/55/55
f 57/57/57 58/58/58 55/55/55
f 61/61/61 60/60/60 59/59/59
f 59/59/59 62/62/62 61/61/61
f 59/59/59 63/63/63 62/62/62
f 59/59/59 64/64/64 63/63/63
f 67/67/67 66/66/66 65/65/65
f 65/65/65 68/68/68 67/67/67
f 68/68/68 69/69/69 67/67/67
f 69/69/69 70/70/70 67/67/67
f 73/73/73 72/72/72 71/71/71
f 71/71/71 74/74/74 73/73/73
f 71/71/71 75/75/75 74/74/74
f 71/71/71 76/76/76 75/75/75
f 79/79/79 78/78/78 77/77/77
f 77/77/77 80/80/80 79/79/79
f 80/80/80 81/81/81 79/79/79
f 80/80/80 82/82/82 81/81/81
f 85/85/85 84/84/84 83/83/83
f 83/83/83 86/86/86 85/85/85
f 86/86/86 87/87/87 85/85/85
f 86/86/86 88/88/88 87/87/87
