g secret_appear_starburst
v 0 0 0.3659167
v -2.520777 0 3.299729
v -0.3827878 0.2781084 0.2365789
v -0.2647773 -0.1923697 0.1636434
v 0.2783973 -0.8568332 0.450471
v -0.3973366 0.07210688 -0.2834372
v -0.1011339 -0.3112634 -0.1636434
v 0.3180349 0 0.1152106
v 0.2740274 -0.1354349 -0.1152106
v 0.146209 0.4499926 0.2365789
v 1.398536 0.7913364 1.877089
v -0.1751703 0.3778857 -0.2834372
v 0.3961606 0.1957979 -0.1665597
v 4.303539 0 -0.7761909
v -0.07581844 0.07210688 -0.4821464
v -1.292016 0.9708945 -2.09053
v 0.3741572 -1.151518 -1.58493
vn 0.09055057 -0.1142945 0.9893115
vn -0.6033053 -0.00811813 0.797469
vn -0.686256 0.7072533 0.1698397
vn -0.7581617 -0.6393498 0.1281507
vn 0.2906984 -0.8502433 0.4388402
vn -0.9431166 -0.2871894 -0.1674915
vn -0.5064351 -0.823865 -0.2544993
vn 0.8820077 -0.1348343 0.451533
vn 0.7219121 -0.5517955 -0.4175701
vn 0.1144172 0.9763759 0.1832994
vn 0.5779236 0.2952794 0.7607985
vn -0.07107911 0.9733778 -0.2179067
vn 0.5642676 0.6502094 -0.5087533
vn 0.9839892 -0.005645989 -0.1781386
vn 0.2141241 -0.002288955 -0.9768038
vn -0.4899319 0.362787 -0.7926868
vn 0.2013656 -0.5992137 -0.7748516
g secret_appear_starburst_0
f 3/3/3 2/2/2 1/1/1
f 1/1/1 2/2/2 4/4/4
f 4/4/4 2/2/2 3/3/3
f 5/5/5 1/1/1 4/4/4
f 4/4/4 3/3/3 6/6/6
f 5/5/5 4/4/4 7/7/7
f 7/7/7 4/4/4 6/6/6
f 8/8/8 1/1/1 5/5/5
f 9/9/9 5/5/5 7/7/7
f 8/8/8 5/5/5 9/9/9
f 3/3/3 1/1/1 10/10/10
f 8/8/8 11/11/11 1/1/1
f 1/1/1 11/11/11 10/10/10
f 10/10/10 11/11/11 8/8/8
f 3/3/3 10/10/10 12/12/12
f 6/6/6 3/3/3 12/12/12
f 10/10/10 8/8/8 13/13/13
f 12/12/12 10/10/10 13/13/13
f 9/9/9 14/14/14 8/8/8
f 8/8/8 14/14/14 13/13/13
f 13/13/13 14/14/14 9/9/9
f 12/12/12 13/13/13 15/15/15
f 15/15/15 13/13/13 9/9/9
f 7/7/7 6/6/6 15/15/15
f 12/12/12 16/16/16 6/6/6
f 15/15/15 16/16/16 12/12/12
f 6/6/6 16/16/16 15/15/15
f 7/7/7 17/17/17 9/9/9
f 9/9/9 17/17/17 15/15/15
f 15/15/15 17/17/17 7/7/7
