g secret_appear_beams
v -0.06407547 0.05036493 9.915524E-10
v -0.06407547 -0.05036493 -9.915524E-10
v -12.53592 -0.05036493 -9.915524E-10
v -12.53592 0.05036493 9.915524E-10
v 0.07565504 0.03030851 -8.265107E-10
v -0.01157957 0.08067346 1.088674E-08
v 6.224346 10.88161 9.899642E-07
v 6.311581 10.83125 9.78251E-07
v -0.01157958 -0.08067345 -1.088674E-08
v 0.07565505 -0.03030853 8.265078E-10
v 6.311578 -10.83125 -9.78251E-07
v 6.224344 -10.88161 -9.899642E-07
vt 0.001503944 0.8598344
vt 0.001503944 0.8901656
vt -1.001504 0.8901656
vt -1.001504 0.8598344
vt 0.001503944 0.6098344
vt 0.001503944 0.6401656
vt -1.001504 0.6401656
vt -1.001504 0.6098344
vt 0.001503944 0.3598344
vt 0.001503944 0.3901656
vt -1.001504 0.3901656
vt -1.001504 0.3598344
vn 0 0 1
vn 0 0 1
vn 0 0 1
vn 0 0 1
vn 0 0 1
vn 0 0 1
vn 0 0 1
vn 0 0 1
vn 0 0 1
vn 0 0 1
vn 0 0 1
vn 0 0 1
g secret_appear_beams_0
f 3/3/3 2/2/2 1/1/1
f 4/4/4 3/3/3 1/1/1
f 7/7/7 6/6/6 5/5/5
f 8/8/8 7/7/7 5/5/5
f 11/11/11 10/10/10 9/9/9
f 12/12/12 11/11/11 9/9/9
