g sewer_debris_2
v 0.7 1 -2.980232E-08
v 1 1 -0.3
v 1 0.7 -2.980232E-08
v -1 0.7 1
v -1 1 0.7
v -0.7 1 1
v -0.3 1 1
v 0 1 0.7
v 0 0.7 1
v 1 0.5 -1
v 1 1 -0.5
v 0.5 1 -1
v -1 2.68 -2.980232E-08
v -1 3 -0.32
v -0.68 3 -2.980232E-08
v 0 2.68 -2.980232E-08
v -0.32 3 -2.980232E-08
v 0 3 -0.32
v 0 3 -0.58
v -0.42 3 -1
v 0 2.342007 -1
v -1 1 -0.76
v -0.76 1 -1
v -1 1.24 -1
v -1 1 -0.76
v -1 0.76 -1
v -0.76 1 -1
v -1 2 -0.24
v -1 2.24 -2.980232E-08
v -0.76 2 -2.980232E-08
v -0.76 2 -1
v -1 2.24 -1
v -1 2 -0.76
v -1 2 -0.24
v -0.76 2 -2.980232E-08
v -1 1.76 -2.980232E-08
v -0.76 2 -1
v -1 2 -0.76
v -1 1.76 -1
v 0.318136 1.952902 -0.7922736
v 0.2168829 1.952902 -0.9768981
v 0.05383784 1.952902 -0.9768981
v 0.05383784 1.952902 -0.9768981
v 0.2168829 1.952902 -0.9768981
v 0.318136 1.952902 -0.7922736
v -1 3 -1
v -1 2.24 -1
v -0.76 2 -1
v -0.42 3 -1
v 0 2.342007 -1
v 0 2 -1
v -0.76 1 -1
v 0 1 -1
v -0.76 2 -1
v -1 1.24 -1
v -1 1.76 -1
v -1 -2.185569E-08 -1
v 0 -2.185569E-08 -1
v -1 0.76 -1
v -1 0.7 1
v -1 -2.185569E-08 1
v -1 -2.185569E-08 -2.980232E-08
v -1 1 -2.980232E-08
v -1 1 0.7
v -1 1.76 -2.980232E-08
v -1 1 -0.76
v -1 1.24 -1
v -1 1.76 -1
v -1 2 -0.24
v -1 2 -0.76
v -1 2.24 -2.980232E-08
v -1 2.24 -1
v -1 2.68 -2.980232E-08
v -1 3 -1
v -1 3 -0.32
v 0 -2.185569E-08 -1
v -1 -2.185569E-08 -1
v -1 -2.185569E-08 -2.980232E-08
v 0 -2.185569E-08 -2.980232E-08
v 1 -2.185569E-08 -1
v 1 -2.185569E-08 -2.980232E-08
v 0 -2.185569E-08 1
v -1 -2.185569E-08 1
v -1 3 -0.32
v -1 3 -1
v -0.42 3 -1
v 0 3 -0.58
v 0 3 -0.32
v -0.68 3 -2.980232E-08
v -0.32 3 -2.980232E-08
v 0 1 -2.980232E-08
v 0 2 -1
v 0 1 -1
v 0 2 -2.980232E-08
v 0 2.342007 -1
v 0 2.68 -2.980232E-08
v 0 3 -0.58
v 0 3 -0.32
v -1 1 -2.980232E-08
v -1 -2.185569E-08 -2.980232E-08
v -1 -2.185569E-08 -1
v -1 0.76 -1
v -1 1 -0.76
v -1 1 -2.980232E-08
v -1 1.76 -2.980232E-08
v -0.76 2 -2.980232E-08
v 0 1 -2.980232E-08
v 0 2 -2.980232E-08
v -0.32 3 -2.980232E-08
v 0 2.68 -2.980232E-08
v -0.68 3 -2.980232E-08
v -1 2.68 -2.980232E-08
v -1 2.24 -2.980232E-08
v 0.7 1 -2.980232E-08
v 1 0.7 -2.980232E-08
v 1 -2.185569E-08 -2.980232E-08
v 0 -2.185569E-08 -2.980232E-08
v 0 1 -2.980232E-08
v 0 1 -2.980232E-08
v 0 1 -1
v 0.5 1 -1
v 1 1 -0.5
v 1 1 -0.3
v 0.7 1 -2.980232E-08
v -1 1 0.7
v -1 1 -2.980232E-08
v 0 1 -2.980232E-08
v 0 1 0.7
v -0.7 1 1
v -0.3 1 1
v -0.3 1 1
v 0 0.7 1
v 0 -2.185569E-08 1
v -1 -2.185569E-08 1
v -0.7 1 1
v -1 0.7 1
v 0 1 -2.980232E-08
v 0 -2.185569E-08 -2.980232E-08
v 0 -2.185569E-08 1
v 0 0.7 1
v 0 1 0.7
v 1 0.5 -1
v 1 -2.185569E-08 -1
v 1 -2.185569E-08 -2.980232E-08
v 1 0.7 -2.980232E-08
v 1 1 -0.5
v 1 1 -0.3
v 0 -2.185569E-08 -1
v 1 -2.185569E-08 -1
v 1 0.5 -1
v 0.5 1 -1
v 0 1 -1
v -0.001976844 1.000494 -0.9768981
v 0.3806359 1.000494 -0.9768981
v 0.05383784 1.952902 -0.9768981
v -0.001976844 1.952902 -0.9768981
v 0.2869384 1.952902 -0.02448989
v 0.8882768 1.301018 -0.02448989
v 0.8882768 1.000494 -0.02448989
v -0.001976844 1.000494 -0.02448989
v -0.001976844 1.952902 -0.02448989
v 0.8882768 1.000494 -0.6223097
v 0.3806359 1.000494 -0.9768981
v -0.001976844 1.000494 -0.9768981
v -0.001976844 1.000494 -0.02448989
v 0.8882768 1.000494 -0.02448989
v -0.001976844 1.952902 -0.02448989
v -0.001976844 1.952902 -0.9768981
v 0.05383784 1.952902 -0.9768981
v 0.318136 1.952902 -0.7922736
v 0.4873287 1.952902 -0.4837687
v 0.2869384 1.952902 -0.02448989
v 0.2869384 1.952902 -0.02448989
v 0.4873287 1.952902 -0.4837687
v 0.8882768 1.493056 -0.43049
v 0.8882768 1.301018 -0.02448989
v 0.8882768 1.433294 -0.5185739
v 0.8882768 1.493056 -0.43049
v 0.4873287 1.952902 -0.4837687
v 0.318136 1.952902 -0.7922736
v 0.3806359 1.000494 -0.9768981
v 0.8882768 1.000494 -0.6223097
v 0.8882768 1.433294 -0.5185739
v 0.318136 1.952902 -0.7922736
v 0.05383784 1.952902 -0.9768981
v 0.8882768 1.433294 -0.5185739
v 0.8882768 1.000494 -0.6223097
v 0.8882768 1.000494 -0.02448989
v 0.8882768 1.301018 -0.02448989
v 0.8882768 1.493056 -0.43049
vt 0.7125 0.25
vt 0.75 0.2125
vt 0.75 0.25
vt 0.4625 0.375
vt 0.5 0.3375
vt 0.5 0.375
vt 0.5875 0.375
vt 0.625 0.3375
vt 0.625 0.375
vt 0.4375 0.125
vt 0.5 0.1875
vt 0.5 0.125
vt 0.71 0.25
vt 0.75 0.21
vt 0.75 0.25
vt 0.625 0.335
vt 0.585 0.375
vt 0.625 0.375
vt 0.625 0.1775
vt 0.5725 0.125
vt 0.625 0.125
vt 0.1415545 0.7506102
vt 0.1715545 0.7506102
vt 0.1415545 0.7806102
vt 0.1415545 0.7506102
vt 0.1415545 0.7206102
vt 0.1715545 0.7506102
vt 0.1415545 0.8756102
vt 0.1415545 0.9056101
vt 0.1715545 0.8756102
vt 0.1715545 0.8756102
vt 0.1415545 0.9056101
vt 0.1415545 0.8756102
vt 0.1415545 0.8756102
vt 0.1715545 0.8756102
vt 0.1415545 0.8456102
vt 0.1715545 0.8756102
vt 0.1415545 0.8756102
vt 0.1415545 0.8456102
vt 0.4814694 0.5563632
vt 0.4681803 0.5563632
vt 0.4467812 0.5563632
vt 0.7631447 0.1261993
vt 0.7845438 0.1261993
vt 0.7978329 0.1504306
vt 0.5 0.375
vt 0.5 0.28
vt 0.53 0.25
vt 0.5725 0.375
vt 0.625 0.3225
vt 0.625 0.25
vt 0.53 0.125
vt 0.625 0.125
vt 0.53 0.25
vt 0.5 0.155
vt 0.5 0.22
vt 0.5 0
vt 0.625 0
vt 0.5 0.095
vt 0.4625 0.375
vt 0.375 0.375
vt 0.375 0.25
vt 0.5 0.25
vt 0.5 0.3375
vt 0.595 0.25
vt 0.5 0.155
vt 0.53 0.125
vt 0.595 0.125
vt 0.625 0.22
vt 0.625 0.155
vt 0.655 0.25
vt 0.655 0.125
vt 0.71 0.25
vt 0.75 0.125
vt 0.75 0.21
vt 0.625 0.125
vt 0.5 0.125
vt 0.5 0.25
vt 0.625 0.25
vt 0.75 0.125
vt 0.75 0.25
vt 0.625 0.375
vt 0.5 0.375
vt 0.5 0.21
vt 0.5 0.125
vt 0.5725 0.125
vt 0.625 0.1775
vt 0.625 0.21
vt 0.54 0.25
vt 0.585 0.25
vt 0.5 0.25
vt 0.625 0.125
vt 0.5 0.125
vt 0.625 0.25
vt 0.6975 0.125
vt 0.71 0.25
vt 0.75 0.1775
vt 0.75 0.21
vt 0.75 0.25
vt 0.625 0.25
vt 0.625 0.125
vt 0.72 0.125
vt 0.75 0.155
vt 0.5 0.125
vt 0.5 0.22
vt 0.53 0.25
vt 0.625 0.125
vt 0.625 0.25
vt 0.585 0.375
vt 0.625 0.335
vt 0.54 0.375
vt 0.5 0.335
vt 0.5 0.28
vt 0.7125 0.125
vt 0.75 0.08750001
vt 0.75 0
vt 0.625 0
vt 0.625 0.125
vt 0.625 0.25
vt 0.625 0.125
vt 0.6875 0.125
vt 0.75 0.1875
vt 0.75 0.2125
vt 0.7125 0.25
vt 0.5 0.3375
vt 0.5 0.25
vt 0.625 0.25
vt 0.625 0.3375
vt 0.5375 0.375
vt 0.5875 0.375
vt 0.5875 0.125
vt 0.625 0.08750001
vt 0.625 0
vt 0.5 0
vt 0.5375 0.125
vt 0.5 0.08750001
vt 0.75 0.25
vt 0.625 0.25
vt 0.625 0.375
vt 0.7125 0.375
vt 0.75 0.3375
vt 0.4375 0.125
vt 0.375 0.125
vt 0.375 0.25
vt 0.4625 0.25
vt 0.5 0.1875
vt 0.5 0.2125
vt 0.625 0.25
vt 0.75 0.25
vt 0.75 0.3125
vt 0.6875 0.375
vt 0.625 0.375
vt 0.7476617 0.1268022
vt 0.8060358 0.1268022
vt 0.7631447 0.2518021
vt 0.7476617 0.2518021
vt 0.5437384 0.2518021
vt 0.6226617 0.1662448
vt 0.6226617 0.1268022
vt 0.4976617 0.1268022
vt 0.4976617 0.2518021
vt 0.8726617 0.1727377
vt 0.8060358 0.1261993
vt 0.7476617 0.1261993
vt 0.7476617 0.2511993
vt 0.8726617 0.2511993
vt 0.7476617 0.2511993
vt 0.7476617 0.1261993
vt 0.7631447 0.1261993
vt 0.7978329 0.1504306
vt 0.8200388 0.1909207
vt 0.7937384 0.2511993
vt 0.744679 0.2511993
vt 0.744679 0.1909207
vt 0.6843261 0.1979133
vt 0.6591217 0.2511993
vt 0.6764825 0.1863526
vt 0.6843261 0.1979133
vt 0.744679 0.1909207
vt 0.744679 0.1504306
vt 0.4896723 0.4313632
vt 0.5562981 0.4313632
vt 0.5562981 0.4881666
vt 0.4814694 0.5563632
vt 0.4467812 0.5563632
vt 0.6818536 0.1863526
vt 0.6250501 0.1727377
vt 0.6250501 0.2511993
vt 0.6644928 0.2511993
vt 0.6896971 0.1979133
vn 0.5773503 0.5773503 0.5773503
vn 0.5773503 0.5773503 0.5773503
vn 0.5773503 0.5773503 0.5773503
vn -0.5773503 0.5773503 0.5773503
vn -0.5773503 0.5773503 0.5773503
vn -0.5773503 0.5773503 0.5773503
vn 0.5773503 0.5773503 0.5773503
vn 0.5773503 0.5773503 0.5773503
vn 0.5773503 0.5773503 0.5773503
vn 0.5773503 0.5773503 -0.5773503
vn 0.5773503 0.5773503 -0.5773503
vn 0.5773503 0.5773503 -0.5773503
vn -0.5773503 0.5773504 0.5773501
vn -0.5773503 0.5773504 0.5773501
vn -0.5773503 0.5773504 0.5773501
vn 0.5773503 0.5773504 0.5773501
vn 0.5773503 0.5773504 0.5773501
vn 0.5773503 0.5773504 0.5773501
vn 0.6445 0.4113874 -0.6445
vn 0.6445 0.4113874 -0.6445
vn 0.6445 0.4113874 -0.6445
vn -0.5773502 -0.5773502 -0.5773505
vn -0.5773502 -0.5773502 -0.5773505
vn -0.5773502 -0.5773502 -0.5773505
vn -0.5773503 0.5773503 -0.5773503
vn -0.5773503 0.5773503 -0.5773503
vn -0.5773503 0.5773503 -0.5773503
vn -0.5773506 -0.5773505 0.5773496
vn -0.5773506 -0.5773505 0.5773496
vn -0.5773506 -0.5773505 0.5773496
vn -0.5773506 -0.5773506 -0.5773497
vn -0.5773506 -0.5773506 -0.5773497
vn -0.5773506 -0.5773506 -0.5773497
vn -0.5773502 0.5773501 0.5773504
vn -0.5773502 0.5773501 0.5773504
vn -0.5773502 0.5773501 0.5773504
vn -0.5773502 0.5773502 -0.5773505
vn -0.5773502 0.5773502 -0.5773505
vn -0.5773502 0.5773502 -0.5773505
vn 0.5644161 0.168904 -0.8080259
vn 0.5644161 0.168904 -0.8080259
vn 0.5644161 0.168904 -0.8080259
vn 0 1 0
vn 0 1 0
vn 0 1 0
vn 0 0 -1
vn 0 0 -1
vn 0 0 -1
vn 0 0 -1
vn 0 0 -1
vn 0 0 -1
vn 0 0 -1
vn 0 0 -1
vn 0 0 -1
vn 0 0 -1
vn 0 0 -1
vn 0 0 -1
vn 0 0 -1
vn 0 0 -1
vn -1 0 0
vn -1 0 0
vn -1 0 0
vn -1 0 0
vn -1 0 0
vn -1 0 0
vn -1 0 0
vn -1 0 0
vn -1 0 0
vn -1 0 0
vn -1 0 0
vn -1 0 0
vn -1 0 0
vn -1 0 0
vn -1 0 0
vn -1 0 0
vn 0 -1 0
vn 0 -1 0
vn 0 -1 0
vn 0 -1 0
vn 0 -1 0
vn 0 -1 0
vn 0 -1 0
vn 0 -1 0
vn 0 1 0
vn 0 1 0
vn 0 1 0
vn 0 1 0
vn 0 1 0
vn 0 1 0
vn 0 1 0
vn 1 0 0
vn 1 0 0
vn 1 0 0
vn 1 0 0
vn 1 0 0
vn 1 0 0
vn 1 0 0
vn 1 0 0
vn -1 0 0
vn -1 0 0
vn -1 0 0
vn -1 0 0
vn -1 0 0
vn 0 0 1
vn 0 0 1
vn 0 0 1
vn 0 0 1
vn 0 0 1
vn 0 0 1
vn 0 0 1
vn 0 0 1
vn 0 0 1
vn 0 0 1
vn 0 0 1
vn 0 0 1
vn 0 0 1
vn 0 0 1
vn 0 0 1
vn 0 1 0
vn 0 1 0
vn 0 1 0
vn 0 1 0
vn 0 1 0
vn 0 1 0
vn 0 1 0
vn 0 1 0
vn 0 1 0
vn 0 1 0
vn 0 1 0
vn 0 1 0
vn 0 0 1
vn 0 0 1
vn 0 0 1
vn 0 0 1
vn 0 0 1
vn 0 0 1
vn 1 0 0
vn 1 0 0
vn 1 0 0
vn 1 0 0
vn 1 0 0
vn 1 0 0
vn 1 0 0
vn 1 0 0
vn 1 0 0
vn 1 0 0
vn 1 0 0
vn 0 0 -1
vn 0 0 -1
vn 0 0 -1
vn 0 0 -1
vn 0 0 -1
vn 0 0 -1
vn 0 0 -1
vn 0 0 -1
vn 0 0 -1
vn 0 0 1
vn 0 0 1
vn 0 0 1
vn 0 0 1
vn 0 0 1
vn 0 -1 0
vn 0 -1 0
vn 0 -1 0
vn 0 -1 0
vn 0 -1 0
vn 0 1 0
vn 0 1 0
vn 0 1 0
vn 0 1 0
vn 0 1 0
vn 0 1 0
vn 0.6999136 0.6456468 0.3053871
vn 0.6999136 0.6456468 0.3053871
vn 0.6999136 0.6456468 0.3053871
vn 0.6999136 0.6456468 0.3053871
vn 0.7153367 0.5782581 -0.3923151
vn 0.7153367 0.5782581 -0.3923151
vn 0.7153367 0.5782581 -0.3923151
vn 0.7153367 0.5782581 -0.3923151
vn 0.5644161 0.168904 -0.8080259
vn 0.5644161 0.168904 -0.8080259
vn 0.5644161 0.168904 -0.8080259
vn 0.5644161 0.168904 -0.8080259
vn 0.5644161 0.168904 -0.8080259
vn 1 0 0
vn 1 0 0
vn 1 0 0
vn 1 0 0
vn 1 0 0
g sewer_debris_2_0
f 3/3/3 2/2/2 1/1/1
f 6/6/6 5/5/5 4/4/4
f 9/9/9 8/8/8 7/7/7
f 12/12/12 11/11/11 10/10/10
f 15/15/15 14/14/14 13/13/13
f 18/18/18 17/17/17 16/16/16
f 21/21/21 20/20/20 19/19/19
f 24/24/24 23/23/23 22/22/22
f 27/27/27 26/26/26 25/25/25
f 30/30/30 29/29/29 28/28/28
f 33/33/33 32/32/32 31/31/31
f 36/36/36 35/35/35 34/34/34
f 39/39/39 38/38/38 37/37/37
f 42/42/42 41/41/41 40/40/40
f 45/45/45 44/44/44 43/43/43
f 48/48/48 47/47/47 46/46/46
f 48/48/48 46/46/46 49/49/49
f 48/48/48 49/49/49 50/50/50
f 50/50/50 51/51/51 48/48/48
f 51/51/51 53/53/53 52/52/52
f 52/52/52 54/54/54 51/51/51
f 52/52/52 55/55/55 54/54/54
f 55/55/55 56/56/56 54/54/54
f 57/57/57 52/52/52 53/53/53
f 53/53/53 58/58/58 57/57/57
f 57/57/57 59/59/59 52/52/52
f 62/62/62 61/61/61 60/60/60
f 60/60/60 63/63/63 62/62/62
f 60/60/60 64/64/64 63/63/63
f 66/66/66 63/63/63 65/65/65
f 65/65/65 67/67/67 66/66/66
f 65/65/65 68/68/68 67/67/67
f 65/65/65 69/69/69 68/68/68
f 69/69/69 70/70/70 68/68/68
f 70/70/70 69/69/69 71/71/71
f 71/71/71 72/72/72 70/70/70
f 71/71/71 73/73/73 72/72/72
f 73/73/73 74/74/74 72/72/72
f 73/73/73 75/75/75 74/74/74
f 78/78/78 77/77/77 76/76/76
f 79/79/79 78/78/78 76/76/76
f 76/76/76 80/80/80 79/79/79
f 80/80/80 81/81/81 79/79/79
f 79/79/79 82/82/82 78/78/78
f 82/82/82 83/83/83 78/78/78
f 86/86/86 85/85/85 84/84/84
f 84/84/84 87/87/87 86/86/86
f 84/84/84 88/88/88 87/87/87
f 84/84/84 89/89/89 88/88/88
f 89/89/89 90/90/90 88/88/88
f 93/93/93 92/92/92 91/91/91
f 92/92/92 94/94/94 91/91/91
f 94/94/94 92/92/92 95/95/95
f 95/95/95 96/96/96 94/94/94
f 95/95/95 97/97/97 96/96/96
f 97/97/97 98/98/98 96/96/96
f 101/101/101 100/100/100 99/99/99
f 99/99/99 102/102/102 101/101/101
f 99/99/99 103/103/103 102/102/102
f 106/106/106 105/105/105 104/104/104
f 106/106/106 104/104/104 107/107/107
f 107/107/107 108/108/108 106/106/106
f 109/109/109 106/106/106 108/108/108
f 108/108/108 110/110/110 109/109/109
f 109/109/109 111/111/111 106/106/106
f 111/111/111 112/112/112 106/106/106
f 112/112/112 113/113/113 106/106/106
f 116/116/116 115/115/115 114/114/114
f 114/114/114 117/117/117 116/116/116
f 114/114/114 118/118/118 117/117/117
f 121/121/121 120/120/120 119/119/119
f 119/119/119 122/122/122 121/121/121
f 119/119/119 123/123/123 122/122/122
f 119/119/119 124/124/124 123/123/123
f 127/127/127 126/126/126 125/125/125
f 125/125/125 128/128/128 127/127/127
f 125/125/125 129/129/129 128/128/128
f 129/129/129 130/130/130 128/128/128
f 133/133/133 132/132/132 131/131/131
f 131/131/131 134/134/134 133/133/133
f 131/131/131 135/135/135 134/134/134
f 135/135/135 136/136/136 134/134/134
f 139/139/139 138/138/138 137/137/137
f 137/137/137 140/140/140 139/139/139
f 137/137/137 141/141/141 140/140/140
f 144/144/144 143/143/143 142/142/142
f 142/142/142 145/145/145 144/144/144
f 142/142/142 146/146/146 145/145/145
f 146/146/146 147/147/147 145/145/145
f 150/150/150 149/149/149 148/148/148
f 148/148/148 151/151/151 150/150/150
f 148/148/148 152/152/152 151/151/151
f 155/155/155 154/154/154 153/153/153
f 156/156/156 155/155/155 153/153/153
f 159/159/159 158/158/158 157/157/157
f 157/157/157 160/160/160 159/159/159
f 157/157/157 161/161/161 160/160/160
f 164/164/164 163/163/163 162/162/162
f 162/162/162 165/165/165 164/164/164
f 162/162/162 166/166/166 165/165/165
f 169/169/169 168/168/168 167/167/167
f 167/167/167 170/170/170 169/169/169
f 167/167/167 171/171/171 170/170/170
f 167/167/167 172/172/172 171/171/171
f 175/175/175 174/174/174 173/173/173
f 176/176/176 175/175/175 173/173/173
f 179/179/179 178/178/178 177/177/177
f 180/180/180 179/179/179 177/177/177
f 183/183/183 182/182/182 181/181/181
f 181/181/181 184/184/184 183/183/183
f 181/181/181 185/185/185 184/184/184
f 188/188/188 187/187/187 186/186/186
f 186/186/186 189/189/189 188/188/188
f 186/186/186 190/190/190 189/189/189
