g sewer_barrel_debris4
v -1.252123 -0.09707856 -3.787271E-08
v -0.8802286 0.09707832 0.8802283
v -0.8853852 -0.09707856 0.8853849
v -1.244831 0.09707832 -2.2783E-08
v -0.8802286 0.09707832 -0.8802284
v -0.8853852 -0.09707856 -0.8853849
v 0.817261 0.1428125 0.817261
v -8.647483E-08 0.09707832 1.244831
v -7.868989E-08 0.1428125 1.155782
v 0.8802285 0.09707832 0.8802284
v 1.155782 0.1428125 1.559858E-08
v 1.244831 0.09707832 1.799702E-08
v 0.817261 0.1428125 -0.817261
v 1.244831 0.09707832 1.799702E-08
v 1.155782 0.1428125 1.559858E-08
v 0.8802285 0.09707832 -0.8802285
v 2.235174E-08 0.1428125 -1.155782
v 2.235174E-08 0.09707832 -1.244831
v -0.8172612 0.1428125 -0.817261
v -0.8802286 0.09707832 -0.8802284
v -1.155782 0.1428125 -2.226422E-08
v -1.244831 0.09707832 -2.2783E-08
v -0.8172612 0.1428125 0.8172609
v -0.8802286 0.09707832 0.8802283
v -7.868989E-08 0.1428125 1.155782
v -8.647483E-08 0.09707832 1.244831
v 2.235174E-08 -0.09707856 -1.252123
v 0.885385 -0.09707856 -0.885385
v 0.8802285 0.09707832 -0.8802285
v 2.235174E-08 0.09707832 -1.244831
v -0.8853852 -0.09707856 -0.8853849
v -0.8802286 0.09707832 -0.8802284
v 0.885385 -0.09707856 -0.885385
v 1.252123 -0.09707856 -3.698769E-09
v 1.244831 0.09707832 1.799702E-08
v 0.8802285 0.09707832 -0.8802285
v 1.252123 -0.09707856 -3.698769E-09
v 0.8802285 0.09707832 0.8802284
v 1.244831 0.09707832 1.799702E-08
v 0.885385 -0.09707856 0.8853849
v -8.647483E-08 0.09707832 1.244831
v -8.711237E-08 -0.09707868 1.252123
v -8.711237E-08 -0.09707868 1.252123
v -0.8853852 -0.09707856 0.8853849
v -0.8802286 0.09707832 0.8802283
v -8.647483E-08 0.09707832 1.244831
v -0.8220489 -0.1428127 0.8220486
v -1.162552 -0.1428127 -3.166917E-08
v -1.252123 -0.09707856 -3.787271E-08
v -0.8853852 -0.09707856 0.8853849
v -8.711237E-08 -0.09707868 1.252123
v -7.928183E-08 -0.1428128 1.162552
v 0.885385 -0.09707856 0.8853849
v 0.8220488 -0.1428127 0.8220487
v 1.252123 -0.09707856 -3.698769E-09
v 1.162552 -0.1428127 6.012613E-11
v 0.885385 -0.09707856 -0.885385
v 0.8220488 -0.1428127 -0.8220488
v 2.235174E-08 -0.09707856 -1.252123
v 2.235174E-08 -0.1428127 -1.162552
v -0.8220489 -0.1428127 -0.8220487
v -1.252123 -0.09707856 -3.787271E-08
v -1.162552 -0.1428127 -3.166917E-08
v -0.8853852 -0.09707856 -0.8853849
v 2.235174E-08 -0.1428127 -1.162552
v 2.235174E-08 -0.09707856 -1.252123
v -0.8220489 -0.1428127 -0.8220487
v 0.8220488 -0.1428127 0.8220487
v 1.162552 -0.1428127 6.012613E-11
v 1.155782 0.1428125 1.559858E-08
v 0.817261 0.1428125 0.817261
v 1.162552 -0.1428127 6.012613E-11
v 0.8220488 -0.1428127 -0.8220488
v 0.817261 0.1428125 -0.817261
v 1.155782 0.1428125 1.559858E-08
v 0.8220488 -0.1428127 -0.8220488
v 2.235174E-08 -0.1428127 -1.162552
v 2.235174E-08 0.1428125 -1.155782
v 0.817261 0.1428125 -0.817261
v 2.235174E-08 -0.1428127 -1.162552
v -0.8220489 -0.1428127 -0.8220487
v -0.8172612 0.1428125 -0.817261
v 2.235174E-08 0.1428125 -1.155782
v -0.8220489 -0.1428127 -0.8220487
v -1.162552 -0.1428127 -3.166917E-08
v -1.155782 0.1428125 -2.226422E-08
v -0.8172612 0.1428125 -0.817261
v -1.162552 -0.1428127 -3.166917E-08
v -0.8220489 -0.1428127 0.8220486
v -0.8172612 0.1428125 0.8172609
v -1.155782 0.1428125 -2.226422E-08
v -0.8220489 -0.1428127 0.8220486
v -7.928183E-08 -0.1428128 1.162552
v -7.868989E-08 0.1428125 1.155782
v -0.8172612 0.1428125 0.8172609
v -7.928183E-08 -0.1428128 1.162552
v 0.8220488 -0.1428127 0.8220487
v 0.817261 0.1428125 0.817261
v -7.868989E-08 0.1428125 1.155782
vt 0.9551181 0.8002456
vt 0.9580036 0.8076786
vt 0.9580531 0.8051724
vt 0.9550856 0.8027804
vt 0.948929 0.8010628
vt 0.9489253 0.7985179
vt 0.9501398 0.8154351
vt 0.9559736 0.8128878
vt 0.9555146 0.8131428
vt 0.9501846 0.8153568
vt 0.9444235 0.8138403
vt 0.944028 0.8136391
vt 0.9417142 0.8092926
vt 0.944028 0.8136391
vt 0.9444235 0.8138403
vt 0.94111 0.808741
vt 0.9435991 0.804456
vt 0.9431401 0.8035318
vt 0.9489739 0.8021637
vt 0.948929 0.8010628
vt 0.9546902 0.8037584
vt 0.9550856 0.8027804
vt 0.9573994 0.8083062
vt 0.9580036 0.8076786
vt 0.9555146 0.8131428
vt 0.9559736 0.8128878
vt 0.9431025 0.8010013
vt 0.9410605 0.8062411
vt 0.94111 0.808741
vt 0.9431401 0.8035318
vt 0.9489253 0.7985179
vt 0.948929 0.8010628
vt 0.9410605 0.8062411
vt 0.9439956 0.8111678
vt 0.944028 0.8136391
vt 0.94111 0.808741
vt 0.9439956 0.8111678
vt 0.9501846 0.8153568
vt 0.944028 0.8136391
vt 0.9501883 0.8128956
vt 0.9559736 0.8128878
vt 0.9560112 0.8104122
vt 0.9560112 0.8104122
vt 0.9580531 0.8051724
vt 0.9580036 0.8076786
vt 0.9559736 0.8128878
vt 0.9574453 0.804621
vt 0.9547202 0.8000467
vt 0.9551181 0.8002456
vt 0.9580531 0.8051724
vt 0.9560112 0.8104122
vt 0.9555495 0.809486
vt 0.9501883 0.8128956
vt 0.9501432 0.8117917
vt 0.9439956 0.8111678
vt 0.9443935 0.8101876
vt 0.9410605 0.8062411
vt 0.9416683 0.8056133
vt 0.9431025 0.8010013
vt 0.9435642 0.8007483
vt 0.9500593 0.7987463
vt 0.9551181 0.8002456
vt 0.9547202 0.8000467
vt 0.9489253 0.7985179
vt 0.9435642 0.8007483
vt 0.9431025 0.8010013
vt 0.9489705 0.7984425
vt 0.9501398 0.8154351
vt 0.9501432 0.8117917
vt 0.9443935 0.8101876
vt 0.9444235 0.8138403
vt 0.9444235 0.8138403
vt 0.9443935 0.8101876
vt 0.9416683 0.8056133
vt 0.9417142 0.8092926
vt 0.9417142 0.8092926
vt 0.9416683 0.8056133
vt 0.9435642 0.8007483
vt 0.9435991 0.804456
vt 0.9435991 0.804456
vt 0.9435642 0.8007483
vt 0.9489705 0.7984425
vt 0.9489739 0.8021637
vt 0.9489739 0.8021637
vt 0.9500593 0.7987463
vt 0.9547202 0.8000467
vt 0.9546902 0.8037584
vt 0.9546902 0.8037584
vt 0.9547202 0.8000467
vt 0.9574453 0.804621
vt 0.9573994 0.8083062
vt 0.9573994 0.8083062
vt 0.9574453 0.804621
vt 0.9555495 0.809486
vt 0.9555146 0.8131428
vt 0.9555146 0.8131428
vt 0.9555495 0.809486
vt 0.9501432 0.8117917
vt 0.9501398 0.8154351
vn -0.8899705 -0.456018 0
vn -0.6173387 0.4876329 0.6173387
vn -0.6293046 -0.456017 0.6293046
vn -0.8730437 0.4876422 0
vn -0.6173387 0.4876329 -0.6173387
vn -0.6293046 -0.456017 -0.6293046
vn 0.3230451 0.8895413 0.3230451
vn 0 0.4876422 0.8730437
vn 0 0.8895469 0.4568439
vn 0.6173387 0.4876329 0.6173387
vn 0.4568439 0.8895469 0
vn 0.8730437 0.4876422 0
vn 0.3230451 0.8895413 -0.3230451
vn 0.8730437 0.4876422 0
vn 0.4568439 0.8895469 0
vn 0.6173387 0.4876329 -0.6173387
vn 0 0.8895469 -0.4568439
vn 0 0.4876422 -0.8730437
vn -0.3230451 0.8895413 -0.3230451
vn -0.6173387 0.4876329 -0.6173387
vn -0.4568439 0.8895469 0
vn -0.8730437 0.4876422 0
vn -0.3230451 0.8895413 0.3230451
vn -0.6173387 0.4876329 0.6173387
vn 0 0.8895469 0.4568439
vn 0 0.4876422 0.8730437
vn 0 -0.456018 -0.8899705
vn 0.6293046 -0.456017 -0.6293046
vn 0.6173387 0.4876329 -0.6173387
vn 0 0.4876422 -0.8730437
vn -0.6293046 -0.456017 -0.6293046
vn -0.6173387 0.4876329 -0.6173387
vn 0.6293046 -0.456017 -0.6293046
vn 0.8899705 -0.456018 0
vn 0.8730437 0.4876422 0
vn 0.6173387 0.4876329 -0.6173387
vn 0.8899705 -0.456018 0
vn 0.6173387 0.4876329 0.6173387
vn 0.8730437 0.4876422 0
vn 0.6293046 -0.456017 0.6293046
vn 0 0.4876422 0.8730437
vn 0 -0.456018 0.8899705
vn 0 -0.456018 0.8899705
vn -0.6293046 -0.456017 0.6293046
vn -0.6173387 0.4876329 0.6173387
vn 0 0.4876422 0.8730437
vn -0.3215451 -0.8906276 0.3215451
vn -0.4547298 -0.8906294 0
vn -0.8899705 -0.456018 0
vn -0.6293046 -0.456017 0.6293046
vn 0 -0.456018 0.8899705
vn 0 -0.8906294 0.4547298
vn 0.6293046 -0.456017 0.6293046
vn 0.3215451 -0.8906276 0.3215451
vn 0.8899705 -0.456018 0
vn 0.4547298 -0.8906294 0
vn 0.6293046 -0.456017 -0.6293046
vn 0.3215451 -0.8906276 -0.3215451
vn 0 -0.456018 -0.8899705
vn 0 -0.8906294 -0.4547298
vn -0.3215451 -0.8906276 -0.3215451
vn -0.8899705 -0.456018 0
vn -0.4547298 -0.8906294 0
vn -0.6293046 -0.456017 -0.6293046
vn 0 -0.8906294 -0.4547298
vn 0 -0.456018 -0.8899705
vn -0.3215451 -0.8906276 -0.3215451
vn -0.7069084 -0.02368264 -0.7069084
vn -0.9997194 -0.02368295 0
vn -0.9997194 -0.02368295 0
vn -0.7069084 -0.02368264 -0.7069084
vn -0.9997194 -0.02368295 0
vn -0.7069084 -0.02368264 0.7069084
vn -0.7069084 -0.02368264 0.7069084
vn -0.9997194 -0.02368295 0
vn -0.7069084 -0.02368264 0.7069084
vn 0 -0.02368295 0.9997194
vn 0 -0.02368295 0.9997194
vn -0.7069084 -0.02368264 0.7069084
vn 0 -0.02368295 0.9997194
vn 0.7069084 -0.02368264 0.7069084
vn 0.7069084 -0.02368264 0.7069084
vn 0 -0.02368295 0.9997194
vn 0.7069084 -0.02368264 0.7069084
vn 0.9997194 -0.02368295 0
vn 0.9997194 -0.02368295 0
vn 0.7069084 -0.02368264 0.7069084
vn 0.9997194 -0.02368295 0
vn 0.7069084 -0.02368264 -0.7069084
vn 0.7069084 -0.02368264 -0.7069084
vn 0.9997194 -0.02368295 0
vn 0.7069084 -0.02368264 -0.7069084
vn 0 -0.02368295 -0.9997194
vn 0 -0.02368295 -0.9997194
vn 0.7069084 -0.02368264 -0.7069084
vn 0 -0.02368295 -0.9997194
vn -0.7069084 -0.02368264 -0.7069084
vn -0.7069084 -0.02368264 -0.7069084
vn 0 -0.02368295 -0.9997194
g sewer_barrel_debris4_0
f 3/3/3 2/2/2 1/1/1
f 2/2/2 4/4/4 1/1/1
f 4/4/4 5/5/5 1/1/1
f 5/5/5 6/6/6 1/1/1
f 9/9/9 8/8/8 7/7/7
f 8/8/8 10/10/10 7/7/7
f 7/7/7 10/10/10 11/11/11
f 10/10/10 12/12/12 11/11/11
f 15/15/15 14/14/14 13/13/13
f 14/14/14 16/16/16 13/13/13
f 13/13/13 16/16/16 17/17/17
f 16/16/16 18/18/18 17/17/17
f 17/17/17 18/18/18 19/19/19
f 18/18/18 20/20/20 19/19/19
f 19/19/19 20/20/20 21/21/21
f 20/20/20 22/22/22 21/21/21
f 21/21/21 22/22/22 23/23/23
f 22/22/22 24/24/24 23/23/23
f 23/23/23 24/24/24 25/25/25
f 24/24/24 26/26/26 25/25/25
f 29/29/29 28/28/28 27/27/27
f 30/30/30 29/29/29 27/27/27
f 30/30/30 27/27/27 31/31/31
f 32/32/32 30/30/30 31/31/31
f 35/35/35 34/34/34 33/33/33
f 36/36/36 35/35/35 33/33/33
f 39/39/39 38/38/38 37/37/37
f 38/38/38 40/40/40 37/37/37
f 38/38/38 41/41/41 40/40/40
f 41/41/41 42/42/42 40/40/40
f 45/45/45 44/44/44 43/43/43
f 46/46/46 45/45/45 43/43/43
f 49/49/49 48/48/48 47/47/47
f 50/50/50 49/49/49 47/47/47
f 51/51/51 50/50/50 47/47/47
f 52/52/52 51/51/51 47/47/47
f 53/53/53 51/51/51 52/52/52
f 54/54/54 53/53/53 52/52/52
f 55/55/55 53/53/53 54/54/54
f 56/56/56 55/55/55 54/54/54
f 57/57/57 55/55/55 56/56/56
f 58/58/58 57/57/57 56/56/56
f 59/59/59 57/57/57 58/58/58
f 60/60/60 59/59/59 58/58/58
f 63/63/63 62/62/62 61/61/61
f 62/62/62 64/64/64 61/61/61
f 64/64/64 66/66/66 65/65/65
f 67/67/67 64/64/64 65/65/65
f 70/70/70 69/69/69 68/68/68
f 71/71/71 70/70/70 68/68/68
f 74/74/74 73/73/73 72/72/72
f 75/75/75 74/74/74 72/72/72
f 78/78/78 77/77/77 76/76/76
f 79/79/79 78/78/78 76/76/76
f 82/82/82 81/81/81 80/80/80
f 83/83/83 82/82/82 80/80/80
f 86/86/86 85/85/85 84/84/84
f 87/87/87 86/86/86 84/84/84
f 90/90/90 89/89/89 88/88/88
f 91/91/91 90/90/90 88/88/88
f 94/94/94 93/93/93 92/92/92
f 95/95/95 94/94/94 92/92/92
f 98/98/98 97/97/97 96/96/96
f 99/99/99 98/98/98 96/96/96
