g shadowreaper_arm
v 3.783289 2.644531 -0.08789402
v 3.783289 2.644492 0.1476423
v 3.771026 3.086168 0.03449846
v 3.510878 1.032314 0.1541267
v 3.783289 1.099404 0.1116733
v 3.783289 0.4254943 0.03669433
v 3.531251 0.2456425 0.02697167
v 3.010199 1.080794 0.1792846
v 2.98201 0.3058381 0.02816777
v 2.631698 1.223743 0.1794263
v 2.618209 0.4715854 0.03238751
v 2.406142 1.382976 0.1661485
v 2.386983 0.7025338 0.02542711
v 2.160052 1.575056 0.1453698
v 2.180733 0.9039831 0.01013282
v 1.832358 1.873267 0.1259781
v 1.865676 1.277676 0.005736887
v 1.853671 2.522453 0.1932981
v 2.184088 2.33929 0.2238728
v 1.46885 2.76105 0.1794679
v 1.45973 2.198997 0.1170993
v 1.455316 1.717612 0.005736895
v 0.922339 3.135031 0.1505256
v 0.9351195 2.71727 0.1008583
v 0.4817154 3.57653 0.09794873
v 0.4817154 3.174412 0.07840174
v 0.8920861 2.406172 0.005736818
v 0.4817154 2.922236 0.02177723
v 0.9350753 2.717286 -0.08733147
v 0.4817154 3.174412 -0.05436996
v 1.455316 1.717612 0.005736895
v 0.9223389 3.135031 -0.139052
v 0.4817154 3.57653 -0.08405492
v 1.458854 2.19938 -0.1047822
v 1.469679 2.762737 -0.1683987
v 1.855974 2.527142 -0.1829481
v 1.830286 1.874201 -0.1127654
v 1.865676 1.277676 0.005736887
v 2.166174 2.342809 -0.2018089
v 2.148896 1.575882 -0.1211064
v 2.386212 2.233491 -0.2034696
v 2.180733 0.9039831 0.01013282
v 2.388984 1.384864 -0.1206703
v 2.386983 0.7025338 0.02542711
v 2.620208 1.229819 -0.1298026
v 2.618209 0.4715854 0.03238751
v 3.030944 1.097979 -0.1483261
v 2.98201 0.3058381 0.02816777
v 3.522976 1.037741 -0.1039678
v 3.531251 0.2456425 0.02697167
v 3.783289 1.100215 -0.04359902
v 3.783289 0.4254943 0.03669433
v 3.783289 1.920865 -0.1238186
v 3.533491 1.929488 -0.1915107
v 3.533491 1.929488 -0.1915107
v 3.783289 1.920865 -0.1238186
v 3.783289 2.644531 -0.08789402
v 3.520153 2.691445 -0.1735801
v 3.771026 3.086168 0.03449846
v 3.494036 3.135821 0.03030048
v 3.783289 2.644492 0.1476423
v 3.507732 2.69131 0.2175472
v 3.783289 1.920865 0.1971234
v 3.516745 1.927198 0.2447629
v 3.004619 2.844731 0.2592259
v 2.984619 2.022383 0.2686515
v 3.02241 3.278236 0.02810133
v 3.020006 2.843886 -0.2200248
v 3.027995 2.040699 -0.2401449
v 3.030944 1.097979 -0.1483261
v 3.522976 1.037741 -0.1039678
v 2.620208 1.229819 -0.1298026
v 2.601697 2.126613 -0.2107558
v 2.388984 1.384864 -0.1206703
v 2.386212 2.233491 -0.2034696
v 2.606425 2.971554 -0.2077786
v 2.624025 3.400251 0.02944572
v 2.392326 3.062539 -0.2090716
v 2.166174 2.342809 -0.2018089
v 2.627032 2.975982 0.2601103
v 2.164593 3.141685 -0.2089262
v 1.855974 2.527142 -0.1829481
v 2.40513 3.473845 0.02021288
v 1.849482 3.233041 -0.1929531
v 1.469679 2.762737 -0.1683987
v 2.161731 3.54687 0.008652867
v 2.411595 3.051793 0.2389392
v 2.636191 2.128785 0.2697519
v 1.47833 3.371585 -0.1771231
v 1.841013 3.628807 0.002874271
v 2.170829 3.126548 0.2084282
v 0.9553418 3.579858 -0.1419098
v 0.9223389 3.135031 -0.139052
v 0.4817154 3.57653 -0.08405492
v 0.4817154 3.848335 -0.09482217
v 1.482306 3.753991 0.00252183
v 0.9774804 3.933823 0.002587982
v 0.4817154 4.134883 0.001877202
v 0.9541238 3.578562 0.1286076
v 0.4817154 3.848335 0.08286141
v 1.842394 3.220277 0.1770812
v 2.414054 2.227604 0.2502035
v 0.922339 3.135031 0.1505256
v 0.4817154 3.57653 0.09794873
v 1.46885 2.76105 0.1794679
v 1.473353 3.36429 0.1619233
v 1.853671 2.522453 0.1932981
v 2.184088 2.33929 0.2238728
v 2.406142 1.382976 0.1661485
v 2.160052 1.575056 0.1453698
v 2.631698 1.223743 0.1794263
v 2.406142 1.382976 0.1661485
v 3.010199 1.080794 0.1792846
v 3.510878 1.032314 0.1541267
v 3.516745 1.927198 0.2447629
v 3.516745 1.927198 0.2447629
v 3.783289 1.099404 0.1116733
v 3.783289 0.4254943 0.03669433
v 3.783289 1.099404 0.1116733
v 3.783289 1.100215 -0.04359902
v 3.783289 1.920865 0.1971234
v 3.783289 1.920865 -0.1238186
v 3.783289 1.920865 -0.1238186
v 3.783289 1.920865 0.1971234
v 3.783289 2.644492 0.1476423
v 3.783289 2.644531 -0.08789402
vt 1 0.9424171
vt 1 0.8499886
vt 0.9962858 0.8947687
vt 0.9174908 0.7199012
vt 1 0.8027788
vt 1 0.8185675
vt 0.9236614 0.762794
vt 0.765842 0.6404482
vt 0.7573041 0.712263
vt 0.6511995 0.6126125
vt 0.6471137 0.6909084
vt 0.5828816 0.6114103
vt 0.5770786 0.6956166
vt 0.5083445 0.6092091
vt 0.5146085 0.69574
vt 0.4090907 0.5940491
vt 0.4191822 0.663294
vt 0.415546 0.5870241
vt 0.5156246 0.6087103
vt 0.2989891 0.5508897
vt 0.2962267 0.5619074
vt 0.29489 0.6131393
vt 0.1334587 0.5000877
vt 0.1373297 0.5129837
vt 5.960464E-08 0.466344
vt 0 0.4691343
vt 0.1242955 0.5436538
vt 2.980232E-08 0.4870401
vt 0.1373163 0.5848765
vt 2.980232E-08 0.5125657
vt 0.29489 0.6131393
vt 0.1334586 0.5959501
vt 2.980232E-08 0.5191833
vt 0.2959616 0.6664926
vt 0.2992402 0.6816315
vt 0.4162435 0.7417974
vt 0.4084628 0.7259412
vt 0.4191822 0.663294
vt 0.5101987 0.7948007
vt 0.5049655 0.7830542
vt 0.5768451 0.8274453
vt 0.5146085 0.69574
vt 0.5776849 0.8237075
vt 0.5770786 0.6956166
vt 0.6477193 0.871586
vt 0.6471137 0.6909084
vt 0.7721253 0.9532254
vt 0.7573041 0.712263
vt 0.9211549 0.9790432
vt 0.9236614 0.762794
vt 1 0.9490464
vt 1 0.8185675
vt 0.9999999 0.9747655
vt 0.9243397 0.9794002
vt 0.9243397 0.9794002
vt 0.9999999 0.9747655
vt 1 0.9424171
vt 0.9202998 0.9418733
vt 0.9962858 0.8947687
vt 0.9123895 0.8616821
vt 1 0.8499886
vt 0.9165378 0.7896625
vt 1 0.8017038
vt 0.9192678 0.7433586
vt 0.7641519 0.7160968
vt 0.7580941 0.6708134
vt 0.7695405 0.8037993
vt 0.7688125 0.8925928
vt 0.7712322 0.9350573
vt 0.7721253 0.9532254
vt 0.9211549 0.9790432
vt 0.6477193 0.871586
vt 0.6421126 0.8626482
vt 0.5776849 0.8237075
vt 0.5768451 0.8274453
vt 0.6435446 0.8331499
vt 0.6488755 0.7538576
vt 0.5786971 0.8046486
vt 0.5101987 0.7948007
vt 0.6497862 0.6726833
vt 0.50972 0.7743262
vt 0.4162435 0.7417974
vt 0.5825752 0.7294173
vt 0.4142771 0.7278408
vt 0.2992402 0.6816315
vt 0.508853 0.7024694
vt 0.5845334 0.6551207
vt 0.6525604 0.6334676
vt 0.3018606 0.6739981
vt 0.4117122 0.6640488
vt 0.5116087 0.6370086
vt 0.1434548 0.5951939
vt 0.1334586 0.5959501
vt 2.980232E-08 0.5191833
vt 2.980232E-08 0.5203646
vt 0.3030649 0.6192876
vt 0.1501603 0.5561324
vt 2.980232E-08 0.4943079
vt 0.1430858 0.5165845
vt 0 0.4724209
vt 0.4121303 0.6079909
vt 0.5852783 0.6204123
vt 0.1334587 0.5000877
vt 5.960464E-08 0.466344
vt 0.2989891 0.5508897
vt 0.3003531 0.5689175
vt 0.415546 0.5870241
vt 0.5156246 0.6087103
vt 0.5828816 0.6114103
vt 0.5083445 0.6092091
vt 0.6511995 0.6126125
vt 0.5828816 0.6114103
vt 0.765842 0.6404482
vt 0.9174908 0.7199012
vt 0.9192678 0.7433586
vt 0.9192678 0.7433586
vt 1 0.8027788
vt 1 0.8185675
vt 1 0.8027788
vt 1 0.9490464
vt 1 0.8017038
vt 0.9999999 0.9747655
vt 0.9999999 0.9747655
vt 1 0.8017038
vt 1 0.8499886
vt 1 0.9424171
vn 0.9999236 0.01236018 0
vn 0.9999236 0.01236018 0
vn 0.9996151 0.02774165 0
vn 0.08224787 -0.1299486 0.9881036
vn 0.153449 -0.1153919 0.981396
vn 0.1245784 -0.134314 0.9830768
vn 0.05450686 -0.1590648 0.9857624
vn -0.01724307 -0.1438652 0.989447
vn -0.02676537 -0.1813453 0.9830552
vn -0.1138664 -0.14701 0.9825592
vn -0.1116705 -0.1892813 0.9755524
vn -0.1857106 -0.1457301 0.9717378
vn -0.2147017 -0.1899812 0.9580241
vn -0.2018834 -0.1496349 0.9679114
vn -0.2450088 -0.1959338 0.9495159
vn -0.1798191 -0.1537557 0.9716091
vn -0.2394224 -0.2037456 0.9492969
vn -0.09369336 -0.04074288 0.9947671
vn -0.1279037 -0.04095604 0.9909407
vn -0.07852441 -0.04104754 0.9960667
vn -0.1857709 -0.1663606 0.9684076
vn -0.2287685 -0.2148825 0.9494686
vn -0.1056573 -0.02905423 0.993978
vn -0.2065812 -0.1691957 0.9636893
vn -0.09122072 0.01919633 0.9956456
vn -0.1945918 -0.1234815 0.9730809
vn -0.7669538 -0.641702 0.0005188307
vn -0.7793349 -0.6243896 0.05267591
vn -0.2335327 -0.1776521 -0.9559823
vn -0.2330421 -0.1396849 -0.9623821
vn -0.2262352 -0.2128374 -0.9505356
vn -0.1337663 -0.06003156 -0.989193
vn -0.1404485 -0.03534102 -0.9894571
vn -0.1854645 -0.166207 -0.9684928
vn -0.09152655 -0.06326593 -0.9937909
vn -0.08435529 -0.05853599 -0.9947149
vn -0.1659001 -0.154425 -0.9739765
vn -0.2168986 -0.2017307 -0.9551229
vn -0.06457894 -0.05609457 -0.9963348
vn -0.1418218 -0.1519236 -0.9781646
vn -0.04422196 -0.05087509 -0.9977254
vn -0.1596151 -0.2012431 -0.9664493
vn -0.1201838 -0.1510995 -0.9811854
vn -0.1676106 -0.2045386 -0.9644017
vn -0.1210069 -0.1557677 -0.9803539
vn -0.1282105 -0.2078957 -0.969712
vn -0.02276749 -0.1517426 -0.9881578
vn -0.03613493 -0.1989863 -0.9793358
vn 0.1330036 -0.1348348 -0.981901
vn 0.09122257 -0.1706036 -0.981108
vn 0.2286767 -0.1145367 -0.9667411
vn 0.1982833 -0.1385877 -0.9702974
vn 0.2711006 -0.03100734 -0.9620515
vn 0.1803982 -0.0361956 -0.9829274
vn 0.1803982 -0.0361956 -0.9829274
vn 0.2711006 -0.03100734 -0.9620515
vn 0.2582808 0.1813734 -0.9488913
vn 0.1939487 0.2062174 -0.9590924
vn 0.495658 0.8679889 0.0303053
vn 0.4157673 0.9092678 0.01922729
vn 0.1956555 0.1764592 0.9646663
vn 0.1505822 0.1953235 0.9691097
vn 0.1960259 -0.02609406 0.9802515
vn 0.1233889 -0.03384575 0.9917811
vn 0.09763104 0.2313968 0.9679481
vn 0.01797588 -0.04193356 0.9989587
vn 0.3223414 0.9465765 0.009430363
vn 0.08923748 0.247753 -0.9647047
vn 0.01226874 -0.0372335 -0.9992312
vn -0.02276749 -0.1517426 -0.9881578
vn 0.1330036 -0.1348348 -0.981901
vn -0.1210069 -0.1557677 -0.9803539
vn -0.0629921 -0.04742718 -0.9968864
vn -0.1201838 -0.1510995 -0.9811854
vn -0.04422196 -0.05087509 -0.9977254
vn 0.06680692 0.2434226 -0.9676169
vn 0.2969249 0.9545607 0.02548384
vn 0.09470034 0.2461964 -0.9645823
vn -0.06457894 -0.05609457 -0.9963348
vn 0.04138413 0.245436 0.968529
vn 0.05722337 0.2390563 -0.969318
vn -0.08435529 -0.05853599 -0.9947149
vn 0.269702 0.962559 0.02722352
vn 0.03332724 0.218855 -0.9751881
vn -0.09152655 -0.06326593 -0.9937909
vn 0.2157424 0.9761969 0.02224872
vn -0.009583001 0.2461061 0.9691955
vn -0.06112932 -0.04504587 0.9971129
vn 0.03619557 0.2078346 -0.9774941
vn 0.2563624 0.9662424 0.02557521
vn -0.01886084 0.2326781 0.9723709
vn 0.005829097 0.1794813 -0.9837441
vn -0.1337663 -0.06003156 -0.989193
vn -0.1404485 -0.03534102 -0.9894571
vn 0.04162803 0.2298392 -0.9723379
vn 0.2934407 0.9556127 0.02639898
vn 0.3090957 0.9506645 0.02639887
vn 0.3272874 0.944751 0.01812838
vn 0.02188198 0.1877516 0.9819728
vn 0.04629736 0.2215681 0.9740452
vn 0.01608362 0.2113149 0.9772857
vn -0.1228378 -0.04235997 0.9915223
vn -0.1056573 -0.02905423 0.993978
vn -0.09122072 0.01919633 0.9956456
vn -0.07852441 -0.04104754 0.9960667
vn 0.04159789 0.2044492 0.9779929
vn -0.09369336 -0.04074288 0.9947671
vn -0.1279037 -0.04095604 0.9909407
vn -0.1857106 -0.1457301 0.9717378
vn -0.2018834 -0.1496349 0.9679114
vn -0.1138664 -0.14701 0.9825592
vn -0.1857106 -0.1457301 0.9717378
vn -0.01724307 -0.1438652 0.989447
vn 0.08224787 -0.1299486 0.9881036
vn 0.1233889 -0.03384575 0.9917811
vn 0.1233889 -0.03384575 0.9917811
vn 0.153449 -0.1153919 0.981396
vn 1 0 0
vn 1 0 0
vn 1 0 0
vn 1 0 0
vn 1 0 0
vn 1 0 0
vn 1 0 0
vn 0.9999236 0.01236018 0
vn 0.9999236 0.01236018 0
g shadowreaper_arm_0
f 3/3/3 2/2/2 1/1/1
f 6/6/6 5/5/5 4/4/4
f 7/7/7 6/6/6 4/4/4
f 7/7/7 4/4/4 8/8/8
f 9/9/9 7/7/7 8/8/8
f 9/9/9 8/8/8 10/10/10
f 11/11/11 9/9/9 10/10/10
f 11/11/11 10/10/10 12/12/12
f 13/13/13 11/11/11 12/12/12
f 13/13/13 12/12/12 14/14/14
f 15/15/15 13/13/13 14/14/14
f 15/15/15 14/14/14 16/16/16
f 17/17/17 15/15/15 16/16/16
f 16/16/16 14/14/14 18/18/18
f 14/14/14 19/19/19 18/18/18
f 16/16/16 18/18/18 20/20/20
f 17/17/17 16/16/16 21/21/21
f 21/21/21 16/16/16 20/20/20
f 22/22/22 17/17/17 21/21/21
f 20/20/20 23/23/23 21/21/21
f 21/21/21 24/24/24 22/22/22
f 23/23/23 24/24/24 21/21/21
f 23/23/23 25/25/25 24/24/24
f 25/25/25 26/26/26 24/24/24
f 24/24/24 27/27/27 22/22/22
f 24/24/24 26/26/26 27/27/27
f 26/26/26 28/28/28 27/27/27
f 27/27/27 28/28/28 29/29/29
f 28/28/28 30/30/30 29/29/29
f 31/31/31 27/27/27 29/29/29
f 29/29/29 30/30/30 32/32/32
f 30/30/30 33/33/33 32/32/32
f 34/34/34 29/29/29 32/32/32
f 34/34/34 31/31/31 29/29/29
f 35/35/35 34/34/34 32/32/32
f 35/35/35 36/36/36 34/34/34
f 34/34/34 37/37/37 31/31/31
f 36/36/36 37/37/37 34/34/34
f 37/37/37 38/38/38 31/31/31
f 36/36/36 39/39/39 37/37/37
f 37/37/37 40/40/40 38/38/38
f 39/39/39 40/40/40 37/37/37
f 39/39/39 41/41/41 40/40/40
f 40/40/40 42/42/42 38/38/38
f 41/41/41 43/43/43 40/40/40
f 40/40/40 43/43/43 42/42/42
f 43/43/43 44/44/44 42/42/42
f 43/43/43 45/45/45 44/44/44
f 45/45/45 46/46/46 44/44/44
f 45/45/45 47/47/47 46/46/46
f 47/47/47 48/48/48 46/46/46
f 47/47/47 49/49/49 48/48/48
f 49/49/49 50/50/50 48/48/48
f 49/49/49 51/51/51 50/50/50
f 51/51/51 52/52/52 50/50/50
f 53/53/53 51/51/51 49/49/49
f 54/54/54 53/53/53 49/49/49
f 57/57/57 56/56/56 55/55/55
f 58/58/58 57/57/57 55/55/55
f 59/59/59 57/57/57 58/58/58
f 60/60/60 59/59/59 58/58/58
f 61/61/61 59/59/59 60/60/60
f 62/62/62 61/61/61 60/60/60
f 63/63/63 61/61/61 62/62/62
f 64/64/64 63/63/63 62/62/62
f 64/64/64 62/62/62 65/65/65
f 66/66/66 64/64/64 65/65/65
f 62/62/62 60/60/60 67/67/67
f 65/65/65 62/62/62 67/67/67
f 60/60/60 58/58/58 68/68/68
f 67/67/67 60/60/60 68/68/68
f 58/58/58 55/55/55 69/69/69
f 68/68/68 58/58/58 69/69/69
f 69/69/69 55/55/55 70/70/70
f 55/55/55 71/71/71 70/70/70
f 69/69/69 70/70/70 72/72/72
f 73/73/73 69/69/69 72/72/72
f 68/68/68 69/69/69 73/73/73
f 73/73/73 72/72/72 74/74/74
f 75/75/75 73/73/73 74/74/74
f 76/76/76 68/68/68 73/73/73
f 67/67/67 68/68/68 76/76/76
f 76/76/76 73/73/73 75/75/75
f 65/65/65 67/67/67 77/77/77
f 77/77/77 67/67/67 76/76/76
f 78/78/78 76/76/76 75/75/75
f 77/77/77 76/76/76 78/78/78
f 78/78/78 75/75/75 79/79/79
f 80/80/80 65/65/65 77/77/77
f 66/66/66 65/65/65 80/80/80
f 81/81/81 78/78/78 79/79/79
f 81/81/81 79/79/79 82/82/82
f 83/83/83 77/77/77 78/78/78
f 80/80/80 77/77/77 83/83/83
f 83/83/83 78/78/78 81/81/81
f 84/84/84 81/81/81 82/82/82
f 84/84/84 82/82/82 85/85/85
f 86/86/86 83/83/83 81/81/81
f 86/86/86 81/81/81 84/84/84
f 87/87/87 80/80/80 83/83/83
f 87/87/87 83/83/83 86/86/86
f 88/88/88 66/66/66 80/80/80
f 88/88/88 80/80/80 87/87/87
f 89/89/89 84/84/84 85/85/85
f 90/90/90 86/86/86 84/84/84
f 90/90/90 84/84/84 89/89/89
f 91/91/91 87/87/87 86/86/86
f 91/91/91 86/86/86 90/90/90
f 89/89/89 85/85/85 92/92/92
f 85/85/85 93/93/93 92/92/92
f 93/93/93 94/94/94 92/92/92
f 94/94/94 95/95/95 92/92/92
f 96/96/96 90/90/90 89/89/89
f 96/96/96 89/89/89 92/92/92
f 92/92/92 95/95/95 97/97/97
f 97/97/97 96/96/96 92/92/92
f 95/95/95 98/98/98 97/97/97
f 97/97/97 98/98/98 99/99/99
f 97/97/97 99/99/99 96/96/96
f 98/98/98 100/100/100 99/99/99
f 101/101/101 90/90/90 96/96/96
f 101/101/101 91/91/91 90/90/90
f 102/102/102 87/87/87 91/91/91
f 102/102/102 88/88/88 87/87/87
f 99/99/99 100/100/100 103/103/103
f 100/100/100 104/104/104 103/103/103
f 99/99/99 103/103/103 105/105/105
f 99/99/99 106/106/106 96/96/96
f 106/106/106 99/99/99 105/105/105
f 106/106/106 101/101/101 96/96/96
f 105/105/105 107/107/107 106/106/106
f 107/107/107 101/101/101 106/106/106
f 107/107/107 108/108/108 101/101/101
f 108/108/108 91/91/91 101/101/101
f 108/108/108 102/102/102 91/91/91
f 109/109/109 102/102/102 108/108/108
f 110/110/110 109/109/109 108/108/108
f 111/111/111 88/88/88 102/102/102
f 112/112/112 111/111/111 102/102/102
f 111/111/111 113/113/113 88/88/88
f 113/113/113 66/66/66 88/88/88
f 113/113/113 114/114/114 66/66/66
f 114/114/114 115/115/115 66/66/66
f 114/114/114 117/117/117 116/116/116
f 117/117/117 63/63/63 116/116/116
f 120/120/120 119/119/119 118/118/118
f 121/121/121 119/119/119 120/120/120
f 122/122/122 121/121/121 120/120/120
f 125/125/125 124/124/124 123/123/123
f 126/126/126 125/125/125 123/123/123
