g shield
v 0 -0.5264993 0.01427926
v 0 -0.4735622 0.07557416
v 0.1538905 -0.3647766 0.08898475
v 0.154386 -0.4062226 0.003530129
v 0.2480033 -0.232462 0.09102327
v 0.2656185 -0.2547517 -0.01401245
v 0.2881398 -0.09719576 0.09721219
v 0.3046393 -0.1020374 -0.02120942
v 0.2999523 0.07294704 0.09857202
v 0.3223206 0.07919443 -0.02447053
v 0.3081246 0.2440727 0.09104396
v 0.3328089 0.2604263 -0.0250328
v 0 0.4086514 0.1094972
v 0 0.4402212 0.01427928
v 0.3223206 0.07919443 -0.02447053
v 0.3328089 0.2604263 -0.0250328
v 0 0.4402212 0.01427928
v 0 0.1870714 0.01427928
v 0.3046393 -0.1020374 -0.02120942
v 0 -0.06607835 0.01427928
v 0.2656185 -0.2547517 -0.01401245
v 0 -0.2535117 0.01427928
v 0.154386 -0.4062226 0.003530129
v 0 -0.5264993 0.01427926
v 0 0.02042689 -0.02967819
v 0 0.03126107 0.01374429
v 0.04287884 0.08501138 0.01911995
v 0.04002664 0.05328606 -0.06425279
v 0 -0.1362999 -0.03336509
v 0.0216426 -0.1473191 -0.05863581
v 0.04002664 0.05328606 -0.06425279
v 0.04287884 0.08501138 0.01911995
v 0 0.1243445 0.02430505
v 0 0.07590723 -0.08942319
v 0 -0.1544038 -0.07222664
v 0.0216426 -0.1473191 -0.05863581
v 0.04826017 -0.1856782 0.01898275
v 0 -0.2330635 0.01881812
v 0 -0.151052 0.01916823
v 0 -0.1362999 -0.03336509
v 0.1386341 -0.3339889 0.07432339
v 0 -0.4345218 0.07096099
v 0 -0.202351 0.1428289
v 0.2186854 -0.2151468 0.07005917
v 0 -0.04586758 0.1698116
v 0.251668 -0.09353422 0.07294482
v 0 0.1604166 0.1619966
v 0.2616795 0.05458051 0.07291393
v 0.2677479 0.2116666 0.06517424
v 0 0.3606574 0.09976584
v 0 -0.5264993 0.01427926
v -0.1538905 -0.3647766 0.08898475
v 0 -0.4735622 0.07557416
v -0.154386 -0.4062226 0.003530129
v -0.2480033 -0.232462 0.09102327
v -0.2656185 -0.2547517 -0.01401245
v -0.2881398 -0.09719576 0.09721219
v -0.3046393 -0.1020374 -0.02120942
v -0.2999523 0.07294704 0.09857202
v -0.3223206 0.07919443 -0.02447053
v -0.3081246 0.2440727 0.09104396
v -0.3328089 0.2604263 -0.0250328
v 0 0.4086514 0.1094972
v 0 0.4402212 0.01427928
v -0.3223206 0.07919443 -0.02447053
v 0 0.4402212 0.01427928
v -0.3328089 0.2604263 -0.0250328
v 0 0.1870714 0.01427928
v -0.3046393 -0.1020374 -0.02120942
v 0 -0.06607835 0.01427928
v -0.2656185 -0.2547517 -0.01401245
v 0 -0.2535117 0.01427928
v -0.154386 -0.4062226 0.003530129
v 0 -0.5264993 0.01427926
v 0 0.02042689 -0.02967819
v -0.04287884 0.08501138 0.01911995
v 0 0.03126107 0.01374429
v -0.04002664 0.05328606 -0.06425279
v 0 -0.1362999 -0.03336509
v -0.0216426 -0.1473191 -0.05863581
v -0.04002664 0.05328606 -0.06425279
v 0 0.1243445 0.02430505
v -0.04287884 0.08501138 0.01911995
v 0 0.07590723 -0.08942319
v 0 -0.1544038 -0.07222664
v -0.0216426 -0.1473191 -0.05863581
v -0.04826017 -0.1856782 0.01898275
v 0 -0.2330635 0.01881812
v 0 -0.151052 0.01916823
v 0 -0.1362999 -0.03336509
v -0.1386341 -0.3339889 0.07432339
v 0 -0.202351 0.1428289
v 0 -0.4345218 0.07096099
v -0.2186854 -0.2151468 0.07005917
v 0 -0.04586758 0.1698116
v -0.251668 -0.09353422 0.07294482
v 0 0.1604166 0.1619966
v -0.2616795 0.05458051 0.07291393
v -0.2677479 0.2116666 0.06517424
v 0 0.3606574 0.09976584
v 0.3081246 0.2440727 0.09104396
v 0 0.3606574 0.09976584
v 0 0.4086514 0.1094972
v -0.3081246 0.2440727 0.09104396
v 0.2677479 0.2116666 0.06517424
v -0.2677479 0.2116666 0.06517424
v 0.2999523 0.07294704 0.09857202
v -0.2999523 0.07294704 0.09857202
v 0.2616795 0.05458051 0.07291393
v -0.2616795 0.05458051 0.07291393
v 0.2881398 -0.09719576 0.09721219
v -0.2881398 -0.09719576 0.09721219
v 0.251668 -0.09353422 0.07294482
v -0.251668 -0.09353422 0.07294482
v 0.2480033 -0.232462 0.09102327
v -0.2480033 -0.232462 0.09102327
v 0.2186854 -0.2151468 0.07005917
v -0.2186854 -0.2151468 0.07005917
v 0.1538905 -0.3647766 0.08898475
v -0.1538905 -0.3647766 0.08898475
v 0.1386341 -0.3339889 0.07432339
v -0.1386341 -0.3339889 0.07432339
v 0 -0.4735622 0.07557416
v 0 -0.4345218 0.07096099
vt 0.5604569 0.3790046
vt 0.5604569 0.3919752
vt 0.6008595 0.4205908
vt 0.5982843 0.4084747
vt 0.622448 0.4525201
vt 0.6255383 0.4455878
vt 0.6315468 0.4863983
vt 0.6350992 0.4830057
vt 0.6339508 0.5258801
vt 0.6394314 0.5274109
vt 0.6359531 0.5678091
vt 0.6420013 0.571816
vt 0.5604569 0.608134
vt 0.5604569 0.6158692
vt 0.504617 0.4880147
vt 0.4985064 0.6112418
vt 0.6824975 0.8102511
vt 0.6824976 0.6350816
vt 0.5138511 0.3668722
vt 0.6824976 0.459912
vt 0.5342298 0.2706072
vt 0.6824977 0.3302156
vt 0.5936925 0.1918526
vt 0.6824978 0.1413191
vt 0.882463 0.5554191
vt 0.8624319 0.5740054
vt 0.8339102 0.6042536
vt 0.874103 0.5615621
vt 0.8841639 0.4460288
vt 0.8826771 0.427752
vt 0.874103 0.5615621
vt 0.8339102 0.6042536
vt 0.85756 0.6411124
vt 0.9100238 0.5785513
vt 0.9020909 0.423577
vt 0.8826771 0.427752
vt 0.8307053 0.4158683
vt 0.8600913 0.3923991
vt 0.8599298 0.4492372
vt 0.8841639 0.4460288
vt 0.2448572 0.1730769
vt 0.08818004 0.1675772
vt 0.08818004 0.4133947
vt 0.3285753 0.296895
vt 0.08818004 0.580951
vt 0.3638595 0.4282714
vt 0.08818004 0.8018554
vt 0.3731819 0.5813783
vt 0.3809471 0.7439744
vt 0.08818004 1.005819
vt 0.5604569 0.3790046
vt 0.6008595 0.4205908
vt 0.5604569 0.3919752
vt 0.5982843 0.4084747
vt 0.622448 0.4525201
vt 0.6255383 0.4455878
vt 0.6315468 0.4863983
vt 0.6350992 0.4830057
vt 0.6339508 0.5258801
vt 0.6394314 0.5274109
vt 0.6359531 0.5678091
vt 0.6420013 0.571816
vt 0.5604569 0.608134
vt 0.5604569 0.6158692
vt 0.504617 0.4880147
vt 0.6824975 0.8102511
vt 0.4985064 0.6112418
vt 0.6824976 0.6350816
vt 0.5138511 0.3668722
vt 0.6824976 0.459912
vt 0.5342298 0.2706072
vt 0.6824977 0.3302156
vt 0.5936925 0.1918526
vt 0.6824978 0.1413191
vt 0.882463 0.5554191
vt 0.8339102 0.6042536
vt 0.8624319 0.5740054
vt 0.874103 0.5615621
vt 0.8841639 0.4460288
vt 0.8826771 0.427752
vt 0.874103 0.5615621
vt 0.85756 0.6411124
vt 0.8339102 0.6042536
vt 0.9100238 0.5785513
vt 0.9020909 0.423577
vt 0.8826771 0.427752
vt 0.8307053 0.4158683
vt 0.8600913 0.3923991
vt 0.8599298 0.4492372
vt 0.8841639 0.4460288
vt 0.2448572 0.1730769
vt 0.08818004 0.4133947
vt 0.08818004 0.1675772
vt 0.3285753 0.296895
vt 0.08818004 0.580951
vt 0.3638595 0.4282714
vt 0.08818004 0.8018554
vt 0.3731819 0.5813783
vt 0.3809471 0.7439744
vt 0.08818004 1.005819
vt 0.6359531 0.5678091
vt 0.5604569 0.608134
vt 0.5604569 0.608134
vt 0.6359531 0.5678091
vt 0.6359531 0.5678091
vt 0.6359531 0.5678091
vt 0.6339508 0.5258801
vt 0.6339508 0.5258801
vt 0.6339508 0.5258801
vt 0.6339508 0.5258801
vt 0.6315468 0.4863983
vt 0.6315468 0.4863983
vt 0.6315468 0.4863983
vt 0.6315468 0.4863983
vt 0.622448 0.4525201
vt 0.622448 0.4525201
vt 0.622448 0.4525201
vt 0.622448 0.4525201
vt 0.6008595 0.4205908
vt 0.6008595 0.4205908
vt 0.6008595 0.4205908
vt 0.6008595 0.4205908
vt 0.5604569 0.3919752
vt 0.5604569 0.3919752
vn 0 -0.8401068 0.5424209
vn 0 -0.8401068 0.5424209
vn 0.6971157 -0.6284174 0.3451397
vn 0.6478973 -0.6584265 0.3830191
vn 0.8893057 -0.4017273 0.2185191
vn 0.8798637 -0.419362 0.2235519
vn 0.9711776 -0.1694113 0.1676717
vn 0.9709001 -0.1708452 0.1678239
vn 0.9828271 -0.06555436 0.1724922
vn 0.7277189 -0.0544454 -0.6837109
vn 0.8504118 0.4609894 0.2535518
vn 0.7152571 0.4282814 -0.552252
vn 0 0.9597456 0.2808707
vn 0 0.9597456 0.2808707
vn -0.1176445 0.001555154 -0.9930546
vn -0.1176445 0.001555154 -0.9930546
vn -0.1176445 0.001555154 -0.9930546
vn -0.1176445 0.001555154 -0.9930546
vn -0.1116773 -0.008213993 -0.9937106
vn -0.1116773 -0.008213993 -0.9937106
vn -0.1116773 -0.008213993 -0.9937106
vn -0.1116773 -0.008213993 -0.9937106
vn -0.08740735 -0.0182584 -0.9960054
vn -0.08740735 -0.0182584 -0.9960054
vn 0 -0.5789754 0.8153449
vn 0 -0.9552436 0.2958203
vn 0.9481418 0.27742 -0.1551294
vn 0.9377244 0.1022689 -0.3319848
vn 0 0.6827433 0.7306584
vn 0.9228496 -0.1232989 -0.3648915
vn 0.9377244 0.1022689 -0.3319848
vn 0.9481418 0.27742 -0.1551294
vn 0 0.9223175 -0.3864328
vn 0 0.5493149 -0.8356155
vn 0 -0.4491536 -0.8934546
vn 0.9228496 -0.1232989 -0.3648915
vn 0.9203392 -0.1087707 -0.3756923
vn 0 -0.7645993 -0.644506
vn 0 0.9688784 0.2475375
vn 0 0.6827433 0.7306584
vn 0.24086 -0.2362211 0.9413745
vn 0 -0.2433901 0.9699285
vn 0 -0.1916889 0.9814557
vn 0.2909727 -0.175548 0.940488
vn 0 -0.05758952 0.9983404
vn 0.3325988 -0.06512808 0.9408169
vn 0 0.1178948 0.9930261
vn 0.3289085 0.07843508 0.9410989
vn 0.3043088 0.1780501 0.9357854
vn 0 0.1869284 0.9823735
vn 0 -0.8401068 0.5424209
vn -0.6971157 -0.6284174 0.3451397
vn 0 -0.8401068 0.5424209
vn -0.6478973 -0.6584265 0.3830191
vn -0.8893057 -0.4017273 0.2185191
vn -0.8798637 -0.419362 0.2235519
vn -0.9711776 -0.1694113 0.1676717
vn -0.9709001 -0.1708452 0.1678239
vn -0.9828271 -0.06555436 0.1724922
vn -0.7277189 -0.0544454 -0.6837109
vn -0.8504118 0.4609894 0.2535518
vn -0.7152571 0.4282814 -0.552252
vn 0 0.9597456 0.2808707
vn 0 0.9597456 0.2808707
vn 0.1176445 0.001555154 -0.9930546
vn 0.1176445 0.001555154 -0.9930546
vn 0.1176445 0.001555154 -0.9930546
vn 0.1176445 0.001555154 -0.9930546
vn 0.1116773 -0.008213993 -0.9937106
vn 0.1116773 -0.008213993 -0.9937106
vn 0.1116773 -0.008213993 -0.9937106
vn 0.1116773 -0.008213993 -0.9937106
vn 0.08740736 -0.0182584 -0.9960054
vn 0.08740736 -0.0182584 -0.9960054
vn 0 -0.5789754 0.8153449
vn -0.9481418 0.27742 -0.1551294
vn 0 -0.9552436 0.2958203
vn -0.9377244 0.1022689 -0.3319848
vn 0 0.6827433 0.7306584
vn -0.9228496 -0.1232989 -0.3648915
vn -0.9377244 0.1022689 -0.3319848
vn 0 0.9223175 -0.3864328
vn -0.9481418 0.27742 -0.1551294
vn 0 0.5493149 -0.8356155
vn 0 -0.4491536 -0.8934546
vn -0.9228496 -0.1232989 -0.3648915
vn -0.9203392 -0.1087707 -0.3756923
vn 0 -0.7645993 -0.644506
vn 0 0.9688784 0.2475375
vn 0 0.6827433 0.7306584
vn -0.24086 -0.2362211 0.9413745
vn 0 -0.1916889 0.9814557
vn 0 -0.2433901 0.9699285
vn -0.2909727 -0.175548 0.940488
vn 0 -0.05758952 0.9983404
vn -0.3325988 -0.06512808 0.9408169
vn 0 0.1178948 0.9930261
vn -0.3289085 0.07843508 0.9410989
vn -0.3043088 0.1780501 0.9357854
vn 0 0.1869284 0.9823735
vn -0.329421 -0.1823809 0.9264012
vn 0 -0.3585107 0.9335256
vn 0 -0.3585107 0.9335256
vn 0.329421 -0.1823809 0.9264012
vn -0.3793809 -0.1377625 0.9149271
vn 0.3793809 -0.1377625 0.9149271
vn -0.5695508 0.05267627 0.8202666
vn 0.5695508 0.05267627 0.8202666
vn -0.5655503 0.04532093 0.8234676
vn 0.5655503 0.04532093 0.8234676
vn -0.5488316 0.07657334 0.8324184
vn 0.5488316 0.07657334 0.8324184
vn -0.5477224 0.08060037 0.8327687
vn 0.5477224 0.08060037 0.8327687
vn -0.4652741 0.2063442 0.8607799
vn 0.4652741 0.2063442 0.8607799
vn -0.4716348 0.1991645 0.8590076
vn 0.4716348 0.1991645 0.8590076
vn -0.2856891 0.2443358 0.9266509
vn 0.2856891 0.2443358 0.9266509
vn -0.3210301 0.2566348 0.911635
vn 0.3210301 0.2566348 0.911635
vn 0 0.2221751 0.9750069
vn 0 0.2221751 0.9750069
g shield_0
f 3/3/3 2/2/2 1/1/1
f 4/4/4 3/3/3 1/1/1
f 5/5/5 3/3/3 4/4/4
f 6/6/6 5/5/5 4/4/4
f 7/7/7 5/5/5 6/6/6
f 8/8/8 7/7/7 6/6/6
f 9/9/9 7/7/7 8/8/8
f 10/10/10 9/9/9 8/8/8
f 11/11/11 9/9/9 10/10/10
f 12/12/12 11/11/11 10/10/10
f 13/13/13 11/11/11 12/12/12
f 14/14/14 13/13/13 12/12/12
f 17/17/17 16/16/16 15/15/15
f 18/18/18 17/17/17 15/15/15
f 18/18/18 15/15/15 19/19/19
f 20/20/20 18/18/18 19/19/19
f 20/20/20 19/19/19 21/21/21
f 22/22/22 20/20/20 21/21/21
f 22/22/22 21/21/21 23/23/23
f 24/24/24 22/22/22 23/23/23
f 27/27/27 26/26/26 25/25/25
f 28/28/28 27/27/27 25/25/25
f 28/28/28 25/25/25 29/29/29
f 30/30/30 28/28/28 29/29/29
f 33/33/33 32/32/32 31/31/31
f 34/34/34 33/33/33 31/31/31
f 34/34/34 31/31/31 35/35/35
f 31/31/31 36/36/36 35/35/35
f 36/36/36 37/37/37 35/35/35
f 37/37/37 38/38/38 35/35/35
f 39/39/39 37/37/37 36/36/36
f 40/40/40 39/39/39 36/36/36
f 43/43/43 42/42/42 41/41/41
f 44/44/44 43/43/43 41/41/41
f 45/45/45 43/43/43 44/44/44
f 46/46/46 45/45/45 44/44/44
f 47/47/47 45/45/45 46/46/46
f 48/48/48 47/47/47 46/46/46
f 47/47/47 48/48/48 49/49/49
f 50/50/50 47/47/47 49/49/49
f 53/53/53 52/52/52 51/51/51
f 52/52/52 54/54/54 51/51/51
f 52/52/52 55/55/55 54/54/54
f 55/55/55 56/56/56 54/54/54
f 55/55/55 57/57/57 56/56/56
f 57/57/57 58/58/58 56/56/56
f 57/57/57 59/59/59 58/58/58
f 59/59/59 60/60/60 58/58/58
f 59/59/59 61/61/61 60/60/60
f 61/61/61 62/62/62 60/60/60
f 61/61/61 63/63/63 62/62/62
f 63/63/63 64/64/64 62/62/62
f 67/67/67 66/66/66 65/65/65
f 66/66/66 68/68/68 65/65/65
f 65/65/65 68/68/68 69/69/69
f 68/68/68 70/70/70 69/69/69
f 69/69/69 70/70/70 71/71/71
f 70/70/70 72/72/72 71/71/71
f 71/71/71 72/72/72 73/73/73
f 72/72/72 74/74/74 73/73/73
f 77/77/77 76/76/76 75/75/75
f 76/76/76 78/78/78 75/75/75
f 75/75/75 78/78/78 79/79/79
f 78/78/78 80/80/80 79/79/79
f 83/83/83 82/82/82 81/81/81
f 82/82/82 84/84/84 81/81/81
f 81/81/81 84/84/84 85/85/85
f 86/86/86 81/81/81 85/85/85
f 87/87/87 86/86/86 85/85/85
f 88/88/88 87/87/87 85/85/85
f 87/87/87 89/89/89 86/86/86
f 89/89/89 90/90/90 86/86/86
f 93/93/93 92/92/92 91/91/91
f 92/92/92 94/94/94 91/91/91
f 92/92/92 95/95/95 94/94/94
f 95/95/95 96/96/96 94/94/94
f 95/95/95 97/97/97 96/96/96
f 97/97/97 98/98/98 96/96/96
f 98/98/98 97/97/97 99/99/99
f 97/97/97 100/100/100 99/99/99
f 103/103/103 102/102/102 101/101/101
f 102/102/102 103/103/103 104/104/104
f 102/102/102 105/105/105 101/101/101
f 106/106/106 102/102/102 104/104/104
f 101/101/101 105/105/105 107/107/107
f 106/106/106 104/104/104 108/108/108
f 105/105/105 109/109/109 107/107/107
f 110/110/110 106/106/106 108/108/108
f 107/107/107 109/109/109 111/111/111
f 110/110/110 108/108/108 112/112/112
f 109/109/109 113/113/113 111/111/111
f 114/114/114 110/110/110 112/112/112
f 111/111/111 113/113/113 115/115/115
f 114/114/114 112/112/112 116/116/116
f 113/113/113 117/117/117 115/115/115
f 118/118/118 114/114/114 116/116/116
f 115/115/115 117/117/117 119/119/119
f 118/118/118 116/116/116 120/120/120
f 117/117/117 121/121/121 119/119/119
f 122/122/122 118/118/118 120/120/120
f 119/119/119 121/121/121 123/123/123
f 122/122/122 120/120/120 123/123/123
f 121/121/121 124/124/124 123/123/123
f 124/124/124 122/122/122 123/123/123
