g simple tree
v -0.4000002 0.5950288 -0.4
v -0.7280003 -0.004523709 -0.728
v 0.7279998 -0.004523818 -0.728
v 0.3999998 0.5950288 -0.4
v 0.3999998 0.5950288 -0.4
v 0.7279998 -0.004523818 -0.728
v 0.7279994 -0.004524252 0.728
v 0.3999996 0.5950285 0.4
v -0.4000003 0.5950289 0.4
v -0.7280004 -0.004523547 0.728
v -0.7280003 -0.004523709 -0.728
v -0.4000002 0.5950288 -0.4
v 0.3999996 0.5950285 0.4
v 0.7279994 -0.004524252 0.728
v -0.7280004 -0.004523547 0.728
v -0.4000003 0.5950289 0.4
v -0.9899065 0.5930312 0.9899061
v -1 0.5930311 0.3600001
v -1 0.5930311 -0.3600001
v -1 0.5930311 -0.3600001
v -0.9899063 0.593031 -0.9899061
v -0.5869937 1.700076 -0.5869936
v -0.5869938 1.700076 0.5869935
v -0.9899065 0.5930312 0.9899061
v -0.5869937 1.700076 -0.5869936
v -1 0.5930311 -0.3600001
v -0.8511867 1.565936 -0.8511866
v -1.19278E-07 4.000348 -1.862094E-07
v -0.8511869 1.565936 0.8511865
v -1.19278E-07 4.000348 -1.862094E-07
v -0.8511867 1.565936 -0.8511866
v 0.8511866 1.565936 -0.8511866
v -1.19278E-07 4.000348 -1.862094E-07
v 0.851186 1.565936 0.8511865
v -0.8511869 1.565936 0.8511865
v -1.19278E-07 4.000348 -1.862094E-07
v 0.8511866 1.565936 -0.8511866
v 0.851186 1.565936 0.8511865
v -0.4000003 0.5950289 0.4
v -0.4000002 0.5950288 -0.4
v 0.3999998 0.5950288 -0.4
v -0.4000003 0.5950289 0.4
v 0.3999998 0.5950288 -0.4
v 0.3999996 0.5950285 0.4
v -0.7280004 -0.004523547 0.728
v 0.7279994 -0.004524252 0.728
v 0.7279998 -0.004523818 -0.728
v -0.7280004 -0.004523547 0.728
v 0.7279998 -0.004523818 -0.728
v -0.7280003 -0.004523709 -0.728
v 0.3600001 0.593031 -1
v 0.9999997 0.5930311 -0.3600001
v 0.9899062 0.593031 -0.9899061
v -0.3600003 0.593031 -1
v -1 0.5930311 -0.3600001
v -0.9899063 0.593031 -0.9899061
v 0.9999996 0.5930311 0.3600001
v 0.3599995 0.5930312 0.9999999
v 0.9899055 0.5930312 0.9899061
v -1 0.5930311 0.3600001
v -0.3600005 0.5930312 0.9999999
v -0.9899065 0.5930312 0.9899061
v -1 0.5930311 -0.3600001
v 0.9999996 0.5930311 0.3600001
v 0.9999997 0.5930311 -0.3600001
v -1 0.5930311 0.3600001
v 0.5869932 1.700076 0.5869935
v 0.9899055 0.5930312 0.9899061
v 0.3599995 0.5930312 0.9999999
v -0.5869938 1.700076 0.5869935
v -0.3600005 0.5930312 0.9999999
v -0.9899065 0.5930312 0.9899061
v 0.5869936 1.700076 -0.5869936
v 0.9899062 0.593031 -0.9899061
v 0.9999997 0.5930311 -0.3600001
v 0.9999996 0.5930311 0.3600001
v 0.9999996 0.5930311 0.3600001
v 0.9899055 0.5930312 0.9899061
v 0.5869936 1.700076 -0.5869936
v 0.5869932 1.700076 0.5869935
v -0.5869937 1.700076 -0.5869936
v -0.8511867 1.565936 -0.8511866
v -0.8511869 1.565936 0.8511865
v -0.5869938 1.700076 0.5869935
v 0.5869936 1.700076 -0.5869936
v 0.8511866 1.565936 -0.8511866
v -0.8511867 1.565936 -0.8511866
v -0.5869937 1.700076 -0.5869936
v 0.3600001 0.593031 -1
v 0.9899062 0.593031 -0.9899061
v 0.5869936 1.700076 -0.5869936
v -0.5869937 1.700076 -0.5869936
v -0.3600003 0.593031 -1
v -0.9899063 0.593031 -0.9899061
v -0.5869938 1.700076 0.5869935
v -0.8511869 1.565936 0.8511865
v 0.851186 1.565936 0.8511865
v 0.5869932 1.700076 0.5869935
v 0.5869932 1.700076 0.5869935
v 0.851186 1.565936 0.8511865
v 0.8511866 1.565936 -0.8511866
v 0.5869936 1.700076 -0.5869936
vt 0.2252748 0.9999997
vt 0 6.325093E-07
vt 1 1.581273E-07
vt 0.7747254 0.9999997
vt 0.7747254 0.9999997
vt 1 1.581273E-07
vt 0.9999997 0
vt 0.7747251 0.9999994
vt 0.2252748 1
vt 0 9.48764E-07
vt 0 6.325093E-07
vt 0.2252748 0.9999997
vt 0.7747251 0.9999994
vt 0.9999997 0
vt 0 9.48764E-07
vt 0.2252748 1
vt 0.005046889 1.112966E-07
vt 0 1.112966E-07
vt 0 0
vt 0 0
vt 0.005047078 0
vt 0.2065033 0.3249022
vt 0.2065031 0.3249022
vt 0.005046889 1.112966E-07
vt 0.2065033 0.3249022
vt 0 0
vt 0.07440668 0.2855342
vt 0.5000002 1
vt 0.07440668 0.2855342
vt 0.5000002 1
vt 0.07440668 0.2855342
vt 0.9255934 0.2855342
vt 0.5000002 1
vt 0.9255932 0.2855342
vt 0.07440668 0.2855342
vt 0.5000002 1
vt 0.9255934 0.2855342
vt 0.9255932 0.2855342
vt 0.2252748 1
vt 0.2252748 0.9999997
vt 0.7747254 0.9999997
vt 0.2252748 1
vt 0.7747254 0.9999997
vt 0.7747251 0.9999994
vt 0 6.325093E-07
vt 0 9.48764E-07
vt 0.9999997 0
vt 0 6.325093E-07
vt 0.9999997 0
vt 1 1.581273E-07
vt 0.6800001 0
vt 0.9999999 0
vt 0.9949533 0
vt 0.32 0
vt 0 0
vt 0.005047078 0
vt 0.9999999 1.112966E-07
vt 0.6799999 1.112966E-07
vt 0.9949529 1.112966E-07
vt 0 1.112966E-07
vt 0.3199998 1.112966E-07
vt 0.005046889 1.112966E-07
vt 0 0
vt 0.9999999 1.112966E-07
vt 0.9999999 0
vt 0 1.112966E-07
vt 0.7934967 0.3249022
vt 0.9949529 1.112966E-07
vt 0.6799999 1.112966E-07
vt 0.2065031 0.3249022
vt 0.3199998 1.112966E-07
vt 0.005046889 1.112966E-07
vt 0.793497 0.3249022
vt 0.9949533 0
vt 0.9999999 0
vt 0.9999999 1.112966E-07
vt 0.9999999 1.112966E-07
vt 0.9949529 1.112966E-07
vt 0.793497 0.3249022
vt 0.7934967 0.3249022
vt 0.2065033 0.3249022
vt 0.07440668 0.2855342
vt 0.07440668 0.2855342
vt 0.2065031 0.3249022
vt 0.793497 0.3249022
vt 0.9255934 0.2855342
vt 0.07440668 0.2855342
vt 0.2065033 0.3249022
vt 0.6800001 0
vt 0.9949533 0
vt 0.793497 0.3249022
vt 0.2065033 0.3249022
vt 0.32 0
vt 0.005047078 0
vt 0.2065031 0.3249022
vt 0.07440668 0.2855342
vt 0.9255932 0.2855342
vt 0.7934967 0.3249022
vt 0.7934967 0.3249022
vt 0.9255932 0.2855342
vt 0.9255934 0.2855342
vt 0.793497 0.3249022
vn 0 0.4799471 -0.8772974
vn 0 0.4799471 -0.8772974
vn 0 0.4799471 -0.8772974
vn 0 0.4799471 -0.8772974
vn 0.8772975 0.4799471 0
vn 0.8772975 0.4799471 0
vn 0.8772975 0.4799471 0
vn 0.8772975 0.4799471 0
vn -0.8772973 0.4799473 0
vn -0.8772973 0.4799473 0
vn -0.8772973 0.4799473 0
vn -0.8772973 0.4799473 0
vn 0 0.4799472 0.8772974
vn 0 0.4799472 0.8772974
vn 0 0.4799472 0.8772974
vn 0 0.4799472 0.8772974
vn -0.9373243 0.3484584 0
vn -0.9373243 0.3484584 0
vn -0.9373243 0.3484584 0
vn -0.9373243 0.3484584 0
vn -0.9373243 0.3484584 0
vn -0.9373243 0.3484584 0
vn -0.9373243 0.3484584 0
vn -0.9373243 0.3484584 0
vn -0.9373243 0.3484584 0
vn -0.9373243 0.3484584 0
vn -0.943962 0.3300541 0
vn -0.943962 0.3300541 0
vn -0.943962 0.3300541 0
vn 0 0.3300541 -0.943962
vn 0 0.3300541 -0.943962
vn 0 0.3300541 -0.943962
vn 0 0.3300542 0.943962
vn 0 0.3300542 0.943962
vn 0 0.3300542 0.943962
vn 0.943962 0.3300542 0
vn 0.943962 0.3300542 0
vn 0.943962 0.3300542 0
vn 0 1 0
vn 0 1 0
vn 0 1 0
vn 0 1 0
vn 0 1 0
vn 0 1 0
vn 0 -1 0
vn 0 -1 0
vn 0 -1 0
vn 0 -1 0
vn 0 -1 0
vn 0 -1 0
vn 0 -1 0
vn 0 -1 0
vn 0 -1 0
vn 0 -1 0
vn 0 -1 0
vn 0 -1 0
vn 0 -1 0
vn 0 -1 0
vn 0 -1 0
vn 0 -1 0
vn 0 -1 0
vn 0 -1 0
vn 0 -1 0
vn 0 -1 0
vn 0 -1 0
vn 0 -1 0
vn 0 0.3484584 0.9373243
vn 0 0.3484584 0.9373243
vn 0 0.3484584 0.9373243
vn 0 0.3484584 0.9373243
vn 0 0.3484584 0.9373243
vn 0 0.3484584 0.9373243
vn 0.9373243 0.3484583 0
vn 0.9373243 0.3484583 0
vn 0.9373243 0.3484583 0
vn 0.9373243 0.3484583 0
vn 0.9373243 0.3484583 0
vn 0.9373243 0.3484583 0
vn 0.9373243 0.3484583 0
vn 0.9373243 0.3484583 0
vn 0.4527211 -0.8916521 0
vn 0.4527211 -0.8916521 0
vn 0.4527211 -0.8916521 0
vn 0.4527211 -0.8916521 0
vn 0 -0.891652 0.4527214
vn 0 -0.891652 0.4527214
vn 0 -0.891652 0.4527214
vn 0 -0.891652 0.4527214
vn 0 0.3484583 -0.9373243
vn 0 0.3484583 -0.9373243
vn 0 0.3484583 -0.9373243
vn 0 0.3484583 -0.9373243
vn 0 0.3484583 -0.9373243
vn 0 0.3484583 -0.9373243
vn 0 -0.8916519 -0.4527215
vn 0 -0.8916519 -0.4527215
vn 0 -0.8916519 -0.4527215
vn 0 -0.8916519 -0.4527215
vn -0.4527211 -0.8916521 0
vn -0.4527211 -0.8916521 0
vn -0.4527211 -0.8916521 0
vn -0.4527211 -0.8916521 0
g simple tree_0
f 3/3/3 2/2/2 1/1/1
f 4/4/4 3/3/3 1/1/1
f 7/7/7 6/6/6 5/5/5
f 8/8/8 7/7/7 5/5/5
f 11/11/11 10/10/10 9/9/9
f 12/12/12 11/11/11 9/9/9
f 15/15/15 14/14/14 13/13/13
f 16/16/16 15/15/15 13/13/13
g simple tree_1
f 19/19/19 18/18/18 17/17/17
f 22/22/22 21/21/21 20/20/20
f 24/24/24 23/23/23 22/22/22
f 26/26/26 24/24/24 25/25/25
f 29/29/29 28/28/28 27/27/27
f 32/32/32 31/31/31 30/30/30
f 35/35/35 34/34/34 33/33/33
f 38/38/38 37/37/37 36/36/36
f 41/41/41 40/40/40 39/39/39
f 44/44/44 43/43/43 42/42/42
f 47/47/47 46/46/46 45/45/45
f 50/50/50 49/49/49 48/48/48
f 53/53/53 52/52/52 51/51/51
f 54/54/54 51/51/51 52/52/52
f 52/52/52 55/55/55 54/54/54
f 56/56/56 54/54/54 55/55/55
f 59/59/59 58/58/58 57/57/57
f 57/57/57 58/58/58 60/60/60
f 58/58/58 61/61/61 60/60/60
f 62/62/62 60/60/60 61/61/61
f 65/65/65 64/64/64 63/63/63
f 64/64/64 66/66/66 63/63/63
f 69/69/69 68/68/68 67/67/67
f 67/67/67 70/70/70 69/69/69
f 70/70/70 71/71/71 69/69/69
f 70/70/70 72/72/72 71/71/71
f 75/75/75 74/74/74 73/73/73
f 73/73/73 76/76/76 75/75/75
f 79/79/79 78/78/78 77/77/77
f 79/79/79 80/80/80 78/78/78
f 83/83/83 82/82/82 81/81/81
f 84/84/84 83/83/83 81/81/81
f 87/87/87 86/86/86 85/85/85
f 88/88/88 87/87/87 85/85/85
f 91/91/91 90/90/90 89/89/89
f 89/89/89 92/92/92 91/91/91
f 89/89/89 93/93/93 92/92/92
f 93/93/93 94/94/94 92/92/92
f 97/97/97 96/96/96 95/95/95
f 98/98/98 97/97/97 95/95/95
f 101/101/101 100/100/100 99/99/99
f 102/102/102 101/101/101 99/99/99
