g simplegrass bottom
v -0.1013108 0.255264 0.255264
v -0.1663791 0.1663791 0.166379
v -0.255264 0.2552641 0.1013107
v 0.255264 0.255264 0.1013107
v 0.1663791 0.1663791 0.166379
v 0.1013108 0.2552641 0.255264
v -0.1013108 0.255264 -0.2552641
v -0.255264 0.2552641 -0.1013108
v -0.166379 0.1663791 -0.1663792
v 0.255264 0.255264 -0.1013108
v 0.1013107 0.2552641 -0.2552641
v 0.166379 0.1663791 -0.1663792
v -0.1013108 0.255264 -0.2552641
v 0.1013107 0.2552641 -0.2552641
v 0.255264 0.255264 -0.1013108
v 0.255264 0.255264 -0.1013108
v -0.255264 0.2552641 -0.1013108
v -0.1013108 0.255264 -0.2552641
v 0.255264 0.255264 0.1013107
v -0.255264 0.2552641 0.1013107
v 0.1013108 0.2552641 0.255264
v -0.1013108 0.255264 0.255264
v 0.255264 0.255264 -0.1013108
v 0.255264 0.255264 0.1013107
v -0.255264 0.2552641 -0.1013108
v 0.255264 0.255264 0.1013107
v -0.1013108 0.255264 0.255264
v -0.255264 0.2552641 0.1013107
v 0.1663791 0.1663791 0.166379
v 1.92097E-08 7.683881E-08 -3.073552E-07
v -0.1663791 0.1663791 0.166379
v 0.1013108 0.2552641 0.255264
v -0.1013108 0.255264 0.255264
v 0.255264 0.255264 -0.1013108
v 0.166379 0.1663791 -0.1663792
v 1.92097E-08 7.683881E-08 -3.073552E-07
v 0.255264 0.255264 0.1013107
v 0.1663791 0.1663791 0.166379
v 1.92097E-08 7.683881E-08 -3.073552E-07
v -0.166379 0.1663791 -0.1663792
v -0.255264 0.2552641 -0.1013108
v -0.255264 0.2552641 0.1013107
v -0.1663791 0.1663791 0.166379
v 1.92097E-08 7.683881E-08 -3.073552E-07
v 0.166379 0.1663791 -0.1663792
v 0.1013107 0.2552641 -0.2552641
v -0.1013108 0.255264 -0.2552641
v -0.166379 0.1663791 -0.1663792
vt 0.3396809 0.2113621
vt 0.2367136 0.1377642
vt 0.09605771 0.2113621
vt 0.9039423 0.2113621
vt 0.7632865 0.1377642
vt 0.6603191 0.2113621
vt 0.339681 0.2113621
vt 0.09605774 0.2113621
vt 0.2367138 0.1377641
vt 0.9039423 0.2113621
vt 0.6603191 0.2113621
vt 0.7632865 0.1377641
vt 0.09605774 0.2113621
vt 0.339681 0.2113621
vt 0.6603191 0.2113621
vt 0.6603191 0.2113621
vt 0.09605771 0.2113621
vt 0.09605774 0.2113621
vt 0.9039423 0.2113621
vt 0.3396809 0.2113621
vt 0.9039423 0.2113621
vt 0.6603191 0.2113621
vt 0.6603191 0.2113621
vt 0.9039423 0.2113621
vt 0.09605771 0.2113621
vt 0.9039423 0.2113621
vt 0.6603191 0.2113621
vt 0.3396809 0.2113621
vt 0.7632865 0.1377642
vt 0.5000001 0
vt 0.2367136 0.1377642
vt 0.6603191 0.2113621
vt 0.3396809 0.2113621
vt 0.9039423 0.2113621
vt 0.7632865 0.1377641
vt 0.5000001 0
vt 0.9039423 0.2113621
vt 0.7632865 0.1377642
vt 0.5000001 0
vt 0.2367138 0.1377641
vt 0.09605774 0.2113621
vt 0.09605771 0.2113621
vt 0.2367136 0.1377642
vt 0.5000001 0
vt 0.7632865 0.1377641
vt 0.6603191 0.2113621
vt 0.339681 0.2113621
vt 0.2367138 0.1377641
vn -0.6947466 -0.1861574 0.6947465
vn -0.6947466 -0.1861574 0.6947465
vn -0.6947466 -0.1861574 0.6947465
vn 0.6947467 -0.186157 0.6947466
vn 0.6947467 -0.186157 0.6947466
vn 0.6947467 -0.186157 0.6947466
vn -0.6947466 -0.1861569 -0.6947466
vn -0.6947466 -0.1861569 -0.6947466
vn -0.6947466 -0.1861569 -0.6947466
vn 0.6947465 -0.1861565 -0.6947468
vn 0.6947465 -0.1861565 -0.6947468
vn 0.6947465 -0.1861565 -0.6947468
vn 0 1 0
vn 0 1 0
vn 0 1 0
vn 0 1 0
vn 0 1 0
vn 0 1 0
vn 0 1 0
vn 0 1 0
vn 0 1 0
vn 0 1 0
vn 0 1 0
vn 0 1 0
vn 0 1 0
vn 0 1 0
vn 0 1 0
vn 0 1 0
vn 0 -0.7071072 0.7071063
vn 0 -0.7071072 0.7071063
vn 0 -0.7071072 0.7071063
vn 0 -0.7071072 0.7071063
vn 0 -0.7071072 0.7071063
vn 0.7071066 -0.7071069 0
vn 0.7071066 -0.7071069 0
vn 0.7071066 -0.7071069 0
vn 0.7071066 -0.7071069 0
vn 0.7071066 -0.7071069 0
vn -0.7071066 -0.7071069 0
vn -0.7071066 -0.7071069 0
vn -0.7071066 -0.7071069 0
vn -0.7071066 -0.7071069 0
vn -0.7071066 -0.7071069 0
vn 0 -0.7071065 -0.707107
vn 0 -0.7071065 -0.707107
vn 0 -0.7071065 -0.707107
vn 0 -0.7071065 -0.707107
vn 0 -0.7071065 -0.707107
g simplegrass bottom_0
f 3/3/3 2/2/2 1/1/1
f 6/6/6 5/5/5 4/4/4
f 9/9/9 8/8/8 7/7/7
f 12/12/12 11/11/11 10/10/10
f 15/15/15 14/14/14 13/13/13
f 18/18/18 17/17/17 16/16/16
f 17/17/17 20/20/20 19/19/19
f 22/22/22 21/21/21 19/19/19
f 25/25/25 24/24/24 23/23/23
f 28/28/28 27/27/27 26/26/26
f 31/31/31 30/30/30 29/29/29
f 29/29/29 32/32/32 31/31/31
f 32/32/32 33/33/33 31/31/31
f 36/36/36 35/35/35 34/34/34
f 34/34/34 37/37/37 36/36/36
f 37/37/37 38/38/38 36/36/36
f 41/41/41 40/40/40 39/39/39
f 39/39/39 42/42/42 41/41/41
f 39/39/39 43/43/43 42/42/42
f 46/46/46 45/45/45 44/44/44
f 44/44/44 47/47/47 46/46/46
f 44/44/44 48/48/48 47/47/47
