g Skuladin Sword
v -4.293259 -0.3753248 2.354746
v -4.293259 0.07326613 2.138775
v -4.782191 0.07326613 2.354746
v -4.782191 0.07326613 2.354746
v -4.293259 0.07326613 2.138775
v -4.293259 0.5218571 2.354746
v -4.782191 0.07326613 2.354746
v -4.293259 0.5218571 2.354746
v -4.293259 0.07326613 2.570716
v -4.293259 0.07326613 2.570716
v -4.293259 -0.3753248 2.354746
v -4.782191 0.07326613 2.354746
v -4.293259 0.5218571 2.354746
v -4.293259 0.07326613 2.138775
v -2.577064 0.07326613 2.138775
v -2.577064 0.5218571 2.354746
v -4.293259 0.07326613 2.570716
v -4.293259 0.5218571 2.354746
v -2.577064 0.5218571 2.354746
v -2.577064 0.07326613 2.570716
v -2.577064 -0.3753248 2.354746
v -2.577064 0.07326613 2.138775
v -4.293259 0.07326613 2.138775
v -4.293259 -0.3753248 2.354746
v -2.577064 0.07326613 2.570716
v -2.577064 -0.3753248 2.354746
v -4.293259 -0.3753248 2.354746
v -4.293259 0.07326613 2.570716
v -2.580121 -0.5996706 2.327613
v -2.163525 -0.1626278 2.354746
v -2.450359 0.07326613 2.119259
v -2.577064 0.07326613 2.088737
v -2.577064 0.07326613 2.620754
v -2.450359 0.07326613 2.590232
v -2.163525 -0.1626278 2.354746
v -2.580121 -0.5996706 2.327613
v -2.163525 -0.1626278 2.354746
v -1.984605 -0.1626278 2.354746
v -1.984605 0.07326613 2.119259
v -2.450359 0.07326613 2.119259
v -2.450359 0.07326613 2.590232
v -1.984605 0.07326613 2.590232
v -1.984605 -0.1626278 2.354746
v -2.163525 -0.1626278 2.354746
v -2.580121 0.7462029 2.327613
v -2.163525 0.3091601 2.354746
v -2.450359 0.07326613 2.590232
v -2.577064 0.07326613 2.620754
v -2.577064 0.07326613 2.088737
v -2.450359 0.07326613 2.119259
v -2.163525 0.3091601 2.354746
v -2.580121 0.7462029 2.327613
v -1.984605 0.07326613 2.590232
v -1.984605 0.3091601 2.354746
v -1.984605 -0.1626278 2.354746
v -1.984605 0.07326613 2.119259
v -2.163525 0.3091601 2.354746
v -1.984605 0.3091601 2.354746
v -1.984605 0.07326613 2.590232
v -2.450359 0.07326613 2.590232
v -2.450359 0.07326613 2.119259
v -1.984605 0.07326613 2.119259
v -1.984605 0.3091601 2.354746
v -2.163525 0.3091601 2.354746
v -2.577064 -0.3753248 2.354746
v -2.580121 -0.5996706 2.327613
v -2.577064 0.07326613 2.088737
v -2.577064 0.07326613 2.138775
v -2.577064 0.07326613 2.570716
v -2.580121 0.7462029 2.327613
v -2.577064 0.07326613 2.620754
v -2.577064 0.5218571 2.354746
vt 0 0
vt 0 0
vt 0 0
vt 0 0
vt 0 0
vt 0 0
vt 0 0
vt 0 0
vt 0 0
vt 0 0
vt 0 0
vt 0 0
vt 0 0
vt 0 0
vt 0 0
vt 0 0
vt 0 0
vt 0 0
vt 0 0
vt 0 0
vt 0 0
vt 0 0
vt 0 0
vt 0 0
vt 0 0
vt 0 0
vt 0 0
vt 0 0
vt 0 0
vt 0 0
vt 0 0
vt 0 0
vt 0 0
vt 0 0
vt 0 0
vt 0 0
vt 0 0
vt 0 0
vt 0 0
vt 0 0
vt 0 0
vt 0 0
vt 0 0
vt 0 0
vt 0 0
vt 0 0
vt 0 0
vt 0 0
vt 0 0
vt 0 0
vt 0 0
vt 0 0
vt 0 0
vt 0 0
vt 0 0
vt 0 0
vt 0 0
vt 0 0
vt 0 0
vt 0 0
vt 0 0
vt 0 0
vt 0 0
vt 0 0
vt 0 0
vt 0 0
vt 0 0
vt 0 0
vt 0 0
vt 0 0
vt 0 0
vt 0 0
vn -0.3697851 -0.4030394 -0.8371489
vn -0.3697851 -0.4030394 -0.8371489
vn -0.3697851 -0.4030394 -0.8371489
vn -0.369785 0.4030393 -0.8371489
vn -0.369785 0.4030393 -0.8371489
vn -0.369785 0.4030393 -0.8371489
vn -0.3697842 0.4030395 0.8371493
vn -0.3697842 0.4030395 0.8371493
vn -0.3697842 0.4030395 0.8371493
vn -0.3697843 -0.4030395 0.8371491
vn -0.3697843 -0.4030395 0.8371491
vn -0.3697843 -0.4030395 0.8371491
vn 0 0.4337867 -0.9010156
vn 0 0.4337867 -0.9010156
vn 0 0.4337867 -0.9010156
vn 0 0.4337867 -0.9010156
vn 0 0.4337871 0.9010153
vn 0 0.4337871 0.9010153
vn 0 0.4337871 0.9010153
vn 0 0.4337871 0.9010153
vn 0 -0.4337867 -0.9010156
vn 0 -0.4337867 -0.9010156
vn 0 -0.4337867 -0.9010156
vn 0 -0.4337867 -0.9010156
vn 0 -0.4337872 0.9010153
vn 0 -0.4337872 0.9010153
vn 0 -0.4337872 0.9010153
vn 0 -0.4337872 0.9010153
vn 0.3646142 -0.3388467 -0.8673174
vn 0.3646142 -0.3388467 -0.8673174
vn 0.3646142 -0.3388467 -0.8673174
vn 0.3646142 -0.3388467 -0.8673174
vn 0.3251554 -0.3975548 0.858035
vn 0.3251554 -0.3975548 0.858035
vn 0.3251554 -0.3975548 0.858035
vn 0.3251554 -0.3975548 0.858035
vn 0 -0.7064955 -0.7077174
vn 0 -0.7064955 -0.7077174
vn 0 -0.7064955 -0.7077174
vn 0 -0.7064955 -0.7077174
vn 0 -0.7064958 0.7077172
vn 0 -0.7064958 0.7077172
vn 0 -0.7064958 0.7077172
vn 0 -0.7064958 0.7077172
vn 0.3251551 0.3975548 0.858035
vn 0.3251551 0.3975548 0.858035
vn 0.3251551 0.3975548 0.858035
vn 0.3251551 0.3975548 0.858035
vn 0.3646145 0.3388467 -0.8673173
vn 0.3646145 0.3388467 -0.8673173
vn 0.3646145 0.3388467 -0.8673173
vn 0.3646145 0.3388467 -0.8673173
vn 1 0 0
vn 1 0 0
vn 1 0 0
vn 1 0 0
vn 0 0.7064958 0.7077172
vn 0 0.7064958 0.7077172
vn 0 0.7064958 0.7077172
vn 0 0.7064958 0.7077172
vn 0 0.7064955 -0.7077175
vn 0 0.7064955 -0.7077175
vn 0 0.7064955 -0.7077175
vn 0 0.7064955 -0.7077175
vn -0.9998571 0.008624426 0.01454316
vn -0.9998571 0.008624426 0.01454316
vn -0.9998571 0.008624426 0.01454316
vn -0.9998571 0.008624426 0.01454316
vn -0.9997403 0.01162421 -0.01960163
vn -0.9997403 -0.01162421 -0.01960163
vn -0.9997403 0.01162421 -0.01960163
vn -0.9997403 -0.01162421 -0.01960163
g Skuladin Sword_0
f 3/3/3 2/2/2 1/1/1
f 6/6/6 5/5/5 4/4/4
f 9/9/9 8/8/8 7/7/7
f 12/12/12 11/11/11 10/10/10
f 15/15/15 14/14/14 13/13/13
f 16/16/16 15/15/15 13/13/13
f 19/19/19 18/18/18 17/17/17
f 20/20/20 19/19/19 17/17/17
f 23/23/23 22/22/22 21/21/21
f 24/24/24 23/23/23 21/21/21
f 27/27/27 26/26/26 25/25/25
f 28/28/28 27/27/27 25/25/25
g Skuladin Sword_1
f 31/31/31 30/30/30 29/29/29
f 32/32/32 31/31/31 29/29/29
f 35/35/35 34/34/34 33/33/33
f 36/36/36 35/35/35 33/33/33
f 39/39/39 38/38/38 37/37/37
f 40/40/40 39/39/39 37/37/37
f 43/43/43 42/42/42 41/41/41
f 44/44/44 43/43/43 41/41/41
f 47/47/47 46/46/46 45/45/45
f 48/48/48 47/47/47 45/45/45
f 51/51/51 50/50/50 49/49/49
f 52/52/52 51/51/51 49/49/49
f 55/55/55 54/54/54 53/53/53
f 55/55/55 56/56/56 54/54/54
f 59/59/59 58/58/58 57/57/57
f 60/60/60 59/59/59 57/57/57
f 63/63/63 62/62/62 61/61/61
f 64/64/64 63/63/63 61/61/61
f 67/67/67 66/66/66 65/65/65
f 68/68/68 67/67/67 65/65/65
f 65/65/65 66/66/66 69/69/69
f 70/70/70 67/67/67 68/68/68
f 66/66/66 71/71/71 69/69/69
f 72/72/72 70/70/70 68/68/68
f 69/69/69 71/71/71 72/72/72
f 71/71/71 70/70/70 72/72/72
