g smashed.007
v -0.1549932 0.1712998 0.08005372
v -0.007826805 -0.1804205 0.08005372
v -0.007826991 0.1712998 0.08005372
v 0.07148501 -0.03584331 -0.05731854
v 0.04011288 0.1712999 -0.1116565
v 0.07148491 0.1712999 -0.05731854
v 0.1248633 -0.358447 0.02286634
v 0.01913559 -0.3584471 0.1267538
v 0.04200968 -0.3584471 0.1663729
v 0.01913559 -0.3584471 0.1267538
v -0.02118534 -0.3584471 0.1663729
v 0.04200968 -0.3584471 0.1663729
v 0.1007776 0.1906504 -0.179221
v 0.171158 -0.2740567 -0.05731854
v 0.171158 0.1906504 -0.05731854
v -0.2162868 0.1078355 0.1663729
v -0.2288292 0.1906503 0.1446488
v -0.2162868 0.1906503 0.1663729
v -0.3401909 0.2138398 0.2445382
v -0.3366789 0.1906503 0.2506213
v -0.2288292 0.1906503 0.1446488
v -0.007826805 -0.1804205 0.08005372
v 0.07148501 -0.03584331 -0.05731854
v 0.07148491 0.1712999 -0.05731854
v -0.007826991 0.1712998 0.08005372
v -0.1386697 0.1712998 0.06401435
v -0.1549932 0.1712998 0.08005372
v -0.007826991 0.1712998 0.08005372
v 0.07148491 0.1712999 -0.05731854
v 0.0168907 0.1712999 -0.08883849
v 0.04011288 0.1712999 -0.1116565
v 0.1248633 -0.358447 0.02286634
v 0.04200968 -0.3584471 0.1663729
v 0.04200968 0.1906503 0.1663729
v 0.171158 -0.2740567 -0.05731854
v 0.171158 0.1906504 -0.05731854
v 0.171158 0.1906504 -0.05731854
v 0.04200968 0.1906503 0.1663729
v 0.1265261 0.1906503 0.3127597
v 0.3401909 0.1906504 -0.05731854
v 0.2086273 0.1906504 -0.2851935
v 0.1007776 0.1906504 -0.179221
v -0.2162868 0.1906503 0.1663729
v 0.04200968 0.1906503 0.1663729
v 0.04200968 -0.3584471 0.1663729
v -0.02118534 -0.3584471 0.1663729
v -0.2162868 0.1078355 0.1663729
v 0.1265261 0.339945 0.3127597
v 0.3401909 0.3584471 -0.05731854
v 0.3401909 0.1906504 -0.05731854
v 0.1265261 0.1906503 0.3127597
v 0.04200968 0.1906503 0.1663729
v -0.3008032 0.1906503 0.3127597
v 0.1265261 0.1906503 0.3127597
v -0.2162868 0.1906503 0.1663729
v -0.2288292 0.1906503 0.1446488
v -0.3366789 0.1906503 0.2506213
v 0.192712 0.2957359 -0.3127597
v 0.2086273 0.1906504 -0.2851935
v 0.3401909 0.1906504 -0.05731854
v 0.3401909 0.3584471 -0.05731854
v -0.3401909 0.2138398 0.2445382
v 0.192712 0.2957359 -0.3127597
v 0.3401909 0.3584471 -0.05731854
v 0.1265261 0.339945 0.3127597
v -0.3008032 0.2305882 0.3127597
v -0.3008032 0.2305882 0.3127597
v 0.1265261 0.339945 0.3127597
v 0.1265261 0.1906503 0.3127597
v -0.3008032 0.1906503 0.3127597
v -0.3366789 0.1906503 0.2506213
v -0.3401909 0.2138398 0.2445382
v -0.3008032 0.2305882 0.3127597
v -0.3008032 0.1906503 0.3127597
v -0.02118534 -0.3584471 0.1663729
v -0.007826805 -0.1804205 0.08005372
v -0.1549932 0.1712998 0.08005372
v -0.2162868 0.1078355 0.1663729
v -0.2288292 0.1906503 0.1446488
v 0.1007776 0.1906504 -0.179221
v 0.2086273 0.1906504 -0.2851935
v 0.192712 0.2957359 -0.3127597
v -0.3401909 0.2138398 0.2445382
v 0.0168907 0.1712999 -0.08883849
v -0.2288292 0.1906503 0.1446488
v -0.1386697 0.1712998 0.06401435
v -0.1549932 0.1712998 0.08005372
v 0.04011288 0.1712999 -0.1116565
v 0.07148501 -0.03584331 -0.05731854
v 0.1248633 -0.358447 0.02286634
v 0.171158 -0.2740567 -0.05731854
v 0.01913559 -0.3584471 0.1267538
v -0.007826805 -0.1804205 0.08005372
v -0.02118534 -0.3584471 0.1663729
vt 0.3918366 0.4224673
vt 0.5390031 0.07074708
vt 0.5390028 0.4224674
vt 0.2079398 1.342461
vt 0.4150831 1.288123
vt 0.4150831 1.342461
vt 0.6716931 1.422646
vt 0.5659655 1.526534
vt 0.5888396 1.566153
vt 0.5659655 -0.4734663
vt 0.5256445 -0.4338473
vt 0.5888396 -0.4338473
vt 0.4344335 1.220559
vt -0.03027353 1.342461
vt 0.4344336 1.342461
vt 0.3516187 -0.4338473
vt 0.4344335 -0.4555714
vt 0.4344335 -0.4338473
vt 0.2102439 0.2077497
vt 0.215841 0.2054994
vt 0.2179357 0.1845988
vt 0.06336271 1.479834
vt 0.2079398 1.342461
vt 0.4150831 1.342461
vt 0.415083 1.479834
vt 0.4081601 1.463794
vt 0.3918366 1.479834
vt 0.5390028 1.479834
vt 0.6183148 1.342461
vt 0.5637205 1.310941
vt 0.5869427 1.288123
vt -0.1146639 1.422646
vt -0.1146639 1.566153
vt 0.4344335 1.566153
vt -0.03027356 1.342461
vt 0.4344336 1.342461
vt 0.7179878 1.342461
vt 0.5888396 1.566153
vt 0.6733561 1.712539
vt 0.8870208 1.342461
vt 0.7554572 1.114586
vt 0.6476074 1.220559
vt 0.330543 0.4418178
vt 0.5888396 0.4418179
vt 0.5888396 -0.1072795
vt 0.5256446 -0.1072796
vt 0.330543 0.3590031
vt 0.5837281 1.71254
vt 0.6022303 1.342461
vt 0.4344336 1.342461
vt 0.4344335 1.71254
vt 0.5888396 -0.4338473
vt 0.2460266 -0.2874604
vt 0.6733559 -0.2874605
vt 0.330543 -0.4338473
vt 0.3180006 -0.4555714
vt 0.210151 -0.3495988
vt 0.5395191 1.08702
vt 0.4344336 1.114586
vt 0.4344336 1.342461
vt 0.6022303 1.342461
vt 0.3865609 0.3956088
vt 0.3630632 0.5011365
vt 0.4050775 0.4996943
vt 0.4318672 0.4464135
vt 0.3977821 0.3952239
vt 0.2460266 0.4817557
vt 0.673356 0.5911126
vt 0.673356 0.4418179
vt 0.2460266 0.4418178
vt 0.4344334 -0.3495987
vt 0.4576229 -0.3556819
vt 0.4743714 -0.2874604
vt 0.4344334 -0.2874604
vt 0.3934917 0.1615745
vt 0.3355897 0.162948
vt 0.2294562 0.1772892
vt 0.2381413 0.1779911
vt 0.2179357 0.1845988
vt 0.2870983 0.1966514
vt 0.3178892 0.2108517
vt 0.3069007 0.2247314
vt 0.2102439 0.2077497
vt 0.2656119 0.1845404
vt 0.2179357 0.1845988
vt 0.2318303 0.1768548
vt 0.2294562 0.1772892
vt 0.271866 0.1869646
vt 0.3109535 0.172453
vt 0.3957558 0.1680674
vt 0.3778831 0.1729529
vt 0.3930825 0.1625053
vt 0.3355897 0.162948
vt 0.3934917 0.1615745
vn 0 0 -1
vn 0 0 -1
vn 0 0 -1
vn -0.8660255 0 0.4999999
vn -0.8660255 0 0.4999999
vn -0.8660255 0 0.4999999
vn 0 -1 0
vn 0 -1 0
vn 0 -1 0
vn 0 -1 0
vn 0 -1 0
vn 0 -1 0
vn 0.8660254 0 -0.4999999
vn 0.8660254 0 -0.4999999
vn 0.8660254 0 -0.4999999
vn -0.8660258 0 0.4999993
vn -0.8660258 0 0.4999993
vn -0.8660258 0 0.4999993
vn -0.8998799 0.3905502 -0.1941306
vn -0.759352 -0.6501232 -0.02691807
vn -0.7644966 -0.6292371 -0.1400204
vn -0.8660254 0 -0.5
vn -0.8660254 0 -0.5
vn -0.8660254 0 -0.5
vn -0.8660254 0 -0.5
vn 0 -1 0
vn 0 -1 0
vn 0 -1 0
vn 0 -1 0
vn 0 -1 0
vn 0 -1 0
vn 0.8660253 0 0.5000001
vn 0.8660253 0 0.5000001
vn 0.8660253 0 0.5000001
vn 0.8660253 0 0.5000001
vn 0.8660253 0 0.5000001
vn 0 -1 0
vn 0 -1 0
vn 0 -1 0
vn 0 -1 0
vn 0 -1 0
vn 0 -1 0
vn 0 0 1
vn 0 0 1
vn 0 0 1
vn 0 0 1
vn 0 0 1
vn 0.8660253 0 0.5000001
vn 0.8660253 0 0.5000001
vn 0.8660253 0 0.5000001
vn 0.8660253 0 0.5000001
vn 0 -1 0
vn 0 -1 0
vn 0 -1 0
vn 0 -1 0
vn 0 -1 0
vn 0 -1 0
vn 0.8660254 0 -0.5
vn 0.8660254 0 -0.5
vn 0.8660254 0 -0.5
vn 0.8660254 0 -0.5
vn -0.8998799 0.3905502 -0.1941306
vn 0.01409975 0.43578 -0.8999427
vn 0.7053571 0.7077376 -0.03973585
vn 0.3015625 0.6883351 0.6597385
vn -0.4837592 0.5818478 0.6537814
vn 0 0 1
vn 0 0 1
vn 0 0 1
vn 0 0 1
vn -0.8660251 0 0.5000004
vn -0.8660251 0 0.5000004
vn -0.8660251 0 0.5000004
vn -0.8660251 0 0.5000004
vn -0.6448674 -0.6723955 0.3633597
vn -0.675016 -0.2342932 -0.6996142
vn -0.346333 -0.4544934 -0.8206639
vn -0.8611945 -0.317279 0.397087
vn -0.7644966 -0.6292371 -0.1400204
vn -0.3567418 -0.6033085 -0.7132701
vn 0.1841518 -0.6431578 -0.7432603
vn 0.01409975 0.43578 -0.8999427
vn -0.8998799 0.3905502 -0.1941306
vn -0.4200953 -0.8004547 -0.4275419
vn -0.7644966 -0.6292371 -0.1400204
vn -0.4200953 -0.8004547 -0.4275419
vn -0.346333 -0.4544934 -0.8206639
vn -0.7644966 -0.6292371 -0.1400204
vn -0.8160144 -0.1431642 -0.5600219
vn 0.4323991 -0.8237801 -0.3666297
vn 0.5539845 -0.6026016 -0.5744323
vn -0.4200953 -0.8004547 -0.4275419
vn -0.675016 -0.2342932 -0.6996142
vn -0.6448674 -0.6723955 0.3633597
g smashed.007_0
f 3/3/3 2/2/2 1/1/1
f 6/6/6 5/5/5 4/4/4
f 9/9/9 8/8/8 7/7/7
f 12/12/12 11/11/11 10/10/10
f 15/15/15 14/14/14 13/13/13
f 18/18/18 17/17/17 16/16/16
f 21/21/21 20/20/20 19/19/19
f 24/24/24 23/23/23 22/22/22
f 25/25/25 24/24/24 22/22/22
f 28/28/28 27/27/27 26/26/26
f 29/29/29 28/28/28 26/26/26
f 29/29/29 26/26/26 30/30/30
f 29/29/29 30/30/30 31/31/31
f 34/34/34 33/33/33 32/32/32
f 32/32/32 35/35/35 34/34/34
f 35/35/35 36/36/36 34/34/34
f 39/39/39 38/38/38 37/37/37
f 40/40/40 39/39/39 37/37/37
f 40/40/40 37/37/37 41/41/41
f 37/37/37 42/42/42 41/41/41
f 45/45/45 44/44/44 43/43/43
f 43/43/43 46/46/46 45/45/45
f 43/43/43 47/47/47 46/46/46
f 50/50/50 49/49/49 48/48/48
f 51/51/51 50/50/50 48/48/48
f 54/54/54 53/53/53 52/52/52
f 53/53/53 55/55/55 52/52/52
f 55/55/55 53/53/53 56/56/56
f 53/53/53 57/57/57 56/56/56
f 60/60/60 59/59/59 58/58/58
f 61/61/61 60/60/60 58/58/58
f 64/64/64 63/63/63 62/62/62
f 62/62/62 65/65/65 64/64/64
f 62/62/62 66/66/66 65/65/65
f 69/69/69 68/68/68 67/67/67
f 70/70/70 69/69/69 67/67/67
f 73/73/73 72/72/72 71/71/71
f 74/74/74 73/73/73 71/71/71
f 77/77/77 76/76/76 75/75/75
f 75/75/75 78/78/78 77/77/77
f 77/77/77 78/78/78 79/79/79
f 82/82/82 81/81/81 80/80/80
f 80/80/80 83/83/83 82/82/82
f 80/80/80 84/84/84 83/83/83
f 84/84/84 85/85/85 83/83/83
f 84/84/84 86/86/86 85/85/85
f 86/86/86 87/87/87 85/85/85
f 88/88/88 84/84/84 80/80/80
f 80/80/80 89/89/89 88/88/88
f 90/90/90 89/89/89 80/80/80
f 80/80/80 91/91/91 90/90/90
f 90/90/90 92/92/92 89/89/89
f 92/92/92 93/93/93 89/89/89
f 92/92/92 94/94/94 93/93/93
