g Spidertank_debris.016
v -7.129226 2.825825 -1.765217
v -6.713081 3.097778 0.1783257
v -6.516903 3.173479 0.1257286
v -6.933048 2.901526 -1.817815
v -7.172185 7.00153 4.084512
v -6.976008 7.077233 4.031915
v -6.539094 5.330446 3.147412
v -6.735271 5.254744 3.200009
v -8.281449 6.224161 -2.064891
v -6.516903 3.173479 0.1257286
v -6.713081 3.097778 0.1783257
v -8.477627 6.148459 -2.012294
v -8.748284 8.090561 -1.119836
v -8.281449 6.224161 -2.064891
v -8.477627 6.148459 -2.012294
v -8.944462 8.01486 -1.067238
v -8.30364 8.381128 0.9567926
v -8.748284 8.090561 -1.119836
v -8.944462 8.01486 -1.067238
v -8.499819 8.305428 1.009389
v -6.539094 5.330446 3.147412
v -8.30364 8.381128 0.9567926
v -8.499819 8.305428 1.009389
v -6.735271 5.254744 3.200009
v -6.976008 7.077233 4.031915
v -7.172185 7.00153 4.084512
v -8.936736 10.05222 1.893885
v -8.740558 10.12792 1.841288
v -8.740558 10.12792 1.841288
v -8.936736 10.05222 1.893885
v -9.797533 9.489716 -2.126297
v -9.601357 9.565417 -2.178894
v -8.6976 5.952218 -4.008442
v -8.893777 5.876516 -3.955844
v -7.129226 2.825825 -1.765217
v -6.933048 2.901526 -1.817815
v -9.601357 9.565417 -2.178894
v -9.797533 9.489716 -2.126297
v -8.893777 5.876516 -3.955844
v -8.6976 5.952218 -4.008442
v -9.797533 9.489716 -2.126297
v -10.308 9.292732 -1.989433
v -9.404245 5.679532 -3.81898
v -8.893777 5.876516 -3.955844
v -8.893777 5.876516 -3.955844
v -9.404245 5.679532 -3.81898
v -7.639697 2.62884 -1.628353
v -7.129226 2.825825 -1.765217
v -8.936736 10.05222 1.893885
v -9.447206 9.85524 2.030747
v -10.308 9.292732 -1.989433
v -9.797533 9.489716 -2.126297
v -7.172185 7.00153 4.084512
v -7.682656 6.804548 4.221375
v -9.447206 9.85524 2.030747
v -8.936736 10.05222 1.893885
v -10.308 9.292732 -1.989433
v -9.447206 9.85524 2.030747
v -9.010288 8.108445 1.146252
v -9.45493 7.817876 -0.930375
v -9.447206 9.85524 2.030747
v -7.682656 6.804548 4.221375
v -7.245743 5.057761 3.336874
v -9.010288 8.108445 1.146252
v -6.465539 7.274214 3.895052
v -7.793169 8.578111 0.8199301
v -6.028625 5.52743 3.010549
v -8.230086 10.32491 1.704425
v -8.237816 8.287544 -1.256698
v -9.090884 9.762402 -2.315757
v -7.770979 6.421145 -2.201755
v -8.187128 6.149202 -4.145306
v -6.006435 3.370462 -0.01113391
v -6.422579 3.09851 -1.954678
v -7.639697 2.62884 -1.628353
v -9.404245 5.679532 -3.81898
v -8.988097 5.951477 -1.87543
v -7.223551 2.900794 0.3151891
v -9.404245 5.679532 -3.81898
v -10.308 9.292732 -1.989433
v -9.45493 7.817876 -0.930375
v -8.988097 5.951477 -1.87543
v -6.735271 5.254744 3.200009
v -8.499819 8.305428 1.009389
v -9.010288 8.108445 1.146252
v -7.245743 5.057761 3.336874
v -8.499819 8.305428 1.009389
v -8.944462 8.01486 -1.067238
v -9.45493 7.817876 -0.930375
v -9.010288 8.108445 1.146252
v -8.944462 8.01486 -1.067238
v -8.477627 6.148459 -2.012294
v -8.988097 5.951477 -1.87543
v -9.45493 7.817876 -0.930375
v -8.477627 6.148459 -2.012294
v -6.713081 3.097778 0.1783257
v -7.223551 2.900794 0.3151891
v -8.988097 5.951477 -1.87543
v -6.976008 7.077233 4.031915
v -6.465539 7.274214 3.895052
v -6.028625 5.52743 3.010549
v -6.539094 5.330446 3.147412
v -6.933048 2.901526 -1.817815
v -6.516903 3.173479 0.1257286
v -6.006435 3.370462 -0.01113391
v -6.422579 3.09851 -1.954678
v -7.639697 2.62884 -1.628353
v -7.223551 2.900794 0.3151891
v -6.713081 3.097778 0.1783257
v -7.129226 2.825825 -1.765217
v -7.682656 6.804548 4.221375
v -7.172185 7.00153 4.084512
v -6.735271 5.254744 3.200009
v -7.245743 5.057761 3.336874
v -7.770979 6.421145 -2.201755
v -6.006435 3.370462 -0.01113391
v -6.516903 3.173479 0.1257286
v -8.281449 6.224161 -2.064891
v -8.237816 8.287544 -1.256698
v -7.770979 6.421145 -2.201755
v -8.281449 6.224161 -2.064891
v -8.748284 8.090561 -1.119836
v -7.793169 8.578111 0.8199301
v -8.237816 8.287544 -1.256698
v -8.748284 8.090561 -1.119836
v -8.30364 8.381128 0.9567926
v -6.028625 5.52743 3.010549
v -7.793169 8.578111 0.8199301
v -8.30364 8.381128 0.9567926
v -6.539094 5.330446 3.147412
v -6.465539 7.274214 3.895052
v -6.976008 7.077233 4.031915
v -8.740558 10.12792 1.841288
v -8.230086 10.32491 1.704425
v -8.230086 10.32491 1.704425
v -8.740558 10.12792 1.841288
v -9.601357 9.565417 -2.178894
v -9.090884 9.762402 -2.315757
v -8.187128 6.149202 -4.145306
v -8.6976 5.952218 -4.008442
v -6.933048 2.901526 -1.817815
v -6.422579 3.09851 -1.954678
v -9.090884 9.762402 -2.315757
v -9.601357 9.565417 -2.178894
v -8.6976 5.952218 -4.008442
v -8.187128 6.149202 -4.145306
vt 0.2015009 0.8541608
vt 0.1373299 1.096249
vt 0.08919076 1.082191
vt 0.1533617 0.8401024
vt 0.1996298 0.8777951
vt 0.1746368 0.8296559
vt 0.3749841 0.7654961
vt 0.3999771 0.8136352
vt 0.2140705 0.7809592
vt 0.6024829 0.5155075
vt 0.6274759 0.5636466
vt 0.2390635 0.8290983
vt 0.2500038 0.8495133
vt 0.4640706 0.7809592
vt 0.4890637 0.8290983
vt 0.2749968 0.8976524
vt 0.1046308 0.7682326
vt 0.1731964 0.5095676
vt 0.2213355 0.5236259
vt 0.15277 0.7822908
vt 0.1249843 0.7654961
vt -0.2634281 1.030948
vt -0.2384351 1.079087
vt 0.1499774 0.8136352
vt 0.1746368 0.8296559
vt 0.1996298 0.8777951
vt -0.1887838 1.143248
vt -0.2137769 1.095108
vt 0.1687914 0.9047128
vt 0.2169307 0.918771
vt 0.3496684 0.4180167
vt 0.3015292 0.4039586
vt 0.2266412 0.8451307
vt 0.2516343 0.8932699
vt 0.6400478 0.6278177
vt 0.6150545 0.5796784
vt 0.06222526 0.977846
vt 0.08721842 1.025985
vt 0.5016344 0.8932699
vt 0.4766411 0.8451307
vt 0.02742187 0.6624118
vt 5.981153E-05 0.6624118
vt 5.960061E-05 0.4611021
vt 0.02742152 0.4611021
vt 0.03052191 0.7172434
vt 0.003159992 0.7172434
vt 0.003159359 0.5159343
vt 0.03052142 0.5159343
vt 0.0274218 0.6424022
vt 5.974123E-05 0.6424021
vt 5.981153E-05 0.4410927
vt 0.02742187 0.4410927
vt 0.1516895 0.8401186
vt 0.1243275 0.8401186
vt 0.1243273 0.6388096
vt 0.1516894 0.6388096
vt 0.5753399 0.7395272
vt 0.3138514 0.740522
vt 0.3767858 0.6307775
vt 0.5118115 0.6301763
vt 0.2580601 0.6513035
vt 0.256641 0.3799142
vt 0.3701633 0.3139293
vt 0.3715824 0.5853186
vt 0.5777344 0.3720459
vt 0.6881348 0.5696045
vt 0.6871094 0.3081299
vt 0.5791016 0.6335205
vt 0.8053711 0.6365967
vt 0.8060547 0.7630615
vt 0.9222656 0.5685791
vt 1.031982 0.631128
vt 0.9208984 0.3071045
vt 1.030615 0.3696533
vt 0.7373047 0.4279053
vt 0.7386719 0.6893799
vt 0.6289551 0.6268311
vt 0.6275879 0.3653564
vt 0.7998248 0.3170014
vt 0.5381988 0.3182954
vt 0.6011352 0.2086027
vt 0.7360816 0.2079741
vt 0.2034578 5.91436E-05
vt 0.4047664 5.91436E-05
vt 0.4047665 0.02742113
vt 0.2034578 0.02742113
vt 0.4047664 5.91436E-05
vt 0.5087531 5.900299E-05
vt 0.5087531 0.02742099
vt 0.4047665 0.02742113
vt 0.7314093 5.900299E-05
vt 0.8353959 5.893268E-05
vt 0.8353959 0.02742106
vt 0.7314093 0.02742099
vt 0.7494584 5.893268E-05
vt 0.9507674 5.900299E-05
vt 0.9507674 0.02742113
vt 0.7494584 0.02742106
vt 0.02754008 0.9026187
vt 0.0549021 0.9026186
vt 0.05490249 0.9999411
vt 0.0275404 0.9999411
vt 0.02754037 0.09738082
vt 0.02754058 5.893268E-05
vt 0.05490239 5.900299E-05
vt 0.05490228 0.09738088
vt 5.896783E-05 0.09738131
vt 5.893268E-05 5.893268E-05
vt 0.02742095 5.893268E-05
vt 0.02742102 0.09738131
vt 5.988184E-05 0.9026186
vt 0.02742187 0.9026186
vt 0.02742187 0.9999409
vt 5.984669E-05 0.9999409
vt 0.7494589 0.02753907
vt 0.9507671 0.02753907
vt 0.9507671 0.05490098
vt 0.7494589 0.05490119
vt 0.7314097 0.02753907
vt 0.8353964 0.02753907
vt 0.8353964 0.05490119
vt 0.7314097 0.05490119
vt 0.4047667 0.02753907
vt 0.5087534 0.02753907
vt 0.5087534 0.05490119
vt 0.4047667 0.05490119
vt 0.2034578 0.02753899
vt 0.4047667 0.02753907
vt 0.4047667 0.05490119
vt 0.2034578 0.05490091
vt 0.1791697 0.8401186
vt 0.1518077 0.8401187
vt 0.1518073 0.6388092
vt 0.1791694 0.6388092
vt 0.05490179 0.6424018
vt 0.02753973 0.6424018
vt 0.0275398 0.4410929
vt 0.05490196 0.4410929
vt 0.05800257 0.7172441
vt 0.03064026 0.7172441
vt 0.03064076 0.5159338
vt 0.05800267 0.5159339
vt 0.05490196 0.662412
vt 0.0275398 0.662412
vt 0.02753987 0.4611028
vt 0.05490217 0.4611029
vn 0.371249 -0.9271729 0.05024518
vn 0.371249 -0.9271729 0.05024518
vn 0.371249 -0.9271729 0.05024518
vn 0.371249 -0.9271729 0.05024518
vn 0.3652758 -0.3461973 0.8641302
vn 0.3652758 -0.3461973 0.8641302
vn 0.3652758 -0.3461973 0.8641302
vn 0.3652758 -0.3461973 0.8641302
vn -0.005975913 0.5809819 0.8138945
vn -0.005975913 0.5809819 0.8138945
vn -0.005975913 0.5809819 0.8138945
vn -0.005975913 0.5809819 0.8138945
vn 0.3652729 -0.3461916 0.8641337
vn 0.3652729 -0.3461916 0.8641337
vn 0.3652729 -0.3461916 0.8641337
vn 0.3652729 -0.3461916 0.8641337
vn 0.3712475 -0.9271737 0.05024209
vn 0.3712475 -0.9271737 0.05024209
vn 0.3712475 -0.9271737 0.05024209
vn 0.3712475 -0.9271737 0.05024209
vn 0.00597921 -0.5809798 -0.813896
vn 0.00597921 -0.5809798 -0.813896
vn 0.00597921 -0.5809798 -0.813896
vn 0.00597921 -0.5809798 -0.813896
vn -0.005975778 0.5809822 0.8138943
vn -0.005975778 0.5809822 0.8138943
vn -0.005975778 0.5809822 0.8138943
vn -0.005975778 0.5809822 0.8138943
vn -0.3712475 0.9271739 -0.05023978
vn -0.3712475 0.9271739 -0.05023978
vn -0.3712475 0.9271739 -0.05023978
vn -0.3712475 0.9271739 -0.05023978
vn 0.005976853 -0.5809815 -0.8138948
vn 0.005976853 -0.5809815 -0.8138948
vn 0.005976853 -0.5809815 -0.8138948
vn 0.005976853 -0.5809815 -0.8138948
vn -0.3652746 0.3461894 -0.8641338
vn -0.3652746 0.3461894 -0.8641338
vn -0.3652746 0.3461894 -0.8641338
vn -0.3652746 0.3461894 -0.8641338
vn -0.3652765 0.3461891 -0.8641332
vn -0.3652765 0.3461891 -0.8641332
vn -0.3652765 0.3461891 -0.8641332
vn -0.3652765 0.3461891 -0.8641332
vn 0.00597686 -0.580982 -0.8138945
vn 0.00597686 -0.580982 -0.8138945
vn 0.00597686 -0.580982 -0.8138945
vn 0.00597686 -0.580982 -0.8138945
vn -0.3712521 0.9271721 -0.05023859
vn -0.3712521 0.9271721 -0.05023859
vn -0.3712521 0.9271721 -0.05023859
vn -0.3712521 0.9271721 -0.05023859
vn -0.005977276 0.5809811 0.8138952
vn -0.005977276 0.5809811 0.8138952
vn -0.005977276 0.5809811 0.8138952
vn -0.005977276 0.5809811 0.8138952
vn -0.905064 -0.3492506 0.2426585
vn -0.905064 -0.3492506 0.2426585
vn -0.905064 -0.3492506 0.2426585
vn -0.905064 -0.3492506 0.2426585
vn -0.905064 -0.3492503 0.2426588
vn -0.905064 -0.3492503 0.2426588
vn -0.905064 -0.3492503 0.2426588
vn -0.905064 -0.3492503 0.2426588
vn 0.905064 0.3492508 -0.2426584
vn 0.9050645 0.3492494 -0.2426587
vn 0.905064 0.3492508 -0.2426584
vn 0.9050645 0.3492494 -0.2426587
vn 0.9050645 0.3492494 -0.2426587
vn 0.9050645 0.3492494 -0.2426587
vn 0.905064 0.3492511 -0.242658
vn 0.905064 0.3492511 -0.242658
vn 0.905064 0.3492511 -0.242658
vn 0.905064 0.3492511 -0.242658
vn -0.905064 -0.3492504 0.2426584
vn -0.905064 -0.3492504 0.2426584
vn -0.905064 -0.3492504 0.2426584
vn -0.905064 -0.3492504 0.2426584
vn -0.905064 -0.3492505 0.2426584
vn -0.905064 -0.3492505 0.2426584
vn -0.905064 -0.3492505 0.2426584
vn -0.905064 -0.3492505 0.2426584
vn 0.005976117 -0.5809819 -0.8138946
vn 0.005976117 -0.5809819 -0.8138946
vn 0.005976117 -0.5809819 -0.8138946
vn 0.005976117 -0.5809819 -0.8138946
vn 0.3712534 -0.9271713 0.05024057
vn 0.3712534 -0.9271713 0.05024057
vn 0.3712534 -0.9271713 0.05024057
vn 0.3712534 -0.9271713 0.05024057
vn 0.3652755 -0.3461909 0.864133
vn 0.3652755 -0.3461909 0.864133
vn 0.3652755 -0.3461909 0.864133
vn 0.3652755 -0.3461909 0.864133
vn -0.005977279 0.5809805 0.8138956
vn -0.005977279 0.5809805 0.8138956
vn -0.005977279 0.5809805 0.8138956
vn -0.005977279 0.5809805 0.8138956
vn 0.3652763 -0.3461969 0.8641301
vn 0.3652763 -0.3461969 0.8641301
vn 0.3652763 -0.3461969 0.8641301
vn 0.3652763 -0.3461969 0.8641301
vn 0.3712547 -0.9271706 0.05024385
vn 0.3712547 -0.9271706 0.05024385
vn 0.3712547 -0.9271706 0.05024385
vn 0.3712547 -0.9271706 0.05024385
vn 0.3712547 -0.9271706 0.05024391
vn 0.3712547 -0.9271706 0.05024391
vn 0.3712547 -0.9271706 0.05024391
vn 0.3712547 -0.9271706 0.05024391
vn 0.3652758 -0.3461957 0.8641307
vn 0.3652758 -0.3461957 0.8641307
vn 0.3652758 -0.3461957 0.8641307
vn 0.3652758 -0.3461957 0.8641307
vn -0.005978066 0.5809802 0.8138957
vn -0.005978066 0.5809802 0.8138957
vn -0.005978066 0.5809802 0.8138957
vn -0.005978066 0.5809802 0.8138957
vn 0.3652753 -0.346191 0.864133
vn 0.3652753 -0.346191 0.864133
vn 0.3652753 -0.346191 0.864133
vn 0.3652753 -0.346191 0.864133
vn 0.3712514 -0.9271722 0.05024036
vn 0.3712514 -0.9271722 0.05024036
vn 0.3712514 -0.9271722 0.05024036
vn 0.3712514 -0.9271722 0.05024036
vn 0.005976714 -0.580981 -0.8138952
vn 0.005976714 -0.580981 -0.8138952
vn 0.005976714 -0.580981 -0.8138952
vn 0.005976714 -0.580981 -0.8138952
vn -0.005976866 0.5809814 0.8138949
vn -0.005976866 0.5809814 0.8138949
vn -0.005976866 0.5809814 0.8138949
vn -0.005976866 0.5809814 0.8138949
vn -0.3712511 0.9271725 -0.05023745
vn -0.3712511 0.9271725 -0.05023745
vn -0.3712511 0.9271725 -0.05023745
vn -0.3712511 0.9271725 -0.05023745
vn 0.005977669 -0.5809805 -0.8138955
vn 0.005977669 -0.5809805 -0.8138955
vn 0.005977669 -0.5809805 -0.8138955
vn 0.005977669 -0.5809805 -0.8138955
vn -0.3652744 0.3461908 -0.8641334
vn -0.3652744 0.3461908 -0.8641334
vn -0.3652744 0.3461908 -0.8641334
vn -0.3652744 0.3461908 -0.8641334
g Spidertank_debris.016_0
f 3/3/3 2/2/2 1/1/1
f 4/4/4 3/3/3 1/1/1
f 7/7/7 6/6/6 5/5/5
f 8/8/8 7/7/7 5/5/5
f 11/11/11 10/10/10 9/9/9
f 12/12/12 11/11/11 9/9/9
f 15/15/15 14/14/14 13/13/13
f 16/16/16 15/15/15 13/13/13
f 19/19/19 18/18/18 17/17/17
f 20/20/20 19/19/19 17/17/17
f 23/23/23 22/22/22 21/21/21
f 24/24/24 23/23/23 21/21/21
f 27/27/27 26/26/26 25/25/25
f 28/28/28 27/27/27 25/25/25
f 31/31/31 30/30/30 29/29/29
f 32/32/32 31/31/31 29/29/29
f 35/35/35 34/34/34 33/33/33
f 36/36/36 35/35/35 33/33/33
f 39/39/39 38/38/38 37/37/37
f 40/40/40 39/39/39 37/37/37
f 43/43/43 42/42/42 41/41/41
f 44/44/44 43/43/43 41/41/41
f 47/47/47 46/46/46 45/45/45
f 48/48/48 47/47/47 45/45/45
f 51/51/51 50/50/50 49/49/49
f 52/52/52 51/51/51 49/49/49
f 55/55/55 54/54/54 53/53/53
f 56/56/56 55/55/55 53/53/53
f 59/59/59 58/58/58 57/57/57
f 60/60/60 59/59/59 57/57/57
f 63/63/63 62/62/62 61/61/61
f 64/64/64 63/63/63 61/61/61
f 67/67/67 66/66/66 65/65/65
f 66/66/66 68/68/68 65/65/65
f 66/66/66 69/69/69 68/68/68
f 69/69/69 70/70/70 68/68/68
f 69/69/69 71/71/71 70/70/70
f 71/71/71 72/72/72 70/70/70
f 71/71/71 73/73/73 72/72/72
f 73/73/73 74/74/74 72/72/72
f 77/77/77 76/76/76 75/75/75
f 78/78/78 77/77/77 75/75/75
f 81/81/81 80/80/80 79/79/79
f 82/82/82 81/81/81 79/79/79
f 85/85/85 84/84/84 83/83/83
f 86/86/86 85/85/85 83/83/83
f 89/89/89 88/88/88 87/87/87
f 90/90/90 89/89/89 87/87/87
f 93/93/93 92/92/92 91/91/91
f 94/94/94 93/93/93 91/91/91
f 97/97/97 96/96/96 95/95/95
f 98/98/98 97/97/97 95/95/95
f 101/101/101 100/100/100 99/99/99
f 102/102/102 101/101/101 99/99/99
f 105/105/105 104/104/104 103/103/103
f 106/106/106 105/105/105 103/103/103
f 109/109/109 108/108/108 107/107/107
f 110/110/110 109/109/109 107/107/107
f 113/113/113 112/112/112 111/111/111
f 114/114/114 113/113/113 111/111/111
f 117/117/117 116/116/116 115/115/115
f 118/118/118 117/117/117 115/115/115
f 121/121/121 120/120/120 119/119/119
f 122/122/122 121/121/121 119/119/119
f 125/125/125 124/124/124 123/123/123
f 126/126/126 125/125/125 123/123/123
f 129/129/129 128/128/128 127/127/127
f 130/130/130 129/129/129 127/127/127
f 133/133/133 132/132/132 131/131/131
f 134/134/134 133/133/133 131/131/131
f 137/137/137 136/136/136 135/135/135
f 138/138/138 137/137/137 135/135/135
f 141/141/141 140/140/140 139/139/139
f 142/142/142 141/141/141 139/139/139
f 145/145/145 144/144/144 143/143/143
f 146/146/146 145/145/145 143/143/143
