g Spidertank_debris.036
v -4.884657 13.17415 -0.8262167
v -3.381048 14.8065 -1.049731
v -4.356746 15.02714 -0.6791897
v -5.141255 14.17546 -0.5625707
v -6.105179 13.44742 -0.3631795
v -5.386742 14.22824 -0.4698241
v -7.101875 15.54288 1.557343
v -5.598266 17.17523 1.333828
v -5.341666 16.17392 1.070182
v -6.126179 15.32224 1.186802
v -6.804183 14.31072 1.239054
v -6.0849 15.09066 1.131968
v -3.558117 16.71388 0.5590388
v -3.917589 16.9002 -0.4984561
v -3.381048 14.8065 -1.049731
v -3.021577 14.62018 0.007763386
v -3.021577 14.62018 0.007763386
v -4.525185 12.98783 0.2312779
v -4.781784 13.98914 0.4949242
v -3.997274 14.84082 0.3783052
v -5.957737 17.36155 0.2763333
v -7.461347 15.7292 0.4998484
v -6.485649 15.50856 0.1293068
v -5.701138 16.36024 0.01268744
v -3.021577 14.62018 0.007763386
v -3.381048 14.8065 -1.049731
v -4.884657 13.17415 -0.8262167
v -4.525185 12.98783 0.2312779
v -4.356746 15.02714 -0.6791897
v -4.636687 16.11953 -0.3915606
v -4.277215 15.93321 0.6659344
v -3.997274 14.84082 0.3783052
v -4.636687 16.11953 -0.3915606
v -5.701138 16.36024 0.01268744
v -5.341666 16.17392 1.070182
v -4.277215 15.93321 0.6659344
v -6.804183 14.31072 1.239054
v -7.163655 14.49704 0.18156
v -7.461347 15.7292 0.4998484
v -7.101875 15.54288 1.557343
v -5.598266 17.17523 1.333828
v -3.558117 16.71388 0.5590388
v -4.277215 15.93321 0.6659344
v -5.341666 16.17392 1.070182
v -5.598266 17.17523 1.333828
v -5.957737 17.36155 0.2763333
v -3.917589 16.9002 -0.4984561
v -3.558117 16.71388 0.5590388
v -7.101875 15.54288 1.557343
v -7.461347 15.7292 0.4998484
v -5.957737 17.36155 0.2763333
v -5.598266 17.17523 1.333828
v -3.917589 16.9002 -0.4984561
v -5.957737 17.36155 0.2763333
v -5.701138 16.36024 0.01268744
v -4.636687 16.11953 -0.3915606
v -3.381048 14.8065 -1.049731
v -3.917589 16.9002 -0.4984561
v -4.636687 16.11953 -0.3915606
v -4.356746 15.02714 -0.6791897
v -3.558117 16.71388 0.5590388
v -3.021577 14.62018 0.007763386
v -3.997274 14.84082 0.3783052
v -4.277215 15.93321 0.6659344
v -5.141255 14.17546 -0.5625707
v -4.356746 15.02714 -0.6791897
v -3.997274 14.84082 0.3783052
v -4.781784 13.98914 0.4949242
v -5.386742 14.22824 -0.4698241
v -5.141255 14.17546 -0.5625707
v -4.781784 13.98914 0.4949242
v -5.027269 14.04191 0.5876706
v -5.701138 16.36024 0.01268744
v -6.485649 15.50856 0.1293068
v -6.126179 15.32224 1.186802
v -5.341666 16.17392 1.070182
v -6.485649 15.50856 0.1293068
v -6.444371 15.27699 0.07447362
v -6.0849 15.09066 1.131968
v -6.126179 15.32224 1.186802
v -7.461347 15.7292 0.4998484
v -7.163655 14.49704 0.18156
v -6.444371 15.27699 0.07447362
v -6.485649 15.50856 0.1293068
v -5.027269 14.04191 0.5876706
v -5.745708 13.2611 0.6943154
v -6.105179 13.44742 -0.3631795
v -5.386742 14.22824 -0.4698241
v -4.525185 12.98783 0.2312779
v -5.745708 13.2611 0.6943154
v -5.027269 14.04191 0.5876706
v -4.781784 13.98914 0.4949242
v -4.525185 12.98783 0.2312779
v -4.884657 13.17415 -0.8262167
v -6.105179 13.44742 -0.3631795
v -5.745708 13.2611 0.6943154
v -6.0849 15.09066 1.131968
v -6.444371 15.27699 0.07447362
v -7.163655 14.49704 0.18156
v -6.804183 14.31072 1.239054
vt 0.07651037 0.7885554
vt -0.1649538 0.6491456
vt -0.1649541 0.7824905
vt -0.0389694 0.8552275
vt 0.07684523 0.9552672
vt -0.03863466 0.8886852
vt 0.08504611 0.9567835
vt -0.1564182 0.817374
vt -0.0409385 0.7507019
vt 0.08504611 0.8234391
vt 0.22765 0.8770721
vt 0.1122538 0.8103516
vt 0.09358174 0.9112837
vt 0.09358174 1.052828
vt 0.3350459 1.052828
vt 0.3350459 0.9112837
vt 0.08504611 0.8991458
vt 0.3265105 1.038555
vt 0.2110306 1.105227
vt 0.08504599 1.03249
vt 0.0935818 0.817374
vt 0.3350459 0.9567835
vt 0.3350459 0.8234389
vt 0.2090615 0.7507019
vt 0.08504611 0.9112837
vt 0.08504611 1.052828
vt 0.3265105 1.052828
vt 0.3265105 0.9112837
vt 0.08504599 0.8028283
vt -0.0409385 0.8028283
vt -0.0409385 0.6612837
vt 0.08504599 0.6612837
vt 0.1265115 0.8552277
vt 0.1265115 1.000702
vt -0.01503307 1.000702
vt -0.01503307 0.8552277
vt 0.22765 0.9112837
vt 0.22765 1.052828
vt 0.08504611 1.052828
vt 0.08504611 0.9112837
vt 0.0935818 0.817374
vt 0.09358174 0.5385554
vt 0.2090615 0.6052277
vt 0.2090615 0.7507019
vt 0.2349669 0.817374
vt 0.3765117 0.817374
vt 0.3765117 0.5385554
vt 0.2349669 0.5385554
vt 0.08504611 0.9112837
vt 0.08504611 1.052828
vt -0.1564182 1.052828
vt -0.1564182 0.9112837
vt 0.09358174 0.7885554
vt 0.0935818 1.067374
vt 0.2090615 1.000702
vt 0.2090615 0.8552277
vt 0.08504611 0.8991458
vt -0.1564182 1.038555
vt -0.0409385 1.105228
vt 0.08504599 1.03249
vt 0.09358174 0.7885554
vt 0.3350459 0.6491456
vt 0.3350459 0.7824905
vt 0.2090615 0.8552277
vt 0.2110306 0.8028283
vt 0.08504599 0.8028283
vt 0.08504599 0.6612837
vt 0.2110306 0.6612837
vt 0.1265115 0.8886852
vt 0.1265115 0.8552275
vt -0.01503307 0.8552275
vt -0.01503307 0.8886852
vt 0.2090615 0.8028283
vt 0.3350459 0.8028283
vt 0.3350459 0.6612837
vt 0.2090615 0.6612837
vt 0.08504587 0.8028283
vt 0.1122538 0.8028283
vt 0.1122538 0.6612837
vt 0.08504611 0.6612837
vt 0.08504611 0.9567835
vt 0.22765 0.8770721
vt 0.1122538 0.8103516
vt 0.08504587 0.8234389
vt 0.2113653 0.9112837
vt 0.3268453 0.9112837
vt 0.3268453 1.052828
vt 0.2113653 1.052828
vt 0.07651037 0.7885549
vt 0.07684523 0.9552674
vt -0.03863466 0.8886852
vt -0.0389694 0.8552275
vt 0.2349669 0.7885549
vt 0.3765117 0.7885554
vt 0.3765117 0.9552672
vt 0.2349669 0.9552674
vt 0.1122538 0.9112837
vt 0.1122538 1.052828
vt 0.22765 1.052828
vt 0.22765 0.9112837
vn -0.3174553 0.1645421 -0.9338886
vn -0.3174553 0.1645421 -0.9338886
vn -0.3174553 0.1645421 -0.9338886
vn -0.3174553 0.1645421 -0.9338886
vn -0.317455 0.1645423 -0.9338887
vn -0.317455 0.1645423 -0.9338887
vn 0.3174549 -0.1645423 0.9338887
vn 0.3174549 -0.1645423 0.9338887
vn 0.3174549 -0.1645423 0.9338887
vn 0.3174549 -0.1645423 0.9338887
vn 0.3174553 -0.164542 0.9338886
vn 0.3174553 -0.164542 0.9338886
vn 0.9172581 0.3030971 -0.2583984
vn 0.9172581 0.3030971 -0.2583984
vn 0.9172581 0.3030971 -0.2583984
vn 0.9172581 0.3030971 -0.2583984
vn 0.3174551 -0.1645421 0.9338887
vn 0.3174551 -0.1645421 0.9338887
vn 0.3174551 -0.1645421 0.9338887
vn 0.3174551 -0.1645421 0.9338887
vn -0.3174548 0.1645423 -0.9338887
vn -0.3174548 0.1645423 -0.9338887
vn -0.3174548 0.1645423 -0.9338887
vn -0.3174548 0.1645423 -0.9338887
vn 0.6669446 -0.6613423 -0.3432364
vn 0.6669446 -0.6613423 -0.3432364
vn 0.6669446 -0.6613423 -0.3432364
vn 0.6669446 -0.6613423 -0.3432364
vn -0.917258 -0.3030975 0.2583983
vn -0.917258 -0.3030975 0.2583983
vn -0.917258 -0.3030975 0.2583983
vn -0.917258 -0.3030975 0.2583983
vn -0.2503139 -0.9644406 -0.08483597
vn -0.2503139 -0.9644406 -0.08483597
vn -0.2503139 -0.9644406 -0.08483597
vn -0.2503139 -0.9644406 -0.08483597
vn -0.9205117 -0.2900262 0.2618074
vn -0.9205117 -0.2900262 0.2618074
vn -0.9205117 -0.2900262 0.2618074
vn -0.9205117 -0.2900262 0.2618074
vn 0.3174556 -0.1645424 0.9338886
vn 0.3174556 -0.1645424 0.9338886
vn 0.3174556 -0.1645424 0.9338886
vn 0.3174556 -0.1645424 0.9338886
vn 0.2503132 0.9644407 0.08483697
vn 0.2503132 0.9644407 0.08483697
vn 0.2503132 0.9644407 0.08483697
vn 0.2503132 0.9644407 0.08483697
vn -0.6669444 0.6613435 0.3432344
vn -0.6669444 0.6613435 0.3432344
vn -0.6669444 0.6613435 0.3432344
vn -0.6669444 0.6613435 0.3432344
vn -0.3174547 0.1645419 -0.9338889
vn -0.3174547 0.1645419 -0.9338889
vn -0.3174547 0.1645419 -0.9338889
vn -0.3174547 0.1645419 -0.9338889
vn -0.3174548 0.1645424 -0.9338887
vn -0.3174548 0.1645424 -0.9338887
vn -0.3174548 0.1645424 -0.9338887
vn -0.3174548 0.1645424 -0.9338887
vn 0.3174546 -0.164542 0.9338889
vn 0.3174546 -0.164542 0.9338889
vn 0.3174546 -0.164542 0.9338889
vn 0.3174546 -0.164542 0.9338889
vn -0.6669455 0.6613417 0.3432358
vn -0.6669455 0.6613417 0.3432358
vn -0.6669455 0.6613417 0.3432358
vn -0.6669455 0.6613417 0.3432358
vn 0.2411489 0.966462 0.08830868
vn 0.2411489 0.966462 0.08830868
vn 0.2411489 0.966462 0.08830868
vn 0.2411489 0.966462 0.08830868
vn 0.6669441 -0.6613438 -0.3432346
vn 0.6669441 -0.6613438 -0.3432346
vn 0.6669441 -0.6613438 -0.3432346
vn 0.6669441 -0.6613438 -0.3432346
vn 0.9327466 0.2316688 -0.2762486
vn 0.9327466 0.2316688 -0.2762486
vn 0.9327466 0.2316688 -0.2762486
vn 0.9327466 0.2316688 -0.2762486
vn -0.3174555 0.1645425 -0.9338886
vn -0.3174555 0.1645425 -0.9338886
vn -0.3174555 0.1645425 -0.9338886
vn -0.3174555 0.1645425 -0.9338886
vn -0.6673399 0.6609137 0.3432937
vn -0.6673399 0.6609137 0.3432937
vn -0.6673399 0.6609137 0.3432937
vn -0.6673399 0.6609137 0.3432937
vn 0.3174548 -0.1645425 0.9338887
vn 0.3174548 -0.1645425 0.9338887
vn 0.3174548 -0.1645425 0.9338887
vn 0.3174548 -0.1645425 0.9338887
vn -0.2484768 -0.9648541 -0.08553387
vn -0.2484768 -0.9648541 -0.08553387
vn -0.2484768 -0.9648541 -0.08553387
vn -0.2484768 -0.9648541 -0.08553387
vn 0.6665219 -0.6618015 -0.3431725
vn 0.6665219 -0.6618015 -0.3431725
vn 0.6665219 -0.6618015 -0.3431725
vn 0.6665219 -0.6618015 -0.3431725
g Spidertank_debris.036_0
f 3/3/3 2/2/2 1/1/1
f 4/4/4 3/3/3 1/1/1
f 4/4/4 1/1/1 5/5/5
f 6/6/6 4/4/4 5/5/5
f 9/9/9 8/8/8 7/7/7
f 10/10/10 9/9/9 7/7/7
f 10/10/10 7/7/7 11/11/11
f 12/12/12 10/10/10 11/11/11
f 15/15/15 14/14/14 13/13/13
f 16/16/16 15/15/15 13/13/13
f 19/19/19 18/18/18 17/17/17
f 20/20/20 19/19/19 17/17/17
f 23/23/23 22/22/22 21/21/21
f 24/24/24 23/23/23 21/21/21
f 27/27/27 26/26/26 25/25/25
f 28/28/28 27/27/27 25/25/25
f 31/31/31 30/30/30 29/29/29
f 32/32/32 31/31/31 29/29/29
f 35/35/35 34/34/34 33/33/33
f 36/36/36 35/35/35 33/33/33
f 39/39/39 38/38/38 37/37/37
f 40/40/40 39/39/39 37/37/37
f 43/43/43 42/42/42 41/41/41
f 44/44/44 43/43/43 41/41/41
f 47/47/47 46/46/46 45/45/45
f 48/48/48 47/47/47 45/45/45
f 51/51/51 50/50/50 49/49/49
f 52/52/52 51/51/51 49/49/49
f 55/55/55 54/54/54 53/53/53
f 56/56/56 55/55/55 53/53/53
f 59/59/59 58/58/58 57/57/57
f 60/60/60 59/59/59 57/57/57
f 63/63/63 62/62/62 61/61/61
f 64/64/64 63/63/63 61/61/61
f 67/67/67 66/66/66 65/65/65
f 68/68/68 67/67/67 65/65/65
f 71/71/71 70/70/70 69/69/69
f 72/72/72 71/71/71 69/69/69
f 75/75/75 74/74/74 73/73/73
f 76/76/76 75/75/75 73/73/73
f 79/79/79 78/78/78 77/77/77
f 80/80/80 79/79/79 77/77/77
f 83/83/83 82/82/82 81/81/81
f 84/84/84 83/83/83 81/81/81
f 87/87/87 86/86/86 85/85/85
f 88/88/88 87/87/87 85/85/85
f 91/91/91 90/90/90 89/89/89
f 92/92/92 91/91/91 89/89/89
f 95/95/95 94/94/94 93/93/93
f 96/96/96 95/95/95 93/93/93
f 99/99/99 98/98/98 97/97/97
f 100/100/100 99/99/99 97/97/97
