g Spidertank_debris.045
v 7.455814 13.5863 -6.58025
v 8.336294 13.15276 -5.944824
v 7.513075 13.19139 -6.666683
v 8.279033 13.54767 -5.858391
v 7.398554 13.98121 -6.493815
v 8.22177 13.94258 -5.771956
v 7.341292 14.37612 -6.407382
v 8.16451 14.33749 -5.685523
v 7.513075 13.19139 -6.666683
v 8.336294 13.15276 -5.944824
v 9.036808 12.92529 -6.755871
v 8.21359 12.96392 -7.477729
v 8.566076 13.6021 -7.84556
v 9.565536 13.88256 -7.307618
v 8.742321 13.92118 -8.029476
v 9.389293 13.56347 -7.123703
v 8.389833 13.28301 -7.661644
v 9.213051 13.24438 -6.939788
v 8.21359 12.96392 -7.477729
v 9.036808 12.92529 -6.755871
v 8.742321 13.92118 -8.029476
v 9.565536 13.88256 -7.307618
v 8.16451 14.33749 -5.685523
v 7.341292 14.37612 -6.407382
v 8.279033 13.54767 -5.858391
v 9.036808 12.92529 -6.755871
v 8.336294 13.15276 -5.944824
v 9.213051 13.24438 -6.939788
v 8.22177 13.94258 -5.771956
v 9.389293 13.56347 -7.123703
v 8.16451 14.33749 -5.685523
v 9.565536 13.88256 -7.307618
v 8.389833 13.28301 -7.661644
v 7.513075 13.19139 -6.666683
v 8.21359 12.96392 -7.477729
v 7.455814 13.5863 -6.58025
v 8.566076 13.6021 -7.84556
v 7.398554 13.98121 -6.493815
v 8.742321 13.92118 -8.029476
v 7.341292 14.37612 -6.407382
vt 0.1723937 0.6550578
vt 0.3128887 0.6926486
vt 0.2024137 0.6141
vt 0.2828687 0.7336065
vt 0.1423737 0.6960157
vt 0.2528486 0.7745643
vt 0.1123537 0.7369735
vt 0.2228285 0.8155222
vt 0.2024137 0.9542725
vt 0.3128887 0.9347928
vt 0.3558799 1.061532
vt 0.2454051 1.081012
vt 0.2140257 0.8976256
vt 0.3088106 1.007454
vt 0.198336 0.9289055
vt 0.3245004 0.9761742
vt 0.2297154 0.8663457
vt 0.3401901 0.9448944
vt 0.2454051 0.8350658
vt 0.3558799 0.9136145
vt 0.198336 0.9424617
vt 0.3088106 0.922982
vt 0.2228285 0.6695039
vt 0.1123537 0.6889834
vt 0.2533795 0.7336065
vt 0.3852149 0.6636145
vt 0.2584759 0.6926486
vt 0.422365 0.6948944
vt 0.2482832 0.7745643
vt 0.459515 0.7261742
vt 0.2431868 0.8155222
vt 0.4966651 0.7574542
vt 0.1918447 0.8663457
vt 0.02795559 0.8641
vt 0.1546947 0.8350658
vt 0.02285923 0.9050578
vt 0.2289948 0.8976256
vt 0.01776288 0.9460156
vt 0.2661449 0.9289055
vt 0.01266652 0.9869735
vn -0.6447576 -0.2514795 0.7218349
vn -0.6447581 -0.251477 0.7218353
vn -0.6447581 -0.251477 0.7218353
vn -0.6447576 -0.2514795 0.7218349
vn -0.6447576 -0.2514795 0.7218349
vn -0.6447576 -0.2514795 0.7218349
vn -0.6447594 -0.2514763 0.7218345
vn -0.6447594 -0.2514763 0.7218345
vn -0.1629072 -0.977572 0.1334696
vn -0.1629072 -0.977572 0.1334696
vn -0.1629072 -0.977572 0.1334696
vn -0.1629072 -0.977572 0.1334696
vn 0.4990535 -0.6228893 -0.602457
vn 0.4990515 -0.6228912 -0.6024566
vn 0.4990515 -0.6228912 -0.6024566
vn 0.4990535 -0.6228893 -0.602457
vn 0.4990535 -0.6228893 -0.602457
vn 0.4990535 -0.6228893 -0.602457
vn 0.4990506 -0.6228902 -0.6024585
vn 0.4990506 -0.6228902 -0.6024585
vn 0.1629048 0.9775726 -0.1334691
vn 0.1629048 0.9775726 -0.1334691
vn 0.1629048 0.9775726 -0.1334691
vn 0.1629048 0.9775726 -0.1334691
vn 0.7514098 -0.03525648 0.6588932
vn 0.7514104 -0.03525588 0.6588925
vn 0.7514104 -0.03525588 0.6588925
vn 0.7514098 -0.03525648 0.6588932
vn 0.7514098 -0.03525648 0.6588932
vn 0.7514098 -0.03525648 0.6588932
vn 0.7514098 -0.03525827 0.6588931
vn 0.7514098 -0.03525827 0.6588931
vn -0.7514101 0.03525987 -0.6588927
vn -0.7514083 0.03525814 -0.6588948
vn -0.7514083 0.03525814 -0.6588948
vn -0.7514101 0.03525987 -0.6588927
vn -0.7514101 0.03525987 -0.6588927
vn -0.7514101 0.03525987 -0.6588927
vn -0.7514111 0.03525996 -0.6588917
vn -0.7514111 0.03525996 -0.6588917
g Spidertank_debris.045_0
f 3/3/3 2/2/2 1/1/1
f 2/2/2 4/4/4 1/1/1
f 1/1/1 4/4/4 5/5/5
f 4/4/4 6/6/6 5/5/5
f 5/5/5 6/6/6 7/7/7
f 6/6/6 8/8/8 7/7/7
f 11/11/11 10/10/10 9/9/9
f 12/12/12 11/11/11 9/9/9
f 15/15/15 14/14/14 13/13/13
f 14/14/14 16/16/16 13/13/13
f 13/13/13 16/16/16 17/17/17
f 16/16/16 18/18/18 17/17/17
f 17/17/17 18/18/18 19/19/19
f 18/18/18 20/20/20 19/19/19
f 23/23/23 22/22/22 21/21/21
f 24/24/24 23/23/23 21/21/21
f 27/27/27 26/26/26 25/25/25
f 26/26/26 28/28/28 25/25/25
f 25/25/25 28/28/28 29/29/29
f 28/28/28 30/30/30 29/29/29
f 29/29/29 30/30/30 31/31/31
f 30/30/30 32/32/32 31/31/31
f 35/35/35 34/34/34 33/33/33
f 34/34/34 36/36/36 33/33/33
f 33/33/33 36/36/36 37/37/37
f 36/36/36 38/38/38 37/37/37
f 37/37/37 38/38/38 39/39/39
f 38/38/38 40/40/40 39/39/39
