g Spidertank_debris.033
v -6.665792 11.21751 -0.2364801
v -6.825109 10.86293 0.5071445
v -5.864265 10.95249 0.7557011
v -5.704949 11.30706 0.01207352
v -5.704949 11.30706 0.01207352
v -5.864265 10.95249 0.7557011
v -5.222808 12.59866 1.678056
v -5.063491 12.95324 0.9344306
v -8.266752 11.86148 -0.2724161
v -7.316525 11.92379 -0.03912592
v -7.647177 12.3027 0.07070541
v -7.626637 11.12795 -0.4850385
v -8.625956 10.93966 -0.7889152
v -7.985841 10.20613 -1.001539
v -6.820199 11.97005 0.08926678
v -6.665792 11.21751 -0.2364801
v -6.665792 11.21751 -0.2364801
v -7.626637 11.12795 -0.4850385
v -7.985841 10.20613 -1.001539
v -7.024996 10.29569 -0.7529822
v -6.323874 12.01631 0.2176595
v -6.820199 11.97005 0.08926678
v -5.704949 11.30706 0.01207352
v -5.682419 13.66248 1.140011
v -5.063491 12.95324 0.9344306
v -8.265409 14.24118 0.8625636
v -8.424726 13.88661 1.606189
v -9.066184 12.24044 0.6838331
v -8.906868 12.59501 -0.05979133
v -8.426069 11.50691 0.4712105
v -9.066184 12.24044 0.6838331
v -8.137146 12.32703 0.9241619
v -7.806494 11.94812 0.814332
v -8.145158 9.851554 -0.2579119
v -8.785273 10.58509 -0.04529238
v -7.785954 10.77338 0.2585893
v -6.825109 10.86293 0.5071445
v -7.475842 11.56922 0.7045012
v -6.979517 11.61548 0.8328938
v -9.066184 12.24044 0.6838331
v -8.424726 13.88661 1.606189
v -7.495691 13.97319 1.846513
v -8.137146 12.32703 0.9241619
v -8.265409 14.24118 0.8625636
v -8.906868 12.59501 -0.05979133
v -7.97783 12.6816 0.1805363
v -7.336374 14.32777 1.102888
v -5.222808 12.59866 1.678056
v -5.864265 10.95249 0.7557011
v -6.483191 11.66174 0.9612851
v -5.841736 13.3079 1.883636
v -7.336374 14.32777 1.102888
v -7.97783 12.6816 0.1805363
v -8.137146 12.32703 0.9241619
v -7.495691 13.97319 1.846513
v -7.647177 12.3027 0.07070541
v -7.316525 11.92379 -0.03912592
v -7.475842 11.56922 0.7045012
v -7.806494 11.94812 0.814332
v -7.97783 12.6816 0.1805363
v -8.137146 12.32703 0.9241619
v -6.820199 11.97005 0.08926678
v -6.323874 12.01631 0.2176595
v -6.483191 11.66174 0.9612851
v -6.979517 11.61548 0.8328938
v -6.323874 12.01631 0.2176595
v -5.682419 13.66248 1.140011
v -5.841736 13.3079 1.883636
v -6.483191 11.66174 0.9612851
v -8.424726 13.88661 1.606189
v -8.265409 14.24118 0.8625636
v -7.336374 14.32777 1.102888
v -7.495691 13.97319 1.846513
v -5.222808 12.59866 1.678056
v -5.841736 13.3079 1.883636
v -5.682419 13.66248 1.140011
v -5.063491 12.95324 0.9344306
v -7.785954 10.77338 0.2585893
v -8.426069 11.50691 0.4712105
v -7.806494 11.94812 0.814332
v -7.475842 11.56922 0.7045012
v -6.825109 10.86293 0.5071445
v -7.184313 9.941111 -0.009358406
v -8.145158 9.851554 -0.2579119
v -8.906868 12.59501 -0.05979133
v -9.066184 12.24044 0.6838331
v -8.426069 11.50691 0.4712105
v -8.266752 11.86148 -0.2724161
v -8.906868 12.59501 -0.05979133
v -8.266752 11.86148 -0.2724161
v -7.647177 12.3027 0.07070541
v -7.97783 12.6816 0.1805363
v -7.316525 11.92379 -0.03912592
v -6.820199 11.97005 0.08926678
v -6.979517 11.61548 0.8328938
v -7.475842 11.56922 0.7045012
v -5.864265 10.95249 0.7557011
v -6.825109 10.86293 0.5071445
v -6.979517 11.61548 0.8328938
v -6.483191 11.66174 0.9612851
v -6.825109 10.86293 0.5071445
v -6.665792 11.21751 -0.2364801
v -7.024996 10.29569 -0.7529822
v -7.184313 9.941111 -0.009358406
v -7.024996 10.29569 -0.7529822
v -7.985841 10.20613 -1.001539
v -8.282349 9.445202 -1.427891
v -7.321504 9.534758 -1.179336
v -7.184313 9.941111 -0.009358406
v -7.024996 10.29569 -0.7529822
v -7.321504 9.534758 -1.179336
v -7.480822 9.18018 -0.4357079
v -7.530852 9.068832 -0.2021861
v -7.234344 9.829762 0.224165
v -8.266752 11.86148 -0.2724161
v -8.426069 11.50691 0.4712105
v -8.785273 10.58509 -0.04529238
v -8.625956 10.93966 -0.7889152
v -8.922464 10.17873 -1.215269
v -8.441666 9.090626 -0.6842641
v -8.282349 9.445202 -1.427891
v -9.081781 9.824156 -0.4716411
v -9.131812 9.712809 -0.2381198
v -8.491695 8.979279 -0.4507407
v -8.282349 9.445202 -1.427891
v -8.441666 9.090626 -0.6842641
v -7.480822 9.18018 -0.4357079
v -7.321504 9.534758 -1.179336
v -8.625956 10.93966 -0.7889152
v -9.081781 9.824156 -0.4716411
v -8.922464 10.17873 -1.215269
v -8.785273 10.58509 -0.04529238
v -8.835303 10.47374 0.1882305
v -9.131812 9.712809 -0.2381198
v -7.985841 10.20613 -1.001539
v -8.625956 10.93966 -0.7889152
v -8.922464 10.17873 -1.215269
v -8.282349 9.445202 -1.427891
v -8.835303 10.47374 0.1882305
v -8.491695 8.979279 -0.4507407
v -9.131812 9.712809 -0.2381198
v -8.195189 9.740206 -0.02439213
v -7.530852 9.068832 -0.2021861
v -7.234344 9.829762 0.224165
v -7.480822 9.18018 -0.4357079
v -8.441666 9.090626 -0.6842641
v -8.491695 8.979279 -0.4507407
v -7.530852 9.068832 -0.2021861
v -8.785273 10.58509 -0.04529238
v -8.145158 9.851554 -0.2579119
v -8.195189 9.740206 -0.02439213
v -8.835303 10.47374 0.1882305
v -8.145158 9.851554 -0.2579119
v -7.184313 9.941111 -0.009358406
v -7.234344 9.829762 0.224165
v -8.195189 9.740206 -0.02439213
vt 0.05488843 0.9306564
vt 0.1426243 0.9813108
vt 0.2105306 0.8959534
vt 0.1227945 0.845299
vt 0.1227945 0.8374283
vt 0.2105306 0.8645923
vt 0.2664059 0.623966
vt 0.17867 0.596802
vt 0.2212681 0.867501
vt 0.1650943 0.7816098
vt 0.1340202 0.8340333
vt 0.2814246 0.7660136
vt 0.3560139 0.8494363
vt 0.4161707 0.7479489
vt 0.1340202 0.7375183
vt 0.2212681 0.6806564
vt 0.2212681 0.9306564
vt 0.2814246 1.016014
vt 0.4161707 0.9979489
vt 0.3560139 0.9125917
vt 0.1029463 0.9434268
vt 0.1340202 0.9875183
vt 0.1611115 0.845299
vt -0.1376792 0.9756866
vt -0.07951498 0.8775589
vt 0.2129205 0.846802
vt 0.3006564 0.873966
vt 0.2447809 1.114593
vt 0.1570452 1.087428
vt 0.2484323 0.9181554
vt 0.1882757 1.019643
vt 0.1301101 0.9371109
vt 0.1611844 0.8846874
vt 0.4433347 0.7986033
vt 0.3831784 0.9000905
vt 0.3085886 0.8166683
vt 0.2484323 0.7313108
vt 0.1922582 0.8322642
vt 0.1611843 0.7881727
vt 0.1882757 0.7696426
vt -0.05235088 0.8019025
vt -0.1105152 0.7193704
vt 0.1301101 0.6871109
vt 0.1704851 0.7512481
vt 0.4111115 0.7189884
vt 0.3529464 0.6364567
vt 0.1123208 0.6687162
vt 0.1976491 0.9282134
vt 0.4382755 0.8959534
vt 0.3801104 0.9940813
vt 0.1394848 1.026341
vt 0.2785789 0.7886376
vt 0.2227036 1.029263
vt 0.3104392 1.056427
vt 0.3663145 0.8158016
vt 0.2433492 0.8340333
vt 0.2639948 0.7816098
vt 0.3517309 0.8322642
vt 0.3310853 0.8846874
vt 0.2227036 0.8864565
vt 0.3104392 0.9371109
vt 0.04907209 0.7375183
vt 0.0841493 0.6934268
vt 0.1718851 0.7440813
vt 0.136808 0.7881727
vt 0.0841493 0.7792633
vt 0.1400245 0.5386374
vt 0.2277602 0.5658019
vt 0.1718851 0.806427
vt 0.05065638 0.8019025
vt -0.03707945 0.7512481
vt 0.02857882 0.6687162
vt 0.1163145 0.7193704
vt 0.2664059 0.9282134
vt 0.2277602 1.026341
vt 0.1400245 0.9756866
vt 0.17867 0.8775589
vt 0.05858874 0.8166683
vt -0.001567781 0.9181554
vt -0.08881557 0.8846874
vt -0.05774176 0.8322642
vt -0.001567781 0.7313108
vt 0.1331781 0.7132459
vt 0.1933349 0.7986033
vt 0.1570452 0.7189884
vt 0.2447809 0.7696426
vt 0.2847494 0.6681554
vt 0.1970133 0.617501
vt 0.1611115 0.7189884
vt 0.2212681 0.617501
vt 0.1340202 0.5840333
vt 0.1029463 0.6364567
vt 0.2639948 0.7816098
vt 0.2990721 0.7375183
vt 0.386808 0.7881727
vt 0.3517309 0.8322642
vt 0.1882755 0.8959534
vt 0.2484323 0.9813108
vt 0.1611843 1.038173
vt 0.1301101 0.9940813
vt 0.1426243 0.9247491
vt 0.05488843 0.8975849
vt 0.02359909 1.032331
vt 0.1113347 1.059495
vt 0.1060141 0.9125917
vt 0.166171 0.9979489
vt 0.2773985 0.983037
vt 0.2172416 0.8976796
vt 0.1113347 0.809495
vt 0.02359909 0.782331
vt -0.002229273 0.8935585
vt 0.08550698 0.9207227
vt 0.1130587 0.9292531
vt 0.1388868 0.8180254
vt 0.1970133 0.8975849
vt 0.2847494 0.9247491
vt 0.2534598 1.059495
vt 0.1657244 1.032331
vt 0.139896 0.8345244
vt 0.2676007 0.7836914
vt 0.1798645 0.733037
vt 0.2276322 0.8851788
vt 0.2551841 0.9010859
vt 0.2951525 0.7995985
vt 0.1798645 0.733037
vt 0.2676007 0.7836914
vt 0.335507 0.6983342
vt 0.2477707 0.6476796
vt 0.1657244 0.782331
vt 0.2276322 0.9207227
vt 0.139896 0.8935587
vt 0.2534598 0.809495
vt 0.2810119 0.8180254
vt 0.2551841 0.9292531
vt 0.166171 0.7479489
vt 0.1060141 0.8494363
vt 0.2172419 0.8345244
vt 0.2773985 0.733037
vt 0.1417085 0.9159977
vt 0.3130928 0.7995985
vt 0.2529362 0.9010859
vt 0.2018653 0.8145103
vt 0.2529362 0.7142413
vt 0.1417085 0.7291529
vt 0.08550698 0.9483342
vt 0.0176006 1.033691
vt 0.0451526 1.049598
vt 0.1130587 0.9642413
vt 0.2534598 0.9000905
vt 0.2934288 0.7986033
vt 0.3209802 0.8145103
vt 0.2810119 0.9159977
vt 0.04342872 0.7986033
vt 0.1113347 0.7132459
vt 0.1388868 0.7291529
vt 0.07098037 0.8145103
vn 0.1850441 -0.9018642 -0.390384
vn 0.1850441 -0.9018642 -0.390384
vn 0.1850441 -0.9018642 -0.390384
vn 0.1850441 -0.9018642 -0.390384
vn 0.9275565 -0.3731024 0.02081841
vn 0.9275565 -0.3731024 0.02081841
vn 0.9275565 -0.3731024 0.02081841
vn 0.9275565 -0.3731024 0.02081841
vn 0.1898668 0.42257 -0.8862196
vn 0.1898668 0.42257 -0.8862196
vn 0.1898668 0.42257 -0.8862196
vn 0.1898668 0.42257 -0.8862196
vn 0.1898647 0.4225672 -0.8862215
vn 0.1898647 0.4225672 -0.8862215
vn 0.1898694 0.4225682 -0.8862199
vn 0.1898694 0.4225682 -0.8862199
vn 0.189868 0.4225673 -0.8862207
vn 0.189868 0.4225673 -0.8862207
vn 0.189868 0.4225673 -0.8862207
vn 0.189868 0.4225673 -0.8862207
vn 0.1898647 0.4225694 -0.8862203
vn 0.1898653 0.4225688 -0.8862205
vn 0.1898647 0.4225694 -0.8862203
vn 0.1898647 0.4225694 -0.8862203
vn 0.1898647 0.4225694 -0.8862203
vn -0.9275565 0.3731029 -0.02081934
vn -0.9275565 0.3731029 -0.02081934
vn -0.9275565 0.3731029 -0.02081934
vn -0.9275565 0.3731029 -0.02081934
vn -0.189868 -0.4225688 0.88622
vn -0.189868 -0.4225688 0.88622
vn -0.189868 -0.4225688 0.88622
vn -0.189868 -0.4225688 0.88622
vn -0.189869 -0.4225683 0.88622
vn -0.189869 -0.4225683 0.88622
vn -0.1898663 -0.4225698 0.8862197
vn -0.1898663 -0.4225698 0.8862197
vn -0.1898663 -0.4225698 0.8862197
vn -0.1898663 -0.4225698 0.8862197
vn -0.1898666 -0.4225673 0.8862209
vn -0.1898666 -0.4225673 0.8862209
vn -0.1898666 -0.4225673 0.8862209
vn -0.1898666 -0.4225673 0.8862209
vn 0.1898666 0.4225679 -0.8862206
vn 0.1898666 0.4225679 -0.8862206
vn 0.1898666 0.4225679 -0.8862206
vn 0.1898666 0.4225679 -0.8862206
vn -0.1898666 -0.4225674 0.8862209
vn -0.1898666 -0.4225674 0.8862209
vn -0.1898666 -0.4225674 0.8862209
vn -0.1898666 -0.4225674 0.8862209
vn 0.9275565 -0.3731029 0.02081878
vn 0.9275565 -0.3731029 0.02081878
vn 0.9275565 -0.3731029 0.02081878
vn 0.9275565 -0.3731029 0.02081878
vn 0.742513 0.5287599 0.4112025
vn 0.742513 0.5287599 0.4112025
vn 0.742513 0.5287599 0.4112025
vn 0.742513 0.5287599 0.4112025
vn 0.7425124 0.5287614 0.4112014
vn 0.7425124 0.5287614 0.4112014
vn -0.1850438 0.9018656 0.390381
vn -0.1850438 0.9018656 0.390381
vn -0.1850438 0.9018656 0.390381
vn -0.1850438 0.9018656 0.390381
vn -0.9275565 0.3731025 -0.02081998
vn -0.9275565 0.3731025 -0.02081998
vn -0.9275565 0.3731025 -0.02081998
vn -0.9275565 0.3731025 -0.02081998
vn -0.185037 0.9018651 0.3903853
vn -0.185037 0.9018651 0.3903853
vn -0.185037 0.9018651 0.3903853
vn -0.185037 0.9018651 0.3903853
vn 0.7425074 0.5287665 0.4112041
vn 0.7425074 0.5287665 0.4112041
vn 0.7425074 0.5287665 0.4112041
vn 0.7425074 0.5287665 0.4112041
vn -0.1898681 -0.4225689 0.8862197
vn -0.1898681 -0.4225689 0.8862197
vn -0.1898681 -0.4225689 0.8862197
vn -0.1898681 -0.4225689 0.8862197
vn -0.1898646 -0.4225694 0.8862204
vn -0.1898646 -0.4225694 0.8862204
vn -0.1898646 -0.4225694 0.8862204
vn -0.742512 -0.5287611 -0.4112026
vn -0.742512 -0.5287611 -0.4112026
vn -0.742512 -0.5287611 -0.4112026
vn -0.742512 -0.5287611 -0.4112026
vn 0.1898667 0.422571 -0.8862192
vn 0.1898667 0.422571 -0.8862192
vn 0.1898667 0.422571 -0.8862192
vn 0.1898667 0.422571 -0.8862192
vn -0.1850435 0.901865 0.3903825
vn -0.1850435 0.901865 0.3903825
vn -0.1850435 0.901865 0.3903825
vn -0.1850435 0.901865 0.3903825
vn -0.1898661 -0.422568 0.8862207
vn -0.1898661 -0.422568 0.8862207
vn -0.1898661 -0.422568 0.8862207
vn -0.1898661 -0.422568 0.8862207
vn 0.9275563 -0.3731029 0.02081985
vn 0.9275563 -0.3731029 0.02081985
vn 0.9275563 -0.3731029 0.02081985
vn 0.9275563 -0.3731029 0.02081985
vn 0.1898653 0.422571 -0.8862194
vn 0.1898653 0.422571 -0.8862194
vn 0.1898653 0.422571 -0.8862194
vn 0.1898653 0.422571 -0.8862194
vn 0.9275562 -0.3731033 0.02081954
vn 0.9275562 -0.3731033 0.02081954
vn 0.9275562 -0.3731033 0.02081954
vn 0.9275562 -0.3731033 0.02081954
vn 0.9275562 -0.3731035 0.02081957
vn 0.9275562 -0.3731035 0.02081957
vn -0.9275565 0.3731027 -0.02082009
vn -0.9275565 0.3731027 -0.02082009
vn -0.9275565 0.3731027 -0.02082009
vn -0.9275565 0.3731027 -0.02082009
vn -0.7425115 -0.5287621 -0.4112022
vn -0.7425115 -0.5287621 -0.4112022
vn -0.7425115 -0.5287621 -0.4112022
vn -0.7425115 -0.5287621 -0.4112022
vn -0.742512 -0.528763 -0.4112003
vn -0.742512 -0.528763 -0.4112003
vn 0.1850439 -0.9018646 -0.3903833
vn 0.1850439 -0.9018646 -0.3903833
vn 0.1850439 -0.9018646 -0.3903833
vn 0.1850439 -0.9018646 -0.3903833
vn -0.9275559 0.3731039 -0.02081958
vn -0.9275559 0.3731039 -0.02081958
vn -0.9275559 0.3731039 -0.02081958
vn -0.9275559 0.3731039 -0.02081958
vn -0.9275562 0.3731033 -0.02082124
vn -0.9275562 0.3731033 -0.02082124
vn 0.1898676 0.4225699 -0.8862195
vn 0.1898676 0.4225699 -0.8862195
vn 0.1898676 0.4225699 -0.8862195
vn 0.1898676 0.4225699 -0.8862195
vn -0.189866 -0.4225675 0.8862209
vn -0.189866 -0.4225675 0.8862209
vn -0.189866 -0.4225675 0.8862209
vn -0.189866 -0.4225675 0.8862209
vn -0.1898669 -0.4225669 0.8862211
vn -0.1898669 -0.4225669 0.8862211
vn 0.1850421 -0.9018658 -0.3903812
vn 0.1850421 -0.9018658 -0.3903812
vn 0.1850421 -0.9018658 -0.3903812
vn 0.1850421 -0.9018658 -0.3903812
vn 0.742512 0.5287598 0.4112044
vn 0.742512 0.5287598 0.4112044
vn 0.742512 0.5287598 0.4112044
vn 0.742512 0.5287598 0.4112044
vn -0.1850453 0.9018642 0.3903832
vn -0.1850453 0.9018642 0.3903832
vn -0.1850453 0.9018642 0.3903832
vn -0.1850453 0.9018642 0.3903832
g Spidertank_debris.033_0
f 3/3/3 2/2/2 1/1/1
f 4/4/4 3/3/3 1/1/1
f 7/7/7 6/6/6 5/5/5
f 8/8/8 7/7/7 5/5/5
f 11/11/11 10/10/10 9/9/9
f 10/10/10 12/12/12 9/9/9
f 13/13/13 9/9/9 12/12/12
f 14/14/14 13/13/13 12/12/12
f 10/10/10 15/15/15 12/12/12
f 15/15/15 16/16/16 12/12/12
f 19/19/19 18/18/18 17/17/17
f 20/20/20 19/19/19 17/17/17
f 22/22/22 21/21/21 17/17/17
f 21/21/21 23/23/23 17/17/17
f 21/21/21 24/24/24 23/23/23
f 24/24/24 25/25/25 23/23/23
f 28/28/28 27/27/27 26/26/26
f 29/29/29 28/28/28 26/26/26
f 32/32/32 31/31/31 30/30/30
f 33/33/33 32/32/32 30/30/30
f 35/35/35 34/34/34 30/30/30
f 34/34/34 36/36/36 30/30/30
f 38/38/38 36/36/36 37/37/37
f 39/39/39 38/38/38 37/37/37
f 42/42/42 41/41/41 40/40/40
f 43/43/43 42/42/42 40/40/40
f 46/46/46 45/45/45 44/44/44
f 47/47/47 46/46/46 44/44/44
f 50/50/50 49/49/49 48/48/48
f 51/51/51 50/50/50 48/48/48
f 54/54/54 53/53/53 52/52/52
f 55/55/55 54/54/54 52/52/52
f 58/58/58 57/57/57 56/56/56
f 59/59/59 58/58/58 56/56/56
f 59/59/59 56/56/56 60/60/60
f 61/61/61 59/59/59 60/60/60
f 64/64/64 63/63/63 62/62/62
f 65/65/65 64/64/64 62/62/62
f 68/68/68 67/67/67 66/66/66
f 69/69/69 68/68/68 66/66/66
f 72/72/72 71/71/71 70/70/70
f 73/73/73 72/72/72 70/70/70
f 76/76/76 75/75/75 74/74/74
f 77/77/77 76/76/76 74/74/74
f 80/80/80 79/79/79 78/78/78
f 81/81/81 80/80/80 78/78/78
f 83/83/83 82/82/82 78/78/78
f 84/84/84 83/83/83 78/78/78
f 87/87/87 86/86/86 85/85/85
f 88/88/88 87/87/87 85/85/85
f 91/91/91 90/90/90 89/89/89
f 92/92/92 91/91/91 89/89/89
f 95/95/95 94/94/94 93/93/93
f 96/96/96 95/95/95 93/93/93
f 99/99/99 98/98/98 97/97/97
f 100/100/100 99/99/99 97/97/97
f 103/103/103 102/102/102 101/101/101
f 104/104/104 103/103/103 101/101/101
f 107/107/107 106/106/106 105/105/105
f 108/108/108 107/107/107 105/105/105
f 111/111/111 110/110/110 109/109/109
f 112/112/112 111/111/111 109/109/109
f 113/113/113 112/112/112 109/109/109
f 114/114/114 113/113/113 109/109/109
f 117/117/117 116/116/116 115/115/115
f 118/118/118 117/117/117 115/115/115
f 121/121/121 120/120/120 119/119/119
f 120/120/120 122/122/122 119/119/119
f 123/123/123 122/122/122 120/120/120
f 124/124/124 123/123/123 120/120/120
f 127/127/127 126/126/126 125/125/125
f 128/128/128 127/127/127 125/125/125
f 131/131/131 130/130/130 129/129/129
f 130/130/130 132/132/132 129/129/129
f 133/133/133 132/132/132 130/130/130
f 134/134/134 133/133/133 130/130/130
f 137/137/137 136/136/136 135/135/135
f 138/138/138 137/137/137 135/135/135
f 141/141/141 140/140/140 139/139/139
f 140/140/140 142/142/142 139/139/139
f 140/140/140 143/143/143 142/142/142
f 143/143/143 144/144/144 142/142/142
f 147/147/147 146/146/146 145/145/145
f 148/148/148 147/147/147 145/145/145
f 151/151/151 150/150/150 149/149/149
f 152/152/152 151/151/151 149/149/149
f 155/155/155 154/154/154 153/153/153
f 156/156/156 155/155/155 153/153/153
