g Spidertank_debris.032
v 4.863891 4.144796 -10.84762
v 5.325129 3.24033 -10.43597
v 4.350483 2.585014 -10.78375
v 3.889248 3.48948 -11.19541
v 3.889248 3.48948 -11.19541
v 4.350483 2.585014 -10.78375
v 4.322374 2.123329 -11.83244
v 3.861136 3.027793 -12.2441
v 3.861136 3.027793 -12.2441
v 4.322374 2.123329 -11.83244
v 5.333841 2.340676 -12.48819
v 4.872609 3.245141 -12.89986
v 4.872609 3.245141 -12.89986
v 5.333841 2.340676 -12.48819
v 5.325129 3.24033 -10.43597
v 4.863891 4.144796 -10.84762
v 5.325129 3.24033 -10.43597
v 5.333841 2.340676 -12.48819
v 4.322374 2.123329 -11.83244
v 4.350483 2.585014 -10.78375
v 4.872609 3.245141 -12.89986
v 4.863891 4.144796 -10.84762
v 3.889248 3.48948 -11.19541
v 3.861136 3.027793 -12.2441
vt 0.04129112 0.8106861
vt 0.1332037 0.7125704
vt 0.03076702 0.6398666
vt -0.06114519 0.7379825
vt 0.06166553 0.924521
vt -0.03645051 0.8984554
vt -0.004287004 0.7591832
vt 0.0938285 0.785249
vt 0.1790873 0.7701454
vt 0.271 0.6720297
vt 0.3715669 0.7782528
vt 0.2796546 0.8763692
vt 0.2000524 0.7400229
vt 0.1019361 0.7139575
vt 0.03625345 0.9859962
vt 0.1343693 1.012062
vt 0.1332037 0.7359962
vt 0.1215668 0.4639575
vt 0.02099997 0.5091832
vt 0.03076702 0.6484554
vt 0.2796546 0.7400229
vt 0.2912911 1.012062
vt 0.1888548 0.924521
vt 0.1790873 0.785249
vn -0.4354348 0.1794507 0.8821531
vn -0.4354348 0.1794507 0.8821531
vn -0.4354348 0.1794507 0.8821531
vn -0.4354348 0.1794507 0.8821531
vn -0.9069271 -0.3760721 0.1898759
vn -0.9069271 -0.3760721 0.1898759
vn -0.9069271 -0.3760721 0.1898759
vn -0.9069271 -0.3760721 0.1898759
vn -0.3753061 -0.535675 -0.7564374
vn -0.3753061 -0.535675 -0.7564374
vn -0.3753061 -0.535675 -0.7564374
vn -0.3753061 -0.535675 -0.7564374
vn 0.9070193 0.387062 -0.1658278
vn 0.9070193 0.387062 -0.1658278
vn 0.9070193 0.387062 -0.1658278
vn 0.9070193 0.387062 -0.1658278
vn 0.4214512 -0.8313243 0.3623244
vn 0.4214512 -0.8313243 0.3623244
vn 0.4214512 -0.8313243 0.3623244
vn 0.4214512 -0.8313243 0.3623244
vn -0.4214529 0.8313232 -0.3623249
vn -0.4214529 0.8313232 -0.3623249
vn -0.4214529 0.8313232 -0.3623249
vn -0.4214529 0.8313232 -0.3623249
g Spidertank_debris.032_0
f 3/3/3 2/2/2 1/1/1
f 4/4/4 3/3/3 1/1/1
f 7/7/7 6/6/6 5/5/5
f 8/8/8 7/7/7 5/5/5
f 11/11/11 10/10/10 9/9/9
f 12/12/12 11/11/11 9/9/9
f 15/15/15 14/14/14 13/13/13
f 16/16/16 15/15/15 13/13/13
f 19/19/19 18/18/18 17/17/17
f 20/20/20 19/19/19 17/17/17
f 23/23/23 22/22/22 21/21/21
f 24/24/24 23/23/23 21/21/21
