g Spidertank_debris.048
v -10.94127 18.96427 -8.71346
v -11.2324 18.84942 -8.975671
v -11.69128 19.84142 -8.900675
v -11.40015 19.95627 -8.638465
v -10.65013 19.07912 -8.451251
v -11.10902 20.07112 -8.376254
v -10.359 19.19397 -8.189042
v -10.81788 20.18597 -8.114044
v -11.2324 18.84942 -8.975671
v -11.03081 19.02302 -10.03844
v -11.4897 20.01502 -9.963448
v -11.69128 19.84142 -8.900675
v -10.31416 19.36845 -10.22254
v -9.95583 19.54117 -10.31459
v -10.41471 20.53316 -10.23959
v -10.77304 20.36045 -10.14754
v -10.67248 19.19574 -10.13049
v -11.13137 20.18773 -10.0555
v -11.03081 19.02302 -10.03844
v -11.4897 20.01502 -9.963448
v -9.95583 19.54117 -10.31459
v -10.359 19.19397 -8.189042
v -10.81788 20.18597 -8.114044
v -10.41471 20.53316 -10.23959
v -11.40015 19.95627 -8.638465
v -11.69128 19.84142 -8.900675
v -11.4897 20.01502 -9.963448
v -11.13137 20.18773 -10.0555
v -11.10902 20.07112 -8.376254
v -10.77304 20.36045 -10.14754
v -10.81788 20.18597 -8.114044
v -10.41471 20.53316 -10.23959
v -10.67248 19.19574 -10.13049
v -11.03081 19.02302 -10.03844
v -11.2324 18.84942 -8.975671
v -10.94127 18.96427 -8.71346
v -10.31416 19.36845 -10.22254
v -10.65013 19.07912 -8.451251
v -9.95583 19.54117 -10.31459
v -10.359 19.19397 -8.189042
vt 0.1723937 0.6550578
vt 0.2024137 0.6141
vt 0.3128887 0.6926486
vt 0.2828687 0.7336065
vt 0.1423737 0.6960157
vt 0.2528486 0.7745643
vt 0.1123537 0.7369735
vt 0.2228285 0.8155222
vt 0.2024137 0.9542725
vt 0.2454051 1.081012
vt 0.3558799 1.061532
vt 0.3128887 0.9347928
vt 0.2140257 0.8976256
vt 0.198336 0.9289055
vt 0.3088106 1.007454
vt 0.3245004 0.9761742
vt 0.2297154 0.8663457
vt 0.3401901 0.9448944
vt 0.2454051 0.8350658
vt 0.3558799 0.9136145
vt 0.198336 0.9424617
vt 0.1123537 0.6889834
vt 0.2228285 0.6695039
vt 0.3088106 0.922982
vt 0.2533795 0.7336065
vt 0.2584759 0.6926486
vt 0.3852149 0.6636145
vt 0.422365 0.6948944
vt 0.2482832 0.7745643
vt 0.459515 0.7261742
vt 0.2431868 0.8155222
vt 0.4966651 0.7574542
vt 0.1918447 0.8663457
vt 0.1546947 0.8350658
vt 0.02795559 0.8641
vt 0.02285923 0.9050578
vt 0.2289948 0.8976256
vt 0.01776288 0.9460156
vt 0.2661449 0.9289055
vt 0.01266652 0.9869735
vn -0.5622459 -0.3178068 0.7634647
vn -0.5622492 -0.3178062 0.7634626
vn -0.5622492 -0.3178062 0.7634626
vn -0.5622459 -0.3178068 0.7634647
vn -0.5622459 -0.3178068 0.7634647
vn -0.5622459 -0.3178068 0.7634647
vn -0.5622447 -0.3178047 0.7634664
vn -0.5622447 -0.3178047 0.7634664
vn -0.8892148 -0.3937245 -0.2329764
vn -0.8892148 -0.3937245 -0.2329764
vn -0.8892148 -0.3937245 -0.2329764
vn -0.8892148 -0.3937245 -0.2329764
vn -0.2330952 -0.03435212 -0.971847
vn -0.2330893 -0.03435081 -0.9718484
vn -0.2330893 -0.03435081 -0.9718484
vn -0.2330952 -0.03435212 -0.971847
vn -0.2330952 -0.03435212 -0.971847
vn -0.2330952 -0.03435212 -0.971847
vn -0.2330913 -0.03435173 -0.971848
vn -0.2330913 -0.03435173 -0.971848
vn 0.8892146 0.393724 0.2329781
vn 0.8892146 0.393724 0.2329781
vn 0.8892146 0.393724 0.2329781
vn 0.8892146 0.393724 0.2329781
vn -0.4188583 0.9054675 0.06845517
vn -0.4188551 0.905469 0.06845662
vn -0.4188551 0.905469 0.06845662
vn -0.4188583 0.9054675 0.06845517
vn -0.4188583 0.9054675 0.06845517
vn -0.4188583 0.9054675 0.06845517
vn -0.4188569 0.9054683 0.06845465
vn -0.4188569 0.9054683 0.06845465
vn 0.4188536 -0.9054697 -0.06845522
vn 0.4188578 -0.9054678 -0.06845668
vn 0.4188578 -0.9054678 -0.06845668
vn 0.4188536 -0.9054697 -0.06845522
vn 0.4188536 -0.9054697 -0.06845522
vn 0.4188536 -0.9054697 -0.06845522
vn 0.4188601 -0.905467 -0.06845409
vn 0.4188601 -0.905467 -0.06845409
g Spidertank_debris.048_0
f 3/3/3 2/2/2 1/1/1
f 4/4/4 3/3/3 1/1/1
f 4/4/4 1/1/1 5/5/5
f 6/6/6 4/4/4 5/5/5
f 6/6/6 5/5/5 7/7/7
f 8/8/8 6/6/6 7/7/7
f 11/11/11 10/10/10 9/9/9
f 12/12/12 11/11/11 9/9/9
f 15/15/15 14/14/14 13/13/13
f 16/16/16 15/15/15 13/13/13
f 16/16/16 13/13/13 17/17/17
f 18/18/18 16/16/16 17/17/17
f 18/18/18 17/17/17 19/19/19
f 20/20/20 18/18/18 19/19/19
f 23/23/23 22/22/22 21/21/21
f 24/24/24 23/23/23 21/21/21
f 27/27/27 26/26/26 25/25/25
f 28/28/28 27/27/27 25/25/25
f 28/28/28 25/25/25 29/29/29
f 30/30/30 28/28/28 29/29/29
f 30/30/30 29/29/29 31/31/31
f 32/32/32 30/30/30 31/31/31
f 35/35/35 34/34/34 33/33/33
f 36/36/36 35/35/35 33/33/33
f 36/36/36 33/33/33 37/37/37
f 38/38/38 36/36/36 37/37/37
f 38/38/38 37/37/37 39/39/39
f 40/40/40 38/38/38 39/39/39
