g summonfx_prism
v -0.8660254 2.617466 0.4999998
v -0.8660254 6.625386 0.4999995
v -8.742278E-08 6.625386 0.9999995
v -8.742278E-08 2.617466 0.9999999
v -8.742278E-08 5.960464E-08 0.9999999
v -0.8660254 0 0.4999999
v 0 2.617466 -1
v 0 6.625386 -1
v -0.8660254 6.625386 -0.5000004
v -0.8660254 2.617466 -0.5
v -0.8660254 0 -0.4999999
v 0 0 -1
v -8.742278E-08 2.617466 0.9999999
v -8.742278E-08 6.625386 0.9999995
v 0.8660254 6.625386 0.4999996
v 0.8660254 2.617466 0.4999999
v 0.8660254 0 0.5000001
v -8.742278E-08 5.960464E-08 0.9999999
v 0.8660254 2.617466 -0.5000001
v 0.8660254 6.625386 -0.5000004
v 0 6.625386 -1
v 0 2.617466 -1
v 0 0 -1
v 0.8660254 0 -0.5
v -0.8660254 2.617466 -0.5
v -0.8660254 6.625386 -0.5000004
v -0.8660254 6.625386 0.4999995
v -0.8660254 2.617466 0.4999998
v -0.8660254 0 0.4999999
v -0.8660254 0 -0.4999999
v 0.8660254 0 -0.5
v 0.8660254 0 0.5000001
v 0.8660254 2.617466 0.4999999
v 0.8660254 2.617466 -0.5000001
v 0.8660254 6.625386 -0.5000004
v 0.8660254 6.625386 0.4999996
vt -0.009678461 1.30647
vt -0.009678461 3.31043
vt 0.1569882 3.31043
vt 0.1569882 1.30647
vt 0.1569882 -0.002263546
vt -0.009678461 -0.002263546
vt 0.6569882 1.30647
vt 0.6569882 3.31043
vt 0.8236548 3.31043
vt 0.8236549 1.30647
vt 0.8236549 -0.002263546
vt 0.6569882 -0.002263546
vt 0.1569882 1.30647
vt 0.1569882 3.31043
vt 0.3236549 3.31043
vt 0.3236549 1.30647
vt 0.3236549 -0.002263546
vt 0.1569882 -0.002263546
vt 0.4903215 1.30647
vt 0.4903216 3.31043
vt 0.6569882 3.31043
vt 0.6569882 1.30647
vt 0.6569882 -0.002263546
vt 0.4903215 -0.002263546
vt 0.8236549 1.30647
vt 0.8236548 3.31043
vt 0.9903215 3.31043
vt 0.9903215 1.30647
vt 0.9903215 -0.002263546
vt 0.8236549 -0.002263546
vt 0.4903215 -0.002263546
vt 0.3236549 -0.002263546
vt 0.3236549 1.30647
vt 0.4903215 1.30647
vt 0.4903216 3.31043
vt 0.3236549 3.31043
vn -0.5 0 0.8660254
vn -0.5 0 0.8660254
vn -0.5 0 0.8660254
vn -0.5 0 0.8660254
vn -0.5000001 0 0.8660253
vn -0.5000001 0 0.8660253
vn -0.5000001 0 -0.8660254
vn -0.5000001 0 -0.8660254
vn -0.5000001 0 -0.8660254
vn -0.5000001 0 -0.8660254
vn -0.5 0 -0.8660254
vn -0.5 0 -0.8660254
vn 0.4999999 0 0.8660255
vn 0.4999999 0 0.8660255
vn 0.4999999 0 0.8660255
vn 0.4999999 0 0.8660255
vn 0.5 0 0.8660254
vn 0.5 0 0.8660254
vn 0.5 0 -0.8660254
vn 0.5 0 -0.8660254
vn 0.5 0 -0.8660254
vn 0.5 0 -0.8660254
vn 0.5 0 -0.8660254
vn 0.5 0 -0.8660254
vn -1 0 0
vn -1 0 0
vn -1 0 0
vn -1 0 0
vn -1 0 0
vn -1 0 0
vn 1 0 0
vn 1 0 0
vn 1 0 0
vn 1 0 0
vn 1 0 0
vn 1 0 0
g summonfx_prism_0
f 3/3/3 2/2/2 1/1/1
f 4/4/4 3/3/3 1/1/1
f 4/4/4 1/1/1 5/5/5
f 1/1/1 6/6/6 5/5/5
f 9/9/9 8/8/8 7/7/7
f 10/10/10 9/9/9 7/7/7
f 10/10/10 7/7/7 11/11/11
f 7/7/7 12/12/12 11/11/11
f 15/15/15 14/14/14 13/13/13
f 16/16/16 15/15/15 13/13/13
f 16/16/16 13/13/13 17/17/17
f 13/13/13 18/18/18 17/17/17
f 21/21/21 20/20/20 19/19/19
f 22/22/22 21/21/21 19/19/19
f 22/22/22 19/19/19 23/23/23
f 19/19/19 24/24/24 23/23/23
f 27/27/27 26/26/26 25/25/25
f 28/28/28 27/27/27 25/25/25
f 28/28/28 25/25/25 29/29/29
f 25/25/25 30/30/30 29/29/29
f 33/33/33 32/32/32 31/31/31
f 34/34/34 33/33/33 31/31/31
f 34/34/34 35/35/35 33/33/33
f 35/35/35 36/36/36 33/33/33
