g tall gem
v 0 -0.25 -0.2474874
v 1.043081E-08 -0.4599999 1.31947E-08
v 0.2474874 -0.25 -4.986693E-09
v 0.2474874 0.25 -2.028568E-08
v -1.043081E-08 0.4599999 -1.760544E-08
v -2.086163E-08 0.25 -0.2474874
v 0 0.25 0.2474874
v -1.043081E-08 0.4599999 -1.760544E-08
v 0.2474874 0.25 -2.028568E-08
v -0.2474874 0.25 5.759487E-10
v -1.043081E-08 0.4599999 -1.760544E-08
v 0 0.25 0.2474874
v -2.086163E-08 0.25 -0.2474874
v -1.043081E-08 0.4599999 -1.760544E-08
v -0.2474874 0.25 5.759487E-10
v -0.2474874 -0.25 1.587493E-08
v 1.043081E-08 -0.4599999 1.31947E-08
v 0 -0.25 -0.2474874
v 0.2474874 -0.25 -4.986693E-09
v 1.043081E-08 -0.4599999 1.31947E-08
v 2.086163E-08 -0.25 0.2474874
v 2.086163E-08 -0.25 0.2474874
v 1.043081E-08 -0.4599999 1.31947E-08
v -0.2474874 -0.25 1.587493E-08
v -0.2474874 -0.25 1.587493E-08
v 0 -0.25 -0.2474874
v -2.086163E-08 0.25 -0.2474874
v -0.2474874 0.25 5.759487E-10
v 0 0.25 0.2474874
v 0.2474874 0.25 -2.028568E-08
v 0.2474874 -0.25 -4.986693E-09
v 2.086163E-08 -0.25 0.2474874
v 0 -0.25 -0.2474874
v 0.2474874 -0.25 -4.986693E-09
v 0.2474874 0.25 -2.028568E-08
v -2.086163E-08 0.25 -0.2474874
v 2.086163E-08 -0.25 0.2474874
v -0.2474874 -0.25 1.587493E-08
v -0.2474874 0.25 5.759487E-10
v 0 0.25 0.2474874
vt 0 0
vt 0 0
vt 0 0
vt 0 0
vt 0 0
vt 0 0
vt 0 0
vt 0 0
vt 0 0
vt 0 0
vt 0 0
vt 0 0
vt 0 0
vt 0 0
vt 0 0
vt 0 0
vt 0 0
vt 0 0
vt 0 0
vt 0 0
vt 0 0
vt 0 0
vt 0 0
vt 0 0
vt 0 0
vt 0 0
vt 0 0
vt 0 0
vt 0 0
vt 0 0
vt 0 0
vt 0 0
vt 0 0
vt 0 0
vt 0 0
vt 0 0
vt 0 0
vt 0 0
vt 0 0
vt 0 0
vn 0.5432144 -0.6401845 -0.5432144
vn 0.5432144 -0.6401845 -0.5432144
vn 0.5432144 -0.6401845 -0.5432144
vn 0.5432144 0.6401845 -0.5432146
vn 0.5432144 0.6401845 -0.5432146
vn 0.5432144 0.6401845 -0.5432146
vn 0.5432144 0.6401845 0.5432145
vn 0.5432144 0.6401845 0.5432145
vn 0.5432144 0.6401845 0.5432145
vn -0.5432144 0.6401844 0.5432144
vn -0.5432144 0.6401844 0.5432144
vn -0.5432144 0.6401844 0.5432144
vn -0.5432145 0.6401844 -0.5432144
vn -0.5432145 0.6401844 -0.5432144
vn -0.5432145 0.6401844 -0.5432144
vn -0.5432144 -0.6401845 -0.5432144
vn -0.5432144 -0.6401845 -0.5432144
vn -0.5432144 -0.6401845 -0.5432144
vn 0.5432146 -0.6401845 0.5432144
vn 0.5432146 -0.6401845 0.5432144
vn 0.5432146 -0.6401845 0.5432144
vn -0.5432144 -0.6401845 0.5432145
vn -0.5432144 -0.6401845 0.5432145
vn -0.5432144 -0.6401845 0.5432145
vn -0.7071068 0 -0.7071067
vn -0.7071068 0 -0.7071067
vn -0.7071068 0 -0.7071067
vn -0.7071068 0 -0.7071067
vn 0.7071068 0 0.7071067
vn 0.7071068 0 0.7071067
vn 0.7071068 0 0.7071067
vn 0.7071068 0 0.7071067
vn 0.7071067 0 -0.7071068
vn 0.7071067 0 -0.7071068
vn 0.7071067 0 -0.7071068
vn 0.7071067 0 -0.7071068
vn -0.7071067 0 0.7071068
vn -0.7071067 0 0.7071068
vn -0.7071067 0 0.7071068
vn -0.7071067 0 0.7071068
g tall gem_0
f 3/3/3 2/2/2 1/1/1
f 6/6/6 5/5/5 4/4/4
f 9/9/9 8/8/8 7/7/7
f 12/12/12 11/11/11 10/10/10
f 15/15/15 14/14/14 13/13/13
f 18/18/18 17/17/17 16/16/16
f 21/21/21 20/20/20 19/19/19
f 24/24/24 23/23/23 22/22/22
f 27/27/27 26/26/26 25/25/25
f 28/28/28 27/27/27 25/25/25
f 31/31/31 30/30/30 29/29/29
f 32/32/32 31/31/31 29/29/29
f 35/35/35 34/34/34 33/33/33
f 36/36/36 35/35/35 33/33/33
f 39/39/39 38/38/38 37/37/37
f 40/40/40 39/39/39 37/37/37
