g trinketCoin
v 0.7710273 0.3193699 0.1416073
v 0.834554 -7.33366E-08 0.1416073
v 0.7710273 -0.3193701 0.1416073
v 0.5901186 0.5901186 0.1416073
v 0.5901186 -0.5901188 0.1416073
v 0.3193699 0.7710273 0.1416073
v 0.3193699 -0.7710274 0.1416073
v 1.549506E-08 -0.834554 0.1416073
v -1.105191E-07 0.8345539 0.1416073
v -0.3193699 -0.7710274 0.1416073
v -0.3193697 0.7710274 0.1416073
v -0.5901186 0.5901189 0.1416073
v -0.5901188 -0.590119 0.1416073
v -0.7710274 0.3193701 0.1416073
v -0.7710274 -0.3193701 0.1416073
v -0.8345541 -2.690514E-08 0.1416073
v 0.7710273 -0.31937 -0.1416073
v 0.834554 -1.275728E-08 -0.1416073
v 0.7710273 0.31937 -0.1416073
v 0.5901186 -0.5901188 -0.1416073
v 0.5901186 0.5901188 -0.1416073
v 0.3193699 -0.7710273 -0.1416073
v 0.3193699 0.7710274 -0.1416073
v 1.549506E-08 -0.8345539 -0.1416073
v -1.105191E-07 0.834554 -0.1416073
v -0.3193699 -0.7710274 -0.1416073
v -0.3193697 0.7710275 -0.1416073
v -0.5901186 0.590119 -0.1416073
v -0.5901188 -0.5901189 -0.1416073
v -0.7710274 0.3193701 -0.1416073
v -0.7710274 -0.3193701 -0.1416073
v -0.8345541 3.367418E-08 -0.1416073
v -1.247972E-07 1 -0.2081102
v -1.144866E-07 0.8721088 -0.2081102
v 0.3337415 0.8057235 -0.2081102
v 0.3826833 0.9238796 -0.2081102
v -0.3826831 0.9238798 -0.2081102
v 0.6166739 0.6166741 -0.2081102
v -0.3337413 0.8057237 -0.2081102
v 0.7071066 0.7071068 -0.2081102
v -0.7071066 0.7071071 -0.2081102
v 0.8057234 0.3337416 -0.2081101
v -0.616674 0.6166743 -0.2081102
v 0.9238794 0.3826835 -0.2081101
v -0.9238796 0.3826836 -0.2081101
v 0.8721088 -1.595975E-08 -0.2081101
v -0.8057235 0.3337418 -0.2081101
v 0.9999999 -9.09678E-09 -0.2081101
v -1 4.653949E-08 -0.2081101
v 0.8057234 -0.3337416 -0.2081101
v -0.8721089 3.256114E-08 -0.2081101
v 0.9238794 -0.3826835 -0.2081101
v -0.9238796 -0.3826835 -0.2081101
v 0.6166739 -0.6166741 -0.2081101
v -0.8057235 -0.3337417 -0.2081101
v 0.7071066 -0.7071067 -0.2081101
v -0.7071067 -0.7071069 -0.2081101
v 0.3337416 -0.8057234 -0.2081101
v -0.6166741 -0.6166742 -0.2081101
v 0.3826834 -0.9238794 -0.2081101
v -0.3826833 -0.9238796 -0.2081101
v 1.719816E-08 -0.8721088 -0.2081101
v -0.3337415 -0.8057235 -0.2081101
v 2.619858E-08 -0.9999999 -0.2081101
v -0.3826831 0.9238798 -0.2081102
v -1.247972E-07 1 -0.2081102
v -1.247972E-07 0.9999999 0.2081101
v -0.3826831 0.9238797 0.2081101
v 0.3826833 0.9238794 0.2081101
v -0.7071066 0.7071071 -0.2081102
v 0.3826833 0.9238796 -0.2081102
v -0.7071066 0.7071069 0.2081101
v 0.7071066 0.7071067 0.2081101
v -0.9238796 0.3826836 -0.2081101
v 0.7071066 0.7071068 -0.2081102
v -0.9238796 0.3826836 0.2081101
v 0.9238794 0.3826834 0.2081101
v -1 4.653949E-08 -0.2081101
v 0.9238794 0.3826835 -0.2081101
v -1 -2.268973E-08 0.2081101
v 0.9999999 -7.8326E-08 0.2081101
v -0.9238796 -0.3826835 -0.2081101
v 0.9999999 -9.09678E-09 -0.2081101
v -0.9238796 -0.3826836 0.2081101
v 0.9238794 -0.3826835 0.2081101
v -0.7071067 -0.7071069 -0.2081101
v 0.9238794 -0.3826835 -0.2081101
v -0.7071067 -0.7071071 0.2081102
v 0.7071066 -0.7071068 0.2081102
v -0.3826833 -0.9238796 -0.2081101
v 0.7071066 -0.7071067 -0.2081101
v -0.3826833 -0.9238797 0.2081102
v 0.3826834 -0.9238796 0.2081102
v 2.619858E-08 -0.9999999 -0.2081101
v 0.3826834 -0.9238794 -0.2081101
v 2.619858E-08 -1 0.2081102
v 0.7071066 0.7071067 0.2081101
v 0.3337415 0.8057234 0.2081101
v 0.3826833 0.9238794 0.2081101
v 0.6166739 0.6166739 0.2081101
v -1.144866E-07 0.8721088 0.2081101
v 0.9238794 0.3826834 0.2081101
v -1.247972E-07 0.9999999 0.2081101
v 0.8057234 0.3337415 0.2081101
v -0.3337413 0.8057236 0.2081101
v 0.9999999 -7.8326E-08 0.2081101
v -0.3826831 0.9238797 0.2081101
v 0.8721088 -7.400835E-08 0.2081101
v -0.616674 0.6166742 0.2081101
v 0.9238794 -0.3826835 0.2081101
v -0.7071066 0.7071069 0.2081101
v 0.8057234 -0.3337417 0.2081101
v -0.8057235 0.3337417 0.2081101
v 0.7071066 -0.7071068 0.2081102
v -0.9238796 0.3826836 0.2081101
v 0.6166739 -0.6166741 0.2081102
v -0.8721089 -2.548748E-08 0.2081101
v 0.3826834 -0.9238796 0.2081102
v -1 -2.268973E-08 0.2081101
v 0.3337416 -0.8057235 0.2081102
v -0.8057235 -0.3337418 0.2081101
v 2.619858E-08 -1 0.2081102
v -0.9238796 -0.3826836 0.2081101
v 1.719816E-08 -0.8721088 0.2081102
v -0.6166741 -0.6166743 0.2081102
v -0.3826833 -0.9238797 0.2081102
v -0.7071067 -0.7071071 0.2081102
v -0.3337415 -0.8057236 0.2081102
v -0.8057235 0.3337417 0.2081101
v -0.7710274 0.3193701 0.1416073
v -0.8345541 -2.690514E-08 0.1416073
v -0.8721089 -2.548748E-08 0.2081101
v -0.616674 0.6166742 0.2081101
v -0.7710274 -0.3193701 0.1416073
v -0.5901186 0.5901189 0.1416073
v -0.8057235 -0.3337418 0.2081101
v -0.3337413 0.8057236 0.2081101
v -0.5901188 -0.590119 0.1416073
v -0.3193697 0.7710274 0.1416073
v -0.6166741 -0.6166743 0.2081102
v -1.144866E-07 0.8721088 0.2081101
v -0.3193699 -0.7710274 0.1416073
v -1.105191E-07 0.8345539 0.1416073
v -0.3337415 -0.8057236 0.2081102
v 0.3337415 0.8057234 0.2081101
v 1.549506E-08 -0.834554 0.1416073
v 0.3193699 0.7710273 0.1416073
v 1.719816E-08 -0.8721088 0.2081102
v 0.6166739 0.6166739 0.2081101
v 0.3193699 -0.7710274 0.1416073
v 0.5901186 0.5901186 0.1416073
v 0.3337416 -0.8057235 0.2081102
v 0.8057234 0.3337415 0.2081101
v 0.5901186 -0.5901188 0.1416073
v 0.7710273 0.3193699 0.1416073
v 0.6166739 -0.6166741 0.2081102
v 0.8721088 -7.400835E-08 0.2081101
v 0.7710273 -0.3193701 0.1416073
v 0.834554 -7.33366E-08 0.1416073
v 0.8057234 -0.3337417 0.2081101
v 0.6166739 -0.6166741 -0.2081101
v 0.3193699 -0.7710273 -0.1416073
v 0.3337416 -0.8057234 -0.2081101
v 0.5901186 -0.5901188 -0.1416073
v 1.549506E-08 -0.8345539 -0.1416073
v 0.8057234 -0.3337416 -0.2081101
v 1.719816E-08 -0.8721088 -0.2081101
v 0.7710273 -0.31937 -0.1416073
v -0.3193699 -0.7710274 -0.1416073
v 0.8721088 -1.595975E-08 -0.2081101
v -0.3337415 -0.8057235 -0.2081101
v 0.834554 -1.275728E-08 -0.1416073
v -0.5901188 -0.5901189 -0.1416073
v 0.8057234 0.3337416 -0.2081101
v -0.6166741 -0.6166742 -0.2081101
v 0.7710273 0.31937 -0.1416073
v -0.7710274 -0.3193701 -0.1416073
v 0.6166739 0.6166741 -0.2081102
v -0.8057235 -0.3337417 -0.2081101
v 0.5901186 0.5901188 -0.1416073
v -0.8345541 3.367418E-08 -0.1416073
v 0.3337415 0.8057235 -0.2081102
v -0.8721089 3.256114E-08 -0.2081101
v 0.3193699 0.7710274 -0.1416073
v -0.7710274 0.3193701 -0.1416073
v -1.144866E-07 0.8721088 -0.2081102
v -0.8057235 0.3337418 -0.2081101
v -1.105191E-07 0.834554 -0.1416073
v -0.5901186 0.590119 -0.1416073
v -0.3337413 0.8057237 -0.2081102
v -0.616674 0.6166743 -0.2081102
v -0.3193697 0.7710275 -0.1416073
vn 0 0 1
vn 0 0 1
vn 0 0 1
vn 0 0 1
vn 0 0 1
vn 0 0 1
vn 0 0 1
vn 0 0 1
vn 0 0 1
vn 0 0 1
vn 0 0 1
vn 0 0 1
vn 0 0 1
vn 0 0 1
vn 0 0 1
vn 0 0 1
vn 0 0 -1
vn 0 0 -1
vn 0 0 -1
vn 0 0 -1
vn 0 0 -1
vn 0 0 -1
vn 0 0 -1
vn 0 0 -1
vn 0 0 -1
vn 0 0 -1
vn 0 0 -1
vn 0 0 -1
vn 0 0 -1
vn 0 0 -1
vn 0 0 -1
vn 0 0 -1
vn 0 0 -1
vn 0 0 -1
vn 0 0 -1
vn 0 0 -1
vn 0 0 -1
vn 0 0 -1
vn 0 0 -1
vn 0 0 -1
vn 0 0 -1
vn 0 0 -1
vn 0 0 -1
vn 0 0 -1
vn 0 0 -1
vn 0 0 -1
vn 0 0 -1
vn 0 0 -1
vn 0 0 -1
vn 0 0 -1
vn 0 0 -1
vn 0 0 -1
vn 0 0 -1
vn 0 0 -1
vn 0 0 -1
vn 0 0 -1
vn 0 0 -1
vn 0 0 -1
vn 0 0 -1
vn 0 0 -1
vn 0 0 -1
vn 0 0 -1
vn 0 0 -1
vn 0 0 -1
vn -0.3826815 0.9238803 0
vn 0 1 0
vn 0 1 0
vn -0.3826815 0.9238803 0
vn 0.3826815 0.9238803 0
vn -0.7071068 0.7071068 0
vn 0.3826815 0.9238803 0
vn -0.7071068 0.7071068 0
vn 0.7071068 0.7071068 0
vn -0.9238803 0.3826815 0
vn 0.7071068 0.7071068 0
vn -0.9238803 0.3826815 0
vn 0.9238803 0.3826815 0
vn -1 0 0
vn 0.9238803 0.3826815 0
vn -1 0 0
vn 1 0 0
vn -0.9238803 -0.3826815 0
vn 1 0 0
vn -0.9238803 -0.3826815 0
vn 0.9238803 -0.3826815 0
vn -0.7071068 -0.7071068 0
vn 0.9238803 -0.3826815 0
vn -0.7071068 -0.7071068 0
vn 0.7071068 -0.7071068 0
vn -0.3826815 -0.9238803 0
vn 0.7071068 -0.7071068 0
vn -0.3826815 -0.9238803 0
vn 0.3826815 -0.9238803 0
vn 0 -1 0
vn 0.3826815 -0.9238803 0
vn 0 -1 0
vn 0 0 1
vn 0 0 1
vn 0 0 1
vn 0 0 1
vn 0 0 1
vn 0 0 1
vn 0 0 1
vn 0 0 1
vn 0 0 1
vn 0 0 1
vn 0 0 1
vn 0 0 1
vn 0 0 1
vn 0 0 1
vn 0 0 1
vn 0 0 1
vn 0 0 1
vn 0 0 1
vn 0 0 1
vn 0 0 1
vn 0 0 1
vn 0 0 1
vn 0 0 1
vn 0 0 1
vn 0 0 1
vn 0 0 1
vn 0 0 1
vn 0 0 1
vn 0 0 1
vn 0 0 1
vn 0 0 1
vn 0 0 1
vn 0.8044782 -0.3332053 0.4917205
vn 0.8044782 -0.3332053 0.4917205
vn 0.8707486 0 0.4917284
vn 0.8707486 0 0.4917284
vn 0.6157162 -0.6157162 0.4917185
vn 0.8044782 0.3332053 0.4917205
vn 0.6157162 -0.6157162 0.4917185
vn 0.8044782 0.3332053 0.4917205
vn 0.3332053 -0.8044782 0.4917205
vn 0.6157162 0.6157162 0.4917185
vn 0.3332053 -0.8044782 0.4917205
vn 0.6157162 0.6157162 0.4917185
vn 0 -0.8707486 0.4917284
vn 0.3332053 0.8044782 0.4917205
vn 0 -0.8707486 0.4917284
vn 0.3332053 0.8044782 0.4917205
vn -0.3332053 -0.8044782 0.4917205
vn 0 0.8707486 0.4917284
vn -0.3332053 -0.8044782 0.4917205
vn 0 0.8707486 0.4917284
vn -0.6157162 -0.6157162 0.4917185
vn -0.3332053 0.8044782 0.4917205
vn -0.6157162 -0.6157162 0.4917185
vn -0.3332053 0.8044782 0.4917205
vn -0.8044782 -0.3332053 0.4917205
vn -0.6157162 0.6157162 0.4917185
vn -0.8044782 -0.3332053 0.4917205
vn -0.6157162 0.6157162 0.4917185
vn -0.8707486 0 0.4917284
vn -0.8044782 0.3332053 0.4917205
vn -0.8707486 0 0.4917284
vn -0.8044782 0.3332053 0.4917205
vn -0.6157162 0.6157162 -0.4917185
vn -0.3332053 0.8044782 -0.4917205
vn -0.3332053 0.8044782 -0.4917205
vn -0.6157162 0.6157162 -0.4917185
vn 0 0.8707486 -0.4917284
vn -0.8044782 0.3332053 -0.4917205
vn 0 0.8707486 -0.4917284
vn -0.8044782 0.3332053 -0.4917205
vn 0.3332053 0.8044782 -0.4917205
vn -0.8707486 0 -0.4917284
vn 0.3332053 0.8044782 -0.4917205
vn -0.8707486 0 -0.4917284
vn 0.6157162 0.6157162 -0.4917185
vn -0.8044782 -0.3332053 -0.4917205
vn 0.6157162 0.6157162 -0.4917185
vn -0.8044782 -0.3332053 -0.4917205
vn 0.8044782 0.3332053 -0.4917205
vn -0.6157162 -0.6157162 -0.4917185
vn 0.8044782 0.3332053 -0.4917205
vn -0.6157162 -0.6157162 -0.4917185
vn 0.8707486 0 -0.4917284
vn -0.3332053 -0.8044782 -0.4917205
vn 0.8707486 0 -0.4917284
vn -0.3332053 -0.8044782 -0.4917205
vn 0.8044782 -0.3332053 -0.4917205
vn 0 -0.8707486 -0.4917284
vn 0.8044782 -0.3332053 -0.4917205
vn 0 -0.8707486 -0.4917284
vn 0.6157162 -0.6157162 -0.4917185
vn 0.3332053 -0.8044782 -0.4917205
vn 0.6157162 -0.6157162 -0.4917185
vn 0.3332053 -0.8044782 -0.4917205
g trinketCoin_0
f 3/3/3 2/2/2 1/1/1
f 1/1/1 4/4/4 3/3/3
f 4/4/4 5/5/5 3/3/3
f 4/4/4 6/6/6 5/5/5
f 6/6/6 7/7/7 5/5/5
f 6/6/6 8/8/8 7/7/7
f 6/6/6 9/9/9 8/8/8
f 9/9/9 10/10/10 8/8/8
f 9/9/9 11/11/11 10/10/10
f 11/11/11 12/12/12 10/10/10
f 12/12/12 13/13/13 10/10/10
f 12/12/12 14/14/14 13/13/13
f 14/14/14 15/15/15 13/13/13
f 14/14/14 16/16/16 15/15/15
f 19/19/19 18/18/18 17/17/17
f 17/17/17 20/20/20 19/19/19
f 20/20/20 21/21/21 19/19/19
f 20/20/20 22/22/22 21/21/21
f 22/22/22 23/23/23 21/21/21
f 22/22/22 24/24/24 23/23/23
f 24/24/24 25/25/25 23/23/23
f 24/24/24 26/26/26 25/25/25
f 26/26/26 27/27/27 25/25/25
f 26/26/26 28/28/28 27/27/27
f 26/26/26 29/29/29 28/28/28
f 29/29/29 30/30/30 28/28/28
f 29/29/29 31/31/31 30/30/30
f 31/31/31 32/32/32 30/30/30
f 35/35/35 34/34/34 33/33/33
f 36/36/36 35/35/35 33/33/33
f 33/33/33 34/34/34 37/37/37
f 38/38/38 35/35/35 36/36/36
f 34/34/34 39/39/39 37/37/37
f 40/40/40 38/38/38 36/36/36
f 37/37/37 39/39/39 41/41/41
f 42/42/42 38/38/38 40/40/40
f 39/39/39 43/43/43 41/41/41
f 44/44/44 42/42/42 40/40/40
f 41/41/41 43/43/43 45/45/45
f 46/46/46 42/42/42 44/44/44
f 43/43/43 47/47/47 45/45/45
f 48/48/48 46/46/46 44/44/44
f 45/45/45 47/47/47 49/49/49
f 50/50/50 46/46/46 48/48/48
f 47/47/47 51/51/51 49/49/49
f 52/52/52 50/50/50 48/48/48
f 49/49/49 51/51/51 53/53/53
f 54/54/54 50/50/50 52/52/52
f 51/51/51 55/55/55 53/53/53
f 56/56/56 54/54/54 52/52/52
f 53/53/53 55/55/55 57/57/57
f 58/58/58 54/54/54 56/56/56
f 55/55/55 59/59/59 57/57/57
f 60/60/60 58/58/58 56/56/56
f 57/57/57 59/59/59 61/61/61
f 62/62/62 58/58/58 60/60/60
f 59/59/59 63/63/63 61/61/61
f 64/64/64 62/62/62 60/60/60
f 61/61/61 63/63/63 64/64/64
f 63/63/63 62/62/62 64/64/64
f 67/67/67 66/66/66 65/65/65
f 68/68/68 67/67/67 65/65/65
f 67/67/67 69/69/69 66/66/66
f 68/68/68 65/65/65 70/70/70
f 69/69/69 71/71/71 66/66/66
f 72/72/72 68/68/68 70/70/70
f 69/69/69 73/73/73 71/71/71
f 72/72/72 70/70/70 74/74/74
f 73/73/73 75/75/75 71/71/71
f 76/76/76 72/72/72 74/74/74
f 73/73/73 77/77/77 75/75/75
f 76/76/76 74/74/74 78/78/78
f 77/77/77 79/79/79 75/75/75
f 80/80/80 76/76/76 78/78/78
f 77/77/77 81/81/81 79/79/79
f 80/80/80 78/78/78 82/82/82
f 81/81/81 83/83/83 79/79/79
f 84/84/84 80/80/80 82/82/82
f 81/81/81 85/85/85 83/83/83
f 84/84/84 82/82/82 86/86/86
f 85/85/85 87/87/87 83/83/83
f 88/88/88 84/84/84 86/86/86
f 85/85/85 89/89/89 87/87/87
f 88/88/88 86/86/86 90/90/90
f 89/89/89 91/91/91 87/87/87
f 92/92/92 88/88/88 90/90/90
f 89/89/89 93/93/93 91/91/91
f 92/92/92 90/90/90 94/94/94
f 93/93/93 95/95/95 91/91/91
f 96/96/96 92/92/92 94/94/94
f 96/96/96 94/94/94 95/95/95
f 93/93/93 96/96/96 95/95/95
f 99/99/99 98/98/98 97/97/97
f 98/98/98 100/100/100 97/97/97
f 101/101/101 98/98/98 99/99/99
f 97/97/97 100/100/100 102/102/102
f 103/103/103 101/101/101 99/99/99
f 100/100/100 104/104/104 102/102/102
f 105/105/105 101/101/101 103/103/103
f 102/102/102 104/104/104 106/106/106
f 107/107/107 105/105/105 103/103/103
f 104/104/104 108/108/108 106/106/106
f 109/109/109 105/105/105 107/107/107
f 106/106/106 108/108/108 110/110/110
f 111/111/111 109/109/109 107/107/107
f 108/108/108 112/112/112 110/110/110
f 113/113/113 109/109/109 111/111/111
f 110/110/110 112/112/112 114/114/114
f 115/115/115 113/113/113 111/111/111
f 112/112/112 116/116/116 114/114/114
f 117/117/117 113/113/113 115/115/115
f 114/114/114 116/116/116 118/118/118
f 119/119/119 117/117/117 115/115/115
f 116/116/116 120/120/120 118/118/118
f 121/121/121 117/117/117 119/119/119
f 118/118/118 120/120/120 122/122/122
f 123/123/123 121/121/121 119/119/119
f 120/120/120 124/124/124 122/122/122
f 125/125/125 121/121/121 123/123/123
f 122/122/122 124/124/124 126/126/126
f 127/127/127 125/125/125 123/123/123
f 124/124/124 128/128/128 126/126/126
f 128/128/128 125/125/125 127/127/127
f 126/126/126 128/128/128 127/127/127
f 131/131/131 130/130/130 129/129/129
f 132/132/132 131/131/131 129/129/129
f 129/129/129 130/130/130 133/133/133
f 134/134/134 131/131/131 132/132/132
f 130/130/130 135/135/135 133/133/133
f 136/136/136 134/134/134 132/132/132
f 133/133/133 135/135/135 137/137/137
f 138/138/138 134/134/134 136/136/136
f 135/135/135 139/139/139 137/137/137
f 140/140/140 138/138/138 136/136/136
f 137/137/137 139/139/139 141/141/141
f 142/142/142 138/138/138 140/140/140
f 139/139/139 143/143/143 141/141/141
f 144/144/144 142/142/142 140/140/140
f 141/141/141 143/143/143 145/145/145
f 146/146/146 142/142/142 144/144/144
f 143/143/143 147/147/147 145/145/145
f 148/148/148 146/146/146 144/144/144
f 145/145/145 147/147/147 149/149/149
f 150/150/150 146/146/146 148/148/148
f 147/147/147 151/151/151 149/149/149
f 152/152/152 150/150/150 148/148/148
f 149/149/149 151/151/151 153/153/153
f 154/154/154 150/150/150 152/152/152
f 151/151/151 155/155/155 153/153/153
f 156/156/156 154/154/154 152/152/152
f 153/153/153 155/155/155 157/157/157
f 158/158/158 154/154/154 156/156/156
f 155/155/155 159/159/159 157/157/157
f 160/160/160 158/158/158 156/156/156
f 157/157/157 159/159/159 160/160/160
f 159/159/159 158/158/158 160/160/160
f 163/163/163 162/162/162 161/161/161
f 162/162/162 164/164/164 161/161/161
f 165/165/165 162/162/162 163/163/163
f 161/161/161 164/164/164 166/166/166
f 167/167/167 165/165/165 163/163/163
f 164/164/164 168/168/168 166/166/166
f 169/169/169 165/165/165 167/167/167
f 166/166/166 168/168/168 170/170/170
f 171/171/171 169/169/169 167/167/167
f 168/168/168 172/172/172 170/170/170
f 173/173/173 169/169/169 171/171/171
f 170/170/170 172/172/172 174/174/174
f 175/175/175 173/173/173 171/171/171
f 172/172/172 176/176/176 174/174/174
f 177/177/177 173/173/173 175/175/175
f 174/174/174 176/176/176 178/178/178
f 179/179/179 177/177/177 175/175/175
f 176/176/176 180/180/180 178/178/178
f 181/181/181 177/177/177 179/179/179
f 178/178/178 180/180/180 182/182/182
f 183/183/183 181/181/181 179/179/179
f 180/180/180 184/184/184 182/182/182
f 185/185/185 181/181/181 183/183/183
f 182/182/182 184/184/184 186/186/186
f 187/187/187 185/185/185 183/183/183
f 184/184/184 188/188/188 186/186/186
f 189/189/189 185/185/185 187/187/187
f 186/186/186 188/188/188 190/190/190
f 191/191/191 189/189/189 187/187/187
f 188/188/188 192/192/192 190/190/190
f 192/192/192 189/189/189 191/191/191
f 190/190/190 192/192/192 191/191/191
