g urn smash 1
v 0.598904 -0.4227783 -0.1804366
v 0.5222914 -0.4225476 -0.3606219
v 0.04516566 -0.4228577 -0.3606219
v 0.4535029 -0.4228421 0.06103885
v 0.4525586 -0.417162 0.06198478
v 0.6641947 -0.4227886 -0.02679193
v 0.6241775 -0.1204323 0.02056888
v 0.6641947 -0.4227886 -0.02679193
v 0.4525586 -0.417162 0.06198478
v -0.3110031 0.4100796 0.4394142
v -0.2787991 0.418706 0.4514075
v -0.2816955 0.3506913 0.4454938
v -0.4700158 0.2779466 0.03937811
v -0.4232761 0.3387303 0.1746878
v -0.2816955 0.3506913 0.4454938
v -0.4232761 0.3387303 0.1746878
v -0.3110031 0.4100796 0.4394142
v -0.2816955 0.3506913 0.4454938
v -0.4700158 0.2779466 0.03937811
v -0.228726 0.1812935 0.4063294
v -0.5248156 0.131275 -0.1801876
v -0.3300848 0.1137464 0.1647879
v -0.3819131 0.0439463 0.01280892
v -0.275053 -0.1999863 0.01280892
v 0.5936211 -0.06059149 0.03937808
v 0.4678314 0.1518529 0.1133716
v 0.4581436 0.142165 0.03937811
v 0.04516566 -0.4228577 -0.3606219
v 0.5222914 -0.4225476 -0.3606219
v 0.4745269 -0.1824196 -0.3606219
v -0.1075419 0.2065064 -0.3606219
v -0.1015275 -0.4228859 -0.3606219
v -0.1075419 0.2065064 -0.3606219
v -0.1076725 -0.4228783 -0.3606219
v -0.1015275 -0.4228859 -0.3606219
v -0.3486425 0.1585486 -0.3606219
v -0.4918476 -0.1652421 -0.3606219
v -0.1076725 -0.4228783 -0.3606219
v -0.3486425 0.1585486 -0.3606219
v -0.553038 0.02197593 -0.3606219
v -0.4918476 -0.1652421 -0.3606219
v -0.1075419 0.2065064 -0.3606219
v -0.1076725 -0.4228783 -0.3606219
v 0.133559 0.1585484 -0.3606219
v 0.04516566 -0.4228577 -0.3606219
v 0.3379543 0.02197579 -0.3606219
v 0.4745269 -0.1824196 -0.3606219
v -0.553038 0.02197593 -0.3606219
v -0.5657681 0.002924055 -0.3606219
v -0.4918476 -0.1652421 -0.3606219
v -0.5619942 0.03093213 -0.330815
v -0.5657681 0.002924055 -0.3606219
v -0.553038 0.02197593 -0.3606219
v -0.4232761 0.3387303 0.1746878
v -0.4700158 0.2779466 0.03937811
v -0.4136884 0.3155834 0.03937811
v 0.3037153 -0.0122633 0.1651565
v 0.4176195 -0.2059915 0.09799898
v 0.402179 -0.2123871 0.01280889
v 0.3037153 -0.0122633 0.1651565
v 0.402179 -0.2123871 0.01280889
v 0.2825816 -0.03339705 0.01280892
v -0.228726 0.1812935 0.4063294
v -0.1904242 0.1859567 0.3912641
v -0.1075419 0.1958627 0.3577224
v -0.1075419 0.1281975 0.01280892
v -0.318675 0.08620062 0.01280892
v -0.3300848 0.1137464 0.1647879
v -0.228726 0.1812935 0.4063294
v -0.3819131 0.0439463 0.01280892
v -0.3300848 0.1137464 0.1647879
v -0.318675 0.08620062 0.01280892
v 0.4525586 -0.417162 0.06198478
v 0.4535029 -0.4228421 0.06103885
v 0.4440401 -0.4228368 0.01280889
v 0.4535029 -0.4228421 0.06103885
v 0.6641947 -0.4227886 -0.02679193
v 0.4440401 -0.4228368 0.01280889
v -0.05491335 -0.4229325 0.01280889
v 0.598904 -0.4227783 -0.1804366
v -0.1015275 -0.4228859 -0.3606219
v 0.04516566 -0.4228577 -0.3606219
v -0.1071797 -0.4228682 0.01280889
v -0.05491335 -0.4229325 0.01280889
v -0.1015275 -0.4228859 -0.3606219
v -0.1076725 -0.4228783 -0.3606219
v -0.2063005 -0.3563957 0.01280889
v -0.1071797 -0.4228682 0.01280889
v -0.1076725 -0.4228783 -0.3606219
v -0.4918476 -0.1652421 -0.3606219
v -0.275053 -0.1999863 0.01280892
v -0.2063005 -0.3563957 0.01280889
v -0.4918476 -0.1652421 -0.3606219
v -0.5248156 0.131275 -0.1801876
v -0.5657681 0.002924055 -0.3606219
v -0.5619942 0.03093213 -0.330815
v -0.2486135 0.4225145 0.4395485
v -0.1904242 0.1859567 0.3912641
v -0.228726 0.1812935 0.4063294
v -0.2816955 0.3506913 0.4454938
v -0.2787991 0.418706 0.4514075
v 0.4525586 -0.417162 0.06198478
v 0.5936211 -0.06059149 0.03937808
v 0.6241775 -0.1204323 0.02056888
v 0.4678314 0.1518529 0.1133716
v 0.4176195 -0.2059915 0.09799898
v 0.2128058 0.3498672 0.2397918
v 0.3037153 -0.0122633 0.1651565
v 0.1218078 0.1301785 0.2554503
v -0.1075419 0.4400146 0.3825131
v 0.1218078 0.1301785 0.2554503
v -0.1075419 0.1958627 0.3577224
v -0.1075419 0.4400146 0.3825131
v -0.1904242 0.1859567 0.3912641
v -0.2486135 0.4225145 0.4395485
v 0.3379543 0.02197579 -0.3606219
v 0.4745269 -0.1824196 -0.3606219
v 0.6241775 -0.1204323 0.02056888
v 0.5936211 -0.06059149 0.03937808
v 0.4581436 0.142165 0.03937811
v 0.4678314 0.1518529 0.1133716
v 0.2128058 0.3498672 0.2397918
v 0.1986049 0.3155833 0.03937811
v 0.4581436 0.142165 0.03937811
v 0.133559 0.1585484 -0.3606219
v 0.3379543 0.02197579 -0.3606219
v 0.4581436 0.142165 0.03937811
v 0.1986049 0.3155833 0.03937811
v 0.2128058 0.3498672 0.2397918
v -0.1075419 0.4400146 0.3825131
v -0.1075419 0.3764797 0.03937811
v 0.1986049 0.3155833 0.03937811
v -0.3486425 0.1585486 -0.3606219
v -0.1075419 0.2065064 -0.3606219
v -0.1075419 0.3764797 0.03937811
v -0.4136884 0.3155834 0.03937811
v -0.1075419 0.2065064 -0.3606219
v 0.133559 0.1585484 -0.3606219
v 0.1986049 0.3155833 0.03937811
v -0.1075419 0.3764797 0.03937811
v -0.5619942 0.03093213 -0.330815
v -0.553038 0.02197593 -0.3606219
v -0.3486425 0.1585486 -0.3606219
v -0.4136884 0.3155834 0.03937811
v -0.5248156 0.131275 -0.1801876
v -0.4700158 0.2779466 0.03937811
v -0.4232761 0.3387303 0.1746878
v -0.4136884 0.3155834 0.03937811
v -0.1075419 0.3764797 0.03937811
v -0.1075419 0.4400146 0.3825131
v -0.3110031 0.4100796 0.4394142
v -0.2486135 0.4225145 0.4395485
v -0.2787991 0.418706 0.4514075
v 0.1218078 0.1301785 0.2554503
v 0.3037153 -0.0122633 0.1651565
v 0.2825816 -0.03339705 0.01280892
v 0.1035915 0.08620045 0.01280892
v -0.1075419 0.1958627 0.3577224
v 0.1218078 0.1301785 0.2554503
v 0.1035915 0.08620045 0.01280892
v -0.1075419 0.1281975 0.01280892
v 0.402179 -0.2123871 0.01280889
v 0.4440401 -0.4228368 0.01280889
v -0.05491335 -0.4229325 0.01280889
v 0.2825816 -0.03339705 0.01280892
v 0.1035915 0.08620045 0.01280892
v -0.1075419 0.1281975 0.01280892
v -0.1071797 -0.4228682 0.01280889
v -0.2063005 -0.3563957 0.01280889
v -0.318675 0.08620062 0.01280892
v -0.275053 -0.1999863 0.01280892
v -0.3819131 0.0439463 0.01280892
v 0.4440401 -0.4228368 0.01280889
v 0.402179 -0.2123871 0.01280889
v 0.4525586 -0.417162 0.06198478
v 0.4176195 -0.2059915 0.09799898
v 0.598904 -0.4227783 -0.1804366
v 0.6641947 -0.4227886 -0.02679193
v 0.6241775 -0.1204323 0.02056888
v 0.5222914 -0.4225476 -0.3606219
v 0.4745269 -0.1824196 -0.3606219
vt 0.7435956 0.7435956
vt 0.6630471 0.1615877
vt 0.1608999 0.1608999
vt 1 0.5510511
vt 0.5599999 0.5599999
vt 0.7983711 0.7983711
vt 0.8043692 0.1227648
vt 1 0.798371
vt 1 0.5599999
vt 0.3366355 0.3366355
vt 0.3867416 0
vt 0 0
vt 0.7379915 0.3741115
vt 0.8018736 0.2343248
vt 1 0
vt 0.8018736 0.2343248
vt 1 0.3366355
vt 1 0
vt 0.7379915 0.3741115
vt 0.7773278 0
vt 0.5837498 0.5837498
vt 0.5649914 0.1656262
vt 0.4916303 0.3220868
vt 0.2347878 0.2347878
vt 0.5858671 0.3613871
vt 0.5873761 0.3772809
vt 0.5865963 0.3731159
vt 0.7601096 4.705769E-05
vt 0.7376917 3.920933E-05
vt 0.7135274 3.39134E-05
vt 0.7408047 2.908665E-05
vt 0.7592573 4.823793E-05
vt 0.7408047 2.908665E-05
vt 0.7591596 4.827446E-05
vt 0.7592573 4.823793E-05
vt 0.7609109 3.186607E-05
vt 0.7535746 4.343105E-05
vt 0.7591596 4.827446E-05
vt 0.7609109 3.186607E-05
vt 0.7644249 3.693261E-05
vt 0.7535746 4.343105E-05
vt 0.7408047 2.908665E-05
vt 0.7591596 4.827446E-05
vt 0.7164965 2.830501E-05
vt 0.7601096 4.705769E-05
vt 0.7037337 2.978259E-05
vt 0.7135274 3.39134E-05
vt 0.7644249 3.693261E-05
vt 0.7635426 3.75983E-05
vt 0.7535746 4.343105E-05
vt 0.9096786 0.123105
vt 0.9099935 0.1211976
vt 0.9098756 0.1216931
vt 0.8449097 0.3752391
vt 0.8462547 0.3666833
vt 0.8454583 0.3679514
vt 0.5871886 0.9139568
vt 0.5868602 0.9135456
vt 0.5867016 0.9133701
vt 0.5871886 0.9139568
vt 0.5867016 0.9133701
vt 0.5868766 0.9135022
vt 0.7812566 0.9141659
vt 0.7809535 0.9141544
vt 0.7802275 0.91411
vt 0.7803765 0.9133032
vt 0.7825506 0.9132898
vt 0.7825084 0.9136614
vt 0.7812566 0.9141659
vt 0.8463047 0.9133552
vt 0.8454613 0.9138044
vt 0.8456385 0.913372
vt 0.5230628 0.91352
vt 0.5230953 0.9135116
vt 0.5229625 0.9134263
vt 0.5510511 0.5510511
vt 0.7941732 0.7941732
vt 0.6212422 0.5472753
vt 0.368841 0
vt 1 0.7435956
vt 0.9257935 0
vt 1 0.1608998
vt 0.2347972 0
vt 1 0.631159
vt 1 0.0742064
vt 0.9100338 0
vt 0.2346619 0
vt 0.2347972 0.2347972
vt 0.9100339 0.9100339
vt 0.9095094 0
vt 1 0.2347878
vt 0.7653381 0
vt 0.09049059 0
vt 1 0.5837498
vt 0.3427911 0.252436
vt 0.4615687 0.3173827
vt 1 0.8889161
vt 1 0.6363496
vt 0.2226721 0
vt 0 0
vt 0.3867416 0.3867416
vt 1 0.5599999
vt 0.7769854 0.1584
vt 0.8043692 0.1227648
vt 0.6642787 0.2694285
vt 0.774278 0.5792528
vt 0.4359317 0.2496809
vt 0.5684553 0.5042462
vt 0.4186261 0.3379655
vt 0.149201 0.05800747
vt 0.4186261 0.3379655
vt 0.3517657 0.09659559
vt 0.149201 0.05800747
vt 0.3636504 0
vt 0.1110838 0
vt 0.5881246 0.1216931
vt 0.5875072 0.1166705
vt 0.5902316 0.1245429
vt 0.5905191 0.126594
vt 0.5912921 0.1333509
vt 0.6503816 0.3637841
vt 0.653378 0.3776764
vt 0.652542 0.3679514
vt 0.6499889 0.3606809
vt 0.652958 0.1178896
vt 0.6513435 0.1158366
vt 0.6530862 0.1256925
vt 0.6543362 0.1308358
vt 0.7152624 0.370619
vt 0.7181244 0.377357
vt 0.7182111 0.36425
vt 0.7146217 0.3620831
vt 0.782391 0.1152242
vt 0.7802085 0.1157338
vt 0.7800295 0.128573
vt 0.7816202 0.1268868
vt 0.7177918 0.1157338
vt 0.7156094 0.1152243
vt 0.7163799 0.1268869
vt 0.7179708 0.128573
vt 0.8465768 0.1168718
vt 0.8466567 0.1158365
vt 0.8450422 0.1178896
vt 0.8436639 0.1308356
vt 0.8455849 0.1230241
vt 0.8439906 0.1299794
vt 0.7829731 0.3683337
vt 0.7833786 0.362083
vt 0.7797893 0.36425
vt 0.7798759 0.377357
vt 0.7812092 0.377289
vt 0.7808183 0.3779424
vt 0.7809834 0.3778209
vt 0.6527275 0.9140236
vt 0.6510637 0.9136578
vt 0.6508847 0.9133182
vt 0.6523618 0.913372
vt 0.7177727 0.91411
vt 0.7155793 0.9138536
vt 0.7154498 0.9132898
vt 0.7176238 0.9133033
vt 0.7985454 0.9091169
vt 0.8094963 0.9091169
vt 0.792586 0.909117
vt 0.7831145 0.9091169
vt 0.7748967 0.9091166
vt 0.7782179 0.9091169
vt 0.7897154 0.909117
vt 0.7839056 0.909117
vt 0.7835649 0.9091166
vt 0.7804767 0.9091168
vt 0.7834257 0.9091168
vt 0.5229625 0.9134263
vt 0.5215253 0.9136841
vt 0.5230628 0.91352
vt 0.521697 0.9139479
vt 0.5261872 0.1207922
vt 0.5277393 0.1236339
vt 0.5293137 0.1357658
vt 0.5242841 0.1165348
vt 0.5239145 0.1260604
vn 0.0002583963 -0.9999999 -0.0004635649
vn 0.0006499807 -0.9999986 -0.001556874
vn 0.0003249905 -0.9999996 -0.0007784375
vn 0.3832533 -0.08938289 0.9193082
vn 0.3831575 -0.09249208 0.9190406
vn 0.3831414 -0.09132146 0.9191643
vn 0.3830363 -0.09326499 0.919013
vn 0.3831414 -0.09132146 0.9191643
vn 0.3831575 -0.09249208 0.9190406
vn -0.6223077 -0.2305239 0.7480587
vn 0.02256654 -0.08755277 0.9959043
vn -0.426857 -0.2793249 0.8600993
vn -0.820392 -0.3593287 0.4447919
vn -0.8204052 -0.3593043 0.4447873
vn -0.7389116 -0.3030368 0.6018126
vn -0.8204052 -0.3593043 0.4447873
vn -0.6223077 -0.2305239 0.7480587
vn -0.7389116 -0.3030368 0.6018126
vn -0.820392 -0.3593287 0.4447919
vn -0.8203564 -0.3594165 0.4447868
vn -0.820529 -0.3599984 0.4439969
vn -0.8203326 -0.3594616 0.4447942
vn -0.6301488 -0.2760507 0.7257469
vn -0.5751405 -0.2525267 0.7781026
vn 0.7884045 0.5267948 -0.3176565
vn 0.6952886 0.6952884 -0.1820657
vn 0.6770577 0.6770575 -0.2884198
vn 0 0 -1
vn 0 0 -1
vn 0 0 -1
vn 0 0 -1
vn 0 0 -1
vn 0 0 -1
vn 0 0 -1
vn 0 0 -1
vn 0 0 -1
vn 0 0 -1
vn 0 0 -1
vn 0 0 -1
vn 0 0 -1
vn 0 0 -1
vn 0 0 -1
vn 0 0 -1
vn 0 0 -1
vn 0 0 -1
vn 0 0 -1
vn 0 0 -1
vn 0 0 -1
vn 0 0 -1
vn 0 0 -1
vn -0.5836228 0.7125341 -0.3894606
vn -0.7674825 0.5128155 -0.3846956
vn -0.6507877 0.6507879 -0.3910888
vn -0.2845798 0.9413716 -0.1812012
vn -0.532805 0.7973989 -0.2833265
vn -0.4180751 0.8491906 -0.3226276
vn -0.6938803 -0.6938802 0.1925108
vn -0.9065981 -0.3755256 0.1925109
vn -0.9295316 -0.3147488 0.1921048
vn -0.6938803 -0.6938802 0.1925108
vn -0.9295316 -0.3147488 0.1921048
vn -0.6938803 -0.6938802 0.1925108
vn 0.09668349 -0.9907369 0.09535579
vn 0 -1 0
vn 0.07778286 -0.9850935 0.1534297
vn 0 -0.9812949 0.1925109
vn 0.3147481 -0.9295319 0.1921047
vn 0.3147482 -0.9295318 0.1921046
vn 0.09668349 -0.9907369 0.09535579
vn 0.545563 -0.816493 0.1889451
vn 0.3147482 -0.9295318 0.1921046
vn 0.3147481 -0.9295319 0.1921047
vn -0.9631193 -0.1915752 0.1889452
vn -0.9631197 -0.1915727 0.1889451
vn -0.9631194 -0.1915745 0.1889452
vn 0 -1 0
vn 6.394044E-05 -1 -4.954237E-05
vn 0 -1 0
vn -0.0002115026 -1 -7.434616E-05
vn 0.0002583963 -0.9999999 -0.0004635649
vn -0.0003459438 -1 -4.958583E-05
vn 0.0003249905 -0.9999996 -0.0007784375
vn -0.2916799 -0.9565159 0.0003957571
vn -0.0002115026 -1 -7.434616E-05
vn -0.0003459438 -1 -4.958583E-05
vn -0.2916799 -0.9565159 0.0003957571
vn -0.7349377 -0.6354921 0.2366777
vn -0.2916799 -0.9565159 0.0003957571
vn -0.2916799 -0.9565159 0.0003957571
vn -0.7917324 -0.5016075 0.3486398
vn -0.5751405 -0.2525267 0.7781026
vn -0.3536572 -0.3058033 0.8839744
vn -0.7917324 -0.5016075 0.3486398
vn -0.820529 -0.3599984 0.4439969
vn -0.8207637 -0.360782 0.4429259
vn -0.8207633 -0.3607824 0.4429261
vn 0.3766226 -0.09543408 0.9214379
vn 0.3802154 -0.09426063 0.9200822
vn 0.3744526 -0.09613348 0.9222492
vn 0.1473245 -0.09190086 0.9848095
vn 0.02256654 -0.08755277 0.9959043
vn 0.3831575 -0.09249208 0.9190406
vn 0.3830504 -0.09327281 0.9190062
vn 0.3830363 -0.09326499 0.919013
vn 0.383203 -0.09326259 0.9189437
vn 0.3833013 -0.09322001 0.918907
vn 0.3832109 -0.09320452 0.9189463
vn 0.3832562 -0.09317897 0.91893
vn 0.3831392 -0.09324737 0.9189719
vn 0.3831095 -0.09329431 0.9189795
vn 0.3831392 -0.09324737 0.9189719
vn 0.3830686 -0.09331268 0.9189947
vn 0.3831095 -0.09329431 0.9189795
vn 0.3802154 -0.09426063 0.9200822
vn 0.3766226 -0.09543408 0.9214379
vn 0.712534 0.5836231 -0.3894604
vn 0.8502954 0.352204 -0.3910884
vn 0.8637282 0.3181638 -0.3908266
vn 0.7884045 0.5267948 -0.3176565
vn 0.6770577 0.6770575 -0.2884198
vn 0.6952886 0.6952884 -0.1820657
vn 0.3762874 0.9084381 -0.1820656
vn 0.366421 0.8846184 -0.2884197
vn 0.6770577 0.6770575 -0.2884198
vn 0.3522039 0.8502953 -0.3910885
vn 0.712534 0.5836231 -0.3894604
vn 0.6770577 0.6770575 -0.2884198
vn 0.366421 0.8846184 -0.2884197
vn 0.3762874 0.9084381 -0.1820656
vn -0.09732927 0.978618 -0.1812012
vn -0.03927676 0.9628633 -0.267117
vn 0.366421 0.8846184 -0.2884197
vn -0.407823 0.8254074 -0.3903625
vn 0 0.9203531 -0.3910885
vn -0.03927676 0.9628633 -0.267117
vn -0.4180751 0.8491906 -0.3226276
vn 0 0.9203531 -0.3910885
vn 0.3522039 0.8502953 -0.3910885
vn 0.366421 0.8846184 -0.2884197
vn -0.03927676 0.9628633 -0.267117
vn -0.5836228 0.7125341 -0.3894606
vn -0.6507877 0.6507879 -0.3910888
vn -0.407823 0.8254074 -0.3903625
vn -0.4180751 0.8491906 -0.3226276
vn -0.5128154 0.7674829 -0.3846951
vn -0.532805 0.7973989 -0.2833265
vn -0.2845798 0.9413716 -0.1812012
vn -0.4180751 0.8491906 -0.3226276
vn -0.03927676 0.9628633 -0.267117
vn -0.09732927 0.978618 -0.1812012
vn -0.1919503 0.965002 -0.1786791
vn -0.1919504 0.9650021 -0.1786787
vn -0.1919505 0.9650024 -0.1786771
vn -0.3755255 -0.9065982 0.1925109
vn -0.6938803 -0.6938802 0.1925108
vn -0.6938803 -0.6938802 0.1925108
vn -0.3755255 -0.9065982 0.1925109
vn 0.07778286 -0.9850935 0.1534297
vn -0.3755255 -0.9065982 0.1925109
vn -0.3755255 -0.9065982 0.1925109
vn 0 -0.9812949 0.1925109
vn 0 0 1
vn 0 0 1
vn 0 0 1
vn 0 0 1
vn 0 0 1
vn 0 0 1
vn 0 0 1
vn -0.2306977 -0.1014073 0.9677268
vn 0 0 1
vn -0.5751405 -0.2525267 0.7781026
vn -0.6301488 -0.2760507 0.7257469
vn -0.9631194 -0.1915745 0.1889452
vn -0.9295316 -0.3147488 0.1921048
vn -0.9631193 -0.1915752 0.1889452
vn -0.9065981 -0.3755256 0.1925109
vn 0.9053077 0.1800769 -0.3846951
vn 0.9053077 0.1800769 -0.3846952
vn 0.8637282 0.3181638 -0.3908266
vn 0.9053077 0.1800768 -0.3846951
vn 0.8502954 0.352204 -0.3910884
g urn smash 1_0
f 3/3/3 2/2/2 1/1/1
f 6/6/6 5/5/5 4/4/4
f 9/9/9 8/8/8 7/7/7
f 12/12/12 11/11/11 10/10/10
f 15/15/15 14/14/14 13/13/13
f 18/18/18 17/17/17 16/16/16
f 20/20/20 18/18/18 19/19/19
f 20/20/20 19/19/19 21/21/21
f 22/22/22 20/20/20 21/21/21
f 23/23/23 22/22/22 21/21/21
f 21/21/21 24/24/24 23/23/23
f 27/27/27 26/26/26 25/25/25
f 30/30/30 29/29/29 28/28/28
f 28/28/28 32/32/32 31/31/31
f 35/35/35 34/34/34 33/33/33
f 38/38/38 37/37/37 36/36/36
f 41/41/41 40/40/40 39/39/39
f 43/43/43 39/39/39 42/42/42
f 45/45/45 42/42/42 44/44/44
f 45/45/45 44/44/44 46/46/46
f 45/45/45 46/46/46 47/47/47
f 50/50/50 49/49/49 48/48/48
f 53/53/53 52/52/52 51/51/51
f 56/56/56 55/55/55 54/54/54
f 59/59/59 58/58/58 57/57/57
f 62/62/62 61/61/61 60/60/60
f 65/65/65 64/64/64 63/63/63
f 67/67/67 66/66/66 65/65/65
f 65/65/65 68/68/68 67/67/67
f 65/65/65 69/69/69 68/68/68
f 72/72/72 71/71/71 70/70/70
f 75/75/75 74/74/74 73/73/73
f 78/78/78 77/77/77 76/76/76
f 77/77/77 78/78/78 79/79/79
f 80/80/80 77/77/77 79/79/79
f 80/80/80 79/79/79 81/81/81
f 81/81/81 82/82/82 80/80/80
f 85/85/85 84/84/84 83/83/83
f 86/86/86 85/85/85 83/83/83
f 89/89/89 88/88/88 87/87/87
f 90/90/90 89/89/89 87/87/87
f 93/93/93 92/92/92 91/91/91
f 91/91/91 94/94/94 93/93/93
f 94/94/94 95/95/95 93/93/93
f 94/94/94 96/96/96 95/95/95
f 99/99/99 98/98/98 97/97/97
f 97/97/97 100/100/100 99/99/99
f 97/97/97 101/101/101 100/100/100
f 104/104/104 103/103/103 102/102/102
f 103/103/103 105/105/105 102/102/102
f 105/105/105 106/106/106 102/102/102
f 105/105/105 107/107/107 106/106/106
f 107/107/107 108/108/108 106/106/106
f 107/107/107 109/109/109 108/108/108
f 107/107/107 110/110/110 109/109/109
f 113/113/113 112/112/112 111/111/111
f 113/113/113 114/114/114 112/112/112
f 113/113/113 115/115/115 114/114/114
f 118/118/118 117/117/117 116/116/116
f 116/116/116 119/119/119 118/118/118
f 116/116/116 120/120/120 119/119/119
f 123/123/123 122/122/122 121/121/121
f 124/124/124 123/123/123 121/121/121
f 127/127/127 126/126/126 125/125/125
f 128/128/128 127/127/127 125/125/125
f 131/131/131 130/130/130 129/129/129
f 132/132/132 131/131/131 129/129/129
f 135/135/135 134/134/134 133/133/133
f 136/136/136 135/135/135 133/133/133
f 139/139/139 138/138/138 137/137/137
f 140/140/140 139/139/139 137/137/137
f 143/143/143 142/142/142 141/141/141
f 141/141/141 144/144/144 143/143/143
f 141/141/141 145/145/145 144/144/144
f 145/145/145 146/146/146 144/144/144
f 149/149/149 148/148/148 147/147/147
f 147/147/147 150/150/150 149/149/149
f 147/147/147 151/151/151 150/150/150
f 151/151/151 152/152/152 150/150/150
f 151/151/151 153/153/153 152/152/152
f 156/156/156 155/155/155 154/154/154
f 157/157/157 156/156/156 154/154/154
f 160/160/160 159/159/159 158/158/158
f 161/161/161 160/160/160 158/158/158
f 164/164/164 163/163/163 162/162/162
f 162/162/162 165/165/165 164/164/164
f 165/165/165 166/166/166 164/164/164
f 166/166/166 167/167/167 164/164/164
f 167/167/167 168/168/168 164/164/164
f 167/167/167 169/169/169 168/168/168
f 167/167/167 170/170/170 169/169/169
f 170/170/170 171/171/171 169/169/169
f 170/170/170 172/172/172 171/171/171
f 175/175/175 174/174/174 173/173/173
f 175/175/175 176/176/176 174/174/174
f 179/179/179 178/178/178 177/177/177
f 177/177/177 180/180/180 179/179/179
f 180/180/180 181/181/181 179/179/179
