g voidtouched_goopy
v 2.227751 0.08751157 -1.600676E-07
v 2.179936 0.02359699 -1.583645E-07
v 2.008272 0.02359699 0.8630157
v 0 0.023597 -1.750886E-07
v 2.008272 0.02359699 -0.863016
v 2.052447 0.08751157 -0.881314
v 1.519412 0.02359699 -1.594646
v 0.7877828 0.02359699 -2.083505
v 1.553223 0.08751156 -1.628456
v 2.031806 0.1514261 -0.8727639
v 1.537424 0.1514261 -1.612657
v 0.8060808 0.08751157 -2.12768
v 0 0.02359702 -2.255169
v 0.7975307 0.1514261 -2.107038
v 0 0.1514262 -2.280642
v 0 0.08751158 -2.302984
v -0.8060808 0.08751157 -2.12768
v -0.7877828 0.02359699 -2.083505
v -1.519412 0.02359699 -1.594646
v -2.008272 0.02359699 -0.863016
v -2.179936 0.02359699 -1.583645E-07
v -1.553223 0.08751156 -1.628456
v -2.052447 0.08751157 -0.881314
v -2.227751 0.08751157 -1.600676E-07
v -0.7975307 0.1514261 -2.107038
v -1.537424 0.1514261 -1.612657
v -2.008272 0.02359699 0.8630157
v -2.031806 0.1514261 -0.8727639
v -1.386542 0.2867367 -1.461775
v -0.715874 0.2867368 -1.909902
v -1.834668 0.2867367 -0.7911072
v -2.205409 0.1514261 -1.568944E-07
v -2.052447 0.08751157 0.8813136
v -1.992029 0.2867367 -1.717862E-07
v -1.408005 0.4547236 -0.6144179
v -1.059965 0.4547236 -1.135296
v -1.53022 0.4547236 -1.637163E-07
v 0 0.2867368 -2.067263
v -0.5390868 0.4547236 -1.483336
v 0.715874 0.2867368 -1.909902
v 1.386542 0.2867367 -1.461775
v 1.834668 0.2867367 -0.7911072
v -0.5086149 0.5954659 -0.5848272
v -0.6879013 0.5954659 -0.3165063
v 0 0.6316667 -2.885386E-07
v -0.240294 0.5954659 -0.7641136
v -0.7508582 0.5954659 -1.49296E-07
v 0 0.5954659 -0.8270706
v -1.408005 0.4547236 0.6144176
v 0 0.4547236 -1.605551
v 0.5390868 0.4547236 -1.483336
v 0.240294 0.5954659 -0.7641136
v 1.059965 0.4547236 -1.135296
v -0.6879013 0.5954659 0.316506
v 0.5086149 0.5954659 -0.5848272
v -0.5086149 0.5954659 0.5848271
v 0.6879013 0.5954659 -0.3165063
v 1.408005 0.4547236 -0.6144179
v -1.059965 0.4547236 1.135296
v 1.53022 0.4547236 -1.637163E-07
v 0.7508582 0.5954659 -1.49296E-07
v 1.992029 0.2867367 -1.717862E-07
v 1.408005 0.4547236 0.6144176
v 2.205409 0.1514261 -1.568944E-07
v -1.834669 0.2867368 0.7911069
v -2.031806 0.1514261 0.8727636
v -1.386542 0.2867368 1.461776
v -1.553223 0.08751158 1.628456
v 1.834669 0.2867368 0.7911069
v 2.052447 0.08751157 0.8813136
v 2.031806 0.1514261 0.8727636
v 1.553223 0.08751158 1.628456
v -0.5390865 0.4547236 1.483336
v -1.519412 0.02359702 1.594646
v 1.519412 0.02359702 1.594646
v -0.2402939 0.5954659 0.7641134
v 0 0.4547236 1.605551
v -0.7158737 0.2867368 1.909902
v -0.7877825 0.02359702 2.083505
v 0.7877825 0.02359702 2.083505
v 0 0.5954659 0.8270704
v -1.537424 0.1514262 1.612658
v -0.8060804 0.0875116 2.127681
v 0 0.08751158 2.302984
v 0 0.02359702 2.255169
v -0.7975304 0.1514262 2.107039
v 0 0.2867368 2.067263
v 0.2402939 0.5954659 0.7641134
v 0.8060804 0.0875116 2.127681
v 0 0.1514262 2.280642
v 0.7975304 0.1514262 2.107039
v 1.537424 0.1514262 1.612658
v 0.7158737 0.2867368 1.909902
v 1.386542 0.2867368 1.461776
v 0.5390865 0.4547236 1.483336
v 1.059965 0.4547236 1.135296
v 0.5086149 0.5954659 0.5848271
v 0.6879013 0.5954659 0.316506
v 0 0.2751448 -5.763572
v 0.1762698 0.3505008 -5.344009
v 0 0.3505008 -5.4114
v -0.1762698 0.3505008 -5.344009
v 0 0.4012681 -4.908394
v 0.3603824 0.3505008 -5.159897
v -0.3603824 0.3505008 -5.159897
v 0.4277724 0.3505008 -4.908394
v 0.3523556 0.2751448 -5.648999
v -0.3523556 0.2751448 -5.648999
v 0.6653723 0.2751448 -5.335983
v 0 0.1708827 -5.982635
v 0.461888 0.1708827 -5.838715
v -0.6653723 0.2751448 -5.335983
v -0.461888 0.1708827 -5.838715
v -0.4277724 0.3505008 -4.908394
v 0 0.1000517 -6.008345
v 0.7799441 0.2751448 -4.908394
v 0.8550879 0.1708827 -5.445515
v 0.3603824 0.3505008 -4.656891
v 0.4747421 0.1000517 -5.860979
v -0.7799441 0.2751448 -4.908394
v -0.8550879 0.1708827 -5.445515
v -0.4747421 0.1000517 -5.860979
v -0.3603824 0.3505008 -4.656891
v 0 0.01786474 -5.908394
v 0.665372 0.2751448 -4.480805
v 0.9990088 0.1708827 -4.908394
v 0.8773521 0.1000517 -5.458369
v 0.1762698 0.3505008 -4.472778
v 0.4247671 0.01786474 -5.77442
v -0.665372 0.2751448 -4.480805
v -0.1762698 0.3505008 -4.472778
v 0 0.3505008 -4.405389
v 0.3523556 0.2751449 -4.167789
v 0.8550876 0.1708827 -4.371273
v 1.024717 0.1000517 -4.908394
v 0.7907926 0.01786474 -5.408394
v -0.3523556 0.2751449 -4.167789
v -0.9990088 0.1708827 -4.908394
v 0 0.2751449 -4.053217
v 0.461888 0.1708828 -3.978073
v 0 0.0178648 -4.908394
v 0.9247671 0.01786474 -4.908394
v -0.4247671 0.01786474 -5.77442
v 0.7907923 0.01786474 -4.408394
v 0.8773516 0.1000517 -4.358419
v -0.8773521 0.1000517 -5.458369
v 0.4747425 0.1000518 -3.955809
v -0.7907926 0.01786474 -5.408394
v -1.024717 0.1000517 -4.908394
v 0 0.1708828 -3.834152
v 0.4247671 0.01786486 -4.042369
v 0 0.1000518 -3.808444
v -0.461888 0.1708828 -3.978073
v -0.8550876 0.1708827 -4.371273
v -0.9247671 0.01786474 -4.908394
v -0.8773516 0.1000517 -4.358419
v -0.4747425 0.1000518 -3.955809
v -0.7907923 0.01786474 -4.408394
v -0.4247671 0.01786486 -4.042369
v 0 0.01786486 -3.908394
vn 0.9895396 -0.1442621 0
vn 0.4902279 -0.8715943 0
vn 0.4529292 -0.8715858 0.1875989
vn 0 -1 0
vn 0.4529292 -0.8715858 -0.1875989
vn 0.9142123 -0.1442658 -0.3786862
vn 0.3466376 -0.871599 -0.3466376
vn 0.1913878 -0.8723997 -0.4497658
vn 0.69971 -0.1442635 -0.69971
vn 0.7373286 0.602553 -0.305412
vn 0.5643325 0.6025426 -0.5643325
vn 0.3863692 -0.1444765 -0.9109585
vn 0 -0.8699619 -0.4931188
vn 0.3119364 0.6028453 -0.7343524
vn 0 0.6019904 -0.7985033
vn 0 -0.1438991 -0.9895923
vn -0.3863692 -0.1444765 -0.9109585
vn -0.1913878 -0.8723997 -0.4497658
vn -0.3466376 -0.871599 -0.3466376
vn -0.4529292 -0.8715858 -0.1875989
vn -0.4902279 -0.8715943 0
vn -0.69971 -0.1442635 -0.69971
vn -0.9142123 -0.1442658 -0.3786862
vn -0.9895396 -0.1442621 0
vn -0.3119364 0.6028453 -0.7343524
vn -0.5643325 0.6025426 -0.5643325
vn -0.4529292 -0.8715858 0.1875989
vn -0.7373286 0.602553 -0.305412
vn -0.3196009 0.892026 -0.3196009
vn -0.1773479 0.8919277 -0.4159481
vn -0.4175714 0.8920317 -0.1729555
vn -0.7980842 0.6025459 0
vn -0.9142123 -0.1442658 0.3786862
vn -0.4519927 0.8920217 0
vn -0.2499834 0.9627001 -0.1035214
vn -0.1913252 0.9626991 -0.1913252
vn -0.2705547 0.9627045 0
vn 0 0.8921944 -0.4516516
vn -0.1070322 0.9626791 -0.248582
vn 0.1773479 0.8919277 -0.4159481
vn 0.3196009 0.892026 -0.3196009
vn 0.4175714 0.8920317 -0.1729555
vn -0.08517923 0.9926997 -0.08539287
vn -0.1117897 0.9926485 -0.0463883
vn 0 1 0
vn -0.04788423 0.9928728 -0.1091357
vn -0.1211908 0.9926292 0
vn 0 0.9926329 -0.1211607
vn -0.2499834 0.9627001 0.1035214
vn 0 0.9626785 -0.2706475
vn 0.1070322 0.9626791 -0.248582
vn 0.04788423 0.9928728 -0.1091357
vn 0.1913252 0.9626991 -0.1913252
vn -0.1117897 0.9926485 0.0463883
vn 0.08517923 0.9926997 -0.08539287
vn -0.08517923 0.9926997 0.08539287
vn 0.1117897 0.9926485 -0.0463883
vn 0.2499834 0.9627001 -0.1035214
vn -0.1913252 0.9626991 0.1913252
vn 0.2705547 0.9627045 0
vn 0.1211908 0.9926292 0
vn 0.4519927 0.8920217 0
vn 0.2499834 0.9627001 0.1035214
vn 0.7980842 0.6025459 0
vn -0.4175714 0.8920317 0.1729555
vn -0.7373286 0.602553 0.305412
vn -0.3196009 0.892026 0.3196009
vn -0.69971 -0.1442635 0.69971
vn 0.4175714 0.8920317 0.1729555
vn 0.9142123 -0.1442658 0.3786862
vn 0.7373286 0.602553 0.305412
vn 0.69971 -0.1442635 0.69971
vn -0.1070322 0.9626791 0.248582
vn -0.3466376 -0.871599 0.3466376
vn 0.3466376 -0.871599 0.3466376
vn -0.04788423 0.9928728 0.1091357
vn 0 0.9626785 0.2706475
vn -0.1773479 0.8919277 0.4159481
vn -0.1913878 -0.8723997 0.4497658
vn 0.1913878 -0.8723997 0.4497658
vn 0 0.9926329 0.1211607
vn -0.5643325 0.6025426 0.5643325
vn -0.3863692 -0.1444765 0.9109585
vn 0 -0.1438991 0.9895923
vn 0 -0.8699619 0.4931188
vn -0.3119364 0.6028453 0.7343524
vn 0 0.8921944 0.4516516
vn 0.04788423 0.9928728 0.1091357
vn 0.3863692 -0.1444765 0.9109585
vn 0 0.6019904 0.7985033
vn 0.3119364 0.6028453 0.7343524
vn 0.5643325 0.6025426 0.5643325
vn 0.1773479 0.8919277 0.4159481
vn 0.3196009 0.892026 0.3196009
vn 0.1070322 0.9626791 0.248582
vn 0.1913252 0.9626991 0.1913252
vn 0.08517923 0.9926997 0.08539287
vn 0.1117897 0.9926485 0.0463883
vn 0 0.9410912 -0.3381531
vn 0.08896335 0.985952 -0.1413648
vn 0 0.9862649 -0.165171
vn -0.08896335 0.985952 -0.1413648
vn 0 1 0
vn 0.1469811 0.9854385 -0.08548462
vn -0.1469811 0.9854385 -0.08548462
vn 0.1712098 0.9852347 0
vn 0.1775298 0.9406912 -0.2891077
vn -0.1775298 0.9406912 -0.2891077
vn 0.2934422 0.9408461 -0.1694121
vn 0 0.6413873 -0.7672172
vn 0.3963231 0.6431932 -0.6551568
vn -0.2934422 0.9408461 -0.1694121
vn -0.3963231 0.6431932 -0.6551568
vn -0.1712098 0.9852347 0
vn 0 -0.2406466 -0.9706129
vn 0.3388253 0.9408492 0
vn 0.6635553 0.6425884 -0.3831115
vn 0.1469811 0.9854385 0.08548462
vn 0.5003331 -0.2436049 -0.830857
vn -0.3388253 0.9408492 0
vn -0.6635553 0.6425884 -0.3831115
vn -0.5003331 -0.2436049 -0.830857
vn -0.1469811 0.9854385 0.08548462
vn 0 -0.9208788 -0.3898491
vn 0.2934422 0.9408461 0.1694121
vn 0.7662162 0.6425828 0
vn 0.8401598 -0.2426267 -0.4850398
vn 0.08896335 0.985952 0.1413648
vn 0.1989513 -0.9238313 -0.3270383
vn -0.2934422 0.9408461 0.1694121
vn -0.08896335 0.985952 0.1413648
vn 0 0.9862649 0.165171
vn 0.1775298 0.9406912 0.2891077
vn 0.6635553 0.6425884 0.3831115
vn 0.9701192 -0.242629 0
vn 0.3335764 -0.9228439 -0.1925771
vn -0.1775298 0.9406912 0.2891077
vn -0.7662162 0.6425828 0
vn 0 0.9410912 0.3381531
vn 0.3963231 0.6431932 0.6551568
vn 0 -1 0
vn 0.3851831 -0.9228402 0
vn -0.1989513 -0.9238313 -0.3270383
vn 0.3335764 -0.9228439 0.1925771
vn 0.8401598 -0.2426267 0.4850398
vn -0.8401598 -0.2426267 -0.4850398
vn 0.5003331 -0.2436049 0.830857
vn -0.3335764 -0.9228439 -0.1925771
vn -0.9701192 -0.242629 0
vn 0 0.6413873 0.7672172
vn 0.1989513 -0.9238313 0.3270383
vn 0 -0.2406466 0.9706129
vn -0.3963231 0.6431932 0.6551568
vn -0.6635553 0.6425884 0.3831115
vn -0.3851831 -0.9228402 0
vn -0.8401598 -0.2426267 0.4850398
vn -0.5003331 -0.2436049 0.830857
vn -0.3335764 -0.9228439 0.1925771
vn -0.1989513 -0.9238313 0.3270383
vn 0 -0.9208788 0.3898491
g voidtouched_goopy_0
f 3/3/3 2/2/2 1/1/1
f 3/3/3 4/4/4 2/2/2
f 2/2/2 5/5/5 1/1/1
f 2/2/2 4/4/4 5/5/5
f 5/5/5 6/6/6 1/1/1
f 5/5/5 4/4/4 7/7/7
f 5/5/5 7/7/7 6/6/6
f 7/7/7 4/4/4 8/8/8
f 7/7/7 9/9/9 6/6/6
f 7/7/7 8/8/8 9/9/9
f 1/1/1 6/6/6 10/10/10
f 6/6/6 9/9/9 11/11/11
f 10/10/10 6/6/6 11/11/11
f 8/8/8 12/12/12 9/9/9
f 8/8/8 4/4/4 13/13/13
f 8/8/8 13/13/13 12/12/12
f 11/11/11 9/9/9 14/14/14
f 9/9/9 12/12/12 14/14/14
f 14/14/14 12/12/12 15/15/15
f 13/13/13 16/16/16 12/12/12
f 12/12/12 16/16/16 15/15/15
f 16/16/16 13/13/13 17/17/17
f 16/16/16 17/17/17 15/15/15
f 4/4/4 18/18/18 13/13/13
f 13/13/13 18/18/18 17/17/17
f 4/4/4 19/19/19 18/18/18
f 4/4/4 20/20/20 19/19/19
f 4/4/4 21/21/21 20/20/20
f 17/17/17 18/18/18 22/22/22
f 18/18/18 19/19/19 22/22/22
f 19/19/19 20/20/20 23/23/23
f 22/22/22 19/19/19 23/23/23
f 20/20/20 21/21/21 24/24/24
f 23/23/23 20/20/20 24/24/24
f 17/17/17 22/22/22 25/25/25
f 17/17/17 25/25/25 15/15/15
f 22/22/22 23/23/23 26/26/26
f 22/22/22 26/26/26 25/25/25
f 4/4/4 27/27/27 21/21/21
f 21/21/21 27/27/27 24/24/24
f 23/23/23 28/28/28 26/26/26
f 23/23/23 24/24/24 28/28/28
f 26/26/26 29/29/29 25/25/25
f 25/25/25 30/30/30 15/15/15
f 29/29/29 30/30/30 25/25/25
f 28/28/28 31/31/31 26/26/26
f 31/31/31 29/29/29 26/26/26
f 24/24/24 32/32/32 28/28/28
f 27/27/27 33/33/33 24/24/24
f 24/24/24 33/33/33 32/32/32
f 34/34/34 31/31/31 28/28/28
f 32/32/32 34/34/34 28/28/28
f 31/31/31 35/35/35 29/29/29
f 29/29/29 36/36/36 30/30/30
f 35/35/35 36/36/36 29/29/29
f 34/34/34 37/37/37 31/31/31
f 37/37/37 35/35/35 31/31/31
f 30/30/30 38/38/38 15/15/15
f 36/36/36 39/39/39 30/30/30
f 30/30/30 39/39/39 38/38/38
f 38/38/38 40/40/40 15/15/15
f 40/40/40 14/14/14 15/15/15
f 40/40/40 41/41/41 14/14/14
f 41/41/41 11/11/11 14/14/14
f 41/41/41 42/42/42 11/11/11
f 42/42/42 10/10/10 11/11/11
f 36/36/36 35/35/35 43/43/43
f 35/35/35 37/37/37 44/44/44
f 35/35/35 44/44/44 43/43/43
f 44/44/44 45/45/45 43/43/43
f 36/36/36 43/43/43 46/46/46
f 45/45/45 46/46/46 43/43/43
f 39/39/39 36/36/36 46/46/46
f 37/37/37 47/47/47 44/44/44
f 45/45/45 44/44/44 47/47/47
f 39/39/39 46/46/46 48/48/48
f 46/46/46 45/45/45 48/48/48
f 37/37/37 49/49/49 47/47/47
f 49/49/49 37/37/37 34/34/34
f 50/50/50 39/39/39 48/48/48
f 39/39/39 50/50/50 38/38/38
f 50/50/50 51/51/51 38/38/38
f 51/51/51 50/50/50 48/48/48
f 51/51/51 40/40/40 38/38/38
f 52/52/52 51/51/51 48/48/48
f 45/45/45 52/52/52 48/48/48
f 51/51/51 53/53/53 40/40/40
f 53/53/53 51/51/51 52/52/52
f 53/53/53 41/41/41 40/40/40
f 45/45/45 47/47/47 54/54/54
f 49/49/49 54/54/54 47/47/47
f 52/52/52 45/45/45 55/55/55
f 55/55/55 53/53/53 52/52/52
f 45/45/45 54/54/54 56/56/56
f 45/45/45 57/57/57 55/55/55
f 53/53/53 58/58/58 41/41/41
f 58/58/58 53/53/53 55/55/55
f 57/57/57 58/58/58 55/55/55
f 58/58/58 42/42/42 41/41/41
f 49/49/49 59/59/59 54/54/54
f 59/59/59 56/56/56 54/54/54
f 60/60/60 58/58/58 57/57/57
f 58/58/58 60/60/60 42/42/42
f 57/57/57 45/45/45 61/61/61
f 61/61/61 60/60/60 57/57/57
f 60/60/60 62/62/62 42/42/42
f 42/42/42 62/62/62 10/10/10
f 63/63/63 60/60/60 61/61/61
f 60/60/60 63/63/63 62/62/62
f 62/62/62 64/64/64 10/10/10
f 64/64/64 1/1/1 10/10/10
f 59/59/59 49/49/49 65/65/65
f 65/65/65 49/49/49 34/34/34
f 65/65/65 34/34/34 32/32/32
f 66/66/66 65/65/65 32/32/32
f 33/33/33 66/66/66 32/32/32
f 67/67/67 59/59/59 65/65/65
f 67/67/67 65/65/65 66/66/66
f 33/33/33 68/68/68 66/66/66
f 33/33/33 27/27/27 68/68/68
f 63/63/63 69/69/69 62/62/62
f 62/62/62 69/69/69 64/64/64
f 70/70/70 1/1/1 64/64/64
f 70/70/70 3/3/3 1/1/1
f 71/71/71 70/70/70 64/64/64
f 69/69/69 71/71/71 64/64/64
f 3/3/3 70/70/70 72/72/72
f 72/72/72 70/70/70 71/71/71
f 73/73/73 59/59/59 67/67/67
f 59/59/59 73/73/73 56/56/56
f 27/27/27 74/74/74 68/68/68
f 4/4/4 74/74/74 27/27/27
f 75/75/75 3/3/3 72/72/72
f 75/75/75 4/4/4 3/3/3
f 73/73/73 76/76/76 56/56/56
f 73/73/73 77/77/77 76/76/76
f 45/45/45 56/56/56 76/76/76
f 78/78/78 73/73/73 67/67/67
f 77/77/77 73/73/73 78/78/78
f 74/74/74 79/79/79 68/68/68
f 4/4/4 79/79/79 74/74/74
f 80/80/80 4/4/4 75/75/75
f 80/80/80 75/75/75 72/72/72
f 45/45/45 76/76/76 81/81/81
f 77/77/77 81/81/81 76/76/76
f 78/78/78 67/67/67 82/82/82
f 82/82/82 67/67/67 66/66/66
f 68/68/68 82/82/82 66/66/66
f 68/68/68 83/83/83 82/82/82
f 79/79/79 83/83/83 68/68/68
f 83/83/83 79/79/79 84/84/84
f 4/4/4 85/85/85 79/79/79
f 85/85/85 4/4/4 80/80/80
f 79/79/79 85/85/85 84/84/84
f 85/85/85 80/80/80 84/84/84
f 83/83/83 86/86/86 82/82/82
f 86/86/86 78/78/78 82/82/82
f 83/83/83 84/84/84 86/86/86
f 87/87/87 78/78/78 86/86/86
f 87/87/87 77/77/77 78/78/78
f 81/81/81 77/77/77 88/88/88
f 88/88/88 45/45/45 81/81/81
f 80/80/80 89/89/89 84/84/84
f 89/89/89 80/80/80 72/72/72
f 84/84/84 90/90/90 86/86/86
f 90/90/90 87/87/87 86/86/86
f 90/90/90 84/84/84 91/91/91
f 84/84/84 89/89/89 91/91/91
f 87/87/87 90/90/90 91/91/91
f 89/89/89 72/72/72 92/92/92
f 91/91/91 89/89/89 92/92/92
f 92/92/92 72/72/72 71/71/71
f 93/93/93 87/87/87 91/91/91
f 77/77/77 87/87/87 93/93/93
f 93/93/93 91/91/91 92/92/92
f 94/94/94 92/92/92 71/71/71
f 94/94/94 93/93/93 92/92/92
f 69/69/69 94/94/94 71/71/71
f 95/95/95 77/77/77 93/93/93
f 77/77/77 95/95/95 88/88/88
f 95/95/95 93/93/93 94/94/94
f 96/96/96 94/94/94 69/69/69
f 96/96/96 95/95/95 94/94/94
f 63/63/63 96/96/96 69/69/69
f 88/88/88 95/95/95 97/97/97
f 95/95/95 96/96/96 97/97/97
f 97/97/97 45/45/45 88/88/88
f 96/96/96 63/63/63 98/98/98
f 97/97/97 96/96/96 98/98/98
f 98/98/98 45/45/45 97/97/97
f 98/98/98 63/63/63 61/61/61
f 61/61/61 45/45/45 98/98/98
f 101/101/101 100/100/100 99/99/99
f 102/102/102 101/101/101 99/99/99
f 101/101/101 103/103/103 100/100/100
f 103/103/103 101/101/101 102/102/102
f 100/100/100 103/103/103 104/104/104
f 103/103/103 102/102/102 105/105/105
f 104/104/104 103/103/103 106/106/106
f 100/100/100 104/104/104 107/107/107
f 100/100/100 107/107/107 99/99/99
f 108/108/108 102/102/102 99/99/99
f 105/105/105 102/102/102 108/108/108
f 104/104/104 106/106/106 109/109/109
f 104/104/104 109/109/109 107/107/107
f 99/99/99 107/107/107 110/110/110
f 108/108/108 99/99/99 110/110/110
f 107/107/107 109/109/109 111/111/111
f 107/107/107 111/111/111 110/110/110
f 112/112/112 105/105/105 108/108/108
f 113/113/113 108/108/108 110/110/110
f 112/112/112 108/108/108 113/113/113
f 103/103/103 105/105/105 114/114/114
f 114/114/114 105/105/105 112/112/112
f 110/110/110 111/111/111 115/115/115
f 113/113/113 110/110/110 115/115/115
f 106/106/106 116/116/116 109/109/109
f 109/109/109 117/117/117 111/111/111
f 109/109/109 116/116/116 117/117/117
f 106/106/106 103/103/103 118/118/118
f 106/106/106 118/118/118 116/116/116
f 111/111/111 119/119/119 115/115/115
f 111/111/111 117/117/117 119/119/119
f 120/120/120 114/114/114 112/112/112
f 121/121/121 112/112/112 113/113/113
f 120/120/120 112/112/112 121/121/121
f 122/122/122 113/113/113 115/115/115
f 121/121/121 113/113/113 122/122/122
f 103/103/103 114/114/114 123/123/123
f 123/123/123 114/114/114 120/120/120
f 115/115/115 119/119/119 124/124/124
f 122/122/122 115/115/115 124/124/124
f 118/118/118 125/125/125 116/116/116
f 116/116/116 126/126/126 117/117/117
f 116/116/116 125/125/125 126/126/126
f 117/117/117 127/127/127 119/119/119
f 117/117/117 126/126/126 127/127/127
f 118/118/118 103/103/103 128/128/128
f 118/118/118 128/128/128 125/125/125
f 119/119/119 129/129/129 124/124/124
f 119/119/119 127/127/127 129/129/129
f 130/130/130 123/123/123 120/120/120
f 103/103/103 123/123/123 131/131/131
f 131/131/131 123/123/123 130/130/130
f 128/128/128 103/103/103 132/132/132
f 103/103/103 131/131/131 132/132/132
f 128/128/128 133/133/133 125/125/125
f 128/128/128 132/132/132 133/133/133
f 125/125/125 134/134/134 126/126/126
f 125/125/125 133/133/133 134/134/134
f 126/126/126 135/135/135 127/127/127
f 126/126/126 134/134/134 135/135/135
f 127/127/127 136/136/136 129/129/129
f 127/127/127 135/135/135 136/136/136
f 132/132/132 131/131/131 137/137/137
f 137/137/137 131/131/131 130/130/130
f 130/130/130 120/120/120 138/138/138
f 138/138/138 120/120/120 121/121/121
f 132/132/132 139/139/139 133/133/133
f 139/139/139 132/132/132 137/137/137
f 133/133/133 140/140/140 134/134/134
f 133/133/133 139/139/139 140/140/140
f 136/136/136 141/141/141 129/129/129
f 129/129/129 141/141/141 124/124/124
f 142/142/142 141/141/141 136/136/136
f 141/141/141 143/143/143 124/124/124
f 144/144/144 141/141/141 142/142/142
f 135/135/135 142/142/142 136/136/136
f 143/143/143 122/122/122 124/124/124
f 134/134/134 145/145/145 135/135/135
f 135/135/135 145/145/145 142/142/142
f 134/134/134 140/140/140 145/145/145
f 145/145/145 144/144/144 142/142/142
f 146/146/146 122/122/122 143/143/143
f 146/146/146 121/121/121 122/122/122
f 138/138/138 121/121/121 146/146/146
f 140/140/140 147/147/147 145/145/145
f 145/145/145 147/147/147 144/144/144
f 148/148/148 146/146/146 143/143/143
f 141/141/141 148/148/148 143/143/143
f 149/149/149 138/138/138 146/146/146
f 149/149/149 146/146/146 148/148/148
f 140/140/140 150/150/150 147/147/147
f 139/139/139 150/150/150 140/140/140
f 147/147/147 151/151/151 144/144/144
f 151/151/151 141/141/141 144/144/144
f 147/147/147 152/152/152 151/151/151
f 150/150/150 152/152/152 147/147/147
f 150/150/150 139/139/139 153/153/153
f 139/139/139 137/137/137 153/153/153
f 154/154/154 138/138/138 149/149/149
f 153/153/153 137/137/137 154/154/154
f 154/154/154 130/130/130 138/138/138
f 137/137/137 130/130/130 154/154/154
f 155/155/155 149/149/149 148/148/148
f 141/141/141 155/155/155 148/148/148
f 156/156/156 154/154/154 149/149/149
f 153/153/153 154/154/154 156/156/156
f 156/156/156 149/149/149 155/155/155
f 150/150/150 153/153/153 157/157/157
f 157/157/157 153/153/153 156/156/156
f 152/152/152 150/150/150 157/157/157
f 158/158/158 156/156/156 155/155/155
f 157/157/157 156/156/156 158/158/158
f 141/141/141 158/158/158 155/155/155
f 159/159/159 157/157/157 158/158/158
f 152/152/152 157/157/157 159/159/159
f 141/141/141 159/159/159 158/158/158
f 160/160/160 152/152/152 159/159/159
f 141/141/141 160/160/160 159/159/159
f 152/152/152 160/160/160 151/151/151
f 160/160/160 141/141/141 151/151/151
