g wall shelf
v -0.8871024 -0.003426502 0.7696849
v -0.8871024 -0.003426517 0.03677894
v -0.8871024 0.2186662 0.03677894
v -0.8871024 0.2186662 0.7696849
v -4.305001E-09 0.2186662 0.7696849
v 0.8871024 0.2186662 0.03677894
v 0.8871024 0.2186662 0.7696849
v -4.305001E-09 0.2186662 0.03677894
v -0.8871024 0.2186662 0.7696849
v -0.8871024 0.2186662 0.03677894
v 0.8871024 0.2186662 0.7696849
v 0.8871024 0.2186662 0.03677894
v 0.8871024 -0.003426517 0.03677894
v 0.8871024 -0.003426502 0.7696849
v -4.305001E-09 -0.003426517 0.03677894
v 0.8871024 -0.003426517 0.03677894
v 0.8871024 0.2186662 0.03677894
v -4.305001E-09 0.2186662 0.03677894
v -4.305001E-09 -0.003426502 0.7696849
v -0.8871024 -0.003426502 0.7696849
v -0.8871024 0.2186662 0.7696849
v -4.305001E-09 0.2186662 0.7696849
v 0.8871024 -0.003426502 0.7696849
v 0.8871024 0.2186662 0.7696849
v -0.8871024 -0.003426517 0.03677894
v -4.305001E-09 -0.003426517 0.03677894
v -4.305001E-09 0.2186662 0.03677894
v -0.8871024 0.2186662 0.03677894
v 0.5971863 -0.003426522 0.08489232
v 0.5971863 -0.5145404 0.08489232
v 0.8644626 -0.5145404 0.08489232
v 0.8644626 -0.003426522 0.08489232
v -0.8871024 -0.003426502 0.7696849
v -4.305001E-09 -0.003426502 0.7696849
v -0.5971862 -0.003426522 0.3687325
v -0.8644625 -0.003426522 0.3687325
v -0.8871024 -0.003426517 0.03677894
v -0.8871024 -0.003426502 0.7696849
v -0.8644625 -0.003426522 0.3687325
v -0.8644625 -0.003426522 0.08489232
v -4.305001E-09 -0.003426517 0.03677894
v -0.8871024 -0.003426517 0.03677894
v -0.8644625 -0.003426522 0.08489232
v -0.5971862 -0.003426522 0.08489232
v -4.305001E-09 -0.003426502 0.7696849
v -4.305001E-09 -0.003426517 0.03677894
v -0.5971862 -0.003426522 0.08489232
v -0.5971862 -0.003426522 0.3687325
v 0.8644626 -0.003426522 0.08489232
v 0.8644626 -0.5145404 0.08489232
v 0.8644626 -0.5145404 0.2576862
v 0.8644626 -0.003426522 0.3687325
v -4.305001E-09 -0.003426502 0.7696849
v 0.8871024 -0.003426502 0.7696849
v 0.8644626 -0.003426522 0.3687325
v 0.5971863 -0.003426522 0.3687325
v -4.305001E-09 -0.003426517 0.03677894
v -4.305001E-09 -0.003426502 0.7696849
v 0.5971863 -0.003426522 0.3687325
v 0.5971863 -0.003426522 0.08489232
v 0.8871024 -0.003426517 0.03677894
v -4.305001E-09 -0.003426517 0.03677894
v 0.5971863 -0.003426522 0.08489232
v 0.8644626 -0.003426522 0.08489232
v 0.8871024 -0.003426502 0.7696849
v 0.8871024 -0.003426517 0.03677894
v 0.8644626 -0.003426522 0.08489232
v 0.8644626 -0.003426522 0.3687325
v -0.5971862 -0.5145404 0.2576862
v -0.5971862 -0.5145404 0.08489232
v -0.8644625 -0.5145404 0.08489232
v -0.8644625 -0.5145404 0.2576862
v 0.8644626 -0.5145404 0.2576862
v 0.8644626 -0.5145404 0.08489232
v 0.5971863 -0.5145404 0.08489232
v 0.5971863 -0.5145404 0.2576862
v 0.5971863 -0.003426522 0.3687325
v 0.5971863 -0.5145404 0.2576862
v 0.5971863 -0.5145404 0.08489232
v 0.5971863 -0.003426522 0.08489232
v 0.8644626 -0.003426522 0.3687325
v 0.8644626 -0.5145404 0.2576862
v 0.5971863 -0.5145404 0.2576862
v 0.5971863 -0.003426522 0.3687325
v -0.5971862 -0.003426522 0.08489232
v -0.5971862 -0.5145404 0.08489232
v -0.5971862 -0.5145404 0.2576862
v -0.5971862 -0.003426522 0.3687325
v -0.8644625 -0.003426522 0.08489232
v -0.8644625 -0.5145404 0.08489232
v -0.5971862 -0.5145404 0.08489232
v -0.5971862 -0.003426522 0.08489232
v -0.8644625 -0.003426522 0.3687325
v -0.8644625 -0.5145404 0.2576862
v -0.8644625 -0.5145404 0.08489232
v -0.8644625 -0.003426522 0.08489232
v -0.5971862 -0.003426522 0.3687325
v -0.5971862 -0.5145404 0.2576862
v -0.8644625 -0.5145404 0.2576862
v -0.8644625 -0.003426522 0.3687325
vt 0.1228237 0.8847792
vt 0.1228237 0.9976498
vt 0.2356942 0.9976498
vt 0.2356942 0.8847792
vt 0.1785457 0.9981595
vt 0.1257214 0.9545171
vt 0.1257214 0.9981595
vt 0.1785457 0.9545172
vt 0.23137 0.9981595
vt 0.23137 0.9545172
vt 0.2370348 0.9988623
vt 0.2370348 0.9148585
vt 0.2115791 0.9148585
vt 0.2115791 0.9988623
vt 0.1228237 0.8847792
vt 0.1228237 0.9976498
vt 0.2356942 0.9976498
vt 0.2356942 0.8847792
vt 0.1803524 0.9848868
vt 0.125194 0.9848868
vt 0.125194 0.9986961
vt 0.1803524 0.9986961
vt 0.2355109 0.9848868
vt 0.2355109 0.9986961
vt 0.1228237 0.8847792
vt 0.1228237 0.9976498
vt 0.2356942 0.9976498
vt 0.2356942 0.8847792
vt 0.1228237 0.8847792
vt 0.1228237 0.9976498
vt 0.2356942 0.9976498
vt 0.2356942 0.8847792
vt 0.1228237 0.8847792
vt 0.1228237 0.9976498
vt 0.2356942 0.9976498
vt 0.2356942 0.8847792
vt 0.1228237 0.8847792
vt 0.1228237 0.9976498
vt 0.2356942 0.9976498
vt 0.2356942 0.8847792
vt 0.1228237 0.8847792
vt 0.1228237 0.9976498
vt 0.2356942 0.9976498
vt 0.2356942 0.8847792
vt 0.1228237 0.8847792
vt 0.1228237 0.9976498
vt 0.2356942 0.9976498
vt 0.2356942 0.8847792
vt 0.1228237 0.8847792
vt 0.1228237 0.9976498
vt 0.2356942 0.9976498
vt 0.2356942 0.8847792
vt 0.1228237 0.8847792
vt 0.1228237 0.9976498
vt 0.2356942 0.9976498
vt 0.2356942 0.8847792
vt 0.1228237 0.8847792
vt 0.1228237 0.9976498
vt 0.2356942 0.9976498
vt 0.2356942 0.8847792
vt 0.1228237 0.8847792
vt 0.1228237 0.9976498
vt 0.2356942 0.9976498
vt 0.2356942 0.8847792
vt 0.1228237 0.8847792
vt 0.1228237 0.9976498
vt 0.2356942 0.9976498
vt 0.2356942 0.8847792
vt 0.1228237 0.8847792
vt 0.1228237 0.9976498
vt 0.2356942 0.9976498
vt 0.2356942 0.8847792
vt 0.1228237 0.8847792
vt 0.1228237 0.9976498
vt 0.2356942 0.9976498
vt 0.2356942 0.8847792
vt 0.1228237 0.8847792
vt 0.1228237 0.9976498
vt 0.2356942 0.9976498
vt 0.2356942 0.8847792
vt 0.1228237 0.8847792
vt 0.1228237 0.9976498
vt 0.2356942 0.9976498
vt 0.2356942 0.8847792
vt 0.1228237 0.8847792
vt 0.1228237 0.9976498
vt 0.2356942 0.9976498
vt 0.2356942 0.8847792
vt 0.1228237 0.8847792
vt 0.1228237 0.9976498
vt 0.2356942 0.9976498
vt 0.2356942 0.8847792
vt 0.1228237 0.8847792
vt 0.1228237 0.9976498
vt 0.2356942 0.9976498
vt 0.2356942 0.8847792
vt 0.1228237 0.8847792
vt 0.1228237 0.9976498
vt 0.2356942 0.9976498
vt 0.2356942 0.8847792
vn -1 0 0
vn -1 0 0
vn -1 0 0
vn -1 0 0
vn 0 1 0
vn 0 1 0
vn 0 1 0
vn 0 1 0
vn 0 1 0
vn 0 1 0
vn 1 0 0
vn 1 0 0
vn 1 0 0
vn 1 0 0
vn 0 0 -1
vn 0 0 -1
vn 0 0 -1
vn 0 0 -1
vn 0 0 1
vn 0 0 1
vn 0 0 1
vn 0 0 1
vn 0 0 1
vn 0 0 1
vn 0 0 -1
vn 0 0 -1
vn 0 0 -1
vn 0 0 -1
vn 0 0 -1
vn 0 0 -1
vn 0 0 -1
vn 0 0 -1
vn 0 -1 0
vn 0 -1 0
vn 0 -1 0
vn 0 -1 0
vn 0 -1 0
vn 0 -1 0
vn 0 -1 0
vn 0 -1 0
vn 0 -1 0
vn 0 -1 0
vn 0 -1 0
vn 0 -1 0
vn 0 -1 0
vn 0 -1 0
vn 0 -1 0
vn 0 -1 0
vn 1 0 0
vn 1 0 0
vn 1 0 0
vn 1 0 0
vn 0 -1 0
vn 0 -1 0
vn 0 -1 0
vn 0 -1 0
vn 0 -1 0
vn 0 -1 0
vn 0 -1 0
vn 0 -1 0
vn 0 -1 0
vn 0 -1 0
vn 0 -1 0
vn 0 -1 0
vn 0 -1 0
vn 0 -1 0
vn 0 -1 0
vn 0 -1 0
vn 0 -1 0
vn 0 -1 0
vn 0 -1 0
vn 0 -1 0
vn 0 -1 0
vn 0 -1 0
vn 0 -1 0
vn 0 -1 0
vn -1 0 0
vn -1 0 0
vn -1 0 0
vn -1 0 0
vn 0 -0.2123101 0.9772024
vn 0 -0.2123101 0.9772024
vn 0 -0.2123101 0.9772024
vn 0 -0.2123101 0.9772024
vn 1 0 0
vn 1 0 0
vn 1 0 0
vn 1 0 0
vn 0 0 -1
vn 0 0 -1
vn 0 0 -1
vn 0 0 -1
vn -1 0 0
vn -1 0 0
vn -1 0 0
vn -1 0 0
vn 0 -0.2123101 0.9772024
vn 0 -0.2123101 0.9772024
vn 0 -0.2123101 0.9772024
vn 0 -0.2123101 0.9772024
g wall shelf_0
f 3/3/3 2/2/2 1/1/1
f 4/4/4 3/3/3 1/1/1
f 7/7/7 6/6/6 5/5/5
f 6/6/6 8/8/8 5/5/5
f 5/5/5 8/8/8 9/9/9
f 8/8/8 10/10/10 9/9/9
f 13/13/13 12/12/12 11/11/11
f 14/14/14 13/13/13 11/11/11
f 17/17/17 16/16/16 15/15/15
f 18/18/18 17/17/17 15/15/15
f 21/21/21 20/20/20 19/19/19
f 22/22/22 21/21/21 19/19/19
f 22/22/22 19/19/19 23/23/23
f 24/24/24 22/22/22 23/23/23
f 27/27/27 26/26/26 25/25/25
f 28/28/28 27/27/27 25/25/25
f 31/31/31 30/30/30 29/29/29
f 32/32/32 31/31/31 29/29/29
f 35/35/35 34/34/34 33/33/33
f 36/36/36 35/35/35 33/33/33
f 39/39/39 38/38/38 37/37/37
f 40/40/40 39/39/39 37/37/37
f 43/43/43 42/42/42 41/41/41
f 44/44/44 43/43/43 41/41/41
f 47/47/47 46/46/46 45/45/45
f 48/48/48 47/47/47 45/45/45
f 51/51/51 50/50/50 49/49/49
f 52/52/52 51/51/51 49/49/49
f 55/55/55 54/54/54 53/53/53
f 56/56/56 55/55/55 53/53/53
f 59/59/59 58/58/58 57/57/57
f 60/60/60 59/59/59 57/57/57
f 63/63/63 62/62/62 61/61/61
f 64/64/64 63/63/63 61/61/61
f 67/67/67 66/66/66 65/65/65
f 68/68/68 67/67/67 65/65/65
f 71/71/71 70/70/70 69/69/69
f 72/72/72 71/71/71 69/69/69
f 75/75/75 74/74/74 73/73/73
f 76/76/76 75/75/75 73/73/73
f 79/79/79 78/78/78 77/77/77
f 80/80/80 79/79/79 77/77/77
f 83/83/83 82/82/82 81/81/81
f 84/84/84 83/83/83 81/81/81
f 87/87/87 86/86/86 85/85/85
f 88/88/88 87/87/87 85/85/85
f 91/91/91 90/90/90 89/89/89
f 92/92/92 91/91/91 89/89/89
f 95/95/95 94/94/94 93/93/93
f 96/96/96 95/95/95 93/93/93
f 99/99/99 98/98/98 97/97/97
f 100/100/100 99/99/99 97/97/97
