g westgarden_arch_top
v 0 0.9240317 0.24
v 0 0.6640315 0.5
v -0.1817461 0.7381063 0.5
v 2.662879 -1.717212 0.5000001
v 2.659217 -1.211811 0.5000001
v 2.917437 -1.462654 0.1400001
v 2.26967 -2.110421 0.1400001
v 2.009479 -1.861622 0.5000001
v 2.524229 -1.855862 0.5000001
v 2.917437 -1.462653 -0.14
v 2.659216 -1.21181 -0.4999999
v 2.662879 -1.717212 -0.4999999
v -0.5826073 -0.4972296 0.5
v -0.8572536 -0.75985 0.12
v -1.125954 -0.4911494 0.5
v -1.515922 -0.1011815 0.12
v -1.243356 0.1635971 0.5
v -1.247221 -0.3698821 0.5
v -0.8572536 -0.75985 -0.12
v -0.5826073 -0.4972296 -0.5
v -1.125954 -0.4911494 -0.5
v -1.388643 -0.2284608 -0.5
v -1.386812 0.02424002 -0.5
v -1.515922 -0.1011815 -0.32
v 0 0.9240317 0.24
v 0.3376916 0.5785747 0.5
v 0 0.6640315 0.5
v 1 2.4 -0.5000001
v 1 1.4 -0.5000001
v 1 1.4 0.4999999
v 1 2.4 0.4999999
v -0.3910087 2.013145 -0.5000001
v 0 2.404153 -0.5000001
v 0 3.2 -0.5000001
v -0.1414213 3.258579 -0.5000001
v -1 2.4 -0.5000001
v -0.3910083 1.4 -0.5000001
v -1 1.4 -0.5000001
v -0.3910083 0.5240316 -0.5
v -1 0.4000001 -0.5
v 1 1.4 0.4999999
v 1 0.4000001 0.5
v 0.3910083 0.5240316 0.5
v 0.3910083 1.4 0.4999999
v 1 2.4 0.4999999
v 0.3910087 2.013145 0.4999999
v 1 1.4 -0.5000001
v 1 0.4000001 -0.5
v 1 0.4000001 0.5
v 1 1.4 0.4999999
v 2.662879 -1.717212 -0.4999999
v 2.26967 -2.110421 -0.4999999
v 2.26967 -2.110421 0.1400001
v 2.524229 -1.855862 0.5000001
v 2.662879 -1.717212 0.5000001
v 2.917437 -1.462654 0.1400001
v 2.917437 -1.462653 -0.14
v -0.1817461 0.7381063 0.5
v -0.3910083 0.5240316 0.5
v -0.3910083 0.5240316 0.2
v 0 0.9240317 0.2
v 0 0.9240317 0.24
v 1 0.4000001 0.5
v 1 0.4000001 -0.5
v 2.659216 -1.21181 -0.4999999
v 2.917437 -1.462653 -0.14
v 2.917437 -1.462654 0.1400001
v 2.659217 -1.211811 0.5000001
v 0.1414213 3.258579 -0.5000001
v 1 2.4 -0.5000001
v 1 2.4 0.4999999
v 0.6249218 2.775078 0.4999999
v 0 3.4 0.07796224
v 0 3.4 -0.3000001
v 1 1.4 -0.5000001
v 0.3910083 0.5240316 -0.5
v 1 0.4000001 -0.5
v 0.3910083 1.4 -0.5000001
v 1 2.4 -0.5000001
v 0.3910087 2.013145 -0.5000001
v 0.1414213 3.258579 -0.5000001
v 0 2.404153 -0.5000001
v 0 3.2 -0.5000001
v 0.3910083 0.5240316 -0.5
v 0 0.9240313 -0.5
v 0 0.05986691 -0.5
v 0 2.404153 -0.5000001
v 0.3910087 2.013145 -0.5000001
v 0.3910083 0.5240316 0.5
v 0.3910083 0.5240316 0.2
v 0.3910083 1.4 0.1999999
v 0.3910083 1.4 0.4999999
v 0.3910087 2.013145 0.4999999
v 0.3910087 2.013145 0.1999999
v 0 2.404153 0.1999999
v 0 2.404153 0.4999999
v 0.3910083 0.5240316 0.5
v 0 0.05986691 0.5
v 0 0.6640315 0.5
v 0.3376916 0.5785747 0.5
v 0.3910083 1.4 0.4999999
v 0.3910083 1.4 0.1999999
v 0.3910087 2.013145 0.1999999
v 0.3910087 2.013145 0.4999999
v 0 2.404153 0.1999999
v 0.3910087 2.013145 0.1999999
v 0.3910083 1.4 0.1999999
v 0.3910083 0.5240316 0.2
v 0 0.9240317 0.2
v 2.26967 -2.110421 -0.4999999
v 2.662879 -1.717212 -0.4999999
v 2.659216 -1.21181 -0.4999999
v 1 0.4000001 -0.5
v 0 0.05986691 -0.5
v 0.3910083 0.5240316 -0.5
v -1 2.4 -0.5000001
v -1 2.4 0.4999999
v -1 1.4 0.4999999
v -1 1.4 -0.5000001
v -1 1.4 0.4999999
v -0.3910083 0.5240316 0.5
v -1 0.4000001 0.5
v -0.3910083 1.4 0.4999999
v -1 2.4 0.4999999
v -0.3910087 2.013145 0.4999999
v -1 1.4 -0.5000001
v -1 1.4 0.4999999
v -1 0.4000001 0.5
v -1 0.4000001 -0.5
v -0.5826073 -0.4972296 -0.5
v 0 0.05986691 -0.5
v -0.3910083 0.5240316 -0.5
v -1 0.4000001 -0.5
v -1.125954 -0.4911494 -0.5
v -1.386812 0.02424002 -0.5
v -1.388643 -0.2284608 -0.5
v -0.3315401 3.06846 0.4999999
v -1 2.4 0.4999999
v -1 2.4 -0.5000001
v -0.1414213 3.258579 -0.5000001
v 0 3.4 0.07796224
v 0 3.4 -0.3000001
v -0.3910083 0.5240316 -0.5
v 0 0.05986691 -0.5
v 0 0.9240313 -0.5
v 0 2.404153 -0.5000001
v -0.3910087 2.013145 -0.5000001
v -0.3910083 0.5240316 0.5
v -0.3910083 1.4 0.4999999
v -0.3910083 1.4 0.1999999
v -0.3910083 0.5240316 0.2
v -0.3910087 2.013145 0.4999999
v 0 2.404153 0.4999999
v 0 2.404153 0.1999999
v -0.3910087 2.013145 0.1999999
v -0.3910083 0.5240316 0.5
v -0.1817461 0.7381063 0.5
v 0 0.6640315 0.5
v 0 0.05986691 0.5
v -0.3910083 1.4 0.4999999
v -0.3910087 2.013145 0.4999999
v -0.3910087 2.013145 0.1999999
v -0.3910083 1.4 0.1999999
v -0.3910083 0.5240316 0.2
v -0.3910083 1.4 0.1999999
v 0 0.9240317 0.2
v -0.3910087 2.013145 0.1999999
v 0 2.404153 0.1999999
v -0.3910083 0.5240316 0.5
v 0 0.05986691 0.5
v -0.5826073 -0.4972296 0.5
v -1 0.4000001 0.5
v -1.125954 -0.4911494 0.5
v -1.243356 0.1635971 0.5
v -1.247221 -0.3698821 0.5
v 2.26967 -2.110421 -0.4999999
v 0 0.05986691 -0.5
v 0 0.05986691 0.5
v 2.26967 -2.110421 0.1400001
v 2.009479 -1.861622 0.5000001
v -0.8572536 -0.75985 -0.12
v -1.125954 -0.4911494 -0.5
v -1.388643 -0.2284608 -0.5
v -1.515922 -0.1011815 -0.32
v -1.515922 -0.1011815 0.12
v -0.8572536 -0.75985 0.12
v -1.247221 -0.3698821 0.5
v -1.125954 -0.4911494 0.5
v 2.659217 -1.211811 0.5000001
v 2.662879 -1.717212 0.5000001
v 2.524229 -1.855862 0.5000001
v 1 0.4000001 0.5
v 2.009479 -1.861622 0.5000001
v 0 0.05986691 0.5
v 0.3910083 0.5240316 0.5
v 0 0.05986691 0.5
v 0 0.05986691 -0.5
v -0.5826073 -0.4972296 -0.5
v -0.8572536 -0.75985 -0.12
v -0.8572536 -0.75985 0.12
v -0.5826073 -0.4972296 0.5
v -1.515922 -0.1011815 -0.32
v -1.386812 0.02424002 -0.5
v -1 0.4000001 -0.5
v -1 0.4000001 0.5
v -1.515922 -0.1011815 0.12
v -1.243356 0.1635971 0.5
v -0.3315401 3.06846 0.4999999
v 0 2.966765 0.4999999
v 0 2.404153 0.4999999
v -0.3910087 2.013145 0.4999999
v -1 2.4 0.4999999
v 0.6249218 2.775078 0.4999999
v 1 2.4 0.4999999
v 0.3910087 2.013145 0.4999999
v 0 2.966765 0.4999999
v 0 2.404153 0.4999999
v 0 2.966765 0.4999999
v -0.3315401 3.06846 0.4999999
v 0 3.4 0.07796224
v 0.6249218 2.775078 0.4999999
v 0 3.2 -0.5000001
v 0.1414213 3.258579 -0.5000001
v 0 3.4 -0.3000001
v -0.1414213 3.258579 -0.5000001
v 0 0.9240317 0.2
v 0.3910083 0.5240316 0.2
v 0.3910083 0.5240316 0.5
v 0.3376916 0.5785747 0.5
v 0 0.9240317 0.24
vt 0.3776585 0.7649193
vt 0.361039 0.7974192
vt 0.3771302 0.7974192
vt 0.4970476 0.4954477
vt 0.5773869 0.4954477
vt 0.5375126 0.4382215
vt 0.5188066 0.477962
vt 0.4774463 0.5351882
vt 0.5592716 0.5351882
vt 0.4977723 0.5129335
vt 0.5376467 0.4557074
vt 0.4573073 0.4557074
vt 0.3166432 0.8160217
vt 0.3251817 0.7685217
vt 0.3251817 0.8160217
vt 0.4464843 0.6030769
vt 0.4124135 0.5555769
vt 0.4459906 0.5555769
vt 0.3251817 0.7385217
vt 0.3166432 0.6910216
vt 0.3251817 0.6910216
vt 0.1862698 0.9813417
vt 0.163601 1.012813
vt 0.1637754 0.9806257
vt 0.3776585 0.7649193
vt 0.3544178 0.7974193
vt 0.361039 0.7974192
vt 0.5621546 0.6724193
vt 0.4371546 0.6724193
vt 0.4371546 0.7974193
vt 0.5621546 0.7974193
vt 0.4367015 0.726941
vt 0.4855776 0.7758168
vt 0.4855776 0.875298
vt 0.4678999 0.8826203
vt 0.3605775 0.775298
vt 0.4367015 0.650298
vt 0.3605775 0.650298
vt 0.4367015 0.5408019
vt 0.3605775 0.525298
vt 0.6660157 0.504534
vt 0.6660157 0.379534
vt 0.5898917 0.3950379
vt 0.5898917 0.504534
vt 0.6660157 0.629534
vt 0.5898918 0.581177
vt 0.4371546 0.6945663
vt 0.3121546 0.6945663
vt 0.3121546 0.8195663
vt 0.4371546 0.8195663
vt 0.1990457 0.4804677
vt 0.1628838 0.4804677
vt 0.1628838 0.5393263
vt 0.1862947 0.5724344
vt 0.199046 0.5724344
vt 0.2224568 0.5393264
vt 0.2224567 0.5135757
vt 0.3544178 0.7974193
vt 0.3276585 0.7974193
vt 0.3276585 0.7599193
vt 0.3776585 0.7599193
vt 0.3776585 0.7649193
vt 0.3819941 0.5555769
vt 0.3819941 0.680577
vt 0.5893961 0.680577
vt 0.6216737 0.635577
vt 0.6216737 0.6005769
vt 0.5893962 0.5555769
vt 0.4421915 0.5476118
vt 0.5495139 0.5476118
vt 0.5495139 0.6726117
vt 0.502629 0.6726117
vt 0.4245138 0.6198571
vt 0.4245138 0.5726118
vt 0.3605775 0.650298
vt 0.4367015 0.5408019
vt 0.3605775 0.525298
vt 0.4367015 0.650298
vt 0.3605775 0.775298
vt 0.4367015 0.726941
vt 0.4678999 0.8826204
vt 0.4855776 0.7758168
vt 0.4855776 0.8752979
vt 0.2998975 0.4460812
vt 0.3487735 0.4960809
vt 0.3487735 0.3880606
vt 0.3487736 0.6810961
vt 0.2998975 0.6322203
vt 0.5776585 0.7974193
vt 0.5776585 0.7599193
vt 0.6871546 0.7599193
vt 0.6871546 0.7974193
vt 0.5485306 0.7974193
vt 0.5485306 0.7599193
vt 0.4996546 0.7599193
vt 0.4996546 0.7974193
vt 0.5485306 0.8129232
vt 0.5485306 0.7453704
vt 0.5143598 0.8275553
vt 0.5223728 0.8396825
vt 0.4371546 0.7974193
vt 0.4371546 0.7599193
vt 0.5137976 0.7599193
vt 0.5137976 0.7974193
vt 0.5406905 0.6157625
vt 0.5896183 0.5668347
vt 0.5896183 0.4901106
vt 0.5896183 0.3804986
vt 0.5406905 0.4305516
vt 0.2801502 0.634868
vt 0.2106574 0.6326565
vt 0.1653197 0.6955997
vt 0.1630784 1.109246
vt 0.2802041 1.196434
vt 0.2044917 1.203277
vt 0.5621546 0.6724193
vt 0.5621546 0.7974193
vt 0.4371546 0.7974193
vt 0.4371546 0.6724193
vt 0.6660157 0.504534
vt 0.5898917 0.3950379
vt 0.6660157 0.379534
vt 0.5898917 0.504534
vt 0.6660157 0.629534
vt 0.5898918 0.581177
vt 0.4371546 0.6945663
vt 0.4371546 0.8195663
vt 0.3121546 0.8195663
vt 0.3121546 0.6945663
vt 0.2801903 1.052284
vt 0.2802041 1.196434
vt 0.2044917 1.203277
vt 0.1630784 1.109246
vt 0.2326955 0.9828192
vt 0.163601 1.012813
vt 0.1862698 0.9813417
vt 0.4659564 0.6726118
vt 0.5495139 0.6726117
vt 0.5495139 0.5476118
vt 0.4421915 0.5476118
vt 0.4245138 0.6198571
vt 0.4245138 0.5726118
vt 0.2998975 0.4460812
vt 0.3487735 0.3880606
vt 0.3487735 0.4960809
vt 0.3487736 0.6810961
vt 0.2998975 0.6322203
vt 0.5776585 0.7974193
vt 0.6871546 0.7974193
vt 0.6871546 0.7599193
vt 0.5776585 0.7599193
vt 0.5485306 0.7974193
vt 0.4996546 0.7974193
vt 0.4996546 0.7599193
vt 0.5485306 0.7599193
vt 0.5485306 0.8129232
vt 0.5223728 0.8396825
vt 0.5143598 0.8275552
vt 0.5485306 0.7453704
vt 0.4371546 0.7974193
vt 0.5137976 0.7974193
vt 0.5137976 0.7599193
vt 0.4371546 0.7599193
vt 0.5896183 0.3804986
vt 0.5896183 0.4901106
vt 0.5406905 0.4305516
vt 0.5896183 0.5668347
vt 0.5406905 0.6157625
vt 0.4814326 0.7801601
vt 0.4057325 0.7751856
vt 0.4060007 0.6744241
vt 0.5230117 0.714537
vt 0.4536179 0.6259878
vt 0.52279 0.672128
vt 0.475051 0.6255651
vt 0.3690923 0.6910216
vt 0.2985305 0.6910216
vt 0.2985305 0.8160216
vt 0.3690923 0.7710217
vt 0.3610032 0.8160217
vt 0.1512111 0.4234483
vt 0.1264995 0.388501
vt 0.1023407 0.388501
vt 0.09063536 0.405055
vt 0.0906356 0.4455203
vt 0.1512111 0.4455203
vt 0.1153472 0.4804677
vt 0.1264997 0.4804677
vt 0.5215005 0.4253898
vt 0.476274 0.3812776
vt 0.4517686 0.3817608
vt 0.5230117 0.714537
vt 0.4066575 0.427648
vt 0.4057325 0.7751856
vt 0.4814326 0.7801601
vt 0.2985305 0.8160216
vt 0.2985305 0.6910216
vt 0.3166432 0.6910216
vt 0.3251817 0.7385217
vt 0.3251817 0.7685217
vt 0.3166432 0.8160217
vt 0.4464843 0.6580769
vt 0.4303455 0.6805769
vt 0.3819941 0.680577
vt 0.3819941 0.5555769
vt 0.4464843 0.6030769
vt 0.4124135 0.5555769
vt 0.4514604 0.6713703
vt 0.4311449 0.6330771
vt 0.4808734 0.5833488
vt 0.5499944 0.583349
vt 0.5696285 0.6713703
vt 0.5033234 0.6713703
vt 0.5696285 0.6713703
vt 0.5499944 0.583349
vt 0.4311449 0.6330771
vt 0.4808734 0.5833488
vt 0.3110687 0.6342679
vt 0.3022837 0.6801689
vt 0.3626726 0.6615764
vt 0.3276276 0.547749
vt 0.4855776 0.8752979
vt 0.4678999 0.8826203
vt 0.4855776 0.900298
vt 0.4855776 0.8826203
vt 0.3776585 0.7599193
vt 0.3276585 0.7599193
vt 0.3276585 0.7974193
vt 0.3544178 0.7974193
vt 0.3776585 0.7649193
vn 0.2769262 0.6794523 0.679453
vn 0.2769262 0.6794523 0.679453
vn 0.2769262 0.6794523 0.679453
vn 0.8145105 0.005901253 0.5801188
vn 0.8145105 0.005901253 0.5801188
vn 0.8145105 0.005901253 0.5801188
vn 0.009170485 -0.8195073 0.5729953
vn 0.009170485 -0.8195073 0.5729953
vn 0.009170485 -0.8195073 0.5729953
vn 0.81451 0.005902318 -0.5801193
vn 0.81451 0.005902318 -0.5801193
vn 0.81451 0.005902318 -0.5801193
vn -0.009170433 -0.8195075 0.5729951
vn -0.009170433 -0.8195075 0.5729951
vn -0.009170433 -0.8195075 0.5729951
vn -0.8145103 0.005901532 0.5801191
vn -0.8145103 0.005901532 0.5801191
vn -0.8145103 0.005901532 0.5801191
vn -0.009170433 -0.8195075 -0.5729951
vn -0.009170433 -0.8195075 -0.5729951
vn -0.009170433 -0.8195075 -0.5729951
vn -0.8145102 0.005902318 -0.5801193
vn -0.8145102 0.005902318 -0.5801193
vn -0.8145102 0.005902318 -0.5801193
vn 0.1761439 0.6960505 0.6960511
vn 0.1761439 0.6960505 0.6960511
vn 0.1761439 0.6960505 0.6960511
vn 1 0 0
vn 1 0 0
vn 1 0 0
vn 1 0 0
vn 0 0 -1
vn 0 0 -1
vn 0 0 -1
vn 0 0 -1
vn 0 0 -1
vn 0 0 -1
vn 0 0 -1
vn 0 0 -1
vn 0 0 -1
vn 0 0 1
vn 0 0 1
vn 0 0 1
vn 0 0 1
vn 0 0 1
vn 0 0 1
vn 1 0 0
vn 1 0 0
vn 1 0 0
vn 1 0 0
vn 0.7071067 -0.7071068 0
vn 0.7071067 -0.7071068 0
vn 0.7071067 -0.7071068 0
vn 0.7071067 -0.7071068 0
vn 0.7071067 -0.7071068 0
vn 0.7071067 -0.7071068 0
vn 0.7071067 -0.7071068 0
vn -0.7150987 0.6990235 0
vn -0.7150987 0.6990235 0
vn -0.7150987 0.6990235 0
vn -0.7150987 0.6990235 0
vn -0.7150987 0.6990235 0
vn 0.6967857 0.7172794 0
vn 0.6967857 0.7172794 0
vn 0.6967857 0.7172794 0
vn 0.6967857 0.7172794 0
vn 0.6967857 0.7172794 0
vn 0.6967857 0.7172794 0
vn 0.7071068 0.7071068 0
vn 0.7071068 0.7071068 0
vn 0.7071068 0.7071068 0
vn 0.7071068 0.7071068 0
vn 0.7071068 0.7071068 0
vn 0.7071068 0.7071068 0
vn 0 0 -1
vn 0 0 -1
vn 0 0 -1
vn 0 0 -1
vn 0 0 -1
vn 0 0 -1
vn 0 0 -1
vn 0 0 -1
vn 0 0 -1
vn 0 0 -1
vn 0 0 -1
vn 0 0 -1
vn 0 0 -1
vn 0 0 -1
vn -1 0 0
vn -1 0 0
vn -1 0 0
vn -1 0 0
vn -0.7071064 -0.7071071 0
vn -0.7071064 -0.7071071 0
vn -0.7071064 -0.7071071 0
vn -0.7071064 -0.7071071 0
vn 0 0 1
vn 0 0 1
vn 0 0 1
vn 0 0 1
vn -1 0 0
vn -1 0 0
vn -1 0 0
vn -1 0 0
vn 0 0 1
vn 0 0 1
vn 0 0 1
vn 0 0 1
vn 0 0 1
vn 0 0 -1
vn 0 0 -1
vn 0 0 -1
vn 0 0 -1
vn 0 0 -1
vn 0 0 -1
vn -1 0 0
vn -1 0 0
vn -1 0 0
vn -1 0 0
vn 0 0 1
vn 0 0 1
vn 0 0 1
vn 0 0 1
vn 0 0 1
vn 0 0 1
vn -1 0 0
vn -1 0 0
vn -1 0 0
vn -1 0 0
vn 0 0 -1
vn 0 0 -1
vn 0 0 -1
vn 0 0 -1
vn 0 0 -1
vn 0 0 -1
vn 0 0 -1
vn -0.7071068 0.7071068 0
vn -0.7071068 0.7071068 0
vn -0.7071068 0.7071068 0
vn -0.7071068 0.7071068 0
vn -0.7071068 0.7071068 0
vn -0.7071068 0.7071068 0
vn 0 0 -1
vn 0 0 -1
vn 0 0 -1
vn 0 0 -1
vn 0 0 -1
vn 1 0 0
vn 1 0 0
vn 1 0 0
vn 1 0 0
vn 0.7071064 -0.7071071 0
vn 0.7071064 -0.7071071 0
vn 0.7071064 -0.7071071 0
vn 0.7071064 -0.7071071 0
vn 0 0 1
vn 0 0 1
vn 0 0 1
vn 0 0 1
vn 1 0 0
vn 1 0 0
vn 1 0 0
vn 1 0 0
vn 0 0 1
vn 0 0 1
vn 0 0 1
vn 0 0 1
vn 0 0 1
vn 0 0 1
vn 0 0 1
vn 0 0 1
vn 0 0 1
vn 0 0 1
vn 0 0 1
vn 0 0 1
vn -0.691106 -0.7227533 0
vn -0.691106 -0.7227533 0
vn -0.691106 -0.7227533 0
vn -0.691106 -0.7227533 0
vn -0.691106 -0.7227533 0
vn -0.7071066 -0.7071069 0
vn -0.7071066 -0.7071069 0
vn -0.7071066 -0.7071069 0
vn -0.7071066 -0.7071069 0
vn -0.7071066 -0.7071069 0
vn -0.7071066 -0.7071069 0
vn -0.7071066 -0.7071069 0
vn -0.7071066 -0.7071069 0
vn 0 0 1
vn 0 0 1
vn 0 0 1
vn 0 0 1
vn 0 0 1
vn 0 0 1
vn 0 0 1
vn 0.691106 -0.7227533 0
vn 0.691106 -0.7227533 0
vn 0.691106 -0.7227533 0
vn 0.691106 -0.7227533 0
vn 0.691106 -0.7227533 0
vn 0.691106 -0.7227533 0
vn -0.6967857 0.7172794 0
vn -0.6967857 0.7172794 0
vn -0.6967857 0.7172794 0
vn -0.6967857 0.7172794 0
vn -0.6967857 0.7172794 0
vn -0.6967857 0.7172794 0
vn 0 0 1
vn 0 0 1
vn 0 0 1
vn 0 0 1
vn 0 0 1
vn 0 0 1
vn 0 0 1
vn 0 0 1
vn 0 0 1
vn 0 0 1
vn 0.2092969 0.6823345 0.7004387
vn 0.2092969 0.6823345 0.7004387
vn 0.2092969 0.6823345 0.7004387
vn 0.2092969 0.6823345 0.7004387
vn 0 0.7071077 -0.7071058
vn 0 0.7071077 -0.7071058
vn 0 0.7071077 -0.7071058
vn 0 0.7071077 -0.7071058
vn 0.7150988 0.6990234 0
vn 0.7150988 0.6990234 0
vn 0.7150988 0.6990234 0
vn 0.7150988 0.6990234 0
vn 0.7150988 0.6990234 0
g westgarden_arch_top_0
f 3/3/3 2/2/2 1/1/1
f 6/6/6 5/5/5 4/4/4
f 9/9/9 8/8/8 7/7/7
f 12/12/12 11/11/11 10/10/10
f 15/15/15 14/14/14 13/13/13
f 18/18/18 17/17/17 16/16/16
f 21/21/21 20/20/20 19/19/19
f 24/24/24 23/23/23 22/22/22
f 27/27/27 26/26/26 25/25/25
f 30/30/30 29/29/29 28/28/28
f 31/31/31 30/30/30 28/28/28
f 34/34/34 33/33/33 32/32/32
f 32/32/32 35/35/35 34/34/34
f 32/32/32 36/36/36 35/35/35
f 32/32/32 37/37/37 36/36/36
f 37/37/37 38/38/38 36/36/36
f 37/37/37 39/39/39 38/38/38
f 39/39/39 40/40/40 38/38/38
f 43/43/43 42/42/42 41/41/41
f 44/44/44 43/43/43 41/41/41
f 44/44/44 41/41/41 45/45/45
f 46/46/46 44/44/44 45/45/45
f 49/49/49 48/48/48 47/47/47
f 50/50/50 49/49/49 47/47/47
f 53/53/53 52/52/52 51/51/51
f 51/51/51 54/54/54 53/53/53
f 51/51/51 55/55/55 54/54/54
f 51/51/51 56/56/56 55/55/55
f 51/51/51 57/57/57 56/56/56
f 60/60/60 59/59/59 58/58/58
f 58/58/58 61/61/61 60/60/60
f 58/58/58 62/62/62 61/61/61
f 65/65/65 64/64/64 63/63/63
f 63/63/63 66/66/66 65/65/65
f 63/63/63 67/67/67 66/66/66
f 63/63/63 68/68/68 67/67/67
f 71/71/71 70/70/70 69/69/69
f 69/69/69 72/72/72 71/71/71
f 69/69/69 73/73/73 72/72/72
f 69/69/69 74/74/74 73/73/73
f 77/77/77 76/76/76 75/75/75
f 76/76/76 78/78/78 75/75/75
f 75/75/75 78/78/78 79/79/79
f 78/78/78 80/80/80 79/79/79
f 81/81/81 79/79/79 80/80/80
f 80/80/80 82/82/82 81/81/81
f 82/82/82 83/83/83 81/81/81
f 86/86/86 85/85/85 84/84/84
f 85/85/85 87/87/87 84/84/84
f 87/87/87 88/88/88 84/84/84
f 91/91/91 90/90/90 89/89/89
f 92/92/92 91/91/91 89/89/89
f 95/95/95 94/94/94 93/93/93
f 96/96/96 95/95/95 93/93/93
f 99/99/99 98/98/98 97/97/97
f 100/100/100 99/99/99 97/97/97
f 103/103/103 102/102/102 101/101/101
f 104/104/104 103/103/103 101/101/101
f 107/107/107 106/106/106 105/105/105
f 105/105/105 108/108/108 107/107/107
f 105/105/105 109/109/109 108/108/108
f 112/112/112 111/111/111 110/110/110
f 110/110/110 113/113/113 112/112/112
f 110/110/110 114/114/114 113/113/113
f 114/114/114 115/115/115 113/113/113
f 118/118/118 117/117/117 116/116/116
f 119/119/119 118/118/118 116/116/116
f 122/122/122 121/121/121 120/120/120
f 121/121/121 123/123/123 120/120/120
f 120/120/120 123/123/123 124/124/124
f 123/123/123 125/125/125 124/124/124
f 128/128/128 127/127/127 126/126/126
f 129/129/129 128/128/128 126/126/126
f 132/132/132 131/131/131 130/130/130
f 130/130/130 133/133/133 132/132/132
f 130/130/130 134/134/134 133/133/133
f 134/134/134 135/135/135 133/133/133
f 134/134/134 136/136/136 135/135/135
f 139/139/139 138/138/138 137/137/137
f 137/137/137 140/140/140 139/139/139
f 137/137/137 141/141/141 140/140/140
f 141/141/141 142/142/142 140/140/140
f 145/145/145 144/144/144 143/143/143
f 146/146/146 145/145/145 143/143/143
f 147/147/147 146/146/146 143/143/143
f 150/150/150 149/149/149 148/148/148
f 151/151/151 150/150/150 148/148/148
f 154/154/154 153/153/153 152/152/152
f 155/155/155 154/154/154 152/152/152
f 158/158/158 157/157/157 156/156/156
f 159/159/159 158/158/158 156/156/156
f 162/162/162 161/161/161 160/160/160
f 163/163/163 162/162/162 160/160/160
f 166/166/166 165/165/165 164/164/164
f 167/167/167 165/165/165 166/166/166
f 166/166/166 168/168/168 167/167/167
f 171/171/171 170/170/170 169/169/169
f 169/169/169 172/172/172 171/171/171
f 172/172/172 173/173/173 171/171/171
f 172/172/172 174/174/174 173/173/173
f 174/174/174 175/175/175 173/173/173
f 178/178/178 177/177/177 176/176/176
f 176/176/176 179/179/179 178/178/178
f 179/179/179 180/180/180 178/178/178
f 183/183/183 182/182/182 181/181/181
f 181/181/181 184/184/184 183/183/183
f 181/181/181 185/185/185 184/184/184
f 181/181/181 186/186/186 185/185/185
f 186/186/186 187/187/187 185/185/185
f 186/186/186 188/188/188 187/187/187
f 191/191/191 190/190/190 189/189/189
f 189/189/189 192/192/192 191/191/191
f 192/192/192 193/193/193 191/191/191
f 192/192/192 194/194/194 193/193/193
f 192/192/192 195/195/195 194/194/194
f 198/198/198 197/197/197 196/196/196
f 196/196/196 199/199/199 198/198/198
f 196/196/196 200/200/200 199/199/199
f 196/196/196 201/201/201 200/200/200
f 204/204/204 203/203/203 202/202/202
f 202/202/202 205/205/205 204/204/204
f 202/202/202 206/206/206 205/205/205
f 206/206/206 207/207/207 205/205/205
f 210/210/210 209/209/209 208/208/208
f 208/208/208 211/211/211 210/210/210
f 208/208/208 212/212/212 211/211/211
f 215/215/215 214/214/214 213/213/213
f 213/213/213 216/216/216 215/215/215
f 216/216/216 217/217/217 215/215/215
f 220/220/220 219/219/219 218/218/218
f 221/221/221 220/220/220 218/218/218
f 224/224/224 223/223/223 222/222/222
f 225/225/225 224/224/224 222/222/222
f 228/228/228 227/227/227 226/226/226
f 226/226/226 229/229/229 228/228/228
f 226/226/226 230/230/230 229/229/229
