g windchime_base
v -0.2709753 0.3671981 -0.1280206
v -0.2709753 0.5492077 -0.1280206
v -0.2709753 0.5492076 0.1245631
v -0.2709753 0.3671981 0.1245631
v -0.2709753 0.5492077 -0.1280206
v -0.01490456 0.5492077 -0.1280206
v -0.01490456 0.5492076 0.1245631
v -0.2709753 0.5492076 0.1245631
v -0.01490456 -0.3033567 -0.1280205
v -0.01490456 -1.077349 -0.1280205
v -0.01490456 -1.077349 0.1245632
v -0.01490456 -0.3033568 0.1245631
v -0.01490456 0.2647573 -0.1280205
v -0.01490456 0.2647573 0.1245631
v -0.01490456 0.5492077 -0.1280206
v -0.01490456 0.5492076 0.1245631
v -0.01490456 -1.077349 -0.1280205
v -0.2709753 -1.077349 -0.1280205
v -0.2709753 -1.077349 0.1245632
v -0.01490456 -1.077349 0.1245632
v -0.2709753 -0.4578375 -0.1280205
v -0.2709753 -1.077349 -0.1280205
v -0.01490456 -1.077349 -0.1280205
v -0.01490456 -0.3033567 -0.1280205
v -0.2709753 -0.1837242 -0.1209024
v -1.080655 0.1590684 -0.1280204
v -0.2709753 0.1591467 -0.1280205
v -0.7572564 0.1590419 -0.1280205
v -0.01490456 0.2647573 -0.1280205
v -0.9224125 0.3664526 -0.1280206
v -1.724041 0.1590878 -0.128021
v -1.723995 0.3664492 -0.1280211
v -0.2709753 0.3671981 -0.1280206
v -0.2709753 0.5492077 -0.1280206
v -0.01490456 0.5492077 -0.1280206
v -0.01490456 -0.3033568 0.1245631
v -0.01490456 -1.077349 0.1245632
v -0.2709753 -1.077349 0.1245632
v -0.2709753 -0.4578376 0.1245631
v -0.2709753 -0.1837242 0.1316812
v -0.01490456 0.2647573 0.1245631
v -0.7572564 0.1590419 0.1245632
v -0.2709753 0.1591467 0.1245631
v -1.080655 0.1590684 0.1245632
v -0.2709753 0.3671981 0.1245631
v -0.01490456 0.5492076 0.1245631
v -0.2709753 0.5492076 0.1245631
v -0.9224125 0.3664527 0.124563
v -1.723995 0.3664492 0.1245626
v -1.724042 0.1590878 0.1245626
v -0.2709753 -0.1837242 0.1316812
v -0.7572564 0.1590419 0.1245632
v -0.7572564 0.1590419 -0.1280205
v -0.2709753 -0.1837242 -0.1209024
v -0.2709753 -1.077349 -0.1280205
v -0.2709753 -0.4578375 -0.1280205
v -0.2709753 -0.4578376 0.1245631
v -0.2709753 -1.077349 0.1245632
v -0.2709753 -0.4578375 -0.1280205
v -1.080655 0.1590684 -0.1280204
v -1.080655 0.1590684 0.1245632
v -0.2709753 -0.4578376 0.1245631
v -0.2709753 -0.1837242 -0.1209024
v -0.2709753 0.1591467 -0.1280205
v -0.2709753 0.1591467 0.1245631
v -0.2709753 -0.1837242 0.1316812
v -0.9224125 0.3664527 0.124563
v -0.2709753 0.3671981 -0.1280206
v -0.2709753 0.3671981 0.1245631
v -0.9224125 0.3664526 -0.1280206
v -1.723995 0.3664492 -0.1280211
v -1.723995 0.3664492 0.1245626
v -0.7572564 0.1590419 -0.1280205
v -0.7572564 0.1590419 0.1245632
v -0.2709753 0.1591467 0.1245631
v -0.2709753 0.1591467 -0.1280205
v -1.724041 0.1590878 -0.128021
v -1.723995 0.3664492 -0.1280211
v -1.723995 0.3664492 0.1245626
v -1.724042 0.1590878 0.1245626
v -1.080655 0.1590684 -0.1280204
v -1.724041 0.1590878 -0.128021
v -1.724042 0.1590878 0.1245626
v -1.080655 0.1590684 0.1245632
vt 0.04970913 0.9436938
vt 0.04943828 0.9436938
vt 0.04943828 0.9441261
vt 0.04970913 0.9441261
vt 0.04869554 0.9470012
vt 0.04869554 0.9463974
vt 0.04832754 0.9463974
vt 0.04832754 0.9470012
vt 0.04869554 0.9449803
vt 0.04869554 0.9436938
vt 0.04832754 0.9436938
vt 0.04832754 0.9449803
vt 0.04869554 0.9459245
vt 0.04832754 0.9459245
vt 0.04869554 0.9463974
vt 0.04832754 0.9463974
vt 0.05594746 0.9387629
vt 0.05594746 0.9393505
vt 0.05631547 0.9393505
vt 0.05631547 0.9387629
vt 0.0534747 0.942955
vt 0.05195351 0.942955
vt 0.05195351 0.9436938
vt 0.05385404 0.9436938
vt 0.05414781 0.942955
vt 0.0549895 0.9406191
vt 0.05498967 0.942955
vt 0.05498943 0.9415521
vt 0.055249 0.9436938
vt 0.05549871 0.9410756
vt 0.05498954 0.9387629
vt 0.05549871 0.9387631
vt 0.05550056 0.942955
vt 0.05594746 0.942955
vt 0.05594746 0.9436938
vt 0.05005299 0.9436938
vt 0.05195349 0.9436938
vt 0.05195351 0.942955
vt 0.05043231 0.942955
vt 0.04975922 0.942955
vt 0.04865801 0.9436938
vt 0.04891759 0.9415521
vt 0.04891732 0.942955
vt 0.04891752 0.9406191
vt 0.04840646 0.942955
vt 0.04795954 0.9436938
vt 0.04795954 0.942955
vt 0.0484083 0.9410756
vt 0.04840831 0.9387631
vt 0.04891747 0.9387629
vt 0.04907028 0.9436938
vt 0.04907028 0.9454103
vt 0.04943828 0.9454133
vt 0.04943828 0.9436969
vt 0.05594746 0.9393505
vt 0.05594746 0.9404337
vt 0.05631547 0.9404337
vt 0.05631547 0.9393505
vt 0.05594746 0.9404337
vt 0.05594746 0.9433705
vt 0.05631547 0.9433705
vt 0.05631547 0.9404337
vt 0.04870229 0.9436969
vt 0.04869554 0.9442964
vt 0.04906354 0.9442933
vt 0.04907028 0.9436938
vt 0.04795954 0.9452287
vt 0.04832754 0.9436938
vt 0.04795954 0.9436938
vt 0.04832754 0.9452287
vt 0.04832754 0.9471189
vt 0.04795954 0.9471189
vt 0.04870229 0.9454121
vt 0.04907028 0.9454091
vt 0.04906354 0.9442933
vt 0.04869554 0.9442964
vt 0.05594746 0.9448469
vt 0.05594746 0.9452094
vt 0.05631547 0.9452094
vt 0.05631547 0.9448469
vt 0.05594746 0.9433705
vt 0.05594746 0.9448469
vt 0.05631547 0.9448469
vt 0.05631547 0.9433705
vn -1 0 0
vn -1 0 0
vn -1 0 0
vn -1 0 0
vn 0 1 0
vn 0 1 0
vn 0 1 0
vn 0 1 0
vn 1 0 0
vn 1 0 0
vn 1 0 0
vn 1 0 0
vn 1 0 0
vn 1 0 0
vn 1 0 0
vn 1 0 0
vn 0 -1 0
vn 0 -1 0
vn 0 -1 0
vn 0 -1 0
vn 0 0 -1
vn 0 0 -1
vn 0 0 -1
vn 0 0 -1
vn -0.01411082 -0.00781263 -0.9998699
vn 0 0 -1
vn -0.01411082 -0.00781263 -0.9998699
vn 0 0 -1
vn -0.01411082 -0.00781263 -0.9998699
vn 0 0 -1
vn 0 0 -1
vn 0 0 -1
vn 0 0 -1
vn 0 0 -1
vn 0 0 -1
vn 0 0 1
vn 0 0 1
vn 0 0 1
vn 0 0 1
vn 0.0141108 0.007812695 0.9998699
vn 0.0141108 0.007812695 0.9998699
vn -0.01319294 -0.01039995 0.9998589
vn 0.0141108 0.007812695 0.9998699
vn -0.01319294 -0.01039995 0.9998589
vn 0 0 1
vn 0 0 1
vn 0 0 1
vn 0 0 1
vn 0 0 1
vn 0 0 1
vn 0.576132 0.8173567 0
vn 0.576132 0.8173567 0
vn 0.576132 0.8173567 0
vn 0.576132 0.8173567 0
vn -1 0 0
vn -1 0 0
vn -1 0 0
vn -1 0 0
vn -0.6060477 -0.7954283 0
vn -0.6060477 -0.7954283 0
vn -0.6060477 -0.7954283 0
vn -0.6060477 -0.7954283 0
vn -1 0 0
vn -1 0 0
vn -1 0 0
vn -1 0 0
vn -0.001144308 0.9999994 0
vn -0.001144308 0.9999994 0
vn -0.001144308 0.9999994 0
vn -0.001144308 0.9999994 0
vn 0 1 0
vn 0 1 0
vn 0.0002154822 -1 0
vn 0.0002154822 -1 0
vn 0.0002154822 -1 0
vn 0.0002154822 -1 0
vn -1 0.0002264645 0
vn -1 0.0002264645 0
vn -1 0.0002264645 0
vn -1 0.0002264645 0
vn -3.022446E-05 -1 0
vn -3.022446E-05 -1 0
vn -3.022446E-05 -1 0
vn -3.022446E-05 -1 0
g windchime_base_0
f 3/3/3 2/2/2 1/1/1
f 4/4/4 3/3/3 1/1/1
f 7/7/7 6/6/6 5/5/5
f 8/8/8 7/7/7 5/5/5
f 11/11/11 10/10/10 9/9/9
f 12/12/12 11/11/11 9/9/9
f 12/12/12 9/9/9 13/13/13
f 14/14/14 12/12/12 13/13/13
f 14/14/14 13/13/13 15/15/15
f 16/16/16 14/14/14 15/15/15
f 19/19/19 18/18/18 17/17/17
f 20/20/20 19/19/19 17/17/17
f 23/23/23 22/22/22 21/21/21
f 24/24/24 23/23/23 21/21/21
f 24/24/24 21/21/21 25/25/25
f 21/21/21 26/26/26 25/25/25
f 24/24/24 25/25/25 27/27/27
f 26/26/26 28/28/28 25/25/25
f 29/29/29 24/24/24 27/27/27
f 26/26/26 30/30/30 28/28/28
f 27/27/27 28/28/28 30/30/30
f 26/26/26 31/31/31 30/30/30
f 31/31/31 32/32/32 30/30/30
f 33/33/33 27/27/27 30/30/30
f 29/29/29 27/27/27 33/33/33
f 29/29/29 33/33/33 34/34/34
f 35/35/35 29/29/29 34/34/34
f 38/38/38 37/37/37 36/36/36
f 39/39/39 38/38/38 36/36/36
f 40/40/40 39/39/39 36/36/36
f 40/40/40 36/36/36 41/41/41
f 40/40/40 42/42/42 39/39/39
f 43/43/43 40/40/40 41/41/41
f 42/42/42 44/44/44 39/39/39
f 45/45/45 43/43/43 41/41/41
f 43/43/43 45/45/45 42/42/42
f 45/45/45 41/41/41 46/46/46
f 47/47/47 45/45/45 46/46/46
f 45/45/45 48/48/48 42/42/42
f 42/42/42 48/48/48 44/44/44
f 48/48/48 49/49/49 44/44/44
f 49/49/49 50/50/50 44/44/44
f 53/53/53 52/52/52 51/51/51
f 54/54/54 53/53/53 51/51/51
f 57/57/57 56/56/56 55/55/55
f 58/58/58 57/57/57 55/55/55
f 61/61/61 60/60/60 59/59/59
f 62/62/62 61/61/61 59/59/59
f 65/65/65 64/64/64 63/63/63
f 66/66/66 65/65/65 63/63/63
f 69/69/69 68/68/68 67/67/67
f 68/68/68 70/70/70 67/67/67
f 70/70/70 71/71/71 67/67/67
f 71/71/71 72/72/72 67/67/67
f 75/75/75 74/74/74 73/73/73
f 76/76/76 75/75/75 73/73/73
f 79/79/79 78/78/78 77/77/77
f 80/80/80 79/79/79 77/77/77
f 83/83/83 82/82/82 81/81/81
f 84/84/84 83/83/83 81/81/81
