g wooden platform
v -2.100312 -0.3505346 -2.007415
v -2.075849 -0.3517831 1.994336
v -0.9860717 -0.3179073 2.046603
v -1.00124 -0.319885 -1.966827
v -1.00124 -0.319885 -1.966827
v -0.9860717 -0.3179073 2.046603
v -1.117783 0.01666355 2.067054
v -1.142246 0.01791197 -1.946309
v -2.106833 -0.01002002 -2.007252
v -2.082371 -0.01126838 1.994499
v -2.075849 -0.3517831 1.994336
v -2.100312 -0.3505346 -2.007415
v -1.142246 0.01791197 -1.946309
v -1.117783 0.01666355 2.067054
v -2.082371 -0.01126838 1.994499
v -2.106833 -0.01002002 -2.007252
v -0.9860717 -0.3179073 2.046603
v -2.075849 -0.3517831 1.994336
v -2.082371 -0.01126838 1.994499
v -1.117783 0.01666355 2.067054
v -0.9775766 0.02254172 2.046391
v -0.01315942 -0.01384211 2.040992
v -0.02165452 -0.3542911 2.041204
v -0.9860717 -0.3179073 2.046603
v -0.02832809 -0.01582009 -2.04211
v -0.9927456 0.02056398 -1.96704
v -1.00124 -0.319885 -1.966827
v -0.03682342 -0.3562688 -2.041898
v -0.9775766 0.02254172 2.046391
v -0.9927456 0.02056398 -1.96704
v -0.02832809 -0.01582009 -2.04211
v -0.01315942 -0.01384211 2.040992
v -0.9860717 -0.3179073 2.046603
v -1.00124 -0.319885 -1.966827
v -0.9927456 0.02056398 -1.96704
v -0.9775766 0.02254172 2.046391
v 2.086864 -0.3505345 1.967392
v 0.9945058 -0.3198848 2.038643
v 1.142788 0.01791215 1.924117
v 2.093386 -0.01001984 1.967392
v -0.02165452 -0.3542911 2.041204
v -0.03682342 -0.3562688 -2.041898
v -1.00124 -0.319885 -1.966827
v -0.9860717 -0.3179073 2.046603
v -0.01315942 -0.01384211 2.040992
v -0.02832809 -0.01582009 -2.04211
v -0.03682342 -0.3562688 -2.041898
v -0.02165452 -0.3542911 2.041204
v 0.03453013 -0.0301916 -1.986085
v -0.04096874 -0.03172601 2.019912
v -0.03437587 -0.2958822 2.019912
v -0.007646989 -0.294348 -1.944283
v -0.007646989 -0.294348 -1.944283
v -0.03437587 -0.2958822 2.019912
v 0.9945058 -0.3198848 2.038643
v 1.046913 -0.3179075 -2.043993
v 1.046913 -0.3179075 -2.043993
v 0.9945058 -0.3198848 2.038643
v 0.9860088 0.02056415 2.038643
v 1.038416 0.02254153 -2.043993
v 1.038416 0.02254153 -2.043993
v 0.9860088 0.02056415 2.038643
v -0.04096874 -0.03172601 2.019912
v 0.03453013 -0.0301916 -1.986085
v -0.04096874 -0.03172601 2.019912
v 0.9860088 0.02056415 2.038643
v 0.9945058 -0.3198848 2.038643
v -0.03437587 -0.2958822 2.019912
v 1.038416 0.02254153 -2.043993
v 0.03453013 -0.0301916 -1.986085
v -0.007646989 -0.294348 -1.944283
v 1.046913 -0.3179075 -2.043993
v 1.046913 -0.3179075 -2.043993
v 2.102109 -0.3517833 -2.024836
v 2.108631 -0.01126856 -2.024836
v 1.178935 0.01666337 -2.061144
v 1.142788 0.01791215 1.924117
v 1.178935 0.01666337 -2.061144
v 2.108631 -0.01126856 -2.024836
v 2.093386 -0.01001984 1.967392
v 2.093386 -0.01001984 1.967392
v 2.108631 -0.01126856 -2.024836
v 2.102109 -0.3517833 -2.024836
v 2.086864 -0.3505345 1.967392
v 0.9945058 -0.3198848 2.038643
v 1.046913 -0.3179075 -2.043993
v 1.178935 0.01666337 -2.061144
v 1.142788 0.01791215 1.924117
v -2.100312 -0.3505346 -2.007415
v -1.00124 -0.319885 -1.966827
v -1.142246 0.01791197 -1.946309
v -2.106833 -0.01002002 -2.007252
v 2.086864 -0.3505345 1.967392
v 2.102109 -0.3517833 -2.024836
v 1.046913 -0.3179075 -2.043993
v 0.9945058 -0.3198848 2.038643
v -0.7980927 -0.461617 1.52881
v -0.7735911 -7.657914 1.527426
v -0.7642594 -7.657914 1.867908
v -0.8177346 -0.3039231 1.869291
v -0.8177346 -0.3039231 1.869291
v -0.7642594 -7.657914 1.867908
v -1.950059 -7.674862 1.900408
v -1.966667 -0.3245077 1.901791
v -1.966667 -0.3245077 1.901791
v -1.950059 -7.674862 1.900408
v -1.959391 -7.674863 1.559927
v -1.975919 -0.323287 1.56131
v -1.975919 -0.323287 1.56131
v -1.959391 -7.674863 1.559927
v -0.7735911 -7.657914 1.527426
v -0.7980927 -0.461617 1.52881
v -0.7735911 -7.657914 1.527426
v -1.959391 -7.674863 1.559927
v -1.950059 -7.674862 1.900408
v -0.7642594 -7.657914 1.867908
v -1.975919 -0.323287 1.56131
v -0.7980927 -0.461617 1.52881
v -0.8177346 -0.3039231 1.869291
v -1.966667 -0.3245077 1.901791
v 2.105136 -0.4119099 -1.895739
v 2.129638 -7.608207 -1.897123
v 2.13897 -7.608207 -1.556642
v 2.114388 -0.4131306 -1.555258
v 2.114388 -0.4131306 -1.555258
v 2.13897 -7.608207 -1.556642
v 0.9531695 -7.625155 -1.524142
v 0.9365617 -0.2748006 -1.522758
v 0.9365617 -0.2748006 -1.522758
v 0.9531695 -7.625155 -1.524142
v 0.9438378 -7.625155 -1.864623
v 0.9273101 -0.2735799 -1.863239
v 0.9273101 -0.2735799 -1.863239
v 0.9438378 -7.625155 -1.864623
v 2.129638 -7.608207 -1.897123
v 2.105136 -0.4119099 -1.895739
v 2.129638 -7.608207 -1.897123
v 0.9438378 -7.625155 -1.864623
v 0.9531695 -7.625155 -1.524142
v 2.13897 -7.608207 -1.556642
v 0.9273101 -0.2735799 -1.863239
v 2.105136 -0.4119099 -1.895739
v 2.114388 -0.4131306 -1.555258
v 0.9365617 -0.2748006 -1.522758
v 1.986061 -0.4002708 1.442132
v 2.001317 -7.548132 1.440748
v 2.010649 -7.548132 1.781229
v 1.995313 -0.4014915 1.782613
v 1.995313 -0.4014915 1.782613
v 2.010649 -7.548132 1.781229
v 0.824849 -7.565081 1.81373
v 0.8174871 -0.2631615 1.815113
v 0.8174871 -0.2631615 1.815113
v 0.824849 -7.565081 1.81373
v 0.8155173 -7.565082 1.473248
v 0.8082355 -0.2619408 1.474632
v 0.8082355 -0.2619408 1.474632
v 0.8155173 -7.565082 1.473248
v 2.001317 -7.548132 1.440748
v 1.986061 -0.4002708 1.442132
v 2.001317 -7.548132 1.440748
v 0.8155173 -7.565082 1.473248
v 0.824849 -7.565081 1.81373
v 2.010649 -7.548132 1.781229
v 0.8082355 -0.2619408 1.474632
v 1.986061 -0.4002708 1.442132
v 1.995313 -0.4014915 1.782613
v 0.8174871 -0.2631615 1.815113
v -0.8797829 -0.3919958 -1.866847
v -0.8303176 -7.570831 -1.868231
v -0.8209859 -7.570831 -1.527749
v -0.8705313 -0.3932165 -1.526366
v -0.8705313 -0.3932165 -1.526366
v -0.8209859 -7.570831 -1.527749
v -2.006786 -7.58778 -1.495249
v -2.048357 -0.2548865 -1.493866
v -2.048357 -0.2548865 -1.493866
v -2.006786 -7.58778 -1.495249
v -2.016117 -7.58778 -1.835731
v -2.057609 -0.2536658 -1.834347
v -2.057609 -0.2536658 -1.834347
v -2.016117 -7.58778 -1.835731
v -0.8303176 -7.570831 -1.868231
v -0.8797829 -0.3919958 -1.866847
v -0.8303176 -7.570831 -1.868231
v -2.016117 -7.58778 -1.835731
v -2.006786 -7.58778 -1.495249
v -0.8209859 -7.570831 -1.527749
v -2.057609 -0.2536658 -1.834347
v -0.8797829 -0.3919958 -1.866847
v -0.8705313 -0.3932165 -1.526366
v -2.048357 -0.2548865 -1.493866
vt 0.1912334 0.3826092
vt 0.1912334 0.982901
vt 0.0168173 0.982901
vt 0.0168173 0.3826092
vt 0.2438025 0.3815435
vt 0.2438027 0.9818353
vt 0.1937273 0.9818353
vt 0.1937272 0.3815435
vt 0.1937272 0.3815435
vt 0.1937273 0.9818353
vt 0.2438027 0.9818353
vt 0.2438025 0.3815435
vt 0.0168173 0.3826092
vt 0.0168173 0.982901
vt 0.1912334 0.982901
vt 0.1912334 0.3826092
vt 0.01681734 0.3324665
vt 0.1912335 0.3324665
vt 0.1912335 0.3825418
vt 0.01681734 0.3825418
vt 0.1912335 0.3324666
vt 0.01681734 0.3324666
vt 0.01681734 0.3825419
vt 0.1912335 0.3825419
vt 0.01681734 0.3324665
vt 0.1912335 0.3324665
vt 0.1912335 0.3825418
vt 0.01681734 0.3825418
vt 0.1912334 0.3826092
vt 0.1912334 0.982901
vt 0.0168173 0.982901
vt 0.0168173 0.3826092
vt 0.1937272 0.3815435
vt 0.1937273 0.9818353
vt 0.2438027 0.9818353
vt 0.2438025 0.3815435
vt 0.1912335 0.3324666
vt 0.01681734 0.3324666
vt 0.01681734 0.3825419
vt 0.1912335 0.3825419
vt 0.0168173 0.3826092
vt 0.0168173 0.982901
vt 0.1912334 0.982901
vt 0.1912334 0.3826092
vt 0.2438025 0.3815435
vt 0.2438027 0.9818353
vt 0.1937273 0.9818353
vt 0.1937272 0.3815435
vt 0.2438025 0.3815435
vt 0.2438027 0.9818353
vt 0.1937273 0.9818353
vt 0.1937272 0.3815435
vt 0.0168173 0.3826092
vt 0.0168173 0.982901
vt 0.1912334 0.982901
vt 0.1912334 0.3826092
vt 0.1937272 0.3815435
vt 0.1937273 0.9818353
vt 0.2438027 0.9818353
vt 0.2438025 0.3815435
vt 0.1912334 0.3826092
vt 0.1912334 0.982901
vt 0.0168173 0.982901
vt 0.0168173 0.3826092
vt 0.01681734 0.3324665
vt 0.1912335 0.3324665
vt 0.1912335 0.3825418
vt 0.01681734 0.3825418
vt 0.1912335 0.3324666
vt 0.01681734 0.3324666
vt 0.01681734 0.3825419
vt 0.1912335 0.3825419
vt 0.01681734 0.3324665
vt 0.1912335 0.3324665
vt 0.1912335 0.3825418
vt 0.01681734 0.3825418
vt 0.0168173 0.3826092
vt 0.0168173 0.982901
vt 0.1912334 0.982901
vt 0.1912334 0.3826092
vt 0.1937272 0.3815435
vt 0.1937273 0.9818353
vt 0.2438027 0.9818353
vt 0.2438025 0.3815435
vt 0.2438025 0.3815435
vt 0.2438027 0.9818353
vt 0.1937273 0.9818353
vt 0.1937272 0.3815435
vt 0.1912335 0.3324666
vt 0.01681734 0.3324666
vt 0.01681734 0.3825419
vt 0.1912335 0.3825419
vt 0.1912334 0.3826092
vt 0.1912334 0.982901
vt 0.0168173 0.982901
vt 0.0168173 0.3826092
vt 0.2438025 0.3815435
vt 0.2438027 0.9818353
vt 0.1937273 0.9818353
vt 0.1937272 0.3815435
vt 0.0168173 0.3826092
vt 0.0168173 0.982901
vt 0.1912334 0.982901
vt 0.1912334 0.3826092
vt 0.1937272 0.3815435
vt 0.1937273 0.9818353
vt 0.2438027 0.9818353
vt 0.2438025 0.3815435
vt 0.1912334 0.3826092
vt 0.1912334 0.982901
vt 0.0168173 0.982901
vt 0.0168173 0.3826092
vt 0.01681734 0.3324665
vt 0.1912335 0.3324665
vt 0.1912335 0.3825418
vt 0.01681734 0.3825418
vt 0.1912335 0.3324666
vt 0.01681734 0.3324666
vt 0.01681734 0.3825419
vt 0.1912335 0.3825419
vt 0.2438025 0.3815435
vt 0.2438027 0.9818353
vt 0.1937273 0.9818353
vt 0.1937272 0.3815435
vt 0.0168173 0.3826092
vt 0.0168173 0.982901
vt 0.1912334 0.982901
vt 0.1912334 0.3826092
vt 0.1937272 0.3815435
vt 0.1937273 0.9818353
vt 0.2438027 0.9818353
vt 0.2438025 0.3815435
vt 0.1912334 0.3826092
vt 0.1912334 0.982901
vt 0.0168173 0.982901
vt 0.0168173 0.3826092
vt 0.01681734 0.3324665
vt 0.1912335 0.3324665
vt 0.1912335 0.3825418
vt 0.01681734 0.3825418
vt 0.1912335 0.3324666
vt 0.01681734 0.3324666
vt 0.01681734 0.3825419
vt 0.1912335 0.3825419
vt 0.2438025 0.3815435
vt 0.2438027 0.9818353
vt 0.1937273 0.9818353
vt 0.1937272 0.3815435
vt 0.0168173 0.3826092
vt 0.0168173 0.982901
vt 0.1912334 0.982901
vt 0.1912334 0.3826092
vt 0.1937272 0.3815435
vt 0.1937273 0.9818353
vt 0.2438027 0.9818353
vt 0.2438025 0.3815435
vt 0.1912334 0.3826092
vt 0.1912334 0.982901
vt 0.0168173 0.982901
vt 0.0168173 0.3826092
vt 0.01681734 0.3324665
vt 0.1912335 0.3324665
vt 0.1912335 0.3825418
vt 0.01681734 0.3825418
vt 0.1912335 0.3324666
vt 0.01681734 0.3324666
vt 0.01681734 0.3825419
vt 0.1912335 0.3825419
vt 0.2438025 0.3815435
vt 0.2438027 0.9818353
vt 0.1937273 0.9818353
vt 0.1937272 0.3815435
vt 0.0168173 0.3826092
vt 0.0168173 0.982901
vt 0.1912334 0.982901
vt 0.1912334 0.3826092
vt 0.1937272 0.3815435
vt 0.1937273 0.9818353
vt 0.2438027 0.9818353
vt 0.2438025 0.3815435
vt 0.1912334 0.3826092
vt 0.1912334 0.982901
vt 0.0168173 0.982901
vt 0.0168173 0.3826092
vt 0.01681734 0.3324665
vt 0.1912335 0.3324665
vt 0.1912335 0.3825418
vt 0.01681734 0.3825418
vt 0.1912335 0.3324666
vt 0.01681734 0.3324666
vt 0.01681734 0.3825419
vt 0.1912335 0.3825419
vn 0.0294687 -0.9995657 -5.475431E-05
vn 0.0294687 -0.9995657 -5.475431E-05
vn 0.0294687 -0.9995657 -5.475431E-05
vn 0.0294687 -0.9995657 -5.475431E-05
vn 0.926567 0.3761015 -0.004609018
vn 0.926567 0.3761015 -0.004609018
vn 0.926567 0.3761015 -0.004609018
vn 0.926567 0.3761015 -0.004609018
vn -0.999798 -0.01914966 0.00610576
vn -0.999798 -0.01914966 0.00610576
vn -0.999798 -0.01914966 0.00610576
vn -0.999798 -0.01914966 0.00610576
vn -0.02897904 0.9995798 0.0004882707
vn -0.02897904 0.9995798 0.0004882707
vn -0.02897904 0.9995798 0.0004882707
vn -0.02897904 0.9995798 0.0004882707
vn -0.05931547 -0.04259831 0.99733
vn -0.05931547 -0.04259831 0.99733
vn -0.05931547 -0.04259831 0.99733
vn -0.05931547 -0.04259831 0.99733
vn 0.005616254 0.0004838207 0.9999841
vn 0.005616254 0.0004838207 0.9999841
vn 0.005616254 0.0004838207 0.9999841
vn 0.005616254 0.0004838207 0.9999841
vn -0.07755564 0.001312437 -0.9969872
vn -0.07755564 0.001312437 -0.9969872
vn -0.07755564 0.001312437 -0.9969872
vn -0.07755564 0.001312437 -0.9969872
vn 0.0376733 0.9992899 -0.0006293842
vn 0.0376733 0.9992899 -0.0006293842
vn 0.0376733 0.9992899 -0.0006293842
vn 0.0376733 0.9992899 -0.0006293842
vn -0.9996817 0.02494671 0.00376604
vn -0.9996817 0.02494671 0.00376604
vn -0.9996817 0.02494671 0.00376604
vn -0.9996817 0.02494671 0.00376604
vn 0.01816722 0.1624233 0.986554
vn 0.01816722 0.1624233 0.986554
vn 0.01816722 0.1624233 0.986554
vn 0.01816722 0.1624233 0.986554
vn -0.03767317 -0.9992899 0.0006293521
vn -0.03767317 -0.9992899 0.0006293521
vn -0.03767317 -0.9992899 0.0006293521
vn -0.03767317 -0.9992899 0.0006293521
vn 0.9996819 -0.02494735 -0.003701749
vn 0.9996819 -0.02494735 -0.003701749
vn 0.9996819 -0.02494735 -0.003701749
vn 0.9996819 -0.02494735 -0.003701749
vn -0.9977252 0.06619075 -0.0127716
vn -0.9977252 0.06619075 -0.0127716
vn -0.9977252 0.06619075 -0.0127716
vn -0.9977252 0.06619075 -0.0127716
vn -0.02284835 -0.9997388 -0.0006609712
vn -0.02284835 -0.9997388 -0.0006609712
vn -0.02284835 -0.9997388 -0.0006609712
vn -0.02284835 -0.9997388 -0.0006609712
vn 0.9996063 0.02494821 0.0128436
vn 0.9996063 0.02494821 0.0128436
vn 0.9996063 0.02494821 0.0128436
vn 0.9996063 0.02494821 0.0128436
vn -0.05165198 0.9986651 -0.0003831898
vn -0.05165198 0.9986651 -0.0003831898
vn -0.05165198 0.9986651 -0.0003831898
vn -0.05165198 0.9986651 -0.0003831898
vn -0.01821244 -0.0004545568 0.9998341
vn -0.01821244 -0.0004545568 0.9998341
vn -0.01821244 -0.0004545568 0.9998341
vn -0.01821244 -0.0004545568 0.9998341
vn -0.07527725 -0.06460554 -0.9950676
vn -0.07527725 -0.06460554 -0.9950676
vn -0.07527725 -0.06460554 -0.9950676
vn -0.07527725 -0.06460554 -0.9950676
vn 0.02695739 -0.03091644 -0.9991584
vn 0.02695739 -0.03091644 -0.9991584
vn 0.02695739 -0.03091644 -0.9991584
vn 0.02695739 -0.03091644 -0.9991584
vn 0.02970223 0.9995587 -0.0001215828
vn 0.02970223 0.9995587 -0.0001215828
vn 0.02970223 0.9995587 -0.0001215828
vn 0.02970223 0.9995587 -0.0001215828
vn 0.9998093 -0.01915174 0.003824042
vn 0.9998093 -0.01915174 0.003824042
vn 0.9998093 -0.01915174 0.003824042
vn 0.9998093 -0.01915174 0.003824042
vn -0.9236572 0.3830864 -0.01010354
vn -0.9236572 0.3830864 -0.01010354
vn -0.9236572 0.3830864 -0.01010354
vn -0.9236572 0.3830864 -0.01010354
vn 0.04794157 0.04085646 -0.9980142
vn 0.04794157 0.04085646 -0.9980142
vn 0.04794157 0.04085646 -0.9980142
vn 0.04794157 0.04085646 -0.9980142
vn -0.03004077 -0.9995486 -0.000341879
vn -0.03004077 -0.9995486 -0.000341879
vn -0.03004077 -0.9995486 -0.000341879
vn -0.03004077 -0.9995486 -0.000341879
vn 0.999889 0.005355879 0.01389871
vn 0.999889 0.005355879 0.01389871
vn 0.999889 0.005355879 0.01389871
vn 0.999889 0.005355879 0.01389871
vn 0.02783055 -5.539957E-05 0.9996127
vn 0.02783055 -5.539957E-05 0.9996127
vn 0.02783055 -5.539957E-05 0.9996127
vn 0.02783055 -5.539957E-05 0.9996127
vn -0.9996254 -0.002258108 0.0272755
vn -0.9996254 -0.002258108 0.0272755
vn -0.9996254 -0.002258108 0.0272755
vn -0.9996254 -0.002258108 0.0272755
vn -0.02748402 0.0001126373 -0.9996222
vn -0.02748402 0.0001126373 -0.9996222
vn -0.02748402 0.0001126373 -0.9996222
vn -0.02748402 0.0001126373 -0.9996222
vn 0.01428109 -0.999898 -0.0003883051
vn 0.01428109 -0.999898 -0.0003883051
vn 0.01428109 -0.999898 -0.0003883051
vn 0.01428109 -0.999898 -0.0003883051
vn 0.04304823 0.9738411 -0.2231148
vn 0.04304823 0.9738411 -0.2231148
vn 0.04304823 0.9738411 -0.2231148
vn 0.04304823 0.9738411 -0.2231148
vn 0.9996222 0.003414595 -0.02727332
vn 0.9996222 0.003414595 -0.02727332
vn 0.9996222 0.003414595 -0.02727332
vn 0.9996222 0.003414595 -0.02727332
vn 0.02748397 -0.0001123036 0.9996222
vn 0.02748397 -0.0001123036 0.9996222
vn 0.02748397 -0.0001123036 0.9996222
vn 0.02748397 -0.0001123036 0.9996222
vn -0.9996254 -0.002258095 0.02727548
vn -0.9996254 -0.002258095 0.02727548
vn -0.9996254 -0.002258095 0.02727548
vn -0.9996254 -0.002258095 0.02727548
vn -0.027484 0.0001126533 -0.9996222
vn -0.027484 0.0001126533 -0.9996222
vn -0.027484 0.0001126533 -0.9996222
vn -0.027484 0.0001126533 -0.9996222
vn 0.01428086 -0.999898 -0.0003921217
vn 0.01428086 -0.999898 -0.0003921217
vn 0.01428086 -0.999898 -0.0003921217
vn 0.01428086 -0.999898 -0.0003921217
vn 0.1166541 0.9931725 0.0003909981
vn 0.1166541 0.9931725 0.0003909981
vn 0.1166541 0.9931725 0.0003909981
vn 0.1166541 0.9931725 0.0003909981
vn 0.9996257 0.002144591 -0.02727568
vn 0.9996257 0.002144591 -0.02727568
vn 0.9996257 0.002144591 -0.02727568
vn 0.9996257 0.002144591 -0.02727568
vn 0.02748212 -0.0001482516 0.9996222
vn 0.02748212 -0.0001482516 0.9996222
vn 0.02748212 -0.0001482516 0.9996222
vn 0.02748212 -0.0001482516 0.9996222
vn -0.9996274 -0.001007441 0.02727779
vn -0.9996274 -0.001007441 0.02727779
vn -0.9996274 -0.001007441 0.02727779
vn -0.9996274 -0.001007441 0.02727779
vn -0.02748218 0.0001486058 -0.9996222
vn -0.02748218 0.0001486058 -0.9996222
vn -0.02748218 0.0001486058 -0.9996222
vn -0.02748218 0.0001486058 -0.9996222
vn 0.01428109 -0.999898 -0.0003901673
vn 0.01428109 -0.999898 -0.0003901673
vn 0.01428109 -0.999898 -0.0003901673
vn 0.01428109 -0.999898 -0.0003901673
vn 0.1166541 0.9931725 0.0003910091
vn 0.1166541 0.9931725 0.0003910091
vn 0.1166541 0.9931725 0.0003910091
vn 0.1166541 0.9931725 0.0003910091
vn 0.9996044 0.00689913 -0.02726659
vn 0.9996044 0.00689913 -0.02726659
vn 0.9996044 0.00689913 -0.02726659
vn 0.9996044 0.00689913 -0.02726659
vn 0.02748888 -1.79782E-05 0.9996221
vn 0.02748888 -1.79782E-05 0.9996221
vn 0.02748888 -1.79782E-05 0.9996221
vn 0.02748888 -1.79782E-05 0.9996221
vn -0.9996122 -0.005666176 0.02726902
vn -0.9996122 -0.005666176 0.02726902
vn -0.9996122 -0.005666176 0.02726902
vn -0.9996122 -0.005666176 0.02726902
vn -0.02748892 1.835958E-05 -0.9996221
vn -0.02748892 1.835958E-05 -0.9996221
vn -0.02748892 1.835958E-05 -0.9996221
vn -0.02748892 1.835958E-05 -0.9996221
vn 0.01428087 -0.999898 -0.0003904255
vn 0.01428087 -0.999898 -0.0003904255
vn 0.01428087 -0.999898 -0.0003904255
vn 0.01428087 -0.999898 -0.0003904255
vn 0.1166541 0.9931725 0.0003909239
vn 0.1166541 0.9931725 0.0003909239
vn 0.1166541 0.9931725 0.0003909239
vn 0.1166541 0.9931725 0.0003909239
g wooden platform_0
f 3/3/3 2/2/2 1/1/1
f 4/4/4 3/3/3 1/1/1
f 7/7/7 6/6/6 5/5/5
f 8/8/8 7/7/7 5/5/5
f 11/11/11 10/10/10 9/9/9
f 12/12/12 11/11/11 9/9/9
f 15/15/15 14/14/14 13/13/13
f 16/16/16 15/15/15 13/13/13
f 19/19/19 18/18/18 17/17/17
f 20/20/20 19/19/19 17/17/17
f 23/23/23 22/22/22 21/21/21
f 24/24/24 23/23/23 21/21/21
f 27/27/27 26/26/26 25/25/25
f 28/28/28 27/27/27 25/25/25
f 31/31/31 30/30/30 29/29/29
f 32/32/32 31/31/31 29/29/29
f 35/35/35 34/34/34 33/33/33
f 36/36/36 35/35/35 33/33/33
f 39/39/39 38/38/38 37/37/37
f 40/40/40 39/39/39 37/37/37
f 43/43/43 42/42/42 41/41/41
f 44/44/44 43/43/43 41/41/41
f 47/47/47 46/46/46 45/45/45
f 48/48/48 47/47/47 45/45/45
f 51/51/51 50/50/50 49/49/49
f 52/52/52 51/51/51 49/49/49
f 55/55/55 54/54/54 53/53/53
f 56/56/56 55/55/55 53/53/53
f 59/59/59 58/58/58 57/57/57
f 60/60/60 59/59/59 57/57/57
f 63/63/63 62/62/62 61/61/61
f 64/64/64 63/63/63 61/61/61
f 67/67/67 66/66/66 65/65/65
f 68/68/68 67/67/67 65/65/65
f 71/71/71 70/70/70 69/69/69
f 72/72/72 71/71/71 69/69/69
f 75/75/75 74/74/74 73/73/73
f 76/76/76 75/75/75 73/73/73
f 79/79/79 78/78/78 77/77/77
f 80/80/80 79/79/79 77/77/77
f 83/83/83 82/82/82 81/81/81
f 84/84/84 83/83/83 81/81/81
f 87/87/87 86/86/86 85/85/85
f 88/88/88 87/87/87 85/85/85
f 91/91/91 90/90/90 89/89/89
f 92/92/92 91/91/91 89/89/89
f 95/95/95 94/94/94 93/93/93
f 96/96/96 95/95/95 93/93/93
f 99/99/99 98/98/98 97/97/97
f 100/100/100 99/99/99 97/97/97
f 103/103/103 102/102/102 101/101/101
f 104/104/104 103/103/103 101/101/101
f 107/107/107 106/106/106 105/105/105
f 108/108/108 107/107/107 105/105/105
f 111/111/111 110/110/110 109/109/109
f 112/112/112 111/111/111 109/109/109
f 115/115/115 114/114/114 113/113/113
f 116/116/116 115/115/115 113/113/113
f 119/119/119 118/118/118 117/117/117
f 120/120/120 119/119/119 117/117/117
f 123/123/123 122/122/122 121/121/121
f 124/124/124 123/123/123 121/121/121
f 127/127/127 126/126/126 125/125/125
f 128/128/128 127/127/127 125/125/125
f 131/131/131 130/130/130 129/129/129
f 132/132/132 131/131/131 129/129/129
f 135/135/135 134/134/134 133/133/133
f 136/136/136 135/135/135 133/133/133
f 139/139/139 138/138/138 137/137/137
f 140/140/140 139/139/139 137/137/137
f 143/143/143 142/142/142 141/141/141
f 144/144/144 143/143/143 141/141/141
f 147/147/147 146/146/146 145/145/145
f 148/148/148 147/147/147 145/145/145
f 151/151/151 150/150/150 149/149/149
f 152/152/152 151/151/151 149/149/149
f 155/155/155 154/154/154 153/153/153
f 156/156/156 155/155/155 153/153/153
f 159/159/159 158/158/158 157/157/157
f 160/160/160 159/159/159 157/157/157
f 163/163/163 162/162/162 161/161/161
f 164/164/164 163/163/163 161/161/161
f 167/167/167 166/166/166 165/165/165
f 168/168/168 167/167/167 165/165/165
f 171/171/171 170/170/170 169/169/169
f 172/172/172 171/171/171 169/169/169
f 175/175/175 174/174/174 173/173/173
f 176/176/176 175/175/175 173/173/173
f 179/179/179 178/178/178 177/177/177
f 180/180/180 179/179/179 177/177/177
f 183/183/183 182/182/182 181/181/181
f 184/184/184 183/183/183 181/181/181
f 187/187/187 186/186/186 185/185/185
f 188/188/188 187/187/187 185/185/185
f 191/191/191 190/190/190 189/189/189
f 192/192/192 191/191/191 189/189/189
