g arch bridge segment broken
v 4 17 -2
v 8 17 -2
v 8 17 -1
v 6.5 17 -1
v 6.5 17 1
v 8 17 1
v 8 17 2
v 4 17 2
v 4 16 -2
v 4 16 2
v 4 15 3
v 4 15 4
v 4 19 4
v 4 19 -6
v 4 14 -6
v 4 7.330049 -6
v 4 7.330049 -6.5
v 4 6.66995 -6.5
v 4 6.66995 -6
v 4 -9.536743E-07 -6
v 4 -9.536743E-07 -4
v 4 6.66995 -4
v 4 6.66995 -3.5
v 4 7.330049 -3.5
v 4 7.330049 -4
v 4 14 -4
v 4 15 -4
v 4 15 -3
v 8 16 -2
v 8 15 -3
v 8 15 -4
v 8 14 -4
v 8 14 -6
v 8 17.96481 -6
v 8 19 -4.536017
v 8 19 1.720049
v 8 18.13453 2.51558
v 8 19 3.026826
v 8 19 4
v 8 15 4
v 8 15 3
v 8 16 2
v 8 18 1
v 8 18 -1
v 8.5 18 -1
v 8.5 16 -1
v 6.5 16 -1
v 6.5 16 1
v 8.5 18 1
v 8.5 16 1
v 7.056645 19 2.515581
v 6.536016 19 -6
v 8 12.10789 -6
v 7.290227 11.95601 -6
v 8 11.71458 -6
v 8 8.306784 -6
v 7.88669 8.116885 -6
v 7.971548 7.330049 -6
v 8.140738 7.330049 -6.5
v 8.211927 6.66995 -6.5
v 8.064596 6.66995 -6.064596
v 8 6.66995 -6
v 8 -9.536743E-07 -6
v 7.921549 6.66995 -4
v 8 -9.536743E-07 -4
v 8 6.413132 -4
v 8.035105 6.66995 -3.792194
v 8.146976 6.66995 -3.5
v 7.993132 7.330049 -3.5
v 8.078862 7.049399 -3.5
v 7.719908 7.330049 -4
v 8 8.02191 -4
v 7.674964 7.477176 -4
v 8 11.95701 -4.553163
v 8 11.96022 -4.553236
v 8.5 17.5 -0.5
v 8.5 16.5 -0.5
v 8.5 16.5 0.5000001
v 8.5 17.5 0.5
v 8 6.66995 -5.873697
v 8 6.482728 -5.814026
v 8 5.452622 -5.171672
v 8 5.392963 -4.482598
v 8 6.365531 -4.02661
v 9 17.5 -0.5
v 9 16.5 -0.5
v 9 16.5 0.5000001
v 9 17.5 0.5
v 7.995297 11.95898 -4.55092
v 7.477789 7.218703 -4.505321
v 7.889184 5.404563 -4.766598
v 4 17 2
v 4 17 -2
v 4 7.330049 -4
v 4 7.330049 -6.5
v 4 16 -2
v 4 17 -2
v 8 17 -2
v 8 17 1
v 8 17 2
v 8 16 -2
v 8 17 -2
v 8 17 -1
v 8 17 -1
v 6.5 17 -1
v 8 18 -1
v 6.5 17 -1
v 6.5 17 1
v 6.5 16 -1
v 8 18 1
v 8 17 1
v 6.5 16 1
v 6.5 17 1
v 4 17 2
v 4 16 2
v 8 16 2
v 8 17 2
v 4 16 -2
v 8 16 -2
v 8 15 -3
v 4 15 -3
v 8 16 2
v 4 16 2
v 4 15 3
v 8 15 3
v 4 15 3
v 4 15 4
v 8 15 4
v 8 15 3
v 4 15 4
v 4 19 4
v 8 19 4
v 8 15 4
v 4 19 4
v 4 19 -6
v 8 19 -4.536017
v 8 19 1.720049
v 8 19 3.026826
v 8 19 4
v 4 14 -6
v 8 14 -6
v 8 17.96481 -6
v 6.536016 19 -6
v 4 19 -6
v 4 7.330049 -6
v 8 14 -6
v 4 14 -6
v 7.971548 7.330049 -6
v 4 7.330049 -6
v 4 7.330049 -6.5
v 8.140738 7.330049 -6.5
v 4 7.330049 -6.5
v 4 6.66995 -6.5
v 8.211927 6.66995 -6.5
v 4 6.66995 -6.5
v 4 6.66995 -6
v 4 -9.536743E-07 -6
v 8 6.66995 -6
v 4 6.66995 -6
v 4 -9.536743E-07 -4
v 4 6.66995 -4
v 7.921549 6.66995 -4
v 4 6.66995 -4
v 4 6.66995 -3.5
v 8.146976 6.66995 -3.5
v 4 6.66995 -3.5
v 4 7.330049 -3.5
v 7.993132 7.330049 -3.5
v 4 7.330049 -3.5
v 4 7.330049 -4
v 4 14 -4
v 8 14 -4
v 7.719908 7.330049 -4
v 4 7.330049 -4
v 4 14 -4
v 4 15 -4
v 8 15 -4
v 8 14 -4
v 4 15 -4
v 4 15 -3
v 8 15 -3
v 8 15 -4
v 8 8.02191 -4
v 8 14 -4
v 8 8.306784 -6
v 8 11.71458 -6
v 8 14 -4
v 8 12.10789 -6
v 8 11.96022 -4.553236
v 8 14 -6
v 8 18 1
v 8 18 -1
v 8.5 18 -1
v 8.5 18 1
v 8.5 16 -1
v 8.5 18 -1
v 6.5 16 1
v 8.5 16 1
v 8.5 16 -1
v 6.5 16 -1
v 8.5 18 1
v 8.5 16 1
v 8 6.66995 -6
v 8 -9.536743E-07 -6
v 8 -9.536743E-07 -4
v 8 6.66995 -5.873697
v 8 5.392963 -4.482598
v 8 -9.536743E-07 -4
v 8 6.413132 -4
v 8 6.413132 -4
v 8 5.392963 -4.482598
v 8.5 18 -1
v 8.5 17.5 -0.5
v 8.5 17.5 0.5
v 8.5 18 1
v 8.5 16 1
v 8.5 16.5 0.5000001
v 8.5 16.5 -0.5
v 8.5 16 -1
v 8.5 16.5 -0.5
v 8.5 17.5 -0.5
v 8.5 17.5 0.5
v 8.5 16.5 0.5000001
v 8.5 17.5 -0.5
v 9 17.5 -0.5
v 9 17.5 0.5
v 8.5 17.5 0.5
v 8.5 16.5 0.5000001
v 9 16.5 0.5000001
v 9 16.5 -0.5
v 8.5 16.5 -0.5
v 9 17.5 -0.5
v 9 16.5 -0.5
v 9 16.5 0.5000001
v 9 17.5 0.5
v 7.056645 19 2.515581
v 8 18.13453 2.51558
v 8 19 3.026826
v 8 18.13453 2.51558
v 7.056645 19 2.515581
v 8 19 1.720049
v 7.290227 11.95601 -6
v 8 11.96022 -4.553236
v 8 12.10789 -6
v 8 11.95701 -4.553163
v 7.995297 11.95898 -4.55092
v 7.290227 11.95601 -6
v 8 11.71458 -6
v 8 11.96022 -4.553236
v 7.995297 11.95898 -4.55092
v 8 11.95701 -4.553163
v 8.140738 7.330049 -6.5
v 8.211927 6.66995 -6.5
v 8.064596 6.66995 -6.064596
v 8.064596 6.66995 -6.064596
v 8 6.66995 -5.873697
v 8.140738 7.330049 -6.5
v 8 6.66995 -5.873697
v 8.140738 7.330049 -6.5
v 7.971548 7.330049 -6
v 7.88669 8.116885 -6
v 8 6.482728 -5.814026
v 8 5.452622 -5.171672
v 7.477789 7.218703 -4.505321
v 8 6.482728 -5.814026
v 7.88669 8.116885 -6
v 7.477789 7.218703 -4.505321
v 7.674964 7.477176 -4
v 8 8.02191 -4
v 8 8.306784 -6
v 8 5.392963 -4.482598
v 7.889184 5.404563 -4.766598
v 8 5.452622 -5.171672
v 7.674964 7.477176 -4
v 7.477789 7.218703 -4.505321
v 7.719908 7.330049 -4
v 7.477789 7.218703 -4.505321
v 7.889184 5.404563 -4.766598
v 8 6.365531 -4.02661
v 8 6.413132 -4
v 7.921549 6.66995 -4
v 8.035105 6.66995 -3.792194
v 8.078862 7.049399 -3.5
v 7.993132 7.330049 -3.5
v 7.993132 7.330049 -3.5
v 8 6.365531 -4.02661
v 7.889184 5.404563 -4.766598
v 8 5.392963 -4.482598
v 8.078862 7.049399 -3.5
v 8.035105 6.66995 -3.792194
v 8.146976 6.66995 -3.5
v 6.536016 19 -6
v 8 17.96481 -6
v 8 19 -4.536017
vt 0.3861328 -0.04218751
vt 0.9861329 -0.04218751
vt 0.9861329 0.1078125
vt 0.7611328 0.1078125
vt 0.7611328 0.4078126
vt 0.9861329 0.4078126
vt 0.9861329 0.5578125
vt 0.3861328 0.5578125
vt 0.3861328 -0.04218751
vt 0.3861328 0.5578125
vt 0.2361327 0.7078125
vt 0.2361327 0.8578124
vt 0.8361328 0.8578124
vt 0.8361328 -0.6421876
vt 0.08613268 -0.6421876
vt -0.91436 -0.6421876
vt -0.91436 -0.7171875
vt -1.013375 -0.7171875
vt -1.013375 -0.6421876
vt -2.013867 -0.6421876
vt -2.013867 -0.3421875
vt -1.013375 -0.3421875
vt -1.013375 -0.2671875
vt -0.91436 -0.2671875
vt -0.91436 -0.3421875
vt 0.08613268 -0.3421875
vt 0.2361327 -0.3421875
vt 0.2361327 -0.1921875
vt 0.9861329 -0.04218751
vt -0.06386733 -0.1921875
vt -0.06386733 -0.3421875
vt -0.2138673 -0.3421875
vt -0.2138673 -0.6421876
vt 0.380854 -0.6421876
vt 0.5361328 -0.42259
vt 0.5361328 0.5158198
vt 0.4063122 0.6351495
vt 0.5361328 0.7118366
vt 0.5361328 0.8578124
vt -0.06386733 0.8578124
vt -0.06386733 0.7078125
vt 0.08613282 0.5578125
vt 0.3861328 0.4078126
vt 0.3861328 0.1078125
vt 0.4611328 -0.04218751
vt 0.4611328 -0.3421875
vt 0.1611328 -0.3421875
vt 0.08613282 0.1078125
vt 0.4611328 -0.04218751
vt 0.4611328 -0.3421875
vt 0.8446296 -0.2648504
vt 0.7665353 -1.542188
vt 0.9861329 0.5739954
vt 0.8796668 0.551214
vt 0.9861329 0.5149992
vt 0.9861329 0.003830075
vt 0.9691364 -0.02465472
vt 0.9818649 -0.1426802
vt 0.4072435 -0.1171875
vt 0.4179219 0.05830494
vt 0.3958223 -0.05187693
vt 0.3861328 -0.04218751
vt 0.9861329 -0.04218763
vt 0.3743652 0.05830494
vt 0.3861328 -0.9421877
vt 0.3861328 0.01978233
vt 0.9913986 -0.01101655
vt 1.008179 0.03281251
vt 0.3851026 -0.1426802
vt 0.3979622 -0.1847776
vt 0.344119 -0.04218751
vt 0.3861328 -0.03890103
vt 0.3373775 -0.120611
vt 0.07968363 -0.1251619
vt 0.08016643 -0.1251729
vt 0.6111329 -0.1171875
vt 0.4611328 -0.1171875
vt 0.1611328 -0.2671875
vt 0.3111328 -0.2671875
vt 0.3861328 -0.02324209
vt 0.458542 -0.3142915
vt 0.3040261 -0.2179384
vt 0.2950773 -0.1145772
vt 0.4409626 -0.046179
vt 0.5361328 0.1828125
vt 0.5361328 0.03281251
vt 0.5361328 -0.2671875
vt 0.5361328 -0.1171875
vt 0.3854273 0.1751746
vt 0.2689383 -0.1179856
vt 0.2968173 0.1428227
vt 0.5361328 0.5578125
vt 0.5361328 -0.04218751
vt -0.91436 -0.3421875
vt -0.91436 -0.7171875
vt 0.3861328 -0.04218751
vt 0.3861328 0.1078125
vt 0.9861329 0.1078125
vt 0.2361328 0.4078126
vt 0.2361328 0.5578125
vt 0.08613282 -0.04218751
vt 0.2361328 -0.04218751
vt 0.2361328 0.1078125
vt 0.3861328 -0.1921875
vt 0.1611328 -0.1921875
vt 0.3861328 -0.04218751
vt 0.2361328 -0.1921875
vt 0.2361328 0.1078125
vt 0.08613282 -0.1921875
vt 0.3861328 -0.04218751
vt 0.3861328 -0.1921875
vt 0.1611328 -0.3421875
vt 0.1611328 -0.1921875
vt 0.3861328 -0.1921875
vt 0.3861328 -0.3421875
vt 0.9861329 -0.3421875
vt 0.9861329 -0.1921875
vt 0.3861328 -0.04218751
vt 0.9861329 -0.04218751
vt 0.9861329 -0.1921876
vt 0.3861328 -0.1921876
vt 0.3861328 -0.04218751
vt -0.2138672 -0.04218751
vt -0.2138672 -0.1921876
vt 0.3861328 -0.1921876
vt 0.3861328 -0.1921875
vt 0.3861328 -0.04218751
vt 0.9861329 -0.04218751
vt 0.9861329 -0.1921875
vt 0.3861328 0.1078123
vt 0.3861328 0.7078125
vt 0.9861329 0.7078125
vt 0.9861329 0.1078123
vt 0.3861328 -0.04218751
vt 0.3861328 -1.542188
vt 0.9861329 -1.32259
vt 0.9861329 -0.3841802
vt 0.9861329 -0.1881635
vt 0.9861329 -0.04218751
vt -0.2138672 -0.6421876
vt 0.3861328 -0.6421876
vt 0.3861328 -0.04746637
vt 0.1665353 0.1078125
vt -0.2138672 0.1078125
vt 0.3861328 -0.1426802
vt 0.9861329 0.8578124
vt 0.3861328 0.8578124
vt 0.381865 -0.04218751
vt -0.2138672 -0.04218751
vt -0.2138672 -0.1171875
vt 0.4072435 0.1573198
vt -0.2138672 0.1573198
vt -0.2138672 0.05830494
vt 0.4179219 -0.1171875
vt -0.2138672 -0.1171875
vt -0.2138672 -0.04218751
vt 0.3861328 -0.04218763
vt 0.9861329 0.9583049
vt 0.3861328 0.9583049
vt -0.2138672 -0.9421877
vt -0.2138672 0.05830494
vt 0.9743652 -0.04218751
vt 0.3861328 -0.04218751
vt 0.3861328 0.03281251
vt 0.4081792 -0.2416951
vt -0.2138672 -0.2416951
vt -0.2138672 -0.1426802
vt 0.3851026 0.03281251
vt -0.2138672 0.03281251
vt -0.2138672 -0.04218751
vt -0.2138672 0.8578124
vt 0.3861328 0.8578124
vt 0.344119 -0.1426802
vt -0.2138672 -0.1426802
vt 0.3861328 -0.04218763
vt 0.3861328 0.1078123
vt 0.9861329 0.1078123
vt 0.9861329 -0.04218763
vt 0.3861328 -0.04218751
vt 0.3861328 0.1078125
vt 0.9861329 0.1078125
vt 0.9861329 -0.04218751
vt -0.5105808 -0.04218751
vt 0.3861327 -0.04218751
vt -0.4678497 -0.3421875
vt 0.04331946 -0.3421875
vt 0.3861327 -0.04218751
vt 0.1023156 -0.3421875
vt 0.08016643 -0.1251729
vt 0.3861327 -0.3421875
vt 0.3861328 -0.1921875
vt 0.3861328 -0.4921875
vt 0.4611328 -0.4921875
vt 0.4611328 -0.1921875
vt 0.3861328 -0.1921875
vt 0.6861329 -0.1921875
vt 0.4611328 -0.1921875
vt 0.7611328 -0.1921875
vt 0.7611328 -0.4921875
vt 0.4611328 -0.4921875
vt 0.3861328 -0.1921875
vt 0.08613282 -0.1921875
vt 0.4866253 -0.3421875
vt -0.5138674 -0.3421875
vt -0.5138674 -0.04218751
vt 0.4866253 -0.3232421
vt 0.2950773 -0.1145772
vt -0.5138674 -0.04218751
vt 0.4481027 -0.04218751
vt 0.4481027 -0.04218751
vt 0.2950773 -0.1145772
vt 0.3861328 -0.1921875
vt 0.3111328 -0.1171875
vt 0.3111328 0.03281251
vt 0.3861328 0.1078125
vt 0.3861328 -0.1921875
vt 0.4611328 -0.2671875
vt 0.4611328 -0.4171875
vt 0.3861328 -0.4921875
vt 0.4611328 0.03281251
vt 0.4611328 0.1828125
vt 0.4611328 -0.1171875
vt 0.4611328 -0.2671875
vt 0.4611328 -0.1171875
vt 0.5361328 -0.1171875
vt 0.5361328 0.03281251
vt 0.4611328 0.03281251
vt 0.4611328 0.03281254
vt 0.5361328 0.03281254
vt 0.5361328 -0.1171875
vt 0.4611328 -0.1171875
vt 0.3111328 -0.1171875
vt 0.1611328 -0.1171875
vt 0.1611328 0.03281254
vt 0.3111328 0.03281251
vt 0.2446296 -0.1921875
vt 0.3861328 -0.3220081
vt 0.3861328 -0.1921875
vt 0.3861328 -0.02200812
vt 0.2446296 0.1078125
vt 0.3861328 0.1078125
vt 0.2796668 -0.04218751
vt 0.3861328 0.1748271
vt 0.3861328 -0.04218751
vt 0.3861328 -0.1251619
vt 0.3854273 -0.1248254
vt 0.2796668 -0.3421875
vt 0.3861328 -0.3421875
vt 0.3861328 -0.04815388
vt 0.3854273 -0.04834026
vt 0.3861328 -0.04863667
vt 0.2856401 -0.4171875
vt 0.1866252 -0.4171875
vt 0.1866252 -0.3518769
vt 0.1866252 -0.3518769
vt 0.1866252 -0.3232421
vt 0.2856401 -0.4171875
vt 0.1866252 -0.3232421
vt 0.2856401 -0.4171875
vt 0.2856401 -0.3421875
vt 0.4036656 -0.3421875
vt 0.158542 -0.3142915
vt 0.3040261 0.08206165
vt 0.5689383 0.1820145
vt 0.458542 -0.01429147
vt 0.4036656 -0.04218751
vt 0.2689383 0.1820145
vt 0.3077093 0.2578125
vt 0.3894193 0.2578125
vt 0.4321504 -0.04218751
vt 0.3861328 -0.1145772
vt 0.3695103 -0.1571772
vt 0.3861328 -0.2179384
vt 0.3077093 -0.04218751
vt 0.2689383 -0.1179856
vt 0.2856401 -0.04218751
vt 0.2689383 -0.1179856
vt -0.00318265 -0.1571772
vt 0.1409625 -0.046179
vt 0.1481026 -0.04218751
vt 0.1866252 -0.04218751
vt 0.1866252 -0.01101655
vt 0.2435427 0.03281251
vt 0.2856401 0.03281251
vt 0.2856401 0.03281251
vt 0.4409626 -0.046179
vt 0.2968173 -0.1571772
vt 0.2950773 -0.1145772
vt 0.2435427 0.03281251
vt 0.1866252 -0.01101655
vt 0.1866252 0.03281251
vt 0.4665353 -0.04218751
vt 0.6861329 -0.04218751
vt 0.6861329 0.17741
vn 0 -1 0
vn 0 -1 0
vn 0 -1 0
vn 0 -1 0
vn 0 -1 0
vn 0 -1 0
vn 0 -1 0
vn 0 -1 0
vn -1 0 0
vn -1 0 0
vn -1 0 0
vn -1 0 0
vn -1 0 0
vn -1 0 0
vn -1 0 0
vn -1 0 0
vn -1 0 0
vn -1 0 0
vn -1 0 0
vn -1 0 0
vn -1 0 0
vn -1 0 0
vn -1 0 0
vn -1 0 0
vn -1 0 0
vn -1 0 0
vn -1 0 0
vn -1 0 0
vn 0 0 1
vn 1 0 0
vn 1 0 0
vn 1 0 0
vn 1 0 0
vn 1 0 0
vn 1 0 0
vn 1 0 0
vn 1 0 0
vn 1 0 0
vn 1 0 0
vn 1 0 0
vn 1 0 0
vn 1 0 0
vn 1 0 0
vn 1 0 0
vn 0 0 -1
vn 0 0 -1
vn 0 0 -1
vn -1 0 0
vn 0 0 1
vn 0 0 1
vn 0 1 0
vn 0 1 0
vn 0 0 -1
vn 0 0 -1
vn 0 0 -1
vn 0 0 -1
vn 0 0 -1
vn 0 0 -1
vn 0 1 0
vn 0 0 -1
vn 0 -1 0
vn 0 -1 0
vn 0 0 -1
vn 0 0 1
vn 0 0 1
vn 0 0 1
vn 0 -1 0
vn 0 -1 0
vn 0 0 1
vn 0 0 1
vn 0 1 0
vn 0 0 1
vn 0 0 1
vn 1 0 0
vn 1 0 0
vn 1 0 0
vn 1 0 0
vn 1 0 0
vn 1 0 0
vn 0 -1 0
vn 1 0 0
vn 1 0 0
vn 1 0 0
vn 1 0 0
vn 0 0 -1
vn 0 0 -1
vn 0 0 1
vn 0 0 1
vn 0.2082064 -0.9730302 -0.09930981
vn 0.9423354 0.1016283 0.318866
vn 0.9443989 0.1739796 0.2790013
vn -1 0 0
vn -1 0 0
vn -1 0 0
vn -1 0 0
vn 0 0 1
vn 0 0 1
vn 0 0 1
vn 1 0 0
vn 1 0 0
vn 1 0 0
vn 1 0 0
vn 1 0 0
vn 0 0 -1
vn 0 0 -1
vn 0 0 -1
vn -1 0 0
vn -1 0 0
vn -1 0 0
vn 0 0 1
vn 0 0 1
vn 0 0 1
vn 0 0 1
vn 0 0 -1
vn 0 0 -1
vn 0 0 -1
vn 0 0 -1
vn 0 -0.7071068 0.7071068
vn 0 -0.7071068 0.7071068
vn 0 -0.7071068 0.7071068
vn 0 -0.7071068 0.7071068
vn 0 -0.7071068 -0.7071068
vn 0 -0.7071068 -0.7071068
vn 0 -0.7071068 -0.7071068
vn 0 -0.7071068 -0.7071068
vn 0 -1 0
vn 0 -1 0
vn 0 -1 0
vn 0 -1 0
vn 0 0 1
vn 0 0 1
vn 0 0 1
vn 0 0 1
vn 0 1 0
vn 0 1 0
vn 0 1 0
vn 0 1 0
vn 0 1 0
vn 0 1 0
vn 0 0 -1
vn 0 0 -1
vn 0 0 -1
vn 0 0 -1
vn 0 0 -1
vn 0 0 -1
vn 0 0 -1
vn 0 0 -1
vn 0 1 0
vn 0 1 0
vn 0 1 0
vn 0 0 -1
vn 0 0 -1
vn 0 0 -1
vn 0 -1 0
vn 0 -1 0
vn 0 -1 0
vn 0 0 -1
vn 0 0 -1
vn 0 0 -1
vn 0 0 1
vn 0 0 1
vn 0 -1 0
vn 0 -1 0
vn 0 -1 0
vn 0 0 1
vn 0 0 1
vn 0 0 1
vn 0 1 0
vn 0 1 0
vn 0 1 0
vn 0 0 1
vn 0 0 1
vn 0 0 1
vn 0 0 1
vn 0 0 1
vn 0 0 1
vn 0 0 1
vn 0 0 1
vn 0 -1 0
vn 0 -1 0
vn 0 -1 0
vn 0 -1 0
vn 1 0 0
vn 1 0 0
vn 1 0 0
vn 1 0 0
vn 1 0 0
vn 1 0 0
vn 1 0 0
vn 1 0 0
vn 0 1 0
vn 0 1 0
vn 0 1 0
vn 0 1 0
vn 1 0 0
vn 1 0 0
vn 0 -1 0
vn 0 -1 0
vn 0 -1 0
vn 0 -1 0
vn 1 0 0
vn 1 0 0
vn 1 0 0
vn 1 0 0
vn 1 0 0
vn 1 0 0
vn 1 0 0
vn 1 0 0
vn 1 0 0
vn 1 0 0
vn 1 0 0
vn 1 0 0
vn 1 0 0
vn 1 0 0
vn 1 0 0
vn 1 0 0
vn 1 0 0
vn 1 0 0
vn 1 0 0
vn 0 0 -1
vn 0 0 -1
vn 0 0 1
vn 0 0 1
vn 0 1 0
vn 0 1 0
vn 0 1 0
vn 0 1 0
vn 0 -1 0
vn 0 -1 0
vn 0 -1 0
vn 0 -1 0
vn 1 0 0
vn 1 0 0
vn 1 0 0
vn 1 0 0
vn 0.4228468 0.4608988 -0.7802389
vn 0.4228468 0.4608988 -0.7802389
vn 0.4228468 0.4608988 -0.7802389
vn 0.5274693 0.5749356 0.6254801
vn 0.5274693 0.5749356 0.6254801
vn 0.5274693 0.5749356 0.6254801
vn 0.2082064 -0.9730302 -0.09930981
vn 0.2082064 -0.9730302 -0.09930981
vn 0.2082064 -0.9730302 -0.09930981
vn 0.318057 0.9350365 -0.1566734
vn 0.318057 0.9350365 -0.1566734
vn 0.318057 0.9350365 -0.1566734
vn 0.318057 0.9350365 -0.1566734
vn -0.4375327 -0.02058196 -0.8989669
vn -0.4375327 -0.02058196 -0.8989669
vn -0.4375327 -0.02058196 -0.8989669
vn 0.9423354 0.1016283 0.318866
vn 0.9423354 0.1016283 0.318866
vn 0.9423354 0.1016283 0.318866
vn 0.9423354 0.1016283 0.318866
vn 0.9423354 0.1016283 0.318866
vn 0.9423354 0.1016283 0.318866
vn 0.9423354 0.1016283 0.318866
vn 0.9423354 0.1016283 0.318866
vn 0.9423354 0.1016283 0.318866
vn 0.9423354 0.1016283 0.318866
vn 0.9423354 0.1016283 0.318866
vn 0.9443989 0.1739796 0.2790013
vn 0.9443989 0.1739796 0.2790013
vn 0.9443989 0.1739796 0.2790013
vn 0.8564673 -0.5110433 -0.07279124
vn 0.8564673 -0.5110433 -0.07279124
vn 0.8564673 -0.5110433 -0.07279124
vn 0.8564673 -0.5110433 -0.07279124
vn 0.8564673 -0.5110433 -0.07279124
vn -0.1159763 0.9895502 0.08567366
vn -0.1159763 0.9895502 0.08567366
vn -0.1159763 0.9895502 0.08567366
vn 0.8476045 0.2589191 -0.4631712
vn 0.8476045 0.2589191 -0.4631712
vn 0.8476045 0.2589191 -0.4631712
vn 0.8476045 0.2589191 -0.4631712
vn 0.8476045 0.2589191 -0.4631712
vn 0.8476045 0.2589191 -0.4631712
vn 0.8476045 0.2589191 -0.4631712
vn 0.8476045 0.2589191 -0.4631712
vn 0.8476045 0.2589191 -0.4631712
vn 0.8476045 0.2589191 -0.4631712
vn 0.8476045 0.2589191 -0.4631712
vn 0.8476045 0.2589191 -0.4631712
vn 0.9210392 0.165334 -0.3526352
vn 0.9210392 0.165334 -0.3526352
vn 0.9210392 0.165334 -0.3526352
vn 0.9210405 0.1653276 -0.3526347
vn 0.9210405 0.1653276 -0.3526347
vn 0.9210405 0.1653276 -0.3526347
vn 0.4999998 0.7071066 -0.5000004
vn 0.4999998 0.7071066 -0.5000004
vn 0.4999998 0.7071066 -0.5000004
g arch bridge segment broken_0
f 209/209/209 208/208/208 207/207/207
f 211/211/211 84/84/84 210/210/210
f 238/238/238 237/237/237 236/236/236
f 241/241/241 240/240/240 239/239/239
f 251/251/251 250/250/250 249/249/249
f 254/254/254 253/253/253 252/252/252
f 257/257/257 256/256/256 255/255/255
f 273/273/273 272/272/272 271/271/271
f 288/288/288 287/287/287 286/286/286
f 291/291/291 290/290/290 289/289/289
f 294/294/294 293/293/293 292/292/292
f 5/5/5 6/6/6 7/7/7
f 5/5/5 7/7/7 8/8/8
f 4/4/4 5/5/5 8/8/8
f 4/4/4 8/8/8 1/1/1
f 3/3/3 4/4/4 1/1/1
f 1/1/1 2/2/2 3/3/3
f 27/27/27 28/28/28 9/9/9
f 27/27/27 9/9/9 14/14/14
f 9/9/9 93/93/93 14/14/14
f 27/27/27 14/14/14 15/15/15
f 26/26/26 27/27/27 15/15/15
f 26/26/26 15/15/15 16/16/16
f 16/16/16 25/25/25 26/26/26
f 25/25/25 16/16/16 95/95/95
f 93/93/93 13/13/13 14/14/14
f 13/13/13 93/93/93 92/92/92
f 13/13/13 92/92/92 10/10/10
f 13/13/13 10/10/10 11/11/11
f 11/11/11 12/12/12 13/13/13
f 22/22/22 23/23/23 24/24/24
f 24/24/24 19/19/19 22/22/22
f 22/22/22 19/19/19 20/20/20
f 20/20/20 21/21/21 22/22/22
f 24/24/24 18/18/18 19/19/19
f 24/24/24 17/17/17 18/18/18
f 24/24/24 94/94/94 17/17/17
f 98/98/98 97/97/97 96/96/96
f 29/29/29 98/98/98 96/96/96
f 100/100/100 99/99/99 43/43/43
f 100/100/100 43/43/43 37/37/37
f 35/35/35 37/37/37 43/43/43
f 35/35/35 43/43/43 44/44/44
f 34/34/34 35/35/35 44/44/44
f 35/35/35 36/36/36 37/37/37
f 34/34/34 44/44/44 103/103/103
f 34/34/34 103/103/103 102/102/102
f 34/34/34 102/102/102 101/101/101
f 34/34/34 101/101/101 30/30/30
f 34/34/34 30/30/30 31/31/31
f 34/34/34 31/31/31 32/32/32
f 32/32/32 33/33/33 34/34/34
f 100/100/100 37/37/37 39/39/39
f 37/37/37 38/38/38 39/39/39
f 42/42/42 100/100/100 39/39/39
f 42/42/42 39/39/39 40/40/40
f 40/40/40 41/41/41 42/42/42
f 47/47/47 105/105/105 104/104/104
f 46/46/46 47/47/47 104/104/104
f 104/104/104 45/45/45 46/46/46
f 45/45/45 104/104/104 106/106/106
f 48/48/48 108/108/108 107/107/107
f 109/109/109 48/48/48 107/107/107
f 50/50/50 49/49/49 110/110/110
f 110/110/110 111/111/111 50/50/50
f 111/111/111 112/112/112 50/50/50
f 111/111/111 113/113/113 112/112/112
f 116/116/116 115/115/115 114/114/114
f 117/117/117 116/116/116 114/114/114
f 120/120/120 119/119/119 118/118/118
f 121/121/121 120/120/120 118/118/118
f 124/124/124 123/123/123 122/122/122
f 125/125/125 124/124/124 122/122/122
f 128/128/128 127/127/127 126/126/126
f 129/129/129 128/128/128 126/126/126
f 132/132/132 131/131/131 130/130/130
f 133/133/133 132/132/132 130/130/130
f 52/52/52 135/135/135 134/134/134
f 134/134/134 136/136/136 52/52/52
f 134/134/134 137/137/137 136/136/136
f 134/134/134 51/51/51 137/137/137
f 134/134/134 138/138/138 51/51/51
f 134/134/134 139/139/139 138/138/138
f 142/142/142 141/141/141 140/140/140
f 140/140/140 143/143/143 142/142/142
f 140/140/140 144/144/144 143/143/143
f 57/57/57 58/58/58 145/145/145
f 145/145/145 54/54/54 57/57/57
f 54/54/54 145/145/145 147/147/147
f 54/54/54 147/147/147 146/146/146
f 146/146/146 53/53/53 54/54/54
f 57/57/57 54/54/54 55/55/55
f 55/55/55 56/56/56 57/57/57
f 149/149/149 148/148/148 59/59/59
f 150/150/150 149/149/149 59/59/59
f 152/152/152 151/151/151 60/60/60
f 153/153/153 152/152/152 60/60/60
f 155/155/155 154/154/154 61/61/61
f 61/61/61 156/156/156 155/155/155
f 61/61/61 62/62/62 156/156/156
f 62/62/62 61/61/61 80/80/80
f 158/158/158 63/63/63 157/157/157
f 159/159/159 158/158/158 157/157/157
f 65/65/65 66/66/66 64/64/64
f 64/64/64 160/160/160 65/65/65
f 64/64/64 161/161/161 160/160/160
f 163/163/163 162/162/162 67/67/67
f 67/67/67 164/164/164 163/163/163
f 67/67/67 68/68/68 164/164/164
f 166/166/166 165/165/165 70/70/70
f 70/70/70 69/69/69 166/166/166
f 69/69/69 167/167/167 166/166/166
f 169/169/169 168/168/168 71/71/71
f 170/170/170 169/169/169 71/71/71
f 72/72/72 172/172/172 171/171/171
f 171/171/171 73/73/73 72/72/72
f 73/73/73 171/171/171 174/174/174
f 174/174/174 173/173/173 73/73/73
f 177/177/177 176/176/176 175/175/175
f 178/178/178 177/177/177 175/175/175
f 181/181/181 180/180/180 179/179/179
f 182/182/182 181/181/181 179/179/179
f 185/185/185 186/186/186 74/74/74
f 183/183/183 185/185/185 74/74/74
f 74/74/74 184/184/184 183/183/183
f 74/74/74 75/75/75 184/184/184
f 189/189/189 188/188/188 187/187/187
f 188/188/188 190/190/190 187/187/187
f 193/193/193 192/192/192 191/191/191
f 194/194/194 193/193/193 191/191/191
f 76/76/76 77/77/77 195/195/195
f 196/196/196 76/76/76 195/195/195
f 199/199/199 198/198/198 197/197/197
f 200/200/200 199/199/199 197/197/197
f 78/78/78 79/79/79 201/201/201
f 202/202/202 78/78/78 201/201/201
f 205/205/205 204/204/204 203/203/203
f 203/203/203 82/82/82 205/205/205
f 82/82/82 83/83/83 205/205/205
f 203/203/203 81/81/81 82/82/82
f 203/203/203 206/206/206 81/81/81
f 214/214/214 213/213/213 212/212/212
f 215/215/215 214/214/214 212/212/212
f 218/218/218 217/217/217 216/216/216
f 219/219/219 218/218/218 216/216/216
f 85/85/85 86/86/86 220/220/220
f 221/221/221 85/85/85 220/220/220
f 87/87/87 88/88/88 222/222/222
f 223/223/223 87/87/87 222/222/222
f 226/226/226 225/225/225 224/224/224
f 227/227/227 226/226/226 224/224/224
f 230/230/230 229/229/229 228/228/228
f 231/231/231 230/230/230 228/228/228
f 234/234/234 233/233/233 232/232/232
f 235/235/235 234/234/234 232/232/232
f 243/243/243 89/89/89 242/242/242
f 244/244/244 243/243/243 242/242/242
f 247/247/247 246/246/246 245/245/245
f 248/248/248 247/247/247 245/245/245
f 260/260/260 261/261/261 90/90/90
f 259/259/259 260/260/260 90/90/90
f 259/259/259 90/90/90 258/258/258
f 262/262/262 258/258/258 90/90/90
f 264/264/264 91/91/91 263/263/263
f 265/265/265 264/264/264 263/263/263
f 268/268/268 267/267/267 266/266/266
f 266/266/266 269/269/269 268/268/268
f 266/266/266 270/270/270 269/269/269
f 276/276/276 275/275/275 274/274/274
f 275/275/275 276/276/276 285/285/285
f 279/279/279 278/278/278 277/277/277
f 277/277/277 280/280/280 279/279/279
f 277/277/277 281/281/281 280/280/280
f 277/277/277 282/282/282 281/281/281
f 277/277/277 283/283/283 282/282/282
f 277/277/277 284/284/284 283/283/283
