g beefboy_debris.008
v 0.9426699 1.110543 -0.5410906
v 0.9678358 1.04458 -0.8709378
v 1.113221 1.10844 -0.5781287
v 1.409674 1.65701 0.1482674
v 1.691901 1.746835 0.5675664
v 1.454137 1.86155 0.4372732
v 1.618446 1.54813 0.2654554
v 1.302737 1.378614 -0.2183263
v 1.636215 1.531826 0.7737283
v 1.484864 1.252289 -0.1421175
v 1.233181 1.221925 -0.4116207
v 1.582829 1.314702 0.4761055
v 1.468256 1.292218 0.9149811
v 1.407092 1.071033 0.6448013
v 1.422479 0.9786581 -0.04135328
v 1.302356 0.8083506 0.287813
v 1.403226 1.10536 -0.3488893
v 1.113221 1.10844 -0.5781287
v 1.32658 0.8743116 -0.3423799
v 1.204026 0.9884313 -0.55856
v 0.9678358 1.04458 -0.8709378
v 1.191813 0.8551165 -0.6406001
v 1.407092 1.071033 0.6448013
v 1.207842 1.467823 0.8105992
v 1.468256 1.292218 0.9149811
v 1.14273 1.256944 0.5343375
v 1.302356 0.8083506 0.287813
v 1.050716 0.9595938 0.0426919
v 0.9780291 1.467639 0.3597879
v 1.051902 1.634199 0.6166146
v 1.173197 1.814771 0.457329
v 1.088447 1.613921 0.195663
v 0.907678 1.207763 -0.03028366
v 0.9757165 0.8707505 -0.2638782
v 0.9842139 1.35217 -0.1610331
v 0.8570883 1.085357 -0.2528496
v 0.8766059 0.8615979 -0.568751
v 0.9488415 1.209872 -0.3517585
v 0.8913122 0.9849564 -0.5112929
v 0.9678358 1.04458 -0.8709378
v 0.9426699 1.110543 -0.5410906
v 1.173197 1.814771 0.457329
v 1.409674 1.65701 0.1482674
v 1.454137 1.86155 0.4372732
v 1.088447 1.613921 0.195663
v 1.302737 1.378614 -0.2183263
v 0.9842139 1.35217 -0.1610331
v 1.233181 1.221925 -0.4116207
v 0.9488415 1.209872 -0.3517585
v 1.113221 1.10844 -0.5781287
v 0.9426699 1.110543 -0.5410906
v 1.454137 1.86155 0.4372732
v 1.691901 1.746835 0.5675664
v 1.636215 1.531826 0.7737283
v 1.468256 1.292218 0.9149811
v 1.207842 1.467823 0.8105992
v 1.173197 1.814771 0.457329
v 1.051902 1.634199 0.6166146
v 0.8766059 0.8615979 -0.568751
v 1.191813 0.8551165 -0.6406001
v 0.9678358 1.04458 -0.8709378
v 0.9757165 0.8707505 -0.2638782
v 1.32658 0.8743116 -0.3423799
v 1.422479 0.9786581 -0.04135328
v 1.050716 0.9595938 0.0426919
v 1.302356 0.8083506 0.287813
vt 0.0997062 0.8782569
vt 0.1040554 0.8775845
vt 0.1011429 0.8779263
vt 0.09464946 0.1123635
vt 0.09464946 0.1123635
vt 0.09464946 0.1123635
vt 0.09464946 0.1123635
vt 0.09464946 0.1123635
vt 0.09464946 0.1123635
vt 0.09464946 0.1123635
vt 0.09464946 0.1123635
vt 0.09464946 0.1123635
vt 0.09464946 0.1123635
vt 0.09464946 0.1123635
vt 0.09464946 0.1123635
vt 0.09464946 0.1123635
vt 0.09464946 0.1123635
vt 0.09464946 0.1123635
vt 0.09464946 0.1123635
vt 0.09464946 0.1123635
vt 0.09464946 0.1123635
vt 0.09464946 0.1123635
vt 0.09464946 0.1123635
vt 0.09464946 0.1123635
vt 0.09464946 0.1123635
vt 0.09464946 0.1123635
vt 0.09464946 0.1123635
vt 0.09464946 0.1123635
vt 0.09464946 0.1123635
vt 0.09464946 0.1123635
vt 0.09464946 0.1123635
vt 0.09464946 0.1123635
vt 0.09464946 0.1123635
vt 0.09464946 0.1123635
vt 0.09464946 0.1123635
vt 0.09464946 0.1123635
vt 0.09464946 0.1123635
vt 0.09464946 0.1123635
vt 0.09464946 0.1123635
vt 0.09464946 0.1123635
vt 0.09464946 0.1123635
vt 0.08827558 0.8866485
vt 0.09355441 0.884279
vt 0.09011975 0.8867612
vt 0.09113374 0.8842723
vt 0.0976254 0.8809682
vt 0.09509376 0.8811771
vt 0.09969744 0.8791118
vt 0.09732631 0.87945
vt 0.1011429 0.8779263
vt 0.0997062 0.8782569
vt 0.8393824 0.1523537
vt 0.8420799 0.1496039
vt 0.840715 0.1458811
vt 0.8379276 0.142671
vt 0.8350273 0.145887
vt 0.8356466 0.1523537
vt 0.8335515 0.1495156
vt 0.8288277 0.1468294
vt 0.8330443 0.1471781
vt 0.8311726 0.142671
vt 0.8288574 0.1510256
vt 0.8335439 0.1514382
vt 0.8335439 0.1557916
vt 0.8285742 0.1553063
vt 0.8305385 0.1599091
vn -0.08359131 0.9279277 -0.3632667
vn -0.03097683 0.9796615 -0.1982517
vn -0.08502704 0.9260501 -0.3676977
vn 0.6049874 0.5632673 -0.562779
vn 0.9471829 0.1382809 -0.2893492
vn 0.5958913 0.6030939 -0.5302746
vn 0.908089 0.191689 -0.3723302
vn 0.6035732 0.5230032 -0.6018031
vn 0.9289588 -0.3619824 0.07748698
vn 0.8937066 0.1392916 -0.4264814
vn 0.5869494 0.4411582 -0.678874
vn 0.9253843 -0.3774968 0.03405986
vn 0.8543484 -0.4803383 0.1984039
vn 0.8573424 -0.4959353 0.1378853
vn 0.9323948 -0.3508497 -0.0868579
vn 0.8572617 -0.5073863 0.08752986
vn 0.8511566 0.1014466 -0.5150155
vn 0.6710839 0.4414279 -0.5956407
vn 0.9005957 -0.1818954 -0.3947679
vn 0.7729561 0.2029212 -0.6011338
vn 0.7710372 0.3733414 -0.5158661
vn 0.8251212 0.1256177 -0.5508133
vn -0.6485019 -0.5354284 0.5410745
vn -0.7287815 -0.4449782 0.5204535
vn -0.6109123 -0.5462412 0.5730679
vn -0.7588714 -0.4381098 0.4818444
vn -0.6882732 -0.521851 0.5039361
vn -0.8024408 -0.430412 0.4133212
vn -0.981339 0.08728439 0.1713338
vn -0.9720724 0.06827183 0.224531
vn -0.855303 0.5086344 -0.09872989
vn -0.8703415 0.4810408 -0.1053822
vn -0.9869527 0.02700928 0.1587291
vn -0.8891719 -0.372027 0.2664006
vn -0.8827335 0.4566568 -0.1106621
vn -0.9964867 0.009094761 0.08325674
vn -0.9992391 -0.02896212 -0.0261239
vn -0.8887773 0.4247038 -0.1723414
vn -0.9950224 0.08194447 -0.05670495
vn -0.9492689 0.2725974 -0.1567771
vn -0.9096668 0.3704467 -0.1878175
vn -0.1832368 0.8117169 -0.5545628
vn -0.1813442 0.8121426 -0.5545617
vn -0.1832368 0.8117169 -0.5545628
vn -0.180888 0.8122411 -0.5545665
vn -0.1720371 0.8068684 -0.5651253
vn -0.170757 0.8058082 -0.567023
vn -0.1461871 0.8302754 -0.5378402
vn -0.1432877 0.8351279 -0.5310649
vn -0.08502704 0.9260501 -0.3676977
vn -0.08359131 0.9279277 -0.3632667
vn -0.05259251 0.6725464 0.7381837
vn -0.05259251 0.6725464 0.7381837
vn -0.05259251 0.6725464 0.7381837
vn -0.05259251 0.6725464 0.7381837
vn -0.05259251 0.6725464 0.7381837
vn -0.05259251 0.6725464 0.7381837
vn -0.05259251 0.6725464 0.7381837
vn -0.06109993 -0.973082 -0.2222121
vn -0.05285905 -0.9805171 -0.1891878
vn -0.1409084 -0.8274438 -0.5435822
vn 0.04788397 -0.9862145 0.1583925
vn 0.05368248 -0.9832835 0.1739874
vn 0.03061075 -0.9988625 -0.03656199
vn 0.03271603 -0.9991208 -0.02621555
vn -0.06277826 -0.8768814 -0.4765899
g beefboy_debris.008_0
f 3/3/3 2/2/2 1/1/1
f 6/6/6 5/5/5 4/4/4
f 5/5/5 7/7/7 4/4/4
f 4/4/4 7/7/7 8/8/8
f 5/5/5 9/9/9 7/7/7
f 7/7/7 10/10/10 8/8/8
f 8/8/8 10/10/10 11/11/11
f 9/9/9 12/12/12 7/7/7
f 7/7/7 12/12/12 10/10/10
f 9/9/9 13/13/13 12/12/12
f 13/13/13 14/14/14 12/12/12
f 12/12/12 14/14/14 15/15/15
f 12/12/12 15/15/15 10/10/10
f 14/14/14 16/16/16 15/15/15
f 10/10/10 17/17/17 11/11/11
f 10/10/10 15/15/15 17/17/17
f 11/11/11 17/17/17 18/18/18
f 15/15/15 19/19/19 17/17/17
f 17/17/17 20/20/20 18/18/18
f 17/17/17 19/19/19 20/20/20
f 20/20/20 21/21/21 18/18/18
f 19/19/19 22/22/22 20/20/20
f 22/22/22 21/21/21 20/20/20
f 25/25/25 24/24/24 23/23/23
f 24/24/24 26/26/26 23/23/23
f 23/23/23 26/26/26 27/27/27
f 26/26/26 28/28/28 27/27/27
f 29/29/29 26/26/26 24/24/24
f 30/30/30 29/29/29 24/24/24
f 30/30/30 31/31/31 29/29/29
f 31/31/31 32/32/32 29/29/29
f 28/28/28 26/26/26 33/33/33
f 26/26/26 29/29/29 33/33/33
f 29/29/29 32/32/32 33/33/33
f 34/34/34 28/28/28 33/33/33
f 32/32/32 35/35/35 33/33/33
f 36/36/36 34/34/34 33/33/33
f 33/33/33 35/35/35 36/36/36
f 34/34/34 36/36/36 37/37/37
f 35/35/35 38/38/38 36/36/36
f 36/36/36 39/39/39 37/37/37
f 36/36/36 38/38/38 39/39/39
f 39/39/39 40/40/40 37/37/37
f 38/38/38 41/41/41 39/39/39
f 41/41/41 40/40/40 39/39/39
f 44/44/44 43/43/43 42/42/42
f 43/43/43 45/45/45 42/42/42
f 43/43/43 46/46/46 45/45/45
f 46/46/46 47/47/47 45/45/45
f 46/46/46 48/48/48 47/47/47
f 48/48/48 49/49/49 47/47/47
f 48/48/48 50/50/50 49/49/49
f 50/50/50 51/51/51 49/49/49
f 54/54/54 53/53/53 52/52/52
f 52/52/52 55/55/55 54/54/54
f 52/52/52 56/56/56 55/55/55
f 52/52/52 57/57/57 56/56/56
f 57/57/57 58/58/58 56/56/56
f 61/61/61 60/60/60 59/59/59
f 62/62/62 59/59/59 60/60/60
f 63/63/63 62/62/62 60/60/60
f 63/63/63 64/64/64 62/62/62
f 64/64/64 65/65/65 62/62/62
f 65/65/65 64/64/64 66/66/66
