g beveled cube size 2
v -2 -1 -1
v -1 -1 -2
v -2 0 -2
v -1 -1 2
v -2 -1 1
v -2 0 2
v -1 3 -2
v -2 3 -1
v -2 2 -2
v -1 3 2
v -2 2 2
v -2 3 1
v 1 -1 -2
v 2 -1 -1
v 2 0 -2
v 1 -1 2
v 2 0 2
v 2 -1 1
v 2 2 -2
v 2 3 -1
v 1 3 -2
v 2 2 2
v 1 3 2
v 2 3 1
v 1 -1 -2
v 2 0 -2
v 2 2 -2
v 1 3 -2
v -1 -1 -2
v -1 3 -2
v -2 0 -2
v -2 2 -2
v 2 0 -2
v 2 -1 -1
v 2 -1 1
v 2 0 2
v 2 2 -2
v 2 2 2
v 2 3 -1
v 2 3 1
v 1 3 2
v 2 2 2
v 2 0 2
v 1 -1 2
v -1 3 2
v -1 -1 2
v -2 2 2
v -2 0 2
v 2 -1 -1
v 1 -1 -2
v -1 -1 -2
v -2 -1 -1
v 2 -1 1
v -2 -1 1
v 1 -1 2
v -1 -1 2
v -2 3 -1
v -1 3 -2
v 1 3 -2
v 2 3 -1
v -2 3 1
v 2 3 1
v -1 3 2
v 1 3 2
v -2 0 2
v -2 -1 1
v -2 -1 -1
v -2 0 -2
v -2 2 2
v -2 2 -2
v -2 3 1
v -2 3 -1
vt 1.25 -3.75
vt 1.25 -4.75
vt 2.25 -4.75
vt -3.75 1.25
vt -4.75 1.25
vt -4.75 2.25
vt 0.25 5.25
vt -0.75 5.25
vt -0.75 4.25
vt 0.25 -0.75
vt -0.75 -0.75
vt -0.75 -1.75
vt 2.25 1.25
vt 3.25 1.25
vt 3.25 2.25
vt -1.75 -0.75
vt -0.75 -0.75
vt -0.75 -1.75
vt 3.25 4.25
vt 3.25 5.25
vt 2.25 5.25
vt 0.25 -0.75
vt 1.25 -0.75
vt 1.25 -1.75
vt 2.25 1.25
vt 3.25 2.25
vt 3.25 4.25
vt 2.25 5.25
vt 0.25 1.25
vt 0.25 5.25
vt -0.75 2.25
vt -0.75 4.25
vt -1.75 -4.75
vt -2.75 -3.75
vt -2.75 -1.75
vt -1.75 -0.75
vt 0.25 -4.75
vt 0.25 -0.75
vt 1.25 -3.75
vt 1.25 -1.75
vt -1.75 5.25
vt -0.75 4.25
vt -0.75 2.25
vt -1.75 1.25
vt -3.75 5.25
vt -3.75 1.25
vt -4.75 4.25
vt -4.75 2.25
vt -0.75 -3.75
vt -1.75 -4.75
vt -3.75 -4.75
vt -4.75 -3.75
vt -0.75 -1.75
vt -4.75 -1.75
vt -1.75 -0.75
vt -3.75 -0.75
vt -0.75 -3.75
vt 0.25 -4.75
vt 2.25 -4.75
vt 3.25 -3.75
vt -0.75 -1.75
vt 3.25 -1.75
vt 0.25 -0.75
vt 2.25 -0.75
vt 2.25 -0.75
vt 1.25 -1.75
vt 1.25 -3.75
vt 2.25 -4.75
vt 4.25 -0.75
vt 4.25 -4.75
vt 5.25 -1.75
vt 5.25 -3.75
vn -0.5773503 -0.5773503 -0.5773503
vn -0.5773503 -0.5773503 -0.5773503
vn -0.5773503 -0.5773503 -0.5773503
vn -0.5773503 -0.5773503 0.5773503
vn -0.5773503 -0.5773503 0.5773503
vn -0.5773503 -0.5773503 0.5773503
vn -0.5773503 0.5773503 -0.5773503
vn -0.5773503 0.5773503 -0.5773503
vn -0.5773503 0.5773503 -0.5773503
vn -0.5773503 0.5773503 0.5773503
vn -0.5773503 0.5773503 0.5773503
vn -0.5773503 0.5773503 0.5773503
vn 0.5773503 -0.5773503 -0.5773503
vn 0.5773503 -0.5773503 -0.5773503
vn 0.5773503 -0.5773503 -0.5773503
vn 0.5773503 -0.5773503 0.5773503
vn 0.5773503 -0.5773503 0.5773503
vn 0.5773503 -0.5773503 0.5773503
vn 0.5773503 0.5773503 -0.5773503
vn 0.5773503 0.5773503 -0.5773503
vn 0.5773503 0.5773503 -0.5773503
vn 0.5773503 0.5773503 0.5773503
vn 0.5773503 0.5773503 0.5773503
vn 0.5773503 0.5773503 0.5773503
vn 0 0 -1
vn 0 0 -1
vn 0 0 -1
vn 0 0 -1
vn 0 0 -1
vn 0 0 -1
vn 0 0 -1
vn 0 0 -1
vn 1 0 0
vn 1 0 0
vn 1 0 0
vn 1 0 0
vn 1 0 0
vn 1 0 0
vn 1 0 0
vn 1 0 0
vn 0 0 1
vn 0 0 1
vn 0 0 1
vn 0 0 1
vn 0 0 1
vn 0 0 1
vn 0 0 1
vn 0 0 1
vn 0 -1 0
vn 0 -1 0
vn 0 -1 0
vn 0 -1 0
vn 0 -1 0
vn 0 -1 0
vn 0 -1 0
vn 0 -1 0
vn 0 1 0
vn 0 1 0
vn 0 1 0
vn 0 1 0
vn 0 1 0
vn 0 1 0
vn 0 1 0
vn 0 1 0
vn -1 0 0
vn -1 0 0
vn -1 0 0
vn -1 0 0
vn -1 0 0
vn -1 0 0
vn -1 0 0
vn -1 0 0
g beveled cube size 2_0
f 3/3/3 2/2/2 1/1/1
f 6/6/6 5/5/5 4/4/4
f 9/9/9 8/8/8 7/7/7
f 12/12/12 11/11/11 10/10/10
f 15/15/15 14/14/14 13/13/13
f 18/18/18 17/17/17 16/16/16
f 21/21/21 20/20/20 19/19/19
f 24/24/24 23/23/23 22/22/22
f 27/27/27 26/26/26 25/25/25
f 25/25/25 28/28/28 27/27/27
f 25/25/25 29/29/29 28/28/28
f 29/29/29 30/30/30 28/28/28
f 29/29/29 31/31/31 30/30/30
f 31/31/31 32/32/32 30/30/30
f 35/35/35 34/34/34 33/33/33
f 33/33/33 36/36/36 35/35/35
f 33/33/33 37/37/37 36/36/36
f 37/37/37 38/38/38 36/36/36
f 37/37/37 39/39/39 38/38/38
f 39/39/39 40/40/40 38/38/38
f 43/43/43 42/42/42 41/41/41
f 41/41/41 44/44/44 43/43/43
f 41/41/41 45/45/45 44/44/44
f 45/45/45 46/46/46 44/44/44
f 45/45/45 47/47/47 46/46/46
f 47/47/47 48/48/48 46/46/46
f 51/51/51 50/50/50 49/49/49
f 49/49/49 52/52/52 51/51/51
f 49/49/49 53/53/53 52/52/52
f 53/53/53 54/54/54 52/52/52
f 53/53/53 55/55/55 54/54/54
f 55/55/55 56/56/56 54/54/54
f 59/59/59 58/58/58 57/57/57
f 57/57/57 60/60/60 59/59/59
f 57/57/57 61/61/61 60/60/60
f 61/61/61 62/62/62 60/60/60
f 61/61/61 63/63/63 62/62/62
f 63/63/63 64/64/64 62/62/62
f 67/67/67 66/66/66 65/65/65
f 65/65/65 68/68/68 67/67/67
f 65/65/65 69/69/69 68/68/68
f 69/69/69 70/70/70 68/68/68
f 69/69/69 71/71/71 70/70/70
f 71/71/71 72/72/72 70/70/70
