g bomb flask
v -0.2749232 -0.4714043 -4.558002E-08
v -0.216 -0.1659341 -0.3741231
v -0.1374616 -0.4714043 -0.2380905
v -0.432 -0.1659341 -2.769863E-08
v -0.1843676 -0.01319898 -0.319334
v -0.3687351 -0.01319902 -1.428758E-08
v -0.1374616 -0.4714043 -0.2380905
v 0.2160001 -0.1659341 -0.374123
v 0.1374616 -0.4714042 -0.2380905
v -0.216 -0.1659341 -0.3741231
v 0.1843676 -0.01319898 -0.3193339
v -0.1843676 -0.01319898 -0.319334
v 0.1374616 -0.4714042 -0.2380905
v 0.4320001 -0.1659341 4.382695E-08
v 0.2749232 -0.4714043 -9.817237E-09
v 0.2160001 -0.1659341 -0.374123
v 0.3687352 -0.01319902 4.382695E-08
v 0.1843676 -0.01319898 -0.3193339
v 0.2749232 -0.4714043 -9.817237E-09
v 0.216 -0.1659341 0.3741232
v 0.1374616 -0.4714043 0.2380905
v 0.4320001 -0.1659341 4.382695E-08
v 0.1843675 -0.01319905 0.3193341
v 0.3687352 -0.01319902 4.382695E-08
v 0.1374616 -0.4714043 0.2380905
v -0.2160001 -0.1659341 0.374123
v -0.1374617 -0.4714043 0.2380904
v 0.216 -0.1659341 0.3741232
v -0.1843676 -0.01319905 0.3193339
v 0.1843675 -0.01319905 0.3193341
v -0.09164102 0.08553606 -0.158727
v -0.1150373 0.1593727 -0.1992504
v -0.2300746 0.1593727 -8.765393E-10
v -0.1832821 0.08553605 -8.765393E-10
v -0.1150374 0.1593727 0.1992504
v -0.0916411 0.08553605 0.1587269
v 0.0916411 0.08553606 -0.1587269
v -0.1150373 0.1593727 -0.1992504
v -0.09164102 0.08553606 -0.158727
v 0.1150374 0.1593727 -0.1992504
v 0.1832822 0.08553605 2.594555E-08
v 0.2300747 0.1593727 2.594555E-08
v 0.09164106 0.08553605 0.158727
v 0.2300747 0.1593727 2.594555E-08
v 0.1832822 0.08553605 2.594555E-08
v 0.1150373 0.1593727 0.1992505
v -0.0916411 0.08553605 0.1587269
v -0.1150374 0.1593727 0.1992504
v -0.1374617 -0.4714043 0.2380904
v -0.432 -0.1659341 -2.769863E-08
v -0.2749232 -0.4714043 -4.558002E-08
v -0.2160001 -0.1659341 0.374123
v -0.3687351 -0.01319902 -1.428758E-08
v -0.1150373 0.1593727 -0.1992504
v -0.08907509 0.248717 -0.1542826
v -0.1781502 0.248717 8.064158E-09
v -0.2300746 0.1593727 -8.765393E-10
v -0.08907516 0.248717 0.1542826
v -0.1150374 0.1593727 0.1992504
v 0.1150374 0.1593727 -0.1992504
v 0.08907516 0.248717 -0.1542826
v -0.08907509 0.248717 -0.1542826
v -0.1150373 0.1593727 -0.1992504
v 0.2300747 0.1593727 2.594555E-08
v 0.08907516 0.248717 -0.1542826
v 0.1150374 0.1593727 -0.1992504
v 0.1781503 0.248717 2.594555E-08
v 0.1150373 0.1593727 0.1992505
v 0.08907513 0.248717 0.1542827
v -0.1150374 0.1593727 0.1992504
v -0.08907516 0.248717 0.1542826
v 0.08907513 0.248717 0.1542827
v 0.1150373 0.1593727 0.1992505
v -0.2160001 -0.1659341 0.374123
v -0.1843676 -0.01319905 0.3193339
v -0.3687351 -0.01319902 -1.428758E-08
v -0.1832821 0.08553605 -8.765393E-10
v -0.0916411 0.08553605 0.1587269
v -0.09164102 0.08553606 -0.158727
v 0.1843675 -0.01319905 0.3193341
v -0.1843676 -0.01319898 -0.319334
v 0.09164106 0.08553605 0.158727
v 0.0916411 0.08553606 -0.1587269
v 0.3687352 -0.01319902 4.382695E-08
v 0.1843676 -0.01319898 -0.3193339
v 0.1832822 0.08553605 2.594555E-08
v 3.546573E-08 -0.52404 -4.558002E-08
v -0.2749232 -0.4714043 -4.558002E-08
v -0.1374616 -0.4714043 -0.2380905
v 0.1374616 -0.4714042 -0.2380905
v -0.1374617 -0.4714043 0.2380904
v 0.2749232 -0.4714043 -9.817237E-09
v 0.1374616 -0.4714043 0.2380905
v -0.1781502 0.248717 8.064158E-09
v -0.08907509 0.248717 -0.1542826
v 1.479519E-08 0.2485472 2.594555E-08
v -0.08907516 0.248717 0.1542826
v 0.08907516 0.248717 -0.1542826
v 0.08907513 0.248717 0.1542827
v 0.1781503 0.248717 2.594555E-08
v 6.357257E-09 0.3930739 0.1632961
v 0.163296 0.3930739 2.594555E-08
v 3.069026E-08 0.06648193 -8.134281E-08
v -1.797575E-08 0.3930739 -0.163296
v -0.163296 0.3930739 2.594555E-08
v 3.069026E-08 0.06648193 -8.134281E-08
v 0.163296 0.3930739 2.594555E-08
v -1.797575E-08 0.3930739 -0.163296
v 3.069026E-08 0.06648193 -8.134281E-08
v -0.163296 0.3930739 2.594555E-08
v 6.357257E-09 0.3930739 0.1632961
v 3.069026E-08 0.06648193 -8.134281E-08
v -1.797575E-08 0.3930739 -0.163296
v 0.163296 0.3930739 2.594555E-08
v 6.357257E-09 0.3930739 0.1632961
v -0.163296 0.3930739 2.594555E-08
v -0.2199385 -0.4215707 -3.555613E-08
v -0.1099692 -0.4215707 -0.1904724
v -0.1728 -0.1593256 -0.2992985
v -0.3456 -0.1593256 -2.125101E-08
v -0.147494 -0.01750641 -0.2554672
v -0.2949881 -0.01750645 -1.052218E-08
v -0.1099692 -0.4215707 -0.1904724
v 0.1099693 -0.4215706 -0.1904724
v 0.1728001 -0.1593256 -0.2992984
v -0.1728 -0.1593256 -0.2992985
v 0.1474941 -0.01750641 -0.2554672
v -0.147494 -0.01750641 -0.2554672
v 0.1099693 -0.4215706 -0.1904724
v 0.2199386 -0.4215707 -6.945898E-09
v 0.3456001 -0.1593256 3.596945E-08
v 0.1728001 -0.1593256 -0.2992984
v 0.2949881 -0.01750645 3.596945E-08
v 0.1474941 -0.01750641 -0.2554672
v 0.2199386 -0.4215707 -6.945898E-09
v 0.1099693 -0.4215707 0.1904724
v 0.1728 -0.1593256 0.2992985
v 0.3456001 -0.1593256 3.596945E-08
v 0.147494 -0.01750647 0.2554672
v 0.2949881 -0.01750645 3.596945E-08
v 0.1099693 -0.4215707 0.1904724
v -0.1099693 -0.4215707 0.1904723
v -0.1728001 -0.1593256 0.2992984
v 0.1728 -0.1593256 0.2992985
v -0.1474941 -0.01750647 0.2554672
v 0.147494 -0.01750647 0.2554672
v -0.1099693 -0.4215707 0.1904723
v -0.2199385 -0.4215707 -3.555613E-08
v -0.3456 -0.1593256 -2.125101E-08
v -0.1728001 -0.1593256 0.2992984
v -0.2949881 -0.01750645 -1.052218E-08
v -0.1474941 -0.01750647 0.2554672
v 3.194717E-08 -0.4636793 -3.555613E-08
v -0.1099692 -0.4215707 -0.1904724
v -0.2199385 -0.4215707 -3.555613E-08
v 0.1099693 -0.4215706 -0.1904724
v -0.1099693 -0.4215707 0.1904723
v 0.2199386 -0.4215707 -6.945898E-09
v 0.1099693 -0.4215707 0.1904724
v -0.2949881 -0.01750645 -1.052218E-08
v -0.147494 -0.01750641 -0.2554672
v -0.0733128 0.04950009 -0.1269816
v -0.1466257 0.04950009 -8.919843E-11
v -0.1474941 -0.01750647 0.2554672
v 0.07331289 0.04950009 -0.1269816
v 0.1474941 -0.01750641 -0.2554672
v 0.1466257 0.04950009 2.136847E-08
v 0.2949881 -0.01750645 3.596945E-08
v -0.07331287 0.04950007 0.1269816
v 0.147494 -0.01750647 0.2554672
v 0.07331286 0.04950007 0.1269816
vn 0.8893161 0.4572929 0
vn 0.4996554 0.0365006 0.8654549
vn 0.4446579 0.4572926 0.7701707
vn 0.9993336 0.03650032 0
vn 0.3914121 -0.6222613 0.6779288
vn 0.7828152 -0.6222542 0
vn 0.4446579 0.4572926 0.7701707
vn -0.4996554 0.0365006 0.8654549
vn -0.4446579 0.4572926 0.7701707
vn 0.4996554 0.0365006 0.8654549
vn -0.3914121 -0.6222613 0.6779288
vn 0.3914121 -0.6222613 0.6779288
vn -0.4446579 0.4572926 0.7701707
vn -0.9993336 0.03650032 0
vn -0.8893161 0.4572929 0
vn -0.4996554 0.0365006 0.8654549
vn -0.7828152 -0.6222542 0
vn -0.3914121 -0.6222613 0.6779288
vn -0.8893161 0.4572929 0
vn -0.4996554 0.0365006 -0.8654549
vn -0.4446579 0.4572926 -0.7701707
vn -0.9993336 0.03650032 0
vn -0.3914121 -0.6222613 -0.6779288
vn -0.7828152 -0.6222542 0
vn -0.4446579 0.4572926 -0.7701707
vn 0.4996554 0.0365006 -0.8654549
vn 0.4446579 0.4572926 -0.7701707
vn -0.4996554 0.0365006 -0.8654549
vn 0.3914121 -0.6222613 -0.6779288
vn -0.3914121 -0.6222613 -0.6779288
vn -0.4223262 -0.5352782 -0.7315174
vn -0.4999272 -0.0166327 -0.8659077
vn -0.9998617 -0.01663283 0
vn -0.8446779 -0.535275 0
vn -0.4999272 -0.0166327 0.8659077
vn -0.4223262 -0.5352782 0.7315174
vn 0.4223262 -0.5352782 -0.7315174
vn -0.4999272 -0.0166327 -0.8659077
vn -0.4223262 -0.5352782 -0.7315174
vn 0.4999272 -0.0166327 -0.8659077
vn 0.8446779 -0.535275 0
vn 0.9998617 -0.01663283 0
vn 0.4223262 -0.5352782 0.7315174
vn 0.9998617 -0.01663283 0
vn 0.8446779 -0.535275 0
vn 0.4999272 -0.0166327 0.8659077
vn -0.4223262 -0.5352782 0.7315174
vn -0.4999272 -0.0166327 0.8659077
vn 0.4446579 0.4572926 -0.7701707
vn 0.9993336 0.03650032 0
vn 0.8893161 0.4572929 0
vn 0.4996554 0.0365006 -0.8654549
vn 0.7828152 -0.6222542 0
vn -0.4999272 -0.0166327 -0.8659077
vn -0.4323045 0.5024681 -0.748758
vn -0.864599 0.5024623 0
vn -0.9998617 -0.01663283 0
vn -0.4323045 0.5024681 0.748758
vn -0.4999272 -0.0166327 0.8659077
vn 0.4999272 -0.0166327 -0.8659077
vn 0.4323045 0.5024681 -0.748758
vn -0.4323045 0.5024681 -0.748758
vn -0.4999272 -0.0166327 -0.8659077
vn 0.9998617 -0.01663283 0
vn 0.4323045 0.5024681 -0.748758
vn 0.4999272 -0.0166327 -0.8659077
vn 0.864599 0.5024623 0
vn 0.4999272 -0.0166327 0.8659077
vn 0.4323045 0.5024681 0.748758
vn -0.4999272 -0.0166327 0.8659077
vn -0.4323045 0.5024681 0.748758
vn 0.4323045 0.5024681 0.748758
vn 0.4999272 -0.0166327 0.8659077
vn 0.4996554 0.0365006 -0.8654549
vn 0.3914121 -0.6222613 -0.6779288
vn 0.7828152 -0.6222542 0
vn 0.4699323 -0.8827024 0
vn 0.2349663 -0.8827031 -0.4069718
vn 0.2349663 -0.8827031 0.4069718
vn -0.3914121 -0.6222613 -0.6779288
vn 0.3914121 -0.6222613 0.6779288
vn -0.2349663 -0.8827031 -0.4069718
vn -0.2349663 -0.8827031 0.4069718
vn -0.7828152 -0.6222542 0
vn -0.3914121 -0.6222613 0.6779288
vn -0.4699323 -0.8827024 0
vn 0 1 0
vn 0.1880278 0.9821637 0
vn 0.09399858 0.9821631 0.1628495
vn -0.09399858 0.9821631 0.1628495
vn 0.09399858 0.9821631 -0.1628495
vn -0.1880278 0.9821637 0
vn -0.09399858 0.9821631 -0.1628495
vn 0.0009461022 0.9999995 0
vn 0.0004577914 0.9999996 0.0008240246
vn 0 1 0
vn 0.0004577914 0.9999996 -0.0008240246
vn -0.0004577914 0.9999996 0.0008240246
vn -0.0004577914 0.9999996 -0.0008240246
vn -0.0009461022 0.9999995 0
vn 0.6666667 -0.3333333 0.6666667
vn 0.6666667 -0.3333333 0.6666667
vn 0.6666667 -0.3333333 0.6666667
vn -0.6666667 -0.3333333 -0.6666667
vn -0.6666667 -0.3333333 -0.6666667
vn -0.6666667 -0.3333333 -0.6666667
vn 0.6666667 -0.3333333 -0.6666667
vn 0.6666667 -0.3333333 -0.6666667
vn 0.6666667 -0.3333333 -0.6666667
vn -0.6666667 -0.3333333 0.6666667
vn -0.6666667 -0.3333333 0.6666667
vn -0.6666667 -0.3333333 0.6666667
vn 0 1 0
vn 0 1 0
vn 0 1 0
vn 0 1 0
vn -0.6879004 -0.7258051 0
vn -0.3439516 -0.725808 -0.5957351
vn -0.4994437 -0.04660254 -0.865092
vn -0.9989135 -0.04660233 0
vn -0.4709063 0.3361044 -0.8156476
vn -0.9418234 0.3361082 0
vn -0.3439516 -0.725808 -0.5957351
vn 0.3439516 -0.725808 -0.5957351
vn 0.4994437 -0.04660254 -0.865092
vn -0.4994437 -0.04660254 -0.865092
vn 0.4709063 0.3361044 -0.8156476
vn -0.4709063 0.3361044 -0.8156476
vn 0.3439516 -0.725808 -0.5957351
vn 0.6879004 -0.7258051 0
vn 0.9989135 -0.04660233 0
vn 0.4994437 -0.04660254 -0.865092
vn 0.9418234 0.3361082 0
vn 0.4709063 0.3361044 -0.8156476
vn 0.6879004 -0.7258051 0
vn 0.3439516 -0.725808 0.5957351
vn 0.4994437 -0.04660254 0.865092
vn 0.9989135 -0.04660233 0
vn 0.4709063 0.3361044 0.8156476
vn 0.9418234 0.3361082 0
vn 0.3439516 -0.725808 0.5957351
vn -0.3439516 -0.725808 0.5957351
vn -0.4994437 -0.04660254 0.865092
vn 0.4994437 -0.04660254 0.865092
vn -0.4709063 0.3361044 0.8156476
vn 0.4709063 0.3361044 0.8156476
vn -0.3439516 -0.725808 0.5957351
vn -0.6879004 -0.7258051 0
vn -0.9989135 -0.04660233 0
vn -0.4994437 -0.04660254 0.865092
vn -0.9418234 0.3361082 0
vn -0.4709063 0.3361044 0.8156476
vn 0 -1 0
vn -0.3439516 -0.725808 -0.5957351
vn -0.6879004 -0.7258051 0
vn 0.3439516 -0.725808 -0.5957351
vn -0.3439516 -0.725808 0.5957351
vn 0.6879004 -0.7258051 0
vn 0.3439516 -0.725808 0.5957351
vn -0.4116105 0.91136 0
vn -0.2057908 0.9113636 -0.356464
vn -0.1375814 0.9613909 -0.2383258
vn -0.2751927 0.9613891 0
vn -0.2057908 0.9113636 0.356464
vn 0.1375814 0.9613909 -0.2383258
vn 0.2057908 0.9113636 -0.356464
vn 0.2751927 0.9613891 0
vn 0.4116105 0.91136 0
vn -0.1375814 0.9613909 0.2383258
vn 0.2057908 0.9113636 0.356464
vn 0.1375814 0.9613909 0.2383258
g bomb flask_0
f 3/3/3 2/2/2 1/1/1
f 2/2/2 4/4/4 1/1/1
f 2/2/2 5/5/5 4/4/4
f 5/5/5 6/6/6 4/4/4
f 9/9/9 8/8/8 7/7/7
f 8/8/8 10/10/10 7/7/7
f 8/8/8 11/11/11 10/10/10
f 11/11/11 12/12/12 10/10/10
f 15/15/15 14/14/14 13/13/13
f 14/14/14 16/16/16 13/13/13
f 14/14/14 17/17/17 16/16/16
f 17/17/17 18/18/18 16/16/16
f 21/21/21 20/20/20 19/19/19
f 20/20/20 22/22/22 19/19/19
f 20/20/20 23/23/23 22/22/22
f 23/23/23 24/24/24 22/22/22
f 27/27/27 26/26/26 25/25/25
f 26/26/26 28/28/28 25/25/25
f 26/26/26 29/29/29 28/28/28
f 29/29/29 30/30/30 28/28/28
f 33/33/33 32/32/32 31/31/31
f 34/34/34 33/33/33 31/31/31
f 35/35/35 33/33/33 34/34/34
f 36/36/36 35/35/35 34/34/34
f 39/39/39 38/38/38 37/37/37
f 38/38/38 40/40/40 37/37/37
f 37/37/37 40/40/40 41/41/41
f 40/40/40 42/42/42 41/41/41
f 45/45/45 44/44/44 43/43/43
f 44/44/44 46/46/46 43/43/43
f 43/43/43 46/46/46 47/47/47
f 46/46/46 48/48/48 47/47/47
f 51/51/51 50/50/50 49/49/49
f 50/50/50 52/52/52 49/49/49
f 50/50/50 53/53/53 52/52/52
f 56/56/56 55/55/55 54/54/54
f 57/57/57 56/56/56 54/54/54
f 58/58/58 56/56/56 57/57/57
f 59/59/59 58/58/58 57/57/57
f 62/62/62 61/61/61 60/60/60
f 63/63/63 62/62/62 60/60/60
f 66/66/66 65/65/65 64/64/64
f 65/65/65 67/67/67 64/64/64
f 64/64/64 67/67/67 68/68/68
f 67/67/67 69/69/69 68/68/68
f 72/72/72 71/71/71 70/70/70
f 73/73/73 72/72/72 70/70/70
f 76/76/76 75/75/75 74/74/74
f 76/76/76 77/77/77 75/75/75
f 77/77/77 78/78/78 75/75/75
f 79/79/79 77/77/77 76/76/76
f 75/75/75 78/78/78 80/80/80
f 81/81/81 79/79/79 76/76/76
f 78/78/78 82/82/82 80/80/80
f 83/83/83 79/79/79 81/81/81
f 80/80/80 82/82/82 84/84/84
f 85/85/85 83/83/83 81/81/81
f 82/82/82 86/86/86 84/84/84
f 86/86/86 83/83/83 85/85/85
f 84/84/84 86/86/86 85/85/85
f 89/89/89 88/88/88 87/87/87
f 90/90/90 89/89/89 87/87/87
f 88/88/88 91/91/91 87/87/87
f 92/92/92 90/90/90 87/87/87
f 91/91/91 93/93/93 87/87/87
f 93/93/93 92/92/92 87/87/87
f 96/96/96 95/95/95 94/94/94
f 96/96/96 94/94/94 97/97/97
f 96/96/96 98/98/98 95/95/95
f 96/96/96 97/97/97 99/99/99
f 96/96/96 100/100/100 98/98/98
f 96/96/96 99/99/99 100/100/100
g bomb flask_1
f 103/103/103 102/102/102 101/101/101
f 106/106/106 105/105/105 104/104/104
f 109/109/109 108/108/108 107/107/107
f 112/112/112 111/111/111 110/110/110
f 115/115/115 114/114/114 113/113/113
f 116/116/116 115/115/115 113/113/113
g bomb flask_2
f 119/119/119 118/118/118 117/117/117
f 120/120/120 119/119/119 117/117/117
f 121/121/121 119/119/119 120/120/120
f 122/122/122 121/121/121 120/120/120
f 125/125/125 124/124/124 123/123/123
f 126/126/126 125/125/125 123/123/123
f 127/127/127 125/125/125 126/126/126
f 128/128/128 127/127/127 126/126/126
f 131/131/131 130/130/130 129/129/129
f 132/132/132 131/131/131 129/129/129
f 133/133/133 131/131/131 132/132/132
f 134/134/134 133/133/133 132/132/132
f 137/137/137 136/136/136 135/135/135
f 138/138/138 137/137/137 135/135/135
f 139/139/139 137/137/137 138/138/138
f 140/140/140 139/139/139 138/138/138
f 143/143/143 142/142/142 141/141/141
f 144/144/144 143/143/143 141/141/141
f 145/145/145 143/143/143 144/144/144
f 146/146/146 145/145/145 144/144/144
f 149/149/149 148/148/148 147/147/147
f 150/150/150 149/149/149 147/147/147
f 151/151/151 149/149/149 150/150/150
f 152/152/152 151/151/151 150/150/150
f 155/155/155 154/154/154 153/153/153
f 154/154/154 156/156/156 153/153/153
f 157/157/157 155/155/155 153/153/153
f 156/156/156 158/158/158 153/153/153
f 159/159/159 157/157/157 153/153/153
f 158/158/158 159/159/159 153/153/153
f 162/162/162 161/161/161 160/160/160
f 163/163/163 162/162/162 160/160/160
f 163/163/163 160/160/160 164/164/164
f 162/162/162 165/165/165 161/161/161
f 165/165/165 162/162/162 163/163/163
f 165/165/165 166/166/166 161/161/161
f 165/165/165 167/167/167 166/166/166
f 163/163/163 167/167/167 165/165/165
f 167/167/167 168/168/168 166/166/166
f 169/169/169 163/163/163 164/164/164
f 163/163/163 169/169/169 167/167/167
f 169/169/169 164/164/164 170/170/170
f 171/171/171 170/170/170 168/168/168
f 167/167/167 171/171/171 168/168/168
f 171/171/171 169/169/169 170/170/170
f 169/169/169 171/171/171 167/167/167
