g bush cube bottom
v 0.2424725 0.3849328 0.2424725
v 0.2424725 0.3849328 0
v 0.2424725 0.3849328 -0.2424725
v -0.2424725 0.3849328 -0.2424725
v -0.2424725 0.3849328 0
v -0.2424725 0.3849328 0.2424725
v -0.3254045 -0.01125264 -0.3254045
v 0 -0.2461051 3.535019E-09
v 0.3254045 -0.01125264 -0.3254045
v 0.3254045 -0.01125264 0.3254045
v 0 -0.2461051 3.535019E-09
v -0.3254045 -0.01125264 0.3254045
v 0.3254045 -0.01125264 -0.3254045
v 0 -0.2461051 3.535019E-09
v 0.3254045 -0.01125264 0.3254045
v -0.3254045 -0.01125264 0.3254045
v 0 -0.2461051 3.535019E-09
v -0.3254045 -0.01125264 -0.3254045
v 0 0.3849328 -0.2424725
v -0.2114111 0.5541843 -0.2114111
v -0.2114111 0.5541843 -0.3303486
v 0 0.3849328 0
v 0 0.3849328 0.2424725
v -0.2114111 0.5541843 0.3303486
v -0.2114111 0.5541843 0.2114111
v 0 0.3849328 0
v -0.2424725 0.3849328 0
v -0.3303486 0.5541843 -0.2114111
v -0.2114111 0.5541843 -0.2114111
v 0.2424725 0.3849328 0
v 0.2114111 0.5541843 -0.2114111
v 0.3303486 0.5541843 -0.2114111
v -0.2424725 0.3849328 0
v -0.2424725 0.3849328 -0.2424725
v -0.3303486 0.5541843 -0.3303486
v -0.3303486 0.5541843 -0.2114111
v -0.2424725 0.3849328 0.2424725
v -0.3303486 0.5541843 0.2114111
v -0.3303486 0.5541843 0.3303486
v -0.3303486 0.5541843 -0.3303486
v -0.2114111 0.5541843 -0.3303486
v -0.2114111 0.5541843 -0.2114111
v -0.3303486 0.5541843 -0.2114111
v -0.2424725 0.3849328 0
v -0.2114111 0.5541843 0.2114111
v -0.3303486 0.5541843 0.2114111
v 0 0.3849328 0
v 0.2424725 0.3849328 0
v 0.3303486 0.5541843 0.2114111
v 0.2114111 0.5541843 0.2114111
v -0.3254045 -0.01125264 -0.3254045
v 0.3254045 -0.01125264 -0.3254045
v 0.2424725 0.3849328 -0.2424725
v 0 0.3849328 -0.2424725
v -0.2424725 0.3849328 -0.2424725
v 0 0.3849328 0.2424725
v -0.2424725 0.3849328 0.2424725
v -0.3303486 0.5541843 0.3303486
v -0.2114111 0.5541843 0.3303486
v 0.2424725 0.3849328 0.2424725
v 0.2114111 0.5541843 0.3303486
v 0.3303486 0.5541843 0.3303486
v 0.2424725 0.3849328 0.2424725
v 0.3254045 -0.01125264 0.3254045
v -0.3254045 -0.01125264 0.3254045
v 0 0.3849328 0.2424725
v -0.2424725 0.3849328 0.2424725
v 0.2424725 0.3849328 -0.2424725
v 0.3254045 -0.01125264 -0.3254045
v 0.3254045 -0.01125264 0.3254045
v 0.2424725 0.3849328 0.2424725
v -0.2424725 0.3849328 0.2424725
v -0.3254045 -0.01125264 0.3254045
v -0.3254045 -0.01125264 -0.3254045
v -0.2424725 0.3849328 -0.2424725
v -0.3303486 0.5541843 0.2114111
v -0.2114111 0.5541843 0.2114111
v -0.2114111 0.5541843 0.3303486
v -0.3303486 0.5541843 0.3303486
v -0.2424725 0.3849328 -0.2424725
v -0.2114111 0.5541843 -0.3303486
v -0.3303486 0.5541843 -0.3303486
v 0 0.3849328 -0.2424725
v 0.2424725 0.3849328 -0.2424725
v 0.3303486 0.5541843 -0.3303486
v 0.2114111 0.5541843 -0.3303486
v 0.2114111 0.5541843 -0.3303486
v 0.3303486 0.5541843 -0.3303486
v 0.3303486 0.5541843 -0.2114111
v 0.2114111 0.5541843 -0.2114111
v 0 0.3849328 0
v 0 0.3849328 -0.2424725
v 0.2114111 0.5541843 -0.3303486
v 0.2114111 0.5541843 -0.2114111
v 0 0.3849328 0.2424725
v 0.2114111 0.5541843 0.2114111
v 0.2114111 0.5541843 0.3303486
v 0.2424725 0.3849328 -0.2424725
v 0.3303486 0.5541843 -0.2114111
v 0.3303486 0.5541843 -0.3303486
v 0.2424725 0.3849328 0
v 0.2424725 0.3849328 0.2424725
v 0.3303486 0.5541843 0.3303486
v 0.3303486 0.5541843 0.2114111
v 0.2114111 0.5541843 0.2114111
v 0.3303486 0.5541843 0.2114111
v 0.3303486 0.5541843 0.3303486
v 0.2114111 0.5541843 0.3303486
vt 0.1484454 0.1565588
vt 0.1637464 0.1515372
vt 0.1790476 0.1465155
vt 0.2345358 0.1520546
vt 0.2192346 0.1570761
vt 0.2039336 0.1620976
vt 0.2492582 0.2021984
vt 0.1914906 0.2354021
vt 0.1747916 0.1947652
vt 0.1337228 0.2082433
vt 0.1914906 0.2354021
vt 0.2081895 0.2156766
vt 0.1747916 0.1947652
vt 0.1914906 0.2354021
vt 0.1337228 0.2082433
vt 0.2081895 0.2156766
vt 0.1914906 0.2354021
vt 0.2492582 0.2021984
vt 0.2067917 0.149285
vt 0.2290217 0.1305923
vt 0.236527 0.1281291
vt 0.1914906 0.1543068
vt 0.1761895 0.1593281
vt 0.1948341 0.1418121
vt 0.2023397 0.1393488
vt 0.1914906 0.1543068
vt 0.2192346 0.1570761
vt 0.2426306 0.1319508
vt 0.2290217 0.1305923
vt 0.1637464 0.1515372
vt 0.1806415 0.1257629
vt 0.1670325 0.1244045
vt 0.2192346 0.1570761
vt 0.2345358 0.1520546
vt 0.250136 0.1294877
vt 0.2426306 0.1319508
vt 0.2039336 0.1620976
vt 0.2159488 0.1407072
vt 0.2084432 0.1431705
vt 0.250136 0.1294877
vt 0.236527 0.1281291
vt 0.2290217 0.1305923
vt 0.2426306 0.1319508
vt 0.2192346 0.1570761
vt 0.2023397 0.1393488
vt 0.2159488 0.1407072
vt 0.1914906 0.1543068
vt 0.1637464 0.1515372
vt 0.1403505 0.1331609
vt 0.1539595 0.1345194
vt 0.2492582 0.2021984
vt 0.1747916 0.1947652
vt 0.1790476 0.1465155
vt 0.2067917 0.149285
vt 0.2345358 0.1520546
vt 0.1761895 0.1593281
vt 0.2039336 0.1620976
vt 0.2084432 0.1431705
vt 0.1948341 0.1418121
vt 0.1484454 0.1565588
vt 0.1464541 0.1369826
vt 0.1328451 0.1356242
vt 0.1484454 0.1565588
vt 0.1337228 0.2082433
vt 0.2081895 0.2156766
vt 0.1761895 0.1593281
vt 0.2039336 0.1620976
vt 0.1790476 0.1465155
vt 0.1747916 0.1947652
vt 0.1337228 0.2082433
vt 0.1484454 0.1565588
vt 0.2039336 0.1620976
vt 0.2081895 0.2156766
vt 0.2492582 0.2021984
vt 0.2345358 0.1520546
vt 0.2159488 0.1407072
vt 0.2023397 0.1393488
vt 0.1948341 0.1418121
vt 0.2084432 0.1431705
vt 0.2345358 0.1520546
vt 0.236527 0.1281291
vt 0.250136 0.1294877
vt 0.2067917 0.149285
vt 0.1790476 0.1465155
vt 0.174538 0.1219412
vt 0.1881471 0.1232999
vt 0.1881471 0.1232999
vt 0.174538 0.1219412
vt 0.1670325 0.1244045
vt 0.1806415 0.1257629
vt 0.1914906 0.1543068
vt 0.2067917 0.149285
vt 0.1881471 0.1232999
vt 0.1806415 0.1257629
vt 0.1761895 0.1593281
vt 0.1539595 0.1345194
vt 0.1464541 0.1369826
vt 0.1790476 0.1465155
vt 0.1670325 0.1244045
vt 0.174538 0.1219412
vt 0.1637464 0.1515372
vt 0.1484454 0.1565588
vt 0.1328451 0.1356242
vt 0.1403505 0.1331609
vt 0.1539595 0.1345194
vt 0.1403505 0.1331609
vt 0.1328451 0.1356242
vt 0.1464541 0.1369826
vn 0 1 0
vn 0 1 0
vn 0 1 0
vn 0 1 0
vn 0 1 0
vn 0 1 0
vn 0 -0.8108708 -0.5852253
vn 0 -0.8108708 -0.5852253
vn 0 -0.8108708 -0.5852253
vn 0 -0.8108708 0.5852253
vn 0 -0.8108708 0.5852253
vn 0 -0.8108708 0.5852253
vn 0.5852253 -0.8108708 0
vn 0.5852253 -0.8108708 0
vn 0.5852253 -0.8108708 0
vn -0.5852253 -0.8108708 0
vn -0.5852253 -0.8108708 0
vn -0.5852253 -0.8108708 0
vn 0.6249709 0.7806479 0
vn 0.6249709 0.7806479 0
vn 0.6249709 0.7806479 0
vn 0.6249709 0.7806479 0
vn 0.6249709 0.7806479 0
vn 0.6249709 0.7806479 0
vn 0.6249709 0.7806479 0
vn 0 0.7806479 0.6249709
vn 0 0.7806479 0.6249709
vn 0 0.7806479 0.6249709
vn 0 0.7806479 0.6249709
vn 0 0.7806479 0.6249709
vn 0 0.7806479 0.6249709
vn 0 0.7806479 0.6249709
vn -0.8875056 -0.4607968 0
vn -0.8875056 -0.4607968 0
vn -0.8875056 -0.4607968 0
vn -0.8875056 -0.4607968 0
vn -0.8875056 -0.4607968 0
vn -0.8875056 -0.4607968 0
vn -0.8875056 -0.4607968 0
vn 0 1 0
vn 0 1 0
vn 0 1 0
vn 0 1 0
vn 0 0.7806479 -0.6249709
vn 0 0.7806479 -0.6249709
vn 0 0.7806479 -0.6249709
vn 0 0.7806479 -0.6249709
vn 0 0.7806479 -0.6249709
vn 0 0.7806479 -0.6249709
vn 0 0.7806479 -0.6249709
vn 0 0.2048856 -0.9787859
vn 0 0.2048856 -0.9787859
vn 0 0.2048856 -0.9787859
vn 0 0.2048856 -0.9787859
vn 0 0.2048856 -0.9787859
vn 0 -0.4607968 0.8875056
vn 0 -0.4607968 0.8875056
vn 0 -0.4607968 0.8875056
vn 0 -0.4607968 0.8875056
vn 0 -0.4607968 0.8875056
vn 0 -0.4607968 0.8875056
vn 0 -0.4607968 0.8875056
vn 0 0.2048856 0.9787859
vn 0 0.2048856 0.9787859
vn 0 0.2048856 0.9787859
vn 0 0.2048856 0.9787859
vn 0 0.2048856 0.9787859
vn 0.9787859 0.2048856 0
vn 0.9787859 0.2048856 0
vn 0.9787859 0.2048856 0
vn 0.9787859 0.2048856 0
vn -0.9787859 0.2048856 0
vn -0.9787859 0.2048856 0
vn -0.9787859 0.2048856 0
vn -0.9787859 0.2048856 0
vn 0 1 0
vn 0 1 0
vn 0 1 0
vn 0 1 0
vn 0 -0.4607968 -0.8875056
vn 0 -0.4607968 -0.8875056
vn 0 -0.4607968 -0.8875056
vn 0 -0.4607968 -0.8875056
vn 0 -0.4607968 -0.8875056
vn 0 -0.4607968 -0.8875056
vn 0 -0.4607968 -0.8875056
vn 0 1 0
vn 0 1 0
vn 0 1 0
vn 0 1 0
vn -0.6249709 0.7806479 0
vn -0.6249709 0.7806479 0
vn -0.6249709 0.7806479 0
vn -0.6249709 0.7806479 0
vn -0.6249709 0.7806479 0
vn -0.6249709 0.7806479 0
vn -0.6249709 0.7806479 0
vn 0.8875056 -0.4607968 0
vn 0.8875056 -0.4607968 0
vn 0.8875056 -0.4607968 0
vn 0.8875056 -0.4607968 0
vn 0.8875056 -0.4607968 0
vn 0.8875056 -0.4607968 0
vn 0.8875056 -0.4607968 0
vn 0 1 0
vn 0 1 0
vn 0 1 0
vn 0 1 0
g bush cube bottom_0
f 3/3/3 2/2/2 1/1/1
f 6/6/6 5/5/5 4/4/4
f 9/9/9 8/8/8 7/7/7
f 12/12/12 11/11/11 10/10/10
f 15/15/15 14/14/14 13/13/13
f 18/18/18 17/17/17 16/16/16
f 21/21/21 20/20/20 19/19/19
f 20/20/20 22/22/22 19/19/19
f 24/24/24 23/23/23 22/22/22
f 25/25/25 24/24/24 22/22/22
f 28/28/28 27/27/27 26/26/26
f 29/29/29 28/28/28 26/26/26
f 31/31/31 26/26/26 30/30/30
f 32/32/32 31/31/31 30/30/30
f 35/35/35 34/34/34 33/33/33
f 36/36/36 35/35/35 33/33/33
f 38/38/38 33/33/33 37/37/37
f 39/39/39 38/38/38 37/37/37
f 42/42/42 41/41/41 40/40/40
f 43/43/43 42/42/42 40/40/40
f 46/46/46 45/45/45 44/44/44
f 45/45/45 47/47/47 44/44/44
f 49/49/49 48/48/48 47/47/47
f 50/50/50 49/49/49 47/47/47
f 53/53/53 52/52/52 51/51/51
f 51/51/51 54/54/54 53/53/53
f 51/51/51 55/55/55 54/54/54
f 58/58/58 57/57/57 56/56/56
f 59/59/59 58/58/58 56/56/56
f 61/61/61 56/56/56 60/60/60
f 62/62/62 61/61/61 60/60/60
f 65/65/65 64/64/64 63/63/63
f 63/63/63 66/66/66 65/65/65
f 66/66/66 67/67/67 65/65/65
f 70/70/70 69/69/69 68/68/68
f 68/68/68 71/71/71 70/70/70
f 74/74/74 73/73/73 72/72/72
f 72/72/72 75/75/75 74/74/74
f 78/78/78 77/77/77 76/76/76
f 79/79/79 78/78/78 76/76/76
f 82/82/82 81/81/81 80/80/80
f 81/81/81 83/83/83 80/80/80
f 85/85/85 84/84/84 83/83/83
f 86/86/86 85/85/85 83/83/83
f 89/89/89 88/88/88 87/87/87
f 90/90/90 89/89/89 87/87/87
f 93/93/93 92/92/92 91/91/91
f 94/94/94 93/93/93 91/91/91
f 96/96/96 91/91/91 95/95/95
f 97/97/97 96/96/96 95/95/95
f 100/100/100 99/99/99 98/98/98
f 99/99/99 101/101/101 98/98/98
f 103/103/103 102/102/102 101/101/101
f 104/104/104 103/103/103 101/101/101
f 107/107/107 106/106/106 105/105/105
f 108/108/108 107/107/107 105/105/105
